<svg xmlns="http://www.w3.org/2000/svg" viewBox="0 0 400 300"><path d="M315,0L309.4,6.3L309,22.3L320.7,16.8L329,32.3L328.1,42.2L335.3,55.3L326.8,65.9L333.1,92.4L346.4,96.7L343.6,111.4L321.4,130.5L273.2,121.4L237.6,132.3L234.8,152.3L206.5,156.6L179,141.6L170.1,148.7L125.1,133.6L115.4,120.6L128,100.3L132.7,31.4L111.4,0L315,0ZM375.6,147.2L391.3,134.4L395.5,162.9L387.4,188.2L376.3,181.6L370.7,159.4Z" fill="#2c2c34" stroke="#474751" stroke-width="0.8"/><path d="M400,19.8L386.2,16.4L380.9,30.7L369.3,31.8L365.1,26.2L351.4,38.1L339.6,39.8L329,32.3L320.7,16.8L309,22.3L309.4,6.3L315,0L400,0Z" fill="#2c2c34" stroke="#474751" stroke-width="0.8"/><path d="M0,174.3L5.8,188.1L0,192.6L0,174.3Z" fill="#2c2c34" stroke="#474751" stroke-width="0.8"/><path d="M0,192.6L5.8,188.1L0,174.3L0,115.6L0,115.6L29.6,115.5L55.6,121.3L75.9,119.5L115.4,120.6L125.1,133.6L170.1,148.7L179,141.6L206.5,156.6L234.8,152.3L236.2,171.5L213,193.2L181.7,200L179.5,210.9L164.5,228.7L155,254.6L164.5,272.5L150.5,286.4L146.9,300L0,300Z" fill="#2c2c34" stroke="#474751" stroke-width="0.8"/><path d="M400,100.2L399,99.8L379.1,88.6L367.8,93.2L353.7,109L343.6,111.4L346.4,96.7L333.1,92.4L326.8,65.9L335.3,55.3L328.1,42.2L329,32.3L339.6,39.8L351.4,38.1L365.1,26.2L369.3,31.8L380.9,30.7L386.2,16.4L400,19.8L400,100.2ZM400,235.4L398.1,258.8L387,256.7L377.1,267.2L367.8,258.9L366.9,220.6L361.2,202.1L374.7,203.8L374.7,203.8L386.9,193.7L400,214.3L400,235.4Z" fill="#2c2c34" stroke="#474751" stroke-width="0.8"/><path d="M203.5,151.3L202.9,151.5L200.6,152.8L199.4,153.3L198.2,153.6L197.3,153.5L196.7,152.7L196.8,151.5L196.6,150.4L196.5,149.8L196.7,148.2L197.5,147.4L198.6,146.7L200.2,146.9L203.6,147.9L204.4,148.9L204.4,149.5L203.8,150.5Z" fill="#b8e653" stroke="#0c0e06" stroke-width="1"/></svg>
