<svg xmlns="http://www.w3.org/2000/svg" viewBox="0 0 300 300"><path fill="#e8e8ea" d="M275.1,73L278.6,77.8L279,110.7L280,113L278.1,113.4L275.9,115.9L273.4,119.7L270.1,121.7L267.4,123.9L264.7,126.7L262.5,127.3L259.4,123.8L257.5,120.2L257.9,119.4L259.4,119.2L260,117.3L259,114.5L257.1,113.6L254.6,113.5L252,114.6L249.5,117.1L248,119.6L247.8,124.8L248.5,130.6L248.4,133.4L247,136.9L246.6,142.1L247.6,146.1L248.4,148.4L248.5,150.4L246,156.8L248.2,157.9L255.1,158.4L257.3,162.6L258.6,165.6L258.3,167.3L253.2,168.7L247.2,170.1L242.7,169.7L234.6,171.5L230.3,174.5L231.7,176.4L233,177.8L233.8,181.8L232.4,187.3L230.3,192.7L227.4,199.5L224.1,207.1L219.6,218.7L215.9,227.9L215.5,234.4L215.5,238.7L215.1,247.2L211.5,251.9L210.7,252.1L206.4,251.5L205,251.3L201,250.8L194.6,249.9L186.4,248.8L176.5,247.5L165.6,246.1L154.2,244.6L142.1,242.9L130.1,241.3L118.4,239.8L107.6,238.4L97.9,237L89.5,236L83.3,235.1L79.2,234.6L77.7,234.4L73.2,233.8L70.7,230.6L67.8,226.8L64.9,223L61.9,219.1L58.8,215.3L55.9,211.4L53,207.6L49.9,203.7L47,199.9L44.1,196L41.2,192.2L38.1,188.3L35.1,184.4L32.2,180.6L29.1,176.8L26.2,172.9L23.3,169L21.4,166.4L20.2,163.5L20,155.8L20,154.2L21.9,151.1L22.9,153.3L25.2,156.2L28.9,155.5L30.7,156L32,166.6L34.8,170.4L38.3,171.9L49.7,172.8L56.7,171.3L70.9,164.5L78.3,161.9L98.6,162.4L115,165.3L140.4,166.9L145.4,166.5L159,161L167.6,156L172.6,154.6L175.9,149.9L178.1,143.7L180,139.7L182.5,137.7L184.9,134.3L186.6,128.7L191.5,123.1L210.3,109.4L221.4,97.7L222.3,94L228.5,88.3L233.2,82.1L255.9,64.4L260.4,57.1L263.1,48.9L263.3,48.2L265.2,47.9L268,49.2L268.4,55.3L267.4,61.2L267.2,67.3L266.8,70.6L268.9,73.3L272.4,74.5L274,74.4ZM274.2,97.8L274.6,95.2L274,93.8L271.7,93.6L270.7,95.9L270.3,99.1L272,99.3Z"/></svg>
