<svg xmlns="http://www.w3.org/2000/svg" viewBox="0 0 400 300"><path d="M114.8,127.2L113.2,107.5L119.8,93.3L126.5,90.3L133.8,98.8L134.3,114.7L128.9,130.6L122.1,132.5Z" fill="#2c2c34" stroke="#474751" stroke-width="0.8"/><path d="M49.2,0L48.4,2.3L56.3,23.3L39,24L32.9,10.7L11.1,8L16.5,0L49.2,0Z" fill="#2c2c34" stroke="#474751" stroke-width="0.8"/><path d="M16.5,0L11.1,8L0,7.5L0,0Z" fill="#2c2c34" stroke="#474751" stroke-width="0.8"/><path d="M153.4,300L143.9,278.8L217.1,252.8L233.4,200.5L222.2,181.8L222.2,181.8L222.9,171.1L230,160.1L230.1,149.2L241.2,143.9L236.8,140.2L238.8,122.7L251.3,122.6L262.3,140.9L275.9,150.6L293.8,154.1L308.3,159L319.3,174.2L325.9,183L334.7,186.4L334.6,192.3L325.7,208L321.8,215.4L311.5,223.8L302.4,241.6L291.3,240.3L286.2,246.5L282.3,259.7L285.3,277L283,280.2L271.8,280.1L256.5,289.7L254.5,300L153.4,300ZM247.9,101.2L243.4,91.9L250.4,82.7L253.5,85L251.2,96.3Z" fill="#2c2c34" stroke="#474751" stroke-width="0.8"/><path d="M400,115.8L375.9,118.4L385.2,86.9L400,81L400,115.8ZM400,28.3L382.6,19.2L372.8,2.3L370.9,0L396.2,0L396.2,0L400,1.3L400,28.3Z" fill="#2c2c34" stroke="#474751" stroke-width="0.8"/><path d="M400,1.3L396.2,0L400,0Z" fill="#2c2c34" stroke="#474751" stroke-width="0.8"/><path d="M370.9,0L372.8,2.3L382.6,19.2L400,28.3L400,81L400,81L385.2,86.9L375.9,118.4L329.9,110.3L303.3,104L275.7,100.5L265.4,67.1L253.7,62.2L234.8,67.1L210.2,80.4L180.4,71.3L155.7,50.2L132.2,42.3L115.8,16L108.1,0L370.9,0Z" fill="#2c2c34" stroke="#474751" stroke-width="0.8"/><path d="M51.1,300L73.4,288.6L143.9,278.8L143.9,278.8L153.4,300L51.1,300Z" fill="#2c2c34" stroke="#474751" stroke-width="0.8"/><path d="M0,7.5L11.1,8L32.9,10.7L39,24L56.3,23.3L65.8,47.2L77.9,53.5L82,63.1L98.7,74.7L100.2,85.9L97.8,95L100.9,104.1L107.9,111.7L111.1,120.5L114.8,127.2L122.1,132.5L128.9,130.6L133.6,140.8L134.5,147L143.9,174L217.3,187.4L222.2,181.8L233.4,200.5L217.1,252.8L143.9,278.8L73.4,288.6L51.1,300L0,300Z" fill="#2c2c34" stroke="#474751" stroke-width="0.8"/><path d="M248.9,103L250.5,105.1L250.7,120L251.1,121.1L250.2,121.3L249.3,122.4L248.1,124.1L246.6,125L245.4,126L244.2,127.3L243.2,127.6L241.8,126L240.9,124.3L241.1,124L241.8,123.9L242,123L241.6,121.8L240.7,121.4L239.6,121.3L238.4,121.8L237.3,122.9L236.6,124.1L236.5,126.4L236.9,129.1L236.8,130.3L236.1,131.9L236,134.2L236.4,136.1L236.8,137.1L236.9,138L235.7,140.9L236.7,141.4L239.8,141.6L240.8,143.6L241.4,144.9L241.2,145.7L239,146.3L236.2,146.9L234.2,146.8L230.5,147.6L228.6,148.9L229.2,149.8L229.8,150.4L230.2,152.2L229.5,154.7L228.6,157.2L227.3,160.2L225.8,163.7L223.7,169L222.1,173.1L221.9,176.1L221.9,178L221.7,181.9L220,184L219.7,184.1L217.8,183.8L217.1,183.7L215.3,183.5L212.4,183.1L208.7,182.6L204.2,182L199.3,181.4L194.1,180.7L188.6,179.9L183.2,179.2L177.9,178.5L173,177.9L168.6,177.3L164.8,176.8L162,176.4L160.1,176.2L159.4,176.1L157.4,175.8L156.3,174.4L155,172.6L153.6,170.9L152.3,169.2L150.9,167.4L149.6,165.7L148.3,163.9L146.9,162.2L145.5,160.4L144.2,158.7L142.9,157L141.5,155.2L140.2,153.4L138.9,151.7L137.4,150L136.1,148.2L134.8,146.4L133.9,145.3L133.4,144L133.3,140.5L133.3,139.7L134.2,138.3L134.6,139.3L135.7,140.7L137.4,140.3L138.2,140.6L138.8,145.4L140,147.1L141.6,147.8L146.8,148.2L149.9,147.5L156.4,144.4L159.7,143.2L168.9,143.5L176.3,144.8L187.9,145.5L190.1,145.3L196.3,142.8L200.2,140.6L202.5,139.9L204,137.8L204.9,135L205.8,133.2L206.9,132.3L208,130.7L208.8,128.2L211,125.7L219.5,119.4L224.5,114.1L225,112.5L227.8,109.9L229.9,107.1L240.2,99.1L242.2,95.8L243.4,92L243.5,91.7L244.4,91.6L245.6,92.2L245.8,95L245.4,97.6L245.3,100.4L245.1,101.9L246.1,103.1L247.7,103.6L248.4,103.6ZM248.5,114.2L248.6,113L248.4,112.4L247.3,112.3L246.9,113.3L246.7,114.8L247.5,114.9ZM176.4,140.5L174.6,140.6L173,139.6L176.4,138.3L177.4,137.6L178.4,136.4L179.1,137.5L178.3,139.1L177.6,139.9ZM158.9,139.6L158.5,139.8L158.1,138.4L158.1,138L159.3,137.3L159.9,138.5ZM190.9,142.6L190.9,143.6L188.5,143.3L187.9,143.7L185.7,143.5L183.8,142.9L185.1,141.7L188.6,140.4L190.1,141.6ZM204.1,135.5L203.9,136.1L203.2,136L201.5,135.5L200.9,134.8L202,133.9L202.5,133.8L203.2,134.8Z" fill="#b8e653" stroke="#0c0e06" stroke-width="1"/></svg>
