<svg xmlns="http://www.w3.org/2000/svg" viewBox="0 0 300 300"><path fill="#e8e8ea" d="M129,76.5L134.5,76L138.9,76.9L141.1,79.1L143.3,79.7L145.5,78.6L146.9,78.4L147.4,79.1L148.5,79.4L150.2,79.3L151.2,79.9L151.3,80.6L151.4,81.3L152.6,83L154.9,85.1L156.9,85.6L159.5,84L160.4,84.2L160.8,83.6L161,82.4L162.6,81.3L165.5,80.3L167.1,79.4L167.7,78.6L168.7,78.4L169.7,78.6L170.5,78.3L170.8,77.6L171.1,77.3L171.6,77L172.1,76.9L173,77.1L174.6,78.4L176.9,80.9L178.5,82L179.1,81.8L180.1,81.1L181.2,79.7L181.4,77.8L180.9,75.4L181.3,73.4L182.6,71.9L185,71L188.5,70.6L190.6,70.8L191.5,71.6L192.5,72L193.9,72.1L195.1,71.2L196.3,69.3L196.4,67.1L195.3,64.3L195.6,63.4L196,63L197.4,62L199.3,60L201.1,57.3L202.9,54L205,52L207.6,51.2L210.7,52.1L214.4,54.6L215.8,57.8L214.9,61.5L214.8,63.6L215.5,64L216.8,63.8L218.6,63.2L219.8,63.2L220.3,63.8L220.3,64.8L219.6,66.4L218.9,70.8L218.5,74.6L218,78.3L217.6,81.6L218.3,84.1L219.4,87.9L220.5,90.5L221.8,91.3L223,91.6L224.2,91.3L226.8,89.7L230.6,86.7L234.3,84.8L239.7,83.8L241.5,80.6L244,78.4L249.7,75.2L252.8,74L254.6,73.7L256.8,74.3L257.3,74.5L257.8,74.7L258.9,75L259.1,75.9L258.8,77L257.6,77.8L257.2,78.5L257.7,79L259.4,79.2L263,78L265.3,77.3L266.9,77L267.6,76L268.6,75L270.3,75L271.9,75.5L273.4,75.8L275.8,75.5L277.1,76.3L279,78L279.7,79L280,79.2L279.1,79.3L277.8,78.8L277.3,78L277.1,77.9L276,78.4L274,79.1L270.6,80.9L270.7,81.3L272.9,83.1L273.4,83.7L273.7,83.9L271.7,84.8L267.5,86.8L264.7,88.4L263.9,88.4L262.3,87.8L259.8,87L259.1,87L253.3,87.1L248,87.4L245.8,87.8L241.7,88.2L239.1,88.3L237.4,88.9L235.6,89.7L233.7,90.2L232.4,90.4L230.7,91.2L229.6,92.7L226.4,94.9L224.6,96L223.7,97.2L222.7,97.3L221,97.1L219.6,98.5L218.1,100.3L215.4,103.1L214,104.2L213.1,106L213.8,106.9L216,108.3L217,109.6L217.5,110.6L218.5,113.2L219.2,115.9L220.1,117L220.4,118.9L220.6,120.1L220.1,120.9L219.6,121.8L219.6,122.7L220.2,123.6L220.7,124.4L221,125L220.7,125.7L219.6,126.8L219.1,128L218,129.8L216.3,131.1L215.1,132L213.8,133.9L211.8,136.1L211,137.9L210.1,138.9L209.2,139.4L209.4,140.4L210.2,141.6L211.5,142.9L211.4,145L211.4,146.5L211.4,148.4L210.7,149.9L207,151.4L203.5,152L199.2,152.1L197.6,151.8L196.3,151.5L191.6,149.8L189.7,150.8L189.3,153.2L192.7,157.1L194.2,159.2L195.7,162.8L196.9,164.7L196.4,166.4L193.4,168.4L190.3,170.2L186.4,170.6L184,171.2L182.7,172.2L181.9,176.2L181,177.7L181,179.4L180.2,181.4L179,182.7L178,184.8L178.3,188.7L178.8,195.4L177.1,197.5L175.2,199.6L173.2,201.1L171.3,201.8L169.8,201.5L168.5,200.2L167.8,199.1L166.4,198.2L165,198.4L163.6,199.3L161.4,199L159.5,198.1L158.5,198.2L158,199.1L155.9,200.9L150.9,203.6L148.9,203.8L148,204.5L148.3,205.6L149.3,206.5L150.8,207.2L150.9,207.9L149.5,208.6L148.3,209.3L145.7,210.2L142.8,210.6L139.7,210.1L138.1,208.9L136.2,208.7L134.5,209.6L132.7,211.1L130.8,214.2L130.3,214.8L129.8,215.3L128.5,216L126.7,217.1L125.8,219.4L124.7,223.4L124.9,225.7L125.1,229.4L124.6,232.1L123.8,233.9L124,235.2L125.2,236.8L124.7,237.8L123.7,239L122.7,239.6L118.8,240.8L113.5,242.4L110,243.4L104.7,244.9L103.2,245.3L100,245.5L98.4,245.2L96.2,245.2L92.8,245.2L90.5,245.6L88.2,246.4L86.5,247.4L85.6,248.3L85.2,248.8L82.9,248L75.6,246.6L55.9,248.4L54.1,248.1L47.4,245.9L38.7,243.1L33.3,241.4L26.4,239.1L31.2,233.5L35.3,228.6L39.4,223.6L43.5,218.7L43.9,217L44,213.7L42.9,209.2L41.2,207.1L35.5,206.3L31.3,205.7L26.6,205L26,204.7L25.5,201.2L25.7,199.7L25.5,196.6L25.5,194.3L26.2,190.4L26.2,188.7L24,181.2L22.9,177.1L21.6,172.7L21.4,171.3L21.4,169.7L24.2,165.7L25.1,164.8L26.8,162.8L27.8,161.7L27.6,161L25.8,160.5L23.1,160.5L21.6,159.9L20.5,158.8L20,157.2L20.7,154.4L20,148.9L21.5,146.2L22.9,144.3L27.3,144L25.7,141.8L25,140.6L24.5,140.2L24.4,139.7L24.5,139.1L25.7,138.9L26.5,138.2L27.7,137.1L28.4,136.7L28.5,135.4L29.1,134.6L30,133.5L30.7,132.2L30.5,130.8L31.2,129L31.5,128L32,127L31.6,125.6L31.2,124.4L31.1,123.1L31.8,122.7L32.7,122.2L32.9,121.1L33.3,119.7L33.7,118.6L34.3,117.7L34.4,116.8L34,115.4L35.5,115.2L36.1,115.9L36.9,117L39.1,118.9L40.5,119.5L42.3,119.8L44.4,119.6L46.2,119.2L47,119.3L48.9,120.7L51.2,122.7L51.9,123.6L52.2,124.9L52.9,125.3L54.3,124L55.7,123.5L57,123.8L58.3,123.9L59.8,123.4L60.4,123.1L62.8,121.4L65,120L66.4,119.2L66.9,116.5L67.5,115L68.4,114L68.1,113L67.7,112.1L67.3,111L67.7,110.3L68.6,110.1L70.8,110.1L74.7,108.8L78,107.6L81,106.6L82.3,106.5L83.6,106.6L84.2,106.4L84.3,105.4L85.1,104.4L86.7,103.6L89.9,101.9L92.7,99.3L93.6,97.3L94.3,94.5L95.6,90.1L97,85.2L97.5,83.1L98.2,81.5L100.6,80.1L103.1,79.1L106.9,78.9L111.5,78.7L112.5,76.1L113.1,73.9L113.8,72.7L114.9,71.7L115.3,71.5L117.7,72.9L121.5,75L125.9,76.1L128.1,76.6Z"/></svg>
