<svg xmlns="http://www.w3.org/2000/svg" viewBox="0 0 400 300"><path d="M352.8,0L351.7,1.3L346.3,0L352.8,0ZM333.6,0L328.2,19.7L323.7,22.4L306.6,27.3L314.4,48.3L308.4,51.4L309.1,58.1L303.8,56.4L299.4,52.1L286.5,50.9L272.1,50.6L269,51.9L256.6,46.9L251.7,49.4L250.3,56.3L236.1,52.3L230.4,53.9L228.4,59.1L223.4,61.3L212,69.4L208.2,77.6L205,77.7L202.6,72.2L191.5,71.9L189.8,62.3L185.6,62.3L186.2,50.5L175.8,41.7L160.9,42.7L150.7,44.4L142.5,33.6L135.4,29L121.9,20.1L120.3,19.1L97.9,26.4L98.3,70.2L93.9,70.8L87.8,61.7L81.9,58.4L72,60.8L68.2,64.7L67.7,61.9L69.9,57L68.2,52.9L58.1,48.8L54.2,38.1L49.4,35L49.1,31.1L57.6,32.2L57.9,23.3L65.3,21.3L72.9,23.1L74.5,11L72.9,3.2L64.2,3.8L56.8,0.7L46.8,6.3L38.7,8.9L34.3,6.9L35.2,0.4L35,0L333.6,0Z" fill="#2c2c34" stroke="#474751" stroke-width="0.8"/><path d="M98.3,70.2L97.9,26.4L120.3,19.1L121.9,20.1L135.4,29L142.5,33.6L150.7,44.4L160.9,42.7L175.8,41.7L186.2,50.5L185.6,62.3L189.8,62.3L191.5,71.9L202.6,72.2L205,77.7L208.2,77.6L212,69.4L223.4,61.3L228.4,59.1L231,60.3L223.7,67.8L230.1,72.1L236.3,69.3L246.6,75.3L235.5,83.5L228.9,82.4L225.3,82.7L224,79.6L225.9,74.2L214.3,76.9L211.5,84.2L207.4,90.5L200.1,89.9L197.9,94.9L204.2,97.5L206.1,105.8L201.2,116.9L194.7,114.6L189.9,114.5L190.1,107.8L178.6,103.1L169.5,97.7L163.8,92.4L153.9,84.6L149.6,72.8L146.7,70.7L137.3,71.2L134,68.9L133.1,59.6L121.4,53.4L114.1,60.2L106.7,64.2L108.1,70.1Z" fill="#2c2c34" stroke="#474751" stroke-width="0.8"/><path d="M35,0L35.2,0.4L34.3,6.9L38.7,8.9L34.7,16.3L26.3,18.4L17.7,31.1L25.6,42.6L24.7,50.6L34.2,64.4L29,69.1L27.5,72L23.7,71.3L17.7,64.2L15.3,63.8L9.8,61.1L7.2,56.3L0,54.1L0,0Z" fill="#2c2c34" stroke="#474751" stroke-width="0.8"/><path d="M60.2,247.6L61.7,247.1L62.1,249.7L68.9,248.2L76,248.5L81.3,248.7L87.2,242.3L93.7,236.1L99.2,230.2L100.8,233.5L102,241.1L97.6,241.1L96.9,247.3L98.4,248.6L94.5,250.5L94.4,254.4L91.9,258.3L91.7,262.1L89.9,264.1L63.9,259.4L60.6,249.8Z" fill="#2c2c34" stroke="#474751" stroke-width="0.8"/><path d="M53.5,242.7L53,235.7L55.3,230.7L57.7,229.6L60.3,232.7L60.5,238.3L58.6,243.9L56.1,244.6Z" fill="#2c2c34" stroke="#474751" stroke-width="0.8"/><path d="M28.9,191.7L30.7,196.1L30,198.4L32.7,205.8L26.6,206.1L24.5,201.4L16.7,200.4L23.1,190.8Z" fill="#2c2c34" stroke="#474751" stroke-width="0.8"/><path d="M0,117.1L1.1,116.6L6.8,129.5L12.4,132.7L13.1,138.9L8.8,142.6L6.7,150.8L12.8,160.7L23.4,166.4L27.8,174.1L26.4,181.5L29.2,181.5L29.3,186.9L34.1,192.2L28.9,191.7L23.1,190.8L16.7,200.4L0.6,199.6L0,199.1L0,117.1Z" fill="#2c2c34" stroke="#474751" stroke-width="0.8"/><path d="M65.4,300L63.9,296.6L89.9,287.3L95.7,268.8L91.7,262.1L91.7,262.1L91.9,258.3L94.4,254.4L94.5,250.5L98.4,248.6L96.9,247.3L97.6,241.1L102,241.1L105.9,247.6L110.8,251L117.1,252.3L122.3,254L126.2,259.4L128.5,262.6L131.6,263.8L131.6,265.8L128.4,271.4L127.1,274L123.4,277L120.2,283.4L116.2,282.9L114.4,285.1L113,289.8L114.1,295.9L113.3,297.1L109.3,297L104.6,300L65.4,300ZM100.8,233.5L99.2,230.2L101.7,226.9L102.8,227.8L102,231.7Z" fill="#2c2c34" stroke="#474751" stroke-width="0.8"/><path d="M400,19.6L398.7,17.4L400,11.8L400,19.6Z" fill="#2c2c34" stroke="#474751" stroke-width="0.8"/><path d="M400,238.9L392.9,237.8L392.2,231.1L388,230.6L381.2,226.4L378.1,233L384.3,238.1L378.9,241.6L377,245.1L382.3,247.7L380.9,253.4L383.9,260.5L385.2,268.2L384,271.6L378.1,271.5L367.4,273.5L367.9,280.5L363.3,285.9L350.8,292.2L343.7,300L245.7,300L245.7,300L244.5,294.6L244.6,283.5L242.9,274.8L230.3,280.3L224.1,279.2L212.8,267.9L217,264.5L214.4,260.8L204.2,252.8L210,246.5L229.1,246.5L227.4,238.3L222.5,233.4L221.5,226L215.9,221.6L225.4,211.4L235.5,212.1L244.6,201.8L250,191.7L258.4,181.6L258.3,174.3L265.7,168.4L258.7,163.3L255.7,156.3L252.6,147.1L256.9,142.6L270,145.2L279.7,143.6L288.1,134.7L297.4,147.1L296.5,155.6L300,160.9L299.7,166.2L293.5,164.8L295.9,176.1L304.4,182.5L316.5,189.6L311,194.1L307.6,203.4L316,207.2L324.2,212L335.5,217.5L347.4,218.8L352.4,223.7L359.1,224.6L369.6,226.9L376.8,226.7L377.8,222.9L376.7,216.7L377.3,212.5L382.6,210.4L383.3,218.1L383.5,220.1L391.4,223.8L396.9,222.3L400,222.5L400,238.9Z" fill="#2c2c34" stroke="#474751" stroke-width="0.8"/><path d="M400,261.3L397.9,261.2L398.7,265.1L396,270.3L392.3,268.4L391,270.1L388.6,269.1L385.2,268.2L383.9,260.5L380.9,253.4L382.3,247.7L377,245.1L378.9,241.6L384.3,238.1L378.1,233L381.2,226.4L388,230.6L392.2,231.1L392.9,237.8L400,238.9L400,261.3Z" fill="#2c2c34" stroke="#474751" stroke-width="0.8"/><path d="M400,222.5L396.9,222.3L391.4,223.8L383.5,220.1L383.3,218.1L389.1,210.8L393.8,208.3L400,210.6L400,210.6L400,222.5Z" fill="#2c2c34" stroke="#474751" stroke-width="0.8"/><path d="M377.3,212.5L376.7,216.7L377.8,222.9L376.8,226.7L369.6,226.9L359.1,224.6L352.4,223.7L347.4,218.8L335.5,217.5L324.2,212L316,207.2L307.6,203.4L311,194.1L316.5,189.6L320.1,187.2L327,190.3L335.8,196.8L340.7,198.2L343.6,203L350.4,204.9L357.4,209.3L367.2,211.5Z" fill="#2c2c34" stroke="#474751" stroke-width="0.8"/><path d="M288.1,134.7L279.7,143.6L270,145.2L256.9,142.6L252.6,147.1L255.7,156.3L258.7,163.3L265.7,168.4L258.3,174.3L258.4,181.6L250,191.7L244.6,201.8L235.5,212.1L225.4,211.4L215.9,221.6L221.5,226L222.5,233.4L227.4,238.3L229.1,246.5L210,246.5L204.2,252.8L197.9,250.4L195.3,243.6L188.6,236.3L172.6,238.1L158.5,238.3L146.3,239.6L149.6,228.4L162.1,223.4L161.3,218.9L157.2,217.3L157,208.7L148.7,204.4L145.2,198.4L140.9,193.1L155.4,198.2L164.1,196.7L169.3,198L171,195.8L177.1,196.7L188.4,192.5L188.7,184L193.5,178.3L200,178.3L200.9,175.4L207.5,174.1L210.8,175L214.1,172.2L213.7,166L217.4,159.8L222.9,157.2L219.4,150.3L227.7,150.6L230.1,146.8L229.7,142.8L234.1,138.3L233.1,133L231,128.5L236.1,123.8L245.4,121.5L255.4,120.3L259.8,118.3L264.8,117L271.2,122.1L273.8,130.4Z" fill="#2c2c34" stroke="#474751" stroke-width="0.8"/><path d="M201.2,116.9L206.1,105.8L204.2,97.5L197.9,94.9L200.1,89.9L207.4,90.5L211.5,84.2L214.3,76.9L225.9,74.2L224,79.6L225.3,82.7L228.9,82.4L225.7,85.9L216.2,84L215.4,90.5L224.8,89.7L235.5,93.3L252,91.6L254.2,101.9L257,100.8L262.3,103.4L262,107.7L263.3,113.9L254.3,113.9L248.3,113.1L242.9,118L239.1,119L236.1,121.3L232.6,117.8L233.4,108.6L230.8,108.1L231.8,104.7L227.1,102.2L223.3,106L222.4,110.5L221.1,112.1L215.9,111.8L213.1,116.8L210.2,114.7L203.9,118.2Z" fill="#2c2c34" stroke="#474751" stroke-width="0.8"/><path d="M228.4,59.1L230.4,53.9L236.1,52.3L250.3,56.3L251.7,49.4L256.6,46.9L269,51.9L272.1,50.6L286.5,50.9L299.4,52.1L303.8,56.4L309.1,58.1L307.9,60.8L294.2,67.1L291.1,71.7L280,73L276.7,80.4L267.5,78.8L261.5,81L253.2,86.4L254.4,89L252,91.6L235.5,93.3L224.8,89.7L215.4,90.5L216.2,84L225.7,85.9L228.9,82.4L235.5,83.5L246.6,75.3L236.3,69.3L230.1,72.1L223.7,67.8L231,60.3Z" fill="#2c2c34" stroke="#474751" stroke-width="0.8"/><path d="M68.2,64.7L72,60.8L81.9,58.4L87.8,61.7L93.9,70.8L98.3,70.2L108.1,70.1L106.7,64.2L114.1,60.2L121.4,53.4L133.1,59.6L134,68.9L137.3,71.2L146.7,70.7L149.6,72.8L153.9,84.6L163.8,92.4L169.5,97.7L178.6,103.1L190.1,107.8L189.9,114.5L187.2,114.2L183.1,111.3L181.8,115.2L174.5,117.3L172.7,125.9L167.8,129.2L161,130.8L159.2,135.7L152.7,137.1L143.8,133L143,124L136.6,123.6L126.6,114L119.7,112.8L110.1,107.2L103.9,106.2L100.1,108.3L94.3,107.9L88.2,114.2L80.5,116.3L78.9,108.6L80.2,97L73.4,93.2L75.6,85.5L69.9,84.8L71.8,75.2L80,78L87.6,74.4L81.3,67.4L78.8,60.8L71.8,63.8L70.9,72.2Z" fill="#2c2c34" stroke="#474751" stroke-width="0.8"/><path d="M0,89.2L1.3,88.5L2.7,92.7L7.1,97.9L13,99.3L16.2,99L26.4,90.8L29.7,89.9L32.2,93.2L29.2,98.8L34.7,104.6L36.8,104L39.6,112.1L47.8,114.4L53.8,119.9L66.1,121.7L79.7,118.9L80.5,116.3L88.2,114.2L94.3,107.9L100.1,108.3L103.9,106.2L110.1,107.2L119.7,112.8L126.6,114L136.6,123.6L143,124L143.8,133L140.2,146.2L137.9,153.9L141.7,155.4L137.9,161.1L140.8,169.3L141.5,175.8L148,177.5L148.7,184L140.9,193.1L145.2,198.4L148.7,204.4L157,208.7L157.2,217.3L161.3,218.9L162.1,223.4L149.6,228.4L146.3,239.6L129.9,236.7L120.5,234.5L110.7,233.3L107,221.4L102.9,219.6L96.2,221.4L87.4,226.1L76.8,222.9L68,215.4L59.7,212.6L53.9,203.2L47.5,189.9L42.8,191.6L37.3,188.2L34.1,192.2L34.1,192.2L29.3,186.9L29.2,181.5L26.4,181.5L27.8,174.1L23.4,166.4L12.8,160.7L6.7,150.8L8.8,142.6L13.1,138.9L12.4,132.7L6.8,129.5L1.1,116.6L0,114.5L0,89.2Z" fill="#2c2c34" stroke="#474751" stroke-width="0.8"/><path d="M0,71.4L2.9,70.9L4.7,74L8,76L6.2,78.8L10.8,82.7L8.4,86.3L12.1,89.4L16,91.3L16.2,99L16.2,99L13,99.3L9.5,92.9L9.5,91.1L5.7,91.2L3.1,88.1L1.3,88.5L0,87.2L0,71.4Z" fill="#2c2c34" stroke="#474751" stroke-width="0.8"/><path d="M0,87.2L1.3,88.5L0,89.2L0,87.2ZM0,114.5L1.1,116.6L1.1,116.6L0,117.1L0,114.5Z" fill="#2c2c34" stroke="#474751" stroke-width="0.8"/><path d="M346.3,0L351.7,1.3L352.8,0L400,0L400,11.8L398.7,17.4L400,19.6L400,210.6L400,210.6L400,210.6L393.8,208.3L389.1,210.8L383.3,218.1L382.6,210.4L377.3,212.5L367.2,211.5L357.4,209.3L350.4,204.9L343.6,203L340.7,198.2L335.8,196.8L327,190.3L320.1,187.2L316.5,189.6L304.4,182.5L295.9,176.1L293.5,164.8L299.7,166.2L300,160.9L296.5,155.6L297.4,147.1L288.1,134.7L273.8,130.4L271.2,122.1L264.8,117L263.3,113.9L262,107.7L262.3,103.4L257,100.8L254.2,101.9L252,91.6L254.4,89L253.2,86.4L261.5,81L267.5,78.8L276.7,80.4L280,73L291.1,71.7L294.2,67.1L307.9,60.8L309.1,58.1L309.1,58.1L308.4,51.4L314.4,48.3L306.6,27.3L323.7,22.4L328.2,19.7L333.6,0L346.3,0Z" fill="#2c2c34" stroke="#474751" stroke-width="0.8"/><path d="M15.3,63.8L17.7,64.2L23.7,71.3L27.5,72L29,69.1L34.2,64.4L38.8,70.5L43.2,78.7L47.2,79.2L49.9,82.3L42.8,83.2L41.2,92L39.7,95.9L36.6,98.5L36.8,104L34.7,104.6L29.2,98.8L32.2,93.2L29.7,89.9L26.4,90.8L16.2,99L16,91.3L12.1,89.4L8.4,86.3L10.8,82.7L6.2,78.8L8,76L4.7,74L2.9,70.9L5,69.1L11.5,72.4L16.1,73.1L17.3,71.7L13.1,65.4ZM13,99.3L7.1,97.9L2.7,92.7L1.3,88.5L3.1,88.1L5.7,91.2L9.5,91.1L9.5,92.9Z" fill="#2c2c34" stroke="#474751" stroke-width="0.8"/><path d="M0,54.1L7.2,56.3L9.8,61.1L15.3,63.8L13.1,65.4L17.3,71.7L16.1,73.1L11.5,72.4L5,69.1L2.9,70.9L0,71.4L0,54.1Z" fill="#2c2c34" stroke="#474751" stroke-width="0.8"/><path d="M39.3,300L63.9,296.6L63.9,296.6L65.4,300L39.3,300Z" fill="#2c2c34" stroke="#474751" stroke-width="0.8"/><path d="M0,199.1L0.6,199.6L16.7,200.4L24.5,201.4L26.6,206.1L32.7,205.8L36.2,214.3L40.4,216.6L41.9,220L47.8,224.1L48.3,228.1L47.5,231.3L48.6,234.5L51.1,237.2L52.2,240.4L53.5,242.7L56.1,244.6L58.6,243.9L60.2,247.6L60.6,249.8L63.9,259.4L89.9,264.1L91.7,262.1L95.7,268.8L89.9,287.3L63.9,296.6L39.3,300L0,300Z" fill="#2c2c34" stroke="#474751" stroke-width="0.8"/><path d="M189.9,114.7L192.5,114.4L194.6,114.8L195.7,115.9L196.8,116.2L197.9,115.7L198.5,115.6L198.8,115.9L199.3,116.1L200.1,116L200.6,116.3L200.6,116.6L200.7,117L201.3,117.8L202.4,118.8L203.3,119L204.5,118.3L205,118.4L205.2,118.1L205.3,117.5L206.1,117L207.5,116.5L208.2,116L208.5,115.7L209,115.6L209.5,115.7L209.9,115.5L210,115.2L210.1,115L210.4,114.9L210.6,114.9L211,114.9L211.8,115.6L213,116.8L213.7,117.3L214,117.2L214.5,116.9L215,116.2L215.1,115.3L214.9,114.1L215,113.2L215.7,112.4L216.8,112L218.5,111.8L219.5,111.9L219.9,112.3L220.4,112.5L221.1,112.6L221.7,112.1L222.3,111.2L222.3,110.1L221.8,108.8L221.9,108.4L222.1,108.2L222.8,107.7L223.7,106.7L224.6,105.4L225.4,103.8L226.4,102.9L227.7,102.5L229.2,102.9L231,104.2L231.6,105.7L231.2,107.4L231.2,108.4L231.5,108.6L232.1,108.6L233,108.3L233.5,108.3L233.8,108.5L233.8,109L233.5,109.8L233.1,111.9L232.9,113.7L232.7,115.5L232.5,117.1L232.9,118.3L233.4,120.2L233.9,121.4L234.5,121.8L235.1,121.9L235.7,121.8L236.9,121L238.8,119.6L240.5,118.7L243.1,118.2L244,116.6L245.2,115.6L247.9,114L249.4,113.4L250.3,113.3L251.3,113.6L251.6,113.7L251.8,113.8L252.3,113.9L252.5,114.4L252.3,114.9L251.7,115.3L251.5,115.6L251.8,115.9L252.6,116L254.3,115.4L255.4,115L256.2,114.9L256.5,114.4L257,114L257.8,113.9L258.6,114.2L259.3,114.3L260.5,114.2L261.1,114.6L262,115.4L262.4,115.9L262.5,116L262.1,116L261.4,115.8L261.2,115.4L261.1,115.3L260.6,115.6L259.6,115.9L258,116.8L258,117L259.1,117.9L259.3,118.1L259.5,118.2L258.5,118.7L256.5,119.6L255.1,120.4L254.8,120.4L254,120.1L252.8,119.7L252.4,119.7L249.7,119.8L247.1,119.9L246,120.1L244.1,120.3L242.8,120.3L242,120.6L241.2,121L240.3,121.3L239.6,121.4L238.8,121.7L238.3,122.5L236.7,123.5L235.9,124L235.4,124.6L235,124.7L234.1,124.6L233.5,125.2L232.8,126.1L231.4,127.4L230.8,128L230.4,128.8L230.7,129.3L231.7,129.9L232.2,130.6L232.4,131.1L232.9,132.3L233.3,133.6L233.7,134.1L233.9,135.1L233.9,135.6L233.7,136L233.5,136.5L233.5,136.9L233.8,137.3L234,137.7L234.1,138L234,138.3L233.5,138.9L233.2,139.4L232.7,140.3L231.9,140.9L231.3,141.3L230.7,142.3L229.7,143.3L229.3,144.2L228.9,144.7L228.4,144.9L228.6,145.4L228.9,145.9L229.6,146.6L229.5,147.6L229.5,148.3L229.5,149.2L229.2,150L227.4,150.7L225.7,151L223.7,151L222.9,150.9L222.3,150.7L220,149.9L219.1,150.4L218.9,151.5L220.5,153.4L221.2,154.4L222,156.2L222.5,157.1L222.3,157.9L220.9,158.8L219.4,159.7L217.5,159.9L216.3,160.2L215.7,160.7L215.3,162.6L214.9,163.3L214.9,164.2L214.5,165.1L213.9,165.7L213.5,166.7L213.6,168.6L213.8,171.8L213,172.8L212.1,173.8L211.2,174.6L210.3,174.9L209.5,174.8L208.9,174.1L208.5,173.6L207.9,173.2L207.2,173.3L206.5,173.7L205.5,173.5L204.6,173.1L204.1,173.2L203.8,173.6L202.9,174.5L200.5,175.8L199.5,175.9L199,176.2L199.2,176.7L199.6,177.2L200.4,177.5L200.4,177.9L199.8,178.2L199.2,178.5L198,179L196.5,179.1L195,178.9L194.3,178.3L193.4,178.2L192.5,178.7L191.7,179.4L190.8,180.9L190.5,181.1L190.3,181.4L189.7,181.7L188.8,182.2L188.4,183.3L187.8,185.3L188,186.4L188,188.2L187.8,189.5L187.4,190.3L187.5,191L188.1,191.7L187.8,192.2L187.4,192.8L186.9,193.1L185,193.6L182.5,194.4L180.8,194.9L178.2,195.6L177.5,195.8L176,195.9L175.2,195.8L174.1,195.8L172.5,195.8L171.4,196L170.3,196.3L169.5,196.8L169,197.3L168.9,197.5L167.7,197.1L164.2,196.4L154.8,197.3L153.9,197.2L150.7,196.1L146.5,194.8L143.9,193.9L140.6,192.8L142.9,190.1L144.8,187.8L146.8,185.4L148.8,183L149,182.2L149,180.6L148.5,178.5L147.7,177.5L145,177.1L142.9,176.8L140.7,176.4L140.4,176.3L140.2,174.6L140.2,173.9L140.1,172.4L140.1,171.3L140.5,169.4L140.5,168.6L139.4,165L138.9,163L138.3,160.9L138.2,160.3L138.2,159.5L139.5,157.5L139.9,157.1L140.7,156.1L141.2,155.6L141.2,155.3L140.3,155.1L139,155.1L138.3,154.8L137.7,154.2L137.5,153.5L137.8,152.1L137.5,149.5L138.2,148.2L138.9,147.2L141,147.1L140.2,146.1L139.9,145.5L139.7,145.3L139.6,145L139.7,144.7L140.2,144.7L140.6,144.3L141.2,143.8L141.5,143.6L141.6,143L141.9,142.6L142.3,142.1L142.7,141.5L142.6,140.8L142.9,139.9L143,139.4L143.2,138.9L143.1,138.3L142.9,137.7L142.8,137L143.2,136.9L143.6,136.6L143.7,136.1L143.9,135.4L144.1,134.9L144.4,134.5L144.4,134.1L144.2,133.3L145,133.3L145.2,133.6L145.6,134.1L146.7,135.1L147.3,135.3L148.2,135.5L149.2,135.4L150.1,135.2L150.5,135.2L151.4,135.9L152.5,136.9L152.8,137.3L153,137.9L153.3,138.1L154,137.5L154.7,137.3L155.3,137.4L155.9,137.5L156.6,137.2L156.9,137.1L158.1,136.2L159.2,135.6L159.8,135.2L160.1,133.9L160.3,133.2L160.8,132.7L160.6,132.2L160.4,131.8L160.2,131.2L160.4,130.9L160.9,130.8L161.9,130.8L163.8,130.2L165.4,129.6L166.8,129.1L167.5,129.1L168.1,129.1L168.4,129L168.4,128.6L168.8,128.1L169.6,127.7L171.1,126.9L172.4,125.6L172.9,124.7L173.2,123.3L173.8,121.2L174.5,118.9L174.8,117.8L175.1,117L176.2,116.4L177.5,115.9L179.3,115.8L181.5,115.7L182,114.5L182.2,113.4L182.6,112.8L183.1,112.4L183.3,112.3L184.5,112.9L186.3,114L188.4,114.5L189.5,114.7Z" fill="#b8e653" stroke="#0c0e06" stroke-width="1"/></svg>
