<svg xmlns="http://www.w3.org/2000/svg" viewBox="0 0 400 300"><path d="M400,3.8L399.9,3.7L400,3.7L400,3.8Z" fill="#2c2c34" stroke="#474751" stroke-width="0.8"/><path d="M400,3.7L399.9,3.7L398.9,0L400,0Z" fill="#2c2c34" stroke="#474751" stroke-width="0.8"/><path d="M400,62.9L393.5,61.3L375.7,48.9L347,56.9L334.8,65.5L298.9,63.7L280.2,58.4L270.7,60.9L263.7,46.9L259.2,40.9L264.9,35.2L258.8,30.9L251.2,38.6L236.9,28.6L235,14.4L220.1,6.2L218.6,0L398.9,0L398.9,0L399.9,3.7L399.9,3.7L400,3.8L400,62.9Z" fill="#2c2c34" stroke="#474751" stroke-width="0.8"/><path d="M400,73.5L395.2,78.8L386.3,102.6L394.1,121.5L373.1,117.1L348.2,127.4L347.9,143.7L325.8,146.8L308.5,135.4L289,144.3L270.9,143.4L269.1,121.8L256.9,111.2L260.9,106.5L258.3,102.6L262.4,92L271.7,81.5L259.8,67L257.7,54.6L263.7,46.9L263.7,46.9L270.7,60.9L280.2,58.4L298.9,63.7L334.8,65.5L347,56.9L375.7,48.9L393.5,61.3L400,62.9L400,73.5Z" fill="#2c2c34" stroke="#474751" stroke-width="0.8"/><path d="M270.9,143.4L289,144.3L308.5,135.4L325.8,146.8L347.9,143.7L348.2,127.4L360.1,136.1L352.5,156.4L346.7,160.1L331.8,159.2L319.1,156.1L289.5,164.5L306.4,182.5L294,187.7L280.5,187.8L267.5,171.3L263,178.3L268.4,197.4L280.6,212.2L271.4,219.1L285,233.5L297.1,242.6L297.4,260.1L274.8,251.9L282,267.6L266.6,270.9L275.8,297.8L259.6,298.2L239.6,285L230.4,260.4L226.1,239.8L216.6,225.4L204,207.4L202.4,198.4L213.8,183L215.2,172.6L223.2,167.9L223.6,159.5L239.6,156.6L249,149.5L262.2,150.2L266.2,144.5Z" fill="#2c2c34" stroke="#474751" stroke-width="0.8"/><path d="M400,290.3L385.5,290.6L371,260.1L353.1,242.9L365,218.6L349.5,203.5L376.6,173.1L400,172.3L400,290.3ZM400,153.4L384.9,154.4L374.5,164.3L354.1,181.7L346.4,166.7L346.7,160.1L352.5,156.4L360.1,136.1L348.2,127.4L348.2,127.4L373.1,117.1L394.1,121.5L397,134.1L400,135.6L400,153.4Z" fill="#2c2c34" stroke="#474751" stroke-width="0.8"/><path d="M174.9,0L176,2.5L183.9,12.5L174.5,25.5L163.4,17.8L146.5,18.3L125.5,12.5L114,13.3L108.7,20.5L100,12.5L94.8,26.9L106.8,43L112.2,53.5L123.3,66.2L132.7,73.6L141.9,87.6L163.5,100.3L160.8,105.9L137.9,93.6L123.7,81.6L101.4,71.6L80.9,46.7L85.8,44.1L74.6,29.7L74.2,18L58.4,12.5L51,27.5L43.7,15.9L44.3,3.8L45.1,3.3L62.2,4.5L65.6,0L68.7,0L68.7,0L75,4.3L84.6,5L84.5,0L174.9,0Z" fill="#2c2c34" stroke="#474751" stroke-width="0.8"/><path d="M50.6,0L50.6,0.1L50.2,0L50.6,0ZM23.2,0L11.3,7.4L12.6,24.6L9.6,34.4L17.6,51.8L40.6,68.9L52.9,96.6L80.1,123.2L99.2,123L105.1,130.3L98.3,136.8L120.2,148.6L138.1,158.3L159.1,175.1L161.6,181.1L157,192.5L143.5,177.6L122.2,172.3L112,193L129.6,204.8L126.7,221.2L116.5,223.1L103.5,249.8L93.3,252.2L93.4,242.7L98.4,226L103.6,219.3L94.1,201L86.7,185L76.6,181L69.3,167.1L53.6,161.3L43,148.2L24.9,146.2L5.8,131.4L0,125.8L0,0ZM70.7,244.9L89.3,242.2L80.5,266.6L84.1,276.1L79,291.8L60.3,280.3L47.9,277L13.8,261.4L17.2,245.5L45.8,248.3Z" fill="#2c2c34" stroke="#474751" stroke-width="0.8"/><path d="M84.5,0L84.6,5L75,4.3L68.7,0L84.5,0ZM65.6,0L62.2,4.5L45.1,3.3L50.6,0.1L50.6,0L65.6,0Z" fill="#2c2c34" stroke="#474751" stroke-width="0.8"/><path d="M163.5,100.3L141.9,87.6L132.7,73.6L123.3,66.2L112.2,53.5L106.8,43L94.8,26.9L100,12.5L108.7,20.5L114,13.3L125.5,12.5L146.5,18.3L163.4,17.8L174.5,25.5L183.3,25.4L177.2,40.5L189,53.6L185.4,69.5L179.6,71.1L175.1,74.1L167.2,81.9Z" fill="#2c2c34" stroke="#474751" stroke-width="0.8"/><path d="M256.9,111.2L269.1,121.8L270.9,143.4L266.2,144.5L262.2,150.2L249,149.5L239.6,156.6L223.6,159.5L213.5,151.6L210.1,137.6L213.2,126.5L216.2,126.8L217.4,120L231.8,115L237.3,113.7L245.6,111.7Z" fill="#2c2c34" stroke="#474751" stroke-width="0.8"/><path d="M218.6,0L220.1,6.2L235,14.4L236.9,28.6L251.2,38.6L258.8,30.9L264.9,35.2L259.2,40.9L263.7,46.9L257.7,54.6L259.8,67L271.7,81.5L262.4,92L258.3,102.6L260.9,106.5L256.9,111.2L245.6,111.7L237.3,113.7L236.5,111.2L239.4,107.2L242.1,99.2L238.7,99.4L233.9,93.2L229.9,91.6L226.7,86.3L222.1,84.2L218.6,79.5L214.2,81.4L210.9,92.4L205.1,94.9L207,92L197.7,85L189.7,81.5L186.2,76.8L179.6,71.1L185.4,69.5L189,53.6L177.2,40.5L183.3,25.4L174.5,25.5L183.9,12.5L176,2.5L174.9,0L218.6,0Z" fill="#2c2c34" stroke="#474751" stroke-width="0.8"/><path d="M200.5,102.3L193.9,105.2L192.3,99L181.8,115.3L183.3,125.8L178.2,123.2L171.4,112.5L160.8,105.9L163.5,100.3L167.2,81.9L175.1,74.1L179.6,71.1L186.2,76.8L189.7,81.5L197.7,85L207,92L205.1,94.9Z" fill="#2c2c34" stroke="#474751" stroke-width="0.8"/><path d="M213.2,126.5L211.5,114.6L205.7,111.2L200.5,102.3L205.1,94.9L210.9,92.4L214.2,81.4L218.6,79.5L222.1,84.2L226.7,86.3L229.9,91.6L233.9,93.2L238.7,99.4L242.1,99.2L239.4,107.2L236.5,111.2L237.3,113.7L231.8,115L217.4,120L216.2,126.8Z" fill="#2c2c34" stroke="#474751" stroke-width="0.8"/><path d="M182.6,126L182.7,124.4L183.2,121.8L182.9,121L183.2,119.5L182.4,117.5L181.1,116L182.4,113.5L184,110.5L185.6,108.1L187.6,105.5L188.9,103.1L190.3,101L191.5,100.4L192.1,100.8L192.4,101.7L192.3,104.4L192.8,105.4L193.5,106.1L195.3,105.7L197.2,105L199.9,103.6L200.3,103.7L201.3,104.4L203.3,107.7L204.6,110.6L207.3,111.6L208.7,112.7L210.6,114.4L211.5,116.1L212.8,121.3L213,124.4L212.5,125.9L212.3,126.3L211.1,131.4L211.3,134L211.3,135.7L210.3,136.4L209.7,137.5L210.8,141.6L210.6,143.4L210.7,145.5L212.6,150.2L213.8,151.7L214.7,152.4L216.1,156.7L216.9,157.4L220,157L221.5,157.5L222.1,158.5L222.3,159.2L222,161.6L222.8,163.5L223.9,165.4L223.9,166.5L223.2,168.4L222,170.7L220.3,171.5L218.4,172.2L217.6,174L217.1,175.8L216.2,177.1L215.8,178.6L215,181.7L214.8,182.7L213.5,183.9L211.6,184.3L209.9,184.4L208.7,184.9L208.1,186L207,186.8L206.3,187.2L206.3,188.1L207.2,190L208.1,191.5L208.1,192.8L207.6,193.1L206.2,193L205.9,193.4L205.8,194.9L205.4,196L204.8,196.7L203.8,197.6L201.9,197.3L200.2,196.1L199.3,195.7L198.7,195.7L198.6,192.9L197.9,190.6L195.1,185.1L186.2,179.8L184,177.4L183.1,175.4L182.2,173.5L183.1,173.4L184,173.9L185.1,174.5L185.5,173.5L185,171.5L182.7,166.6L182.6,165.3L183.7,161.1L185.5,156.5L185.5,150.9L186.1,146.7L185.4,144L185.1,140.6L186.4,136.1L187.7,135L188.4,133.5L188.4,128.7L185.7,126.5Z" fill="#b8e653" stroke="#0c0e06" stroke-width="1"/></svg>
