<svg xmlns="http://www.w3.org/2000/svg" viewBox="0 0 300 300"><path fill="#e8e8ea" d="M96.8,88.7L97.1,84.4L98.2,77.4L97.5,75.1L98.2,71.1L96.1,65.8L92.8,62L96.1,55.2L100.6,47.1L104.8,40.6L110,33.7L113.5,27.2L117.3,21.7L120.6,20L122,21.1L122.9,23.5L122.7,30.8L123.9,33.4L126,35.3L130.7,34.3L135.9,32.5L142.9,28.6L144.1,28.9L146.7,30.9L152.1,39.7L155.6,47.4L162.7,50L166.5,52.9L171.6,57.5L174,62.1L177.5,76L178,84.4L176.8,88.4L176.1,89.3L172.8,103L173.5,110L173.5,114.5L170.9,116.3L169.3,119.2L172.1,130.4L171.6,135.3L171.9,140.9L177.1,153.4L180.1,157.3L182.7,159.1L186.2,170.7L188.4,172.6L196.8,171.6L200.8,172.9L202.5,175.6L202.9,177.4L202.2,183.9L204.4,188.8L207.2,194L207.2,197L205.3,202.1L202,208.1L197.5,210.3L192.6,212.3L190.2,216.9L189.1,221.8L186.7,225.4L185.5,229.4L183.4,237.6L182.9,240.4L179.4,243.3L174.2,244.5L169.8,244.8L166.5,246.2L165.1,249L162,251.2L160.1,252.2L160.1,254.6L162.5,259.8L164.8,263.9L164.8,267.3L163.6,268.2L159.9,267.8L159.2,268.9L158.7,272.8L157.8,275.9L156.1,277.8L153.3,280L148.4,279.3L143.9,276L141.3,275.1L139.9,275.1L139.6,267.5L137.5,261.4L130.2,246.7L106.2,232.5L100.6,226.1L98,220.8L95.6,215.5L98,215.4L100.4,216.7L103.4,218.4L104.6,215.7L103.2,210.2L97.1,197.2L96.6,193.6L99.6,182.5L104.6,170.2L104.4,155.3L106,144L104.1,136.6L103.4,127.6L106.9,115.6L110.2,112.6L112.1,108.8L112.4,95.8L105.1,89.9Z"/></svg>
