<svg xmlns="http://www.w3.org/2000/svg" viewBox="0 0 300 300"><path fill="#e8e8ea" d="M129.9,191.6L126.9,186.9L112.7,171.9L99.7,160.2L90.6,155.5L81.4,155.9L67.2,158.3L61.9,157.4L49.8,152.2L39.4,146.2L40.9,143.8L43,141.9L40.3,134.1L34.7,121.6L35.3,117.4L33.5,112L31.4,107.9L39.4,97.9L43.3,90.1L44.1,82.2L41.8,74.1L36.5,59.6L33.2,55.2L27.3,51.2L22,44.8L20.8,40.1L24.9,39.1L37.6,39.1L49.8,37.4L59.2,34.4L73.1,31.9L78.7,29.7L85.5,28.5L105.6,31L113,29.1L135.8,28.7L136.4,27.8L133.4,24.7L133.4,23.4L147,21.5L149.1,20L150.9,24.9L155.9,30.4L161.5,32.7L164.5,35.7L164.5,38L154.7,40.8L154.1,42.2L154.7,43.5L157.7,44.2L171.3,51.1L179.3,51.2L183.4,53.3L185.5,57.5L192,62.9L197.3,68.4L197.6,70.3L196.4,73.1L181.9,83.7L180.2,87.2L179.9,91L186.4,102.5L195.8,115L209.4,124.4L228.1,134.6L228.4,141L225.4,148.6L222.7,153.7L221.6,157.2L219.5,158.5L200.6,158.3L197.9,159.4L196.7,160.9L196.4,162.2L203.2,164.5L213.9,172.5L219.8,180.3L226,183.8L233.1,189.9L238.7,195.7L247.6,203.2L257.6,200.7L270.6,207.3L271.2,211.9L270.3,215.8L262.1,220.2L261.2,222.1L261.2,223.6L262.1,225.8L267.1,229.3L272.7,234.6L279.2,242.5L276.3,244.9L270.3,245.3L265.6,244.4L263.8,245.9L264.1,248.4L270,254.5L271.2,258.9L270.9,266.4L271.2,276.2L257,275.4L244.9,280L240.5,279.1L237.5,271L234.9,264.4L227.2,247.3L229.2,240.3L224.8,236.5L214.5,229.1L211.8,226.1L213.3,222.1L214.5,214.5L213.3,208.4L210.6,206.6L205.3,206.4L199.1,207.9L186.4,213.8L177.8,210.1L172.5,206.2L169.8,203.1L163,205.6L161.5,204.4L161.2,196.6L159.2,192.3L155.3,187.3L151.5,184.9L137.9,189.9ZM150.9,48.8L151.2,46L150.6,43.3L148.5,42.5L145.9,43.1L145.6,46.1L146.5,48.8L149.1,50.1Z"/></svg>
