<svg xmlns="http://www.w3.org/2000/svg" viewBox="0 0 400 300"><path d="M400,89.5L395.6,90.6L384.8,101.5L383.5,93.5L389.5,79.8L384.8,68.2L356.5,56.8L345.5,26.5L331.9,17.9L331.2,6.8L354.9,10L355.3,0L400,0Z" fill="#2c2c34" stroke="#474751" stroke-width="0.8"/><path d="M247.3,0L242.7,6.8L264.8,39.1L262.5,61.7L289.1,100.7L274.5,113.9L270.3,122.1L259.6,119.9L242.8,100.1L235.9,99L220.5,91.4L213,77.8L190.2,70.9L175.4,76.1L171.1,69.9L137.9,53.9L101.9,48.5L81.2,42.7L78.3,46.7L47.1,18.1L19.2,5.2L13.9,0L247.3,0Z" fill="#2c2c34" stroke="#474751" stroke-width="0.8"/><path d="M111.8,300L113.2,294.5L110.9,272.4L124.3,264.9L136.8,245.8L147.2,241L175.7,245L184.3,252.8L196,247.6L211.8,283.9L227.8,293L228.5,300L111.8,300Z" fill="#2c2c34" stroke="#474751" stroke-width="0.8"/><path d="M400,182L399.5,181.7L400,180L400,182ZM400,159.3L389.6,158.1L394.9,131.1L400,132.8L400,159.3ZM400,96.6L394.9,98.8L392.5,122.7L384.8,101.5L384.8,101.5L395.6,90.6L400,89.5L400,96.6Z" fill="#2c2c34" stroke="#474751" stroke-width="0.8"/><path d="M228.5,300L227.8,293L211.8,283.9L196,247.6L182.6,223L187.4,213.3L179.8,177.3L196.5,168.3L200.4,180.3L212.8,194.8L229.5,199L238.4,198.1L267.1,174.8L276.3,172.5L283.5,181.8L275.1,197.3L290.3,213.7L296.4,212.1L304.2,235L327.3,241.4L344.3,256.8L379,262L400,257.6L400,300Z" fill="#2c2c34" stroke="#474751" stroke-width="0.8"/><path d="M0,258.7L7.7,264.4L34.6,255.9L47.6,261.7L67.7,261.6L95.8,250.1L109,250.6L136.8,245.8L124.3,264.9L110.9,272.4L113.2,294.5L111.8,300L0,300Z" fill="#2c2c34" stroke="#474751" stroke-width="0.8"/><path d="M0,114.1L3.9,116.2L39,128.7L67.4,123.7L88.5,126.6L117.3,109.6L143.4,108.1L166.9,124.1L171.1,135.4L168.7,151.1L186.9,159.1L196.5,168.3L179.8,177.3L187.4,213.3L182.6,223L196,247.6L196,247.6L184.3,252.8L175.7,245L147.2,241L136.8,245.8L109,250.6L95.8,250.1L67.7,261.6L47.6,261.7L34.6,255.9L7.7,264.4L0,258.7L0,114.1Z" fill="#2c2c34" stroke="#474751" stroke-width="0.8"/><path d="M235.9,99L242.8,100.1L259.6,119.9L270.3,122.1L274.5,113.9L289.1,100.7L302,117.9L314.4,140.8L325.8,142.4L333.3,151L313.2,153.5L308.9,178.2L304.7,189.3L295.8,196.6L296.4,212.1L290.3,213.7L275.1,197.3L283.5,181.8L276.3,172.5L267.1,174.8L238.4,198.1L237.7,176.2L226.8,171L216.4,162.4L223.3,152.2L210.3,141.2L215.2,133.1L205.9,127.5L200.9,119L206.9,113.7L225.1,123L238.2,125L241.5,121.1L229.6,103.5ZM229.5,199L212.8,194.8L200.4,180.3L196.5,168.3L201.6,167.5L208.8,176L219.6,175.9L219.5,180.8Z" fill="#2c2c34" stroke="#474751" stroke-width="0.8"/><path d="M78.3,46.7L81.2,42.7L101.9,48.5L137.9,53.9L171.1,69.9L175.4,76.1L190.2,70.9L213,77.8L220.5,91.4L235.9,99L229.6,103.5L241.5,121.1L238.2,125L225.1,123L206.9,113.7L200.9,119L166.9,124.1L143.4,108.1L117.3,109.6L121,95.7L114.8,73.1L100.8,60.8L87.2,57Z" fill="#2c2c34" stroke="#474751" stroke-width="0.8"/><path d="M195.9,168.6L195,167.3L190.8,162.8L186.9,159.3L184.2,157.9L181.4,158L177.2,158.7L175.6,158.5L172,156.9L168.9,155.1L169.4,154.4L170,153.9L169.2,151.5L167.5,147.8L167.7,146.6L167.2,145L166.6,143.7L168.9,140.8L170.1,138.4L170.4,136.1L169.7,133.7L168.1,129.4L167.1,128.1L165.3,126.9L163.8,125L163.4,123.6L164.6,123.3L168.4,123.3L172,122.8L174.8,121.9L179,121.1L180.6,120.5L182.7,120.1L188.7,120.9L190.9,120.3L197.6,120.2L197.8,119.9L196.9,119L196.9,118.6L201,118L201.6,117.6L202.1,119.1L203.6,120.7L205.3,121.4L206.2,122.3L206.2,122.9L203.3,123.8L203.1,124.2L203.3,124.6L204.1,124.8L208.2,126.8L210.6,126.9L211.8,127.5L212.4,128.7L214.3,130.4L215.9,132L216,132.6L215.7,133.4L211.3,136.5L210.8,137.6L210.7,138.7L212.7,142.1L215.5,145.9L219.5,148.6L225.1,151.7L225.2,153.6L224.3,155.9L223.5,157.4L223.1,158.4L222.5,158.8L216.9,158.7L216.1,159.1L215.7,159.5L215.7,159.9L217.7,160.6L220.8,163L222.6,165.3L224.5,166.3L226.6,168.1L228.2,169.8L230.9,172.1L233.9,171.3L237.7,173.3L237.9,174.7L237.6,175.8L235.2,177.2L234.9,177.7L234.9,178.2L235.2,178.8L236.7,179.9L238.4,181.4L240.3,183.8L239.4,184.5L237.6,184.6L236.2,184.3L235.7,184.8L235.8,185.6L237.6,187.4L237.9,188.7L237.8,190.9L237.9,193.8L233.7,193.6L230.1,194.9L228.8,194.7L227.9,192.3L227.1,190.3L224.8,185.2L225.4,183.1L224.1,182L221,179.8L220.2,178.9L220.7,177.7L221,175.5L220.7,173.6L219.9,173.1L218.3,173L216.4,173.5L212.7,175.2L210.1,174.1L208.5,173L207.7,172.1L205.7,172.8L205.3,172.4L205.2,170.1L204.6,168.9L203.4,167.4L202.3,166.7L198.2,168.1ZM202.1,126.2L202.2,125.3L202,124.5L201.4,124.3L200.6,124.5L200.5,125.4L200.8,126.2L201.6,126.5ZM215,139.4L214.1,140L213.2,139.7L213.2,138.4L213.9,137.9L214.6,137.9L215.3,138.4Z" fill="#b8e653" stroke="#0c0e06" stroke-width="1"/></svg>
