<svg xmlns="http://www.w3.org/2000/svg" viewBox="0 0 400 300"><path d="M400,142.4L400,142.4L396.4,145.5L389.5,145.8L386.8,147.1L374.7,144.2L367.2,145L364.4,131.1L361,126.4L359,123.6L349.1,121.7L343.5,118.6L337.1,116.9L333.1,115.2L328.9,112.6L323.5,99.9L317.6,94.2L315.7,88.4L316.6,83.1L314.8,73.8L319,73.4L322.6,69.7L326.5,64.5L329,62.4L328.9,59.1L326.7,56.8L326.2,52.9L329.1,51.6L329.6,45.7L325.7,40L329.2,38.8L340.2,39L360.6,38.2L360.6,38.2L362.3,39.3L398.7,59.7L399.4,65.6L400,66L400,142.4Z" fill="#2c2c34" stroke="#474751" stroke-width="0.8"/><path d="M329.5,0L329.2,5.2L333.2,6.5L330,10.1L326.2,12.8L322.3,18L320.2,22.7L319.7,30.7L317.3,34.5L317.2,42.1L314.4,44.9L314,50.9L312.6,51.7L311.7,57.2L314.2,61.7L314.8,73.8L314.8,73.8L316.6,83.1L315.7,88.4L317.6,94.2L323.5,99.9L328.9,112.6L324.9,111.6L311.5,113.3L308.8,114.5L305.9,121L308.1,125.5L306.4,137.6L305.1,147.8L307.9,149.6L314.9,153.6L317.6,151.8L318.4,162.9L310.8,162.8L306.7,157.1L302.9,152.7L295.2,151.3L293,145.9L286.9,149.2L278.9,147.7L275.5,143.1L269.1,142.1L264.4,142.4L263.9,139.2L260.4,139L255.8,138.3L249.6,139.9L245.2,139.6L242.8,140.6L243.3,128.4L239.9,124.6L239.2,118.4L240.7,112.3L238.6,108.4L238.5,102L226.3,102.1L227.2,98.4L222,98.5L221.5,100.2L215.3,100.6L212.8,106.5L211.3,109.1L205.7,107.6L202.4,109.1L195.8,109.9L191.9,104.6L189.6,101.3L186.7,95.2L184.3,87.7L154.7,87.6L151.1,88.8L148.2,88.6L144.1,90L142.7,86.8L145.2,85.8L145.6,81.4L147.2,78.8L150.8,76.7L153.5,77.7L156.9,73.8L162.4,74L163,76.8L166.8,78.6L172.7,72.3L178.5,67.4L181.1,64.1L180.7,55.9L185.1,46.1L189.7,41L196.3,36.1L197.4,32.9L197.7,29.2L199.3,25.8L198.8,20.1L200,11.2L202,4.9L204.8,0L329.5,0Z" fill="#2c2c34" stroke="#474751" stroke-width="0.8"/><path d="M400,66L399.4,65.6L398.7,59.7L362.3,39.3L360.6,38.2L360.5,27.5L363.4,23.5L368.4,16.8L372,9.5L368.3,0L400,0Z" fill="#2c2c34" stroke="#474751" stroke-width="0.8"/><path d="M220.1,300L220.1,285.3L222.8,286.9L228.8,297.5L228.4,300L220.1,300ZM245.2,300L247,298.7L249.5,293.4L254.4,290.8L258.6,292.2L263.4,295.3L271.6,295.8L278,293.2L279,289.8L280.7,284.5L286.2,283.6L289.2,279.5L292.6,272.2L301.6,264L315.8,256L319.8,256.1L324.7,258L328.1,256.7L333.4,257.7L338.2,273.1L340.8,280.9L339.1,293.2L339.9,297.2L334.8,295.2L331.9,296L331,299.2L330.5,300L245.2,300Z" fill="#2c2c34" stroke="#474751" stroke-width="0.8"/><path d="M333.4,257.7L328.1,256.7L324.7,258L319.8,256.1L315.8,256L309.4,251.1L301.6,249.5L298.6,242.6L298.6,238.9L294.3,237.7L283,226L279.8,219.8L277.8,218L273.9,209.5L285.2,210.7L288.4,211.9L291.8,211.7L297.4,204.8L306.1,196.2L309.7,195.4L310.9,191.8L316.6,187.6L324.2,186.2L324.9,190.1L333.2,189.9L337.9,192.1L340,194.6L344.8,195.4L350,198.8L350,212.1L348.1,219.4L347.7,227.3L349.3,230.5L348.2,236.8L346.6,237.7L344,245.5Z" fill="#2c2c34" stroke="#474751" stroke-width="0.8"/><path d="M228.4,300L228.8,297.5L222.8,286.9L220.1,285.3L220.1,253.4L230,253L230.3,215L237.7,214.6L253.2,210.9L257,215.3L263.4,211.1L266.5,211.1L272.1,208.7L273.9,209.5L277.8,218L279.8,219.8L283,226L294.3,237.7L298.6,238.9L298.6,242.6L301.6,249.5L309.4,251.1L315.8,256L315.8,256L301.6,264L292.6,272.2L289.2,279.5L286.2,283.6L280.7,284.5L279,289.8L278,293.2L271.6,295.8L263.4,295.3L258.6,292.2L254.4,290.8L249.5,293.4L247,298.7L245.2,300L228.4,300Z" fill="#2c2c34" stroke="#474751" stroke-width="0.8"/><path d="M170.8,300L168.4,292.2L165,275.2L164.8,262.1L163.5,256.2L159.6,251.8L154.4,242.9L149.1,230L147,223.4L138.8,213L138.2,205L143,202.9L149,201.2L155.5,201.5L161.5,206.2L163,205.5L203.7,205L210.7,210.1L235,211.6L253.4,207.3L261.6,204.9L268.1,205.5L272.1,207.9L272.1,208.7L266.5,211.1L263.4,211.1L257,215.3L253.2,210.9L237.7,214.6L230.3,215L230,253L220.1,253.4L220.1,285.3L220.1,285.3L220.1,300L170.8,300Z" fill="#2c2c34" stroke="#474751" stroke-width="0.8"/><path d="M179.8,0L180.1,3L181.1,5.9L180.4,11.3L172.4,8.9L164.3,6.3L151.7,5.9L150.4,5.4L144.5,6.7L138.4,5.3L133.6,6L117.3,5.7L118.3,0L179.8,0Z" fill="#2c2c34" stroke="#474751" stroke-width="0.8"/><path d="M184.4,0L181.1,5.9L180.1,3L179.8,0L184.4,0Z" fill="#2c2c34" stroke="#474751" stroke-width="0.8"/><path d="M204.8,0L202,4.9L200,11.2L198.8,20.1L199.3,25.8L197.7,29.2L197.4,32.9L196.3,36.1L189.7,41L185.1,46.1L180.7,55.9L181.1,64.1L178.5,67.4L172.7,72.3L166.8,78.6L163,76.8L162.4,74L156.9,73.8L153.5,77.7L150.8,76.7L147.1,73.2L144.1,74.9L140,79.3L131.8,68.6L139.4,63.1L135.6,56.4L139.1,53.9L145.8,52.7L146.7,48.2L152,53L160.8,53.4L163.9,48.7L165.2,42L164.1,34.2L159.4,28.3L163.7,16.6L161.2,14.7L153.7,15.5L150.9,10.3L151.7,5.9L164.3,6.3L172.4,8.9L180.4,11.3L181.1,5.9L184.4,0L204.8,0Z" fill="#2c2c34" stroke="#474751" stroke-width="0.8"/><path d="M133.6,6L138.4,5.3L144.5,6.7L150.4,5.4L151.7,5.9L150.9,10.3L153.7,15.5L161.2,14.7L163.7,16.6L159.4,28.3L164.1,34.2L165.2,42L163.9,48.7L160.8,53.4L152,53L146.7,48.2L145.8,52.7L139.1,53.9L135.6,56.4L139.4,63.1L131.8,68.6L121.5,58.5L114.8,50.2L108.7,39.8L109.1,36.5L111.3,33.3L113.7,26L115.7,18.5L119.1,17.9L133.7,18Z" fill="#2c2c34" stroke="#474751" stroke-width="0.8"/><path d="M117.3,5.7L133.6,6L133.7,18L119.1,17.9L115.7,18.5L113.8,17Z" fill="#2c2c34" stroke="#474751" stroke-width="0.8"/><path d="M328.9,112.6L333.1,115.2L337.1,116.9L343.5,118.6L349.1,121.7L353.9,126.2L356.4,134.9L354.7,137.6L352.7,145.9L354.6,154.4L351.5,158L348.4,167.6L353.7,170.2L323.3,178.8L324.2,186.2L316.6,187.6L310.9,191.8L309.7,195.4L306.1,196.2L297.4,204.8L291.8,211.7L288.4,211.9L285.2,210.7L273.9,209.5L272.1,208.7L272.1,207.9L268.1,205.5L261.6,204.9L253.4,207.3L246.8,200.7L240.1,192.2L240.5,159.2L261.4,159.3L260.6,155.8L262.1,151.9L260.3,147.1L261.4,142.1L260.4,139L263.9,139.2L264.4,142.4L269.1,142.1L275.5,143.1L278.9,147.7L286.9,149.2L293,145.9L295.2,151.3L302.9,152.7L306.7,157.1L310.8,162.8L318.4,162.9L317.6,151.8L314.9,153.6L307.9,149.6L305.1,147.8L306.4,137.6L308.1,125.5L305.9,121L308.8,114.5L311.5,113.3L324.9,111.6Z" fill="#2c2c34" stroke="#474751" stroke-width="0.8"/><path d="M349.1,121.7L359,123.6L361,126.4L364.4,131.1L367.2,145L364.4,152.8L367.2,166.2L370.7,166L374.3,169.4L378.5,176.9L379.4,190.2L375,192.4L372,199.7L365.4,193.2L364.7,185.9L366.8,181L366.2,176.9L362.3,174.3L359.5,175.2L353.7,170.2L348.4,167.6L351.5,158L354.6,154.4L352.7,145.9L354.7,137.6L356.4,134.9L353.9,126.2Z" fill="#2c2c34" stroke="#474751" stroke-width="0.8"/><path d="M400,206.1L395.8,207.9L384.5,219.3L380.6,221.2L373.6,228.8L369.5,231.2L368.6,238.8L373.4,247L375.4,253.3L375.5,256.5L377.3,256L377,266.6L375.4,271.7L377.7,273.6L376.2,278.2L372,282.1L363.8,285.8L351.7,291.8L347.3,295.9L348.1,300L340.7,300L340.7,300L339.9,297.2L339.1,293.2L340.8,280.9L338.2,273.1L333.4,257.7L344,245.5L346.6,237.7L348.2,236.8L349.3,230.5L347.7,227.3L348.1,219.4L350,212.1L350,198.8L344.8,195.4L340,194.6L337.9,192.1L333.2,189.9L324.9,190.1L324.2,186.2L323.3,178.8L353.7,170.2L359.5,175.2L362.3,174.3L366.2,176.9L366.8,181L364.7,185.9L365.4,193.2L372,199.7L375,192.4L379.4,190.2L378.5,176.9L374.3,169.4L370.7,166L367.2,166.2L364.4,152.8L367.2,145L367.2,145L374.7,144.2L386.8,147.1L389.5,145.8L396.4,145.5L400,142.4L400,142.4L400,206.1Z" fill="#2c2c34" stroke="#474751" stroke-width="0.8"/><path d="M330.5,300L331,299.2L331.9,296L334.8,295.2L339.9,297.2L340.7,300L330.5,300Z" fill="#2c2c34" stroke="#474751" stroke-width="0.8"/><path d="M326.2,52.9L326.7,56.8L328.9,59.1L329,62.4L326.5,64.5L322.6,69.7L319,73.4L314.8,73.8L314.2,61.7L311.7,57.2L317.8,57.9L320.9,52.2Z" fill="#2c2c34" stroke="#474751" stroke-width="0.8"/><path d="M368.3,0L372,9.5L368.4,16.8L363.4,23.5L360.5,27.5L360.6,38.2L360.6,38.2L340.2,39L329.2,38.8L325.7,40L319.7,43.1L317.2,42.1L317.3,34.5L319.7,30.7L320.2,22.7L322.3,18L326.2,12.8L330,10.1L333.2,6.5L329.2,5.2L329.5,0L368.3,0Z" fill="#2c2c34" stroke="#474751" stroke-width="0.8"/><path d="M325.7,40L329.6,45.7L329.1,51.6L326.2,52.9L320.9,52.2L317.8,57.9L311.7,57.2L312.6,51.7L314,50.9L314.4,44.9L317.2,42.1L319.7,43.1Z" fill="#2c2c34" stroke="#474751" stroke-width="0.8"/><path d="M151.6,75.2L151.5,75.4L150.4,75.8L149.2,76.2L147.6,77.9L146.8,78.7L146.6,78.9L145.9,79.3L145.4,79.6L145.4,79.8L145.7,80L146.1,80.4L146.1,83.2L145.9,85.9L145.7,86.1L144.7,86.2L143.4,86.4L143,86.5L142.9,86.3L142.4,85.3L142.7,84.3L142.9,83.6L142.6,82.2L142,80.9L141.3,79.2L141.1,78.9L141.6,78.4L142.5,77.2L142.9,76.7L143.9,76.5L144.3,76.1L144.6,75.4L144.7,75L145.9,74.7L147.3,74.2L148.1,73.5L148.9,73.2L149.4,73.1L149.7,73.3L150.6,74.4L151.4,75ZM260.9,138.4L261.2,139.7L261.4,141.6L261.5,142.9L261.7,143.5L261.7,143.8L261.5,144.2L261.4,145L261.1,145.7L261,146.2L261.1,147.1L261,148.4L260.9,149.8L260.9,151.2L261.2,153.5L261.2,154.3L260.7,155.5L260.4,156.5L260.1,157.6L260.1,158.2L260.9,159.8L260.9,160.1L260.2,160.2L259.7,160.2L257.6,160.2L254.6,160.2L251.7,160.2L248.7,160.2L245.9,160.2L243.3,160.2L241,160.2L241,161.8L241,165.1L241,168.5L241,171.8L241,175.1L241,178.4L241,181.8L241,185.1L241,188.4L241,190.8L241.6,194.1L242.7,197.6L243.1,197.9L244.2,198.5L245.8,199.8L246.7,200.8L248.4,202.6L250.8,204.8L253.1,206.8L255,208.5L251.9,209.1L247.5,210L244.5,210.6L240.8,211.3L238.4,211.7L235.4,212.3L234.9,212.3L234.1,211.9L232.3,211.8L230.2,212.4L228.6,212.5L227.4,212.3L226.2,211.8L225.1,211.1L223.1,210.9L220.3,211.1L217.5,210.9L214.9,210.5L213,210.3L211.8,210.4L210.7,210.2L209.4,209.8L208.3,209.2L207,207.8L206,206.4L205.7,206.2L205.3,206L205.1,206L202.2,205.9L199.4,205.9L197.8,205.9L194,205.9L190.2,205.9L186.3,205.9L182.5,205.9L178.7,205.9L174.8,205.9L171,205.9L167.1,205.8L165.1,205.8L163.2,206L161.1,206.1L160.8,206L160.3,205.9L160,205.6L158.9,204.8L157.8,204.2L156.5,203.3L155.7,202.2L155,201.9L153.7,201.7L152.7,201.5L151.9,201.4L150.5,201.9L149.5,202.4L148.7,202.9L147.4,203.5L146.4,204L144.5,203.9L144.1,204L143,204L142,203.5L141,203.5L139.9,204.1L138.3,204.4L138.7,200.4L139.1,198.7L139.1,196.6L138.8,191.2L138.6,190.4L138.4,189.6L139.4,188.9L139.9,188.4L140.5,187.5L141,186.2L141.6,183.5L143.7,177.1L144.7,170.9L145.9,168L146.4,164.7L149.9,160.5L150.7,157.9L152.5,156.6L155.1,155.3L156.9,152.9L157.8,151.2L158.8,148L158.8,144.7L159.4,140.3L159.3,139L158.3,137.2L158.1,136L157.3,134.7L156.3,133.8L155.9,132.1L154.2,129.5L153.8,127.7L153,126.5L152.9,124.9L152.5,123.3L151.7,121.7L150.9,119.8L150.9,119.2L151.4,118.5L151.8,118.3L151.7,118.7L151.4,119.1L151.5,119.4L154.5,116.2L154.7,115.5L154.6,114.8L154.6,113.9L154.7,112.9L151.8,107L149.5,101.4L149.1,98.6L146.1,94.9L144.9,92.5L144.2,90.8L143.7,90.2L143.9,89.9L144.7,89.8L146.4,89.4L148.8,89L151,88L151.6,87.6L152.8,87.5L153.9,87.8L154.4,87.6L154.6,87.6L157.4,87.6L158.6,87.5L160.7,87.5L162.1,87.6L162.8,87.7L164.9,87.9L167.5,87.9L168.5,87.7L171.9,87.7L175.2,87.6L178.3,87.6L181.6,87.6L184.1,87.6L185.3,88L186.4,88.6L186.9,89.2L187.1,89.5L187.4,90.1L188,90.6L188.2,91.4L188,92.5L188.1,93.7L188.4,95.2L189.2,96.8L190.2,98.4L190.7,99.7L190.5,100.6L190.9,101.7L191.7,102.7L192.2,103.3L192.6,103.7L193.5,105.4L195.2,108L196.4,109.9L196.9,110.2L197.5,110.1L198.8,109.9L200.2,109.9L201.2,110.3L201.6,110.2L203,109.4L204.4,109.2L205.9,108.9L206.7,108.5L207.6,108.5L210.1,109.2L210.5,109.2L212.5,109.2L214.5,108.8L214.8,106.2L214.8,105.7L215.3,104.7L215.9,103.8L216,103L216,101.9L216.4,100.5L217.7,99.4L219.9,98.9L221.1,98.8L223,98.5L226,98.2L227.1,98.2L227.1,98.4L226.5,100.3L226.5,100.9L226.7,101.5L227.2,101.9L230.3,101.9L233.1,101.9L236.3,102.1L238.7,102.2L239,102.2L239.3,102.4L239.6,103.3L239.5,105.1L239,107.8L239.2,110.3L240.2,112.6L240.2,116.2L239.9,118.3L239.5,121L239.3,124.1L239.8,125.4L240.7,126.7L242.1,128.1L243.2,129.9L244,132.1L244.2,133.5L244,134.1L244,135.1L244.3,136.6L244,137.5L243.2,138L243,138.6L243.4,139.8L243.5,141L243.8,141.4L244,141.7L244.4,141.7L245.2,141.3L246.1,140.6L246.8,140.3L247.9,140.3L249.4,140.5L252,140.6L252.8,140.5L255.2,139.5L255.9,139.4L256.9,139.5L258.2,139.8L259.6,139.9L260.3,139.5L260.3,139.1L260.5,138.6Z" fill="#b8e653" stroke="#0c0e06" stroke-width="1"/></svg>
