<svg xmlns="http://www.w3.org/2000/svg" viewBox="0 0 300 300"><path fill="#e8e8ea" d="M276.7,125.9L277.2,128.6L277.6,132.5L277.9,135.3L278.3,136.5L278.4,137.2L278,137.9L277.7,139.6L277.1,141.1L276.8,142.1L277.1,144L276.9,146.7L276.7,149.6L276.6,152.4L277.3,157.4L277.3,158.9L276.3,161.5L275.5,163.5L275.1,165.8L274.9,167L276.7,170.3L276.7,171L275.3,171.2L274.2,171.3L269.8,171.3L263.6,171.3L257.4,171.3L251.2,171.3L245.5,171.3L240.1,171.3L235.3,171.3L235.3,174.6L235.3,181.5L235.3,188.4L235.3,195.3L235.3,202.2L235.3,209.1L235.3,216L235.3,223L235.3,229.9L235.3,235L236.6,241.6L238.8,248.9L239.7,249.6L242,250.9L245.3,253.6L247.1,255.7L250.7,259.3L255.6,264L260.4,268.1L264.5,271.7L258,273L248.7,274.8L242.5,276L234.9,277.5L229.8,278.4L223.6,279.6L222.5,279.6L220.8,278.8L217.2,278.6L212.9,279.7L209.5,280L207,279.5L204.5,278.6L202.1,277.1L198,276.6L192.1,277L186.4,276.7L181,275.7L177,275.4L174.6,275.6L172.2,275.3L169.5,274.4L167.2,273.1L164.5,270.1L162.4,267.4L161.8,267L161.1,266.5L160.5,266.4L154.5,266.3L148.8,266.3L145.5,266.3L137.5,266.3L129.6,266.2L121.5,266.2L113.6,266.2L105.6,266.2L97.6,266.2L89.6,266.2L81.6,266.2L77.4,266.2L73.4,266.4L69.1,266.7L68.5,266.5L67.4,266.2L66.8,265.6L64.4,264L62.3,262.8L59.6,260.8L57.8,258.6L56.3,257.9L53.6,257.5L51.6,257.1L50,257L47.1,258L44.9,259.1L43.4,260.1L40.7,261.2L38.4,262.3L34.5,262.2L33.6,262.4L31.4,262.3L29.4,261.3L27.3,261.4L25,262.6L21.6,263.2L22.4,254.9L23.3,251.3L23.3,246.9L22.7,235.6L22.2,234.1L21.8,232.3L23.9,230.9L24.9,229.9L26.3,228L27.3,225.4L28.5,219.6L32.9,206.4L34.9,193.5L37.5,187.5L38.5,180.6L45.7,171.9L47.5,166.5L51.3,163.8L56.5,161L60.4,156L62.2,152.5L64.3,145.9L64.2,139L65.6,129.7L65.3,127.1L63.3,123.4L62.9,120.8L61.1,118.2L59.1,116.3L58.2,112.8L54.8,107.3L53.8,103.7L52.3,101.1L52,97.8L51.1,94.4L49.5,91.1L47.8,87.2L47.8,86L48.9,84.6L49.8,84.1L49.5,84.8L48.9,85.7L49,86.4L55.3,79.6L55.8,78.3L55.6,76.8L55.5,75L55.8,72.9L49.8,60.5L45,48.9L44.2,43.1L37.9,35.5L35.4,30.5L34,27L32.9,25.6L33.3,25L34.9,24.8L38.6,24L43.5,23.1L48,21.1L49.3,20.2L51.7,20L54.2,20.6L55.1,20.2L55.6,20.1L61.4,20.1L63.8,20L68.3,20L71.1,20.2L72.7,20.4L77,20.8L82.5,20.7L84.4,20.5L91.5,20.4L98.5,20.3L104.8,20.2L111.8,20.2L117,20.2L119.5,20.9L121.7,22.3L122.7,23.6L123.2,24.1L123.9,25.5L125.1,26.5L125.4,28.1L125.1,30.3L125.3,32.9L126,36L127.5,39.3L129.6,42.7L130.6,45.3L130.3,47.3L131,49.5L132.6,51.7L133.8,52.9L134.6,53.7L136.5,57.2L139.9,62.6L142.6,66.7L143.5,67.2L144.7,67L147.6,66.6L150.4,66.5L152.4,67.4L153.2,67.2L156.2,65.6L159.2,65.1L162.3,64.5L164,63.8L165.9,63.8L171,65.1L171.9,65.1L176.1,65.1L180.2,64.4L180.8,58.9L180.8,57.8L181.9,55.8L183.1,54L183.3,52.3L183.2,49.9L184.1,47.1L186.9,44.8L191.3,43.8L193.9,43.6L197.9,42.9L204,42.3L206.3,42.3L206.4,42.7L205.1,46.6L205.1,47.9L205.6,49.2L206.6,49.9L213,50L218.8,50.1L225.5,50.3L230.5,50.5L231.1,50.7L231.7,51L232.4,52.9L232.2,56.7L231.1,62.3L231.5,67.5L233.5,72.3L233.7,79.7L233,84.2L232.1,89.8L231.8,96.1L232.7,98.8L234.6,101.6L237.5,104.5L239.8,108.2L241.4,112.9L242,115.8L241.6,117L241.6,119L242.1,122L241.5,124L239.9,125L239.4,126.3L240.2,128.9L240.4,131.2L241.1,132.1L241.5,132.7L242.3,132.8L243.9,132L245.9,130.4L247.4,129.8L249.6,129.8L252.7,130.3L258.2,130.4L259.8,130.2L264.9,128.1L266.2,127.9L268.3,128.1L271.1,128.7L274,128.9L275.4,128.2L275.5,127.4L275.9,126.3Z"/></svg>
