<svg xmlns="http://www.w3.org/2000/svg" viewBox="0 0 400 300"><path d="M184.1,214L184.1,226L187.5,226L189.4,226.1L188.3,228.4L185.6,230.1L184,229.9L182.2,229.5L179.9,227.8L176.5,227L172.5,223.9L169.3,221L164.9,215L167.5,216.1L172,219.7L176.2,221.6L177.8,219.1L178.9,215.5L181.8,213.3ZM181,73.2L182.6,75.5L183,77.9L184.7,79.4L183.7,82.6L185.4,86.5L186.6,91.2L188.9,90.7L189.3,91.6L188.2,95.2L184.8,96.9L184.9,102.8L184.2,103.9L185.1,105.3L182.9,107.5L180.8,110.9L179.7,114.2L180,117.7L178,121.6L179.5,128L180.3,128.7L180.3,132.3L178.5,136L178.6,139.3L176.2,141.9L176.2,145.5L177.1,149.5L175.2,151L174.4,154.6L173.6,158.9L174.2,164.1L172.9,164.9L173.6,169.9L175.1,171.6L174,173.5L175.5,174.3L175.8,176L174.4,176.9L174.8,179.5L173.6,185.6L171.9,189.6L172.3,192L171.3,195.1L168.9,197.2L169.1,202.4L170.3,204.2L172.4,203.9L172.3,207.7L173.6,210.7L181.3,211.4L184.3,212.2L181.4,212.2L179.9,213.4L177,215.3L176.5,220.3L175.2,220.4L171.6,218.7L168,215L164,212L163,208.7L163.9,205.8L162.3,202.4L161.9,194.1L163.3,189.5L166.6,185.9L161.8,184.5L164.8,180.5L165.9,173L169.4,174.6L171.1,165.5L169,164.3L168,169.7L166,169.1L166.9,163L168,155.2L169.5,152.4L168.6,148.4L168.3,143.8L169.7,143.7L171.6,137.3L173.8,131.2L175.2,125.5L174.4,119.9L175.4,116.9L175,112.4L176.8,107.9L177.4,101.1L178.4,93.8L179.4,86.1L179.2,80.5L178.5,75.8L180.2,75Z" fill="#2c2c34" stroke="#474751" stroke-width="0.8"/><path d="M207.7,209.9L211.5,206.8L214.2,208.1L216.1,206L218.7,208.3L217.7,210.1L213.4,211.7L212,209.9L209.3,212.2Z" fill="#2c2c34" stroke="#474751" stroke-width="0.8"/><path d="M219.1,117.3L221.1,116.9L224.3,119.8L225.5,119.7L228.8,122L231.3,124.1L233.1,126.7L231.7,128.5L232.6,130.6L231.2,133L227.6,135.2L225.3,134.4L223.5,134.8L220.6,133.2L218.4,133.3L216.5,131.2L216.8,128.7L217.5,127.8L217.4,124.1L218.3,120.3Z" fill="#2c2c34" stroke="#474751" stroke-width="0.8"/><path d="M211.1,0L211.6,0.5L211.2,1.9L212.3,2.4L213,3.9L212.1,5L211.6,7.7L212.4,9.3L212.6,10.8L214.6,12.3L216.2,12.4L216.5,11.8L217.5,11.7L219,11.1L220,10.3L221.7,10.5L222.5,10.4L224.2,10.7L224.5,10L224,9.4L224.3,8.5L225.6,8.8L227.1,8.4L228.9,9.1L230.3,9.8L231.3,8.9L232,9L232.4,9.9L234,9.7L235.2,8.5L236.2,6.1L238,3.2L239.1,3.1L239.9,4.8L241.7,10.4L243.4,10.9L243.5,13.1L241.1,15.8L242.1,16.7L247.7,17.2L247.8,20.4L250.2,18.3L254.2,19.4L259.5,21.4L261,23.3L260.5,25L264.2,24L270.4,25.7L275.2,25.6L279.9,28.2L283.9,31.8L286.4,32.7L289.1,32.9L290.2,33.9L291.3,37.9L291.8,39.9L290.6,45.2L289,47.3L284.5,51.8L282.5,55.4L280.1,58.3L279.3,58.3L278.4,60.7L278.6,66.9L277.8,72L277.4,74.2L276.4,75.5L275.9,80L272.6,84.4L272.1,88L269.5,89.4L268.8,91.5L265.3,91.5L260.3,92.8L258.1,94.4L254.5,95.4L250.8,98.2L248.1,101.7L247.6,104.3L248.1,106.3L247.6,109.9L246.8,111.7L244.6,113.7L241.1,120.1L238.3,123.1L236.1,124.9L234.7,128.4L232.6,130.6L232.6,130.6L231.7,128.5L233.1,126.7L231.3,124.1L228.8,122L225.5,119.7L224.3,119.8L221.1,116.9L219.1,117.3L223.3,112.3L226.9,108.8L229,107.4L231.7,105.4L231.8,102.5L230.2,100.5L228.6,101.2L229.2,99.2L229.7,97.1L229.7,95.2L228.5,94.5L227.3,95.1L226.1,94.9L225.8,93.6L225.5,90.4L224.9,89.4L222.7,88.5L221.4,89.1L218.1,88.5L218.3,83.9L217.3,82L218.3,81.3L218,79.3L218.9,77.9L219.5,75.2L218.7,73.2L217,72.2L216.6,70.9L217.1,69L211,68.8L209.8,65L210.7,64.9L210.7,63.5L210,62.6L209.9,60.7L208.1,59.7L206.1,59.7L204.7,58.8L202.6,58.1L201.4,56.9L197.8,56.4L194.3,53.5L194.6,51.3L194.2,50.1L194.5,47.6L190.4,48.2L188.7,49.4L185.9,50.7L185.2,51.7L183.6,51.8L181.2,51.5L179.4,52L178,51.7L178.2,46.8L175.6,48.7L172.8,48.6L171.6,46.9L169.5,46.7L170.1,45.3L168.4,43.3L167.1,40.4L167.9,39.9L167.9,38.5L169.8,37.6L169.5,35.9L170.3,34.7L170.5,33.3L174.2,31.1L176.8,30.5L177.2,30L180.1,30.1L181.5,21.4L181.6,20L181.1,18.2L179.7,17L179.7,14.7L181.5,14.2L182.1,14.5L182.2,13.3L180.4,13L180.3,11L186.5,11.1L187.5,10L188.4,11L189.1,12.9L189.7,12.5L191.4,14.2L193.9,13.9L194.5,13L196.9,12.2L198.2,11.7L198.5,10.4L200.8,9.5L200.6,8.8L197.9,8.5L197.5,6.5L197.6,4.4L196.2,3.6L196.8,3.3L199.2,3.7L201.7,4.5L202.6,3.7L204.9,3.2L208.4,2L209.6,0.8L209.2,0L211.1,0Z" fill="#2c2c34" stroke="#474751" stroke-width="0.8"/><path d="M181.2,51.5L183.6,51.8L185.2,51.7L185.9,50.7L188.7,49.4L190.4,48.2L194.5,47.6L194.2,50.1L194.6,51.3L194.3,53.5L197.8,56.4L201.4,56.9L202.6,58.1L204.7,58.8L206.1,59.7L208.1,59.7L209.9,60.7L210,62.6L210.7,63.5L210.7,64.9L209.8,65L211,68.8L217.1,69L216.6,70.9L217,72.2L218.7,73.2L219.5,75.2L218.9,77.9L218,79.3L218.3,81.3L217.3,82L217.3,80.9L214.3,79.2L211.4,79.1L205.8,80.1L204.3,83.1L204.2,84.9L203,89L202.5,88.3L198.8,88.2L197.6,90.9L195.7,88.4L191.6,87.6L188.9,90.7L186.6,91.2L185.4,86.5L183.7,82.6L184.7,79.4L183,77.9L182.6,75.5L181,73.2L183,69.7L181.7,66.9L182.4,65.8L181.8,64.5L183.1,62.9L183.1,60.1L183.3,57.8L184,56.7Z" fill="#2c2c34" stroke="#474751" stroke-width="0.8"/><path d="M180.1,30.1L177.2,30L176.8,30.5L174.2,31.1L170.5,33.3L170.3,34.7L169.5,35.9L169.8,37.6L167.9,38.5L167.9,39.9L167.1,40.4L168.4,43.3L170.1,45.3L169.5,46.7L171.6,46.9L172.8,48.6L175.6,48.7L178.2,46.8L178,51.7L179.4,52L181.2,51.5L184,56.7L183.3,57.8L183.1,60.1L183.1,62.9L181.8,64.5L182.4,65.8L181.7,66.9L183,69.7L181,73.2L180.2,75L178.5,75.8L175.3,73.9L175.1,72.5L168.8,69.2L163.1,65.6L160.6,63.5L159.3,60.8L159.8,59.9L157.1,55.6L154,49.6L151,43.2L149.7,41.8L148.7,39.4L146.2,37.3L144,36L145,34.6L143.5,31.5L144.4,29.3L147,27.3L147.3,28.6L146.4,29.4L146.5,30.5L147.8,30.3L149.1,30.6L150.5,32.2L152.3,30.9L152.9,28.8L154.8,26L158.6,24.8L162.1,21.4L163.1,19.4L162.6,16.9L163.5,16.6L165.6,18.1L166.6,19.6L168.1,20.5L170,23.8L172.3,24.2L174.1,23.4L175.2,23.9L177.1,23.6L179.6,25.1L177.5,28.4L178.5,28.4Z" fill="#2c2c34" stroke="#474751" stroke-width="0.8"/><path d="M186.9,0L186.6,2.1L187.3,4.2L188.2,5.2L188.3,5.9L186.7,7.5L187.8,8.2L188.7,9.3L189.7,12.5L189.7,12.5L189.1,12.9L188.4,11L187.5,10L186.5,11.1L180.3,11L180.4,13L182.2,13.3L182.1,14.5L181.5,14.2L179.7,14.7L179.7,17L181.1,18.2L181.6,20L181.5,21.4L180.1,30.1L178.5,28.4L177.5,28.4L179.6,25.1L177.1,23.6L175.2,23.9L174.1,23.4L172.3,24.2L170,23.8L168.1,20.5L166.6,19.6L165.6,18.1L163.5,16.6L162.6,16.9L161.3,16.2L159.7,15.1L158.8,15.6L156.1,15.2L155.3,13.8L154.7,13.9L151.6,12.1L151.1,11.1L152.3,10.8L152.2,9.2L152.9,8.1L154.5,7.9L155.8,5.9L157.1,4.2L155.9,3.5L156.5,1.6L156.1,0L186.9,0Z" fill="#2c2c34" stroke="#474751" stroke-width="0.8"/><path d="M209.2,0L209.6,0.8L208.4,2L204.9,3.2L202.6,3.7L201.7,4.5L199.2,3.7L196.8,3.3L196.2,3.6L197.6,4.4L197.5,6.5L197.9,8.5L200.6,8.8L200.8,9.5L198.5,10.4L198.2,11.7L196.9,12.2L194.5,13L193.9,13.9L191.4,14.2L189.7,12.5L188.7,9.3L187.8,8.2L186.7,7.5L188.3,5.9L188.2,5.2L187.3,4.2L186.6,2.1L186.9,0L209.2,0Z" fill="#2c2c34" stroke="#474751" stroke-width="0.8"/><path d="M220.1,0L220.1,0.3L218.1,1.1L218.3,1.9L217.7,3.5L219.1,5.9L220.2,5.9L220.6,7.7L222.5,10.4L222.5,10.4L221.7,10.5L220,10.3L219,11.1L217.5,11.7L216.5,11.8L216.2,12.4L214.6,12.3L212.6,10.8L212.4,9.3L211.6,7.7L212.1,5L213,3.9L212.3,2.4L211.2,1.9L211.6,0.5L211.1,0L220.1,0Z" fill="#2c2c34" stroke="#474751" stroke-width="0.8"/><path d="M229.6,0L229.1,0.9L229.3,3.1L230.6,4.9L230,6.3L229.7,7.8L228.9,9.1L228.9,9.1L227.1,8.4L225.6,8.8L224.3,8.5L224,9.4L224.5,10L224.2,10.7L222.5,10.4L220.6,7.7L220.2,5.9L219.1,5.9L217.7,3.5L218.3,1.9L218.1,1.1L220.1,0.3L220.1,0L229.6,0Z" fill="#2c2c34" stroke="#474751" stroke-width="0.8"/><path d="M235.1,0L237.5,1.9L238,3.2L238,3.2L236.2,6.1L235.2,8.5L234,9.7L232.4,9.9L232,9L231.3,8.9L230.3,9.8L228.9,9.1L229.7,7.8L230,6.3L230.6,4.9L229.3,3.1L229.1,0.9L229.6,0L235.1,0Z" fill="#2c2c34" stroke="#474751" stroke-width="0.8"/><path d="M162.6,16.9L163.1,19.4L162.1,21.4L158.6,24.8L154.8,26L152.9,28.8L152.3,30.9L150.5,32.2L149.1,30.6L147.8,30.3L146.5,30.5L146.4,29.4L147.3,28.6L147,27.3L148.7,24.9L148,23.5L146.8,25L144.9,23.6L145.5,22.7L145,19.8L146.1,19.3L146.7,17.4L147.9,15.3L147.6,14L149.4,13.3L151.6,12.1L154.7,13.9L155.3,13.8L156.1,15.2L158.8,15.6L159.7,15.1L161.3,16.2Z" fill="#2c2c34" stroke="#474751" stroke-width="0.8"/><path d="M399.7,0L398.9,0.5L396,1.5L393.2,0.6L393.2,0L399.7,0Z" fill="#2c2c34" stroke="#474751" stroke-width="0.8"/><path d="M393.2,0L393.2,0.6L391.7,0.6L389.6,0L393.2,0ZM387.8,0L387.5,0L383.7,0.6L381.5,1.5L378.3,2.7L377.7,2.6L378,0L387.8,0Z" fill="#2c2c34" stroke="#474751" stroke-width="0.8"/><path d="M378,0L377.7,2.6L376.9,2.6L373.6,1.1L372.3,0L378,0Z" fill="#2c2c34" stroke="#474751" stroke-width="0.8"/><path d="M217.3,82L218.3,83.9L218.1,88.5L221.4,89.1L222.7,88.5L224.9,89.4L225.5,90.4L225.8,93.6L226.1,94.9L227.3,95.1L228.5,94.5L229.7,95.2L229.7,97.1L229.2,99.2L228.6,101.2L228.1,104.3L225.2,107L222.7,107.6L219.1,107.1L215.9,106.1L219,100.7L218.6,99.2L215.3,97.8L211.4,95.2L208.8,94.7L203,89L204.2,84.9L204.3,83.1L205.8,80.1L211.4,79.1L214.3,79.2L217.3,80.9Z" fill="#2c2c34" stroke="#474751" stroke-width="0.8"/><path d="M192.4,300L194.4,297.7L197,295.4L198.2,292.1L200,290.1L202,288.2L205,287.7L207,285.4L209.3,284L211.9,283.1L214.2,281.3L216,279.1L218.5,278.2L220.3,280.1L219.2,282.4L215.9,284.6L214.5,286.1L212.2,285L209.6,285.7L207.4,287.5L205.1,289.3L203.5,291.5L203.1,294.5L203.3,297.4L204.8,300L192.4,300Z" fill="#2c2c34" stroke="#474751" stroke-width="0.8"/><path d="M219.1,117.2L219,117.3L219,117.6L218.8,117.9L218.4,118.3L218.3,118.7L218.4,119.1L218.5,119.7L218.4,119.9L218.2,120L218.2,120.1L218.3,120.3L218.3,120.6L218.2,120.9L218,121.3L217.8,121.7L217.7,122L217.8,122.2L217.9,122.3L217.9,122.5L217.9,122.7L217.7,123.1L217.6,123.3L217.3,123.4L217.3,123.6L217.4,123.9L217.4,124.1L217.3,124.4L217.4,124.6L217.5,124.9L217.5,125.1L217.2,125.7L217.2,126L217.3,127.5L217.2,127.8L217.1,128L216.9,128L216.7,128L216.5,128.1L216.4,128.8L216.1,130.2L216.2,130.6L216.4,131.1L216.5,131.5L216.6,131.7L216.6,132.3L216.5,132.5L216.4,132.5L216.2,132.6L216.4,133.3L216.5,133.6L217,134.1L218.6,135L219.3,135.4L220.1,136.1L220.5,136.8L220.5,137.3L219.9,138.2L219.9,138.9L220,139.4L220.2,139.8L220.8,140.4L221.3,140.7L221.8,140.6L222,140.8L222,140.9L222.1,142.2L222.1,142.6L221.9,143.1L220.8,145L219.8,146.2L219.4,146.9L219.3,147.6L219,147.9L217.3,149L214.7,150L212.5,150.5L212.1,150.6L208.6,151.2L208,151.3L207.1,151.2L206.4,151.3L205.6,151.1L204.9,151L204.6,150.5L204.1,150.5L204,150.7L204.2,151.2L204.1,151.9L204.2,152.3L204.5,152.4L204.7,152.6L205,152.8L204.6,152.9L204.7,153.1L204.9,153.2L204.9,153.6L204.7,154.7L204.3,154.9L204.2,155L204.1,155.2L203.9,156.2L203.8,156.9L203.9,157.3L204.4,158.2L204.2,158.8L203.9,159.1L202.6,159.8L202.1,160.1L201.3,160.2L200,160.3L199.5,160.2L198.4,159.6L197.6,159.3L196.8,159L196.1,158.8L196.2,158.7L196.2,158.6L196,158.5L195.9,158.5L195.4,158.8L195.2,159.1L195.1,159.4L195.1,160L195.2,160.6L195.6,162L195.6,162.8L195.4,163.7L195.7,164.3L195.9,164.5L196.6,164.8L196.8,165L197.1,164.9L197.2,165L197.1,165.1L197,165.4L197,165.6L197.5,165.7L198,165.7L198.5,165.5L198.6,165.4L198.6,165L198,164.9L198.1,164.8L198.5,164.6L199.1,164.4L199.5,164.3L199.7,164.5L199.8,164.7L200,165.1L200.1,165.6L200.1,166.2L200,166.8L199.9,167L199.8,167.3L198.7,167.6L198.4,167.5L198.1,167.1L198,166.6L197.8,166.3L197.2,166L196.7,166.1L196.2,166.6L195.7,166.7L195.5,167.1L196.8,167.8L197.4,167.9L197.6,167.9L197.8,168L197.6,168.3L197.4,168.4L196.5,168.7L196.1,169L195.7,169.4L195,170.4L194.8,170.6L194.7,170.9L194.6,171.6L194.9,172.7L194.6,173.2L194.8,173.8L194.7,174.1L194.5,174.7L193.6,175.5L193.4,176.1L193.7,176.4L193.7,176.7L193.6,177L193.2,177L191.8,176.8L191.3,177.1L190.9,177.5L190.7,177.7L190.6,177.8L189.6,178L189.4,178.1L188.4,179.6L188,180.5L187.5,181.4L187.4,181.8L187.3,182.3L187.4,182.8L187.5,183.1L187.7,183.6L188,184.1L190,186.2L190.4,186.4L192.4,186.6L192.9,186.9L193.2,187.3L193.3,187.8L193.2,188.8L193,189.1L192.8,189.4L192.3,189.8L191.7,190L191.9,190.2L192.1,190.2L192.7,190L192.9,190.2L193,190.6L192.7,190.7L192.6,190.9L192.4,191.3L191.2,192.5L190.5,192.9L190,193.3L189.2,193.9L188.8,194.1L188.4,194.7L187.8,195.4L187.1,196.8L187.1,197.1L187.2,197.3L186.8,199.8L186.6,200.1L186.4,200.5L185.6,201L185.3,201.1L184.8,200.8L184.5,200.4L184.3,199.9L184,199.3L183.9,199.5L184,199.9L184,200.2L183.2,200.4L183,200.6L183.7,200.5L184.2,200.6L184.4,200.7L184.6,201L184.7,201.3L184.6,201.5L184.2,201.7L183.7,201.9L183.1,202.4L182.8,203L182.6,203.4L182.5,204.3L182.4,204.9L182.2,205.3L181.8,205.7L181.8,205.8L182.1,205.6L182.3,205.5L182.4,206L182.7,207.1L182.8,207.8L182.8,208L182.7,208.3L182.2,208.4L181.8,208.4L181.4,208.5L181.6,208.6L181.9,208.6L182.3,208.9L182.8,208.8L183,209L183.2,209.2L183.9,210.7L184.5,211.7L184.8,212.2L184.7,212.5L184.6,212.2L184.2,212.1L183.8,212L183.1,211.7L182.3,211.4L181.3,211.4L180.6,211L179.8,210.7L178.2,210.7L176.7,210.6L175.2,210.6L174.3,210.6L173.6,210.6L173.5,210.5L173.5,210L173.3,209.7L172.9,209.3L172.5,209.1L172.3,208.7L172.1,208.3L172.2,207.9L172.4,207.1L172.4,206.7L172.2,206.4L172.2,206L172.2,205.8L172.4,205.7L172.5,205.1L172.4,204.5L172.3,203.9L172.1,203.7L171.9,203.6L171.7,203.6L171.4,203.8L170.8,203.7L170.6,203.8L170.3,204L169.9,204.3L169.7,204.2L169.6,203.9L169.5,203.6L169.4,203.3L169.3,202.9L169.2,202.3L169,201.7L168.6,201.2L168.6,200.7L168.5,200.1L168.7,199.5L168.6,199.1L168.4,198.5L168.4,197.9L168.7,197.6L168.7,197.2L169.8,197.1L169.7,196.6L169.9,196.1L170.1,195.7L170.2,195.5L170.6,195.4L171,195.1L171.3,194.9L171.4,194.6L171.5,194.3L171.5,194L171.4,193.3L171.5,193.1L171.8,192.8L172.2,192.6L172.4,191.9L172.3,191.4L172.1,190.9L171.7,190.7L171.7,190.3L171.9,189.8L172.1,189.4L172.3,188.8L172.3,188.5L172.5,188.2L173,187.7L173.2,187.3L173.4,187.1L173.7,187.1L173.7,186.8L173.5,186.5L173.5,186.2L173.5,185.9L173.6,185.4L173.8,185.2L174.2,184.8L174.3,184.5L174.3,184.2L174.2,183.5L174.1,183L174.1,182.8L173.9,182.5L173.8,182.3L174,182L174.4,181.7L174.5,181.3L174.4,181L174.2,180.8L174.1,180.3L174.2,179.6L174.3,179.4L174.9,179.3L175,179L175.4,178.5L175.4,178L175.1,177.7L174.9,177.3L174.7,176.9L174,176.7L173.2,176.6L173.1,176.2L173.2,176L173.5,176.1L174.1,176L174.5,176L174.8,175.9L175.1,175.9L175.4,176L175.7,175.9L175.8,175.3L176,175L176.1,174.7L175.9,174.5L175.5,174.4L173.9,174.2L173.9,174L173.9,173.6L174,173.2L174,173L174.1,172.8L174.3,172.5L174.4,172.2L174.3,171.9L174,171.4L174.2,171.2L174.2,171L174.2,170.7L173.9,170.5L173.7,170.1L173.7,169.7L173.9,169.6L174.1,169.4L174.2,169.2L174.1,168.9L173.7,168.8L173.2,168.6L173,168.4L172.9,168.1L173,167.2L173,166.6L172.9,166.3L173,166.1L173.2,165.9L173.1,165.4L173,165.1L173,164.9L173.2,164.7L173.3,164.5L173.4,164.4L173.5,164.6L173.8,164.5L174.1,164.3L174.2,164L174.1,163.7L173.9,162.9L173.6,162.3L173.7,162.2L173.8,162L173.7,161.3L173.7,160.8L173.7,159.6L173.8,159.1L173.6,158.7L173.6,158.3L173.7,158L173.9,157.6L174,157.2L174.1,157.1L174.3,157L174.3,156.8L174.3,156.7L174,156.4L173.9,156.2L174,155.9L174.1,155.8L174.3,155.8L174.4,155.5L174.5,155.1L174.5,154.9L174.4,154.7L174.3,154.2L174.3,153.9L174.3,153.8L174.5,153.7L174.7,153.8L174.8,153.8L174.9,153.6L174.9,153.4L174.9,153.3L175.1,152.9L175.2,152.5L175.2,152.1L175.2,151.2L175.3,151L175.4,150.8L175.6,150.7L175.9,150.5L176.3,150.3L176.7,150.2L176.9,150L177,149.7L177,149.4L176.9,149.2L176.6,149L176.5,148.5L176.5,148L176.5,147.4L176.2,146.9L176,146.3L176,145.7L176,145.5L176.1,145L176,144.8L175.9,144.4L176,144.1L176.2,143.7L176.2,143.4L176,142.9L175.9,142.6L176,142.3L176.2,142L176.3,141.8L176.3,141.6L176.4,141.3L176.6,141.2L176.8,140.9L177,140.9L177.2,140.9L177.3,140.8L177.4,140.6L177.4,140.4L177.8,140.1L177.9,139.8L178.3,139.8L178.4,139.5L178.4,139.2L178.4,138.8L178.5,138.4L178.4,137.7L178.4,137.4L178.3,137.1L178.3,136.8L178.2,136.6L178,136.6L178,136.3L178.1,136.2L178.2,136.1L178.5,135.9L178.6,135.1L178.7,134.8L178.8,134.5L178.8,134.3L178.9,134.1L179.1,133.7L179.3,133.4L179.4,133.2L179.5,132.9L179.6,132.7L179.7,132.6L179.9,132.5L180.1,132.5L180.2,132.4L180.2,132.2L180.2,131.8L180.1,131.2L180.1,130.5L180.1,130L180.2,129.5L180.4,129.2L180.3,129L180.3,128.8L180.1,128.6L179.8,128.8L179.7,128.7L179.5,128.5L179.4,128.2L179.4,127.8L179.6,127.6L179.7,127.3L179.6,127.2L179.4,127L179.2,126.3L179.2,125.7L179,125.5L178.9,125.1L178.7,124.9L178.6,124.6L178.6,124.2L178.6,124.1L178.8,124L178.9,123.8L178.8,123.6L178.7,123.5L178.5,123.5L178.3,123.3L178.1,122.7L177.9,122.3L177.9,121.8L178,121.4L178,121L178.1,120.7L178.2,120.6L178.4,120.7L178.5,120.6L178.6,120.4L178.7,120.3L178.7,120.2L178.7,120L178.6,119.8L178.7,119.6L178.9,119L179.1,118.4L179.2,118.1L179.2,117.9L179.2,117.8L179.4,117.9L179.9,117.8L180,117.5L180.1,117.3L180.2,117.1L180.2,117L180,116.9L179.8,116.8L179.9,116.6L180,116L180,115.7L179.8,114.8L179.6,114L179.7,113.8L180,113.4L180.3,113.2L180.3,113L180.5,112.1L180.6,111.6L180.7,111.3L180.8,110.7L181.2,110.3L181.3,110L181.5,109.9L181.6,109.8L181.8,109.5L182.1,109.1L182.4,109L182.4,108.7L182.5,108.3L182.8,107.7L182.9,107.3L183.1,107.1L183.3,106.5L183.4,106.2L183.6,106.1L183.8,106L184,106.2L184.2,106.2L184.4,106L184.8,105.8L185,105.8L185.1,105.6L185.1,105.2L184.9,105L184.5,104.5L184.2,103.9L184.2,103.8L184.2,103.6L184.3,103.3L184.4,103.1L184.8,102.6L184.7,102.3L184.5,101.2L184.4,100.9L184.2,100.3L184.2,100.1L184.4,99.4L184.5,99.2L184.7,99.1L184.8,99L184.9,98.9L184.7,98.8L184.7,98.6L184.6,98.3L184.4,98.2L184.3,98L184.3,97.7L184.5,97.3L184.7,97.2L184.7,97L184.9,96.8L185.1,96.7L185.3,96.5L185.9,96.2L186.4,95.9L187.4,95.5L188.1,95.2L188.2,95L188.2,94.9L188.6,93.8L189,92.5L189.2,91.6L188.6,91L188.8,90.8L189.1,90.4L189.2,90.1L189.3,89.9L189.9,89.6L190,89.4L190.1,89.1L190.2,88.9L190.4,88.9L190.8,88.7L191.3,88.6L191.4,88.4L191.5,88L191.7,87.6L191.7,87.5L191.9,87.5L192.1,87.6L192.3,87.8L192.9,88.2L193.2,88.5L193.4,88.6L194,88.5L194.1,88.5L195.4,88.5L195.6,88.6L196.1,88.7L196.4,88.8L196.6,88.8L196.9,89L197.1,89.5L197.3,89.8L197.4,90.2L197.6,90.8L197.8,91L197.8,90.9L198,90.3L198.1,89.9L198.4,89.4L198.9,88.4L199.1,88.3L199.2,88.2L199.4,88.2L199.5,88.3L199.7,88.3L199.8,88.2L201.1,88.2L202.5,88.2L202.5,88.2L202.6,88.4L202.8,88.7L203,88.9L203.1,89L203.2,89.1L203.2,89.2L203.4,89.4L204,89.7L204.5,90.3L204.9,91.2L205.4,91.8L205.8,92.2L206.2,92.5L206.5,92.7L206.7,92.9L206.7,93L207.1,93.2L207.7,93.5L208.1,93.9L208.2,94.2L208.8,94.6L209.9,95L210.7,95.1L211.2,95.1L211.9,95.4L212.8,96L213.3,96.4L213.5,96.7L214.1,97L215.6,97.8L216.2,98L216.5,98.2L216.7,98.4L216.9,98.5L217.1,98.4L217.4,98.5L218,98.8L218.4,99.1L219,99.7L219.2,100L219.3,100.2L219.2,100.5L219.1,100.7L218.7,100.9L218.7,101L218.6,101.1L218.6,101.3L218.3,101.8L218.2,102L218.2,102.1L218,102.3L217.6,102.6L217.5,102.7L217.5,102.9L217.4,103L217.4,103L217.3,103.2L217.2,103.5L217.2,103.8L217.3,104.2L217.3,104.3L217.2,104.4L217.1,104.5L217.1,104.7L217,104.8L216.9,104.9L216.8,105L216.8,105.1L216.7,105.3L216.5,105.4L216.3,105.5L216.3,105.8L216.1,106L215.9,106.1L215.8,106.4L216,106.8L217.3,106.6L218.5,106.8L219.8,107.2L220.7,107.3L221.1,107.2L221.5,107.2L221.7,107.4L222,107.4L222.3,107.3L222.6,107.4L222.8,107.6L223,107.6L223.2,107.2L223.5,107L223.7,106.8L224,106.8L224.4,106.8L224.7,106.9L224.9,107.1L225.1,107.1L225.4,106.9L225.5,106.7L225.5,106.4L225.6,106.2L225.8,106.1L226,105.9L226,105.7L226.3,105.6L226.7,105.5L227,105.4L227,105.3L227.1,105.1L227.4,105L227.5,104.8L227.6,104.6L227.8,104.5L228,104.4L228.2,104L228.4,103.2L228.6,102.1L228.6,100.6L228.9,100.6L229,100.7L229.2,100.8L229.4,100.6L229.5,100.6L229.8,100.6L229.9,100.4L230.1,100.4L230.2,100.5L230.3,100.6L230.5,100.6L230.7,100.9L230.9,100.9L231,101.2L231.2,102L231.4,102.4L231.6,102.9L231.6,103.1L231.5,103.3L231.5,103.7L231.4,104.5L231.4,104.8L231.4,105L231.5,105.2L231.4,105.6L231.1,106.1L230.9,106.2L230.8,106.2L230.5,106.5L230.2,106.6L230.1,106.6L229.9,106.7L229.8,107L229.5,107.2L229.2,107.3L229,107.3L228.8,107.3L228.6,107.4L228.5,107.5L228.3,107.6L228.1,107.6L227.9,107.6L227.8,107.8L227.7,108L227.7,108.2L227.5,108.3L227.3,108.4L227.2,108.5L227.2,108.6L227.1,108.8L226.6,108.9L226.3,109.1L226.1,109.4L225.9,109.6L225.6,109.7L225.1,110L225,110.2L225.2,110.3L225.3,110.5L225.2,110.6L225.1,110.6L224.8,110.5L224.7,110.5L224.6,110.6L224.5,110.7L224.5,110.8L224.4,110.9L224.3,111L224.2,111.1L224.1,111.3L223.9,111.6L223.5,111.9L223.2,112.3L223,112.8L222.7,113.2L222.4,113.4L222.2,113.6L222.1,113.9L221.8,114.4L221.2,115L220.8,115.5L220.3,115.7L220.1,116L220,116.3L219.8,116.6L219.3,117ZM184,225.9L184,224.6L184,223L184.1,221.5L184.1,220.1L184.1,218.6L184.1,217.2L184.1,215.6L184.1,214L184.3,214.3L185,215.3L185.2,215.8L185.3,216.3L185,216L184.7,216.2L184.6,216.5L184.4,216.8L184.4,217L184.5,217.3L184.8,217.4L185.6,217.5L185.6,217.6L186,218.9L186.3,219.2L186.5,219.4L187.1,220.1L187.7,220.8L188.3,221.5L189,222L189.7,222.4L190.3,222.9L191,223.6L191.7,224.1L192.5,224.5L193.2,224.8L194.5,224.7L194.8,224.7L195,224.9L194.8,225.5L194.5,226L194.1,226.2L193.7,226.3L193.3,226.3L192.9,226.2L192.6,226.2L192.3,226.4L191.9,226.6L191.5,226.6L191.2,226.7L190.8,226.9L190.4,226.8L189.5,226.3L188.9,226.2L186.7,226L186.1,225.9L185.4,225.7L185,225.7L184.5,225.8L184.1,225.8ZM197,225.1L197.4,225.2L198.1,225.2L198.5,225.2L198.6,225.2L198.7,225.3L199.2,225.2L199.4,225.2L199.3,225.4L198.9,225.6L198.7,225.5L197.8,225.6L197.4,225.8L197.2,225.8L196.8,226.1L196.5,225.9L196.4,225.7L196.6,225.4L196.8,225.4L196.9,225.3ZM205.6,152L205.6,152.3L205.4,152.2L205,152L204.9,151.7L204.9,151.6L205.3,151.8L205.4,151.9Z" fill="#b8e653" stroke="#0c0e06" stroke-width="1"/></svg>
