<svg xmlns="http://www.w3.org/2000/svg" viewBox="0 0 300 300"><path fill="#e8e8ea" d="M189.8,81.8L189.5,82.1L189.5,82.6L189.1,83.3L188.3,84.1L188,84.9L188.4,85.8L188.4,86.9L188.3,87.4L187.9,87.5L187.8,87.8L188,88.2L188,88.8L187.9,89.5L187.5,90.3L186.9,91.2L186.8,91.8L187.1,92.1L187.3,92.5L187.3,92.8L187.1,93.3L186.9,94L186.5,94.5L186.1,94.8L185.9,95.2L186.1,95.7L186.1,96.2L186,96.7L186.1,97.2L186.4,97.7L186.3,98.3L185.8,99.5L185.7,100.2L186,103.3L185.8,103.7L185.5,104.2L185.1,104.3L184.7,104.2L184.4,104.5L184.2,105.9L183.6,108.9L183.7,109.6L184.2,110.7L184.3,111.5L184.5,112L184.6,113.1L184.3,113.6L184,113.6L183.7,113.9L184.1,115.2L184.4,115.8L185.3,117L188.7,118.7L190.2,119.7L191.8,121.1L192.7,122.5L192.7,123.7L191.4,125.4L191.3,126.9L191.6,127.9L192,128.9L193.3,130.1L194.2,130.6L195.4,130.5L195.7,130.9L195.8,131.2L196,133.7L195.9,134.7L195.6,135.6L193.2,139.6L191.2,142.1L190.4,143.5L190.2,145L189.5,145.7L186,147.9L180.5,149.9L176.1,151L175.1,151.3L168,152.5L166.6,152.6L164.8,152.5L163.4,152.7L161.7,152.4L160.3,152L159.5,151.1L158.5,151L158.2,151.4L158.7,152.6L158.5,154L158.8,154.8L159.3,154.9L159.9,155.3L160.4,155.9L159.5,155.9L159.9,156.4L160.2,156.6L160.2,157.5L159.9,159.8L159,160.2L158.8,160.4L158.6,160.8L158.1,163L157.9,164.3L158.1,165.2L159.1,167.1L158.7,168.3L158.1,169L155.5,170.4L154.4,170.9L152.7,171.3L150,171.4L149,171.3L146.7,170L145,169.3L143.4,168.7L141.9,168.3L142.1,168.2L142.2,167.8L141.7,167.7L141.4,167.6L140.4,168.3L140,168.9L139.9,169.5L139.9,170.9L140.1,172L140.8,174.9L140.8,176.5L140.5,178.5L141,179.7L141.6,180.2L142.9,180.8L143.4,181.1L144,181.1L144.1,181.2L144,181.5L143.7,182L143.7,182.5L144.7,182.7L145.7,182.6L146.8,182.3L147.1,181.9L147.1,181.2L145.8,181L146,180.7L147,180.4L148.2,179.9L148.9,179.8L149.3,180.1L149.6,180.5L150,181.3L150.2,182.4L150.2,183.8L150,185L149.9,185.5L149.5,186L147.3,186.7L146.6,186.5L146,185.5L145.9,184.6L145.4,183.9L144.3,183.4L143.2,183.5L142.1,184.5L141.1,184.8L140.7,185.6L143.3,186.9L144.6,187.3L145,187.3L145.4,187.5L145,188L144.6,188.3L142.8,189L142,189.5L141,190.4L139.6,192.5L139.2,192.9L139,193.5L138.9,194.9L139.3,197.3L138.8,198.3L139.1,199.4L139,200.2L138.5,201.3L136.6,203L136.3,204.2L136.9,205L136.9,205.6L136.7,206.2L135.9,206.2L133,205.8L132,206.5L131,207.2L130.7,207.6L130.4,207.8L128.4,208.3L128.1,208.5L126,211.6L125.1,213.4L124,215.3L123.7,216.1L123.6,217.2L123.8,218.1L123.9,218.9L124.3,219.8L125.1,220.9L129.1,225.2L130,225.6L134.3,226.1L135.2,226.7L135.8,227.7L136,228.5L135.8,230.7L135.5,231.4L135,232L134,232.8L132.8,233.3L133.1,233.6L133.6,233.5L134.7,233.3L135.2,233.5L135.5,234.4L134.9,234.7L134.6,235.2L134.2,235.8L131.7,238.4L130.3,239.1L129.1,240.2L127.4,241.2L126.8,241.8L125.9,243.1L124.6,244.5L123.1,247.4L123.1,248L123.3,248.4L122.5,253.7L122.2,254.3L121.6,255L120.1,256.1L119.3,256.2L118.4,255.6L117.8,254.9L117.3,253.8L116.6,252.6L116.6,253L116.8,253.7L116.7,254.5L115,254.8L114.6,255.2L116.1,255L117.1,255.2L117.5,255.5L117.9,256.1L118.3,256.8L118,257.1L117.2,257.5L116.1,258L114.8,259.1L114.2,260.3L113.8,261.2L113.5,262.9L113.4,264.1L112.9,265L112.1,265.8L112.1,266L112.7,265.6L113.1,265.5L113.5,266.5L114,268.7L114.2,270.2L114.2,270.7L114.1,271.3L113,271.5L112.1,271.4L111.4,271.7L111.7,272L112.4,271.9L113.2,272.5L114.2,272.3L114.7,272.7L115,273.1L116.5,276.3L117.8,278.3L118.4,279.5L118.1,280L118,279.3L117.2,279.1L116.3,278.9L114.9,278.4L113.1,277.6L111.2,277.6L109.7,277L108.1,276.2L104.6,276.2L101.6,276.1L98.5,276.1L96.5,276.1L95.1,276L94.8,275.8L94.9,274.9L94.4,274.2L93.7,273.4L92.8,272.8L92.4,272.1L91.9,271.2L92.2,270.5L92.6,268.7L92.6,267.9L92.2,267.3L92.1,266.5L92.2,266.2L92.6,265.9L92.8,264.6L92.6,263.3L92.3,262.2L92,261.7L91.6,261.5L91.2,261.4L90.5,261.8L89.3,261.7L88.9,261.9L88.3,262.3L87.4,263L87,262.8L86.8,262.1L86.5,261.5L86.3,260.9L86.2,260L85.9,258.9L85.4,257.5L84.7,256.4L84.6,255.4L84.5,254.2L84.9,253L84.7,252L84.2,250.9L84.3,249.6L84.8,249L84.9,248.1L87.1,248L87,246.8L87.4,245.9L87.8,245.1L88.1,244.7L88.9,244.4L89.8,243.9L90.3,243.4L90.5,242.9L90.7,242.2L90.7,241.6L90.6,240.1L90.8,239.7L91.3,239.1L92.3,238.6L92.7,237.2L92.4,236L91.9,235.1L91.2,234.7L91.2,233.8L91.5,232.8L91.9,231.9L92.3,230.8L92.3,230L92.7,229.5L93.9,228.5L94.3,227.5L94.8,227.3L95.2,227.1L95.3,226.6L94.9,226L94.8,225.3L94.9,224.6L95,223.6L95.6,223.2L96.4,222.3L96.6,221.8L96.6,221.1L96.4,219.7L96.2,218.6L96.1,218.2L95.7,217.5L95.4,217.1L95.9,216.6L96.7,216L97,215.1L96.7,214.4L96.3,214L96.1,213L96.3,211.6L96.6,211.2L97.8,211L98,210.2L98.9,209.3L98.9,208.3L98.3,207.7L97.7,206.8L97.3,205.9L95.8,205.5L94.3,205.2L94.1,204.5L94.2,204L94.9,204.2L96,204L96.9,204L97.5,203.9L98.2,203.8L98.8,204.1L99.5,203.9L99.7,202.7L100.2,202.1L100.2,201.4L99.8,200.9L99.1,200.8L95.8,200.4L95.7,199.9L95.7,199.1L95.8,198.3L95.8,197.8L96.1,197.5L96.5,196.7L96.7,196.2L96.5,195.6L96,194.6L96.3,194.2L96.4,193.6L96.3,193.1L95.7,192.5L95.2,191.7L95.2,190.9L95.8,190.7L96.2,190.4L96.3,189.9L96,189.3L95.3,189.1L94.3,188.7L93.9,188.4L93.6,187.7L93.8,185.7L93.8,184.6L93.7,183.9L93.9,183.5L94.3,183L94.1,182L93.8,181.5L93.9,181L94.2,180.6L94.4,180.1L94.7,180L95,180.3L95.5,180.1L96.2,179.7L96.3,179.2L96.1,178.5L95.6,176.8L95.2,175.7L95.3,175.3L95.4,174.9L95.3,173.4L95.3,172.5L95.4,169.9L95.4,169L95,168.1L95.1,167.3L95.4,166.6L95.7,165.8L95.9,165.1L96.1,164.7L96.5,164.6L96.6,164.2L96.4,163.8L95.9,163.4L95.8,162.8L95.9,162.3L96.2,162.1L96.6,162.1L96.8,161.4L96.9,160.7L97,160.3L96.8,159.8L96.6,158.7L96.4,158.1L96.6,157.9L96.9,157.8L97.3,157.9L97.7,157.8L97.7,157.5L97.7,157.2L97.8,156.9L98.1,156.1L98.4,155.1L98.5,154.4L98.4,152.6L98.6,152.1L98.9,151.8L99.3,151.4L99.9,151.1L100.6,150.6L101.5,150.5L101.9,150L102.2,149.3L102.2,148.8L101.9,148.4L101.4,148L101.2,146.9L101.1,145.9L101,144.6L100.6,143.5L100.1,142.3L100,141.2L100.1,140.6L100.3,139.6L100.1,139.2L99.9,138.4L100.1,137.8L100.4,136.9L100.4,136.4L100.2,135.3L99.9,134.6L100.2,133.9L100.5,133.3L100.8,133L100.7,132.4L100.8,132L101.4,131.7L101.8,131.1L102.2,131.1L102.6,131.1L102.9,130.9L103,130.5L103.1,130L103.7,129.4L104.1,128.9L104.8,128.8L105.2,128.2L105.2,127.4L105.1,126.7L105.3,125.8L105.1,124.5L105.1,123.8L104.8,123.2L104.9,122.6L104.7,122.2L104.3,122.1L104.2,121.6L104.3,121.3L104.7,121.1L105.2,120.7L105.6,118.9L105.8,118.4L105.9,117.7L105.9,117.4L106.2,116.9L106.4,116.2L106.9,115.5L107.2,115L107.4,114.3L107.5,113.9L107.8,113.7L108.2,113.7L108.6,113.6L108.8,113.3L108.8,113L108.7,112.2L108.6,111L108.5,109.4L108.6,108.4L108.9,107.3L109.2,106.8L109.1,106.3L109,105.8L108.5,105.6L108,105.8L107.7,105.8L107.3,105.2L107.1,104.6L107.2,103.8L107.6,103.3L107.7,102.7L107.5,102.5L107.1,102.1L106.7,100.7L106.7,99.5L106.3,99.1L106.1,98.2L105.7,97.8L105.6,97.1L105.4,96.4L105.5,96.1L105.9,96L106.2,95.4L106,95.1L105.6,94.8L105.2,94.9L104.8,94.5L104.3,93.2L104,92.4L104.1,91.3L104.2,90.5L104.3,89.7L104.4,89.2L104.7,88.9L105,89L105.2,88.9L105.5,88.5L105.8,88.2L105.8,88L105.6,87.7L105.5,87.3L105.7,86.7L106,85.5L106.5,84.2L106.7,83.7L106.7,83.3L106.8,83.1L107.2,83.3L108.1,83.1L108.4,82.5L108.6,82L108.9,81.7L108.7,81.3L108.3,81.1L108.1,80.9L108.2,80.5L108.3,79.4L108.3,78.6L107.9,76.9L107.7,75.2L107.8,74.6L108.5,73.9L109,73.5L109.1,73.1L109.5,71.1L109.6,70L109.9,69.4L110.1,68.3L111,67.4L111.2,66.7L111.6,66.7L111.7,66.5L112.2,65.7L112.8,65L113.3,64.7L113.4,64.1L113.7,63.3L114.2,62L114.4,61.1L114.8,60.8L115.3,59.6L115.5,58.9L116,58.6L116.4,58.5L116.7,58.9L117.1,58.8L117.5,58.4L118.4,58.1L118.8,58L118.9,57.6L118.9,56.9L118.6,56.3L117.8,55.3L117.2,54.2L117.1,53.8L117.1,53.5L117.2,53L117.6,52.4L118.3,51.5L118.2,50.9L117.7,48.5L117.5,47.8L117.1,46.6L117.1,46.1L117.5,44.8L117.8,44.2L118.2,44.1L118.4,44L118.5,43.7L118.2,43.4L118.1,43L118,42.5L117.6,42.3L117.3,41.9L117.3,41.2L117.7,40.3L118.1,40.1L118.2,39.7L118.7,39.4L119.1,39.1L119.4,38.6L120.7,38L121.8,37.5L123.9,36.6L125.3,36L125.4,35.6L125.6,35.3L126.2,33.1L127.1,30.3L127.6,28.6L126.4,27.3L126.6,26.9L127.3,26.1L127.4,25.4L127.7,25.1L129,24.3L129.2,23.9L129.3,23.3L129.6,23L130.1,22.9L130.9,22.5L131.9,22.2L132.1,21.8L132.4,21L132.6,20.2L132.8,20L133.1,20L133.6,20.2L133.9,20.6L135.2,21.6L135.8,22.1L136.4,22.2L137.5,22.1L137.7,22.1L140.5,22.1L140.9,22.2L141.9,22.4L142.5,22.6L142.9,22.7L143.5,23L144,24.1L144.3,24.9L144.5,25.6L145,26.9L145.4,27.3L145.5,27.1L145.7,25.7L146.1,24.9L146.6,24L147.7,21.9L148,21.6L148.4,21.5L148.7,21.4L149,21.6L149.4,21.6L149.6,21.4L152.3,21.4L155.1,21.4L155.2,21.4L155.3,21.8L155.8,22.6L156.3,23L156.4,23.1L156.6,23.3L156.6,23.5L157.1,23.9L158.3,24.5L159.3,25.8L160.3,27.6L161.2,29L162,29.9L162.8,30.5L163.6,30.9L163.9,31.2L164,31.4L164.7,31.9L165.9,32.6L166.8,33.3L167.1,34L168.4,34.7L170.6,35.5L172.2,35.9L173.2,35.9L174.7,36.5L176.5,37.7L177.7,38.6L178.1,39.1L179.3,39.9L182.4,41.5L183.7,41.9L184.4,42.3L184.8,42.8L185.1,42.9L185.5,42.7L186.3,42.9L187.4,43.4L188.3,44L189.5,45.4L189.9,46L190.1,46.5L190,47L189.6,47.4L189,47.9L188.8,48.1L188.8,48.4L188.6,48.8L188.1,49.7L187.9,50.1L187.9,50.4L187.5,50.8L186.6,51.4L186.4,51.7L186.4,52L186.3,52.2L186.2,52.3L186,52.6L185.8,53.2L185.8,53.9L185.9,54.7L185.9,55L185.7,55.2L185.6,55.4L185.5,55.8L185.4,56.1L185.1,56.3L185,56.5L185,56.7L184.8,56.9L184.3,57.2L184,57.5L183.8,58L183.5,58.4L183.1,58.7L182.9,59.2L183.2,60.1L186.1,59.8L188.4,60.1L191.2,61L193,61.3L194,61L194.6,61L195.1,61.4L195.7,61.4L196.4,61.2L197,61.4L197.5,61.9L197.9,61.8L198.3,61L198.8,60.5L199.3,60.2L199.9,60.1L200.7,60.2L201.3,60.5L201.8,60.9L202.3,60.8L202.8,60.4L203.1,59.9L203.1,59.3L203.3,58.9L203.7,58.6L204,58.3L204.2,57.8L204.7,57.6L205.6,57.5L206.1,57.3L206.2,56.9L206.4,56.6L206.9,56.3L207.2,56L207.4,55.6L207.7,55.3L208.2,55.2L208.6,54.3L209.1,52.6L209.4,50.4L209.6,47.3L210.1,47.3L210.3,47.5L210.7,47.6L211.1,47.3L211.4,47.2L212,47.2L212.2,46.9L212.6,46.9L212.8,47L213.1,47.2L213.5,47.3L213.9,47.8L214.3,47.9L214.5,48.5L214.8,50.1L215.3,51L215.8,52L215.8,52.5L215.5,53L215.5,53.6L215.3,55.3L215.2,55.9L215.4,56.3L215.5,56.9L215.2,57.6L214.7,58.7L214.2,58.9L214.1,59L213.4,59.6L212.9,59.8L212.6,59.7L212.3,59.9L211.9,60.6L211.5,60.9L210.7,61.1L210.4,61.2L210,61.1L209.6,61.3L209.2,61.7L208.9,61.8L208.5,61.7L208.1,61.9L207.8,62.2L207.7,62.6L207.6,63L207.3,63.3L206.7,63.5L206.6,63.7L206.6,64L206.3,64.2L205.4,64.5L204.7,64.9L204.3,65.5L203.8,65.9L203.2,66.1L202.2,66.7L202.1,67.1L202.4,67.5L202.6,67.8L202.5,68.1L202.2,68.1L201.7,67.9L201.3,67.9L201.1,68L201,68.2L201,68.5L200.8,68.8L200.5,68.9L200.3,69.2L200.2,69.6L199.7,70.1L198.9,70.8L198.3,71.6L197.8,72.7L197.3,73.4L196.6,73.8L196.2,74.3L196,74.9L195.3,75.9L194.2,77.2L193.2,78.2L192.3,78.7L191.8,79.2L191.7,79.9L191.1,80.6L190.1,81.4Z"/></svg>
