<svg xmlns="http://www.w3.org/2000/svg" viewBox="0 0 400 300"><path d="M0,91.6L3.3,89.8L8.3,68.7L22.6,63.5L25,72.6L32.6,73L40.2,83.4L51.6,95.5L60.1,93.5L74.4,105L78.1,107.3L82.8,106.7L82.8,106.7L90.5,113.3L114.1,117.9L105.9,134.9L103.8,152.3L99.3,156.5L91.8,154.3L92.4,160.4L80.4,173.9L80.1,184.7L87.9,181L93.5,191.4L92.9,198L97.7,206.8L92,213.9L96.2,231.7L105.2,234.6L103.3,244.5L88.4,257.3L56.1,251.2L32.2,258.5L30.3,271.9L11.3,274.8L0,268.6L0,91.6ZM124.8,268.5L135.3,259.9L138.1,279L132.7,296L125.2,291.5L121.4,276.7Z" fill="#2c2c34" stroke="#474751" stroke-width="0.8"/><path d="M400,43.8L396.6,43.3L383.9,44L374.9,51.1L367.1,52.2L366.7,40.4L361.7,28L371.5,22.4L371.6,11.6L367.1,1.2L367,0L400,0Z" fill="#2c2c34" stroke="#474751" stroke-width="0.8"/><path d="M400,144.7L394.6,145.7L389,149.5L381.4,143.5L370.9,143.4L360.8,140.7L353.7,146L352.6,139.4L343.4,132.7L346.7,122.7L351.2,116.2L354.7,117.7L350.6,106.4L365.4,85.2L373.6,82.2L375.3,75L367.1,52.2L374.9,51.1L383.9,44L396.6,43.3L400,43.8L400,144.7Z" fill="#2c2c34" stroke="#474751" stroke-width="0.8"/><path d="M367,0L367.1,1.2L371.6,11.6L371.5,22.4L361.7,28L366.7,40.4L367.1,52.2L375.3,75L373.6,82.2L365.4,85.2L350.6,106.4L354.7,117.7L351.2,116.2L335.6,106.5L323.8,110.1L316.1,107.5L306.4,112.9L298.1,104L291.4,107.4L290.4,105.9L282.9,93.4L270.7,91.8L269.2,83.8L257.9,80.9L255.5,87.6L246.6,82.3L247.6,75.2L235.4,72.9L227.6,64.5L220.8,47.7L222.1,38.6L218.1,24.2L212.1,14.6L216.6,7.3L214.7,0L367,0Z" fill="#2c2c34" stroke="#474751" stroke-width="0.8"/><path d="M343.4,132.7L352.6,139.4L353.7,146L343.7,151.1L335.9,167.5L326,183.7L312.8,188.1L302.6,187.1L290.1,193.3L283.9,196.8L270.4,192.3L258.1,182.2L252.9,179.2L249.8,171.1L247,170.9L252.4,155.4L249.3,150.1L258.5,150L259.7,140.1L268,146.3L274.1,149L287.9,146L289.2,141.1L295.7,140.4L303.7,136.5L305.5,138.1L313.1,135L317,129.2L322.4,127.7L339.9,135.2Z" fill="#2c2c34" stroke="#474751" stroke-width="0.8"/><path d="M400,244.6L376.5,243.4L363.9,239.9L357.5,241.5L352.8,232.2L349.8,228.2L353.6,224.3L349.6,221.4L344.4,226.6L334.9,219.9L333.6,210.3L323.6,204.9L321.8,197.4L312.8,188.1L326,183.7L335.9,167.5L343.7,151.1L353.7,146L360.8,140.7L370.9,143.4L381.4,143.5L389,149.5L394.6,145.7L400,144.7L400,244.6Z" fill="#2c2c34" stroke="#474751" stroke-width="0.8"/><path d="M214.7,0L216.6,7.3L212.1,14.6L218.1,24.2L222.1,38.6L220.8,47.7L227.6,64.5L220.2,67.3L215.9,64.3L211.8,69.2L200,74.3L193.9,80.7L182,86.3L184.9,93.9L186.7,104.6L195,110.7L204.2,121.4L198.5,132.8L192.6,136L194.9,151.9L193.4,156L188.3,151.1L180.4,150.3L168.7,154.7L154.2,153.7L151.9,160.1L143.6,153.3L138.7,154.7L121.1,147.2L117.7,152.5L103.8,152.3L105.9,134.9L114.1,117.9L90.5,113.3L82.8,106.7L83.7,95.6L80.4,89.8L82.3,72.4L79.5,44.9L89.4,44.9L93.5,34.9L97.6,10.1L94.6,0.9L95.1,0L214.7,0Z" fill="#2c2c34" stroke="#474751" stroke-width="0.8"/><path d="M400,298.4L394.5,299.2L382.9,291.5L369.8,297.5L357.6,296.9L356.5,282.4L348.3,275.3L351,272.2L349.2,269.5L352,262.4L358.2,255.4L350.2,245.7L348.8,237.3L352.8,232.2L352.8,232.2L357.5,241.5L363.9,239.9L376.5,243.4L400,244.6L400,298.4Z" fill="#2c2c34" stroke="#474751" stroke-width="0.8"/><path d="M352.8,300L354.5,297.7L357.6,296.9L357.6,296.9L369.8,297.5L382.9,291.5L394.5,299.2L400,298.4L400,300Z" fill="#2c2c34" stroke="#474751" stroke-width="0.8"/><path d="M299,300L299.4,295.4L301.7,288.5L298.9,285.1L297.9,278.1L304.9,267.1L306,271.3L310.4,269.3L313.9,275.3L317.8,277.6L318.9,285.6L316.9,293L318.6,300L299,300Z" fill="#2c2c34" stroke="#474751" stroke-width="0.8"/><path d="M252.9,179.2L258.1,182.2L270.4,192.3L283.9,196.8L290.1,193.3L294,202.4L299.3,209.1L293,217.8L285.5,212.7L274.2,213L260.1,209.1L252.4,209.6L248.9,214.5L243,209.1L239.5,218.7L247.6,229.5L251.2,236.6L258.7,245.1L264.9,250.1L271.1,259.5L285.6,268L283.8,271.7L268.4,263.5L258.9,255.4L243.9,248.7L230.2,232L233.5,230.3L226,220.6L225.7,212.8L215.1,209.1L210.1,219.1L205.3,211.4L205.6,203.3L206.2,202.9L217.6,203.7L220.7,199.7L226.2,203.6L232.6,204L232.6,197.5L238.3,195.1L239.9,185.5Z" fill="#2c2c34" stroke="#474751" stroke-width="0.8"/><path d="M138.7,154.7L139.3,159L136.8,164.9L144.2,169.3L152.6,169.9L151.3,179.7L144.1,183.7L131.9,180.7L128.4,190.3L120.6,191.1L117.7,187.3L108.5,195.3L100.6,196.4L93.5,191.4L87.9,181L80.1,184.7L80.4,173.9L92.4,160.4L91.8,154.3L99.3,156.5L103.8,152.3L117.7,152.5L121.1,147.2Z" fill="#2c2c34" stroke="#474751" stroke-width="0.8"/><path d="M80.4,89.8L83.7,95.6L82.8,106.7L78.1,107.3L74.4,105L76.2,90.8Z" fill="#2c2c34" stroke="#474751" stroke-width="0.8"/><path d="M82.3,72.4L80.4,89.8L76.2,90.8L74.4,105L60.1,93.5L51.6,95.5L40.2,83.4L32.6,73L25,72.6L22.6,63.5L35.7,58.3L47.7,60.4L62.9,54.9L73.3,66.3Z" fill="#2c2c34" stroke="#474751" stroke-width="0.8"/><path d="M94.6,0.9L97.6,10.1L93.5,34.9L89.4,44.9L79.5,44.9L82.3,72.4L73.3,66.3L62.9,54.9L47.7,60.4L35.7,58.3L44.1,51.1L58.5,11.6L81,0.1Z" fill="#2c2c34" stroke="#474751" stroke-width="0.8"/><path d="M0,268.6L11.3,274.8L30.3,271.9L31.2,284.8L15.7,299.3L12.7,300L0,300Z" fill="#2c2c34" stroke="#474751" stroke-width="0.8"/><path d="M203.4,300L192.6,298.8L179.8,288.9L164.8,274.5L153.7,261.7L148.6,239.3L140.5,236.7L127.1,229.2L119.6,232.3L110.1,242.9L103.3,244.5L105.2,234.6L96.2,231.7L92,213.9L97.7,206.8L92.9,198L93.5,191.4L100.6,196.4L108.5,195.3L117.7,187.3L120.6,191.1L128.4,190.3L131.9,180.7L144.1,183.7L151.3,179.7L152.6,169.9L152.6,169.9L162.5,173.3L164.4,168.7L180.6,164.6L184.2,172.9L207.7,179.1L205.9,190.8L209.9,200.8L196.8,197.4L183.5,205.7L184.4,217.2L182.4,223.8L187.7,235.5L203.1,246.9L211.4,265.5L229.6,283.4L242.4,283.2L246.4,288.1L241.8,292.5L255.8,300L203.4,300ZM132,300L132.4,299.7L132.5,300L132,300Z" fill="#2c2c34" stroke="#474751" stroke-width="0.8"/><path d="M0,18.8L9,21.1L7,38.3L0,44.8L0,18.8ZM0,49.1L5.1,59.7L0,64.5L0,49.1Z" fill="#2c2c34" stroke="#474751" stroke-width="0.8"/><path d="M207.7,179.1L221.2,180.9L229.5,175.5L243.9,174.9L247,170.9L249.8,171.1L252.9,179.2L239.9,185.5L238.3,195.1L232.6,197.5L232.6,204L226.2,203.6L220.7,199.7L217.6,203.7L206.2,202.9L209.9,200.8L205.9,190.8Z" fill="#2c2c34" stroke="#474751" stroke-width="0.8"/><path d="M351.2,116.2L346.7,122.7L343.4,132.7L339.9,135.2L322.4,127.7L317,129.2L313.1,135L305.5,138.1L303.7,136.5L295.7,140.4L289.2,141.1L287.9,146L274.1,149L268,146.3L259.7,140.1L258.1,131.5L259.4,128.4L261.7,122.9L269,123.3L274.6,120.7L275,118.4L278.2,117.2L279.3,111.6L283,110.4L285.6,105.9L290.4,105.9L291.4,107.4L298.1,104L306.4,112.9L316.1,107.5L323.8,110.1L335.6,106.5Z" fill="#2c2c34" stroke="#474751" stroke-width="0.8"/><path d="M227.6,64.5L235.4,72.9L247.6,75.2L246.6,82.3L255.5,87.6L257.9,80.9L269.2,83.8L270.7,91.8L282.9,93.4L290.4,105.9L285.6,105.9L283,110.4L279.3,111.6L278.2,117.2L275,118.4L274.6,120.7L269,123.3L261.7,122.9L259.4,128.4L251.9,123.7L244.1,125L231.5,117.4L225.7,119.2L216.4,129.4L204.2,121.4L195,110.7L186.7,104.6L184.9,93.9L182,86.3L193.9,80.7L200,74.3L211.8,69.2L215.9,64.3L220.2,67.3Z" fill="#2c2c34" stroke="#474751" stroke-width="0.8"/><path d="M285.6,268L271.1,259.5L264.9,250.1L258.7,245.1L251.2,236.6L247.6,229.5L239.5,218.7L243,209.1L248.9,214.5L252.4,209.6L260.1,209.1L274.2,213L285.5,212.7L293,217.8L298.9,217.7L294.8,227.9L302.7,236.7L300.3,247.3L296.4,248.4L293.4,250.4L288.1,255.7Z" fill="#2c2c34" stroke="#474751" stroke-width="0.8"/><path d="M318.6,300L316.9,293L318.9,285.6L321,285.7L321.8,281.2L331.4,277.8L335.1,277L340.7,275.7L348.3,275.3L348.3,275.3L356.5,282.4L357.6,296.9L354.5,297.7L352.8,300L318.6,300Z" fill="#2c2c34" stroke="#474751" stroke-width="0.8"/><path d="M290.1,193.3L302.6,187.1L312.8,188.1L321.8,197.4L323.6,204.9L333.6,210.3L334.9,219.9L344.4,226.6L349.6,221.4L353.6,224.3L349.8,228.2L352.8,232.2L348.8,237.3L350.2,245.7L358.2,255.4L352,262.4L349.2,269.5L351,272.2L348.3,275.3L340.7,275.7L335.1,277L334.6,275.3L336.5,272.6L338.3,267.2L336,267.4L332.8,263.2L330.1,262.2L328,258.6L324.9,257.2L322.6,254L319.6,255.3L317.4,262.7L313.5,264.4L314.8,262.4L308.5,257.8L303.2,255.4L300.8,252.2L296.4,248.4L300.3,247.3L302.7,236.7L294.8,227.9L298.9,217.7L293,217.8L299.3,209.1L294,202.4Z" fill="#2c2c34" stroke="#474751" stroke-width="0.8"/><path d="M310.4,269.3L306,271.3L304.9,267.1L297.9,278.1L298.9,285.1L295.5,283.4L290.9,276.2L283.8,271.7L285.6,268L288.1,255.7L293.4,250.4L296.4,248.4L300.8,252.2L303.2,255.4L308.5,257.8L314.8,262.4L313.5,264.4Z" fill="#2c2c34" stroke="#474751" stroke-width="0.8"/><path d="M318.9,285.6L317.8,277.6L313.9,275.3L310.4,269.3L313.5,264.4L317.4,262.7L319.6,255.3L322.6,254L324.9,257.2L328,258.6L330.1,262.2L332.8,263.2L336,267.4L338.3,267.2L336.5,272.6L334.6,275.3L335.1,277L331.4,277.8L321.8,281.2L321,285.7Z" fill="#2c2c34" stroke="#474751" stroke-width="0.8"/><path d="M137.6,160.8L138.9,157.9L139.2,156.1L138,155L137.5,154.7L137.9,154.4L139.6,154.7L140.6,154L141.2,153.4L142.7,154L144.8,155.2L145.9,155.9L146.3,156.5L146.5,157L146.4,157.9L146.9,158.2L147.9,158.3L148.6,158.6L148.4,159.7L148.3,160.6L149.2,160.5L150.4,159.8L151.4,158.5L151.9,157.3L152.4,154.3L152.5,154L153.2,154.3L156.1,154.1L157.4,154.7L159.6,154.8L159.6,155.2L160,156L160.9,157.1L161.4,157.7L162.4,157.9L163.9,157.5L164.8,157.1L165.2,157.4L166.6,157.1L167.8,156.3L168.1,155.6L169.4,155.1L171.1,154.1L173.4,153.3L181.1,152.4L181.4,151.7L181.3,150.2L181.5,150L182.5,150.4L184.1,150.7L185.2,151.2L186,152L186.7,152L187.8,151.5L189.3,151.2L190.7,151.9L191.1,152.7L190.9,153.1L190.9,153.7L191.4,154.2L192.5,155.1L194,155.9L194.7,155.8L195,155.1L195.3,153.4L195.4,151.5L195,150.4L194.3,150.2L193.3,150.1L192.8,149.9L193,149.3L193.7,147.8L193.7,145.8L192,143.4L190.6,141.2L190.6,140.5L191.4,139.1L192.8,138.1L195.8,136.3L196.8,136L198,135.7L199.8,135L200.6,134.2L201.2,133.4L202,129.2L202.2,129L202.5,128.7L205.5,130.2L205.8,130L206.4,129.7L207.4,128.6L207.6,127.8L207.6,126.1L207.7,124.6L207.8,124.2L208.3,124.3L209.6,125.1L210.7,126L211.7,128.3L214,128.8L216.9,128.9L217.9,127.9L218.9,127.7L219.9,128L222.2,128.3L222.5,126.5L223.8,124.6L224.4,124L226,124L226.4,122.6L226.8,118.8L227.1,118.3L228.4,118.4L229.6,119.1L229.9,119.7L230.6,119.6L231.4,119.2L232.3,119L233.9,119.4L237.1,121.2L238.8,121.8L239.8,121.7L240.8,121.7L244.6,124.5L247.3,124.9L249.7,124.9L250.5,124L251.5,123.3L252.6,123.4L253.5,123.8L255.4,125L256.2,125.3L257.3,125.5L258.1,125.7L258.9,127.8L259.3,128.3L259.2,128.6L259.1,129.5L258.5,130.7L257.8,132.2L257.8,133.6L259.6,138.2L261.2,141.1L261.5,142.1L262.5,142.9L261.5,144L261.3,145.5L260.7,146.2L260.6,147.1L260.8,147.9L260.8,148.9L261.1,150.2L259.6,150.5L257.8,150.5L257.2,150.6L256.5,150.9L255.9,150.7L254.3,149.5L253.4,149.2L252.7,149.3L252.2,149.8L251.3,150.5L250.6,151L250.8,151.5L254.2,152.6L254.8,154.4L254.1,155.8L253.9,156.6L253.1,157.1L252.1,157.6L250.9,157.7L250.8,158.5L251.2,160.8L250.9,161.3L250.5,162L250.9,163.9L251.6,164L251.8,164.4L251.6,165.2L251.5,165.9L251.2,166.8L251.1,167.2L250.6,167.4L249.1,167.3L247.8,168L245.2,170.6L244.3,171.1L243.3,172.1L243.3,174.4L243.2,174.6L243,175.1L239.8,174.3L239.7,174.3L237.7,174.6L236.2,175.6L234.5,176.2L230.8,175.9L227.3,176.3L226.4,176.6L225.5,176.8L224.7,177.4L224.1,178.3L223.3,179.3L222,180.2L220.7,180.9L220.4,181.4L219.9,181.7L219.1,181.3L218.5,181.3L217.8,181L215.3,180.7L212.5,180.2L211.2,179.7L209.7,179.4L208.1,179L206.7,179L206,178.8L202.5,178L200.2,177.9L197.2,177.6L191.3,176.3L189.6,175.8L187.9,175.6L186,175.2L184.5,174.5L183.5,173.1L182.5,171.3L180.6,168.9L180.2,167.7L180.8,166.7L181.4,165.9L181.4,165.5L180.9,165.4L177.6,166.4L174.4,167.7L173.1,167.7L172,167.4L170.4,167.4L168.8,167.7L165.7,168L163.9,168.9L162.8,170.7L162.1,172.2L161.6,172.7L160.5,172.9L158.9,172.7L157.7,172.3L156.6,171L154.8,170.9L153.1,170.8L152.7,170.6L152.8,169.8L152.1,168.2L151,167.7L148.2,170.7L147.5,170.9L145.2,170.1L143.3,168.9L143.1,168L142.8,167.2L141.1,166.4L139.1,166L138.4,166L138.7,165.5L138.9,164.8L138.7,164.2L138.3,163.6L138,162.9L138,162.2L137.8,161.7L137.7,161.2Z" fill="#b8e653" stroke="#0c0e06" stroke-width="1"/></svg>
