<svg xmlns="http://www.w3.org/2000/svg" viewBox="0 0 300 300"><path fill="#e8e8ea" d="M20.1,172.5L22.9,166.4L23.4,162.7L21,160.4L20,159.8L20.9,159.3L24.3,159.7L26.5,158.4L27.7,157.1L30.8,158.4L35.2,160.7L37.4,162.3L38.3,163.5L38.8,164.6L38.5,166.3L39.5,167L41.6,167.3L43.1,167.8L42.6,170.2L42.5,172.1L44.4,171.8L46.9,170.4L48.8,167.7L50,165.1L50.9,158.9L51.2,158.4L52.7,158.9L58.7,158.6L61.5,159.8L66,160L65.9,160.9L66.8,162.5L68.7,164.7L69.7,166.1L71.8,166.3L75,165.6L76.8,164.8L77.6,165.3L80.5,164.8L83.1,163L83.7,161.6L86.4,160.7L89.8,158.5L94.8,156.8L110.7,155L111.3,153.5L111.1,150.4L111.6,149.9L113.5,150.7L116.9,151.4L119.3,152.6L120.9,154.1L122.4,154.1L124.7,153.1L127.8,152.4L130.7,153.9L131.6,155.6L131.1,156.4L131.1,157.8L132.1,158.8L134.4,160.7L137.5,162.2L139.1,162.1L139.6,160.6L140.2,157L140.4,153.1L139.7,150.9L138.1,150.4L136.1,150.2L135,149.8L135.4,148.5L137,145.4L137,141.2L133.4,136.4L130.4,131.8L130.4,130.2L132.2,127.4L135,125.2L141.3,121.5L143.4,120.8L145.8,120.2L149.5,118.7L151.4,117.1L152.5,115.5L154.2,106.7L154.7,106.3L155.2,105.8L161.5,108.8L162.2,108.3L163.3,107.8L165.3,105.5L165.7,103.8L165.7,100.4L166,97.2L166.3,96.3L167.3,96.6L170,98.2L172.2,100.1L174.3,104.8L179.1,105.9L185.1,106.1L187.3,104.1L189.3,103.5L191.5,104.1L196.2,104.9L196.8,101.2L199.5,97.2L200.7,95.9L204.1,96L205,93.1L205.7,85L206.5,84.1L209,84.3L211.5,85.7L212.2,87L213.6,86.8L215.3,86L217.3,85.5L220.5,86.4L227.2,90L230.7,91.4L232.9,91.1L234.8,91.2L242.8,96.9L248.3,97.7L253.4,97.7L255,96L257.2,94.5L259.4,94.7L261.3,95.4L265.1,98L266.9,98.6L269.2,98.9L270.9,99.5L272.5,103.8L273.4,105L273.1,105.5L273,107.4L271.7,109.9L270.3,113L270.3,115.8L274,125.5L277.3,131.4L277.9,133.6L280,135.3L277.9,137.5L277.5,140.7L276.3,142.1L275.9,143.9L276.4,145.5L276.4,147.7L277.2,150.5L274,151.1L270.3,151L269,151.2L267.6,152L266.4,151.5L262.9,148.9L261,148.3L259.6,148.4L258.6,149.6L256.8,151.1L255.2,152.1L255.6,153.1L262.7,155.5L263.9,159.2L262.6,162.1L262.1,163.6L260.4,164.8L258.4,165.8L255.9,166.1L255.7,167.7L256.6,172.4L255.8,173.4L255.1,174.9L255.8,178.8L257.3,179.1L257.7,180L257.4,181.5L257,183.2L256.6,185L256.3,185.8L255.3,186.2L252.1,185.9L249.4,187.5L244,192.9L242.1,193.8L240,196L240.1,200.8L239.9,201.2L239.4,202.1L232.9,200.5L232.6,200.5L228.3,201.1L225.4,203.3L221.7,204.5L214.1,203.9L206.7,204.7L205,205.3L203,205.8L201.3,207L200.2,208.8L198.5,211L195.8,212.8L193,214.2L192.4,215.3L191.4,215.9L189.8,215L188.5,215.1L187,214.5L181.8,213.9L176,212.9L173.3,211.9L170.3,211.1L166.9,210.4L163.9,210.2L162.4,210L155.3,208.2L150.5,208.1L144.2,207.4L132,204.7L128.3,203.7L124.8,203.3L120.8,202.4L117.7,200.9L115.6,198.1L113.5,194.3L109.7,189.3L108.9,186.8L110.1,184.6L111.3,183.1L111.2,182.3L110.2,182L103.4,184.1L96.7,186.8L94.1,186.9L91.7,186.3L88.4,186.2L85.1,186.9L78.7,187.3L74.9,189.2L72.5,193.1L71.2,196.3L70.1,197.2L67.9,197.6L64.4,197.3L62.1,196.4L59.8,193.7L56,193.4L52.5,193.3L51.7,192.8L51.8,191.2L50.4,187.9L48.1,186.8L42.3,193L40.7,193.5L36.1,191.8L32,189.2L31.7,187.3L30.9,185.7L27.5,184.2L23.3,183.3L22,183.3L22.5,182.3L22.9,180.7L22.6,179.5L21.6,178.2L21.1,176.8L21,175.4L20.6,174.4L20.5,173.3Z"/></svg>
