<svg xmlns="http://www.w3.org/2000/svg" viewBox="0 0 400 300"><path d="M338.3,122.5L339,121.9L340.1,122.9L339.6,124.6L337.7,125L336,124.6L335.7,123.2L336.9,122.1ZM344.1,117.8L344.7,117.7L344.3,119.2L344.1,119.4L342.1,120.2L340.1,120.9L339.7,119.7L341.3,119L342.3,118.8L344.1,117.8Z" fill="#2c2c34" stroke="#474751" stroke-width="0.8"/><path d="M223.5,75.5L228.9,77.7L234.6,79.4L236.7,81L238.4,82.6L238.9,84.4L244,86.3L244.8,88L242,88.3L242.6,90.4L245.4,92.4L247.4,95.8L249.2,95.7L249.1,97L251.4,97.6L250.5,98.2L253.8,99.5L253.5,100.4L251.4,100.6L250.6,99.8L248,99.5L244.9,99L242.5,97L240.7,95.3L239.1,92.5L235.1,91.2L232.5,92L230.6,93.1L231,95.4L228.5,96.5L226.8,95.9L223.6,95.8L223.6,85.6ZM259.5,78.8L260.7,79.8L261,81.4L260.1,82.2L259.5,80.4L258.8,79.2L257.4,78.2L255.6,76.9L253.4,76L254.2,75.2L255.9,76.1L256.9,76.8L258.2,77.5ZM255.3,85.6L253.7,86.3L252.1,87.1L250.4,87.1L247.9,86.2L246.1,85.3L246.4,84.3L249.2,84.8L250.8,84.5L251.3,83.1L251.8,83L252.1,84.6L253.8,84.4L254.7,83.3L256.4,82.2L256.1,80.4L257.9,80.3L258.5,80.8L258.5,82.6L257.5,84.5L255.8,84.7ZM266,84L267,84.7L268.5,86.7L269.9,87.8L269.5,88.6L268.6,88.9L267.3,87.7L265.9,85.8L265.3,83.4L265.7,83.1Z" fill="#2c2c34" stroke="#474751" stroke-width="0.8"/><path d="M223.5,75.5L223.6,85.6L223.6,95.8L220.9,93.2L217.7,92.6L216.9,93.5L213,93.6L214.3,91.1L216.3,90.2L215.5,86.8L214,84.2L208,81.6L205.5,81.3L200.8,78.4L199.9,79.9L198.7,80.2L198,79.1L198,77.7L195.6,76.2L199,75.1L201.2,75.2L200.9,74.3L196.4,74.3L195.2,72.5L192.4,71.9L191.1,70.4L195.3,69.6L196.8,68.6L201.8,69.9L202.3,71.1L203.2,76.1L206.4,77.9L208.9,74.6L212.5,72.8L215.2,72.8L217.9,73.8L220.2,74.9ZM173.9,95.1L174.3,95.7L174.3,96.7L172.3,99L169.6,99.7L169.3,99.3L169.6,98.3L170.9,96.3ZM202.5,88.9L202.2,86.5L202.8,85.4L203.4,84.4L204.1,85.3L204.1,86.7ZM152,54.7L150.3,57.5L152.5,60.4L152,61.8L155.5,64.7L151.8,65.1L150.8,67.2L150.9,70L147.9,72.1L147.9,75.2L146.7,79.9L146.2,78.8L142.7,80.2L141.5,78.3L139.3,78.1L137.7,77.1L134.1,78.3L132.9,76.8L130.9,76.9L128.4,76.6L127.9,72.4L126.3,71.6L124.8,68.9L124.4,66.2L124.8,63.3L126.6,61.3L127.1,63.4L129.3,65.1L131.2,64.5L133.2,64.7L135,63.1L136.5,62.9L139.4,63.7L141.9,63.1L143.5,58.8L144.7,57.7L145.8,54.2L149.3,54.2ZM187.6,76.2L190.9,77.1L192.1,79.4L189.5,78.2L186.9,77.9L185.1,78.1L183,78L183.7,76.3ZM179.8,79.2L177.7,78.7L177.1,77.3L180.2,77.2L181,78.2ZM183.1,60.8L183.3,62.5L185.1,62.7L185.4,64L185.3,66.7L183.7,66.4L183.2,68.3L184.5,69.9L183.6,70.3L182.4,68.3L181.5,64.4L182.1,61.9ZM167.6,64.8L171.2,64.7L174.2,62.4L174.8,63.1L172.3,66.2L170,66.8L167,66.2L161.8,66.3L159.1,66.8L158.7,69.1L161.5,71.9L163.1,70.4L168.9,69.4L168.7,70.8L167.3,70.4L166,72.2L163.2,73.4L166.2,77.4L165.6,78.4L168.4,82L168.4,84L166.7,84.9L165.5,83.9L167,81.3L163.9,82.5L163.2,81.7L163.6,80.5L161.4,78.6L161.6,75.6L159.5,76.6L159.8,80.2L159.9,84.6L157.9,85.1L156.6,84.2L157.5,81.3L157,78.3L155.7,78.3L154.8,76.2L156,74.1L156.5,71.7L158,67L158.7,65.7L161.3,63.4L163.7,64.4ZM159.5,99.4L155.4,97.2L158.3,96.6L159.9,97.5L161,98.5L160.8,99.3ZM162.7,94L164.8,93.7L167.6,92.6L167.1,94.3L162.5,95.2L158.3,94.8L158.3,93.7L160.8,93ZM153.2,93.4L155.1,93.2L155.9,94.5L152.3,95.1L150.2,95.6L148.5,95.5L149.6,93.7L151.3,93.7L152.1,92.6ZM123,87.4L123.4,88.5L129.3,88.8L130,87.5L135.7,89L136.9,91L141.5,91.6L145.3,93.5L141.8,94.7L138.4,93.4L135.6,93.5L132.4,93.3L129.5,92.7L125.9,91.5L123.6,91.2L122.3,91.6L116.7,90.3L116.2,89L113.3,88.7L115.5,85.8L119.2,85.9L121.7,87.2ZM110.3,70.8L110.8,73L111.9,74.7L114.1,75L115.6,77L114.9,80.8L114.7,85.6L111.3,85.7L108.7,83.1L104.7,80.6L103.4,78.7L101.1,76.2L99.5,73.8L97.2,69.5L94.5,66.9L93.6,64.3L92.4,61.9L89.6,59.9L88,57.3L85.7,55.5L82.5,52.1L82.2,50.5L84.2,50.7L89,51.3L91.7,54.3L94.1,56.4L95.8,57.7L98.7,61L101.9,61.1L104.5,63.2L106.3,65.8L108.6,67.2L107.4,69.7L109.1,70.8Z" fill="#2c2c34" stroke="#474751" stroke-width="0.8"/><path d="M0.7,240L2.7,241.5L5.6,242.1L5.7,243L4.9,245.1L0.1,245.4L0,242.9L0.5,241Z" fill="#2c2c34" stroke="#474751" stroke-width="0.8"/><path d="M173.9,95.1L174.3,94.4L177,93.7L179.1,93.6L180.1,93.2L181.3,93.6L180.1,94.4L176.9,95.8L174.3,96.7L174.3,95.7Z" fill="#2c2c34" stroke="#474751" stroke-width="0.8"/><path d="M304.5,117.3L306.5,119.1L305.5,119.5L304.4,118.1ZM303.2,116.6L302.8,115.7L302.7,113.2L304.2,114.2L304.7,116.8L303.9,116.4Z" fill="#2c2c34" stroke="#474751" stroke-width="0.8"/><path d="M104.7,29.5L104,25.7L106,23.1L110,22.4L112.9,22.9L115.4,24.2L116.8,22L119.6,23.1L120.3,25.3L119.9,29.1L114.7,31.5L116.1,33.4L112.8,33.6L110.1,34.9L107.5,34.4L106.3,32.8Z" fill="#2c2c34" stroke="#474751" stroke-width="0.8"/><path d="M112.9,22.9L110,22.4L106,23.1L104,25.7L104.7,29.5L102,28.1L99.3,28.1L99.8,25.6L97,25.7L96.8,29.2L95.1,33.8L94.1,36.5L94.3,38.8L96.4,38.9L97.6,41.8L98.2,44.5L99.9,46.2L101.8,46.6L103.4,48.2L102.4,49.5L100.3,49.9L100.1,48.3L97.5,46.9L97,47.5L95.8,46.3L95.3,44.7L93.6,43L92.1,41.5L91.6,43.3L91,41.6L91.4,39.6L92.3,36.6L93.8,33.4L95.5,30.5L94.3,27.6L94.3,26.1L93.9,24.3L91.9,21.8L91.2,20.2L92.2,19.6L93.3,16.8L92.1,14.7L90.1,12.3L88.6,9.5L89.9,8.9L91.3,5.3L93.5,5.2L95.3,3.8L97.1,3L98.4,4L98.6,6L100.7,6.1L99.9,9.6L100,12.5L103.3,10.6L104.2,11.1L106,11L106.6,9.9L109,10.1L111.3,12.8L111.5,16L114,18.8L113.9,21.5Z" fill="#2c2c34" stroke="#474751" stroke-width="0.8"/><path d="M100.5,0L100.7,0.4L102.3,0.5L102.3,0L105.8,0L105.8,0L106.6,1.8L110.5,1.9L111.7,4.7L109.7,5.6L108.8,6.8L112.5,8.7L115.1,12.6L117,15.4L119.3,17.7L120.1,19.9L119.6,23.1L119.6,23.1L116.8,22L115.4,24.2L112.9,22.9L113.9,21.5L114,18.8L111.5,16L111.3,12.8L109,10.1L106.6,9.9L106,11L104.2,11.1L103.3,10.6L100,12.5L99.9,9.6L100.7,6.1L98.6,6L98.4,4L97.1,3L97.8,1.8L99.9,0L100.5,0Z" fill="#2c2c34" stroke="#474751" stroke-width="0.8"/><path d="M99.9,0L97.8,1.8L97.1,3L97.1,3L95.3,3.8L93.5,5.2L91.3,5.3L89.9,8.9L88.6,9.5L90.1,12.3L92.1,14.7L93.3,16.8L92.2,19.6L91.2,20.2L91.9,21.8L93.9,24.3L94.3,26.1L94.3,27.6L95.5,30.5L93.8,33.4L92.3,36.6L92,34.3L92.9,31.9L91.9,30L92.1,26.6L90.9,24.9L89.9,21.1L89.3,17.1L88,14.4L85.9,16L82.4,18.3L80.7,18L78.8,17.3L79.8,13.3L79.2,10.2L76.8,6.4L77.2,5.3L75.3,4.8L73.1,2.2L73,0L99.9,0Z" fill="#2c2c34" stroke="#474751" stroke-width="0.8"/><path d="M120.5,0L117.5,2.1L114.9,5.2L114.3,7.5L116.6,10.9L119.5,15.1L122.3,17.1L124.2,19.7L125.6,25.6L125.2,31.2L122.6,33.2L119.1,35.3L116.5,37.9L112.7,40.8L111.6,38.8L112.4,36.7L110.1,34.9L110.1,34.9L112.8,33.6L116.1,33.4L114.7,31.5L119.9,29.1L120.3,25.3L119.6,23.1L120.1,19.9L119.3,17.7L117,15.4L115.1,12.6L112.5,8.7L108.8,6.8L109.7,5.6L111.7,4.7L110.5,1.9L106.6,1.8L105.8,0L120.5,0Z" fill="#2c2c34" stroke="#474751" stroke-width="0.8"/><path d="M56.5,0L56.7,1.9L55,3.9L50.6,6.1L47.1,9.9L44.8,12L41.7,14.1L41.7,15.6L40.1,16.4L37.4,17.5L35.9,17.7L35,20.1L35.6,24.3L35.8,26.9L34.5,29.9L34.5,35.3L32.9,35.5L31.5,37.8L32.4,38.9L29.6,39.8L28.5,41.9L27.3,42.8L24.4,39.9L23,35.5L21.8,32.3L20.7,30.8L19,27.8L18.3,23.8L17.7,21.8L14.9,17.4L13.6,11.1L12.7,7L12.7,3L12.1,0L56.5,0ZM11.9,0L7.6,1.9L5.4,1.5L4,0L11.9,0Z" fill="#2c2c34" stroke="#474751" stroke-width="0.8"/><path d="M73,0L73.1,2.2L72.3,0.4L72.2,0L73,0Z" fill="#2c2c34" stroke="#474751" stroke-width="0.8"/><path d="M300.1,134.2L302.6,136.2L304.2,137.8L303.1,138.6L301.4,137.7L299.2,136.2L297.2,134.4L295.1,132.1L294.7,131L296,131L297.8,132.1L299.1,133.3Z" fill="#2c2c34" stroke="#474751" stroke-width="0.8"/><path d="M288.8,100.1L289.7,101.2L287.5,101.1L286.3,99.2L288.2,100ZM287.4,97.3L287,97.9L284.7,95.2L284,93.3L285.1,93.3L286.2,95.8ZM284.9,98.2L283.7,98.2L281.8,97.9L281.1,97.4L281.3,96.2L283.4,96.7L284.4,97.3ZM281.1,92.4L281.9,93.4L282,94L279.6,92.7L277.9,91.5L276.7,90.5L277.2,90.2L278.6,90.9ZM273.4,89.3L274.6,90.3L274,90.5L272.7,89.7L271.4,88.5L271.5,87.9Z" fill="#2c2c34" stroke="#474751" stroke-width="0.8"/><path d="M334.4,202.9L333.3,205.1L331.7,207.9L329.4,209.5L328.8,208.5L327.5,207.9L329.3,204.5L328.3,202.3L325,200.7L325.1,199.2L327.3,197.8L327.8,194.8L327.7,192.3L326.4,189.7L326.5,189L325,187.4L322.6,184L321.3,181.4L322.5,181.1L324.1,183.2L326.5,184.1L327.4,187.5L329.7,191.6L329.7,189L331.1,190L331.6,192.9L334.1,194.2L336.2,194.5L337.9,193L339.5,193.5L338.7,197L337.8,199.3L335.4,199.2L334.6,200.4L334.9,202.1ZM312.1,217.4L314.8,215.2L316.6,213L318,209.9L319.2,208.8L319.6,206.5L321.8,204.6L322.5,206.4L323.2,208.1L325.4,206.4L326.3,208.1L326.3,209.9L325.1,211.8L323.1,214.9L321.5,216.6L322.7,218.7L320.3,218.7L317.6,220.3L316.8,223.2L315.1,227.6L312.6,229.6L311.1,230.9L308.2,230.8L306.2,229.3L302.9,229L302.4,227.4L304,224.1L307.9,219.8L309.9,219Z" fill="#2c2c34" stroke="#474751" stroke-width="0.8"/><path d="M40.4,44.2L40,47.4L38.7,48.3L36,49L34.5,46.5L34,42.1L35.4,37L37.5,38.7L38.9,40.9Z" fill="#2c2c34" stroke="#474751" stroke-width="0.8"/><path d="M126,10.3L123.5,9.3L123.4,6.4L124.9,5L128.3,4L130.1,4.1L130.8,5.4L129.4,6.8L128.7,8.7ZM130,0L129,3.2L127.3,3.4L126.5,1L127.1,0L130,0ZM102.3,0L102.3,0.5L100.7,0.4L100.5,0L102.3,0Z" fill="#2c2c34" stroke="#474751" stroke-width="0.8"/><path d="M161.2,27.9L159.6,25.5L162.2,25.6L163.3,26.7L162.5,29.5ZM166.6,36.5L167.4,35.6L167.7,33.6L169.4,33.5L168.9,35.6L171.2,32.5L170.9,35.5L169.8,36.6L168.8,38.6L167.8,39.5L165.9,37.3ZM178.3,41.4L178.6,43.5L178.8,45.2L177.7,48.1L176.6,44.9L175.2,46.5L176.1,48.8L175.3,50.2L171.6,48.4L170.8,46.2L171.7,44.7L169.7,43.2L168.8,44.5L167.3,44.4L165,46.1L164.5,45.2L165.7,42.6L167.7,41.7L169.4,40.5L170.4,41.9L172.8,41.1L173.3,39.7L175.5,39.6L175.3,37.2L177.8,38.7L178.1,40.2ZM154,38.6L149.8,41.5L151.4,39.3L153.6,37.4L155.4,35.2L157.1,32.1L157.6,34.7L155.6,36.4ZM165.8,10.2L165.3,11.5L166.3,13.8L165.5,16.5L163.7,17.6L163.2,20.2L163.9,22.7L165.6,23.1L166.9,22.7L170.8,24.5L170.5,26.2L171.5,27L171.2,28.4L168.8,26.9L167.6,25.2L166.8,26.4L164.9,24.5L162.1,24.9L160.5,24.2L160.7,22.9L161.6,22.1L160.7,21.4L160.3,22.5L158.8,20.7L158.3,19.3L158.2,16.2L159.5,17.3L159.8,12.2L160.8,9.3L162.7,9.3L164.6,10.2L165.5,9.4ZM164.9,32L164.4,30.5L166.2,31.4L168.2,31.4L168.2,32.8L166.7,34.1L164.8,35L164.7,33.6ZM175.6,29.6L176.5,33.1L174.1,32.3L174.1,33.4L174.9,35.3L173.4,36L173.3,33.8L172.4,33.6L171.9,31.7L173.7,32L173.7,30.8L171.8,28.4L174.7,28.4Z" fill="#2c2c34" stroke="#474751" stroke-width="0.8"/><path d="M97,47.5L97.5,46.9L100.1,48.3L100.3,49.9L102.4,49.5L103.4,48.2L104.1,48.5L105.9,50.4L107.2,52.5L107.4,54.6L107,56L107.3,57L107.6,58.9L108.7,59.7L109.9,62.5L109.8,63.5L107.6,63.7L104.7,61.4L101,59L100.7,57.4L98.9,55.3L98.5,52.7L97.4,51L97.7,48.8ZM152,54.7L149.3,54.2L145.8,54.2L144.7,57.7L143.5,58.8L141.9,63.1L139.4,63.7L136.5,62.9L135,63.1L133.2,64.7L131.2,64.5L129.3,65.1L127.1,63.4L126.6,61.3L128.9,62.3L131.3,61.8L131.9,59.2L133.2,58.6L136.9,57.9L139.1,55.4L140.7,53.5L142.1,55.1L142.7,54L144.2,54.1L144.4,52.2L144.5,50.6L146.9,48.5L148.5,46L149.7,46L151.3,47.6L151.4,49L153.5,49.8L156,50.7L155.8,52L153.8,52.1L154.3,53.6Z" fill="#2c2c34" stroke="#474751" stroke-width="0.8"/><path d="M144.5,50.6L144.4,52.2L144.2,54.1L142.7,54L142.1,55.1L140.7,53.5L141.9,52.3Z" fill="#2c2c34" stroke="#474751" stroke-width="0.8"/><path d="M230.2,104.7L230.2,105.1L230,105.4L230,105.6L230,105.8L230.3,106L230.5,106.1L230.6,106.4L230.9,106.9L230.9,107.2L231.1,107.6L231.3,108.3L231.3,109L231.5,109.4L231.4,110.4L231.5,110.8L231.7,111.1L231.9,111.7L232,112.3L232.2,112.5L232.7,112.7L233.1,112.5L233.4,112.2L233.8,112.1L234.2,112L234.6,112.3L234.8,112.8L235.6,113.4L236.1,113.7L236.4,113.9L236.8,114.2L236.7,114.5L236.6,114.7L236.7,115.1L236.8,115.5L236.7,115.9L236.9,116.7L237,117.2L237.3,117.8L237.3,118.4L237.2,118.6L237.2,118.9L237.4,119.3L237.6,119.6L237.8,120L238.2,120.5L238.5,120.5L238.7,120.6L238.6,121.1L239.1,122.1L239.4,122.9L239.2,124L239,124.7L239.1,125L239.7,125.7L240,125.9L239.9,126.3L239.9,126.8L240.1,127.3L240.4,127.6L240.8,127.8L241.1,128L241.5,128.1L242.1,128.2L242.3,128.4L242.5,128.6L242.9,128.7L243.1,128.7L243.3,128.6L243.5,128.7L243.6,128.9L243.9,129.4L244.3,129.9L244.7,129.9L244.9,130.2L245.1,130.3L245.4,130.3L245.7,130.5L246.3,130.9L246.8,131L247,131.1L247.5,131.6L247.7,131.8L247.9,132.2L247.6,132.2L247.4,132.2L247.3,132.5L247.6,133L248,133.4L248.4,133.8L248.9,134.3L249,134.8L249.1,134.9L249.2,135.5L249.6,135.8L249.7,136.5L249.9,137.3L250.1,138.1L250.2,138.3L250.4,138.7L250.6,138.7L250.8,138.5L251.1,138.9L251.2,139.1L251.3,139L251.1,138.3L251.3,137.9L251.4,137.8L251.6,137.8L251.8,138.1L252,138.5L252.6,138.8L253,139.1L253.1,139.1L253.1,138.9L253.1,138.5L253.3,138.5L253.4,138.6L253.7,139.2L253.7,140.3L253.7,141.2L253.9,142.1L254.2,142.4L254.4,142.6L254.7,142.9L254.9,143.2L255.1,143.4L256,144L256.2,144.1L256.5,144.1L257,144.4L257.2,144.6L257.7,145.6L257.9,146L258.4,146.3L258.6,146.4L258.9,146.7L259,147L259.1,147.2L259.3,147.6L259.5,148.1L260,148.3L260.3,148.8L260.4,149.7L260.6,150.2L260.7,150.3L261,150.5L261.1,150.7L260.9,151.8L261.1,154.2L261,154.9L261.2,155.6L261.8,156.9L261.9,157.4L262,157.9L262.4,158.6L262.4,159.6L262.5,160.1L262.5,160.7L262,161.4L261.7,162.3L261.7,163L261.4,164.4L261.3,164.8L261.2,165.4L260.7,166.8L260.7,167.4L260.7,168.1L260.7,168.7L260.5,169.1L260.4,170L259.9,171.2L259.2,172.2L259.2,172.9L259.1,173.2L259,173.6L258.5,174.1L258.3,174.2L258.2,174.5L257.9,174.5L257.9,174.6L258.1,174.7L258,174.8L257.4,175L256.9,175.3L256.5,176L256.3,176.4L256.1,176.8L255.9,177L255.8,177.1L255.8,177.6L255.5,177.7L255.3,177.8L255.4,178.3L255.3,178.8L255.3,179.1L255.2,179.3L255,179.3L254.9,179.3L254.8,179.4L255,179.4L255.1,179.5L254.7,180L254.3,180.5L254.2,180.8L254,181.3L253.9,182.2L253.7,182.7L253.8,183.1L253.8,183.2L253.7,183.2L253.7,183.2L253.5,183.3L253.4,183.4L253.5,183.6L253.6,183.6L253.5,183.7L253.5,183.8L253.3,183.8L253.1,183.9L252.5,185.3L252.2,185.7L251.9,186.3L251.8,186.8L251.7,187.4L251.6,188.4L251.5,189L251.3,189.7L251.2,190.2L251.2,191.1L251.3,191.8L251.2,192.1L251.2,192.5L251.1,192.8L250.7,192.9L250.4,193.2L250,193.6L249.7,193.8L249.2,193.9L248.1,193.8L246,194L245.5,194.1L244.8,194.4L244,194.9L243.3,195.5L241.6,197.3L240.3,197.5L240.1,197.5L239.9,197.4L239.6,197.5L239.6,197.8L239.8,198L240,198.2L240.3,197.9L240.4,198L240.4,198.5L240.5,198.9L240.4,199.1L240.2,199.2L240,199.1L240,198.9L239.7,198.5L239.5,198.1L239.2,198L239,198.1L238.8,198.2L238.5,197.7L238.3,197.3L238,197.3L237.7,197.3L237.5,197.1L237.1,196.8L237.2,196.6L237.3,196.3L237.5,196.2L237.5,195.9L237.3,195.6L237,195.6L236.8,195.6L236.6,195.8L236.5,196.2L235.7,196.6L235.4,196.4L235,196L235.2,196L235.6,196L235.9,195.7L236.1,195.5L236.2,195L236,194.7L235.8,194.5L235.5,194.3L234.4,195L234.2,195.1L234,195.2L234.4,195.3L234.6,195.3L234.8,195.5L234.5,195.8L234.2,195.9L233.8,196L233.1,196.5L232.2,197.4L231.8,197.7L231.3,197.9L230.7,197.7L230.4,197.6L229.9,197.2L229.2,197L228.5,196.5L228,196.2L227.7,196.1L227.2,196.2L226.4,195.8L225.7,195.7L225.3,196.2L225,196.2L224.8,196.1L224.2,195.4L223.5,195L222.3,194.8L221.6,194.3L221.1,193.3L220,192.1L219.7,191.7L219.6,191.3L219.6,191L219.7,190.4L219.9,189.8L220,189.5L219.6,188.4L219,187.3L218.8,187L218.1,186.3L217.4,185.8L217.3,185.5L217.2,185.3L217.5,185.4L217.7,185.2L217.9,185.1L218,185.4L218.2,185.5L218.2,185L218.3,184.7L218.2,184.6L218.2,184.6L217.9,184.5L217.6,184.6L217.4,184.8L217.1,185L216.9,185.2L216.6,185.2L216.5,185.2L215.8,185.6L215.4,185.6L214.8,185.5L215,185L215.3,184.7L215.5,184.4L215.8,183.2L215.7,182.2L215.6,181.8L215,181L214.8,180.5L214.5,180L214.4,180.3L214.3,180.6L214,181.1L213.8,182.1L213.3,183.7L212.9,183.7L212.5,183.6L212,183.8L211.6,184L211.2,184L211,184.1L210.8,184L211.2,182.8L211.5,182.9L211.9,182.8L212.1,182.8L212.3,182.8L212.5,182.2L212.7,181.6L212.6,181.2L212.5,180.8L212.6,180.3L212.7,180L213.1,178.9L213.6,178.3L214,177.8L214,177.4L213.8,176.8L213.8,176.4L214,176.3L214.2,176L214,174.8L213.8,174.5L213.6,174.1L213.6,174.6L213.6,175L213.2,175.6L212.8,176L212.5,176.4L212.2,177.3L211.9,178L211.5,178.3L211.2,178.3L210.9,178.5L210.5,178.7L210,179L209.7,179.3L209.4,179.5L208.4,181L208,181.5L207.9,181.7L207.7,181.9L207.7,182.1L207.9,182.3L208,182.9L207.9,183.1L207.8,183L207.4,182.6L207.2,182.8L207,182.9L206.4,182.2L206.2,182.1L205.9,181.8L205.7,181.6L205.5,181.5L205.3,181.6L205.3,181.4L205.5,181.2L205.6,181.2L205.8,181.4L206.1,181.6L206.3,181.6L206.3,181.6L206.1,180.8L205.9,180.1L205.8,179.9L205.6,179.2L205.5,179L205.1,178.6L204.6,178L204.5,177.3L204.3,176.9L204.1,176.6L203.7,176.4L202.8,176.3L202.4,175.6L202.2,174.8L202.3,174.7L202.6,174.7L202.6,174.4L202.6,174L201.6,173.5L201.2,173L200.8,172.8L200.5,172.7L200,172.7L199.4,172.7L198,171.8L197.7,171.8L196.7,172.1L196.3,172L194.8,170.9L193.8,170.4L193.5,170.3L193,170.2L192.7,170.3L192.4,170.4L191.9,170.6L189.9,170.5L188.2,170.7L187,170.8L186.2,170.9L185,171.6L183.5,172.3L182.3,172.6L181.2,173L180.5,173.1L179.5,173.1L177.5,172.9L176.9,173.1L175.8,173.9L175.5,174L174.9,174.3L173.3,175.2L172.6,175.5L172.1,175.5L171.7,175.7L171.3,176.2L170.8,177.3L170.5,177.9L169.9,178.8L169.4,179.1L169,179L168.5,179.3L168.1,179L167.7,179L167.2,179L165.2,179.4L164.9,178.9L164.6,178.9L163.9,178.9L162.9,178.7L161.1,178.9L160.2,179.1L159.9,179.2L159.2,179.1L158.1,179.3L157.7,179.5L157.4,179.8L156.9,180.8L156.3,181.1L155.7,181.1L155.2,181.2L154,182.1L152.8,183.1L152.4,183.2L152,183.3L151.4,183.4L151.1,183.5L149.7,183.3L148.9,183.2L147.8,183.1L146.9,182.6L146.2,182.4L145.4,181.4L144.9,181L144,180.5L143.7,180.5L143.5,180.7L143.1,180.3L143.1,179.9L143,179.6L143,178.7L143.1,177.6L143.4,177.8L143.7,178.1L144.2,178L144.7,177.6L145,177.1L145.2,176.4L145.2,175.7L145,174.5L145.1,174.2L145.3,174.1L145.4,173.5L145.4,171.6L145.3,170.9L144.5,169.5L144,168.2L143.7,167.7L143.4,166.8L143.1,165.6L143,164.9L142.9,163.8L143,163.2L143,162.8L142.7,161.8L142,160.8L141.9,160.4L141.9,160.1L141.7,159.6L141.1,158.8L140.5,158L140.4,157.6L140.3,156.1L140.1,155.4L139.1,153.7L138,152.2L137.6,151.6L137.5,151.4L137.6,151.4L137.7,151.5L137.9,151.6L137.9,151.6L138,151.5L138,151.2L138,151.1L138.1,151.1L138.3,151.5L138.6,152.3L138.7,152.7L139.2,152.8L139.3,152.7L139.5,152.5L139.6,151.9L139.3,151.7L139.1,151.6L138.8,151.1L138.5,150.4L138.2,149.8L138.2,149.6L138.3,149.4L138.6,149.5L138.9,149.9L139.1,150.2L139.1,150.8L139,151L139.1,151.1L139.2,151.2L139.3,151.3L139.4,151.2L139.6,150.8L139.6,150.9L139.8,151.7L140,151.9L140.3,152.1L140.6,152L140.7,151.8L140.7,151.2L140.7,150.7L140.7,150.3L140,149.2L139.4,147.9L139,147.3L138.7,146.3L138.5,146L138.2,145.4L138.2,144.8L138.2,144.4L138.4,143.5L138.6,143.1L139.3,142L139.3,141.5L139.3,141.2L139.4,140.7L139.4,140.3L139.3,140L139,139.4L139.4,138.4L139.9,137L140.1,136.9L140.4,136.7L140.5,136.9L140.3,137.9L140.5,138.3L140.5,138.9L140.7,138.8L141,138.7L141.2,138.4L141.3,138.1L141.9,137.1L142.2,136.7L142.7,136.4L143.6,136L144.5,135.6L145,135.1L145.5,134.7L145.9,134.3L146.2,134L148.1,133L148.4,132.8L148.8,132.8L149.3,132.8L149.7,132.7L150.2,133L150.6,133L151.4,132.7L151.9,132.5L152.7,132L153,131.9L153.8,131.7L154.7,131.5L155.8,130.6L156.6,130.7L157.3,130.7L157.9,130.5L159.2,130.3L159.9,130.1L161.3,129.5L161.7,129.3L162.2,128.9L162.7,128.4L163.2,127.7L163.5,127.1L163.6,126.7L163.9,126.2L164.1,125.8L164.2,125.6L164.8,125.4L165.6,124.6L165.8,124.4L165.9,124.2L165.7,124.1L165.5,124L165.3,123.2L165.2,122.6L165.2,122.2L165.3,121.9L165.6,121.3L165.8,121L166.1,120.7L166.4,120.7L166.6,120.4L167,120.2L167.2,119.9L167.4,119.4L167.6,119L167.8,119L168.1,119.9L168.3,120.4L168.7,121L169,121.8L169.3,122.2L169.5,122.4L169.6,122.5L169.6,122.4L169.6,122.2L169.7,121.6L169.7,121.1L169.7,120.9L169.8,120.9L169.9,120.9L170.2,121.2L170.3,121.3L170.4,121.2L170.4,120.8L170.6,120.6L170.5,120.4L170.3,120.4L170.2,120.2L170,119.9L169.7,119.8L169.5,119.4L169.4,119.2L169.5,119.1L169.6,119.1L169.8,119L169.8,118.7L169.7,118.3L169.9,118.2L170.1,118.2L170.5,118.8L170.7,118.8L170.8,118.5L171.1,118.5L171.3,118.5L171.5,118.7L171.9,118.9L172.3,118.8L172.6,118.9L173.1,118.9L173.3,118.9L173.3,118.8L173,118.7L172.7,118.7L172.3,118.7L172.2,118.6L172.1,118.3L172.2,118L172.3,118L172.5,118L172.7,118L172.7,117.7L172.8,117.4L172.9,117.2L172.9,117L172.8,117L172.5,117.5L172.3,117.1L172.1,116.8L172.2,116.4L172.3,116L172.5,115.9L172.7,116L172.9,115.7L173.1,115.6L173,115.4L173.1,115.3L173.3,115.3L174,115.7L174.1,115.9L174.2,115.8L174.3,115.6L174.3,115.4L174.1,115.4L173.8,115.4L173.7,115.3L173.7,115.2L173.5,114.9L173.8,114.8L174,114.7L174.1,114.6L174.1,114.5L174.2,114.4L174.3,114.5L174.6,114.6L175,114.7L175.1,114.8L175.2,114.7L175.2,114.5L174.8,114.2L174.8,114L174.6,113.7L174.6,113.5L174.9,113.3L174.9,113.1L175.1,113L175.4,113L175.6,112.8L175.8,112.8L175.9,112.4L175.9,112.1L176,112L176.2,112.1L176.1,112.5L176.1,112.7L176.1,112.9L176.2,112.9L176.2,112.8L176.3,112.6L176.6,112.7L176.6,112.9L176.7,113.1L176.8,113.2L177,112.9L177.2,112.8L177.2,112.4L177.3,112.1L177.3,111.9L177.4,111.8L177.5,111.6L177.4,111.4L177.3,111.1L177.5,111.1L177.7,111.2L177.8,111.6L177.9,111.7L178,111.6L178.1,111.4L178.4,111.3L178.6,111.5L178.9,111.7L179.2,111.5L179.5,111.1L179.5,110.8L179.5,110.5L179.9,110.4L180.2,110.5L180.5,110.8L181.1,111L181.6,111.3L181.9,111.5L182.3,111.8L182.6,112.2L183,112.8L183.9,113.5L183.9,113.6L183.8,113.9L183.7,114.2L183.6,114.7L183.5,115.5L183.7,115.4L183.8,115.1L183.9,115.2L184.1,115.4L184.1,115.2L184,115.1L183.8,114.7L183.8,114.5L184,114.4L184.2,114.2L184.4,114.1L184.6,114L184.6,113.9L184.8,113.7L185.1,113.7L185.3,113.7L186.6,114L186.9,114.4L186.9,114.8L187.1,114.9L187.1,114.7L187.1,114.1L187.2,114L187.6,114.1L187.8,114.2L188.2,114.6L188.2,114.7L188.4,114.9L188.4,114.7L188.3,114.4L188.3,114.2L188.4,113.9L188.8,113.9L189,113.9L188.9,113.8L188.7,113.7L188.5,113.5L188.3,113.3L188.6,113L188.6,113L188.3,113L187.9,112.8L187.6,112.5L187.8,111.9L188.3,111.3L188.6,111.1L188.6,111L188.8,110.6L188.8,110.3L188.9,110.1L189,109.9L189.3,109.6L189.7,109.5L189.9,109.5L190.1,109.2L190.3,109L189.9,108.5L189.9,108.2L190,107.9L190.5,107.7L190.7,107L190.9,107L191.3,107L191.4,106.9L191.4,106.4L191.4,106.2L191.6,106.2L191.8,106.2L191.9,106.4L192.2,106.6L192.3,106.5L192.2,106.3L192.2,106L192.4,106L192.7,106L192.7,105.7L192.6,105.5L192.7,105.5L193.3,105.4L193.4,105.2L193.5,105.1L193.6,105.2L193.6,105.5L193.9,105.7L194.8,105.7L195.3,105.6L195.5,105.7L195.9,105.8L196.2,105.6L196.5,105.5L196.8,105.6L196.9,105.8L197,105.4L197.3,105.3L197.5,105.2L197.8,105.3L197.9,105.3L197.6,105L197.6,104.7L197.6,104.3L197.7,104L197.8,103.8L197.1,103.3L196.5,103.2L196.1,103.3L195.9,103.2L195.5,102.8L195.1,102.7L195.1,102.6L195.6,102.3L195.7,102.3L196,102.6L196.2,102.7L196.3,102.7L196.4,102.5L196.5,102.4L196.7,102.4L197.4,102.9L197.8,103.3L198,103.2L198.3,102.9L198.6,103L198.8,103.1L199.1,103.7L199.3,103.9L199.9,104L200.1,104.1L200.4,104.3L200.8,104.3L201.6,104.3L202.3,104.7L202.6,104.9L202.9,105L203.1,105L203.5,105.1L204.1,104.8L204.4,105L204.5,105.2L205,105.5L205.6,105.6L206,105.3L206.7,105.1L207.1,104.7L207.4,104.6L207.7,104.3L207.8,104.3L207.6,104.6L207.5,104.7L207.7,104.8L207.7,104.8L207.4,105L207.1,105.3L207.1,105.5L207.3,105.6L207.4,105.6L207.6,105.4L207.9,105.3L208.1,105.5L208.1,105.9L208.3,106.2L208.6,106.2L208.8,106.2L209.1,105.8L208.9,105.5L208.8,105.4L208.9,105.3L209.4,104.7L209.7,104.7L209.9,105.3L210.3,105.6L210.6,105.6L210.8,105.6L211,106L209.7,107.4L209.6,107.5L209.8,107.8L209.9,108L209.5,108.8L209.3,108.8L209.2,108.6L209,108.5L208.8,108.6L208.6,108.6L207.8,109L207.8,110L208,110.6L207.9,111L207.7,111.7L207.4,112L207.3,112.1L206.6,113.1L206.4,113.3L206.2,113.6L206.3,113.9L206.4,114.2L206.6,114.4L207.5,114.9L207.9,115.3L208.7,115.7L208.8,116L208.9,116.2L209.5,116.5L209.8,116.7L210,116.6L210,116.6L210.1,116.6L210.2,116.6L210.2,116.8L210.2,116.9L210.2,117.1L210.5,117.3L210.9,117.3L211.1,117.2L211.4,117.4L211.7,117.6L212.1,117.8L212.8,118.2L213.3,118.4L214,119.1L214.4,119.6L215,119.9L215.8,120.2L216.2,120.1L216.8,120.4L217.3,120.5L217.7,120.9L217.8,121.2L217.8,121.4L218.1,121.9L218.7,122.1L219.5,122.6L220.1,122.8L220.2,123L220.5,123.1L221.1,123.1L222,122.9L222.4,122.6L223,122.2L223.2,121.5L223.4,120.9L224.2,119.7L224.4,119.1L224.6,118.3L224.8,117.8L224.7,117.3L224.9,116.4L225.3,115L225.4,114.6L225.4,113.9L225.1,112.7L225.2,112.3L225.3,111.7L225.2,111.3L225,111L225,110.6L225.1,109.8L225.3,109.4L225.5,108.9L225.4,107.9L225.8,107.5L225.9,107.3L226.2,107.3L226.3,107.4L226.4,107.2L226.3,107L226.2,106.8L226.1,106.7L225.9,106.7L225.8,106.5L225.6,106.4L225.6,106L226,105.1L226.2,104.8L226.3,104.9L226.5,105L226.5,104.8L226.4,104.5L226.7,103.7L227,102.6L227.1,101.5L227.6,101.3L227.9,101.1L228,100.8L228.3,100.8L228.5,100.9L228.3,101.1L228.3,101.3L228.8,101.7L229,102.1L229.1,102.4L229.2,102.7L229.2,103.1L229.2,103.7L229.3,104.3L229.5,104.5L229.6,104.6L229.9,104.6ZM260.8,149.9L260.8,150L260.6,149.9L260.5,149.2L260.6,148.9L260.8,148.6L260.8,148.4L260.7,148L261.2,147.6L261.3,147.4L261.3,147.1L261.2,146.8L261,146.7L261.2,146.6L261.3,146.5L261.4,146.4L261.5,146.5L261.5,147.1L261.7,147.3L261.7,147.6L261,149.1L260.9,149.7ZM218.9,119.5L218.6,119.7L218.5,119.7L218.4,119.9L218.2,119.9L218.1,119.9L217.8,120L217.8,119.9L217.8,119.6L218,119.3L218.2,119.1L218.7,119L219.1,118.9L219.2,118.9L219.5,119.3L219,119.3ZM210.2,110.6L210.4,110.7L210.5,110.7L210.7,110.4L210.7,110.5L210.8,110.5L210.8,110.7L210.6,110.9L210.6,110.9L210.5,111L210.3,111.4L210.4,111.6L210.5,111.7L210.8,111.8L210.9,111.8L211,111.8L210.9,112L210.8,112.2L210.4,112.1L210,112.1L209.5,112L209.2,111.9L209.1,111.9L209.3,111.8L209.4,111.6L209.3,111.2L209.4,110.8L209.7,110.6L209.8,110.3L210.1,110.2L210.2,110.2L210.2,110.3ZM190.9,103.9L191.2,103.9L191.3,104L191.4,104.2L191.4,104.3L191,104.3L190.5,104.1L189.9,104.3L189.7,104.3L189.6,104.2L189.7,103.9L189.9,103.9L190.1,103.8L190.1,103.4L190,103.2L190.3,102.8L190.4,102.8L190.5,102.8L190.7,103L190.7,103.3L190.8,103.6ZM191.4,102.9L191.8,102.9L192.3,102.7L192.5,102.8L192.6,102.8L193,102.5L193.3,102.5L193.4,102.3L193.6,102.5L193.9,102.7L194.1,102.9L194.2,103L194.3,103.1L194,103.3L194,103.6L193.8,103.5L193.5,104L192.4,104.6L191.5,104.1L191.1,103.7L190.8,103.1L190.7,102.7L190.6,102.4L190.7,102.3L190.7,102.3L190.8,102.3L191.1,102.6L191.2,102.7ZM137.5,151L137.4,151.1L136.8,150L136.7,149.3L136.8,149.2L136.9,149.1L137.2,150.2L137.3,150.4L137.3,150.6L137.4,150.7ZM213,185.9L213.7,186L214,185.9L214.4,186L214.6,186.4L214.4,186.6L214.3,186.6L213.7,186.4L213.2,186.5L213.1,186.7L213,187L212.5,187.2L212.3,187L211.8,186.9L211.6,187.1L211.2,187L210.9,187.1L210.4,187.1L209.9,186.7L209.7,186.5L209.8,186.2L210,186L211.4,185.7L212.2,185.4L212.8,185.4L212.9,185.5L213.1,185.6L213,185.9ZM237.4,196.1L236.9,196.3L236.7,196.2L236.7,196L236.8,195.9L237.2,195.9ZM236.8,196.6L236.9,196.8L237,196.9L236.7,196.7L236.3,196.8L236.5,196.5L236.8,196.5ZM248.4,131.6L248.3,131.6L248.2,131.6L248,131.6L248.2,131.1L248.2,131.4L248.4,131.5ZM248,131.1L248,131.1L247.9,131.1L247.9,131L248,130.9L248.1,130.8L248.1,131.1ZM254.9,142.2L255,142.3L255.1,142.3L255.2,142.4L255.1,142.6L255.3,142.8L255.3,143L255.2,143.2L255.2,143.2L255,143.1L254.5,142.4L254.6,142.1ZM252.9,138.3L252.8,138.3L252.8,138.3L252.8,138.1L252.8,138L252.9,138L253,138.3ZM251.1,137.9L251,138L250.9,137.7L250.9,137.5L251,137.4L251.1,137.7ZM262.3,155.8L262,156.7L261.9,156.7L261.8,156.6L261.8,156L261.9,155.7L262.2,155.7ZM262,155.3L261.9,155.4L261.8,155.1L261.7,154.7L261.8,154.4L261.9,154.3L262,154.4L261.9,154.9ZM227.4,100.8L227.2,101L227,100.9L227,100.7L227,100.6L227.2,100.4ZM227.6,99.2L227.5,99.4L227.3,99.3L227.2,99.2L227.3,99L227.5,99ZM227.1,99.1L227,99.1L226.9,99L227.1,98.7L227.2,98.8ZM239.8,124.8L239.9,125.1L240,125.4L240,125.5L239.9,125.7L239.7,125.6L239.6,125.3L239.3,125L239.3,124.9L239.5,124.9L239.7,124.9L239.7,124.8ZM209.9,102.9L209.7,103.1L209.7,103L209.8,102.8L210,102.4L210.2,102.3L210.2,102.2L210.3,102L210.3,101.8L210.5,101.8L210.3,102.3ZM209.1,103.6L208.6,103.8L208.9,103.5L209.4,103.2L209.5,103.2L209.5,103.3L209.2,103.6ZM211.4,116.9L211.3,117.1L211.1,116.9L211.1,116.7L211,116.7L211,116.5L211.1,116.5L211.2,116.3L211.3,116.5L211.3,116.8ZM210.7,116.4L210.7,116.4L210.7,116.2L210.7,116L210.8,116.3ZM209.9,116.4L209.7,116.4L209.6,116.4L209.6,116.3L209.7,116.2L209.9,116.1L209.9,116.2ZM218.7,121.2L218.6,121.3L218.6,121.1L218.7,121L218.8,120.8L219,121L219.1,121.1ZM208.8,110.7L208.7,110.7L208.4,110.6L208.4,110.5L208.5,110.4L208.5,110.4L208.7,110.1L208.8,110.3L208.9,110.6ZM197.5,102.7L197.4,102.7L197.2,102.2L197.3,102.1L197.2,101.8L197.3,101.8L197.5,101.6L197.5,101.7L197.5,102L197.6,102.2ZM174.7,113.1L174.5,113.3L174.3,113.1L174.4,112.8L174.5,112.7L174.6,112.7L174.6,113ZM172.8,115.7L172.7,115.8L172.6,115.8L172.6,115.6L172.4,115.5L172.5,115.3L172.5,115.3L172.6,115.3L172.7,115.4L172.8,115.5ZM144.5,133.2L144.3,133.5L144.1,133.4L144.1,133.3L144.2,133.1L144.5,132.8L144.5,133ZM236,205.8L236.4,205.8L236.6,205.7L236.7,205.8L236.9,206L237.2,206.1L237.4,206.1L237.5,206.1L237.6,206.3L238,206.5L238.1,206.5L238.3,206.7L238.4,206.8L239.3,207.2L239.9,207.4L240.7,207.3L241,207.2L241.2,207L241.4,207.2L241.6,207.4L241.5,207.1L241.6,206.9L241.8,206.8L242,206.7L242.4,206.7L242.7,206.6L242.9,206.5L243,206.5L243.2,206.6L243.5,206.7L243.6,206.6L243.8,206.2L244,206.1L244.6,206.2L244.7,206.2L245,205.8L245.2,205.8L245.8,206.1L246.1,206.5L246,207.2L246,207.4L246.1,207.7L246.1,208.1L246,208.6L246,209L246.1,209.4L246,210.1L246.1,210.5L246.1,210.8L246.1,211L246.2,211.1L246.2,211.3L246.2,211.5L246.2,211.7L246.2,211.9L246,211.9L246,211.7L246,211.6L246,211.4L245.9,211.3L245.7,211.1L245.8,211L245.9,210.9L245.8,210.7L245.7,210.9L245.6,211.1L245.6,211.2L245.5,211.3L245.3,211.5L245.2,211.9L245.2,212.3L245.2,212.6L245.1,212.9L244.9,213.2L244.9,213.6L244.9,214.2L245,214.9L245.1,215.7L245,215.8L244.6,215.8L244.5,216L244.2,215.5L244,215.1L244.2,214.9L244.4,215L244.5,214.9L244.5,214.8L244.5,214.7L244.2,214.5L243.8,214.4L243.7,214.5L243.7,214.9L243.7,215L243.4,215.2L243.3,214.6L243,214.1L243,214.3L243.1,214.7L243.1,214.9L243.1,215.1L242.9,215.2L242.9,215.3L242.9,215.6L242.8,215.9L242.6,216.1L242,215.7L242,215.8L242,215.9L242.3,216.2L242.2,216.4L242.1,216.6L241.9,217.2L241.7,217.6L241.5,217.7L241.1,217.6L240.7,217.2L240.2,217.2L239.5,217.2L239.1,217.3L239,216.9L238.9,216.8L238.9,216.6L239.3,216.5L239.7,216.5L239.6,216.4L239.5,216.3L239.3,216.3L238.9,216.2L238.6,216.3L238.3,216.1L238,215.3L237.7,215L237.6,214.9L237.5,214.8L237.4,214.7L236.7,213.1L236.6,212.7L236.5,211.8L237,212.2L237.2,212.5L237.3,212.9L237.5,212.4L237.5,212.3L237,211.8L236.9,211.6L236.9,211.4L236.8,211.6L236.6,211.6L236.7,211.3L236.6,210.9L236,210.1L235.6,209.4L235.2,208.4L235.1,208.3L235.1,208.1L234.9,207.5L234.8,207L234.8,206.6L235,205.8L235,205.4L235.3,205.6ZM232.5,203.1L232.5,203.1L232.4,202.9L232.4,202.6L232.3,202.3L232.4,201.9L232.3,201.6L232.4,201.4L232.6,201.3L232.6,201L232.8,200.9L233.1,201.2L233.2,201.8L233.1,202.1L233.2,202.4L233.1,202.7L232.9,203ZM245.1,201.7L245.7,202.4L246,202.5L246.1,202.6L246,202.9L245.9,203L246.1,203.2L246.1,203.3L246.1,203.3L245.8,203.6L245.5,203.7L245.4,203.6L245.3,203.5L245.2,203.3L244.8,202.7L244.8,202.5L244.8,202.3L244.6,202.3L244.4,202.1L244.6,202L244.9,201.5ZM243.1,216.7L243,217.1L242.8,217.1L242.5,217.1L242.4,216.8L242.4,216.8L242.6,216.8L242.6,216.8L242.7,216.6L242.7,216.6L242.8,216.4L242.9,216.2L243,216.2L243.1,216.5ZM245.5,213.8L245.3,213.8L245.2,213.8L245.2,213.6L245.2,213.5L245.4,213.3L245.6,213.4L245.7,213.6L245.4,213.7ZM243.4,216L243.2,216L243.1,216L243.1,215.8L243,215.7L243,215.6L243.1,215.5L243.1,215.4L243.3,215.5ZM235.2,204.7L235.1,205L235,204.6L235.1,204.5L235.2,204.4L235.2,204.4ZM246.2,203.9L246.4,204.1L246.6,204.4L246.4,204.6L246.2,204.6L246.1,204.4L245.8,204.5L245.5,204.5L245.2,204.3L245.2,204.2L245.3,204.1L245.7,204.1ZM245.9,204.7L245.7,205L245.5,204.8L245.5,204.7L245.7,204.7L245.8,204.7ZM278.8,270.4L278.7,270.6L278.6,270.4L278.8,269.3L279,269.1L279,269.7Z" fill="#b8e653" stroke="#0c0e06" stroke-width="1"/></svg>
