<svg xmlns="http://www.w3.org/2000/svg" viewBox="0 0 300 300"><path fill="#e8e8ea" d="M212.9,55.8L212.7,56.6L212.4,57.2L212.4,57.6L212.4,58.1L213,58.5L213.4,58.7L213.6,59.4L214.3,60.3L214.3,61L214.7,61.8L215,63.3L215.1,64.7L215.5,65.6L215.3,67.6L215.5,68.4L215.9,69.1L216.3,70.4L216.6,71.6L217,72L217.9,72.4L218.9,71.9L219.5,71.3L220.2,71.2L221.2,70.9L221.9,71.7L222.3,72.6L224,73.8L225,74.6L225.8,75L226.5,75.6L226.4,76.2L226.2,76.6L226.4,77.3L226.5,78.1L226.3,79.1L226.8,80.6L227,81.8L227.5,83L227.5,84.2L227.4,84.7L227.3,85.4L227.8,86.2L228.1,86.8L228.7,87.5L229.5,88.5L230,88.7L230.5,88.8L230.4,89.8L231.3,91.9L231.8,93.6L231.5,95.9L231.2,97.3L231.2,97.9L232.5,99.5L233.2,99.8L233,100.6L232.9,101.8L233.5,102.7L234.1,103.4L234.8,103.8L235.5,104.1L236.4,104.5L237.5,104.6L238.1,105.1L238.4,105.6L239.3,105.7L239.6,105.6L240.2,105.4L240.5,105.7L240.7,106.1L241.2,107.1L242.2,108.1L242.9,108.3L243.4,108.8L243.9,108.9L244.4,109L245.1,109.4L246.2,110.3L247.3,110.4L247.8,110.7L248.8,111.7L249.2,112.2L249.6,113L249.1,113.1L248.6,112.9L248.3,113.7L249,114.7L249.8,115.5L250.7,116.3L251.6,117.4L251.9,118.3L252.1,118.6L252.4,119.8L253.2,120.5L253.3,121.8L253.7,123.6L254.1,125.3L254.5,125.7L254.9,126.5L255.3,126.4L255.6,126.2L256.2,127L256.6,127.3L256.8,127.1L256.4,125.6L256.6,124.7L256.9,124.6L257.2,124.6L257.7,125.3L258.3,126.1L259.4,126.7L260.2,127.4L260.5,127.3L260.4,126.8L260.4,126.1L260.8,126L261.1,126.4L261.7,127.5L261.8,129.8L261.8,131.7L262.2,133.6L262.7,134.2L263.1,134.6L263.7,135.3L264.2,135.9L264.7,136.2L266.4,137.5L266.9,137.7L267.6,137.7L268.5,138.3L269,138.9L270,140.9L270.4,141.7L271.4,142.4L271.9,142.6L272.5,143.1L272.8,143.8L272.8,144.2L273.2,145L273.8,146L274.7,146.5L275.5,147.6L275.5,149.4L275.9,150.3L276.2,150.7L276.9,151.1L277.1,151.4L276.6,153.8L277.1,158.7L276.8,160.2L277.3,161.7L278.5,164.4L278.8,165.3L279,166.4L279.7,167.8L279.7,170L280,171L279.9,172.3L279,173.8L278.3,175.5L278.3,177L277.8,180L277.5,180.8L277.2,182L276.3,185L276.2,186.1L276.3,187.5L276.2,188.9L275.9,189.8L275.7,191.5L274.7,194.2L273.2,196.1L273.1,197.6L272.9,198.3L272.6,199.1L271.7,200L271.2,200.4L271,200.9L270.5,200.9L270.5,201.1L270.8,201.3L270.7,201.6L269.3,202L268.4,202.7L267.5,204.2L267.1,205L266.6,205.7L266.3,206.1L266.2,206.5L266,207.4L265.5,207.6L265.1,207.9L265.3,208.8L265,209.8L265,210.5L264.7,211L264.5,210.8L264.3,210.9L264,211.2L264.4,211.2L264.7,211.4L263.8,212.4L262.9,213.4L262.7,214.1L262.4,215L262,217L261.8,218.1L262,218.9L261.9,219L261.7,219.1L261.6,219L261.2,219.3L261.1,219.5L261.3,219.9L261.4,220L261.3,220.1L261.2,220.3L260.8,220.3L260.4,220.6L259.2,223.5L258.6,224.3L258,225.5L257.8,226.6L257.6,227.8L257.4,229.8L257.2,231.2L256.7,232.6L256.5,233.6L256.4,235.5L256.7,236.9L256.5,237.7L256.5,238.4L256.3,239.1L255.5,239.2L254.9,239.8L254,240.7L253.4,241.1L252.2,241.3L250,241.2L245.6,241.5L244.7,241.8L243.1,242.4L241.5,243.4L240,244.7L236.5,248.4L233.8,248.8L233.3,248.8L232.9,248.7L232.4,248.9L232.4,249.4L232.9,249.8L233.2,250.3L233.8,249.7L234,249.8L234.1,251L234.1,251.7L234,252.1L233.6,252.4L233.2,252.2L233.2,251.8L232.7,250.8L232.1,250L231.5,249.8L231.2,250L230.6,250.3L230.2,249.3L229.7,248.4L229,248.3L228.5,248.3L228.1,247.9L227.1,247.3L227.3,246.8L227.6,246.3L228.1,246.2L227.9,245.5L227.7,244.9L227,244.8L226.5,244.9L226.2,245.3L225.8,246.1L224.3,247L223.6,246.5L222.8,245.7L223.2,245.8L224,245.7L224.7,245L225,244.6L225.4,243.7L224.9,243L224.5,242.5L223.9,242.1L221.6,243.6L221.2,243.8L220.7,244.1L221.5,244.3L222,244.2L222.4,244.6L221.7,245.2L221.1,245.4L220.3,245.8L218.8,246.7L217,248.7L216.2,249.2L215.2,249.7L213.9,249.1L213.2,249L212.3,248.2L210.7,247.7L209.3,246.6L208.2,246.1L207.5,246L206.5,246.2L204.8,245.2L203.5,245.1L202.7,246.1L202,246L201.6,245.9L200.2,244.3L199,243.6L196.5,243.2L194.9,242.1L193.8,240L191.6,237.7L191.1,236.8L190.8,236L190.8,235.3L191.1,234L191.5,232.8L191.5,232.1L190.7,229.8L189.6,227.6L189,226.9L187.6,225.4L186.3,224.4L185.9,223.8L185.8,223.5L186.5,223.6L186.7,223.2L187.2,223L187.5,223.6L187.9,223.7L187.9,222.8L188.1,222.3L188,222.1L187.8,221.9L187.3,221.7L186.6,222L186.1,222.4L185.5,222.8L185.2,223.2L184.6,223.2L184.3,223.3L182.9,224L182.1,224L180.8,223.8L181.2,222.8L181.7,222.2L182.2,221.5L182.9,219.1L182.7,217.1L182.4,216.2L181.3,214.5L180.8,213.5L180.2,212.4L179.9,213.1L179.7,213.7L179.1,214.7L178.8,216.8L177.6,220L176.8,220.1L176.1,220L174.9,220.3L174.1,220.8L173.3,220.8L172.9,220.9L172.4,220.8L173.3,218.3L174,218.3L174.8,218.2L175.1,218.3L175.7,218.2L176.1,217.1L176.3,215.8L176.2,214.9L176.1,214.1L176.3,213.1L176.3,212.4L177.3,210L178.2,208.8L179.2,207.9L179,207L178.7,205.8L178.6,204.9L179.1,204.7L179.5,204.1L179,201.6L178.7,200.9L178.2,200.2L178.2,201.1L178.2,202.1L177.5,203.2L176.6,204.1L176,204.9L175.4,206.7L174.7,208.2L174,208.8L173.4,208.9L172.7,209.2L171.8,209.8L170.8,210.3L170.1,211L169.5,211.4L167.5,214.5L166.6,215.5L166.4,215.9L166,216.3L166.1,216.8L166.4,217.1L166.7,218.5L166.5,218.8L166.2,218.6L165.4,217.9L164.9,218.1L164.5,218.5L163.4,217L162.9,216.7L162.4,216.1L161.8,215.6L161.5,215.6L161.1,215.7L161.1,215.3L161.4,215L161.7,214.9L162.2,215.4L162.7,215.8L163,215.8L163.2,215.6L162.7,214L162.3,212.6L162.1,212.2L161.7,210.8L161.5,210.4L160.6,209.4L159.6,208.2L159.3,206.8L158.9,205.9L158.5,205.4L157.8,204.9L155.8,204.7L155,203.3L154.5,201.5L154.9,201.4L155.3,201.3L155.5,200.8L155.4,199.9L153.4,198.9L152.5,197.8L151.7,197.4L151,197.2L150,197.2L148.8,197.2L145.9,195.4L145.2,195.4L143.1,195.9L142.4,195.8L139.2,193.5L137.1,192.4L136.4,192.2L135.5,192L134.8,192.2L134.2,192.5L133.2,192.8L129,192.6L125.4,193L122.9,193.2L121.4,193.5L118.8,194.9L115.7,196.3L113.2,196.9L110.9,197.8L109.4,198L107.4,198.1L103.3,197.7L101.9,198L99.6,199.6L99,200L97.7,200.5L94.4,202.5L92.9,202.9L92,203.1L91.1,203.5L90.4,204.4L89.3,206.8L88.7,208L87.3,209.8L86.4,210.5L85.5,210.4L84.5,211L83.6,210.3L82.9,210.2L81.7,210.3L77.7,211.1L77.1,210.1L76.3,210L75,210L72.9,209.8L69.1,210.1L67.3,210.5L66.5,210.8L65.2,210.6L62.9,210.9L62.1,211.4L61.5,211.9L60.3,214L59,214.7L57.9,214.7L56.7,214.9L54.3,216.9L51.9,218.8L51,219L50.1,219.4L48.9,219.5L48.3,219.7L45.5,219.2L43.7,219.1L41.4,218.8L39.5,217.9L38,217.3L36.3,215.2L35.3,214.4L33.5,213.5L32.9,213.5L32.5,213.8L31.7,213.1L31.7,212.2L31.5,211.5L31.5,209.6L31.6,207.4L32.3,207.9L32.8,208.4L34,208.3L35,207.5L35.6,206.3L36.1,204.9L36,203.4L35.7,200.9L35.9,200.3L36.2,200.1L36.3,198.8L36.4,194.9L36.2,193.5L34.6,190.5L33.6,187.9L32.8,186.8L32.2,184.9L31.6,182.4L31.5,181.1L31.3,178.7L31.5,177.4L31.4,176.6L30.8,174.4L29.3,172.5L29.1,171.7L29.1,170.9L28.7,170L27.5,168.2L26.3,166.7L26.1,165.9L25.9,162.8L25.4,161.3L23.4,157.7L21,154.6L20.3,153.4L20,152.9L20.2,152.9L20.4,153L20.7,153.4L20.9,153.4L21,153.1L21,152.5L21.1,152.2L21.3,152.4L21.6,153L22.3,154.8L22.6,155.6L23.5,155.9L23.8,155.7L24.2,155.2L24.3,154L23.8,153.5L23.4,153.2L22.6,152.3L22.1,150.9L21.4,149.6L21.4,149.1L21.7,148.8L22.3,149L22.8,149.7L23.4,150.4L23.3,151.7L23.2,152L23.3,152.3L23.5,152.6L23.8,152.8L24.1,152.5L24.3,151.7L24.5,151.8L24.9,153.5L25.2,153.9L25.8,154.5L26.4,154.1L26.6,153.7L26.6,152.5L26.7,151.4L26.6,150.6L25.2,148.4L23.9,145.7L23.1,144.3L22.5,142.3L22.1,141.6L21.5,140.5L21.5,139.2L21.5,138.4L22,136.5L22.4,135.6L23.7,133.4L23.8,132.4L23.8,131.7L23.9,130.6L23.9,129.8L23.8,129.1L23.2,127.9L23.9,125.8L25,123L25.4,122.7L26,122.3L26.2,122.8L25.9,124.7L26.3,125.7L26.2,126.8L26.6,126.6L27.2,126.4L27.7,125.8L27.9,125.3L29.1,123.1L29.8,122.2L30.8,121.6L32.7,120.9L34.6,119.9L35.5,119L36.6,118.2L37.4,117.4L38.2,116.8L42,114.6L42.7,114.2L43.5,114.1L44.5,114.2L45.4,114.1L46.4,114.6L47.2,114.6L48.9,114.1L49.9,113.6L51.5,112.6L52.2,112.3L53.9,111.9L55.8,111.5L58.1,109.7L59.7,109.8L61.2,110L62.3,109.4L65.1,109.1L66.6,108.6L69.5,107.4L70.3,107L71.4,106.1L72.4,105L73.4,103.6L74.1,102.3L74.3,101.6L74.9,100.6L75.3,99.7L75.6,99.3L76.7,98.8L78.4,97.2L78.9,96.8L79,96.3L78.7,96.1L78.2,95.9L77.9,94.2L77.6,93L77.6,92.2L77.7,91.5L78.4,90.3L78.8,89.7L79.5,89.2L80.1,89L80.5,88.4L81.3,87.9L81.7,87.4L82.2,86.3L82.6,85.5L82.9,85.6L83.6,87.4L84,88.4L84.8,89.6L85.6,91.3L86.2,92.1L86.5,92.6L86.7,92.9L86.8,92.5L86.7,92.1L87,90.8L86.9,89.9L87,89.5L87.1,89.4L87.4,89.5L88,90L88.3,90.2L88.5,90.2L88.5,89.3L88.8,88.8L88.6,88.4L88.1,88.5L87.9,88L87.5,87.5L87,87.1L86.5,86.3L86.3,85.9L86.5,85.8L86.9,85.8L87.2,85.4L87.3,84.9L87,84.1L87.3,83.9L87.8,83.9L88.6,85.2L89,85.1L89.3,84.6L89.8,84.4L90.4,84.5L90.7,84.9L91.5,85.2L92.5,85.2L93,85.3L94,85.2L94.5,85.3L94.4,85.1L93.8,84.9L93.2,84.9L92.5,84.9L92.2,84.6L92,84L92.2,83.5L92.3,83.3L92.8,83.4L93.3,83.4L93.3,82.8L93.5,82.2L93.7,81.8L93.7,81.3L93.5,81.5L92.8,82.5L92.5,81.6L92,81L92.1,80.1L92.4,79.3L92.8,79.1L93.2,79.3L93.7,78.8L94,78.4L93.9,78L94,77.8L94.4,77.9L95.8,78.7L96.1,79.1L96.4,78.9L96.5,78.5L96.5,78L96.1,78.1L95.4,78L95.2,77.8L95.3,77.6L95,77L95.4,76.7L95.8,76.7L96.1,76.4L96.1,76.1L96.2,76L96.5,76.2L97.2,76.3L97.9,76.7L98.3,76.8L98.4,76.5L98.5,76.1L97.6,75.6L97.5,75.1L97.1,74.6L97.1,74.1L97.7,73.6L97.8,73.2L98.2,73L98.8,73L99.2,72.7L99.7,72.5L99.8,71.7L99.8,71.2L100,71L100.5,71.3L100.4,71.9L100.4,72.5L100.2,72.8L100.4,72.8L100.5,72.7L100.7,72.3L101.3,72.4L101.4,72.9L101.5,73.3L101.7,73.4L102.1,72.8L102.6,72.6L102.5,71.8L102.7,71.2L102.8,70.8L103.1,70.5L103.1,70.1L102.9,69.8L102.8,69.2L103.2,69.1L103.6,69.3L103.9,70.1L104.1,70.4L104.3,70.2L104.5,69.7L105,69.5L105.5,69.8L106.1,70.4L106.8,69.9L107.4,69L107.3,68.5L107.4,67.9L108.2,67.6L108.9,67.8L109.5,68.4L110.7,68.9L111.8,69.5L112.3,69.9L113.2,70.6L113.8,71.3L114.5,72.5L116.4,74.1L116.6,74.3L116.3,74.8L116.1,75.5L115.8,76.6L115.7,78.2L116,78.1L116.3,77.5L116.6,77.6L116.9,78L117,77.6L116.7,77.4L116.4,76.7L116.4,76.3L116.7,75.9L117.1,75.6L117.6,75.3L117.9,75.1L117.9,74.8L118.3,74.6L119,74.5L119.4,74.5L122.1,75.2L122.8,75.9L122.8,76.7L123.1,77L123.3,76.5L123.2,75.3L123.4,75.1L124.2,75.3L124.7,75.5L125.4,76.3L125.5,76.7L125.8,76.9L125.9,76.5L125.8,76.1L125.7,75.5L125.8,75L126.6,74.9L127.2,74.8L126.9,74.6L126.6,74.6L126,74.1L125.6,73.6L126.2,73.1L126.2,73L125.6,73L124.8,72.6L124.2,71.9L124.7,70.7L125.7,69.6L126.3,69.2L126.3,68.8L126.6,68.1L126.8,67.5L126.8,67L127.1,66.5L127.7,66L128.6,65.9L129,65.7L129.4,65.2L129.8,64.7L129,63.7L129.1,63.1L129.2,62.4L130.2,61.9L130.7,60.7L131.1,60.5L131.8,60.5L132.1,60.4L132.1,59.4L132.1,59L132.5,58.8L132.9,58.9L133.1,59.4L133.7,59.8L133.9,59.6L133.8,59.1L133.8,58.5L134.3,58.4L134.7,58.4L134.8,57.9L134.7,57.5L134.9,57.4L136,57.3L136.3,56.9L136.4,56.6L136.6,56.8L136.8,57.5L137.4,57.9L139.2,58L140.3,57.6L140.7,57.8L141.4,58L142.2,57.6L142.6,57.4L143.4,57.7L143.6,58.1L143.8,57.3L144.3,57L144.8,56.8L145.4,57L145.6,56.9L145.1,56.4L145.1,55.8L145.1,55L145.2,54.3L145.3,53.8L144.1,52.8L142.8,52.6L141.9,52.8L141.5,52.7L140.6,51.9L139.8,51.5L139.8,51.3L140.8,50.7L141.1,50.9L141.7,51.4L142,51.6L142.3,51.6L142.4,51.1L142.7,50.9L143.2,51L144.6,52L145.4,52.9L145.8,52.6L146.5,52.1L147.2,52.2L147.6,52.5L148.2,53.6L148.6,54.2L149.7,54.3L150.3,54.6L150.9,54.9L151.6,54.9L153.3,55L154.8,55.7L155.4,56.2L156.1,56.3L156.5,56.5L157.3,56.5L158.6,56L159.1,56.5L159.4,56.8L160.5,57.4L161.7,57.6L162.6,57L163.8,56.5L164.7,55.8L165.4,55.5L166,55L166.2,55L165.7,55.5L165.7,55.8L166.1,55.9L166,56.1L165.5,56.5L164.8,57.1L164.8,57.5L165.1,57.7L165.4,57.6L165.8,57.3L166.3,57.1L166.8,57.4L166.9,58.3L167.3,58.9L168,59L168.4,59L168.8,58.1L168.6,57.4L168.3,57.3L168.5,57L169.6,55.8L170.2,55.8L170.6,57L171.4,57.6L172.1,57.6L172.5,57.7L172.8,58.4L170.2,61.3L170.1,61.6L170.4,62.1L170.5,62.7L169.7,64.2L169.4,64.3L169.1,63.9L168.6,63.6L168.2,63.8L167.8,63.9L166.3,64.7L166.3,66.8L166.7,68.1L166.4,68.9L166,70.3L165.5,70.9L165.1,71.2L163.8,73.2L163.3,73.7L162.9,74.4L163,75L163.2,75.5L163.7,76L165.6,77L166.5,77.8L168,78.7L168.4,79.3L168.6,79.8L169.7,80.3L170.5,80.7L170.7,80.6L170.9,80.5L171.1,80.5L171.3,80.5L171.2,81L171.1,81.2L171.2,81.5L171.8,81.9L172.7,81.9L173.2,81.8L173.7,82.2L174.3,82.5L175.1,83.1L176.5,83.8L177.7,84.2L179,85.8L180,86.8L181.2,87.5L182.8,87.9L183.6,87.9L184.9,88.4L186.1,88.7L186.7,89.4L186.9,90L187,90.5L187.6,91.6L188.9,91.9L190.5,93L191.8,93.5L192.1,93.7L192.7,94.1L193.8,94.1L195.7,93.6L196.6,93L197.8,92.1L198.3,90.6L198.7,89.4L200.3,87L200.8,85.7L201.2,84.1L201.5,83.1L201.4,82L201.8,80L202.6,77.3L202.9,76.4L202.7,75L202.2,72.4L202.5,71.6L202.7,70.3L202.3,69.5L202,68.8L201.9,68L202.3,66.4L202.7,65.5L203,64.4L202.8,62.3L203.6,61.6L203.9,61.2L204.5,61.2L204.8,61.4L204.9,61L204.6,60.6L204.5,60.2L204.3,59.9L204,59.9L203.7,59.6L203.2,59.4L203.3,58.4L204.1,56.7L204.5,56L204.7,56.3L205.1,56.5L205.1,56L205,55.4L205.6,53.7L206.2,51.4L206.4,49.2L207.4,48.8L207.9,48.3L208.2,47.6L208.8,47.6L209.2,47.9L209,48.4L208.9,48.7L209.9,49.6L210.3,50.3L210.5,51L210.7,51.6L210.8,52.4L210.8,53.7L210.9,55L211.3,55.3L211.7,55.6L212.2,55.6Z"/></svg>
