<svg xmlns="http://www.w3.org/2000/svg" viewBox="0 0 300 300"><path fill="#e8e8ea" d="M11.1,182.6L9.4,180.6L8.7,179.3L13.4,178.4L21.4,175.4L23.7,176.8L25.9,179.8L27.2,182.3L27.3,186.9L28.2,187.7L32.2,186.1L33.8,188L36.9,190.3L42,192.5L49.5,189L53.2,188.1L56.3,188.2L57.9,189.3L58.6,192.9L57.9,197.4L57,199.8L58.6,201.5L64.7,205.8L67.3,208.1L66.1,212.3L70.6,222.3L72.2,226.2L73.9,231L64.5,229.2L47.7,225.2L43.2,223L38.8,217.5L36.2,214.7L32.2,211.3L29.1,210L26.8,207.5L25.4,203.9L23.3,200.7L19.8,196.9L12,184ZM207.4,258.5L206,258.4L196.1,260.7L194,260L185.6,249.1L183.9,247.9L180.2,247.5L177.9,245.7L176.2,242.8L175.3,240.6L166.4,234.7L165.2,232.5L165,230.7L166.2,228.9L167.8,227.4L172,226L177,224.7L178.6,223.9L179.5,222.2L179.5,219.7L178.6,217.2L171.5,212.7L170.6,210.7L170.4,208.3L170.8,205.8L171.8,203.9L177.7,201.2L180.9,198.4L179,195.4L172.7,188.3L165.2,180.6L160.1,180.4L154.4,182.7L145.1,189.4L139.9,192.2L133.2,196.9L125.9,202.1L120,207.6L116.3,212.1L109.7,214.1L106.4,218L95.2,229.4L92.1,229.3L91.9,223.5L92.1,219.1L91.4,216.5L87.9,212.9L87.7,211.4L88.8,210.5L91.5,211.1L95,210.8L96.8,209.4L92.9,204.8L89.6,201.6L86.7,199.5L86.1,198.2L86.1,197.4L86.7,196.3L91.5,193.7L92.1,191.4L91.7,188.6L84,184.7L78.1,186.2L72.9,181.8L69.6,178.4L65.4,174.8L61.7,172.7L58.2,168.1L51.9,163.4L47.9,162L48.1,161.3L48.8,160.4L50.4,159.7L61.5,159.8L62.8,159.1L63.5,157L65,154L66.8,149.5L66.6,145.8L55.6,139.7L47.6,134.2L42,126.8L38.1,120L38.3,117.8L39.4,115.7L47.9,109.4L48.6,107.8L48.4,106.7L45.3,103.4L41.5,100.2L40.2,97.8L37.8,96.5L33.1,96.4L25.1,92.4L23.3,92L23,91.2L23.3,90.4L29.1,88.7L29.1,87.4L27.3,85.6L24,84.2L21,81L20,78.1L30.5,69.6L33.4,67.9L40.4,69.5L54.6,75.1L53.7,78.2L55.1,80L58.4,82.5L64.5,84.8L69.9,86.1L72.5,85L76.7,84.1L81.9,86.9L86.8,90.5L89.3,92L90.5,92.3L94.3,91.2L98.7,86.6L100.4,81L101,78.4L98.3,74.7L92.9,70.7L87,67.2L83.2,64.1L80.7,58L78.3,57.3L77.6,56.5L77.2,54.4L77.2,51.5L78.1,49.2L80.6,48.3L83,48L85.3,45.8L88.1,41.5L89.3,39.3L94.5,40.6L95.2,44.4L96.1,45.1L98.2,44.7L101.8,43.1L104.6,44.4L108.3,48.9L113.5,53.6L116.3,56.8L117.4,58.9L120,61L123.8,63.6L126.8,67.4L129.4,76.5L132.2,78.7L142.1,82.1L145.5,82.8L155.2,84L158.6,83.1L163.6,75.4L168,67.3L172.2,65.6L179.8,61.7L184.2,58L186.1,54.1L190.5,46.5L193.1,42.2L197.5,46.1L205.3,56.2L216.3,72.7L218.9,77.4L220.7,82.8L222.2,89.4L224.7,95.2L235.9,109.7L240.7,115L248.6,122L251.4,123.5L255,123.9L261.9,124L268,126.6L271.1,128.5L274.2,131.3L277,134.4L280,142.9L269.2,140.1L258.4,140.6L252.1,142.3L246.1,144.8L240.6,148.3L236.9,155.1L233.9,170.7L229.6,185.4L229.6,192L231.7,198.4L231.3,201.6L229.4,202.9L226.8,205.6L223.5,218.9L221.7,221.6L219.6,223.2L219.1,221.6L219.1,218.1L214.4,215.1L211.9,218.5L210.2,225.8L206.7,233.5L206.5,234.9ZM46.7,121.4L47.2,119.3L45.8,118.3L44.4,118.3L43,119.3L43,122L44.8,122.5Z"/></svg>
