<svg xmlns="http://www.w3.org/2000/svg" viewBox="0 0 400 300"><path d="M392.1,0L393,114.9L381.1,116.4L364.8,92L349,83.1L322.6,89.7L312.2,100.1L311,92.5L316.7,79.4L312.2,68.3L285.2,57.5L274.7,28.6L261.8,20.4L261.1,9.7L283.7,12.8L284.2,0L392.1,0Z" fill="#2c2c34" stroke="#474751" stroke-width="0.8"/><path d="M400,114.8L393,114.9L393,114.9L392.1,0L400,0Z" fill="#2c2c34" stroke="#474751" stroke-width="0.8"/><path d="M183.3,0L176.7,9.7L197.8,40.6L195.6,62.2L221,99.3L207,111.9L203,119.8L192.8,117.7L176.8,98.7L170.2,97.7L155.5,90.4L148.4,77.5L126.7,70.9L112.5,75.9L108.5,70L76.8,54.7L42.5,49.5L22.7,44L19.9,47.8L0,29.5L0,0Z" fill="#2c2c34" stroke="#474751" stroke-width="0.8"/><path d="M49.1,300L53.2,284.1L51,263.1L63.8,255.9L75.7,237.7L85.7,233.2L112.8,237L121,244.4L132.1,239.5L147.2,274.1L162.5,282.7L164.3,299.4L163.5,300L49.1,300Z" fill="#2c2c34" stroke="#474751" stroke-width="0.8"/><path d="M400,215.9L398,217L382.4,216.1L365.9,233L345.4,238.6L341,217.9L344.4,186.8L326.3,176.6L332.2,155.8L316.8,154.1L321.9,128.3L343.9,135.8L364.3,126L347.4,107.4L340.7,89.5L321.9,97.5L319.5,120.3L312.2,100.1L312.2,100.1L322.6,89.7L349,83.1L364.8,92L381.1,116.4L393,114.9L400,114.8L400,215.9Z" fill="#2c2c34" stroke="#474751" stroke-width="0.8"/><path d="M163.5,300L164.3,299.4L162.5,282.7L147.2,274.1L132.1,239.5L119.4,215.9L124,206.7L116.7,172.4L132.6,163.8L136.3,175.2L148.2,189.1L164.1,193L172.6,192.2L200,170L208.7,167.7L215.6,176.6L207.6,191.5L222.1,207L227.9,205.6L235.3,227.4L257.4,233.5L273.6,248.2L306.7,253.2L343.1,245.5L345.4,238.6L365.9,233L382.4,216.1L398,217L400,215.9L400,300Z" fill="#2c2c34" stroke="#474751" stroke-width="0.8"/><path d="M0,252.8L9.8,252.7L36.7,241.8L49.2,242.3L75.7,237.7L63.8,255.9L51,263.1L53.2,284.1L49.1,300L0,300Z" fill="#2c2c34" stroke="#474751" stroke-width="0.8"/><path d="M172.6,192.2L164.1,193L154.6,175.7L154.7,171L144.4,171.1L137.5,163L132.6,163.8L123.5,155L106.1,147.4L108.4,132.4L104.4,121.6L136.8,116.8L141.6,124.9L150.5,130.3L145.8,138L158.2,148.4L151.7,158.2L161.6,166.4L172,171.3Z" fill="#2c2c34" stroke="#474751" stroke-width="0.8"/><path d="M0,123L9.6,121.3L29.6,124L57.1,107.8L82,106.4L104.4,121.6L108.4,132.4L106.1,147.4L123.5,155L132.6,163.8L116.7,172.4L124,206.7L119.4,215.9L132.1,239.5L132.1,239.5L121,244.4L112.8,237L85.7,233.2L75.7,237.7L49.2,242.3L36.7,241.8L9.8,252.7L0,252.8L0,123Z" fill="#2c2c34" stroke="#474751" stroke-width="0.8"/><path d="M19.9,47.8L22.7,44L42.5,49.5L76.8,54.7L108.5,70L112.5,75.9L126.7,70.9L148.4,77.5L155.5,90.4L170.2,97.7L164.2,102L175.6,118.8L172.4,122.5L159.9,120.6L142.5,111.7L136.8,116.8L104.4,121.6L82,106.4L57.1,107.8L60.7,94.5L54.8,73L41.4,61.3L28.4,57.6Z" fill="#2c2c34" stroke="#474751" stroke-width="0.8"/><path d="M133.2,165.7L132.4,164.7L132,164.1L134.3,163.6L138.2,162.2L139.3,162.9L140.4,164.3L140.9,165.5L141,167.7L141.4,168.1L143.4,167.4L144.1,168.3L145.6,169.4L148.1,170.4L151.7,168.7L153.4,168.3L155,168.4L155.7,168.9L156,170.6L155.7,172.8L155.3,173.9L156,174.8L159,176.8L160.2,177.9L159.6,179.9L161.8,184.8L162.6,186.7L163.4,188.9L158.9,188.1L150.8,186.1L148.7,185.1L146.6,182.4L145.3,181.1L143.4,179.5L141.9,178.8L140.8,177.6L140.1,175.9L139.1,174.4L137.4,172.6L133.6,166.4ZM227.6,202.1L226.9,202.1L222.1,203.2L221.1,202.9L217.1,197.7L216.3,197.1L214.5,196.9L213.4,196L212.6,194.6L212.2,193.6L207.9,190.7L207.3,189.7L207.2,188.8L207.8,188L208.6,187.2L210.6,186.5L213,185.9L213.8,185.5L214.2,184.7L214.2,183.5L213.8,182.3L210.3,180.1L209.9,179.2L209.8,178.1L210,176.8L210.5,175.9L213.3,174.6L214.8,173.3L213.9,171.8L210.9,168.4L207.3,164.7L204.9,164.6L202.1,165.7L197.7,168.9L195.1,170.3L191.9,172.6L188.4,175.1L185.6,177.7L183.8,179.9L180.6,180.8L179,182.7L173.7,188.2L172.1,188.1L172.1,185.4L172.1,183.2L171.8,182L170.1,180.2L170.1,179.5L170.6,179.1L171.9,179.4L173.6,179.3L174.4,178.6L172.6,176.3L171,174.8L169.5,173.8L169.3,173.2L169.3,172.8L169.5,172.2L171.9,171L172.1,169.9L172,168.6L168.3,166.7L165.4,167.4L162.9,165.3L161.3,163.6L159.3,161.9L157.6,160.9L155.9,158.7L152.9,156.4L150.9,155.8L151,155.4L151.3,155L152.1,154.7L157.5,154.7L158.1,154.4L158.4,153.4L159.1,151.9L160,149.8L159.9,148L154.6,145L150.8,142.4L148.1,138.8L146.2,135.6L146.3,134.5L146.8,133.5L150.9,130.5L151.3,129.7L151.2,129.2L149.7,127.6L147.8,126.1L147.2,124.9L146.1,124.3L143.8,124.2L139.9,122.3L139.1,122.1L138.9,121.7L139.1,121.3L141.9,120.5L141.9,119.9L141,119L139.4,118.4L138,116.8L137.5,115.4L142.5,111.3L144,110.5L147.3,111.3L154.1,114L153.7,115.5L154.4,116.3L156,117.5L158.9,118.7L161.5,119.3L162.8,118.8L164.8,118.3L167.3,119.7L169.6,121.4L170.8,122.1L171.4,122.3L173.2,121.7L175.3,119.5L176.2,116.8L176.4,115.6L175.2,113.8L172.6,111.9L169.7,110.2L167.9,108.7L166.7,105.8L165.5,105.4L165.2,105.1L165,104L165,102.6L165.4,101.5L166.6,101.1L167.8,100.9L168.9,99.9L170.2,97.9L170.8,96.8L173.3,97.4L173.7,99.2L174.1,99.6L175.1,99.4L176.8,98.6L178.2,99.2L180,101.4L182.5,103.7L183.8,105.2L184.3,106.2L185.6,107.2L187.4,108.5L188.8,110.3L190.1,114.7L191.4,115.7L196.2,117.4L197.8,117.7L202.5,118.3L204.1,117.9L206.5,114.1L208.6,110.3L210.7,109.4L214.3,107.6L216.4,105.8L217.4,103.9L219.5,100.2L220.7,98.2L222.8,100L226.6,104.9L231.9,112.8L233.1,115.1L234,117.7L234.7,120.9L235.9,123.6L241.3,130.6L243.6,133.2L247.4,136.5L248.7,137.3L250.5,137.4L253.8,137.5L256.7,138.8L258.2,139.7L259.7,141L261.1,142.5L262.5,146.6L257.3,145.3L252.1,145.5L249.1,146.3L246.2,147.5L243.5,149.2L241.8,152.5L240.4,160L238.3,167L238.3,170.2L239.3,173.3L239.1,174.8L238.2,175.4L236.9,176.7L235.3,183.1L234.5,184.4L233.5,185.2L233.2,184.4L233.2,182.7L231,181.3L229.8,183L228.9,186.4L227.3,190.1L227.2,190.8ZM150.3,136.3L150.6,135.3L149.9,134.8L149.2,134.8L148.6,135.3L148.6,136.5L149.4,136.8ZM138,123.6L137.5,124L136.7,123.6L136.5,122.8L136.6,122L137.3,121.8L137.9,122L138.1,122.8Z" fill="#b8e653" stroke="#0c0e06" stroke-width="1"/></svg>
