<svg xmlns="http://www.w3.org/2000/svg" viewBox="0 0 400 300"><path d="M400,15.1L399.7,15.5L381.7,19L373.3,24.6L362,15.7L346.3,15.5L331.2,11.5L320.6,19.4L318.9,9.5L305.9,0L400,0Z" fill="#2c2c34" stroke="#474751" stroke-width="0.8"/><path d="M0,41.2L1,38.7L0.2,32.3L7.5,30.3L19.9,40.3L23.3,30.8L44.8,32.3L62.3,25.8L74,26.9L81.7,34.4L84,28.2L80.5,4.4L88.8,0L178.5,0L178.5,0L180.6,10.5L180.6,10.5L178.7,25.4L165,25.5L169.7,33.4L161.6,56.5L156.9,62.5L135.5,63.4L123.2,71.4L103.1,68.7L68.1,59.5L62.6,47.1L38.5,53.3L35.7,60.1L20.8,55L8.3,54.1L0,49.1L0,41.2Z" fill="#2c2c34" stroke="#474751" stroke-width="0.8"/><path d="M305.9,0L318.9,9.5L320.6,19.4L305.7,26.9L294.1,51.4L279.4,75.6L259.7,82.2L244.5,80.7L225.8,89.9L216.6,95.2L196.5,88.4L178.2,73.3L170.5,68.9L165.7,56.9L161.6,56.5L169.7,33.4L165,25.5L178.7,25.4L180.6,10.5L193,19.9L202,23.9L222.5,19.4L224.5,12.1L234.2,11L246.1,5.3L248.7,7.6L260.2,3L262.2,0L292.4,0L292.4,0L300.1,3.3L304.7,0L305.9,0Z" fill="#2c2c34" stroke="#474751" stroke-width="0.8"/><path d="M400,159.6L390.5,166.4L354.6,164.6L335.8,159.3L326.3,161.8L319.3,147.8L314.8,141.9L320.5,136.1L314.5,131.8L306.8,139.5L292.5,129.5L290.6,115.3L275.7,107.1L273,96L259.7,82.2L279.4,75.6L294.1,51.4L305.7,26.9L320.6,19.4L331.2,11.5L346.3,15.5L362,15.7L373.3,24.6L381.7,19L399.7,15.5L400,15.1L400,159.6Z" fill="#2c2c34" stroke="#474751" stroke-width="0.8"/><path d="M88.8,0L80.5,4.4L84,28.2L81.7,34.4L74,26.9L62.3,25.8L44.8,32.3L23.3,30.8L19.9,40.3L7.5,30.3L0.2,32.3L0,32.3L0,0Z" fill="#2c2c34" stroke="#474751" stroke-width="0.8"/><path d="M400,245.1L381.4,247.7L364.2,236.3L344.6,245.3L326.5,244.3L324.7,222.7L312.5,212.1L316.6,207.4L313.9,203.5L318.1,192.9L327.3,182.4L315.4,167.9L313.3,155.5L319.3,147.8L319.3,147.8L326.3,161.8L335.8,159.3L354.6,164.6L390.5,166.4L400,159.6L400,245.1Z" fill="#2c2c34" stroke="#474751" stroke-width="0.8"/><path d="M400,260.9L387.5,260.1L374.7,257L345.2,265.4L362,283.5L349.6,288.6L336.1,288.7L323.2,272.2L318.6,279.2L324,298.3L325.5,300L258.2,300L258.2,300L258.1,299.3L269.4,283.9L270.8,273.5L278.8,268.9L279.3,260.4L295.3,257.5L304.6,250.4L317.8,251.1L321.8,245.4L326.5,244.3L326.5,244.3L344.6,245.3L364.2,236.3L381.4,247.7L400,245.1L400,260.9Z" fill="#2c2c34" stroke="#474751" stroke-width="0.8"/><path d="M279.3,260.4L278.8,268.9L270.8,273.5L269.4,283.9L258.1,299.3L253.8,297.1L253.4,290.1L239.9,279.4L237.7,264.1L239.8,242L243.1,231.8L239,226.7L237.4,216.2L248,199.9L249.5,206.1L256.1,203.2L261.3,212.1L267.1,215.5L268.8,227.4L265.7,238.5L269.2,252.5Z" fill="#2c2c34" stroke="#474751" stroke-width="0.8"/><path d="M170.5,68.9L178.2,73.3L196.5,88.4L216.6,95.2L225.8,89.9L231.7,103.5L239.5,113.4L230.1,126.4L219,118.7L202.1,119.2L181.1,113.5L169.7,114.2L164.4,121.4L155.7,113.5L150.5,127.8L162.4,143.9L167.8,154.4L179,167.1L188.3,174.5L197.5,188.6L219.2,201.2L216.5,206.8L193.5,194.5L179.3,182.5L157,172.5L136.5,147.6L141.4,145L130.3,130.6L129.8,118.9L114.1,113.5L106.6,128.4L99.4,116.8L99.9,104.8L100.8,104.2L117.9,105.4L122.3,99.5L130.6,105.2L140.2,105.9L140.1,96.1L148.6,92.6L151,78.3Z" fill="#2c2c34" stroke="#474751" stroke-width="0.8"/><path d="M0,49.1L8.3,54.1L20.8,55L18.9,69.6L8.2,75.6L0,73.6L0,49.1ZM0,32.3L0.2,32.3L0.2,32.3L1,38.7L0,41.2L0,32.3Z" fill="#2c2c34" stroke="#474751" stroke-width="0.8"/><path d="M148.9,300L142.3,285.9L132.2,281.9L125,268L109.2,262.2L98.7,249.2L80.6,247.1L61.5,232.3L39.1,211L22.5,191.8L14.9,158.5L2.8,154.6L0,153L0,73.6L0,73.6L8.2,75.6L18.9,69.6L20.8,55L20.8,55L35.7,60.1L38.5,53.3L62.6,47.1L68.1,59.5L103.1,68.7L100.3,86.1L106.2,101L86.8,95.9L66.9,108.3L68.2,125.5L65.2,135.3L73.3,152.7L96.2,169.8L108.5,197.5L135.7,224.1L154.8,223.9L160.8,231.2L153.9,237.7L175.8,249.5L193.8,259.2L214.7,276L217.3,282L212.7,293.4L199.1,278.5L177.8,273.3L167.6,293.9L176.7,300L148.9,300ZM0,263L5.3,271.4L3,300L0,300Z" fill="#2c2c34" stroke="#474751" stroke-width="0.8"/><path d="M103.1,68.7L123.2,71.4L135.5,63.4L156.9,62.5L161.6,56.5L165.7,56.9L170.5,68.9L151,78.3L148.6,92.6L140.1,96.1L140.2,105.9L130.6,105.2L122.3,99.5L117.9,105.4L100.8,104.2L106.2,101L100.3,86.1Z" fill="#2c2c34" stroke="#474751" stroke-width="0.8"/><path d="M304.7,0L300.1,3.3L292.4,0L304.7,0ZM262.2,0L260.2,3L248.7,7.6L246.1,5.3L234.2,11L224.5,12.1L222.5,19.4L202,23.9L193,19.9L180.6,10.5L178.5,0L262.2,0Z" fill="#2c2c34" stroke="#474751" stroke-width="0.8"/><path d="M312.5,212.1L324.7,222.7L326.5,244.3L321.8,245.4L317.8,251.1L304.6,250.4L295.3,257.5L279.3,260.4L269.2,252.5L265.7,238.5L268.8,227.4L271.9,227.7L273,220.9L287.4,215.9L292.9,214.6L301.3,212.6Z" fill="#2c2c34" stroke="#474751" stroke-width="0.8"/><path d="M225.8,89.9L244.5,80.7L259.7,82.2L273,96L275.7,107.1L290.6,115.3L292.5,129.5L306.8,139.5L314.5,131.8L320.5,136.1L314.8,141.9L319.3,147.8L313.3,155.5L315.4,167.9L327.3,182.4L318.1,192.9L313.9,203.5L316.6,207.4L312.5,212.1L301.3,212.6L292.9,214.6L292.1,212.1L295,208.2L297.7,200.1L294.3,200.3L289.6,194.1L285.5,192.5L282.3,187.2L277.8,185.2L274.3,180.4L269.9,182.3L266.5,193.4L260.7,195.8L262.6,192.9L253.3,186L245.3,182.4L241.8,177.7L235.3,172L241,170.4L244.6,154.5L232.8,141.4L238.9,126.3L230.1,126.4L239.5,113.4L231.7,103.5Z" fill="#2c2c34" stroke="#474751" stroke-width="0.8"/><path d="M256.1,203.2L249.5,206.1L248,199.9L237.4,216.2L239,226.7L233.9,224.1L227,213.4L216.5,206.8L219.2,201.2L222.8,182.8L230.7,175L235.3,172L241.8,177.7L245.3,182.4L253.3,186L262.6,192.9L260.7,195.8Z" fill="#2c2c34" stroke="#474751" stroke-width="0.8"/><path d="M268.8,227.4L267.1,215.5L261.3,212.1L256.1,203.2L260.7,195.8L266.5,193.4L269.9,182.3L274.3,180.4L277.8,185.2L282.3,187.2L285.5,192.5L289.6,194.1L294.3,200.3L297.7,200.1L295,208.2L292.1,212.1L292.9,214.6L287.4,215.9L273,220.9L271.9,227.7Z" fill="#2c2c34" stroke="#474751" stroke-width="0.8"/><path d="M234.7,171.6L234,171.5L232.7,171.8L231.9,172.2L230.6,171.6L229.3,171.3L228.8,171.8L228.5,172.9L229.3,174.7L230.8,177.5L230.6,179.7L229.4,179.9L228.3,178.1L227.4,177.8L226.3,177.9L223.8,180L222,181.8L221.6,183L220.9,184.4L220.7,185.3L220.8,188.6L217.4,189.1L216.7,189.6L216.4,190.6L216.6,194.7L216.9,196.9L218.7,200.4L218.8,201.4L218.6,202.2L217.3,203.5L216.6,204L216.2,204.2L214,203.3L212.9,202.9L208.5,199.8L206.6,198.2L203.5,196L201.6,194.7L200.6,192.8L199.1,192.4L197.4,192.9L195.3,191.6L196.8,190.9L197.1,190.2L196.9,189.3L196.3,188.1L190.9,182.8L188.2,179.3L187.8,178L187.8,174.6L187.2,173.8L183.1,172.2L178.6,167.7L174.1,163.3L173.4,162.1L171.1,158.8L168.2,155.7L165.9,153.8L163.9,151.6L161.8,148.5L160.8,143.8L159.8,139.7L159.2,138.1L157.9,137.5L153.7,132.5L150.2,129.7L150.2,126.5L150.8,121.3L151.5,115.4L152.3,114.6L153.9,114.1L155.8,114.3L157.3,115L160.5,119.1L162.3,120.6L163.8,121.3L165.5,119.5L167.7,115.9L169.6,114.1L176,114.7L179.1,112L184.2,115.6L186.2,116.2L187.4,115.7L189,115.9L192.5,117L193.3,117.4L194.4,117.3L197,115.9L197.9,116.1L200.9,118.9L202.5,118.9L204.2,117.7L205.4,116.7L208.9,117.4L210.8,117L212.5,116.9L214.3,117.4L215.8,118L217.4,118.6L221.7,118.9L223.8,120.6L224.6,122.4L224.6,123.4L224.7,124.5L226,125.6L228.5,126.2L230.1,126.1L231,126L233.2,125.1L235.7,124.5L237.6,125.1L238.5,125.7L238.6,126.4L238.1,129.1L237,132L235.4,135L233.6,137.8L233.2,139.3L233.1,141.7L232.8,143.5L233.1,144.6L233.6,145.6L235.6,146.3L238.2,148.2L240.5,150.6L243.3,153.3L244.2,154.4L244.2,155.4L243.4,156.3L240.9,156.6L238.4,156.3L237.4,156.1L236.5,156.4L235.9,157L236.3,157.7L238.8,161.1L241.9,165.9L242.1,168L241.7,169.5L241,170.6L239.7,170.5L238.7,169.6L237.3,169.7L236.2,169.9Z" fill="#b8e653" stroke="#0c0e06" stroke-width="1"/></svg>
