<svg xmlns="http://www.w3.org/2000/svg" viewBox="0 0 300 300"><path fill="#e8e8ea" d="M253.7,187.6L251.8,187.3L248.4,188.1L245.9,189.1L242.5,187.6L238.9,186.6L237.4,188.1L236.7,191L238.9,196L243,203.9L242.5,209.9L239.1,210.5L236.2,205.5L233.5,204.7L230.6,204.9L223.8,210.7L218.7,215.7L217.4,219.1L215.5,222.8L215,225.5L215.2,234.5L206,236L204,237.3L203.1,240L203.8,251.5L204.5,257.6L209.6,267.2L209.9,270.1L209.2,272.1L205.5,275.8L203.8,277.2L202.6,277.6L196.5,275.2L193.6,274.1L181.4,265.6L176,261L167.5,254.9L162.2,251.4L159.5,246.1L155.4,245L150.5,246.6L144.9,242.7L148.8,240.8L149.8,238.9L149.3,236.5L147.6,233.1L132.5,218.6L125.2,208.8L124,205.2L124,195.7L122.2,193.4L111,189.1L98.6,176.7L86,164.6L84.3,161.1L77.7,152L69.7,143.5L63.3,138.2L58,132.1L52.1,123.6L49.2,110.6L46.5,99.1L44.8,94.7L41.2,93.1L29.7,79.4L20,71.4L20,62.7L21.7,48.2L23.4,31.9L25.8,29.6L30.2,28.3L35.3,28.8L39.7,30.9L48.5,42.1L53.4,46.4L57.5,48.2L62.4,43.4L68.4,33.4L73.6,28.3L91.3,30.1L99.9,22.4L114,32.6L119.6,34.1L123,32.8L127.4,33.3L137.1,36.3L139.3,37.4L142.2,37.3L149.5,33.4L151.9,33.9L160.2,41.6L164.6,41.6L169.5,38.3L172.6,35.4L182.4,37.6L187.7,36.3L192.4,36.1L197.2,37.4L201.6,39.3L206,40.8L217.9,41.6L223.5,46.4L225.7,51.2L225.7,54L226.2,57.2L229.6,60.2L236.7,61.8L241,61.5L243.5,61.3L249.6,58.7L256.6,57.2L261.7,58.9L264.2,60.3L264.7,62.5L263.2,69.9L260.3,77.9L255.7,86.3L250.8,94L249.6,98.2L249.3,104.7L248.6,109.8L249.3,112.8L250.8,115.4L256.4,117.4L263.4,122.6L269.8,129.3L277.6,136.9L280,139.8L280,142.7L277.8,145L271,145.8L263.9,145.2L261.3,144.5L258.8,145.3L257.1,147.1L258.1,149.1L265.2,158.4L273.7,171.7L274.2,177.4L273.2,181.8L271.2,184.8L267.6,184.4L264.9,181.9L261,182.1L257.8,182.7Z"/></svg>
