<svg xmlns="http://www.w3.org/2000/svg" viewBox="0 0 400 300"><path d="M0,215.7L10.9,215.8L37.1,213.3L51.1,224.4L69.8,227.5L83.4,219.7L83.8,213.4L114,211.9L143.3,211.6L122.6,218.9L130.9,230.7L150.5,232.5L168.9,244.7L172.9,264.5L185.6,264L195.1,269.8L175.8,284.3L173.7,293.2L179.8,300L0,300Z" fill="#2c2c34" stroke="#474751" stroke-width="0.8"/><path d="M179.8,300L173.7,293.2L175.8,284.3L195.1,269.8L211.2,278.8L226.3,294.9L226.6,300L179.8,300Z" fill="#2c2c34" stroke="#474751" stroke-width="0.8"/><path d="M35.8,14.4L48.2,16.7L52.6,21.9L46.4,28.3L28,28.2L13.7,29.1L12.3,18.1L15.8,14.3Z" fill="#2c2c34" stroke="#474751" stroke-width="0.8"/><path d="M148.2,210.5L162.2,207.2L167.4,208.1L166.4,226.6L146,229.4L141.6,227.1L148.7,220.3Z" fill="#2c2c34" stroke="#474751" stroke-width="0.8"/><path d="M201.7,152.5L201,153L198.8,152L198,150.8L197.9,146.9L199.2,146.6L201.7,149.6L203.2,150.7Z" fill="#b8e653" stroke="#0c0e06" stroke-width="1"/><circle cx="200" cy="150" r="6" fill="#b8e653" stroke="#0c0e06" stroke-width="1"/></svg>
