<svg xmlns="http://www.w3.org/2000/svg" viewBox="0 0 400 300"><path d="M364.5,300L361.7,295.2L349,280.1L339.5,261.8L347.8,258L356.9,235.3L370.8,234.4L382.4,225.3L393.7,220.4L400,225.2L400,300Z" fill="#2c2c34" stroke="#474751" stroke-width="0.8"/><path d="M400,225.2L393.7,220.4L397.9,212.6L400,210.9L400,225.2Z" fill="#2c2c34" stroke="#474751" stroke-width="0.8"/><path d="M338.7,300L335.3,293.3L326.9,300L279.6,300L279.6,300L283.3,286.1L279.2,266.6L263.6,242.5L266,234.9L254.4,232.2L240.4,215.1L239.1,198L246,201.2L246.5,185.9L256.2,180.9L254.1,171.8L258.6,164.5L259.3,142.1L274.8,147L283.6,129.1L284.6,118.5L295.5,100.1L295,87.5L320.5,72.1L334.7,76.2L333.1,62.4L340,58.3L338.6,49.8L350.1,48.2L356.7,61.4L365.4,66.7L365.9,83.7L365.2,101.9L346.4,120.2L344.1,146L364.9,142.4L369.6,162.3L382.2,166.5L376.4,184.3L391.1,192.3L399.7,196.2L400,196.1L400,210.9L400,210.9L397.9,212.6L393.7,220.4L393.7,220.4L382.4,225.3L370.8,234.4L356.9,235.3L347.8,258L339.5,261.8L349,280.1L361.7,295.2L364.5,300L338.7,300Z" fill="#2c2c34" stroke="#474751" stroke-width="0.8"/><path d="M6.9,0L17.6,6.2L5.1,16.6L0,30.6L0,0ZM0,39L16.5,46.4L35.2,57.4L61,69.9L88.1,72.8L99.5,84.1L114.9,86.2L138.7,91.4L155.1,91L157.4,82.2L154.8,68.1L156.3,58.5L168.4,53.7L170.1,71.3L170.5,75.8L188.5,84.2L200.9,80.8L217.6,82.2L233.8,81.6L235.2,67.9L227.1,60.8L243.1,58L261.1,41.3L283.9,26.9L300.5,32.5L314.6,22.9L323.9,37L317.2,46.4L338.6,49.8L338.6,49.8L340,58.3L333.1,62.4L334.7,76.2L320.5,72.1L295,87.5L295.5,100.1L284.6,118.5L283.6,129.1L274.8,147L259.3,142.1L258.6,164.5L254.1,171.8L256.2,180.9L246.5,185.9L236,151.9L230.6,151.9L227.3,165.7L216.5,154.5L222.6,142.2L231.4,141L240.5,122.6L229.1,118.8L210.8,119.1L191.9,116.1L190.2,100.9L180.8,99.8L165.1,90.3L158.1,105.2L172.4,116.8L160,125L155.6,132.9L167.8,138.7L164.4,151.8L171.3,168L174.4,185.6L171.6,193.4L158.1,193.1L133.7,197.5L134.8,213.5L124.3,226L95.8,240.2L73.6,264.8L58.7,277.9L39.1,291.5L39,300L0,300Z" fill="#2c2c34" stroke="#474751" stroke-width="0.8"/><path d="M227.1,60.8L235.2,67.9L233.8,81.6L217.6,82.2L200.9,80.8L188.5,84.2L170.5,75.8L170.1,71.3L183.2,54.7L193.9,49L208,54.2L218.5,54.8Z" fill="#2c2c34" stroke="#474751" stroke-width="0.8"/><path d="M0,30.6L5.1,16.6L17.6,6.2L25.8,0.8L41.7,7.8L61.6,22.7L72.8,25.9L79.5,36.8L94.8,41.3L110.9,51.1L133.2,56.3L156.3,58.5L156.3,58.5L154.8,68.1L157.4,82.2L155.1,91L138.7,91.4L114.9,86.2L99.5,84.1L88.1,72.8L61,69.9L35.2,57.4L16.5,46.4L0,39L0,30.6Z" fill="#2c2c34" stroke="#474751" stroke-width="0.8"/><path d="M400,196.1L399.7,196.2L391.1,192.3L376.4,184.3L382.2,166.5L369.6,162.3L364.9,142.4L344.1,146L346.4,120.2L365.2,101.9L365.9,83.7L365.4,66.7L356.7,61.4L350.1,48.2L338.6,49.8L317.2,46.4L323.9,37L314.6,22.9L300.5,32.5L283.9,26.9L261.1,41.3L243.1,58L227.1,60.8L218.5,54.8L208,54.2L193.9,49L183.2,54.7L170.1,71.3L168.4,53.7L156.3,58.5L133.2,56.3L110.9,51.1L94.8,41.3L79.5,36.8L72.8,25.9L61.6,22.7L41.7,7.8L25.8,0.8L17.6,6.2L6.9,0L400,0Z" fill="#2c2c34" stroke="#474751" stroke-width="0.8"/><path d="M174.8,184.8L174.9,182.8L174.7,180.9L173.2,175.9L172.1,173.3L172.3,172.4L172.2,172.1L171.8,168.8L171.1,166.7L170.8,164.5L172.4,161.4L171.7,160.8L169.9,160.4L168.3,159.9L167.9,159.1L168.6,156L167.7,154.8L166.5,153.5L166.2,153.1L165.7,152.4L165.2,150.8L166.3,147.6L167.8,143.7L168.1,142.3L168.4,139.8L168.4,138.8L168.3,137.8L166.7,136.7L163.8,136.3L161.8,135.3L160.6,133.9L159.6,133.4L158.4,133.8L156.8,133.3L155.5,131.9L154.4,130.2L154.5,129.4L154.8,128.3L156.9,123.9L157.7,123.8L159.5,124.6L160.2,124.6L161.3,122.9L163,117.9L165.3,117.9L167.4,118.1L168.7,118.4L170.1,118.2L171.6,117.8L172.4,117.2L172.8,116.4L172.6,115.7L170.9,114.7L170.2,114.1L169.7,112.1L169.2,111.3L165.7,111.2L163.9,110.3L162.9,109.5L161.2,106.8L159,104.8L156.9,104.3L156,103.6L155.6,102.6L155.9,101.1L156.5,99.7L157,98.2L158.6,96.2L160.5,94.4L161.5,93.3L162.7,92L162.8,91.3L162.6,90.5L161.6,89.7L160.9,89.5L160.8,89L161.2,87.7L162.2,87.5L164.2,88.7L166.2,90.6L167.4,92.3L167.4,93.7L168.2,93.9L169,93.9L170.4,94.6L171.7,94.4L172.6,94.7L173.1,94.6L173.4,93.8L172.7,92.7L172.2,91.8L172.8,91L173.4,90.9L174.1,91.1L175.1,91.8L175.8,93.3L175.9,95.7L177.4,97.8L179.5,99.3L181,100L183,100.5L184.6,100L185.5,98.5L185.1,97.2L185.3,96L186,95.4L187,95.4L187.8,96.4L190,101.4L189.6,103.7L190.1,109.8L189.5,113.8L189.6,114.7L189.9,115.4L190.2,115.7L190.9,115.7L193.6,116.4L195.9,117.3L198.5,118L202.2,118.6L204.5,118.4L205.7,118.4L208,118.6L214.1,118.2L219.1,118.2L221.2,118.7L222.8,119L228.4,118.5L234.1,118.4L237.2,119.6L240.5,121.7L242.4,123.3L242.7,124.2L242.5,124.9L241.9,125.3L240.8,125.4L238.1,124.3L237.6,124.6L237.7,126.7L237.6,127L237,128.9L235.4,133.1L235.1,134.9L234.8,135.4L234.4,135.7L233.1,135.8L232.1,136.1L231.8,136.7L231.1,138.1L230.7,139.6L230.1,140L228.6,139.2L227.7,139.3L226.6,139.7L225.4,140.5L224.7,141.5L223.7,141.8L221.1,141.6L220.6,141.8L220.2,142.5L219.9,143.4L217.9,145.5L217.1,148.9L216.5,151.1L216.6,152.9L218.4,157.3L219.6,163.1L220,163.7L220.4,163.9L220.6,163.8L220.6,162.6L220.7,161.1L221.2,160.8L221.9,161.1L222.7,162.3L223.4,164.7L224.3,165.5L225.6,165.8L227.1,165.3L228.2,164.2L228.6,163.1L228.4,160.9L228.3,159.2L228.9,157.6L231.5,155.2L231.9,154.5L231.7,152.5L231.7,150.6L232.7,150.5L234,150.8L235.6,149.8L236.1,149.8L236.8,150.8L238,150.7L238.8,154.8L239.8,158.4L239.8,160.2L239.9,163.9L240.3,166.9L240.9,167.6L241.6,169.2L242.3,171.1L242.8,172.1L243.2,175.6L243.7,178L244.2,185.8L244.5,187.3L244.7,188.1L244.7,195.1L244.9,198.1L245.5,200.6L245.6,201.6L245,202.3L244.4,202.5L243.8,201.3L242.5,200.4L240.5,199.4L239.7,198.7L238.6,199L237.3,200.5L236.7,201.9L236.9,203.8L237.3,205.7L238.3,206.8L238.4,208L238.8,209.5L239.3,211L239.5,212.5L239.2,212.5L238,210.6L237,208.4L234.2,204.4L233.3,197.1L233.3,193.5L231.4,189.3L230.1,183.4L229.6,181.9L230.3,180L230.4,179.3L230.1,179.5L229.1,180.4L227.9,178.1L227.1,176L223.8,171.7L222.9,169.7L222.8,167.9L221.4,169.7L219.5,171.1L217.6,173.1L216.3,173.7L212.3,174L209.9,171.4L206.6,164.8L206.1,163.3L206.5,159.5L205.7,155.9L205.7,153.9L205.5,152.6L204.9,152.9L204.6,153.8L204.8,155.2L204.6,156.3L201.6,156.1L198.9,155.6L201.3,157.5L203.8,157.9L205.2,159.6L205.4,161L205.3,162.5L204,163.6L202.8,164.2L203,165.7L204.5,167.4L202.6,167.9L202.2,169.1L202.1,170.7L203.1,172.1L203.4,173.2L203.2,174.2L204.1,175.3L205.3,177.5L205.7,179.1L205.2,181.3L204.5,182.1L203.3,183L200.6,185.8L199.2,189L198.1,190.4L196.7,190.7L196.2,190L194.9,189.2L194.9,187.7L195.3,186.4L197.6,183.4L196.4,183.9L194.9,184.7L192.7,186.3L191.9,184.3L191.5,182.5L191.5,180.2L193.2,176.8L191.2,178.5L190.6,180.6L190.9,183.1L190.6,184.9L189.8,187.2L188.7,188.5L187,189.4L186.2,190.8L185,191.8L185,189.8L184.6,187.2L183.3,180.9L183,182.3L183.7,186.1L183.7,188.6L182.7,190.6L180.8,192.7L179.3,193L178.4,192.7L177.1,191.4L175.6,189.5L175.3,186.5ZM216.3,183.1L214.2,184.6L214.9,175.7L216.5,179L216.9,180.8ZM224.4,178.6L223.4,179.2L222.6,178.7L221.4,176.6L222,174L222.4,173.6L222.9,174.5L223.7,176.3L224.2,177.7ZM208.9,184.9L205.5,185.6L203.7,185.4L207,179.8L206.9,177.3L206.4,175.2L204.7,173.6L204.6,172.4L203.8,170.8L203.5,168.9L205.3,168.3L206.8,169.4L207.1,170L207.3,171.5L208.1,173.2L210.7,176.4L210.7,178.5L210,183.4ZM230.6,190.4L229.9,192.1L229.6,190.9L229.9,189.3L230.1,188.4L230.4,188.4L230.8,189.3ZM232.1,197.3L230.9,197.4L230.4,196.8L230.6,195.9L230.3,193L231.3,192.7L231.8,192.7L232.1,193.6L232.3,195.1ZM206.3,166.2L206.6,167.1L205.5,166.6L204.6,165.9L204.1,165.1L205,164.6Z" fill="#b8e653" stroke="#0c0e06" stroke-width="1"/></svg>
