<svg xmlns="http://www.w3.org/2000/svg" viewBox="0 0 300 300"><path fill="#e8e8ea" d="M97.5,222.4L97.7,218.3L97.4,214.3L94.3,203.8L92.1,198.5L92.4,196.7L92.2,196L91.3,189L90,184.7L89.2,180.2L92.5,173.6L91.2,172.5L87.5,171.7L84.1,170.6L83.2,168.9L84.6,162.4L82.9,159.9L80.3,157.4L79.6,156.4L78.7,155L77.5,151.8L79.9,145L83,137L83.6,133.9L84.2,128.7L84.4,126.7L84.1,124.7L80.6,122.4L74.7,121.5L70.6,119.5L68,116.6L66,115.4L63.5,116.3L60.2,115.2L57.5,112.3L55.2,108.8L55.5,107.1L56,104.9L60.3,95.8L62,95.5L65.7,97.2L67.2,97.3L69.5,93.6L72.9,83.3L77.8,83.3L82.1,83.7L84.9,84.2L87.9,83.9L90.9,83L92.5,81.7L93.4,80.1L93.1,78.6L89.4,76.7L88.1,75.2L87,71.1L85.8,69.5L78.7,69.3L74.9,67.4L72.8,65.7L69.2,60L64.6,55.9L60.3,54.9L58.6,53.5L57.7,51.4L58.3,48.3L59.6,45.4L60.5,42.2L63.9,38.1L67.9,34.4L69.8,32L72.3,29.3L72.6,27.8L72.2,26.2L70.1,24.6L68.6,24.1L68.5,23.1L69.4,20.3L71.5,20L75.6,22.5L79.8,26.5L82.3,30.1L82.3,32.8L83.9,33.3L85.5,33.4L88.4,34.7L91.2,34.3L92.9,35L94.1,34.8L94.6,33.2L93.2,30.8L92.2,29L93.4,27.3L94.7,27L96.2,27.4L98.1,28.9L99.6,32.1L99.9,37L103,41.4L107.3,44.6L110.6,46L114.6,47L118,46L119.8,43L119,40.2L119.5,37.7L120.8,36.4L123,36.4L124.7,38.4L129.3,48.9L128.4,53.6L129.4,66.4L128.2,74.8L128.4,76.6L129,78L129.7,78.6L131,78.6L136.7,80.1L141.4,81.9L146.9,83.5L154.6,84.7L159.3,84.3L161.9,84.3L166.6,84.6L179.3,83.9L189.7,83.8L194,85L197.4,85.4L209.1,84.6L221,84.2L227.4,86.9L234.3,91.2L238.2,94.4L238.9,96.2L238.5,97.8L237.1,98.7L234.8,98.8L229.3,96.6L228.2,97.3L228.4,101.6L228.2,102.2L227.1,106.1L223.7,114.8L223.1,118.7L222.3,119.7L221.6,120.2L218.9,120.4L216.8,121L216.1,122.4L214.8,125.3L213.9,128.3L212.5,129.2L209.6,127.6L207.6,127.8L205.3,128.5L202.9,130.2L201.3,132.3L199.3,133L193.9,132.6L192.8,132.9L192.1,134.4L191.5,136.3L187.2,140.7L185.6,147.8L184.4,152.4L184.5,156L188.2,165.2L190.8,177.3L191.6,178.5L192.5,178.9L192.8,178.7L192.8,176.1L193,173.1L194.2,172.4L195.6,173L197.1,175.7L198.8,180.5L200.5,182.3L203.2,182.9L206.3,181.8L208.7,179.6L209.6,177.2L209,172.6L208.8,169.1L210.2,165.9L215.5,160.9L216.4,159.4L215.9,155.2L215.9,151.2L218,151L220.7,151.6L224.1,149.6L225.1,149.6L226.6,151.7L229,151.4L230.8,159.9L232.7,167.5L232.7,171.1L233,178.8L233.7,185.1L235.1,186.6L236.5,189.9L238,193.9L239.1,196.1L239.8,203.2L240.8,208.3L242,224.4L242.5,227.5L242.9,229.2L242.9,243.9L243.4,250.1L244.5,255.3L244.8,257.3L243.5,258.9L242.3,259.2L241.1,256.6L238.3,254.8L234.2,252.7L232.5,251.4L230.3,251.9L227.5,255L226.3,257.9L226.8,261.9L227.7,265.8L229.7,268.1L229.9,270.6L230.6,273.8L231.7,276.8L232.2,280L231.5,280L229.1,275.9L226.9,271.5L221.1,263.1L219.4,248L219.2,240.5L215.4,231.7L212.7,219.6L211.6,216.4L213,212.5L213.3,211L212.5,211.3L210.5,213.3L207.9,208.4L206.3,204.1L199.5,195.1L197.6,191L197.4,187.1L194.6,191L190.6,193.8L186.6,198L183.9,199.2L175.5,200L170.6,194.4L163.6,180.9L162.6,177.8L163.5,169.7L161.9,162.2L161.9,158.1L161.4,155.5L160.2,156.1L159.6,157.9L159.9,160.7L159.5,163.1L153.4,162.7L147.6,161.6L152.7,165.5L158,166.5L160.8,170.1L161.3,172.9L161.1,176L158.3,178.2L155.8,179.5L156.2,182.6L159.3,186.2L155.5,187.3L154.6,189.7L154.4,193L156.4,196.1L157.1,198.3L156.7,200.3L158.4,202.6L161.1,207.2L161.9,210.5L160.8,215.1L159.3,216.9L157,218.6L151.2,224.4L148.4,231L146,234.1L143,234.7L142,233.3L139.5,231.6L139.5,228.4L140.2,225.8L145.1,219.6L142.4,220.4L139.3,222.2L134.7,225.5L133.1,221.4L132.2,217.6L132.2,212.8L135.9,205.8L131.6,209.3L130.4,213.7L131,218.9L130.4,222.5L128.8,227.3L126.6,230.1L122.9,232L121.3,234.8L118.7,236.9L118.7,232.7L118,227.3L115.3,214.3L114.7,217.1L116.1,225.1L116.1,230.4L114,234.5L110,238.9L106.9,239.5L105.1,238.9L102.3,236.1L99.3,232.2L98.7,225.9Z"/></svg>
