<svg xmlns="http://www.w3.org/2000/svg" viewBox="0 0 400 300"><path d="M43.7,300L32.1,282.8L14,264.6L0,259.3L0,217.2L0,217.2L5.9,215.7L46.9,225.3L39.2,182.9L62.3,199.1L119.1,169.6L126.5,138.1L147.9,130.3L151.4,143.9L162.8,144.5L174.1,160L191.2,178L203.8,175L225.1,192.2L230.6,195.5L237.6,194.7L237.6,194.7L249.2,204.5L284.3,211.4L272,236.7L269,262.7L262.2,268.9L251.1,265.6L251.9,274.8L234,294.9L233.9,300L43.7,300Z" fill="#2c2c34" stroke="#474751" stroke-width="0.8"/><path d="M400,296.4L388.8,293.4L383.4,281L359.3,287.2L356.5,294L341.6,289L329.1,288L318.1,281.4L321.8,272.6L320.9,266.2L328.2,264.2L340.6,274.2L344.1,264.7L365.6,266.2L383.1,259.7L394.8,260.8L400,265.9L400,296.4Z" fill="#2c2c34" stroke="#474751" stroke-width="0.8"/><path d="M400,157.5L385.5,164.3L389.8,175.7L392.5,191.6L400,197.1L400,265.9L400,265.9L394.8,260.8L383.1,259.7L365.6,266.2L344.1,264.7L340.6,274.2L328.2,264.2L320.9,266.2L294.7,255.1L289.7,263L269,262.7L272,236.7L284.3,211.4L249.2,204.5L237.6,194.7L239,178.2L234.1,169.6L236.9,143.6L232.8,102.6L247.5,102.6L253.6,87.7L259.7,50.8L255.2,37L260,28.2L280.4,26L285,35.1L301.5,14.7L296.3,0L353.1,0L353.1,0L354,0.4L353.8,15.2L378.6,7.4L387.5,0L399.2,0L399.2,0L400,0.5L400,157.5Z" fill="#2c2c34" stroke="#474751" stroke-width="0.8"/><path d="M233.9,300L234,294.9L251.9,274.8L251.1,265.6L262.2,268.9L269,262.7L289.7,263L294.7,255.1L320.9,266.2L320.9,266.2L321.8,272.6L318.1,281.4L329.1,288L341.6,289L340.1,300L233.9,300Z" fill="#2c2c34" stroke="#474751" stroke-width="0.8"/><path d="M234.1,169.6L239,178.2L237.6,194.7L230.6,195.5L225.1,192.2L227.8,171Z" fill="#2c2c34" stroke="#474751" stroke-width="0.8"/><path d="M255.2,37L259.7,50.8L253.6,87.7L247.5,102.6L232.8,102.6L236.9,143.6L223.5,134.6L208,117.5L185.4,125.7L167.4,122.5L180,111.8L201.5,52.9L234.9,35.8Z" fill="#2c2c34" stroke="#474751" stroke-width="0.8"/><path d="M340.1,300L341.6,289L341.6,289L356.5,294L359.3,287.2L383.4,281L388.8,293.4L400,296.4L400,300Z" fill="#2c2c34" stroke="#474751" stroke-width="0.8"/><path d="M77.2,0L91,43.4L97.9,59.5L127.6,67.2L124.6,92.8L112.1,104.4L121.9,124.7L99.9,145.1L67.2,144.7L25.6,155.3L14.2,147.8L0,163.6L0,120.6L0,120.6L3,119.4L2.9,119.4L0,118.9L0,39L0,39L10.9,40.1L10.9,40.1L11,40.1L14.5,16.2L4.2,0L77.2,0Z" fill="#2c2c34" stroke="#474751" stroke-width="0.8"/><path d="M400,197.1L392.5,191.6L389.8,175.7L385.5,164.3L400,157.5L400,197.1Z" fill="#2c2c34" stroke="#474751" stroke-width="0.8"/><path d="M189.7,121L191.6,121.9L193.3,122.1L194.1,121.7L193.6,119.3L195,118.1L196.5,117.5L197.2,118.5L198.6,119.5L199.7,119.6L202.7,116.9L203.3,117.4L204,118.4L204.1,119.1L204.3,119.9L204.9,120.3L207.3,120.2L208.4,118.7L209.4,117.7L210.1,118.4L210.5,120.2L211.1,122.5L213.9,125.2L216.3,125.9L219.2,125.4L220.3,124.9L221.1,125.3L221.8,126.7L223.5,128.3L227,129.4L228.1,130.1L228.8,131.1L228.7,132.7L227,136.5L226.7,137.6L227,137.9L226.6,138.7L224.4,141.2L224.3,142.1L225,143.5L225.6,144.7L226.9,145.3L228.1,145.5L230.4,145.6L232.9,145.7L233.2,146.4L236,148.4L236.8,150L238.9,151.6L237.2,153.6L237.5,154.5L238.1,155.4L240.3,155.9L241.4,157.2L241.5,159.2L241.9,162.4L237.4,165.6L236.1,169.1L236,169.8L235.8,169.7L235.3,168.6L234.4,168.6L232.5,168.1L229.8,171.3L228.6,173.9L227.9,175.9L226.8,177.5L226.6,179.2L226.7,179.9L226.4,180.8L226.4,181.7L227.9,183.6L228.3,184.6L230.2,187.9L229.5,189.1L229.1,190.4L228.6,191.4L228,191.9L226,191.9L223.6,192.3L221.9,192.9L221,192.9L219.3,191.3L217.3,188.9L216,187.7L215.5,186.6L213.9,186.2L211.7,185L210.1,183.7L208.8,182.8L206.9,182.4L205.4,182.5L204.9,180.3L204.7,177.7L203.5,176L205.3,169.3L204.2,168.6L203.1,169.1L201.5,170.8L200.7,172.7L200.3,174.3L197.5,175.9L193.2,176.5L188.6,175.9L187.8,175.5L187.6,175.1L187.6,174.5L187.8,173.6L188.7,172.4L188.9,170.8L188,169.5L187.5,169L187.8,167.7L188.4,166L188.5,165.1L185.3,162.2L183,161.6L180.7,161.6L179.1,161.2L178.1,161.4L177.4,162.2L176.6,162.8L176.1,162L175.1,157L174.3,156.2L171.4,155.4L167.5,155L166.5,154.1L165.9,151.8L165.5,149.1L164.2,146.4L163.6,145.7L162.4,144.6L160.3,145.1L157.9,146.6L156.4,147L155.8,147.2L153.9,145.7L151.7,143.3L149.9,140.8L149.5,139.4L150,137.7L149.4,136.5L148.4,134.1L148.2,132.3L158.8,125.7L165.2,122.3L168.3,121.3L169,124.7L169.6,125.8L170.3,126.5L171.3,126.6L172.4,125.8L174,124.9L176.4,125.3L178.3,126.1L178.9,126.9L180.1,127.8L181.8,128L185.2,126.4L188.5,124.1L189.3,122.5Z" fill="#b8e653" stroke="#0c0e06" stroke-width="1"/></svg>
