<svg xmlns="http://www.w3.org/2000/svg" viewBox="0 0 300 300"><path fill="#e8e8ea" d="M135.1,55.9L140.5,58.5L145.1,59.1L147.3,58L145.9,51.4L149.8,48L153.9,46.3L155.9,49.1L159.8,51.9L162.9,52.1L171.2,44.6L172.9,46.1L174.9,48.7L175.1,50.8L175.6,53.1L177.3,54L183.9,53.6L187.1,49.5L189.8,46.8L191.7,48.7L192.7,53.6L194.4,60.2L202.2,67.6L208.8,69.6L216.8,68.1L220,66.8L222.2,67.9L224.1,71.9L228.8,76.2L238.5,79.4L241.7,81.1L243.7,84.1L243.2,88.4L238.5,98.9L237.8,102.1L238.5,103L237.6,105L231.5,111.9L231,114.5L232.9,118.5L234.6,121.8L238.3,123.5L241.7,124L248,124.2L254.9,124.4L255.9,126.5L263.4,132L265.9,136.5L271.5,140.9L266.8,146.3L267.6,148.9L269.3,151.3L275.4,152.8L278.5,156.3L278.8,161.8L280,170.7L267.3,179.7L263.7,189.4L263.4,191.4L262.9,191.1L261.5,188L259,188L253.9,186.5L246.3,195.5L242.9,202.8L241,208.3L238,212.7L237.6,217.2L237.8,219.2L236.8,221.8L236.8,224.3L241,229.5L242.2,232.4L247.3,241.5L245.6,244.9L244.4,248.3L242.9,251.1L241.2,252.7L235.9,252.5L229,253.6L224.4,255.4L222,255.4L217.1,250.9L211.7,244.2L208,240.9L206.6,238L202.2,236.9L196.1,233.5L191.7,229.8L188,227.4L182.9,226.4L178.8,226.5L177.3,220.3L176.8,213.2L173.4,208.5L178.3,189.8L175.4,188L172.2,189.4L167.8,194L165.6,199.3L164.4,203.9L156.8,208.3L144.9,209.9L132,208.3L130,207.2L129.3,205.9L129.3,204.3L130,201.7L132.4,198.6L132.9,194.2L130.5,190.5L129,189.1L129.8,185.4L131.5,180.8L131.7,178.2L122.9,170.1L116.6,168.6L110.2,168.5L105.6,167.5L102.9,167.9L101,170.1L98.8,171.8L97.3,169.7L94.6,155.7L92.4,153.7L84.4,151.3L73.7,150.4L70.7,147.8L69,141.5L68,133.9L64.4,126.5L62.7,124.6L59.5,121.4L53.7,122.7L46.8,127L42.9,128.1L41.2,128.7L35.9,124.4L29.8,117.9L24.9,111L23.7,107.1L25.1,102.4L23.4,98.9L20.7,92.3L20,87.3L49.5,69.1L67.3,59.7L75.9,56.8L77.8,66.3L79.5,69.3L81.5,71.1L84.1,71.5L87.1,69.3L91.5,66.8L98.3,67.9L103.4,70.2L105.1,72.5L108.5,74.7L113.2,75.3L122.7,71L131.7,64.6L134.1,60Z"/></svg>
