<svg xmlns="http://www.w3.org/2000/svg" viewBox="0 0 300 300"><path fill="#e8e8ea" d="M231.1,192.7L222.6,193.1L219.6,194L217.7,194L217.7,193.3L217.4,192.8L206.8,190.2L199.2,188.6L191.6,186.9L191.3,188.5L190.1,189.5L188.6,189.7L187.4,189.4L186.7,190.6L185.4,192.3L183.6,193L181.8,194.1L180.9,194.9L180.2,194.9L178.5,192.8L176.1,192.7L171.9,193L169.9,192.4L167.3,192.2L161,192.6L151.1,191.7L149.4,192.2L148.9,192.6L139.1,192.7L128.2,192.8L119.1,192.8L111.1,193L111.1,192.6L108.5,192.6L108.2,193.3L106,201.6L105.8,206.1L106.9,208.9L108.2,210.7L109.8,211.5L109.9,212.5L108.7,213.8L108.8,215.1L110.3,216.5L110.6,218L109.9,219.5L110,223.1L111.1,228.9L111.2,232.7L110.1,234.4L110.6,237.3L112.6,241.4L113,243.2L112.3,244L110.6,245.1L109,245.1L107.1,242.5L106.2,241.4L104.7,238.9L103.3,236.3L101.5,235.2L99.8,234.2L97.7,231L95.6,229.4L93.5,229.9L90.3,229.2L83.9,228.5L77,228.7L74.1,229.4L71.3,230.6L64.1,233.2L61.3,234.5L59.2,237.7L56.8,237.7L54.3,236.6L52.8,235.1L49.6,235.5L46.4,234L43.3,231.2L41.1,230.3L38.2,228.2L37.4,224.4L35.6,221.6L34,217.9L31.5,216.1L28.6,215.3L24.6,215.4L22,213.9L20,211.7L20.6,209.8L21.5,207L21.5,204.4L22.2,200.2L21.8,194.8L21.1,191.1L23.3,189.5L25.8,188.1L27.3,185.6L29,179.9L29.7,175L29.2,173.2L28.4,171.7L27.7,169.6L27.3,167L27.8,164.7L29.7,162.6L32.1,160.9L33.7,160.1L38.2,159.2L43.9,157.9L47.1,156.4L49.5,154.9L50.8,153.8L52.2,151.3L54.3,149.5L56,147.6L56.2,142.4L56.2,139.4L55,137.8L54.3,136.4L62.6,132.3L62.7,129.4L61.5,126.1L59.9,123.6L59.3,121.3L61.6,118.6L63.6,116.6L65.1,115L68.4,112.4L71.8,111.7L74.9,112.7L84,118.8L85.7,119.2L87.5,118.7L89.9,117.1L93,115.8L94.2,111.8L94,105.8L94.8,103.1L96.4,102.6L101.6,103.7L103,103.8L104.6,103.4L105.6,102.3L105.6,100.5L105.4,98.8L107.1,93.2L110.3,89L116.5,83.8L118.5,82.8L120.8,82.2L132,85.8L133.9,84.9L136.6,76L139.7,75.2L143.4,75L145.9,74.3L147,73.6L152.5,70.3L161.9,65.7L167,63.7L168,63L171.6,59.7L176.5,55.9L179.6,55.2L183.8,54.9L186.6,55.5L187.3,56.6L188.2,57.2L193.8,55.6L201.8,58.1L208.7,60.6L208.2,62.2L208.2,65L207.6,69.4L206.9,74.6L209.7,78.1L213.2,81.8L214.1,83.2L213.2,86.8L213.8,88.9L215.7,92.5L218.7,96.9L221.8,101.6L224,102.2L226.1,102.5L227.4,103.3L229.1,104.2L231,104.7L232.6,105.7L233.6,106.7L234.9,109.5L238.5,111.4L241,113.2L240,114.2L236.9,113.8L234,113L233.6,114.4L233.5,119.6L234,123.9L234.6,124.5L237.5,125.3L244.5,130.9L250.8,136.2L252.9,137.6L256.5,138.1L260.4,138.4L262,137.8L265.8,135.1L267.8,134.9L269.7,135L270.7,135.4L272.4,137.5L274.2,140.9L274.7,143.3L274.6,144.6L274,145.1L270.8,145.7L269.5,146.2L269.1,146.9L269.6,148.6L270.2,149.6L273.6,154.4L278.5,160.8L280,162.4L279.2,164.3L276.7,169.3L274.8,171.4L266.6,178.5L262.5,177.7L254.1,179.1L252.8,177.4L250.9,177.3L248.4,177.5L247.5,178.1L247.2,178.8L246.4,179.8L244.8,182.6L243.6,183.3L242,183.8L240.3,183.7L239.2,184.1L239.2,185.5L238.8,186.7L237.5,187.3L237.1,188.6L237.2,189.9L236.5,190.5L234.8,190.2L233.9,189.8L233,191.6L231.9,192.7Z"/></svg>
