<svg xmlns="http://www.w3.org/2000/svg" viewBox="0 0 400 300"><path d="M20.5,0L20.5,0.3L0,0.3L0,0Z" fill="#2c2c34" stroke="#474751" stroke-width="0.8"/><path d="M0,82.9L2,84.2L12.5,88.5L22.1,100.6L32.5,111.8L33.3,122L36.3,131.3L42.2,135.8L43.6,142.1L42.9,147.2L40.6,148.1L32,146.8L30.8,148.6L27.3,148.9L16,145L8.3,144.8L0,144.6L0,133.2L0,133.2L6.1,129.9L2.9,125.2L0,126.8L0,82.9Z" fill="#2c2c34" stroke="#474751" stroke-width="0.8"/><path d="M235.7,0L253.6,12.4L257.3,20.3L267.2,25.1L274.5,27.9L274.7,38.5L292.2,36.9L292.2,75.1L283.6,86.1L282.2,96.3L268.2,98.9L246.6,100.3L240.8,106.1L230.7,106.7L220.6,106.8L216.6,103.7L207.9,106L193.2,112.8L190.2,117.9L177.9,125.2L175.7,129.3L169.1,132.6L161.5,130.5L157.2,134.4L154.8,145.5L142.3,158.9L142.7,164.4L138.4,171.2L139.4,180.5L132.9,182.9L129.2,184.9L126.8,178.1L122.2,179.9L119.5,179.6L116.6,184.3L104.3,184.1L100,181.7L97.9,183.2L93.1,178.6L93.9,173.8L91.9,171.9L88.6,173.5L89.2,168.2L92.5,164.1L86,157.3L84.1,152.9L80.6,149.3L77.4,148.9L73.6,151.2L68.5,153.3L64.2,156.8L57.4,155.5L53,151.4L50.4,150.9L46.3,153L43.8,153.1L42.9,147.2L42.9,147.2L43.6,142.1L42.2,135.8L36.3,131.3L33.3,122L32.5,111.8L37.8,108.9L40.5,99.2L45.5,98.8L56.5,103.4L65.4,100.2L71.5,101.2L73.9,97.6L137.3,97.4L140.8,85.9L138.1,83.8L130.4,11.9L129.2,0L235.7,0Z" fill="#2c2c34" stroke="#474751" stroke-width="0.8"/><path d="M0,0.3L20.5,0.3L20.5,0L129.2,0L129.2,0L130.4,11.9L138.1,83.8L140.8,85.9L137.3,97.4L73.9,97.6L71.5,101.2L65.4,100.2L56.5,103.4L45.5,98.8L40.5,99.2L37.8,108.9L32.5,111.8L22.1,100.6L12.5,88.5L2,84.2L0,82.9L0,0.3Z" fill="#2c2c34" stroke="#474751" stroke-width="0.8"/><path d="M267.3,246.2L254.3,248.1L250.3,237.1L251.1,200.5L247.9,197.2L247.3,189.3L241.8,183.7L237,178.9L239,170.5L244.4,168.7L247.6,161.6L255.3,160.1L258.8,155.3L264.1,150.6L269.8,150.5L281.8,159.8L281.2,165.2L284.7,174.7L281.7,181.2L283.3,185.5L275.6,195.4L270.7,200.3L267.8,210.4L268.2,220.5Z" fill="#2c2c34" stroke="#474751" stroke-width="0.8"/><path d="M400,132L398.4,131.9L393.8,134.1L384.5,133.6L375.2,140.6L367.2,140.9L348,132.6L340.6,136.5L332.5,136.3L326.6,130.1L310.7,124.1L293.8,126L289.7,129.5L287.5,138.9L282.9,145.4L281.8,159.8L269.8,150.5L264.1,150.6L258.8,155.3L259.1,144.2L240.9,140.5L240.4,132.7L231.6,122.1L229.5,114.6L230.7,106.7L240.8,106.1L246.6,100.3L268.2,98.9L282.2,96.3L283.6,86.1L292.2,75.1L292.2,36.9L314.5,29.4L355.1,0L400,0Z" fill="#2c2c34" stroke="#474751" stroke-width="0.8"/><path d="M400,239.8L399.4,240.1L390.6,233.5L384.6,233.8L375.2,243.1L370.6,243.3L363.1,258.6L359.1,269.8L342.6,275.5L336.7,274.7L330.6,278.2L317.9,277.9L309.5,268L304.3,256.5L293.1,246L281.2,246.2L267.3,246.2L267.3,246.2L268.2,220.5L267.8,210.4L270.7,200.3L275.6,195.4L283.3,185.5L281.7,181.2L284.7,174.7L281.2,165.2L281.8,159.8L282.9,145.4L287.5,138.9L289.7,129.5L293.8,126L310.7,124.1L326.6,130.1L332.5,136.3L340.6,136.5L348,132.6L367.2,140.9L375.2,140.6L384.5,133.6L393.8,134.1L398.4,131.9L400,132L400,239.8Z" fill="#2c2c34" stroke="#474751" stroke-width="0.8"/><path d="M378.9,300L379.5,296.7L373.3,286.2L366.1,283.6L362.9,276.5L358.8,274.2L359.1,269.8L363.1,258.6L370.6,243.3L375.2,243.1L384.6,233.8L390.6,233.5L399.4,240.1L400,239.8L400,300Z" fill="#2c2c34" stroke="#474751" stroke-width="0.8"/><path d="M239,170.5L237,178.9L241.8,183.7L247.3,189.3L247.9,197.2L251.1,200.5L250.3,237.1L254.3,248.1L241.5,251.4L238,245.9L233.8,235.8L232.5,227.9L236,213.5L232.1,207.7L230.5,195.1L230.6,183.4L224,175.1L225.1,170.1Z" fill="#2c2c34" stroke="#474751" stroke-width="0.8"/><path d="M225.1,170.1L224,175.1L230.6,183.4L230.5,195.1L232.1,207.7L236,213.5L232.5,227.9L233.8,235.8L238,245.9L241.5,251.4L216.7,260.7L208,266.2L193.7,270.8L179.6,266.3L180.4,260L173.5,246.3L177.7,228.4L184.3,215L180.1,192.2L177.9,180.2L178.3,171L205.7,170.3L212.7,171.5L217.9,168.8Z" fill="#2c2c34" stroke="#474751" stroke-width="0.8"/><path d="M97.9,183.2L100,181.7L104.3,184.1L116.6,184.3L119.5,179.6L122.2,179.9L126.8,178.1L129.2,184.9L132.9,182.9L139.4,180.5L146.5,184.1L149.3,189.3L156.4,192.7L161.9,188.7L169.3,188.1L180.1,192.2L184.3,215L177.7,228.4L173.5,246.3L180.4,260L179.6,266.3L172.5,266.5L161.4,263.3L151.3,263.5L132.6,266.3L121.6,270.9L106,276.7L102.9,276.3L104.2,263.2L105.7,261.2L105.2,255L98.5,248.3L93.5,247.2L88.9,242.9L92.3,235.8L90.7,228.1L91.4,223.5L93.9,223.5L94.9,216.5L93.7,213.4L95.2,211.2L101,209.3L97.1,196.5L93.5,189.9L94.8,184.4Z" fill="#2c2c34" stroke="#474751" stroke-width="0.8"/><path d="M0,160.6L1.7,159.5L5.2,159.5L7.7,157.4L6.3,152L8.1,150.3L8.3,144.8L8.3,144.8L16,145L27.3,148.9L30.8,148.6L32,146.8L40.6,148.1L42.9,147.2L43.8,153.1L46.3,153L50.4,150.9L53,151.4L57.4,155.5L64.2,156.8L68.5,153.3L73.6,151.2L77.4,148.9L80.6,149.3L84.1,152.9L86,157.3L92.5,164.1L89.2,168.2L88.6,173.5L91.9,171.9L93.9,173.8L93.1,178.6L97.9,183.2L94.8,184.4L93.5,189.9L97.1,196.5L101,209.3L95.2,211.2L93.7,213.4L94.9,216.5L93.9,223.5L91.4,223.5L87,223.1L83.8,229.5L79.3,229.4L76.2,226L77.3,219.6L70.7,209.8L66.5,211.7L63.2,212L58.8,212.9L59,207.1L56.5,202.9L57,198.2L53.6,191.5L49.1,185.8L36.5,185.7L32.8,188.8L28.5,189.1L25.8,192.6L23.9,197L15.5,204.1L8.6,194.6L2.4,188.3L0,187.1L0,160.6Z" fill="#2c2c34" stroke="#474751" stroke-width="0.8"/><path d="M0,144.6L8.3,144.8L8.1,150.3L6.3,152L7.7,157.4L5.2,159.5L1.7,159.5L0,160.6L0,144.6Z" fill="#2c2c34" stroke="#474751" stroke-width="0.8"/><path d="M91.4,223.5L90.7,228.1L92.3,235.8L88.9,242.9L93.5,247.2L98.5,248.3L105.2,255L105.7,261.2L104.2,263.2L102.9,276.3L98.8,276.4L82.5,268.8L68.2,256.8L54.7,248.1L44.1,237.8L47.8,232.7L48.7,228.1L55.8,219.5L63.2,212L66.5,211.7L70.7,209.8L77.3,219.6L76.2,226L79.3,229.4L83.8,229.5L87,223.1Z" fill="#2c2c34" stroke="#474751" stroke-width="0.8"/><path d="M15.5,204.1L23.9,197L25.8,192.6L28.5,189.1L32.8,188.8L36.5,185.7L49.1,185.8L53.6,191.5L57,198.2L56.5,202.9L59,207.1L58.8,212.9L63.2,212L55.8,219.5L48.7,228.1L47.8,232.7L44.1,237.8L39.8,236.6L28.4,230.2L20.2,221.7L17.4,215.9Z" fill="#2c2c34" stroke="#474751" stroke-width="0.8"/><path d="M0,126.8L2.9,125.2L6.1,129.9L0,133.2L0,126.8Z" fill="#2c2c34" stroke="#474751" stroke-width="0.8"/><path d="M355.1,0L314.5,29.4L292.2,36.9L274.7,38.5L274.5,27.9L267.2,25.1L257.3,20.3L253.6,12.4L235.7,0L355.1,0Z" fill="#2c2c34" stroke="#474751" stroke-width="0.8"/><path d="M239,170.5L234.9,170.7L233.4,171.2L232.5,171.2L232.5,170.8L232.4,170.6L227.3,169.3L223.7,168.6L220,167.7L219.8,168.5L219.3,169L218.5,169.1L218,168.9L217.6,169.5L217,170.3L216.2,170.7L215.3,171.2L214.8,171.6L214.5,171.6L213.7,170.6L212.6,170.5L210.5,170.7L209.6,170.4L208.3,170.3L205.3,170.5L200.5,170.1L199.7,170.3L199.5,170.5L194.8,170.5L189.5,170.6L185.2,170.6L181.3,170.7L181.3,170.5L180,170.5L179.9,170.8L178.8,174.8L178.7,177L179.3,178.3L179.9,179.2L180.7,179.6L180.7,180L180.2,180.7L180.2,181.3L180.9,182L181.1,182.7L180.7,183.4L180.8,185.2L181.3,187.9L181.3,189.8L180.8,190.6L181.1,192L182,194L182.2,194.8L181.9,195.2L181.1,195.7L180.3,195.7L179.4,194.5L179,194L178.2,192.7L177.5,191.5L176.7,191L175.9,190.5L174.9,188.9L173.8,188.2L172.8,188.4L171.3,188.1L168.2,187.7L164.9,187.8L163.5,188.2L162.2,188.8L158.7,190L157.3,190.6L156.3,192.2L155.2,192.1L154,191.6L153.3,190.9L151.7,191.1L150.2,190.4L148.7,189.1L147.6,188.6L146.3,187.6L145.9,185.7L145,184.4L144.2,182.6L143,181.8L141.7,181.4L139.7,181.5L138.5,180.7L137.5,179.7L137.8,178.8L138.2,177.4L138.2,176.2L138.6,174.1L138.4,171.5L138,169.8L139.1,169L140.3,168.3L141,167.1L141.8,164.4L142.2,162L141.9,161.1L141.5,160.4L141.2,159.4L141,158.2L141.3,157.1L142.2,156.1L143.3,155.2L144.1,154.8L146.3,154.4L149,153.8L150.5,153.1L151.7,152.4L152.3,151.8L153,150.6L154,149.8L154.8,148.8L154.9,146.3L154.9,144.9L154.3,144.1L154,143.4L158,141.5L158,140.1L157.5,138.5L156.7,137.3L156.4,136.2L157.5,134.9L158.5,134L159.2,133.2L160.8,131.9L162.4,131.6L163.9,132.1L168.3,135L169.1,135.2L170,135L171.1,134.2L172.6,133.6L173.2,131.6L173.1,128.7L173.4,127.5L174.2,127.2L176.7,127.8L177.4,127.8L178.2,127.6L178.7,127.1L178.7,126.2L178.6,125.4L179.4,122.7L180.9,120.7L183.9,118.2L184.9,117.7L186,117.4L191.4,119.1L192.3,118.7L193.6,114.4L195.1,114.1L196.8,114L198,113.6L198.6,113.3L201.2,111.7L205.7,109.5L208.2,108.5L208.6,108.2L210.4,106.6L212.7,104.8L214.2,104.4L216.3,104.3L217.6,104.6L217.9,105.1L218.4,105.4L221,104.6L224.9,105.8L228.2,107L228,107.8L228,109.1L227.7,111.2L227.4,113.8L228.7,115.4L230.4,117.2L230.8,117.9L230.4,119.6L230.7,120.6L231.6,122.3L233,124.5L234.5,126.7L235.6,127L236.6,127.2L237.2,127.6L238,128L239,128.2L239.7,128.7L240.2,129.2L240.8,130.5L242.5,131.4L243.7,132.3L243.3,132.8L241.8,132.6L240.4,132.2L240.2,132.9L240.2,135.4L240.4,137.5L240.7,137.7L242.1,138.1L245.4,140.8L248.5,143.4L249.5,144L251.2,144.3L253.1,144.4L253.9,144.2L255.7,142.9L256.6,142.7L257.6,142.8L258,143L258.9,144L259.7,145.6L259.9,146.8L259.9,147.4L259.6,147.6L258.1,147.9L257.4,148.2L257.3,148.5L257.5,149.3L257.8,149.8L259.4,152.1L261.8,155.2L262.5,156L262.1,156.9L260.9,159.3L260,160.3L256.1,163.7L254.1,163.3L250,164L249.4,163.2L248.5,163.1L247.3,163.2L246.9,163.5L246.7,163.9L246.3,164.3L245.6,165.7L245,166L244.2,166.2L243.4,166.2L242.9,166.4L242.9,167.1L242.7,167.6L242.1,167.9L241.9,168.6L241.9,169.2L241.6,169.5L240.8,169.3L240.3,169.1L239.9,170L239.4,170.5Z" fill="#b8e653" stroke="#0c0e06" stroke-width="1"/></svg>
