<svg xmlns="http://www.w3.org/2000/svg" viewBox="0 0 300 300"><path fill="#e8e8ea" d="M256.2,194.5L250.6,193.5L248.7,193.8L247.3,195.2L244.8,194.9L241.5,194.9L238.2,196.6L236.2,197.1L233.7,195.7L229,191.3L226.2,188.3L224.1,187.5L222,188.4L214.5,189.5L212.7,191.2L209.1,193.3L205.6,194.1L200.5,194.8L198,194.7L196.5,195.7L195.1,198.5L194.4,201.3L193.6,202.5L187.3,203.8L186,205.5L185.5,207L185.7,208.6L180.6,207L176.7,208.1L175.8,209.3L175,211L175.5,212.9L177,214.7L178.3,219.4L178.8,224.2L177.9,227L175,229L169,231.1L163.3,230.1L160.8,230.9L156.6,231.2L152.5,231.8L146.6,233.8L141.2,234.9L136.2,230.9L130.4,228.2L124.2,226.6L122.1,227.7L121.2,228.7L116.1,225.1L113.9,223.9L112.7,222.5L110.6,217.8L109.4,217.6L105.2,219.3L101.1,219.2L98.6,218.9L91.4,219.1L90.3,222.4L89.4,222.9L87.9,223.3L84,223.1L79.1,225.5L73.8,226.9L69.6,227L65.4,226.3L62.9,226.8L57.3,227L53.9,230.5L48.3,230.3L43.8,229.7L44.4,228.7L45.3,214.8L47.6,208.6L47.4,207.3L47,206.4L45,205.3L43.5,202L40.5,193.2L38.9,191.3L34.1,189.5L29.9,186.8L26.4,183.5L20,175.1L23.3,174.2L24.2,172.6L27.5,168L27.8,165.7L27.5,164.4L25.4,162.2L23.9,157.3L24.9,152.7L25.1,150.4L24,148.1L25.1,145.3L27.5,143.7L29,143.2L35.1,142.9L39,137.1L41.4,135.2L43.8,131.9L44.9,130.7L45.9,128.2L46.4,125.6L41.4,121.8L39.8,119.1L37.7,116.1L34.7,114L28.8,110.3L26.4,106.6L25.4,101.8L23.9,98.1L22.1,95.8L21.8,93.8L21.1,91.5L20.9,86.8L22.2,80.6L23.1,78.5L25.2,77.8L30.6,74.4L30.8,70.2L31.8,67.6L33.5,66.1L35,65.1L38,67.5L45,71.4L48.5,74.3L48.3,76.1L46.7,77.9L43.7,79.6L41.9,81.9L41.3,84.7L41.9,86.7L44,88.4L56.7,86.1L69.6,87.3L86.9,91.2L98.4,92.5L107,90.7L122.7,93.9L137.3,96.9L151.3,97.8L159.1,95.5L164.7,92.3L169.5,86.3L181.3,78.5L192.7,73.9L207.6,70.4L217.6,69.1L219,70.4L231.7,77.7L237.3,77.7L241.9,79L243.6,80.9L244.8,81.4L250.8,79.6L253.5,83.6L257.7,89.1L264.9,92L271.2,93.6L273.3,93.8L280,93.7L279,107.6L274.9,114.1L268.9,111.9L261.1,113.7L257.1,120.9L254.7,123.1L252.6,125.7L251.2,135.1L250.9,150.5L248.1,152.4L245.4,152.9L234.1,166.4L240.6,170.2L243.4,173.1L248.2,181.1L254.8,190.1Z"/></svg>
