<svg xmlns="http://www.w3.org/2000/svg" viewBox="0 0 400 300"><path d="M400,88.5L395.7,89.4L368.5,105.7L357.4,100L361.8,86.7L339.9,78.4L343.5,73L362.6,63.4L359.6,59.9L359.6,59.9L364.9,52.8L379.1,59L385.6,60.1L388.1,65.8L391.2,66.7L391.3,69.2L400,75.3L400,88.5Z" fill="#2c2c34" stroke="#474751" stroke-width="0.8"/><path d="M400,45.1L390.2,51.2L391.2,66.7L388.1,65.8L385.6,60.1L379.1,59L364.9,52.8L359.6,59.9L356.9,56.8L325.7,49.5L324.4,38.6L305.8,42.2L298.4,58.2L282.9,79.4L273.8,74.5L264.4,79.1L255.4,73.8L260.5,70.7L264,60.9L269.5,51.7L268.1,46.5L272.2,44.2L274.2,48.1L286,49L291.3,46.9L287.6,43.9L289,39.6L282,32.2L279.1,19.8L271.8,15L273.2,4.9L267.7,0L400,0ZM210.2,0L209.7,0.8L194.9,3.7L188,8.2L178.7,1L165.9,0.8L162.8,0L210.2,0ZM150.2,0L144.9,4L144.2,0L150.2,0Z" fill="#2c2c34" stroke="#474751" stroke-width="0.8"/><path d="M29.7,0L28.6,8.9L17.3,9L21.2,15.4L14.5,34.4L10.7,39.3L0,39.8L0,0Z" fill="#2c2c34" stroke="#474751" stroke-width="0.8"/><path d="M144.2,0L144.9,4L132.6,10.2L123.2,30.2L111,50L95,55.5L82.5,54.2L67.1,61.7L59.6,66.1L43.1,60.5L28.1,48.1L21.8,44.6L17.9,34.7L14.5,34.4L21.2,15.4L17.3,9L28.6,8.9L29.7,0L34.5,0L34.5,0L40.3,4.4L47.7,7.6L64.5,4L65.5,0L144.2,0Z" fill="#2c2c34" stroke="#474751" stroke-width="0.8"/><path d="M267.7,0L273.2,4.9L271.8,15L279.1,19.8L282,32.2L289,39.6L287.6,43.9L291.3,46.9L286,49L274.2,48.1L272.2,44.2L268.1,46.5L269.5,51.7L264,60.9L260.5,70.7L255.4,73.8L251.8,60.7L254,48.4L253.3,35.6L241.8,18.1L235.4,5.6L231.5,0L267.7,0Z" fill="#2c2c34" stroke="#474751" stroke-width="0.8"/><path d="M162.8,0L165.9,0.8L178.7,1L188,8.2L194.9,3.7L209.7,0.8L210.2,0L231.5,0L231.5,0L235.4,5.6L241.8,18.1L253.3,35.6L254,48.4L251.8,60.7L255.4,73.8L255.4,73.8L264.4,79.1L273.8,74.5L282.9,79.4L283.3,86.7L273.6,92.8L267.5,90.1L261.9,123.9L250.2,121L235.6,110.9L212,117.4L202.1,124.4L172.7,123L157.3,118.7L149.5,120.7L143.8,109.2L140.1,104.3L144.8,99.6L139.8,96.1L133.5,102.4L121.9,94.2L120.3,82.6L108.1,75.9L105.9,66.8L95,55.5L111,50L123.2,30.2L132.6,10.2L144.9,4L150.2,0L162.8,0Z" fill="#2c2c34" stroke="#474751" stroke-width="0.8"/><path d="M122.4,300L116.5,284.2L113,267.3L105.2,255.5L94.9,240.8L93.6,233.4L102.9,220.7L104.1,212.2L110.6,208.4L111,201.5L124.1,199.1L131.7,193.3L142.5,193.8L145.9,189.2L149.7,188.3L149.7,188.3L164.5,189.1L180.5,181.7L194.7,191.1L212.8,188.5L213,175.2L222.8,182.3L216.6,199L211.8,202L199.6,201.2L189.2,198.7L165,205.6L178.8,220.4L168.6,224.6L157.5,224.7L146.9,211.1L143.2,216.9L147.7,232.5L157.7,244.7L150.1,250.3L161.3,262.2L171.2,269.6L171.5,283.9L152.9,277.2L158.8,290.1L146.2,292.8L148.6,300L122.4,300Z" fill="#2c2c34" stroke="#474751" stroke-width="0.8"/><path d="M239.4,300L231.7,284L217.1,269.9L226.8,250L214.1,237.6L236.3,212.6L267.2,211.6L275.6,191.5L313.8,195L337.8,177.7L361.2,170.1L394.3,169.5L400,172.6L400,300ZM213,175.2L233.4,166.7L250.7,170.3L253.1,180.7L270.6,189.3L266.9,195.8L243.1,197.3L234.6,205.5L217.9,219.7L211.6,207.4L211.8,202L216.6,199L222.8,182.3Z" fill="#2c2c34" stroke="#474751" stroke-width="0.8"/><path d="M111,201.5L110.6,208.4L104.1,212.2L102.9,220.7L93.6,233.4L90.1,231.6L89.8,225.9L78.7,217L76.9,204.5L78.6,186.4L81.3,178.1L78,173.8L76.7,165.3L85.3,151.9L86.6,157L92,154.6L96.3,161.9L101,164.7L102.4,174.4L99.9,183.6L102.7,195Z" fill="#2c2c34" stroke="#474751" stroke-width="0.8"/><path d="M0,65.6L3.9,63.9L5.9,52.3L21.8,44.6L21.8,44.6L28.1,48.1L43.1,60.5L59.6,66.1L67.1,61.7L72,72.9L78.4,81L70.7,91.7L61.6,85.4L47.8,85.8L30.5,81.1L21.2,81.7L16.8,87.6L9.7,81.1L5.4,92.8L15.2,106L19.6,114.6L28.8,125L36.4,131.1L44,142.6L61.7,153L59.5,157.6L40.7,147.5L29.1,137.6L10.8,129.4L0,116.3L0,65.6Z" fill="#2c2c34" stroke="#474751" stroke-width="0.8"/><path d="M0,171.7L9,171.6L13.9,177.5L8.2,182.9L26.2,192.5L40.9,200.5L58.1,214.3L60.2,219.2L56.4,228.6L45.3,216.3L27.9,212L19.5,229L33.9,238.6L31.5,252.1L23.2,253.6L12.5,275.5L4.1,277.5L4.2,269.7L8.3,256L12.6,250.5L4.9,235.5L0,225.1L0,171.7ZM0,269.4L0.9,269.3L0,271.8L0,269.4Z" fill="#2c2c34" stroke="#474751" stroke-width="0.8"/><path d="M0,39.8L10.7,39.3L14.5,34.4L17.9,34.7L21.8,44.6L5.9,52.3L3.9,63.9L0,65.6L0,39.8Z" fill="#2c2c34" stroke="#474751" stroke-width="0.8"/><path d="M65.5,0L64.5,4L47.7,7.6L40.3,4.4L34.5,0L65.5,0Z" fill="#2c2c34" stroke="#474751" stroke-width="0.8"/><path d="M61.7,153L44,142.6L36.4,131.1L28.8,125L19.6,114.6L15.2,106L5.4,92.8L9.7,81.1L16.8,87.6L21.2,81.7L30.5,81.1L47.8,85.8L61.6,85.4L70.7,91.7L77.9,91.6L72.9,104L82.6,114.7L79.6,127.8L74.9,129L71.2,131.5L64.7,137.9Z" fill="#2c2c34" stroke="#474751" stroke-width="0.8"/><path d="M138.2,161.9L148.2,170.6L149.7,188.3L145.9,189.2L142.5,193.8L131.7,193.3L124.1,199.1L111,201.5L102.7,195L99.9,183.6L102.4,174.4L104.9,174.7L105.9,169.1L117.7,165L122.1,163.9L129,162.3Z" fill="#2c2c34" stroke="#474751" stroke-width="0.8"/><path d="M67.1,61.7L82.5,54.2L95,55.5L105.9,66.8L108.1,75.9L120.3,82.6L121.9,94.2L133.5,102.4L139.8,96.1L144.8,99.6L140.1,104.3L143.8,109.2L138.9,115.5L140.6,125.7L150.3,137.6L142.8,146.2L139.4,154.8L141.5,158.1L138.2,161.9L129,162.3L122.1,163.9L121.5,161.9L123.9,158.7L126.1,152L123.3,152.2L119.4,147.1L116.1,145.8L113.5,141.5L109.7,139.8L106.9,135.9L103.3,137.5L100.5,146.5L95.8,148.5L97.3,146.2L89.7,140.5L83.1,137.5L80.3,133.7L74.9,129L79.6,127.8L82.6,114.7L72.9,104L77.9,91.6L70.7,91.7L78.4,81L72,72.9Z" fill="#2c2c34" stroke="#474751" stroke-width="0.8"/><path d="M92,154.6L86.6,157L85.3,151.9L76.7,165.3L78,173.8L73.8,171.7L68.2,163L59.5,157.6L61.7,153L64.7,137.9L71.2,131.5L74.9,129L80.3,133.7L83.1,137.5L89.7,140.5L97.3,146.2L95.8,148.5Z" fill="#2c2c34" stroke="#474751" stroke-width="0.8"/><path d="M102.4,174.4L101,164.7L96.3,161.9L92,154.6L95.8,148.5L100.5,146.5L103.3,137.5L106.9,135.9L109.7,139.8L113.5,141.5L116.1,145.8L119.4,147.1L123.3,152.2L126.1,152L123.9,158.7L121.5,161.9L122.1,163.9L117.7,165L105.9,169.1L104.9,174.7Z" fill="#2c2c34" stroke="#474751" stroke-width="0.8"/><path d="M251,171.4L248.4,170.9L247.4,171.1L246.8,171.7L245.6,171.6L244,171.6L242.4,172.4L241.5,172.7L240.2,172L238,169.9L236.6,168.4L235.6,168L234.6,168.5L231,169L230.1,169.8L228.4,170.8L226.7,171.2L224.3,171.5L223.1,171.5L222.3,172L221.7,173.3L221.3,174.7L221,175.2L218,175.9L217.3,176.7L217.1,177.4L217.2,178.2L214.7,177.4L212.8,177.9L212.4,178.5L212,179.3L212.3,180.2L213,181.1L213.6,183.4L213.8,185.7L213.4,187L212,188L209.2,189L206.4,188.5L205.2,188.9L203.2,189L201.2,189.3L198.3,190.3L195.7,190.8L193.4,188.9L190.6,187.6L187.6,186.8L186.6,187.4L186.2,187.8L183.7,186.1L182.6,185.5L182.1,184.9L181,182.6L180.5,182.5L178.4,183.3L176.5,183.3L175.3,183.1L171.8,183.2L171.3,184.8L170.9,185L170.2,185.2L168.3,185.1L165.9,186.3L163.4,187L161.4,187L159.3,186.7L158.1,186.9L155.5,187L153.8,188.7L151.1,188.6L149,188.3L149.3,187.8L149.7,181.1L150.8,178.2L150.7,177.6L150.5,177.1L149.5,176.6L148.8,175L147.4,170.7L146.6,169.9L144.3,169L142.3,167.7L140.6,166.1L137.5,162.1L139.1,161.7L139.5,160.9L141.1,158.6L141.2,157.6L141.1,156.9L140.1,155.9L139.4,153.5L139.9,151.3L140,150.2L139.4,149.1L140,147.7L141.1,147L141.8,146.7L144.8,146.6L146.7,143.8L147.8,142.9L149,141.3L149.5,140.7L150,139.5L150.2,138.3L147.8,136.4L147,135.2L146,133.7L144.6,132.7L141.8,130.9L140.6,129.1L140.1,126.8L139.4,125.1L138.5,123.9L138.4,123L138,121.9L137.9,119.6L138.6,116.6L139,115.6L140,115.3L142.6,113.7L142.7,111.6L143.2,110.4L144,109.6L144.7,109.2L146.2,110.3L149.5,112.2L151.2,113.6L151.1,114.5L150.3,115.3L148.9,116.1L148,117.2L147.7,118.6L148,119.6L149,120.4L155.2,119.3L161.4,119.9L169.7,121.7L175.2,122.4L179.3,121.5L186.9,123L193.9,124.5L200.6,124.9L204.4,123.8L207.1,122.3L209.4,119.4L215.1,115.6L220.5,113.4L227.7,111.7L232.5,111.1L233.2,111.7L239.3,115.2L242,115.2L244.2,115.8L245,116.8L245.6,117L248.4,116.1L249.7,118.1L251.8,120.7L255.2,122.1L258.2,122.9L259.3,123L262.5,122.9L262,129.6L260,132.7L257.2,131.7L253.4,132.5L251.5,136L250.3,137.1L249.3,138.3L248.7,142.8L248.5,150.2L247.1,151.1L245.8,151.4L240.4,157.9L243.5,159.7L244.9,161.1L247.2,164.9L250.4,169.3Z" fill="#b8e653" stroke="#0c0e06" stroke-width="1"/></svg>
