<svg xmlns="http://www.w3.org/2000/svg" viewBox="0 0 400 300"><path d="M225.3,198.5L229.7,197.2L230.6,204.5L249.7,200.3L269.9,201L284.7,201.8L301.4,183.6L319.6,166.3L335.1,149.6L339.7,158.9L343,180.2L330.5,180.4L328.5,197.8L332.9,201.5L321.8,206.8L321.8,217.7L314.6,228.8L314,239.4L309.1,245L235.6,231.7L226.3,204.7Z" fill="#2c2c34" stroke="#474751" stroke-width="0.8"/><path d="M206.5,184.8L204.9,165.2L211.5,151L218.2,148L225.6,156.5L226,172.4L220.7,188.2L213.9,190.2Z" fill="#2c2c34" stroke="#474751" stroke-width="0.8"/><path d="M137.3,41.1L142.4,53.5L140.2,59.9L148,81L130.8,81.7L124.7,68.4L102.9,65.7L120.8,38.7Z" fill="#2c2c34" stroke="#474751" stroke-width="0.8"/><path d="M132.6,0L130.2,12.5L138,12.5L138.3,27.6L151.7,42.5L137.3,41.1L120.8,38.7L102.9,65.7L57.5,63.5L0,16.1L0,0Z" fill="#2c2c34" stroke="#474751" stroke-width="0.8"/><path d="M400,287.9L394.1,299.3L383.1,297.9L381.4,300L312.2,300L312.2,300L325.2,258.1L314,239.4L314,239.4L314.6,228.8L321.8,217.7L321.8,206.8L332.9,201.5L328.5,197.8L330.5,180.4L343,180.2L354,198.6L367.7,208.3L385.5,211.8L400,216.6L400,287.9ZM339.7,158.9L335.1,149.6L342.2,140.3L345.2,142.7L343,153.9Z" fill="#2c2c34" stroke="#474751" stroke-width="0.8"/><path d="M400,162.9L395,161.7L367.5,158.2L357.1,124.8L345.4,119.9L326.6,124.8L302,138L272.1,129L247.4,107.9L223.9,100L207.6,73.7L189.5,36.2L176.4,40.8L160.9,31.4L151.7,42.5L151.7,42.5L138.3,27.6L138,12.5L130.2,12.5L132.6,0L400,0Z" fill="#2c2c34" stroke="#474751" stroke-width="0.8"/><path d="M0,16.1L57.5,63.5L102.9,65.7L124.7,68.4L130.8,81.7L148,81L157.6,104.9L169.7,111.2L173.8,120.8L190.5,132.4L191.9,143.6L189.5,152.7L192.6,161.8L199.7,169.4L202.9,178.2L206.5,184.8L213.9,190.2L220.7,188.2L225.3,198.5L226.3,204.7L235.6,231.7L309.1,245L314,239.4L325.2,258.1L312.2,300L0,300Z" fill="#2c2c34" stroke="#474751" stroke-width="0.8"/><path d="M201.6,154.3L200.8,156.4L200,155.6L198.2,152.1L198.7,149.6L197.8,146L198.2,144.9L200.5,144.4L201.1,144.6L200.4,145.7L201.7,147.8L201.9,151.1Z" fill="#b8e653" stroke="#0c0e06" stroke-width="1"/><circle cx="200" cy="150" r="6" fill="#b8e653" stroke="#0c0e06" stroke-width="1"/></svg>
