<svg xmlns="http://www.w3.org/2000/svg" viewBox="0 0 400 300"><path d="M295.2,300L294.5,299L270.4,294.4L256.6,287L241.1,282.8L231.3,278.7L221.1,272.4L207.9,241.3L193.7,227.5L188.9,213.3L191.3,200.5L186.9,177.9L197,176.8L205.9,167.9L215.4,155.1L221.5,150L221.2,142L215.9,136.5L214.5,126.8L221.5,123.8L222.9,109.4L213.3,95.6L221.9,92.7L248.6,93L298.4,91.1L298.4,91.1L302.6,93.8L391.1,143.6L392.8,157.8L400,162.8L400,300Z" fill="#2c2c34" stroke="#474751" stroke-width="0.8"/><path d="M4.3,300L2.7,286.4L6.3,271.6L1.4,262L0.9,246.5L0,246.5L0,0L222.5,0L222,10.7L231.7,14L223.9,22.7L214.5,29.2L205.2,41.9L200,53.3L198.7,72.9L193,82.2L192.8,100.7L185.7,107.5L184.9,122L181.5,123.9L179.2,137.3L185.4,148.4L186.9,177.9L186.9,177.9L191.3,200.5L188.9,213.3L193.7,227.5L207.9,241.3L221.1,272.4L211.5,269.9L178.7,274L172.1,277L165.2,292.8L168.8,300L4.3,300Z" fill="#2c2c34" stroke="#474751" stroke-width="0.8"/><path d="M400,162.8L392.8,157.8L391.1,143.6L302.6,93.8L298.4,91.1L298.2,65.2L305.2,55.3L317.2,39.1L326.1,21.3L317.9,0L400,0Z" fill="#2c2c34" stroke="#474751" stroke-width="0.8"/><path d="M168.8,300L165.2,292.8L172.1,277L178.7,274L211.5,269.9L221.1,272.4L221.1,272.4L231.3,278.7L241.1,282.8L256.6,287L270.4,294.4L276.3,300L168.8,300Z" fill="#2c2c34" stroke="#474751" stroke-width="0.8"/><path d="M276.3,300L270.4,294.4L270.4,294.4L294.5,299L295.2,300L276.3,300Z" fill="#2c2c34" stroke="#474751" stroke-width="0.8"/><path d="M0,246.5L0.9,246.5L1.4,262L6.3,271.6L2.7,286.4L4.3,300L0,300Z" fill="#2c2c34" stroke="#474751" stroke-width="0.8"/><path d="M317.9,0L326.1,21.3L317.2,39.1L305.2,55.3L298.2,65.2L298.4,91.1L298.4,91.1L248.6,93L221.9,92.7L213.3,95.6L198.7,103.1L192.8,100.7L193,82.2L198.7,72.9L200,53.3L205.2,41.9L214.5,29.2L223.9,22.7L231.7,14L222,10.7L222.5,0L317.9,0Z" fill="#2c2c34" stroke="#474751" stroke-width="0.8"/><path d="M213.3,95.6L222.9,109.4L221.5,123.8L214.5,126.8L201.6,125.3L194.1,139.2L179.2,137.3L181.5,123.9L184.9,122L185.7,107.5L192.8,100.7L198.7,103.1Z" fill="#2c2c34" stroke="#474751" stroke-width="0.8"/><path d="M216.6,126.5L216.1,127.2L213.9,131.8L213.4,132.4L213.6,132.9L214.6,133.7L214.1,135.2L213.8,135.5L213.4,136.9L213.6,138.1L214.2,138.6L215.6,139.2L217.8,139.6L220.4,140.6L222.1,140.8L222.5,141.6L222.4,142.9L222.9,144.1L222.9,146.1L222.3,147.9L219.7,148.8L218.4,149.7L217.9,150.2L218.3,150.7L218.5,151.5L216,153.3L213.4,155.6L212.8,157.2L212.3,159.1L211.6,160.3L209.6,162L207.6,165.5L206.7,167.8L201.7,173.2L197.4,175.9L196.1,176.9L188.5,176.7L187.8,173L186.7,168L184.1,163.5L183.8,161.6L183.9,158L183.9,152.8L183.7,150.1L183.8,148.1L184.2,144.6L184.1,142.5L182.4,140.1L180.2,137.6L179.1,136.3L179,135.3L179,134.3L179.3,133L180.2,131.5L181.1,131.3L183.5,131.9L185.8,133.2L187.1,136.1L188.1,136.5L190,136.5L194.5,136.1L195.7,136.2L197.8,135.5L199.8,134.3L200.4,133L200.9,130.1L201.3,125.1L202.4,125L205.3,126.8L205.9,126.9L206.5,126.9L207.6,126L208.8,125.2L209.7,125.3L213,124.4L214.9,125.9L216,126.4Z" fill="#b8e653" stroke="#0c0e06" stroke-width="1"/></svg>
