<svg xmlns="http://www.w3.org/2000/svg" viewBox="0 0 300 300"><path fill="#e8e8ea" d="M227.9,30.5L225.2,33.7L214.3,56.4L212.2,59.8L213,61.9L217.8,66.1L215.2,73.3L213.9,75.2L212.2,81.9L213,88L215.6,90.3L223.1,93.3L234,95.4L246.6,100.4L254.9,101.5L257.1,105.1L256.6,111.6L258.8,117.5L258.8,127.6L256.2,136.7L243.1,140.9L236.6,145.5L234.4,147.8L236.1,150.3L237,154.1L224.8,163L212.2,174.8L209.1,182.6L206.5,191.9L203,198L193,206.4L183.4,223.7L178.6,235.1L154.1,262.1L132.8,275.4L126.2,280L88.3,279.2L85.2,261L79.6,236.1L66.5,213.8L65.2,204.5L65.6,186.4L65.6,160.9L64.7,147.4L65.2,137.3L66.9,120L66.5,109.7L58.2,97.9L47.3,85.3L41.6,78.9L41.2,73.9L41.2,69.3L42.9,62.5L47.3,55.2L51.6,54.3L63.4,57.3L75.2,63.6L81.7,77.9L86.5,80L95.7,80L118.4,78.1L124,78.3L134.5,74.9L144.5,68.8L147.6,62.5L149.8,48.4L152,23.2L157.2,22.9L171.6,31.8L174.6,32.4L177.7,32.2L182.9,27.8L189,24L193.4,24.2L210,20L219.1,27.6L224.8,29.9Z"/></svg>
