<svg xmlns="http://www.w3.org/2000/svg" viewBox="0 0 300 300"><path fill="#e8e8ea" d="M121.8,280L121.3,278.6L128.2,276.7L126.9,271.3L122.5,264.7L120.9,263.6L120,260.3L121,258.2L120.4,256.7L120.1,252.4L118,247.5L121.9,247.4L121.9,231.7L121.9,216.8L121.9,204L121.9,193.9L121.2,181.8L121,172.9L120.9,161.1L119.5,157.4L113.5,151.2L111.9,148L111.7,143.7L110.4,139.3L110.2,131.6L110.2,122.6L109.7,121.2L103.2,116.9L94.2,110.9L87.3,106.2L86.7,105.9L86.1,104.7L87,91L88.5,89.2L90.6,83.6L91.8,79.1L92.7,79.1L94.2,77.6L95.3,75.4L96.5,75.9L98.6,76.3L99.5,75.5L99.3,73.8L99.9,72.1L101.6,71.4L102,69.9L102,68.1L103.4,67.7L105.6,67.7L107.6,67.1L109.1,66.3L111.1,62.7L112.2,61.5L112.5,60.6L113.7,59.8L116.8,59.5L119.2,59.7L120.9,61.8L131.5,60L136.8,61L147.1,52.1L149.5,49.5L152.6,43.1L153.7,40.7L154.7,36.3L152.6,28.3L152.8,26.9L157,25.2L162.4,23.8L164.4,23.7L165.8,23L167.7,21.3L171,20L172.8,20.4L174,20.7L185.3,31.3L190.2,36.7L191.5,39.4L194.1,41.4L197.8,42.6L201.3,45.3L203.8,49.2L202.2,52L199.5,57.6L199.3,62L205.6,71.3L206.4,72.2L208,73.7L208.9,75.4L209.7,79.9L210.1,85.1L210.6,88.5L213.6,93.4L213.9,95.4L211.8,102.6L211.2,103.4L210.7,103.6L207.4,103L205.9,103.7L204.3,106.2L203.1,108.7L203.1,109.7L205.9,114.3L204.1,120.8L202.3,124.9L198.9,127.3L195.9,127.9L193.8,129L192.6,130.4L192.7,135.1L188.4,139.4L186,142.4L184.8,144.2L185.3,149.7L183.8,155.3L180.9,159.7L174.9,160.7L169.7,161.2L168,172.4L168,179.4L167.6,186.7L166.7,189.7L167.1,193.8L166.7,203.2L166.1,210.6L167,212.6L167.4,216.9L167.4,221.4L168.8,224.5L170.1,227.2L170.1,228.7L169.4,229.5L168.8,230.7L168.8,241.3L168.9,244.4L168.6,246.4L167.4,248L167.9,253.4L168.8,256.8L169.7,259.3L168.8,261.4L168,264.2L167,271.2L166.8,273.6L149.5,275.4L130,278.2Z"/></svg>
