<svg xmlns="http://www.w3.org/2000/svg" viewBox="0 0 400 300"><path d="M0,23.4L43.3,23.3L47.7,8.7L44.3,6.1L43.6,0L235.6,0L235.6,0L228.5,9.1L226.7,21.9L209,25.2L181.7,27L174.3,34.3L161.5,35.1L148.7,35.2L143.7,31.2L132.7,34.2L114,42.8L110.2,49.2L94.7,58.5L91.9,63.8L83.6,67.9L73.9,65.2L68.5,70.2L65.5,84.2L49.6,101.2L50.1,108.1L44.6,116.7L45.9,128.6L37.7,131.6L33,134.1L29.9,125.4L24.2,127.7L20.7,127.3L17.1,133.3L1.6,133.1L0,132.2L0,23.4Z" fill="#2c2c34" stroke="#474751" stroke-width="0.8"/><path d="M43.6,0L44.3,6.1L47.7,8.7L43.3,23.3L0,23.4L0,0Z" fill="#2c2c34" stroke="#474751" stroke-width="0.8"/><path d="M400,74.1L384.5,68.1L373.7,66.9L368,69.8L356.2,69.2L344.4,77.9L334.3,78.4L310,67.8L300.6,72.9L290.4,72.5L282.9,64.8L262.8,57.1L241.4,59.5L236.2,64L233.4,75.8L227.6,84L226.2,102.3L211,90.5L203.8,90.6L197.1,96.6L197.5,82.5L174.5,77.9L173.8,68L162.6,54.5L159.9,45.1L161.5,35.1L174.3,34.3L181.7,27L209,25.2L226.7,21.9L228.5,9.1L235.6,0L400,0Z" fill="#2c2c34" stroke="#474751" stroke-width="0.8"/><path d="M400,169.1L398.3,170.4L395.3,180.6L390.7,188.7L388.8,197.1L375.1,203.9L363.9,195.6L356.3,196L344.4,207.7L338.6,207.9L329.1,227.3L324,241.5L303.2,248.8L295.6,247.7L287.9,252.2L271.9,251.8L261.2,239.2L254.7,224.7L240.5,211.4L225.4,211.7L207.8,211.6L207.8,211.6L209,179.2L208.5,166.3L212.2,153.6L218.4,147.4L228.1,134.8L226,129.3L229.9,121.2L225.4,109.1L226.2,102.3L227.6,84L233.4,75.8L236.2,64L241.4,59.5L262.8,57.1L282.9,64.8L290.4,72.5L300.6,72.9L310,67.8L334.3,78.4L344.4,77.9L356.2,69.2L368,69.8L373.7,66.9L384.5,68.1L400,74.1L400,169.1Z" fill="#2c2c34" stroke="#474751" stroke-width="0.8"/><path d="M400,293L389,290.5L379.5,291.8L347,291.4L349.8,275.6L342.1,262.3L332.9,258.9L328.9,250L323.7,247.1L324,241.5L329.1,227.3L338.6,207.9L344.4,207.7L356.3,196L363.9,195.6L375.1,203.9L388.8,197.1L390.7,188.7L395.3,180.6L398.3,170.4L400,169.1L400,293Z" fill="#2c2c34" stroke="#474751" stroke-width="0.8"/><path d="M172,115.8L169.4,126.5L175.6,132.5L182.5,139.6L183.3,149.6L187.3,153.8L186.4,200.1L191.3,214L175.2,218.3L170.7,211.2L165.4,198.5L163.8,188.4L168.2,170.3L163.3,162.9L161.3,146.9L161.4,132.2L153,121.7L154.5,115.4Z" fill="#2c2c34" stroke="#474751" stroke-width="0.8"/><path d="M154.5,115.4L153,121.7L161.4,132.2L161.3,146.9L163.3,162.9L168.2,170.3L163.8,188.4L165.4,198.5L170.7,211.2L175.2,218.3L143.8,230.1L132.7,236.9L114.7,242.8L96.9,237.1L97.8,229.1L89.1,211.8L94.4,189.1L102.8,172.1L97.5,143.3L94.7,128.1L95.2,116.5L129.9,115.6L138.8,117.1L145.3,113.7Z" fill="#2c2c34" stroke="#474751" stroke-width="0.8"/><path d="M0,132.2L1.6,133.1L17.1,133.3L20.7,127.3L24.2,127.7L29.9,125.4L33,134.1L37.7,131.6L45.9,128.6L54.9,133L58.4,139.7L67.4,144L74.4,138.9L83.8,138.1L97.5,143.3L102.8,172.1L94.4,189.1L89.1,211.8L97.8,229.1L96.9,237.1L87.8,237.3L73.9,233.3L61,233.6L37.4,237.1L23.5,242.9L3.7,250.2L0,249.7L0,247.4L0,247.4L1.4,233.2L3.2,230.7L2.7,222.7L0,220.1L0,132.2Z" fill="#2c2c34" stroke="#474751" stroke-width="0.8"/><path d="M0,220.1L2.7,222.7L3.2,230.7L1.4,233.2L0,247.4L0,220.1Z" fill="#2c2c34" stroke="#474751" stroke-width="0.8"/><path d="M45.9,128.6L44.6,116.7L50.1,108.1L49.6,101.2L65.5,84.2L68.5,70.2L73.9,65.2L83.6,67.9L91.9,63.8L94.7,58.5L110.2,49.2L114,42.8L132.7,34.2L143.7,31.2L148.7,35.2L161.5,35.1L159.9,45.1L162.6,54.5L173.8,68L174.5,77.9L197.5,82.5L197.1,96.6L192.7,102.7L182.9,104.6L178.9,113.5L172,115.8L154.5,115.4L145.3,113.7L138.8,117.1L129.9,115.6L95.2,116.5L94.7,128.1L97.5,143.3L83.8,138.1L74.4,138.9L67.4,144L58.4,139.7L54.9,133Z" fill="#2c2c34" stroke="#474751" stroke-width="0.8"/><path d="M379.5,300L379.5,291.8L379.5,291.8L389,290.5L400,293L400,300Z" fill="#2c2c34" stroke="#474751" stroke-width="0.8"/><path d="M344.3,300L347,291.4L347,291.4L379.5,291.8L379.5,300L344.3,300Z" fill="#2c2c34" stroke="#474751" stroke-width="0.8"/><path d="M186.4,212.5L186.2,211.8L189.5,210.9L188.9,208.3L186.8,205.2L186,204.6L185.6,203L186.1,202L185.8,201.3L185.6,199.2L184.6,196.9L186.5,196.8L186.5,189.3L186.5,182.1L186.5,176L186.5,171.1L186.1,165.3L186.1,161L186,155.3L185.4,153.6L182.5,150.6L181.7,149L181.6,147L181,144.9L180.9,141.2L180.9,136.8L180.6,136.2L177.5,134.1L173.2,131.2L169.9,128.9L169.6,128.8L169.3,128.2L169.7,121.7L170.5,120.8L171.5,118.1L172,115.9L172.5,115.9L173.2,115.2L173.7,114.1L174.3,114.4L175.3,114.5L175.7,114.2L175.6,113.4L175.9,112.6L176.7,112.2L176.9,111.5L176.9,110.6L177.6,110.4L178.7,110.4L179.6,110.2L180.3,109.7L181.3,108L181.8,107.4L182,107L182.5,106.6L184.1,106.5L185.2,106.6L186,107.6L191.1,106.7L193.6,107.2L198.6,102.9L199.7,101.7L201.3,98.6L201.8,97.4L202.3,95.3L201.3,91.5L201.3,90.8L203.3,90L205.9,89.3L206.9,89.3L207.6,89L208.5,88.1L210.1,87.5L211,87.7L211.6,87.8L217,92.9L219.3,95.5L220,96.8L221.2,97.8L223,98.4L224.7,99.7L225.9,101.6L225.1,102.9L223.8,105.6L223.7,107.7L226.7,112.1L227.1,112.6L227.9,113.3L228.3,114.1L228.7,116.3L228.9,118.8L229.1,120.5L230.6,122.8L230.7,123.7L229.7,127.2L229.4,127.6L229.2,127.7L227.6,127.4L226.9,127.8L226.1,129L225.5,130.2L225.5,130.6L226.9,132.8L226,136L225.2,138L223.5,139.1L222.1,139.4L221.1,139.9L220.5,140.6L220.6,142.9L218.5,144.9L217.3,146.3L216.7,147.2L217,149.9L216.2,152.6L214.9,154.7L212,155.1L209.5,155.4L208.7,160.8L208.7,164.2L208.5,167.7L208,169.1L208.2,171.1L208,175.6L207.7,179.1L208.2,180.1L208.4,182.2L208.4,184.3L209,185.8L209.7,187.1L209.7,187.8L209.3,188.2L209,188.8L209,193.9L209.1,195.4L209,196.4L208.4,197.1L208.6,199.7L209,201.4L209.5,202.5L209,203.6L208.7,204.9L208.2,208.3L208.1,209.4L199.7,210.3L190.4,211.6Z" fill="#b8e653" stroke="#0c0e06" stroke-width="1"/></svg>
