<svg xmlns="http://www.w3.org/2000/svg" viewBox="0 0 400 300"><path d="M89.6,300L89.5,298.7L77.4,292L65.6,271.1L62.2,249.7L65,227L79.6,210.8L83.7,227.2L100.4,241L116.2,236L131.7,237.7L146,225.4L157.7,223.2L180.8,230.1L200.7,224.9L213.3,190.9L222.7,182.4L231.1,154.5L259.2,154.5L280.4,158.7L280.4,158.7L266.5,180.8L284.4,203.9L280.2,215.2L307.7,237.8L278.7,240.7L270.5,257.3L271.6,279.5L248.1,296.2L248,300L89.6,300ZM400,249.6L398.7,249.3L358,250.5L336.6,254L333.2,272.5L355,294.3L368.2,283.2L400,277.4L400,284.1L400,284.1L390.5,296.9L383.5,300L314.4,300L314.4,300L315.7,292.9L327.9,256.1L333,246L353.8,227.9L372.9,235.1L400,238L400,249.6Z" fill="#2c2c34" stroke="#474751" stroke-width="0.8"/><path d="M29,0L19.9,5.2L0,25.8L0,0Z" fill="#2c2c34" stroke="#474751" stroke-width="0.8"/><path d="M400,32.3L390.3,21.3L395.4,14.7L395.4,14.7L400,9.5L400,32.3ZM400,78L383.1,90.8L379.1,83.6L388.7,62.9L400,57.8L400,78ZM324.4,0L324.5,0.5L308.4,14.2L295.6,31.2L295.6,31.2L263.1,54.7L275.1,37.3L292.7,22.1L307.4,4.9L309.9,0L324.4,0ZM388,0L381.1,3.3L380.9,0L388,0Z" fill="#2c2c34" stroke="#474751" stroke-width="0.8"/><path d="M280.4,158.7L259.2,154.5L231.1,154.5L222.7,182.4L213.3,190.9L200.7,224.9L180.8,230.1L157.7,223.2L146,225.4L131.7,237.7L116.2,236L100.4,241L83.7,227.2L79.6,210.8L97.5,219.2L116.3,214.6L121.3,193.9L131.7,189.3L161,184L178.5,164.6L190.6,149.1L201.7,161.9L206.8,153.5L218.5,154.3L219.9,138.6L221,126.5L239.8,109.5L252.1,90.2L262,90.1L274.6,102.6L275.7,113.3L291.8,120.1L312.1,127.5L310.4,137.1L294,138.3L298.4,150.3Z" fill="#2c2c34" stroke="#474751" stroke-width="0.8"/><path d="M213.4,140L214.1,140.8L215.6,143.6L216.5,146.5L216.8,150.8L217.9,152.7L217.8,153.1L217,153.4L216,153.5L214.1,153.1L212.6,152.4L211.2,147.8L210.6,145.1L210.7,141.9L210.6,140ZM210.6,140L208.6,141L206.7,142.4L204.7,143.5L203.8,144.4L204.1,145.7L204.6,148.5L204.8,150.7L205.5,151.5L206.1,152.4L205.9,153.3L204.6,155.1L205.3,155.5L204.5,157.9L203.2,159.7L201.6,161.1L200.4,161.4L199.5,160.8L198,159.3L196.5,157L195.8,155.8L193.5,155.6L192.6,154.6L192.6,153.3L191.9,151.9L191,150.3L189.7,149.1L187.8,148.2L187.1,147.5L189.9,147.6L192.9,147.1L195.9,145.8L198.8,144.3L201.3,142.4L203.7,140.4L206.1,138.8L209.8,137L211.2,137.1L211.2,138.4Z" fill="#b8e653" stroke="#0c0e06" stroke-width="1"/></svg>
