<svg xmlns="http://www.w3.org/2000/svg" viewBox="0 0 300 300"><path fill="#e8e8ea" d="M301.9,52.1L308.4,60.7L324.3,91L334.6,121.3L337.4,167.5L349.6,187.3L347.7,191.4L340.2,194.6L329,195.9L309.4,191.4L292.6,184.6L278.5,134.9L272,106.4L272.9,72.5L272,52.1ZM272,52.1L250.5,63.4L229.9,77.5L209.4,89.7L199.1,99.6L202.8,112.7L207.5,142.6L210.3,165.6L217.8,174.7L223.4,184.2L221.5,194.1L208.4,213.1L215.9,217.2L206.6,242.5L193.5,261.5L175.7,276.8L163.6,280L154.2,273.7L138.3,257L121.5,233.5L114,219.9L89.7,218.1L80.4,207.2L80.4,194.1L72.9,178.8L63.5,162L49.5,149.4L29.9,139.4L22.4,132.2L51.4,132.6L83.2,128.1L115.9,114.5L146.7,97.8L172.9,78.4L198.1,57.1L223.4,39.9L263.6,20L277.6,21.8L277.6,35.8Z"/></svg>
