<svg xmlns="http://www.w3.org/2000/svg" viewBox="0 0 400 300"><path d="M137,300L136.8,299L142.4,288.2L141.5,278L144.8,268.6L150.7,259L157.1,252.6L154.4,248.6L156.3,245.4L156,228.6L165.9,223.7L169,213.4L167.9,211L175.4,202.1L187.3,204.5L192.7,211.6L196.2,203.7L206.6,204.1L208,206.2L224.7,222.3L232.1,223.8L243.2,231.2L252.6,235.1L253.9,239.5L245,254.9L254.1,257.7L264.3,259.3L271.5,257.6L279.7,249.8L281.2,240.9L285.7,238.9L290.3,244.8L290.1,252.9L282.4,258.5L276.3,262.7L266.1,272.7L254,286.9L254,286.9L251.7,295.4L250.7,300L137,300Z" fill="#2c2c34" stroke="#474751" stroke-width="0.8"/><path d="M127.2,300L126.5,294.3L129.2,285.7L128.1,272.8L133.4,260.2L135,240.5L138,219.8L140.8,197.8L140.1,181.9L138.2,168.4L142.9,166L145.3,161.1L145.3,161.1L149.8,167.6L151,174.5L155.8,178.5L152.9,187.9L157.8,198.8L161.4,212.3L167.9,211L169,213.4L165.9,223.7L156,228.6L156.3,245.4L154.4,248.6L157.1,252.6L150.7,259L144.8,268.6L141.5,278L142.4,288.2L136.8,299L137,300L127.2,300Z" fill="#2c2c34" stroke="#474751" stroke-width="0.8"/><path d="M250.7,300L251.7,295.4L254,286.9L254,286.9L259.9,285.8L269,293.9L272.3,293.6L281.1,300L250.7,300Z" fill="#2c2c34" stroke="#474751" stroke-width="0.8"/><path d="M281.1,300L272.3,293.6L269,293.9L259.9,285.8L254,286.9L266.1,272.7L276.3,262.7L282.4,258.5L290.1,252.9L290.3,244.8L285.7,238.9L281.2,240.9L283,235.1L284.2,229.1L284.2,223.7L280.9,221.9L277.5,223.5L274.2,223L273.1,219.2L272.2,210.2L270.5,207.2L264.4,204.6L260.7,206.5L251.1,204.6L251.7,191.4L249,186L251.9,184L251,178.5L253.5,174.3L255.1,166.7L253,160.8L248,158.1L247,154.4L248.4,148.9L231,148.5L227.5,137.6L230.1,137.4L230,133.3L228.2,130.6L227.8,125.2L222.6,122.4L216.8,122.5L213.1,119.8L206.9,118L203.4,114.5L193.2,113L183.3,104.6L184.1,98.4L183,94.9L183.9,88L172.1,89.5L167.3,93L159.3,96.7L157.3,99.5L152.6,99.7L145.9,99L140.8,100.6L136.6,99.5L137.2,85.5L129.8,90.9L121.8,90.7L118.3,85.7L112.3,85.2L114.3,81.3L109.2,75.7L105.4,67.4L107.8,65.8L107.8,61.9L113.3,59.2L112.4,54.3L114.7,51.1L115.4,46.9L125.8,40.7L133.2,38.9L134.4,37.5L142.6,38L146.7,13.1L146.9,9.1L145.5,3.9L141.5,0.6L141.5,0L323.8,0L323.8,0L335.7,1.1L336,10.2L342.9,4.2L354.3,7.5L369.4,13L373.9,18.3L372.4,23.4L382.9,20.6L400,25.2L400,206.2L400,206.2L398,207.4L395.9,213.3L386,213.2L371.8,217L365.4,221.4L355.2,224.4L344.5,232.3L336.9,242.3L335.5,249.8L337,255.4L335.4,265.8L333.3,270.8L326.9,276.5L316.9,295L312.1,300L281.1,300Z" fill="#2c2c34" stroke="#474751" stroke-width="0.8"/><path d="M96.1,0L101.3,3.7L104.2,8L108.4,10.4L113.7,19.9L120.5,21L125.5,18.6L128.8,20.2L134.2,19.4L141.2,23.7L135.3,32.9L138.1,33.1L142.6,38L142.6,38L134.4,37.5L133.2,38.9L125.8,40.7L115.4,46.9L114.7,51.1L112.4,54.3L113.3,59.2L107.8,61.9L107.8,65.8L105.4,67.4L109.2,75.7L114.3,81.3L112.3,85.2L118.3,85.7L121.8,90.7L129.8,90.9L137.2,85.5L136.6,99.5L140.8,100.6L145.9,99L153.7,113.9L151.8,117L151.4,123.6L151.2,131.6L147.6,136.2L149.2,139.7L147.2,142.9L151.1,150.8L145.3,161.1L142.9,166L138.2,168.4L129.1,162.9L128.3,159L110.3,149.5L94.1,139.2L87.1,133.4L83.3,125.6L84.8,123L77.1,110.7L68.1,93.7L59.6,75.3L55.9,71.1L53,64.4L46,58.4L39.5,54.7L42.4,50.7L38,42L40.9,35.6L48.1,29.8L49.2,33.6L46.6,35.8L46.8,39.1L50.6,38.4L54.3,39.4L58,44L63.2,40.2L64.9,34.1L70.5,26.2L81.4,22.6L91.3,13.1L94.1,7.2L92.9,0.3L93.7,0L96.1,0Z" fill="#2c2c34" stroke="#474751" stroke-width="0.8"/><path d="M141.5,0L141.5,0.6L145.5,3.9L146.9,9.1L146.7,13.1L142.6,38L138.1,33.1L135.3,32.9L141.2,23.7L134.2,19.4L128.8,20.2L125.5,18.6L120.5,21L113.7,19.9L108.4,10.4L104.2,8L101.3,3.7L96.1,0L141.5,0ZM93.7,0L92.9,0.3L92.3,0L93.7,0Z" fill="#2c2c34" stroke="#474751" stroke-width="0.8"/><path d="M92.3,0L92.9,0.3L92.9,0.3L94.1,7.2L91.3,13.1L81.4,22.6L70.5,26.2L64.9,34.1L63.2,40.2L58,44L54.3,39.4L50.6,38.4L46.8,39.1L46.6,35.8L49.2,33.6L48.1,29.8L52.9,23L51,19.1L47.5,23.3L42.1,19.3L43.9,16.8L42.4,8.5L45.5,7.2L47.2,1.5L48.1,0L92.3,0Z" fill="#2c2c34" stroke="#474751" stroke-width="0.8"/><path d="M249,186L251.7,191.4L251.1,204.6L260.7,206.5L264.4,204.6L270.5,207.2L272.2,210.2L273.1,219.2L274.2,223L277.5,223.5L280.9,221.9L284.2,223.7L284.2,229.1L283,235.1L281.2,240.9L279.7,249.8L271.5,257.6L264.3,259.3L254.1,257.7L245,254.9L253.9,239.5L252.6,235.1L243.2,231.2L232.1,223.8L224.7,222.3L208,206.2L211.6,194.5L211.8,189.3L216.2,180.7L232,177.9L240.4,178.1L248.9,183Z" fill="#2c2c34" stroke="#474751" stroke-width="0.8"/><path d="M146.1,160.4L146.1,159.9L146,159.3L145.6,158.7L145,158.4L144.8,157.9L145,157.5L146.1,156.6L146.7,156.4L146.9,155.9L147.2,155.6L148.3,154.2L148.9,153.4L149.5,152.8L150.2,152.5L150.5,152.2L150.3,151.2L150.4,150.6L150.6,150.2L151.4,149.8L152,149.4L152.1,149.3L152.1,149.1L151.5,148.6L150.3,148.1L149.5,148.2L149,147.8L148.7,147.5L147.1,143.6L146.9,142.7L146.9,142.3L148,140.4L148.4,139.8L149.1,138.9L149,138.5L147.7,137L147.3,136.3L147.3,135.6L147.4,134.8L148.2,134.3L148.4,133.6L148.6,132.9L148.9,132.7L149.2,132.3L149.6,131.7L150.2,131.2L150.6,130.8L150.7,129.8L151,129.5L151.8,129.2L151.9,128.9L151.7,128.2L151.3,127.4L150.9,127.1L150.5,125.2L150,124.3L150.2,124L150.5,123.5L150.9,122.6L151,121.5L150.9,117.6L150.9,116.9L151.3,116.3L151.9,115.7L152.4,115.4L152.9,115.1L152.9,114.3L153.2,113.9L153.5,113.3L152.3,111.2L151.3,109.3L150.3,107.5L149.1,105.5L148.3,104.1L147.4,102.4L146.6,101L145.4,99L146.5,98.9L148.6,99L150.7,99.3L152.1,99.5L152.7,99.8L152.8,100.3L153.2,100.5L153.6,100.4L154.1,100.4L155.2,99.9L156.2,99.6L156.9,99.2L157.4,98.8L158.3,97.4L159.1,96.7L159.9,96.4L161.3,96.3L161.7,96.5L162.3,96.5L162.8,95.7L163.6,94.8L165.1,93.8L165.8,93.5L166.3,93.1L167.1,93L167.9,92.7L171.3,89.9L172.7,89.2L173.6,89.1L174.3,89L175.5,88.6L178.6,88.2L180.6,88L181.2,88.4L181.9,88.3L182.5,87.7L183.1,87.5L183.4,87.5L183.9,88.2L184.2,89L184,89.6L184.1,90.4L184.3,91.5L184.2,92.5L183.4,93.8L183.1,94.3L183,94.8L183,95.6L183.3,96.8L184,98.4L184.1,99.6L183.6,100.4L183.4,101.1L183.5,101.7L183.6,102.1L183.9,102.3L184.1,102.8L184.1,103.5L184.5,104.1L185.1,104.8L185.4,105.4L185.3,106L185.3,106.3L185.5,106.5L185.7,106.4L186,106.2L186.2,106.3L186.7,107.1L186.7,107.3L187,107.9L187.1,108.4L187.8,108.7L188.5,108.9L189,109.2L189.8,110L190.5,110.6L191.4,111L191.7,111.7L192.3,112.7L193.8,113.2L195.5,113.4L196.7,113.6L198,113L198.9,113.1L199.9,113.5L200.2,113.7L200.9,114.3L202,115L202.9,115.3L203.5,114.9L204.1,114.7L204.6,114.9L204.8,115.6L205,116.2L205.5,116.5L206.7,117.5L207.3,117.9L208,117.9L209.5,118.6L211,119.2L211.8,119.3L212.7,119.2L213.2,119.5L213.4,120.2L214.8,121.8L215.4,122.4L216.2,122.9L218.1,122.9L218.7,123L219.6,122.9L222.1,122.6L222.6,122.5L224.1,123.2L225.8,124.2L227,124.9L227.8,125.3L228.2,126L228.6,126.7L228.7,127.5L228.5,128.2L228.2,128.5L228.1,129L228.2,129.8L228.8,130.4L229,131.2L229.3,132.6L229.7,133.1L229.9,137.5L228.7,137.5L227.1,137.6L227.6,138L228.9,139.7L230.2,141.2L230.4,143.6L230.5,145.2L230.7,147.3L230.8,148.6L233.9,148.8L237.5,148.9L241.9,149.1L245.7,149.2L246.1,149.2L246.7,149L247.1,148.8L247.4,148.8L247.5,149.3L247.4,150L247.4,150.7L246.3,152.2L246.2,152.7L246.4,154.7L246.8,156.3L247,157.8L247.4,158.2L248.7,159L250.6,160.4L251.4,160.6L252.1,160.4L252.5,161L252.6,162L253.6,164.6L254.3,166.2L254.6,166.8L255.2,167.1L255.1,167.4L254.6,167.4L254.4,167.8L253.8,169.6L253.1,172.1L252.5,173.8L253,173.9L253,174.3L253.1,175.1L252.5,175.2L252.4,175.4L251.7,176.9L250.8,178.7L249.9,180.7L249.4,181.8L250.3,182.7L251.8,184.1L251.6,184.5L250.9,184.7L250.4,184.8L250,185.4L249.7,185.7L249.1,185.9L249.3,184.3L249.1,182.9L248.9,182.5L246.3,180.9L243.8,179.4L240.7,177.4L236.6,177.5L232.3,177.5L228.3,178.4L224.3,179.3L222.5,179.7L218.7,180.5L216.5,180.9L215.9,182.4L215,184.8L214.1,186.2L213.2,187.7L211.7,189.7L211.7,192.2L211.7,194.6L210.7,198L209.9,200.8L209.1,203.6L208.5,205.5L208.4,206L208.2,205.9L207.5,205.3L206.8,204.2L206.7,203.7L206.6,203.7L202.7,203.7L199,203.8L198.7,204L198.1,204L197.7,203.8L197.4,203.8L196.8,204L196.3,204.4L194.9,207.3L194.2,208.6L193.7,209.7L193.3,211.5L193.2,211.9L192.7,211.2L192,209.5L191.7,208.5L191.3,207.4L190.6,206L189.7,205.6L189.2,205.4L188.4,205.1L187.1,204.8L186.5,204.7L182.6,204.7L182.3,204.7L180.8,204.8L180,204.7L179.2,203.9L177.4,202.6L177,202.1L176.4,201.8L175.9,201.8L175.7,202.1L175.4,203.2L175,204.3L174.6,204.9L173.3,205.3L172.1,205.7L171.5,205.9L171.1,206.4L171,207.1L170.7,207.8L168.9,208.7L168.5,209.2L168.3,210.1L167.4,211.3L167.1,211.8L165.6,212.1L163.6,212.5L162.4,212.5L161.6,212.4L161.4,212.2L160.9,211.8L160.8,211.4L160.8,210.9L160.9,209.9L160.9,208.6L160.2,207L160.3,206.5L160.2,205.7L159.9,204.3L159.1,203.6L158.9,202.4L158.8,201.3L158.1,200L158,198.3L158,196.9L156.9,195.2L155.8,193.5L154.9,193.2L154.7,193L154.6,192.5L154.6,191.7L154.7,191.3L155.3,190.5L155.4,190.4L155.2,190.2L153.5,189.1L153,188.7L152.9,188.3L152.9,187.9L153.3,187.6L153.5,187.3L153.1,186.5L153.2,185.7L152.9,185.4L152.9,185.2L153.2,185L154.3,184.7L154.7,184L154.7,183.3L154.5,182.9L153.4,181.8L153.4,181.6L154.6,180.1L155.4,179L155.6,178.8L155.5,178.6L155.3,178.3L154.8,177.9L154.1,177.5L153.6,177L152.9,176.2L152,175.6L151.3,174.9L151,174.4L151,173.8L150.9,172.9L150.5,171.4L150.3,170.3L150.1,169.2L150,168.5L149.9,167.8L149.6,167L149.4,166.5L149.6,166.1L149.9,165.8L149.9,165.6L148.2,164.8L147.9,164.5L147.5,162.9L146.2,161.5Z" fill="#b8e653" stroke="#0c0e06" stroke-width="1"/></svg>
