<svg xmlns="http://www.w3.org/2000/svg" viewBox="0 0 300 300"><path fill="#e8e8ea" d="M37.8,171.6L37.8,170.7L37.6,169.3L36.8,168.2L35.6,167.4L35.3,166.5L35.6,165.5L37.9,163.6L39.2,163.3L39.5,162.4L40.2,161.6L42.4,158.8L43.7,157L44.9,155.9L46.4,155.1L47,154.5L46.7,152.6L46.8,151.2L47.3,150.4L48.8,149.5L50.2,148.8L50.4,148.5L50.3,148L49.1,147L46.6,146.2L44.9,146.3L43.9,145.5L43.4,144.8L40,136.7L39.5,134.8L39.6,134.1L41.7,130.1L42.6,128.8L44.2,126.9L43.9,126.2L41.2,123L40.4,121.6L40.4,120.1L40.7,118.3L42.2,117.3L42.7,115.8L43,114.4L43.7,114L44.4,113.1L45.2,112L46.4,110.9L47.2,110.1L47.4,108L48,107.4L49.7,106.6L49.9,106.1L49.5,104.6L48.6,103.1L47.9,102.3L47,98.5L46,96.6L46.4,95.9L47.1,94.9L47.8,93L48,90.8L47.8,82.6L47.9,81L48.7,79.9L50,78.6L51,78.1L52,77.3L51.9,75.8L52.6,74.9L53.4,73.7L50.9,69.3L48.7,65.3L46.6,61.6L44.2,57.4L42.6,54.6L40.6,51L38.9,48L36.5,43.8L38.8,43.8L43.2,43.9L47.5,44.6L50.3,45L51.5,45.6L51.8,46.6L52.6,47.1L53.5,46.9L54.6,46.9L56.9,45.8L58.8,45.1L60.4,44.3L61.3,43.5L63.4,40.6L65,39.1L66.5,38.5L69.5,38.3L70.4,38.7L71.6,38.7L72.6,37.1L74.2,35.3L77.4,33L78.9,32.4L79.9,31.6L81.6,31.5L83.1,30.7L90.3,25.1L93.3,23.6L95,23.4L96.5,23L99.1,22.2L105.5,21.4L109.7,21.1L110.9,21.9L112.4,21.7L113.7,20.4L114.8,20L115.5,20L116.6,21.5L117.1,23.1L116.8,24.3L116.9,26.1L117.3,28.4L117.1,30.4L115.5,33.1L114.8,34.2L114.5,35.3L114.7,36.8L115.4,39.3L116.7,42.7L116.9,45.2L116,46.9L115.6,48.3L115.6,49.5L116,50.3L116.5,50.8L116.9,51.8L116.9,53.2L117.7,54.6L119.1,55.9L119.6,57.2L119.4,58.4L119.5,59.2L119.9,59.5L120.3,59.2L120.8,58.9L121.3,59L122.3,60.7L122.4,61.1L123,62.5L123.1,63.6L124.6,64.1L126.2,64.6L127.1,65.2L128.8,66.8L130.3,68L132.2,68.9L132.8,70.3L133.9,72.5L137.1,73.4L140.7,73.8L143,74.3L145.9,73.1L147.7,73.3L149.7,74.1L150.5,74.6L151.9,75.7L154.2,77.2L156,77.7L157.3,76.9L158.5,76.6L159.5,76.9L160,78.5L160.4,79.6L161.5,80.4L163.8,82.5L165.2,83.3L166.7,83.3L169.7,84.6L172.9,85.9L174.6,86.2L176.3,86L177.4,86.5L177.8,88L180.7,91.2L182,92.5L183.6,93.6L187.6,93.5L188.9,93.9L190.7,93.6L196.1,93L197.1,92.9L200.1,94.2L203.7,96.3L206.2,97.8L207.8,98.7L208.7,100.1L209.4,101.6L209.8,103.2L209.3,104.7L208.6,105.4L208.4,106.4L208.7,107.9L209.9,109.3L210.3,110.9L211,113.9L211.8,114.8L212.2,124L209.8,124.1L206.4,124.2L207.4,125.1L210.2,128.5L212.8,131.7L213.3,136.7L213.5,139.9L213.9,144.5L214.1,147.2L220.6,147.4L228.1,147.7L237.1,148L245,148.3L245.8,148.3L247.2,147.9L248.1,147.4L248.7,147.5L248.7,148.6L248.5,149.9L248.5,151.5L246.3,154.7L246.2,155.7L246.5,159.8L247.3,163.2L247.7,166.2L248.6,167.1L251.3,168.7L255.3,171.7L257,172.1L258.3,171.7L259.1,172.9L259.3,174.9L261.6,180.3L262.9,183.8L263.6,185L264.7,185.7L264.5,186.1L263.6,186.3L263.2,186.9L262,190.8L260.4,196L259.3,199.6L260.2,199.6L260.3,200.6L260.5,202.2L259.3,202.4L258.9,202.9L257.5,205.9L255.7,209.8L253.8,213.8L252.7,216.2L254.6,218L257.8,220.9L257.3,221.7L255.9,222.2L254.8,222.4L253.9,223.6L253.4,224.4L252.1,224.6L252.5,221.3L252.1,218.4L251.8,217.7L246.2,214.2L241.2,211.1L234.6,207L226.1,207.1L217.3,207.2L208.9,209.1L200.6,210.9L196.7,211.7L188.9,213.4L184.2,214.2L183,217.5L181.2,222.4L179.4,225.3L177.4,228.4L174.4,232.6L174.4,237.9L174.4,242.8L172.3,249.8L170.6,255.8L168.9,261.6L167.8,265.5L167.4,266.5L167.1,266.2L165.6,265L164.2,262.8L163.9,261.8L163.7,261.7L155.7,261.8L148,261.9L147.2,262.3L146.1,262.3L145.3,261.9L144.5,261.9L143.4,262.4L142.4,263.3L139.4,269.2L137.9,271.8L136.8,274.1L136,278L135.8,278.7L134.8,277.3L133.4,273.7L132.8,271.7L132,269.3L130.5,266.4L128.6,265.6L127.5,265.3L126,264.7L123.1,264L121.9,263.9L113.8,263.8L113.2,263.7L110.1,264L108.4,263.8L106.7,262.2L103,259.3L102.2,258.4L100.8,257.8L99.9,257.7L99.5,258.3L98.8,260.7L98,262.9L97.2,264.1L94.6,265L92,265.9L90.7,266.2L89.9,267.3L89.6,268.8L89,270.1L85.4,272.2L84.6,273L84.2,275.1L82.2,277.6L81.5,278.5L78.4,279.3L74.2,280L71.9,279.9L70.2,279.8L69.8,279.3L68.6,278.6L68.5,277.8L68.4,276.7L68.7,274.6L68.6,271.8L67.3,268.6L67.4,267.5L67.2,265.9L66.6,262.9L64.9,261.4L64.4,258.9L64.2,256.8L62.8,254L62.6,250.5L62.6,247.6L60.4,244.1L58.1,240.4L56.3,239.9L55.8,239.5L55.6,238.5L55.5,236.8L55.7,235.8L57.1,234.2L57.2,234L56.9,233.7L53.2,231.2L52.3,230.5L52,229.7L52,228.9L52.9,228.1L53.4,227.6L52.5,225.9L52.6,224.3L52,223.7L52.1,223.1L52.6,222.7L55,222.2L55.7,220.7L55.7,219.4L55.4,218.4L53.2,216.1L53.2,215.7L55.5,212.5L57.2,210.4L57.6,209.9L57.4,209.5L57,208.9L56,208.1L54.6,207.2L53.5,206.1L52,204.5L50.1,203.2L48.7,201.8L48.1,200.7L48.1,199.5L47.9,197.5L47,194.4L46.7,192.3L46.3,190L46,188.4L45.7,187L45.1,185.4L44.7,184.2L45.2,183.4L45.8,182.8L45.7,182.4L42.2,180.7L41.5,180.2L40.7,176.8L38.1,173.8Z"/></svg>
