<svg xmlns="http://www.w3.org/2000/svg" viewBox="0 0 300 300"><path fill="#e8e8ea" d="M71.2,45.5L72.8,47L74,48.1L74.5,48.4L74.8,48.5L75.5,48.4L76.4,48.3L76.7,48.2L77.2,47.8L77.9,47.3L78.5,47.1L78.7,47.1L79,47.1L79.5,47.4L79.7,47.9L79.5,48.5L79.5,48.9L80.1,48.9L80.5,48.3L80.8,47.8L81.4,47.4L82,46.8L82.4,46.3L82.9,45.9L83.6,45.6L84.2,45.3L84.7,45.3L85.2,45.1L85.7,44.6L86,44.2L86.3,44.1L86.8,44.1L87.4,44.1L88.1,43.6L88.6,43L88.9,42.1L89.1,41.2L89.3,41.1L89.5,40.9L89.8,40.8L90.3,40.8L91.4,40.3L92.1,39.9L92.8,39.8L93,39.6L93.2,39.2L93.3,38.5L93.2,38L92,37.9L91.2,37.9L89.8,37.8L89.2,37.6L89.1,37.5L89,37.3L89.2,37L89.3,36.4L89.1,35.6L88.5,34.3L88,33L87.9,32.1L87.9,31.2L88,30.6L87.6,30.1L85.8,28.6L85.1,27.9L84.9,27.4L84.2,26.5L84.4,26.2L84.8,26.2L85.2,26.5L85.5,27L85.7,27.1L86,27.1L87.7,27.1L88.1,27.2L88.4,27.3L88.6,27.6L88.9,28.1L89.2,28.4L89.9,28.4L91,28.4L91.5,28.3L91.9,28.5L92.3,28.6L93.3,28.3L93.5,28.3L93.8,28.5L94.8,29.5L95.4,30L95.9,30.5L96.6,30.5L97.2,30L97.3,28.4L97.5,27.9L97.8,27.7L98.1,27.7L98.6,27.4L99,27.1L99.4,27L101,27.4L101.5,27.2L103.1,26.7L104.8,26.1L105.3,25.4L106,25.2L106.5,24.7L107,24.8L107.7,24.8L108.1,24.7L108.3,24.6L108.5,24.3L108.9,23.6L109.4,23.3L110,23.1L110.3,22.7L110.7,22.3L110.8,21.9L110.8,21.7L110.6,21.1L110.4,20.6L110.1,20.4L110,20.4L110.5,20.2L111,20.4L111.7,20.4L112,20.3L112.5,20.4L113.1,20L113.5,20.1L113.8,20.1L114,20.4L114.1,20.7L114.7,21.1L114.6,21.7L114.5,22.2L114.5,22.8L114.4,23.3L114.2,23.7L113.8,24.2L113.8,24.4L113.7,24.6L113.9,24.7L114.3,24.8L114.9,24.8L115.2,24.9L115.7,25L116.3,25.3L116.5,25.6L116.5,25.7L116.4,26.2L116.3,26.5L116.4,26.8L116.6,27L117,27.8L117.3,28.1L117.4,28.2L117.5,28.4L117.3,28.7L117.1,29.1L116.7,29.5L116.7,29.9L116.3,30.1L115.5,30.6L115.7,31.4L115.7,31.8L115.7,32.1L115.4,32.5L115,33.8L114.8,34.4L114.7,35.8L114.7,36.3L114.9,36.9L115.3,38.3L115.6,38.6L116.2,38.9L116.3,39.9L116.2,40.9L116.2,41.3L116.3,41.4L116.5,41.5L116.7,41.6L116.8,41.9L116.8,42.2L117.2,42.4L117.6,42.5L117.9,43L118.6,43.6L118.8,43.7L119,44L119.5,44.6L120.3,44.8L121.2,45L121.5,45.4L121.8,45.7L122.1,45.7L122.3,45.6L122.7,45.4L122.9,45.2L123.4,45.2L124,45.1L124.1,45L124.2,44.8L124.1,44.2L124.3,44L124.8,43.9L124.9,43.6L125,43.4L125.1,43.2L125.3,43.2L125.5,43.3L125.8,43.4L126.2,43.5L126.4,43.7L126.7,43.7L127.1,43.7L127.2,43.5L127.3,43.3L127.4,42.9L127.6,42.8L128.1,42.7L128.6,42.5L129.2,42.5L129.8,42.5L130.2,42.4L130.4,42.1L131,41.2L131.3,41L131.6,40.9L131.9,40.9L132.4,40.7L132.8,40.5L133,40.6L133.4,41L133.5,41.1L133.8,41.2L134.6,41.4L135.1,41.3L135.5,41.2L136,41.1L136.4,41.2L136.6,41.1L136.9,41L137,41.1L137.5,41.1L138.5,41.3L139.8,41.6L140.1,41.5L140.4,41.3L140.4,40.8L140.5,40.4L140.2,40L139.8,39.6L139.5,39.1L139,39L139.1,38.7L139.4,38.5L139.6,38.3L139.8,38.1L140,37.5L140.1,37.4L140.2,37.3L140.3,37.4L140.6,37.5L141.6,38.1L142.1,38L143.8,37.8L144.1,37.5L144.4,37.5L145.1,37.2L145.3,37.1L145.5,37.2L145.8,37.2L146.2,36.9L146.4,36.8L146.4,37.2L146.7,37.5L147,37.8L147.2,37.8L147.7,37.7L148,37.8L148.1,38.1L148.1,38.4L148.4,38.6L148.6,38.6L148.8,38.6L149.1,38.8L149.3,39.1L149.8,39.3L150.7,39.6L151.1,39.7L151.5,39.8L151.7,39.9L152,39.7L152.9,39.2L153.3,38.9L153.6,38.6L153.9,38.4L154,38.4L154.1,38.5L154.2,38.7L154.6,38.8L155.3,39L155.7,39L156.1,38.9L156.6,38.6L156.8,38.5L157.1,38.8L157.3,39.2L157.4,39.3L157.7,39.3L158.4,39.4L158.8,39.5L159.1,39.5L159.5,39.3L159.7,38.9L160.2,38.6L160.8,38.3L161.1,37.9L161.5,37.3L161.7,37L161.7,36.5L162.3,35.2L162.5,34.9L162.7,34.5L162.9,34L162.9,33.6L163.1,33.2L163.5,32.8L163.7,32.6L164.2,32L164.5,31.4L165.2,30.2L165.3,29.9L165.5,29.7L165.6,29.4L166,29.1L166.3,28.8L166.4,28.4L166.7,28L167.2,27.7L167.4,27.6L168,26.5L168.1,26L168.6,26L169.4,26.6L170.1,27.4L171,30L171.2,32.5L171.6,33.8L172.6,36.5L172.7,37L172.8,37.6L173.2,38.2L173.5,39.3L173.6,39.5L173.3,39.8L173.7,39.8L174,40L174.2,40.6L174.4,41.1L174.9,41.7L175.9,41.9L176.7,42L177.5,42.3L178.1,42.8L178.6,44.3L178.4,45.2L178.5,45.9L178.2,46.2L177.5,46.6L177.4,46.9L176,48L175.6,48.5L174.9,49.2L174.1,50.6L173.1,51.9L172.7,52.2L172.1,52.3L171.7,52.4L170.9,53.5L169.7,53.8L169.6,54.4L169,55.8L168.4,56.5L168,56.7L167.1,58.1L167,58.7L167,59.7L166.3,60.3L165.7,60.7L165.6,61.6L165.3,61.9L165.1,62.1L163.8,61.9L161.7,62.8L161,63.1L163.2,63.1L164,63.6L165.5,63.3L167.4,62.1L168.1,61.8L169.6,61L170.2,60.4L171.3,59.8L171.6,59.5L172.2,59.2L172.5,59.6L172.5,59.8L172,60.3L172.2,60.6L172.5,61L172.6,61.6L172.6,62L172.9,62.7L173.5,63.7L173.6,64L173.5,64.4L173.8,64.8L174.1,65L175.3,66L176.2,65.4L176.7,65.3L177.1,65L177.8,64.9L178.4,65.1L179.6,65.4L180.4,65.1L182.2,64.2L181.6,65.7L181.2,67.1L181,67.7L180.7,69.2L180.4,69.6L180.1,70.1L180.5,69.9L180.8,69.7L181.2,69.1L181.6,68.1L182.8,65.4L183.2,65.1L184.2,64.8L186,62.7L186.7,62.7L187.1,63.2L187.5,63.5L187.6,62.9L188.3,62.6L187.6,62.3L187.5,62.1L187.5,61.6L187.9,61L187.6,60.5L188.5,59.8L188.5,59.3L188.8,58.9L189.2,58.5L189.7,58.3L189.7,57.9L190,57.8L190.3,57.7L190.7,58.1L191.2,57.7L191.7,57.5L191.9,57.5L192.2,57.8L192.4,57.8L192.7,57.8L193.3,57.5L193.8,58L194.1,58.1L194.1,57.8L193.9,57.6L194,57.4L194.3,57.2L195.1,57.3L195.5,57.6L196,58L196.6,58L197.1,58L197.5,58.2L198,58.2L198.2,58.6L199,59.1L199.2,59.4L199.8,59.6L200.4,59.8L201.1,59.8L201.7,59.8L201.7,60.2L202.2,60.3L202.8,60.2L203.3,60.8L204.5,61.2L205.4,61.8L205.9,61.7L206.5,61.8L207.2,63.2L207.3,64.1L207.6,64L207.9,63.6L208.3,62.8L208.9,62.5L209.2,62.8L209.9,63.3L210.5,63.8L210.8,64.2L211.2,64.2L210.8,64.6L211.2,64.6L211.6,64.3L212,64.9L212.3,65.6L212.3,66.2L212.1,66.6L211.8,66.9L211.6,67.4L211.3,67.4L211,67.6L211.3,67.9L211.5,68.3L212.1,67.4L212.5,67.1L213,67L213.3,67.6L213.3,68.2L212.5,68.5L212.5,69L212.2,69.2L212,69.5L211.9,70.2L211.7,70.7L211.2,73.1L211.2,73.5L211.8,73.1L213,71.9L213.3,70.6L213.8,69.3L214.3,68.9L214.6,68.9L215.1,69L215.1,69.5L215,69.7L214.5,70.3L214.3,70.7L214.5,71L215.7,70L216.2,69.6L216.6,69.7L217.5,69.2L219.2,69.1L219.3,68.5L219.7,68.3L220.6,68.4L222.5,68.8L223.1,69.3L224.1,69.6L224.6,70.1L226.8,70.9L228.4,71L229.2,70.6L230.1,71L230.7,71.5L231.7,71.7L232.7,71.8L233.5,71.5L235.5,71.4L238,70.9L239.5,71.1L241.2,71.4L242.5,72.1L243.5,72.6L244.1,73L245.1,73.5L247.2,74.7L248,75.4L249.3,76.4L250.7,76.8L251.4,77.8L251.9,78.2L253.3,79.9L255,81.1L256,82.3L258.1,83.1L258.9,84.3L260.3,84.5L260.8,84.7L261.6,85.2L262.6,85.5L263.8,85.4L265.3,85.5L266.4,85.3L269.1,85.7L269.6,86L270.1,86.5L271.1,88.5L271.7,90.7L272,92.4L272.7,93.8L273.1,96.2L273.4,97L273.4,97.6L273.7,97.8L273.8,99.5L273.8,100.1L273.5,101L273.5,101.4L273.5,101.7L273.4,102L273.4,102.4L273.7,103.2L273.7,103.8L273.3,104.6L272.8,106.6L271.6,109.9L270.5,111.9L268.9,113.8L267.8,114.9L267.4,115L267,114.8L267.3,115.3L267,115.8L265.9,117.3L264.9,118.2L263.8,119.9L263.7,119.9L262.3,120.6L261.4,121.1L260.4,122L259.4,123.6L259.2,123.8L258.8,123.6L258.8,124.4L258,125.6L257.7,125.8L257.7,125.5L257.9,125.2L258,124.9L257.9,124.6L257.7,124.8L257.2,125.8L257.4,126.4L257,127.4L255.6,130.3L253.9,132.7L253.5,133.5L252.1,135.1L251.1,135.9L250.8,135.9L250.5,135.9L250.3,134.6L249.5,133.8L249.3,133.7L248.9,134.5L248.7,134.7L248.3,134.8L248.7,135.1L248.8,135.5L248.4,136.3L248.4,137.1L247.6,137.9L247.1,138.5L246.9,139.3L246.8,140L247.1,139.8L247.3,139.9L247.4,140.1L247.3,140.4L247.1,141.1L247.1,142.6L247,142.9L247.3,143.3L247.6,142.7L247.7,142.8L247,146.9L247.3,148.7L247.4,150.8L247.7,152.9L248.1,154.7L248.1,154.8L247.6,156.9L246.9,159L246.6,160.7L246.3,162.6L246.1,163.5L246,164.4L246.3,166.6L246.4,167L245.6,167.9L244.7,168.4L244.3,168.9L243.2,170.6L242.7,173.2L242.6,174.6L242.9,177.5L242.7,178.6L242.4,179.4L242,179.9L241,180.6L240.1,182.1L239.7,183.7L239.1,184.3L239,185.2L238.5,186.1L237.3,187.6L236.4,188L236,188.4L235.8,189.3L235,190.7L234.4,192.5L234.5,193.1L234.6,193.2L234.8,195.3L234.7,195.8L233.9,196.4L231,197.5L230.2,198L228.5,199.8L228.4,200.2L228.5,200.9L228.7,201.2L228.4,201.6L228.1,202.3L227.6,202.3L224.7,202.3L223.1,202.5L222.3,202.4L222,202.3L221.6,202L221.4,201.6L221.6,201.1L221.5,200.8L221.1,200.8L220.6,200.9L220.5,201.3L220.6,201.5L220.7,201.8L220.8,202.3L220.6,202.6L219.7,202.7L218.7,203L217.4,203.1L216.4,203.4L215.9,203.1L216.4,202.9L217.1,203L217.8,202.7L217.6,202.4L216.6,202.1L215.4,202.3L214.8,202.8L213.4,202.7L211.7,203.1L211.4,203.4L211.5,204.1L211.8,204.2L212.1,204.6L211.8,204.8L211.5,205L209.7,205.3L208.1,206.6L207.4,206.8L206.7,207.4L206.7,207.9L206.5,208.2L206.1,208.2L205.2,207.9L204.1,207.9L203.3,208.1L199.1,210.3L197.6,211.2L195.9,213L193.1,215L191.5,216.2L191.3,216.5L191,216.5L190.5,216.8L190.7,217L191.1,217L190.9,217.7L190.3,218.2L189.2,219.4L188.9,219.3L189.3,218.7L188.7,218.7L187.9,218.4L187.6,218.7L187.8,219.3L187.5,219.6L186.9,219.6L186.4,219.6L185.8,219.1L186.1,219.9L187.3,220.2L187.8,220.4L187.9,220.7L187,222.2L186.3,222.4L186.2,222.6L186.6,222.6L186.8,223.1L186.5,224.8L186.2,225.1L186,225.1L185.7,225.4L186,226L186.3,226.4L186.3,227.2L186.2,227.8L186.2,228.5L186.6,229.7L186.7,231L186.9,231.4L187,232L186.7,232.4L186.8,233.2L186.4,234.5L186.6,236.5L186.5,238.2L186.4,239.2L186.1,239.9L185.4,240.9L185.4,241.8L184,242.7L182.4,244L181,245.4L179.4,247.5L177.6,250.7L175.9,255.3L173.9,258.7L173.1,260L172,261.4L170.6,263L168.6,264.7L166.5,266.1L165.7,266.8L164.9,267.8L164.8,267.4L164.9,266.7L164.8,266.3L164.8,265.6L165.2,265.5L165.9,265.9L166.2,265.6L166.4,265.4L167.2,265.2L168.7,263.6L169.8,263L170.4,262L170.5,261.4L170.5,260.4L170.8,260.1L171.6,260.2L171.8,259.9L171.7,259.5L171.9,258.8L173,258.1L173.5,257.3L173.3,255.3L173.5,255.2L173.9,255.5L174.1,255.4L174.4,254.5L174.3,254L173.7,253.9L171.9,254.9L171.4,254.8L171.3,254.1L170.4,253.7L170,253L169.9,252.6L169.6,252.4L169.6,253.2L169.7,253.9L170.5,254.8L170.3,255.2L169.9,255.6L169.7,256.5L169.7,257.6L169.5,257.3L169.2,257.1L169.1,258.4L168.6,258.8L168.4,259.3L168.6,259.9L168.3,260.3L167,261.3L165.7,262L165.4,262.3L165.2,263.1L165,263.9L164.4,264.6L164,266L164,266.7L164.1,267.5L164.4,268.1L164,268.5L163.5,269.3L163,270.2L162,273.5L161.1,275.4L160.4,276.4L159.4,277.4L156.5,280L156.4,280L155.9,279.7L155.6,279.5L155.5,279.3L155.5,279.1L155.5,278.2L155.5,275.7L155.6,275.2L155.8,274.9L156.4,274.5L156.9,273.8L157.5,273L158.1,272.4L157.9,272L157.4,271.6L156.6,271.2L155.8,270.6L155.1,269.9L154.7,269.1L154.4,268.3L154.2,267.6L154.1,267.3L153.8,267.2L153.3,266.8L153.1,266.5L152.7,266.4L151.9,266.2L151.1,265.8L150.2,265L149.5,264.1L149.2,263.5L148.8,263.1L146.9,262.4L146,261.5L145.7,261.8L145.1,261.6L144.6,261.1L144.5,260.8L144.3,260.5L144.1,260.2L143.9,259.8L143.4,259.2L142.7,258.6L142.4,258.4L142.3,258.4L142.1,258.7L142,258.9L141.8,259.1L141.5,259.4L141.1,259.8L140.7,260L140.2,260.1L139.9,260.1L139.8,259.9L139.8,259.4L139.9,258.3L139.6,257.8L139.3,257.4L138.8,256.7L137.3,255.4L135.4,253.5L134.7,252.9L134,252.9L133.4,253L132.8,253.2L132.4,254.1L132.2,254.2L131.2,254.2L130.1,254.1L129.7,253.5L130,253.2L131,252.4L131.6,251.7L131.7,251.1L132.2,250.6L133,250.1L134,249.2L135,247.9L135.7,247L135.9,246.4L136.3,245.9L136.9,245.6L137.4,244.9L137.9,243.8L138.5,243L139.3,242.4L139.7,241.9L139.8,241.5L140,241.2L140.3,241.1L140.5,240.9L140.5,240.6L140.6,240.4L140.8,240.2L141.1,240.3L141.6,240.5L141.9,240.4L142,240.2L141.9,239.9L141.5,239.5L141.6,239.2L142.6,238.6L143.2,238.3L143.6,238L144.1,237.4L144.7,237L145.6,236.7L145.8,236.5L145.8,236.2L146,236L146.5,235.9L146.8,235.6L146.8,235.2L147,234.8L147.3,234.5L147.6,234.4L148,234.4L148.4,234.3L148.7,234L149.1,233.8L149.5,233.8L149.7,233.8L150.5,233.6L150.9,233.3L151.3,232.6L151.6,232.4L151.8,232.5L152.3,232.3L153,231.7L153.1,231.7L153.6,231.4L154.1,230.4L154.3,229.7L154.3,229.2L154.1,228.8L154.2,228.2L154.3,226.6L154.4,226L154.7,225.5L154.6,225.1L154.2,224.1L153.7,223.2L153.4,221.8L153.2,221.2L152.8,221L152.5,220.5L152,220.5L151.8,220.3L151.6,220.2L151.2,220.2L151,220.5L150.4,220.5L150.1,220.6L149.7,220.9L149.4,220.8L149.1,220.5L148.7,220.5L148.7,219.5L149.6,218L149.8,217.4L149.7,217L149.9,215.6L150.6,213.2L150.8,211.7L150.6,211L150.5,210.5L150.9,210L151,209.9L150.2,209.4L149.8,208.9L149.2,208.5L148.6,208.3L148.3,208.4L148,208.5L147.4,208.8L146.7,209.2L146.3,209.4L145.7,209.6L145,209.7L144.4,209.6L143.9,209.5L143.6,209.2L143.4,208.6L143.4,208.1L143.3,207.4L143,207L142.8,206.7L142.8,206.3L142.8,205.8L143,205.5L142.9,205.1L142.7,204.9L142.8,204.4L142.7,203.7L142.4,203.3L142.3,202.9L142.3,202.4L142.1,201.9L142.1,201.4L142.3,200.9L142.3,200.4L142.1,200.1L141.8,199.9L141.5,199.3L141.5,198.6L141.2,198.3L140.9,197.9L140.5,197.9L140,197.8L139.5,197.8L138.7,197.8L138.4,197.6L138.2,197.4L137.7,197.1L137.4,196.5L137.1,196.4L136.6,196.5L136.4,196.8L136.2,197.1L135.9,197.4L135.5,197.4L135,197.6L134.6,197.6L134,197.7L133.4,197.5L132.7,197.3L132.1,197.2L131.5,197.3L131.1,197.2L130.6,197.1L130,197.1L129.5,196.7L129,196.5L128.8,196.6L128.4,196.8L128,196.8L127.6,196.6L127.4,196.2L127.4,195.9L127.5,195.6L127.7,195.2L127.6,194.8L127.6,194.5L127.7,194.1L127.8,193.8L127.7,193.4L127.7,193.1L127.7,192.8L127.6,192.4L127.9,191.9L128.1,191.5L127.9,191.1L128,190.8L128.2,190.4L128.4,189.9L128.4,189L128.2,188.5L127.9,188.3L127.9,188.2L128,188L127.9,187.8L127.9,187.5L128,187.3L127.8,187L127.5,186.8L127.4,186.7L127.3,186.3L127.2,185.8L127.3,185.4L127.1,185.1L126.9,184.9L126.7,184.5L126.5,184.3L126.4,183.9L126.3,183.4L126.7,183.3L126.9,183L127.1,182.7L127.5,182.6L128,182.4L128.2,182.2L127.1,181.2L126.4,180.6L126.8,179.8L127.4,178.4L128.1,177.1L128.5,176.1L128.7,176L129.1,175.9L129,175.4L129,175L128.7,175L129,173.8L129.6,172.1L130,170.8L130.1,170.6L130.4,170.5L130.5,170.4L130.1,170.1L129.9,169.7L129.4,168.6L128.7,166.8L128.6,166.1L128.3,165.7L127.9,165.8L127.3,165.7L126,164.7L125.1,164.2L124.8,163.9L124.6,162.8L124.4,161.7L124.3,160.3L124.3,160L125.1,158.9L125.1,158.4L125.1,158L125.1,157.6L124.9,157.6L124.6,157.7L124.1,157.9L123.9,157.9L121.2,157.8L118.2,157.7L115.7,157.6L113.5,157.5L113.5,156.6L113.3,155.1L113.2,154L113.1,152.3L112.2,151.2L111.3,150.1L111,149.8L112.1,149.8L112.9,149.7L112.7,146.7L112.5,146.3L112.3,145.4L112.1,144.8L111.7,144.3L111.6,143.8L111.7,143.5L111.9,143.3L112.1,142.8L112,142.2L111.7,141.7L111.4,141.3L110.9,141L110.1,140.4L108.9,139.8L107.8,139.3L107.5,139.4L105.7,139.5L105.1,139.6L104.7,139.5L103.3,139.5L102.8,139.2L102.4,138.8L101.4,137.7L101.3,137.2L100.9,137L100.3,137.1L99.8,137L98.7,136.5L97.7,136.1L97.2,136.1L96.7,135.8L95.9,135.1L95.6,134.9L95.4,134.5L95.3,134L94.9,133.9L94.5,134L94.1,134.2L93.5,134.1L92.7,133.6L92.3,133.2L92,133L91.3,132.7L90.7,132.7L89.8,133.1L89,132.9L87.7,132.8L86.7,132.5L86.3,131.8L86.1,131.3L85.5,131L85,130.6L84.4,130L84.1,129.9L83.6,129.7L83.1,129.5L83,129.1L82.9,128.7L82.8,128.6L82.5,128L82.3,127.9L82.1,128.1L82,128.1L81.9,128L81.8,127.8L81.9,127.4L81.7,126.9L81.3,126.5L81,126L81,125.6L80.9,125.2L80.7,125.1L80.6,124.8L80.6,124.4L80.7,123.9L81,123.4L80.9,122.5L80.5,121.4L80.3,120.5L80.2,120L80.3,119.7L80.5,119.3L81.1,118.4L81.2,117.7L81,117L81,116.4L81.1,116L80.9,115.4L80.5,114.9L80.3,114.9L79.9,115.1L79.5,115.5L79,115.6L78.6,115.3L77.2,115.4L75.1,115.7L74.2,115.9L73.7,116.1L73.1,116.1L72.1,116.6L69.7,118.5L69.2,118.8L68.6,118.8L68.3,119.1L67.8,119.3L66.7,120L66.2,120.6L65.8,121.2L65.4,121.2L65.1,121L64.1,121.1L63.6,121.3L63.1,121.8L62.4,122.8L62.1,123L61.6,123.3L60.9,123.6L60.2,123.9L59.8,123.9L59.5,124L59.2,123.8L59.1,123.5L58.7,123.3L57.8,123.2L56.3,122.9L54.9,122.9L54.1,122.9L53.5,122.9L52.5,122.8L51.7,122.8L51,123.1L50.1,123.5L49.6,123.6L49.3,123.6L49,123.6L48.6,123.4L48.1,122.9L47.7,123.1L47.4,123.3L47.4,122.2L47.4,120.5L47.4,119.1L47.4,117.9L47.4,116.6L47.4,115.6L47.7,115.3L47.9,114.9L47.7,114.3L47.7,113.9L47.8,113.5L48,113.2L47.6,113.3L47.4,113.4L47.2,113.7L46.7,114L46.3,114.4L45.9,114.7L45.3,115.3L44.9,115.6L44.4,115.8L43.6,116.6L43,116.7L41.3,116.8L39.5,116.8L37.9,116.8L37.7,116.8L37.7,116.2L37.7,115.8L37.2,115.3L37.1,114.8L37,114.4L36.8,113.9L36.4,113.6L35.9,113.5L35,113.3L33.7,113L32.4,113L31.2,113L31.9,112.1L32.7,111.1L32.7,110.3L32,109.6L31.7,109.2L31.2,108.6L30.6,108.2L30.2,107.6L30.3,107.3L30.2,107L30,106.9L29.7,106.7L29.4,106.5L29,106.2L29,105.9L28.9,105.6L28.6,105.2L28.6,104.9L28.4,104.5L28.2,104.1L27.9,103.9L27.6,103.6L27.6,103.3L27.9,103.2L28,102.9L27.9,102.6L27.6,102.4L27.3,102.3L26.8,101.8L26.5,101.5L26.3,101.3L26.2,101.2L26.3,101L26.4,100.8L26.5,100.5L26.4,100.3L26.4,100L26.6,99.9L26.8,100L27.1,99.8L27.4,99.8L27.8,99.8L27.9,99.6L27.9,99.3L27.7,98.7L27.5,98.5L27.4,98.1L27.6,97.4L27.7,97L28.1,96.6L29.3,95.6L30.4,94.9L31,94.8L31.4,94.6L31.6,94.2L31.7,93.8L31.6,93.4L31.4,92.9L31.2,92.2L31,91.9L31.2,91.4L31.5,90.8L32.1,89.9L32.6,88.9L32.7,88.6L32.7,88L33,86.8L33.2,86.2L33.1,85.9L33.2,85.7L33.6,85.5L34.4,85.3L35,85L35.8,84.3L36.6,83.5L37.2,83.3L38.3,82.6L38.9,82.2L39.2,82.1L39.8,81.8L40.9,81.7L41.8,81.5L42.4,81.3L43.1,81.3L43.6,81L44.2,81L45.3,80.8L45.7,80.4L46,80L46.4,79.7L46.9,79.6L47.4,79.6L48.1,79.6L48.9,79.5L49.3,79.8L49.4,80.1L49.9,80.5L50.3,80.5L50.6,80.4L51.1,80.7L51.4,80.6L51.6,80.5L51.7,80.1L51.8,79.8L52,78.5L52.4,76.4L52.7,74.5L53.1,72.3L53.5,70.1L53.9,67.9L54.3,66.1L54.6,64.5L54.7,63.5L55,62.2L55.1,61.1L55.2,60.8L55.2,60.5L54.9,60.2L54.9,60L55,59.8L54.9,59.6L54.7,59.4L54.5,59.2L54.3,59.1L54.3,58.8L54.1,58.6L54.1,58.3L53.9,58.1L53.9,57.8L54,57.6L54,57.3L54,57.1L53.9,56.8L53.8,56.5L53.6,56.3L53,56.1L52.5,55.7L51.9,55.3L51.2,54.5L51,54.1L51,53.2L51,52.1L51.1,50.4L51.1,49.6L51.5,49.6L51.9,49.5L52.3,49.5L52.7,49.4L53,49.3L53.2,49.2L53.5,49.1L53.7,49.1L53.9,49L54.2,48.8L54.4,48.7L54.8,48.7L55.1,48.9L55.3,49.1L55.5,49.2L55.7,49.1L55.8,49.2L56,49.3L56.2,49.3L56.4,49.3L56.7,49.2L56.8,49.2L56.8,49.1L56.7,48.9L56.7,48.8L56.7,48.5L56.7,48.2L56.7,47.8L56.5,47.6L56.4,47.2L56.1,46.8L55.8,46.6L55.5,46.5L55.2,46.7L55,46.7L54.8,46.6L54.5,46.6L54.2,46.5L53.9,46.5L53.2,46.6L53,46.5L52.7,46.5L52.4,46.6L52.4,45L52.4,43.5L52.4,42.5L52.7,42.5L53.1,42.3L53.6,42.3L54.1,42.1L54.3,42.1L54.8,42.2L55.3,42.4L55.7,42.4L57,42.4L58.3,42.4L59.8,42.4L61.3,42.4L62.6,42.4L63,42.4L62.7,42.1L62.5,41.6L62.6,41.2L62.7,40.9L62.9,40.7L63.3,40.9L63.6,41.5L63.9,42L64.2,42.2L64.5,42.2L64.9,42.1L65.2,42L65.9,41.1L66.5,40.4L66.9,40.2L67.3,39.9L67.5,39.9L67.9,39.9L68.2,40.1L68.4,40.4L69.1,41.6L69.6,42.5L69.8,43.1L69.8,44.4L69.8,45.6L69.9,45.8L70,45.8Z"/></svg>
