<svg xmlns="http://www.w3.org/2000/svg" viewBox="0 0 400 300"><path d="M338.9,16L339,16.2L338.9,16.9L338.9,22L328.9,21.9L329,30.4L326.2,30.7L325.4,32.4L326,37.2L314.1,37.1L313.4,38.2L313.6,36.8L313.6,36.8L320.5,36.6L320.8,35.4L322.1,33.9L323.1,29.4L327.3,25.8L328.7,21.5L329.7,21.3L330.7,18.6L333.2,18.3L334.3,18.7L335.7,18.7L336.7,18L338.6,17.8L338.5,16Z" fill="#2c2c34" stroke="#474751" stroke-width="0.8"/><path d="M120.3,0L119.6,0.7L118.2,2.8L117.7,5.3L118.3,7.8L119.3,10.7L120.6,13.2L120.6,14.7L122.1,18.7L122,20.9L121.8,22.3L121.1,24.3L120.2,24.7L118.7,24.3L118.2,22.9L117,22.1L115.4,19.2L114,16.6L113.6,15.2L114.2,12.9L113.3,11L111,8.1L109.8,7.6L106.7,9.2L106.2,9L104.7,7.3L102.8,6.5L99.4,6.9L96.7,6.5L94.3,6.8L93.1,7.3L93.6,8.2L93.6,9.7L94.2,10.4L93.7,10.8L92.5,10.3L91.4,11L89.2,10.9L86.9,9L84.3,9.4L82.1,8.6L80.2,8.9L77.6,9.7L74.8,12.3L71.8,13.8L70.2,15.4L69.5,17L69.4,19.3L69.6,20.9L70.2,22.1L69,22.2L66.8,21.4L64.5,20.4L63.6,18.8L62.9,16.4L61.1,14.4L60.1,12.4L58.6,10L56.4,8.7L53.9,8.7L52,11.5L49.5,10.4L47.9,9.4L47.2,7.5L46.2,5.6L44.4,4.1L42.8,2.9L41.7,1.7L36.4,1.7L36.4,3.1L34,3.1L28,3.2L21.1,0.7L19.3,0L120.3,0Z" fill="#2c2c34" stroke="#474751" stroke-width="0.8"/><path d="M156.8,300L156.8,292.2L156.8,292.2L157.9,294.6L159.5,298.4L161.5,300L156.8,300ZM190.2,199.9L189.5,202.7L188.6,206.4L188.7,209.9L188,210.8L187.8,213.1L187.6,215L191.4,218.2L191,220.8L192.9,222.4L192.8,224.3L189.8,229.2L185.3,231.3L179.2,232.1L175.9,231.7L176.5,234L175.9,237L176.5,239L174.7,240.4L171.5,241L168.6,239.5L167.4,240.5L167.9,244.6L169.9,245.8L171.6,244.5L172.5,246.7L169.7,247.9L167.3,250.5L166.8,254.8L166.1,257.1L163.2,257.1L160.8,259.3L160,262.6L163,265.8L165.9,266.7L164.8,270.8L161.2,273.3L159.3,278.8L156.5,280.7L155.2,282.9L156.2,288L158.2,290.8L157,290.6L154.1,289.8L146.8,289.1L145.5,286.3L145.6,282.6L143.6,282.9L142.5,281.2L142.2,276.2L144.6,274.2L145.5,271.3L145.2,269L146.8,265.1L147.9,259.3L147.6,256.8L148.9,256L148.6,254.4L147.2,253.5L148.2,251.8L146.8,250.2L146.1,245.4L147.3,244.6L146.8,239.6L147.5,235.5L148.3,232L150.1,230.6L149.2,226.8L149.2,223.3L151.5,220.9L151.4,217.8L153.2,214.2L153.2,210.8L152.4,210.1L151,203.9L152.9,200.3L152.6,196.9L153.7,193.7L155.7,190.5L157.8,188.4L156.9,187.1L157.5,186L157.4,180.4L160.7,178.7L161.8,175.3L161.4,174.5L163.9,171.5L167.9,172.3L169.7,174.7L170.9,172L174.3,172.2L174.8,172.9L180.4,178.2L182.9,178.7L186.6,181.2L189.7,182.5L190.2,184L187.2,189.2L190.3,190.1L193.7,190.6L196.1,190.1L198.8,187.4L199.3,184.5L200.8,183.8L202.4,185.8L202.3,188.5L199.7,190.4L197.7,191.8L194.3,195.1Z" fill="#2c2c34" stroke="#474751" stroke-width="0.8"/><path d="M143.8,300L142.6,299L138.5,293.2L141,294.3L145.2,297.7L149.3,299.6L150.8,297.2L151.8,293.7L154.6,291.6L156.8,292.2L156.8,292.2L156.8,300L143.8,300ZM153.9,157.8L155.4,159.9L155.8,162.2L157.4,163.6L156.4,166.7L158,170.4L159.2,174.9L161.4,174.5L161.8,175.3L160.7,178.7L157.4,180.4L157.5,186L156.9,187.1L157.8,188.4L155.7,190.5L153.7,193.7L152.6,196.9L152.9,200.3L151,203.9L152.4,210.1L153.2,210.8L153.2,214.2L151.4,217.8L151.5,220.9L149.2,223.3L149.2,226.8L150.1,230.6L148.3,232L147.5,235.5L146.8,239.6L147.3,244.6L146.1,245.4L146.8,250.2L148.2,251.8L147.2,253.5L148.6,254.4L148.9,256L147.6,256.8L147.9,259.3L146.8,265.1L145.2,269L145.5,271.3L144.6,274.2L142.2,276.2L142.5,281.2L143.6,282.9L145.6,282.6L145.5,286.3L146.8,289.1L154.1,289.8L157,290.6L154.3,290.5L152.8,291.7L150.1,293.6L149.6,298.3L148.3,298.4L144.9,296.8L141.4,293.2L137.6,290.4L136.6,287.3L137.5,284.4L136,281.2L135.6,273.2L136.9,268.9L140.1,265.4L135.5,264.1L138.4,260.2L139.4,253.1L142.8,254.6L144.4,245.9L142.3,244.8L141.4,250L139.5,249.4L140.4,243.5L141.4,236.1L142.8,233.4L142,229.6L141.7,225.2L143,225.1L144.9,219L147,213.1L148.3,207.7L147.6,202.4L148.5,199.4L148.1,195.1L149.9,190.9L150.4,184.3L151.4,177.4L152.3,170.1L152.1,164.7L151.5,160.2L153.1,159.4Z" fill="#2c2c34" stroke="#474751" stroke-width="0.8"/><path d="M147.4,42.4L147.7,44.1L147.5,45.4L146.7,45.9L147.5,46.9L147.4,47.7L145.4,47.2L144,47.4L142.1,47.2L140.7,47.8L139.1,46.8L139.3,45.8L142.1,46.2L144.4,46.5L145.5,45.8L144.1,44.4L144.2,43.1L142.2,42.6L142.9,41.7L144.8,41.9Z" fill="#2c2c34" stroke="#474751" stroke-width="0.8"/><path d="M147.4,47.7L147.5,46.9L146.7,45.9L147.5,45.4L147.7,44.1L147.4,42.4L147.8,41.8L150.2,41.9L152,42.7L152.8,42.6L153.3,43.7L155,43.7L154.9,44.6L156.2,44.8L157.7,45.9L156.6,47.2L155.2,46.5L153.8,46.7L152.8,46.5L152.2,47.1L151.1,47.3L150.6,46.5L149.6,47L148.4,49.2L147.6,48.7Z" fill="#2c2c34" stroke="#474751" stroke-width="0.8"/><path d="M125.3,19L126.8,18.7L128.8,18.8L128.9,19.7L125.5,20.2ZM128.9,18.1L131.4,19.6L130.8,22.1L130.3,21.6L130.3,19.9L129,18.5ZM127.7,24.3L128.7,24.4L129.7,27.2L129.7,29.2L129,29.3L128.2,27.4L127.1,26.4Z" fill="#2c2c34" stroke="#474751" stroke-width="0.8"/><path d="M179.4,288.3L183,285.4L185.6,286.6L187.4,284.7L189.8,286.9L188.9,288.6L184.8,290.1L183.5,288.3L180.9,290.6Z" fill="#2c2c34" stroke="#474751" stroke-width="0.8"/><path d="M19.3,0L21.1,0.7L28,3.2L34,3.1L36.4,3.1L36.4,1.7L41.7,1.7L42.8,2.9L44.4,4.1L46.2,5.6L47.2,7.5L47.9,9.4L49.5,10.4L52,11.5L53.9,8.7L56.4,8.7L58.6,10L60.1,12.4L61.1,14.4L62.9,16.4L63.6,18.8L64.5,20.4L66.8,21.4L69,22.2L70.2,22.1L69,25L68.5,27.4L68.2,31.9L67.9,33.5L68.5,35.3L69.4,36.9L70,39.4L72,41.8L72.7,43.7L73.9,45.2L77.2,46.1L78.4,47.4L81.1,46.5L83.4,46.2L85.7,45.6L87.6,45.1L89.5,43.8L90.2,41.9L90.5,39.2L91,38.2L93.1,37.4L96.3,36.6L99,36.7L100.8,36.4L101.5,37.1L101.4,38.7L99.8,40.6L99.1,42.6L99.6,43.2L99.2,44.6L98.4,47.1L97.7,46.2L97,46.3L96.4,46.3L95.4,48.3L94.8,47.9L94.4,48L94.5,48.5L91.7,48.5L88.8,48.5L88.8,50.3L87.4,50.3L88.6,51.3L89.7,52.1L90,52.8L90.5,52.9L90.5,54L86.5,54L85.1,56.6L85.5,57.2L85.2,57.9L85.1,58.8L81.7,55.5L80.1,54.4L77.6,53.6L75.9,53.8L73.5,55L71.9,55.3L69.8,54.5L67.5,53.9L64.7,52.5L62.4,52L59,50.5L56.4,49L55.6,48.2L54,48L50.8,47L49.6,45.5L46.3,43.7L44.8,41.6L44.1,40.1L45.1,39.7L44.8,38.8L45.5,38L45.5,36.8L44.5,35.4L44.2,34.1L43.2,32.4L40.5,29.1L37.4,26.5L36,24.4L33.3,23.1L32.8,22.2L33.3,20.1L31.7,19.4L29.9,17.7L29.1,15.3L27.5,15L25.7,13.2L24.3,11.5L24.2,10.4L22.6,7.8L21.5,5.1L21.5,3.7L19.3,2.3L18.3,2.5L16.6,1.5L16.1,3L16.6,4.7L16.9,7.3L17.9,8.8L20.2,11.2L20.7,12L21.2,12.2L21.6,13.4L22.1,13.4L22.7,15.6L23.6,16.5L24.3,17.7L26.2,19.4L27.2,22.5L28.1,24L28.9,25.6L29.1,27.4L30.6,27.5L31.8,29L32.9,30.5L32.8,31.1L31.5,32.3L31,32.2L30.2,30.2L28.2,28.3L26,26.7L24.5,25.9L24.6,23.4L24.1,21.6L22.7,20.6L20.6,19L20.2,19.5L19.4,18.6L17.5,17.8L15.7,15.8L16,15.5L17.2,15.7L18.3,14.4L18.5,12.9L16.1,10.4L14.3,9.4L13.2,7.2L12.1,4.9L10.7,2.1L9.9,0L19.3,0Z" fill="#2c2c34" stroke="#474751" stroke-width="0.8"/><path d="M190.2,199.9L192.2,199.5L195.2,202.2L196.4,202.1L199.5,204.4L201.9,206.4L203.6,208.8L202.3,210.5L203.1,212.6L201.8,214.9L198.4,217L196.1,216.2L194.5,216.6L191.7,215L189.6,215.1L187.8,213.1L188,210.8L188.7,209.9L188.6,206.4L189.5,202.7Z" fill="#2c2c34" stroke="#474751" stroke-width="0.8"/><path d="M154,137L156.3,137.2L157.9,137.2L158.5,136.2L161.2,135L162.8,133.8L166.8,133.3L166.5,135.6L166.8,136.8L166.6,138.9L169.9,141.7L173.3,142.2L174.5,143.3L176.5,143.9L177.8,144.9L179.7,144.8L181.5,145.8L181.6,147.6L182.2,148.5L182.2,149.8L181.3,149.9L182.5,153.6L188.3,153.7L187.9,155.5L188.2,156.8L189.9,157.7L190.6,159.7L190.1,162.2L189.2,163.6L189.5,165.4L188.6,166.1L188.5,165.1L185.7,163.5L182.9,163.4L177.6,164.3L176.1,167.2L176,168.9L174.8,172.9L174.3,172.2L170.9,172L169.7,174.7L167.9,172.3L163.9,171.5L161.4,174.5L159.2,174.9L158,170.4L156.4,166.7L157.4,163.6L155.8,162.2L155.4,159.9L153.9,157.8L155.8,154.3L154.5,151.7L155.2,150.6L154.6,149.4L155.8,147.9L155.9,145.2L156,143L156.7,142Z" fill="#2c2c34" stroke="#474751" stroke-width="0.8"/><path d="M152.9,116.6L150.2,116.4L149.8,116.9L147.3,117.5L143.8,119.5L143.6,121L142.8,122L143.1,123.7L141.3,124.6L141.3,125.9L140.5,126.4L141.8,129.2L143.5,131.1L142.8,132.4L144.8,132.6L146,134.2L148.7,134.3L151.2,132.5L151,137.1L152.3,137.5L154,137L156.7,142L156,143L155.9,145.2L155.8,147.9L154.6,149.4L155.2,150.6L154.5,151.7L155.8,154.3L153.9,157.8L153.1,159.4L151.5,160.2L148.4,158.4L148.2,157.1L142.1,153.9L136.7,150.4L134.4,148.5L133.1,145.9L133.6,145L131,140.9L128,135.2L125.2,129.1L123.9,127.7L123,125.4L120.6,123.4L118.4,122.2L119.4,120.8L118,117.9L118.9,115.8L121.3,113.8L121.7,115.1L120.8,115.8L120.9,117L122.1,116.7L123.4,117L124.7,118.6L126.4,117.3L126.9,115.3L128.8,112.6L132.5,111.4L135.8,108.2L136.7,106.3L136.3,104L137.1,103.7L139.1,105.1L140.1,106.5L141.5,107.3L143.3,110.5L145.6,110.9L147.2,110.1L148.3,110.6L150.1,110.4L152.5,111.8L150.5,114.9L151.4,114.9Z" fill="#2c2c34" stroke="#474751" stroke-width="0.8"/><path d="M162.1,99.7L161.5,100.1L160.9,98.3L160.1,97.3L159.1,98.4L153.2,98.3L153.2,100.2L155,100.5L154.9,101.7L154.3,101.3L152.6,101.8L152.6,104.1L153.9,105.2L154.4,106.9L154.3,108.2L152.9,116.6L151.4,114.9L150.5,114.9L152.5,111.8L150.1,110.4L148.3,110.6L147.2,110.1L145.6,110.9L143.3,110.5L141.5,107.3L140.1,106.5L139.1,105.1L137.1,103.7L136.3,104L135,103.2L133.5,102.2L132.6,102.7L130.1,102.3L129.3,101L128.8,101L125.7,99.3L125.3,98.4L126.4,98.1L126.3,96.6L127,95.5L128.5,95.3L129.8,93.4L131,91.8L129.8,91.1L130.4,89.3L129.7,86.5L130.4,85.7L129.9,83.1L128.7,81.5L129.1,80L130,80.2L130.6,79.3L129.9,77.5L130.3,77.1L131.8,77.1L134.1,75L135.4,74.7L135.4,73.7L136,71L137.7,69.6L139.6,69.6L139.9,68.9L142.2,69.2L144.6,67.6L145.8,66.9L147.3,65.4L148.4,65.6L149.2,66.4L148.6,67.5L146.6,68L145.8,69.5L144.7,70.4L143.8,71.6L143.4,73.8L142.6,75.6L144.2,75.8L144.5,77.2L145.2,77.9L145.4,79.1L145.1,80.2L145.2,80.9L145.9,81.1L146.7,82.2L150.6,81.9L152.3,82.3L154.5,84.9L155.7,84.6L157.9,84.8L159.6,84.4L160.7,84.9L160.2,86.6L159.5,87.6L159.2,89.8L159.8,91.8L160.7,92.7L160.8,93.4L159.3,94.9L160.4,95.6L161.2,96.7Z" fill="#2c2c34" stroke="#474751" stroke-width="0.8"/><path d="M130.3,77.1L129.9,77.5L130.6,79.3L130,80.2L129.1,80L128.7,81.5L127.7,80.6L127,79L127.8,78.1L127,77.9L126.4,76.9L124.9,76L123.6,76.2L123,77.3L121.7,78.1L121.1,78.2L120.8,78.8L122.2,80.5L121.4,80.9L121,81.3L119.5,81.5L119,79.7L118.6,80.2L117.6,80L117,78.8L115.8,78.6L115,78.2L113.7,78.2L113.6,78.9L113.2,78.4L113.4,77.8L113.6,77.2L113.5,76.6L114,76.3L113.3,75.8L113.3,74.6L114.5,74.3L115.6,75.4L115.5,76.1L116.7,76.2L117,75.9L117.9,76.7L119.4,76.5L120.7,75.7L122.5,75.1L123.5,74.2L125.2,74.3L125.1,74.6L126.8,74.7L128.2,75.3L129.1,76.2Z" fill="#2c2c34" stroke="#474751" stroke-width="0.8"/><path d="M114.5,74.3L113.3,74.6L113.3,75.8L114,76.3L113.5,76.6L113.6,77.2L113.4,77.8L113.2,78.4L111.6,77.7L111,77.1L111.3,76.6L111.2,75.9L110.4,75.1L109.2,74.5L108.1,74.1L107.9,73.2L107.1,72.7L107.3,73.6L106.7,74.3L106,73.5L105,73.2L104.6,72.5L104.6,71.6L105,70.6L104.2,70.2L104.9,69.6L105.3,69.2L107.3,70L108,69.6L109,69.9L109.5,70.5L110.4,70.7L111.1,70.1L111.9,71.7L113.1,73Z" fill="#2c2c34" stroke="#474751" stroke-width="0.8"/><path d="M111.1,70.1L110.4,70.7L109.5,70.5L109,69.9L108,69.6L107.3,70L105.3,69.2L104.9,69.6L103.8,68.6L102.4,67.4L101.7,66.3L100.5,65.3L98.9,63.9L99.3,63.5L99.8,63.9L100,63.7L101,63.6L101.3,62.9L101.8,62.8L101.7,61.3L102.4,61.2L103.1,61.2L103.7,60.4L104.6,61L104.9,60.7L105.5,60.3L106.5,59.4L106.6,58.8L106.9,58.8L107.3,58.1L107.6,58L108.1,58.4L108.7,58.6L109.4,58.2L110.2,58.2L111.2,57.8L111.6,57.3L112.7,57.4L112.4,57.7L112.3,58.4L112.6,59.6L111.9,60.6L111.5,61.9L111.4,63.3L111.6,64.1L111.7,65.5L111.2,65.8L110.9,67.1L111.1,67.9L110.5,68.7L110.7,69.5Z" fill="#2c2c34" stroke="#474751" stroke-width="0.8"/><path d="M112.7,57.4L111.6,57.3L111.2,57.8L110.2,58.2L109.4,58.2L108.7,58.6L108.1,58.4L107.6,58L107.3,58.1L106.9,58.8L106.6,58.8L106.5,59.4L105.5,60.3L104.9,60.7L104.6,61L103.7,60.4L103.1,61.2L102.4,61.2L101.7,61.3L101.8,62.8L101.3,62.9L101,63.6L100,63.7L99.5,62.7L98.6,62.5L98.8,61.2L98.4,60.9L97.7,60.6L96.4,61L96.3,60.6L95.4,60.1L94.7,59.5L93.8,59.2L94.5,58.4L94.2,57.8L94.4,57.2L95.9,56.3L97.3,55.1L97.6,55.2L98.2,54.7L99.1,54.6L99.4,54.9L99.9,54.7L101.3,55L102.7,54.9L103.7,54.6L104,54.2L105,54.4L105.7,54.6L106.5,54.5L107.1,54.3L108.5,54.7L109,54.8L109.9,55.4L110.8,56.1L111.9,56.5Z" fill="#2c2c34" stroke="#474751" stroke-width="0.8"/><path d="M93.8,59.2L94.7,59.5L95.4,60.1L96.3,60.6L96.4,61L97.7,60.6L98.4,60.9L98.8,61.2L98.6,62.5L98.2,63.2L96.5,63.1L95.4,62.8L94.1,62.2L92.4,62L91.6,61.4L91.7,60.9L92.7,60.1L93.3,59.8L93.1,59.4Z" fill="#2c2c34" stroke="#474751" stroke-width="0.8"/><path d="M85.1,58.8L85.2,57.9L85.5,57.2L85.1,56.6L86.5,54L90.5,54L90.5,52.9L90,52.8L89.7,52.1L88.6,51.3L87.4,50.3L88.8,50.3L88.8,48.5L91.7,48.5L94.5,48.5L94.4,51L94.2,54.6L95.1,54.6L96.1,55.2L96.4,54.7L97.3,55.1L95.9,56.3L94.4,57.2L94.2,57.8L94.5,58.4L93.8,59.2L93.1,59.4L93.3,59.8L92.7,60.1L91.7,60.9L91.6,61.4L90,60.8L88.1,60.8L86.7,60.1Z" fill="#2c2c34" stroke="#474751" stroke-width="0.8"/><path d="M94.5,48.5L94.4,48L94.8,47.9L95.4,48.3L96.4,46.3L97,46.3L97,46.8L97.6,46.8L97.6,47.6L97.1,49L97.3,49.5L97,50.7L97.2,51L96.9,52.6L96.3,53.4L95.7,53.5L95.1,54.6L94.2,54.6L94.4,51Z" fill="#2c2c34" stroke="#474751" stroke-width="0.8"/><path d="M180.8,87.7L181.2,88.5L180.1,89.7L176.7,90.8L174.5,91.3L173.6,92L171.2,91.3L168.9,90.9L168.4,91.2L169.7,92L169.6,94L170,95.9L172.6,96.2L172.8,96.8L170.6,97.7L170.2,99L169,99.5L166.7,100.2L166.1,101.1L163.8,101.3L162.1,99.7L161.2,96.7L160.4,95.6L159.3,94.9L160.8,93.4L160.7,92.7L159.8,91.8L159.2,89.8L159.5,87.6L160.2,86.6L160.7,84.9L159.6,84.4L157.9,84.8L155.7,84.6L154.5,84.9L152.3,82.3L150.6,81.9L146.7,82.2L145.9,81.1L145.2,80.9L145.1,80.2L145.4,79.1L145.2,77.9L144.5,77.2L144.2,75.8L142.6,75.6L143.4,73.8L143.8,71.6L144.7,70.4L145.8,69.5L146.6,68L148.6,67.5L148.5,68.2L146.7,68.6L147.7,70L147.7,71.6L146.3,73.4L147.5,75.8L148.8,75.6L149.5,73.4L148.5,72.3L148.4,70L152.1,68.7L151.7,67.2L152.8,66.3L153.9,68.4L156,68.5L158,70.2L158.1,71.2L160.8,71.3L164.1,71L165.8,72.3L168.1,72.7L169.8,71.8L169.9,71L173.6,70.8L177.3,70.7L174.7,71.7L175.7,73.1L178.2,73.3L180.5,74.9L181,77.3L182.5,77.3L183.7,78L181.3,79.8L181.1,80.9L182.1,82L181.3,82.6L179.5,83.1L179.5,84.5L178.7,85.4Z" fill="#2c2c34" stroke="#474751" stroke-width="0.8"/><path d="M193.5,97.7L192.8,97.8L191.1,97.6L190.1,98.4L188.7,98.9L187.8,99L187.4,99.6L185.9,99.5L184.1,98.1L183.9,96.7L183.1,95.1L183.6,92.5L184.4,91.5L183.7,90L182.7,89.6L183.1,88.2L182.4,87.5L180.8,87.7L178.7,85.4L179.5,84.5L179.5,83.1L181.3,82.6L182.1,82L181.1,80.9L181.3,79.8L183.7,78L185.7,79.1L187.6,81.1L187.7,82.7L188.8,82.8L190.5,84.3L191.7,85.3L191.2,88.1L189.3,88.9L189.5,89.6L188.9,91.1L190.3,93.4L191.3,93.4L191.7,95.1Z" fill="#2c2c34" stroke="#474751" stroke-width="0.8"/><path d="M199.6,96.5L197.9,95.8L196.5,96.1L195.2,95.9L194.9,96.7L195.4,97.4L195.2,98L193.5,97.7L191.7,95.1L191.3,93.4L190.3,93.4L188.9,91.1L189.5,89.6L189.3,88.9L191.2,88.1L191.7,85.3L195.3,85.9L195.6,85.4L198.1,85.2L201.4,86L199.8,88.6L200,90.7L201.2,92.5L200.7,93.8L200.4,95.2Z" fill="#2c2c34" stroke="#474751" stroke-width="0.8"/><path d="M208.3,90.9L206.5,93.6L205.6,95.9L204.4,97L203,97.3L202.6,96.4L201.9,96.3L201,97.1L199.6,96.5L200.4,95.2L200.7,93.8L201.2,92.5L200,90.7L199.8,88.6L201.4,86L202.4,86.3L204.6,87L207.8,89.6Z" fill="#2c2c34" stroke="#474751" stroke-width="0.8"/><path d="M136.3,104L136.7,106.3L135.8,108.2L132.5,111.4L128.8,112.6L126.9,115.3L126.4,117.3L124.7,118.6L123.4,117L122.1,116.7L120.9,117L120.8,115.8L121.7,115.1L121.3,113.8L122.9,111.6L122.3,110.2L121.1,111.7L119.3,110.3L119.9,109.5L119.4,106.7L120.5,106.2L121,104.4L122.2,102.4L122,101.2L123.6,100.5L125.7,99.3L128.8,101L129.3,101L130.1,102.3L132.6,102.7L133.5,102.2L135,103.2Z" fill="#2c2c34" stroke="#474751" stroke-width="0.8"/><path d="M163.9,46.2L165.5,46.5L166,47.2L165.2,48L163,47.9L161.2,48.1L161,46.7L161.4,46.2Z" fill="#2c2c34" stroke="#474751" stroke-width="0.8"/><path d="M129.6,46.3L131.7,46.6L133.3,47.4L133.8,48.2L131.7,48.3L130.7,48.8L129,48.3L127.3,47.2L127.7,46.4L128.9,46.2Z" fill="#2c2c34" stroke="#474751" stroke-width="0.8"/><path d="M115.3,31L118,31.3L120.4,31.3L123.2,32.4L124.4,33.6L127.3,33.3L128.3,34L130.9,36.1L132.8,37.5L133.8,37.5L135.6,38.2L135.4,39.1L137.6,39.2L139.9,40.5L139.6,41.3L137.5,41.7L135.5,41.9L133.4,41.6L129.1,41.9L131.1,40.1L129.9,39.3L127.9,39.1L126.8,38.1L126.1,36.3L124.4,36.4L121.6,35.5L120.7,34.8L116.7,34.3L115.6,33.7L116.8,32.9L113.8,32.7L111.6,34.4L110.4,34.4L109.9,35.2L108.4,35.6L107.1,35.3L108.7,34.3L109.4,33.1L110.8,32.4L112.3,31.7L114.6,31.4Z" fill="#2c2c34" stroke="#474751" stroke-width="0.8"/><path d="M314.5,61.8L313.2,59.4L311.7,58.2L313.1,57.7L314.5,55.4L315.3,53.8L316.3,52.8L317.8,53.1L319.3,52.4L321,52.3L322.4,53.3L324.5,54.1L326.3,56.4L328.3,58.6L328.4,60.5L329,62.3L330.2,63.2L330.4,64.4L330.3,65.4L329.9,65.6L328.2,65.3L328,65.7L327.3,65.7L325.1,65L323.7,64.9L318,64.8L317.2,65.2L316.2,65.1L314.6,65.6L314.1,63.2L316.9,63.3L317.6,62.8L318.2,62.8L319.3,62.1L320.6,62.7L321.9,62.8L323.2,62.1L322.6,61.2L321.6,61.7L320.7,61.7L319.5,60.9L318.5,61L317.8,61.7Z" fill="#2c2c34" stroke="#474751" stroke-width="0.8"/><path d="M330.3,65.4L330.4,64.4L330.2,63.2L329,62.3L328.4,60.5L328.3,58.6L329.3,58L329.8,56.2L330.8,56.1L332.9,57L334.6,56.4L335.8,56.6L336.3,55.9L348.5,55.8L349.1,53.6L348.6,53.2L347.1,39.4L345.7,25.2L350.3,25.1L360.6,32.3L370.8,39.5L371.5,41L373.4,41.9L374.8,42.5L374.9,44.5L378.2,44.2L378.3,51.5L376.6,53.7L376.3,55.6L373.6,56.1L369.5,56.4L368.4,57.5L366.4,57.6L364.5,57.6L363.7,57L362,57.5L359.2,58.8L358.6,59.8L356.3,61.2L355.8,62L354.6,62.6L353.1,62.2L352.3,62.9L351.8,65.1L349.4,67.7L349.5,68.7L348.7,70L348.9,71.8L347.6,72.3L346.9,72.7L346.4,71.3L345.6,71.7L345,71.6L344.5,72.5L342.1,72.5L341.3,72L340.9,72.3L340,71.4L340.1,70.5L339.7,70.2L339.1,70.5L339.2,69.4L339.8,68.7L338.6,67.3L338.2,66.5L337.5,65.8L336.9,65.7L336.2,66.2L335.2,66.6L334.4,67.3L333.1,67L332.3,66.2L331.8,66.1L331,66.5L330.5,66.5Z" fill="#2c2c34" stroke="#474751" stroke-width="0.8"/><path d="M313.4,38.2L314.1,37.1L326,37.2L325.4,32.4L326.2,30.7L329,30.4L328.9,21.9L338.9,22L338.9,16.9L350.3,25.1L345.7,25.2L347.1,39.4L348.6,53.2L349.1,53.6L348.5,55.8L336.3,55.9L335.8,56.6L334.6,56.4L332.9,57L330.8,56.1L329.8,56.2L329.3,58L328.3,58.6L326.3,56.4L324.5,54.1L322.4,53.3L321,52.3L319.3,52.4L317.8,53.1L316.3,52.8L315.3,53.8L315,52.1L315.9,50.5L316.2,47.5L315.9,44.4L315.5,42.8L315.8,41.2L315,39.6Z" fill="#2c2c34" stroke="#474751" stroke-width="0.8"/><path d="M373.5,84.4L371,84.8L370.2,82.7L370.3,75.6L369.7,75L369.6,73.5L368.6,72.4L367.6,71.5L368,69.9L369.1,69.5L369.7,68.2L371.2,67.9L371.8,67L372.8,66L373.9,66L376.3,67.8L376.1,68.9L376.8,70.7L376.2,71.9L376.5,72.8L375.1,74.7L374.1,75.6L373.6,77.6L373.6,79.5Z" fill="#2c2c34" stroke="#474751" stroke-width="0.8"/><path d="M400,62.6L398.7,62.4L397.8,62.9L396,62.8L394.2,64.1L392.7,64.2L389,62.6L387.6,63.4L386,63.3L384.9,62.1L381.8,61L378.6,61.3L377.8,62L377.3,63.8L376.5,65.1L376.3,67.8L373.9,66L372.8,66L371.8,67L371.9,64.8L368.4,64.1L368.3,62.6L366.6,60.6L366.2,59.1L366.4,57.6L368.4,57.5L369.5,56.4L373.6,56.1L376.3,55.6L376.6,53.7L378.3,51.5L378.2,44.2L382.5,42.8L391.3,36.4L400,31.2L400,62.6Z" fill="#2c2c34" stroke="#474751" stroke-width="0.8"/><path d="M400,82.7L398.9,83.3L397.2,82L396,82.1L394.2,83.8L393.3,83.9L391.9,86.8L391.1,89L387.9,90.1L386.8,89.9L385.6,90.6L383.2,90.5L381.6,88.6L380.6,86.4L378.4,84.4L376.1,84.4L373.5,84.4L373.5,84.4L373.6,79.5L373.6,77.6L374.1,75.6L375.1,74.7L376.5,72.8L376.2,71.9L376.8,70.7L376.1,68.9L376.3,67.8L376.5,65.1L377.3,63.8L377.8,62L378.6,61.3L381.8,61L384.9,62.1L386,63.3L387.6,63.4L389,62.6L392.7,64.2L394.2,64.1L396,62.8L397.8,62.9L398.7,62.4L400,62.6L400,82.7Z" fill="#2c2c34" stroke="#474751" stroke-width="0.8"/><path d="M400,96.6L399.5,96.6L394.6,96.6L395,94.2L393.9,92.1L392.5,91.6L391.9,90.3L391.1,89.8L391.1,89L391.9,86.8L393.3,83.9L394.2,83.8L396,82.1L397.2,82L398.9,83.3L400,82.7L400,96.6Z" fill="#2c2c34" stroke="#474751" stroke-width="0.8"/><path d="M368,69.9L367.6,71.5L368.6,72.4L369.6,73.5L369.7,75L370.3,75.6L370.2,82.7L371,84.8L368.5,85.4L367.8,84.4L367,82.4L366.8,80.9L367.4,78.2L366.7,77L366.4,74.6L366.4,72.4L365.1,70.8L365.4,69.8Z" fill="#2c2c34" stroke="#474751" stroke-width="0.8"/><path d="M365.4,69.8L365.1,70.8L366.4,72.4L366.4,74.6L366.7,77L367.4,78.2L366.8,80.9L367,82.4L367.8,84.4L368.5,85.4L363.7,87.2L362,88.3L359.3,89.2L356.6,88.3L356.7,87.1L355.4,84.5L356.2,81L357.5,78.4L356.7,74.1L356.3,71.7L356.3,70L361.6,69.8L363,70.1L364,69.6Z" fill="#2c2c34" stroke="#474751" stroke-width="0.8"/><path d="M340.9,72.3L341.3,72L342.1,72.5L344.5,72.5L345,71.6L345.6,71.7L346.4,71.3L346.9,72.7L347.6,72.3L348.9,71.8L350.2,72.5L350.8,73.5L352.1,74.2L353.2,73.4L354.6,73.3L356.7,74.1L357.5,78.4L356.2,81L355.4,84.5L356.7,87.1L356.6,88.3L355.2,88.3L353.1,87.7L351.2,87.8L347.6,88.3L345.4,89.2L342.4,90.3L341.8,90.2L342.1,87.7L342.4,87.3L342.3,86.1L341,84.8L340,84.6L339.1,83.8L339.8,82.4L339.5,81L339.6,80.1L340.1,80.1L340.3,78.7L340.1,78.1L340.4,77.7L341.5,77.3L340.7,74.9L340,73.6L340.3,72.6Z" fill="#2c2c34" stroke="#474751" stroke-width="0.8"/><path d="M323.7,64.9L325.1,65L327.3,65.7L328,65.7L328.2,65.3L329.9,65.6L330.3,65.4L330.5,66.5L331,66.5L331.8,66.1L332.3,66.2L333.1,67L334.4,67.3L335.2,66.6L336.2,66.2L336.9,65.7L337.5,65.8L338.2,66.5L338.6,67.3L339.8,68.7L339.2,69.4L339.1,70.5L339.7,70.2L340.1,70.5L340,71.4L340.9,72.3L340.3,72.6L340,73.6L340.7,74.9L341.5,77.3L340.4,77.7L340.1,78.1L340.3,78.7L340.1,80.1L339.6,80.1L338.8,80L338.2,81.2L337.3,81.2L336.7,80.6L336.9,79.3L335.6,77.4L334.8,77.8L334.2,77.9L333.4,78L333.4,76.9L332.9,76.1L333,75.2L332.4,73.9L331.5,72.8L329.1,72.8L328.4,73.4L327.5,73.5L327,74.1L326.7,75L325,76.3L323.7,74.5L322.5,73.3L321.7,72.9L321,72.3L320.6,70.9L320.2,70.2L319.3,69.7L320.7,68.2L321.6,68.3L322.4,67.8L323,67.8L323.5,67.4L323.3,66.3L323.6,66Z" fill="#2c2c34" stroke="#474751" stroke-width="0.8"/><path d="M314.6,65.6L316.2,65.1L317.2,65.2L318,64.8L323.7,64.9L323.6,66L323.3,66.3L323.5,67.4L323,67.8L322.4,67.8L321.6,68.3L320.7,68.2L319.3,69.7L317.7,68.4L316.4,68.2L315.7,67.4L315.7,66.9L314.8,66.2Z" fill="#2c2c34" stroke="#474751" stroke-width="0.8"/><path d="M339.6,80.1L339.5,81L339.8,82.4L339.1,83.8L340,84.6L341,84.8L342.3,86.1L342.4,87.3L342.1,87.7L341.8,90.2L341,90.2L337.9,88.8L335.2,86.5L332.6,84.8L330.5,82.8L331.2,81.9L331.4,81L332.8,79.3L334.2,77.9L334.8,77.8L335.6,77.4L336.9,79.3L336.7,80.6L337.3,81.2L338.2,81.2L338.8,80Z" fill="#2c2c34" stroke="#474751" stroke-width="0.8"/><path d="M325,76.3L326.7,75L327,74.1L327.5,73.5L328.4,73.4L329.1,72.8L331.5,72.8L332.4,73.9L333,75.2L332.9,76.1L333.4,76.9L333.4,78L334.2,77.9L332.8,79.3L331.4,81L331.2,81.9L330.5,82.8L329.7,82.6L327.5,81.4L325.9,79.7L325.4,78.6Z" fill="#2c2c34" stroke="#474751" stroke-width="0.8"/><path d="M348.9,71.8L348.7,70L349.5,68.7L349.4,67.7L351.8,65.1L352.3,62.9L353.1,62.2L354.6,62.6L355.8,62L356.3,61.2L358.6,59.8L359.2,58.8L362,57.5L363.7,57L364.5,57.6L366.4,57.6L366.2,59.1L366.6,60.6L368.3,62.6L368.4,64.1L371.9,64.8L371.8,67L371.2,67.9L369.7,68.2L369.1,69.5L368,69.9L365.4,69.8L364,69.6L363,70.1L361.6,69.8L356.3,70L356.3,71.7L356.7,74.1L354.6,73.3L353.2,73.4L352.1,74.2L350.8,73.5L350.2,72.5Z" fill="#2c2c34" stroke="#474751" stroke-width="0.8"/><path d="M400,116.9L399,115.6L400,114.9L400,116.9Z" fill="#2c2c34" stroke="#474751" stroke-width="0.8"/><path d="M400,114.9L399,115.6L395.9,112.5L393.9,110L392,106.9L392.1,105.9L392.8,104.9L393.5,102.7L394.1,100.4L395.1,100.2L399.6,100.3L399.5,96.6L399.5,96.6L400,96.6L400,114.9Z" fill="#2c2c34" stroke="#474751" stroke-width="0.8"/><path d="M394.6,96.6L399.5,96.6L399.6,100.3L395.1,100.2L394.1,100.4L393.5,100Z" fill="#2c2c34" stroke="#474751" stroke-width="0.8"/><path d="M314.5,61.8L317.8,61.7L318.5,61L319.5,60.9L320.7,61.7L321.6,61.7L322.6,61.2L323.2,62.1L321.9,62.8L320.6,62.7L319.3,62.1L318.2,62.8L317.6,62.8L316.9,63.3L314.1,63.2Z" fill="#2c2c34" stroke="#474751" stroke-width="0.8"/><path d="M399.2,0L398.5,0.5L397.6,1.6L395.5,3L395.8,4.5L395.6,6L394.1,6.8L394.1,6.8L392.8,0.4L392.2,0L399.2,0Z" fill="#2c2c34" stroke="#474751" stroke-width="0.8"/><path d="M392.2,0L392.8,0.4L394.1,6.8L395.1,9.9L395.2,11.5L394.7,14.3L394.9,15.9L394.5,17.8L394.8,19.9L393.6,21.3L395.4,23.8L395.5,25.2L396.6,27.1L398,26.5L400,27.8L400,31.2L400,31.2L391.3,36.4L382.5,42.8L378.2,44.2L374.9,44.5L374.8,42.5L373.4,41.9L371.5,41L370.8,39.5L360.6,32.3L350.3,25.1L338.9,16.9L338.9,16.9L339,16.2L338.9,16L338.9,11.9L343.8,9.4L346.9,8.8L349.4,7.9L350.5,6.1L354.1,4.7L354.2,2.1L356,1.8L357.3,0.5L360.3,0L392.2,0Z" fill="#2c2c34" stroke="#474751" stroke-width="0.8"/><path d="M188.6,166.1L189.5,167.9L189.3,172.3L192.5,173L193.7,172.3L195.8,173.2L196.3,174.2L196.6,177.2L197,178.5L198.1,178.6L199.2,178.1L200.3,178.7L200.3,180.5L199.9,182.5L199.3,184.5L198.8,187.4L196.1,190.1L193.7,190.6L190.3,190.1L187.2,189.2L190.2,184L189.7,182.5L186.6,181.2L182.9,178.7L180.4,178.2L174.8,172.9L176,168.9L176.1,167.2L177.6,164.3L182.9,163.4L185.7,163.5L188.5,165.1Z" fill="#2c2c34" stroke="#474751" stroke-width="0.8"/><path d="M360.3,0L357.3,0.5L356,1.8L354.2,2.1L354.1,4.7L350.5,6.1L349.4,7.9L346.9,8.8L343.8,9.4L338.9,11.9L338.9,16L338.5,16L338.6,17.8L336.7,18L335.7,18.7L334.3,18.7L333.2,18.3L330.7,18.6L329.7,21.3L328.7,21.5L327.3,25.8L323.1,29.4L322.1,33.9L320.8,35.4L320.5,36.6L313.6,36.8L313.6,36.8L313.7,35.3L314.9,34.4L315.9,32.7L315.7,31.6L316.7,29.3L318.4,27.2L319.4,26.6L320.2,24.7L320.3,22.9L321.4,20.8L323.4,19.5L325.4,16.1L325.4,16L326.9,14.7L329.8,14.3L332.2,12L333.7,11L336.2,8.1L335.5,3.7L336.6,0.7L336.8,0L360.3,0Z" fill="#2c2c34" stroke="#474751" stroke-width="0.8"/><path d="M400,27.8L398,26.5L396.6,27.1L395.5,25.2L395.4,23.8L393.6,21.3L394.8,19.9L394.5,17.8L394.9,15.9L394.7,14.3L395.2,11.5L395.1,9.9L394.1,6.8L395.6,6L395.8,4.5L395.5,3L397.6,1.6L398.5,0.5L399.2,0L400,0Z" fill="#2c2c34" stroke="#474751" stroke-width="0.8"/><path d="M177.9,70.6L179.6,70.2L180.3,70.3L180.2,72.6L177.6,73L177.1,72.7L178,71.8Z" fill="#2c2c34" stroke="#474751" stroke-width="0.8"/><path d="M162.1,99.8L162.9,100.5L163.5,101L163.7,101.2L163.9,101.2L164.2,101.2L164.6,101.1L164.8,101L165,100.9L165.3,100.6L165.6,100.5L165.7,100.5L165.8,100.5L166.1,100.7L166.2,100.9L166.1,101.2L166.1,101.4L166.4,101.4L166.6,101.1L166.7,100.9L167,100.7L167.3,100.4L167.5,100.1L167.7,100L168.1,99.8L168.4,99.7L168.6,99.7L168.8,99.6L169.1,99.3L169.3,99.1L169.4,99.1L169.6,99.1L169.9,99.1L170.2,98.8L170.5,98.6L170.6,98.1L170.7,97.7L170.8,97.6L170.9,97.6L171,97.5L171.3,97.5L171.8,97.3L172.1,97.1L172.5,97L172.6,96.9L172.7,96.7L172.8,96.4L172.7,96.2L172.1,96.1L171.7,96.1L171.1,96L170.8,96L170.7,95.9L170.7,95.8L170.8,95.7L170.8,95.4L170.7,95L170.4,94.4L170.2,93.8L170.1,93.3L170.2,92.9L170.2,92.6L170,92.4L169.1,91.6L168.8,91.3L168.7,91.1L168.4,90.6L168.5,90.5L168.6,90.5L168.8,90.6L169,90.9L169.1,90.9L169.3,90.9L170.1,90.9L170.3,90.9L170.4,91L170.5,91.1L170.6,91.4L170.8,91.5L171.1,91.5L171.6,91.5L171.9,91.5L172.1,91.6L172.3,91.7L172.7,91.5L172.9,91.5L173,91.6L173.5,92.1L173.7,92.3L174,92.6L174.3,92.6L174.6,92.3L174.7,91.5L174.8,91.3L174.9,91.2L175.1,91.2L175.3,91.1L175.5,90.9L175.7,90.9L176.5,91L176.7,90.9L177.5,90.7L178.3,90.5L178.5,90.1L178.8,90L179.1,89.8L179.3,89.8L179.7,89.8L179.8,89.8L179.9,89.7L180.1,89.6L180.2,89.2L180.5,89.1L180.7,89L180.9,88.8L181.1,88.6L181.2,88.4L181.2,88.3L181.1,88L181,87.8L180.8,87.7L180.7,87.7L181,87.6L181.2,87.7L181.6,87.7L181.8,87.6L182,87.7L182.3,87.5L182.5,87.6L182.6,87.6L182.7,87.7L182.8,87.8L183,88L183,88.3L183,88.6L182.9,88.9L182.9,89.1L182.8,89.3L182.6,89.5L182.6,89.6L182.6,89.7L182.7,89.8L182.9,89.8L183.1,89.8L183.3,89.9L183.5,89.9L183.8,90.1L183.9,90.2L183.9,90.3L183.8,90.5L183.8,90.6L183.9,90.8L183.9,90.8L184.1,91.3L184.3,91.4L184.3,91.5L184.4,91.5L184.3,91.7L184.2,91.9L184,92.1L184,92.2L183.8,92.3L183.4,92.6L183.5,93L183.5,93.2L183.5,93.3L183.4,93.5L183.2,94.1L183.1,94.4L183,95.1L183,95.3L183.1,95.6L183.3,96.3L183.5,96.4L183.7,96.6L183.8,97L183.8,97.5L183.7,97.7L183.8,97.8L183.9,97.8L184,97.9L184,98L184,98.2L184.2,98.3L184.4,98.3L184.6,98.5L184.9,98.9L185,98.9L185.1,99L185.3,99.3L185.7,99.4L186.1,99.5L186.3,99.7L186.5,99.8L186.6,99.8L186.7,99.8L186.9,99.7L187,99.6L187.2,99.6L187.5,99.6L187.6,99.5L187.6,99.4L187.5,99.1L187.6,99L187.9,99L187.9,98.8L188,98.8L188,98.7L188.1,98.7L188.2,98.7L188.4,98.7L188.5,98.8L188.6,98.9L188.8,98.9L189,98.9L189,98.8L189.1,98.7L189.1,98.5L189.2,98.5L189.5,98.4L189.7,98.3L190,98.3L190.3,98.3L190.5,98.2L190.6,98.1L190.9,97.7L191,97.6L191.1,97.5L191.3,97.5L191.5,97.5L191.7,97.4L191.8,97.4L192,97.6L192.1,97.7L192.2,97.7L192.6,97.8L192.8,97.7L193.1,97.7L193.3,97.7L193.4,97.7L193.6,97.6L193.7,97.6L193.8,97.6L194,97.6L194.5,97.8L195.1,97.9L195.3,97.9L195.4,97.8L195.4,97.5L195.4,97.3L195.3,97.1L195.1,96.9L194.9,96.7L194.7,96.6L194.8,96.5L194.9,96.4L195,96.3L195.1,96.2L195.2,95.9L195.2,95.8L195.3,95.8L195.3,95.8L195.5,95.9L196,96.2L196.2,96.1L197,96.1L197.1,95.9L197.3,95.9L197.6,95.8L197.7,95.7L197.8,95.8L198,95.7L198.2,95.6L198.3,95.6L198.3,95.7L198.4,95.9L198.6,96L198.6,96.1L198.9,96L199,96.1L199.1,96.2L199.1,96.3L199.2,96.4L199.3,96.4L199.4,96.5L199.6,96.5L199.7,96.7L199.9,96.8L200.3,96.9L200.5,97L200.7,97L200.8,97.1L201,97L201.4,96.7L201.6,96.6L201.7,96.5L201.9,96.4L201.9,96.3L202,96.4L202,96.5L202.2,96.5L202.6,96.6L202.7,96.6L202.9,96.6L203.2,96.4L203.3,96.4L203.4,96.5L203.5,96.7L203.6,96.8L203.7,96.8L204,96.8L204.2,96.9L204.4,96.9L204.6,96.8L204.7,96.6L204.9,96.5L205.2,96.3L205.3,96.1L205.5,95.8L205.6,95.7L205.6,95.4L205.9,94.8L206,94.7L206.1,94.5L206.2,94.2L206.2,94L206.3,93.8L206.5,93.7L206.6,93.6L206.8,93.3L207,93L207.3,92.4L207.3,92.2L207.5,92.1L207.5,92L207.7,91.9L207.8,91.7L207.9,91.5L208,91.4L208.3,91.2L208.4,91.1L208.6,90.6L208.7,90.4L208.9,90.4L209.3,90.6L209.7,91L210.1,92.3L210.2,93.5L210.4,94.1L210.9,95.4L210.9,95.7L211,96L211.1,96.3L211.3,96.8L211.3,96.9L211.2,97L211.4,97L211.5,97.1L211.6,97.4L211.8,97.6L212,97.9L212.5,98L212.8,98.1L213.2,98.2L213.5,98.4L213.7,99.2L213.7,99.6L213.7,100L213.6,100.1L213.2,100.3L213.2,100.4L212.5,101L212.3,101.2L212,101.6L211.6,102.2L211.1,102.8L210.9,103L210.6,103L210.4,103.1L210,103.6L209.5,103.8L209.4,104L209.1,104.7L208.8,105L208.7,105.2L208.2,105.8L208.2,106.1L208.2,106.6L207.8,106.9L207.5,107.1L207.5,107.5L207.4,107.6L207.2,107.7L206.6,107.6L205.6,108.1L205.3,108.2L206.4,108.2L206.7,108.5L207.5,108.3L208.4,107.7L208.7,107.6L209.4,107.2L209.7,106.9L210.3,106.6L210.4,106.5L210.7,106.3L210.8,106.5L210.8,106.7L210.6,106.9L210.7,107L210.8,107.2L210.9,107.5L210.9,107.7L211,108L211.3,108.5L211.3,108.6L211.3,108.8L211.4,109L211.6,109.1L212.2,109.6L212.6,109.3L212.9,109.3L213,109.1L213.4,109.1L213.7,109.2L214.2,109.3L214.6,109.2L215.5,108.8L215.2,109.5L215,110.2L214.9,110.4L214.7,111.2L214.6,111.3L214.5,111.6L214.7,111.5L214.8,111.4L215,111.1L215.2,110.6L215.8,109.3L216,109.2L216.4,109.1L217.3,108L217.6,108L217.8,108.3L218.1,108.4L218.1,108.1L218.4,108L218.1,107.9L218,107.7L218,107.5L218.2,107.2L218.1,107L218.5,106.7L218.5,106.4L218.6,106.2L218.8,106L219.1,105.9L219.1,105.7L219.2,105.7L219.4,105.6L219.6,105.8L219.8,105.6L220,105.5L220.1,105.5L220.3,105.7L220.4,105.7L220.5,105.7L220.8,105.5L221.1,105.8L221.2,105.8L221.2,105.7L221.1,105.6L221.2,105.5L221.3,105.4L221.7,105.5L221.9,105.6L222.1,105.8L222.4,105.8L222.7,105.8L222.8,105.9L223.1,105.9L223.2,106L223.6,106.3L223.7,106.4L224,106.5L224.3,106.6L224.6,106.7L224.9,106.6L224.9,106.8L225.1,106.9L225.4,106.8L225.6,107.1L226.2,107.3L226.6,107.6L226.9,107.5L227.2,107.6L227.5,108.3L227.6,108.7L227.7,108.7L227.8,108.4L228,108.1L228.3,107.9L228.5,108.1L228.8,108.3L229.1,108.6L229.2,108.7L229.4,108.8L229.2,109L229.4,108.9L229.6,108.8L229.8,109.1L230,109.4L230,109.7L229.8,109.9L229.7,110L229.6,110.3L229.5,110.3L229.3,110.4L229.5,110.5L229.6,110.7L229.9,110.3L230,110.2L230.3,110.1L230.4,110.4L230.4,110.7L230,110.8L230,111L229.9,111.2L229.8,111.3L229.8,111.6L229.7,111.9L229.4,113L229.4,113.2L229.7,113L230.3,112.4L230.5,111.8L230.7,111.2L230.9,111L231.1,111L231.3,111.1L231.3,111.3L231.3,111.4L231,111.7L230.9,111.9L231,112L231.6,111.5L231.8,111.3L232,111.4L232.4,111.1L233.3,111.1L233.3,110.8L233.5,110.7L233.9,110.7L234.8,111L235.2,111.2L235.6,111.4L235.9,111.6L236.9,112L237.7,112L238.1,111.8L238.5,112L238.8,112.2L239.3,112.4L239.8,112.4L240.1,112.3L241.1,112.2L242.3,112L243,112L243.9,112.2L244.5,112.6L244.9,112.8L245.2,113L245.7,113.2L246.8,113.8L247.1,114.1L247.7,114.6L248.4,114.8L248.7,115.3L249,115.5L249.7,116.3L250.5,116.9L251,117.5L252,117.8L252.3,118.4L253,118.5L253.3,118.6L253.6,118.9L254.1,119L254.7,119L255.4,119L256,118.9L257.3,119.1L257.5,119.2L257.8,119.5L258.2,120.4L258.5,121.5L258.7,122.3L259,123L259.2,124.2L259.3,124.5L259.3,124.8L259.5,124.9L259.5,125.7L259.5,126L259.4,126.4L259.4,126.6L259.4,126.8L259.3,126.9L259.3,127.1L259.4,127.5L259.4,127.8L259.3,128.2L259.1,129.1L258.5,130.7L257.9,131.7L257.1,132.6L256.6,133.1L256.4,133.2L256.2,133.1L256.4,133.3L256.3,133.6L255.7,134.3L255.2,134.7L254.7,135.5L254.7,135.5L254,135.9L253.6,136.1L253.1,136.6L252.6,137.3L252.5,137.4L252.3,137.3L252.3,137.7L251.9,138.3L251.8,138.4L251.8,138.2L251.9,138.1L251.9,137.9L251.9,137.8L251.8,137.9L251.5,138.3L251.6,138.7L251.4,139.1L250.8,140.5L250,141.7L249.8,142.1L249.1,142.8L248.6,143.2L248.5,143.2L248.3,143.2L248.2,142.6L247.8,142.2L247.7,142.2L247.6,142.5L247.4,142.7L247.2,142.7L247.5,142.8L247.5,143L247.3,143.4L247.3,143.8L246.9,144.2L246.7,144.5L246.6,144.8L246.5,145.2L246.7,145.1L246.8,145.1L246.8,145.3L246.8,145.4L246.7,145.7L246.7,146.4L246.7,146.6L246.8,146.8L246.9,146.5L247,146.6L246.6,148.5L246.8,149.4L246.8,150.4L247,151.4L247.1,152.2L247.2,152.3L246.9,153.3L246.6,154.3L246.4,155.2L246.3,156.1L246.2,156.5L246.1,156.9L246.3,158L246.3,158.2L246,158.6L245.5,158.8L245.3,159.1L244.8,159.9L244.6,161.2L244.5,161.8L244.7,163.2L244.6,163.8L244.4,164.1L244.2,164.4L243.8,164.7L243.3,165.4L243.1,166.2L242.8,166.5L242.8,166.9L242.6,167.4L241.9,168.1L241.6,168.3L241.4,168.5L241.2,168.9L240.9,169.5L240.6,170.4L240.6,170.7L240.7,170.8L240.8,171.8L240.7,172L240.4,172.3L239,172.8L238.6,173.1L237.7,173.9L237.7,174.2L237.7,174.5L237.9,174.6L237.7,174.8L237.6,175.2L237.3,175.1L235.9,175.1L235.2,175.2L234.8,175.2L234.6,175.1L234.4,175L234.3,174.8L234.4,174.6L234.4,174.4L234.2,174.4L234,174.5L233.9,174.6L233.9,174.8L234,174.9L234.1,175.1L234,175.3L233.5,175.3L233,175.5L232.4,175.5L231.9,175.7L231.7,175.5L231.9,175.4L232.2,175.5L232.6,175.4L232.5,175.2L232,175L231.5,175.1L231.2,175.4L230.5,175.3L229.7,175.5L229.5,175.7L229.6,176L229.7,176.1L229.9,176.2L229.7,176.4L229.6,176.4L228.7,176.6L227.9,177.2L227.6,177.3L227.3,177.6L227.2,177.8L227.2,178L227,178L226.5,177.9L226,177.9L225.6,178L223.6,179L222.9,179.4L222.1,180.3L220.7,181.2L220,181.8L219.8,182L219.7,182L219.5,182.1L219.6,182.2L219.7,182.2L219.7,182.5L219.4,182.8L218.8,183.4L218.7,183.3L218.9,183L218.6,183L218.2,182.9L218.1,183L218.2,183.3L218,183.5L217.7,183.5L217.5,183.4L217.2,183.2L217.4,183.6L217.9,183.7L218.2,183.8L218.2,184L217.8,184.7L217.4,184.8L217.4,184.9L217.6,184.9L217.7,185.1L217.6,186L217.4,186.1L217.3,186.1L217.2,186.3L217.3,186.5L217.5,186.7L217.5,187.1L217.4,187.4L217.4,187.7L217.6,188.3L217.6,188.9L217.7,189.2L217.8,189.4L217.6,189.6L217.7,190L217.5,190.6L217.6,191.6L217.6,192.4L217.5,192.9L217.4,193.2L217,193.7L217,194.1L216.3,194.6L215.6,195.2L214.9,195.9L214.1,196.9L213.3,198.4L212.5,200.6L211.5,202.3L211.1,202.9L210.6,203.6L209.9,204.3L208.9,205.1L207.9,205.8L207.5,206.2L207.2,206.6L207.1,206.4L207.2,206.1L207.1,205.9L207.1,205.6L207.3,205.5L207.6,205.7L207.8,205.6L207.9,205.5L208.3,205.4L209,204.6L209.5,204.3L209.8,203.8L209.9,203.6L209.8,203.1L210,202.9L210.4,203L210.5,202.8L210.5,202.7L210.5,202.3L211,202L211.3,201.6L211.2,200.6L211.3,200.6L211.5,200.7L211.6,200.7L211.7,200.2L211.7,200L211.4,199.9L210.5,200.4L210.3,200.4L210.2,200L209.8,199.9L209.6,199.5L209.6,199.3L209.4,199.2L209.4,199.6L209.5,200L209.9,200.4L209.8,200.6L209.6,200.8L209.5,201.2L209.5,201.8L209.4,201.6L209.2,201.5L209.2,202.1L208.9,202.3L208.9,202.6L208.9,202.8L208.8,203L208.2,203.5L207.5,203.8L207.4,204L207.3,204.4L207.2,204.8L206.9,205.1L206.7,205.8L206.7,206.1L206.8,206.5L206.9,206.8L206.7,207L206.5,207.4L206.3,207.8L205.8,209.4L205.3,210.3L205,210.8L204.5,211.3L203.1,212.5L203.1,212.5L202.9,212.4L202.7,212.3L202.7,212.2L202.6,212.1L202.7,211.6L202.7,210.4L202.7,210.2L202.8,210L203.1,209.8L203.3,209.5L203.6,209.2L203.9,208.8L203.8,208.6L203.6,208.4L203.2,208.3L202.8,208L202.4,207.6L202.3,207.3L202.1,206.9L202,206.6L202,206.4L201.8,206.3L201.6,206.2L201.5,206L201.3,205.9L200.9,205.8L200.6,205.7L200.1,205.3L199.8,204.8L199.6,204.6L199.4,204.4L198.5,204L198.1,203.6L197.9,203.7L197.7,203.6L197.4,203.4L197.3,203.3L197.2,203.1L197.1,203L197.1,202.8L196.8,202.5L196.5,202.2L196.4,202.1L196.3,202.1L196.2,202.3L196.2,202.4L196,202.4L195.9,202.6L195.7,202.8L195.5,202.9L195.3,202.9L195.1,202.9L195.1,202.8L195.1,202.6L195.1,202.1L195,201.8L194.8,201.6L194.6,201.3L193.9,200.7L193,199.8L192.6,199.5L192.3,199.5L192,199.5L191.7,199.6L191.5,200L191.5,200.1L191,200.1L190.4,200L190.3,199.8L190.4,199.6L190.9,199.2L191.1,198.9L191.2,198.6L191.4,198.3L191.8,198.1L192.3,197.7L192.8,197.1L193.1,196.6L193.2,196.3L193.4,196.1L193.7,195.9L194,195.6L194.2,195.1L194.5,194.7L194.8,194.4L195.1,194.2L195.1,194L195.2,193.8L195.4,193.8L195.4,193.7L195.4,193.5L195.5,193.4L195.6,193.4L195.7,193.4L196,193.5L196.1,193.5L196.1,193.4L196.1,193.2L195.9,193L196,192.9L196.4,192.6L196.7,192.5L196.9,192.3L197.1,192L197.4,191.8L197.9,191.7L198,191.6L198,191.5L198.1,191.4L198.3,191.3L198.5,191.2L198.5,191L198.6,190.8L198.7,190.6L198.9,190.6L199,190.6L199.2,190.5L199.4,190.4L199.5,190.3L199.8,190.3L199.9,190.3L200.2,190.2L200.4,190L200.6,189.7L200.7,189.6L200.9,189.7L201.1,189.6L201.4,189.3L201.5,189.3L201.7,189.1L202,188.7L202.1,188.3L202.1,188.1L202,187.9L202,187.6L202.1,186.8L202.1,186.5L202.2,186.3L202.2,186.1L202,185.6L201.8,185.2L201.6,184.5L201.6,184.2L201.4,184.2L201.2,183.9L201,183.9L200.9,183.8L200.8,183.7L200.6,183.8L200.5,183.9L200.2,183.9L200.1,184L199.9,184.1L199.7,184L199.6,183.9L199.4,183.9L199.4,183.4L199.8,182.7L199.9,182.4L199.9,182.2L200,181.5L200.3,180.4L200.4,179.7L200.3,179.3L200.3,179.1L200.4,178.9L200.5,178.8L200.1,178.5L199.9,178.3L199.6,178.1L199.3,178L199.2,178.1L199,178.1L198.7,178.3L198.4,178.5L198.2,178.6L197.9,178.6L197.6,178.7L197.3,178.7L197.1,178.6L196.9,178.5L196.8,178.2L196.8,177.9L196.8,177.6L196.6,177.4L196.5,177.2L196.5,177.1L196.6,176.9L196.6,176.7L196.6,176.5L196.5,176.4L196.5,176.1L196.5,175.8L196.4,175.6L196.3,175.4L196.3,175.2L196.2,175L196.2,174.7L196.3,174.5L196.3,174.2L196.2,174.1L196,174L195.9,173.7L195.9,173.4L195.8,173.2L195.6,173L195.4,173L195.2,173L194.9,173L194.6,173L194.4,172.9L194.3,172.8L194.1,172.6L193.9,172.3L193.8,172.3L193.6,172.4L193.5,172.5L193.4,172.6L193.2,172.8L193,172.8L192.8,172.9L192.6,172.9L192.3,172.9L192,172.8L191.7,172.7L191.4,172.7L191.1,172.7L190.9,172.7L190.7,172.7L190.4,172.6L190.2,172.5L189.9,172.4L189.8,172.4L189.6,172.5L189.4,172.5L189.2,172.4L189.1,172.2L189.1,172.1L189.2,171.9L189.3,171.7L189.2,171.5L189.2,171.4L189.3,171.2L189.3,171.1L189.3,170.9L189.3,170.7L189.3,170.6L189.2,170.4L189.4,170.1L189.5,169.9L189.4,169.8L189.4,169.6L189.5,169.4L189.6,169.2L189.6,168.8L189.5,168.5L189.4,168.4L189.4,168.4L189.4,168.3L189.4,168.1L189.4,168L189.4,168L189.3,167.8L189.2,167.7L189.1,167.7L189.1,167.5L189,167.2L189.1,167L189,166.9L188.9,166.8L188.8,166.6L188.7,166.5L188.7,166.3L188.6,166.1L188.8,166L188.9,165.9L189,165.7L189.2,165.7L189.4,165.6L189.5,165.5L189,165L188.7,164.7L188.9,164.3L189.2,163.7L189.5,163L189.7,162.6L189.7,162.5L189.9,162.4L189.9,162.2L189.9,162L189.7,162L189.9,161.4L190.2,160.6L190.4,160L190.4,159.9L190.6,159.9L190.6,159.8L190.4,159.7L190.3,159.5L190.1,158.9L189.7,158.1L189.7,157.7L189.6,157.5L189.4,157.6L189.1,157.5L188.4,157.1L188,156.8L187.9,156.7L187.8,156.2L187.7,155.6L187.6,155L187.6,154.8L188,154.3L188,154L188,153.8L188,153.6L187.9,153.6L187.8,153.7L187.6,153.8L187.4,153.8L186.2,153.7L184.7,153.7L183.5,153.6L182.5,153.6L182.4,153.2L182.4,152.4L182.3,151.9L182.3,151.1L181.8,150.6L181.4,150L181.2,149.9L181.8,149.9L182.2,149.9L182.1,148.4L182,148.2L181.9,147.8L181.8,147.5L181.6,147.3L181.6,147L181.6,146.9L181.7,146.8L181.8,146.5L181.7,146.3L181.6,146L181.5,145.8L181.2,145.7L180.8,145.4L180.2,145.1L179.7,144.9L179.6,144.9L178.7,145L178.4,145L178.2,145L177.6,145L177.3,144.8L177.1,144.6L176.6,144.1L176.6,143.8L176.4,143.7L176.1,143.8L175.8,143.7L175.3,143.5L174.8,143.3L174.6,143.3L174.4,143.2L174,142.9L173.8,142.7L173.8,142.6L173.7,142.3L173.5,142.2L173.3,142.3L173.1,142.4L172.8,142.3L172.5,142.1L172.2,141.9L172.1,141.8L171.8,141.7L171.5,141.7L171,141.9L170.7,141.8L170.1,141.7L169.6,141.6L169.4,141.2L169.3,141L169,140.9L168.7,140.7L168.5,140.4L168.3,140.3L168.1,140.2L167.8,140.1L167.8,140L167.7,139.7L167.7,139.7L167.5,139.4L167.5,139.4L167.4,139.5L167.3,139.5L167.2,139.4L167.2,139.3L167.3,139.1L167.2,138.9L167,138.7L166.8,138.5L166.8,138.3L166.8,138.1L166.7,138L166.6,137.9L166.6,137.7L166.7,137.5L166.8,137.2L166.8,136.8L166.6,136.2L166.5,135.8L166.5,135.6L166.5,135.4L166.6,135.2L166.9,134.8L166.9,134.5L166.8,134.1L166.8,133.8L166.9,133.6L166.8,133.4L166.6,133.1L166.5,133.1L166.3,133.2L166.1,133.4L165.9,133.4L165.7,133.3L165,133.4L164,133.5L163.6,133.6L163.3,133.7L163,133.7L162.6,134L161.4,134.9L161.2,135L160.9,135L160.7,135.1L160.5,135.2L160,135.6L159.7,135.9L159.5,136.1L159.3,136.1L159.2,136.1L158.7,136.1L158.5,136.2L158.2,136.5L157.9,136.9L157.7,137L157.5,137.2L157.2,137.3L156.8,137.5L156.6,137.5L156.5,137.5L156.4,137.4L156.3,137.3L156.1,137.2L155.7,137.1L155,137L154.3,137L153.9,137L153.6,137L153.1,136.9L152.7,136.9L152.4,137.1L151.9,137.3L151.7,137.3L151.6,137.3L151.4,137.3L151.2,137.2L151,137L150.8,137L150.7,137.2L150.7,136.6L150.7,135.8L150.7,135.1L150.7,134.6L150.7,133.9L150.7,133.5L150.8,133.3L150.9,133.1L150.8,132.9L150.8,132.6L150.9,132.5L151,132.3L150.8,132.4L150.7,132.4L150.6,132.5L150.3,132.7L150.1,132.9L149.9,133L149.7,133.3L149.5,133.5L149.2,133.6L148.9,133.9L148.5,134L147.7,134L146.9,134L146.1,134L146,134L146,133.8L146,133.5L145.7,133.3L145.7,133.1L145.7,132.9L145.6,132.7L145.4,132.5L145.1,132.5L144.7,132.3L144.1,132.2L143.5,132.2L142.9,132.2L143.2,131.8L143.6,131.3L143.6,130.9L143.3,130.6L143.1,130.4L142.9,130.1L142.6,129.9L142.4,129.6L142.4,129.5L142.4,129.4L142.3,129.3L142.2,129.2L142,129.1L141.8,128.9L141.8,128.8L141.8,128.6L141.6,128.5L141.6,128.3L141.5,128.1L141.4,127.9L141.3,127.8L141.1,127.7L141.2,127.6L141.3,127.5L141.3,127.4L141.3,127.2L141.2,127.1L141,127.1L140.8,126.8L140.6,126.7L140.5,126.6L140.5,126.5L140.5,126.5L140.6,126.4L140.6,126.2L140.6,126.1L140.6,126L140.7,125.9L140.8,126L140.9,125.9L141.1,125.9L141.2,125.8L141.3,125.8L141.3,125.6L141.2,125.3L141.1,125.2L141.1,125.1L141.1,124.7L141.2,124.5L141.4,124.3L142,123.8L142.5,123.5L142.8,123.5L143,123.4L143.1,123.2L143.1,123L143.1,122.8L143,122.6L142.9,122.2L142.8,122.1L142.9,121.8L143,121.6L143.3,121.1L143.6,120.6L143.6,120.5L143.6,120.2L143.8,119.6L143.8,119.3L143.8,119.2L143.8,119.1L144,119L144.4,118.9L144.7,118.7L145.1,118.4L145.5,118L145.8,117.9L146.3,117.6L146.6,117.4L146.7,117.3L147,117.2L147.6,117.1L148,117.1L148.3,117L148.6,116.9L148.9,116.8L149.1,116.8L149.7,116.7L149.8,116.6L150,116.4L150.2,116.2L150.4,116.1L150.7,116.2L151,116.2L151.4,116.1L151.6,116.2L151.7,116.4L151.9,116.6L152.1,116.6L152.2,116.5L152.5,116.7L152.6,116.7L152.7,116.6L152.7,116.4L152.8,116.3L152.9,115.6L153.1,114.6L153.2,113.7L153.4,112.7L153.6,111.6L153.8,110.5L154,109.6L154.1,108.9L154.2,108.4L154.3,107.8L154.4,107.3L154.4,107.1L154.4,107L154.3,106.8L154.3,106.7L154.3,106.6L154.3,106.5L154.2,106.4L154.1,106.4L154,106.3L154,106.2L153.9,106L153.9,105.9L153.8,105.8L153.8,105.7L153.8,105.6L153.9,105.4L153.8,105.3L153.8,105.2L153.7,105L153.6,105L153.4,104.9L153.1,104.7L152.9,104.5L152.5,104.1L152.4,103.9L152.4,103.4L152.4,102.9L152.4,102.1L152.5,101.7L152.7,101.7L152.8,101.7L153,101.7L153.2,101.6L153.4,101.6L153.5,101.5L153.6,101.5L153.7,101.5L153.8,101.4L153.9,101.4L154.1,101.3L154.2,101.3L154.4,101.4L154.5,101.5L154.6,101.5L154.7,101.5L154.7,101.5L154.8,101.6L154.9,101.6L155,101.6L155.1,101.6L155.2,101.5L155.2,101.5L155.2,101.4L155.1,101.3L155.2,101.2L155.2,101.1L155.2,100.9L155.1,100.8L155,100.6L154.9,100.4L154.7,100.3L154.6,100.3L154.4,100.3L154.3,100.3L154.2,100.3L154.1,100.3L153.9,100.3L153.8,100.2L153.5,100.3L153.4,100.2L153.2,100.2L153.1,100.3L153.1,99.5L153.1,98.8L153.1,98.3L153.2,98.3L153.4,98.2L153.7,98.2L153.9,98.1L154,98.1L154.2,98.2L154.5,98.2L154.7,98.3L155.3,98.3L155.9,98.3L156.6,98.3L157.4,98.3L158,98.3L158.2,98.3L158.1,98.1L157.9,97.9L158,97.7L158,97.5L158.1,97.5L158.3,97.6L158.5,97.8L158.6,98.1L158.7,98.2L158.9,98.2L159.1,98.1L159.3,98.1L159.6,97.7L159.9,97.3L160,97.2L160.2,97.1L160.3,97.1L160.5,97.1L160.7,97.2L160.8,97.3L161.1,97.9L161.4,98.3L161.5,98.6L161.5,99.2L161.5,99.8L161.5,99.9L161.5,99.9ZM214.5,104.2L214.8,104.2L215.2,104.1L215.5,104L215.8,104L216.1,104L217.1,104.2L217.7,104.2L217.9,104.2L218.1,104.3L218.3,104.4L218.3,104.6L218.2,104.8L218,105.1L217.9,105.5L217.9,105.6L217.7,105.6L217.8,105.9L217.8,106.1L217.7,106.2L217.6,106.5L217.3,106.9L217.2,106.9L217.1,107.1L216.9,107.2L216.9,107.4L217,107.5L216.9,107.7L216.6,108L216.5,108.1L216.3,108.1L216.1,108.1L215.9,107.8L215.9,108L215.8,108.2L215.7,108.4L215.4,108.3L215.2,108.2L214.9,108.1L214.8,108.5L214.6,108.7L214.4,108.8L214.1,108.8L214,108.9L213.6,108.9L213.3,108.7L213.2,108.7L213,108.8L212.4,108.8L212,109L211.8,108.9L211.6,108.7L211.5,108.5L211.3,108.1L211.2,107.7L211.1,107.3L211.2,106.9L211.3,106.9L211.6,107L211.6,107L211.6,106.8L211.6,106.8L211.2,106.8L211,106.6L211,106.2L211,105.6L211,105.5L211.2,105.3L211.2,105.1L211.2,104.9L211.3,104.6L211.4,104.3L212,104L212.6,103.8ZM231.2,175.8L231.3,175.9L231.1,175.9L230.9,176L230.6,176L230.5,175.9L230.8,175.7L230.9,175.6L230.9,175.6L231,175.7ZM217.7,186.7L217.6,186.7L217.4,186.3L217.8,185.9L217.9,186.1L217.8,186.4L217.7,186.6ZM227.8,178.3L227.8,178.4L227.7,178.4L227.3,178.4L227.2,178.3L227.7,177.7L227.7,177.8L227.8,177.9L227.9,178.1L227.8,178.2ZM230.1,112.4L229.8,112.7L229.9,112.4L229.8,112.1L229.9,112L230.1,111.8L230.1,111.8L230.1,112L230.1,112ZM247.6,143.6L247.5,143.7L247.4,143.5L247.8,143.3L247.8,143L248,143.1L248,143.2L248,143.3ZM247.1,144.8L247,145L246.9,145L246.8,144.8L246.7,144.7L246.8,144.6L246.9,144.6L247.1,144.6ZM228.9,107.5L228.7,107.6L228.7,107.7L228.5,107.7L228.5,107.6L228.6,107.6L228.6,107.3L228.9,107.4ZM214.2,102.7L214.3,102.8L213.9,103.5L213.6,103.6L213.4,103.6L213,103.4L212.5,103.4L212.3,103.4L212.3,103.1L212.6,102.8L213,102.8L213.7,102.6ZM212.5,97.6L212.2,97.7L212,97.7L211.8,97.3L211.9,97L212.1,96.9L212.3,96.9L212.3,97L212.5,97.5ZM211.4,103.9L210.6,104.5L210.3,104.3L210.2,104.2L210.3,104.1L210.3,104L210.4,103.8L210.8,103.6L211.1,103.6L211.3,103.7L211.4,103.8ZM215.1,103.8L214.3,103.9L213.9,103.8L214,103.7L214.3,103.5L214.6,103.3L214.9,103.2L215.2,103.3L215.3,103.5L215.3,103.7ZM212.1,103.1L212,103.5L211.5,103.3L211.5,102.9L211.8,102.7L212,102.5L212.1,102.2L212.1,101.8L212.2,101.7L212.2,101.7L212.3,101.7L212.3,102.3L212.4,102.7ZM212.9,102.3L212.6,102.4L212.5,102.3L212.5,101.9L212.6,101.7L213,101.7L213.1,101.6L213.2,101.6L213.3,101.7L213.3,101.9ZM207.8,107.8L207.5,107.9L207.9,107.1L208.3,106.8L208.3,106.1L208.7,105.5L209.1,105.2L209.6,105.1L209.8,105.5L209.5,106.6L209.4,106.6L208.9,107.2L208.4,107.6ZM218,191.4L217.8,191.5L217.8,190.7L217.9,190.4L218,190.2L218.2,190.1L218.3,190.3L218.2,190.7L217.9,191.2Z" fill="#b8e653" stroke="#0c0e06" stroke-width="1"/></svg>
