<svg xmlns="http://www.w3.org/2000/svg" viewBox="0 0 400 300"><path d="M119.3,0L120,3.2L128.1,27.2L139,46.9L139.1,58.9L150.7,90.9L149.9,109.3L148.8,119.8L142.8,136.4L135.5,139.8L123.4,136.5L119.5,124.7L110.3,118.4L97.3,95L85.9,74L82.2,63.2L87.3,44.7L80.5,29.4L61.4,5.9L51.9,1.6L27.2,14.4L22.9,13L11.1,0L119.3,0Z" fill="#2c2c34" stroke="#474751" stroke-width="0.8"/><path d="M330.6,300L328.2,297.6L328.4,287.6L313,283.6L318.4,276.4L333.4,277.6L354.6,281.7L354.6,281.7L356.7,295.8L355.9,300L330.6,300Z" fill="#2c2c34" stroke="#474751" stroke-width="0.8"/><path d="M355.9,300L356.7,295.8L354.6,281.7L357.6,277.2L376.7,277.4L391.2,284.1L397.6,283.4L400,288.4L400,300Z" fill="#2c2c34" stroke="#474751" stroke-width="0.8"/><path d="M96.6,190.4L117.7,192.3L137,192.6L159.9,201.7L169.6,211.3L192.5,208.4L201.1,214.6L221.8,230.9L237,242.7L245.1,242.4L259.6,247.7L257.8,255.1L275.9,256.2L294.3,266.8L291.4,272.9L275.2,276.2L258.7,277.5L241.9,275.5L206.9,278L223.3,263.5L213.3,256.7L197.6,255L189.1,247.4L183.3,232.5L169.5,233.5L146.7,226.4L139.4,220.9L107.6,216.8L99,211.7L108.2,205.1L84.2,203.7L66.7,217.5L56.6,217.8L53,224.2L40.9,227.1L30.5,224.6L43.4,216.5L48.6,207L59.7,201.1L72.2,195.9L90.7,193.4Z" fill="#2c2c34" stroke="#474751" stroke-width="0.8"/><path d="M209.3,162.1L209.4,162.7L206.9,164.4L208.7,165.6L210.3,163L211.6,165.2L212.3,169.1L212.3,169.8L212.3,170.4L212.6,171.2L212.7,172.3L211.3,175.8L206.5,175.4L206.4,172.5L205.7,171.9L204.5,167.7L203,166.4L200.9,162.9L202.1,162L203.7,162.3L204.6,161.9L206.8,161.6L208.2,161.1ZM219.8,117.5L219.3,117.7L217.2,115L215.5,114.2L218.2,112.3L219.3,110.6L219.3,107L219.9,105L219.7,103.3L220.4,101.6L219.6,99.6L217.3,98L212.9,91.8L205.9,90.3L202.3,90.2L204.3,89.2L206.1,89.3L208.9,89.9L212.3,90.2L214.4,92.1L216.3,94.5L218.2,95.4L218.9,96.1L218.8,96.8L219,97.4L221.4,98.6L223.7,100.4L224.4,105.8L221.2,108.3L220.7,116.1ZM322.4,243.1L321.7,245L319.1,248.7L313.3,249.6L306.9,249.8L306.5,248.8L306.3,247.9L306.7,246.5L306.7,246L306.5,245.4L308.8,244.9L310.3,243.2L312.7,242.9L315.7,244.1L317.4,244.1L319.8,242.8L321.7,239.9L322.8,240.3ZM207.2,149.8L207.2,153.1L207.4,155.5L207.2,156.4L204.5,158L203.8,158.9L201.4,159.9L199.9,161.1L199.1,159L197.6,157.8L197.4,155.6L196.3,156.3L194.6,155.8L191.9,154.2L190.3,152L192.6,151.6L193.1,153L195,151.3L194.6,150.4L194.2,150.2L193.6,148.6L196.4,144.2L197,141.4L195.7,136.8L197,136.5L200.1,138.1L201.5,139.7L201.5,141.8L202.9,143.5L204.8,147.5ZM188.9,95L191.9,95.8L193.4,95.7L194.4,95.2L198.7,95.4L202.3,94.6L202.8,96L202.8,96.8L195.2,97.5L188.3,99.6L184.6,101.1L182.7,101.2L181.4,100.5L176.8,96.1L178,96.5L181.4,99L183.5,98.5L185.4,96.9L185.8,95.7L185.4,95.1L186.3,93.1ZM216.8,141.6L214.1,142.1L212.1,141.6L211.6,141.1L212.4,140.4L214.3,139.8L217.3,139.7L218.6,140.4L218.8,140.8ZM297.2,202.8L297.8,203.2L296.3,204.3L292.7,203L292,203.1L291.3,201.7L291,200.7L291.2,199.7L293.3,200.4L294.3,201.8ZM288.2,167L286.2,169.9L285.2,169.6L285.8,166L287.1,165.4L287.6,165.4ZM293.6,216.2L291.9,217.1L292.3,215.7L295.6,213.3L297.4,211.3L298.4,210.6L298.8,210L300.2,209.3L300.9,208L300.8,206.9L299.3,205.1L299.3,203.9L299.8,203L302.3,202.6L301.6,203.9L302.7,207.7L299.3,212.4L296.4,213.8ZM233.9,128.8L237.9,131.8L241.4,133L245.1,136.8L246.7,138.2L247,139.4L246.4,145L245.5,148.4L245.7,151.4L244.8,150.5L243.9,148.6L242.4,147.4L242,146.8L244.5,146.7L244.8,143.7L246,141.3L245.9,138.7L242.9,136L240.8,133.5L237.6,132.7L234.6,130.3L232.8,130L230.7,130.4L231.5,129L232.1,127.1L232.4,126.7ZM258,183.5L256.9,183.7L255.1,182.9L250.9,179.7L248.9,179.4L249.6,177.6L251.1,178.2L254.5,181L255.8,182.4ZM278.1,198.2L278,198.9L274.9,193.6L271,192.3L268.7,191L269.3,190.3L270.8,190L271,188.3L270.4,186.5L268.3,182.8L267.2,180.3L266.6,179.8L266.5,177.7L268.9,180.9L270,183.8L271.6,186.6L272.7,191.5L275.8,193.1L278,195.5ZM266.7,163.4L266.9,164.8L265.2,164.5L262.8,165.1L262,165.1L262.5,164.1L264.2,162.9L264.2,161.7L262.1,159.9L259.8,155.7L258.6,154.6L258.1,153L256.1,151.2L256.5,150.3L256.9,150.1L258.3,150.5L261.3,156.8L261.5,157.3ZM322.1,210.5L323.6,211L324.4,210.9L327.2,211.7L328.9,212.8L329.3,213.3L328.4,214.2L325.8,212.4L323.5,212.2L320.4,212.2L319.1,211.8L320,209.9ZM325.1,234.9L321.9,236.2L321.6,234.7L323.2,233.4Z" fill="#b8e653" stroke="#0c0e06" stroke-width="1"/></svg>
