<svg xmlns="http://www.w3.org/2000/svg" viewBox="0 0 300 300"><path fill="#e8e8ea" d="M260.1,290.8L261,297.2L235,314.9L253.6,327.7L271.3,300.1L285.2,322.7L292.6,364.9L291.7,372.3L292.6,378.2L295.4,386.5L296.3,398.3L281.5,435L231.3,431.1L229.4,400.2L222,394.4L209.9,349.7L194.1,335.5L171.8,299.2L184.8,289.8L201.6,292.8L210.9,288.4L234.1,284.9L249,280ZM237.8,160.8L237.8,195.4L240.6,221L237.8,230.3L209.9,247.1L202.5,256.9L176.5,266.7L160.7,280L152.3,257.9L136.5,244.6L134.7,221.5L122.6,229.3L104.9,224.4L77.1,207.2L59.4,183.5L84.5,179.6L89.1,194.4L109.6,176.1L104.9,166.8L101.2,165.3L94.7,147.5L124.4,101.1L131,71.5L117,23L130,20L163.5,36.8L178.3,53.7L178.3,76.4L193.2,93.7L212.7,136.2ZM340,73.4L311.2,79.4L289.8,73.9L285.2,69L293.6,61.1L313.1,54.6L344.7,54.2L358.6,61.6L360.5,65Z"/></svg>
