<svg xmlns="http://www.w3.org/2000/svg" viewBox="0 0 300 300"><path fill="#e8e8ea" d="M245,128.1L244.5,130.1L242.2,135.3L240.8,141L241.9,145.8L247,151.4L253.4,155.8L261.8,156.3L269.6,154.4L272.7,155.2L276.9,162.7L280,169.2L275.8,175.9L273.8,181.8L273,185.9L273.3,187.7L275.8,191L278.9,196.8L279.2,201.9L277.5,205.4L273.3,207.2L269.1,206.8L265.7,206.8L261.2,207.4L254.3,209.3L248.1,211.8L236.1,211.3L231.3,206.2L229.1,206.2L218.1,212.8L206.1,211.8L184.6,213.9L175.6,214.5L166.4,213.7L161.6,212.4L152.9,207.5L144.8,204.2L137,207.2L133.9,207.8L127.5,216L113.5,218.6L99.8,220.5L95.6,219.5L87.7,219L87.4,217.2L87.7,215.2L85.8,213.9L82.7,212.4L77.1,211.8L70.1,209.6L66.2,207.8L51.9,210.6L43.5,206.3L34,200.4L29.2,198L27.6,188.9L25.9,185.9L22,182.8L20,179.2L21.7,175.6L31.2,168.6L31.8,166.9L36.2,154L42.4,149.3L48.3,142.7L52.7,132.4L61.4,121.5L70.9,110.5L77.7,101.7L82.1,97.4L91.1,93L98.6,90.3L103.7,84.4L110.1,81L116.6,79.5L126.1,80.2L135.3,82.4L145.1,85.4L146.2,87.9L145.4,92L144,96.5L144,98.6L145.4,99.8L155.2,100.8L166.9,100L173.6,100.6L188.5,104.6L193,107.3L197.4,109.6L201.9,109.2L207.5,104.6L213.4,100.6L217,100L219.5,101.2L224.3,105L234.1,108.6L242.8,111.1L245.6,113.7L244.7,124.4Z"/></svg>
