<svg xmlns="http://www.w3.org/2000/svg" viewBox="0 0 400 300"><path d="M255.4,300L255.5,294.6L267.6,288.3L264.9,277.1L270.5,268.1L271.4,240.4L290.5,246.6L301.4,224.5L302.7,211.3L316.1,188.6L315.4,173L347,154.1L364.5,159L362.5,142.1L371,137L369.3,126.5L383.5,124.5L391.7,140.8L400,145.9L400,192.9L400,192.9L378.9,213.4L376,245.3L400,241.2L400,300Z" fill="#2c2c34" stroke="#474751" stroke-width="0.8"/><path d="M0,138.4L26.5,151.3L60.1,154.9L74.1,168.8L93,171.4L122.4,177.8L142.7,177.3L145.6,166.5L142.4,149.1L144.2,137.2L159.2,131.4L161.2,153.1L161.7,158.6L183.9,169L199.3,164.8L219.9,166.6L239.9,165.8L241.6,148.9L231.7,140.1L251.4,136.6L273.5,116L301.8,98.2L322.3,105.1L339.7,93.3L351.1,110.7L342.9,122.4L369.3,126.5L369.3,126.5L371,137L362.5,142.1L364.5,159L347,154.1L315.4,173L316.1,188.6L302.7,211.3L301.4,224.5L290.5,246.6L271.4,240.4L270.5,268.1L264.9,277.1L267.6,288.3L255.5,294.6L242.6,252.5L235.9,252.6L231.8,269.6L218.5,255.8L226,240.6L237,239.1L248.2,216.4L234.1,211.7L211.5,212.1L188.2,208.4L186.1,189.6L174.4,188.2L155.1,176.5L146.4,194.9L164,209.3L148.8,219.3L143.4,229.1L158.4,236.3L154.3,252.4L162.7,272.4L166.5,294.2L164.4,300L0,300Z" fill="#2c2c34" stroke="#474751" stroke-width="0.8"/><path d="M238.4,300L235,290.8L224.8,275.4L202.3,274.4L204.5,285.3L196.8,300L186.5,294.6L182.9,299.4L176,296.5L166.5,294.2L162.7,272.4L154.3,252.4L158.4,236.3L143.4,229.1L148.8,219.3L164,209.3L146.4,194.9L155.1,176.5L174.4,188.2L186.1,189.6L188.2,208.4L211.5,212.1L234.1,211.7L248.2,216.4L237,239.1L226,240.6L218.5,255.8L231.8,269.6L235.9,252.6L242.6,252.5L255.5,294.6L255.5,294.6L255.4,300L238.4,300Z" fill="#2c2c34" stroke="#474751" stroke-width="0.8"/><path d="M0,73.5L2.7,74.7L27.3,93L41.1,97L49.3,110.4L68.3,116L88.1,128.1L115.7,134.5L144.2,137.2L144.2,137.2L142.4,149.1L145.6,166.5L142.7,177.3L122.4,177.8L93,171.4L74.1,168.8L60.1,154.9L26.5,151.3L0,138.4L0,73.5Z" fill="#2c2c34" stroke="#474751" stroke-width="0.8"/><path d="M400,241.2L376,245.3L378.9,213.4L400,192.9L400,241.2ZM400,145.9L391.7,140.8L383.5,124.5L369.3,126.5L342.9,122.4L351.1,110.7L339.7,93.3L322.3,105.1L301.8,98.2L273.5,116L251.4,136.6L231.7,140.1L220.9,132.6L208,132L190.6,125.6L177.4,132.6L161.2,153.1L159.2,131.4L144.2,137.2L115.7,134.5L88.1,128.1L68.3,116L49.3,110.4L41.1,97L27.3,93L2.7,74.7L0,73.5L0,0L400,0Z" fill="#2c2c34" stroke="#474751" stroke-width="0.8"/><path d="M230.1,140.4L229.9,141.1L229.2,142.7L228.8,144.5L229.1,146L230.7,147.8L232.7,149.1L235.4,149.3L237.8,148.7L238.8,149L240.1,151.3L241.1,153.3L239.8,155.4L239.2,157.3L238.9,158.6L239,159.2L239.8,160.2L240.7,162L240.8,163.6L240.3,164.7L239,165.3L237.7,165.2L236.6,165.2L235.2,165.4L233,166L231.1,166.7L227.3,166.6L225.8,165L225.1,165L221.6,167.1L217.9,166.7L211.1,167.4L208.3,167.6L205.4,167.4L203.9,166.9L201.1,165.4L198.6,164.4L196.1,165.3L195.2,165.5L193.1,168.1L188.7,168.9L184.4,169.5L183.1,169.2L180.7,169L180.6,168.4L180.7,167.8L180,167.4L179.1,166.9L177.3,166.7L175.1,166.1L173.9,165.5L169.4,166.4L166.8,165L163.8,163.2L162.3,162.4L161.7,159.5L161.2,158.6L160,157.6L159.4,156.5L159.9,155.4L162.9,153.2L163.1,152.6L164.5,148.6L166.4,147.1L168.2,145L169.7,141.8L172.4,138.4L175.4,134.9L177.5,132.1L178.9,130.8L181.7,129.4L184.1,128.6L185.7,126.7L187.7,125.6L189.7,125.2L192.7,125.4L195.6,126.1L198.7,127L199,127.8L198.8,129.1L198.3,130.5L198.3,131.2L198.8,131.6L201.9,131.8L205.5,131.6L207.7,131.8L212.3,133L213.7,133.9L215.1,134.6L216.5,134.5L218.3,133L220.1,131.8L221.3,131.6L222.1,132L223.6,133.2L226.7,134.3L229.4,135.1L230.3,135.9L230,139.3Z" fill="#b8e653" stroke="#0c0e06" stroke-width="1"/></svg>
