<svg xmlns="http://www.w3.org/2000/svg" viewBox="0 0 300 300"><path fill="#e8e8ea" d="M165.6,20.1L165,21.5L164.6,23.5L165.1,25L166.2,27.1L167.7,28.8L168.9,29.9L170.3,32.4L171.7,35.7L173.5,38.2L178.9,44L179.5,46.1L180.2,48.1L183.6,52.1L184.1,53.4L183.9,56.1L187.3,64.2L189.6,68.9L191.6,69.8L197.7,74.8L203.2,78.9L209.5,81.6L214.1,83.5L216.4,84.8L217.6,86.1L218.5,88.5L219,92.7L219.1,95.5L224.2,95.4L228.3,95.6L229.7,96.2L230.3,96.9L230.1,98.8L230.2,101.4L230.4,103.6L230,105.9L229.6,108.6L229.4,112L230.1,113.4L234.1,117.7L235.7,120.4L237.5,124.6L238.6,126L239.4,126.5L243,127L252.3,128.7L258,130.4L262.6,132L264.4,132.5L265.4,132.9L265.6,133.3L265.1,137L265.3,138.2L265.8,139.2L266.6,140L267.6,140.6L271,141L273.1,143.2L274.3,144.3L268.1,144.8L265.1,146.7L263.3,150L260.4,152.5L256.6,154.1L252.6,155.1L248.3,155.7L243.8,158.6L238.9,163.7L236.5,167L236.4,168.4L235.3,169.5L233.2,170.5L232.1,171.7L231.8,173.1L230.7,173.7L228.7,173.7L227.4,174.7L226.6,176.7L224.9,178L222.3,178.4L220,179.6L218.1,181.5L216.6,182.5L215.6,182.5L214,184L211.4,187.7L210.9,189.4L207.4,203.3L205.4,204.9L201.6,207.8L198.5,211.2L197.2,213.2L195.7,214.1L188.7,215.8L186,216.7L182.9,218L182.1,219.2L181.3,223.5L179.1,229.7L177.3,234.2L176.2,238.2L174.2,243.1L172.5,244.8L170.5,246.3L167.9,247.1L164.4,247.6L161.2,247.4L158.7,247.5L155.3,249.3L152.1,249.4L147,248.3L142.8,247.4L141,247.2L137.4,243.9L135,244L131.4,243.7L129.4,243L127.5,241.3L123.5,238.1L119.5,235.5L116,233.9L112.8,233.2L109.7,233.9L107.2,234.5L106.3,234.9L104.5,236.3L102.5,238.8L100.9,242.8L100.4,245.3L98.5,250.5L96.2,256.8L95.1,258.7L93.8,260L91.7,261.2L85,266.2L81.7,271.9L79.6,273.6L77,274.3L74.8,274.8L73.6,275.7L72.3,278.6L71.2,279.6L69.8,280L66,279.7L64.8,279.4L54.6,279.9L51.5,279L49.3,278.7L45.9,279.8L44.4,279.1L43.2,276.7L42.6,271.9L42.8,267.9L44.7,264.8L46.3,262.5L47.8,259.6L48.1,258.3L47.7,257.1L47.4,254.7L47.2,252.3L45,246.9L42.4,239.8L38.7,231.9L37.7,229.7L35.4,226.2L27,219.7L25.8,218.9L25.8,218.1L25.7,211.9L25.7,203.5L25.7,195.2L25.7,186.9L25.7,178.6L25.7,170.3L25.7,162.1L25.7,153.9L25.7,145.6L25.7,138.7L31.7,138.7L39.1,138.7L48.1,138.7L52,138.7L52.2,137.6L52.2,132.6L52.2,120.9L52.2,109.3L52.2,97.8L52.1,86.2L52.1,74.7L52.1,63.3L52.1,51.8L52.1,40.4L52.1,34.8L58.9,34.5L66.8,33.3L79.6,31.4L91.4,29.1L99.2,27.8L108.4,26.2L111.5,25.9L112.4,26.1L113.6,26.7L117.9,32.3L120.6,36.7L121.1,38.5L121.6,38.7L122.9,38.4L124.3,37.7L128.6,33.4L129.5,32.3L132.3,30.2L135.6,28.1L138.7,26.6L141.8,25.3L143.2,25.6L144.8,26.7L146.2,27.3L153.2,22.1L156.3,20.9L164.5,20Z"/></svg>
