<svg xmlns="http://www.w3.org/2000/svg" viewBox="0 0 400 300"><path d="M380.4,0L375.2,1.9L367.6,1.7L363,5.6L354.2,5.9L350.8,7.5L335.5,3.9L325.9,4.9L325,0L380.4,0Z" fill="#2c2c34" stroke="#474751" stroke-width="0.8"/><path d="M248.2,0L247.2,8.5L250.6,10.8L259.5,15.9L263,13.5L264,27.6L254.3,27.5L249.1,20.3L244.4,14.7L234.6,12.9L231.8,6.1L224,10.2L213.8,8.4L209.5,2.5L201.4,1.3L195.4,1.6L195.2,0L248.2,0Z" fill="#2c2c34" stroke="#474751" stroke-width="0.8"/><path d="M254.9,242.8L249.3,238.3L243.4,241.3L236.4,247L229.6,256.3L239.2,267.6L243.8,266.1L246.1,261.4L253.2,259.1L255.4,254.3L259.3,247.2ZM115.3,300L114.1,297L118.2,294.3L117.8,282.7L109.5,268.8L103.1,256.3L103.1,256.3L94,237.3L94,237.3L100.1,230.1L105.1,234.1L107.2,240.3L112.9,241.3L121,244.1L127.8,243L139.2,235.6L139.2,183L142.6,185.1L150.2,198.5L149,207.1L151.8,212.1L161,210.7L167.3,204.3L173.4,200.1L176.5,193.3L182.7,190L188.1,191.7L194.2,195.7L204.5,196.4L212.7,193.1L214,188.7L216.2,182L223.1,180.9L226.9,175.6L231.2,166.3L242.6,156L260.6,145.8L265.8,146L272,148.3L276.3,146.7L283.1,148L289.2,167.5L292.5,177.4L290.2,193.1L291.3,198.1L284.9,195.6L281.2,196.6L280,200.7L276.5,206L276.6,210.9L284.2,218.7L291.7,217.1L294.3,210.8L303.9,210.9L300.7,221.3L299.3,233.3L296,239.8L287.2,247.2L284.8,249.3L279.4,256.8L275.8,264.3L268.6,275L254.2,290.4L245.2,299.5L244.4,300L115.3,300Z" fill="#2c2c34" stroke="#474751" stroke-width="0.8"/><path d="M254.9,242.8L259.3,247.2L255.4,254.3L253.2,259.1L246.1,261.4L243.8,266.1L239.2,267.6L229.6,256.3L236.4,247L243.4,241.3L249.3,238.3Z" fill="#2c2c34" stroke="#474751" stroke-width="0.8"/><path d="M283.1,148L276.3,146.7L272,148.3L265.8,146L260.6,145.8L252.5,139.6L242.7,137.5L238.9,128.9L238.9,124.1L233.5,122.6L219,107.7L215,99.9L212.5,97.5L207.5,86.8L221.8,88.3L225.9,89.8L230.2,89.5L237.3,80.9L248.4,69.9L252.9,68.9L254.5,64.3L261.7,59L271.4,57.2L272.2,62.1L282.8,61.8L288.7,64.6L291.5,67.9L297.5,68.9L304.2,73.2L304.2,90.1L301.7,99.3L301.1,109.4L303.2,113.4L301.8,121.4L299.9,122.6L296.5,132.5Z" fill="#2c2c34" stroke="#474751" stroke-width="0.8"/><path d="M139.2,183L139.2,235.6L127.8,243L121,244.1L112.9,241.3L107.2,240.3L105.1,234.1L100.1,230.1L94,237.3L84.5,226.4L79.5,215.9L76.7,202L73.6,191.8L69.3,170.2L69,153.6L67.4,146.1L62.4,140.4L55.8,129.1L49.1,112.9L46.4,104.4L36,91.3L35.2,81L41.4,78.5L49,76.2L57.2,76.6L64.8,82.6L66.8,81.7L118.4,81.1L127.2,87.5L158.1,89.4L181.5,83.9L191.9,80.9L200.2,81.7L205.2,84.7L205.3,85.8L198.1,88.8L194.2,88.9L186.1,94.1L181.2,88.6L161.6,93.3L152.1,93.7L151.7,142L139.2,142.5Z" fill="#2c2c34" stroke="#474751" stroke-width="0.8"/><path d="M309,0L307.6,6.1L310,16.9L306,21.4L302.1,33.5L308.8,36.9L270.2,47.8L271.4,57.2L261.7,59L254.5,64.3L252.9,68.9L248.4,69.9L237.3,80.9L230.2,89.5L225.9,89.8L221.8,88.3L207.5,86.8L205.3,85.8L205.2,84.7L200.2,81.7L191.9,80.9L181.5,83.9L173.2,75.6L164.5,64.8L165.1,22.9L191.7,23L190.6,18.6L192.5,13.7L190.2,7.6L191.7,1.3L191.3,0L195.2,0L195.2,0L195.4,1.6L201.4,1.3L209.5,2.5L213.8,8.4L224,10.2L231.8,6.1L234.6,12.9L244.4,14.7L249.1,20.3L254.3,27.5L264,27.6L263,13.5L259.5,15.9L250.6,10.8L247.2,8.5L248.2,0L309,0Z" fill="#2c2c34" stroke="#474751" stroke-width="0.8"/><path d="M325,0L325.9,4.9L322.4,14.8L325.9,31.8L330.4,31.6L335,35.9L340.3,45.4L341.4,62.3L335.9,65.1L332,74.3L323.7,66.1L322.7,56.8L325.4,50.7L324.7,45.4L319.7,42.1L316.1,43.3L308.8,36.9L302.1,33.5L306,21.4L310,16.9L307.6,6.1L309,0L325,0Z" fill="#2c2c34" stroke="#474751" stroke-width="0.8"/><path d="M400,58.3L396.4,65L388.3,73.3L376.6,78.3L362.3,84.8L347.9,99.2L343,101.6L334.1,111.2L328.8,114.4L327.8,124L333.8,134.4L336.3,142.4L336.5,146.5L338.7,145.8L338.4,159.3L336.3,165.8L339.3,168.2L337.4,173.9L332.1,178.9L321.6,183.7L306.3,191.3L300.7,196.5L301.8,202.5L305,203.4L303.9,210.9L294.3,210.8L293.2,204.5L291.3,198.1L290.2,193.1L292.5,177.4L289.2,167.5L283.1,148L296.5,132.5L299.9,122.6L301.8,121.4L303.2,113.4L301.1,109.4L301.7,99.3L304.2,90.1L304.2,73.2L297.5,68.9L291.5,67.9L288.7,64.6L282.8,61.8L272.2,62.1L271.4,57.2L270.2,47.8L308.8,36.9L316.1,43.3L319.7,42.1L324.7,45.4L325.4,50.7L322.7,56.8L323.7,66.1L332,74.3L335.9,65.1L341.4,62.3L340.3,45.4L335,35.9L330.4,31.6L325.9,31.8L322.4,14.8L325.9,4.9L325.9,4.9L335.5,3.9L350.8,7.5L354.2,5.9L363,5.6L367.6,1.7L375.2,1.9L380.4,0L400,0Z" fill="#2c2c34" stroke="#474751" stroke-width="0.8"/><path d="M294.3,210.8L291.7,217.1L284.2,218.7L276.6,210.9L276.5,206L280,200.7L281.2,196.6L284.9,195.6L291.3,198.1L293.2,204.5Z" fill="#2c2c34" stroke="#474751" stroke-width="0.8"/><path d="M191.3,0L191.7,1.3L190.2,7.6L192.5,13.7L190.6,18.6L191.7,23L165.1,22.9L164.5,64.8L173.2,75.6L181.5,83.9L158.1,89.4L127.2,87.5L118.4,81.1L66.8,81.7L64.8,82.6L57.2,76.6L49,76.2L41.4,78.5L35.2,81L34,72.6L35.8,61L40.2,48.9L40.9,43.2L45,31.4L48,26L55.3,17.5L59.4,11.7L60.8,2L60.6,0L191.3,0Z" fill="#2c2c34" stroke="#474751" stroke-width="0.8"/><path d="M207.5,87.6L207.2,88.2L207,89.2L207.3,89.9L207.8,90.9L208.5,91.7L209.1,92.2L209.7,93.5L210.4,95L211.3,96.2L213.9,99L214.2,100.1L214.5,101L216.2,102.9L216.4,103.6L216.3,104.9L218,108.8L219.1,111L220,111.5L223,113.9L225.6,115.8L228.6,117.1L230.8,118L231.9,118.6L232.5,119.3L232.9,120.4L233.2,122.5L233.2,123.8L235.7,123.7L237.6,123.9L238.3,124.1L238.6,124.5L238.5,125.4L238.5,126.6L238.6,127.7L238.5,128.8L238.3,130.1L238.2,131.8L238.5,132.4L240.4,134.5L241.2,135.8L242.1,137.8L242.6,138.4L243,138.7L244.7,138.9L249.2,139.8L251.9,140.6L254.1,141.3L255,141.6L255.5,141.8L255.6,142L255.3,143.8L255.4,144.3L255.7,144.8L256.1,145.2L256.5,145.5L258.2,145.7L259.2,146.7L259.8,147.2L256.8,147.5L255.3,148.4L254.5,150L253.1,151.2L251.2,152L249.3,152.5L247.3,152.7L245.1,154.1L242.8,156.6L241.6,158.2L241.5,158.8L241,159.4L240,159.8L239.5,160.4L239.3,161.1L238.8,161.4L237.9,161.4L237.2,161.9L236.8,162.9L236,163.5L234.7,163.7L233.6,164.2L232.7,165.1L232,165.6L231.5,165.6L230.7,166.4L229.5,168.1L229.3,169L227.6,175.6L226.6,176.4L224.8,177.8L223.3,179.4L222.7,180.4L222,180.8L218.6,181.6L217.3,182.1L215.8,182.7L215.4,183.3L215.1,185.3L214,188.3L213.1,190.5L212.6,192.4L211.6,194.8L210.8,195.6L209.8,196.3L208.6,196.7L206.9,196.9L205.4,196.8L204.2,196.9L202.5,197.7L201,197.8L198.6,197.3L196.5,196.8L195.7,196.7L193.9,195.2L192.8,195.2L191.1,195.1L190.1,194.7L189.2,193.9L187.3,192.4L185.3,191.1L183.7,190.3L182.1,190L180.6,190.3L179.4,190.6L179,190.8L178.1,191.5L177.2,192.7L176.4,194.6L176.1,195.8L175.3,198.3L174.1,201.4L173.6,202.2L173,202.9L172,203.5L168.7,205.9L167.1,208.6L166.1,209.4L164.9,209.8L163.8,210L163.3,210.4L162.7,211.8L162.1,212.3L161.5,212.5L159.6,212.4L159,212.2L154.1,212.5L152.7,212L151.6,211.9L149.9,212.4L149.2,212.1L148.7,210.9L148.4,208.6L148.5,206.7L149.4,205.2L150.1,204.1L150.9,202.7L151,202.1L150.8,201.5L150.7,200.4L150.6,199.2L149.5,196.6L148.3,193.2L146.5,189.4L146,188.3L144.9,186.7L140.9,183.5L140.3,183.1L140.3,182.8L140.2,179.7L140.2,175.7L140.2,171.7L140.2,167.7L140.2,163.7L140.2,159.8L140.2,155.8L140.2,151.9L140.2,147.9L140.2,144.6L143.1,144.6L146.7,144.6L151,144.6L152.9,144.6L153,144L153,141.6L153,136L153,130.5L153,124.9L152.9,119.4L152.9,113.8L152.9,108.3L152.9,102.8L152.9,97.3L152.9,94.6L156.2,94.5L160,93.9L166.1,93L171.8,91.9L175.6,91.2L180,90.5L181.5,90.3L181.9,90.4L182.5,90.7L184.6,93.4L185.9,95.5L186.1,96.4L186.4,96.5L187,96.4L187.6,96L189.7,93.9L190.2,93.4L191.5,92.4L193.1,91.4L194.6,90.7L196,90L196.7,90.2L197.5,90.7L198.2,91L201.5,88.5L203,87.9L206.9,87.5Z" fill="#b8e653" stroke="#0c0e06" stroke-width="1"/></svg>
