<svg xmlns="http://www.w3.org/2000/svg" viewBox="0 0 300 300"><path fill="#e8e8ea" d="M254.2,225.8L249,225.5L242.8,225.6L239.3,228.1L237.9,227.5L235.5,226.9L232.8,228.3L229.2,232.4L226.7,234.9L224.3,238.5L223.5,240.4L222,244L220.6,248.1L221.4,250.9L222.5,253.6L222.8,256.4L223.3,258.6L221.8,260.2L220.9,262.6L218.4,262.2L215.1,259.9L214.5,256.7L212.1,254.5L210.4,253.3L207.8,253.1L203.5,254.2L198,254.9L193.9,255.2L191.6,256.3L188.2,257.4L187,256.1L185.1,252.4L183.5,248.8L182.5,247.2L181.6,246.7L180.5,246.8L179.2,248L178.2,249.1L176.8,249.6L174.7,250.5L173.2,251.9L171.4,255.2L170.4,255L169.2,254.2L167.9,250.4L166,249.6L163.1,249.5L159.5,248.7L156.5,247.5L155.4,247.9L153.7,249.5L151.8,249.7L147.7,248.2L146.9,248.9L145.8,251.1L144.5,253.1L143.4,253.3L142.7,252.7L143.1,249.1L140.6,247.9L136.6,247.6L133.8,248.2L132.4,248L131.6,247.3L128.2,241.2L126.3,240.8L123,241.1L118.1,240.4L112.5,239.1L109.4,238.5L107.7,237.2L104.3,236.7L95,234.1L91.2,233.6L85.6,233.6L77,233L71.5,233.4L69.1,234.2L66.1,234.8L61.1,235.2L59.2,235.2L56,235.5L52.4,236.2L51.3,237.5L50.1,240.2L45.9,245.1L41.9,248.3L41.2,248.6L38.7,246.9L36.8,246.3L34.5,246.1L32.9,246.6L31.8,247.5L32,251.2L31.7,251.5L29.9,247.1L30.1,243L31.1,240.8L32.3,238.7L31.8,235.6L33,231.5L33.1,228.5L32.5,227.2L31.5,225.7L28.9,224.1L27.8,222.8L24.1,221L20.6,218.9L20,217.5L20.2,216.7L20.8,215.3L23.5,211.2L26.4,207.3L28.3,205.7L38.3,200.7L39.8,198.9L40.2,195.9L40.2,193.7L40,189.8L39.4,184.3L38.6,180.4L36.8,173.2L31.6,158.1L28.4,142.4L30.5,143.4L35.2,143.7L39,142.6L41,142.5L42.7,142.8L45.3,142.2L47.7,142L49,143.4L51.1,144.6L55.5,142.8L59.5,140.6L63.4,140.8L64,139.7L65,134.1L66.2,132.9L71,133.5L72.8,132.4L74.7,129.7L77.5,128L79.9,128L82.3,126.1L83.5,127.3L84.1,129.7L83.3,131.5L83.7,132.2L85.4,133.2L88.3,133.2L90.2,132.4L90.6,131.3L90.6,129.4L90.2,127.6L88.9,126.1L86.5,125.2L85,125.2L84.7,124.2L85.3,122.1L86.6,118.2L88.4,114.7L89.5,113.3L89.7,112.1L89.5,109.9L89.5,106.1L91.1,100.6L93.2,96.6L96.1,95.2L99.5,94.5L101.8,92.6L102.9,90.3L103.3,88.4L103.8,86.8L105,86.1L113.4,86.5L114.7,83L115.4,82L117.1,80.9L118.2,79.7L117.8,78.7L115.6,78.1L110.5,77.5L109.5,76.4L109.8,74.9L111.2,71.3L112.5,66.6L113.1,62.9L113.2,60.7L113.9,60.1L118.1,59.5L119.4,58.7L123,53.7L125.7,52.8L132.7,54.1L135.9,54L136.8,54.2L140,54.3L140.3,53.8L141.8,48.9L143.2,47.4L148.7,40.8L152.4,38.1L154.8,37.4L155.5,37.6L159.3,41.8L160.2,42L162.2,40.3L162.6,40.2L166.9,40.1L168.9,41.6L170.4,44.5L171.7,46.7L173.2,47.3L177.3,44.5L179.7,43.5L181.2,43.5L186.6,46.1L189,47.6L189.6,48.9L189.7,50.4L189,52.7L188.4,55.1L190.1,58L192,59.9L196,56.7L197.5,55.8L199.1,55.8L201.3,54.5L202.9,52.7L204.3,52.1L207.3,52.6L212.5,52.1L218.5,54.9L219,55.9L222.1,59.1L223.2,60.8L224.2,61.3L225.7,62.9L227.9,63.9L229.5,63.6L230.1,64.2L230.8,65.4L230.8,67.6L230.6,73.7L229.6,75.5L228.5,76.9L228.2,78.1L228.3,79.4L229.9,82.1L232.2,86.1L232.7,88.5L232.7,90.3L229.7,95.6L228.7,96.7L228,99.4L227.6,101.9L227.9,103L232.9,107.1L236.6,109.4L237.5,110.4L237.6,111.2L235.5,115.6L235.3,116.7L238.4,118.6L240.1,121.4L241.5,126.1L244.4,130.6L250.5,134.5L255,137L255.9,138.3L256.1,139.6L255.9,142.7L254.7,146.4L253.9,148.5L255.8,149.3L260.4,149L266.1,149.7L272.8,153.8L272.9,155.7L272.1,157.3L272.6,159.1L273.4,160.5L279.3,165.1L279.9,166.4L280,168.6L279.8,170.2L278.1,170.5L276.4,171.3L273.4,173.2L272.2,175.9L267.4,179.7L264.5,181.4L262.1,181.4L256.5,180.7L254.5,178.8L253.7,177.1L251.5,176.4L248.7,176.3L244.8,176.6L243.9,177.1L243.3,179.2L241.6,182.7L240.3,184.8L241.4,185.9L243,188.5L245.5,191.7L247.9,194.6L248.7,196.4L248.7,197.6L247.5,199.1L247.7,202.1L250.2,206L249.3,206.6L249.1,211.3L249.1,216.4L249.8,217.6L251,218.6L252.1,220.5L254,224.7Z"/></svg>
