<svg xmlns="http://www.w3.org/2000/svg" viewBox="0 0 400 300"><path d="M131.7,137.7L107.6,138L91.4,135.5L94.4,125.5L112.5,118.1L126.2,122.1L132,125.7L130.6,132ZM330.9,300L327.5,296.6L346.9,288.8L346.5,284.6L334.7,287.7L335.2,279.1L341.9,273.6L354.6,272.2L356.7,265.7L353.8,254.8L359.1,244.3L359,238.4L339.6,231.8L332,232L323.8,222.4L313.8,225.7L297.2,218.4L297.5,214.4L292.8,205.3L282.3,204.3L281.2,197.8L284.5,193.5L276.1,181.5L262.5,183.5L258.6,182.4L255.3,187.3L250.4,186.4L247.2,172.7L244.1,165.5L246.6,163.4L257.2,164.2L262.3,159.4L258.5,153.5L249.7,149.6L250.4,145.6L245.1,141.5L236.9,126.7L239.7,120.6L238.4,109.8L225.6,104.2L218.7,107L216.9,101.2L203,95.3L198.8,81.3L197.7,69.7L191.4,64.1L197.1,56.3L193.1,33.1L202.5,18.4L200.5,13.9L214.9,0L400,0L400,300Z" fill="#2c2c34" stroke="#474751" stroke-width="0.8"/><path d="M79.2,0L67.9,27.2L54.3,33.2L49.3,74.6L41.9,96.9L26,94.6L18.5,113.1L3.4,114.1L0,96.3L0,0Z" fill="#2c2c34" stroke="#474751" stroke-width="0.8"/><path d="M249.5,300L248.9,295.3L236.8,297.6L235.7,300L226.5,300L226.5,300L224.8,298.7L225.7,295.9L221.2,291L219.3,283L214.5,279.8L215.5,273.2L209.6,267.9L204.1,267.2L194.5,261L185.8,263L182.7,265.9L177.1,265.9L173.8,270.5L164.2,272.4L159.7,275.4L153.6,270.6L145.2,270.5L137.1,268.3L131.4,272.6L130.5,267.3L123.2,261.9L125.8,253.9L129.4,248.7L132.3,249.9L128.9,240.9L140.8,224L147.3,221.6L148.7,215.8L142.1,197.5L148.4,196.7L155.6,191L165.7,190.5L179,192.2L193.6,197.2L203.9,197.7L208.8,200.7L213.8,197L217.2,202L229,201L234.2,203L235.1,192.4L239.1,187.7L250.4,186.4L250.4,186.4L255.3,187.3L258.6,182.4L262.5,183.5L276.1,181.5L284.5,193.5L281.2,197.8L282.3,204.3L292.8,205.3L297.5,214.4L297.2,218.4L313.8,225.7L323.8,222.4L332,232L339.6,231.8L359,238.4L359.1,244.3L353.8,254.8L356.7,265.7L354.6,272.2L341.9,273.6L335.2,279.1L334.7,287.7L324.3,289.2L315.5,295.4L303.3,296.4L297.6,300L249.5,300ZM212.8,300L214.8,298.9L215.3,300L212.8,300Z" fill="#2c2c34" stroke="#474751" stroke-width="0.8"/><path d="M141.6,147L142.1,156.8L145.8,165.1L145.7,173.8L137.8,178.2L141.8,188.1L142.1,197.5L148.7,215.8L147.3,221.6L140.8,224L128.9,240.9L132.3,249.9L129.4,248.7L117,241L107.5,243.9L101.4,241.8L93.6,246.1L87,238.9L81.6,241.7L80.8,240.5L74.8,230.5L65.1,229.3L63.8,222.8L54.8,220.5L52.9,225.9L45.8,221.6L46.6,215.9L36.8,214.1L30.6,207.4L25.2,194L26.2,186.7L23,175.2L18.2,167.5L21.8,161.6L18.8,150.5L27.7,143.9L48.2,133.5L64.7,125.8L77.8,129.7L78.8,135.2L91.4,135.5L107.6,138L131.7,137.7L138.4,140.1Z" fill="#2c2c34" stroke="#474751" stroke-width="0.8"/><path d="M21.9,300L14.7,299L0,295.2L0,277.4L0,277.4L3.3,280.6L4.5,277.3L2.6,264.5L7.3,262L11.9,252.9L21.7,259.3L29.1,251.2L33.7,249.7L43.8,255.7L50,254.7L56.1,258.5L55,261L56.3,267.8L56.3,267.8L55.3,275.8L47.9,275.9L50.4,280.1L46.1,292.5L43.6,295.7L32.1,296.2L26.3,300L21.9,300Z" fill="#2c2c34" stroke="#474751" stroke-width="0.8"/><path d="M52.4,300L50.9,299.1L48.3,292.7L46.1,292.5L50.4,280.1L47.9,275.9L55.3,275.8L56.3,267.8L62.9,272.8L67.8,275L78.8,272.6L79.8,268.6L85.1,268L91.4,265L92.9,266.2L99,263.8L102.1,259.1L106.4,257.9L120.4,263.9L123.2,261.9L123.2,261.9L130.5,267.3L131.4,272.6L123.4,276.6L117.2,289.7L110.9,300L52.4,300Z" fill="#2c2c34" stroke="#474751" stroke-width="0.8"/><path d="M215.3,300L214.8,298.9L212.8,300L202.8,300L202.8,300L202.4,293.3L194.9,281.8L190.7,273.6L186.6,267.8L182.7,265.9L182.7,265.9L185.8,263L194.5,261L204.1,267.2L209.6,267.9L215.5,273.2L214.5,279.8L219.3,283L221.2,291L225.7,295.9L224.8,298.7L226.5,300L215.3,300Z" fill="#2c2c34" stroke="#474751" stroke-width="0.8"/><path d="M110.9,300L117.2,289.7L123.4,276.6L131.4,272.6L137.1,268.3L145.2,270.5L153.6,270.6L159.7,275.4L164.2,272.4L173.8,270.5L177.1,265.9L182.7,265.9L186.6,267.8L190.7,273.6L194.9,281.8L202.4,293.3L202.8,300L110.9,300Z" fill="#2c2c34" stroke="#474751" stroke-width="0.8"/><path d="M181,108.3L182.2,118.6L171.5,126L168.5,138.7L154.2,147.1L141.6,147L138.4,140.1L131.7,137.7L130.6,132L132,125.7L126.2,122.1L112.5,118.1L109.7,98.6L124.7,91.4L146.7,92.9L159.6,90.5L161.4,95.4L168.4,97Z" fill="#2c2c34" stroke="#474751" stroke-width="0.8"/><path d="M191.4,64.1L197.7,69.7L198.8,81.3L203,95.3L189,104.4L181,108.3L168.4,97L161.4,95.4L159.6,90.5L146.7,92.9L124.7,91.4L109.7,98.6L110.2,80.7L116.6,65.6L129,57.2L139.4,75.4L149.9,74.9L152.4,56.3L163.6,51.9L169.3,54.9L180.6,64Z" fill="#2c2c34" stroke="#474751" stroke-width="0.8"/><path d="M200.5,13.9L202.5,18.4L193.1,33.1L197.1,56.3L191.4,64.1L180.6,64L169.3,54.9L163.6,51.9L152.4,56.3L153.9,41.6L149.1,44.8L140.8,35.9L139.7,21.3L156.2,14.2L172.7,10.4L187,14.6Z" fill="#2c2c34" stroke="#474751" stroke-width="0.8"/><path d="M0,241L4.5,244.3L11.9,252.9L7.3,262L2.6,264.5L4.5,277.3L3.3,280.6L0,277.4L0,241ZM0,135.8L12.6,143.3L18.8,150.5L18.8,150.5L21.8,161.6L18.2,167.5L23,175.2L26.2,186.7L25.2,194L30.6,207.4L24.7,209.6L21.3,207.2L18,211.2L8.5,215.2L3.7,220.3L0,222.1L0,135.8Z" fill="#2c2c34" stroke="#474751" stroke-width="0.8"/><path d="M49.1,300L50.9,299.1L50.9,299.1L52.4,300L49.1,300Z" fill="#2c2c34" stroke="#474751" stroke-width="0.8"/><path d="M0,295.2L14.7,299L14.6,300L0,300Z" fill="#2c2c34" stroke="#474751" stroke-width="0.8"/><path d="M0,108.3L0,108.4L0,108.5L0,108.3Z" fill="#2c2c34" stroke="#474751" stroke-width="0.8"/><path d="M26.3,300L32.1,296.2L43.6,295.7L46.1,292.5L48.3,292.7L50.9,299.1L49.1,300L26.3,300ZM14.6,300L14.7,299L14.7,299L21.9,300L14.6,300Z" fill="#2c2c34" stroke="#474751" stroke-width="0.8"/><path d="M150,0L133.5,4.3L131.2,0L150,0Z" fill="#2c2c34" stroke="#474751" stroke-width="0.8"/><path d="M129.4,248.7L125.8,253.9L123.2,261.9L120.4,263.9L106.4,257.9L102.1,259.1L99,263.8L92.9,266.2L91.4,265L85.1,268L79.8,268.6L78.8,272.6L67.8,275L62.9,272.8L56.3,267.8L55,261L56.1,258.5L57.9,254.1L63.7,254.4L68.2,252.4L68.5,250.5L71.1,249.6L71.9,245L74.9,244.1L77,240.5L80.8,240.5L81.6,241.7L87,238.9L93.6,246.1L101.4,241.8L107.5,243.9L117,241Z" fill="#2c2c34" stroke="#474751" stroke-width="0.8"/><path d="M0,222.1L3.7,220.3L8.5,215.2L18,211.2L21.3,207.2L24.7,209.6L30.6,207.4L30.6,207.4L36.8,214.1L46.6,215.9L45.8,221.6L52.9,225.9L54.8,220.5L63.8,222.8L65.1,229.3L74.8,230.5L80.8,240.5L77,240.5L74.9,244.1L71.9,245L71.1,249.6L68.5,250.5L68.2,252.4L63.7,254.4L57.9,254.1L56.1,258.5L50,254.7L43.8,255.7L33.7,249.7L29.1,251.2L21.7,259.3L11.9,252.9L4.5,244.3L0,241L0,222.1Z" fill="#2c2c34" stroke="#474751" stroke-width="0.8"/><path d="M250.1,186.4L247.6,186.3L244.6,186.4L242.9,187.5L242.3,187.3L241.1,187L239.8,187.6L238.1,189.6L236.9,190.8L235.7,192.6L235.3,193.5L234.6,195.2L234,197.2L234.3,198.5L234.8,199.8L235,201.1L235.2,202.2L234.5,203L234.1,204.1L232.9,203.9L231.3,202.9L231,201.3L229.8,200.2L229,199.6L227.8,199.6L225.7,200.1L223.1,200.4L221.1,200.6L220,201.1L218.4,201.7L217.8,201L216.9,199.2L216.1,197.5L215.6,196.7L215.2,196.5L214.7,196.5L214,197.1L213.6,197.7L212.9,197.9L211.9,198.3L211.2,199L210.3,200.6L209.8,200.5L209.2,200.1L208.6,198.3L207.7,197.9L206.3,197.9L204.6,197.4L203.1,196.9L202.6,197L201.8,197.8L200.9,197.9L198.9,197.2L198.5,197.6L198,198.6L197.3,199.6L196.8,199.6L196.5,199.4L196.7,197.7L195.5,197L193.6,196.9L192.2,197.2L191.5,197.1L191.2,196.8L189.5,193.9L188.6,193.7L187,193.8L184.6,193.5L182,192.8L180.5,192.6L179.7,191.9L178,191.7L173.6,190.4L171.7,190.2L169,190.2L164.9,189.9L162.3,190.1L161.1,190.5L159.7,190.8L157.3,191L156.3,190.9L154.8,191.1L153.1,191.4L152.6,192L152,193.4L150,195.7L148,197.3L147.7,197.4L146.5,196.6L145.6,196.3L144.5,196.2L143.7,196.5L143.2,196.9L143.3,198.7L143.1,198.8L142.3,196.7L142.4,194.7L142.8,193.6L143.4,192.6L143.2,191.2L143.7,189.2L143.8,187.7L143.5,187.1L143,186.4L141.8,185.6L141.2,185L139.5,184.1L137.8,183.1L137.5,182.5L137.6,182.1L137.9,181.4L139.2,179.4L140.6,177.5L141.5,176.8L146.3,174.4L147,173.5L147.2,172.1L147.2,171L147.1,169.1L146.8,166.5L146.5,164.6L145.6,161.1L143.1,153.9L141.6,146.4L142.5,146.8L144.8,147L146.7,146.4L147.6,146.4L148.4,146.6L149.7,146.3L150.8,146.1L151.4,146.8L152.5,147.4L154.6,146.6L156.5,145.5L158.4,145.6L158.6,145.1L159.1,142.4L159.7,141.8L162,142.1L162.9,141.6L163.8,140.2L165.2,139.4L166.3,139.4L167.5,138.5L168,139.1L168.3,140.2L167.9,141.1L168.1,141.4L168.9,141.9L170.3,141.9L171.2,141.5L171.4,141L171.4,140.1L171.2,139.2L170.6,138.5L169.5,138.1L168.7,138.1L168.6,137.6L168.9,136.6L169.5,134.7L170.4,133L170.9,132.3L171,131.8L170.9,130.7L170.9,128.9L171.7,126.2L172.7,124.3L174.1,123.7L175.7,123.3L176.8,122.4L177.4,121.3L177.6,120.4L177.8,119.6L178.4,119.3L182.4,119.5L183,117.8L183.4,117.3L184.2,116.8L184.7,116.2L184.5,115.7L183.5,115.4L181,115.2L180.5,114.6L180.7,113.9L181.3,112.1L182,109.9L182.3,108.1L182.3,107.1L182.7,106.8L184.6,106.5L185.3,106.1L187,103.7L188.3,103.3L191.7,103.9L193.2,103.8L193.7,103.9L195.2,104L195.4,103.8L196.1,101.4L196.7,100.7L199.4,97.5L201.2,96.2L202.3,95.9L202.7,96L204.5,98L204.9,98.1L205.9,97.3L206.1,97.2L208.1,97.1L209.1,97.9L209.8,99.3L210.5,100.4L211.2,100.6L213.1,99.3L214.3,98.8L215,98.8L217.6,100.1L218.8,100.8L219,101.4L219.1,102.1L218.8,103.2L218.5,104.4L219.3,105.7L220.2,106.7L222.1,105.1L222.8,104.7L223.6,104.7L224.7,104.1L225.4,103.2L226.1,102.9L227.5,103.2L230,103L232.9,104.3L233.2,104.7L234.7,106.3L235.2,107.1L235.7,107.4L236.4,108.1L237.4,108.6L238.2,108.4L238.5,108.7L238.9,109.3L238.9,110.4L238.8,113.3L238.2,114.2L237.7,114.9L237.6,115.4L237.6,116.1L238.4,117.3L239.5,119.3L239.8,120.5L239.8,121.3L238.3,123.8L237.8,124.4L237.5,125.6L237.3,126.9L237.4,127.4L239.9,129.4L241.6,130.5L242.1,131L242.1,131.3L241.1,133.4L241,134L242.5,134.9L243.3,136.3L244,138.5L245.4,140.7L248.3,142.5L250.5,143.8L250.9,144.4L251,145L250.9,146.5L250.3,148.3L249.9,149.3L250.8,149.6L253.1,149.5L255.8,149.9L259.1,151.8L259.1,152.7L258.7,153.5L259,154.4L259.3,155.1L262.2,157.2L262.5,157.9L262.5,159L262.4,159.7L261.6,159.9L260.8,160.3L259.3,161.2L258.8,162.5L256.5,164.3L255,165.1L253.9,165.1L251.2,164.7L250.2,163.9L249.9,163L248.8,162.7L247.4,162.7L245.6,162.8L245.1,163L244.9,164L244.1,165.7L243.4,166.7L244,167.3L244.7,168.5L245.9,170.1L247.1,171.5L247.4,172.3L247.4,172.9L246.9,173.6L247,175L248.2,176.9L247.7,177.2L247.6,179.5L247.6,181.9L248,182.5L248.6,183L249.1,183.9L250,185.9Z" fill="#b8e653" stroke="#0c0e06" stroke-width="1"/></svg>
