<svg xmlns="http://www.w3.org/2000/svg" viewBox="0 0 400 300"><path d="M0,69.4L9.2,80.5L15,95.3L24.5,108L50.5,114.8L60.5,125.6L82,118.4L100.6,115.8L118.9,111.2L134.3,106.8L149.8,96.2L155.7,81.1L157.6,59.2L161.9,51.5L178.4,44.7L204.3,38.6L225.9,39.5L240.8,37.3L246.6,42.9L245.8,55.5L232.7,71L226.9,86.8L231.4,91.4L227.7,102.5L221.6,122.6L215.3,116L210.2,116.5L205.6,116.8L196.9,132.3L192.4,129.3L189.5,130.5L189.7,134.3L167,134L144.3,134L144.2,148.4L133.2,148.5L142.2,157L151.3,162.9L154,168.4L158,170L157.4,178.7L126,178.7L114.3,199.4L117.7,204.2L114.9,210.1L114.3,217.4L86.6,190.2L74,182L54.1,175.3L40.4,177.2L20.8,186.7L8.4,189.2L0,186L0,69.4Z" fill="#2c2c34" stroke="#474751" stroke-width="0.8"/><path d="M269.3,300L265,296.1L253.6,286L248.2,277.6L237.9,269.7L225.6,258.4L228.4,254.6L232.4,258.3L234.3,256.6L241.8,255.5L244.9,249.8L248.5,249.5L248,237.2L253.7,236.6L258.8,236.8L264.1,230.1L271.3,235.2L273.8,232L278.3,229L286.9,222.1L287.2,216.9L289.6,217.1L292.7,211.1L295.3,210.4L299.4,214.2L304.4,215.4L309.7,212.1L315.9,212.1L324.4,208.8L327.8,205.4L336.1,205.9L334,208.3L332.8,214L335.3,223.2L329.7,231.8L327.1,241.9L326.3,253L327.6,259.4L328.2,270.7L324.4,273.2L322.1,283.9L323.8,290.5L318.9,296.8L319.4,300L269.3,300Z" fill="#2c2c34" stroke="#474751" stroke-width="0.8"/><path d="M336.1,205.9L327.8,205.4L324.4,208.8L315.9,212.1L309.7,212.1L304.4,215.4L299.4,214.2L295.3,210.4L292.7,211.1L289.6,217.1L287.2,216.9L286.9,222.1L278.3,229L273.8,232L271.3,235.2L264.1,230.1L258.8,236.8L253.7,236.6L248,237.2L248.5,249.5L244.9,249.8L241.8,255.5L234.3,256.6L230,248.7L222.6,246.5L224.3,236.4L221,233.7L216,231.9L205.2,234.9L204.3,231.5L197,227.5L191.7,222.5L184.5,220.3L189.6,213.9L187.6,209L189.4,204.1L200.9,197L212.1,187.3L214.6,188.3L220,183.9L227,183.5L229.2,185.6L233,184.3L244.4,186.6L255.6,186L263.5,183.1L266.4,180.3L274.2,181.6L280,183.3L286.4,182.7L291.3,180.6L302.4,184.1L306.3,184.6L313.8,189.4L320.8,195L329.7,198.9Z" fill="#2c2c34" stroke="#474751" stroke-width="0.8"/><path d="M184.5,220.3L191.7,222.5L197,227.5L204.3,231.5L205.2,234.9L216,231.9L221,233.7L224.3,236.4L222.6,246.5L219.9,252.4L205.8,252.1L197,249.6L186.8,244.7L173.3,243.1L166.3,237.7L167.1,234L175.5,227.7L180.1,224.9L178.7,221.9Z" fill="#2c2c34" stroke="#474751" stroke-width="0.8"/><path d="M114.3,217.4L114.9,210.1L117.7,204.2L114.3,199.4L126,178.7L157.4,178.7L158,170L154,168.4L151.3,162.9L142.2,157L133.2,148.5L144.2,148.4L144.3,134L167,134L189.7,134.3L189.5,154.5L187.5,183.3L194.8,183.3L202.8,187.9L204.9,184.1L212.1,187.3L200.9,197L189.4,204.1L187.6,209L189.6,213.9L184.5,220.3L178.7,221.9L180.1,224.9L175.5,227.7L167.1,234L166.3,237.7L153.9,233.3L138.5,232.8L127.4,227.8Z" fill="#2c2c34" stroke="#474751" stroke-width="0.8"/><path d="M400,24.2L368.6,20.2L360,15.1L369.2,8.5L345.2,7.1L327.7,20.9L317.6,21.2L314,27.6L301.9,30.5L291.5,28L304.4,19.9L309.6,10.3L320.7,4.5L331.5,0L400,0Z" fill="#2c2c34" stroke="#474751" stroke-width="0.8"/><path d="M189.2,134.1L189.1,131.8L189.8,130.1L191.9,129.3L194.5,130.9L195.6,131.5L196.6,131.2L197.8,130.2L199.4,127.5L203.2,121.8L204.8,117.9L206.3,117.1L208.5,116.9L210.3,117.2L209,120.1L210.3,120.5L211.6,120.2L214.4,120.3L215.5,123.5L215.2,126.2L212.5,133.3L212.2,135.7L210.9,139.3L212.6,141.7L211,144.9L210.5,147L210.4,150L211.2,155.9L209.9,164.3L207.7,168L206.3,169.4L203.8,173L200.6,174.1L196.1,180L195.3,181.5L195.7,183.2L194.7,183.2L190.4,183L187.5,183.3L187.4,183.1L187.5,176.8L188,167L188.2,159.8L188.5,152.8L188.7,147.5L189,140.3ZM218.8,131.3L217.6,131.7L218.6,130.2L218.7,129.3L220.1,125.3L221,125.4L221.2,125.7ZM221.1,144.1L219.3,147.7L219.1,146.7L219.9,144L221,143.1L221.7,142.1L221.8,141L222.7,141.5L222.5,142.7Z" fill="#b8e653" stroke="#0c0e06" stroke-width="1"/></svg>
