<svg xmlns="http://www.w3.org/2000/svg" viewBox="0 0 300 300"><path fill="#e8e8ea" d="M102.1,87.2L101.7,78.4L104.5,71.6L112.8,68.7L122.8,74.6L127.2,77.2L131,75.8L135.9,72.2L142.1,61.3L156.9,39.3L163.1,23.7L169,20.5L177.6,20L184.8,21.1L179.6,32.4L184.8,34L189.6,32.8L200.7,33.3L205.2,45.7L203.8,56.4L193.4,84L192.1,93.6L187.2,107.8L193.8,117.2L187.6,129.7L185.5,137.7L185.2,149.8L188.3,172.7L183.1,205.7L174.5,220.1L169,225.7L159.3,239.9L146.6,244.2L129,267.2L125.9,273.3L127.6,279.8L123.5,279.8L106.6,278.8L95.2,280L94.8,279.5L95.5,254.7L97.3,216.3L98.3,188.2L99.3,160.5L100,139.8L101,111.6Z"/></svg>
