<svg xmlns="http://www.w3.org/2000/svg" viewBox="0 0 300 300"><path fill="#e8e8ea" d="M53.4,174.5L53.5,174.1L53.4,173.8L53.3,173.5L53.2,173.3L52.9,173.4L52.3,173.2L52.1,172.6L51.5,172.4L51.3,172L50.7,171.8L50.2,171.7L49.9,171.4L49.5,171.1L49,170.8L48.7,170.6L48.5,170.6L48,170.6L47.9,170.1L47.8,169.8L47.8,169.5L47.5,169.4L47.1,169.2L47.2,168.6L47.3,168.2L47,168.1L46.4,167.9L46.6,167.5L46.7,167.2L46.5,166.8L46.1,166.1L45.7,165.5L45.3,164.7L44.9,164L44.6,163.4L44.4,163L44,162.2L43.5,161.4L43.1,160.7L43.2,160.3L42.7,159.8L42.3,159.2L41.9,158.6L41.4,158.3L41.1,158.1L40.7,157.7L40.4,157.5L40.3,157.2L40.2,157L40.1,156.8L40.1,156.5L40,156.3L39.4,155.9L39.3,155.7L38.9,155.4L38.6,155.2L38.5,155.1L38.1,154.2L38.1,153.9L38.2,153.6L38.1,153.4L37.5,152.7L37.2,152.4L36.8,152.1L36.1,152.5L35.4,152.9L34.9,153L34.3,153.2L34.5,153.7L34.4,154L34.2,154.1L33.8,154.1L33.8,155.2L33.5,156L32.8,156L32.4,156.2L31.8,156.6L31.3,156.9L30.9,157.4L30.6,157.3L30.7,156.9L30.5,156.1L30.4,155.5L30.1,155.2L29.5,154.6L29.1,154.2L28.6,153.6L28.2,153.2L27.8,152.8L27.2,152.2L27,151.4L26.5,151.2L26,150.9L25.5,150.3L25.7,149.8L25.9,149.1L25.9,148.7L25.4,148.8L24.7,148.8L24,148.8L23.6,149.3L23.1,149.7L22.4,149.4L21.7,149L21.4,149.5L20.7,149.3L20,149L20,147.2L20,145.4L20,143.5L20,141.7L20,139.8L20,137.9L20,136L20,134.1L20,132.1L20,130.2L20,128.2L20,126.2L20,124.1L20,122.1L20,120L20,117.9L20,115.8L20,113.7L20,111.5L20,109.3L20,107.1L20,104.9L20,102.6L20,100.3L20,98L20,95.6L20,93.3L20,90.8L20,88.4L20,85.9L20,83.4L20,80.9L20.4,81L21.8,81.3L23.1,81.1L25.5,82.1L27,83.8L28.3,84.6L28.8,85.2L29.5,85.7L31.4,86.8L32,86.9L33.1,87.4L33.7,87.4L34.9,87.5L35.6,87.9L37.2,89.1L37.5,89.2L37.6,89.1L37,87.9L37,87.8L36.3,87.4L35.6,87.2L35.6,87.1L35.4,86.7L35.5,86.6L35.6,86.5L36.2,86.5L36.5,86.4L36.5,86.3L36.3,86.2L36,86.1L35.7,85.8L35.5,85.5L36.2,83.8L36.4,84L36.8,83.6L37.4,83.9L37.5,83.7L37.6,82.8L37.7,82.6L37.9,82.5L38.7,82.3L39.8,82.5L39.9,82.4L39.8,81.8L39.8,81.6L39.9,81L40,80.8L40.1,80.6L40.6,80.7L40.8,81L40.9,81.4L41.1,81.7L41.6,82L41.7,82.1L41.5,82.8L41.3,83.2L40.8,84.1L40.8,84.3L41.5,83.9L42.3,83.3L42.9,83L43.5,82.9L43.9,82.8L44.1,82.4L44.3,82.1L44.6,81.1L44.9,80.9L45.8,80.9L46.1,80.9L46.2,80.8L46.2,80.7L46,80.5L45.7,80.5L45.7,80.4L45.8,80.2L45.9,80.1L46.4,80L46.7,80.4L46.9,80.4L47.6,80L48.7,78.8L49.1,78.5L49.5,78.5L49.8,78.7L50.1,78.6L50.4,78L50.5,77.6L50.7,77.3L51.5,76.7L52,76.5L52.3,76.6L52.7,76.9L53,77L53.4,76.9L53.7,77L53.8,76.8L54.3,76.1L54.5,76.1L54.7,76.3L54.9,76.8L54.9,77.1L54.6,77.8L52.1,79.7L51.4,80.6L51,80.9L50.6,81L49.8,81.2L49.5,81.3L49,81.5L47.8,81.8L47.6,81.9L47.5,82L47,83L46.8,83.4L46.4,83.9L46,84.2L45.3,84.3L44.9,84.7L44.5,85.6L44.1,86.2L43.7,86.8L43.2,87.4L43.1,87.8L43.2,88.3L43.3,88.4L43.8,88.7L44,88.6L43.8,88.4L43.4,88L43.4,87.9L43.5,87.8L45.3,88.1L45.7,87.8L45.8,87.6L45.8,87.4L45.3,87.4L45.2,87.2L45.1,86.7L45.1,86.4L45.1,86.1L45.2,85.8L45.8,85.3L46.3,85.1L46.8,84.8L47,84.5L47.7,84L47.9,83.6L48.1,83.3L48.1,83.2L48,83.1L48.1,82.8L48.5,82.5L48.8,82.5L49.4,82.8L49.6,82.9L49.5,83.4L49.6,83.4L49.8,82.8L50,82.6L50.1,82.5L50.3,82.6L50.4,82.8L50.5,83.4L50.5,84.3L50.6,84.7L50.7,84.1L50.9,83.8L51.5,82.4L51.9,81.6L52.4,80.8L53.2,80.3L54.8,79.3L55.8,79.1L56.2,78.8L56.5,78.6L56.6,78.4L56.9,78.1L56.9,78.1L56.8,78.7L56.8,78.9L56.1,79.3L56.1,79.6L56.2,80L56.3,80.3L56.4,80.4L56.6,80.3L57,80L57.5,79.5L58.4,78.1L58.5,77.9L58.8,76.8L59.3,76.3L60.3,75.8L60.6,75.5L59.7,75.2L59.5,75L59.5,74.8L59.6,74.5L59.2,74.2L59.1,74L59.1,73.5L59.2,73.1L59.5,72.7L59.6,72.6L60,72.8L60.4,73.1L61.5,74.5L62,75.1L62.2,75.6L62.9,77.2L63.2,78.1L63.4,79.1L63.6,79.8L63.8,80.2L64.9,81.8L65.5,82.5L66,82.9L66.5,83.2L67.2,83.5L67.6,83.5L68.2,82.8L68.2,82.4L68,81.6L67.7,81.1L67.7,80.8L68.1,80.2L68.1,79.9L68.1,79.3L68.4,79.4L68.5,79.4L68.7,79.2L68.8,78.7L69.1,78.4L69.4,78.1L69.5,77.9L69.2,77.7L69,77.7L68.9,77.7L68.8,77.6L68.9,77.4L69.5,77.1L69.6,76.7L69.9,76.5L70.1,76.4L70.3,76.5L70.4,76.8L70.5,77.2L70.4,77.9L70.4,78.5L70.6,79.9L70.7,80.1L71.4,80.5L71.4,80.9L70.6,82.2L70.4,82.6L70.3,82.8L70.4,83.1L70.5,83.2L70.8,83.4L71.5,83.4L71.7,83.3L73,83.2L73.2,83.2L73.4,82.9L73.8,82.2L74.1,82L74.2,81.8L74.4,81L74.5,80.1L74.6,79.7L74.8,79.5L75,79.4L75.5,79.5L75.7,79.4L76.7,79.5L77.7,79.4L78.7,79.6L79.3,79.8L79.9,80.1L81.1,80.8L81.5,81.2L83.1,82.9L83.6,83.2L84.4,83.6L87.4,84.3L87.8,84.5L88.6,85.2L89.2,85.7L89.8,86.1L90.6,86.5L92.2,87L92.4,87.2L92.7,87.3L93.1,87.2L94.5,87.5L94.9,87.5L95.2,87.6L95.5,87.8L96,87.9L96,87.7L95.4,86.8L95.4,86.7L95.7,86.7L96.4,86.8L96.5,86.6L96.8,86.6L97.3,86.7L97.9,87L98.5,87.4L99.2,87.8L100.4,88.6L101,89.4L101.6,90.3L101.9,90.9L102,91.2L102.1,91.4L102.3,91.4L102.4,91.5L102.2,92.3L102.1,92.5L102,92.6L101.4,92.8L99.9,92.6L99.7,93.2L98.8,93.7L98.7,94L98.7,94.1L98.7,94.7L98.6,94.8L97.9,95.4L97.9,95.6L98.3,95.8L98.8,96.3L99.2,96.4L99.7,96.3L100.3,96.5L101,96.8L101.5,97L101.7,97L102.1,97L102.6,97.2L103.2,97.2L104.7,97.2L105.1,97.3L105.7,97.4L106.8,97.4L107,97.4L107.4,97.1L107.6,97L108.1,97L109.2,96.8L109.7,96.8L110,96.6L110.5,96.3L110.8,96.2L110.9,96.4L111.1,96.5L111.4,96.5L112,96.2L113.3,95.2L113.8,95.2L114.2,94.9L114.2,94.9L114.3,95L114.7,95.7L114.8,95.8L115,95.9L115.2,96.3L115.4,96.8L115.6,97L116.8,97L117.3,97.2L117.4,97.3L117.5,97.7L117.6,98.6L117.7,98.9L117.8,99.3L118,99.5L118.1,99.3L118.4,98.2L118.5,98L118.7,98L118.7,98.1L119.1,99L119.5,99.6L120.6,100.8L120.8,101.2L120.8,101.5L120.8,101.8L120.6,102L120.3,102.2L119.9,102.4L119.5,102.3L119.2,102.1L119,102.1L119.2,102.3L119.9,103.2L120.1,103.6L120.3,103.9L120.4,104L120.5,104.2L120.7,104.5L121.3,105.2L121.5,105.6L122.1,106.7L122.5,107.1L122.7,107.4L122.8,107.4L122.8,107.2L121.9,105.7L121.4,104.8L121.4,104.6L121.3,104.2L121.3,103.1L121.4,102.9L121.7,102.7L122.1,103.3L122.2,103.3L122.3,103.3L122.4,103.2L122.6,103.3L123,103.7L123.1,103.7L122.8,103L122.6,102.6L122.5,102.3L122.7,102L122.6,101.8L122.1,101.2L121.9,100.6L121.6,99.7L121.6,99.4L121.7,99L121.6,98.7L121.3,98.1L121,97.7L120.7,97.2L120.6,97L120.7,96.3L120.9,96L121.3,95.6L121.4,95.1L121.2,94.7L121.2,94.5L121.3,94.5L122.1,94.3L122.2,94.4L122.5,94.3L122.9,94L123.2,93.9L123.6,93.9L123.8,93.9L124.1,93.8L124.2,93.6L124.5,93.1L124.6,93L125,93.1L125.3,93.2L125.4,93.2L125.3,92.4L125.4,92.2L125.8,91.7L126.3,91.6L126.5,91.5L126.9,91.2L127.1,90.9L127.3,90.5L127.4,89.9L127.3,89.8L126.9,89.6L126.6,89.7L125.9,90.1L125.3,90.6L125,91L124.9,91.6L124.8,91.9L124.3,91.6L124,91.6L123.8,91.7L123.5,92L123.2,92.3L122.7,92.4L122.1,92.2L121.7,92.1L121.3,92.5L121.4,92.7L121.5,93.1L121.4,93.4L120.5,93.5L120.2,93.4L119.8,93.6L119.6,93.5L119.4,93.4L118.5,92.5L118.4,92.4L118.6,91.7L119.5,89.9L119.6,89.8L121.3,89.5L122.3,89.1L124.1,88.1L124.5,88L125.7,87.3L126.2,87.2L126.6,87.3L127.3,87.6L127.6,87.9L127.9,88.3L128.1,88.9L128.3,90L128.4,91L128.5,91.4L129.1,92.1L129.4,92.4L129.6,92.4L129.7,92.3L129.8,92.3L129.9,92.3L130,92.8L130.1,92.8L130.4,92.7L130.7,92.9L130.8,93.1L130.7,93.6L130.8,93.8L131.3,94.3L131.7,94.5L132.2,94.6L133,94.5L133.8,94.2L134.3,93.9L134.8,94.3L135.7,95.3L136.3,96L136.7,96.3L137.6,96.7L137.9,96.9L138.2,97L138.7,96.8L139.2,96.9L139.8,97.2L140.2,97.3L141.6,96.7L141.8,96.7L142.3,96.4L142.7,96.4L143.1,96.4L143.4,96.3L143.5,96.1L144.3,96.1L145.6,96.3L146.5,96.5L147.1,96.9L147.5,97L147.9,97.1L148.2,97L148.6,96.9L148.9,96.6L149.6,96.4L149.8,96.4L149.8,96.2L149.6,96L149.2,95.5L148.9,95.1L148.8,94.8L148.8,94.5L148.9,94.3L149.1,94.2L149.4,94.4L149.8,94.9L150.8,96.7L151.1,96.9L151.2,97.2L152.2,97.8L152.7,97.9L153.2,97.5L153.5,97.3L153.6,97L153.6,96.8L153.6,96.5L153.6,96.3L153.4,96L153.1,95.6L152.4,95.1L151.8,95L151.3,95.2L150.7,95.6L150.4,95.4L149.7,94.3L149.5,93.8L149.5,93.7L149.8,93.9L149.9,93.7L149.7,93.2L149.5,93L149.1,92.1L149,91.8L149.3,91.8L149.4,91.7L149.6,91.7L150.4,92.2L150.7,92L151.7,91.6L151.3,91.1L151.2,90.6L151.3,90.5L151.5,90.4L152.1,90.8L152.4,90.9L152.6,90.7L152.8,90.7L153.1,90.9L153.3,91.1L153.7,91.7L153.9,92.1L154.1,92.6L154.1,92.7L155.2,92.8L155.8,92.3L155.8,92.4L155.7,92.8L154.9,94.3L154.9,94.5L155.3,94.4L155.5,94.3L155.6,94.1L155.7,93.7L155.8,93.6L156.9,92.9L157.2,92.8L157,93.5L156.6,96.2L156.5,97.1L156.4,97.4L156,98.4L156,98.7L156.5,99.6L156.6,99.8L156.6,100.5L156.7,100.6L157.1,100.6L157.5,100.4L158,100.3L158.1,100.4L157.8,101.2L157.8,101.3L158.3,101.1L158.5,101.1L158.6,101.1L158.9,101.5L158.9,101.9L158.9,102.3L158.9,102.7L158.8,102.9L158.6,102.9L158.5,103L158.3,103L157.8,103L157.5,102.9L157.3,102.7L157.1,102.6L156.8,102.8L156.5,102.8L156.1,102.2L155.9,102.3L155.8,102.4L155.8,102.5L156,102.9L157.5,104.8L157.7,105.2L157.7,105.7L157.8,105.7L157.9,105.2L157.8,104.9L157.1,103.8L157,103.4L157,103.3L157.2,103.1L158.3,103.4L158.7,103.4L159,103.2L159.1,102.9L159.2,101.6L159.4,100.7L159.3,99.9L159,98.7L158.8,97.9L158.2,97.2L158.2,96.9L158.8,94.6L158.9,94.4L159,94.4L159.5,94.3L159.8,94.1L160.3,94.4L160.6,94.5L160.9,94.2L161.7,93.2L162,92.9L162.4,92.4L162.9,91.5L163.4,90.9L164.3,90.3L164.8,89.9L164.9,89.7L164.4,89.7L164.3,89.6L164.2,89.1L164.2,88.3L164.2,87.9L164.2,87.4L164.1,87.1L163.9,86.7L163.8,86.6L163.7,86.5L163.6,86.5L163.5,86.6L163.4,87.4L163.2,88L163,88.3L162.5,88.5L161.8,88.7L161.4,88.4L161.4,88.2L161.5,87.2L161.8,86.8L162.5,86.1L163,85.4L163,85.3L162.5,85.3L162.4,85.2L162.3,84.4L162.4,84.1L162.4,83.8L162.7,83.6L163.7,83.3L164.4,82.9L164.4,83L163.8,84.1L163.8,84.3L164,84.6L164.5,84L164.9,83.4L165,83.3L164.6,83.2L164.6,83L164.7,82.6L164.6,82.4L164.3,82L163.8,82.2L163.5,82.6L163.2,82.7L162.7,82.7L162.4,82.6L162.2,82.4L161.9,82L161.7,81.5L161.3,80.9L161.2,80.8L161,80.9L160.8,81.5L160.7,81.5L159.3,80.7L158.7,80.3L158.4,80L158,79.8L157.6,79.7L157.2,79.5L157,79.3L156.8,78.9L156.6,78.5L156.3,77.9L155.6,76.7L155.4,75.9L155.4,75.6L155.5,74.8L156.1,73.6L156.2,73.2L156.4,72.9L156.7,72.7L157,72.7L157.5,72.8L157.2,72.4L157.2,72.2L157.5,71.5L157.4,71.5L156.5,72L156.3,72L156,71.6L155.5,70.4L155.4,69.7L155.6,68.6L155.7,68L155.5,67.5L155.6,67.3L155.8,67.2L155.8,67L155.8,66.4L155.9,66.1L156.3,65.4L156.7,64.9L156.9,64.7L157.1,64.8L157.4,64.9L157.6,65.3L158,65.6L158.2,65.6L158.4,65.5L158.8,64.3L158.9,64L158.8,63.9L158.1,63.9L157.8,63.8L157.6,63.7L157.5,63.2L157.6,63L158.3,62.1L158.6,61.2L159.6,60L160.5,59.4L161,59.2L161.4,59.2L161.5,59.3L161.7,59.9L161.8,60.5L162.3,61.4L162.7,61.4L163,61.3L163.8,61.3L164,61.6L164,61.8L163.9,62.2L163.9,62.6L164.5,63.3L165,63.7L165.5,64.3L166.2,65.5L166.3,65.8L166.4,66.2L166.6,67.5L166.6,68L166.6,69.4L166.5,69.7L166.3,70L166.4,70.2L166.9,70.5L167.4,71.3L167.6,71.5L168.1,71.9L168.2,72L168.4,72.3L168.7,73.3L169.2,74.3L169.2,74.5L169.1,74.9L169.2,75.1L169.4,75.2L169.5,75.1L169.7,74.8L169.9,74.7L170,74.9L170.2,75.1L170.4,75.7L170.6,76.2L170.6,76.3L170.5,76.5L169.7,76.6L169.3,76.5L168.9,76.3L168.7,76L168.4,75.6L168.3,75.7L168.2,76L167.9,76.4L167.7,76.9L167.9,77L168.9,77L169.1,77.2L169.4,77.4L169.1,77.9L168.4,78.7L167,80.3L166.6,80.7L166.7,80.8L166.9,80.9L167.4,80.8L167.8,80.6L168.4,80.7L168.6,80.9L168.5,81L168.7,81.3L169.6,81.9L170.2,81.8L170.7,81.2L171.2,80.9L171.7,80.9L171.9,81L171.8,81.1L171.4,81.5L171.1,81.9L171,82L171.5,81.8L172.5,82.1L173,82.1L173.4,82.1L173.7,82.1L174,82.4L174.1,82.6L173.8,82.7L173.6,82.7L173.3,82.8L173.1,83.1L173,83.5L172.9,84L172.7,84.2L172.3,84.1L172.2,84L172.3,83.8L172.2,83.8L171.9,83.9L171.7,83.9L171.6,84L173.1,85.6L173.6,86.9L173.9,87.5L174,87.6L173.8,88L173.7,88.3L173.8,89.1L173.8,89.8L173.7,90.9L173.8,91.3L174.1,91.6L174.3,92L174.4,92.1L174.5,92.4L174.6,92.6L174.8,92.7L174.9,92.6L174.9,92.3L175,92L175.4,91.5L175.7,90.8L175.8,90.5L175.7,89.9L175.8,89.7L176.1,88.7L176.2,88.1L176.3,87.1L176.4,86.4L176.8,85.8L177.4,84.5L177.6,84.3L177.8,84.2L178.3,84.2L178.6,84.6L179,85.3L179.6,86L180.5,86.9L180.8,87.2L181.4,88.1L181.6,88.9L181.8,90.2L181.9,90.9L182,91.1L182.1,91.5L182.1,92L182,92.3L181.9,92.6L181.8,92.8L181.5,92.8L181.2,92.7L181.1,92.6L180.9,92.1L180.8,92L180.4,92.4L180.4,92.7L180.5,93.4L180.5,94.9L180.5,95.2L180.9,96.7L181.5,97.8L183,100L183.1,100.2L183.3,101.1L183.3,101.3L183.4,101.4L183.6,101.4L183.7,101.3L184.3,100.7L184.8,100L185.1,99.6L185.3,99.6L185.5,99.5L185.7,99.2L185.9,99L186,98.7L186.1,97.6L186.1,97.1L186.4,96.4L186.5,96.2L187.6,94.4L187.7,94.2L188.2,92.1L188.4,91.2L188.4,90.6L188.4,90L188.4,89.6L188.5,89.3L188.7,89L188.9,88.8L189.1,88.4L189.1,88.4L189.3,88.4L189.6,88.6L189.8,88.7L191,88.4L191,88.3L190.3,87.8L190.3,87.6L190.4,87.3L190.6,86.9L190.9,86.8L191,86.6L191,86.3L191.1,85.9L191,85.7L190.3,85.1L189.9,85.1L189.8,85L189.5,84.5L189.3,83.8L189.3,83.5L189.4,83L189.4,82.8L189.4,82.6L189.3,82.3L189.3,82L189.4,81.8L189.3,81.5L189.2,81.1L189.1,80.9L189.3,80L189.3,79.8L189.1,79.4L189,79.3L189.1,79.2L189.4,79.1L189.7,79.2L190.1,79.5L190.6,79.5L191.1,79.3L191.7,79.1L192.7,79.2L192.9,79.3L193.9,80.1L194.7,80.4L195.1,80.4L196.8,80.6L197.5,80.5L197.9,80.5L198.6,80.9L198.6,81.3L198.3,81.9L197.8,82L197.5,82.2L197.8,82.6L198.8,83L199.1,83.6L199.1,84L199,84.2L199.1,84.4L199.3,84.4L199.9,84.1L200.6,84.3L201.6,84.8L201.7,84.9L201.8,85.3L201.8,85.5L201,86.5L200.5,86.9L199.9,87.3L199.9,87.5L200.7,87.5L201.4,87.6L201.7,87.8L201.8,87.9L202,88.3L202.1,88.7L202,89.1L202,89.4L201.2,90.2L200.9,90.5L200.3,90.8L200,91L199.8,91L199.5,90.7L199.1,90.6L198.6,90.9L198.3,90.9L198.1,91L198.1,91.1L198.4,91.7L198.5,91.9L198.6,92L198.5,92.3L198.5,92.4L198.6,92.5L199.1,93.6L199.2,93.7L199.3,93.7L199.5,93.3L199.7,93.2L199.7,93.2L199.7,93.4L199.5,94.4L199.5,94.7L199.5,94.9L199.6,95.4L199.8,95.9L200.2,96.4L200.7,97.1L201.3,97.7L201.6,98.1L201.9,98.8L202,99.1L201.9,100L201.6,101.3L201.5,102L201.4,102.2L200.9,102.8L200.6,102.9L200.2,102.9L200,103L199.8,103.4L199.4,104.1L199.2,104.6L199,104.8L198.6,105L198.1,105.7L197.8,106L196.9,106.2L196.1,107.1L195.8,107.5L195.5,107.6L195.1,107.6L194.9,107.5L194.8,106.9L194.7,106.7L194.5,106.4L193.9,105.3L193.7,104.9L193.5,104.8L193.2,104.9L193.1,104.8L192.7,104.5L192.6,104.2L192.6,104.1L192.9,104L192.7,103.8L192.3,103.3L192.1,103.1L192,103L191.6,102.6L191.1,102.5L190.5,103.1L190.3,103.5L190.3,103.6L190.6,103.8L190.7,103.7L190.9,103.3L191.1,103.2L191.4,103.3L191.7,103.5L191.8,103.7L191.9,103.9L192.7,105L193,105.2L193.1,105.5L193.2,105.9L193.4,106.4L193.8,107.2L194.2,108.2L194.3,108.6L194.1,108.8L194,108.8L193.6,108.7L192.8,108.2L192.7,108.2L192.5,108.5L192.3,109L192.2,109.1L191.8,108.8L190.9,108.4L190.3,108L190.1,107.6L189.7,107.1L189.3,106.3L188.8,106.1L188.2,106.4L187.4,106.5L185.7,106.4L185.4,106.5L185.3,106.5L185.5,106.9L185.5,107.1L185.3,107.1L185.3,107.3L185.5,107.7L185.8,108L186.7,108.4L187.2,108.7L187.6,109L187.7,109.3L187.7,109.5L187.5,110L187.5,110.2L185.5,112.9L184.7,113.9L184.3,114.6L184,115L183.7,115.2L183.2,115.3L182.5,115.3L181.6,115.2L181.1,114.9L180.3,114L179.7,113.5L179.5,113.3L179.2,112.8L179,112.7L178.6,112.6L178.2,112.4L177.2,111.4L176.6,111.1L176.2,110.9L175.7,110.9L175.6,110.9L175.9,111.4L175.7,111.4L175.4,111.3L175,111.3L174.4,111L173.8,111L173.4,110.9L172.9,110.8L172.3,110.7L171.4,110.7L171.1,110.7L171.1,110.8L171.5,111.2L172.2,111.7L172.1,111.3L172.2,111.2L172.4,111L173.6,111.3L174.9,111.8L175.3,111.9L175.6,112.1L176.1,112.4L176.6,113L177.7,114.5L178.1,114.9L178.5,115.2L180.9,115.7L181.7,115.7L183.3,115.9L184.2,116.1L184.5,116.3L184.5,117L184.5,117.3L184,118.3L183.7,119L181.8,122L181.6,122.7L181.5,123.1L181.2,123.6L180.3,124.2L179.5,124.8L179,124.9L178.6,124.8L178.3,124.6L177.8,124.1L177.8,124.1L178.1,125L178,125.1L177.8,124.9L177.2,124.6L177,124.6L176.9,124.7L176.8,124.7L176.6,124.6L176.2,124.3L176.1,124.1L176,123.7L176,123.6L175.3,123.9L175.2,123.9L175.4,124.1L175.5,124.3L175.8,125L175.8,125.1L175.6,125.2L175,125L174.9,125L175.2,125.7L175.4,126L175.4,126.2L174.9,127L174.7,127.3L174.3,127.4L174,127.4L173.8,127.2L173.6,127.2L173.5,127.4L173.2,127.6L172.9,127.7L172.5,127.7L172,127.5L170.7,126.7L170.3,126.6L169.5,126.5L169.4,126.4L169.4,126.3L169.6,126.2L169.5,126.1L169.4,126.1L169.2,126.1L169,126.3L168.7,126.4L168.3,126.3L167.6,126L166.4,125.3L165,124.6L164.1,123.8L164.4,124.6L164.4,124.8L164.3,125L164.2,125.2L164.6,125.8L165,126L165.4,125.9L165.4,125.9L165.3,125.7L165.1,125.5L165,125.2L165.1,125.2L165.5,125.3L165.8,125.5L167.7,126.5L168.3,126.7L168.7,126.9L168.8,127L168.7,127.2L167.9,127.8L167.9,127.9L168.4,127.9L169.1,127.3L169.4,127.1L169.8,126.9L170.3,127.2L170.9,127.9L171.3,128.2L172,128.4L172.4,128.7L173.1,129.3L173.2,129.6L173.3,130.9L173.3,131.2L173.2,131.6L173,131.9L172.8,132L172.3,132.1L172,132.2L171.3,132.9L171,133L169.7,132.8L169.2,132.6L169,132.6L168.8,132.7L168.7,132.8L168.2,132.9L168.1,133L168.2,133.2L168.3,133.4L168.4,133.6L168.6,133.8L168.9,133.9L169.4,134L169.5,134.4L169.5,134.5L169.3,134.7L169.1,134.7L168.7,134.4L168.5,134.4L168.3,134.6L168.1,134.6L167.8,134.6L167.6,134.7L167.6,135L167.5,135.2L167.2,135.5L167,135.8L167,136L167.2,136.1L167.4,136.4L167.7,137L167.7,137.2L167.5,137.1L167.3,136.9L167.1,136.6L166.7,136.3L165.8,135.9L165.6,135.9L165.7,136L166.3,136.4L166.5,136.7L166.6,136.9L166.1,137.3L166,137.4L166.2,137.6L166.2,137.7L166,137.9L165.8,138.1L165.2,138.1L165.1,138.2L165.4,138.4L165.4,138.5L165.2,138.7L165.1,138.7L164.5,138.7L164.7,139.1L164.8,139.3L165,139.5L165.3,139.7L165.3,139.8L165.2,140L165,140.2L164.1,140.8L163.5,141.6L163.4,141.9L163.5,142.3L163.6,142.5L163.4,142.7L163,142.6L163,142.7L163,143L163.1,143.3L163,143.8L162.7,144.5L162.3,145.5L161.9,146.3L161.7,147.1L161.5,147.5L161.1,147.5L160.9,147.8L161.1,147.9L161.2,148.1L161.2,148.3L161.2,149L161,150.2L160.8,151.1L160.8,154L160.8,155.3L160.7,156L160.6,156.3L160.3,156.4L160.6,156.5L160.8,156.7L160.9,157L161,157.4L161.2,157.6L161.3,157.6L161.5,157.6L161.6,157.7L161.9,158.3L162.3,158.5L162.4,158.9L162.2,160.7L162.2,161L162.4,160.5L162.6,159L162.8,158.4L163,158.3L163.9,158.2L164.8,158.3L165.1,158.4L165.4,158.3L165.7,158.5L165.8,158.6L165.9,159.4L166,159.8L166.5,161.4L166.7,162.2L167.1,163.6L167.2,164L167.8,165.7L167.9,166.2L168,166.6L168,166.8L167.8,167.2L167.6,167.7L167.4,168.1L167.3,168.4L167.1,168.6L166.9,168.8L166.9,168.8L167.1,168.7L167.3,168.6L167.7,168.2L167.9,168.1L168.4,168.1L168.4,168.2L168.2,168.5L168.2,168.5L168.5,168.3L169.3,168L172,167L172.7,166.9L173.6,167.1L174.4,167.5L175.2,168.1L176,168.5L177.4,168.8L177.8,169L178.6,169.2L179,169.4L179.4,169.9L180.1,170.5L180.7,170.9L181.3,171.3L181.9,172L182.8,173.6L183.1,173.8L183.7,174L184.8,174.3L186.4,175.1L187.2,175.4L187.6,175.5L188.1,175.7L188.6,176L188.9,176.4L189.2,176.7L189.4,176.9L189.8,177.2L190,177.4L190,177.7L189.5,178.7L189.5,178.8L190,178.1L190.2,177.8L190.5,177.7L190.9,177.7L191.5,177.9L192.1,177.9L192.6,177.8L193,177.7L193.4,177.7L193.6,177.7L193.8,177.6L194,177.6L194.7,177.8L195,177.9L196.1,178.1L196.8,178L196.9,178.1L197.1,178.4L197.3,178.4L197.7,178.4L198,178.5L198.6,178.9L198.8,179.3L199.1,180L199.1,180.2L198.7,182L198.5,182.6L198.5,183.2L198.6,183.6L199,184.1L199,184.3L199.3,185.1L199.4,185.4L199.3,185.8L199.2,186.5L199.2,187L199.3,187.8L199.3,188.3L199.1,188.6L199,188.8L198.9,189.3L198.9,189.5L199,189.8L199.2,190L199.5,190.2L199.7,190.6L200.2,191.4L200.6,191.8L201,192.5L201.1,192.8L201,193L200.8,193.2L200.5,193.4L200.3,193.5L200.3,193.5L200.9,193.4L201.2,193.5L201.4,193.6L201.6,193.9L202,194.2L202.4,194.4L202.9,194.8L203.7,195.6L203.9,195.8L204.1,196.3L204.4,197L204.5,197.4L204.5,197.6L204.4,197.8L203.8,198.2L203.3,198.9L203.5,198.9L203.8,198.6L204.4,198L204.7,197.9L205.1,198L205.6,198.2L206,198.4L206.4,198.7L206.9,199.5L207.5,200.1L207.9,200.7L207.8,200.3L207.5,199.9L207,199.3L206.7,199L206.7,198.8L206.7,198.6L206.7,198.3L206.8,197.8L207,197.5L207.1,197.3L207.3,197.1L207.3,196.9L207.4,196.7L207.9,196.5L208,196.5L208.1,196.8L208.2,196.9L208.5,197L208.6,197.1L208.8,197.3L208.9,197.5L209,197.6L209.1,198.3L209.2,198.6L209.2,198.2L209.4,197.7L209.4,197.4L209.7,197.1L209.7,197L209.6,196.8L209,195.9L209,195.7L209.1,195.6L209.3,195.4L209.3,195.1L209.4,194.8L209.8,194.5L210.2,193.9L210.3,193.6L210.5,193.4L210.6,193.3L210.4,193.2L210.4,193.1L210.4,192.6L210.3,192.2L210.1,192L209.8,191.5L209.7,191.4L209.6,190.8L209.7,190.6L209.8,190.3L209.7,190.1L209.4,189.7L209.2,189.4L209.1,188.6L208.9,187.5L208.8,186.8L208.6,186.3L208.6,186L208.7,185.8L208.8,185.4L208.9,185.3L209.1,185.4L209.1,185.3L208.8,185.1L208.7,184.8L208.7,184.7L208.9,184.5L208.9,184.4L208.7,184.2L208.2,184L208.4,183.9L208.5,183.7L208.5,183.6L208.3,183.5L208,183.4L207.8,183.1L207.6,182.8L207.5,182.4L207.3,181.9L207.1,181.4L207,181.2L206.9,181.1L206.7,181.1L206.7,181L206.9,180.9L209.2,179.9L209.4,179.7L210.5,179.2L211,178.9L211.6,178.4L212.3,178L212.6,177.7L212.9,177.4L214,176.3L214.5,175.7L214.8,175.2L215.2,174.6L215.7,173.9L216.1,173.3L216.2,172.8L216.4,171.9L216.4,171.1L216.5,170L216.5,169L216.3,167.3L216.2,166.8L216.1,166.2L215.7,165L215.6,164.6L215.3,164.1L214.5,162.6L213.5,161.6L213.3,161.3L212.9,161L212.3,160.7L211.9,160.4L210.9,159.3L210.6,159.2L210.4,158.9L210.4,158.7L210.4,158.2L210.5,157.9L210.6,157.6L210.7,157.4L211.2,156.6L211.5,156L211.8,155.7L212,155.4L212.5,155L212.7,154.6L212.6,154.4L212.4,154.2L212.4,154L212.7,153.5L212.8,153.4L212.7,152.9L212.8,152.8L213.2,152.8L213.8,153.4L214,153.4L213.8,153.2L213.5,152.8L213.6,152.6L214,152.1L214,151.9L213.9,151.5L213.9,151.3L214.1,150.7L214.1,150.6L213.3,150.5L213.2,150.3L213.3,150.2L213.6,150L213.6,150L213,148.6L212.9,148.2L213.2,147.7L213.5,147.5L213.4,147.4L213.1,147.4L212.8,147.3L212.6,146.9L212.7,146.7L212.8,146.6L213,146L213.2,145.9L213.2,145.8L212.4,146L212,145.8L211.6,145.9L211.4,145.8L211.5,145.6L212.2,144.6L212.5,144.1L212.7,143.7L212.8,143.4L212.8,143.2L212.7,142.2L212.8,141.9L213,141.6L213.4,141.1L212.9,140.7L212.5,140.2L212.3,140L212.1,139.8L211.9,139.4L211.7,138.8L211.6,137.6L211.5,136.9L211.6,136.4L211.6,136.2L211.8,135.9L212.3,135.5L213.2,134.8L213.9,134.5L214.4,134.7L215.4,134.8L216.2,135.2L218.6,136.2L219.1,136.6L218.6,137L218.7,137.1L219.6,136.4L219.9,136.3L220.1,136.2L220.8,136.5L221,136.5L221.4,136.8L222.2,137.5L222.3,137.5L222.1,137.1L222.2,136.9L222.8,136.5L223.5,136.2L224,135.9L224.5,135.4L224.9,135.2L225.1,135.2L225.3,135.3L225.9,135.9L226.3,136.1L226.6,136.4L227.1,137L227.2,137.1L227.6,137.5L228,137.4L228.2,137.5L228.2,137.5L228.3,137.8L228.3,137.9L228.3,138.1L228.2,138.6L227.9,139.3L228,139.3L228.2,139.2L228.5,138.9L228.7,138.8L229.1,139L229.6,139.4L229.7,139.5L229.9,139.9L230,140L230.1,140.3L230.1,140.4L230,140.6L229.5,140.8L229.6,140.9L230.2,140.8L230.4,140.6L230.5,140.4L230.7,140.3L231.4,140.7L231.4,140.9L231.4,141L231.3,141.2L231,141.3L230.7,141.7L230.7,141.9L230.9,142L231.3,142L231.3,142.1L231.1,142.3L231,142.5L231.6,143.3L232,143.7L232.2,143.7L232.8,143.7L233.2,143.9L234.1,144.3L234.7,144.4L235.2,144.2L235.5,144.2L235.8,144.4L235.9,144.5L235.9,144.8L235.9,145.1L236.1,145.4L236.4,145.6L236.6,145.5L237,145.2L237.2,145.2L237.3,145L237.4,144.6L237.5,144.3L237.7,144.3L237.9,144.4L238,144.6L238.1,145.1L238.2,145.4L238.2,145.6L238.1,145.8L237.9,146L237.6,146.3L237.4,146.6L237.2,147.4L237.1,147.8L237.1,148.1L237.1,148.5L237.1,148.8L237.2,149.1L237.5,149.5L237.5,149.6L237.5,150L237.5,150.1L237.3,150.4L237,150.7L236.5,150.7L234.8,150.7L234.3,150.7L234.5,150.9L234.9,151L235.3,151L236.9,151.2L237.2,151.3L237.3,151.6L237.5,151.9L237.6,152.5L237.6,152.8L237.6,153.1L237.4,153.5L237.3,153.9L237.2,154.5L237.3,154.8L238.2,154.8L238.3,155.1L238.3,155.2L238,155.8L238,155.9L238.1,156.3L238.1,156.4L238,156.6L237.9,156.8L237.9,157.3L237.8,157.6L237.5,157.8L237.4,157.9L237.3,157.8L237.1,157.2L237,157.1L236.9,157.2L236.9,157.3L236.9,157.4L236.8,157.6L236.7,157.7L236.4,157.9L235.9,158.1L235.9,158.3L236.2,158.3L236.7,158.6L237,158.7L237.4,158.5L238.2,157.7L238.6,157.5L238.9,157.5L239.2,157.5L239.6,157.5L240.3,157.4L240.5,157.5L240.7,157.6L241,157.9L241.2,158.1L241.3,158.4L241.4,159.2L241.7,159.5L241.7,159.6L241.7,159.9L241.7,160.4L241.5,161.4L241.4,161.7L241,162.2L240.6,162.5L239.9,162.7L239.6,162.9L239.3,163.1L239.3,163.2L240.1,162.8L240.9,162.6L241.2,162.4L241.4,162.2L241.6,161.7L241.9,160.3L242.1,159.9L242.4,159.9L242.5,160L242.8,160.8L242.8,161L242.7,161.1L242.2,161.9L242.4,161.8L242.9,161.1L243,160.9L243,160.6L243.2,160.3L243.2,160.4L243.4,161.3L243.4,161.9L243.4,162.1L243.4,162.6L243.4,162.7L243.6,162.2L243.6,161.9L243.7,161.6L243.7,161.4L244.3,160.9L245,160.5L245.4,160.2L245.8,160L246.3,159.8L246.7,159.5L246.8,159L247,158.6L247.1,158.4L247.4,158.1L247.6,158.1L247.8,158.2L248,158.5L248.3,158.9L248.4,159.2L248.4,159.4L248.5,160.2L248.5,160.2L248.7,159.6L248.8,159.4L248.7,159.1L248.7,158.9L248.5,158.4L248.4,158.1L248.4,157.9L248.6,157.8L249,157.8L249,157.7L248.8,157.5L248.8,157.3L249,157L249.2,157L249.4,157L249.4,156.8L249.4,156.7L249.5,156.7L249.9,156.8L250,156.6L250.4,156.6L250.4,156.5L250.1,156.3L249.7,156.2L249.6,156.1L249.5,155.9L249.5,155.6L249.5,155.5L249.6,155.5L249.7,155.6L249.8,155.4L249.9,154.9L250,154.8L250.3,155L250.3,154.9L250.1,154.2L250.1,154L250.5,154L250.7,154.1L251.3,154.6L251.5,154.5L251.4,154.4L251.1,154.1L250.8,153.9L250.5,153.8L250.3,153.6L250.1,153.2L250.1,153L250.1,152.7L250.3,152.2L250.3,152.1L250.5,152L250.7,151.9L250.9,152L251.4,152.3L251.5,152.2L251.2,152L251.1,151.9L251,151.7L251.1,151.4L251.3,150.9L251.4,150.5L251.8,149.3L251.9,149.1L252.1,149L252.1,148.8L252.5,148.8L253.1,149.2L253.3,149.5L253.3,149.8L253,150.3L252.5,150.6L252.3,150.8L252.4,150.9L252.9,150.6L253.4,150.4L253.8,150.4L254.1,151L254.1,151.8L253.9,152.4L254.2,152.1L254.5,151.9L254.7,152.3L254.7,152.7L254.8,153L255.1,153.4L255.4,153.8L255.1,154.2L254.7,154.4L254.8,154.6L255.3,154.8L255.4,155L255.3,155.2L255.4,155.2L255.7,154.8L256,154.9L256.4,155.7L256.1,156.2L255.7,156.4L255.4,156.5L254.9,156.5L254.7,156.5L254.8,156.7L255.3,156.7L255.9,156.6L256.5,156.4L256.7,156.4L256.9,156.4L257,156.5L256.7,156.6L256.7,156.7L256.8,156.8L257,157.3L257,157.4L256.8,157.6L257.1,157.7L257.5,157.6L257.6,157.7L257.9,158.2L258.1,158.8L257.4,159.5L257,159.7L256.5,160.1L256.3,160.4L256,160.8L256.2,160.8L256.8,160.1L257,160L257.2,160L257.3,160.1L257.3,160.3L257.4,160.3L258.2,159.9L258.5,159.8L258.9,159.8L258.9,159.9L258.7,160.8L258.2,161.5L257.5,161.9L257.2,162.2L256.9,162.6L257,162.7L257.7,162.1L258.2,161.9L258.9,161.8L259.2,161.8L259.8,162.8L260.1,162.9L260.4,162.9L260.8,163.2L261,163.5L261,163.7L260.8,163.8L260.7,164L260.9,164.6L260.8,164.9L260.5,165.2L260.2,165.3L259.9,165.4L259.7,165.6L259.6,165.7L259.2,165.6L259.3,165.7L259.5,165.8L259.8,165.9L260.1,165.8L260.5,165.8L261,166L261.2,166.2L261.2,166.3L261.1,166.4L260.9,166.8L260.8,167L260.9,167.1L261.1,167.2L261.3,167.3L261.6,167.2L261.9,167.3L262.8,168.3L262.7,168.8L262.6,169.2L262.6,169.6L262.6,170.1L262.2,170.3L260.5,170L259.6,169.7L259.6,169.5L259.8,169.3L259.6,169.3L259.3,169.4L259.2,169.5L259.5,169.9L260.4,170.2L260.7,170.6L261.2,170.7L261.3,170.7L261.5,171L261.5,171.1L261,171.1L260.7,171.4L260.9,171.5L261.7,171.7L262.2,171.7L262.5,171.9L262.3,172.1L261.6,172.3L261.6,172.6L262.1,172.7L262.5,172.7L262.7,172.7L262.8,173.5L262.9,173.6L262.4,173.7L262.4,173.9L262.7,174L263.2,174.1L263.4,174.3L263.4,174.5L263.5,174.6L263.8,174.6L264.1,174.3L264.3,174.1L264.6,174.2L264.6,174.5L264.9,174.8L265,174.9L265.1,175.4L265.4,174.9L265.6,175L265.8,175L265.7,175.5L265.6,175.8L265.7,176L265.9,176.3L266.2,176.7L266.1,176.9L265.7,177.3L265.5,178L265.4,178.2L265.2,178.6L264.9,178.9L265.1,178.9L265.8,178.2L266.2,178L267,177.9L267.2,177.7L267.6,177.6L267.7,177.8L267.8,178.2L268,178.3L268.3,178.2L268.5,178.3L268.4,178.6L267.6,179.6L267.4,180L267.3,180.2L267.6,179.8L268.6,179L268.7,178.8L268.9,178.4L269.1,178.2L269.6,178.3L269.9,178.5L270,179L270.2,179.5L270.5,180.1L271.4,180.4L271.7,180.5L272.2,180.2L272.3,180L272.7,179.9L273,179.9L273.1,180.5L273.4,180.7L273.7,181L274,181.1L274.5,181.2L274.7,181.4L274.7,181.5L274.5,181.8L274.2,182.2L273.8,182.5L273.2,182.5L272.5,182.7L272.4,182.8L272.2,183L271.8,183.2L271.6,183.3L271.2,184L271,184.2L270.7,184.3L270.3,184.3L270.1,184.3L269.9,184.5L269.8,184.6L269.7,184.7L269.3,184.9L268.4,185.4L267.9,185.4L267.6,185.3L267.4,185.4L267.2,185.5L266.8,185.7L266.6,185.9L266.6,186L266.5,186.4L266.5,186.5L266.4,186.6L266,186.5L265.6,186.3L265.7,186.5L266.3,186.9L266.5,187.1L266.3,187.3L265.9,187.6L265.9,187.8L266,187.9L266,188L265.8,188.2L265.8,188.2L265.8,188.3L266.4,188.1L266.9,187.6L267.2,187.2L267.3,187.1L268,186.9L268.3,186.7L268.9,186.3L269.5,185.8L270.1,185.1L270.9,184.6L271.9,184.2L272.6,184L273.1,184L273.1,184L272.7,183.8L272.4,183.8L271.9,183.9L271.8,183.7L271.8,183.6L272,183.5L272.3,183.3L274.1,183.5L274.7,183.7L275.3,184.9L275.5,185.3L275.5,185.6L275.5,185.8L275.2,186L274.5,186.4L274.4,186.5L274.4,186.6L274.7,186.6L274.8,186.8L274.9,187.2L275.3,186.9L275.9,186.2L276.4,185.9L276.9,185.8L277.4,185.7L277.6,185.7L277.7,186L277.9,186.4L278.2,186.6L278.7,186.6L279.1,187.2L279.3,187.6L279.4,187.9L279.4,188L279.4,188.2L279.6,188.4L279.6,188.5L279.6,188.9L279.3,189.6L279.5,190.2L279.4,190.5L279.4,191L279.6,191.2L279.6,191.4L279.5,191.5L278.5,191.8L278.1,191.8L278,191.9L278.3,192L278.8,192L279.5,192.1L279.8,192.3L279.9,192.5L279.9,192.7L279.7,192.8L279.3,192.8L279,192.7L279,192.8L279.5,193.1L279.7,193.2L279.9,193.4L280,193.7L279.9,193.9L278.9,195L278.1,195.6L277.3,196.2L276,197.3L275.9,197.3L275.7,197.4L275,197.2L274.5,197.2L273.6,197.5L273.4,197.6L272.8,198L272.6,198L272.1,198.1L271.6,198L271.4,198.1L271.1,198.3L271,198.4L271,198.7L269.7,200.1L269.4,200.6L268.7,201.1L268,202L267.4,202.3L267.2,202.8L266.6,203.1L265.5,203.2L265,203.3L264.4,203.1L263.9,203.3L263.2,203.4L262.9,203.4L261.6,203.8L261.2,203.4L261,203.2L260.2,203.2L259.6,203L259.1,203L258.5,202.9L258.2,202.9L257.8,202.9L257.3,202.9L256.9,203.2L255.9,203.1L255.4,202.9L255.1,202.8L254.6,202.9L254.1,203L253.1,202.8L252,203L251,202.9L250.8,202.8L249.3,203.1L248.7,202.9L248.1,203.4L247.8,203.3L247.4,203.3L247.3,203.2L247,203.3L246.9,203.6L246.6,203.6L246.3,204L245.7,204.3L244.8,206.2L244.7,206.9L244.3,207.4L244.1,207.4L243.8,207.5L242.3,207.8L241.6,208.1L241.8,208.3L241.5,208.5L241.2,208.5L240.8,208.7L240.5,209L240.4,209.3L239.6,209.8L238.7,211L238.3,211.8L237.7,212.5L237.3,212.7L237.1,212.7L236.8,212.7L236.3,212.4L236,212.3L235.2,211.9L233.2,211.5L233.5,211.7L233.8,211.9L234.3,212L234.8,212L235.9,212.5L236.4,212.7L236.8,212.8L237,213.2L236.8,213.8L236.6,214.4L236.4,214.8L235.4,215.9L235,216.2L234.2,217.5L233.4,218.1L232.9,218.5L232.5,219L231.4,219.5L231,219.6L230.6,219.5L230.2,219.9L229.6,220.1L229.5,220.4L228.2,221.3L227.7,221.4L227.3,221.6L227.1,222L226.8,222.3L226.7,222.4L226.3,223L225.8,223.7L225,223.8L224.8,224L224.5,224.4L224,224.7L223.2,224.6L223.4,224.8L224.2,225L224.2,225.4L223.9,225.5L223.1,226L222,226.9L221.8,226.9L221.5,226.9L221.1,227L220.6,227.3L219.9,227.9L218.7,229L218.6,229.2L218.4,229.4L218,229.6L217.6,229.9L217.5,230.1L217.3,230.3L216.7,230.9L216.3,231.5L215.9,232.1L215.6,232.7L214.8,232.7L214.2,232.7L213.2,232.7L212.3,232.7L211.3,232.7L210.6,232.7L209.8,232.7L209.4,232.9L208.9,233.2L208.4,233.4L208.7,234L208.7,234.2L208.7,234.9L208.8,235L208.8,235.1L208.8,235.3L208.9,235.4L209,235.4L209.1,235.5L209.2,235.6L209.2,235.7L209.1,235.9L208.8,236.2L208.4,236.4L207.6,236.8L206.6,237.3L205.8,237.7L205.1,238L203.8,238.3L202.7,238.5L202,238.6L201.3,239.1L200.5,239.5L199.9,240L199.1,240.4L198.4,240.8L197.7,240.8L197.1,240.5L196.6,240.2L196.3,239.6L196.3,238.9L196.4,238.5L196.5,238.3L196.7,238.1L197.1,237.9L197.5,237.5L197.8,237.2L198.1,236.9L198.3,236.4L198.5,235.3L198.5,235.1L198.8,234.3L199.2,233.4L199.4,233L199.2,231.9L199,231.1L198.9,230.3L198.8,229.5L198.7,228.7L198.5,228L198.4,227.3L198.3,226.5L198.2,226L198.1,225.4L197.5,225L197,224.6L196.2,224.1L195.5,223.7L194.9,223.3L195.3,222.6L195.3,222.4L195.1,222.3L194.9,222L194.7,222L194.4,222.1L194,222.2L193.8,222.2L193.6,221.9L193.4,221.5L193.4,221.3L193.3,220.9L193.2,220.6L193.3,220.4L193.3,220.3L193.3,220.2L193.2,220.1L193.1,220.1L192.7,220.3L192.5,220.3L192.3,220.3L192.2,220.5L192,220.5L191.7,220.1L191.3,219.7L191.2,219.2L191,218.6L190.4,218.2L189.8,217.8L189.2,217.5L188.6,217.1L188.1,216.8L187.5,216.4L186.9,216.1L186.3,215.7L186.1,215.6L185.5,215.3L184.8,214.8L183.9,214.3L183,213.8L182.3,213.3L181.7,213L181.5,212.9L181,212.6L180.3,212.2L179.6,212.4L178.8,212.9L178.3,213.2L177.9,213.4L177.6,213.5L177.1,213.6L176.8,213.6L176.1,213.5L175.7,213.6L175.4,213.5L175.3,213.3L175.1,213.1L174.4,213.2L173.6,213.1L173.1,213.1L173,213L172.8,212.7L172.6,212.6L172.2,212.7L171.7,213.1L171.2,213.3L170.8,213.3L170.4,213.1L169.7,212.7L169.3,212.2L168.8,212.1L168.4,212.1L168.2,212.3L168,212.3L167.9,211.9L167.8,211.6L167.5,211.5L167.1,211.2L166.8,211L166.3,210.8L166.1,210.8L165.8,210.7L165.5,210.7L165.1,210.8L164.9,211L164.5,211.1L164.1,211.2L163.8,211.1L163.7,210.8L163,210.6L162,210.4L161.3,210.2L161.2,210.1L161.1,209.9L161,209.6L161,209.6L160.8,209L160.7,208.5L160.6,207.8L160.6,207.6L160.6,207.5L160.4,207.4L159.7,207.3L159.7,208.1L159.7,209L159,209L157.7,209L156.4,209L155.1,209L153.8,209L152.5,209L151.2,209L149.9,209L148.6,209L147.3,209L146,209L144.7,209L143.4,209L142.1,209L140.8,209L139.5,209L138.2,209L136.9,209L135.6,209L134.3,209L133,209L131.7,209L130.4,209L129.1,209L127.8,209L126.5,209L125.2,209L123.9,209L122.6,209L121.3,209L120,209L118.7,209L117.4,209L116.1,209L114.8,209L113.5,209L112.2,209L110.9,209L109.6,209L108.3,209L107,209L105.7,209L104.4,209L103.1,209L101.8,209L100.5,209L99.2,209L97.9,209L96.6,209L95.3,209L94,209L92.7,209L91.4,209L90.1,209L88.8,209L87.5,209L86.2,209L84.9,209L83.6,209L82.3,209L81,209L79.7,209L78.4,209L77.1,209L75.8,209L75.5,209L75.4,208.9L75.1,208.7L75,208.7L74.8,208.7L74.8,208.8L74.7,209L74.7,209.1L74.6,209.1L74.6,209L74.5,208.7L74.5,208.6L74.6,208.5L74.6,208.4L74.4,208.4L74.3,208.4L74.3,208.3L74.3,208L74.1,207.8L74.3,207.7L74.6,207.7L75,207.6L75.1,207.5L75.2,207.1L75,207.5L74.8,207.5L74.3,207.4L74,207.4L74,207.3L74,207.3L74,207.2L74.1,206.9L74.2,206.2L74.3,206L74.3,205.9L74.3,205.8L73.9,206.3L73.8,206.5L73.9,206.6L73.8,206.9L73.6,206.9L73.5,206.9L73.3,207.1L73.2,207.2L72.2,206.7L72.1,206.7L72,206.5L71.7,206.2L71.6,205.9L71.7,205.7L71.8,205.6L71.9,205.6L72,205.6L72.3,206L72.4,206.3L72.6,206.2L73,205.9L73.1,205.8L72.7,205.9L72.5,205.9L72.4,205.8L72.2,205.6L72.1,205.3L72.1,204.4L72.1,204.2L72.3,204.1L72.5,203.9L72.4,203.8L72.3,203.6L72.2,203.5L72,203.4L72,203.4L72.2,203.8L72.2,204L71.9,204.4L71.9,204.5L71.9,204.8L71.9,204.9L71.6,205L71.4,205.3L70.9,205.4L70.5,205.4L70.3,205.2L69.7,204.5L69.4,204.2L69.4,204L69,203.1L69,202.9L68.8,202.6L68.6,202.6L68.6,202.3L68.9,201.8L69.2,201.3L69.2,201.1L69.2,200.9L69.1,200.4L69.2,200.1L69,200.4L68.9,200.7L69,200.9L68.9,201.1L68.8,201.5L68.6,201.9L68.1,202L67.3,201.9L67.2,201.9L67.2,201.8L67.1,201.2L67.1,201.3L67,201.6L66.9,202L66.8,202.1L66.6,202.1L66.5,202L66.4,201.9L66.2,201.9L65.8,202L65.6,201.9L65.4,201.9L65,201.8L64.5,201.8L64.3,201.7L64.4,201.5L64.4,201.4L65,201.3L65.5,201.1L66,201L66,201L65.8,200.9L64.6,201.1L64.2,201.1L64.1,201.1L64.1,200.9L64.3,200.7L64.5,200.5L64.6,200.3L64.4,200.2L64.2,200.3L64.1,200.2L64.2,199.7L64.1,199.3L64,199.7L63.8,199.9L62.8,200L62.6,200.2L62.5,200.2L61.8,199.9L61.6,199.8L61.3,199.6L60.9,199.1L60.5,198.8L60.5,198.2L60.6,197.9L60.7,197.4L61.4,196.6L61.6,196.4L61.8,196.3L62.8,196.3L63.5,196.1L63.6,196.1L62.6,196L61.6,196.1L61.3,196.2L60.9,196.8L60.8,197L60.7,197.2L60.6,197.2L60.5,197.1L60.4,197.1L60.4,196.9L60.2,196.6L60.1,196.2L60,195.7L60,195.5L60.1,195.2L60.4,194.7L60.1,194.7L60.1,194.2L60.2,193.7L60.6,193.4L61,193.2L61.3,192.9L61.9,192.7L62.1,193.1L62.6,193.2L62.8,193.4L63,193.7L63.2,194L63.5,194.3L63.5,194.3L63.4,194.1L63,193.5L63,193.3L62.8,193.1L62.3,192.8L62.2,192.7L62.1,192.4L62,192.1L62.1,192L62.7,191.4L62.8,191L62.8,190.9L62.8,190.7L62.6,190.4L62.6,190.4L62.6,190.9L62.6,191L62.6,191.2L62.5,191.4L62.3,191.5L61.1,192.8L60.9,192.9L60.5,193L60.2,193.2L60.1,193.4L59.9,193.9L59.6,194.9L59.3,195.7L59,194.6L58.5,193.8L59.5,193L59.5,192.9L59.4,192.5L59.5,192.4L59.5,192.2L59.8,191.9L59.8,191.9L59.5,192L59.1,192.6L58.9,192.8L58.8,192.8L58.8,192.5L59,191.5L59.2,190.6L59.3,190.3L59.5,190.1L59.3,190.1L58.5,190.5L58.2,190.3L58,188.9L57.6,188.4L57,188L56.3,187.8L56.2,187.4L56,186.9L56.2,186.4L56.5,186.1L56.8,186L57,186L57,186.2L56.9,186.8L57.1,186.8L58,187.5L58.2,187.5L58.5,187.3L58.7,187.3L59.2,187.5L59.4,187.7L59.8,188.2L59.8,187.9L59.3,187.4L59,187.2L58.5,187.1L58.2,187.2L58.1,187.2L57.8,187L57.6,186.8L57.3,186.3L57.3,186L57.3,185.8L57.3,185.6L57.4,185.5L57.6,185.4L57.9,185.3L58,185.2L57.6,184.9L57.5,184.9L56.9,185.4L56.8,185.4L56.7,185.3L56.7,185.3L56.5,185.5L56.4,185.6L55.9,186.4L55.9,186.7L55.8,187.2L55.8,187.5L55.7,187.6L55.2,187.9L54.9,188.3L54.5,187.9L54.1,187.5L53.8,186.8L53.3,186.7L52.7,186.3L52.5,185.9L52.8,185.2L53.3,184.6L53.3,184L53.4,183.8L54.2,183.6L54.7,183.3L54.1,183.3L53.8,183.3L53.3,183.6L52.6,183.1L52.3,182.7L52.2,182.3L52.3,182L52.3,181.7L52.4,181.3L52.4,181.1L52.6,180.8L52.9,180.7L53.1,180.2L53.2,179.8L53.7,178.8L53.9,178.4L54.2,177.8L54.9,176.8L54.6,176.8L54.5,176.9L54.4,176.9L54.3,176.8L54.2,176.6L54.1,176.3L54.1,176.4L54.1,177L54,177.6L53.9,177.9L53.6,178.7L53.4,178.9L53.2,178.7L53.3,178.2L53.5,177.8L53.6,177.3L53.4,176.7L53.3,176.2L53.2,175.9L53.2,175.5L53.3,175.2L53.3,174.9L53.5,174.5ZM100.7,53.1L100.9,53.2L101.2,53.1L101.7,52.8L102.4,52.5L103.2,52.3L103.4,52.6L103.6,52.5L103.8,52.1L103.8,51.8L103.8,51.5L103.8,50.8L104,50.3L104.4,49.4L104.7,49.1L105.1,49L106.1,49.1L107,49.6L108.2,50.1L110,51.3L110.6,51.9L110.7,52.3L110.3,53.3L109.6,54.7L108.9,55.2L108.7,55.5L109.1,55.7L109.4,56.1L109.8,55.6L110,55L110.5,54.5L110.6,54.5L110.6,54.6L110.6,54.8L110.5,55.1L110.6,55.3L110.6,55.4L110.9,55.5L111,55.4L111.5,54.7L112.1,53.7L112.9,53L113.1,52.7L113.8,52.4L113.8,52.2L113.9,51.4L113.6,51.1L112.8,50.4L112.4,49.5L112.5,48.8L112.9,48.9L114.2,49L114.4,49.1L115.7,50.2L116.1,50.9L116.4,51.2L117.1,51.7L117.4,52.1L117.6,52.3L117.6,52.5L117.6,52.7L117.5,53.1L117.7,53.2L118.1,53.4L118.3,53.5L118.4,54.1L118.6,54.9L118.8,55.9L119.1,57.7L119.7,60L119.9,61.5L120,61.8L120.1,61.9L120.5,62.2L120.8,62.6L121.1,62.7L121.2,62.7L121.3,62.3L121.5,61.8L122.5,60.8L122.6,60.7L122.5,60.4L122.4,60.3L122.5,60.2L122.7,60.1L122,58.8L121.5,57.6L121.2,56L121.1,55.6L121.1,54.6L121,54.4L120.8,54.1L120.8,53.8L120.8,53.5L120.8,53.2L120.6,52.5L119.8,47.8L119.8,47.3L119.9,47L120.2,46.8L120.6,46.8L120.8,46.6L120.6,46.5L120.3,46L120.3,45.7L120.5,45.2L121.4,45.5L122.1,45.9L123.3,46.9L123.4,46.8L123.5,46.3L123.8,46L124.1,46.1L125.2,46.9L126.4,48.2L127.2,48.8L127.8,49.7L128.2,50.5L128.4,51.1L128.4,51.3L128.4,51.6L128.4,51.9L128.6,52.3L128.7,52.7L128.8,53.4L128.9,54.4L129,54.9L130.1,59.2L130.3,60L130.4,60.4L131.2,62L131.6,63.2L131.6,64L131.7,64.2L131.7,64.6L131.7,65.1L131.6,65.5L131.4,65.8L131.3,66.3L131,67.4L131,67.7L131.2,68.1L132.2,69.3L132.9,70.9L133.2,71.1L134,72.1L134.9,72.6L135.2,72.9L135.5,73.2L135.6,73.2L135.7,73.1L135.8,73L135.8,72.9L135.5,72.2L135.5,71.9L135.6,71.9L136.6,73.1L137,73.6L137.7,74.1L138.9,75.2L139,75.3L139.7,75.2L139.8,75.3L139.9,75.4L140,75.6L140,76.3L140.2,76.6L141.2,76.4L141.4,76.5L141.6,76.6L141.8,76.8L142,77.5L142.2,78.9L142.2,79.5L142.1,80.3L141.9,80.6L141.8,80.7L141.2,80.6L140.9,80.4L140.7,80L140.5,79.3L140.4,79.1L140.3,79.3L140.2,80L140.1,80.2L139.9,80.5L139.6,80.4L139.3,80.1L138.5,79.3L138.3,79.2L138.1,79.2L137.8,79.5L137.2,79.9L137,80.3L137.1,80.5L137.2,80.8L137.2,81.1L137.2,81.4L137.1,81.5L136.9,81.7L136.6,81.8L136,81.6L135.6,81.4L134.9,80.7L134.7,80.6L134.5,80.7L134.4,80.9L134.5,81.2L134.9,81.6L135.4,82.2L135.5,82.3L135.6,82.3L135.6,82.4L135.7,82.8L135.7,83.3L135.4,84.5L135.4,84.7L135.5,84.7L136.1,83.6L136.5,83.2L137.2,82.8L137.5,82.4L138.4,82.3L138.7,82.5L138.9,82.8L138.9,83L138.7,83.4L138.6,83.6L138.6,83.9L138.6,84.1L138.7,84.3L138.9,84.5L139.1,84.4L139.2,84.4L139.4,84.6L139.5,84.9L139.5,85.4L139.3,86.3L138.9,86.6L137.7,87.1L137.4,87.4L136.6,87.6L136.3,87.9L136.1,88L135.3,87.9L134.4,88.1L133.3,87.8L132.5,87.6L131.7,87.1L131.3,87.2L131,87.6L129.4,87.2L129.2,86.9L129.2,86.7L129.6,86L129.7,85.9L129.6,85.8L128.9,85.7L128.1,85.4L127.2,85.2L126.6,85.2L126.2,85.1L125.8,84.8L125.6,84.6L125.6,84.3L125.6,84.1L125.6,83.6L125.5,83.2L125.4,82.9L125,82.7L124.6,82.7L124.3,83L124,83.5L123.5,85L123.2,85.2L122.5,86.2L122.3,86.5L121,86.9L119.4,87L118.9,87.4L118.3,87.9L117.7,88.5L116.1,89.2L114.6,89.6L113,89.8L111.9,90L111.5,89.9L111,90L110.5,90.3L109.8,90.4L107.4,90.6L106.3,90.8L105.7,90.9L105.3,90.9L104.9,90.7L104.6,90.4L104.3,89.9L103.6,88.5L103.4,87.9L103.5,86.8L103.5,86.2L103.2,84.9L103.2,84.8L102.1,84.3L101.3,84.2L100.1,84.2L98.7,84.2L97.3,84.1L96.6,83.9L95.9,83.6L94.6,82.8L94.5,82.8L94.5,82.5L94.3,82.1L94,81.5L93.2,80.3L92.8,79.5L92.8,79.3L92.7,78.8L92.6,77.9L92.5,77.3L92.6,77L92.7,76.9L94.5,76.2L97.6,75.5L100.5,75L101.8,75L102.5,75.3L103.3,75.4L104.7,75.4L106.4,75.8L106.8,75.7L107.6,75.5L107.8,75.3L109,75.3L109.3,75.2L109.5,75L109.2,74.6L108,73.8L104.9,72.2L104.1,71.9L103,71.5L102.4,71.5L101.6,71.7L101.3,71.7L100.5,72L99.7,72.2L98.3,72.4L96.2,72.5L95.9,72.5L95.5,72.2L95.2,72.2L93.2,72.3L91.3,72.1L89.3,69.7L88.9,69L89,68.7L89.3,68.3L90.3,67.4L90.7,67.2L92.2,66.7L93.7,66L94.9,65.5L95.5,65.3L96.1,65.2L96.5,65.1L96.4,64.9L96,64.7L96,64.4L96.2,64.2L97,64.1L97.8,64.2L98.2,64.2L98.3,64L98.2,63.8L97.4,63.5L93.8,64.5L92.1,64.5L90.9,65L90.3,65L89.5,64.5L89.4,64.4L89.4,64.2L89.6,63.7L90.5,63.3L90.9,62.4L90.4,62.4L89,62.6L88.3,62.5L87.4,62.1L87.2,61.7L87.1,61.4L87.1,61L87.1,59.9L87.2,59.3L87.2,59.2L88.3,57.4L89,57L89.4,56.4L89.4,56.2L89.3,56L88.9,55.4L88.7,55.1L88.6,54.8L88.7,54.3L88.9,53.7L89.7,52.7L91.5,50.7L92.4,49.8L93.2,49.3L94.4,48.3L97.5,46.7L100.3,45L101.4,45.4L101.6,45.8L101.8,46.1L101.9,46.5L102,47L102.1,48.2L102.1,48.8L102.1,49.4L102,49.9L101.9,50.4L101.7,50.9L101.4,51.6L100.8,52.8ZM237.9,-107.5L240.4,-107L241.2,-107.2L242.1,-106.1L242.7,-106L243.6,-106.2L244.3,-105.9L246.7,-105.7L247.2,-105.2L247.2,-104.8L246.7,-103.6L246,-102.6L241.3,-99.1L241,-98.6L241.9,-98.4L243.2,-98.6L244.3,-98.9L245.5,-100.1L245.9,-100.2L246.7,-100.7L248.2,-102.3L249.4,-103.2L249.9,-102.8L250.4,-102.2L250.7,-102.1L250.8,-102.6L251.1,-103.9L251.2,-104.3L251.6,-104.6L251.9,-104.6L252.3,-104L252.7,-102.6L253.1,-101.6L253.3,-101.6L254.2,-102.7L254.7,-102.8L255.7,-102.5L256.2,-101.9L256.2,-101.4L256,-100.9L255.8,-100.4L255.7,-100L255.9,-99.6L256.5,-98.6L257.4,-96.5L257.4,-95.7L256.9,-94.2L256.9,-93.8L259.3,-95.4L261.6,-94.7L262.3,-94.2L262.6,-93.6L262.8,-92.7L263.1,-91.3L262.9,-89.9L261.9,-87.8L260.8,-86.1L260.2,-84.7L259.2,-83.8L255.9,-80.3L254.2,-79.2L253.3,-78.1L252.9,-77.9L250.9,-78.2L250.4,-77.6L250.1,-76.5L249.4,-76.1L248.5,-75.7L246.6,-75.5L246.2,-74.4L246.1,-73.6L245.9,-73L245.7,-72.8L240.3,-68.8L240.2,-68.2L240.8,-67.9L241.5,-68.2L249.3,-72.9L250.8,-73.3L252.2,-72.9L252.1,-71.8L250.1,-68.7L247.6,-65.9L246.3,-63.8L243.1,-60.3L240.5,-56.9L239.5,-55.2L238.2,-52.1L237.7,-51.4L237.2,-51.1L236.5,-51.3L235.9,-51.7L235.1,-52.8L234.4,-54.1L234.2,-54.3L234.3,-53.7L235.7,-49.5L235.5,-48.7L233,-47.9L231.9,-47.2L231.3,-47L230.9,-47.1L230.5,-47L230.1,-46.7L230.1,-46.4L230.4,-46.1L231.4,-45.8L233.7,-46.7L234,-46.7L234.6,-46.2L234.6,-45.8L234,-44.5L232.2,-43L232.4,-42.9L233,-42.4L233,-41.9L232.4,-40.8L232.1,-40.4L230.4,-39.4L229.6,-39.2L228.9,-39.3L225.8,-41.6L224.7,-41.9L223.7,-42.5L223,-42.4L222.1,-41.7L222.5,-41.4L224,-40.7L225.3,-40.6L225.8,-40.3L226,-39.9L226.5,-38.4L226.6,-37.6L226.5,-36.9L226.3,-36.4L226.1,-36.1L225.8,-35.9L224.6,-36L224.1,-35.8L223.6,-35.4L222.9,-35.2L221.7,-35.3L220.3,-34.7L219.6,-34.6L218.7,-34.9L217.9,-35.6L216.9,-35.9L215.3,-36.2L215.5,-35.8L216,-35.6L217.2,-34.6L217.7,-33.1L218.2,-32.9L219.3,-31.7L220,-31.5L220.8,-31.1L221.9,-31.6L222.7,-31.5L222.5,-28.7L222.2,-28.4L220.4,-28.4L219.5,-28.8L219.2,-29.2L218.3,-29.7L217.6,-29.4L216.9,-29.5L216.4,-29.2L215.7,-29.2L213.8,-28.7L212.8,-28.7L212,-29L211.2,-29.2L210.2,-29L210.3,-28.7L210.7,-28.6L211.3,-28.1L211.9,-27.3L212.3,-26.9L212.9,-27.1L213.5,-27.5L215.5,-28.1L216.5,-28.2L217.3,-27.9L217.8,-27.6L218.2,-27.2L218.7,-26.1L219.9,-25.9L220.8,-25.6L222.3,-24L222.7,-23.9L222.8,-23.5L222.5,-22.5L222.5,-21.9L221.5,-20.7L219.9,-20.4L218.2,-20.5L216.9,-20.4L216.8,-20.2L217.6,-19.9L219.6,-18.6L220.4,-17.8L220.5,-17.4L219.4,-15.8L218.5,-12.7L218.2,-12.4L217.8,-12.4L217,-12.4L215.9,-11.6L215.1,-11.5L213.6,-11.8L211.9,-11.7L211.8,-11.3L211.7,-10.3L211.7,-8.9L211.8,-7L211.7,-5.6L211.5,-4.8L211.1,-4.1L210.5,-3.5L209.8,-3.1L209.3,-3L208.5,-3L206.2,-2.6L205,-2.6L204.1,-2.8L203.2,-3.4L201.7,-5.1L201.2,-5.5L200.8,-5.7L200.8,-5.3L201.3,-4.4L201.7,-3.7L202,-3.5L201.9,-3.2L201.2,-2.7L200.5,-2.5L199.6,-2.5L199.6,-2.3L199.9,-1.8L200.3,-1.4L200.5,-1.2L201.2,-1.4L202,-2L202.5,-2.2L203.4,-2L203.8,-1.8L205,-0.5L205.2,-0.5L206.1,-1.1L207.4,-1.1L207.9,-0.6L208.1,0.4L208.1,1.2L208,1.8L208.2,2.4L209,3L209.6,3.1L210,2.8L210.6,2L210.8,1.8L211.1,1.8L211.5,2.4L212,3.5L212,4.8L211.6,6.3L211.1,7.3L209.1,8.8L208.5,9.4L208.1,10.1L207.4,10.7L206,11.4L205.3,11.5L203.8,12.4L203.4,12.4L202.9,12.3L202.8,11.9L203,11.2L203.1,10.5L203.3,9.9L203.3,9.4L202.9,8.6L202.6,8.2L202.3,8L201.7,8.1L201.4,8.4L201,8.4L200.6,8.3L200.3,7.9L199.7,6.5L199.4,6.3L199.1,6.4L198.8,6.2L198.6,5.7L198.2,5.3L198.3,5.6L198.7,6.4L199,7.2L199.1,8L199.1,8.6L195.5,9L194,8.8L193.7,8.2L193,5.9L192.8,10.1L190.2,10.7L189.6,10.6L188.6,10.2L187.2,9L186.7,8.3L186.5,7.6L186.3,7.2L186.2,7.1L185.9,8L185.5,9.8L184.6,9.3L183.5,8.9L183.1,7.1L183,9.7L181.2,9.3L180.3,9.4L180,7.2L180,4.6L179.6,6.2L179.8,7.6L179.8,9.2L179,8.7L177.3,8.5L176.7,8.3L176.8,6.1L176.9,3.9L179.1,1.6L179.8,0.6L180.3,0.1L181,-0.1L182,-0.3L182.7,-0.2L183.4,-0.3L184.3,-0.7L185,-0.8L185.1,-1L184.9,-1.2L184.2,-2.7L184,-3L183.7,-3.2L183.2,-3.2L182.7,-3.9L182.5,-4.5L182.2,-5.3L181.7,-6.8L181.2,-8.5L181.5,-9.4L182.2,-10.2L183,-10.7L183.8,-11L184.5,-11L185.3,-10.6L186.4,-9.8L187.1,-8.9L187.9,-7L188.4,-5.5L188.8,-4.8L190.8,-3.6L191.4,-3.4L192.2,-3.5L193.8,-3.8L194.5,-4.2L194.9,-4.5L195.1,-5.1L195.3,-5.5L196,-6.5L197,-8.7L197.6,-10.4L197.8,-10.9L197.9,-11.6L198,-12.4L197.6,-12L195.8,-7.8L195.4,-7.1L194.4,-5.8L193.9,-5.6L193.2,-5.7L192.2,-6.2L191.1,-5.3L190.4,-5.6L189.8,-6.2L189.8,-9.1L189,-11.5L189.8,-12.7L190.5,-13.4L191.8,-15.4L192.1,-15.5L193,-15.1L192.5,-15.6L192,-16.3L190.9,-16.1L191.3,-20.4L190.6,-17.2L189.8,-15.5L189.4,-14.6L188.9,-14.2L186.9,-13.7L187.4,-15.3L187.8,-17.6L187.4,-16.8L186.3,-15.5L185.5,-14.8L184.8,-14.4L183.5,-14.5L182.9,-15.1L183.1,-16.8L183.1,-18.8L183.4,-19.7L184,-20.9L184.7,-22.5L185.1,-24.3L186.9,-25L188.5,-25.3L189.9,-26.3L190.6,-26.4L191.3,-26L194,-25.3L195.1,-24.7L195.5,-24.3L195.9,-24.2L196.3,-24.8L196.8,-25.4L198.4,-25.3L198.9,-25.4L199.3,-25.7L199.8,-26.2L200.4,-27L200.5,-27.5L200.1,-27.4L199.7,-27.2L199.1,-26.6L198.4,-26.3L197.8,-26.4L196.6,-26.9L194.4,-27L193.2,-27.2L192.7,-27.4L192.4,-27.8L192.2,-28.3L192,-29L192.1,-29.5L192.5,-29.7L192.9,-29.8L193.5,-29.4L194.2,-28.8L195,-28.7L194.7,-29.3L193.7,-30.4L193.1,-31.5L192.5,-32.7L192.1,-33.9L191.1,-35.9L190.4,-37.9L189.8,-38.8L189.2,-39.2L187.5,-39.7L187.1,-40.1L186.3,-41.9L186.1,-44.9L185.7,-46.8L186.1,-49.1L186.7,-50.2L190.1,-49.4L191.6,-49.5L193.5,-49.2L194.5,-48.6L195.7,-47.2L196.7,-45.5L197.7,-44.4L198.6,-43L199.6,-40.8L200.2,-39.8L200.7,-39.2L201.4,-38.6L202.7,-37.9L203.8,-37.7L204.4,-37.8L205,-38.3L205.5,-38.9L205,-39L203.7,-38.9L202.8,-39.3L202.3,-40L201.7,-40.9L200.9,-42.6L200.2,-43.8L198.8,-45.7L197.7,-47.7L196.9,-49.5L196.8,-50.3L197.4,-50.9L198.1,-51.3L202.9,-52.6L205.7,-54.1L206.9,-55.9L207,-56.3L210.8,-58.9L213.5,-59.8L214.5,-60L215.4,-60.4L215.5,-60.7L214.7,-61L213.8,-61.2L212,-61.2L210.3,-61.5L209.8,-62.1L209.9,-63.1L210,-63.9L210.6,-65.3L211.1,-66.3L213.4,-69.4L214.9,-70.7L215.4,-71.6L212.1,-69.6L210.9,-68.2L209.7,-66L209.1,-65.4L208.7,-65.5L208.3,-65.3L208,-64.8L207.7,-63.8L207.5,-62.3L207.3,-61.3L207.1,-60.7L206.6,-60L205.5,-58.5L202.8,-56.5L201.9,-55.9L201.1,-55.8L198.7,-54.7L197.9,-54.6L197.1,-55L197.4,-56L198.7,-57.8L199.1,-58.7L198.3,-58.5L197.4,-58L195.5,-57.6L194.8,-56.8L194,-55.4L193.5,-54.6L193,-54.3L192.4,-54.1L190.2,-54L189.7,-54L188.4,-55.1L187.3,-54.7L186.8,-54.8L186,-55.5L185.7,-56L185.8,-56.6L186.2,-57.8L186.8,-59L188.7,-61.6L189.9,-62.8L191.6,-63.9L195.7,-65.1L195.9,-66L191.8,-65L188.3,-63.7L187.7,-63.3L186.9,-62.1L184.3,-57.8L183.5,-56.7L182.4,-56.5L181.5,-56.8L180.8,-57.4L179.6,-58.6L178.7,-59.3L178.3,-59.7L178,-60.2L177.8,-60.8L177.6,-61.4L177.9,-61.9L180.2,-63L183.4,-62.8L184.8,-63.1L186.1,-63.7L188.2,-65.5L190.4,-67.9L190.8,-68.7L190,-68.9L189.4,-68.7L188,-67.8L185.7,-65.4L183.7,-64.6L178.8,-64.2L177.2,-63.5L176.5,-63.7L176,-64.3L175.5,-65.5L175.6,-66.4L176.7,-67.5L177.7,-67.8L177.8,-68L176.5,-69L176.4,-69.6L177.2,-70.8L178.8,-72.5L179.6,-73.1L181.1,-73.4L182.7,-73.3L182.7,-73.6L181.2,-74.3L180,-74.4L178.5,-73.9L174.5,-71L174.1,-71.1L173.6,-71.6L173.7,-72.3L175.9,-75.4L175.9,-75.9L174.4,-75.8L173.9,-75.9L173.5,-76.3L172.9,-76L172,-75L171.5,-74.6L171.1,-74.7L170.3,-75.9L170.4,-76.9L171.1,-78.2L171.7,-79.1L172.5,-79.9L173.9,-81L174.9,-81.4L176.5,-81.4L177.3,-81.9L178,-82.7L178.8,-84.1L179.8,-85L181.3,-85.8L182.6,-85.6L183.3,-84.9L183.9,-83.7L184.5,-82.8L184.5,-83.5L185,-84.4L185.7,-84.8L186.4,-84.7L187.1,-84.2L188,-83.2L188.7,-82.7L189,-82.7L189.4,-83.3L190.5,-83.3L190.5,-83.5L190.1,-84.2L189.7,-84.7L185.8,-87.8L185.7,-88.5L187,-89.2L187.8,-90L188.2,-90.2L189.2,-91.9L189.8,-92.8L190.9,-93.8L191.4,-93.5L192,-92.6L192.6,-92.1L194.2,-91.5L194.9,-91L196.2,-87.8L196.7,-86.8L197.4,-85.8L197.8,-85.4L198.7,-85.1L198.8,-85.7L197.8,-87.2L197.5,-88L197.6,-88.8L197.8,-89.1L198.1,-89.2L198.9,-88.5L201,-86.3L204.2,-83.8L205.4,-83.2L206.2,-82.3L206.8,-81.2L207.5,-80.5L207.6,-80.5L207,-82.2L205.5,-84.3L201.4,-87.9L199.8,-89.9L199,-91.2L198.4,-92.5L198.4,-93.3L199,-94.2L199.7,-94.8L200.6,-95.1L200.8,-95.4L199.9,-96.5L199.4,-97.4L199.4,-98L200.4,-98.5L201.1,-98.4L202.2,-97.2L203.2,-96.7L203.4,-97L202.4,-100.1L202.3,-100.8L202.4,-101.2L202.8,-101.6L203.9,-101.4L205.6,-99.9L208.8,-99.1L209.7,-99.2L209.6,-99.6L208.3,-100.5L207,-101.8L206.4,-102.5L206,-103.6L205.4,-104.5L205.4,-104.8L206.2,-105.5L208.4,-105.4L210.4,-104.4L212.1,-104.8L213.1,-104.5L213.6,-104.2L214.3,-103L216.8,-99L217,-98.4L217.3,-97.5L217.6,-96.1L218,-95.8L218.8,-96.7L219.4,-97.5L219.2,-98.4L217.8,-100.3L217.5,-101.1L216.8,-102.5L215.3,-105.1L214.9,-106.3L214.6,-107.3L218.8,-108.3L222.9,-107.4L223.6,-106.8L224,-106L224.4,-104.7L225.1,-103.4L226.4,-101.4L228.2,-100.2L227.9,-101.1L226.5,-103.2L225.9,-104.7L225.9,-105.7L226,-106.5L226.2,-107L227.8,-109.1L230,-109.7L230.3,-109.6L232.1,-106.4L232.9,-105.1L233.5,-104.6L233.5,-104.8L232.7,-106.3L232.1,-107.1L232,-107.6L233,-109.1L233.7,-109.5L236.4,-110L236.7,-109.8L237,-109.4L237.7,-107.7ZM245.1,226.2L245,226.1L244.8,226.1L244.7,226L244.7,226.1L244.6,226.2L244.5,226.2L244.4,226.1L244.3,226L244.1,225.8L244,225.7L244.1,225.6L244.2,225.4L244.2,225.3L244.1,225.1L244,225L244,224.8L244,224.7L244.1,224.7L244.2,224.6L244.2,224.4L244.2,224.3L244,224.2L243.9,224.2L243.7,224.2L243.5,224.1L243.4,224L243.3,223.9L243.2,223.9L243.1,223.9L243,223.7L243,223.5L243.1,223.4L243.1,223.3L243.1,223.2L243.1,223.2L243.1,223.1L243.1,223L243.2,222.9L243.1,222.8L243.1,222.4L243.1,221.6L243.1,221.1L243.1,220.3L243.1,219.8L243,219.1L243,218.4L243,217.7L242.6,217.4L242.1,216.9L241.7,216.6L241.5,216.5L241.3,216.6L241.3,216.7L241,216.8L240.4,217L239.9,217.2L239.7,217.2L239.6,217.2L239.4,217.1L239.2,216.9L239.2,216.6L239.2,216.2L238.9,216.1L238.7,216L238.5,216.3L238.3,216.5L238,217L237.5,217.8L237.2,218.1L236.7,218.8L236.3,219.4L236.2,220L236.1,220.6L235.8,221L235.6,221.4L235.5,221.9L235.4,222.3L235.4,222.6L235.5,222.8L235.4,223L235.3,223.1L235.1,223.4L235.1,223.7L234.9,223.8L234.5,224.1L234.2,224.5L234.2,224.7L234.2,224.9L234.2,225L234.2,225.1L234,225.1L233.9,225.1L233.8,225.3L233.8,225.5L233.7,225.7L233.6,225.8L233.5,225.6L233.4,225.5L233.3,225.4L233.1,225.6L232.9,225.8L232.7,225.8L232.3,225.6L232,226L231.7,226.9L230.5,226.9L229.2,226.9L227.9,226.9L226.6,226.9L225.4,226.9L224.1,226.9L222.8,226.9L222.1,226.9L222,226.9L222.4,226.7L223.3,226.1L224,225.8L224.9,225.2L225.5,225.1L225.6,224.9L225.7,224.4L225.8,224.2L226.1,223.6L226.4,223.1L226.7,222.5L227.2,222.1L228,221.7L228.7,221L229.1,220.8L229.5,220.6L229.7,220.3L229.9,220.1L230.5,219.8L231.3,219.7L232,219.4L232.5,219.2L232.8,218.9L233.3,218.8L234.8,218L235.2,217.6L235.7,216.8L236.1,216.4L236.3,216L236.9,215.3L237.6,214.4L238,213.8L238.5,213.4L239.4,212.3L240,211.9L240.2,211.9L240.8,211.5L241.1,211.1L241.7,210.7L242.8,210.3L243.8,209.7L245.1,209.2L246.7,208.4L248,208L248.9,208L250,207.8L250.4,207.8L252.1,208.1L252.9,208.5L253.8,209.4L254,209.6L254,209.9L253.5,209.8L253.1,209.7L253.4,209.9L253.9,210.4L253.8,211.1L253.6,211.7L252.7,212L252.5,212.2L252.3,212.6L252.1,212.7L251.7,212.9L251.5,213.1L250.8,213.5L250.5,213.6L250.1,213.5L249.3,213.1L248.8,212.7L248.5,212.9L248.3,213.1L247.8,213.1L247.5,213.2L247.2,213.1L246.4,213.5L246.6,213.6L247.2,213.3L247.4,213.3L247.9,213.7L249,214L249.3,214.2L249.5,215L249.7,215.1L250.1,215L250.5,214.7L250.9,214.5L251.6,214.3L251.4,214.5L252,214.5L252.5,214.9L252.3,215.1L252,215.6L251.9,216.5L251.3,217.1L250.6,217.7L250.8,217.8L251,217.9L251.4,217.7L251.8,217.7L252.1,217.8L252,218.3L251.9,218.6L251.9,218.9L252.1,219.5L252.4,219.6L252.5,220.3L252.7,220.7L252.7,221L252.9,221.2L253,221.5L254,221.6L254.2,221.7L254.9,221.8L255,221.9L255.1,222.1L254.5,222.4L255,222.7L255.5,223.2L255.9,223.1L256.1,223.1L256.6,223.4L256.7,223.5L256.8,223.6L257,223.6L257.3,223.5L257.9,223.5L258.6,223.7L258.5,223.9L258.4,224.1L258.9,224L259.2,224.2L259.4,224.1L259.4,224L260.1,223.7L260.9,223.1L261,223.2L261,223.4L261.1,223.8L261.4,224L261.8,224.1L262.3,223.9L262.5,224.1L262.7,224.4L262.9,224.8L262.9,225L262.6,225.1L262.4,225.3L263.4,225.4L263.6,225.5L263.7,225.6L263.6,225.8L263.5,225.9L263.3,225.8L262.9,225.9L262.6,226.1L262.3,226.2L262,226.2L261.8,226.3L261.6,226.5L261.4,226.5L260.6,226.9L259.9,227.2L259.2,227.6L258.4,227.8L257.6,228.1L257.4,228.1L257.2,228.1L256.7,228.4L256.5,228.4L256.3,228.4L256,228.4L255.8,228.2L256,228.6L256,228.9L255.9,229L255.8,229.1L255.4,229.1L255.2,229L255,228.8L254.9,228.6L254.6,228.4L254.5,228.7L254.5,228.8L254.3,229.1L254.1,228.7L253.8,228.8L253.6,229.3L253.7,229.4L253.8,229.7L253.6,229.9L253.5,229.9L253.2,230.4L252.9,230.6L252.5,231.1L252.1,231.5L252,231.7L251.3,232.3L251.1,232.3L250.9,232.3L250.6,232.6L250.5,233.1L250.4,233L250.3,233L250.2,233.2L250.1,233.2L249.9,233L249.6,233.1L249.3,233L249,232.3L248.9,232L248.6,231.9L248.5,232.1L248.4,232.2L248.1,231.9L247.9,230.8L247.9,230.6L248.2,229.6L248.9,228.7L248.7,228.7L248.1,229.3L248.2,229.2L248.3,229L248.5,228.8L248.8,228.5L249.2,228.4L249.5,228.4L249.7,228.3L250,228L250.1,227.9L249.8,228.1L249.4,228.2L249.5,228L249.6,227.9L251.9,226.4L252.3,226.1L253.3,225.8L253.4,225.6L253.3,225.4L253.6,225.6L253.6,225.7L253.5,225.9L253.5,226.1L253.5,226.3L253.9,226.4L254.2,226.8L254.1,226.3L254.3,226L255.4,225.5L256.3,225.5L256.5,225.3L255.8,225.2L254.9,225.3L254.4,225.1L253.6,225.2L252.8,225.1L252.6,225.2L252.3,225.5L252.1,225.4L252,225.4L251.8,225.3L252.1,224.8L252.9,224.2L253.4,223.6L253.6,223.5L253.7,223.3L253.4,223.3L253.2,223.4L253,223.1L252.7,222.8L252.7,222.9L252.8,223.4L252.3,224.1L251.9,224.2L251.4,224.5L250.7,224.8L249.9,225.4L248.9,225.9L248.7,225.9L248.2,225.5L248.3,225.3L248.5,225.1L248.3,225.2L248.3,225.3L248,225.4L248.2,225.8L248.1,225.9L247.8,226.1L247.5,226.3L247.2,226.5L247,226.3L246.4,226.5L245.9,226.6L245.8,226.5L245.7,226.3L245.6,226.2L245.2,226.3ZM185.8,68.6L185.9,68.8L186.6,68.5L187.2,68.2L188.1,67.5L188.7,67.2L190.3,67.2L190.6,67.4L190.5,67.8L190.4,67.9L190.5,68.1L190.7,68.4L191,68.6L191.2,68.4L191.3,67.8L191.5,65.3L191.6,64.5L191.7,63.8L191.7,63.1L191.6,62.6L191.1,62.4L190.5,62.4L190.2,62.4L189.9,62.2L189.6,62L189.4,61.7L189.1,60.8L188.8,60.4L188.2,59.5L187.9,59.2L188,58.8L188.6,58.4L189,58L189.4,56.9L189.7,56.7L190.6,56.9L191.8,57.8L192.6,58.5L192.8,58.6L192.8,58.5L192.6,58.1L191.7,57.2L191.3,56.5L191.1,56L191.2,55.8L191.7,55.5L191.8,55.3L191.1,55L190.8,55L190.5,55.2L190.2,55.2L189.6,54.8L189.4,54.6L189.1,54L189,53.4L188.8,53L188.7,52.7L188.7,51.8L188.7,51.3L188.8,50.8L188.9,50.4L189.2,49.7L189.5,49.5L189.8,49.4L190.7,49.8L192.9,51L192.8,50.6L190.4,48.9L189.5,48.5L189.2,47.8L190.6,45.4L191.8,44.8L192.4,44.1L193.4,44.1L194.4,44.5L194.4,44.4L193.9,43.5L194,43.3L194.5,42.8L195.5,42.2L196.7,41.7L196.9,41.5L197.2,41.3L197.8,41.1L199.2,41.1L199.9,41.1L201,41.5L201.6,42.2L201.8,42.6L202.1,43.9L202.4,45.6L202.8,46.4L203.4,46.7L203.8,47.2L204,47.7L204.1,48.2L204,48.9L204.1,49.7L204.3,50.4L204.6,50.8L205,51.3L205,51.5L204.9,51.8L204.6,52.2L203.8,53.5L202.8,54.8L202.1,55.9L202.1,56.3L203.6,54.5L204,54.6L204,54.8L203.7,55.7L203.4,56.5L203,57L203.1,57.2L203.8,58L203.6,58.2L203.3,58.1L203.2,58.2L203.1,58.3L203,58.6L203,58.9L203.1,59.3L203,59.7L203,59.9L203.1,60L203.3,59.9L203.4,59.8L203.7,59.2L204.7,57.6L205.3,57L205.5,56.9L206.1,57.3L206.2,57.3L205.6,56.1L205.5,55.7L205.7,55.3L205.7,55.1L206.1,54.8L206.4,54.6L206.5,54.7L206.8,55.3L206.9,55.7L207.1,55.9L207.6,55.7L207.9,55.2L208.3,55.5L208.9,56.3L208.9,57.2L208.9,58L208.9,58.6L209.6,59.7L210.1,60.2L210.2,60.2L210.2,60.1L210.1,59.7L209.8,59.3L209.6,58.7L209.3,58.1L209.5,56.4L209.8,55.5L210.2,55.8L210.7,56.3L211,56.3L211.6,56.3L212.8,57.3L213.4,57.3L213.4,56.9L212.9,56.7L212.2,56.1L211.1,55.5L210.6,54.7L210.5,54.4L210.5,54L210.6,53.6L210.7,53.3L210.9,53L212,52.1L212.7,51.8L213.3,51.6L214.2,51.7L215.3,51.8L215.9,52.1L216.6,52.7L217.5,53.3L217.8,53.4L218.2,53.4L218.6,53.3L219,53.3L220.2,54.3L220.5,54.7L220.7,55.3L220.9,55.8L221,56.4L221,56.8L219.9,58.7L219.5,59L219.2,59.7L218.7,61L218.3,61.7L218.3,61.8L218.4,61.9L218.6,61.5L219,60.6L219.3,59.9L219.8,59.2L220.7,58.4L221.4,58.1L222,58.1L222.6,58.2L223,58.4L223.3,58.6L223.3,58.7L223.5,59.3L223.5,59.7L223.4,60.1L223.2,60.6L222.3,61.1L221.8,61.6L221.4,61.7L220.5,61.9L220.5,62.1L221.2,62.3L222,62.2L222,62.5L221.6,63.2L221.5,63.9L221.6,64.4L221.6,64.8L221.3,65.7L221,66.5L221.1,66.6L221.8,65.5L222,64.2L222.3,63.1L222.7,62.5L222.9,62.2L223.7,62.2L224.2,61.5L224.6,61.3L224.7,61.3L225,61.5L225,61.8L224.6,63L223.6,64.8L224,64.6L224.2,64.2L224.6,63.7L225,63.1L225.3,63.7L225.7,64.1L226,65.1L226.4,65.6L226.7,66L226.6,65.3L226.3,64.1L226.4,63.6L226.6,63.3L227.5,62.2L228.1,62.6L228.5,62.9L228.7,62.8L229.1,62.9L229.9,63L230.6,63.3L231.4,63.8L231.9,64.3L232.3,64.8L232.5,65.2L232.6,65.5L232.7,66L232.6,66.4L232.1,67.3L231.8,67.7L231.5,67.8L230.7,67.7L230.4,67.8L230.2,68L229.3,69.2L228.9,69.7L228.4,70.1L228.3,70.2L229.3,70.2L229.6,69.9L229.8,69.2L230.2,68.5L231,68.2L232.2,68.9L232.7,68.9L233.2,68.2L233.6,67.7L233.8,67.6L233.9,67.7L234.3,68.2L234.4,68.6L234.4,69.6L234.3,69.9L234,70.6L233.2,71.7L232.7,72.1L232.1,72.3L231.5,72.7L231.3,73L231.1,73.4L230.9,73.7L230.6,73.9L230.9,74.2L231.1,74.2L231.2,74L231.6,73.2L231.8,72.9L232,72.8L232.2,72.8L232.3,73L232.5,73.3L232.4,74L232,76.6L232.1,76.6L232.3,75.9L233.2,73.1L233.4,72.5L233.8,72L234.6,71.1L235.3,70.6L236.1,70.2L236.5,70.1L237,70.2L237.3,70.6L237.7,70.7L238.2,70.6L238.5,70.7L238.9,70.9L239.2,71.2L239.7,71.6L240.9,72.3L241.1,72.4L241.2,72.7L241.3,73.1L241.3,73.5L241.2,73.8L241,74.1L240.7,74.1L240.5,74.3L240,74.9L239.9,75L239.1,75.2L238.5,75.3L238.1,75.5L237.3,76.1L236.2,77.2L236.2,77.4L236.6,77.5L237,77.4L237.5,76.6L237.9,76.4L238.6,76.1L239.6,75.9L240.1,76L240.1,76L240.2,76.2L240.2,76.5L240.1,76.9L239.9,77.1L239.4,78L239.7,78.2L240.2,78.3L240.4,78.1L240.7,77.5L240.9,77.2L241.2,77.2L241.5,77L241.7,76.8L241.8,76.6L241.5,76.3L241.4,76.2L241.6,75.7L241.8,75.3L242.1,75L242.3,74.9L242.9,75.3L243.3,75.8L244.4,77.5L244.5,77.8L244.9,79L245,79.6L244.9,79.9L244.8,80.2L244.7,80.2L244.5,80.3L243,79.8L242.4,79.8L242.1,80L241.9,80.2L241.7,80.4L241.6,80.8L241.3,80.9L240.4,80.9L239.9,81.1L239,81.5L238.7,81.8L238.6,82.1L239.2,82L240,81.6L240.9,81.5L242.3,82.4L242.7,82.5L243,82.4L243.3,82.4L244.4,82.4L244.8,82.5L245.3,82.9L246.2,83.6L246.3,83.8L246.4,84L246.5,84.3L246.5,84.9L246.4,85.1L246.1,85.2L244.9,85L244.5,84.9L244,85.1L243.6,85L243.2,84.8L242.6,84.4L241.8,84.8L241.2,84.5L240.6,84.7L239.3,85.6L239.4,85.8L241.2,85L241.5,85.1L242.1,85.4L242.9,85.9L243.2,86.2L243.2,87.1L243.1,87.7L242.8,88.3L242.4,88.2L241.5,87.8L241.1,87.8L240.8,87.8L240.4,88.1L240.2,88.1L238.7,87.6L238.4,87.5L238.3,87.6L238.4,87.7L239.8,88.5L240.8,88.6L241.4,88.8L241.8,89L242,89.2L242,89.7L242.3,90.3L242.6,90.5L242.8,90.5L243.2,90.3L243.5,90.3L243.8,90.4L244.1,90.7L244.5,90.8L244.9,91L245.2,91L245.9,90.9L246.3,91L246.4,91.1L246.2,91.3L245.5,91.7L245.4,92.1L245.8,92.6L246,93L246,93.3L245.8,94L245.7,94.3L245.8,94.3L246.3,93.8L246.4,93.8L246.4,94.6L246.5,94.5L246.7,93.9L246.6,93.1L246.9,92.8L247.9,92.5L247.7,93.8L247.7,94.5L247.3,95.6L246.9,95.9L246.9,96L247.2,96.2L247.3,96.2L247.5,96L247.8,95.1L248.6,94.2L248.7,94.2L248.7,94.6L248.6,95.1L248.9,95.4L249.3,95.2L249.4,94.9L249.8,94.9L250,95.1L250.1,95.3L249.9,96.4L249.9,96.7L250.4,97.4L250.4,97.4L250.3,97L250.2,96.2L250.3,95.8L250.7,95.3L251.4,94.6L251.7,94.5L251.8,94.6L252.1,94.9L252,95.1L251.7,95.3L251.5,95.7L251.4,96.2L251.5,96.5L252.1,96.5L252.7,96.1L253,96.3L253.4,96.9L254.1,97.8L254.6,97.6L255.1,98.3L254.4,98.9L254.6,100L253.7,100L253.2,100.1L252.9,100L252.5,100L252.8,100.3L253.5,100.4L253.5,100.8L254,100.8L254.4,100.7L255.1,100.7L255.2,100.3L255.6,100.1L255.9,99.8L256.1,100L256.7,100.1L257.6,100.9L257.2,101.4L257.1,101.9L257,102.2L256.9,102.6L256.7,102.8L255.5,104.1L255.7,104.2L256.2,103.8L257.2,103.4L257.8,103.2L258.2,103.3L258.4,103.3L258.6,103.1L258.9,103.3L259.6,103.5L260.3,102.4L260.8,102.6L261.3,103.3L262.2,104.5L262.7,105.2L262.9,105.5L262.8,105.8L262.4,106.1L262.2,106.2L261.6,105.6L261,105.3L260.7,105.3L260.3,105.5L260.5,105.7L261.8,106.6L262,107.3L262,107.6L261.1,108.1L260.9,108.1L260.2,107.9L259.9,107.5L259.6,107.3L259.2,107.3L259,107.3L259.5,108L259.4,108.2L259.2,108.4L259.1,108.7L260,109.3L260.7,109.9L260.7,110.2L260.3,110.3L260,110.4L259.3,110.3L258.9,110.2L258.8,110.3L259.2,110.6L259.4,110.8L259.5,111.1L259.5,111.4L259.6,111.7L259.2,111.9L258.9,112.5L258.7,113.1L258.4,113.1L258.2,113L257.8,113.2L257.2,113L256.9,112.7L256.3,111.5L256.3,111.6L256.4,112.2L256.4,112.6L255.7,112.8L255.7,112.9L256.1,113.1L256.6,113.3L256.6,113.8L256.6,116.1L256.4,116.9L256.2,117.6L255.8,118.3L255.4,117.8L255.3,117.4L255.1,117.2L254.9,117L254.7,116.9L254.4,116.9L254.2,117.3L253.9,116.9L253.6,116.5L253.7,115.4L253.8,114.8L253.8,114.9L253.6,115.1L253.2,115.9L252.9,116.9L252.6,116.5L252.3,116.1L252.1,115.6L251.6,115L251.2,114.4L251,113.6L251,113.5L250.7,112.8L250.6,112.6L250.5,112.6L250.4,112.2L250.4,111.7L250.7,111.2L251,110.9L251.5,110.5L252,110.3L252.3,109.8L252.6,109L252.9,108.4L253.3,108L253.1,108L252.6,108.3L252.3,108.7L251.9,109.4L251.6,109.8L250.6,110.3L250.3,110.5L249.9,110.5L249.1,110.4L248.9,110.3L249,109.8L249.6,108.9L249.5,108.8L249.3,109.1L249,109.3L248.7,109.5L248.3,109.4L247.9,108.9L247.7,108.7L247.3,108.5L247.1,108.3L246.4,106.9L246.2,106.6L246.1,106.2L245.9,105.9L245.5,105.7L245.4,105.7L245.6,106L245.6,106.3L245.2,106.4L244.9,106.4L244.5,106.1L244.5,106.5L244.9,107.1L244.9,108L244.8,108.1L244.5,108.1L244.4,108L243.8,107.4L243.2,106.9L242.8,106.7L242.8,106.9L243,107.6L243.3,108.4L243.8,109L244.6,109.7L244.9,110.2L244.7,110.8L244.4,110.9L244.3,111L243.8,111L243,110.7L242.6,110.3L242,109.4L241,108.5L240.8,108.5L240.2,108.9L240.3,109L240.7,109L241,109.1L241.8,109.8L241.8,110.1L241.6,110.5L241.7,110.9L241.9,111.4L242.1,111.7L242.5,111.9L242.8,112L242.8,112.1L242.6,113.2L242.6,113.5L242.6,113.6L242.7,113.6L243.3,113.2L243.5,113.1L243.7,113.1L244,113.2L244.3,113.5L244.4,113.8L244.5,114.1L244.6,114.2L245.1,114.6L245.1,114.7L244.5,115.2L244.5,115.2L244.6,115.3L244.9,115.6L245.3,116L245.5,116.5L245.5,116.8L245.5,117L245.6,117.1L245.8,117.2L245.8,117.1L245.9,117.1L246,117.2L246.1,117.6L246.3,118.8L246.4,119.1L246.5,119.1L246.5,117.9L246.6,117.8L247,118L247.5,118.4L247.8,118.8L247.9,119L247.6,119.4L247.7,119.5L247.9,119.8L248.1,119.7L248.2,119.3L248.4,118.9L248.7,118.6L249.2,118.8L249.7,119.4L249.7,119.6L250,119.9L250.3,119.7L250.7,120.4L250.5,120.7L250,121.1L250,121.3L250.1,121.3L251,121.3L251.3,121.4L251.3,121.8L250.9,122.7L250.5,122.6L250,122.6L249.8,122.7L249.8,122.8L250.5,123.2L250.7,123.6L251,123.9L251.1,124.2L251.1,124.4L251,124.6L251.1,124.6L251.5,124.8L251.9,124.7L252.2,124.6L252.6,124.6L252.6,124.8L252.5,125.1L252.2,125.4L252.3,125.5L252.7,125.4L252.9,125.5L253.1,126.3L253.4,126.9L253.2,127L252.9,127.1L252.9,127.8L253.1,128.5L253.1,129.3L253.1,129.9L252.8,130L252.6,130L252.5,129.9L251.9,128L251.8,127.6L251.6,127.3L251,126.5L251,126.6L251.2,127L251.3,127.6L251.5,128.7L251.6,129.4L251.5,129.7L251.4,129.8L251.4,129.9L251.4,130.1L251.9,130.8L252.1,131.3L252.3,131.7L252.4,132L252.6,132.2L252.5,132.3L252.3,132.4L252,132.5L251.8,132.4L251.2,132L251.1,132.1L251.4,133.7L251.4,134L251.2,134.2L251,134L250.8,133.6L250.4,133.1L249.8,132.6L249.3,132.1L249.2,132.1L249.1,132.3L249,132.3L248.9,132.2L248.8,131.9L248.6,131.7L247.8,130.9L247.8,130.9L247.8,131.2L247.9,131.6L247.8,131.7L247.6,131.7L247.3,131.5L247,131L246.7,130.2L246.5,129.9L246.5,130.1L246.6,130.9L246.6,131.1L246.4,131.2L246.3,131.1L246.2,130.9L246.2,130.6L246,130.3L245.7,130.1L245.6,129.9L245.5,129.6L245.4,129.5L244.9,129.6L244.7,129.4L244,128.4L243.3,127.4L242.9,126.8L242.8,126.7L243,127.4L243.2,128.4L243.3,128.8L243.2,128.8L242.9,128.6L241.7,127.3L240.9,126.7L240.5,126.6L239.8,126.6L239.7,126.9L240,127.6L240.4,128.2L240.8,128.6L241.3,129.3L241.8,130.2L242,130.5L242.7,130.9L243.1,131L243.4,131L243.5,131.2L243.3,131.4L243.2,131.6L244.1,132L244.4,132.2L244.7,132.6L244.8,132.7L245.5,133.7L245.7,133.8L246.4,134.1L246.6,134.3L246.9,134.9L247.1,135.2L247.4,136L247.7,136.3L248.2,136.7L248.5,136.8L248.6,136.9L248.5,137.2L248.5,137.4L248.1,137.6L248.2,137.9L248.4,138.5L248.4,138.8L248.2,139L247.8,139.1L247.5,139.1L247.2,139L246.9,138.8L246.1,138.2L244.9,137.8L244.5,137.6L244.4,137.4L244.1,137.3L241.3,136.7L240.8,136.6L240.5,136.4L240.2,136.2L239.1,135.6L239,135.5L238.3,134.5L237.7,133.4L237.5,133.2L237,133.1L236.5,133.2L236.1,133.3L235.6,133.2L235.3,133.1L234.6,132.5L233.9,132.3L233.3,131.8L233,131.7L233,131.5L233.5,130.9L233.3,130.9L232.5,131.4L232.2,131.2L231.8,130.8L231.4,130.4L230.7,129.3L230.3,128.9L230.3,128.8L230.8,128.7L231.2,128.8L231.4,128.7L231.9,128.2L232.1,127.9L232.1,127.7L231.7,127.7L231.6,127.6L231.6,127.4L231.4,127.2L231.1,126.9L230.7,126.7L229.6,126.9L229.4,126.7L229.4,126.5L229.6,126L229.7,125.7L229.8,125.6L229.7,125.6L229.6,125.6L228.9,126.1L228.7,126.1L228.5,125.5L228.3,124.9L228.2,124.7L228,124.6L227.5,124L226.7,122.9L226.4,122.5L226.1,122.2L225.8,122L225.9,121.9L226.4,120.9L226.4,120.8L225.9,120.8L225.3,120.6L225,120.9L224.8,120.9L224.6,120.7L224.4,120.8L224.3,121.6L224.2,121.8L224.1,121.9L224,121.9L223.9,121.7L223.9,121.5L223.8,120.6L223.5,120.4L222.9,120.4L222.8,120.3L222.6,120.1L222.5,119.8L222.4,119.3L222.2,119L222.1,119L222,119L221.9,119.1L221.7,119.2L221.4,119.3L221.4,119.4L221.7,119.8L221.9,120.3L222.2,120.9L222,121.4L221.4,121.6L220.9,121.6L220.5,121.6L220.1,121.4L219.6,121L218.9,121.2L218.8,122.1L218.6,122.1L218,122.1L217.7,122.2L216.8,122.7L216.6,122.8L216.4,122.7L216.2,122.9L215.9,123.2L215.5,123.2L214.9,122.9L214.5,122.8L214.2,122.9L213.8,122.7L213.4,122.4L213.1,122.3L212.7,122.3L212.6,122.3L212,121.6L211.8,121.3L211.4,120.5L211.4,120.2L211.4,119.8L211.4,119.5L211.5,119.1L211.7,118.2L211.8,117.9L212,117.6L212.3,117.2L213.7,116.6L213.9,116.3L213.9,116.2L213.6,115.4L213.6,115.2L213.7,115.1L213.9,114.6L214,114.5L214.2,114.4L214.7,114.6L215.1,114.7L215.7,114.8L216.6,115.1L217.9,115.7L218.6,116.1L219.1,116.7L219.5,117.4L219.6,117.7L219.4,118.1L219.3,118.3L219.3,118.4L219.4,118.6L219.7,118.9L219.8,118.8L219.8,118.5L219.8,118.2L220,118L220,117.7L219.9,117.3L219.8,117L219.6,116.8L218.8,115.9L218.7,115.6L219,115.5L220.1,115.8L220.6,115.7L220.8,115.4L221,115.1L221.2,115L221.6,114.9L222.1,115.1L222.4,115.1L222.7,115.1L223,114.9L223.4,114.2L223.7,114.1L224.2,114L224.5,114L225.1,114.2L225.5,114.2L225.5,113.8L225.2,113L224.9,112.1L224.7,111.9L224.1,111.3L223.3,110.3L222.9,109.7L222.8,109.4L222.9,109.2L223,108.8L224.4,107.7L225.4,106.6L225.9,106L226.1,105.6L226.3,105.3L226.6,105.1L227.1,104.9L227.2,104.6L227.3,104.1L227.4,103.7L227.9,102.5L228.2,102.2L228.8,102L229.1,101.7L229.6,100.8L229.5,100.5L229.3,100.4L229.2,100.1L228.5,97.6L228,96.3L227.5,95.3L227,93.9L226.2,92.6L226.2,92.3L226.3,91.9L226.3,91.8L225.4,92.4L225.2,92.4L224.9,92.1L224.7,91.8L224.5,91.3L224.5,91L224.7,90.7L224.8,90L224.8,89.7L224.8,89.4L224.7,89.1L224.6,89L224.4,88.9L223.9,88.9L223.8,89L224.3,90L224.2,90.3L223.6,90.4L223.3,90.3L223.1,90.2L222.9,90L222.2,89L222,88.6L222.1,88.3L222,88.1L221.9,88.2L221.7,88.2L221.4,88.1L221.4,88L221.9,87.4L221.9,87.2L221.7,87L221.3,87L221.2,86.8L221.4,86.6L221.8,86.3L222,86.1L221.7,85.9L221.6,85.9L221.2,86.3L220.8,87L220.5,87.3L220,86.9L219.7,86.8L219.5,86.9L219.2,87.4L218.5,87.8L217.3,88.8L216.8,89.1L216.3,89L216.2,88.8L216.2,88.5L216.2,88.3L216.3,88.1L216.3,87.8L216.3,86.7L216.4,86.4L216.6,86.2L216.9,86L217.8,86.3L218.2,86.2L218.5,86L218.8,85.6L219.1,85.1L219.1,84.7L218.8,83.9L218.7,83.8L217.9,83.2L217.5,83L217.1,82.9L216.8,82.7L216.6,82.4L216.5,82L216.5,81.8L216.5,81.4L216.7,81.1L217.4,80.8L217.4,80.8L216.8,80.6L216.5,80.6L216.3,80.8L216,81.4L215.8,81.6L215.3,81.2L215,81.2L214.7,81L214.6,80.9L214.7,80.7L215,80.5L215.4,80.1L215.4,79.8L215.1,79.3L215,79.2L214.3,79.1L213.5,79.2L213.2,79.2L213.1,78.7L213,78.1L213,77.4L212.8,76.3L212.7,75.6L212.5,75.6L211.5,75.8L211.3,75.8L211.1,75.7L210.5,75L210.2,74.7L210.1,74.6L209.6,73.8L209.4,73.6L209.2,73.2L209,72.5L208.7,72.3L208.4,72.6L208.2,73L207.9,73.4L207.7,73.9L207.7,74.2L207.9,74.4L208.9,74.9L209.1,75.2L209.3,75.6L209.5,76.2L209.6,76.9L209.6,77.4L209.5,77.7L209.3,78L208.6,78.5L208,78.7L207.3,78.8L207,78.7L205.4,77.8L205.1,77.8L204.7,77.7L203.8,77.3L203.4,77.3L202.5,77L201.1,76.8L200.8,76.9L201.2,77.4L201.5,77.6L201.8,77.6L202.2,77.9L202.8,78.7L203.1,79.1L203.3,79.6L203.3,79.8L203.1,80.2L201.1,78.3L199.9,78.9L199.4,79.2L198.9,79.2L198.3,79L197,78.1L196.5,77.8L196.3,77.7L195.1,78.1L194.1,78.1L192.1,77.7L191.4,77.5L191.2,77.2L190.9,77.1L190.5,77.1L189.3,76.8L188.3,77.5L187,76.8L186.6,76.5L186.5,76.2L186.1,75.2L186.1,74.6L186.2,74.1L186.3,73.8L186.4,73.6L185.7,74.2L185.4,74.3L185.1,74.3L184.2,74.1L184,74.2L184.1,74.4L184.3,74.7L184.3,74.9L183.8,75L183,74.9L182.7,74.9L182.5,75L182.1,75.5L182,75.6L181.8,75.5L181,74.5L180.3,73.8L179.5,73.6L179.1,73.3L178.9,73.1L177.8,70.9L177.7,70.4L177.3,68.7L177.2,68.3L177.1,68.1L177.3,68L178.4,68.2L179.4,68.2L179.9,68.4L180.6,68.8L181.4,69.1L182,69.2L182.9,69.1L184,68.8L184.1,68.5L183.4,68.2L182.8,67.7L182.2,67L181.9,66.7L181.3,66.5L179.7,66.4L178.2,65.9L177.2,65.3L176.3,64.7L176,64.3L175.9,64L175.7,63.1L175.6,61.6L175.5,60.5L175.3,60L175.3,59.6L175.6,58.6L176.4,57.5L176.4,57.3L176.3,57.3L175.9,57L175.8,56.6L175.8,55.9L175.8,55.4L175.8,55L176,54.4L176.3,53.4L176.8,52.1L177.4,51L177.5,50.6L177.5,49.5L177.6,48.7L177.6,48.2L177.8,47.8L178.1,47L178.5,46.3L179.2,45.6L179.2,45.4L179.2,45.1L179.3,44.8L179.3,44.7L181,42.6L181.7,41.8L182.3,41.2L183.1,40.8L185.2,40L186.4,39.8L187.7,39.8L190.3,40.3L190.6,40.6L190.7,40.8L190.8,41.2L190.7,41.5L190,42.5L189.1,43.3L188.6,44L187.6,45.6L187.3,46.2L186.1,49.3L185.8,49.8L185.7,50.3L185.6,51.4L185.6,51.8L185.8,52.4L186.4,53.8L186.6,54.4L186.6,55L186.5,56.5L186.5,57.2L186.6,57.8L186.7,58.8L186.9,60L187.5,61.3L188.4,62.5L189,63.4L189.6,64L190.4,64.9L190.6,65.3L190.2,65.8L189.4,66.5L188.3,66.8L187.8,67.1L187,67.8L186.1,68.3Z"/></svg>
