<svg xmlns="http://www.w3.org/2000/svg" viewBox="0 0 400 300"><path d="M279.7,129.2L280.8,129.9L304.6,143.2L305.1,147.1L314.5,153.6L311.5,161.7L311.8,165.5L316,167.9L316.2,169.6L314.4,173.6L314.8,175.6L314.4,178.8L316.7,182.9L319.4,189.5L321.8,190.9L316.6,194.8L309.4,197.4L305.5,197.3L303.1,199.3L298.6,199.5L296.8,200.3L289,198.4L284,199L282.2,189.9L280,186.8L278.7,185L272.2,183.7L268.5,181.7L264.3,180.6L261.7,179.5L259,177.8L255.4,169.5L251.6,165.8L250.3,161.9L251,158.5L249.8,152.5L252.5,152.2L254.9,149.8L257.4,146.3L259.1,145L259,142.8L257.6,141.3L257.2,138.8L259.1,137.9L259.5,134.1L256.9,130.4L259.2,129.6L266.4,129.7Z" fill="#2c2c34" stroke="#474751" stroke-width="0.8"/><path d="M330.1,134L326.2,128.5L326.1,104.7L331.9,97.2L333.7,95.1L337.9,95L343.7,90.4L352.3,90.1L370.8,70.3L375.4,64.7L378.3,60.7L378.3,57.2L378.3,50.5L378.3,47.7L378.4,47.6L380.5,47.5L383.5,46.5L387,45.8L390.1,43.5L392.6,43.5L392.7,45.3L392.1,49.2L392.2,52.7L390.8,55.2L388.9,62.3L385.8,69.7L381.7,78.2L376.1,87.9L370.5,95.2L362.8,104.2L356.2,109.5L346.4,116L340.3,121L333.1,128.9L331.6,132.4Z" fill="#2c2c34" stroke="#474751" stroke-width="0.8"/><path d="M314.5,153.6L305.1,147.1L304.6,143.2L280.8,129.9L279.7,129.2L279.7,122.2L281.6,119.5L284.8,115.2L287.2,110.4L284.3,102.9L283.5,99.6L280.4,95L284.4,91.1L288.9,86.8L292.3,87.9L292.3,91.6L294.5,93.7L299.1,93.7L307.4,99.3L309.5,99.4L311,99.2L312.5,100L316.8,100.5L318.8,97.7L324.8,95L327.4,97.2L331.9,97.2L326.1,104.7L326.2,128.5L330.1,134L325.5,136.6L323.9,139.3L321.4,139.8L320.5,144.4L318.4,147.1L317.1,151.4Z" fill="#2c2c34" stroke="#474751" stroke-width="0.8"/><path d="M305.2,0L305.7,0.4L309.3,2.9L306,6.8L301.1,8L299.1,10.1L298.4,14.6L295.6,24.6L296.3,27.3L295.2,33.1L292.6,39.8L288.6,43.1L285.8,48.2L285.2,50.9L282,52.8L280.1,59.8L280.2,65.8L280.1,60.6L279.2,60.4L279.3,57.1L278.6,54.8L275.2,52.2L274.4,47.4L275.2,42.5L272.1,42L271.7,43.5L267.7,43.8L269.3,45.8L269.9,49.8L266.3,53.5L263,58.3L259.6,59L254.1,55.1L251.6,56.4L251,58.4L247.6,59.6L247.4,61L240.8,61L239.9,59.6L235.2,59.4L232.8,60.6L231,60L227.7,56.1L226.5,54.3L221.8,55.2L220,58.3L218.3,64.2L216.1,65.5L214.1,66.2L218.5,68.8L218.5,68.8L213.5,65.9L211.2,64L210.8,61.9L211.9,59.1L211.9,56.4L208.1,52.3L207.4,49.4L207.4,47.8L205,45.8L204.9,41.9L203.6,39.3L201.3,39.7L201.9,37.2L203.6,34.4L202.9,31.6L205,29.6L203.7,28L205.4,23.8L208.4,18.8L214.1,19.3L213.8,0L305.2,0Z" fill="#2c2c34" stroke="#474751" stroke-width="0.8"/><path d="M213.8,0L214.1,19.3L208.4,18.8L205.4,23.8L203.7,28L205,29.6L202.9,31.6L203.6,34.4L201.9,37.2L201.3,39.7L203.6,39.3L204.9,41.9L205,45.8L207.4,47.8L207.4,49.4L203.2,50.5L199.9,53.2L195.1,60.5L189,63.6L182.6,63.2L180.8,63.8L181.4,66.1L178,68.4L175.2,71L167,73.5L165.3,72L164.2,71.9L163,73.6L157.6,74.1L158.6,72.3L156.6,67.8L155.7,65L152.8,63.9L148.9,60L150.3,56.9L153.3,57.5L155.2,57.1L158.8,57.1L155.3,51.1L155.5,46.6L155.1,42.2L152.5,37.9L153.1,34.7L148.9,34.6L148.9,30.2L146.2,27.7L149,18.8L157.4,12.3L157.8,3.4L158.4,0L213.8,0Z" fill="#2c2c34" stroke="#474751" stroke-width="0.8"/><path d="M187.9,300L187.9,290.7L189.6,291.7L193.5,298.6L193.4,300L187.9,300ZM204.7,300L205.5,299.4L207.1,296L210.3,294.3L213,295.1L216.2,297.2L221.5,297.5L225.7,295.8L226.4,293.6L227.5,290.1L231.1,289.6L233.1,286.8L235.3,282.1L241.1,276.7L250.4,271.5L253.1,271.6L256.2,272.8L258.5,271.9L262,272.6L265.1,282.7L266.8,287.8L265.6,295.8L266.2,298.4L262.9,297.1L261,297.6L260.4,299.8L260.2,300L204.7,300Z" fill="#2c2c34" stroke="#474751" stroke-width="0.8"/><path d="M262,272.6L258.5,271.9L256.2,272.8L253.1,271.6L250.4,271.5L246.2,268.3L241.2,267.2L239.2,262.8L239.2,260.3L236.4,259.6L229,251.9L226.9,247.9L225.6,246.7L223.1,241.1L230.4,241.9L232.5,242.7L234.8,242.5L238.4,238.1L244.1,232.4L246.4,231.9L247.2,229.5L251,226.8L255.9,225.9L256.4,228.4L261.8,228.3L264.9,229.7L266.3,231.4L269.4,231.9L272.8,234.1L272.8,242.8L271.5,247.6L271.3,252.8L272.3,254.8L271.6,259L270.6,259.6L268.9,264.6Z" fill="#2c2c34" stroke="#474751" stroke-width="0.8"/><path d="M193.4,300L193.5,298.6L189.6,291.7L187.9,290.7L187.9,269.8L194.3,269.6L194.5,244.7L199.4,244.5L209.5,242L212,244.9L216.2,242.2L218.2,242.2L221.9,240.6L223.1,241.1L225.6,246.7L226.9,247.9L229,251.9L236.4,259.6L239.2,260.3L239.2,262.8L241.2,267.2L246.2,268.3L250.4,271.5L250.4,271.5L241.1,276.7L235.3,282.1L233.1,286.8L231.1,289.6L227.5,290.1L226.4,293.6L225.7,295.8L221.5,297.5L216.2,297.2L213,295.1L210.3,294.3L207.1,296L205.5,299.4L204.7,300L193.4,300Z" fill="#2c2c34" stroke="#474751" stroke-width="0.8"/><path d="M155.6,300L154.1,295.2L151.9,284.1L151.7,275.5L150.9,271.7L148.4,268.7L145,262.9L141.5,254.5L140.1,250.2L134.8,243.4L134.4,238.1L137.5,236.8L141.4,235.7L145.7,235.9L149.6,239L150.6,238.5L177.2,238.2L181.7,241.5L197.6,242.5L209.6,239.7L215,238.1L219.3,238.5L221.8,240L221.9,240.6L218.2,242.2L216.2,242.2L212,244.9L209.5,242L199.4,244.5L194.5,244.7L194.3,269.6L187.9,269.8L187.9,290.7L187.9,290.7L187.9,300L155.6,300Z" fill="#2c2c34" stroke="#474751" stroke-width="0.8"/><path d="M0,20.1L21.1,20L22.6,15.2L21.4,14.4L19.9,0L85.4,0L85.4,0L85.4,10.8L81.8,15.4L81.3,19.6L75.4,20.6L66.5,21.2L64.1,23.6L59.9,23.9L55.7,23.9L54,22.6L50.4,23.6L44.3,26.4L43,28.5L37.9,31.6L37.1,33.3L34.3,34.7L31.2,33.8L29.4,35.4L28.4,40L23.2,45.6L23.3,47.8L21.5,50.7L22,54.5L19.3,55.5L17.7,56.4L16.7,53.5L14.8,54.3L13.7,54.1L12.5,56.1L7.4,56L5.6,55L4.8,55.6L2.8,53.7L3.1,51.7L2.3,51L0.9,51.6L1.1,49.4L2.5,47.7L0,45.1L0,20.1Z" fill="#2c2c34" stroke="#474751" stroke-width="0.8"/><path d="M19.9,0L21.4,14.4L22.6,15.2L21.1,20L0,20.1L0,0Z" fill="#2c2c34" stroke="#474751" stroke-width="0.8"/><path d="M75.1,81.8L69.7,82.6L68,78L68.3,62.8L67,61.4L66.7,58.2L64.5,55.8L62.5,53.9L63.3,50.4L65.6,49.6L66.9,46.7L70.1,46.1L71.5,44.1L73.7,42.1L76.1,42.1L81.1,45.9L80.8,48.2L82.3,52.1L81,54.8L81.7,56.6L78.5,60.7L76.5,62.8L75.3,66.9L75.4,71.1Z" fill="#2c2c34" stroke="#474751" stroke-width="0.8"/><path d="M158.4,0L157.8,3.4L157.4,12.3L149,18.8L146.2,27.7L148.9,30.2L148.9,34.6L153.1,34.7L152.5,37.9L150.6,38.3L150.4,40.4L149.2,40.6L144.7,33.2L143.2,32.9L138.1,36.7L133,34.7L129.5,34.3L127.6,35.3L123.7,35.1L119.9,37.9L116.5,38.1L108.6,34.6L105.5,36.3L102.1,36.2L99.7,33.6L93.1,31.1L86.1,31.9L84.4,33.4L83.4,37.2L81.6,39.9L81.1,45.9L76.1,42.1L73.7,42.1L71.5,44.1L71.7,39.5L64.1,37.9L63.9,34.7L60.2,30.3L59.4,27.2L59.9,23.9L64.1,23.6L66.5,21.2L75.4,20.6L81.3,19.6L81.8,15.4L85.4,10.8L85.4,0L158.4,0Z" fill="#2c2c34" stroke="#474751" stroke-width="0.8"/><path d="M75.1,81.8L75.4,71.1L75.3,66.9L76.5,62.8L78.5,60.7L81.7,56.6L81,54.8L82.3,52.1L80.8,48.2L81.1,45.9L81.6,39.9L83.4,37.2L84.4,33.4L86.1,31.9L93.1,31.1L99.7,33.6L102.1,36.2L105.5,36.3L108.6,34.6L116.5,38.1L119.9,37.9L123.7,35.1L127.6,35.3L129.5,34.3L133,34.7L138.1,36.7L143.2,32.9L144.7,33.2L149.2,40.6L150.4,40.4L153,43.1L152.3,44.3L151.9,46.5L146.4,51.7L144.7,55.9L143.8,59.4L142.4,60.9L141,65.5L137.5,68.3L136.5,71.6L135,74.3L134.4,77L129.9,79.3L126.2,76.5L123.8,76.7L119.9,80.5L118,80.6L114.8,86.9L113.2,91.6L106.3,94L103.9,93.6L101.3,95.1L96.1,94.9L92.6,90.8L90.4,86.1L85.8,81.7L80.8,81.8Z" fill="#2c2c34" stroke="#474751" stroke-width="0.8"/><path d="M152.5,37.9L155.1,42.2L155.5,46.6L155.3,51.1L158.8,57.1L155.2,57.1L153.3,57.5L150.3,56.9L148.9,60L152.8,63.9L155.7,65L156.6,67.8L158.6,72.3L157.6,74.1L154.3,80.8L152.7,82L152.2,87.1L152.9,89.9L152.3,91.9L155.5,95.3L156,97.7L158.4,101L161.4,103.2L161.7,106.1L162.4,108.1L161.9,111.6L156.7,110L151.4,108.3L143.2,108.1L142.3,107.7L138.5,108.5L134.5,107.7L131.4,108.1L120.7,107.9L121.6,102.8L119.1,98.4L116.1,97.3L114.8,94.4L113.1,93.4L113.2,91.6L114.8,86.9L118,80.6L119.9,80.5L123.8,76.7L126.2,76.5L129.9,79.3L134.4,77L135,74.3L136.5,71.6L137.5,68.3L141,65.5L142.4,60.9L143.8,59.4L144.7,55.9L146.4,51.7L151.9,46.5L152.3,44.3L153,43.1L150.4,40.4L150.6,38.3Z" fill="#2c2c34" stroke="#474751" stroke-width="0.8"/><path d="M63.3,50.4L62.5,53.9L64.5,55.8L66.7,58.2L67,61.4L68.3,62.8L68,78L69.7,82.6L64.4,84L62.9,81.7L61.2,77.5L60.6,74.2L62.1,68.2L60.4,65.8L59.8,60.6L59.8,55.7L57.1,52.3L57.6,50.2Z" fill="#2c2c34" stroke="#474751" stroke-width="0.8"/><path d="M57.6,50.2L57.1,52.3L59.8,55.7L59.8,60.6L60.4,65.8L62.1,68.2L60.6,74.2L61.2,77.5L62.9,81.7L64.4,84L54.1,87.8L50.4,90.1L44.5,92L38.7,90.1L39,87.5L36.1,81.8L37.9,74.4L40.6,68.8L38.9,59.4L38,54.4L38.1,50.6L49.5,50.3L52.4,50.8L54.5,49.7Z" fill="#2c2c34" stroke="#474751" stroke-width="0.8"/><path d="M4.8,55.6L5.6,55L7.4,56L12.5,56.1L13.7,54.1L14.8,54.3L16.7,53.5L17.7,56.4L19.3,55.5L22,54.5L24.9,56L26.1,58.2L29,59.6L31.3,57.9L34.4,57.7L38.9,59.4L40.6,68.8L37.9,74.4L36.1,81.8L39,87.5L38.7,90.1L35.7,90.2L31.1,88.9L26.9,89L19.2,90.1L14.6,92L8.1,94.4L6.8,94.3L7.4,88.9L8,88L7.8,85.4L5,82.7L2.9,82.2L1,80.4L2.4,77.5L1.8,74.3L2.1,72.4L3.1,72.4L3.5,69.5L3,68.2L3.6,67.3L6.1,66.5L4.4,61.2L2.9,58.4L3.5,56.2Z" fill="#2c2c34" stroke="#474751" stroke-width="0.8"/><path d="M0,45.1L2.5,47.7L1.1,49.4L0.9,51.6L2.3,51L3.1,51.7L2.8,53.7L4.8,55.6L3.5,56.2L2.9,58.4L4.4,61.2L6.1,66.5L3.6,67.3L3,68.2L3.5,69.5L3.1,72.4L2.1,72.4L0.2,72.2L0,72.6L0,45.1Z" fill="#2c2c34" stroke="#474751" stroke-width="0.8"/><path d="M0,72.6L0.2,72.2L2.1,72.4L2.1,72.4L1.8,74.3L2.4,77.5L1,80.4L2.9,82.2L5,82.7L7.8,85.4L8,88L7.4,88.9L6.8,94.3L5.1,94.3L0,92L0,72.6Z" fill="#2c2c34" stroke="#474751" stroke-width="0.8"/><path d="M22,54.5L21.5,50.7L23.3,47.8L23.2,45.6L28.4,40L29.4,35.4L31.2,33.8L34.3,34.7L37.1,33.3L37.9,31.6L43,28.5L44.3,26.4L50.4,23.6L54,22.6L55.7,23.9L59.9,23.9L59.4,27.2L60.2,30.3L63.9,34.7L64.1,37.9L71.7,39.5L71.5,44.1L70.1,46.1L66.9,46.7L65.6,49.6L63.3,50.4L57.6,50.2L54.5,49.7L52.4,50.8L49.5,50.3L38.1,50.6L38,54.4L38.9,59.4L34.4,57.7L31.3,57.9L29,59.6L26.1,58.2L24.9,56Z" fill="#2c2c34" stroke="#474751" stroke-width="0.8"/><path d="M236.9,88.6L234.8,89.3L230.6,89.1L225.6,88.4L223.2,89L222.2,90.6L220.1,90.8L217.5,89.4L210.2,92.7L207.2,92L206.3,92.5L204.3,96.5L199.4,95.2L194.7,94.5L190.5,92.1L185.1,89.9L181.6,92L179,95.3L178.4,99.9L174.2,99.6L169.8,98.5L165.9,101.9L162.4,108.1L161.7,106.1L161.4,103.2L158.4,101L156,97.7L155.5,95.3L152.3,91.9L152.9,89.9L152.2,87.1L152.7,82L154.3,80.8L157.6,74.1L163,73.6L164.2,71.9L165.3,72L167,73.5L175.2,71L178,68.4L181.4,66.1L180.8,63.8L182.6,63.2L189,63.6L195.1,60.5L199.9,53.2L203.2,50.5L207.4,49.4L208.1,52.3L211.9,56.4L211.9,59.1L210.8,61.9L211.2,64L213.5,65.9L218.5,68.8L222.1,71.4L222.2,73.6L226.6,77L229.3,79.9L231,83.9L235.9,86.5Z" fill="#2c2c34" stroke="#474751" stroke-width="0.8"/><path d="M178.4,99.9L178,103.9L176.1,107.4L174.8,111.5L174,117.3L174.3,121L173.2,123.3L173.1,125.7L172.3,127.8L168,131L165,134.3L162.1,140.7L162.4,146.1L160.7,148.2L156.9,151.4L153,155.6L150.6,154.4L150.2,152.5L146.6,152.5L144.3,155L142.6,154.3L140.2,152.1L138.2,153.2L135.5,156L130.2,149L135.2,145.4L132.7,141.1L134.9,139.4L139.3,138.6L139.9,135.7L143.4,138.9L149.2,139.1L151.2,136L152,131.7L151.3,126.5L148.2,122.7L151,115.1L149.4,113.8L144.5,114.3L142.7,110.9L143.2,108.1L151.4,108.3L156.7,110L161.9,111.6L162.4,108.1L165.9,101.9L169.8,98.5L174.2,99.6Z" fill="#2c2c34" stroke="#474751" stroke-width="0.8"/><path d="M131.4,108.1L134.5,107.7L138.5,108.5L142.3,107.7L143.2,108.1L142.7,110.9L144.5,114.3L149.4,113.8L151,115.1L148.2,122.7L151.3,126.5L152,131.7L151.2,136L149.2,139.1L143.4,138.9L139.9,135.7L139.3,138.6L134.9,139.4L132.7,141.1L135.2,145.4L130.2,149L123.4,142.4L119.1,137L115.1,130.2L115.3,128L116.7,125.9L118.3,121.2L119.7,116.3L121.9,115.9L131.4,116Z" fill="#2c2c34" stroke="#474751" stroke-width="0.8"/><path d="M120.7,107.9L131.4,108.1L131.4,116L121.9,115.9L119.7,116.3L118.4,115.3Z" fill="#2c2c34" stroke="#474751" stroke-width="0.8"/><path d="M259,177.8L261.7,179.5L264.3,180.6L268.5,181.7L272.2,183.7L275.3,186.7L277,192.3L275.9,194.1L274.6,199.6L275.8,205.1L273.8,207.5L271.8,213.7L275.2,215.5L255.3,221L255.9,225.9L251,226.8L247.2,229.5L246.4,231.9L244.1,232.4L238.4,238.1L234.8,242.5L232.5,242.7L230.4,241.9L223.1,241.1L221.9,240.6L221.8,240L219.3,238.5L215,238.1L209.6,239.7L205.4,235.4L200.9,229.8L201.2,208.2L214.9,208.3L214.3,206L215.3,203.5L214.2,200.3L214.9,197.1L214.2,195L216.5,195.2L216.8,197.3L219.9,197.1L224.1,197.7L226.3,200.8L231.5,201.7L235.5,199.6L237,203.1L242,204L244.5,206.9L247.2,210.6L252.2,210.6L251.6,203.4L249.8,204.6L245.2,202L243.5,200.8L244.3,194.1L245.4,186.2L244,183.3L245.8,179L247.6,178.2L256.4,177.1Z" fill="#2c2c34" stroke="#474751" stroke-width="0.8"/><path d="M272.2,183.7L278.7,185L280,186.8L282.2,189.9L284,199L282.2,204.1L284,212.8L286.3,212.7L288.7,214.9L291.4,219.8L292,228.5L289.2,230L287.1,234.7L282.9,230.5L282.4,225.7L283.8,222.5L283.4,219.8L280.8,218.1L279,218.7L275.2,215.5L271.8,213.7L273.8,207.5L275.8,205.1L274.6,199.6L275.9,194.1L277,192.3L275.3,186.7Z" fill="#2c2c34" stroke="#474751" stroke-width="0.8"/><path d="M266.6,300L266.2,298.4L265.6,295.8L266.8,287.8L265.1,282.7L262,272.6L268.9,264.6L270.6,259.6L271.6,259L272.3,254.8L271.3,252.8L271.5,247.6L272.8,242.8L272.8,234.1L269.4,231.9L266.3,231.4L264.9,229.7L261.8,228.3L256.4,228.4L255.9,225.9L255.3,221L275.2,215.5L279,218.7L280.8,218.1L283.4,219.8L283.8,222.5L282.4,225.7L282.9,230.5L287.1,234.7L289.2,230L292,228.5L291.4,219.8L288.7,214.9L286.3,212.7L284,212.8L282.2,204.1L284,199L284,199L289,198.4L296.8,200.3L298.6,199.5L303.1,199.3L305.5,197.3L309.4,197.4L316.6,194.8L321.8,190.9L322.8,193.9L322.6,200.6L323.4,206.5L323.6,217L324.8,220.3L322.8,225.2L320.3,229.9L316.1,234.2L310.1,236.8L302.7,240.1L295.3,247.5L292.8,248.8L288.2,253.7L285.5,255.3L285,260.3L288.1,265.6L289.4,269.7L289.5,271.9L290.6,271.5L290.4,278.5L289.4,281.8L290.9,283L289.9,286L287.2,288.6L281.8,291L273.9,294.9L271,297.6L271.5,300L266.6,300Z" fill="#2c2c34" stroke="#474751" stroke-width="0.8"/><path d="M260.2,300L260.4,299.8L261,297.6L262.9,297.1L266.2,298.4L266.6,300L260.2,300Z" fill="#2c2c34" stroke="#474751" stroke-width="0.8"/><path d="M142.6,154.3L140.2,155.7L139.2,157.4L139,160.3L137.3,161L135.5,156L138.2,153.2L140.2,152.1ZM138.2,163L140.9,162.1L142.8,162.2L145.1,161.4L164.5,161.5L166.1,166.4L168,170.4L169.5,172.5L172,176L176.3,175.5L178.5,174.5L182.1,175.5L183.1,173.8L184.7,170L188.8,169.7L189.2,168.6L192.5,168.5L191.9,170.9L199.9,170.9L200,175L201.3,177.6L200.4,181.6L200.9,185.7L203.1,188.1L202.7,196.1L204.3,195.5L207.2,195.6L211.2,194.6L214.2,195L214.9,197.1L214.2,200.3L215.3,203.5L214.3,206L214.9,208.3L201.2,208.2L200.9,229.8L205.4,235.4L209.6,239.7L197.6,242.5L181.7,241.5L177.2,238.2L150.6,238.5L149.6,239L145.7,235.9L141.4,235.7L137.5,236.8L134.4,238.1L133.7,233.8L134.6,227.8L136.9,221.6L137.3,218.7L139.4,212.6L140.9,209.8L144.7,205.4L146.8,202.5L147.5,197.5L147.2,193.7L145.2,191.3L143.4,187.3L141.8,183.3L142.2,181.9L144.2,179.3L142.2,172.9L140.9,168.5L137.6,164.3Z" fill="#2c2c34" stroke="#474751" stroke-width="0.8"/><path d="M257.2,138.8L257.6,141.3L259,142.8L259.1,145L257.4,146.3L254.9,149.8L252.5,152.2L249.8,152.5L249.4,144.5L247.7,141.6L251.7,142.1L253.7,138.3Z" fill="#2c2c34" stroke="#474751" stroke-width="0.8"/><path d="M382.3,205.4L384,208.2L385.7,212.7L386.7,220.8L388.4,224L387.8,227.2L386.6,229.2L384.4,225.2L383.1,227.3L384.4,232.3L383.8,235.2L382,236.8L381.6,242.6L379,250.7L375.8,260.3L371.7,273.6L369.2,283.6L366.3,291.9L360.9,293.6L355.2,296.7L351.4,294.8L346.2,292.2L344.4,288.4L344,282.1L341.7,276.4L341,271.3L342.2,266.2L345.2,265L345.3,262.6L348.4,257.3L349,252.9L347.5,249.6L346.2,245.2L345.7,238.9L348,235L348.9,230.7L352.1,230.5L355.8,229.1L358.2,227.8L361.1,227.7L364.8,223.9L370.2,219.7L372.2,216.3L371.3,213.4L374.1,214.2L377.7,209.5L377.8,205.5L380,202.5Z" fill="#2c2c34" stroke="#474751" stroke-width="0.8"/><path d="M296.3,27.3L295.6,24.6L298.4,14.6L299.1,10.1L301.1,8L306,6.8L309.3,2.9L313.1,10.9L314.9,17.1L318.5,20.5L327.4,26.9L331.1,30.7L334.6,34.6L336.7,36.9L339.9,39L337.9,40.6L335.1,40L332.9,37.8L330.2,33.9L327.3,31.7L325.6,29.4L319.9,26.7L315.4,26.6L313.8,25.2L310,26.8L306,23.7L303.9,28.8Z" fill="#2c2c34" stroke="#474751" stroke-width="0.8"/><path d="M400,16.2L399.7,17L399.5,19.4L393,22.2L382.5,25.4L376.6,30.2L373.7,30.5L371.8,30.1L367.9,32.9L363.8,34.2L358.3,34.6L356.6,35L355.2,36.8L353.4,37.2L352.4,39L349.2,38.8L347.1,39.7L342.6,39.4L340.9,35.4L341,31.8L340,29.8L338.7,24.8L336.8,22L338.1,21.6L337.4,18.5L338.2,17.2L337.9,14.2L340.8,12.1L340.1,9.2L341.9,5.8L344.6,7.6L346.4,7L353.9,6.8L355.1,7.5L361.5,8.2L364,7.8L365.6,10.1L368.7,9L373.4,1.7L376.8,0L400,0Z" fill="#2c2c34" stroke="#474751" stroke-width="0.8"/><path d="M376.8,0L373.4,1.7L368.7,9L365.6,10.1L364,7.8L361.5,8.2L355.1,7.5L353.9,6.8L346.4,7L344.6,7.6L341.9,5.8L340.1,9.2L340.8,12.1L337.9,14.2L337.1,11.3L335.1,9.3L334.6,6.5L331.2,4L328.8,0L376.8,0Z" fill="#2c2c34" stroke="#474751" stroke-width="0.8"/><path d="M370.8,70.3L352.3,90.1L343.7,90.4L337.9,95L333.7,95.1L331.9,97.2L327.4,97.2L324.8,95L318.8,97.7L316.8,100.5L312.5,100L311,99.2L309.5,99.4L307.4,99.3L299.1,93.7L294.5,93.7L292.3,91.6L292.3,87.9L288.9,86.8L285,79.6L282,78.1L280.9,75.4L277.5,72.2L273.5,71.7L275.7,67.9L279.2,67.8L280.2,65.8L280.1,59.8L282,52.8L285.2,50.9L285.8,48.2L288.6,43.1L292.6,39.8L295.2,33.1L296.3,27.3L303.9,28.8L306,23.7L310,26.8L313.8,25.2L315.4,26.6L319.9,26.7L325.6,29.4L327.3,31.7L330.2,33.9L332.9,37.8L335.1,40L332.8,43L330.6,46.1L331.1,48L331.2,50L334.9,50.1L336.5,49.6L337.9,50.8L336.5,53.2L338.9,56.9L341.3,60.1L343.8,62.4L365.3,70.3Z" fill="#2c2c34" stroke="#474751" stroke-width="0.8"/><path d="M335.1,40L337.9,40.6L339.9,39L341.5,41L341.3,43.8L337.5,45.4L340.3,47.3L337.9,50.8L336.5,49.6L334.9,50.1L331.2,50L331.1,48L330.6,46.1L332.8,43Z" fill="#2c2c34" stroke="#474751" stroke-width="0.8"/><path d="M378.4,47.6L378.3,47.7L378.3,50.5L378.3,57.2L378.3,60.7L375.4,64.7L370.8,70.3L365.3,70.3L343.8,62.4L341.3,60.1L338.9,56.9L336.5,53.2L337.9,50.8L340.3,47.3L342.5,48.5L343.8,51.3L346.7,54L350,54.1L356.2,52.4L363.3,51.6L369.1,49.5L372.3,49.1L374.7,47.8Z" fill="#2c2c34" stroke="#474751" stroke-width="0.8"/><path d="M279.7,129.2L266.4,129.7L259.2,129.6L256.9,130.4L253,132.4L251.4,131.7L251.4,126.8L253,124.3L253.3,119L254.7,116L257.2,112.5L259.7,110.8L261.8,108.5L259.2,107.6L259.6,99.9L262.3,98.1L266.5,99.6L271.8,98L276.4,98.1L280.4,95L283.5,99.6L284.3,102.9L287.2,110.4L284.8,115.2L281.6,119.5L279.7,122.2Z" fill="#2c2c34" stroke="#474751" stroke-width="0.8"/><path d="M256.9,130.4L259.5,134.1L259.1,137.9L257.2,138.8L253.7,138.3L251.7,142.1L247.7,141.6L248.4,138L249.3,137.5L249.5,133.6L251.4,131.7L253,132.4Z" fill="#2c2c34" stroke="#474751" stroke-width="0.8"/><path d="M259.6,99.9L253.8,95.5L252.3,92.7L248.6,94.1L245.6,93.7L243.8,94.8L240.9,94L236.9,88.6L235.9,86.5L231,83.9L229.3,79.9L226.6,77L222.2,73.6L222.1,71.4L218.5,68.8L214.1,66.2L216.1,65.5L218.3,64.2L220,58.3L221.8,55.2L226.5,54.3L227.7,56.1L231,60L232.8,60.6L235.2,59.4L239.9,59.6L240.8,61L247.4,61L247.6,59.6L251,58.4L251.6,56.4L254.1,55.1L259.6,59L263,58.3L266.3,53.5L269.9,49.8L269.3,45.8L267.7,43.8L271.7,43.5L272.1,42L275.2,42.5L274.4,47.4L275.2,52.2L278.6,54.8L279.3,57.1L279.2,60.4L280.1,60.6L280.2,65.8L279.2,67.8L275.7,67.9L273.5,71.7L277.5,72.2L280.9,75.4L282,78.1L285,79.6L288.9,86.8L284.4,91.1L280.4,95L276.4,98.1L271.8,98L266.5,99.6L262.3,98.1Z" fill="#2c2c34" stroke="#474751" stroke-width="0.8"/><path d="M259.1,176.8L257.9,177L256.3,177.3L254.5,177.5L252.6,177.8L250.7,178.1L249,178.4L247.4,178.6L246.9,178.8L247.2,179.5L247,180.2L246.7,180.8L246.2,181.5L246,181.7L245.5,182.3L245.1,182.7L244.2,183.3L243.6,183.7L243.6,184L244.6,185.6L245,186.7L245.1,187.7L245.1,188.3L245.1,189.5L245.1,190.9L245,191.5L245.3,192.5L245.2,193.3L244.6,194.2L244.4,195.1L244.1,196.2L243.7,197.9L243.4,198.7L243.5,199.3L243.7,199.7L243.9,200.2L244.2,200.9L244.6,201.4L244.8,201.6L246.1,202.5L246.6,203L247.4,203.9L248,204.5L248.8,204.7L249.8,204.9L250.4,205.1L250.8,205L250.9,204.8L250.9,204.3L250.8,204L250.9,203.7L251.2,203.5L252.1,203.5L252.5,203.3L252.8,203.2L252.8,204.2L252.8,205.2L252.8,206.4L252.8,207.7L252.8,208.9L252.8,210L252.8,211.4L252.8,211.6L252.7,211.9L252.3,212L251.9,211.7L251.8,211.4L251.7,210.9L251.5,210.7L251.2,210.6L250.7,210.7L250.1,211.1L249.2,211.4L248.9,211.6L248.3,211.6L247.7,211.4L247.2,211L247.1,210.4L246.7,209.7L246.1,208.8L245.8,208.4L245.4,208L245.1,207.9L244.6,207.8L244.4,207.2L244.1,206.4L244,206.1L243.7,205.7L243.4,205.4L242.6,205.1L241.5,204.7L240.1,204.1L239.4,204.1L238.7,204L238.2,203.7L238,203.5L237.7,202.7L237.2,201.8L236,200.7L235.8,199.5L235.5,199.4L235.1,199.5L234.8,199.6L234.6,199.9L234.3,201L234.1,201.5L234,201.7L233.7,201.8L233.3,202L232.7,202L231.8,202L230.7,201.8L230.1,201.7L228.5,201.5L228.1,201.5L227.4,201.2L226.9,201L225.4,200.5L224.7,200.5L224.4,200.2L224.1,200L223.6,199.7L223.5,199.2L223.2,198.2L223.3,197.7L223.5,197.1L223.2,196.9L223,196.9L222.6,197.1L221.8,197.2L220.6,197.5L220.1,197.7L219.6,197.8L219.2,197.9L218.2,198.4L217.9,198.5L217.3,198.3L217,198L217.3,197.6L217.4,197.2L217.2,196.4L216.9,196L216,195.7L215.7,195.7L215.5,195.2L215.3,194.8L214.8,194.7L214.6,194.6L214.3,194.8L214.2,195.1L214.2,195.4L213.7,195.6L212.8,195.6L211.9,195.4L211.3,195.3L210.8,195.3L209.3,196L208.7,196.1L207,196L206.1,195.9L205.3,195.9L204.9,196.1L204.3,196.6L203.7,196.8L203.5,196.8L203.4,196.6L203.2,196.3L203.1,195.6L202.8,194.8L203,194.4L203.5,194.1L203.7,193.4L203.5,192.5L203.5,191.9L203.7,191.5L203.5,190.6L203,189.1L202.3,187.9L201.3,187L200.7,186.1L200.5,185.3L200.6,183.3L200.8,181.5L201.1,180.1L201,177.8L200.4,176.3L200.2,174.7L200.6,172.9L200.6,171.7L200.4,171.1L200.2,171L200,171L198.5,170.9L196.4,170.8L194.5,170.8L192.6,170.8L192.2,170.6L192.1,170.1L192.1,169.7L192.5,168.5L192.4,168.4L191.7,168.4L189.8,168.6L188.5,168.8L187.7,168.9L186.3,169.2L185.5,169.9L185.2,170.8L185.2,171.5L185.2,172.1L184.8,172.6L184.4,173.3L184.4,173.6L184.2,175.3L182.9,175.6L181.6,175.6L181.3,175.5L179.7,175.1L179.1,175.1L178.6,175.4L177.6,175.6L176.7,175.7L175.8,176.2L175.5,176.3L174.9,176L174,176L173.1,176.2L172.7,176.2L172.4,176.1L171.6,174.8L170.5,173.1L169.9,172L169.7,171.7L169.3,171.3L168.8,170.6L168.6,170L168.7,169.3L168.4,168.5L167.7,167.4L167.2,166.4L167,165.4L166.9,164.6L167,163.9L166.9,163.4L166.5,163.1L166.3,162.7L166.2,162.5L165.9,162.1L165.2,161.7L164.4,161.5L162.7,161.5L160.5,161.4L158.6,161.5L156.4,161.5L154.1,161.5L153.5,161.6L151.8,161.6L150.5,161.5L150,161.5L149.1,161.4L147.7,161.4L146.9,161.4L145.1,161.4L144.9,161.4L144.7,161.6L143.9,161.4L143.1,161.5L142.7,161.3L141.7,161.4L141.3,161.5L140.6,162.1L139.5,162.4L139.1,162.3L138.8,162.3L138.2,161.6L137.7,161.1L137.5,160.8L137.8,160.7L138.6,160.5L139.3,160.5L139.4,160.3L139.5,158.5L139.5,156.7L139.3,156.5L139.1,156.4L139.1,156.2L139.4,156L139.9,155.7L140,155.6L140.5,155.1L141.5,154L142.3,153.7L143,153.5L143.1,153.3L143.2,153.1L143.6,153.2L143.7,153.3L143.8,153.5L144.1,153.8L144.6,154.2L145.1,154.6L145.4,154.7L145.8,154.5L146.3,154.1L147,153.9L147.2,153.7L147.3,153.2L147.3,152.7L147.4,152.2L147.5,152.1L147.8,152L148.2,152.2L148.5,152.4L148.8,152.4L149.1,152.2L149.5,151.9L150.1,151.8L150.7,151.5L151.3,151.2L151.6,151.1L151.9,151.6L152.1,151.9L152.2,152.1L151.9,152.5L151.6,153L151.9,153.7L151.9,154.3L151.9,154.6L152.1,154.8L152.3,154.9L152.5,154.8L152.9,154.8L153.4,155L153.9,155L154.3,154.7L155.2,153.8L156.5,152.2L157.5,151.2L158.4,150.8L158.9,150.3L159.2,149.8L159.7,149.4L160.7,149.1L161.5,148.7L162.3,147.6L163.3,145.7L163.6,143.9L163.8,142.8L163.7,139.1L163.6,137.9L163.8,137.2L164.1,136.8L165.2,135.8L165.9,135L166.4,134.1L167.5,131.9L167.9,131.3L168.1,131L168.7,130.4L169.6,129.9L170.7,129.5L172.4,128L173.8,126.5L173.6,124.7L173.9,123.3L174.7,121.4L175,119.4L174.7,117.3L174.8,115.6L175.5,113.6L175.8,112.9L175.9,111.6L175.9,109.7L176.8,107.1L177.7,105.5L178.7,103.7L179,102.7L179.5,101.2L179.5,100.1L179.4,98.8L179.6,97L179.5,95.9L179.2,95L179.3,94.4L180,94.2L180.9,93.2L182.4,90.8L184.1,89.6L185.3,89.3L186.5,89.3L187.3,89.5L187.7,89.9L188.6,90.5L190.1,91.2L191.1,92.2L191.7,93.1L192.2,93.6L192.8,93.8L193.8,93.7L194.8,94L196,94.5L196.6,94.7L196.9,94.5L197.4,94.6L198.6,95.1L199.6,94.8L201.1,95L204.5,95.8L204.6,95.7L204.7,95.6L205,95.3L205.7,93.7L206.3,92.8L206.6,92.4L207.4,91.9L208.2,91.8L209,91.8L209.7,92L210.3,92.3L211,92.3L211.7,92.1L212.7,91.6L213.8,91.3L214.7,91L216.3,90.4L216.9,90.1L217.7,90L219.8,90.5L221.2,90.2L221.8,90.3L223,89.9L223.2,89.7L224,88.4L224.8,88L226,88.2L226.7,88.4L229,89L232,89.5L232.9,89.6L233.3,89.7L233.6,89.6L234.6,88.9L234.9,88.8L235.2,88.8L237.1,89.4L237.3,89.8L237.7,90.3L238.8,91.1L239.2,91.6L239.5,92L239.6,92.4L240,92.7L240.5,92.9L240.9,93.2L241.2,93.5L241.5,93.9L242.3,94.4L242.6,94.4L243.1,94.4L243.4,94.6L243.8,94.5L244.5,94.2L245.2,93.7L245.8,93.3L247.2,93.5L248,93.7L248.6,94.1L249,94.1L250.1,93.4L250.6,92.7L251.2,92.5L252,92.8L252.7,93.5L253.3,94.5L253.7,94.9L254.3,95.5L255.4,96.8L256.9,97.4L257.5,97.8L257.7,98.1L257.8,98.5L257.8,99L258,99.1L258.4,99.1L258.7,99L259.1,99.1L259.4,99.5L259.5,99.7L259.6,100L260,100.2L260.1,100.6L259.8,101L259.6,101.4L259.2,102.2L259.1,103L259.3,103.2L259.5,103.5L259.6,103.7L259.7,103.9L259.7,104.2L259.2,105.4L258.9,106.3L258.9,106.8L259.6,107.2L260.4,107.2L260.7,107.4L261,107.7L261.2,107.9L261.6,107.9L261.9,108L262,108.3L262.2,108.5L262.5,108.8L262.4,109.2L262.4,109.5L261.7,110.3L260.3,111.9L257.3,114.8L257.3,114.8L256.2,115.2L255.7,115.7L255.3,116.5L254.5,117.3L253.8,117.5L253.7,117.7L253.6,118.5L253.7,119.7L253.4,120.2L252.9,121.2L252.7,121.8L252.5,122L252.3,122.3L252.2,123.3L252.1,123.7L251.7,125.8L251.8,126.4L251.6,127.5L251.5,128.1L251.5,128.7L251.3,129.3L251.3,130.3L251.4,131.8L251.4,132L251.1,132.2L250.6,132.6L250.2,132.8L249.9,132.9L249.3,133.6L248.9,134.2L248.5,134.8L248.4,135.1L248.5,135.9L248.5,136.9L248.5,137.3L248.3,137.6L247.5,138.1L247,138.5L246.8,138.7L246.6,139L246.9,139.7L246.9,140.2L247.1,140.5L247.7,140.8L247.7,141L247.7,141.3L248,141.6L248.6,142.3L249,143L249.1,143.5L249,144.4L248.9,145L249,145.7L249,147.1L249,148.1L249,148.6L249.8,149.8L250.1,151.1L250.2,152.1L250.2,152.4L250,153.6L249.7,154.7L249.7,155.1L249.8,155.6L250.3,156.9L250.7,157.8L250.9,158.4L251.1,159L251.5,160L251.6,160.5L251.5,160.9L250.8,162.1L250.7,162.5L250.9,163.5L251.1,164.4L251.5,164.9L252.2,166.4L252.8,166.9L253.9,167.6L254.8,168.4L255.2,168.8L255.5,169.2L256.2,170.3L256.6,171.2L256.8,172L257.3,173.1L257.8,174.1L258.4,175.4L258.9,176.2Z" fill="#b8e653" stroke="#0c0e06" stroke-width="1"/></svg>
