<svg xmlns="http://www.w3.org/2000/svg" viewBox="0 0 300 300"><path fill="#e8e8ea" d="M272.8,205.8L270.5,206.2L267.1,206.7L263.3,207.3L259.4,207.9L255.5,208.5L251.9,209L248.6,209.5L247.6,209.8L248.1,211.3L247.8,212.8L247.2,214L246.2,215.4L245.7,216L244.6,217.1L243.7,217.9L241.9,219.3L240.8,220L240.8,220.7L242.7,224L243.6,226.3L243.9,228.4L243.9,229.7L243.8,232.2L243.8,235.1L243.6,236.3L244.2,238.4L244.1,240L242.7,241.9L242.4,243.7L241.7,246.2L240.8,249.6L240.2,251.4L240.6,252.5L240.9,253.3L241.2,254.4L241.9,256L242.7,256.9L243.2,257.3L245.8,259.3L246.9,260.2L248.6,262.2L249.9,263.4L251.6,263.7L253.6,264.2L254.8,264.6L255.6,264.4L255.8,263.9L255.8,263L255.7,262.3L255.9,261.7L256.6,261.4L258.4,261.3L259.2,260.8L259.8,260.7L259.8,262.8L259.8,264.8L259.8,267.3L259.8,270.1L259.8,272.4L259.8,274.9L259.8,277.7L259.8,278L259.5,278.7L258.8,278.9L257.9,278.4L257.8,277.8L257.6,276.7L257.1,276.2L256.5,276L255.5,276.3L254.2,277.1L252.4,277.7L251.7,278.1L250.5,278.1L249.2,277.7L248.2,276.8L247.9,275.5L247.1,274.2L245.9,272.3L245.3,271.5L244.5,270.6L243.7,270.5L242.8,270.2L242.3,268.9L241.8,267.3L241.5,266.6L241,265.8L240.2,265.3L238.6,264.6L236.2,263.7L233.4,262.5L232,262.5L230.5,262.3L229.5,261.7L229,261.3L228.3,259.7L227.5,257.8L225,255.5L224.4,253.1L223.9,252.7L223,252.9L222.3,253.2L222.1,253.9L221.4,256.1L221,257.2L220.7,257.4L220.2,257.8L219.3,258.1L218,258.2L216.2,258.2L213.9,257.8L212.7,257.6L209.3,257.2L208.4,257L207,256.5L206.1,256.1L202.9,255L201.4,255.1L200.7,254.4L200.1,254L199.2,253.3L198.8,252.4L198.2,250.3L198.4,249.2L198.8,247.9L198.3,247.6L197.8,247.6L196.9,248L195.4,248.3L192.7,248.8L191.8,249.1L190.7,249.3L189.9,249.6L187.8,250.7L187.1,250.9L185.9,250.4L185.3,249.8L185.9,249.1L186.2,248.2L185.8,246.5L185.1,245.6L183.3,245.1L182.6,245L182.3,244L181.8,243.1L180.8,243L180.3,242.9L179.8,243.1L179.5,243.9L179.4,244.4L178.5,244.8L176.6,244.7L174.8,244.3L173.4,244.2L172.6,244.3L169.3,245.7L168.2,245.9L164.6,245.8L162.6,245.5L161.1,245.4L160.1,245.9L158.9,246.9L157.8,247.4L157.3,247.4L157,246.9L156.6,246.3L156.5,244.8L155.9,243.2L156.3,242.3L157.3,241.6L157.7,240.4L157.3,238.4L157.3,237.1L157.6,236.3L157.2,234.4L156.2,231.3L154.7,228.9L152.8,227L151.5,225.2L151,223.4L151.2,219.3L151.7,215.6L152.2,212.7L152.1,207.9L150.8,204.7L150.5,201.3L151.2,197.7L151.4,195.2L150.9,193.9L150.5,193.7L150.1,193.6L146.8,193.5L142.5,193.3L138.6,193.3L134.5,193.2L133.8,192.7L133.5,191.9L133.5,191.1L134.4,188.5L134.3,188.3L132.8,188.2L128.8,188.7L126.2,189.1L124.5,189.2L121.6,189.9L119.8,191.4L119.2,193.2L119.2,194.8L119.1,195.9L118.3,197.1L117.6,198.4L117.6,199.1L117.2,202.7L114.5,203.2L111.8,203.2L111.2,203.1L107.8,202.3L106.6,202.3L105.5,202.7L103.5,203.2L101.6,203.5L99.6,204.5L99.1,204.6L97.7,204.1L95.9,204.1L94,204.4L93.2,204.5L92.6,204.2L90.9,201.5L88.6,198L87.4,195.7L86.9,195.2L86.1,194.4L85.1,192.9L84.6,191.6L84.8,190.2L84.2,188.5L82.8,186.3L81.8,184.2L81.3,182.1L81.2,180.4L81.4,179L81.2,177.9L80.4,177.2L80,176.4L79.6,176L79,175.2L77.5,174.3L75.9,173.8L72.5,173.8L67.9,173.8L63.8,173.9L59.2,173.9L54.6,174L53.3,174.2L49.8,174.2L47,174L45.9,173.8L44.1,173.7L41.2,173.7L39.6,173.8L35.8,173.8L35.5,173.8L34.9,174.1L33.3,173.7L31.7,173.8L30.8,173.4L28.8,173.7L27.9,174L26.4,175.1L24.1,175.7L23.3,175.7L22.7,175.5L21.4,174.2L20.4,173L20,172.4L20.6,172.2L22.4,171.9L23.7,171.8L24,171.5L24.2,167.8L24.2,164L23.7,163.5L23.3,163.2L23.2,163L23.9,162.5L24.9,161.9L25.2,161.7L26.3,160.7L28.4,158.4L30,157.8L31.5,157.2L31.7,157L31.9,156.5L32.6,156.6L32.8,156.8L33.2,157.2L33.7,157.9L34.8,158.7L35.9,159.6L36.4,159.7L37.2,159.3L38.3,158.6L39.7,158.2L40.1,157.7L40.3,156.7L40.4,155.7L40.5,154.5L40.8,154.3L41.4,154.2L42.3,154.6L42.8,154.9L43.6,154.9L44.1,154.6L45,154L46.2,153.8L47.4,153.2L48.7,152.4L49.3,152.4L49.9,153.3L50.4,154L50.5,154.4L50,155.2L49.4,156.3L49.9,157.6L50,158.9L50,159.6L50.4,160L50.7,160.1L51.1,159.9L52,160L53,160.4L54,160.3L55,159.9L56.8,157.9L59.5,154.6L61.6,152.5L63.4,151.6L64.6,150.6L65.2,149.5L66.2,148.7L68.3,148.1L69.9,147.4L71.5,145.1L73.7,141L74.3,137.3L74.6,135L74.4,127.3L74.3,124.8L74.6,123.4L75.4,122.4L77.5,120.4L79,118.8L80.2,116.9L82.3,112.5L83.2,111L83.6,110.4L85,109.2L86.8,108.2L89.1,107.3L92.7,104.3L95.6,101.2L95.2,97.5L95.8,94.4L97.4,90.5L97.9,86.4L97.4,82L97.6,78.4L99.1,74.3L99.7,72.7L99.9,70.2L99.9,66.2L101.8,60.7L103.6,57.5L105.6,53.8L106.4,51.6L107.4,48.6L107.3,46.2L107.1,43.5L107.6,39.7L107.4,37.5L106.7,35.6L107,34.3L108.5,33.8L110.3,31.9L113.5,26.9L117,24.4L119.4,23.7L121.9,23.7L123.6,24.2L124.3,25L126.3,26.2L129.3,27.7L131.6,29.7L132.8,31.7L133.8,32.8L135,33.1L137,33L139.2,33.4L141.6,34.5L143,34.9L143.5,34.7L144.6,34.8L147.2,35.7L149.2,35.2L152.2,35.6L159.3,37.2L159.6,37L159.8,36.9L160.4,36.2L161.9,33L163.2,31L163.8,30.2L165.3,29.2L167,28.9L168.7,29L170.1,29.5L171.4,30L172.8,30L174.3,29.5L176.4,28.5L178.7,27.9L180.7,27.2L183.9,26L185.1,25.5L186.8,25.2L191.2,26.3L194.1,25.6L195.3,25.8L197.8,25.1L198.3,24.5L199.9,21.9L201.6,21.1L204.1,21.5L205.6,21.9L210.4,23.1L216.7,24.2L218.5,24.4L219.3,24.5L219.9,24.4L222,22.9L222.6,22.7L223.2,22.7L227.2,23.9L227.7,24.9L228.4,25.8L230.8,27.5L231.5,28.4L232.1,29.5L232.4,30.3L233.2,30.9L234.2,31.3L235.1,31.8L235.6,32.5L236.4,33.3L238,34.3L238.7,34.3L239.6,34.4L240.3,34.7L241.2,34.6L242.5,34L244.1,32.9L245.2,32.2L248.1,32.4L249.8,33L251,33.8L252,33.7L254.2,32.3L255.4,30.7L256.5,30.4L258.2,31L259.6,32.5L260.9,34.6L261.7,35.4L262.9,36.7L265.3,39.3L268.4,40.7L269.5,41.3L269.9,42L270.2,42.9L270.2,43.8L270.6,44.2L271.5,44.1L272.1,43.9L272.9,44.2L273.5,44.9L273.8,45.5L274.1,46L274.8,46.4L275,47.2L274.5,48.1L273.9,48.9L273.2,50.5L272.9,52.2L273.3,52.7L273.8,53.2L274.1,53.7L274.2,54.2L274.2,54.8L273.1,57.1L272.5,59.2L272.5,60.2L273.9,60.9L275.7,60.9L276.3,61.4L276.9,62.1L277.3,62.5L278.1,62.5L278.7,62.7L278.9,63.2L279.5,63.8L280,64.4L279.8,65.2L279.7,65.8L278.4,67.5L275.5,70.7L269.1,76.8L269.1,76.8L267,77.5L265.9,78.6L265.1,80.4L263.3,81.9L261.8,82.5L261.7,82.9L261.6,84.5L261.7,86.9L261,88L260.1,90.1L259.6,91.4L259.2,91.7L258.7,92.3L258.5,94.5L258.3,95.2L257.6,99.7L257.8,101L257.3,103.1L257.2,104.4L257,105.8L256.6,107L256.7,109L256.9,112.2L256.8,112.6L256.3,112.9L255.4,113.7L254.5,114.3L253.8,114.4L252.6,115.8L251.7,117.1L250.9,118.4L250.7,119.1L250.9,120.8L251,122.8L250.8,123.6L250.4,124.2L248.8,125.2L247.8,126L247.3,126.4L247,127.1L247.5,128.5L247.5,129.6L247.9,130.3L249.2,130.8L249.2,131.3L249.2,131.9L249.9,132.6L251.1,134L252,135.3L252.1,136.5L251.9,138.4L251.8,139.6L251.9,141.1L251.9,144L251.9,146L252,147.1L253.5,149.6L254.1,152.4L254.5,154.4L254.5,155.1L254,157.4L253.4,159.7L253.4,160.6L253.6,161.7L254.7,164.4L255.4,166.3L255.8,167.5L256.4,168.8L257.1,170.9L257.3,171.9L257.1,172.6L255.6,175.2L255.5,176L255.9,178L256.3,180L257,181.1L258.6,184.1L259.9,185.2L262.1,186.7L264,188.2L264.8,189L265.5,189.9L266.9,192.2L267.7,194.1L268.2,195.7L269.2,198L270.2,200.1L271.5,202.8L272.4,204.6Z"/></svg>
