<svg xmlns="http://www.w3.org/2000/svg" viewBox="0 0 300 300"><path fill="#e8e8ea" d="M214.8,109.3L215.7,109.5L216.2,110.5L215.4,113.4L216,115.3L217.7,116.9L219.3,117.5L221,117.9L226.6,118.9L228.9,120L232,123.5L235.9,126.7L236.8,128.3L236.6,129.9L235.5,131.7L235.7,132.5L237.4,134.4L239.5,136.2L243.2,138.4L249.7,141.7L252.7,143.9L253.7,145.6L255.3,147.4L257.6,149L259.1,150.3L258.1,154L258.4,155.2L259,156.2L260.3,157.6L260.9,159.5L262.2,161.8L263.8,162.8L266.4,163.2L267.9,164.3L270.8,166.1L273.7,167.7L274.8,168.7L275.6,169.7L276.2,170.8L276.5,172L276.6,174.4L277.1,177.5L278.6,179.6L280,181.1L274.2,179.3L273.4,179.3L272.4,179.6L269.3,181.8L268.4,182L267.3,181.9L264.6,181.6L255.4,179.9L248.3,178.2L246.2,177.6L242.4,177L239.9,178.2L237.6,182L236.8,182.8L233.2,184L231.4,183.6L227.2,184.7L220.6,183.1L218.2,183.4L216.4,184.2L211.7,186L208.8,187L205.5,187.9L202.3,189.3L200.1,190.1L198,190.1L196.1,189.3L194.1,188.6L191.6,188.5L189.1,188.8L186.8,190.4L186,191.5L184.1,194.5L181.9,199.2L181,200.2L180.7,200.3L180.2,200.7L169.9,198.3L165.5,197.7L162.4,198.5L158.7,197.1L157,196.9L156.3,197.3L154.2,196.7L150.8,195.1L147.5,194.4L144.6,194.6L142.8,194.1L141.4,192.5L139.5,189.6L136.2,186.7L131.7,184.4L128.9,182.7L127.7,181.5L125.4,180.8L121.6,180.7L118.1,181.9L112.9,185.5L108.2,192.9L105.6,195.7L103.4,196.5L102.9,198.2L104,201.1L104.2,204.3L103.5,209.8L103.8,213.9L102.6,213.2L101.5,211.3L101,211L97.9,211.8L96.3,212.6L95.4,213.3L94.8,213.4L93.8,212.4L93,212.2L91.7,212.4L90.5,212.4L89.7,212.3L89.1,212.4L87.7,211.8L82.3,210.2L81.3,209.7L80.3,209.7L77.5,211.1L76,211.5L71.5,212.3L66.8,212.7L65,212.7L63.7,213.3L62.9,214.2L62.4,216.1L61.4,219.3L61,220.2L61.1,221.5L60.8,223.6L60.7,225.6L60.8,226.9L59.5,229.5L57.9,232.7L56.5,235.4L55.1,238.1L54.2,236.3L53.6,234.1L53.3,231.5L53.5,230.9L53.1,230.1L53.1,230L52.6,228L53.1,226.7L52.8,225.3L51.6,224L50.6,222.9L50,222L49.5,221.6L48.4,221.4L46.9,220.9L45,218.9L43,216.9L40.6,214.3L38.6,212.1L36.2,209.4L34,206.9L32.6,204.5L32.1,203.1L32.8,202.9L33.7,202.9L34.1,202.7L34.1,202L33.1,200.1L32.7,197.7L31.8,196.2L29.3,193.9L26.8,192.2L26,191.3L25.6,190L24.6,182L24.2,179.7L23.5,178.7L22.9,178.2L22.7,177.7L22.7,176.2L23.1,174.9L23,174.4L23.8,173.3L23.8,165.9L23.4,165.5L23,164.9L22.2,164.9L21.4,164.8L20.6,163.7L20,162.4L20.2,161.4L20.9,160.6L21.7,159.9L22.6,159.3L25.4,158.1L26.2,157.5L26.7,156.8L27,155.8L28.7,152L31,148.1L32.1,147.3L33.1,144.8L34.6,141.7L35.2,140.2L35.6,138.8L36.3,137.6L39,135.8L41,132.4L43.2,132.6L45.5,133.1L48.4,133.4L50.6,132.7L52,131.4L55.3,130.4L59,129.2L59.5,127.4L60.7,126.4L61.9,125.6L62.4,125.5L62.5,126.1L63.2,128L64.9,129.8L67.2,131.9L67.8,131.7L69.3,130.2L73,129.2L73.8,128.8L76.4,126.6L79.5,125.1L80.3,125L81.4,124.6L84.5,123.1L86.8,123.3L90.4,123L96.3,122.3L100.7,122.1L102.8,121.8L103.4,121.5L104.2,119.4L104.9,118.8L106.5,117.8L109.7,114.6L111.8,111.8L112.4,110.9L112.4,110.8L112.9,110.6L113.7,109.5L112.9,108.3L109.3,105.8L109.3,105.5L109.1,105.1L109.3,104.8L110.7,103.7L112.6,102.6L114.5,102.2L119.6,102.2L124,102L125,102.1L128.4,101.5L130.7,101L133.1,99.8L138.5,99.9L143,96.9L144.3,96.4L144.8,95.9L145.1,95.4L147.2,94.2L149.5,91.8L151.3,89.6L151.8,88L157,82.7L158.8,82.8L159.6,82.1L161.7,78.6L162.2,77.9L163.2,77.7L164.4,77.3L165.3,76.3L166.2,74.7L166.2,72.8L165.8,71.2L165.8,70.5L166.3,69.8L167.1,69.1L171,67.2L172,66.3L172.6,65.4L173.7,65.3L174.9,65.3L175.6,64.8L176.4,64L179.1,62.8L181.6,61.9L184.2,62.2L186.3,62.7L188.1,63.3L188.9,63.4L190.4,66L191,66.9L196.9,72.8L198,74.3L200.9,78.6L202.7,81.6L204.7,85.8L205,88.1L204.7,90L204.2,95.6L203.7,97.2L201.1,100.2L201.1,101.5L201.6,102.6L202.4,103.1L202.9,103.7L202.6,106.2L203.4,107.3L205.4,107.9L210.2,108.4L212.7,108.8Z"/></svg>
