<svg xmlns="http://www.w3.org/2000/svg" viewBox="0 0 400 300"><path d="M306.2,300L302.5,299L298.7,297.4L294.7,294.9L289.5,282.7L283.9,277.2L282,271.6L282.9,266.6L281.2,257.7L285.2,257.2L288.7,253.7L292.4,248.7L294.8,246.6L294.7,243.5L292.6,241.3L292.1,237.5L294.8,236.3L295.4,230.6L291.6,225.2L295,224L305.5,224.1L325.2,223.4L325.2,223.4L326.8,224.5L361.7,244.1L362.4,249.7L376.2,259.4L371.8,271.3L372.3,276.8L378.5,280.3L378.8,282.8L376.2,288.7L376.7,291.7L376.1,296.3L378.1,300L306.2,300Z" fill="#2c2c34" stroke="#474751" stroke-width="0.8"/><path d="M208.6,300L209.9,294.6L208,290.8L207.8,284.7L196.1,284.8L197,281.3L192,281.3L191.5,283L185.6,283.4L183.2,289.1L181.7,291.5L176.4,290.1L173.2,291.5L166.8,292.3L163.1,287.2L160.9,284L158.1,278.2L155.8,271L127.3,270.9L123.9,272L121.2,271.8L117.2,273.1L115.8,270.1L118.3,269.1L118.6,264.9L120.2,262.4L123.7,260.4L126.2,261.4L129.5,257.7L134.8,257.8L135.3,260.5L139,262.2L144.6,256.2L150.2,251.4L152.7,248.3L152.3,240.4L156.5,231L161,226.1L167.3,221.4L168.4,218.3L168.7,214.8L170.2,211.5L169.7,206L170.9,197.5L172.8,191.5L175.7,186.3L176.3,180.5L177.1,173.7L180.9,168.8L186,165.7L194,169L200.1,172.6L207.2,173.5L214.3,175.4L217.2,169.6L218.5,168.8L223,169.8L233.7,165L237.5,167L240.6,166.7L242,164.4L245.6,163.5L252.9,164.5L259.1,164.8L262.2,163.7L268.1,171.7L272.4,172.9L275,171.3L279.4,171.9L284.8,169.9L287.1,174L295.6,180.4L295,191.7L298.9,193L295.8,196.4L292.1,199L288.4,204L286.3,208.5L285.8,216.2L283.6,219.9L283.5,227.2L280.7,229.9L280.4,235.6L279,236.4L278.1,241.6L280.6,246L281.2,257.7L281.2,257.7L282.9,266.6L282,271.6L283.9,277.2L289.5,282.7L294.7,294.9L290.9,293.9L277.9,295.6L275.3,296.7L273.9,300L208.6,300Z" fill="#2c2c34" stroke="#474751" stroke-width="0.8"/><path d="M400,229.6L399.2,230.5L399.2,230.5L393.5,222.5L393.4,187.4L400,178.8L400,229.6Z" fill="#2c2c34" stroke="#474751" stroke-width="0.8"/><path d="M400,178.8L393.4,187.4L393.5,222.5L399.2,230.5L392.4,234.3L390.1,238.3L386.5,239.1L385.1,245.9L382,249.7L380.1,256.2L376.2,259.4L376.2,259.4L362.4,249.7L361.7,244.1L326.8,224.5L325.2,223.4L325.1,213.2L327.8,209.3L332.6,202.9L336.1,195.9L331.8,184.8L330.7,180L326.1,173.3L332.1,167.5L338.6,161.1L343.6,162.7L343.6,168.2L346.9,171.3L353.6,171.3L365.8,179.5L368.8,179.6L371.1,179.4L373.2,180.5L379.7,181.3L382.5,177.2L391.3,173.2L395.2,176.5L400,176.5L400,178.8Z" fill="#2c2c34" stroke="#474751" stroke-width="0.8"/><path d="M354.7,0L356.8,7L354.7,8.9L356.1,19.4L359.6,31.6L363.3,34.1L368.6,37.9L363.7,43.7L356.6,45.3L353.6,48.4L352.6,55.1L348.5,69.8L349.5,73.8L348,82.3L344.1,92.1L338.2,96.9L334.1,104.5L333.1,108.5L328.6,111.2L325.7,121.5L325.9,130.2L325.7,122.6L324.4,122.4L324.6,117.6L323.4,114.2L318.5,110.3L317.3,103.3L318.5,96L314,95.3L313.3,97.5L307.5,98L309.9,100.9L310.7,106.8L305.4,112.2L300.6,119.2L295.6,120.3L287.5,114.5L283.9,116.6L282.9,119.4L277.9,121.3L277.6,123.3L268,123.3L266.7,121.3L259.7,120.9L256.3,122.6L253.6,121.8L248.6,116.1L247,113.4L240,114.7L237.4,119.2L234.9,128L231.6,129.8L228.6,130.9L235.2,134.7L235.2,134.7L227.8,130.4L224.5,127.6L223.9,124.6L225.4,120.5L225.4,116.5L219.9,110.4L218.8,106.2L218.9,103.8L215.4,100.9L215.2,95.2L213.2,91.4L209.8,92L210.8,88.3L213.3,84.2L212.2,80.1L215.4,77.1L213.4,74.7L215.9,68.6L220.3,61.2L228.6,61.9L228.2,21.8L228.3,17.5L239.4,17.4L239.4,0L354.7,0Z" fill="#2c2c34" stroke="#474751" stroke-width="0.8"/><path d="M185.7,0L189.7,2.1L228.2,21.8L228.2,21.8L228.6,61.9L220.3,61.2L215.9,68.6L213.4,74.7L215.4,77.1L212.2,80.1L213.3,84.2L210.8,88.3L209.8,92L213.2,91.4L215.2,95.2L215.4,100.9L218.9,103.8L218.8,106.2L212.7,107.9L207.8,111.8L200.8,122.5L191.8,127L182.4,126.4L179.7,127.3L180.7,130.8L175.7,134.2L171.6,138L159.4,141.7L157,139.5L155.4,139.3L153.6,141.8L145.7,142.5L147.2,139.9L144.2,133.2L142.8,129.1L138.6,127.5L132.9,121.8L135,117.2L139.4,118.2L142.1,117.5L147.5,117.6L142.3,108.7L142.6,102.1L142,95.6L138.1,89.3L139.1,84.6L132.9,84.4L132.9,78L128.9,74.3L133.1,61.2L145.4,51.7L145.9,38.6L149.6,17.9L151.7,13.5L147.7,10L147.5,6.7L143.9,4L143.3,0L185.7,0Z" fill="#2c2c34" stroke="#474751" stroke-width="0.8"/><path d="M0,0.1L16,11.2L18.3,16L24.3,19L28.8,20.6L28.9,27.1L39.6,26.1L39.6,49.5L34.3,56.2L33.5,62.3L24.9,63.9L11.8,64.8L8.2,68.3L2.1,68.7L0,68.7L0,0.1Z" fill="#2c2c34" stroke="#474751" stroke-width="0.8"/><path d="M24.4,153.8L16.4,154.9L14,148.3L14.5,125.9L12.5,123.9L12.2,119.1L8.8,115.7L5.9,112.8L7.1,107.6L10.4,106.5L12.4,102.2L17.1,101.3L19.2,98.3L22.4,95.5L25.9,95.4L33.2,101.1L32.9,104.4L35,110.2L33.1,114.1L34.1,116.8L29.5,122.8L26.5,125.8L24.7,132L24.9,138.2Z" fill="#2c2c34" stroke="#474751" stroke-width="0.8"/><path d="M143.3,0L143.9,4L147.5,6.7L147.7,10L151.7,13.5L149.6,17.9L145.9,38.6L145.4,51.7L133.1,61.2L128.9,74.3L132.9,78L132.9,84.4L139.1,84.6L138.1,89.3L135.4,89.8L135.1,93L133.3,93.2L126.8,82.4L124.5,82L117,87.5L109.5,84.6L104.3,84.1L101.6,85.4L95.9,85.1L90.2,89.4L85.3,89.6L73.6,84.5L69.1,86.9L64.2,86.8L60.6,83L50.9,79.3L40.5,80.5L38,82.6L36.7,88.3L33.9,92.3L33.2,101.1L25.9,95.4L22.4,95.5L19.2,98.3L19.4,91.6L8.3,89.3L8,84.6L2.6,78.1L1.3,73.6L2.1,68.7L8.2,68.3L11.8,64.8L24.9,63.9L33.5,62.3L34.3,56.2L39.6,49.5L39.6,26.1L53.2,21.6L81.1,1.3L83.3,0L143.3,0Z" fill="#2c2c34" stroke="#474751" stroke-width="0.8"/><path d="M24.4,153.8L24.9,138.2L24.7,132L26.5,125.8L29.5,122.8L34.1,116.8L33.1,114.1L35,110.2L32.9,104.4L33.2,101.1L33.9,92.3L36.7,88.3L38,82.6L40.5,80.5L50.9,79.3L60.6,83L64.2,86.8L69.1,86.9L73.6,84.5L85.3,89.6L90.2,89.4L95.9,85.1L101.6,85.4L104.3,84.1L109.5,84.6L117,87.5L124.5,82L126.8,82.4L133.3,93.2L135.1,93L138.9,96.9L137.8,98.7L137.4,102L129.2,109.6L126.7,115.8L125.3,120.9L123.3,123.1L121.3,129.9L116.2,133.9L114.7,138.9L112.5,142.8L111.6,146.8L105,150.1L99.6,146.1L95.9,146.3L90.2,151.9L87.4,152L82.8,161.4L80.4,168.2L70.3,171.7L66.7,171.2L63,173.4L55.3,173.1L50.1,167.1L47,160.1L40.1,153.7L32.9,153.8Z" fill="#2c2c34" stroke="#474751" stroke-width="0.8"/><path d="M138.1,89.3L142,95.6L142.6,102.1L142.3,108.7L147.5,117.6L142.1,117.5L139.4,118.2L135,117.2L132.9,121.8L138.6,127.5L142.8,129.1L144.2,133.2L147.2,139.9L145.7,142.5L140.8,152.4L138.5,154.1L137.8,161.6L138.7,165.7L138,168.6L142.5,173.6L143.3,177.1L146.9,182.1L151.3,185.2L151.7,189.6L152.7,192.4L152,197.6L144.4,195.3L136.6,192.8L124.5,192.4L123.2,191.9L117.6,193.1L111.7,191.8L107.1,192.5L91.4,192.2L92.8,184.6L89.1,178.2L84.7,176.6L82.7,172.3L80.2,170.9L80.4,168.2L82.8,161.4L87.4,152L90.2,151.9L95.9,146.3L99.6,146.1L105,150.1L111.6,146.8L112.5,142.8L114.7,138.9L116.2,133.9L121.3,129.9L123.3,123.1L125.3,120.9L126.7,115.8L129.2,109.6L137.4,102L137.8,98.7L138.9,96.9L135.1,93L135.4,89.8Z" fill="#2c2c34" stroke="#474751" stroke-width="0.8"/><path d="M0,107.4L7.1,107.6L7.1,107.6L5.9,112.8L8.8,115.7L12.2,119.1L12.5,123.9L14.5,125.9L14,148.3L16.4,154.9L8.6,157L6.5,153.6L3.9,147.5L3.2,142.6L5.3,133.9L2.9,130.3L2,122.6L2,115.5L0,113L0,107.4Z" fill="#2c2c34" stroke="#474751" stroke-width="0.8"/><path d="M0,113L2,115.5L2,122.6L2.9,130.3L5.3,133.9L3.2,142.6L3.9,147.5L6.5,153.6L8.6,157L0,160.3L0,113Z" fill="#2c2c34" stroke="#474751" stroke-width="0.8"/><path d="M0,68.7L2.1,68.7L1.3,73.6L2.6,78.1L8,84.6L8.3,89.3L19.4,91.6L19.2,98.3L17.1,101.3L12.4,102.2L10.4,106.5L7.1,107.6L0,107.4L0,68.7Z" fill="#2c2c34" stroke="#474751" stroke-width="0.8"/><path d="M176.3,180.5L175.7,186.3L172.8,191.5L170.9,197.5L169.7,206L170.2,211.5L168.7,214.8L168.4,218.3L167.3,221.4L161,226.1L156.5,231L152.3,240.4L152.7,248.3L150.2,251.4L144.6,256.2L139,262.2L135.3,260.5L134.8,257.8L129.5,257.7L126.2,261.4L123.7,260.4L120,257.1L117.1,258.7L113.2,262.9L105.3,252.6L112.7,247.3L109.1,240.9L112.3,238.5L118.8,237.3L119.6,233L124.8,237.7L133.3,238.1L136.2,233.5L137.5,227.1L136.4,219.6L131.8,213.9L136,202.7L133.6,200.8L126.4,201.6L123.7,196.6L124.5,192.4L136.6,192.8L144.4,195.3L152,197.6L152.7,192.4L157.8,183.4L163.6,178.3L170.1,179.9Z" fill="#2c2c34" stroke="#474751" stroke-width="0.8"/><path d="M107.1,192.5L111.7,191.8L117.6,193.1L123.2,191.9L124.5,192.4L123.7,196.6L126.4,201.6L133.6,200.8L136,202.7L131.8,213.9L136.4,219.6L137.5,227.1L136.2,233.5L133.3,238.1L124.8,237.7L119.6,233L118.8,237.3L112.3,238.5L109.1,240.9L112.7,247.3L105.3,252.6L95.5,242.9L89.1,234.9L83.2,225L83.5,221.8L85.6,218.7L88,211.7L89.9,204.5L93.2,204L107.2,204.1Z" fill="#2c2c34" stroke="#474751" stroke-width="0.8"/><path d="M91.4,192.2L107.1,192.5L107.2,204.1L93.2,204L89.9,204.5L88.1,203.1Z" fill="#2c2c34" stroke="#474751" stroke-width="0.8"/><path d="M273.9,300L275.3,296.7L277.9,295.6L290.9,293.9L294.7,294.9L294.7,294.9L298.7,297.4L302.5,299L306.2,300L273.9,300Z" fill="#2c2c34" stroke="#474751" stroke-width="0.8"/><path d="M123.7,260.4L120.2,262.4L118.6,264.9L118.3,269.1L115.8,270.1L113.2,262.9L117.1,258.7L120,257.1ZM123.8,300L126,297.1L123.1,287.7L121.1,281.2L116.3,275L117.2,273.1L117.2,273.1L121.2,271.8L123.9,272L127.3,270.9L155.8,271L158.1,278.2L160.9,284L163.1,287.2L166.8,292.3L173.2,291.5L176.4,290.1L181.7,291.5L183.2,289.1L185.6,283.4L191.5,283L192,281.3L197,281.3L196.1,284.8L207.8,284.7L208,290.8L209.9,294.6L208.6,300L123.8,300Z" fill="#2c2c34" stroke="#474751" stroke-width="0.8"/><path d="M292.1,237.5L292.6,241.3L294.7,243.5L294.8,246.6L292.4,248.7L288.7,253.7L285.2,257.2L281.2,257.7L280.6,246L278.1,241.6L284,242.4L287,236.9Z" fill="#2c2c34" stroke="#474751" stroke-width="0.8"/><path d="M83.3,0L81.1,1.3L53.2,21.6L39.6,26.1L28.9,27.1L28.8,20.6L24.3,19L18.3,16L16,11.2L0,0.1L0,0Z" fill="#2c2c34" stroke="#474751" stroke-width="0.8"/><path d="M400,84.4L399.3,83.4L395,80.2L392.6,76.8L384.2,72.8L377.5,72.7L375.2,70.6L369.6,72.9L363.7,68.4L360.7,75.9L349.5,73.8L349.5,73.8L348.5,69.8L352.6,55.1L353.6,48.4L356.6,45.3L363.7,43.7L368.6,37.9L374.2,49.6L376.8,58.8L382.1,63.7L395.3,73.1L400,78.1L400,84.4Z" fill="#2c2c34" stroke="#474751" stroke-width="0.8"/><path d="M400,38.2L395.7,31L392.9,22.7L386.3,15.7L382,14L375.6,4.2L375,0L400,0Z" fill="#2c2c34" stroke="#474751" stroke-width="0.8"/><path d="M239.4,0L239.4,17.4L228.3,17.5L228.2,21.8L189.7,2.1L185.7,0L239.4,0Z" fill="#2c2c34" stroke="#474751" stroke-width="0.8"/><path d="M400,176.5L395.2,176.5L391.3,173.2L382.5,177.2L379.7,181.3L373.2,180.5L371.1,179.4L368.8,179.6L365.8,179.5L353.6,171.3L346.9,171.3L343.6,168.2L343.6,162.7L338.6,161.1L332.9,150.6L328.5,148.3L326.8,144.4L321.9,139.7L316,139L319.3,133.4L324.4,133.2L325.9,130.2L325.7,121.5L328.6,111.2L333.1,108.5L334.1,104.5L338.2,96.9L344.1,92.1L348,82.3L349.5,73.8L360.7,75.9L363.7,68.4L369.6,72.9L375.2,70.6L377.5,72.7L384.2,72.8L392.6,76.8L395,80.2L399.3,83.4L400,84.4L400,101.3L400,101.3L399.9,101.4L400,101.7L400,176.5Z" fill="#2c2c34" stroke="#474751" stroke-width="0.8"/><path d="M400,101.7L399.9,101.4L400,101.3L400,101.7Z" fill="#2c2c34" stroke="#474751" stroke-width="0.8"/><path d="M325.2,223.4L305.5,224.1L295,224L291.6,225.2L285.8,228.2L283.5,227.2L283.6,219.9L285.8,216.2L286.3,208.5L288.4,204L292.1,199L295.8,196.4L298.9,193L295,191.7L295.6,180.4L299.6,177.8L305.7,179.9L313.4,177.7L320.2,177.7L326.1,173.3L330.7,180L331.8,184.8L336.1,195.9L332.6,202.9L327.8,209.3L325.1,213.2Z" fill="#2c2c34" stroke="#474751" stroke-width="0.8"/><path d="M291.6,225.2L295.4,230.6L294.8,236.3L292.1,237.5L287,236.9L284,242.4L278.1,241.6L279,236.4L280.4,235.6L280.7,229.9L283.5,227.2L285.8,228.2Z" fill="#2c2c34" stroke="#474751" stroke-width="0.8"/><path d="M295.6,180.4L287.1,174L284.8,169.9L279.4,171.9L275,171.3L272.4,172.9L268.1,171.7L262.2,163.7L260.7,160.7L253.5,156.8L251.1,151L247,146.8L240.5,141.8L240.5,138.6L235.2,134.7L228.6,130.9L231.6,129.8L234.9,128L237.4,119.2L240,114.7L247,113.4L248.6,116.1L253.6,121.8L256.3,122.6L259.7,120.9L266.7,121.3L268,123.3L277.6,123.3L277.9,121.3L282.9,119.4L283.9,116.6L287.5,114.5L295.6,120.3L300.6,119.2L305.4,112.2L310.7,106.8L309.9,100.9L307.5,98L313.3,97.5L314,95.3L318.5,96L317.3,103.3L318.5,110.3L323.4,114.2L324.6,117.6L324.4,122.4L325.7,122.6L325.9,130.2L324.4,133.2L319.3,133.4L316,139L321.9,139.7L326.8,144.4L328.5,148.3L332.9,150.6L338.6,161.1L332.1,167.5L326.1,173.3L320.2,177.7L313.4,177.7L305.7,179.9L299.6,177.8Z" fill="#2c2c34" stroke="#474751" stroke-width="0.8"/><path d="M231.1,130.4L231.6,130.5L231.8,131L231.4,132.4L231.7,133.3L232.5,134.1L233.3,134.4L234.1,134.6L236.8,135L237.9,135.6L239.4,137.2L241.3,138.8L241.8,139.6L241.6,140.3L241.1,141.2L241.2,141.6L242,142.5L243,143.4L244.8,144.4L247.9,146L249.4,147.1L249.8,147.9L250.6,148.7L251.7,149.5L252.5,150.2L252,151.9L252.1,152.5L252.4,153L253,153.7L253.3,154.6L253.9,155.7L254.7,156.2L256,156.3L256.7,156.9L258.1,157.7L259.4,158.5L260,159L260.4,159.5L260.7,160L260.8,160.6L260.9,161.7L261.1,163.2L261.8,164.2L262.5,164.9L259.7,164.1L259.3,164.1L258.8,164.2L257.4,165.3L256.9,165.4L256.4,165.3L255.1,165.2L250.7,164.4L247.3,163.6L246.2,163.3L244.4,163L243.2,163.5L242.1,165.4L241.8,165.8L240,166.3L239.2,166.2L237.1,166.7L233.9,165.9L232.8,166.1L231.9,166.5L229.6,167.3L228.3,167.8L226.7,168.2L225.1,168.9L224.1,169.3L223.1,169.3L222.2,168.9L221.2,168.6L220,168.5L218.8,168.7L217.7,169.4L217.3,170L216.4,171.4L215.3,173.7L214.9,174.1L214.8,174.2L214.5,174.4L209.6,173.2L207.4,173L206,173.3L204.2,172.7L203.4,172.6L203,172.8L202,172.5L200.4,171.7L198.8,171.4L197.4,171.5L196.5,171.2L195.9,170.4L195,169L193.4,167.7L191.2,166.5L189.9,165.7L189.3,165.1L188.2,164.8L186.3,164.8L184.6,165.3L182.2,167.1L179.9,170.6L178.6,172L177.6,172.3L177.4,173.2L177.9,174.5L178,176.1L177.6,178.8L177.8,180.7L177.2,180.4L176.7,179.5L176.5,179.3L175,179.7L174.2,180.1L173.8,180.4L173.4,180.5L173,180L172.6,179.9L172,180L171.4,180L171,179.9L170.7,180L170,179.7L167.4,178.9L167,178.7L166.5,178.7L165.2,179.4L164.4,179.6L162.3,180L160,180.1L159.1,180.2L158.5,180.4L158.1,180.9L157.9,181.8L157.4,183.3L157.2,183.7L157.2,184.4L157.1,185.4L157.1,186.3L157.1,187L156.5,188.2L155.7,189.7L155.1,191.1L154.4,192.4L153.9,191.5L153.7,190.4L153.5,189.2L153.6,188.9L153.4,188.5L153.4,188.4L153.2,187.5L153.4,186.9L153.3,186.2L152.7,185.6L152.2,185.1L151.9,184.6L151.7,184.4L151.2,184.3L150.4,184.1L149.5,183.1L148.6,182.2L147.4,180.9L146.5,179.9L145.3,178.6L144.2,177.3L143.6,176.2L143.3,175.5L143.6,175.5L144.1,175.4L144.3,175.3L144.3,175L143.8,174.1L143.6,172.9L143.2,172.2L142,171.1L140.8,170.3L140.4,169.8L140.2,169.2L139.7,165.4L139.5,164.3L139.2,163.8L138.9,163.6L138.8,163.3L138.8,162.6L139,162L139,161.8L139.3,161.2L139.3,157.6L139.1,157.5L138.9,157.1L138.6,157.2L138.2,157.1L137.8,156.6L137.5,156L137.6,155.5L137.9,155.1L138.3,154.8L138.7,154.5L140.1,153.9L140.5,153.6L140.7,153.3L140.9,152.8L141.7,150.9L142.8,149.1L143.3,148.7L143.8,147.5L144.5,146L144.8,145.3L145,144.6L145.3,144.1L146.6,143.2L147.6,141.5L148.7,141.6L149.7,141.9L151.1,142L152.2,141.7L152.9,141.1L154.5,140.6L156.3,140L156.5,139.1L157.1,138.7L157.7,138.3L157.9,138.2L157.9,138.5L158.3,139.4L159.1,140.3L160.2,141.3L160.5,141.2L161.2,140.5L163,140L163.4,139.8L164.6,138.7L166.1,138L166.5,138L167,137.8L168.5,137.1L169.6,137.2L171.3,137L174.2,136.7L176.3,136.6L177.3,136.5L177.6,136.3L178,135.3L178.3,135L179.1,134.5L180.6,133L181.6,131.6L181.9,131.2L181.9,131.2L182.2,131.1L182.6,130.5L182.2,129.9L180.5,128.8L180.5,128.6L180.3,128.4L180.5,128.2L181.1,127.8L182,127.2L182.9,127L185.4,127L187.5,126.9L188,127L189.6,126.7L190.7,126.4L191.9,125.9L194.5,125.9L196.6,124.5L197.2,124.2L197.5,124L197.6,123.8L198.6,123.2L199.8,122L200.6,121L200.9,120.2L203.3,117.6L204.2,117.7L204.6,117.4L205.6,115.7L205.9,115.4L206.4,115.3L206.9,115.1L207.4,114.6L207.8,113.8L207.8,112.9L207.6,112.1L207.6,111.8L207.9,111.4L208.2,111.1L210.1,110.2L210.6,109.7L210.9,109.3L211.4,109.3L212,109.3L212.3,109.1L212.7,108.6L214,108.1L215.2,107.6L216.5,107.8L217.5,108L218.3,108.3L218.7,108.4L219.4,109.6L219.7,110L222.5,112.9L223.1,113.6L224.5,115.7L225.3,117.1L226.3,119.1L226.4,120.2L226.3,121.2L226.1,123.8L225.8,124.6L224.6,126L224.5,126.7L224.8,127.2L225.2,127.4L225.4,127.7L225.3,129L225.7,129.4L226.6,129.8L229,130L230.2,130.2Z" fill="#b8e653" stroke="#0c0e06" stroke-width="1"/></svg>
