<svg xmlns="http://www.w3.org/2000/svg" viewBox="0 0 400 300"><path d="M400,263.1L399.1,263.5L395,272.7L398.2,279.2L395.7,296.4L395.3,300L335,300L335,300L334.8,298.8L329.8,298.4L323.3,297.6L314.4,299.8L308.1,299.4L306.6,300L304.6,300L304.6,300L305.4,283.4L300.6,278L299.5,269L301.6,260.3L298.7,254.7L298.4,245.5L281,245.7L282.3,240.4L274.9,240.5L274.1,243L265.2,243.6L261.7,252L259.5,255.7L251.5,253.6L246.8,255.7L237.3,256.8L231.8,249.2L228.5,244.5L224.4,235.9L220.9,225.1L178.5,224.9L173.4,226.6L169.3,226.4L163.3,228.3L161.3,223.8L165,222.3L165.4,216L167.8,212.3L173,209.3L176.8,210.7L181.7,205.2L189.5,205.4L190.4,209.5L195.8,212L204.3,203L212.6,195.9L216.3,191.3L215.7,179.5L222,165.5L228.6,158.1L238,151.2L239.7,146.6L240.1,141.4L242.4,136.4L241.7,128.2L243.4,115.5L246.3,106.5L250.6,98.8L251.4,90.1L252.7,80.1L258.3,72.8L266,68.2L277.8,73L287,78.3L297.5,79.8L308.2,82.6L312.5,73.9L314.4,72.8L321,74.2L337,67L342.7,70.1L347.3,69.6L349.4,66.1L354.8,64.9L365.6,66.4L374.8,66.8L379.5,65.2L388.3,77.1L394.7,78.9L398.6,76.4L400,76.7L400,263.1Z" fill="#2c2c34" stroke="#474751" stroke-width="0.8"/><path d="M400,4.9L388.1,4.9L386.2,1.9L375.8,1.4L370.6,3.9L366.7,2.6L364.4,0L400,0ZM342.2,0L338.8,11.9L333.9,14.6L329.5,16.2L339.3,21.9L339.3,21.9L328.3,15.5L323.3,11.4L322.4,6.8L324.7,0.8L324.7,0L342.2,0Z" fill="#2c2c34" stroke="#474751" stroke-width="0.8"/><path d="M290.5,0L288,3.8L274.5,10.5L260.6,9.6L256.6,10.9L258,16.1L250.5,21.1L244.4,26.8L226.3,32.3L222.7,29L220.4,28.8L217.7,32.5L205.8,33.6L208,29.7L203.5,19.7L201.5,13.6L195.3,11.2L186.8,2.7L188,0L290.5,0Z" fill="#2c2c34" stroke="#474751" stroke-width="0.8"/><path d="M35.8,0L32.6,4.2L28.1,8.7L25.4,17.8L25.8,27.1L25,50.4L25,50.4L13.1,52.1L9.5,42.1L10.2,8.8L7.3,5.8L6.9,0L35.8,0Z" fill="#2c2c34" stroke="#474751" stroke-width="0.8"/><path d="M175.8,0L175.5,1.4L172.4,4.6L169.5,14.8L161.9,20.8L159.6,28.1L156.4,34L155,40L145.2,44.9L137.1,38.9L131.7,39.2L123.1,47.6L118.9,47.7L112.1,61.7L108.4,71.9L93.5,77.1L88.1,76.3L82.5,79.5L71,79.2L63.3,70.2L58.6,59.8L48.4,50.3L37.6,50.4L25,50.4L25,50.4L25.8,27.1L25.4,17.8L28.1,8.7L32.6,4.2L35.8,0L175.8,0Z" fill="#2c2c34" stroke="#474751" stroke-width="0.8"/><path d="M188,0L186.8,2.7L195.3,11.2L201.5,13.6L203.5,19.7L208,29.7L205.8,33.6L198.6,48.3L195.1,50.9L194,62.1L195.5,68.2L194.3,72.4L201.1,80L202.3,85.2L207.6,92.6L214.2,97.2L214.8,103.8L216.3,107.9L215.3,115.7L203.9,112.3L192.3,108.5L174.2,107.9L172.4,107.2L163.9,109L155.1,107.1L148.3,108L124.9,107.7L127,96.4L121.4,86.8L114.8,84.4L112,77.9L108.2,75.9L108.4,71.9L112.1,61.7L118.9,47.7L123.1,47.6L131.7,39.2L137.1,38.9L145.2,44.9L155,40L156.4,34L159.6,28.1L161.9,20.8L169.5,14.8L172.4,4.6L175.5,1.4L175.8,0L188,0Z" fill="#2c2c34" stroke="#474751" stroke-width="0.8"/><path d="M6.9,0L7.3,5.8L10.2,8.8L9.5,42.1L13.1,52.1L1.5,55.2L0,52.8L0,0Z" fill="#2c2c34" stroke="#474751" stroke-width="0.8"/><path d="M0,52.8L1.5,55.2L0,55.8L0,52.8Z" fill="#2c2c34" stroke="#474751" stroke-width="0.8"/><path d="M324.7,0L324.7,0.8L322.4,6.8L323.3,11.4L328.3,15.5L339.3,21.9L347.1,27.7L347.2,32.5L356.9,40L362.9,46.3L366.5,54.9L377.3,60.7L379.5,65.2L379.5,65.2L374.8,66.8L365.6,66.4L354.8,64.9L349.4,66.1L347.3,69.6L342.7,70.1L337,67L321,74.2L314.4,72.8L312.5,73.9L308.2,82.6L297.5,79.8L287,78.3L277.8,73L266,68.2L258.3,72.8L252.7,80.1L251.4,90.1L242.2,89.3L232.5,86.9L223.9,94.6L216.3,107.9L214.8,103.8L214.2,97.2L207.6,92.6L202.3,85.2L201.1,80L194.3,72.4L195.5,68.2L194,62.1L195.1,50.9L198.6,48.3L205.8,33.6L217.7,32.5L220.4,28.8L222.7,29L226.3,32.3L244.4,26.8L250.5,21.1L258,16.1L256.6,10.9L260.6,9.6L274.5,10.5L288,3.8L290.5,0L324.7,0Z" fill="#2c2c34" stroke="#474751" stroke-width="0.8"/><path d="M148.3,108L155.1,107.1L163.9,109L172.4,107.2L174.2,107.9L173.1,114.2L177.1,121.6L187.8,120.5L191.4,123.3L185.2,139.9L192,148.5L193.6,159.7L191.7,169.2L187.3,176L174.6,175.4L167,168.5L165.8,174.9L156.1,176.7L151.2,180.3L156.6,189.8L145.7,197.7L130.9,183.2L121.4,171.3L112.7,156.5L113.1,151.7L116.3,147.1L119.8,136.7L122.7,126L127.5,125.2L148.4,125.3Z" fill="#2c2c34" stroke="#474751" stroke-width="0.8"/><path d="M124.9,107.7L148.3,108L148.4,125.3L127.5,125.2L122.7,126L120,123.8Z" fill="#2c2c34" stroke="#474751" stroke-width="0.8"/><path d="M330.3,300L329.8,298.4L334.8,298.8L335,300L330.3,300ZM395.3,300L395.7,296.4L398.2,279.2L395,272.7L399.1,263.5L400,263.1L400,300Z" fill="#2c2c34" stroke="#474751" stroke-width="0.8"/><path d="M173,209.3L167.8,212.3L165.4,216L165,222.3L161.3,223.8L157.5,213L163.3,206.8L167.6,204.3ZM306.6,300L308.1,299.4L314.4,299.8L323.3,297.6L329.8,298.4L330.3,300L306.6,300ZM183.3,300L182.9,295.6L178.6,290.4L174.8,281.5L171.3,272.8L172,269.8L176.4,264L172.1,250L169.2,240.3L162,231.1L163.3,228.3L163.3,228.3L169.3,226.4L173.4,226.6L178.5,224.9L220.9,225.1L224.4,235.9L228.5,244.5L231.8,249.2L237.3,256.8L246.8,255.7L251.5,253.6L259.5,255.7L261.7,252L265.2,243.6L274.1,243L274.9,240.5L282.3,240.4L281,245.7L298.4,245.5L298.7,254.7L301.6,260.3L299.5,269L300.6,278L305.4,283.4L304.6,300L183.3,300Z" fill="#2c2c34" stroke="#474751" stroke-width="0.8"/><path d="M400,76.7L398.6,76.4L394.7,78.9L388.3,77.1L379.5,65.2L377.3,60.7L366.5,54.9L362.9,46.3L356.9,40L347.2,32.5L347.1,27.7L339.3,21.9L329.5,16.2L333.9,14.6L338.8,11.9L342.2,0L364.4,0L364.4,0L366.7,2.6L370.6,3.9L375.8,1.4L386.2,1.9L388.1,4.9L400,4.9L400,76.7Z" fill="#2c2c34" stroke="#474751" stroke-width="0.8"/><path d="M146.2,196.8L147.1,194.6L147.7,193.6L148.5,192.9L151.6,191.1L152,191.2L154.2,193.4L154.9,193.6L155.6,193.6L156.5,193.7L156.9,193.2L157,192.6L156.4,192L156.3,191.3L156.7,190.5L157,189.7L157.7,188.7L157.8,188.2L157,187.7L155.6,186.9L154.6,186.2L154.2,185.5L154.5,184.5L155.3,183.8L155.2,183.4L154.6,182.7L154,182L153.5,181.6L152,181.3L152.3,180.3L152.9,178.9L153,177.8L152.6,175L152.7,174.4L153,174.2L153.9,174.5L154.8,174.9L157.2,174.3L158,174.2L158.7,174.8L159.6,175.2L165.1,174L165.2,172.8L165.5,171.7L165.6,170.9L165.3,170.3L165.1,169.9L164.9,169.1L164.9,168.2L165.4,167.8L167.2,166.8L167.7,166.8L168.9,167.4L170.1,168.3L171.1,170.2L171.8,171.8L172.9,173.8L175.4,174.6L178.2,175.1L179.8,174.9L181.9,173.3L183.2,171.9L183.6,171.2L184.3,171.6L185.1,173.3L185.7,174L185.8,174.6L185.4,175.4L185.8,176L187.4,176.3L188.7,176L189.3,175.3L190.3,174.3L190.3,173.6L189.8,173.1L189.8,172.4L190.3,171.8L190.9,170.4L191,169.3L191.5,168.6L192.6,168.1L192.9,167.7L193.5,165.1L193.2,164.2L193.2,163.4L193.9,162.4L194,160.8L193.7,158.2L193.5,156.4L193.3,154.5L193.8,152L194.3,149.4L194.2,148.8L193.5,148L192.6,147.2L190.4,146.7L189.6,145.7L188.9,144.7L188.4,144.4L186,144L185.4,143.4L185.6,141.8L185.9,139.4L185.8,137.8L186.2,136.4L186.7,135.4L187.8,134.4L188.4,133.1L188.7,132.8L190.8,132.6L191.5,132.1L192.1,131.6L192.3,130.8L193,129.7L193.7,128.9L193.7,128.3L193.6,127.6L193,126.1L192.2,124.8L191.8,124.4L190.9,121.5L190,120.8L188.4,120.5L185.3,120.1L183.4,120.7L180.6,121.6L178.4,122.3L177,122.7L176.2,122.6L175.8,122.1L176.3,121.8L176.6,120.9L176.2,119.6L175.7,118.5L175.4,116.8L175.5,114.8L176.1,112.9L177.2,110.4L177.3,109.5L180.7,109.5L184.1,109.5L187.9,109.5L191.5,109.5L194.4,109.6L195.7,108.9L197,109.9L197.6,110.1L197.9,110L198.4,110.7L200,110.6L200.2,110.8L200.4,111.6L201.9,111.6L202.6,111.8L203.2,111.7L204.1,111.3L204.7,111.4L205.9,112L206.6,112.6L207.8,112.4L210.4,112.5L212.4,113L214.5,114.4L215.8,115.2L217,116.4L217.5,116.2L217.9,115.9L218.1,115.7L218.1,114.7L217.4,112.9L217.1,111.5L217.3,110.3L217.8,109.4L218.7,108.8L218.8,108L218.8,107.9L219.8,105.9L220.8,104L221.9,101.7L222.9,99.8L222.8,98.9L222.8,97.5L223,95.9L223,95L223.3,94.4L224,92.1L224.3,90.7L225,90.1L225.8,89.7L227.1,89.7L230.5,89.4L233.7,88.8L234.8,88.5L236.8,87.6L237.6,87.5L238.2,87.9L242.1,89L243.2,89.4L243.6,89.4L244.1,89.4L245,89.5L246,89.3L246.5,89.5L247.2,90.2L247.7,90.1L248.3,89.6L249.5,89L251.7,88.4L252.1,88.7L252.8,90L253.7,90.5L253.8,93L252.7,96.1L252,98.5L249.8,102.4L247.9,105.8L245.9,111.6L246,115.8L245.7,118.5L245.1,120.1L243.5,124.4L243.3,128.2L243.8,132.8L243.3,137.1L241.6,141.3L240.9,144.5L241.3,148.4L238.3,151.7L234.5,154.9L232.1,155.8L230.2,156.9L228.8,158.1L228.4,158.8L227.4,160.3L225.1,164.9L223.9,166.9L222.4,168.7L220.1,170.8L219.3,171.8L218.9,173.3L219.1,175.9L219.3,184.1L218.9,186.4L218.3,190.3L216,194.7L214.3,197.1L212.6,197.8L210.4,198.5L209.3,199.3L208.7,200.5L207.5,201.6L205.6,202.5L203.3,204.7L200.5,208.2L198.6,210.2L197.6,210.7L196.5,210.8L195.4,210.3L194.5,210.3L194.1,210.5L193.8,210.3L193.3,210L193.4,209.2L193.2,207.8L192.7,206.5L193.3,205.3L193.9,204.5L193.8,204.1L193.2,203.3L192.6,202.3L192,202.4L190.7,203.2L189.4,203.8L188.1,204L187.1,204.7L186.6,205L185.8,205L185.3,204.6L184.3,204.3L183.7,204.4L183.4,204.6L183.2,205.8L183.1,206.9L182.9,207.9L182.5,208.4L181,208.9L179.9,209.6L179,210.1L178.5,210L177.3,209L176.2,208.2L175.6,207.5L175.3,207L175,206.7L174.3,206.7L174.1,207.2L173.8,206.9L172.7,206L171.4,204.4L170.9,204.2L170.2,204.2L169,204.8L167.9,205.7L165.9,206.5L164.2,206.9L164.1,207.5L163.7,208.5L163.1,209L161.7,209.2L161.1,210.1L159.8,211.7L159,212.5L158.8,212.2L158.2,211.8L157.2,210.5L156.1,208.9L155.9,208.2L155.5,207.8L155.5,206.2L153.9,204.3L150,200.9L149.5,199.9Z" fill="#b8e653" stroke="#0c0e06" stroke-width="1"/></svg>
