<svg xmlns="http://www.w3.org/2000/svg" viewBox="0 0 300 300"><path fill="#e8e8ea" d="M38.1,247.4L39.9,242.7L41.2,240.6L42.8,239.2L49.3,235.5L50.2,235.7L54.7,240.4L56.1,240.8L57.6,240.6L59.6,240.8L60.4,239.9L60.7,238.7L59.3,237.3L59,235.9L60,234.3L60.6,232.6L62,230.5L62.2,229.5L60.7,228.5L57.6,226.8L55.6,225.2L54.7,223.8L55.4,221.9L57,220.3L56.9,219.5L55.5,218.1L54.4,216.6L53.3,215.6L50.2,215.1L50.9,213.1L51.9,210.1L52.3,207.8L51.4,201.9L51.5,200.8L52.3,200.3L54.1,200.9L55.9,201.9L60.9,200.6L62.6,200.4L64,201.5L66,202.4L77.4,199.9L77.7,197.4L78.3,195.1L78.4,193.4L77.9,192.3L77.3,191.5L77,189.8L77,187.9L78.1,187.1L81.7,184.9L82.8,184.9L85.4,186.1L87.8,188L89.9,191.9L91.4,195.3L93.7,199.4L98.7,201.1L104.7,202.2L107.9,201.9L112.4,198.4L115.1,195.6L115.8,194.2L117.4,195L119.1,198.5L120.3,199.9L120.5,201.2L119.7,202.9L120.5,204L123.7,204.7L126.5,204L127.7,202.5L129.8,200.6L129.8,199.1L128.8,198L128.8,196.6L129.8,195.4L131,192.4L131.3,190.1L132.4,188.7L134.6,187.6L135.3,186.8L136.5,181.4L135.9,179.5L135.9,177.9L137.3,175.9L137.5,172.5L136.9,167L136.5,163.3L136.1,159.3L137.1,154.2L138.2,148.8L138,147.4L136.5,145.8L134.7,144.3L130,143.1L128.3,141.1L126.9,139L126,138.3L120.8,137.5L119.6,136.3L120.1,133L120.6,128L120.4,124.6L121.3,121.8L122.3,119.7L124.6,117.5L125.9,114.9L126.5,114.2L130.8,113.8L132.3,112.7L133.5,111.6L134,110.1L135.5,107.7L136.8,106L136.9,104.9L136.7,103.3L135.4,100.3L133.8,97.7L133,96.8L131,90.8L129.3,89.3L125.9,88.5L119.4,87.9L115.5,89L109.6,91L105.1,92.4L102.2,93.2L100.5,93L99.6,92L100.8,91.2L101.3,89.4L100.6,86.8L99.5,84.4L98.8,81L99.1,76.8L100.2,72.9L102.6,67.7L102.7,65.7L109.9,65.7L117,65.8L124.9,65.8L132.4,65.7L138.3,65.9L141.1,64.6L143.8,66.5L145.1,67L145.6,66.9L146.6,68.3L149.9,68.1L150.5,68.4L150.8,70.1L153.9,70.1L155.4,70.5L156.7,70.4L158.6,69.4L159.8,69.8L162.2,71.1L163.8,72.1L166.2,71.8L171.7,72L175.9,73L180.1,76L182.9,77.7L185.3,80.2L186.3,79.7L187.2,79L187.7,78.7L187.6,76.6L186.2,72.9L185.7,69.9L186,67.3L187.1,65.5L188.9,64.4L189.1,62.6L189.1,62.4L191.1,58.3L193.2,54.3L195.6,49.5L197.6,45.6L197.4,43.7L197.5,40.8L197.9,37.6L197.8,35.6L198.5,34.3L199.9,29.5L200.6,26.8L201.9,25.5L203.7,24.6L206.4,24.5L213.5,24L220.2,22.7L222.5,22.1L226.5,20.1L228.2,20L229.6,20.8L237.6,23.1L239.8,24L240.6,23.9L241.8,24.1L243.6,24.1L245.6,23.8L246.7,24.1L248.2,25.6L249.1,25.5L250.4,24.4L252.9,23.2L257.5,21.9L258.3,22.5L259.9,25.3L261.6,26.3L261.9,31.5L259.7,38L258.1,42.9L253.6,50.9L249.7,58.1L245.5,70.1L245.6,78.9L245.1,84.4L243.8,87.8L240.4,96.8L240,104.7L241.2,114.2L240,123.3L236.5,131.9L235.1,138.6L236,146.7L229.7,153.4L221.8,160.1L216.8,162.1L212.8,164.3L209.9,166.9L209,168.3L207,171.4L202.2,181L199.8,185.3L196.5,188.9L191.8,193.3L190.1,195.4L189.3,198.4L189.6,203.9L190.1,220.9L189.3,225.8L188,233.9L183.3,242.9L179.7,247.9L176.3,249.5L171.7,250.8L169.4,252.5L168.1,255L165.5,257.3L161.7,259.1L156.9,263.7L151.1,271L147.1,275.3L145,276.3L142.7,276.4L140.5,275.5L138.7,275.4L137.7,275.8L137,275.5L136.1,274.8L136.2,273.1L135.9,270.3L134.8,267.5L136.1,265.1L137.3,263.3L137,262.5L135.9,261L134.6,258.9L133.3,259L130.6,260.6L127.9,261.9L125.2,262.4L123.2,263.7L122.1,264.4L120.4,264.4L119.4,263.7L117.2,262.9L116.1,263.1L115.4,263.5L115.1,266.2L114.9,268.4L114.4,270.5L113.7,271.5L110.5,272.6L108.2,274L106.4,275L105.2,274.7L102.8,272.8L100.6,271L99.3,269.5L98.5,268.5L98.1,268L96.6,267.9L96.2,268.9L95.4,268.4L93.1,266.4L90.5,263.2L89.4,262.8L88,262.8L85.6,264L83.3,265.8L79.1,267.5L75.6,268.4L75.3,269.6L74.4,271.6L73.2,272.8L70.2,273.2L69.1,275L66.4,278.4L64.6,280L64.2,279.3L63.1,278.5L60.9,275.8L58.7,272.6L58.2,271L57.5,270.2L57.4,266.8L54.2,262.9L45.9,255.9L45.1,253.8Z"/></svg>
