<svg xmlns="http://www.w3.org/2000/svg" viewBox="0 0 300 300"><path fill="#e8e8ea" d="M226,89.3L227.6,90.3L231.8,94.2L231,100.6L226.2,111L223.7,119.3L223.5,125.8L223.9,128.7L224.7,128.7L229.3,129.2L231.6,129.2L238.7,130.8L244.5,133.3L245.8,136.1L246.4,139.3L253.3,143.8L261.2,146.6L263.9,145.7L273.7,135.2L277.7,137L280,142.6L279.8,145.4L277.1,156.4L276.7,162.4L279,166.2L279.2,169.3L278.5,172.1L274.6,172.4L269.4,170.8L265,166.1L261.4,166.7L258.5,167.8L257,172.4L255.8,177.6L256.2,180.7L258.3,182.9L260,187.9L261,194.1L262.1,197L261,198.2L258.3,199.1L256,198.3L251.8,190.8L250,187.9L246.8,187.4L241.2,189.2L232.6,193.4L229.1,193.4L226.2,192.5L223.5,189L221.2,182.2L220.3,177.8L218.7,177.9L213.2,176.6L210.7,178.4L210.7,185.4L210.1,194.3L207.4,199.8L199.7,209.7L197,213.9L195.7,216.9L195.5,219.5L196.7,224.2L198.2,228.5L197,231.1L193,232.4L190.1,229.7L189,225L182.8,218.5L185.5,213.2L185.1,211.7L174.8,209L170.4,204.9L164.2,197.6L162.9,194.6L163.4,184.5L162.9,182L162.1,180.9L159.2,180.9L155,184.4L151,189.6L143.1,195.6L142.3,196.7L145,202.6L144.8,204.7L138.5,213.9L137.3,216.9L129.1,222.6L125.4,224.7L114.1,220.5L111,220L105.8,222.9L98.7,225.5L87.2,228.2L82.8,226.2L80.9,224.3L79.9,221.6L77,216.8L73.6,213.9L71.3,210.7L68.4,207.2L66.5,204.5L69,195.1L67.2,191.9L66.1,187.3L66.7,184.1L65.7,183.3L55.3,181.6L46.5,182.2L40.4,185.2L35.2,190.3L34.6,191.5L35,192.4L37.5,197L33.4,202.1L26.7,205.9L22.1,206.3L20,205.6L20,200.2L23.8,198.3L27.3,194.9L28.3,189.9L28.8,186.5L25.2,182.3L25.6,179.8L27.9,174.9L29.2,170.6L31.1,167L38.2,160.8L45.5,154.8L46.5,148.2L47.1,140.2L48.2,138.3L58,133.6L60.3,131.7L61.5,129L69.2,120.1L77,111.3L78.4,108.3L79.7,106.5L79.7,105L78.8,104L75.1,103.2L73.8,100.4L77.8,95.4L82.8,92.2L87.6,92.2L89.5,93.6L89.3,95.2L91.4,97L95.1,97.6L99.5,97L104.1,95.1L106.8,90.6L108.3,87.2L115.4,83.3L120.2,85.2L133.3,85.8L143.1,84.8L149.2,82.1L156.7,82.1L161.7,83.6L162.5,83.4L164,83L165.2,81.6L170,80.6L170.7,79.4L170.4,78.2L169.6,77.6L163.8,78.2L161.5,77.3L161.1,75.1L162.9,71.3L167.1,68.3L170.9,67.6L173.4,68.3L179.8,74L181.3,74.3L182.3,73.3L183.6,72.7L185.9,73.7L188.2,77.3L188.6,77.9L203,76.6L206.1,76.6L215.9,82.8Z"/></svg>
