<svg xmlns="http://www.w3.org/2000/svg" viewBox="0 0 400 300"><path d="M38.7,300L16.6,287.9L7.7,295.1L0,292.5L0,44L0,44L32.2,27.3L38.6,0L64,0L64,0L64.5,1.6L75.8,2.2L87.1,17.6L104.2,35.7L116.8,32.7L138.2,49.9L143.6,53.2L150.7,52.4L150.7,52.4L162.2,62.2L197.4,69.1L185.1,94.4L182,120.4L175.2,126.6L164.1,123.3L164.9,132.5L147.1,152.6L146.6,168.7L158.3,163.2L166.7,178.6L165.7,188.5L172.9,201.7L164.4,212.2L170.7,238.8L184,243.1L181.2,257.8L159,276.8L110.8,267.7L75.3,278.6L72.5,298.6L63.4,300L38.7,300ZM210.6,300L213.2,293.5L213.2,293.5L228.9,280.8L231.7,300L210.6,300Z" fill="#2c2c34" stroke="#474751" stroke-width="0.8"/><path d="M400,19.1L394.8,16L396.3,5.4L378,2.1L376.1,0L400,0Z" fill="#2c2c34" stroke="#474751" stroke-width="0.8"/><path d="M400,117.1L398.8,117.1L400,119.1L400,134.9L400,134.9L395.4,148.1L390.7,154.1L369.3,155L357,163L336.9,160.3L301.9,151.1L296.4,138.7L272.3,144.9L269.5,151.7L254.6,146.6L242.1,145.7L231.1,139.1L234.8,130.3L234,123.9L241.3,121.9L253.7,131.9L257.1,122.4L278.6,123.9L296.2,117.4L307.9,118.5L315.5,126L317.8,119.8L314.3,96L323.1,91.4L331.7,74.4L349.8,86.3L363.6,71.1L372.2,68.3L391.2,79.6L400,78.2L400,117.1Z" fill="#2c2c34" stroke="#474751" stroke-width="0.8"/><path d="M400,149.7L399.5,148.5L395.4,148.1L400,134.9L400,149.7ZM400,119.1L398.8,117.1L400,117.1L400,119.1Z" fill="#2c2c34" stroke="#474751" stroke-width="0.8"/><path d="M334.9,0L325.4,4L316.3,13.6L298.5,22L302.8,33.3L305.5,49.3L317.9,58.3L331.7,74.4L323.1,91.4L314.3,96L317.8,119.8L315.5,126L307.9,118.5L296.2,117.4L278.6,123.9L257.1,122.4L253.7,131.9L241.3,121.9L234,123.9L207.7,112.8L202.7,120.7L182,120.4L185.1,94.4L197.4,69.1L162.2,62.2L150.7,52.4L152.1,35.8L147.1,27.3L150,1.3L149.8,0L334.9,0Z" fill="#2c2c34" stroke="#474751" stroke-width="0.8"/><path d="M400,210.6L398.2,213L389.5,205.1L384.3,219.4L396.3,235.5L400,242.8L400,268.2L400,268.2L390.8,264.1L370.3,239.2L375.2,236.6L364.1,222.2L363.6,210.5L347.9,205.1L340.4,220L333.2,208.4L333.7,196.3L334.6,195.8L351.7,197L356.1,191.1L364.4,196.8L374,197.5L373.9,187.7L382.4,184.2L384.8,169.9L400,162.6L400,210.6Z" fill="#2c2c34" stroke="#474751" stroke-width="0.8"/><path d="M147.1,27.3L152.1,35.8L150.7,52.4L143.6,53.2L138.2,49.9L140.8,28.7Z" fill="#2c2c34" stroke="#474751" stroke-width="0.8"/><path d="M148,0L150,1.3L150,1.3L147.1,27.3L140.8,28.7L138.2,49.9L116.8,32.7L104.2,35.7L87.1,17.6L75.8,2.2L64.5,1.6L64,0L148,0Z" fill="#2c2c34" stroke="#474751" stroke-width="0.8"/><path d="M149.8,0L150,1.3L148,0L149.8,0Z" fill="#2c2c34" stroke="#474751" stroke-width="0.8"/><path d="M0,292.5L7.7,295.1L16.6,287.9L38.7,300L0,300ZM63.4,300L72.5,298.6L72.6,300L63.4,300Z" fill="#2c2c34" stroke="#474751" stroke-width="0.8"/><path d="M270.7,300L256.3,283.4L248.7,250.1L236.6,246.2L216.7,235L205.5,239.6L191.3,255.3L181.2,257.8L184,243.1L170.7,238.8L164.4,212.2L172.9,201.7L165.7,188.5L166.7,178.6L177.2,186.1L189,184.5L202.7,172.6L207,178.2L218.6,177L223.8,162.7L242,167.2L252.7,161.2L254.6,146.6L254.6,146.6L269.5,151.7L272.3,144.9L296.4,138.7L301.9,151.1L336.9,160.3L334.2,177.7L340,192.6L320.6,187.5L300.7,199.9L302,217.1L299.1,226.9L307.1,244.3L330,261.4L342.3,289.1L353.5,300L270.7,300Z" fill="#2c2c34" stroke="#474751" stroke-width="0.8"/><path d="M15.9,0L12.9,2.8L0,2.6L0,0Z" fill="#2c2c34" stroke="#474751" stroke-width="0.8"/><path d="M400,162.6L384.8,169.9L382.4,184.2L373.9,187.7L374,197.5L364.4,196.8L356.1,191.1L351.7,197L334.6,195.8L340,192.6L334.2,177.7L336.9,160.3L336.9,160.3L357,163L369.3,155L390.7,154.1L395.4,148.1L399.5,148.5L400,149.7L400,162.6Z" fill="#2c2c34" stroke="#474751" stroke-width="0.8"/><path d="M376.1,0L378,2.1L396.3,5.4L394.8,16L400,19.1L400,78.2L400,78.2L391.2,79.6L372.2,68.3L363.6,71.1L349.8,86.3L331.7,74.4L317.9,58.3L305.5,49.3L302.8,33.3L298.5,22L316.3,13.6L325.4,4L334.9,0L376.1,0Z" fill="#2c2c34" stroke="#474751" stroke-width="0.8"/><path d="M400,242.8L396.3,235.5L384.3,219.4L389.5,205.1L398.2,213L400,210.6L400,242.8Z" fill="#2c2c34" stroke="#474751" stroke-width="0.8"/><path d="M232.2,124L232.9,124.4L234.7,126L234.3,128.7L232.3,133.1L231.2,136.6L231.1,139.3L231.3,140.6L231.7,140.6L233.6,140.8L234.6,140.8L237.6,141.5L240,142.5L240.6,143.7L240.8,145.1L243.7,146.9L247.1,148.1L248.2,147.7L252.3,143.3L254,144.1L255,146.4L254.9,147.6L253.8,152.3L253.6,154.8L254.5,156.4L254.6,157.7L254.4,158.9L252.7,159L250.5,158.3L248.7,156.3L247.2,156.6L245.9,157.1L245.3,159L244.8,161.2L245,162.5L245.8,163.4L246.5,165.5L247,168.2L247.4,169.4L247,169.9L245.8,170.2L244.9,169.9L243.1,166.7L242.3,165.5L241,165.3L238.6,166.1L235,167.9L233.5,167.9L232.3,167.5L231.1,166L230.2,163.1L229.8,161.3L229.1,161.3L226.8,160.8L225.8,161.5L225.8,164.5L225.5,168.2L224.4,170.6L221.1,174.7L220,176.5L219.4,177.8L219.4,178.9L219.9,180.8L220.5,182.7L220,183.8L218.3,184.3L217.1,183.1L216.6,181.2L214,178.4L215.1,176.2L215,175.6L210.7,174.4L208.8,172.7L206.2,169.6L205.6,168.3L205.8,164.1L205.6,163.1L205.3,162.6L204.1,162.6L202.3,164L200.6,166.3L197.3,168.8L196.9,169.3L198.1,171.7L198,172.6L195.3,176.5L194.8,177.8L191.4,180.2L189.8,181.1L185.1,179.3L183.7,179.1L181.5,180.3L178.5,181.4L173.7,182.5L171.9,181.7L171.1,180.9L170.6,179.7L169.4,177.7L168,176.5L167,175.1L165.8,173.7L165,172.5L166.1,168.6L165.3,167.2L164.8,165.3L165.1,163.9L164.6,163.6L160.2,162.9L156.6,163.1L154,164.4L151.8,166.6L151.5,167.1L151.7,167.4L152.8,169.4L151,171.5L148.2,173.1L146.3,173.3L145.4,173L145.4,170.7L147,169.9L148.5,168.5L148.9,166.4L149.1,165L147.6,163.2L147.8,162.1L148.7,160L149.3,158.3L150,156.7L153,154.1L156.1,151.6L156.6,148.8L156.8,145.4L157.3,144.6L161.4,142.6L162.4,141.8L162.9,140.7L166.1,137L169.4,133.2L170,132L170.5,131.2L170.5,130.6L170.2,130.2L168.6,129.8L168.1,128.7L169.7,126.5L171.9,125.2L173.9,125.2L174.7,125.8L174.6,126.5L175.5,127.2L177,127.5L178.9,127.2L180.8,126.4L182,124.5L182.6,123.1L185.6,121.4L187.6,122.3L193.1,122.5L197.3,122.1L199.8,120.9L203,120.9L205.1,121.6L205.5,121.5L206.1,121.3L206.6,120.7L208.6,120.3L208.9,119.8L208.8,119.3L208.5,119L206,119.3L205,118.9L204.8,118L205.6,116.4L207.4,115.1L209,114.8L210,115.1L212.8,117.5L213.4,117.7L213.8,117.2L214.3,117L215.3,117.4L216.3,118.9L216.5,119.2L222.5,118.6L223.8,118.6L228,121.2Z" fill="#b8e653" stroke="#0c0e06" stroke-width="1"/></svg>
