<svg xmlns="http://www.w3.org/2000/svg" viewBox="0 0 400 300"><path d="M62.2,0L71.4,9.9L72.3,22.4L76.1,33.9L83.4,39.5L85.1,47.2L84.2,53.4L81.4,54.5L70.8,52.9L69.3,55.2L65.1,55.6L51.1,50.7L41.7,50.5L5.8,49.7L0.6,52L0,51.9L0,38.7L0,38.7L3,36.9L6.5,36.7L13.7,32.1L22,36.3L30.5,36.7L38.9,32.2L35,26.4L28.6,29.8L22.5,29.7L14.8,24.8L8.7,25.1L4.3,29.8L0,30L0,0Z" fill="#2c2c34" stroke="#474751" stroke-width="0.8"/><path d="M330.6,0L327.7,2.9L315.3,3.7L302.8,3.8L298.1,0L330.6,0ZM297.5,0L287.2,2.7L269.1,11.1L265.4,17.4L250.3,26.3L247.6,31.5L239.5,35.6L230.1,32.9L224.8,37.7L221.9,51.4L206.5,67.9L207,74.6L201.6,83L202.9,94.5L194.9,97.4L190.4,99.9L187.4,91.4L181.8,93.7L178.4,93.3L174.8,99.1L159.8,98.9L154.4,95.9L151.9,97.7L146,92L147,86.1L144.6,83.8L140.4,85.8L141.2,79.3L145.2,74.2L137.2,65.9L134.9,60.4L130.6,56.1L126.7,55.6L122,58.4L115.7,61L110.4,65.3L102.1,63.7L96.7,58.7L93.5,58L88.4,60.6L85.3,60.7L84.2,53.4L84.2,53.4L85.1,47.2L83.4,39.5L76.1,33.9L72.3,22.4L71.4,9.9L77.9,6.3L79.7,0L297.5,0Z" fill="#2c2c34" stroke="#474751" stroke-width="0.8"/><path d="M79.7,0L77.9,6.3L71.4,9.9L62.2,0L79.7,0Z" fill="#2c2c34" stroke="#474751" stroke-width="0.8"/><path d="M360.3,175.2L344.2,177.5L339.4,164.1L340.3,119L336.4,114.9L335.6,105.2L328.9,98.3L323,92.5L325.4,82.1L332.1,79.8L336,71.2L345.6,69.3L349.8,63.4L356.3,57.6L363.3,57.5L378.2,68.9L377.4,75.6L381.7,87.3L378,95.2L380,100.6L370.5,112.8L364.5,118.8L360.9,131.2L361.4,143.7Z" fill="#2c2c34" stroke="#474751" stroke-width="0.8"/><path d="M400,26.6L392.9,27.4L387.8,31.7L385.1,43.2L379.5,51.2L378.2,68.9L363.3,57.5L356.3,57.6L349.8,63.4L350.3,49.8L327.9,45.2L327.2,35.6L316.3,22.5L313.7,13.4L315.3,3.7L327.7,2.9L330.6,0L400,0Z" fill="#2c2c34" stroke="#474751" stroke-width="0.8"/><path d="M400,182.5L392,175L377.4,175.3L360.3,175.2L360.3,175.2L361.4,143.7L360.9,131.2L364.5,118.8L370.5,112.8L380,100.6L378,95.2L381.7,87.3L377.4,75.6L378.2,68.9L379.5,51.2L385.1,43.2L387.8,31.7L392.9,27.4L400,26.6L400,182.5Z" fill="#2c2c34" stroke="#474751" stroke-width="0.8"/><path d="M325.4,82.1L323,92.5L328.9,98.3L335.6,105.2L336.4,114.9L340.3,119L339.4,164.1L344.2,177.5L328.6,181.7L324.2,174.8L319,162.4L317.5,152.7L321.8,135L316.9,127.9L315.1,112.3L315.1,98L307,87.8L308.4,81.7Z" fill="#2c2c34" stroke="#474751" stroke-width="0.8"/><path d="M308.4,81.7L307,87.8L315.1,98L315.1,112.3L316.9,127.9L321.8,135L317.5,152.7L319,162.4L324.2,174.8L328.6,181.7L298.1,193.1L287.3,199.8L269.8,205.5L252.4,199.9L253.3,192.2L244.9,175.4L250,153.3L258.2,136.8L253,108.8L250.3,94L250.8,82.8L284.6,81.9L293.2,83.3L299.5,80.1Z" fill="#2c2c34" stroke="#474751" stroke-width="0.8"/><path d="M41.7,50.5L51.1,50.7L65.1,55.6L69.3,55.2L70.8,52.9L81.4,54.5L84.2,53.4L85.3,60.7L88.4,60.6L93.5,58L96.7,58.7L102.1,63.7L110.4,65.3L115.7,61L122,58.4L126.7,55.6L130.6,56.1L134.9,60.4L137.2,65.9L145.2,74.2L141.2,79.3L140.4,85.8L144.6,83.8L147,86.1L146,92L151.9,97.7L148.1,99.3L146.4,105.9L150.9,114.1L155.7,129.9L148.5,132.2L146.7,135L148.2,138.7L147,147.3L143.9,147.3L138.5,146.8L134.5,154.7L129,154.6L125.2,150.4L126.5,142.6L118.4,130.5L113.3,132.8L109.2,133.2L103.8,134.3L104,127.1L100.9,121.9L101.5,116.2L97.3,107.9L91.9,100.9L76.3,100.9L71.8,104.6L66.5,105L63.1,109.3L60.9,114.7L50.5,123.4L42,111.8L34.4,104L29.5,101.5L24.6,97.6L22.4,88.8L19.5,84.5L13.9,81.2L22.5,71.6L28.4,71.9L33.5,68.6L37.8,68.6L40.9,66L39.2,59.4L41.4,57.3Z" fill="#2c2c34" stroke="#474751" stroke-width="0.8"/><path d="M0,51.9L0.6,52L5.8,49.7L41.7,50.5L41.4,57.3L39.2,59.4L40.9,66L37.8,68.6L33.5,68.6L28.4,71.9L22.5,71.6L13.9,81.2L3.5,72.9L0,72.4L0,51.9Z" fill="#2c2c34" stroke="#474751" stroke-width="0.8"/><path d="M143.9,147.3L143,153L145,162.5L140.8,171.2L146.4,176.5L152.6,177.9L160.9,186L161.4,193.7L159.6,196.2L158.1,212.2L152.9,212.4L132.9,203.1L115.3,188.3L98.7,177.6L85.6,164.9L90.3,158.7L91.3,153L100.1,142.4L109.2,133.2L113.3,132.8L118.4,130.5L126.5,142.6L125.2,150.4L129,154.6L134.5,154.7L138.5,146.8Z" fill="#2c2c34" stroke="#474751" stroke-width="0.8"/><path d="M50.5,123.4L60.9,114.7L63.1,109.3L66.5,105L71.8,104.6L76.3,100.9L91.9,100.9L97.3,107.9L101.5,116.2L100.9,121.9L104,127.1L103.8,134.3L109.2,133.2L100.1,142.4L91.3,153L90.3,158.7L85.6,164.9L80.4,163.5L66.4,155.6L56.3,145.1L52.9,137.9Z" fill="#2c2c34" stroke="#474751" stroke-width="0.8"/><path d="M298.1,0L302.8,3.8L315.3,3.7L313.7,13.4L316.3,22.5L327.2,35.6L327.9,45.2L350.3,49.8L349.8,63.4L345.6,69.3L336,71.2L332.1,79.8L325.4,82.1L308.4,81.7L299.5,80.1L293.2,83.3L284.6,81.9L250.8,82.8L250.3,94L253,108.8L239.7,103.8L230.6,104.5L223.8,109.5L215.1,105.3L211.6,98.8L202.9,94.5L202.9,94.5L201.6,83L207,74.6L206.5,67.9L221.9,51.4L224.8,37.7L230.1,32.9L239.5,35.6L247.6,31.5L250.3,26.3L265.4,17.4L269.1,11.1L287.2,2.7L297.5,0L298.1,0Z" fill="#2c2c34" stroke="#474751" stroke-width="0.8"/><path d="M0,30L4.3,29.8L8.7,25.1L14.8,24.8L22.5,29.7L28.6,29.8L35,26.4L38.9,32.2L30.5,36.7L22,36.3L13.7,32.1L6.5,36.7L3,36.9L0,38.7L0,30Z" fill="#2c2c34" stroke="#474751" stroke-width="0.8"/><path d="M248,197.3L247.5,198.1L244.9,197.6L245.4,197ZM152.7,98.6L153.2,98.6L154.7,98.1L156.1,97.1L157.4,95.1L159,93.4L161,93.5L161.6,93.2L162.3,93.1L163,94.2L163.9,95.1L164.4,95.1L164.8,96.7L168.3,97.3L169.9,97.8L171.1,99L171.6,99L172.1,98.7L172.5,98.3L172.6,97.9L172,96.8L172.3,95.9L172.9,95.1L173.8,95L175.1,94.7L176.7,94.7L177.9,94.9L178.3,94.1L177.9,91.7L178,90.4L178.2,89.3L178.6,88.8L180.4,90.2L182,90.7L183.1,90.8L183.5,90.5L183,89L183.1,88.5L183.5,88.3L184.2,88.1L186.3,87.5L186.5,87.6L186.9,90L186.7,90.8L187.1,92.4L187.7,93.9L187.6,94.5L187.2,95.4L186.7,96.3L186.7,96.6L187.5,97.2L189.1,97.8L190.7,98L191.6,97.1L192.5,96.4L193.2,95.7L193.4,94.8L194.4,94.1L197.3,93.2L200,93.1L200.6,93.4L201.8,94.7L203.3,95.6L205.7,95.5L207.4,96L208.9,97L209.8,99.3L210.9,100.9L211.4,103.2L213,104.4L214.4,105L216.2,106.6L218.1,107.5L220,107.2L220.9,108.1L222.4,108.8L223.8,108.8L225,106.9L226.7,106.1L231,104.6L232.6,103.9L234.3,103.4L238.4,103.3L242.2,103.8L244,104.1L245.3,103.9L246.6,104.8L247.8,106.7L248.8,107.3L249.9,108L250.7,109.5L251.6,111L252.1,111.6L253.2,113.1L254.2,113.1L255.2,112.5L255.6,112L255.7,113L255.4,114.6L255.4,115.6L256,115.9L255.7,117.2L254.6,119.4L254.5,120.6L255.7,121L256.5,122.4L256.9,124.6L257.4,125.4L257.5,125.9L258.2,131.5L259.2,137.1L258.6,137.8L257.8,138L257.2,138.3L257.1,138.8L257.4,139.6L257.2,140.2L256.1,140.7L253.8,142.5L253.6,143.2L252.9,144.7L252.4,145.6L251.7,147.4L250.5,151.8L250,155.6L249.9,156.7L249.4,157.6L248.9,158.7L246.4,161.9L245.1,164.5L245.2,165.7L245.3,166.8L244.9,167.6L245,169.9L245.3,171.7L245.7,173.5L247.6,178.7L248.6,181.8L249.2,184.3L249.7,185.9L250.2,186.7L250.4,187.3L253.1,187.8L253.6,188.2L254.4,191.4L254.3,192.9L253.8,193.4L253.8,194.7L253.6,196.2L253.2,196.9L251.7,196.9L250.7,197.5L249.3,197.3L249.2,196.9L248.4,196.8L246.4,195.9L246.7,193.1L245.8,192.9L245,193.3L243.6,196.7L242.9,197.3L232.7,195.5L230.5,194.1L227.9,193.8L223.3,194L219.5,194.4L218.4,195.2L228,194.7L229,194.8L229.5,195.4L217.4,196.5L212.7,197.1L211.4,197L210.3,195.9L205.3,195.7L204.2,196.1L203.7,196.9L205.6,196.7L208.7,196.7L209.6,197.3L199.8,198.1L193,199.6L190.2,200.8L180.7,204.5L174.9,206.2L173.4,206.9L170.8,208.7L167.4,209.9L163.7,212L161.3,212.5L160.8,211.8L160.7,208.2L160.4,203.3L160.6,201.5L160.9,199.7L160.9,198.3L162,197.7L162.3,197.1L162.5,195.2L163.6,193.5L163.6,190.5L163.9,189.9L164.1,189.1L163.7,187.1L163.1,183.4L162.8,183.2L162.5,183.3L161.9,183.4L159.5,182.1L157.7,181.9L156.4,180.8L156.4,179.6L155.7,178.8L155.3,177.4L154.6,175.7L152.8,174.7L151.1,174.5L149.9,174.7L148.5,174.6L146.9,174.1L145.8,173.5L144.7,172.2L143.7,171.3L142.9,171.4L142,171.2L141.1,170.7L140.8,170.4L144.7,166.5L146,164.6L146.2,163.5L146.2,162.3L146.6,161.1L146.7,159.3L144.6,152.7L144,150.7L143.4,150L143,149.8L144.1,149L145.7,149.2L148,149.8L148.5,149.2L150.2,145.9L150.2,144.6L150,143.7L151.1,141.5L151.8,140.6L152.3,139.6L152.2,138.3L151.5,137.8L150.7,137.9L149.7,137.6L148.3,136.9L147.5,136.2L147.7,133.1L147.8,132.2L148.4,131.7L149.2,131.5L151.5,131.4L153.4,131.8L155,132L155.9,132L156.6,132.9L157.6,133.8L158.4,133.8L158.7,133.1L158.5,130.1L157.9,128.5L156.7,127L153.4,125.7L153.4,123.9L153.6,121.9L154.3,121.2L156.8,119.9L156.4,119.3L155.6,118.5L154.1,117.8L154.4,115.4L154.5,113.3L153.2,113.5L151.9,113.7L150.8,113L149.8,111.7L149.7,108.2L149.7,104.1L149.5,102.3L149.8,101.4L151,100.5L152.2,99.3Z" fill="#b8e653" stroke="#0c0e06" stroke-width="1"/></svg>
