<svg xmlns="http://www.w3.org/2000/svg" viewBox="0 0 300 300"><path fill="#e8e8ea" d="M51.6,43L52.7,43L55.8,42.1L58.7,40.1L61.3,35.7L64.8,32.2L68.9,32.4L70,31.8L71.5,31.7L73.1,34L74.8,35.7L76,35.8L76.9,39.1L84.1,40.5L87.4,41.4L90,43.8L90.8,43.8L92,43.3L92.9,42.5L93,41.6L91.9,39.4L92.4,37.4L93.6,35.7L95.5,35.6L98.3,35.1L101.6,35.1L103.9,35.4L105,33.6L104.1,28.7L104.2,26L104.7,23.7L105.5,22.8L109.2,25.6L112.5,26.7L114.9,26.8L115.6,26.2L114.6,23.1L114.9,22.1L115.7,21.6L117.2,21.3L121.4,20L121.8,20.2L122.7,25.2L122.3,26.9L123.2,30.2L124.3,33.3L124.2,34.6L123.3,36.5L122.3,38.3L122.4,39L124,40.2L127.2,41.5L130.6,41.8L132.5,39.9L134.4,38.5L135.8,37.1L136.2,35.2L138.3,33.8L144.4,31.9L149.9,31.7L151.2,32.3L153.7,35L156.9,36.8L161.9,36.6L165.4,37.7L168.4,39.8L170.4,44.5L172.6,47.8L173.6,52.6L177.1,55.1L179.9,56.3L183.7,59.7L187.6,61.5L191.5,61.1L193.4,62.9L196.5,64.2L199.4,64.3L202,60.3L205.5,58.7L214.4,55.5L217.7,54.1L221.4,53.2L229.8,52.9L237.7,53.8L241.6,54.6L244.2,54L246.8,55.9L249.5,59.9L251.5,61.2L253.7,62.6L255.4,65.7L257.3,68.8L258.3,70.2L260.7,73.3L262.7,73.3L264.7,72L265.6,71L265.9,73L265.2,76.4L265.3,78.4L266.5,79.1L265.9,81.8L263.6,86.3L263.4,88.9L265.8,89.7L267.5,92.5L268.4,97.3L269.4,98.9L269.6,99.9L271.2,111.5L273.2,123.1L271.9,124.6L270.1,125L269,125.6L268.7,126.6L269.4,128.3L269,129.7L266.6,130.7L261.8,134.4L261.4,135.9L260.1,139L259.1,140.9L257.5,144.5L255,153.8L254,161.6L253.8,164L252.8,165.7L251.8,168.1L246.4,174.8L243.8,180.2L244.1,182.6L244.2,185L243.4,186.7L243.5,191.3L244.2,195.1L245.1,198.9L249,209.6L251.1,216.1L252.2,221.3L253.4,224.8L254.4,226.2L254.9,227.6L260.5,228.6L261.5,229.4L263.1,236.1L262.9,239.2L261.8,240.3L261.8,243L261.5,246.2L260.7,247.5L257.5,247.6L255.4,248.9L252.5,248.4L252.2,247.5L250.6,247.3L246.4,245.4L247.1,239.6L245.2,239.3L243.6,240.1L240.7,247.2L239.3,248.4L218,244.7L213.5,241.8L208,241.1L198.4,241.5L190.5,242.3L188.2,244.1L208.1,243L210.3,243.2L211.3,244.4L186.2,246.7L176.4,248L173.6,247.7L171.5,245.4L161,245.1L158.8,245.9L157.6,247.5L161.7,247.2L168.1,247.1L169.9,248.4L149.6,250.1L135.5,253.2L129.6,255.6L109.9,263.3L97.8,267L94.6,268.4L89.2,272.1L82.3,274.5L74.4,279L69.6,280L68.4,278.6L68.3,271.1L67.7,260.9L68,257L68.6,253.4L68.6,250.4L70.9,249.3L71.6,248L71.9,244.1L74.3,240.5L74.3,234.3L75,232.9L75.4,231.3L74.4,227.2L73.2,219.5L72.7,219L72.1,219.3L70.8,219.5L65.8,216.8L62,216.4L59.4,214L59.3,211.5L58,210L56.9,207L55.6,203.5L51.8,201.4L48.3,200.9L45.9,201.4L43,201.3L39.6,200.1L37.3,198.8L35,196.3L32.9,194.3L31.3,194.5L29.3,194.1L27.4,193.2L26.8,192.4L35,184.4L37.7,180.4L38,178.1L38,175.6L38.9,173.2L39.2,169.3L34.7,155.6L33.5,151.4L32.2,150.1L31.5,149.6L33.8,147.8L37,148.3L41.8,149.7L42.8,148.3L46.5,141.4L46.5,138.8L46,137L48.2,132.2L49.8,130.4L50.8,128.4L50.5,125.7L49.2,124.7L47.5,124.9L45.4,124.2L42.4,122.7L40.8,121.3L41.2,114.9L41.5,113L42.7,111.9L44.4,111.5L49.2,111.4L53,112.1L56.5,112.5L58.2,112.5L59.7,114.4L61.7,116.3L63.5,116.3L64.1,114.9L63.6,108.6L62.5,105.4L59.8,102.2L53.2,99.5L53,95.6L53.6,91.6L55,90L60.1,87.4L59.3,86L57.7,84.6L54.5,83L55.2,78.1L55.3,73.7L52.7,74.2L50,74.5L47.6,73.1L45.6,70.4L45.3,63.1L45.3,54.6L44.9,50.8L45.6,48.8L48.1,47L50.7,44.6Z"/></svg>
