<svg xmlns="http://www.w3.org/2000/svg" viewBox="0 0 400 300"><path d="M207.3,206.9L208.4,209L209.7,212.3L213.2,215.1L217,216.3L215.8,218.6L213.2,218.8L211.8,217.2L210.2,217.1L207.3,217.1ZM237,125L236.3,127.5L235.6,130.8L235.6,134L235,134.7L234.8,136.8L234.6,138.5L238.1,141.3L237.7,143.6L239.4,145L239.2,146.7L236.6,151L232.6,152.8L227.2,153.6L224.3,153.2L224.9,155.3L224.3,157.9L224.8,159.7L223.2,160.9L220.4,161.4L217.8,160.1L216.8,161.1L217.2,164.7L219,165.7L220.5,164.6L221.3,166.5L218.8,167.6L216.6,169.9L216.2,173.7L215.6,175.7L213.1,175.7L210.9,177.7L210.2,180.6L212.8,183.5L215.4,184.3L214.5,187.9L211.3,190.1L209.5,195L207.1,196.6L206,198.6L206.8,203.1L208.6,205.6L207.5,205.4L205,204.7L198.5,204.1L197.4,201.6L197.4,198.4L195.6,198.7L194.7,197.1L194.5,192.7L196.5,190.9L197.4,188.3L197.1,186.3L198.5,182.9L199.5,177.7L199.2,175.5L200.4,174.8L200.1,173.3L198.8,172.6L199.7,171L198.5,169.6L197.9,165.4L199,164.6L198.5,160.2L199.1,156.6L199.9,153.5L201.5,152.3L200.6,148.9L200.6,145.8L202.7,143.7L202.6,140.9L204.1,137.7L204.2,134.7L203.5,134.1L202.2,128.6L203.9,125.4L203.6,122.4L204.6,119.6L206.3,116.7L208.2,114.9L207.4,113.7L208,112.7L207.9,107.7L210.8,106.3L211.8,103.2L211.4,102.5L213.7,99.9L217.2,100.6L218.8,102.7L219.9,100.3L222.9,100.5L223.3,101.1L228.3,105.9L230.5,106.3L233.8,108.5L236.6,109.7L236.9,111L234.3,115.5L237,116.4L240,116.8L242.2,116.3L244.6,114L245.1,111.4L246.4,110.8L247.7,112.5L247.7,114.9L245.4,116.6L243.6,117.8L240.6,120.8Z" fill="#2c2c34" stroke="#474751" stroke-width="0.8"/><path d="M227.4,203.4L230.6,200.8L232.9,201.9L234.5,200.2L236.6,202.1L235.8,203.6L232.2,205L231,203.4L228.7,205.4Z" fill="#2c2c34" stroke="#474751" stroke-width="0.8"/><path d="M143.8,0L143.8,0L143.8,0L143.8,0Z" fill="#2c2c34" stroke="#474751" stroke-width="0.8"/><path d="M237,125L238.7,124.7L241.4,127.1L242.4,127L245.2,129L247.3,130.8L248.9,133L247.7,134.5L248.4,136.3L247.3,138.4L244.2,140.2L242.2,139.5L240.8,139.9L238.3,138.5L236.5,138.6L234.8,136.8L235,134.7L235.6,134L235.6,130.8L236.3,127.5Z" fill="#2c2c34" stroke="#474751" stroke-width="0.8"/><path d="M248.4,136.3L247.7,134.5L248.9,133L247.3,130.8L245.2,129L242.4,127L241.4,127.1L238.7,124.7L237,125L240.6,120.8L243.6,117.8L245.4,116.6L247.7,114.9L247.7,112.5L246.4,110.8L245.1,111.4L245.6,109.7L245.9,107.9L245.9,106.3L245,105.7L244,106.2L243,106.1L242.6,105L242.4,102.3L241.9,101.4L240.1,100.6L239,101.2L236.1,100.6L236.3,96.7L235.5,95.1L236.4,94.5L236.1,92.9L236.8,91.6L237.3,89.4L236.7,87.6L235.2,86.8L234.9,85.7L235.3,84.1L230.2,84L229.1,80.7L229.9,80.7L229.9,79.5L229.3,78.7L229.2,77.1L227.7,76.2L226,76.3L224.9,75.5L223,74.9L222,73.9L219,73.4L216,71L216.3,69.1L215.9,68.1L216.2,66L212.7,66.5L211.3,67.5L208.9,68.6L208.3,69.5L206.9,69.5L204.9,69.3L203.4,69.8L202.2,69.4L202.4,65.3L200.1,66.9L197.8,66.8L196.8,65.4L195,65.2L195.5,64L194,62.4L192.9,59.9L193.6,59.4L193.6,58.3L195.3,57.5L195,56L195.7,55.1L195.9,53.8L199,52L201.2,51.5L201.5,51.1L203.9,51.2L205.2,43.8L205.2,42.6L204.8,41.1L203.6,40.1L203.6,38.2L205.1,37.7L205.7,38L205.8,37L204.2,36.7L204.1,35L209.4,35.1L210.3,34.1L211,35L211.6,36.6L212.1,36.2L213.6,37.7L215.6,37.5L216.2,36.7L218.2,36L219.3,35.6L219.6,34.5L221.5,33.7L221.4,33.1L219.1,32.9L218.7,31.2L218.8,29.4L217.6,28.7L218.1,28.4L220.1,28.8L222.3,29.5L223,28.8L225,28.4L228,27.4L229,26.4L228.6,25.6L230,25.5L230.6,26.1L230.3,27.3L231.2,27.7L231.8,29L231.1,29.9L230.6,32.2L231.3,33.6L231.5,34.8L233.2,36.1L234.5,36.2L234.8,35.7L235.7,35.6L236.9,35.1L237.8,34.4L239.2,34.6L239.9,34.5L241.4,34.7L241.6,34.2L241.2,33.6L241.4,32.9L242.5,33.1L243.8,32.8L245.3,33.4L246.5,33.9L247.3,33.2L247.9,33.3L248.3,34.1L249.6,33.9L250.6,32.9L251.4,30.9L253,28.4L254,28.3L254.6,29.8L256.1,34.5L257.6,34.9L257.6,36.8L255.6,39L256.5,39.8L261.2,40.3L261.3,43L263.4,41.2L266.7,42.2L271.2,43.8L272.5,45.4L272.1,46.9L275.2,46L280.5,47.5L284.5,47.4L288.5,49.6L291.9,52.6L294,53.4L296.3,53.5L297.3,54.4L298.2,57.8L298.6,59.4L297.5,63.9L296.2,65.7L292.4,69.5L290.7,72.6L288.7,75L288,75.1L287.2,77.1L287.4,82.3L286.7,86.7L286.4,88.5L285.5,89.6L285.1,93.4L282.3,97.2L281.9,100.2L279.7,101.4L279.1,103.2L276.1,103.2L271.9,104.3L270,105.6L267,106.5L263.8,108.8L261.6,111.8L261.2,114L261.6,115.7L261.1,118.8L260.5,120.3L258.6,122L255.6,127.4L253.3,129.9L251.4,131.4L250.2,134.5Z" fill="#2c2c34" stroke="#474751" stroke-width="0.8"/><path d="M204.9,69.3L206.9,69.5L208.3,69.5L208.9,68.6L211.3,67.5L212.7,66.5L216.2,66L215.9,68.1L216.3,69.1L216,71L219,73.4L222,73.9L223,74.9L224.9,75.5L226,76.3L227.7,76.2L229.2,77.1L229.3,78.7L229.9,79.5L229.9,80.7L229.1,80.7L230.2,84L235.3,84.1L234.9,85.7L235.2,86.8L236.7,87.6L237.3,89.4L236.8,91.6L236.1,92.9L236.4,94.5L235.5,95.1L235.5,94.2L233,92.8L230.5,92.7L225.8,93.5L224.5,96.1L224.4,97.6L223.3,101.1L222.9,100.5L219.9,100.3L218.8,102.7L217.2,100.6L213.7,99.9L211.4,102.5L209.5,102.9L208.5,98.9L207,95.7L207.9,92.9L206.4,91.7L206.1,89.6L204.8,87.7L206.5,84.7L205.3,82.3L205.9,81.4L205.4,80.3L206.5,79L206.5,76.6L206.7,74.6L207.3,73.7Z" fill="#2c2c34" stroke="#474751" stroke-width="0.8"/><path d="M203.9,51.2L201.5,51.1L201.2,51.5L199,52L195.9,53.8L195.7,55.1L195,56L195.3,57.5L193.6,58.3L193.6,59.4L192.9,59.9L194,62.4L195.5,64L195,65.2L196.8,65.4L197.8,66.8L200.1,66.9L202.4,65.3L202.2,69.4L203.4,69.8L204.9,69.3L207.3,73.7L206.7,74.6L206.5,76.6L206.5,79L205.4,80.3L205.9,81.4L205.3,82.3L206.5,84.7L204.8,87.7L204,89.2L202.7,89.9L200,88.3L199.7,87.1L194.4,84.3L189.6,81.2L187.5,79.5L186.4,77.2L186.8,76.4L184.5,72.8L181.9,67.7L179.3,62.3L178.2,61L177.4,59L175.3,57.3L173.4,56.2L174.2,55L172.9,52.4L173.8,50.5L175.9,48.8L176.2,49.9L175.5,50.6L175.5,51.5L176.7,51.3L177.7,51.6L178.9,53L180.4,51.9L180.9,50.1L182.6,47.7L185.8,46.6L188.7,43.8L189.6,42.1L189.2,40L189.9,39.8L191.7,41L192.6,42.3L193.8,43L195.4,45.8L197.4,46.2L198.9,45.5L199.9,45.9L201.5,45.7L203.5,47L201.8,49.7L202.6,49.8Z" fill="#2c2c34" stroke="#474751" stroke-width="0.8"/><path d="M212.1,36.2L211.6,36.6L211,35L210.3,34.1L209.4,35.1L204.1,35L204.2,36.7L205.8,37L205.7,38L205.1,37.7L203.6,38.2L203.6,40.1L204.8,41.1L205.2,42.6L205.2,43.8L203.9,51.2L202.6,49.8L201.8,49.7L203.5,47L201.5,45.7L199.9,45.9L198.9,45.5L197.4,46.2L195.4,45.8L193.8,43L192.6,42.3L191.7,41L189.9,39.8L189.2,40L188,39.4L186.7,38.5L185.9,38.9L183.7,38.6L183,37.4L182.5,37.4L179.8,35.9L179.5,35.1L180.5,34.9L180.3,33.5L181,32.5L182.3,32.4L183.4,30.7L184.5,29.2L183.5,28.6L184,27L183.4,24.6L183.9,23.9L183.5,21.6L182.4,20.1L182.8,18.8L183.6,19L184.2,18.2L183.5,16.6L183.9,16.2L185.2,16.3L187.3,14.4L188.4,14.1L188.4,13.2L188.9,10.9L190.4,9.6L192.1,9.5L192.4,9L194.5,9.2L196.6,7.8L197.6,7.2L198.9,5.9L199.9,6L200.6,6.8L200.1,7.7L198.3,8.2L197.7,9.5L196.6,10.3L195.8,11.3L195.5,13.3L194.8,14.9L196.2,15.1L196.5,16.3L197.1,16.9L197.3,18L197,19L197.1,19.6L197.7,19.8L198.4,20.8L201.8,20.5L203.4,20.8L205.3,23.2L206.4,22.9L208.3,23L209.9,22.7L210.8,23.2L210.3,24.6L209.7,25.5L209.5,27.5L210.1,29.3L210.8,30.1L210.9,30.7L209.6,32L210.5,32.6L211.2,33.6Z" fill="#2c2c34" stroke="#474751" stroke-width="0.8"/><path d="M183.9,16.2L183.5,16.6L184.2,18.2L183.6,19L182.8,18.8L182.4,20.1L181.5,19.3L181,17.9L181.6,17.1L180.9,17L180.4,16.1L179.1,15.3L177.9,15.5L177.4,16.4L176.3,17.1L175.7,17.2L175.4,17.8L176.7,19.2L176,19.6L175.6,20L174.3,20.1L173.9,18.5L173.5,19L172.6,18.8L172.1,17.7L171,17.5L170.3,17.2L169.1,17.2L169.1,17.8L168.8,17.4L168.9,16.9L169.1,16.3L169,15.8L169.4,15.5L168.8,15.1L168.8,14L169.9,13.7L170.8,14.7L170.8,15.3L171.9,15.4L172.1,15.2L172.9,15.9L174.2,15.7L175.3,15L177,14.4L177.9,13.6L179.4,13.8L179.3,14L180.8,14.1L182,14.6L182.8,15.4Z" fill="#2c2c34" stroke="#474751" stroke-width="0.8"/><path d="M169.9,13.7L168.8,14L168.8,15.1L169.4,15.5L169,15.8L169.1,16.3L168.9,16.9L168.8,17.4L167.3,16.8L166.7,16.2L167.1,15.7L166.9,15.2L166.2,14.5L165.1,14L164.2,13.6L164,12.8L163.3,12.3L163.5,13.1L163,13.8L162.4,13L161.5,12.7L161.1,12.2L161.1,11.4L161.5,10.5L160.7,10.1L161.4,9.6L161.8,9.2L163.5,9.9L164.1,9.6L165,9.8L165.5,10.4L166.3,10.6L166.9,10L167.6,11.5L168.6,12.6Z" fill="#2c2c34" stroke="#474751" stroke-width="0.8"/><path d="M163,0L163.1,0L163.1,0L168,0L168,0L168.2,0.7L167.5,1.6L167.3,2.7L167.2,4L167.3,4.7L167.4,5.9L167,6.2L166.7,7.4L166.9,8.1L166.4,8.8L166.5,9.5L166.9,10L166.9,10L166.3,10.6L165.5,10.4L165,9.8L164.1,9.6L163.5,9.9L161.8,9.2L161.4,9.6L160.4,8.7L159.2,7.6L158.6,6.7L157.4,5.8L156.1,4.6L156.4,4.1L156.8,4.6L157,4.4L157.9,4.2L158.2,3.6L158.6,3.6L158.5,2.2L159.2,2.2L159.7,2.2L160.3,1.4L161.1,2L161.4,1.7L161.9,1.3L162.8,0.6L162.9,0L163,0Z" fill="#2c2c34" stroke="#474751" stroke-width="0.8"/><path d="M163.1,0L163.1,0L163,0L163.1,0ZM162.9,0L162.8,0.6L161.9,1.3L161.4,1.7L161.1,2L160.3,1.4L159.7,2.2L159.2,2.2L158.5,2.2L158.6,3.6L158.2,3.6L157.9,4.2L157,4.4L156.6,3.5L155.8,3.3L155.9,2.1L155.6,1.8L155,1.6L153.8,2L153.7,1.6L152.9,1.2L152.3,0.6L151.5,0.4L151.8,0L162.9,0Z" fill="#2c2c34" stroke="#474751" stroke-width="0.8"/><path d="M151.5,0.4L152.3,0.6L152.9,1.2L153.7,1.6L153.8,2L155,1.6L155.6,1.8L155.9,2.1L155.8,3.3L155.5,3.9L153.9,3.9L152.9,3.6L151.8,3L150.3,2.9L149.6,2.3L149.6,1.9L150.6,1.2L151.1,0.9L150.9,0.5Z" fill="#2c2c34" stroke="#474751" stroke-width="0.8"/><path d="M151.8,0L151.5,0.4L150.9,0.5L151.1,0.9L150.6,1.2L149.6,1.9L149.6,2.3L148.2,1.8L146.5,1.7L145.3,1.2L143.8,0L143.8,0L143.8,0L151.8,0Z" fill="#2c2c34" stroke="#474751" stroke-width="0.8"/><path d="M228.6,25.6L229,26.4L228,27.4L225,28.4L223,28.8L222.3,29.5L220.1,28.8L218.1,28.4L217.6,28.7L218.8,29.4L218.7,31.2L219.1,32.9L221.4,33.1L221.5,33.7L219.6,34.5L219.3,35.6L218.2,36L216.2,36.7L215.6,37.5L213.6,37.7L212.1,36.2L211.2,33.6L210.5,32.6L209.6,32L210.9,30.7L210.8,30.1L210.1,29.3L209.5,27.5L209.7,25.5L210.3,24.6L210.8,23.2L209.9,22.7L208.3,23L206.4,22.9L205.3,23.2L203.4,20.8L201.8,20.5L198.4,20.8L197.7,19.8L197.1,19.6L197,19L197.3,18L197.1,16.9L196.5,16.3L196.2,15.1L194.8,14.9L195.5,13.3L195.8,11.3L196.6,10.3L197.7,9.5L198.3,8.2L200.1,7.7L200,8.3L198.4,8.7L199.3,9.9L199.3,11.3L198.1,12.9L199.1,15.1L200.3,14.9L200.9,12.9L200,12L199.9,9.9L203.2,8.8L202.9,7.5L203.8,6.6L204.8,8.6L206.7,8.6L208.4,10.1L208.5,11L210.9,11.1L213.8,10.8L215.4,12L217.4,12.3L218.9,11.5L219,10.8L222.3,10.6L225.5,10.6L223.2,11.4L224.2,12.7L226.3,12.9L228.3,14.2L228.8,16.4L230.2,16.4L231.2,17L229.1,18.6L228.9,19.6L229.8,20.6L229.1,21.1L227.5,21.5L227.5,22.8L226.8,23.5Z" fill="#2c2c34" stroke="#474751" stroke-width="0.8"/><path d="M239.9,34.5L239.2,34.6L237.8,34.4L236.9,35.1L235.7,35.6L234.8,35.7L234.5,36.2L233.2,36.1L231.5,34.8L231.3,33.6L230.6,32.2L231.1,29.9L231.8,29L231.2,27.7L230.3,27.3L230.6,26.1L230,25.5L228.6,25.6L226.8,23.5L227.5,22.8L227.5,21.5L229.1,21.1L229.8,20.6L228.9,19.6L229.1,18.6L231.2,17L233,18L234.7,19.8L234.7,21.2L235.8,21.2L237.2,22.6L238.3,23.5L237.8,25.9L236.2,26.6L236.3,27.3L235.8,28.7L237,30.6L237.9,30.6L238.3,32.2Z" fill="#2c2c34" stroke="#474751" stroke-width="0.8"/><path d="M245.3,33.4L243.8,32.8L242.5,33.1L241.4,32.9L241.2,33.6L241.6,34.2L241.4,34.7L239.9,34.5L238.3,32.2L237.9,30.6L237,30.6L235.8,28.7L236.3,27.3L236.2,26.6L237.8,25.9L238.3,23.5L241.5,24.1L241.8,23.6L244,23.4L246.8,24.1L245.4,26.4L245.7,28.3L246.7,29.9L246.2,31L246,32.3Z" fill="#2c2c34" stroke="#474751" stroke-width="0.8"/><path d="M253,28.4L251.4,30.9L250.6,32.9L249.6,33.9L248.3,34.1L247.9,33.3L247.3,33.2L246.5,33.9L245.3,33.4L246,32.3L246.2,31L246.7,29.9L245.7,28.3L245.4,26.4L246.8,24.1L247.8,24.4L249.7,25L252.6,27.3Z" fill="#2c2c34" stroke="#474751" stroke-width="0.8"/><path d="M189.2,40L189.6,42.1L188.7,43.8L185.8,46.6L182.6,47.7L180.9,50.1L180.4,51.9L178.9,53L177.7,51.6L176.7,51.3L175.5,51.5L175.5,50.6L176.2,49.9L175.9,48.8L177.3,46.8L176.8,45.6L175.7,46.9L174.1,45.7L174.7,44.9L174.2,42.5L175.2,42.1L175.7,40.4L176.7,38.6L176.5,37.5L178,37L179.8,35.9L182.5,37.4L183,37.4L183.7,38.6L185.9,38.9L186.7,38.5L188,39.4Z" fill="#2c2c34" stroke="#474751" stroke-width="0.8"/><path d="M359.4,0L359.5,1.6L360,3.1L361,3.9L361.2,5L361.1,5.9L360.7,6L359.3,5.8L359.1,6.1L358.5,6.2L356.5,5.5L355.2,5.5L350.3,5.3L349.5,5.7L348.6,5.6L347.2,6L346.8,3.9L349.2,4L349.9,3.6L350.4,3.5L351.4,2.9L352.5,3.5L353.7,3.5L354.8,2.9L354.3,2.1L353.4,2.6L352.6,2.6L351.5,1.9L350.7,1.9L350.1,2.6L347.1,2.7L347.1,2.7L346,0.5L345.3,0L359.4,0Z" fill="#2c2c34" stroke="#474751" stroke-width="0.8"/><path d="M386.7,0L386.2,0.9L384.1,2.1L383.8,2.8L382.6,3.4L381.3,3L380.6,3.7L380.2,5.6L378.1,7.9L378.1,8.8L377.4,10L377.6,11.5L376.5,12L375.8,12.3L375.4,11.1L374.6,11.4L374.2,11.4L373.7,12.2L371.6,12.2L370.9,11.7L370.5,12L369.7,11.2L369.8,10.4L369.5,10.1L368.9,10.3L369,9.4L369.6,8.7L368.5,7.6L368.1,6.8L367.5,6.2L367,6.2L366.4,6.5L365.5,6.9L364.8,7.5L363.6,7.3L362.9,6.6L362.4,6.5L361.7,6.9L361.3,6.9L361.1,5.9L361.1,5.9L361.2,5L361,3.9L360,3.1L359.5,1.6L359.4,0L386.7,0Z" fill="#2c2c34" stroke="#474751" stroke-width="0.8"/><path d="M400,14.9L400,14.9L399.5,16.6L399.5,18.4L399.4,22.7L399.4,22.7L397.1,23L396.5,21.2L396.6,14.9L396.1,14.4L396,13L395,12.1L394.2,11.3L394.5,9.8L395.5,9.5L396,8.3L397.3,8.1L397.9,7.2L398.8,6.4L399.8,6.4L400,6.6L400,14.9Z" fill="#2c2c34" stroke="#474751" stroke-width="0.8"/><path d="M400,6.6L399.8,6.4L398.8,6.4L397.9,7.2L398,5.3L394.9,4.7L394.8,3.4L393.3,1.6L392.9,0.3L393,0L400,0Z" fill="#2c2c34" stroke="#474751" stroke-width="0.8"/><path d="M400,22.7L399.4,22.7L399.4,22.7L399.5,18.4L399.5,16.6L400,14.9L400,14.9L400,22.7Z" fill="#2c2c34" stroke="#474751" stroke-width="0.8"/><path d="M394.5,9.8L394.2,11.3L395,12.1L396,13L396.1,14.4L396.6,14.9L396.5,21.2L397.1,23L395,23.6L394.4,22.7L393.7,21L393.4,19.6L394,17.2L393.4,16.2L393.1,14L393.1,12L392,10.6L392.2,9.8Z" fill="#2c2c34" stroke="#474751" stroke-width="0.8"/><path d="M392.2,9.8L392,10.6L393.1,12L393.1,14L393.4,16.2L394,17.2L393.4,19.6L393.7,21L394.4,22.7L395,23.6L390.7,25.2L389.3,26.1L386.8,26.9L384.4,26.2L384.6,25.1L383.4,22.8L384.1,19.7L385.2,17.4L384.5,13.5L384.1,11.5L384.2,9.9L388.9,9.8L390.1,10L390.9,9.5Z" fill="#2c2c34" stroke="#474751" stroke-width="0.8"/><path d="M370.5,12L370.9,11.7L371.6,12.2L373.7,12.2L374.2,11.4L374.6,11.4L375.4,11.1L375.8,12.3L376.5,12L377.6,11.5L378.8,12.1L379.3,13L380.5,13.6L381.4,12.9L382.7,12.8L384.5,13.5L385.2,17.4L384.1,19.7L383.4,22.8L384.6,25.1L384.4,26.2L383.2,26.2L381.3,25.7L379.6,25.7L376.4,26.2L374.5,26.9L371.9,27.9L371.4,27.9L371.6,25.6L371.8,25.3L371.7,24.2L370.6,23.1L369.7,22.9L369,22.2L369.5,21L369.3,19.7L369.4,18.9L369.8,18.9L370,17.7L369.8,17.2L370,16.8L371,16.4L370.4,14.3L369.7,13.1L370,12.2Z" fill="#2c2c34" stroke="#474751" stroke-width="0.8"/><path d="M355.2,5.5L356.5,5.5L358.5,6.2L359.1,6.1L359.3,5.8L360.7,6L361.1,5.9L361.3,6.9L361.7,6.9L362.4,6.5L362.9,6.6L363.6,7.3L364.8,7.5L365.5,6.9L366.4,6.5L367,6.2L367.5,6.2L368.1,6.8L368.5,7.6L369.6,8.7L369,9.4L368.9,10.3L369.5,10.1L369.8,10.4L369.7,11.2L370.5,12L370,12.2L369.7,13.1L370.4,14.3L371,16.4L370,16.8L369.8,17.2L370,17.7L369.8,18.9L369.4,18.9L368.6,18.8L368.1,19.9L367.3,19.9L366.8,19.3L367,18.2L365.9,16.5L365.2,16.8L364.6,16.9L363.8,17.1L363.9,16.1L363.4,15.3L363.5,14.6L362.9,13.4L362.2,12.4L360,12.4L359.4,12.9L358.7,13L358.2,13.6L357.9,14.4L356.5,15.6L355.3,13.9L354.2,12.9L353.5,12.5L352.9,12L352.6,10.8L352.2,10.2L351.4,9.7L352.6,8.4L353.4,8.4L354.1,8L354.7,8L355.1,7.6L354.9,6.7L355.2,6.4Z" fill="#2c2c34" stroke="#474751" stroke-width="0.8"/><path d="M347.2,6L348.6,5.6L349.5,5.7L350.3,5.3L355.2,5.5L355.2,6.4L354.9,6.7L355.1,7.6L354.7,8L354.1,8L353.4,8.4L352.6,8.4L351.4,9.7L349.9,8.6L348.8,8.4L348.2,7.6L348.2,7.2L347.4,6.6Z" fill="#2c2c34" stroke="#474751" stroke-width="0.8"/><path d="M369.4,18.9L369.3,19.7L369.5,21L369,22.2L369.7,22.9L370.6,23.1L371.7,24.2L371.8,25.3L371.6,25.6L371.4,27.9L370.6,27.9L367.9,26.6L365.4,24.5L363.1,23.1L361.3,21.3L362,20.4L362.1,19.6L363.3,18.2L364.6,16.9L365.2,16.8L365.9,16.5L367,18.2L366.8,19.3L367.3,19.9L368.1,19.9L368.6,18.8Z" fill="#2c2c34" stroke="#474751" stroke-width="0.8"/><path d="M356.5,15.6L357.9,14.4L358.2,13.6L358.7,13L359.4,12.9L360,12.4L362.2,12.4L362.9,13.4L363.5,14.6L363.4,15.3L363.9,16.1L363.8,17.1L364.6,16.9L363.3,18.2L362.1,19.6L362,20.4L361.3,21.3L360.6,21.1L358.7,20L357.3,18.6L356.8,17.6Z" fill="#2c2c34" stroke="#474751" stroke-width="0.8"/><path d="M393,0L392.9,0.3L393.3,1.6L394.8,3.4L394.9,4.7L398,5.3L397.9,7.2L397.3,8.1L396,8.3L395.5,9.5L394.5,9.8L392.2,9.8L390.9,9.5L390.1,10L388.9,9.8L384.2,9.9L384.1,11.5L384.5,13.5L382.7,12.8L381.4,12.9L380.5,13.6L379.3,13L378.8,12.1L377.6,11.5L377.6,11.5L377.4,10L378.1,8.8L378.1,7.9L380.2,5.6L380.6,3.7L381.3,3L382.6,3.4L383.8,2.8L384.1,2.1L386.2,0.9L386.7,0L393,0Z" fill="#2c2c34" stroke="#474751" stroke-width="0.8"/><path d="M347.1,2.7L350.1,2.6L350.7,1.9L351.5,1.9L352.6,2.6L353.4,2.6L354.3,2.1L354.8,2.9L353.7,3.5L352.5,3.5L351.4,2.9L350.4,3.5L349.9,3.6L349.2,4L346.8,3.9Z" fill="#2c2c34" stroke="#474751" stroke-width="0.8"/><path d="M235.5,95.1L236.3,96.7L236.1,100.6L239,101.2L240.1,100.6L241.9,101.4L242.4,102.3L242.6,105L243,106.1L244,106.2L245,105.7L245.9,106.3L245.9,107.9L245.6,109.7L245.1,111.4L244.6,114L242.2,116.3L240,116.8L237,116.4L234.3,115.5L236.9,111L236.6,109.7L233.8,108.5L230.5,106.3L228.3,105.9L223.3,101.1L224.4,97.6L224.5,96.1L225.8,93.5L230.5,92.7L233,92.8L235.5,94.2Z" fill="#2c2c34" stroke="#474751" stroke-width="0.8"/><path d="M200.5,300L200.5,299.9L203,298.7L203.6,300L200.5,300ZM208.8,300L209.1,299.3L210.2,296.2L210.6,293.4L210.1,290.3L209.7,287.5L211.1,284.4L212.5,282.4L214.3,279.9L216.1,277.8L218.3,275.9L219.3,273.1L220.8,271.4L222.5,269.7L225.1,269.4L226.8,267.4L228.7,266.2L230.9,265.5L232.8,263.9L234.4,262L236.5,261.3L238.1,262.9L237.1,264.9L234.3,266.7L233.1,268L231.2,267.1L228.9,267.7L227.1,269.1L225.1,270.7L223.8,272.6L223.4,275.1L223.6,277.6L224.9,279.8L223,281.3L220.5,281.9L219,284.1L217.4,286.3L215.8,289.3L215.3,292L216.3,294.9L217.7,297.2L219.9,299L220.8,300L208.8,300Z" fill="#2c2c34" stroke="#474751" stroke-width="0.8"/><path d="M226.1,10.5L227.6,10.1L228.2,10.2L228.1,12.3L225.8,12.6L225.3,12.3L226.1,11.6Z" fill="#2c2c34" stroke="#474751" stroke-width="0.8"/><path d="M97.9,115.6L97.5,115.7L97.5,115.5L97.6,115.4L97.9,115.5L98.1,115.5ZM180,135.9L179.5,136L179.5,136L179.5,135.9L179.6,135.8L179.7,135.7L179.8,135.7L179.8,135.7L179.9,135.7L180,135.8L180,135.9L180,135.9ZM202.5,89.9L202.6,89.8L202.9,89.8L203.2,89.8L203.5,89.7L203.9,89.5L204.1,89.2L204.2,88.9L204.2,88.6L204.1,88.3L204.1,88.1L204.2,88L204.5,87.9L204.8,87.7L205,87.5L205,87.8L205.4,88.3L205.5,88.7L205.6,88.8L206.1,89L206.1,89.1L206,89.2L206,89.3L206,89.5L206.1,89.7L206.1,89.9L206.2,90.1L206.2,90.5L206.3,90.8L206.4,91.2L206.4,91.5L206.4,91.6L206.5,91.8L206.7,92L207,92.2L207.2,92.4L207.4,92.6L207.6,92.7L207.7,92.8L207.8,92.9L207.8,93L207.7,93L207.5,93.3L207.2,93.8L207.2,93.9L207.5,94.2L207.5,94.3L207.5,94.5L207.4,94.7L207.1,94.8L207,94.9L207,94.9L207.1,95L207.1,95.2L207.2,95.5L207.1,95.6L207,95.7L207,95.8L207,95.9L207.2,96L207.7,96.4L207.7,96.4L207.7,96.4L207.5,96.7L207.5,96.8L207.5,97L207.5,97.2L207.6,97.2L207.9,97.3L208.2,97.8L208.5,98.3L208.5,98.8L208.5,99.3L208.7,99.6L208.8,100L208.8,100.3L209.1,100.5L209.2,101L209.2,101.2L209.2,101.3L209.4,101.8L209.4,102.2L209.3,102.5L209.3,102.6L209.4,102.8L209.5,102.9L209.6,102.9L209.8,103L210.2,103L210.8,102.9L211.2,102.8L211.7,103.3L211.5,104L211.1,105.1L210.9,106L210.8,106.1L210.8,106.3L210.2,106.6L209.3,106.9L208.9,107.1L208.4,107.4L208.2,107.6L208.1,107.7L207.9,107.8L207.8,108L207.7,108.1L207.5,108.4L207.5,108.7L207.6,108.9L207.8,108.9L207.8,109.2L207.9,109.3L208,109.4L208,109.5L207.9,109.6L207.7,109.7L207.6,109.9L207.4,110.4L207.4,110.6L207.6,111.1L207.7,111.4L207.9,112.4L207.9,112.6L207.6,113L207.5,113.2L207.4,113.4L207.4,113.6L207.5,113.7L207.7,114.2L208,114.6L208.2,114.8L208.2,115.1L208.1,115.2L207.9,115.3L207.6,115.4L207.4,115.6L207.3,115.6L207.1,115.5L207,115.5L206.8,115.6L206.7,115.9L206.5,116.4L206.3,116.5L206.2,116.9L206,117.4L205.9,117.7L205.9,118L205.7,118.1L205.4,118.4L205.2,118.7L205.2,118.8L205,118.8L204.9,119.1L204.6,119.5L204.5,119.9L204.4,120.2L204.4,120.6L204.2,121.4L204.1,121.6L203.9,121.7L203.7,122L203.6,122.3L203.7,122.9L203.8,123.6L203.9,124L203.8,124.4L203.8,124.6L203.9,124.7L204,124.7L204.1,124.9L204,125L203.9,125.2L203.8,125.5L203.4,125.6L203.2,125.5L203.2,125.6L203.2,125.7L203.1,125.9L202.9,126.5L202.8,127L202.7,127.2L202.8,127.4L202.8,127.5L202.8,127.6L202.7,127.7L202.6,127.9L202.5,127.9L202.4,127.8L202.3,127.9L202.2,128.2L202.2,128.5L202.1,128.8L202.1,129.3L202.2,129.6L202.4,130.1L202.6,130.3L202.8,130.3L202.9,130.4L203,130.5L202.9,130.7L202.7,130.8L202.7,130.9L202.7,131.2L202.8,131.5L203,131.6L203,132L203.2,132.1L203.2,132.6L203.3,133.2L203.5,133.4L203.6,133.5L203.5,133.7L203.4,133.9L203.4,134.2L203.4,134.5L203.6,134.7L203.7,134.7L203.9,134.6L204.1,134.7L204.2,134.9L204.2,135.1L204.1,135.3L204,135.8L203.9,136.2L204,136.8L204,137.3L204,137.6L204.1,137.8L204,137.9L203.8,137.9L203.6,138L203.5,138L203.5,138.2L203.4,138.5L203.3,138.7L203.1,139L203,139.3L202.9,139.5L202.9,139.6L202.8,139.8L202.7,140.1L202.6,140.8L202.4,141L202.2,141L202.2,141.1L202.2,141.3L202.4,141.4L202.5,141.6L202.4,141.8L202.5,142.1L202.5,142.3L202.6,142.9L202.5,143.2L202.6,143.5L202.6,143.8L202.4,144.1L202.1,144.1L202,144.3L201.7,144.6L201.7,144.8L201.6,144.9L201.5,145L201.4,145L201.2,145L201,145.3L200.8,145.4L200.8,145.6L200.8,145.8L200.7,145.9L200.5,146.2L200.4,146.5L200.5,146.7L200.6,147.2L200.6,147.4L200.5,147.8L200.4,148L200.5,148.3L200.6,148.5L200.5,148.9L200.5,149.1L200.5,149.6L200.7,150.1L200.9,150.5L200.9,151L201,151.5L201,151.9L201.2,152.1L201.4,152.2L201.3,152.5L201.2,152.7L201.1,152.9L200.7,153L200.4,153.2L200.2,153.3L200,153.4L199.9,153.6L199.8,153.8L199.9,154.5L199.8,154.8L199.7,155.2L199.6,155.5L199.5,155.6L199.5,155.8L199.5,155.9L199.4,155.9L199.2,155.9L199.1,155.9L199,156L199.1,156.3L199.2,156.7L199.2,156.9L199.2,157.1L199.2,157.4L199.1,157.6L198.9,157.6L198.8,157.7L198.8,157.9L198.8,158.2L199,158.4L199.1,158.5L199.1,158.7L198.9,158.7L198.8,158.9L198.7,159.2L198.6,159.5L198.5,159.7L198.4,160.1L198.6,160.5L198.6,160.8L198.6,161.9L198.6,162.3L198.6,162.9L198.5,163L198.5,163.2L198.7,163.6L198.9,164.3L198.9,164.6L198.9,164.8L198.6,165L198.4,165L198.3,164.9L198.2,165L198.1,165.2L198,165.4L197.9,165.5L198.1,165.7L198.1,166.2L198,166.3L197.9,166.5L197.9,166.8L198,167.3L197.9,168.1L198,168.3L198.1,168.5L198.5,168.6L198.9,168.7L198.9,169L198.9,169.2L198.8,169.3L198.5,169.4L198.5,169.7L198.7,170L198.9,170.3L199,170.5L199,170.7L198.8,170.9L199,171.3L199.1,171.5L199,171.7L198.9,172.1L198.8,172.2L198.8,172.4L198.7,172.7L198.7,173L198.8,173.2L200.1,173.4L200.4,173.5L200.6,173.7L200.5,173.9L200.4,174.2L200.3,174.7L200,174.8L199.7,174.6L199.5,174.7L199.2,174.7L198.9,174.7L198.4,174.8L198.1,174.7L198.1,174.9L198.2,175.2L198.8,175.3L199.4,175.5L199.5,175.8L199.8,176.2L200,176.5L200,176.8L199.6,177.3L199.6,177.5L199.1,177.6L199,177.8L198.9,178.4L198.9,178.8L199.1,179L199.3,179.2L199.1,179.6L198.8,179.8L198.6,180L198.7,180.2L198.9,180.5L198.9,180.7L199,181.1L199.1,181.7L199.1,182L199,182.2L198.7,182.5L198.4,182.7L198.4,183.1L198.4,183.4L198.4,183.7L198.5,183.9L198.5,184.1L198.3,184.2L198.2,184.3L198,184.7L197.5,185.1L197.3,185.3L197.4,185.6L197.2,186.1L197,186.5L196.9,186.8L196.9,187.2L197.2,187.4L197.4,187.8L197.5,188.2L197.3,188.8L196.9,189L196.7,189.2L196.6,189.4L196.7,190L196.7,190.3L196.6,190.5L196.5,190.7L196.3,191L195.9,191.2L195.6,191.3L195.5,191.4L195.3,191.8L195.2,192.2L195.2,192.6L194.3,192.7L194.3,193L194.1,193.3L194,193.8L194.2,194.3L194.3,194.7L194.2,195.2L194.2,195.7L194.2,196.1L194.5,196.5L194.7,197.1L194.8,197.5L194.9,197.9L195,198.1L195.1,198.4L195.2,198.6L195.4,198.7L195.7,198.5L195.9,198.3L196.1,198.2L196.6,198.3L196.9,198.1L197,198.1L197.2,198.2L197.4,198.4L197.5,198.9L197.5,199.4L197.4,199.9L197.3,200L197.3,200.2L197.3,200.5L197.5,200.7L197.5,201L197.3,201.8L197.2,202.1L197.4,202.4L197.5,202.7L197.9,203L198.2,203.3L198.4,203.6L198.4,203.9L198.5,204L199,204L199.8,204.1L201.1,204.1L202.4,204.1L203.8,204.1L204.4,204.4L205,204.7L205.8,204.7L206.6,205L207.1,205.2L207.5,205.3L207.8,205.4L207.9,205.7L206.3,205.2L206,205L205.7,205L205.1,205.3L204.8,205.9L204.7,206.1L204.3,206.3L203.9,206.3L202.6,207L202.1,207.1L201.8,207.2L201.5,207.5L201.4,208L201.4,208.3L201.1,209.5L201,210.2L201,210.5L201.1,211.1L201,212L200.7,212.2L200.2,212.5L199.8,212.3L199.1,212.1L198.6,211.8L198,211.5L197.8,211.4L197.3,210.6L197.2,210.4L197.2,210.1L197.5,209.6L197.6,209.6L198.1,209.6L198.4,209.6L198.7,209.8L198.7,210.3L198.6,210.6L198.5,210.7L198.6,210.9L198.8,210.7L199,209.5L199.9,209L200.2,208.7L200.5,208.1L200.5,208L200.5,207.8L200.3,207.7L199.9,207.5L198.5,208.5L197.9,208.8L197.5,209.1L197,209.7L196.9,209.8L196.8,210.2L196.8,210.6L196.3,210.4L195.6,209.8L195.4,209.6L195.6,209.3L195.8,209.1L195.8,208.2L195.9,207.9L196,207.7L196.3,207.4L196.5,207.4L196.6,207.5L196.6,207.7L197.1,207.7L198,207L198.3,206.9L198.8,207.1L199.4,207L199.5,206.9L199.6,206.8L199.2,206.6L198.8,206.5L197.7,206.4L197.4,206.5L197.1,206.8L197,206.7L196.9,206.6L196.5,206.4L196.4,206.4L196.2,206.6L196.2,206.9L196.1,207.2L195.8,207.5L195.5,208L195.5,208.4L195.5,208.6L195.4,208.7L195.3,208.8L194.7,208.8L194.3,208.4L194.2,208.1L193.8,207.8L194.7,207.4L194.9,207.2L195.2,206.7L195.4,206.4L195.3,206.2L195.1,206.2L195.1,206.6L194.9,206.8L194.6,206.7L194,207.1L193.7,207L193.1,207.1L192.8,206.9L192.8,206.6L192.9,206.3L192.8,205.9L192.6,205.7L192.5,205.8L192.4,205.5L192.2,205L192.2,204.8L192.1,204.6L192.2,204.5L192.4,204.6L192.5,204.8L192.8,204.8L193.3,205.1L193.6,205L193.7,205L193.7,204.7L193.7,204.4L193.8,204.4L194.1,204.8L194.3,204.7L194.7,204.8L194.9,204.8L195.2,204.7L195.7,204.3L196,203.9L196.1,203.9L196.3,203.9L196.4,204L196.4,204.3L196.5,204.5L196.7,204.7L196.7,205L196.7,205.2L196.4,205.5L196.3,205.7L196.5,205.8L196.6,205.7L196.7,205.6L196.8,205.3L196.9,205.2L196.9,205L196.9,204.8L196.6,204.3L196.6,204.1L196.6,203.8L196.9,203.6L196.9,203.4L197,203.1L196.8,202.8L196.2,202.2L195.2,201.7L195.1,201.7L195,201.8L195.1,201.9L195.3,201.9L196.1,202.4L196.4,202.7L196.5,202.8L196.7,202.9L196.7,203.2L195.8,203.5L195.1,204L194.5,204.4L194.2,204.3L194,203.9L193.8,203.5L193.6,203.2L193.4,203.2L193.3,203.2L193.2,203L193,203.1L192.5,202.8L192.4,202.7L192.7,202.3L193.1,202.4L193.2,201.2L193.1,200.9L192.6,200.6L192.3,200.6L192,200.6L191.8,200.5L191.5,200.4L191.3,200.3L191,200.1L190.7,200L190.2,199.3L190,198.8L189.9,198.4L190.6,198.4L191,198.3L191.1,198.1L191,197.8L190.8,197.5L190.9,197.2L191.2,197L191.4,197.1L191.9,197.6L192,197.9L192.4,198.8L192.5,198.9L192.5,199L193.3,199.5L193.4,199.5L193.4,199.1L193.6,198.5L193.8,198.3L193.9,198.3L193.9,198.2L193.7,197.9L193.8,197.6L193.7,197.6L193.6,197.8L193.2,198.8L192.9,199L192.6,198.6L192.5,198.2L192.4,198.1L192.4,197.6L193,197.7L192.8,197.5L192.1,197.2L191.9,197.1L191.7,197L191.5,196.6L191.2,196.3L191.7,195.8L192,195.4L192.8,195.6L193,195.5L192.9,195.2L192.7,195.3L192.4,195.1L192,194.6L192,194.4L192.1,193.9L192.3,193.8L192.6,193.7L193,193.8L193.2,194L193.3,193.9L193.2,193.5L192.9,193.4L192.6,193.2L192.7,192.9L192.8,192.6L192.8,192.4L192.9,192L192.8,191.8L192.9,191.6L193.1,191.6L193.1,191.5L192.8,191.5L192.7,191.8L192.7,192.2L192.5,192.4L192.4,192.7L192.4,193L192.3,193.4L192.1,193.3L191.9,193.1L191.9,193L191.9,192.8L191.9,191.6L191.9,190.5L192,189.7L192.3,189.4L192.4,189.3L192.5,189.4L192.7,189.4L192.9,189.2L192.4,189L192.2,189.2L192,189.3L191.6,189.2L191.5,188.8L191.3,188.4L191.3,188L191.3,187.3L191.8,187.4L192.2,187.5L193.3,187.5L194.2,188.1L194.5,188L194.5,187.9L194.2,187.8L194,187.4L193.9,187.3L193.9,187.1L193.9,186.8L193.7,185.9L193.6,186L193.5,186.3L193.3,186.8L193.1,187L192.7,187.1L192.3,187.2L191.9,187.1L191.9,186.9L191.9,186.6L191.7,186.5L191.4,186.4L191.2,186.3L191.1,186.1L191.3,185.8L191.5,185.6L191.6,185.6L191.8,185.7L192,186L192.2,186L192.5,185.8L192.5,185.7L192.4,185.6L192.2,185.6L192,185.4L191.6,185L191.8,184.6L192.3,184.2L192.5,184.1L192.3,183.7L192.5,183.2L192.3,182.9L192,182.5L191.7,182.4L191.6,182.5L191.6,182.7L191.6,182.8L191.6,182.9L191.5,182.9L191,182.8L190.7,182.5L190.2,182.3L190.1,182.1L190.1,181.9L190.2,181.4L190.1,181.4L189.8,181.8L189.3,181.9L188.9,182L188.7,182.1L188.7,182.3L188.8,182.3L189,182.3L189.2,182.8L189.1,183L189,183.1L188.9,183.1L188.5,182.8L188.3,182.4L188.3,182.2L188.4,181.8L189,181.3L189.2,181.1L189.5,180.9L190,180.3L190.4,180L190.2,179.8L190,179.4L190,178.9L190.8,178.7L191.2,178.8L191.6,178.8L191.9,178.7L192.1,178.7L192.5,178.5L192.6,178.3L192.7,178.2L192.7,178L192.6,177.9L192.6,177.5L192.6,177.3L192.8,177.2L193,177.1L193.1,177.1L193.4,177.3L193.3,177.5L193.2,177.8L193,178.8L192.9,179L192.7,179.2L192.8,179.6L192.7,179.9L191.9,180.3L191.8,180.3L191.9,180.4L192.3,180.4L192.6,180.3L193,180L193.1,179.6L193.2,178.8L193.4,178.7L193.6,178.7L193.7,178.9L193.7,179.3L193.7,179.7L193.4,180.9L193.1,181.4L193,181.5L193,181.6L193.3,181.6L193.5,181.4L193.7,181L193.8,180.6L193.8,180.2L193.8,180L193.9,179.4L194,179L194,178.6L193.8,178.4L193.5,178.3L193.5,178L193.6,177.4L194.1,177.4L194.6,177L194.9,176.9L195,176.9L195.6,177.3L195.8,177.3L195.7,177.2L195.6,177.1L195.4,177L195,176.6L194.4,176.5L194.5,176L194.6,175.5L194.9,175.4L195.4,175.3L196.3,174.6L196.4,174L196.5,173.4L196,173.3L195.6,172.9L195.2,172.7L194.9,172.4L194.9,172.1L195,171.4L195.4,171.3L195.6,170.4L195.3,169.8L195.4,169.3L195.7,168.9L195.8,168.6L195.9,168.3L196.2,168.2L196.2,168.1L196.2,167.8L196,167.4L196,166.9L196.2,166.3L196.5,166.3L196.6,166.3L196.3,165.9L196.2,165.5L196.2,165.4L196.4,165.2L196.6,165.2L196.8,165.4L197.1,166L197.2,165.8L197,165.2L196.9,164.4L196.6,164.5L196.3,164.4L196.2,164.3L196.1,164.1L196.2,163.9L196.3,163.7L196.5,163.5L197,163.4L197.3,163.2L197.4,162.6L197.3,162.7L197.1,163.2L196.8,163.3L196.7,163.3L196.5,163.2L196.1,162.8L195.9,162.7L195.7,162.7L195.5,162.8L195.1,163.5L194.9,163.7L194.2,163.7L193.9,163.6L193.6,163.5L193.6,163.3L193.7,163.1L193.9,163L193.9,162.9L193.7,162.9L193.4,162.7L193.3,162.4L193.2,162L193,161.3L192.9,160.8L193.1,160.4L193.5,159L193.6,158.2L193.8,157.6L193.8,157.2L194.3,156.8L194.5,156.6L194.9,155.3L195,154.6L194.3,152.5L194.2,152.1L194.1,151.6L194.3,150.8L194.3,150.5L194.2,150.1L193.8,149.3L193.8,149L194,148.6L193.8,148.1L193.9,147.8L194,147.6L194.6,147.7L194.9,147.7L195,147.5L195.1,147.2L195.2,146.6L195.2,146.3L195.3,145.9L195.6,145.8L195.7,145.4L195.9,144.9L196.2,143.6L196.4,143.2L196.7,142.8L196.6,142.3L196.8,142L196.9,141.8L197,141.4L197.2,141.1L197.7,140.6L197.8,140.1L198.1,139.1L198.2,138.4L198.3,138L198.3,137.6L198.5,137.1L198.7,136.7L198.7,136.5L199.2,135.9L199.3,135.5L199.1,135.2L199.1,134.8L199,134.1L199.3,133.9L199.4,133.7L199.7,132.7L199.7,132.3L199.8,131.9L199.6,131.3L199.5,130L199.4,129L199.2,128L199.2,127.4L199.1,126.7L199.1,126.3L199.2,125.4L199.9,124.8L200,124.1L200.1,123.3L200.1,122.6L200,122.3L199.7,121.9L199.6,121L199.6,120.8L199.9,120.6L200.1,120.3L200.2,119.8L200.5,119.4L200.6,118.4L200.7,117.6L200.8,117.4L201.1,117L201.2,116.9L201.2,116.7L201.2,116.1L201.2,115.7L201.5,115L201.5,114.7L201.7,113.9L201.8,113.4L201.9,113.1L201.9,112.8L201.9,112.1L201.8,111.7L201.7,111.5L201.9,110.8L202.1,110.6L202.3,110.3L202.4,109.9L202.5,109.7L202.2,108.5L202.1,108.1L202.2,107.2L202.3,106.6L202.3,106.1L202.3,105.9L202.3,105.6L202.5,105.2L202.6,104.9L202.5,104.8L202.3,104.7L202.1,104.4L202.1,104L202.1,103.8L202.1,103.4L202.4,103.4L202.6,103.2L202.8,102.8L203,102L203,100.9L203.2,100.3L203.2,100L203.3,99.3L203.4,98.9L203.4,98.5L203.4,98.2L203.1,96.7L203.1,96.1L203.3,95.3L203.3,94L203.2,93.8L203.1,93.5L203.1,93.1L202.9,92.5L202.8,91.2L202.8,90.6L202.7,90ZM207.3,207L207.3,208.3L207.3,209.6L207.3,210.8L207.3,212.1L207.3,213.3L207.3,214.5L207.3,215.9L207.3,217L206.9,217L206.8,217.1L206.1,217.2L205,217L204.8,216.8L204.4,216.3L204.3,216.5L203.9,216.7L203.6,216.8L203.3,216.8L203,216.6L203,216.5L202.9,216.5L202.3,216.8L201.7,216.5L201.2,216.3L200.3,216.2L199.8,215.9L198.7,215.9L198.5,215.8L198.5,215.5L198.5,215.3L198.8,215.2L198.8,215L199,215.1L199.3,215.3L199.4,215.3L199.6,215.1L199.9,214.9L200,214.9L200.5,215.1L200.7,215.1L201.1,215L201.1,214.9L201.2,214.7L201.2,214.6L201.5,214.5L201.8,214.6L201.8,214.9L201.8,215.3L202.1,215.4L202.5,215.4L202.8,215.5L202.9,215.3L202.4,214.7L202.2,214.4L201.9,214.2L201.6,214.1L201.3,213.5L201.3,213L201.3,212.5L201.9,212.2L201.8,211.8L202,211.5L202.2,211.3L202.5,212.5L202.6,213L202.4,213.1L202,213.1L202.2,213.7L202.6,213.9L203,214.3L203,214.6L203.2,214.8L203.7,214.8L204,214.7L204.2,214.5L204.4,214.4L204.7,214.7L205.2,214.9L205.4,215L205.5,215.3L205.5,215.5L205.5,215.7L205.7,215.6L205.9,215.3L206,215.1L206.1,215.1L206.2,215L206.2,214.9L205.8,214.7L203.7,213.5L203.4,213.1L203.2,212.5L203.3,211.9L203.4,211.8L203.8,211.5L204.5,211.2L205.3,210.8L205.4,210.7L205.4,210.4L205.3,210.2L205,210L204.6,210L204.3,210L204,210.1L203.4,210.4L203.1,210.4L202.8,210.2L202.5,209.9L202.4,209.4L202.4,209.2L202.5,208.9L202.6,208.6L202.8,208.5L203,208.5L203.1,208.5L203.2,208.4L203.3,208.3L203.3,208.1L203.2,208.1L203,207.9L202.9,207.7L202.6,207.4L202.8,207.3L203.2,207.3L203.4,207.5L203.7,207.7L203.8,207.7L204,207.6L204.3,207.3L204.6,206.9L204.8,206.5L205,206.2L205.2,206.2L205.9,207L206.1,207.1L206.9,206.6L207,206.6L207.3,206.9ZM211.5,218.4L211.4,218.6L211.3,218.8L211,219L210.8,219.1L210.7,219L210.6,218.8L210.5,218.6L210.5,218.5L210.4,218.5L210.3,218.5L210.2,218.6L209.9,218.8L209.8,218.9L209.7,218.9L208.8,218.7L208.8,218.6L208.7,218.5L208.6,218L208.2,217.6L208.8,217.3L209.4,217.3L210.6,217.5L211.1,217.6L211.4,218L211.5,218.2ZM193.5,169.4L193.3,169.4L193.1,169.5L192.9,169.4L192.6,169.4L192.2,169.3L191.9,169.1L191.8,168.9L191.9,168.8L192.1,168.4L192.3,167.6L192.5,166.6L192.4,166.2L192.4,166L192.4,165.8L192.4,165.6L192.4,165.4L192.5,165.2L192.7,164.8L192.7,164.6L192.7,164.4L192.8,164L192.8,163.9L192.7,163.8L192.8,163.7L193.6,164L194.2,164.1L194.2,164.4L194.3,164.6L194.4,165L194.4,165.1L194.4,165.5L194.1,165.6L194.2,165.9L194.3,166.1L194.1,166.2L193.9,166.3L193.8,166.4L193.7,166.4L193.5,166.6L193.5,166.7L193.8,167L194,167.2L194.2,167.5L194.4,167.9L194.3,168.1L194.1,168.4L193.8,168.6L193.6,168.7L193.6,169.2ZM191.6,192L191.6,192.6L191.6,193.2L191.5,194L191.5,194.1L191.6,194.1L191.7,194.2L191.6,194.6L191.5,194.9L191.4,195.2L191.4,195.5L191.3,195.6L191,195.6L190.8,195.6L190.7,195.2L190.7,195L190.7,194.7L190.5,194.4L190.5,194.2L190.6,194L190.7,193.9L190.7,193.5L190.8,193.4L190.9,193.2L190.9,193.2L190.9,193.1L190.9,193.1L190.3,193.6L190.2,193.7L190.2,193.9L190.2,194.5L190.1,194.8L190,194.9L189.7,194.9L189.4,194.9L189,194.6L188.7,194.7L188.7,194.3L188.8,193.9L189.3,194L189.4,193.4L189.2,193.3L189,193.1L188.9,192.9L189,192.7L189.3,192.5L189.5,192.5L189.6,192.6L190,192.5L189.9,192.1L189.6,192L189.7,191.7L190.1,191.5L190.3,191.2L190.3,190.9L190.2,190.6L190.3,190.5L190.5,190.3L190.8,190.2L190.9,190.2L191.1,190.4L191.4,190.4L191.4,190.4L191.5,190.6ZM188.8,190.4L188.5,190.4L188.4,189.7L188.8,188.6L188.8,188.2L188.7,187.9L188.7,187.7L188.7,187.6L189.1,187.4L189.3,187.6L189.5,188.2L189.8,189L189.8,189.8L189.6,190L189,190.2ZM191.8,208.2L191.9,208.2L192,208.2L192.1,208.3L192.7,208.4L193.2,208.6L193.5,208.8L193.8,208.8L194.1,209.1L194.2,209.1L194.4,209.2L194.7,209.6L194.8,209.7L195.2,210L195.2,210.1L195,210.1L194.5,209.9L194.2,209.9L194,209.9L194,209.9L194,209.6L193.9,209.5L193.4,209.1L193.2,208.9L192.9,208.8L192.5,208.9L192.2,208.8L192.2,208.9L191.8,208.5L191.4,208.2L191.2,207.8L191,207.5L191,207.4L191.1,207.3L191.3,207.5L191.6,207.8L191.8,207.9ZM191.4,189.7L191.3,189.8L191,189.7L190.4,189.9L190.2,189.5L190.1,188.9L190,188.8L189.8,188.4L189.8,188.2L189.6,187.9L189.6,187.5L189.5,187.4L189.7,187.2L190.3,187L190.5,186.7L190.7,186.7L190.6,187.4L190.7,187.6L190.9,187.8L191,187.9L191,188.2L191.1,188.5L191.2,188.7L191.3,188.8L191.3,188.9L191.2,189ZM195.8,210.7L195.9,211L195.9,211.1L196.1,211.1L196.4,211L197,211.2L197,211.2L197.3,211.6L197.5,211.8L197.7,212.2L197.5,212.4L197.3,212.8L197.3,212.9L197.2,213L197,213.2L196.8,213.4L196.5,213.4L196.2,213.5L196,213.6L195.9,213.6L195.8,213.6L195.7,213.5L195.7,213.3L195.9,213.2L196.2,212.8L196.2,212.4L195.9,212.3L195.8,212.4L195.6,212.4L195.5,212.3L195.4,212.5L195.3,212.7L195.4,212.9L195.4,213L195.3,213.1L195,213L194.8,212.8L194.7,212.7L194.8,212.3L194.8,212.1L194.7,211.8L194.7,211.8L194.6,211.8L194.3,211.8L194,211.5L193.9,211.1L193.3,211L193.7,210.4L194.4,210.3L194.6,210.6L195.3,210.8L195.3,210.5L195.3,210.4L195.4,210.3L195.4,210.3L195.5,210.4L195.7,210.4L195.7,210.5ZM190.7,202.5L190.8,203.3L190.9,203.4L191.1,203.5L191.4,203.9L191.5,204.1L191.1,204.8L191,205.3L190.6,205.3L190.4,204.8L190.2,204.3L190.1,203.7L189.9,203.2L190.2,202.9L190.4,202.9L190.4,202.6ZM204.5,217.3L206.6,217.8L207.3,217.5L207.8,217.5L208,217.9L207.4,218.3L207.4,218.4L207.5,218.5L208,218.6L208.2,218.7L208.3,218.9L208.2,219.1L208.2,219.2L208.2,219.4L208.6,219.7L208.8,219.9L208.9,220.1L208.9,220.5L208.9,220.7L208.8,220.7L208.6,220.7L208.4,220.5L208.2,220.1L208.1,220.1L207.8,220L207.4,219.8L207.2,219.8L206.9,219.7L206.7,219.8L206.6,219.7L206.5,219.4L206.5,219.3L206.6,218.9L206.6,218.8L206.6,218.8L206.3,218.9L206.2,218.8L205.9,218.5L205.8,218.5L205.6,218.5L205.4,219L205.4,219.1L205.5,219.4L205.9,219.9L205.7,219.9L205.2,219.8L205.1,219.7L205,219.4L204.7,219.3L204.6,219.2L204.6,219.1L204.6,218.7L204.5,218.7L204.1,218.8L204.1,218.7L204,218.6L204,218.5L203.7,218.4L203.7,218.3L203.8,218.2L203.9,218L204,217.1ZM199.9,213.2L200.5,213.6L200.9,213.6L200.9,213.8L201,214.2L200.9,214.3L200.7,214.5L200.6,214.7L200.6,214.8L200.1,214.5L199.7,214.1L199.5,214.2L199.2,214.1L198.9,214.1L198.8,214.3L198.4,214.4L198.3,214L198,213.6L197.7,213.3L197.9,212.8L198.1,212.7L198.3,212.5L199.1,212.7L199.5,212.8ZM193.6,173.3L193.5,173.4L193.3,173.5L192.9,173.7L192.9,173.8L192.9,174L193.1,174.3L193.2,174.6L193.4,175L193.4,175.4L193.4,175.5L193.5,175.7L193.6,176L193.6,176.2L193.6,176.3L193.6,176.6L193.5,176.6L193.3,176.7L193.3,176.8L193.3,176.9L192.8,176.9L192.6,176.8L192.6,176.3L192.4,176.1L192.2,175.8L191.9,175.2L191.8,175.1L191.5,174.6L191.2,174.2L191.6,174L191.5,173.6L191.8,173.4L192.1,173.3L192.3,173.4L192.5,173.4L192.6,173.3L192.6,172.8L192.7,172.5L192.9,172.3L193.2,172.3L193.3,172.5L193.4,172.7L193.7,172.8L193.7,173ZM195.6,174.7L195,175L194.6,174.9L194.5,174.7L194.4,174.5L194.4,174.2L194.5,174L194.7,173.8L194.8,173.6L194.9,173.5L194.8,173.3L194.9,173.1L195,173.1L195.5,173.2L196,173.5L196.2,173.7L196.2,173.9L196,174.2L195.9,174.5ZM190.1,175.2L190,175.2L189.9,175.2L189.9,175.1L189.8,174.9L189.9,174.8L190,174.8L190.1,174.9L190.1,175.1ZM189.4,198.4L189.3,198.8L189.1,198.8L189,198.7L189,198.4L188.9,198.3L189,198L189.1,197.8L189,197.6L189.4,197.6L189.8,197.6L189.9,197.7L189.8,197.9L189.6,198L189.4,198ZM189.9,190.7L189.9,191L189.5,191.7L189.1,192L188.8,192.3L188.6,192.3L188.5,192.2L188.7,192L188.9,191.7L188.8,191.4L188.7,191.3L188.6,191.3L188.5,191.1L188.5,190.9L188.6,190.8L188.8,190.7L188.9,190.8L189.4,190.6L189.6,190.5L189.9,190.4ZM189.9,186.7L189.7,186.7L189.7,186.6L189.5,186.4L189.6,186.2L189.9,186.1L190.2,186.1L190.4,186.2L190.4,186.3L190.1,186.5L190,186.6ZM191.1,170.3L190.7,170.4L190.6,170.3L190.6,170.2L190.7,170.1L190.9,170.1L191,170.1L191.1,170.2L191.1,170.3ZM193.9,174.9L193.8,174.9L193.7,174.9L193.6,174.8L193.6,174.6L193.4,174.4L193.4,174.3L193.4,174.1L193.5,173.9L193.6,173.8L193.7,173.9L193.9,174.1L193.9,174.4L193.9,174.6ZM191.4,201L191.4,201.3L191.3,201.4L191.2,201.5L191,201.3L190.9,201.3L190.7,201.5L190.6,201.6L190.4,201.6L190.1,201.5L189.8,202L189.7,202.2L189.4,202.5L189.4,202.2L189.6,201.7L189.6,201.4L189.8,201L190.1,201.1L190.5,201L190.9,200.7L191.2,200.6L191.4,200.8ZM190,196.8L189.5,197.1L189.4,197L189,197L189.1,196.6L189.1,196.3L189.2,196.2L189.2,196L189.3,195.6L189.6,195.7L189.9,195.8L190.2,195.9L190.5,196L190.6,196.4L190.3,196.5ZM193.4,171.2L193.5,171.3L193.3,171.4L193.1,171.3L193.1,171.5L193,171.5L192.6,171.4L192.5,171.3L192.5,171.1L193,171.1L193.3,171L193.3,171ZM192.5,203.8L192.4,203.8L192.1,203.7L192,203.6L191.7,203.4L191.7,203.2L191.6,202.9L191.7,202.9L191.9,203L192,203.1L192.1,203.3L192.5,203.5L192.6,203.6L192.6,203.7ZM192,178.2L191.9,178.4L191.6,178.5L191.4,178.3L191.1,178.4L191,178.1L191.2,177.9L191.4,177.6L191.6,177.2L191.5,176.7L191.7,176.5L191.8,176.4L192.1,176.2L192.1,176.6L192,177.4L192.2,177.8L192.3,177.9L192.2,178.1ZM210.2,221.9L210.1,221.9L209.8,221.8L209.5,221.8L209.5,221.7L209.5,221.7L209.5,221.6L209.7,221.5L210.3,221.6L210.3,221.6L210.4,221.7L210.3,221.8ZM213.2,218.7L212.9,219L212.8,218.9L212.7,218.9L212.7,218.8L212.7,218.7L212.8,218.6L213,218.5L213,218.5L213.3,218.6ZM201,217.1L201.1,217.4L201.2,217.4L201.5,217.5L201.6,217.4L202,217.4L202.2,217.3L202.5,217.2L202.9,218L202.9,218.2L202.6,218.5L202.4,218.5L202.2,218.4L202.2,218.3L202.2,218.2L202,218.1L201.9,218.1L201.7,218.2L201.6,218.2L201.5,218L201.1,218L201.1,217.9L201.1,217.7L201,217.6L200.6,217.4L200.4,217.2L200.2,217.1L200.2,217.2L200.1,217.3L199.9,217.4L199.9,217.3L199.8,217.3L199.8,217.2L199.9,216.9L200,216.9L200.4,216.9L200.7,217.1ZM211,221.4L210.9,221.4L210.8,221.3L210.7,221.2L210.2,221.1L210.2,221L210.3,220.9L210.4,220.8L210.5,220.7L210.7,220.4L210.7,220.5L210.8,220.6L210.9,220.9L211,221.2L211,221.3Z" fill="#b8e653" stroke="#0c0e06" stroke-width="1"/></svg>
