<svg xmlns="http://www.w3.org/2000/svg" viewBox="0 0 300 300"><path fill="#e8e8ea" d="M155.3,24.9L155.5,24.9L156,24.8L156.6,24.8L157.3,24.6L158,24.1L158.5,23.5L158.7,22.8L158.7,22.3L158.5,21.6L158.4,21.2L158.7,20.9L159.4,20.8L159.9,20.4L160.3,20L160.4,20.7L161.2,21.6L161.5,22.6L161.6,22.7L162.7,23.2L162.7,23.3L162.5,23.5L162.4,23.8L162.5,24.1L162.7,24.6L162.8,25L162.9,25.5L163,26.2L163.1,26.8L163.3,27.7L163.4,28.3L163.4,28.6L163.6,29L164,29.4L164.6,29.8L165,30.3L165.3,30.6L165.7,30.8L166,31.1L166.2,31.2L166.2,31.4L166.1,31.5L165.6,32.1L164.9,33.1L164.9,33.2L165.6,33.9L165.7,34.2L165.7,34.6L165.4,35L164.7,35.2L164.6,35.3L164.6,35.4L164.7,35.6L164.7,36.1L165,36.6L164.8,36.8L164.6,37L164.6,37.2L164.6,37.5L164.9,37.7L166,38.4L166.1,38.5L166.1,38.6L165.6,39.1L165.6,39.3L165.6,39.8L165.7,40.2L165.8,40.3L166.4,40.4L167.1,41.5L167.7,42.5L167.7,43.4L167.8,44.4L168.2,45.3L168.2,45.9L168.4,46.6L168.9,47.1L169.1,48L169.1,48.5L169.1,48.8L169.5,49.7L169.5,50.6L169.4,51.2L169.4,51.5L169.5,51.7L169.8,51.9L170,52.1L170.4,52.1L171.1,52.2L172.4,51.9L173.3,51.7L174.4,52.8L173.9,54.3L173.2,56.7L172.6,58.5L172.5,58.8L172.4,59.1L171.2,59.7L169.4,60.4L168.5,60.8L167.4,61.3L167.1,61.7L166.8,62L166.4,62.3L166.3,62.6L166,62.8L165.7,63.5L165.7,64.1L165.8,64.5L166.2,64.6L166.3,65.1L166.4,65.4L166.7,65.6L166.6,65.8L166.4,66L166,66.1L165.8,66.5L165.5,67.7L165.4,68.1L165.8,69.1L165.9,69.7L166.4,71.7L166.5,72.2L165.8,73L165.6,73.5L165.5,73.9L165.5,74.2L165.5,74.5L166.1,75.5L166.7,76.3L167,76.8L167,77.4L166.9,77.7L166.5,77.8L165.8,78.1L165.5,78.4L165.2,78.5L164.8,78.2L164.5,78.3L164.1,78.5L163.9,79.1L163.5,80.1L163.2,80.4L163,81.1L162.5,82.2L162.3,82.9L162.2,83.4L161.8,83.7L161.3,84.3L160.9,84.9L160.8,85.1L160.5,85.1L160.3,85.7L159.5,86.5L159.4,87.4L159.1,87.9L159.1,88.8L158.6,90.5L158.6,90.9L158.2,91.2L157.6,91.8L157.5,92.3L157.7,93.7L158,95.2L158,95.8L157.9,96.8L157.8,97.2L158,97.3L158.4,97.4L158.5,97.8L158.2,98L158.1,98.5L157.8,99L157,99.2L156.8,99L156.7,99.2L156.7,99.5L156.5,99.9L156.1,101.1L155.8,102.1L155.7,102.5L155.7,102.9L155.9,103.1L155.9,103.3L155.6,103.6L155.4,103.9L155.2,104L155,103.9L154.7,104.1L154.6,104.6L154.5,105.2L154.4,106L154.3,106.9L154.7,107.5L155.1,108.7L155.4,109L155.7,108.9L156,109.2L156.2,109.4L156,109.9L155.6,110L155.6,110.3L155.7,110.9L155.8,111.5L156.2,111.8L156.3,112.6L156.7,112.8L156.6,113.9L157,115.1L157.3,115.4L157.5,115.6L157.4,116.1L157.1,116.5L157,117.2L157.1,117.7L157.5,118.2L157.8,118.2L158.2,118L158.6,118.3L158.7,118.7L158.7,119L158.5,119.5L158.3,120.4L158.2,121.3L158.3,122.6L158.4,123.7L158.4,124.3L158.4,124.6L158.3,124.8L157.9,124.9L157.6,125L157.3,125.1L157.3,125.4L157,126L156.8,126.4L156.4,127L156.2,127.6L156,128.1L156,128.3L155.9,128.9L155.7,129.3L155.4,130.9L155,131.2L154.7,131.4L154.5,131.6L154.6,132L155,132.1L155.1,132.5L155,133L155.3,133.5L155.3,134.1L155.5,135.2L155.3,135.9L155.3,136.6L155.3,137.2L155,137.7L154.5,137.8L154.1,138.2L153.6,138.7L153.5,139.1L153.4,139.5L153.2,139.6L152.8,139.6L152.5,139.7L152.1,140.1L151.7,140.4L151.6,140.8L151.6,141.2L151.4,141.5L151.1,142L150.9,142.6L151.1,143.2L151.3,144.1L151.4,144.5L151.1,145.3L150.9,145.8L151.1,146.5L151.3,146.9L151.1,147.7L151,148.2L151.1,149.1L151.5,150.1L151.9,151.1L151.9,152.2L152,153L152.2,154L152.6,154.3L152.9,154.6L152.8,155.1L152.6,155.6L152.3,156.1L151.5,156.2L150.9,156.6L150.4,156.8L150,157.1L149.8,157.5L149.6,157.8L149.7,159.4L149.7,160L149.4,160.9L149.2,161.5L149.1,161.7L149,162L149,162.3L148.7,162.4L148.3,162.2L148.1,162.3L148,162.5L148.1,163.1L148.2,164L148.4,164.4L148.4,164.7L148.3,165.4L148.1,165.9L147.7,165.9L147.5,166.1L147.4,166.5L147.5,167L148,167.4L148.1,167.7L148,168L147.7,168.1L147.5,168.4L147.3,169L147.1,169.7L146.8,170.3L146.7,171L147.1,171.8L147.1,172.5L147,174.7L147,175.5L147.1,176.7L147,177.1L146.9,177.4L147.3,178.3L147.7,179.8L147.8,180.4L147.7,180.8L147.2,181.2L146.7,181.3L146.5,181L146.3,181.2L146,181.6L145.8,181.9L145.7,182.3L146,182.7L146.1,183.6L145.8,184L145.6,184.4L145.7,184.9L145.8,185.9L145.6,187.6L145.8,188.1L146.1,188.4L147,188.8L147.6,188.9L147.8,189.5L147.7,189.9L147.4,190.1L146.9,190.3L146.9,191L147.3,191.7L147.8,192.2L147.9,192.6L147.9,193.1L147.6,193.4L148,194.2L148.2,194.8L148,195.2L147.7,195.9L147.5,196.2L147.5,196.5L147.4,197.2L147.3,197.9L147.4,198.4L150.2,198.7L150.8,198.8L151.2,199.2L151.1,199.7L150.8,200.3L150.5,201.3L150,201.5L149.5,201.2L148.9,201.3L148.3,201.4L147.6,201.4L146.7,201.6L146,201.4L146,201.8L146.2,202.5L147.5,202.7L148.7,203L149,203.7L149.5,204.5L150,205L150,205.8L149.3,206.7L149.2,207.3L148.1,207.5L147.8,207.8L147.7,209L147.8,209.9L148.2,210.2L148.5,210.8L148.2,211.5L147.5,212L147.1,212.5L147.3,212.9L147.6,213.5L147.7,213.8L147.9,214.7L148.1,215.9L148.1,216.5L147.9,216.9L147.2,217.6L146.7,218L146.7,218.8L146.6,219.5L146.7,220L147,220.5L146.9,221L146.5,221.1L146.2,221.3L145.8,222.1L144.8,223L144.5,223.4L144.5,224.1L144.1,225L143.8,225.8L143.5,226.6L143.5,227.4L144.1,227.8L144.6,228.5L144.8,229.5L144.4,230.7L143.6,231.1L143.1,231.6L143,232L143.1,233.2L143.1,233.8L143,234.3L142.8,234.7L142.3,235.2L141.6,235.6L140.9,235.9L140.6,236.2L140.3,236.9L140,237.7L140,238.6L138.2,238.8L138.1,239.5L137.7,240L137.6,241.1L138,242.1L138.2,242.9L137.8,243.9L138,245L138,245.8L138.7,246.7L139.1,247.9L139.3,248.8L139.4,249.6L139.6,250.1L139.8,250.6L139.9,251.2L140.3,251.4L141,250.8L141.6,250.4L141.9,250.3L142.9,250.4L143.5,250L143.8,250.1L144.2,250.3L144.5,250.7L144.7,251.6L144.9,252.7L144.7,253.8L144.4,254L144.3,254.3L144.4,255L144.7,255.5L144.7,256.2L144.4,257.7L144.1,258.3L144.5,259.1L144.9,259.7L145.6,260.2L146.3,260.9L146.7,261.4L146.6,262.2L146.9,262.4L148,262.4L149.7,262.4L152.3,262.5L154.9,262.5L157.8,262.6L159.2,263.2L160.5,263.7L162.1,263.7L163.6,264.4L164.8,264.8L165.5,265L166.2,265.2L166.3,265.8L163.2,264.9L162.5,264.4L161.9,264.4L160.7,264.9L160.1,266.3L159.7,266.7L158.9,267.1L158.1,267.2L155.4,268.6L154.5,268.7L153.8,269L153.1,269.5L152.9,270.7L153,271.4L152.3,273.8L152.1,275.2L152.1,275.9L152.3,277L152,279L151.5,279.4L150.3,280L149.5,279.6L148.1,279.2L147.1,278.5L145.8,277.9L145.4,277.6L144.3,276.1L144.2,275.6L144.1,275L144.7,274.1L145,274L145.9,274L146.7,273.9L147.2,274.4L147.4,275.4L147.2,276L147,276.3L147,276.6L147.6,276.2L147.9,273.9L149.8,272.7L150.4,272L151,271L151.1,270.7L151.1,270.3L150.7,269.9L149.8,269.5L147,271.7L145.7,272.3L144.8,272.9L143.8,274.1L143.6,274.4L143.4,275.2L143.3,276L142.3,275.6L140.8,274.4L140.5,274L140.8,273.3L141.3,272.8L141.3,271.1L141.4,270.5L141.8,270L142.3,269.5L142.6,269.4L142.9,269.6L142.9,270L143.9,270L145.7,268.5L146.5,268.4L147.5,268.8L148.7,268.6L148.9,268.4L149.1,268L148.3,267.6L147.5,267.4L145.1,267.3L144.6,267.4L144,268.2L143.7,268L143.6,267.6L142.8,267.3L142.4,267.4L142.1,267.8L142.1,268.4L141.9,269L141.2,269.7L140.7,270.7L140.7,271.5L140.7,271.9L140.5,272.1L140.1,272.4L138.9,272.2L138.2,271.4L138,270.8L137.2,270.2L138.9,269.4L139.5,269L140,268L140.4,267.4L140.1,267L139.8,267L139.8,267.6L139.4,268.2L138.7,267.9L137.5,268.8L136.8,268.6L135.7,268.8L135.1,268.4L135,267.8L135.2,267.2L135,266.2L134.7,265.9L134.4,266L134.2,265.4L133.9,264.3L133.7,264.1L133.5,263.6L133.7,263.5L134.1,263.6L134.5,263.9L135,263.9L136.1,264.6L136.6,264.5L136.9,264.3L137,263.7L137,263.2L137.2,263.2L137.8,263.9L138.2,263.8L139,264L139.4,263.9L140,263.7L141.1,262.9L141.7,262.1L142,262L142.3,262.1L142.5,262.4L142.5,262.9L142.8,263.4L143.1,263.8L143.2,264.3L143.1,264.8L142.5,265.5L142.4,265.8L142.6,266L142.9,265.9L143.2,265.6L143.4,265.1L143.5,264.8L143.5,264.5L143.5,264L143,262.8L142.9,262.6L142.9,262L143.5,261.5L143.6,261.1L143.7,260.4L143.4,259.8L142.1,258.6L140.1,257.4L139.9,257.6L139.7,257.8L139.9,257.9L140.2,258L142,259L142.5,259.6L142.8,259.7L143.1,260.1L143,260.7L141.2,261.2L139.8,262.4L138.7,263.1L137.9,262.9L137.5,262.1L137.2,261.2L136.6,260.6L136.3,260.7L136,260.6L135.8,260.3L135.4,260.5L134.4,259.9L134.1,259.6L134.8,258.7L135.6,259L135.8,256.5L135.5,255.9L134.5,255.2L134,255.3L133.3,255.2L132.9,255L132.4,254.8L131.9,254.7L131.3,254.3L130.6,254.1L129.7,252.4L129.3,251.6L129.1,250.7L130.5,250.6L131.4,250.5L131.6,250.1L131.3,249.4L130.9,248.8L131.2,248.3L131.6,247.9L132,248L133.2,249L133.3,249.6L134.1,251.5L134.3,251.7L134.4,251.9L136.1,253L136.3,253L136.2,252L136.7,250.8L137.1,250.4L137.3,250.4L137.4,250.2L136.9,249.7L137.1,249L137,249L136.6,249.4L135.8,251.6L135.3,252L134.7,251L134.3,250.3L134.1,250L134.2,249L135.5,249.2L135,248.8L133.5,248.2L133.1,247.9L132.8,247.8L132.3,247L131.7,246.4L132.8,245.3L133.3,244.5L135.1,244.9L135.4,244.6L135.1,244.1L134.8,244.3L134.3,243.9L133.4,242.8L133.4,242.3L133.6,241.3L133.9,241L134.6,240.8L135.5,241.2L135.8,241.4L136.1,241.3L135.8,240.6L135.3,240.3L134.7,239.8L134.7,239.2L134.9,238.7L135.1,238.2L135.2,237.4L135.1,236.8L135.3,236.6L135.5,236.5L135.6,236.2L135,236.3L134.9,237L134.8,237.7L134.4,238.2L134.3,238.8L134.2,239.5L134,240.4L133.5,240L133.2,239.7L133.1,239.5L133.2,239.1L133.1,236.5L133.1,234.3L133.3,232.6L133.9,232L134.2,231.8L134.5,231.9L134.9,231.9L135.2,231.6L134.3,231.2L133.7,231.4L133.3,231.8L132.5,231.5L132.4,230.7L132,229.9L131.9,229L131.9,227.6L133,227.7L133.8,228L136,228L137.8,229.3L138.7,229.1L138.6,228.8L138,228.5L137.6,227.8L137.4,227.6L137.3,227.1L137.3,226.6L136.8,224.8L136.6,224.8L136.4,225.4L136.1,226.5L135.5,227L134.7,227.2L133.9,227.4L133.2,227.2L133.1,226.7L133.1,226.2L132.8,226L132,225.7L131.8,225.6L131.5,225.1L131.9,224.4L132.2,224L132.6,224.1L132.9,224.3L133.4,224.8L133.9,224.9L134.4,224.5L134.5,224.2L134.1,224L133.9,223.9L133.4,223.7L132.5,222.9L132.9,222L134,221.1L134.3,220.8L134,220L134.4,219.1L134,218.4L133.4,217.6L132.7,217.4L132.5,217.7L132.5,218L132.6,218.2L132.5,218.4L132.3,218.4L131.3,218.2L130.7,217.7L129.6,217.2L129.4,216.8L129.3,216.3L129.7,215.3L129.5,215.3L128.8,216.1L127.7,216.4L126.9,216.6L126.6,216.9L126.4,217.1L126.7,217.3L127.1,217.3L127.4,218.2L127.4,218.6L127.2,218.8L126.8,218.8L126,218.2L125.6,217.5L125.6,216.9L125.9,216.1L127.2,215.1L127.5,214.7L128.2,214.2L129.2,213.1L130,212.5L129.6,212L129.2,211.2L129.2,210.2L130.9,209.8L131.7,210L132.6,209.9L133.1,209.7L133.5,209.6L134.3,209.3L134.7,208.9L134.7,208.6L134.7,208.3L134.7,208L134.5,207.2L134.7,206.9L135,206.5L135.4,206.4L135.6,206.4L136.2,206.8L136.1,207.2L135.9,207.7L135.4,209.9L135.2,210.4L134.9,210.8L135.1,211.6L134.7,212.3L133.2,212.9L133,212.9L133.1,213.2L134,213.1L134.7,213L135.4,212.4L135.6,211.6L135.9,210L136.3,209.7L136.7,209.7L136.9,210.1L136.8,210.9L136.8,211.8L136.3,214.2L135.6,215.2L135.5,215.5L135.5,215.8L136.1,215.8L136.5,215.2L136.8,214.6L137.1,213.6L137.1,212.9L137.2,212.5L137.3,211.1L137.5,210.4L137.5,209.4L137.1,209L136.6,208.8L136.4,208.2L136.7,207L137.7,207.1L138.7,206.2L139.3,206L139.7,206L140.9,206.8L141.2,206.8L141.1,206.5L140.9,206.3L140.4,206.1L139.5,205.2L138.3,205.1L138.5,204L138.8,203L139.4,202.9L140.4,202.6L142.3,201.1L142.6,200L142.7,198.8L141.8,198.4L140.8,197.6L140,197.2L139.3,196.7L139.5,195.9L139.6,194.6L140.4,194.3L140.8,192.5L140.2,191.1L140.4,190.1L141.2,189.3L141.3,188.7L141.5,188L142.2,187.9L142.2,187.6L142.1,186.9L141.7,186.2L141.7,185.1L142.1,183.9L142.7,183.9L142.9,183.9L142.4,183.1L142,182.3L142.1,182L142.4,181.7L142.9,181.5L143.3,182L144,183.3L144.1,183L143.8,181.6L143.6,179.9L142.9,180.1L142.3,180L142,179.7L141.8,179.3L142,178.9L142.2,178.5L142.7,178.1L143.7,178L144.4,177.4L144.6,176.3L144.4,176.4L144,177.4L143.4,177.7L143,177.7L142.7,177.5L141.9,176.6L141.5,176.4L141.1,176.4L140.7,176.6L139.8,178.1L139.5,178.4L137.9,178.5L137.3,178.3L136.7,178.1L136.8,177.7L137,177.3L137.3,177.1L137.3,176.9L136.8,176.8L136.3,176.4L136,175.9L135.9,174.9L135.4,173.4L135.3,172.4L135.6,171.6L136.4,168.6L136.7,167.1L137.1,165.8L137.1,164.9L138.1,164.1L138.5,163.7L139.4,161L139.5,159.6L138.1,155.2L137.9,154.4L137.8,153.4L138.2,151.7L138.2,151.1L137.9,150.1L137.1,148.6L137.1,147.9L137.4,147.1L137.1,146.1L137.3,145.5L137.4,145L138.7,145.3L139.3,145.2L139.6,144.9L139.8,144.1L140,142.9L140,142.3L140.1,141.5L140.8,141.2L141,140.5L141.5,139.5L142,136.6L142.6,135.9L143.1,135.1L142.9,133.9L143.3,133.3L143.6,132.9L143.9,132.2L144.2,131.5L145.2,130.5L145.4,129.3L146.1,127.3L146.2,125.9L146.5,125L146.4,124.2L146.8,123.2L147.2,122.3L147.4,121.9L148.3,120.7L148.4,119.8L148.1,119.2L148.1,118.3L147.8,117L148.4,116.5L148.7,116.2L149.5,114.1L149.4,113.3L149.6,112.3L149.1,111.1L149.1,108.4L148.8,106.4L148.3,104.3L148.3,103.1L148,101.6L148,100.7L148.3,98.8L149.8,97.6L150.1,96.2L150.2,94.4L150.2,93.1L150,92.5L149.3,91.5L149.1,89.8L149.2,89.3L149.9,88.8L150.3,88.1L150.5,87.1L151,86.3L151.1,84.3L151.5,82.7L151.7,82.1L152.3,81.4L152.4,81.2L152.5,80.7L152.5,79.5L152.6,78.7L153,77.2L153.1,76.5L153.6,75L153.8,73.9L154,73.3L153.9,72.7L154.1,71.2L153.7,70.4L153.6,69.9L154.1,68.5L154.4,68.1L154.9,67.4L155.1,66.6L155.1,66.1L154.5,63.7L154.4,62.9L154.5,61L154.8,59.7L154.7,58.7L154.8,58.2L154.9,57.6L155.3,56.8L155.4,56.3L155.3,56L154.7,55.8L154.3,55.1L154.3,54.4L154.4,53.9L154.5,53.2L155.1,53L155.4,52.6L155.7,51.9L156.1,50.1L156.3,47.9L156.6,46.6L156.7,45.9L156.9,44.6L157.1,43.7L157.2,42.9L157.1,42.3L156.5,39.1L156.5,37.9L156.8,36.1L156.8,33.6L156.7,33L156.5,32.5L156.4,31.7L156.1,30.4L155.7,27.8L155.7,26.4L155.6,25.3ZM165.3,268.5L165.3,271.2L165.3,274L165.2,276.5L165.2,279.1L165.2,281.6L165.2,284.2L165.2,287.1L165.1,289.3L164.3,289.3L164.1,289.5L162.7,289.9L160.5,289.4L159.9,288.9L159.2,287.9L158.9,288.2L158.2,288.6L157.4,289L156.8,289L156.3,288.6L156.1,288.4L156,288.3L154.8,288.9L153.5,288.3L152.4,288L150.7,287.8L149.5,287.1L147.3,287.1L147,286.9L146.8,286.2L146.9,285.8L147.4,285.7L147.5,285.3L148,285.4L148.6,285.9L148.8,285.9L149.2,285.4L149.8,284.9L150,284.9L151.1,285.4L151.6,285.4L152.2,285.1L152.3,284.9L152.4,284.6L152.6,284.3L153.1,284.2L153.7,284.4L153.8,285.1L153.7,285.8L154.4,285.9L155.3,285.9L155.9,286.2L155.9,285.8L155,284.7L154.6,284L154.1,283.6L153.3,283.4L152.8,282.2L152.8,281.1L152.7,280L154,279.4L153.7,278.5L154.1,277.8L154.6,277.6L155.1,280.1L155.5,281L155,281.2L154.1,281.2L154.6,282.4L155.5,282.8L156.2,283.8L156.3,284.4L156.7,284.7L157.7,284.8L158.3,284.6L158.7,284.2L159.1,284L159.7,284.6L160.9,285L161.2,285.3L161.4,285.8L161.4,286.3L161.5,286.6L161.8,286.5L162.3,285.7L162.5,285.5L162.8,285.4L162.9,285.2L163,285L162.1,284.5L157.7,282.2L157.1,281.2L156.8,280L156.8,278.8L157.1,278.5L157.9,278L159.3,277.3L161,276.4L161.2,276.2L161.2,275.6L161,275.2L160.3,274.9L159.6,274.8L159,274.8L158.3,275L157.1,275.6L156.4,275.6L155.8,275.2L155.3,274.5L155,273.6L155,273L155.1,272.5L155.4,271.9L155.8,271.7L156.2,271.7L156.5,271.6L156.7,271.4L156.9,271.2L156.8,271L156.7,270.8L156.1,270.4L155.9,270L155.5,269.4L155.7,269.2L156.6,269.1L157.1,269.5L157.6,270L158,270L158.3,269.8L158.9,269.2L159.5,268.4L160,267.5L160.4,267L160.9,266.9L162.3,268.6L162.8,268.7L164.4,267.8L164.6,267.8L165.1,268.3Z"/></svg>
