<svg xmlns="http://www.w3.org/2000/svg" viewBox="0 0 300 300"><path fill="#e8e8ea" d="M64.1,210.4L64.8,208.6L66.1,206.5L67.7,203.7L69.7,200.3L71,194.3L71.9,190.5L72.7,187.1L74.1,184L75.5,181.9L79.6,177.9L82.6,174.9L84.1,173.7L85.3,172.6L87.1,171.4L89.1,170.1L90.5,167.4L91.8,164.9L92.7,164.3L93.9,163.9L97.6,161.2L100,159.5L100.5,160.4L101,161.4L101.4,161.9L103.4,162.2L106.1,162.2L107.6,161.9L108.4,161L109.3,158.6L109.8,158.1L110.5,158L113.4,159.7L115.8,162.1L118.3,164.5L119.5,165.3L120.1,166.3L121.1,170.7L121.8,171.7L122.8,172.2L124.7,171.9L126.6,171.1L128.4,170L130.1,168.6L131.3,167.3L131.8,166.3L132,162.7L132.4,161.9L134.2,160.5L137.1,158.1L138.7,156.8L138.6,156.3L137.6,154.8L136.6,153.2L137.6,151.6L138.6,150.3L142.2,146L142.2,144.6L142.5,142.9L145.4,137.9L147.1,131.5L147.2,130.2L148.9,127.1L151,123.1L155.1,122.4L156.6,121.4L158.4,119.6L159.6,118L160.1,116.4L160.5,113.4L161.3,109.9L161.7,106.9L162.9,104.1L164.9,102.7L168.4,101.5L169,100.9L169.5,99L169.9,95.2L170,92.8L170.1,91.8L170.6,90.1L173.9,87L175.2,82.1L176.5,77L180.3,70.9L184.6,64.7L186.6,63.1L188.3,62.3L190.3,62.3L191.7,61.8L196.3,58.7L198.2,57.7L199.7,56.6L200,55.7L200.2,54.3L199.7,51.2L200.5,48.9L201,45.3L201.2,42.4L201,41.4L200.3,40.1L200.2,39.8L198.8,38L196.4,37L193.2,36.7L191.5,36.1L191.2,34.6L191.1,33.7L190.9,32.8L190.7,30.8L188.5,20L192.5,20L197.5,21.3L198.7,22.3L199.4,26L201.1,28L204.3,29.8L206.2,33.3L206.9,38.7L208.6,41.9L209,42.4L211,47.1L211.5,48.5L211.6,51.3L211.4,53.2L212.4,55.5L210.9,59.5L210.4,61.9L210.3,65.3L211.2,71.4L212.6,76L214.2,79.8L215.9,82.7L218.6,86L221.6,88.9L224.4,90.8L221.8,91.8L216.8,92L214,91.4L212.6,91.3L211.2,91.7L206,92.3L200.5,92L195.6,91.3L192.5,91.4L190.2,93.2L188.3,95.9L186.5,98L187.2,100.4L188.5,101.7L191.1,104.5L193.4,107.3L194.6,109.2L199.1,113.2L203.6,116.9L204.5,117.5L205.7,118.1L206.4,118.4L208.9,120.5L212.2,123.9L215.3,129.3L217.5,134.7L219.6,140L220.6,140.9L222,141.5L222.2,142.6L222.1,144.3L221.6,145.7L220.4,147.5L218.1,151.3L215.1,153.4L214.3,154.7L213.8,156.3L213.2,158L211.6,161.5L210.4,164.3L209.2,165.2L206.5,169.5L204.7,173.8L204.3,175L203.8,175.8L202.9,176.5L199.7,177.8L198.6,178.5L197.7,179.3L197,180.2L196.8,181.3L197.5,182.8L198.4,184L199.3,184.1L200.1,184.1L200.6,184.8L201,185.2L201,193.6L200.2,194.9L200.3,195.4L199.9,196.9L199.8,198.5L200,199.1L200.7,199.6L201.5,200.8L202,203.3L203,212.4L203.5,213.8L204.4,214.8L207.3,216.8L210.1,219.4L211.1,221L211.6,223.8L212.7,225.9L212.7,226.6L212.2,226.9L211.2,226.9L210.4,227.1L211,228.7L212.5,231.4L215.1,234.2L217.7,237.3L219.9,239.7L222.7,242.7L224.9,244.9L227.1,247.2L228.8,247.8L230,247.9L230.6,248.4L231.2,249.4L232.4,250.6L233.7,252.2L234.1,253.7L233.5,255.2L234.1,257.4L234.1,257.5L234.5,258.4L234.3,259.1L234.6,262L235.3,264.5L236.4,266.6L236.4,266.7L236.2,268L234.8,268.9L234,270.3L233.8,272.2L234.2,274.5L235.2,277.3L235.3,278.9L234.9,279.1L234.2,279.6L233.5,280L231.6,278.1L229.5,276.8L226.4,274.6L223.2,273.8L219,273.6L217.3,273.9L216,273.1L214.2,272.1L213.3,271.9L211.9,272.6L210.9,272.7L209.8,272.4L207.4,272.4L207.2,271.1L206.8,270.9L204.3,271L203.5,269.9L203.1,270L202.1,269.7L200.1,268.2L198,269.2L193.5,269.1L187.8,269.1L181.9,269.1L176.5,269.1L171.1,269L170.6,267.6L169.5,266.9L167.4,266.8L161.5,267.1L156.9,266.9L155.5,266.7L153.9,266.3L150,266L145.3,266.2L144.3,266.2L140.5,266.2L131.9,265.8L127.2,265.9L127.3,266.8L127,267.4L126.7,268.9L121.5,268.9L114.6,268.9L108.1,268.9L103.7,268.9L96.3,268.9L93.8,267.8L93.1,267.2L92.9,266.5L92.8,266L92.3,265.8L92.7,260.5L93.7,256.1L94.1,252L95.6,248.3L94.9,244.7L94,243.1L89.3,237.9L91.4,236L88.7,236.3L88.1,234.3L86.7,232.1L87.5,231.7L88.4,230.4L90.9,230.8L90.8,230.2L88.6,228.2L88.8,227.3L89.7,226.2L89.2,225.7L87.7,226.9L86.6,226.8L85.8,226.1L85.1,226L85.5,227.5L84.6,228.8L83.8,229.2L82.3,229.1L81.2,228.8L80.9,228.1L79.8,227.5L76.7,226.6L74.2,225.4L73.6,222.2L72.7,220.9L72.2,219.4L71.9,217.6L72.3,214.9L71.7,214.5L71,214.4L69.8,214.5L68.8,214.3L67.5,212.8L66.5,212.3L67.1,215L66.4,215.8L64.5,215.5L63.8,214.5L63.6,213.7L64.5,210.4Z"/></svg>
