<svg xmlns="http://www.w3.org/2000/svg" viewBox="0 0 400 300"><path d="M386.8,300L385.2,295.3L386.2,289.6L384.3,279.6L388.8,279.1L392.7,275.1L397,269.5L399.6,267.2L399.5,263.6L397.2,261.2L396.6,256.9L399.7,255.5L400,252.3L400,300ZM400,248.7L396,243L399.8,241.7L400,241.7L400,248.7Z" fill="#2c2c34" stroke="#474751" stroke-width="0.8"/><path d="M244.8,300L243.1,294.6L211,294.5L207.2,295.8L204.1,295.6L199.6,297L198.1,293.6L200.8,292.5L201.2,287.7L203,284.9L206.9,282.6L209.7,283.7L213.5,279.6L219.4,279.7L220.1,282.8L224.1,284.7L230.5,277.9L236.8,272.6L239.6,269.1L239.2,260.1L243.9,249.6L248.9,244L256.1,238.8L257.3,235.3L257.6,231.3L259.3,227.6L258.8,221.4L260.1,211.8L262.3,205L265.5,199.2L266.1,192.6L267.1,185L271.3,179.5L277.2,176L286.1,179.7L293,183.7L300.9,184.8L309,186.9L312.3,180.4L313.8,179.5L318.7,180.6L330.8,175.2L335.1,177.5L338.6,177.1L340.2,174.5L344.3,173.6L352.4,174.7L359.4,175L363,173.8L369.6,182.8L374.4,184.1L377.3,182.3L382.3,183L388.4,180.7L391,185.3L400,192.2L400,202.9L400,202.9L399.9,205.3L400,205.3L400,211.1L400,211.1L396.6,213.5L392.4,219.2L390.1,224.2L389.5,232.9L387,237.1L386.9,245.3L383.8,248.3L383.4,254.7L381.9,255.6L380.9,261.5L383.6,266.5L384.3,279.6L384.3,279.6L386.2,289.6L385.2,295.3L386.8,300L244.8,300Z" fill="#2c2c34" stroke="#474751" stroke-width="0.8"/><path d="M400,124.4L391.4,118.4L387.3,120.7L386.2,123.9L380.6,126L380.3,128.2L369.4,128.2L368,126L360.1,125.6L356.2,127.5L353.2,126.5L347.6,120.1L345.8,117.1L337.9,118.6L335,123.7L332.2,133.5L328.5,135.6L325.1,136.8L332.5,141.1L332.5,141.1L324.2,136.3L320.5,133.1L319.8,129.7L321.5,125.1L321.5,120.6L315.2,113.7L314,109L314.2,106.3L310.2,103L310.1,96.6L307.8,92.3L304,93L305,88.9L307.9,84.2L306.6,79.6L310.2,76.2L307.9,73.6L310.8,66.6L315.8,58.3L325.1,59.1L324.6,13.9L324.7,9.1L337.2,9L337.2,0L400,0Z" fill="#2c2c34" stroke="#474751" stroke-width="0.8"/><path d="M297.4,0L324.6,13.9L324.6,13.9L325.1,59.1L315.8,58.3L310.8,66.6L307.9,73.6L310.2,76.2L306.6,79.6L307.9,84.2L305,88.9L304,93L307.8,92.3L310.1,96.6L310.2,103L314.2,106.3L314,109L307.2,110.9L301.7,115.3L293.8,127.4L283.6,132.5L273.1,131.8L270,132.8L271.1,136.7L265.5,140.5L260.9,144.8L247.2,149L244.5,146.5L242.7,146.3L240.7,149.1L231.7,149.9L233.4,146.9L230,139.4L228.5,134.8L223.7,133L217.3,126.6L219.7,121.4L224.6,122.5L227.7,121.7L233.7,121.8L227.8,111.8L228.2,104.4L227.5,97.1L223.2,89.9L224.3,84.7L217.3,84.4L217.3,77.2L212.8,73.1L217.5,58.3L231.4,47.6L231.9,32.9L236.1,9.6L238.5,4.6L233.9,0.6L233.9,0L297.4,0Z" fill="#2c2c34" stroke="#474751" stroke-width="0.8"/><path d="M0,60.4L5.7,60.4L8.2,52.5L6.3,51.1L1.1,1.6L0.9,0L82.8,0L82.8,0L85.7,2L88.2,7.4L95,10.7L100,12.6L100.1,19.9L112.2,18.8L112.2,45.1L106.3,52.6L105.3,59.6L95.7,61.4L80.9,62.4L76.9,66.4L69.9,66.8L63,66.9L60.3,64.7L54.3,66.3L44.2,71L42.1,74.4L33.6,79.5L32.2,82.3L27.6,84.6L22.4,83.1L19.4,85.8L17.8,93.5L9.2,102.7L9.5,106.4L6.5,111.1L7.2,117.5L2.7,119.2L0.2,120.5L0,120L0,60.4Z" fill="#2c2c34" stroke="#474751" stroke-width="0.8"/><path d="M0.9,0L1.1,1.6L6.3,51.1L8.2,52.5L5.7,60.4L0,60.4L0,0Z" fill="#2c2c34" stroke="#474751" stroke-width="0.8"/><path d="M95.1,162.6L86.1,163.9L83.4,156.4L83.9,131.2L81.7,128.9L81.3,123.5L77.6,119.7L74.2,116.4L75.6,110.6L79.4,109.3L81.5,104.5L86.9,103.5L89.2,100.2L92.9,96.9L96.8,96.9L105.1,103.2L104.6,106.9L107.1,113.5L105,117.9L106.1,120.9L100.8,127.7L97.5,131.1L95.4,138L95.7,145Z" fill="#2c2c34" stroke="#474751" stroke-width="0.8"/><path d="M233.9,0L233.9,0.6L238.5,4.6L236.1,9.6L231.9,32.9L231.4,47.6L217.5,58.3L212.8,73.1L217.3,77.2L217.3,84.4L224.3,84.7L223.2,89.9L220.1,90.6L219.8,94.1L217.8,94.4L210.4,82.2L207.9,81.7L199.4,88L191,84.7L185.1,84.1L182,85.6L175.6,85.3L169.2,90L163.7,90.3L150.6,84.5L145.4,87.3L139.9,87.1L135.8,82.9L124.9,78.7L113.3,80L110.5,82.4L108.9,88.9L105.8,93.3L105.1,103.2L96.8,96.9L92.9,96.9L89.2,100.2L89.5,92.5L77,90L76.6,84.6L70.5,77.3L69.1,72.2L69.9,66.8L76.9,66.4L80.9,62.4L95.7,61.4L105.3,59.6L106.3,52.6L112.2,45.1L112.2,18.8L127.5,13.7L146.4,0L233.9,0Z" fill="#2c2c34" stroke="#474751" stroke-width="0.8"/><path d="M95.1,162.6L95.7,145L95.4,138L97.5,131.1L100.8,127.7L106.1,120.9L105,117.9L107.1,113.5L104.6,106.9L105.1,103.2L105.8,93.3L108.9,88.9L110.5,82.4L113.3,80L124.9,78.7L135.8,82.9L139.9,87.1L145.4,87.3L150.6,84.5L163.7,90.3L169.2,90L175.6,85.3L182,85.6L185.1,84.1L191,84.7L199.4,88L207.9,81.7L210.4,82.2L217.8,94.4L219.8,94.1L224.1,98.5L222.9,100.5L222.3,104.2L213.2,112.8L210.3,119.8L208.8,125.6L206.5,128L204.3,135.7L198.5,140.2L196.8,145.8L194.4,150.2L193.3,154.7L185.9,158.4L179.8,153.9L175.7,154.1L169.2,160.5L166.1,160.6L160.9,171.1L158.1,178.8L146.8,182.8L142.7,182.2L138.6,184.6L129.9,184.4L124.1,177.6L120.5,169.7L112.8,162.5L104.6,162.6Z" fill="#2c2c34" stroke="#474751" stroke-width="0.8"/><path d="M75.6,110.6L74.2,116.4L77.6,119.7L81.3,123.5L81.7,128.9L83.9,131.2L83.4,156.4L86.1,163.9L77.4,166.2L74.9,162.4L72.1,155.5L71.2,150L73.6,140.2L70.9,136.2L69.8,127.5L69.9,119.5L65.3,113.8L66.1,110.4Z" fill="#2c2c34" stroke="#474751" stroke-width="0.8"/><path d="M66.1,110.4L65.3,113.8L69.9,119.5L69.8,127.5L70.9,136.2L73.6,140.2L71.2,150L72.1,155.5L74.9,162.4L77.4,166.2L60.3,172.6L54.3,176.4L44.5,179.5L34.9,176.4L35.4,172.1L30.6,162.7L33.5,150.4L38.1,141.2L35.2,125.5L33.7,117.2L34,111L52.8,110.5L57.6,111.3L61.1,109.5Z" fill="#2c2c34" stroke="#474751" stroke-width="0.8"/><path d="M0,120L0.2,120.5L2.7,119.2L7.2,117.5L12.1,119.9L14,123.6L18.9,125.9L22.7,123.1L27.7,122.7L35.2,125.5L38.1,141.2L33.5,150.4L30.6,162.7L35.4,172.1L34.9,176.4L29.9,176.5L22.4,174.4L15.4,174.5L2.5,176.4L0,177.5L0,120Z" fill="#2c2c34" stroke="#474751" stroke-width="0.8"/><path d="M7.2,117.5L6.5,111.1L9.5,106.4L9.2,102.7L17.8,93.5L19.4,85.8L22.4,83.1L27.6,84.6L32.2,82.3L33.6,79.5L42.1,74.4L44.2,71L54.3,66.3L60.3,64.7L63,66.9L69.9,66.8L69.1,72.2L70.5,77.3L76.6,84.6L77,90L89.5,92.5L89.2,100.2L86.9,103.5L81.5,104.5L79.4,109.3L75.6,110.6L66.1,110.4L61.1,109.5L57.6,111.3L52.8,110.5L34,111L33.7,117.2L35.2,125.5L27.7,122.7L22.7,123.1L18.9,125.9L14,123.6L12.1,119.9Z" fill="#2c2c34" stroke="#474751" stroke-width="0.8"/><path d="M363,173.8L359.4,175L352.4,174.7L344.3,173.6L340.2,174.5L338.6,177.1L335.1,177.5L330.8,175.2L318.7,180.6L313.8,179.5L312.3,180.4L309,186.9L300.9,184.8L293,183.7L286.1,179.7L277.2,176L271.3,179.5L267.1,185L266.1,192.6L259.2,192L251.8,190.2L245.3,196L239.6,206.1L238.5,202.9L238,198L233.1,194.5L229.1,188.9L228.2,185L223,179.3L223.9,176L222.8,171.4L223.6,163L226.2,161L231.7,149.9L240.7,149.1L242.7,146.3L244.5,146.5L247.2,149L260.9,144.8L265.5,140.5L271.1,136.7L270,132.8L273.1,131.8L283.6,132.5L293.8,127.4L301.7,115.3L307.2,110.9L314,109L315.2,113.7L321.5,120.6L321.5,125.1L319.8,129.7L320.5,133.1L324.2,136.3L332.5,141.1L338.5,145.5L338.5,149.1L345.8,154.8L350.4,159.5L353.1,166L361.2,170.4Z" fill="#2c2c34" stroke="#474751" stroke-width="0.8"/><path d="M266.1,192.6L265.5,199.2L262.3,205L260.1,211.8L258.8,221.4L259.3,227.6L257.6,231.3L257.3,235.3L256.1,238.8L248.9,244L243.9,249.6L239.2,260.1L239.6,269.1L236.8,272.6L230.5,277.9L224.1,284.7L220.1,282.8L219.4,279.7L213.5,279.6L209.7,283.7L206.9,282.6L202.8,278.9L199.6,280.7L195.2,285.4L186.3,273.9L194.5,267.9L190.4,260.7L194.2,258L201.5,256.7L202.4,251.9L208.1,257.1L217.7,257.5L221,252.4L222.4,245.2L221.2,236.7L216.1,230.3L220.8,217.7L218.1,215.5L210,216.4L207,210.8L207.8,206.1L221.5,206.5L230.3,209.4L238.9,211.9L239.6,206.1L245.3,196L251.8,190.2L259.2,192Z" fill="#2c2c34" stroke="#474751" stroke-width="0.8"/><path d="M188.3,206.1L193.4,205.4L200,206.9L206.4,205.5L207.8,206.1L207,210.8L210,216.4L218.1,215.5L220.8,217.7L216.1,230.3L221.2,236.7L222.4,245.2L221,252.4L217.7,257.5L208.1,257.1L202.4,251.9L201.5,256.7L194.2,258L190.4,260.7L194.5,267.9L186.3,273.9L175.1,262.9L167.9,254L161.3,242.8L161.7,239.2L164.1,235.7L166.7,227.8L168.9,219.7L172.6,219.1L188.3,219.2Z" fill="#2c2c34" stroke="#474751" stroke-width="0.8"/><path d="M170.6,205.9L188.3,206.1L188.3,219.2L172.6,219.1L168.9,219.7L166.8,218.1Z" fill="#2c2c34" stroke="#474751" stroke-width="0.8"/><path d="M206.9,282.6L203,284.9L201.2,287.7L200.8,292.5L198.1,293.6L195.2,285.4L199.6,280.7L202.8,278.9ZM199.2,300L198.6,299.1L199.6,297L199.6,297L204.1,295.6L207.2,295.8L211,294.5L243.1,294.6L244.8,300L199.2,300Z" fill="#2c2c34" stroke="#474751" stroke-width="0.8"/><path d="M396.6,256.9L397.2,261.2L399.5,263.6L399.6,267.2L397,269.5L392.7,275.1L388.8,279.1L384.3,279.6L383.6,266.5L380.9,261.5L387.5,262.4L390.8,256.2Z" fill="#2c2c34" stroke="#474751" stroke-width="0.8"/><path d="M146.4,0L127.5,13.7L112.2,18.8L100.1,19.9L100,12.6L95,10.7L88.2,7.4L85.7,2L82.8,0L146.4,0Z" fill="#2c2c34" stroke="#474751" stroke-width="0.8"/><path d="M337.2,0L337.2,9L324.7,9.1L324.6,13.9L297.4,0L337.2,0Z" fill="#2c2c34" stroke="#474751" stroke-width="0.8"/><path d="M400,241.7L399.8,241.7L396,243L389.5,246.4L386.9,245.3L387,237.1L389.5,232.9L390.1,224.2L392.4,219.2L396.6,213.5L400,211.1L400,241.7ZM400,205.3L399.9,205.3L400,202.9L400,205.3Z" fill="#2c2c34" stroke="#474751" stroke-width="0.8"/><path d="M400,252.3L399.7,255.5L396.6,256.9L390.8,256.2L387.5,262.4L380.9,261.5L381.9,255.6L383.4,254.7L383.8,248.3L386.9,245.3L389.5,246.4L396,243L396,243L400,248.7L400,252.3Z" fill="#2c2c34" stroke="#474751" stroke-width="0.8"/><path d="M400,192.2L391,185.3L388.4,180.7L382.3,183L377.3,182.3L374.4,184.1L369.6,182.8L363,173.8L361.2,170.4L353.1,166L350.4,159.5L345.8,154.8L338.5,149.1L338.5,145.5L332.5,141.1L325.1,136.8L328.5,135.6L332.2,133.5L335,123.7L337.9,118.6L345.8,117.1L347.6,120.1L353.2,126.5L356.2,127.5L360.1,125.6L368,126L369.4,128.2L380.3,128.2L380.6,126L386.2,123.9L387.3,120.7L391.4,118.4L400,124.4L400,192.2Z" fill="#2c2c34" stroke="#474751" stroke-width="0.8"/><path d="M158.7,179L159,178.2L159.7,177.1L160.4,175.8L161.4,174.2L162,171.3L162.4,169.5L162.8,167.8L163.5,166.4L164.2,165.4L166.1,163.4L167.6,162L168.3,161.4L168.9,160.9L169.8,160.3L170.7,159.6L171.4,158.4L172,157.1L172.4,156.9L173,156.7L174.8,155.4L176,154.6L176.2,155L176.4,155.5L176.6,155.7L177.6,155.9L178.9,155.9L179.6,155.7L180,155.3L180.4,154.1L180.7,153.9L181,153.8L182.4,154.7L183.6,155.8L184.7,157L185.3,157.4L185.6,157.8L186.1,159.9L186.4,160.4L186.9,160.7L187.8,160.5L188.8,160.2L189.6,159.6L190.4,158.9L191,158.3L191.2,157.8L191.3,156.1L191.5,155.7L192.4,155.1L193.8,153.9L194.6,153.3L194.5,153L194,152.3L193.6,151.5L194,150.7L194.5,150.1L196.3,148.1L196.3,147.4L196.4,146.6L197.8,144.2L198.6,141.1L198.7,140.5L199.5,139L200.5,137L202.4,136.7L203.2,136.2L204,135.4L204.6,134.6L204.9,133.8L205.1,132.4L205.4,130.7L205.6,129.3L206.2,127.9L207.2,127.2L208.9,126.7L209.1,126.4L209.4,125.5L209.6,123.6L209.6,122.5L209.7,122L209.9,121.2L211.5,119.7L212.1,117.4L212.8,114.9L214.6,112L216.6,109L217.6,108.2L218.4,107.9L219.4,107.8L220,107.6L222.3,106.1L223.2,105.6L223.9,105.1L224.1,104.7L224.1,104L223.9,102.5L224.3,101.4L224.5,99.6L224.6,98.3L224.5,97.8L224.2,97.2L224.1,97L223.5,96.2L222.3,95.7L220.8,95.5L219.9,95.2L219.8,94.5L219.8,94.1L219.7,93.7L219.6,92.7L218.5,87.5L220.5,87.5L222.8,88.1L223.4,88.6L223.7,90.4L224.6,91.4L226.1,92.2L227,93.9L227.4,96.5L228.2,98L228.4,98.3L229.3,100.5L229.6,101.2L229.6,102.5L229.5,103.5L230,104.6L229.3,106.5L229.1,107.7L229,109.3L229.4,112.2L230.1,114.4L230.8,116.3L231.7,117.7L233,119.2L234.4,120.6L235.8,121.5L234.5,122L232.1,122.1L230.8,121.8L230.1,121.8L229.4,122L226.9,122.3L224.3,122.1L221.9,121.8L220.5,121.8L219.3,122.7L218.4,124L217.6,125L217.9,126.1L218.5,126.8L219.8,128.1L220.8,129.5L221.4,130.4L223.6,132.3L225.8,134.1L226.2,134.4L226.8,134.7L227.1,134.8L228.3,135.8L229.9,137.5L231.4,140L232.5,142.7L233.5,145.2L233.9,145.6L234.6,145.9L234.7,146.5L234.7,147.2L234.4,147.9L233.9,148.8L232.8,150.6L231.3,151.6L230.9,152.3L230.7,153L230.4,153.8L229.6,155.5L229.1,156.9L228.5,157.3L227.2,159.4L226.3,161.4L226.1,162L225.8,162.4L225.4,162.7L223.9,163.4L223.4,163.7L223,164.1L222.6,164.5L222.5,165L222.8,165.8L223.3,166.4L223.7,166.4L224.1,166.4L224.3,166.7L224.5,166.9L224.5,171L224.1,171.6L224.2,171.8L224,172.5L223.9,173.3L224.1,173.6L224.4,173.9L224.8,174.4L225,175.6L225.5,180L225.7,180.7L226.2,181.2L227.5,182.1L228.9,183.3L229.4,184.1L229.6,185.5L230.1,186.5L230.1,186.8L229.9,187L229.4,187L229.1,187.1L229.3,187.8L230.1,189.1L231.3,190.5L232.6,192L233.6,193.1L235,194.5L236,195.6L237.1,196.7L237.9,197L238.5,197.1L238.7,197.3L239.1,197.8L239.6,198.4L240.2,199.1L240.4,199.9L240.1,200.6L240.4,201.6L240.4,201.7L240.6,202.1L240.5,202.5L240.7,203.8L241,205L241.5,206.1L241.5,206.1L241.4,206.8L240.8,207.2L240.4,207.8L240.3,208.7L240.5,209.9L241,211.2L241,212L240.8,212.1L240.5,212.3L240.1,212.5L239.2,211.6L238.2,211L236.7,209.9L235.2,209.5L233.2,209.4L232.3,209.6L231.7,209.2L230.9,208.7L230.4,208.6L229.8,209L229.3,209L228.7,208.8L227.6,208.8L227.5,208.2L227.3,208.1L226.1,208.2L225.7,207.7L225.5,207.7L225.1,207.5L224.1,206.8L223.1,207.3L220.9,207.2L218.2,207.3L215.3,207.3L212.8,207.2L210.1,207.2L209.9,206.5L209.4,206.2L208.4,206.2L205.5,206.3L203.3,206.2L202.6,206.1L201.9,205.9L200,205.8L197.8,205.9L197.2,205.9L195.4,205.9L191.3,205.7L189,205.7L189.1,206.1L188.9,206.4L188.8,207.2L186.3,207.2L183,207.2L179.9,207.2L177.7,207.2L174.2,207.2L173,206.7L172.6,206.4L172.6,206L172.5,205.8L172.2,205.7L172.5,203.1L172.9,201L173.1,199L173.8,197.3L173.5,195.5L173.1,194.8L170.8,192.3L171.8,191.3L170.5,191.5L170.2,190.5L169.6,189.4L170,189.3L170.4,188.7L171.6,188.8L171.5,188.5L170.5,187.6L170.6,187.1L171,186.6L170.8,186.4L170.1,187L169.5,186.9L169.1,186.6L168.8,186.5L169,187.2L168.6,187.9L168.2,188.1L167.5,188.1L166.9,187.9L166.8,187.5L166.3,187.3L164.8,186.8L163.6,186.2L163.3,184.7L162.8,184.1L162.6,183.3L162.5,182.5L162.7,181.2L162.4,181L162,180.9L161.5,181L160.9,180.9L160.4,180.2L159.9,179.9L160.2,181.2L159.8,181.6L158.9,181.5L158.6,181L158.5,180.6L158.9,179.1Z" fill="#b8e653" stroke="#0c0e06" stroke-width="1"/></svg>
