<svg xmlns="http://www.w3.org/2000/svg" viewBox="0 0 300 300"><path fill="#e8e8ea" d="M166.1,235.7L165.9,235.4L165.4,235L165.2,235L164.7,235.2L164,235.3L163.8,235.1L163.5,235.2L163.2,234.7L162.8,234.7L162.3,234.4L162.1,234.2L162,233.9L161.9,233.8L161.7,233.8L161.5,233.6L161.1,233.5L160.8,233.4L160.7,233.5L160.6,233.5L160.5,233.3L160.5,232.8L160.5,232.3L160.4,232.1L160.3,231.9L160.1,231.9L160,231.6L160.1,231.1L160.2,230.8L160.4,230.7L160.7,230.5L160.9,230.2L161.1,229.8L160.4,229.4L160,229.2L159.7,229.3L159.2,229.4L158.9,229.5L158.8,229.4L158.5,229L158.4,229L158,228.9L157.7,228.9L157.6,229.1L157.3,229.2L157.1,229.2L156.8,229L156.4,228.7L155.8,228.5L155.7,228.3L155.6,228L155.4,227.7L155,227.4L154.7,227.2L154.5,227.3L154.3,227.5L153.5,227.9L153.1,228.1L152.9,228.2L152.8,228.4L152.7,228.8L152.6,229.2L152.4,229.5L152.2,229.6L151.9,229.7L151.7,229.6L151.5,229.7L150.8,230.2L150.5,230.1L150.2,229.9L150.1,229.7L149.8,229.7L149.5,230L149.3,230.4L149.2,230.7L149.1,230.9L149,230.9L148.9,231L147.7,229.9L147.6,229.8L147.4,230.1L147.2,230.6L147.1,230.7L147,230.7L146.5,230L146.4,229.9L146.3,229.9L146.1,230.1L145.8,230.5L145.6,230.7L145.6,230.9L145.3,231.1L145,231.3L144.9,231.4L144.7,231.3L144.4,231L144.3,230.7L143.8,230.4L143.3,230.2L142.9,230L142.7,230L142.5,230.1L142.5,230.2L142.3,230.5L142,230.9L141.7,231.3L141.5,231.5L141.3,231.7L141.1,231.5L140.8,231.4L140.5,231.4L140.1,231.6L139.7,231.2L139.6,231.1L139.5,231.2L139.3,231.3L139.2,231.6L139.1,231.9L138.9,232.2L138.7,232.3L138.8,232.5L138.9,232.7L138.9,232.9L138.9,233.2L139,233.5L139.5,234L139.6,234.2L139.6,234.4L139.7,235.2L139.6,235.6L139.6,236.2L139.6,236.6L139.7,236.7L139.9,236.9L139.9,237L139.8,237.1L139.6,237.3L139.5,237.3L139.3,237.2L139.1,237.2L139,237.1L138.8,236.9L138.4,236.9L137.7,237.2L137.5,237.1L137.4,237L137.4,236.7L137.4,236.4L137.4,236.2L137.2,236.1L137.3,235.6L137.1,235.4L137.1,235.3L137,234.8L137,234.6L137,234.6L136.8,234.5L136.6,234.6L135.8,235L135.1,235.7L134.8,235.8L134.5,235.9L134.1,235.8L133.7,235.7L133.1,235.9L132.9,235.8L132.7,235.7L132.6,235.4L132.7,235.2L132.6,235L132.4,234.9L132.1,234.8L132,234.5L131.9,234.2L132,233.9L132,233.5L131.9,233.3L131.5,233.2L130.5,233L129.6,232.9L129.3,233L129,232.9L128.8,232.8L128.7,232.7L128.7,232.5L128.8,232.1L129,231.7L129.4,231.1L129.4,230.7L129.4,230.3L129.6,229.6L130,229.2L130.1,229L130.1,228.8L129.9,228.6L129.7,228.5L129.4,228.4L128.9,228.3L128.2,228.2L127.4,227.9L127.5,227.4L127.5,227.1L127.4,226.8L127.2,226.6L127.1,226.4L127.3,225.9L127.1,225.4L126.9,225.2L126.6,224.9L126.6,224.6L126.7,224.3L127.3,223.8L127.3,223.6L127.1,223.6L127,223.6L126.2,223.9L126.1,223.7L125.8,223.6L125.3,223.6L124.6,223.7L123.8,223.9L123,224.2L122.7,224.5L122.4,224.7L122.2,224.7L121.9,224.6L121.9,224.2L122.4,223.6L122.5,223.1L122.3,222.7L122.3,222.4L122.1,222.2L121.9,222.1L121.7,221.9L121.7,221.2L122,220.6L122.3,220.4L122.6,220.2L122.6,220.1L122.5,219.7L122.5,219.4L122.7,218.8L123,218.3L123.4,218.4L123.6,218.3L123.8,218.1L124,217.9L124.1,217.6L124.3,216.8L124.5,216.7L125,216.8L125.1,216.7L125.4,216.3L125.7,215.8L126.1,215.6L126.4,215.6L126.5,215.4L126.5,215.2L126.2,214.8L126.1,214.5L126.1,214.3L126.5,214.1L126.6,213.9L126.6,213.4L126.7,212.8L126.8,212L126.9,211.5L126.9,211.1L126.8,210.6L126.8,209.8L126.6,209.1L126.6,208.9L126.6,208L126.5,207.3L126.3,207.2L125.9,206.9L125.6,206.9L125.5,207L125.4,207.2L125.2,207.5L125,207.4L124.9,207.2L124.7,206.9L124.3,205.4L124.2,205L124.1,204.6L124,204.4L123.8,204.2L123.4,203.7L123.2,203.5L123.1,203.5L122.9,203.5L122.7,203.5L122.6,203.3L122.4,203L122.3,202.8L122,202.8L121.8,202.8L121.6,203L121.5,203.2L121.3,203.5L121,204L120.8,204.2L120.7,204.1L120.1,203.6L119.8,203.5L119.4,203.6L118.8,203.5L118.5,203.5L118,203.1L117.8,203L117,203.3L116.9,203.5L116.8,203.5L116.6,203.4L116.4,203.3L116.4,203.2L116.6,203L116.6,202.9L116.6,202.7L116.9,202.3L117.7,201.6L117.6,201.2L117.2,200.6L117.2,200.3L117.1,200.2L116.7,200.3L115.9,200.9L115.8,200.8L115.8,200.6L115.7,200L116,199.8L116.4,199.6L116.7,199.4L116.7,199.2L116.7,199.1L116.2,199.2L116,199.1L115.8,198.6L115.6,198.3L115.4,198.2L114.7,198.5L114,198.9L113.2,199.4L113.2,199.7L113.1,199.7L112.9,199.9L112.8,200.2L112.6,200.2L112.5,200.2L112.2,200.2L111.6,199.9L111,199.7L110.8,199.7L110,199.6L110,199.4L109.8,199.2L109.6,199L109.4,198.9L108.7,199.4L108,199.7L107.5,200.1L107.2,200.5L106.8,200.6L106.8,200.9L106.6,201.1L106.3,201.4L105.7,201.7L105.3,201.9L104,202.1L103.5,202.2L103.3,202.4L103.1,202.9L103,203.3L102.6,203.7L102,204.2L101.2,204.5L101,204.8L101,205L101,205L101.1,205.1L101.1,205.3L101,205.5L100.5,205.8L100.2,206L100,206.1L99.7,206.1L99.4,206.1L99.3,206L99.2,206.1L98.9,206.2L98.6,206.2L98.1,206.6L97.8,206.6L97.5,206.5L97,206.4L96.7,206.4L96.6,206.2L96.7,205.6L96.5,205.5L96.1,205.3L95.5,205.1L95.3,204.9L95.1,204.9L94.9,204.9L94.6,205.1L94.3,205.4L94,205.4L93.8,205.3L93.6,205.1L92.7,204.9L92.4,204.9L91.7,204.9L91.2,204.9L91.1,204.8L91.1,204.7L91.2,204.4L91.2,204.2L91.2,204.1L90.6,203.9L90.1,203.8L89.6,203.8L89.3,203.8L88.9,204L88.6,204.3L88.2,204.5L87.7,204.7L87.5,205L87.1,205.5L86.6,206.1L86.1,206.6L85.9,207.2L85.6,207.6L85.2,207.8L85,208.5L84.7,208.3L84.4,208L84.4,207.6L84.7,206.4L84.8,205.9L84.7,205.7L84.6,205.2L84.4,205.1L83.8,204.8L83.7,204.8L83.5,205L83.3,205.1L83,205.2L82.4,205.4L81.8,205.5L81.7,205.6L81.6,205.7L81.7,205.9L81.3,205.8L80.9,205.8L80.6,205.8L79.9,206.1L79.6,206.1L79.3,206.1L78.9,206.1L78.2,206.1L77.5,206L77,205.6L76.7,205.4L76.3,205.3L75.9,205.1L75.8,204.9L75.6,204.8L75.3,204.8L75,204.8L74.9,205.4L74.8,205.5L74.4,205.6L74.1,205.5L73.6,205.1L73.4,204.8L73.3,204.7L73,204.8L73,205.3L73,205.6L72.7,205.7L72.5,205.6L72.4,205.3L72,204.6L71.7,204.2L71.3,203.9L70.2,203.9L69.3,203.8L69,203.7L68.8,203.5L69,202.9L69.1,202.5L69.1,202.4L69,202.3L68.7,202.3L67.8,202.6L67.6,202.6L67.4,202.5L67.2,202.4L67.1,202.2L67,202.1L66.2,201.6L65.9,201.4L65.5,201.1L65.2,200.8L64.9,200.2L64.7,199.7L64.6,199.3L64.3,199.2L63.9,199.1L63.3,199.3L62.8,199.5L62.4,199.5L61.9,198.9L61.4,198.3L60.9,197.7L60.6,197.4L60,197.4L59.3,197.1L58.4,196.4L57.8,195.8L56.6,195.2L56.4,195L56.3,194.7L56.1,194.3L55.9,193.9L55.1,193.7L54.2,193.6L53.2,193.9L52.5,195.1L52.2,195.3L51.9,195.3L51.7,195L51.5,194.7L51.4,194.4L50.9,194.1L50.4,193.8L50.1,193.5L49.8,193.3L49.5,193.2L48.9,193L48.3,192.8L48,192.7L48,192.6L48.1,192.2L48,191.8L47.8,191.6L47.5,191.7L46.9,191.1L46.8,191.1L46.8,191.1L46.6,191L46.3,190.8L45.7,190.8L45.3,190.8L45,190.6L44.6,190.3L44.5,190.2L44.4,190.1L43.9,189.4L43.4,188.6L43.1,188.5L43,188.5L42.8,189L42.7,188.9L42.5,188.9L42.3,189.1L42,189.1L41.9,189.1L41.8,189L41.9,188.4L41.8,188.2L41.9,187.9L42.1,187.5L41.9,187.3L41.6,186.9L41.6,186.6L41.7,186.2L41.8,185.8L41.8,185.7L41.6,185.5L40.8,184.5L40.7,184.4L40.6,184.1L40.6,183.6L40.5,183.3L40.3,183L40.3,182.9L40.4,182.8L40.9,182.7L41.4,182.7L41.7,182.6L41.8,182.8L41.9,183.1L42,183.3L42.2,183.5L42.6,183.8L42.9,183.8L43.2,183.7L43.5,183.2L43.7,183.1L43.9,183.1L43.9,183.1L43.9,182.8L43.9,182.1L43.9,181.8L43.8,181.5L43.8,181.2L43.8,180.8L43.5,180.6L43.4,180.4L43.4,180.3L43.5,180L43.5,179.7L43.4,179.4L43.2,179.3L43,179.1L42.7,178.8L42.6,178.6L42.4,178.4L42.1,178L42,177.3L42,176.4L41.9,176L41.8,175.4L41.8,175.2L41.9,175L42.6,174.5L42.8,174.3L42.8,174.1L42.8,173.9L42.7,173.7L42.4,173.5L41.9,173.1L41.5,172.8L40.9,172.6L40.1,172.3L39.9,172.1L39.7,171.5L39.4,170.6L39,169.6L38.7,169L38.7,168.7L38.9,168L38.9,167.8L38.7,167.8L38.4,167.8L38.2,168L38,167.9L37.9,167.8L37.8,167.7L37.8,167.7L37.5,167.8L36.9,167.8L36.6,167.8L36.3,167.8L35.7,167.7L34.8,167.4L33.9,167.1L33.4,166.9L33.3,166.8L32.9,166.5L32.6,166.3L32.5,165.7L32.3,165.7L31.8,165.9L31.2,166.1L30.9,166.1L30.8,166L30.6,165.3L30.5,165.2L30.2,165.1L29.9,165L29.8,164.8L29.8,164.6L29.9,164.4L30,164.2L30.1,163.1L30,162.7L29.9,162.3L29.7,161.9L29.5,161.7L29.2,161.4L28.8,161.2L28.4,161.1L27.9,161.2L27.7,161.2L27.5,160.4L27.4,160.3L26.5,159.9L26.2,159.9L25.7,160L25.5,160L25.3,159.9L24.9,159.7L24.6,159.6L24.2,159.6L24,159.7L23.9,159.6L23.8,159.5L23.3,159.1L23.2,158.9L24,158.5L24.5,158.4L24.8,158.2L24.8,158.3L24.9,158.5L25.2,158.6L25.5,158.6L25.6,158.5L26,158.2L26.3,158L26.4,157.7L26.3,157.4L25.9,157L25.6,156.7L25.5,156.6L25.5,156.1L25.6,155.7L25.6,155.5L25.5,155.3L25.5,154.8L25.3,154.2L25,153.9L25,153.4L24.9,152.9L25.2,152.2L25.1,151.9L24.8,151.7L23.9,151.2L22.8,150.9L22.5,150.9L22.2,150.8L21.9,151.1L21.8,151.5L21.5,151.5L21.1,151.4L20.8,151.1L20.6,150.6L20.5,150L20.4,149.8L20.4,149.6L20.5,149.5L20.8,149.3L20.8,149.2L20.8,149L20.6,148.8L20.4,148.4L20,147.7L20.1,147.4L20.1,146.8L20.1,146.5L20.5,146.5L20.9,146.3L21.1,146.1L21.3,145.8L21.3,145.7L21.2,145.1L21,144.8L21,144.6L21.1,144.4L21.2,144.2L21.4,143.6L21.6,143.2L21.8,143.2L22,143.1L22.7,143L23.4,142.7L24.3,142L24.6,141.8L24.9,141.7L25.2,141.7L25.3,141.6L25.1,141.1L25.1,140.9L25.2,140.8L25.3,140.7L25.9,141L26.4,141L27,140.8L28.1,140L28.3,140L28.4,140.1L28.5,140.6L28.7,141.7L28.8,141.8L29.6,141.8L30.2,141.4L30.4,141.3L30.8,141.4L31.1,141.2L31.3,141.1L31.5,141.5L31.9,141.3L32.2,141L32.4,140.6L32.6,140.3L32.8,139.8L32.9,139.3L33,139.1L33.2,138.9L33.7,138L34,137.8L34.4,137.7L35.2,137.8L35.6,137.8L36.9,137.9L37.5,137.8L37.9,137.6L38.5,137.6L39.2,137.5L40.1,136.3L40.2,136.1L40.2,135.8L40.6,135.5L41,135.3L41.8,134.7L43.6,133.8L44.2,133.5L44.4,133.5L45.1,133.2L46.2,132.8L46.5,132.2L46.8,132.1L48.1,132L48.2,132L48.2,131.9L48.2,131.5L48.1,131.1L48.2,131L48.3,130.9L48.3,130.6L48.1,129.9L47.9,129.2L47.9,128.6L47.9,128.4L48,128L48.2,127.6L49,127.3L49.5,127.2L49.5,127L49.1,126.8L48.8,126.6L48.8,126.5L48.8,126.3L48.8,126.2L49.3,125.9L49.8,125.7L50.4,125.9L50.5,125.8L50.5,125.5L50.4,125.3L50.3,124.9L50,124.6L50,124.4L50.2,124L49.9,123.2L49.7,122.4L49.3,121.2L49,120.9L48.9,120.3L48.7,120L48.7,119.6L48.7,119.3L48.7,118.7L48.6,118L48.7,117.3L48.8,116.9L48.8,116.7L48.9,116.6L49.1,116.5L49.2,116.3L49.1,116.1L48.7,116L48.3,115.8L47.7,115.8L47.2,115.8L46.9,115.7L46.7,115.5L46.6,115.3L47,115L47.4,114.6L48.2,114.4L48.9,114.2L49.3,114L49.9,113.9L50.5,113.8L50.8,113.8L51.6,113.6L52.9,113.1L54,112.8L54.4,112.5L54.7,112.8L54.8,113.3L55.1,113.5L55.5,113.7L55.6,113.7L56.2,113.4L56.8,113.3L57.1,113.4L57.4,113.6L57.7,113.9L57.9,113.9L58.1,113.7L58.2,113.3L58.3,112.9L58.3,112.4L58.3,112.1L58.2,112L57.6,111.8L57.1,111.5L57,111.2L57,111L57.2,110.6L57.5,109.7L57.9,108.5L58,107.6L58.6,106.2L59.1,104.7L59.8,102.6L60,102.2L60,101.5L60.1,101.2L60.3,101.1L60.8,101.2L61.8,101.7L62.6,102.1L63,102.3L63.5,102.4L64.3,102.6L64.7,102.5L65.1,102.4L65.6,102.4L66.4,102.5L66.7,102.5L67,102.6L67.2,102.8L67.4,103.2L67.5,103.4L67.8,103.4L68.5,102.9L68.9,102.6L69.4,102.2L70,102.1L70.5,102L70.7,101.8L70.9,101.2L71.2,100.8L71.3,100.3L71.2,99.9L70.9,99.3L70.9,98.9L70.8,97.7L70.7,96.6L70.8,95.8L71.1,94.8L71.2,94.5L71.4,94.1L71.6,93.6L72,93.5L72.9,93.4L73.8,93.2L74.3,93L74.7,92.9L75,92.7L75.5,92L75.8,91.6L75.9,90.6L75.8,90.1L75.9,89.6L76.1,89.3L76.5,89.1L76.7,89L77.1,88.9L77.9,89L78.3,89.1L78.7,89.2L79,89.1L79.1,88.9L79.4,88.8L79.8,88.7L80.2,88.6L80.4,88.6L80.5,88.9L80.4,89.1L80.5,89.5L80.7,89.7L80.6,89.9L80.4,90L80.2,90.2L80.1,90.4L80.4,90.7L80.5,91L81,91.2L81.3,91.4L81.4,91.6L81.4,91.8L81.2,92L81.1,92.2L81.1,92.4L81.1,92.5L81.5,92.7L81.9,92.8L82.5,93.1L83,93.5L83.4,93.6L83.6,94.1L83.7,94.7L84.1,95L84.8,95.4L85.1,95.5L85.3,95.8L85.7,96.1L85.9,96.2L86.3,96.2L86.9,95.9L87.5,95.9L87.8,96.1L88.2,96.7L88.4,96.8L88.5,97L88.8,97.2L89,97.2L89.3,97.1L89.5,96.8L89.8,96.9L89.9,97L90,97.3L90.1,97.7L90.5,98L91,98.1L91.1,98.3L91.2,98.6L91.3,98.9L91.5,99.2L91.7,99.8L91.7,100.3L91.8,100.6L92.1,101L92.4,101.8L92.7,102.3L93.1,102.5L93.4,102.7L93.6,103.1L93.9,103.9L93.9,104.5L94,104.9L94.1,105.1L94.1,105.3L93.8,106.2L93.6,106.6L93.6,106.9L93.7,107.5L93.9,107.9L94,108.3L93.8,108.6L93.5,109L93.3,109.3L93.1,109.5L92.7,110.2L92.6,111L92.5,111.4L92.7,111.8L92.9,112.1L92.9,112.4L93.3,113L93.4,113.4L93.6,113.5L93.8,113.3L94.2,113.3L94.5,113.5L94.9,113.7L95.3,113.9L95.8,113.9L96.1,114L96.4,114.2L97.1,114.2L97.6,114.2L98.3,114.2L98.9,114.4L100,114.6L100.7,114.6L101.6,114.4L102.1,114.5L103.7,114.7L104.7,115L105.3,115.2L105.7,115.6L106.2,116.3L106.5,116.6L107.6,116.7L108.3,117.5L108.8,117.8L109.7,118.5L110.4,118.8L111.2,119L112.4,118.9L112.5,119L112.4,119.4L112.4,120L112.4,120.4L112.5,120.5L113,120.7L113.2,120.9L113.4,121.2L113.5,121.4L113.9,122.6L114.5,124.2L114.6,124.8L114.9,125.2L115.6,125.9L115.9,126.4L116.5,126.9L116.7,127.3L116.7,127.9L116.9,128.1L117.9,127.9L118.8,127.8L120.3,127.7L122.5,128L124.8,128.3L126.8,128.5L127.7,128.7L130,129L131.2,128.6L132.2,128.3L132.6,128.4L134.4,128.7L135.5,128.8L136.9,129L137.8,129.1L138.6,129.1L138.9,129.2L139.3,129.3L139.5,129.5L140.2,130.5L140.6,131L141.4,131.3L143.2,131.7L144.2,131.9L145.3,132.2L146,132.6L146.9,133L148,133.6L149.2,133.4L150.5,133.1L151.3,132.9L151.3,134.2L152.5,134.3L152.9,134.2L153.4,134.5L153.7,134.4L154,134.1L154.3,133.7L154.8,133.5L155.7,133.1L155.9,132.9L157.2,132.2L159.1,131.4L160,131L160.2,130.9L160.7,130.7L161,130.6L161.6,130.4L162.4,130.4L163.2,130.2L165.2,129.9L165.4,129.9L166.5,129.8L167,129.6L167.7,129.7L168.6,129.8L169.2,129.8L170,129.8L171.1,129.7L171.9,129.7L172.4,129.6L173,129.3L173.5,129L174.2,128.7L175,128.4L175.6,128.1L176,127.9L176.5,127.8L176.6,127.5L176.7,127.4L177,127.1L177.4,126.5L177.8,126L177.9,125.8L178.3,125.3L178.6,125L179,124.5L179.4,124.3L179.8,124.2L180.9,123.7L181.1,123.6L181.3,123.6L181.7,123.2L182.1,122.8L182.3,122.6L182.7,122.5L183,122.3L183,122L183,121.7L182.7,121.3L182.6,121L181.9,120.3L181.6,120L181.2,119.4L181.1,119L180.8,118.7L180.7,118.4L180.8,118.1L181.1,117.5L181.2,117.2L181.3,116.6L181.6,115.7L181.9,115.2L182.2,114.8L182.8,114.2L183.4,114.1L183.7,114.2L184.5,114.2L185,114.3L185.4,114.6L185.8,115.1L186.3,115.3L187.7,115.8L188.3,115.9L188.8,115.9L189.5,116L189.7,116.1L190,116.1L190.3,116L190.7,115.7L191.2,115.3L191.5,115.1L191.9,115L192.1,114.8L192.5,114.3L193,114L193.5,113.4L193.8,113L193.9,112.7L194,112.4L194.1,112.3L194.5,112.1L194.9,112.1L195.7,112.3L196.7,112.3L196.9,112.2L197.9,112.1L198.3,112L198.9,111.9L199.4,111.4L200,110.8L200.4,110.5L200.7,110.5L201.1,110.1L201.3,109.8L201.2,109.5L201.2,109.2L201.4,108.8L201.8,108L202.2,107.6L202.5,107.3L202.7,106.8L202.9,106.6L203.2,106.6L203.6,106.2L203.9,106.2L204.4,106.3L205.2,106.4L205.7,106.4L205.9,106.3L206,106.1L206,105.9L206.2,105.2L206.2,105L206.4,104.9L206.8,104.9L207.2,105.2L207.4,105.3L207.7,105.4L208,105.2L208.4,104.7L209.1,104.5L209.4,104.4L210.1,104.1L210.5,104.2L211.2,104.3L211.5,104.2L211.8,104.3L212.1,103.9L212.4,103.9L212.8,104L213.1,104.3L213.7,104.6L214.4,104.8L215,104.7L215.7,104.8L216,104.8L216.2,104.7L216.7,104.4L216.8,104L216.8,103.7L216.8,103.3L216.7,103L216.4,102.5L216.3,102.2L216.2,101.8L216,101.4L215.6,101L215.3,100.8L214.6,100L214.4,99.8L214.3,99.7L214.3,99.4L214,99.3L213.7,99.1L213.5,98.9L213.4,98.5L213.4,98.3L213.1,98.1L212.8,98L212.5,97.8L212,97.6L211.7,97.2L211.2,96.4L210.9,96.2L209.8,96.1L209.4,95.9L209,96L208.7,96.1L208.1,96.1L207.8,96.2L207.4,96.7L206.9,97.3L206.5,97.7L206.2,98.1L206,98.3L205.7,98.2L205.4,97.7L204.8,97.3L204.3,97.1L204.1,97L203.5,96.9L203,96.9L202.4,97.1L201.9,97.1L201.6,97L201.3,97L200.6,97.4L200.2,97.9L199.8,98.1L199.5,97.7L199,97.4L198.6,96.9L198.4,96.4L198.2,95.2L198.7,94.9L199.4,94.5L199.4,93.9L199.4,93.2L199.5,92.4L200.1,91.7L200.4,91.1L200.4,90.7L200.7,90.1L200.9,89.4L201.3,88.6L202,87L202.8,85.2L203.2,84.3L204,84.9L204.6,85.1L205.6,85.6L206.6,85.7L207.5,86.2L208,86.3L208.2,86.3L209.6,85.1L210.7,84.1L212,83.4L212.9,83.3L213.7,83L214.1,82.7L214.4,82.1L214.5,81.3L214.3,80.8L213.8,80.6L213.7,80.4L213.9,80.2L214.1,79.9L214.2,79.4L214.5,78.9L214.9,78.4L215.2,77.9L215.2,77.4L215.5,76.8L215.9,76.2L216.2,75.7L216.2,75.2L216.5,74.6L217.1,73.6L217.6,72.4L218.3,71.5L219.4,70.6L220.2,69.8L220.5,68.9L220.4,68.2L220.1,67.5L220,66.8L220.3,66.2L220.1,65.7L219.5,65.3L218.8,65.2L218,65.4L217.6,65.2L217.5,64.6L217.7,64.1L218.2,63.7L219.1,62.8L220.3,61.4L221.5,60.6L223.3,60.4L224.7,59.9L226.2,59.4L227.2,59.2L227.4,59.3L228,59.4L228.9,59.3L229.8,59.1L230.7,58.7L231.4,58.7L231.8,58.8L232.1,58.8L232.3,58.9L232.4,58.9L232.6,58.7L233.2,59L234.3,59.7L234.9,60.1L235.2,60L235.5,60.2L235.9,60.7L236.3,61L237,61.1L237.7,61.7L238,61.7L238.1,61.4L238.4,61.2L238.9,61.2L239.5,61.4L240.3,62L240.9,62.3L241.1,62.2L241.3,62.3L241.5,62.6L241.5,62.9L241.4,63.1L241.6,63.4L241.9,63.4L242.2,63.5L242.5,64L242.8,64.2L243,64.5L243,64.6L243,64.8L243,64.9L242.9,65.1L242.9,65.4L243,65.6L243.5,65.8L243.6,66L243.7,66.2L243.8,66.5L244.1,66.8L244.2,67.1L244.2,67.3L244.3,67.5L244.4,67.6L244.5,68.1L244.5,68.4L244.7,68.7L244.8,69.4L245,70.1L245.6,71.1L245.8,71.7L245.7,72.3L245.8,72.6L246.1,72.7L246.2,73L246.2,73.4L246.3,73.6L246.4,73.9L246.3,74.3L246.4,74.7L246.6,74.9L246.7,75.3L246.7,75.8L247.1,76.5L247.9,77.6L248.3,78.4L248.5,79L248.5,79.5L248.4,79.8L248.3,80.1L248.5,80.3L248.5,80.5L248.5,80.8L248.7,81.1L249.6,81.7L249.2,82.6L249.1,83.3L249.2,83.9L249.4,84.4L249.8,84.7L250,85L250.1,85.3L250.5,85.6L251.3,86L252.3,86L253.5,85.8L254.3,85.8L254.6,85.9L254.6,86.1L254.6,86.4L254.8,86.6L255.3,86.7L255.6,86.9L255.8,87.2L256.1,87.3L256.3,87.2L256.6,87.2L256.9,87.4L257,87.3L257.2,87.1L257.4,87.1L257.7,87.1L257.8,87.6L258.1,87.8L258.4,87.9L258.9,88.4L260,89.9L260.6,90.4L261.3,90.5L262.2,90.6L262.4,91.1L262.2,91.7L262.2,92.2L262.3,92.4L262.6,93L263,93.3L263,93.6L263.2,93.9L263.1,94.5L262.8,95.3L262.9,96L263.4,96.5L263.7,97.1L263.8,97.6L263.9,97.9L264.1,98L264.6,98L265.4,97.8L266,97.8L266.4,98.1L267.4,98.1L268.9,97.9L269.9,97.8L270.3,97.9L270.7,97.6L271,96.8L271.3,96.4L271.6,96.5L272,96.2L272.6,95.7L273.2,95.4L273.8,95.4L274.6,95.5L275,95.2L275.4,94.8L276.1,94.3L277.7,93.8L278.1,93.7L278.2,93.7L278.7,93.8L279.2,94L279.6,94.5L279.7,94.7L279.6,95.1L279.6,95.3L279.4,95.6L279.2,95.9L279.3,96.2L279.6,96.9L279.8,97.3L280,97.9L279.9,98.1L279.8,98.5L279.3,99.1L279.1,99.3L278.9,99.6L278.4,99.6L278.3,99.7L278,99.8L277.9,100L277.8,100.2L277.5,100.5L277.5,100.8L277.6,101.2L277.7,101.6L277.4,101.9L277.2,102.5L277.1,102.7L277,103.1L277,103.3L276.9,104.2L276.6,104.8L276.2,105.5L276.3,105.9L276.4,106.3L276.3,106.5L276.3,106.7L276.2,107L276.1,107.2L275.7,107.4L275.5,107.7L275.6,108.1L275.5,108.5L275.3,108.8L275.1,109L274.9,109.2L274.7,109.3L274.6,109.7L274.6,110L274.5,110.4L274.5,110.7L274.4,111L274.1,111.2L273.9,111.3L273.7,111.3L273.3,111.6L273,112.7L273,113.3L273,113.8L272.6,114.2L272.3,114.4L272.1,114.3L271.9,114.3L271.4,114.1L271.1,114.1L270.6,113.9L269.9,113.7L269.1,113.4L268.6,113.3L268.2,113.2L267.9,113L267.7,112.6L267.4,112.8L267.2,113.2L266.8,113.4L266.7,113.8L266.5,114.1L266.1,114.5L265.9,114.7L265.2,115L265,115.1L264.4,115.2L264.2,115.3L264,115.6L263.9,115.8L264.1,116.1L264.3,116.7L264.4,117.1L264.6,117.8L265.1,120.2L265,120.6L264.8,122.3L264.8,122.6L264.8,123.1L264.8,123.5L264.9,123.6L265.1,123.7L265.2,123.9L265.2,124.2L265.1,124.5L265,124.9L264.8,125.6L264.6,125.9L264.5,126.1L264.4,126.2L264.4,126.7L264.3,127L264.1,127.1L263.8,127.3L263.5,127.2L263.2,127.3L262.9,127.4L262.3,127.5L261.9,127.7L261.7,127.9L261.6,128L261.6,128.2L261.7,128.3L262,128.3L262.2,128.6L262.3,129L262,129.1L261.9,128.9L261.7,128.9L261.3,128.6L261,128.3L260.8,127.9L260.8,127.2L260.8,127.1L260.4,126.9L260.3,126.7L260.1,126.6L259.9,126.7L259.7,126.6L259.5,126.5L259.4,126.5L259.2,126.7L259.1,127.1L258.9,127.7L258.8,128.2L258.7,128.7L258.6,129.5L258.5,129.6L258.2,129.7L258.1,129.7L258,130L257.8,130L257.6,129.9L257.3,129.7L257.1,129.7L256.9,129.8L256.6,130.2L256.5,130.4L256.4,130.7L256.4,131L256.1,131.3L255.9,131.4L255.4,131.8L255.2,132L254.9,132L254.5,132L254,132.1L253.1,132.2L252.6,132.1L252,132.1L251.5,132.3L251.4,132.5L251.4,132.8L251.5,133L251.6,133.1L251.8,133.5L252.1,133.9L252.4,134.2L252.5,134.5L252.5,134.7L252.4,135L252.1,135.4L251.9,135.7L251.8,135.7L251.5,135.5L251.3,135.4L250.9,135.3L250,135.4L249.5,135.3L249.2,135.2L248.8,135.2L248.2,134.9L247.8,134.9L247.6,134.8L247.6,134.5L247.4,134.2L247.3,134L247.1,133.7L246.8,133.5L246.6,133.5L246.4,133.7L246.1,133.8L246,133.8L245.9,133.8L245.8,134L245.3,134.3L245.3,134.5L245.1,135.1L245,135.7L244.9,135.9L244.7,135.9L244.5,136.1L244.2,136.6L243.9,137.1L243.4,137.5L243.2,137.8L243.1,138L242.7,138.4L242.2,138.5L241.9,138.6L241.6,138.6L241.5,138.8L241.3,139L241.3,139.1L241.1,139.1L240.8,139.3L240.3,139.8L239.9,139.9L239.3,140.2L238.9,140.4L238.7,140.6L238.6,140.7L238.5,140.9L238.3,140.9L238.1,140.9L237.6,141.4L237.3,141.7L236.3,142.5L235.9,142.9L235.8,143.5L235.8,143.4L235.4,143.9L234.7,144.4L233.3,144.5L232.8,144.1L232.6,144.4L232.5,144.7L232.1,144.8L231.5,144.8L231.2,145L231,145.2L230.2,145.3L229.9,145.6L229.3,145.7L227.2,147L226.7,147.5L226.3,148.2L226,148.5L225.7,148.7L225.5,148.8L225.2,149L225,149L224.7,148.9L224.4,149L224.2,149.2L224.4,149.6L224.3,149.7L223.7,149.9L222.9,150L222.5,150.3L222.4,150.4L222.2,150.5L222,150L222,149.4L222.3,149.3L222.6,149.2L224.4,148.4L224.2,147.8L224.4,147.5L224.8,147.1L225,146.9L224.9,146.8L223.7,146.9L223,146.9L222.7,146.9L222.8,146.5L222.7,146.1L222.7,146L223.3,145.6L223.5,145.5L223.7,145.5L223.7,145.2L223.5,144.8L223.7,144.3L224.9,143.8L225.2,143.2L225.7,142.7L226.6,141.5L226.7,141.3L226.9,140.7L226.9,140.5L226.5,140.1L226.4,139.7L225.2,138.8L225.1,138L225,138.1L224.8,138.6L224.6,138.8L224.1,138.8L223.8,138.6L222.3,138.5L221.9,138.8L221.5,139.3L221.2,139.7L220.8,139.9L220.6,140.2L219.3,142.2L218.8,142.4L216.6,143.6L215.5,144L214.7,144.9L214.4,145.4L214.1,145.9L214,146.8L213.2,147.8L212.9,148L212.6,148.1L212.3,148.1L212,148.1L211.4,148L210.8,148.4L210,148.6L209.4,147.9L208.9,147.8L208.2,148L207.9,148.3L207.1,149.8L206.9,150.7L206.9,151L207.3,152.1L207.8,152.7L208.8,153.4L211.1,153.9L211.6,153.7L212.2,153.7L212.8,154.2L213.1,154.9L213.2,155.5L213.2,155.6L213.3,155.8L213.4,156L213.2,156.3L213,156.4L212.8,157.1L212.8,158L213,158.3L213.5,158.7L214.3,159.1L214.9,159.1L216.3,159L216.8,158.4L216.8,158.2L216.8,157.9L217.9,157.1L218.6,156.5L218.5,156.3L218.4,156.2L218.5,156.1L218.8,156L220.5,155.3L221.7,155.9L222.5,156.6L223.2,156.7L223.7,157L224.2,157.3L225,157.4L225.6,157.4L225.8,157.1L226,157L226.2,157L226.5,157.4L227.2,157.6L227.9,157.6L228.3,157.5L228.6,157.6L228.2,158.1L228.3,158.8L228,159.1L227.7,159.4L227.8,159.7L228,159.8L228,160.1L227.7,160.2L227.2,160.7L226.9,160.7L226.8,160.6L226.7,160.4L226.7,160.2L226.5,160L226,159.9L225.5,160L224.4,160.7L223.3,161.2L222.1,161.6L221.8,161.9L221.5,161.9L221,161.7L220.7,161.7L220.7,161.9L221,162.2L221.1,162.5L221.1,162.7L220.9,162.8L220.6,162.7L220.3,162.9L220.2,163.3L220.2,164.2L220,164.4L219.5,164.5L219,164.8L218.8,164.7L218.7,164.5L218.7,164.1L218.7,163.9L218.4,163.9L218,164L217.8,164.3L217.7,164.5L218,165L218.4,165L218.5,165.2L218.2,165.4L217.5,165.8L217.4,166.1L217.2,166.4L216.9,166.7L216.7,166.9L216.5,167.1L216.1,167.2L215.6,167.9L215.3,168.4L214.8,168.7L214.5,169.7L213.9,170.2L213.7,171.1L213.9,171.6L214.5,171.6L214.8,171.8L215.5,172.5L216.3,172.9L217.1,173.2L218.1,173.8L218.4,174.1L218.6,174.6L219.1,176.1L219.4,176.9L219.4,177.3L219.9,178.1L220.4,179.4L221,180.5L221.1,181.4L220.9,181.8L220.9,182.3L221.5,182.8L222.8,183.3L223,183.5L223.2,183.7L223.2,184.6L223.4,184.8L223.6,185L224.4,185.4L224.7,185.6L225.1,186.1L225.2,186.5L225.2,187.1L224.8,187.1L224.4,187L223,186.3L222.7,186.3L222.1,186.4L221.4,186.3L220.6,185.4L220.1,185.2L219.5,185.1L218.1,185.8L217.7,185.7L217.6,185.8L217.4,185.9L218.1,186.1L218.8,185.8L219.4,185.5L220.3,185.7L220.5,186L220.6,186.5L221.3,186.9L221.8,187L222.4,187.5L223,188.2L224.3,189L224.9,189.8L225.1,190.3L225.3,191L224.8,191.2L224.4,191.3L223.8,191.4L223.3,191.6L222.8,192.1L221.5,192.8L221.3,193.2L221.1,193.6L220.8,193.8L219.9,193.6L219.2,193.6L218.3,194.1L218.1,194.3L218.2,194.3L218.4,194.2L218.8,194.3L219.4,194L220,194.9L221.1,194.7L222.2,194L222.6,194L223,194.1L223.4,194.4L224.4,195.6L225,195.8L225.5,196L225.9,196.1L226.1,196.2L225.4,196.6L224.4,197.6L224,197.8L223.7,198.1L224.5,197.9L225,197.5L225.3,197.4L225.5,197.5L225.6,198L225.4,199.8L225.2,199.8L224.9,199.3L224.6,199.2L224.3,199.3L223.8,199.3L223.6,199.5L223.4,199.8L223.7,199.8L224.4,200.4L224.4,200.6L224.2,200.8L223.8,200.7L224.3,201.1L224.2,201.5L224,201.7L223.7,201.8L223.5,202.2L223.8,202.7L224.1,203.5L224.1,203.8L223.7,203.7L223,204.1L222.7,204.2L222.4,203.6L222.1,203.7L222,203.9L221.7,204.5L221.4,205.1L221.1,205.2L220.7,205.2L220.5,205.2L220.5,205.4L220.8,205.6L220.8,205.8L220.2,206.5L220.1,206.8L220.1,207L219.8,207.3L219.9,207.7L219.9,208.1L219.6,208.5L219.3,208.8L218.9,209.3L218.5,209.6L217.9,210.6L217.7,211.1L217.6,211.6L217.4,211.8L217.1,212L216.8,211.9L216.8,211.6L216.6,211.5L216.5,211.3L216.5,211L216.5,210.8L216.4,210.8L216.3,211.1L216,211.3L215.8,211.3L215.5,211.1L215.5,211.3L215.7,211.6L215.7,211.9L216.1,211.9L216.4,212.2L216.6,212.7L216.6,212.8L216.7,213L216.8,213.2L216.4,213.4L216,213.7L215.4,214.2L215,214.5L214.6,214.5L214.4,214.5L214,214.3L213.6,214.2L214.1,214.9L214.4,215L214.8,215L215.2,214.8L215.7,214.8L215.8,215.2L215.6,215.6L215.4,216.2L215.3,216.7L215.7,217.5L215.7,217.7L215.5,217.8L215.1,217.6L214.8,217.4L214.5,217.4L214.1,217.3L213.8,217.4L213.6,217.6L213.7,217.8L214.1,218.1L214.2,218.4L214,218.5L213.1,218.5L212.9,218.5L212.7,218.9L212.8,219.5L212.6,219.8L212.3,219.9L211.8,220.2L211.5,220.3L211.5,220.4L211.7,220.5L211.8,220.7L211.6,221.3L211.2,221.5L210.5,221.4L210,221.5L209.6,221.3L209.1,221.3L208.8,221.6L208.8,221.9L208.5,222L208.3,221.9L208.1,222L208.1,222.2L208.2,222.3L208.9,222.4L209,222.7L209,223L208.4,223.7L208.1,224.1L207.7,224.1L207.4,224.5L207.2,224.9L207,224.8L206.5,224.9L206.4,225.1L206.5,225.2L206.5,225.4L206.3,225.9L206.1,226.1L206,225.9L205.9,225.5L205.8,225.5L205.5,225.8L205.1,226.1L204.9,226.1L204.7,225.9L204.1,225.8L203.9,226.7L203.5,227L203.3,227.2L202.9,227.2L203.2,227.3L203.2,227.5L203.1,227.8L202.8,227.8L202.6,228L202.5,228.8L202.3,229.1L201.7,229.1L201.3,228.9L201.2,229.1L201.1,229.2L200.9,229.3L200.5,229.4L199.6,229.7L199.2,229.6L198.7,229.5L198.4,229.6L198.3,229.9L198.1,230.1L197.6,230.1L197.2,229.9L196.8,229.7L196.4,229.8L196.1,230.2L195.7,230.3L195.6,230.5L195.4,230.6L194.9,230.5L194.8,230L194.5,230L194.3,230.2L194.2,230.4L194.1,230.6L194.1,231L193.9,231L193.6,230.7L193.2,230.7L192.9,230.9L192.7,230.9L192.6,230.8L192.3,230.8L192.2,230.9L192,230.9L191.8,231.1L191.8,231.1L191.5,231L191,230.6L190.7,230.1L190.3,229.7L190.1,229.5L190.1,229L190,228.7L190,228.5L190.1,228.2L189.7,228.4L189.4,228.6L189.5,228.8L189.4,229.1L188.9,229.2L188.9,229.3L189,229.4L189.3,229.8L189.4,230.1L189.6,230.2L189.9,230.7L189.8,231.6L190,231.8L190,232.1L189.8,232.4L189.8,232.4L189.7,232.3L189.6,232.3L189.6,232.4L189.5,232.5L189.5,232.5L189.3,232.6L189.1,232.7L188.9,232.8L188.6,233L188.1,233.1L187.9,232.5L187.5,232.9L187.4,233.7L187.3,233.8L187.1,234L186.7,233.7L186.3,233.9L186.1,234.1L185.9,234.2L185.7,234.4L185.4,234.3L185,234L185.1,233.8L185.1,233.6L184.9,233.5L184.8,233.5L184.9,233.8L184.9,234.3L184.8,234.5L184.6,234.6L184.1,234.5L183.8,234.3L183.4,234.1L183,234.1L182.9,234.4L182.7,234.7L182.5,234.8L182.3,234.7L182,235L181.9,235.2L181.6,235.4L180.7,235.5L180.4,235.8L179.9,235.7L179.6,235.8L179.4,235.8L179.3,235.7L179.1,235.7L179,236L178.5,236.2L178,236.2L177.5,236.7L177.2,237L176.9,237L176.7,236.9L176.6,236.5L176.5,236.5L176.4,236.9L176.3,237.2L176.2,237.4L175.6,237.8L175.4,238.2L175.5,238.6L176.3,238.7L176.4,238.9L176.3,239.1L176.1,239.3L176.1,239.5L176.9,240.2L177,240.5L176.8,240.6L176.7,240.9L176.2,241.2L175.3,241.3L174.5,241.2L174.2,240.9L174.3,240.7L174.5,240.7L174.7,240.7L174.6,240.5L174.5,240.4L174.2,240.2L173.9,239.7L173.9,239.3L173.8,239L173.6,238.7L173.4,238.6L173.3,238.4L173.5,237.8L173.4,237.4L173.7,237L173.8,236.5L174.4,236.3L174.5,235.8L174,235.8L173.7,235.4L173.7,235.6L173.4,235.6L173,234.9L172.9,234.8L172.7,234.8L172.8,235.5L172.4,235.8L172,235.9L171.4,236L171.1,236L170.9,236L170.9,235.8L171.1,235.5L170.9,235.3L170.6,235.1L170.2,235.1L169.8,235.1L169.5,235.1L169.4,235L169.1,234.7L168.9,234.5L168.8,234.3L168.9,234L168.8,233.9L168.3,233.9L168.3,234.2L168.3,234.6L168.5,234.9L168.4,235.1L168.1,235.2L167.9,234.9L167.8,234.8L167.6,234.8L167.5,235.2L167.3,235.4L166.9,235.4L166.5,235.6Z"/></svg>
