<svg xmlns="http://www.w3.org/2000/svg" viewBox="0 0 400 300"><path d="M351.2,272.6L351.7,272.2L352.4,272.9L352,274L350.8,274.3L349.7,274L349.5,273.1L350.2,272.3ZM355,269.5L355.4,269.4L355.2,270.4L355,270.6L353.7,271.1L352.4,271.5L352.1,270.7L353.2,270.3L353.8,270.2L355,269.5Z" fill="#2c2c34" stroke="#474751" stroke-width="0.8"/><path d="M56.3,238.2L56.7,238.4L64.1,242.6L64.2,243.8L67.2,245.8L66.2,248.3L66.3,249.5L67.6,250.3L67.7,250.8L67.1,252L67.3,252.7L67.1,253.6L67.8,254.9L68.7,257L69.4,257.4L67.8,258.6L65.6,259.5L64.4,259.4L63.6,260L62.2,260.1L61.7,260.4L59.2,259.8L57.7,259.9L57.1,257.1L56.4,256.1L56,255.6L54,255.2L52.8,254.6L51.5,254.2L50.7,253.9L49.9,253.3L48.8,250.7L47.6,249.6L47.2,248.4L47.4,247.3L47,245.4L47.8,245.3L48.6,244.6L49.4,243.5L49.9,243.1L49.9,242.4L49.4,242L49.3,241.2L49.9,240.9L50,239.7L49.2,238.6L49.9,238.3L52.2,238.3Z" fill="#2c2c34" stroke="#474751" stroke-width="0.8"/><path d="M400,191.6L399.7,191.6L399.5,191.1L399.4,191L399.9,190.7L399.9,190.7L400,190.8L400,191.6ZM397.2,189.6L397.2,190.1L397,190.4L396.3,190L396.4,189.8L396.7,189.6ZM382.7,80.4L384.3,80.8L384.5,82.3L383.2,83L381.9,82.2L380.7,81.1ZM400,95.6L399.7,95.7L399.1,97.4L396.7,99L395.3,98.7L393.4,99.7L391.3,100.9L389.6,102.1L386.1,103.1L385.8,102.5L388,100.9L390,99.8L392.2,97.8L394.7,97.4L395.8,95.9L398.6,93.7L399,92.9L400,92L400,95.6ZM400,87.3L399.6,87.5L398.9,86.8L397.8,88.3L396.5,86.3L395.9,87.7L395.2,85.7L393.1,87.3L391.9,87.3L391.7,84.9L392.1,83.5L390.7,82L388.1,82.8L386.4,80.9L385,79.9L385,77.5L383.4,75.7L384.2,73.2L385.8,70.7L386.6,68.4L388.2,68.1L389.6,68.8L391.3,66.6L392.8,67L394.3,65.6L393.9,63.5L392.8,62.6L394.3,60.8L393,60.9L390.9,61.9L390.3,62.9L388.6,61.9L385.8,62.4L382.8,61.3L381.9,59.3L379.3,56.5L382.2,54.4L386.7,51.9L388.4,51.9L388.1,54.5L392.5,54.3L390.8,51.1L388.3,49.1L386.8,46.4L384.9,44.1L382.1,42.4L383.2,39.5L386.8,39.3L389.4,36.7L389.9,33.8L392,30.9L394,30.2L397.9,27.5L399.7,27.9L400,27.7L400,87.3ZM371.9,65.5L373.2,66.4L374.4,65.9L376.1,67.2L378.1,67.8L378,68.3L376.4,69.2L374.9,68.2L374.1,67.4L372.3,67.7L371.8,67.3Z" fill="#2c2c34" stroke="#474751" stroke-width="0.8"/><path d="M165.6,120.3L164.1,122.4L162.4,122.7L162.3,125.7L161.1,127.1L157.1,126.1L155.6,131.4L154.5,132.1L150.5,133.2L152.3,138.2L150.9,138.9L151.1,140.5L149.8,140.1L148.8,139.1L145.8,138.8L142.4,138.7L141.7,139L138.7,137.8L137.6,138.4L137.3,140.1L133.9,139.1L132.5,139.5L132.1,140.7L130.9,141.2L128.2,143.1L127.3,145.1L126.6,145.1L126,143.8L123.4,143.7L123,141.5L122,141.5L122.1,138.7L119.7,136.6L116.2,136.9L113.8,137.3L111.8,134.7L110.2,133.6L107,131.5L106.6,131.3L101.4,133L101.4,143.3L100.4,143.5L99,141.3L97.6,140.6L95.3,141.1L94.3,142L94.2,141.4L94.7,140.2L94.3,139.3L92,138.3L91.1,135.8L89.9,135L89.9,134.1L91.8,134.4L91.9,132.3L93.7,131.8L95.5,132.2L95.8,129.4L95.5,127.5L93.4,127.7L91.7,127L89.3,128.3L87.4,128.9L86.4,128.4L86.6,126.9L85.3,124.9L83.7,124.9L82,122.9L83.2,120.5L82.6,119.9L84.2,116.4L86.3,118.2L86.6,115.9L90.8,112.4L94,112.3L98.5,114.5L100.9,115.9L103.1,114.5L106.3,114.4L109,116.1L109.5,115.1L112.4,115.3L112.9,113.7L109.6,111.5L111.6,109.9L111.2,108.9L113.2,108.1L111.7,105.7L112.6,104.5L120.3,103.3L121.3,102.4L126.4,101.1L128.2,99.7L131.9,100.4L132.5,104.1L134.7,103.2L137.3,104.4L137.1,106.3L139.1,106.1L144.2,102.8L143.5,103.9L146.1,106.6L150.6,115.1L151.7,113.4L154.5,115.2L157.5,114.4L158.6,115L159.6,116.9L161,117.5L161.9,118.8L164.5,118.4Z" fill="#2c2c34" stroke="#474751" stroke-width="0.8"/><path d="M101.4,143.3L101.4,133L106.6,131.3L107,131.5L110.2,133.6L111.8,134.7L113.8,137.3L116.2,136.9L119.7,136.6L122.1,138.7L122,141.5L123,141.5L123.4,143.7L126,143.8L126.6,145.1L127.3,145.1L128.2,143.1L130.9,141.2L132.1,140.7L132.7,141L131,142.8L132.5,143.8L133.9,143.1L136.4,144.5L133.8,146.5L132.2,146.2L131.4,146.3L131.1,145.5L131.5,144.3L128.8,144.9L128.1,146.6L127.1,148.1L125.4,148L124.9,149.2L126.4,149.8L126.8,151.7L125.7,154.3L124.1,153.8L123,153.8L123.1,152.2L120.3,151.1L118.2,149.8L116.9,148.6L114.5,146.7L113.5,144L112.8,143.5L110.6,143.6L109.8,143L109.6,140.8L106.9,139.4L105.2,141L103.4,141.9L103.7,143.3Z" fill="#2c2c34" stroke="#474751" stroke-width="0.8"/><path d="M275.3,241.6L278.8,243L282.6,244.1L284,245.2L285.1,246.2L285.5,247.4L288.9,248.7L289.4,249.8L287.5,250L287.9,251.4L289.8,252.7L291.1,254.9L292.3,254.9L292.2,255.8L293.8,256.1L293.1,256.5L295.3,257.4L295.1,258L293.7,258.1L293.2,257.6L291.5,257.4L289.4,257.1L287.8,255.7L286.7,254.6L285.6,252.8L282.9,251.9L281.2,252.5L280,253.1L280.2,254.7L278.6,255.4L277.5,255L275.3,255L275.3,248.2ZM299.1,243.7L299.9,244.4L300.1,245.4L299.5,246L299.1,244.8L298.6,244L297.7,243.3L296.5,242.4L295,241.8L295.6,241.3L296.7,241.9L297.4,242.4L298.3,242.9ZM296.3,248.2L295.2,248.7L294.2,249.2L293.1,249.2L291.4,248.6L290.2,248L290.4,247.4L292.2,247.7L293.4,247.5L293.7,246.5L294,246.5L294.2,247.6L295.3,247.4L295.9,246.7L297,246L296.8,244.8L298,244.7L298.5,245.1L298.4,246.2L297.7,247.4L296.7,247.6ZM303.4,247.2L304,247.6L305,248.9L306,249.6L305.7,250.2L305.1,250.4L304.2,249.6L303.3,248.3L302.9,246.8L303.2,246.6Z" fill="#2c2c34" stroke="#474751" stroke-width="0.8"/><path d="M275.3,241.6L275.3,248.2L275.3,255L273.5,253.3L271.5,252.8L270.9,253.4L268.4,253.5L269.2,251.8L270.5,251.2L270,249L269,247.3L265,245.5L263.3,245.4L260.3,243.5L259.7,244.5L258.9,244.6L258.4,243.9L258.4,243L256.9,242L259.1,241.3L260.5,241.3L260.3,240.8L257.3,240.8L256.5,239.5L254.7,239.2L253.9,238.1L256.6,237.7L257.7,237L260.9,237.8L261.3,238.6L261.8,241.9L263.9,243.1L265.7,240.9L268,239.7L269.8,239.7L271.6,240.4L273.1,241.2ZM242.5,254.5L242.7,254.9L242.7,255.5L241.4,257.1L239.7,257.5L239.4,257.3L239.6,256.6L240.5,255.3ZM261.4,250.4L261.2,248.8L261.6,248.1L262,247.4L262.4,248L262.4,249ZM228,227.8L226.8,229.6L228.4,231.6L228,232.5L230.3,234.4L227.9,234.6L227.2,236L227.3,237.9L225.3,239.3L225.3,241.3L224.5,244.4L224.2,243.7L221.8,244.6L221,243.4L219.6,243.3L218.6,242.6L216.1,243.3L215.4,242.4L214,242.5L212.4,242.2L212,239.5L211,238.9L210,237.2L209.8,235.4L210,233.5L211.2,232.1L211.6,233.5L213,234.7L214.3,234.2L215.6,234.4L216.8,233.3L217.7,233.2L219.7,233.7L221.3,233.3L222.4,230.5L223.2,229.7L223.9,227.4L226.2,227.4ZM251.5,242L253.7,242.6L254.5,244.1L252.8,243.3L251.1,243.1L249.9,243.2L248.5,243.2L249,242ZM246.4,244L245,243.6L244.6,242.7L246.7,242.6L247.2,243.3ZM248.6,231.8L248.7,232.9L249.9,233.1L250.1,233.9L250,235.7L248.9,235.5L248.6,236.7L249.5,237.8L248.9,238.1L248.1,236.8L247.5,234.2L247.9,232.5ZM238.3,234.4L240.7,234.4L242.7,232.9L243.1,233.3L241.4,235.4L239.9,235.7L237.9,235.4L234.5,235.5L232.7,235.7L232.4,237.3L234.3,239.1L235.4,238.2L239.2,237.5L239,238.4L238.1,238.1L237.2,239.3L235.4,240.1L237.4,242.7L237,243.5L238.8,245.8L238.8,247.2L237.7,247.8L236.9,247L237.9,245.4L235.9,246.2L235.4,245.6L235.7,244.8L234.2,243.6L234.3,241.6L233,242.2L233.1,244.6L233.2,247.6L231.9,247.8L231.1,247.2L231.6,245.4L231.3,243.4L230.5,243.4L229.8,242L230.7,240.6L231,239L232,235.9L232.4,235.1L234.2,233.6L235.8,234.2ZM232.9,257.3L230.2,255.9L232.1,255.5L233.2,256.1L233.9,256.7L233.8,257.3ZM235.1,253.7L236.4,253.6L238.3,252.8L238,254L234.9,254.6L232.2,254.3L232.2,253.6L233.8,253.1ZM228.8,253.4L230.1,253.2L230.6,254.1L228.2,254.5L226.8,254.8L225.7,254.8L226.4,253.6L227.5,253.6L228,252.8ZM208.8,249.4L209.1,250.1L213,250.3L213.5,249.5L217.2,250.5L218,251.8L221.1,252.2L223.6,253.4L221.2,254.2L219,253.4L217.1,253.4L215,253.3L213.1,252.9L210.7,252.1L209.2,251.9L208.4,252.2L204.7,251.3L204.3,250.4L202.4,250.3L203.8,248.3L206.3,248.4L208,249.2ZM200.4,238.4L200.7,239.9L201.5,241L203,241.2L203.9,242.5L203.4,245L203.3,248.2L201.1,248.3L199.4,246.5L196.7,244.9L195.9,243.6L194.3,242L193.3,240.4L191.7,237.6L189.9,235.9L189.4,234.1L188.6,232.5L186.8,231.2L185.7,229.5L184.1,228.3L182,226.1L181.8,225L183.1,225.1L186.3,225.5L188.1,227.5L189.7,228.9L190.8,229.7L192.8,231.9L194.8,232L196.6,233.4L197.7,235.1L199.3,236L198.5,237.7L199.7,238.4Z" fill="#2c2c34" stroke="#474751" stroke-width="0.8"/><path d="M47,245.4L47.4,247.3L47.2,248.4L47.6,249.6L48.8,250.7L49.9,253.3L49.1,253.1L46.3,253.5L45.8,253.7L45.2,255L45.6,256L45.3,258.4L45,260.5L45.6,260.9L47,261.7L47.6,261.3L47.7,263.6L46.2,263.6L45.3,262.4L44.6,261.5L43,261.2L42.6,260.1L41.3,260.8L39.7,260.5L39,259.5L37.7,259.4L36.7,259.4L36.6,258.8L35.9,258.7L35,258.6L33.7,258.9L32.8,258.8L32.3,259L32.4,256.6L31.7,255.8L31.6,254.5L31.9,253.3L31.5,252.5L31.4,251.2L29,251.2L29.1,250.5L28.1,250.5L28,250.8L26.7,250.9L26.2,252.1L25.9,252.6L24.8,252.3L24.1,252.6L22.7,252.8L22,251.7L21.5,251L20.9,249.8L20.4,248.3L14.4,248.2L13.6,248.5L13.1,248.5L12.2,248.7L11.9,248.1L12.4,247.9L12.5,247L12.8,246.4L13.6,246L14.1,246.2L14.8,245.4L15.9,245.5L16.1,246L16.8,246.4L18,245.1L19.2,244.1L19.7,243.5L19.7,241.8L20.6,239.8L21.5,238.7L22.8,237.8L23.1,237.1L23.1,236.4L23.5,235.6L23.4,234.5L23.6,232.7L24,231.4L24.6,230.3L24.7,229.1L24.9,227.6L25.7,226.6L26.8,225.9L28.5,226.6L29.8,227.4L31.3,227.6L32.8,228L33.4,226.7L33.7,226.6L34.6,226.8L36.9,225.8L37.7,226.2L38.4,226.1L38.7,225.6L39.5,225.5L41,225.7L42.3,225.7L43,225.5L44.2,227.2L45.1,227.5L45.7,227.1L46.6,227.2L47.8,226.8L48.3,227.7L50.1,229.1L49.9,231.4L50.7,231.7L50.1,232.5L49.3,233L48.5,234.1L48.1,235L48,236.7L47.5,237.4L47.5,239L46.9,239.5L46.8,240.8L46.5,240.9L46.4,242L46.9,243Z" fill="#2c2c34" stroke="#474751" stroke-width="0.8"/><path d="M72,239.7L70.8,238L70.8,230.5L72.6,228.2L73.1,227.6L74.5,227.5L76.3,226.1L78.9,226L84.7,219.8L86.1,218.1L87.1,216.8L87.1,215.7L87.1,213.6L87.1,212.8L87.1,212.7L87.7,212.7L88.7,212.4L89.8,212.2L90.7,211.5L91.5,211.5L91.6,212L91.4,213.3L91.4,214.3L90.9,215.1L90.4,217.3L89.4,219.7L88.1,222.3L86.4,225.3L84.6,227.6L82.2,230.4L80.2,232L77.1,234.1L75.2,235.6L73,238.1L72.5,239.2Z" fill="#2c2c34" stroke="#474751" stroke-width="0.8"/><path d="M67.2,245.8L64.2,243.8L64.1,242.6L56.7,238.4L56.3,238.2L56.3,236L56.9,235.2L57.9,233.8L58.6,232.3L57.7,230L57.5,229L56.5,227.5L57.8,226.3L59.2,225L60.2,225.3L60.2,226.5L60.9,227.1L62.4,227.1L65,228.9L65.6,228.9L66.1,228.8L66.5,229.1L67.9,229.2L68.5,228.4L70.4,227.5L71.2,228.2L72.6,228.2L70.8,230.5L70.8,238L72,239.7L70.6,240.5L70.1,241.3L69.3,241.5L69,242.9L68.4,243.8L68,245.1Z" fill="#2c2c34" stroke="#474751" stroke-width="0.8"/><path d="M37.2,219.3L35.7,218.4L35,217.9L34.8,217.2L35.2,216.3L35.2,215.5L34,214.2L33.8,213.3L33.8,212.8L33,212.2L33,211L32.6,210.2L31.9,210.3L32.1,209.5L32.6,208.6L32.4,207.8L33,207.1L32.6,206.6L33.2,205.3L34.1,203.8L35.9,203.9L35.8,195.4L35.8,194.5L38.1,194.5L38.1,190.1L46.3,190.1L54.3,190.1L62.4,190.1L63,192.3L62.6,192.7L62.9,194.9L63.6,197.5L64.4,198L65.5,198.8L64.5,200L63,200.4L62.4,201L62.2,202.5L61.3,205.6L61.5,206.4L61.2,208.2L60.3,210.3L59.1,211.3L58.2,212.9L58,213.8L57,214.4L56.4,216.5L56.5,218.4L56.5,216.8L56.2,216.8L56.2,215.7L56,215L54.9,214.2L54.7,212.7L54.9,211.1L54,211L53.8,211.5L52.6,211.6L53.1,212.2L53.3,213.4L52.1,214.6L51.1,216.1L50.1,216.3L48.3,215.1L47.6,215.5L47.4,216.1L46.3,216.5L46.2,216.9L44.2,216.9L43.9,216.5L42.4,216.4L41.7,216.8L41.1,216.6L40.1,215.4L39.7,214.8L38.3,215.1L37.7,216.1L37.2,217.9L36.5,218.3L35.9,218.5Z" fill="#2c2c34" stroke="#474751" stroke-width="0.8"/><path d="M35.8,195.4L35.9,203.9L34.1,203.8L33.2,205.3L32.6,206.6L33,207.1L32.4,207.8L32.6,208.6L32.1,209.5L31.9,210.3L32.6,210.2L33,211L33,212.2L33.8,212.8L33.8,213.3L32.5,213.7L31.4,214.5L30,216.8L28,217.7L26.1,217.6L25.5,217.8L25.7,218.5L24.6,219.2L23.7,220L21.2,220.8L20.7,220.4L20.3,220.3L19.9,220.9L18.3,221L18.6,220.5L17.9,219L17.6,218.2L16.8,217.8L15.5,216.6L16,215.6L16.9,215.8L17.5,215.7L18.6,215.7L17.5,213.8L17.6,212.4L17.5,211.1L16.7,209.7L16.9,208.7L15.5,208.7L15.5,207.3L14.7,206.5L15.6,203.8L18.2,201.8L18.3,199L19.1,194.6L19.5,193.6L18.7,192.9L18.6,192.2L17.9,191.6L17.4,188.2L19.4,187L27.6,191.2Z" fill="#2c2c34" stroke="#474751" stroke-width="0.8"/><path d="M282.1,0L282,0.1L276.9,0L282.1,0ZM274.4,0L271.1,1.8L269.7,0L274.4,0ZM293.7,0L292.8,1.2L289.5,0.5L289,0L293.7,0ZM273,11L274.9,8.1L277.4,7.4L280.3,10.2L280.6,12.1L277.5,12.1L273.3,11.3ZM33.5,103.4L29.7,103.5L27.2,103.1L27.7,101.5L30.5,100.4L32.6,101L33.5,101.5L33.3,102.5ZM110.1,0L106.6,4.1L103.5,11.2L100.3,17.9L100.7,23.4L104.6,28.6L103.4,29.1L96.8,28.3L96.2,25.5L92.5,23.8L92.2,20.3L94.3,18.9L94.2,15.1L98.3,9.1L96.4,8.2L96.4,8.2L101.3,1.6L101,0L110.1,0ZM279.2,105.6L279.9,108.9L279.8,112.2L280.7,115.5L282.7,121.1L279.7,120L278.5,124.5L280.5,127.6L280.4,129.7L278.8,127.9L277.5,130.2L277.1,127.7L277.4,124.8L277.1,121.4L277.6,119.1L277.7,114.8L276.5,111.6L276.7,107L278.6,105.4L277.8,103.8L278.7,103.3ZM215.7,0L212.2,2.8L210.7,5L213.2,6.1L216.2,7.9L218.1,6.6L219.1,11.2L220,9.4L223.3,8.2L229.8,9.4L230.3,12.7L238.9,13.8L239,8.3L243.3,9.6L246.6,9.6L249.9,13.3L250.8,17.7L249.6,20.5L252.2,25.6L255.4,28.2L257.4,21.5L260.7,24.4L264.2,22.6L268.1,24.6L269.6,22.8L273,23.7L271.5,17.6L274.2,14.6L292.7,19.1L294.4,23L299.7,27.8L308,26.6L312.1,27.7L313.8,30.2L313.5,34.6L316,36.3L318.8,35.1L322.4,34.9L326.3,36.1L330.1,35.4L333.7,40.5L336.2,38.7L334.6,35L335.5,32.4L342,34L346.3,33.7L352.1,36.5L355,39L360,43.3L365.4,48.6L365.2,51.9L366.6,53.1L366.1,49.4L371.7,50.2L375.7,55L373.6,57.1L370.3,57.6L370.2,62.4L369.4,63.3L367.5,63.2L365.9,61.5L363.2,60.2L362.8,58L360.7,57.2L358.4,57.9L357.3,56.1L357.7,54.3L355.2,55.5L356.2,57.8L355,59.9L355,59.9L352.4,62L349.7,61.7L351.6,64.2L352.8,68L353.7,69.2L354,71L353.4,72.2L349.6,71.2L343.9,74.5L342.1,75L339,78L336,80.6L335.2,82.5L332.3,79.6L327,82.8L326.1,81.3L324.1,83.1L321.4,82.5L320.7,85.2L318.2,89L318.3,90.5L320.6,91.4L320.4,96.8L318.5,97L317.6,100L318.5,101.5L314.9,103.4L314.2,107.3L311.1,108.1L310.5,111.5L307.6,114.6L306.8,112.3L305.9,107.4L304.8,99.7L305.8,94.6L307.5,92.3L307.6,90.6L310.8,89.7L314.4,84.7L317.9,80.6L321.6,77.2L323.3,71.1L320.8,71.5L319.6,75.1L314.4,79.7L312.7,74.5L307.4,76L302.3,83L304,85.4L299.4,86.5L296.3,86.9L296.4,84L293.2,83.4L290.7,85.3L284.4,84.7L277.7,85.8L271.1,93.4L263.3,102L266.5,102.4L267.5,104.6L269.5,105.4L270.8,103.7L273,103.9L276,107.7L276.1,110.6L274.5,113.9L274.3,117.7L273.4,122.7L270.3,127.1L269.6,129.2L266.8,132.6L264.1,135.9L262.7,137.6L260,139.2L258.7,139.2L257.4,137.9L254.7,139.9L254.4,140.8L254.4,140.8L254.1,140.4L254.1,138.9L255.1,138.9L255.4,135.5L254.9,133.1L256.6,132.1L259.1,132.6L260.5,129.7L261.2,126.5L262,125.4L263.1,122.6L259.7,123.5L257.9,124.7L254.8,124.7L254,121.8L251.6,119.6L248,118.6L247.2,115.5L246.5,113.5L245.8,112.1L244.5,108.7L242.7,107.4L239.6,106.4L236.9,106.5L234.4,107.1L232.7,108.8L233.8,109.6L233.9,111.5L232.7,112.5L230.9,116L230.9,117.4L228,119.4L225.6,118.2L223.1,118.5L222,117.4L220.8,117.1L217.8,119.3L215.1,119.8L213.3,120.6L210.7,120.1L208.8,120.1L207.5,118.5L205.5,117L203.5,116.5L200.9,117L199,117.6L196.1,116.2L195.7,113.8L193.3,112.9L191.4,112.6L189.1,111.2L187,114.6L187.8,116.5L185.9,118.7L182.9,117.9L180.9,117.8L179.5,116.3L177.4,116.3L175.6,115.3L172.5,116.8L168.6,119.5L166.4,120.1L165.6,120.3L164.5,118.4L161.9,118.8L161,117.5L159.6,116.9L158.6,115L157.5,114.4L154.5,115.2L151.7,113.4L150.6,115.1L146.1,106.6L143.5,103.9L144.2,102.8L139.1,106.1L137.1,106.3L137.3,104.4L134.7,103.2L132.5,104.1L131.9,100.4L128.2,99.7L126.4,101.1L121.3,102.4L120.3,103.3L112.6,104.5L111.7,105.7L113.2,108.1L111.2,108.9L111.6,109.9L109.6,111.5L112.9,113.7L112.4,115.3L109.5,115.1L109,116.1L106.3,114.4L103.1,114.5L100.9,115.9L98.5,114.5L94,112.3L90.8,112.4L86.6,115.9L86.3,118.2L84.2,116.4L82.6,119.9L83.2,120.5L82,122.9L83.7,124.9L85.3,124.9L86.6,126.9L86.4,128.4L87.4,128.9L86.5,130.6L84.5,131.1L82.5,134.1L84.3,136.8L84.1,138.7L86.3,142L85.1,143.1L84.8,143.8L83.9,143.6L82.5,141.9L81.9,141.8L80.6,141.2L80,140.1L78.1,139.5L76.8,139.9L76.5,139.4L73.7,138.1L70.7,137.6L69,137.1L68.7,137.5L66.1,135.1L63.8,134L62,132.3L63.5,131.8L65.2,129.4L64,128.2L67.1,127L67,126.3L65.2,126.8L65.2,125.5L66.3,124.6L68.3,124.4L68.6,123.4L68.1,121.7L69,120L68.9,119.1L65.9,118.1L64.7,118.1L63.5,116.6L61.9,117.1L59.3,116L59.3,115.4L58.6,114L57,113.8L56.8,112.8L57.3,112.1L56,110.2L53.9,110.6L53.3,110.4L52.8,111.1L52,111L51.5,108.9L51,107.7L51.4,107.4L53.1,107.5L53.9,106.8L53.3,105.9L51.9,105.3L52,104.6L51.2,104L49.9,101.7L50.3,100.7L50.1,99.1L48.1,98.2L47.1,98.6L46.8,97.7L44.6,96.8L44,94.6L43.8,92.8L42.8,91.9L43.7,90.7L43.1,87.1L44.5,84.8L44.2,84.1L46.5,81.9L44.4,79.9L48.8,74.5L50.7,72L51.4,69.7L48.4,66.6L49.3,63.6L47.4,60L48.8,55.8L46.4,50L48.3,46L45.2,42.4L45.5,38.4L47.1,37.9L50.6,35.6L52.7,33.5L56.1,37.1L61.7,38.4L69.4,44.7L71,47.3L71.1,50.8L68.8,53.5L65.5,54.8L56.4,51L54.9,51.6L58.2,55.3L58.3,57.6L58.5,62.6L61.1,64L62.7,65.2L63,63L61.7,60.9L63,59.1L68,62.1L69.7,60.9L68.3,57.3L73.1,52.4L75,52.7L76.9,54.5L78.1,51L76.4,47.9L77.4,44.6L75.9,41.2L81.6,43L82.7,46.1L80.2,46.7L80.2,49.7L81.8,51.4L84.9,50.3L85.4,47L89.7,44.4L96.8,39.6L98.4,39.9L96.4,43.3L98.9,43.8L100.4,42L104.2,41.8L107.2,39.5L109.6,42.8L111.9,39.1L109.7,35.8L110.8,33.8L116.8,35.6L119.7,37.4L127.1,43.9L128.4,41L126.4,38L126.3,36.7L123.8,36.2L124.5,33.4L123.4,28.6L123.4,26.6L127.1,20.8L128.5,14.7L130,13.3L135.4,15.1L135.8,18.9L133.9,24.2L135.2,26.3L135.8,30.6L135.4,38.7L137.6,42.1L136.7,45.8L132.7,53.2L135.1,54L135.9,52.1L138.1,50.8L138.7,48.2L140.5,45.7L139.3,42.6L140.2,38.9L138,38.4L137.5,35.2L139.1,29.1L136.5,24L140.1,19.6L139.6,14.7L140.7,14.6L141.7,18.4L140.9,24.7L143.1,25.9L142.2,21.2L145.6,18.6L149.9,18.2L153.6,22L151.8,16.5L151.6,9L155.2,7.5L160.1,7.8L164.5,6.9L162.9,2.9L164.2,0L215.7,0ZM355,23.5L355.3,23.3L357,23.3L360,25.1L359.8,26L357.7,27.5L355,27.9L352.8,28.2L352.4,26.2ZM55.4,130.2L55.9,129.4L57.4,130.1L58,130.2L58.3,130.8L58.6,130.8L58.6,131.1L59.6,131.8L61.7,131.6L61.3,132.7L59.1,133.2L56.3,134.8L55.2,134.2L55.6,132.9L53.4,132L53.7,131.5L55.7,130.5Z" fill="#2c2c34" stroke="#474751" stroke-width="0.8"/><path d="M0,70.2L4.5,67L8.5,62.2L12.3,55.4L17.2,45.4L20.6,41.3L26.2,34L30.7,31.4L34.1,31.7L37.2,26.6L40.9,26.9L44.6,25.7L51,30.2L48.4,31.8L50.6,35.6L50.6,35.6L47.1,37.9L45.5,38.4L46.3,34.3L43.7,32L40.5,34L39.5,38.3L37.6,40.8L35.4,39.4L32.7,39.7L30.5,36.7L29.2,38.2L28,38.4L27.7,42.1L23.8,41.2L23.3,44.3L21.3,44.3L19.9,48.1L17.9,53.9L14.7,60.8L15.5,62.4L14.8,64.3L12.7,64.2L11.4,68.5L11.5,74.4L12.8,76.6L12.2,81.5L10.5,84.3L9.6,86.6L8.2,84.1L4.2,88.7L1.4,89.6L0,88.6L0,70.2Z" fill="#2c2c34" stroke="#474751" stroke-width="0.8"/><path d="M242.5,254.5L242.7,254L244.5,253.5L245.9,253.5L246.6,253.2L247.3,253.5L246.6,254L244.5,254.9L242.7,255.5L242.7,254.9Z" fill="#2c2c34" stroke="#474751" stroke-width="0.8"/><path d="M21.8,300L20.4,297.2L20.4,297.2L21.4,296.1L22.2,296.7L22.6,297.7L23.5,297.9L24.8,298.3L25.9,298.2L27.7,297L27.7,288.5L28.2,288.9L29.5,291L29.3,292.4L29.7,293.2L31.2,293L32.2,291.9L33.2,291.3L33.7,290.2L34.7,289.7L35.5,289.9L36.5,290.6L38.2,290.7L39.5,290.1L39.7,289.4L40,288.4L41.2,288.2L41.8,287.3L42.5,285.8L44.3,284.2L47.2,282.6L48,282.6L49,283L49.7,282.7L50.8,282.9L51.8,286L52.3,287.6L51.9,290.1L52.1,291L51.1,290.5L50.5,290.7L50.3,291.4L49.7,292.2L49.7,293L51,294.2L52.2,294L52.6,293L54.1,293L53.6,294.7L53.4,296.6L52.9,297.6L51.5,298.8L51.1,299.2L50.5,300L46.3,300L46.3,300L46.3,300L47,298.8L46.3,298.1L46.3,298.1L45.4,297.4L44.4,297.9L43.3,298.8L42.4,300L21.8,300Z" fill="#2c2c34" stroke="#474751" stroke-width="0.8"/><path d="M42.4,300L43.3,298.8L44.4,297.9L45.4,297.4L46.3,298.1L46.3,298.1L47,298.8L46.3,300L46.3,300L42.4,300Z" fill="#2c2c34" stroke="#474751" stroke-width="0.8"/><path d="M0,119.8L0.6,120.4L3.6,120.9L2.5,123.1L2.3,125.2L1.7,125.8L0.8,125.5L0.9,126.2L0,127.2L0,119.8ZM0,129L0.3,128.8L1,130.1L0.9,130.9L1.5,132L0.8,132.9L1.3,135.1L2.5,135.5L2.2,136.7L0.4,138.3L0,138.2L0,129ZM4.9,139.7L6.2,138.6L6.6,141L5.9,143.1L5,142.6L4.5,140.7Z" fill="#2c2c34" stroke="#474751" stroke-width="0.8"/><path d="M50.8,282.9L49.7,282.7L49,283L48,282.6L47.2,282.6L45.9,281.6L44.3,281.2L43.7,279.8L43.7,279.1L42.8,278.8L40.5,276.4L39.9,275.2L39.5,274.8L38.7,273.1L41,273.3L41.6,273.6L42.3,273.5L43.4,272.1L45.2,270.4L46,270.2L46.2,269.5L47.4,268.6L48.9,268.3L49,269.1L50.7,269.1L51.7,269.5L52.1,270.1L53.1,270.2L54.2,270.9L54.2,273.6L53.8,275.1L53.7,276.7L54,277.4L53.8,278.6L53.5,278.8L52.9,280.4Z" fill="#2c2c34" stroke="#474751" stroke-width="0.8"/><path d="M47.2,282.6L44.3,284.2L42.5,285.8L41.8,287.3L41.2,288.2L40,288.4L39.7,289.4L39.5,290.1L38.2,290.7L36.5,290.6L35.5,289.9L34.7,289.7L33.7,290.2L33.2,291.3L32.2,291.9L31.2,293L29.7,293.2L29.3,292.4L29.5,291L28.2,288.9L27.7,288.5L27.7,282L29.7,281.9L29.8,274.2L31.3,274.1L34.4,273.4L35.2,274.3L36.5,273.4L37.1,273.4L38.3,272.9L38.7,273.1L39.5,274.8L39.9,275.2L40.5,276.4L42.8,278.8L43.7,279.1L43.7,279.8L44.3,281.2L45.9,281.6Z" fill="#2c2c34" stroke="#474751" stroke-width="0.8"/><path d="M27.7,288.5L27.7,297L25.9,298.2L24.8,298.3L23.5,297.9L22.6,297.7L22.2,296.7L21.4,296.1L20.4,297.2L18.9,295.5L18.1,293.8L17.7,291.6L17.2,289.9L16.5,286.5L16.4,283.8L16.2,282.6L15.4,281.7L14.3,279.9L13.2,277.3L12.8,275.9L11.1,273.8L11,272.2L12,271.7L13.2,271.4L14.5,271.4L15.8,272.4L16.1,272.3L24.4,272.2L25.8,273.2L30.7,273.5L34.5,272.6L36.2,272.1L37.5,272.3L38.3,272.7L38.3,272.9L37.1,273.4L36.5,273.4L35.2,274.3L34.4,273.4L31.3,274.1L29.8,274.2L29.7,281.9L27.7,282Z" fill="#2c2c34" stroke="#474751" stroke-width="0.8"/><path d="M0,194.4L4.5,191.1L11.6,186.8L14.8,187.8L15.9,189L17.4,188.2L17.4,188.2L17.9,191.6L18.6,192.2L18.7,192.9L19.5,193.6L19.1,194.6L18.3,199L18.2,201.8L15.6,203.8L14.7,206.5L15.5,207.3L15.5,208.7L16.9,208.7L16.7,209.7L16.1,209.8L16,210.5L15.6,210.6L14.2,208.3L13.8,208.2L12.2,209.3L10.6,208.7L9.5,208.6L8.9,208.9L7.7,208.8L6.5,209.7L5.4,209.8L3,208.7L2,209.2L1,209.2L0.2,208.4L0,208.3L0,194.4Z" fill="#2c2c34" stroke="#474751" stroke-width="0.8"/><path d="M0,208.3L0.2,208.4L1,209.2L2,209.2L3,208.7L5.4,209.8L6.5,209.7L7.7,208.8L8.9,208.9L9.5,208.6L10.6,208.7L12.2,209.3L13.8,208.2L14.2,208.3L15.6,210.6L16,210.5L16.8,211.3L16.6,211.7L16.5,212.4L14.8,214L14.2,215.3L13.9,216.4L13.5,216.9L13.1,218.3L12,219.2L11.7,220.2L11.2,221.1L11,221.9L9.6,222.6L8.5,221.8L7.7,221.8L6.5,223L5.9,223L4.9,225L4.4,226.5L2.3,227.2L1.5,227.1L0.7,227.6L0,227.5L0,208.3Z" fill="#2c2c34" stroke="#474751" stroke-width="0.8"/><path d="M16.7,209.7L17.5,211.1L17.6,212.4L17.5,213.8L18.6,215.7L17.5,215.7L16.9,215.8L16,215.6L15.5,216.6L16.8,217.8L17.6,218.2L17.9,219L18.6,220.5L18.3,221L17.2,223.1L16.7,223.5L16.6,225.1L16.8,225.9L16.6,226.5L17.6,227.6L17.8,228.4L18.5,229.4L19.4,230.1L19.5,231L19.7,231.6L19.6,232.7L18,232.2L16.3,231.7L13.8,231.6L13.5,231.5L12.3,231.7L11,231.5L10.1,231.6L6.7,231.6L7,229.9L6.2,228.6L5.3,228.2L4.9,227.3L4.4,227L4.4,226.5L4.9,225L5.9,223L6.5,223L7.7,221.8L8.5,221.8L9.6,222.6L11,221.9L11.2,221.1L11.7,220.2L12,219.2L13.1,218.3L13.5,216.9L13.9,216.4L14.2,215.3L14.8,214L16.5,212.4L16.6,211.7L16.8,211.3L16,210.5L16.1,209.8Z" fill="#2c2c34" stroke="#474751" stroke-width="0.8"/><path d="M43,225.5L42.3,225.7L41,225.7L39.5,225.5L38.7,225.6L38.4,226.1L37.7,226.2L36.9,225.8L34.6,226.8L33.7,226.6L33.4,226.7L32.8,228L31.3,227.6L29.8,227.4L28.5,226.6L26.8,225.9L25.7,226.6L24.9,227.6L24.7,229.1L23.4,228.9L22,228.6L20.8,229.7L19.7,231.6L19.5,231L19.4,230.1L18.5,229.4L17.8,228.4L17.6,227.6L16.6,226.5L16.8,225.9L16.6,225.1L16.7,223.5L17.2,223.1L18.3,221L19.9,220.9L20.3,220.3L20.7,220.4L21.2,220.8L23.7,220L24.6,219.2L25.7,218.5L25.5,217.8L26.1,217.6L28,217.7L30,216.8L31.4,214.5L32.5,213.7L33.8,213.3L34,214.2L35.2,215.5L35.2,216.3L34.8,217.2L35,217.9L35.7,218.4L37.2,219.3L38.4,220.2L38.4,220.9L39.8,221.9L40.6,222.8L41.1,224.1L42.7,224.9Z" fill="#2c2c34" stroke="#474751" stroke-width="0.8"/><path d="M24.7,229.1L24.6,230.3L24,231.4L23.6,232.7L23.4,234.5L23.5,235.6L23.1,236.4L23.1,237.1L22.8,237.8L21.5,238.7L20.6,239.8L19.7,241.8L19.7,243.5L19.2,244.1L18,245.1L16.8,246.4L16.1,246L15.9,245.5L14.8,245.4L14.1,246.2L13.6,246L12.8,245.3L12.2,245.7L11.4,246.5L9.7,244.4L11.3,243.2L10.5,241.9L11.2,241.4L12.6,241.1L12.7,240.2L13.8,241.2L15.6,241.3L16.2,240.3L16.5,239L16.3,237.4L15.3,236.2L16.2,233.8L15.7,233.4L14.2,233.5L13.6,232.5L13.8,231.6L16.3,231.7L18,232.2L19.6,232.7L19.7,231.6L20.8,229.7L22,228.6L23.4,228.9Z" fill="#2c2c34" stroke="#474751" stroke-width="0.8"/><path d="M10.1,231.6L11,231.5L12.3,231.7L13.5,231.5L13.8,231.6L13.6,232.5L14.2,233.5L15.7,233.4L16.2,233.8L15.3,236.2L16.3,237.4L16.5,239L16.2,240.3L15.6,241.3L13.8,241.2L12.7,240.2L12.6,241.1L11.2,241.4L10.5,241.9L11.3,243.2L9.7,244.4L7.6,242.3L6.2,240.6L5,238.5L5.1,237.8L5.5,237.2L6,235.7L6.4,234.2L7.1,234L10.1,234.1Z" fill="#2c2c34" stroke="#474751" stroke-width="0.8"/><path d="M6.7,231.6L10.1,231.6L10.1,234.1L7.1,234L6.4,234.2L6,233.9Z" fill="#2c2c34" stroke="#474751" stroke-width="0.8"/><path d="M49.9,253.3L50.7,253.9L51.5,254.2L52.8,254.6L54,255.2L55,256.1L55.5,257.9L55.1,258.4L54.7,260.1L55.1,261.9L54.5,262.6L53.8,264.5L54.9,265.1L48.7,266.8L48.9,268.3L47.4,268.6L46.2,269.5L46,270.2L45.2,270.4L43.4,272.1L42.3,273.5L41.6,273.6L41,273.3L38.7,273.1L38.3,272.9L38.3,272.7L37.5,272.3L36.2,272.1L34.5,272.6L33.1,271.3L31.8,269.5L31.9,262.8L36.1,262.9L35.9,262.1L36.2,261.3L35.9,260.4L36.1,259.4L35.9,258.7L36.6,258.8L36.7,259.4L37.7,259.4L39,259.5L39.7,260.5L41.3,260.8L42.6,260.1L43,261.2L44.6,261.5L45.3,262.4L46.2,263.6L47.7,263.6L47.6,261.3L47,261.7L45.6,260.9L45,260.5L45.3,258.4L45.6,256L45.2,255L45.8,253.7L46.3,253.5L49.1,253.1Z" fill="#2c2c34" stroke="#474751" stroke-width="0.8"/><path d="M54,255.2L56,255.6L56.4,256.1L57.1,257.1L57.7,259.9L57.1,261.5L57.7,264.3L58.4,264.2L59.1,264.9L60,266.4L60.1,269.2L59.3,269.6L58.6,271.1L57.3,269.8L57.2,268.3L57.6,267.3L57.5,266.4L56.7,265.9L56.1,266.1L54.9,265.1L53.8,264.5L54.5,262.6L55.1,261.9L54.7,260.1L55.1,258.4L55.5,257.9L55,256.1Z" fill="#2c2c34" stroke="#474751" stroke-width="0.8"/><path d="M57.7,259.9L59.2,259.8L61.7,260.4L62.2,260.1L63.6,260L64.4,259.4L65.6,259.5L67.8,258.6L69.4,257.4L69.8,258.4L69.7,260.4L69.9,262.3L70,265.6L70.4,266.6L69.8,268.1L69,269.6L67.7,270.9L65.8,271.7L63.5,272.8L61.2,275.1L60.4,275.5L59,277L58.1,277.5L58,279.1L58.9,280.7L59.3,282L59.4,282.7L59.7,282.6L59.7,284.7L59.3,285.8L59.8,286.1L59.5,287.1L58.7,287.9L57,288.6L54.5,289.9L53.6,290.7L53.8,291.6L54.3,291.8L54.1,293L52.6,293L52.4,292L52.1,291L51.9,290.1L52.3,287.6L51.8,286L50.8,282.9L52.9,280.4L53.5,278.8L53.8,278.6L54,277.4L53.7,276.7L53.8,275.1L54.2,273.6L54.2,270.9L53.1,270.2L52.1,270.1L51.7,269.5L50.7,269.1L49,269.1L48.9,268.3L48.7,266.8L54.9,265.1L56.1,266.1L56.7,265.9L57.5,266.4L57.6,267.3L57.2,268.3L57.3,269.8L58.6,271.1L59.3,269.6L60.1,269.2L60,266.4L59.1,264.9L58.4,264.2L57.7,264.3L57.1,261.5Z" fill="#2c2c34" stroke="#474751" stroke-width="0.8"/><path d="M52.6,293L52.2,294L51,294.2L49.7,293L49.7,292.2L50.3,291.4L50.5,290.7L51.1,290.5L52.1,291L52.4,292Z" fill="#2c2c34" stroke="#474751" stroke-width="0.8"/><path d="M13.6,246L12.8,246.4L12.5,247L12.4,247.9L11.9,248.1L11.4,246.5L12.2,245.7L12.8,245.3ZM12.2,248.7L13.1,248.5L13.6,248.5L14.4,248.2L20.4,248.3L20.9,249.8L21.5,251L22,251.7L22.7,252.8L24.1,252.6L24.8,252.3L25.9,252.6L26.2,252.1L26.7,250.9L28,250.8L28.1,250.5L29.1,250.5L29,251.2L31.4,251.2L31.5,252.5L31.9,253.3L31.6,254.5L31.7,255.8L32.4,256.6L32.3,259L32.8,258.8L33.7,258.9L35,258.6L35.9,258.7L36.1,259.4L35.9,260.4L36.2,261.3L35.9,262.1L36.1,262.9L31.9,262.8L31.8,269.5L33.1,271.3L34.5,272.6L30.7,273.5L25.8,273.2L24.4,272.2L16.1,272.3L15.8,272.4L14.5,271.4L13.2,271.4L12,271.7L11,272.2L10.8,270.8L11.1,268.9L11.8,267L11.9,266.1L12.6,264.2L13.1,263.3L14.2,262L14.9,261L15.1,259.5L15,258.3L14.4,257.6L13.8,256.3L13.3,255.1L13.4,254.6L14.1,253.8L13.5,251.8L13,250.4L12,249.1Z" fill="#2c2c34" stroke="#474751" stroke-width="0.8"/><path d="M49.3,241.2L49.4,242L49.9,242.4L49.9,243.1L49.4,243.5L48.6,244.6L47.8,245.3L47,245.4L46.9,243L46.4,242L47.6,242.2L48.2,241Z" fill="#2c2c34" stroke="#474751" stroke-width="0.8"/><path d="M60,165.4L59.7,166.2L58.9,165.8L58.5,167.4L59,167.7L58.5,168L58.4,168.7L59.4,168.3L59.4,169.3L58.4,173.1L58.2,172.5L57.1,169L57.7,168.2L57.5,168.1L58.1,166.9L58.5,165.1L58.8,164.5L58.8,164.5L59.5,164.5L59.7,164L60.3,164L60.3,165L60,165.4Z" fill="#2c2c34" stroke="#474751" stroke-width="0.8"/><path d="M60.3,164L59.7,164L59.5,164.5L58.8,164.5L59.6,162.5L60.6,160.7L60.6,160.6L61.5,160.8L61.9,161.7L60.8,162.7Z" fill="#2c2c34" stroke="#474751" stroke-width="0.8"/><path d="M88.3,261.9L88.8,262.8L89.4,264.2L89.7,266.7L90.2,267.7L90,268.8L89.6,269.4L89,268.1L88.6,268.8L89,270.3L88.8,271.2L88.2,271.7L88.1,273.5L87.3,276.1L86.3,279.1L85,283.2L84.2,286.3L83.3,288.9L81.6,289.4L79.9,290.4L78.7,289.8L77.1,289L76.5,287.8L76.4,285.8L75.6,284.1L75.4,282.5L75.8,280.9L76.8,280.5L76.8,279.8L77.7,278.1L77.9,276.7L77.4,275.7L77.1,274.4L76.9,272.4L77.6,271.2L77.9,269.8L78.9,269.8L80,269.3L80.8,268.9L81.7,268.9L82.9,267.7L84.5,266.4L85.2,265.3L84.9,264.4L85.7,264.7L86.9,263.2L86.9,262L87.6,261Z" fill="#2c2c34" stroke="#474751" stroke-width="0.8"/><path d="M59.4,168.3L58.4,168.7L58.5,168L59,167.7L58.5,167.4L58.9,165.8L59.7,166.2L59.7,167.6Z" fill="#2c2c34" stroke="#474751" stroke-width="0.8"/><path d="M6.4,171.2L5.5,166.9L4.3,165.9L4.3,165.3L2.6,163.9L2.4,162L3.7,160.6L4.1,158.6L3.8,156.2L4.2,154.8L6.5,153.8L7.9,154.1L7.8,155.4L9.6,154.5L9.7,155L8.7,156.2L8.7,157.4L9.4,158L9.1,160.2L7.8,161.4L8.2,162.8L9.2,162.8L9.7,164L10.5,164.4L10.4,166.2L9.4,166.9L8.8,167.7L7.4,168.6L7.6,169.6L7.4,170.6Z" fill="#2c2c34" stroke="#474751" stroke-width="0.8"/><path d="M0,154.4L2,154.4L2.8,155L4.2,154.8L3.8,156.2L4.1,158.6L3.7,160.6L2.4,162L2.6,163.9L4.3,165.3L4.3,165.9L5.5,166.9L6.4,171.2L7.1,173.2L7.2,174.3L6.8,176.2L7,177.3L6.7,178.5L6.9,180L6.1,180.9L7.3,182.6L7.4,183.6L8.1,184.8L9,184.4L10.7,185.4L11.6,186.8L4.5,191.1L0,194.4L0,154.4Z" fill="#2c2c34" stroke="#474751" stroke-width="0.8"/><path d="M59.7,166.2L60,165.4L62.3,166.4L66.3,163.8L67.1,166.7L66.8,167.1L62.7,168.3L64.7,170.7L64,171.1L63.7,171.9L62.1,172.2L61.6,173.1L60.8,173.8L58.5,173.4L58.4,173.1L59.4,169.3L59.4,168.3L59.7,167.6Z" fill="#2c2c34" stroke="#474751" stroke-width="0.8"/><path d="M92.5,185.1L92.8,185L92.9,185.6L94.5,185.3L96.2,185.3L97.4,185.4L98.8,183.9L100.4,182.4L101.7,181L102,181.8L102.3,183.6L101.3,183.6L101.1,185.1L101.5,185.4L100.5,185.8L100.5,186.7L99.9,187.6L99.9,188.5L99.5,189L93.3,187.9L92.5,185.6Z" fill="#2c2c34" stroke="#474751" stroke-width="0.8"/><path d="M90.9,184L90.8,182.3L91.3,181.1L91.9,180.9L92.5,181.6L92.5,182.9L92.1,184.3L91.5,184.4Z" fill="#2c2c34" stroke="#474751" stroke-width="0.8"/><path d="M85.1,171.9L85.5,173L85.3,173.5L86,175.3L84.6,175.3L84,174.2L82.2,174L83.7,171.8Z" fill="#2c2c34" stroke="#474751" stroke-width="0.8"/><path d="M67.1,166.7L66.3,163.8L70.8,161.2L71.6,158.2L71.4,156.3L72.5,155.7L73.6,154.1L74.5,153.7L76.9,154.1L77.6,154.7L78.5,154.3L79.9,157.3L81.2,158.1L81.4,159.5L80.3,160.4L79.9,162.3L81.3,164.7L83.8,166L84.8,167.8L84.5,169.6L85.2,169.6L85.2,170.8L86.3,172.1L85.1,171.9L83.7,171.8L82.2,174L78.4,173.8L72.7,169.1L69.6,167.4Z" fill="#2c2c34" stroke="#474751" stroke-width="0.8"/><path d="M99.9,188.5L99.9,187.6L100.5,186.7L100.5,185.8L101.5,185.4L101.1,185.1L101.3,183.6L102.3,183.6L103.2,185.1L104.4,185.9L105.9,186.2L107.1,186.6L108,187.9L108.6,188.6L109.3,188.9L109.3,189.4L108.5,190.7L108.2,191.4L107.4,192.1L106.6,193.6L105.7,193.4L105.2,194L104.9,195.1L105.2,196.5L105,196.8L104,196.8L102.7,197.6L102.5,198.6L102.1,199.1L100.8,199.1L100,199.6L100,200.5L99,201.1L97.9,200.9L96.5,201.6L95.6,201.7L94.9,200.2L93.3,196.7L99.5,194.5L100.8,190.1ZM102,181.8L101.7,181L102.2,180.3L102.5,180.4L102.3,181.4Z" fill="#2c2c34" stroke="#474751" stroke-width="0.8"/><path d="M328.9,269.1L330.2,270.4L329.5,270.7L328.8,269.7ZM328,268.7L327.7,268.1L327.7,266.5L328.7,267.1L329,268.8L328.4,268.6Z" fill="#2c2c34" stroke="#474751" stroke-width="0.8"/><path d="M196.7,211.1L196.3,208.6L197.6,206.8L200.2,206.4L202.1,206.7L203.8,207.6L204.7,206.1L206.6,206.9L207,208.3L206.8,210.8L203.3,212.4L204.2,213.7L202.1,213.8L200.3,214.7L198.6,214.4L197.8,213.3Z" fill="#2c2c34" stroke="#474751" stroke-width="0.8"/><path d="M202.1,206.7L200.2,206.4L197.6,206.8L196.3,208.6L196.7,211.1L194.9,210.2L193.2,210.2L193.5,208.6L191.7,208.6L191.5,210.9L190.4,213.9L189.7,215.8L189.9,217.3L191.2,217.3L192,219.2L192.4,221L193.5,222.2L194.8,222.4L195.8,223.5L195.2,224.3L193.8,224.6L193.7,223.5L192,222.6L191.6,223L190.8,222.2L190.5,221.2L189.4,220L188.4,219L188.1,220.2L187.7,219.1L187.9,217.8L188.5,215.8L189.5,213.7L190.6,211.7L189.8,209.8L189.8,208.9L189.6,207.7L188.2,206L187.8,204.9L188.5,204.6L189.2,202.7L188.4,201.3L187.1,199.7L186.1,197.9L187,197.5L187.9,195.1L189.3,195L190.5,194.1L191.7,193.6L192.6,194.2L192.7,195.6L194.1,195.7L193.6,197.9L193.6,199.9L195.8,198.6L196.4,199L197.6,198.9L198,198.1L199.5,198.3L201.1,200L201.2,202.1L202.9,204L202.8,205.8Z" fill="#2c2c34" stroke="#474751" stroke-width="0.8"/><path d="M206.6,206.9L204.7,206.1L203.8,207.6L202.1,206.7L202.8,205.8L202.9,204L201.2,202.1L201.1,200L199.5,198.3L198,198.1L197.6,198.9L196.4,199L195.8,198.6L193.6,199.9L193.6,197.9L194.1,195.7L192.7,195.6L192.6,194.2L191.7,193.6L192.1,192.8L193.9,191.3L194.1,191.9L195.1,191.9L194.8,189.4L195.9,189.1L197.1,190.8L198,192.8L200.5,192.8L201.3,194.7L200,195.3L199.4,196.1L201.9,197.4L203.6,199.9L204.9,201.8L206.4,203.3L206.9,204.8Z" fill="#2c2c34" stroke="#474751" stroke-width="0.8"/><path d="M191.7,193.6L190.5,194.1L189.3,195L187.9,195.1L187,197.5L186.1,197.9L187.1,199.7L188.4,201.3L189.2,202.7L188.5,204.6L187.8,204.9L188.2,206L189.6,207.7L189.8,208.9L189.8,209.8L190.6,211.7L189.5,213.7L188.5,215.8L188.3,214.3L188.9,212.7L188.2,211.4L188.4,209.2L187.6,208.1L186.9,205.6L186.5,202.9L185.7,201.1L184.3,202.2L182,203.7L180.8,203.5L179.6,203L180.3,200.4L179.9,198.4L178.3,195.9L178.5,195.1L177.3,194.8L175.9,193L175.7,191.3L176.4,191.6L176.5,190L177.5,189.5L177.3,188.6L177.7,187.8L177.8,185.5L179.4,186L180.3,184.2L180.4,183.1L181.5,181.1L181.5,179.8L184.1,178.3L185.6,178.7L185.4,177.3L186.1,176.8L186,176L187.2,175.8L187.9,177.2L188.8,177.7L188.8,179.5L188.7,181.3L186.8,183.2L186.6,185.9L188.7,185.5L189.2,187.6L190.5,188L189.9,189.8L191.4,190.7L192.3,191.1L193.8,190.4L193.9,191.3L192.1,192.8Z" fill="#2c2c34" stroke="#474751" stroke-width="0.8"/><path d="M200.3,214.7L202.1,213.8L204.2,213.7L203.3,212.4L206.8,210.8L207,208.3L206.6,206.9L206.9,204.8L206.4,203.3L204.9,201.8L203.6,199.9L201.9,197.4L199.4,196.1L200,195.3L201.3,194.7L200.5,192.8L198,192.8L197.1,190.8L195.9,189.1L197,188.5L198.6,188.6L200.6,188.3L202.3,187.1L203.3,187.9L205.2,188.4L204.9,189.6L205.9,190.5L207.9,191.1L205.2,193L203.5,195L203,196.5L204.6,198.8L206.5,201.6L208.4,202.9L209.6,204.6L210.5,208.5L210.3,212.2L208.6,213.6L206.2,214.9L204.5,216.7L202,218.6L201.3,217.3L201.8,215.9Z" fill="#2c2c34" stroke="#474751" stroke-width="0.8"/><path d="M254.4,140.8L254.4,140.8L254.4,140.8ZM254.1,140.4L254.4,140.8L253.6,140.7L252.7,141.6L252.1,142.5L252.2,144.5L251.1,145.1L250.8,145.6L250,146.4L248.6,146.8L247.7,147.5L247.7,148.7L247.4,149L248.3,149.4L249.4,150.5L249.1,151.2L248.3,151.3L246.8,151.5L246,152.6L245.1,152.5L245,152.8L244,152.3L243.7,152.8L243.1,153L243.1,152.5L242.5,152.3L242,151.8L242.5,150.7L243,150.4L242.8,149.9L243.4,148.5L243.2,148.1L242,147.8L241.1,147.1L242.7,145.3L245,143.9L246.4,142L247.4,142.8L249.1,142.9L248.8,141.5L252,140.3L252.8,138.7Z" fill="#2c2c34" stroke="#474751" stroke-width="0.8"/><path d="M245,152.8L245.1,152.5L246,152.6L246.8,151.5L248.3,151.3L249.1,151.2L249.4,150.5L251.2,153.6L251.7,155.3L251.7,158.2L250.9,159.6L249.1,160L247.4,161.1L245.6,161.3L245.4,159.9L245.7,158L244.9,155.4L246.4,155Z" fill="#2c2c34" stroke="#474751" stroke-width="0.8"/><path d="M166.4,120.1L168.6,119.5L172.5,116.8L175.6,115.3L177.4,116.3L179.5,116.3L180.9,117.8L182.9,117.9L185.9,118.7L187.8,116.5L187,114.6L189.1,111.2L191.4,112.6L193.3,112.9L195.7,113.8L196.1,116.2L199,117.6L200.9,117L203.5,116.5L205.5,117L207.5,118.5L208.8,120.1L210.7,120.1L213.3,120.6L215.1,119.8L217.8,119.3L220.8,117.1L222,117.4L223.1,118.5L225.6,118.2L224.6,120.6L223.1,123.7L223.6,124.9L224.8,124.5L226.8,125L228.4,123.9L230,124.8L231.9,127L231.7,128L230,127.7L227.1,128.1L225.6,128.9L224.1,130.9L221,132L219,133.5L216.9,133L215.7,132.7L214.7,134.6L215.3,135.7L215.6,136.6L214.2,137.5L212.7,139L210.4,140L207.3,140.1L204,141.1L201.6,142.6L200.7,141.7L198.2,141.7L195.2,140L193.2,139.6L190.5,140L186.2,139.4L184,139.4L182.8,137.8L181.9,135.2L180.6,134.9L178.1,133.1L175.4,132.7L172.9,132.2L172.2,130.9L173,127.4L171.6,125L168.7,123.9L167,122.2Z" fill="#2c2c34" stroke="#474751" stroke-width="0.8"/><path d="M186,176L186.1,176.8L185.4,177.3L185.6,178.7L184.1,178.3L181.5,179.8L181.5,181.1L180.4,183.1L180.3,184.2L179.4,186L177.8,185.5L177.7,187.8L177.3,188.6L177.5,189.5L176.5,190L175.4,186.5L174.8,186.5L174.5,187.9L173.4,186.8L174,185.5L174.9,185.4L175.9,183.5L174.7,183.1L172.8,183.1L170.8,182.8L170.7,181.2L169.7,181.1L168.1,180.1L167.4,181.7L168.8,182.9L167.6,183.7L167.1,184.5L168.4,185.1L168,186.5L168.7,188.2L169,190L168.7,190.8L167.4,190.8L164.8,191.2L164.9,192.9L163.9,194.2L160.9,195.6L158.6,198.2L157.1,199.5L155.1,200.9L155,201.9L154,202.4L152.2,203.2L151.2,203.3L150.6,204.9L151,207.7L151.2,209.4L150.3,211.4L150.3,214.9L149.2,215L148.3,216.6L148.9,217.3L147,217.9L146.4,219.3L145.5,219.9L143.6,218L142.7,215.1L141.9,213L141.2,212L140.1,210L139.6,207.3L139.2,206L137.3,203.1L136.5,199L135.9,196.2L135.9,193.6L135.5,191.5L132.5,192.8L131.1,192.6L128.4,189.9L129.4,189.1L128.8,188.2L126.4,186.4L127.8,184.9L132.3,184.9L131.8,182.9L130.7,181.8L130.5,180L129.1,179L131.4,176.6L133.8,176.8L135.9,174.3L137.2,171.9L139.2,169.6L139.1,167.9L140.9,166.5L139.2,165.3L138.5,163.6L137.8,161.5L138.8,160.4L141.9,161L144.2,160.6L146.1,158.5L148.3,161.4L148.1,163.5L149,164.7L148.9,165.9L147.4,165.6L148,168.3L150,169.8L152.8,171.5L151.5,172.5L150.7,174.7L152.7,175.6L154.7,176.7L157.3,178L160.1,178.3L161.3,179.5L162.9,179.7L165.3,180.2L167,180.2L167.3,179.3L167,177.8L167.2,176.8L168.4,176.4L168.6,178.2L168.6,178.6L170.5,179.5L171.8,179.2L173.5,179.3L175.2,179.2L175.3,177.8L174.5,177.1L176.1,176.8L178,175.1L180.3,173.6L182.1,174.2L183.5,173.2L184.5,174.6L183.8,175.6Z" fill="#2c2c34" stroke="#474751" stroke-width="0.8"/><path d="M176.5,190L176.4,191.6L175.7,191.3L175.9,193L175.3,191.9L175.2,190.8L174.8,189.7L173.9,188.4L172,188.3L172.2,189.2L171.6,190.5L170.7,190L170.4,190.4L169.8,190.2L169,190L168.7,188.2L168,186.5L168.4,185.1L167.1,184.5L167.6,183.7L168.8,182.9L167.4,181.7L168.1,180.1L169.7,181.1L170.7,181.2L170.8,182.8L172.8,183.1L174.7,183.1L175.9,183.5L174.9,185.4L174,185.5L173.4,186.8L174.5,187.9L174.8,186.5L175.4,186.5Z" fill="#2c2c34" stroke="#474751" stroke-width="0.8"/><path d="M174.5,177.1L175.3,177.8L175.2,179.2L173.5,179.3L171.8,179.2L170.5,179.5L168.6,178.6L168.6,178.2L169.9,176.5L171,175.9L172.5,176.4L173.6,176.5Z" fill="#2c2c34" stroke="#474751" stroke-width="0.8"/><path d="M167.2,176.8L167,177.8L167.3,179.3L167,180.2L165.3,180.2L162.9,179.7L161.3,179.5L160.1,178.3L157.3,178L154.7,176.7L152.7,175.6L150.7,174.7L151.5,172.5L152.8,171.5L153.7,170.9L155.3,171.6L157.4,173.2L158.5,173.5L159.2,174.6L160.8,175.1L162.5,176.1L164.8,176.6Z" fill="#2c2c34" stroke="#474751" stroke-width="0.8"/><path d="M146.1,158.5L144.2,160.6L141.9,161L138.8,160.4L137.8,161.5L138.5,163.6L139.2,165.3L140.9,166.5L139.1,167.9L139.2,169.6L137.2,171.9L135.9,174.3L133.8,176.8L131.4,176.6L129.1,179L130.5,180L130.7,181.8L131.8,182.9L132.3,184.9L127.8,184.9L126.4,186.4L124.9,185.8L124.3,184.2L122.7,182.5L118.9,182.9L115.6,182.9L112.7,183.2L113.5,180.6L116.5,179.4L116.3,178.4L115.3,178L115.3,176L113.3,174.9L112.5,173.5L111.5,172.3L114.9,173.5L116.9,173.1L118.2,173.4L118.6,172.9L120,173.1L122.7,172.2L122.7,170.1L123.9,168.8L125.4,168.8L125.6,168.1L127.2,167.8L127.9,168L128.7,167.4L128.6,165.9L129.5,164.4L130.8,163.8L130,162.2L131.9,162.3L132.5,161.4L132.4,160.4L133.4,159.4L133.2,158.1L132.7,157.1L133.9,156L136.1,155.4L138.4,155.1L139.5,154.7L140.7,154.4L142.2,155.6L142.8,157.5Z" fill="#2c2c34" stroke="#474751" stroke-width="0.8"/><path d="M123,153.8L124.1,153.8L125.7,154.3L126.3,154.6L127.8,153.8L128.5,154.3L129.1,153.1L130.4,153.2L130.7,152.8L130.9,151.8L131.8,150.9L132.9,151.5L132.7,152.3L133.3,152.4L133.1,154.5L133.9,155.4L134.6,154.8L135.5,154.6L136.8,153.4L138.2,153.6L140.3,153.6L140.7,154.4L139.5,154.7L138.4,155.1L136.1,155.4L133.9,156L132.7,157.1L133.2,158.1L133.4,159.4L132.4,160.4L132.5,161.4L131.9,162.3L130,162.2L130.8,163.8L129.5,164.4L128.6,165.9L128.7,167.4L127.9,168L127.2,167.8L125.6,168.1L125.4,168.8L123.9,168.8L122.7,170.1L122.7,172.2L120,173.1L118.6,172.9L118.2,173.4L116.9,173.1L114.9,173.5L111.5,172.3L113.3,170.1L113.2,168.6L111.6,168.2L111.4,166.7L110.8,164.7L111.7,163.4L110.8,163L111.3,161.2L112.2,158.1L114.2,159.1L115.8,158.8L116.2,157.6L117.8,157.2L119,156.5L119.4,154.4L121.1,153.9L121.4,153L122.4,153.7Z" fill="#2c2c34" stroke="#474751" stroke-width="0.8"/><path d="M125.7,154.3L126.8,151.7L126.4,149.8L124.9,149.2L125.4,148L127.1,148.1L128.1,146.6L128.8,144.9L131.5,144.3L131.1,145.5L131.4,146.3L132.2,146.2L131.5,147L129.2,146.6L129,148.1L131.2,147.9L133.8,148.8L137.6,148.4L138.2,150.8L138.8,150.6L140.1,151.1L140,152.2L140.3,153.6L138.2,153.6L136.8,153.4L135.5,154.6L134.6,154.8L133.9,155.4L133.1,154.5L133.3,152.4L132.7,152.3L132.9,151.5L131.8,150.9L130.9,151.8L130.7,152.8L130.4,153.2L129.1,153.1L128.5,154.3L127.8,153.8L126.3,154.6Z" fill="#2c2c34" stroke="#474751" stroke-width="0.8"/><path d="M132.1,140.7L132.5,139.5L133.9,139.1L137.3,140.1L137.6,138.4L138.7,137.8L141.7,139L142.4,138.7L145.8,138.8L148.8,139.1L149.8,140.1L151.1,140.5L150.8,141.1L147.6,142.6L146.9,143.7L144.2,144L143.5,145.7L141.3,145.4L139.9,145.9L137.9,147.2L138.2,147.8L137.6,148.4L133.8,148.8L131.2,147.9L129,148.1L129.2,146.6L131.5,147L132.2,146.2L133.8,146.5L136.4,144.5L133.9,143.1L132.5,143.8L131,142.8L132.7,141Z" fill="#2c2c34" stroke="#474751" stroke-width="0.8"/><path d="M94.3,142L95.3,141.1L97.6,140.6L99,141.3L100.4,143.5L101.4,143.3L103.7,143.3L103.4,141.9L105.2,141L106.9,139.4L109.6,140.8L109.8,143L110.6,143.6L112.8,143.5L113.5,144L114.5,146.7L116.9,148.6L118.2,149.8L120.3,151.1L123.1,152.2L123,153.8L122.4,153.7L121.4,153L121.1,153.9L119.4,154.4L119,156.5L117.8,157.2L116.2,157.6L115.8,158.8L114.2,159.1L112.2,158.1L112,156L110.5,155.9L108.1,153.6L106.5,153.4L104.2,152.1L102.8,151.8L101.9,152.3L100.5,152.2L99.1,153.7L97.3,154.2L96.9,152.4L97.2,149.6L95.6,148.8L96.1,146.9L94.7,146.8L95.2,144.5L97.1,145.2L98.9,144.3L97.4,142.7L96.8,141.1L95.2,141.8L95,143.8Z" fill="#2c2c34" stroke="#474751" stroke-width="0.8"/><path d="M86.3,172.1L85.2,170.8L85.2,169.6L84.5,169.6L84.8,167.8L83.8,166L81.3,164.7L79.9,162.3L80.3,160.4L81.4,159.5L81.2,158.1L79.9,157.3L78.5,154.3L77.4,152.2L77.8,151.4L77.2,148.4L78.6,147.6L78.9,148.6L80,149.9L81.4,150.2L82.1,150.1L84.5,148.2L85.3,148L85.9,148.8L85.2,150.1L86.4,151.4L87,151.3L87.6,153.2L89.5,153.7L91,155L93.9,155.5L97.1,154.8L97.3,154.2L99.1,153.7L100.5,152.2L101.9,152.3L102.8,151.8L104.2,152.1L106.5,153.4L108.1,153.6L110.5,155.9L112,156L112.2,158.1L111.3,161.2L110.8,163L111.7,163.4L110.8,164.7L111.4,166.7L111.6,168.2L113.2,168.6L113.3,170.1L111.5,172.3L112.5,173.5L113.3,174.9L115.3,176L115.3,178L116.3,178.4L116.5,179.4L113.5,180.6L112.7,183.2L108.9,182.6L106.7,182L104.4,181.7L103.5,178.9L102.5,178.5L100.9,179L98.9,180.1L96.4,179.3L94.3,177.5L92.3,176.9L91,174.7L89.5,171.5L88.4,171.9L87.1,171.1Z" fill="#2c2c34" stroke="#474751" stroke-width="0.8"/><path d="M60,165.4L60,165.4L60.3,165L60.3,164L60.8,162.7L61.9,161.7L61.5,160.8L60.6,160.6L60.4,158.7L60.9,157.7L61.5,157.1L62,156.6L62.1,155.2L62.8,155.7L65,155L66.1,155.4L67.8,155.4L70.2,154.5L71.3,154.5L73.6,154.1L72.5,155.7L71.4,156.3L71.6,158.2L70.8,161.2L66.3,163.8L62.3,166.4Z" fill="#2c2c34" stroke="#474751" stroke-width="0.8"/><path d="M82.1,150.1L81.4,150.2L80.5,148.7L80.5,148.3L79.6,148.3L79,147.6L78.6,147.6L77.8,146.9L76.3,146.2L76.5,144.9L76.1,143.9L79,143.5L79.4,144.2L80.2,144.7L79.7,145.4L80.8,146.3L80.3,147.1L81.1,147.9L82,148.3Z" fill="#2c2c34" stroke="#474751" stroke-width="0.8"/><path d="M9.6,86.6L10.5,84.3L12.2,81.5L12.8,76.6L11.5,74.4L11.4,68.5L12.7,64.2L14.8,64.3L15.5,62.4L14.7,60.8L17.9,53.9L19.9,48.1L21.3,44.3L23.3,44.3L23.8,41.2L27.7,42.1L28,38.4L29.2,38.2L32,41L35.1,44.7L35.2,52.8L35.9,54.8L32.4,56.2L30.4,59.7L30.7,62.6L27.5,66.3L23.5,70.2L22,76.4L23.5,79.3L25.4,81.6L23.5,86.2L21.4,87.1L20.6,93.6L19.5,97L17,96.7L15.8,99.6L13.5,99.7L12.8,96.3L11.1,92Z" fill="#2c2c34" stroke="#474751" stroke-width="0.8"/><path d="M44.6,96.8L46.8,97.7L47.1,98.6L48.1,98.2L50.1,99.1L50.3,100.7L49.9,101.7L51.2,104L52,104.6L51.9,105.3L53.3,105.9L53.9,106.8L53.1,107.5L51.4,107.4L51,107.7L51.5,108.9L52,111L50.2,111.2L49.6,111.9L49.5,113.6L48.7,113.3L46.8,113.4L46.3,112.7L45.5,113.2L44.8,112.8L43.1,112.7L40.9,111.9L38.8,111.6L37.2,111.7L36.1,112.6L35.1,112.7L35.1,111.3L34.4,109.7L35.7,109L35.7,107.7L35.1,106.4L35,104.9L37,104.9L39.2,103.6L39.7,101.6L41.4,100.4L41.2,98.8L42.4,98.2Z" fill="#2c2c34" stroke="#474751" stroke-width="0.8"/><path d="M52,111L52.8,111.1L53.3,110.4L53.9,110.6L56,110.2L57.3,112.1L56.8,112.8L57,113.8L58.6,114L59.3,115.4L59.3,116L61.9,117.1L63.5,116.6L64.7,118.1L65.9,118.1L68.9,119.1L69,120L68.1,121.7L68.6,123.4L68.3,124.4L66.3,124.6L65.2,125.5L65.2,126.8L63.5,127L62.2,128L60.3,128.2L58.5,129.3L58.6,130.8L58.3,130.8L58,130.2L57.4,130.1L55.9,129.4L55.4,130.2L55.1,129.8L51.9,129.1L51.8,128L49.9,128.4L49.1,130L47.5,132.1L46.6,131.6L45.6,132.1L44.7,131.6L45.3,131.3L45.6,130.3L46.2,129.3L46,128.8L46.5,128.5L46.7,129L47.9,129L48.4,128.8L48,128.5L48.2,128.1L47.4,127.3L47.2,126.1L46.4,125.6L46.6,124.5L45.6,123.7L44.8,123.6L43.3,122.6L41.9,122.9L41.4,123.4L40.6,123.4L40.1,124.1L38.6,124.4L37.9,124.9L36.9,124.1L35.6,124.1L34.3,123.8L33.4,124.4L33.3,123.6L32.2,122.8L32.6,121.5L33.1,120.7L33.6,120.9L33.1,119.5L34.9,116.9L35.9,116.5L36.1,115.6L35.1,112.7L36.1,112.6L37.2,111.7L38.8,111.6L40.9,111.9L43.1,112.7L44.8,112.8L45.5,113.2L46.3,112.7L46.8,113.4L48.7,113.3L49.5,113.6L49.6,111.9L50.2,111.2Z" fill="#2c2c34" stroke="#474751" stroke-width="0.8"/><path d="M35,104.9L35.1,106.4L35.7,107.7L35.7,109L34.4,109.7L35.1,111.3L35.1,112.7L36.1,115.6L35.9,116.5L34.9,116.9L33.1,119.5L33.6,120.9L33.1,120.7L31.2,119.5L29.7,120L28.8,119.6L27.5,120.3L26.5,119.2L25.7,119.6L25.6,119.4L24.6,117.9L23.1,117.7L22.9,116.7L21.5,116.3L21.2,117.2L20.1,116.5L20.2,115.6L18.7,115.3L17.7,114.3L16.9,112.2L17,111L16.5,109.3L15.8,108.1L16.4,107.1L15.9,105.4L17.3,104.4L20.5,102.8L23,101.6L25.1,102.2L25.2,103L27.2,103.1L29.7,103.5L33.5,103.4L34.5,103.8Z" fill="#2c2c34" stroke="#474751" stroke-width="0.8"/><path d="M21.7,123.7L21.6,124.9L20.4,125L20.8,125.6L20.1,127.5L19.7,128.1L18,128.1L16.9,128.8L15.2,128.6L12.3,127.8L11.9,126.8L9.8,127.3L9.6,127.9L8.4,127.4L7.3,127.3L6.4,126.8L6.7,126.1L6.6,125.5L7.2,125.4L8.3,126.2L8.6,125.4L10.4,125.5L11.8,125L12.8,125.1L13.5,125.7L13.6,125.2L13.4,123.2L14.1,122.8L14.8,121.4L16.3,122.4L17.5,121.1L18.2,120.9L19.8,121.8L20.8,121.7L21.7,122.2L21.5,122.6Z" fill="#2c2c34" stroke="#474751" stroke-width="0.8"/><path d="M32.2,122.8L33.3,123.6L33.4,124.4L32.2,125.1L31.2,127.1L30,129.1L28.4,129.7L27.1,129.6L25.5,130.3L24.7,130.8L23.1,130.2L21.5,129L20.9,128.6L20.5,127.6L20.1,127.5L20.8,125.6L20.4,125L21.6,124.9L21.7,123.7L22.8,124.5L23.5,124.8L25.2,124.4L25.4,123.8L26.2,123.7L27.2,123.3L27.4,123.5L28.4,123.1L28.9,122.3L29.5,122.2L31.7,123.1Z" fill="#2c2c34" stroke="#474751" stroke-width="0.8"/><path d="M41.4,123.4L41.9,122.9L43.3,122.6L44.8,123.6L45.6,123.7L46.6,124.5L46.4,125.6L47.2,126.1L47.4,127.3L48.2,128.1L48,128.5L48.4,128.8L47.9,129L46.7,129L46.5,128.5L46,128.8L46.2,129.3L45.6,130.3L45.3,131.3L44.7,131.6L44.4,130.2L44.6,129L44.5,127.7L43.3,125.9L42.7,124.6L42.1,123.7Z" fill="#2c2c34" stroke="#474751" stroke-width="0.8"/><path d="M44.7,131.6L45.6,132.1L46.6,131.6L47.5,132.1L47.6,132.9L46.6,133.5L46,133.2L45.4,136.7L44.2,136.4L42.7,135.4L40.3,136L39.3,136.7L36.3,136.6L34.7,136.2L33.9,136.4L33.3,135.2L33,134.7L33.4,134.2L32.9,133.8L32.3,134.5L31.1,133.7L30.9,132.5L29.7,131.8L29.5,130.9L28.4,129.7L30,129.1L31.2,127.1L32.2,125.1L33.4,124.4L34.3,123.8L35.6,124.1L36.9,124.1L37.9,124.9L38.6,124.4L40.1,124.1L40.6,123.4L41.4,123.4L42.1,123.7L42.7,124.6L43.3,125.9L44.5,127.7L44.6,129L44.4,130.2Z" fill="#2c2c34" stroke="#474751" stroke-width="0.8"/><path d="M41.2,98.8L41.4,100.4L39.7,101.6L39.2,103.6L37,104.9L35,104.9L34.5,103.8L33.5,103.4L33.3,102.5L33.5,101.5L32.6,101L30.5,100.4L30.1,97.3L32.4,96.2L35.8,96.4L37.8,96.1L38.1,96.8L39.2,97.1Z" fill="#2c2c34" stroke="#474751" stroke-width="0.8"/><path d="M42.8,91.9L43.8,92.8L44,94.6L44.6,96.8L42.4,98.2L41.2,98.8L39.2,97.1L38.1,96.8L37.8,96.1L35.8,96.4L32.4,96.2L30.1,97.3L30.1,94.5L31.1,92.2L33.1,90.9L34.7,93.7L36.3,93.6L36.7,90.7L38.5,90L39.4,90.5L41.1,91.9Z" fill="#2c2c34" stroke="#474751" stroke-width="0.8"/><path d="M44.2,84.1L44.5,84.8L43.1,87.1L43.7,90.7L42.8,91.9L41.1,91.9L39.4,90.5L38.5,90L36.7,90.7L37,88.4L36.2,88.9L34.9,87.5L34.7,85.3L37.3,84.1L39.9,83.6L42.1,84.2Z" fill="#2c2c34" stroke="#474751" stroke-width="0.8"/><path d="M0,111.8L0.5,111.8L1,110.6L1.5,107.5L1.1,106.3L1.5,105.6L3.2,105.4L3.6,106.2L5,104.5L4.5,103.2L4.4,101.2L6,101.6L7.3,101.1L7.3,102.5L9.4,103.3L9.4,104.5L11.5,103.9L12.6,102.9L14.9,104.3L15.9,105.4L15.9,105.4L16.4,107.1L15.8,108.1L16.5,109.3L17,111L16.9,112.2L17.7,114.3L16.8,114.6L16.3,114.2L15.8,114.9L14.3,115.5L13.5,116.3L12,117L12.4,117.9L12.6,119.3L13.7,120L14.8,121.4L14.1,122.8L13.4,123.2L13.6,125.2L13.5,125.7L12.8,125.1L11.8,125L10.4,125.5L8.6,125.4L8.3,126.2L7.2,125.4L6.6,125.5L4.4,124.6L4,125.3L2.3,125.2L2.5,123.1L3.6,120.9L0.6,120.4L0,119.8L0,111.8Z" fill="#2c2c34" stroke="#474751" stroke-width="0.8"/><path d="M33.3,135.2L33.9,136.4L34.7,136.2L36.3,136.6L39.3,136.7L40.3,136L42.7,135.4L44.2,136.4L45.4,136.7L44.3,137.9L43.6,139.9L44.3,141.4L42.5,141.1L40.4,141.9L40.4,143.3L38.5,143.5L37.1,142.6L35.5,143.3L33.9,143.3L33.8,141.5L32.8,140.6L33.1,140.2L32.9,139.8L33.2,139L34,138.1L33,136.9L32.8,135.8Z" fill="#2c2c34" stroke="#474751" stroke-width="0.8"/><path d="M40.8,159L40.5,159.8L37.6,160L37.6,159.5L35.1,159.1L35.5,158L36.6,158.8L38.2,158.7L39.7,158.9L39.7,159.3ZM33.9,143.3L35.5,143.3L37.1,142.6L38.5,143.5L40.4,143.3L40.4,141.9L41.4,142.7L40.8,144.4L40.3,144.7L39,144.6L38,144.3L35.5,145L36.9,146.5L35.9,147L34.7,147L33.7,145.6L33.3,146.2L33.7,147.8L34.8,149L34,149.6L35.1,150.8L36.1,151.6L36.2,153L34.3,152.3L34.9,153.7L33.6,153.9L34.4,156.2L33,156.2L31.3,155.1L30.6,153L30.2,151.3L29.4,150.1L28.3,148.6L28.2,147.9L29.2,146.6L29.3,145.7L30,145.3L30,144.6L31.3,144.4L32.1,143.8L33.2,143.8L33.5,143.4Z" fill="#2c2c34" stroke="#474751" stroke-width="0.8"/><path d="M78.5,154.3L77.6,154.7L76.9,154.1L74.5,153.7L73.6,154.1L71.3,154.5L70.2,154.5L67.8,155.4L66.1,155.4L65,155L62.8,155.7L62.1,155.2L62,156.6L61.5,157.1L60.9,157.7L60.2,156.6L60.9,155.6L59.7,155.8L58,155.2L56.6,156.7L53.5,157L51.8,155.6L49.6,155.5L49.1,156.6L47.7,156.9L45.8,155.5L43.5,155.6L42.3,153L40.8,151.6L41.8,149.6L40.5,148.3L42.8,145.7L45.9,145.6L46.8,143.6L50.7,143.9L53.1,142.2L55.5,141.4L58.9,141.3L62.5,143.3L65.4,144.3L67.8,143.9L69.6,144.1L72,142.7L74.1,142.6L76.1,143.9L76.5,144.9L76.3,146.2L77.8,146.9L78.6,147.6L77.2,148.4L77.8,151.4L77.4,152.2ZM40.4,141.9L42.5,141.1L44.3,141.4L44.5,142.5L46.3,143.4L45.9,144L43.5,144.2L42.6,145L40.9,146.5L40.3,145.2L40.3,144.7L40.8,144.4L41.4,142.7Z" fill="#2c2c34" stroke="#474751" stroke-width="0.8"/><path d="M30,144.6L30,145.3L29.3,145.7L29.2,146.6L28.2,147.9L27.9,147.7L27.8,147.1L26.7,146.2L26.5,144.9L26.7,143.1L27,142.2L26.6,141.8L26.5,140.9L27.4,139.5L27.5,140.1L28.1,139.8L28.5,140.6L29,140.8L29.1,141.8L28.9,142.8L29.1,143.9Z" fill="#2c2c34" stroke="#474751" stroke-width="0.8"/><path d="M20.9,128.6L21.5,129L23.1,130.2L24.7,130.8L25.5,130.3L26,131.5L26.7,132.3L25.9,133.4L24.9,132.8L23.5,132.8L21.8,132.3L20.8,132.4L20.4,133L19.6,132.3L19.2,133.5L20.2,134.9L20.7,135.7L21.6,136.8L22.4,137.4L23.2,138.6L25,139.7L24.7,140.1L22.8,139.1L21.6,138.1L19.8,137.3L18,135.2L18.5,135L17.5,133.7L17.5,132.8L16.2,132.3L15.5,133.6L14.9,132.6L15,131.6L15.1,131.5L16.5,131.6L16.9,131.1L17.5,131.6L18.4,131.7L18.3,130.9L19.1,130.6L19.3,129.4Z" fill="#2c2c34" stroke="#474751" stroke-width="0.8"/><path d="M0,127.2L0.9,126.2L0.8,125.5L1.7,125.8L2.3,125.2L4,125.3L4.4,124.6L6.6,125.5L6.6,125.5L6.7,126.1L6.4,126.8L7.3,127.3L8.4,127.4L8.2,128.6L7.3,129.1L5.8,128.8L5.3,130L4.4,130.1L4,129.6L2.9,130.6L1.9,130.7L1,130.1L0.3,128.8L0,129L0,127.2Z" fill="#2c2c34" stroke="#474751" stroke-width="0.8"/><path d="M0,106.3L1.1,106.3L1.1,106.3L1.5,107.5L1,110.6L0.5,111.8L0,111.8L0,106.3Z" fill="#2c2c34" stroke="#474751" stroke-width="0.8"/><path d="M325.9,280.3L327.6,281.7L328.7,282.7L327.9,283.2L326.8,282.6L325.3,281.7L324,280.5L322.6,278.9L322.4,278.2L323.2,278.2L324.4,279L325.3,279.7Z" fill="#2c2c34" stroke="#474751" stroke-width="0.8"/><path d="M318.5,257.8L319,258.5L317.6,258.5L316.8,257.2L318,257.7ZM317.6,255.9L317.2,256.3L315.7,254.5L315.3,253.3L316,253.3L316.7,255ZM315.9,256.5L315.1,256.6L313.8,256.4L313.4,256L313.5,255.2L314.9,255.5L315.5,256ZM313.4,252.7L313.9,253.3L314,253.8L312.3,252.9L311.2,252.1L310.5,251.4L310.8,251.2L311.7,251.7ZM308.3,250.6L309.1,251.3L308.7,251.4L307.8,250.9L306.9,250.1L307,249.8Z" fill="#2c2c34" stroke="#474751" stroke-width="0.8"/><path d="M222.2,300L222.2,299.3L221.4,297.8L221.3,297.1L220.4,296.2L220.2,294.4L219,292.6L218.7,291.6L219.6,292.6L218.9,290.5L219.9,291.1L220.6,292L220.5,290.8L219.5,289L219.3,288.3L218.8,287.7L219.1,286.4L219.5,285.8L219.8,284.7L219.5,283.4L220.4,281.8L220.5,283.5L221.4,282L223.1,281.2L224.1,280.3L225.6,279.5L226.5,279.3L227.1,279.6L228.7,278.8L230,278.5L230.3,278.1L230.8,277.9L231.9,277.9L234.1,277.3L235.2,276.3L235.7,275.2L236.9,274.1L237,273.2L237.1,272.1L238.5,270.2L239.4,272.1L240.2,271.7L239.5,270.6L240.1,269.6L241,270.1L241.3,268.5L242.4,267.4L242.9,266.6L243.9,266.2L244,265.6L244.9,265.9L244.9,265.3L245.8,265L246.8,264.8L248.3,265.7L249.4,267L250.7,267L252,267.2L251.6,266L252.6,264.3L253.5,263.8L253.2,263.3L254.1,262.1L255.3,261.3L256.3,261.6L258.1,261.2L258,260.1L256.5,259.4L257.6,259.1L259,259.6L260,260.5L261.8,261L262.4,260.8L263.6,261.5L264.8,260.9L265.6,261L266.1,260.6L267,261.7L266.5,262.8L265.7,263.7L265,263.7L265.2,264.6L264.6,265.6L263.9,266.7L264,267.2L265.7,268.4L267.2,269.1L268.3,269.8L269.8,271.1L270.3,271.1L271.4,271.6L271.7,272.3L273.7,273L275,272.3L275.4,271.1L275.8,270.2L276.1,269L276.7,267.3L276.4,266.3L276.6,265.7L276.3,264.5L276.6,262.9L277,262.5L276.7,261.8L277.2,260.7L277.6,259.5L277.6,258.9L278.4,258.2L278.9,259.2L279.1,260.5L279.6,260.7L279.7,261.6L280.4,262.7L280.6,263.9L280.5,264.6L281.2,266.3L282.6,265.5L283.2,266.4L284.2,267.2L284,268.2L284.4,270L284.8,271L285.3,271.3L285.8,273.1L285.6,274.3L286.3,275.7L288.5,276.8L290,277.9L291.3,278.8L291,279.4L292.2,280.7L293,283.1L293.8,282.6L294.7,283.6L295.2,283.2L295.5,285.6L297,287L297.9,287.8L299.5,289.6L300.1,291.5L300.1,292.8L300,294.2L301,296.2L300.9,298.2L300.5,299.3L300.3,300L222.2,300Z" fill="#2c2c34" stroke="#474751" stroke-width="0.8"/><path d="M154.2,220.8L153.9,223L153.1,223.5L151.3,224L150.3,222.4L149.9,219.4L150.9,216L152.3,217.2L153.2,218.7Z" fill="#2c2c34" stroke="#474751" stroke-width="0.8"/><path d="M236,184.8L234.7,188.4L233.9,190.2L232.8,188.3L232.6,186.7L233.8,184.5L235.4,182.8L236.3,183.4Z" fill="#2c2c34" stroke="#474751" stroke-width="0.8"/><path d="M8.4,127.4L9.6,127.9L9.8,127.3L11.9,126.8L12.3,127.8L15.2,128.6L15,130L15.5,131.3L13.9,130.8L12.2,131.9L12.3,133.3L12.1,134.1L12.8,135.6L14.7,137L15.7,139.3L18,141.6L19.6,141.6L20.1,142.2L19.5,142.7L21.3,143.7L22.8,144.5L24.6,145.9L24.8,146.4L24.4,147.4L23.3,146.1L21.5,145.7L20.6,147.4L22.1,148.4L21.9,149.8L21,149.9L19.9,152.2L19.1,152.4L19.1,151.6L19.5,150.2L19.9,149.6L19.2,148.1L18.5,146.7L17.7,146.4L17.1,145.2L15.8,144.8L14.9,143.7L13.4,143.5L11.8,142.3L9.9,140.5L8.5,138.9L7.9,136.1L6.9,135.8L5.2,134.8L4.3,135.2L3.1,136.5L2.2,136.7L2.5,135.5L1.3,135.1L0.8,132.9L1.5,132L0.9,130.9L1,130.1L1.9,130.7L2.9,130.6L4,129.6L4.4,130.1L5.3,130L5.8,128.8L7.3,129.1L8.2,128.6ZM17.2,151.8L18.7,151.5L18,153.6L18.3,154.4L17.9,155.7L16.3,154.7L15.3,154.4L12.4,153.1L12.7,151.8L15.1,152ZM4.8,144.5L5.8,143.6L7.1,145.5L6.8,149.1L5.9,148.9L5,149.8L4.3,149.1L4.2,145.9L3.7,144.3Z" fill="#2c2c34" stroke="#474751" stroke-width="0.8"/><path d="M7.3,101.1L6,101.6L4.4,101.2L3.6,99.2L3.6,95.4L3.9,94.4L4.5,93.3L6.3,93.1L7,92L8.6,90.9L8.6,92.9L8,94.1L8.2,95.2L9.3,95.7L8.8,97.1L8.2,96.7L6.7,99.3ZM12.3,97L13,98.8L11.7,101.7L9.6,99.7L9.3,98.2Z" fill="#2c2c34" stroke="#474751" stroke-width="0.8"/><path d="M81.9,141.8L82.5,141.9L83.9,143.6L84.8,143.8L85.1,143.1L86.3,142L87.4,143.4L88.5,145.3L89.4,145.5L90,146.2L88.4,146.4L88,148.5L87.6,149.4L86.9,150L87,151.3L86.4,151.4L85.2,150.1L85.9,148.8L85.3,148L84.5,148.2L82.1,150.1L82,148.3L81.1,147.9L80.3,147.1L80.8,146.3L79.7,145.4L80.2,144.7L79.4,144.2L79,143.5L79.5,143.1L81,143.8L82.1,144L82.4,143.7L81.4,142.2ZM81.4,150.2L80,149.9L78.9,148.6L78.6,147.6L79,147.6L79.6,148.3L80.5,148.3L80.5,148.7Z" fill="#2c2c34" stroke="#474751" stroke-width="0.8"/><path d="M68.7,137.5L69,137.1L70.7,137.6L73.7,138.1L76.5,139.4L76.8,139.9L78.1,139.5L80,140.1L80.6,141.2L81.9,141.8L81.4,142.2L82.4,143.7L82.1,144L81,143.8L79.5,143.1L79,143.5L76.1,143.9L74.1,142.6L72,142.7L72.3,141.6L71.8,139.7L70.6,138.6L69.5,138.3Z" fill="#2c2c34" stroke="#474751" stroke-width="0.8"/><path d="M234,210L233,208.4L234.8,208.5L235.5,209.3L234.9,211.1ZM237.6,215.7L238.1,215.1L238.4,213.8L239.5,213.7L239.2,215.1L240.7,213.1L240.5,215.1L239.8,215.8L239.1,217.1L238.5,217.7L237.2,216.3ZM245.4,219L245.6,220.3L245.7,221.5L245,223.4L244.3,221.3L243.3,222.3L244,223.8L243.4,224.8L241,223.6L240.4,222.1L241,221.1L239.7,220.2L239.1,221L238.1,220.9L236.6,222.1L236.3,221.5L237.1,219.8L238.4,219.2L239.5,218.4L240.2,219.3L241.8,218.8L242.1,217.8L243.5,217.8L243.4,216.2L245.1,217.2L245.2,218.2ZM229.3,217.1L226.6,219.1L227.6,217.6L229,216.3L230.3,214.9L231.3,212.8L231.7,214.5L230.4,215.7ZM237.1,198.3L236.8,199.2L237.5,200.8L236.9,202.5L235.7,203.2L235.4,204.9L235.9,206.6L237,206.9L237.9,206.6L240.4,207.8L240.2,208.9L240.9,209.4L240.7,210.4L239.1,209.4L238.3,208.3L237.8,209L236.5,207.8L234.6,208.1L233.6,207.6L233.7,206.8L234.4,206.2L233.8,205.7L233.5,206.5L232.5,205.3L232.2,204.3L232.1,202.3L232.9,203L233.1,199.7L233.8,197.7L235,197.7L236.3,198.3L236.9,197.8ZM236.5,212.7L236.2,211.7L237.4,212.4L238.7,212.4L238.7,213.3L237.7,214.1L236.4,214.8L236.4,213.8ZM243.6,211.2L244.2,213.5L242.6,213L242.6,213.7L243.1,214.9L242.2,215.4L242.1,213.9L241.5,213.8L241.1,212.6L242.3,212.7L242.3,211.9L241.1,210.4L243,210.4Z" fill="#2c2c34" stroke="#474751" stroke-width="0.8"/><path d="M191.6,223L192,222.6L193.7,223.5L193.8,224.6L195.2,224.3L195.8,223.5L196.3,223.7L197.5,224.9L198.4,226.3L198.5,227.7L198.3,228.6L198.5,229.3L198.6,230.5L199.3,231.1L200.1,232.9L200.1,233.6L198.7,233.7L196.7,232.2L194.3,230.6L194.1,229.5L192.9,228.2L192.6,226.5L191.9,225.4L192.1,223.9ZM228,227.8L226.2,227.4L223.9,227.4L223.2,229.7L222.4,230.5L221.3,233.3L219.7,233.7L217.7,233.2L216.8,233.3L215.6,234.4L214.3,234.2L213,234.7L211.6,233.5L211.2,232.1L212.7,232.8L214.3,232.4L214.7,230.7L215.6,230.3L218,229.9L219.5,228.3L220.5,227L221.4,228L221.9,227.3L222.8,227.4L222.9,226.1L223,225.1L224.6,223.6L225.6,222L226.5,222L227.5,223.1L227.6,224L229,224.5L230.7,225.2L230.5,226L229.2,226.1L229.5,227.1Z" fill="#2c2c34" stroke="#474751" stroke-width="0.8"/><path d="M223,225.1L222.9,226.1L222.8,227.4L221.9,227.3L221.4,228L220.5,227L221.3,226.2Z" fill="#2c2c34" stroke="#474751" stroke-width="0.8"/><path d="M15.2,128.6L16.9,128.8L18,128.1L19.7,128.1L20.1,127.5L20.5,127.6L20.9,128.6L19.3,129.4L19.1,130.6L18.3,130.9L18.4,131.7L17.5,131.6L16.9,131.1L16.5,131.6L15.1,131.5L15.5,131.3L15,130Z" fill="#2c2c34" stroke="#474751" stroke-width="0.8"/><path d="M45.5,38.4L45.2,42.4L48.3,46L46.4,50L48.8,55.8L47.4,60L49.3,63.6L48.4,66.6L51.4,69.7L50.7,72L48.8,74.5L44.4,79.9L40.7,80.2L37.1,81.7L33.8,82.6L32.6,80.4L30.6,79L31.1,74.8L30.1,70.9L31,68.2L32.9,65.4L37.6,60.2L38.9,59.2L38.7,57.2L35.9,54.8L35.2,52.8L35.1,44.7L32,41L29.2,38.2L30.5,36.7L32.7,39.7L35.4,39.4L37.6,40.8L39.5,38.3L40.5,34L43.7,32L46.3,34.3Z" fill="#2c2c34" stroke="#474751" stroke-width="0.8"/><path d="M33.1,120.7L32.6,121.5L32.2,122.8L31.7,123.1L29.5,122.2L28.9,122.3L28.4,123.1L27.4,123.5L27.2,123.3L26.2,123.7L25.4,123.8L25.2,124.4L23.5,124.8L22.8,124.5L21.7,123.7L21.5,122.6L21.7,122.2L22,121.6L22.9,121.6L23.6,121.3L23.6,121L24,120.9L24.2,120.1L24.6,120L25,119.4L25.6,119.4L25.7,119.6L26.5,119.2L27.5,120.3L28.8,119.6L29.7,120L31.2,119.5Z" fill="#2c2c34" stroke="#474751" stroke-width="0.8"/><path d="M17.7,114.3L18.7,115.3L20.2,115.6L20.1,116.5L21.2,117.2L21.5,116.3L22.9,116.7L23.1,117.7L24.6,117.9L25.6,119.4L25,119.4L24.6,120L24.2,120.1L24,120.9L23.6,121L23.6,121.3L22.9,121.6L22,121.6L21.7,122.2L20.8,121.7L19.8,121.8L18.2,120.9L17.5,121.1L16.3,122.4L14.8,121.4L13.7,120L12.6,119.3L12.4,117.9L12,117L13.5,116.3L14.3,115.5L15.8,114.9L16.3,114.2L16.8,114.6Z" fill="#2c2c34" stroke="#474751" stroke-width="0.8"/><path d="M61.5,206.4L61.3,205.6L62.2,202.5L62.4,201L63,200.4L64.5,200L65.5,198.8L66.7,201.3L67.3,203.3L68.4,204.3L71.2,206.3L72.3,207.5L73.4,208.7L74.1,209.4L75.1,210.1L74.5,210.6L73.6,210.4L72.9,209.7L72.1,208.5L71.2,207.8L70.6,207.1L68.8,206.2L67.4,206.2L66.9,205.8L65.7,206.3L64.5,205.3L63.9,206.9Z" fill="#2c2c34" stroke="#474751" stroke-width="0.8"/><path d="M277.1,149L275.2,151.7L275.2,154.3L274.5,156.4L274.8,157.6L273.7,159.4L271.1,160.6L267.5,160.7L264.6,163.6L263.3,162.6L263.2,160.8L259.6,161.3L257.2,162.5L254.8,162.5L256.9,164.3L255.5,168.4L254.2,169.4L253.2,168.5L253.7,166.3L252.4,165.6L251.6,164L253.5,163.2L254.6,161.7L256.6,160.4L258.1,158.7L262.2,157.9L264.4,158.4L266.5,153.9L267.9,155.1L270.9,152.6L272.1,151.6L273.3,148.4L273,145.4L273.9,143.6L276,143.2L277.1,146.9ZM282.7,136L284.1,134.8L284.6,137.9L281.5,138.7L279.7,141.5L276.5,139.6L275.4,142.6L273.1,142.6L272.9,139.9L273.9,137.7L276.1,137.6L276.6,133.6L277.3,131.4L279.7,134.4L281.2,135.4ZM257.6,163.6L258.8,162.1L259.9,162.4L260.8,161.3L262.3,161.9L262.5,162.7L261.4,164.2L260.5,163.4L259.5,164L259,165.4L257.6,164.7Z" fill="#2c2c34" stroke="#474751" stroke-width="0.8"/><path d="M93.3,196.7L94.9,200.2L95.6,201.7L94.1,202.3L93.7,203.2L93.7,203.9L91.6,204.8L88.4,205.8L86.5,207.3L85.6,207.4L85,207.3L83.8,208.2L82.5,208.6L80.8,208.7L80.3,208.8L79.8,209.4L79.3,209.5L79,210.1L78,210L77.3,210.3L75.9,210.2L75.4,209L75.4,207.8L75.1,207.2L74.7,205.6L74.1,204.8L74.5,204.7L74.3,203.7L74.6,203.3L74.5,202.3L75.4,201.7L75.2,200.8L75.7,199.7L76.5,200.3L77.1,200.1L79.5,200L79.8,200.2L81.8,200.5L82.6,200.3L83.1,201.1L84.1,200.7L85.5,198.5L87.4,197.5Z" fill="#2c2c34" stroke="#474751" stroke-width="0.8"/><path d="M58.5,173.4L60.8,173.8L61.6,173.1L62.1,172.2L63.7,171.9L64,171.1L64.7,170.7L62.7,168.3L66.8,167.1L67.1,166.7L69.6,167.4L72.7,169.1L78.4,173.8L82.2,174L84,174.2L84.6,175.3L86,175.3L86.8,177.3L87.8,177.8L88.2,178.6L89.6,179.6L89.7,180.5L89.5,181.3L89.7,182L90.3,182.7L90.6,183.4L90.9,184L91.5,184.4L92.1,184.3L92.5,185.1L92.5,185.6L93.3,187.9L99.5,189L99.9,188.5L100.8,190.1L99.5,194.5L93.3,196.7L87.4,197.5L85.5,198.5L84.1,200.7L83.1,201.1L82.6,200.3L81.8,200.5L79.8,200.2L79.5,200L77.1,200.1L76.5,200.3L75.7,199.7L75.2,200.8L75.4,201.7L74.5,202.3L74.2,201.4L73.6,200.8L73.4,199.9L72.4,199.2L71.3,197.4L70.7,195.6L69.3,194.1L68.4,193.8L67,191.7L66.8,190.1L66.9,188.8L65.7,186.4L64.8,185.5L63.7,185L63,183.7L63.1,183.2L62.5,182.1L61.9,181.5L61.1,179.9L59.9,178L58.8,176.4L57.8,176.4L58.1,175.2L58.2,174.3Z" fill="#2c2c34" stroke="#474751" stroke-width="0.8"/><path d="M53.9,159.4L54.1,159.4L54.4,158.8L55.8,158.8L57.7,158.1L56.3,159.1L56.5,159.6L56.3,159.5L55.9,159.7L55.6,159.7L55.5,159.8L55.4,159.5L55.3,159.4L54.9,159.3L54.3,159.5Z" fill="#2c2c34" stroke="#474751" stroke-width="0.8"/><path d="M53.9,159.4L54.3,159.5L54.9,159.3L55.3,159.4L55.4,159.5L55.5,159.8L55.6,159.7L55.9,159.7L56.3,159.5L56.5,159.6L56.5,159.8L54.4,160.8L53.4,160.5L53,159.5Z" fill="#2c2c34" stroke="#474751" stroke-width="0.8"/><path d="M62.4,190.1L54.3,190.1L46.3,190.1L38.1,190.1L38.1,181.9L38.1,173.7L37.5,171.8L38,170.3L37.7,169.3L38.5,168.2L41.2,168.1L43.2,168.7L45.2,169.5L46.1,169.8L47.7,169.1L48.5,168.4L50.3,168.2L51.8,168.5L52.4,169.7L52.8,168.9L54.5,169.5L56.1,169.6L57.1,169L58.2,172.5L58.4,173.1L57.8,174L57.4,175.8L56.8,177L56.4,177.4L55.7,176.6L54.8,175.6L53.3,172.2L53.1,172.5L53.9,174.9L55.2,177.3L56.7,180.8L57.5,182.1L58.2,183.3L60,185.8L59.6,186.2L59.6,187.7L62,189.7Z" fill="#2c2c34" stroke="#474751" stroke-width="0.8"/><path d="M38.1,190.1L38.1,194.5L35.8,194.5L35.8,195.4L27.6,191.2L19.4,187L17.4,188.2L15.9,189L14.8,187.8L11.6,186.8L10.7,185.4L9,184.4L8.1,184.8L7.4,183.6L7.3,182.6L6.1,180.9L6.9,180L6.7,178.5L7,177.3L6.8,176.2L7.2,174.3L7.1,173.2L6.4,171.2L7.4,170.6L7.6,169.6L7.4,168.6L8.8,167.7L9.4,166.9L10.4,166.2L10.5,164.4L12.9,165.2L13.8,165L15.5,165.4L18.2,166.5L19.1,168.6L21,169.1L23.9,170.1L26,171.3L27,170.6L28,169.5L27.5,167.7L28.2,166.5L29.6,165.4L31.1,165.1L33.8,165.6L34.5,166.7L35.3,166.7L35.9,167.1L38,167.4L38.5,168.2L37.7,169.3L38,170.3L37.5,171.8L38.1,173.7L38.1,181.9Z" fill="#2c2c34" stroke="#474751" stroke-width="0.8"/><path d="M84.7,219.8L78.9,226L76.3,226.1L74.5,227.5L73.1,227.6L72.6,228.2L71.2,228.2L70.4,227.5L68.5,228.4L67.9,229.2L66.5,229.1L66.1,228.8L65.6,228.9L65,228.9L62.4,227.1L60.9,227.1L60.2,226.5L60.2,225.3L59.2,225L58,222.7L57,222.2L56.7,221.4L55.6,220.4L54.4,220.3L55.1,219.1L56.2,219L56.5,218.4L56.4,216.5L57,214.4L58,213.8L58.2,212.9L59.1,211.3L60.3,210.3L61.2,208.2L61.5,206.4L63.9,206.9L64.5,205.3L65.7,206.3L66.9,205.8L67.4,206.2L68.8,206.2L70.6,207.1L71.2,207.8L72.1,208.5L72.9,209.7L73.6,210.4L72.9,211.3L72.2,212.3L72.4,212.9L72.4,213.5L73.5,213.5L74,213.4L74.5,213.8L74,214.5L74.8,215.6L75.5,216.6L76.3,217.4L83,219.8Z" fill="#2c2c34" stroke="#474751" stroke-width="0.8"/><path d="M73.6,210.4L74.5,210.6L75.1,210.1L75.6,210.7L75.5,211.6L74.3,212.1L75.2,212.6L74.5,213.8L74,213.4L73.5,213.5L72.4,213.5L72.4,212.9L72.2,212.3L72.9,211.3Z" fill="#2c2c34" stroke="#474751" stroke-width="0.8"/><path d="M87.1,212.7L87.1,212.8L87.1,213.6L87.1,215.7L87.1,216.8L86.1,218.1L84.7,219.8L83,219.8L76.3,217.4L75.5,216.6L74.8,215.6L74,214.5L74.5,213.8L75.2,212.6L75.9,213L76.3,213.9L77.2,214.8L78.2,214.8L80.2,214.2L82.4,214L84.2,213.3L85.2,213.2L85.9,212.8Z" fill="#2c2c34" stroke="#474751" stroke-width="0.8"/><path d="M56.3,238.2L52.2,238.3L49.9,238.3L49.2,238.6L48,239.2L47.5,239L47.5,237.4L48,236.7L48.1,235L48.5,234.1L49.3,233L50.1,232.5L50.7,231.7L49.9,231.4L50.1,229.1L50.9,228.5L52.2,229L53.8,228.5L55.3,228.5L56.5,227.5L57.5,229L57.7,230L58.6,232.3L57.9,233.8L56.9,235.2L56.3,236Z" fill="#2c2c34" stroke="#474751" stroke-width="0.8"/><path d="M49.2,238.6L50,239.7L49.9,240.9L49.3,241.2L48.2,241L47.6,242.2L46.4,242L46.5,240.9L46.8,240.8L46.9,239.5L47.5,239L48,239.2Z" fill="#2c2c34" stroke="#474751" stroke-width="0.8"/><path d="M25,139.7L23.2,138.6L22.4,137.4L21.6,136.8L20.7,135.7L20.2,134.9L19.2,133.5L19.6,132.3L20.4,133L20.8,132.4L21.8,132.3L23.5,132.8L24.9,132.8L25.9,133.4L26.6,133.4L26.1,134.7L27.1,135.7L26.8,137.1L26.3,137.2L25.9,137.5L25.3,138.1Z" fill="#2c2c34" stroke="#474751" stroke-width="0.8"/><path d="M32.8,140.6L33.8,141.5L33.9,143.3L33.5,143.4L33.2,143.8L32.1,143.8L31.3,144.4L30,144.6L29.1,143.9L28.9,142.8L29.1,141.8L29.4,141.9L29.5,141.3L30.7,140.9L31.1,140.8L31.8,140.6Z" fill="#2c2c34" stroke="#474751" stroke-width="0.8"/><path d="M25.5,130.3L27.1,129.6L28.4,129.7L29.5,130.9L29.7,131.8L30.9,132.5L31.1,133.7L32.3,134.5L32.9,133.8L33.4,134.2L33,134.7L33.3,135.2L32.8,135.8L33,136.9L34,138.1L33.2,139L32.9,139.8L33.1,140.2L32.8,140.6L31.8,140.6L31.1,140.8L31.1,140.6L31.3,140.2L31.5,139.6L31.2,139.6L30.8,139.1L30.5,138.9L30.2,138.5L29.9,138.3L29.6,137.9L29.2,138.1L28.9,139L28.4,139.2L28.6,139L27.8,138.4L27.1,138.1L26.9,137.7L26.3,137.2L26.8,137.1L27.1,135.7L26.1,134.7L26.6,133.4L25.9,133.4L26.7,132.3L26,131.5Z" fill="#2c2c34" stroke="#474751" stroke-width="0.8"/><path d="M28.1,139.8L27.5,140.1L27.4,139.5L26.5,140.9L26.6,141.8L26.2,141.6L25.6,140.7L24.7,140.1L25,139.7L25.3,138.1L25.9,137.5L26.3,137.2L26.9,137.7L27.1,138.1L27.8,138.4L28.6,139L28.4,139.2Z" fill="#2c2c34" stroke="#474751" stroke-width="0.8"/><path d="M29.1,141.8L29,140.8L28.5,140.6L28.1,139.8L28.4,139.2L28.9,139L29.2,138.1L29.6,137.9L29.9,138.3L30.2,138.5L30.5,138.9L30.8,139.1L31.2,139.6L31.5,139.6L31.3,140.2L31.1,140.6L31.1,140.8L30.7,140.9L29.5,141.3L29.4,141.9Z" fill="#2c2c34" stroke="#474751" stroke-width="0.8"/><path d="M50.1,229.1L48.3,227.7L47.8,226.8L46.6,227.2L45.7,227.1L45.1,227.5L44.2,227.2L43,225.5L42.7,224.9L41.1,224.1L40.6,222.8L39.8,221.9L38.4,220.9L38.4,220.2L37.2,219.3L35.9,218.5L36.5,218.3L37.2,217.9L37.7,216.1L38.3,215.1L39.7,214.8L40.1,215.4L41.1,216.6L41.7,216.8L42.4,216.4L43.9,216.5L44.2,216.9L46.2,216.9L46.3,216.5L47.4,216.1L47.6,215.5L48.3,215.1L50.1,216.3L51.1,216.1L52.1,214.6L53.3,213.4L53.1,212.2L52.6,211.6L53.8,211.5L54,211L54.9,211.1L54.7,212.7L54.9,214.2L56,215L56.2,215.7L56.2,216.8L56.5,216.8L56.5,218.4L56.2,219L55.1,219.1L54.4,220.3L55.6,220.4L56.7,221.4L57,222.2L58,222.7L59.2,225L57.8,226.3L56.5,227.5L55.3,228.5L53.8,228.5L52.2,229L50.9,228.5Z" fill="#2c2c34" stroke="#474751" stroke-width="0.8"/><path d="M228.6,184.6L228.6,184.7L228.4,184.7L228.4,184.6L228.4,184.5L228.4,184.5L228.5,184.4L228.6,184.5ZM236.2,168.3L236,168.4L235.5,168.2L235.1,168L234.8,167.7L234.8,167.6L235.1,167.6L235.3,167.7L235.4,167.9L235.5,167.9L235.6,168L236,168.2L236.1,168.3ZM237,172L237,172L236.8,171.9L236.5,171.9L236.4,171.7L236.4,171.6L236.7,171.6L237,171.7L237.1,171.8ZM236.8,172.6L236.8,172.7L236.6,172.5L236.5,172.5L236.6,172.4L236.7,172.4L236.8,172.6ZM237.3,172.1L237.2,172.3L237.2,172.2L237.1,172L237.2,172L237.3,172ZM232,182.4L231.8,182.5L231.7,182.4L231.7,182.3L231.8,182.2L231.7,182.1L231.8,182L231.9,181.9L231.9,182L232,182L232,182.1L232,182.2L231.9,182.3L232,182.3ZM212.7,192.1L212.8,192.2L213,192.1L213,192.2L213,192.3L212.9,192.4L212.8,192.3L212.6,192.3L212.5,192.3L212.4,192.2L212.5,192.1ZM234.9,176.4L234.7,176.4L234.7,176.4L234.7,176.2L234.8,176.1L234.9,176.1L234.9,176.2ZM219.2,188.3L219.2,188.4L219,188.3L219,188.3L218.9,188.2L218.9,188.1L219,188.1L219.1,188.2ZM217.6,191L217.6,191L217.5,191L217.5,190.8L217.4,190.8L217.5,190.7L217.6,190.6L217.7,190.6L217.8,190.7L217.6,190.7L217.6,190.8ZM217.3,190.9L217.1,190.9L217.1,190.9L217.1,190.8L217.3,190.7ZM207.8,191.2L207.6,191.1L207.4,190.9L207.3,190.9L207.1,191L206.7,191L206.7,190.9L206.5,191L206.3,190.7L206.1,190.7L205.9,190.6L205.8,190.5L205.8,190.3L205.7,190.3L205.6,190.3L205.5,190.2L205.3,190.1L205.2,190.1L205.1,190.1L205.1,190.2L205.1,190.1L205.1,189.8L205.1,189.6L205,189.5L204.9,189.4L204.9,189.4L204.8,189.2L204.9,189L204.9,188.8L205,188.8L205.2,188.7L205.2,188.5L205.3,188.4L205,188.2L204.8,188.1L204.6,188.1L204.4,188.2L204.3,188.2L204.2,188.2L204.1,188L204,188L203.9,188L203.7,188L203.6,188L203.5,188.1L203.4,188.1L203.3,188L203.1,187.8L202.8,187.7L202.8,187.6L202.7,187.5L202.6,187.4L202.4,187.2L202.2,187.1L202.2,187.2L202.1,187.3L201.7,187.5L201.5,187.5L201.4,187.6L201.3,187.7L201.3,187.9L201.3,188.1L201.1,188.2L201,188.3L200.9,188.3L200.8,188.3L200.7,188.3L200.4,188.6L200.2,188.5L200.1,188.4L200.1,188.3L199.9,188.3L199.7,188.4L199.7,188.6L199.6,188.8L199.6,188.9L199.5,188.9L199.5,188.9L198.9,188.4L198.9,188.4L198.8,188.5L198.7,188.8L198.6,188.8L198.6,188.8L198.3,188.4L198.3,188.4L198.2,188.4L198.1,188.5L198,188.7L197.9,188.8L197.9,188.9L197.7,189L197.6,189.1L197.5,189.1L197.5,189.1L197.3,188.9L197.2,188.8L197,188.7L196.8,188.6L196.6,188.5L196.5,188.4L196.4,188.5L196.4,188.5L196.3,188.7L196.2,188.9L196,189.1L195.9,189.2L195.8,189.3L195.7,189.2L195.6,189.1L195.4,189.1L195.2,189.3L195.1,189L195,189L194.9,189L194.9,189.1L194.8,189.2L194.8,189.4L194.7,189.5L194.6,189.5L194.6,189.6L194.6,189.7L194.6,189.8L194.7,190L194.7,190.1L194.9,190.4L195,190.5L195,190.6L195,191L195,191.1L195,191.4L195,191.6L195.1,191.7L195.1,191.8L195.1,191.8L195.1,191.9L195,192L194.9,192L194.9,191.9L194.8,191.9L194.7,191.9L194.6,191.8L194.4,191.8L194.1,191.9L194,191.9L194,191.8L193.9,191.7L194,191.6L193.9,191.5L193.9,191.4L193.9,191.2L193.8,191.1L193.8,191L193.8,190.8L193.8,190.7L193.7,190.7L193.7,190.6L193.5,190.7L193.2,190.9L192.8,191.2L192.7,191.3L192.5,191.3L192.4,191.2L192.2,191.2L191.9,191.3L191.8,191.3L191.7,191.2L191.6,191.1L191.7,191L191.7,190.9L191.5,190.8L191.4,190.8L191.3,190.6L191.3,190.5L191.3,190.3L191.4,190.1L191.3,190L191.1,190L190.6,189.9L190.2,189.9L190,189.9L189.9,189.9L189.8,189.8L189.8,189.8L189.8,189.7L189.8,189.5L189.9,189.3L190.1,189L190.1,188.8L190.1,188.6L190.2,188.3L190.4,188.1L190.4,188L190.4,187.9L190.4,187.8L190.3,187.7L190.1,187.7L189.9,187.7L189.5,187.6L189.1,187.5L189.2,187.2L189.2,187L189.1,186.9L189,186.8L189,186.7L189.1,186.5L189,186.3L188.9,186.1L188.8,186L188.7,185.9L188.8,185.7L189.1,185.5L189.1,185.4L189,185.4L188.9,185.4L188.6,185.5L188.5,185.4L188.4,185.4L188.1,185.4L187.8,185.4L187.4,185.5L187,185.7L186.9,185.8L186.7,185.9L186.6,185.9L186.5,185.9L186.5,185.7L186.7,185.4L186.8,185.2L186.7,185L186.7,184.8L186.6,184.7L186.5,184.7L186.4,184.6L186.4,184.2L186.5,183.9L186.7,183.8L186.8,183.8L186.8,183.7L186.8,183.5L186.8,183.3L186.9,183.1L187,182.8L187.2,182.9L187.3,182.8L187.4,182.8L187.5,182.6L187.6,182.5L187.7,182.1L187.7,182.1L188,182.1L188,182.1L188.2,181.9L188.3,181.6L188.5,181.6L188.6,181.5L188.7,181.5L188.7,181.3L188.6,181.1L188.5,181L188.5,180.9L188.7,180.8L188.8,180.7L188.7,180.5L188.8,180.2L188.9,179.8L188.9,179.6L188.9,179.4L188.9,179.2L188.8,178.8L188.7,178.4L188.8,178.3L188.7,177.9L188.7,177.6L188.6,177.5L188.4,177.4L188.3,177.4L188.2,177.4L188.2,177.5L188.1,177.6L188,177.6L187.9,177.5L187.9,177.3L187.6,176.6L187.6,176.4L187.6,176.2L187.5,176.1L187.4,176.1L187.2,175.8L187.1,175.7L187.1,175.7L187,175.7L186.9,175.7L186.8,175.6L186.7,175.5L186.7,175.4L186.5,175.4L186.4,175.4L186.3,175.5L186.3,175.6L186.2,175.7L186.1,176L186,176.1L185.9,176L185.6,175.8L185.5,175.7L185.3,175.8L185,175.7L184.9,175.7L184.6,175.5L184.5,175.5L184.2,175.6L184.1,175.7L184,175.7L183.9,175.7L183.9,175.6L183.8,175.6L183.9,175.5L184,175.4L183.9,175.3L184.1,175.2L184.5,174.8L184.4,174.6L184.3,174.3L184.2,174.2L184.2,174.1L184,174.2L183.6,174.4L183.6,174.4L183.6,174.3L183.5,174L183.6,174L183.8,173.9L184,173.7L184,173.7L184,173.6L183.8,173.7L183.7,173.6L183.5,173.3L183.4,173.2L183.4,173.2L183,173.3L182.7,173.5L182.3,173.8L182.3,173.9L182.2,173.9L182.2,174L182.1,174.1L182,174.2L182,174.2L181.8,174.1L181.5,174L181.2,173.9L181.2,173.9L180.8,173.8L180.7,173.8L180.7,173.6L180.6,173.5L180.5,173.5L180.1,173.7L179.8,173.9L179.6,174.1L179.4,174.3L179.2,174.3L179.2,174.5L179.1,174.6L179,174.7L178.7,174.9L178.5,175L177.9,175L177.7,175.1L177.6,175.2L177.5,175.4L177.4,175.6L177.2,175.8L176.9,176L176.5,176.2L176.4,176.3L176.4,176.4L176.5,176.5L176.5,176.5L176.5,176.6L176.5,176.7L176.2,176.8L176.1,176.9L175.9,177L175.8,177L175.7,177L175.6,176.9L175.6,177L175.4,177L175.3,177L175.1,177.2L174.9,177.2L174.7,177.1L174.5,177.1L174.4,177.1L174.3,177L174.4,176.7L174.3,176.7L174.1,176.6L173.8,176.5L173.7,176.4L173.6,176.4L173.5,176.4L173.4,176.5L173.2,176.6L173.1,176.6L173,176.6L172.9,176.5L172.5,176.4L172.3,176.4L172,176.4L171.7,176.4L171.7,176.3L171.7,176.3L171.7,176.2L171.8,176.1L171.7,176L171.5,175.9L171.2,175.9L171,175.8L170.8,175.9L170.6,176L170.5,176.1L170.3,176.2L170.1,176.3L170,176.4L169.8,176.7L169.5,176.9L169.3,177.2L169.2,177.5L169,177.7L168.9,177.8L168.7,178.1L168.6,178L168.5,177.9L168.5,177.7L168.6,177.1L168.7,176.9L168.6,176.8L168.6,176.5L168.5,176.5L168.2,176.3L168.1,176.3L168,176.4L167.9,176.5L167.8,176.5L167.5,176.6L167.2,176.7L167.1,176.7L167.1,176.8L167.1,176.9L167,176.8L166.8,176.8L166.6,176.8L166.3,177L166.2,177L166,177L165.8,177L165.5,177L165.2,176.9L164.9,176.7L164.7,176.6L164.6,176.6L164.4,176.5L164.3,176.4L164.2,176.3L164.1,176.3L164,176.4L163.9,176.6L163.8,176.7L163.7,176.7L163.5,176.7L163.3,176.5L163.2,176.4L163.1,176.3L163,176.4L163,176.6L163,176.7L162.8,176.8L162.7,176.7L162.7,176.6L162.5,176.2L162.3,176.1L162.2,175.9L161.6,175.9L161.2,175.9L161,175.8L161,175.7L161,175.4L161.1,175.2L161.1,175.2L161,175.2L160.9,175.1L160.5,175.3L160.4,175.3L160.3,175.2L160.2,175.2L160.1,175.1L160.1,175L159.7,174.8L159.6,174.7L159.4,174.5L159.2,174.4L159.1,174.2L159,173.9L159,173.7L158.8,173.6L158.6,173.6L158.3,173.7L158.1,173.8L157.9,173.8L157.6,173.5L157.4,173.2L157.2,172.9L157,172.8L156.7,172.8L156.4,172.6L156,172.3L155.6,172L155.1,171.7L155,171.6L154.9,171.5L154.9,171.3L154.7,171.1L154.4,171L153.9,171L153.5,171.1L153.1,171.7L153,171.8L152.8,171.8L152.7,171.7L152.6,171.5L152.6,171.3L152.4,171.2L152.1,171L152,170.9L151.8,170.8L151.7,170.8L151.4,170.7L151.1,170.6L151,170.5L150.9,170.5L151,170.3L151,170.1L150.9,170L150.7,170L150.4,169.8L150.4,169.8L150.4,169.8L150.3,169.7L150.1,169.6L149.9,169.6L149.7,169.6L149.5,169.5L149.3,169.4L149.3,169.3L149.2,169.3L149,168.9L148.7,168.6L148.6,168.5L148.5,168.5L148.5,168.7L148.4,168.7L148.3,168.7L148.2,168.8L148.1,168.8L148,168.8L148,168.7L148,168.5L148,168.4L148,168.2L148.1,168L148,167.9L147.9,167.7L147.9,167.6L148,167.4L148,167.2L148,167.2L147.9,167.1L147.5,166.6L147.5,166.5L147.4,166.4L147.4,166.2L147.3,166L147.3,165.9L147.3,165.8L147.3,165.8L147.6,165.7L147.8,165.7L147.9,165.7L148,165.8L148,165.9L148.1,166L148.2,166.1L148.4,166.3L148.5,166.2L148.7,166.2L148.8,166L148.9,165.9L149,165.9L149,165.9L149,165.8L149,165.4L149,165.3L148.9,165.2L149,165L148.9,164.8L148.8,164.7L148.7,164.6L148.7,164.6L148.8,164.4L148.8,164.3L148.8,164.1L148.7,164.1L148.5,164L148.4,163.8L148.4,163.7L148.2,163.6L148.1,163.5L148.1,163.1L148.1,162.7L148,162.5L148,162.2L148,162.1L148,162L148.4,161.8L148.5,161.7L148.5,161.6L148.5,161.5L148.4,161.4L148.2,161.3L148,161.1L147.8,161L147.5,160.9L147.1,160.7L147.1,160.6L147,160.3L146.8,159.9L146.6,159.4L146.5,159.1L146.5,159L146.6,158.6L146.6,158.6L146.5,158.5L146.4,158.6L146.3,158.6L146.2,158.6L146.1,158.5L146.1,158.5L146.1,158.5L145.9,158.6L145.6,158.6L145.5,158.6L145.3,158.6L145,158.5L144.6,158.4L144.2,158.2L144,158.1L143.9,158.1L143.7,157.9L143.5,157.8L143.5,157.5L143.4,157.6L143.2,157.7L142.9,157.7L142.8,157.7L142.7,157.7L142.6,157.4L142.5,157.3L142.4,157.3L142.3,157.2L142.2,157.1L142.2,157L142.3,156.9L142.3,156.8L142.3,156.3L142.3,156.1L142.3,155.9L142.2,155.7L142.1,155.6L141.9,155.5L141.7,155.4L141.5,155.3L141.3,155.4L141.2,155.4L141.1,155L141.1,154.9L140.6,154.8L140.5,154.7L140.2,154.8L140.1,154.8L140,154.8L139.9,154.7L139.7,154.6L139.5,154.6L139.4,154.6L139.4,154.6L139.3,154.6L139.1,154.4L139.1,154.3L139.4,154.1L139.7,154L139.8,154L139.8,154L139.9,154.1L140,154.1L140.1,154.1L140.2,154.1L140.4,154L140.5,153.8L140.6,153.7L140.5,153.5L140.3,153.3L140.2,153.2L140.1,153.2L140.2,152.9L140.2,152.7L140.2,152.6L140.1,152.6L140.1,152.3L140,152L139.9,151.9L139.9,151.6L139.9,151.4L140,151.1L140,150.9L139.8,150.8L139.4,150.6L138.9,150.4L138.7,150.4L138.6,150.4L138.4,150.5L138.4,150.7L138.2,150.7L138,150.7L137.9,150.5L137.8,150.3L137.7,150L137.7,149.9L137.7,149.8L137.8,149.7L137.9,149.7L137.9,149.6L137.9,149.5L137.8,149.4L137.7,149.2L137.5,148.9L137.5,148.7L137.6,148.5L137.6,148.3L137.7,148.3L137.9,148.2L138,148.1L138.1,148L138.1,147.9L138.1,147.6L138,147.5L138,147.4L138,147.3L138.1,147.2L138.2,146.9L138.3,146.8L138.3,146.7L138.5,146.7L138.8,146.6L139.1,146.5L139.6,146.1L139.7,146L139.9,146L140,146L140,145.9L139.9,145.7L140,145.6L140,145.6L140.1,145.5L140.4,145.7L140.6,145.7L140.8,145.6L141.4,145.2L141.5,145.2L141.5,145.2L141.6,145.5L141.7,146L141.7,146.1L142.1,146.1L142.4,145.9L142.5,145.8L142.7,145.9L142.8,145.8L142.9,145.7L143,145.9L143.2,145.8L143.4,145.7L143.5,145.5L143.6,145.3L143.7,145.1L143.7,144.9L143.7,144.8L143.8,144.7L144.1,144.2L144.2,144.1L144.4,144.1L144.8,144.2L145,144.1L145.6,144.2L145.9,144.1L146.1,144L146.4,144L146.7,144L147.2,143.4L147.2,143.3L147.2,143.2L147.4,143L147.6,142.9L148,142.7L148.8,142.2L149.1,142L149.2,142.1L149.6,141.9L150.1,141.7L150.2,141.5L150.4,141.4L151,141.4L151.1,141.3L151.1,141.3L151,141.1L151,140.9L151,140.9L151.1,140.8L151.1,140.7L151,140.3L150.9,140L150.9,139.7L150.9,139.6L151,139.4L151.1,139.2L151.4,139.1L151.7,139L151.7,138.9L151.5,138.9L151.4,138.8L151.3,138.7L151.3,138.6L151.4,138.6L151.6,138.4L151.8,138.3L152.1,138.4L152.2,138.3L152.2,138.2L152.1,138.1L152.1,137.9L151.9,137.8L151.9,137.7L152,137.5L151.9,137.1L151.8,136.8L151.6,136.2L151.4,136L151.4,135.7L151.3,135.6L151.3,135.4L151.3,135.2L151.3,134.9L151.3,134.6L151.3,134.3L151.4,134.1L151.3,134L151.4,133.9L151.5,133.9L151.6,133.8L151.5,133.7L151.3,133.7L151.1,133.5L150.8,133.6L150.6,133.6L150.4,133.5L150.3,133.4L150.3,133.3L150.5,133.2L150.7,133L151,132.9L151.4,132.8L151.6,132.7L151.9,132.6L152.2,132.6L152.3,132.6L152.7,132.5L153.3,132.3L153.8,132.1L154,132L154.2,132.1L154.2,132.3L154.4,132.5L154.5,132.5L154.6,132.5L154.9,132.4L155.2,132.4L155.3,132.4L155.5,132.5L155.6,132.6L155.7,132.6L155.8,132.5L155.9,132.4L155.9,132.1L155.9,131.9L155.9,131.8L155.8,131.7L155.6,131.6L155.3,131.5L155.3,131.4L155.3,131.3L155.4,131L155.5,130.6L155.7,130.1L155.8,129.6L156.1,128.9L156.3,128.2L156.7,127.2L156.7,127L156.7,126.7L156.8,126.5L156.9,126.5L157.1,126.5L157.6,126.8L158,127L158.2,127L158.4,127.1L158.8,127.2L159,127.2L159.2,127.1L159.4,127.1L159.8,127.2L160,127.2L160.1,127.2L160.2,127.3L160.3,127.5L160.4,127.6L160.5,127.6L160.8,127.4L161,127.2L161.3,127L161.5,127L161.8,126.9L161.9,126.8L162,126.5L162.1,126.3L162.2,126.1L162.1,125.9L162,125.6L162,125.4L161.9,124.9L161.9,124.3L161.9,123.9L162.1,123.5L162.1,123.3L162.2,123.1L162.3,122.9L162.5,122.8L163,122.8L163.4,122.7L163.6,122.6L163.8,122.5L164,122.5L164.2,122.1L164.3,121.9L164.4,121.4L164.3,121.2L164.4,121L164.5,120.8L164.6,120.7L164.8,120.7L165,120.6L165.4,120.7L165.5,120.7L165.7,120.8L165.9,120.7L165.9,120.6L166.1,120.6L166.2,120.5L166.4,120.5L166.5,120.5L166.6,120.6L166.5,120.7L166.6,120.9L166.7,121L166.6,121.1L166.5,121.2L166.4,121.2L166.4,121.4L166.5,121.5L166.6,121.6L166.8,121.7L167,121.8L167,121.9L167,122L166.9,122.1L166.9,122.2L166.9,122.3L166.9,122.4L167.1,122.4L167.2,122.5L167.6,122.6L167.8,122.8L168,122.9L168.1,123.1L168.1,123.4L168.3,123.6L168.6,123.8L168.8,123.8L168.9,123.9L169.1,124.1L169.2,124.1L169.4,124.1L169.6,124L170,124L170.1,124.1L170.3,124.4L170.4,124.4L170.5,124.5L170.6,124.6L170.7,124.6L170.8,124.6L170.9,124.4L171.1,124.5L171.1,124.5L171.1,124.7L171.2,124.9L171.4,125L171.7,125.1L171.7,125.1L171.7,125.3L171.8,125.4L171.9,125.6L172,125.9L172,126.1L172,126.2L172.1,126.5L172.3,126.8L172.5,127.1L172.6,127.1L172.8,127.2L172.9,127.5L173,127.9L173,128.1L173.1,128.3L173.1,128.4L173.1,128.5L173,128.9L172.9,129.1L172.9,129.3L172.9,129.6L173,129.8L173.1,130L173,130.1L172.8,130.3L172.8,130.4L172.6,130.5L172.5,130.9L172.4,131.3L172.4,131.5L172.4,131.6L172.5,131.8L172.6,131.9L172.8,132.2L172.8,132.4L172.9,132.4L173,132.4L173.2,132.4L173.3,132.4L173.5,132.6L173.7,132.7L174,132.6L174.1,132.7L174.2,132.8L174.6,132.8L174.8,132.8L175.2,132.8L175.5,132.9L176,133L176.3,133L176.7,132.9L177,132.9L177.7,133L178.2,133.2L178.5,133.3L178.7,133.5L178.9,133.8L179.1,133.9L179.6,134L179.9,134.4L180.2,134.5L180.6,134.9L181,135L181.3,135.1L181.9,135.1L182,135.1L181.9,135.3L181.9,135.6L181.9,135.7L182,135.8L182.2,135.9L182.3,136L182.4,136.2L182.4,136.3L182.6,136.8L183,137.6L183,137.9L183.1,138.1L183.4,138.4L183.6,138.6L183.9,138.9L184,139.1L184,139.4L184.1,139.5L184.6,139.4L185,139.3L185.7,139.3L186.8,139.4L187.9,139.6L188.8,139.7L189.3,139.7L190.4,139.9L191,139.7L191.4,139.6L191.6,139.6L192.5,139.7L193,139.8L193.7,139.9L194.1,140L194.5,140L194.7,140L194.8,140.1L195,140.2L195.3,140.6L195.5,140.9L195.9,141L196.7,141.2L197.2,141.3L197.7,141.4L198.1,141.6L198.5,141.8L199,142.1L199.6,142L200.3,141.9L200.6,141.8L200.6,142.4L201.2,142.4L201.4,142.4L201.6,142.6L201.8,142.5L201.9,142.4L202.1,142.2L202.3,142.1L202.7,141.9L202.8,141.8L203.5,141.5L204.4,141.1L204.8,140.9L204.9,140.8L205.1,140.7L205.3,140.7L205.6,140.6L206,140.6L206.4,140.5L207.3,140.3L207.4,140.3L207.9,140.3L208.2,140.2L208.5,140.2L208.9,140.3L209.2,140.3L209.6,140.3L210.1,140.2L210.5,140.2L210.8,140.2L211.1,140L211.3,139.9L211.6,139.8L212,139.6L212.3,139.5L212.5,139.4L212.7,139.3L212.8,139.2L212.8,139.1L213,139L213.2,138.7L213.4,138.5L213.4,138.4L213.6,138.1L213.8,138L214,137.7L214.1,137.6L214.3,137.6L214.9,137.3L215,137.3L215.1,137.3L215.3,137.1L215.4,136.9L215.5,136.8L215.7,136.8L215.9,136.7L215.9,136.6L215.8,136.4L215.7,136.2L215.7,136L215.3,135.7L215.2,135.6L215,135.3L214.9,135.1L214.8,134.9L214.8,134.8L214.8,134.7L214.9,134.4L215,134.2L215.1,133.9L215.2,133.5L215.3,133.3L215.5,133.1L215.8,132.8L216.1,132.8L216.2,132.8L216.6,132.8L216.8,132.8L217,133L217.2,133.2L217.4,133.3L218.1,133.5L218.4,133.6L218.7,133.6L219,133.7L219.1,133.7L219.2,133.7L219.4,133.7L219.6,133.5L219.8,133.3L219.9,133.2L220.1,133.2L220.2,133.1L220.4,132.8L220.7,132.7L220.9,132.4L221.1,132.2L221.1,132.1L221.1,131.9L221.2,131.9L221.4,131.8L221.6,131.8L222,131.9L222.5,131.9L222.6,131.8L223,131.8L223.2,131.7L223.5,131.7L223.7,131.4L224,131.2L224.2,131L224.4,131L224.6,130.8L224.7,130.7L224.6,130.5L224.6,130.4L224.7,130.2L224.9,129.8L225.1,129.6L225.2,129.5L225.3,129.2L225.4,129.1L225.6,129.1L225.8,129L225.9,128.9L226.2,129L226.5,129L226.8,129L226.9,129L226.9,128.9L226.9,128.8L227,128.5L227,128.4L227.1,128.3L227.3,128.3L227.5,128.4L227.6,128.5L227.7,128.5L227.9,128.5L228.1,128.2L228.4,128.1L228.6,128.1L228.9,128L229.1,128L229.4,128L229.6,128L229.7,128L229.9,127.9L230,127.8L230.2,127.9L230.4,128L230.6,128.2L231,128.3L231.3,128.2L231.6,128.3L231.7,128.3L231.8,128.2L232.1,128.1L232.1,127.9L232.1,127.7L232.1,127.5L232.1,127.4L231.9,127.2L231.9,127L231.8,126.8L231.8,126.7L231.5,126.4L231.4,126.3L231.1,126L231,125.9L230.9,125.8L230.9,125.7L230.8,125.6L230.6,125.5L230.6,125.4L230.5,125.2L230.5,125.1L230.3,125L230.2,125L230.1,124.9L229.8,124.8L229.7,124.6L229.4,124.3L229.3,124.1L228.7,124.1L228.6,124L228.3,124L228.2,124.1L227.9,124.1L227.8,124.1L227.6,124.4L227.3,124.7L227.1,124.9L227,125.1L226.9,125.1L226.8,125.1L226.6,124.9L226.4,124.7L226.1,124.6L226,124.5L225.7,124.5L225.5,124.5L225.2,124.6L224.9,124.6L224.8,124.5L224.6,124.5L224.3,124.7L224.2,125L224,125L223.8,124.9L223.6,124.7L223.4,124.5L223.3,124.2L223.2,123.7L223.4,123.5L223.7,123.3L223.8,123L223.7,122.7L223.8,122.3L224.1,122L224.2,121.7L224.2,121.5L224.4,121.2L224.5,120.9L224.7,120.5L225,119.7L225.4,118.8L225.6,118.4L226,118.7L226.3,118.8L226.7,119L227.2,119.1L227.6,119.3L227.9,119.4L228,119.4L228.6,118.8L229.2,118.3L229.8,118L230.3,117.9L230.6,117.8L230.8,117.6L231,117.4L231,117L230.9,116.7L230.7,116.6L230.6,116.6L230.7,116.5L230.8,116.3L230.9,116L231,115.8L231.2,115.6L231.3,115.3L231.3,115.1L231.5,114.8L231.7,114.5L231.8,114.3L231.8,114L232,113.8L232.3,113.3L232.5,112.7L232.8,112.3L233.4,111.9L233.7,111.4L233.9,111L233.9,110.7L233.7,110.3L233.7,110L233.8,109.7L233.7,109.5L233.4,109.3L233.1,109.2L232.7,109.3L232.5,109.2L232.4,108.9L232.5,108.7L232.8,108.5L233.2,108.1L233.8,107.4L234.4,107L235.2,106.9L235.9,106.7L236.6,106.4L237.1,106.3L237.2,106.4L237.5,106.4L238,106.4L238.4,106.3L238.8,106.1L239.1,106.1L239.3,106.2L239.5,106.2L239.6,106.2L239.6,106.2L239.7,106.1L240,106.2L240.5,106.6L240.8,106.8L241,106.7L241.1,106.8L241.3,107.1L241.5,107.2L241.8,107.3L242.2,107.5L242.3,107.5L242.4,107.4L242.5,107.3L242.7,107.3L243,107.4L243.4,107.7L243.7,107.8L243.8,107.8L243.9,107.8L244,108L244,108.1L244,108.2L244.1,108.4L244.2,108.4L244.4,108.4L244.5,108.7L244.6,108.8L244.7,108.9L244.7,109L244.7,109L244.7,109.1L244.7,109.2L244.6,109.3L244.7,109.4L244.9,109.5L245,109.6L245,109.7L245.1,109.9L245.2,110L245.3,110.1L245.3,110.2L245.3,110.3L245.4,110.4L245.4,110.6L245.4,110.8L245.5,110.9L245.6,111.2L245.7,111.6L245.9,112.1L246,112.3L246,112.6L246.1,112.8L246.2,112.9L246.3,113L246.2,113.2L246.3,113.3L246.3,113.4L246.3,113.6L246.4,113.8L246.4,113.9L246.5,114.1L246.5,114.3L246.7,114.7L247.1,115.2L247.3,115.6L247.4,115.9L247.4,116.1L247.3,116.3L247.3,116.4L247.4,116.5L247.4,116.6L247.3,116.7L247.5,116.9L247.9,117.2L247.7,117.6L247.7,117.9L247.7,118.2L247.8,118.5L248,118.6L248.1,118.7L248.1,118.9L248.3,119L248.7,119.2L249.2,119.2L249.8,119.1L250.1,119.1L250.3,119.2L250.3,119.3L250.3,119.4L250.4,119.5L250.6,119.6L250.8,119.7L250.9,119.8L251,119.9L251.1,119.8L251.2,119.8L251.4,119.9L251.5,119.9L251.5,119.8L251.6,119.8L251.8,119.8L251.8,120L252,120.1L252.1,120.1L252.4,120.4L252.9,121.1L253.2,121.3L253.5,121.4L253.9,121.4L254.1,121.7L253.9,122L253.9,122.2L254,122.3L254.1,122.6L254.3,122.8L254.3,122.9L254.4,123L254.4,123.3L254.2,123.7L254.3,124L254.5,124.3L254.7,124.6L254.7,124.8L254.8,125L254.8,125L255.1,125L255.5,124.9L255.8,124.9L256,125L256.4,125.1L257.2,124.9L257.7,124.9L257.8,124.9L258,124.8L258.2,124.4L258.3,124.2L258.5,124.3L258.7,124.1L259,123.9L259.2,123.8L259.5,123.8L259.9,123.8L260.1,123.7L260.3,123.4L260.6,123.2L261.4,123L261.6,122.9L261.6,122.9L261.9,123L262.1,123.1L262.3,123.3L262.4,123.4L262.3,123.6L262.3,123.7L262.2,123.8L262.1,124L262.2,124.2L262.3,124.5L262.4,124.7L262.5,124.9L262.5,125L262.4,125.2L262.2,125.5L262.1,125.6L262,125.8L261.7,125.8L261.7,125.8L261.6,125.9L261.5,126L261.4,126L261.3,126.2L261.3,126.3L261.4,126.5L261.4,126.7L261.2,126.9L261.1,127.2L261.1,127.3L261.1,127.5L261,127.5L261,128L260.9,128.3L260.7,128.6L260.7,128.8L260.8,129L260.7,129.1L260.7,129.2L260.7,129.3L260.6,129.4L260.5,129.5L260.4,129.7L260.4,129.9L260.3,130.1L260.2,130.2L260.2,130.3L260,130.4L260,130.4L259.9,130.6L259.9,130.8L259.8,130.9L259.9,131.1L259.8,131.2L259.6,131.3L259.6,131.4L259.5,131.4L259.3,131.6L259.2,132.1L259.1,132.4L259.2,132.6L258.9,132.8L258.8,132.9L258.7,132.9L258.6,132.8L258.4,132.8L258.2,132.7L258,132.6L257.6,132.5L257.2,132.4L257,132.3L256.8,132.3L256.7,132.2L256.6,132L256.5,132.1L256.3,132.3L256.2,132.4L256.1,132.6L256,132.8L255.8,133L255.7,133L255.4,133.2L255.3,133.2L255,133.3L254.9,133.3L254.8,133.4L254.8,133.6L254.8,133.7L255,134L255,134.2L255.1,134.5L255.4,135.7L255.3,135.8L255.2,136.7L255.2,136.8L255.2,137.1L255.2,137.3L255.3,137.3L255.3,137.4L255.4,137.5L255.4,137.6L255.3,137.7L255.3,138L255.2,138.3L255.1,138.4L255.1,138.5L255,138.6L255,138.8L255,138.9L254.8,139L254.7,139.1L254.6,139.1L254.4,139.1L254.3,139.1L254,139.2L253.8,139.3L253.7,139.4L253.7,139.4L253.6,139.5L253.7,139.6L253.9,139.6L254,139.7L254,139.9L253.9,140L253.8,139.9L253.7,139.8L253.5,139.7L253.4,139.6L253.3,139.4L253.3,139L253.3,139L253.1,138.9L253,138.8L253,138.8L252.8,138.8L252.7,138.7L252.7,138.7L252.6,138.7L252.5,138.8L252.5,139L252.3,139.3L252.3,139.5L252.3,139.8L252.2,140.1L252.2,140.2L252,140.2L252,140.2L251.9,140.4L251.8,140.4L251.7,140.3L251.6,140.2L251.5,140.2L251.4,140.3L251.3,140.5L251.2,140.6L251.2,140.7L251.1,140.8L251,141L250.9,141.1L250.7,141.3L250.6,141.3L250.4,141.3L250.2,141.3L250,141.4L249.6,141.4L249.3,141.4L249,141.4L248.8,141.5L248.8,141.6L248.8,141.7L248.8,141.8L248.9,141.9L249,142.1L249.1,142.3L249.2,142.4L249.3,142.5L249.3,142.7L249.2,142.8L249.1,143L249,143.1L248.9,143.1L248.8,143L248.7,143L248.5,142.9L248.1,143L247.8,142.9L247.7,142.9L247.5,142.9L247.2,142.8L247,142.7L246.9,142.7L246.9,142.5L246.8,142.4L246.8,142.3L246.7,142.2L246.6,142.1L246.5,142.1L246.3,142.1L246.2,142.2L246.1,142.2L246.1,142.2L246,142.3L245.8,142.4L245.8,142.6L245.7,142.8L245.7,143.1L245.6,143.2L245.5,143.2L245.5,143.3L245.3,143.6L245.1,143.8L244.9,144L244.8,144.1L244.7,144.3L244.6,144.4L244.4,144.5L244.2,144.5L244.1,144.5L244,144.6L243.9,144.7L243.9,144.8L243.8,144.8L243.7,144.9L243.4,145.1L243.2,145.1L242.9,145.3L242.7,145.4L242.6,145.5L242.6,145.5L242.6,145.6L242.4,145.6L242.3,145.6L242.1,145.8L242,146L241.5,146.4L241.3,146.6L241.3,146.9L241.2,146.8L241.1,147.1L240.7,147.3L240,147.3L239.8,147.2L239.7,147.3L239.7,147.4L239.5,147.5L239.2,147.5L239,147.6L238.9,147.7L238.5,147.7L238.4,147.9L238.1,147.9L237.1,148.6L236.9,148.8L236.7,149.1L236.5,149.3L236.4,149.4L236.3,149.4L236.2,149.5L236,149.5L235.9,149.5L235.8,149.5L235.7,149.6L235.8,149.8L235.7,149.9L235.4,150L235,150L234.9,150.1L234.8,150.2L234.7,150.2L234.6,150L234.6,149.7L234.8,149.7L234.9,149.6L235.8,149.2L235.7,148.9L235.7,148.8L235.9,148.6L236.1,148.5L236,148.5L235.4,148.5L235.1,148.5L235,148.5L235,148.3L235,148.1L234.9,148.1L235.2,147.9L235.3,147.8L235.4,147.8L235.4,147.7L235.4,147.5L235.4,147.3L236,147L236.2,146.7L236.4,146.5L236.8,145.9L236.9,145.8L237,145.5L237,145.4L236.8,145.3L236.7,145L236.1,144.6L236.1,144.3L236,144.3L236,144.5L235.9,144.6L235.6,144.6L235.5,144.5L234.7,144.4L234.6,144.6L234.4,144.9L234.2,145L234.1,145.1L233.9,145.3L233.3,146.3L233.1,146.3L232,146.9L231.5,147.1L231.1,147.5L231,147.8L230.8,148L230.8,148.4L230.4,148.9L230.2,149L230.1,149.1L229.9,149.1L229.8,149.1L229.5,149.1L229.2,149.2L228.9,149.3L228.6,149L228.3,148.9L228,149L227.8,149.2L227.5,149.9L227.3,150.3L227.3,150.5L227.5,151L227.8,151.3L228.3,151.7L229.4,151.9L229.6,151.8L229.9,151.8L230.2,152L230.4,152.4L230.4,152.6L230.4,152.7L230.4,152.8L230.5,152.9L230.4,153L230.3,153.1L230.2,153.4L230.2,153.9L230.3,154L230.5,154.2L230.9,154.4L231.2,154.4L231.9,154.3L232.1,154.1L232.1,154L232.1,153.8L232.7,153.4L233,153.1L232.9,153L232.9,153L232.9,152.9L233.1,152.9L233.9,152.6L234.5,152.8L234.8,153.2L235.2,153.2L235.4,153.4L235.7,153.5L236.1,153.5L236.4,153.6L236.5,153.4L236.5,153.3L236.7,153.4L236.8,153.5L237.1,153.7L237.4,153.7L237.7,153.6L237.8,153.7L237.6,153.9L237.6,154.2L237.5,154.4L237.3,154.5L237.4,154.6L237.5,154.7L237.5,154.8L237.4,154.9L237.1,155.1L237,155.1L236.9,155.1L236.9,155L236.9,154.9L236.8,154.8L236.5,154.8L236.3,154.8L235.8,155.1L235.2,155.4L234.7,155.6L234.5,155.7L234.4,155.7L234.1,155.6L234,155.6L234,155.7L234.2,155.9L234.2,156L234.2,156.1L234.1,156.2L233.9,156.1L233.8,156.2L233.7,156.4L233.7,156.8L233.6,156.9L233.4,157L233.1,157.1L233.1,157L233,157L233,156.8L233,156.7L232.9,156.7L232.7,156.7L232.6,156.9L232.5,157L232.7,157.2L232.9,157.2L232.9,157.3L232.8,157.4L232.5,157.6L232.4,157.8L232.3,157.9L232.2,158L232.1,158.1L232,158.2L231.8,158.3L231.5,158.6L231.4,158.9L231.2,159L231,159.5L230.7,159.7L230.6,160.1L230.7,160.4L231,160.4L231.2,160.5L231.5,160.8L231.9,161L232.3,161.1L232.8,161.4L232.9,161.6L233,161.8L233.2,162.6L233.4,162.9L233.4,163.1L233.6,163.5L233.8,164.1L234.1,164.7L234.2,165.1L234.1,165.3L234.1,165.5L234.4,165.7L235,166L235.1,166.1L235.2,166.2L235.2,166.6L235.3,166.7L235.4,166.8L235.8,167L235.9,167.1L236.1,167.4L236.1,167.6L236.2,167.8L235.9,167.8L235.8,167.8L235.1,167.5L234.9,167.4L234.7,167.5L234.3,167.4L234,167L233.7,166.9L233.4,166.9L232.7,167.2L232.5,167.2L232.5,167.2L232.4,167.3L232.7,167.3L233.1,167.2L233.4,167.1L233.8,167.2L233.9,167.3L234,167.6L234.3,167.7L234.5,167.8L234.8,168L235.1,168.4L235.7,168.8L236,169.1L236.1,169.4L236.2,169.7L236,169.8L235.8,169.8L235.5,169.9L235.2,170L235,170.2L234.4,170.6L234.3,170.8L234.2,171L234,171.1L233.6,171L233.3,171L232.8,171.2L232.7,171.3L232.8,171.3L232.9,171.3L233.1,171.3L233.4,171.2L233.6,171.6L234.2,171.5L234.7,171.2L234.9,171.2L235.1,171.2L235.3,171.4L235.8,171.9L236,172L236.3,172.1L236.5,172.2L236.6,172.2L236.2,172.4L235.8,172.9L235.6,173L235.4,173.1L235.8,173L236.1,172.8L236.2,172.8L236.3,172.8L236.4,173.1L236.3,173.9L236.1,173.9L236,173.7L235.9,173.6L235.7,173.7L235.5,173.7L235.4,173.8L235.3,173.9L235.5,174L235.7,174.2L235.8,174.3L235.7,174.4L235.5,174.4L235.7,174.6L235.7,174.8L235.6,174.9L235.4,174.9L235.4,175.1L235.5,175.4L235.6,175.7L235.6,175.9L235.4,175.8L235.1,176L234.9,176L234.8,175.8L234.7,175.8L234.6,175.9L234.5,176.2L234.3,176.5L234.2,176.6L234,176.5L233.9,176.5L233.9,176.6L234,176.7L234,176.8L233.7,177.2L233.7,177.3L233.7,177.4L233.5,177.5L233.6,177.8L233.6,177.9L233.4,178.1L233.3,178.3L233.1,178.5L232.9,178.6L232.6,179.1L232.5,179.4L232.5,179.6L232.4,179.7L232.3,179.8L232.1,179.8L232.1,179.6L232,179.6L232,179.5L232,179.3L232,179.2L231.9,179.3L231.9,179.4L231.8,179.5L231.6,179.4L231.5,179.4L231.5,179.5L231.6,179.6L231.6,179.7L231.8,179.8L231.9,179.9L232,180.1L232,180.2L232.1,180.3L232.1,180.4L231.9,180.5L231.7,180.6L231.5,180.9L231.2,181L231.1,181L230.9,181L230.8,180.9L230.6,180.9L230.8,181.2L231,181.3L231.2,181.3L231.3,181.1L231.6,181.1L231.6,181.3L231.6,181.6L231.4,181.8L231.4,182.1L231.6,182.4L231.6,182.5L231.5,182.6L231.3,182.5L231.2,182.4L231,182.4L230.8,182.4L230.7,182.4L230.6,182.5L230.6,182.6L230.8,182.7L230.9,182.9L230.8,183L230.4,182.9L230.2,182.9L230.1,183.1L230.2,183.4L230.1,183.6L229.9,183.6L229.7,183.8L229.6,183.8L229.6,183.8L229.7,183.9L229.7,184L229.6,184.3L229.4,184.4L229.1,184.3L228.9,184.4L228.7,184.3L228.4,184.3L228.3,184.4L228.3,184.6L228.1,184.6L228,184.6L227.9,184.6L227.9,184.7L228,184.8L228.3,184.8L228.4,184.9L228.4,185.1L228.1,185.4L227.9,185.6L227.7,185.6L227.6,185.8L227.5,186L227.4,186L227.2,186L227.1,186.1L227.2,186.2L227.2,186.3L227.1,186.5L227,186.6L226.9,186.5L226.9,186.3L226.8,186.3L226.7,186.5L226.5,186.6L226.4,186.6L226.3,186.5L226,186.5L225.9,186.9L225.7,187L225.6,187.1L225.5,187.1L225.6,187.2L225.6,187.3L225.5,187.4L225.4,187.4L225.3,187.5L225.2,187.9L225.1,188L224.9,188L224.7,187.9L224.6,188L224.6,188.1L224.5,188.1L224.3,188.2L223.9,188.3L223.7,188.3L223.4,188.2L223.3,188.3L223.2,188.4L223.1,188.5L222.9,188.5L222.7,188.4L222.5,188.3L222.3,188.4L222.1,188.5L221.9,188.6L221.9,188.7L221.8,188.7L221.6,188.7L221.5,188.5L221.4,188.4L221.3,188.6L221.2,188.7L221.2,188.7L221.2,188.9L221.1,188.9L220.9,188.8L220.8,188.8L220.6,188.9L220.5,188.9L220.5,188.9L220.3,188.9L220.3,188.9L220.2,188.9L220.1,189L220.1,189L219.9,188.9L219.7,188.8L219.6,188.5L219.4,188.3L219.3,188.2L219.3,188L219.2,187.9L219.2,187.7L219.3,187.6L219.1,187.7L218.9,187.8L219,187.9L218.9,188L218.7,188.1L218.7,188.1L218.7,188.2L218.9,188.4L219,188.5L219,188.6L219.2,188.8L219.2,189.2L219.2,189.3L219.2,189.5L219.2,189.6L219.2,189.6L219.1,189.6L219,189.6L219,189.6L219,189.7L219,189.7L218.9,189.7L218.8,189.7L218.7,189.8L218.6,189.9L218.3,189.9L218.2,189.6L218,189.8L218,190.2L217.9,190.3L217.8,190.4L217.6,190.2L217.5,190.3L217.3,190.4L217.3,190.5L217.2,190.6L217,190.5L216.8,190.4L216.9,190.3L216.9,190.2L216.8,190.1L216.7,190.2L216.8,190.3L216.8,190.5L216.7,190.6L216.6,190.7L216.4,190.6L216.2,190.5L216,190.5L215.9,190.4L215.8,190.6L215.7,190.7L215.6,190.7L215.5,190.7L215.4,190.9L215.3,191L215.2,191.1L214.7,191.1L214.6,191.2L214.4,191.2L214.2,191.2L214.1,191.2L214.1,191.2L214,191.2L213.9,191.4L213.7,191.4L213.5,191.5L213.2,191.7L213.1,191.8L212.9,191.8L212.8,191.8L212.8,191.6L212.7,191.6L212.7,191.8L212.7,191.9L212.6,192L212.3,192.2L212.2,192.4L212.3,192.6L212.6,192.7L212.7,192.8L212.7,192.8L212.6,192.9L212.5,193L212.9,193.4L213,193.5L212.9,193.6L212.8,193.7L212.6,193.8L212.2,193.9L211.8,193.8L211.7,193.7L211.7,193.6L211.8,193.6L211.9,193.6L211.8,193.5L211.8,193.5L211.6,193.4L211.5,193.1L211.5,192.9L211.4,192.8L211.3,192.7L211.3,192.6L211.2,192.5L211.3,192.2L211.2,192L211.4,191.8L211.5,191.6L211.7,191.5L211.8,191.3L211.5,191.2L211.4,191.1L211.4,191.1L211.3,191.2L211.1,190.8L211,190.8L210.9,190.8L211,191.1L210.7,191.3L210.6,191.3L210.3,191.3L210.2,191.4L210,191.3L210.1,191.2L210.1,191.1L210.1,191L209.9,190.9L209.7,190.9L209.5,190.9L209.4,190.9L209.3,190.9L209.2,190.7L209.1,190.6L209,190.5L209.1,190.4L209,190.3L208.8,190.3L208.8,190.5L208.8,190.7L208.9,190.8L208.8,190.9L208.7,191L208.6,190.8L208.5,190.8L208.5,190.8L208.4,190.9L208.3,191.1L208.1,191.1L207.9,191.2ZM213.7,194.5L213.8,194.6L213.9,194.7L213.9,195L214,195.2L213.8,195.4L213.6,195.4L213.2,196L213.1,196.2L213.1,196.3L213,196.4L213.1,196.4L213,196.7L212.9,197.1L212.8,197.2L212.7,197.3L212.6,197.4L212.5,197.4L212.4,197.4L212.2,197.6L212,197.7L212,197.8L212,197.8L211.9,197.9L211.8,197.9L211.5,198L211.4,198.1L211.3,198.3L211.2,198.3L211.1,198.3L210.9,198.3L210.7,198.2L210.6,198.2L210.2,198.1L209.9,198L209.7,197.9L209.2,197.7L209.2,197.2L209.1,196.9L209.1,196.9L209.1,196.1L209.2,196L209.2,195.9L209.4,195.8L209.7,195.6L210,195.3L210.2,195.2L210.4,195L210.3,195L210.2,195L210.3,194.8L210.4,194.7L210.5,194.7L210.7,194.7L210.9,194.7L211,194.6L211.2,194.5L211.7,194.6L212.1,194.5L212.2,194.4L212.3,194.4L212.6,194.4L212.7,194.5L212.7,194.4L212.7,194.4L212.8,194.4L213.1,194.5L213.1,194.3L213.1,194.3L213.2,194.2L213.3,194.2L213.4,194.4L213.6,194.5Z" fill="#b8e653" stroke="#0c0e06" stroke-width="1"/></svg>
