<svg xmlns="http://www.w3.org/2000/svg" viewBox="0 0 300 300"><path fill="#e8e8ea" d="M175.3,29.1L174.8,29.2L174,29.7L172,30.5L169.1,31.2L165.4,32.2L164.5,33.2L160.9,39.6L157.8,40.9L156.7,41.9L155.9,43.1L154,45.3L153.3,47L151.3,50.7L150.1,55.4L149.7,58L149.1,61.8L148.2,63.7L147.1,65.5L145.8,67.2L144.7,69.1L143.7,70.6L143.6,71.1L144,71.5L146.2,71.1L147.1,70.7L148.4,70.1L149.1,70.4L149.9,72.1L150.7,72.3L151.5,72.1L152.4,72.5L153.5,76.6L154.4,80L156.6,82.2L158.3,83.9L158.7,85.4L159.1,87.5L159.2,88.5L158.7,89.1L157.8,90.4L157.6,92.8L157.5,93.6L157.3,95.9L157.5,97.3L157.9,98.4L158.6,99L160.1,99.3L161.5,99.7L162.3,101.6L163.4,104L164.7,105L166.4,105.7L167.7,105.4L170.6,105L173.1,105.1L176.9,105.7L178.3,105.7L180.1,105.6L183.2,104.3L184.3,104.1L185.6,104.2L187.4,104.9L188.5,105.4L189.8,105.9L191.6,106.3L192.8,106.3L193.7,106.2L194.3,106.5L197.2,110.2L199.8,113.4L202,116.1L204.4,119L204.6,119.2L205.7,118.8L206.5,119L207.1,119.6L208.2,119.3L209.9,118.2L212.2,118L215.3,118.7L219.5,118.7L224.5,118L227.7,117.3L228.9,116.6L231,116.7L233.5,117.3L234.8,118.3L235,119.2L235.5,120.7L234.9,122.2L233.4,123.7L232.5,125.6L232.3,128L231.5,129.7L230.1,130.8L229.4,132.5L229.8,134.6L229.6,137.8L229,141.9L229,144.3L229.6,145.1L229.9,146.3L229.9,147.8L230.1,149.1L230.9,150.9L232,154.3L232.9,155.8L233.7,156.4L234.5,157L236.9,160.6L237.4,161.3L237.3,162L237,162.4L236.8,162.7L234.3,164.8L229.3,169.4L228.9,170L228.9,171L230.4,170.3L231.9,170.8L232.7,171L233,171.3L233.5,172.6L234,172.8L234.7,173.3L236.2,174.6L237.4,176L238.3,176.6L239,177.2L239.2,178.1L238.9,179L239.7,181.1L240.2,181.7L240.5,182.5L240.2,183.3L240.9,184.2L241.6,186L242.4,188.2L242.6,189.5L242.9,190L243.3,191.7L244.1,193.2L243.9,194.3L244.2,195.3L241.2,196L241,195.9L240.8,195.5L240.9,192.6L240.9,189.2L240.4,187.9L239,185.7L237.3,182.8L236.8,181.9L236,181.5L235.1,181.4L234.5,181.6L233.6,182.1L232.8,182.7L231.2,184.5L229.6,186.5L228.7,187L227.8,187.2L226.9,187.1L226.3,186.6L225.5,185.4L224.8,184L223.8,183.5L223.4,183.9L223,184.8L222.8,185.7L223.5,186.8L224,187.6L223,187.6L219.9,187.6L216.2,187.6L212.6,187.6L209.4,187.6L206.3,187.6L205.1,187.5L203.9,187L202.8,186.8L202.3,186.8L201.1,187.3L199.8,187.4L198.9,187.8L198.1,187.8L198.1,190.3L198.1,194L198,197.9L198.9,197.6L199.6,197.6L200.1,197.9L201.7,197.6L202.4,197.8L203.2,197.9L203.9,197.9L204.4,198.2L205,198.1L205.7,197.8L206.4,198L207.2,198.5L207.8,199.4L208.2,200.4L208.7,200.9L208.7,201.8L208.7,202.6L208.5,203.2L208.7,203.6L208.9,204.1L208.9,204.3L208.6,204.4L208,204.5L207.3,204.6L206.8,204.6L206.5,204.2L206.2,204.1L205.7,204.2L205.2,203.9L204.7,203.5L203.9,203L203.1,203.2L202.5,203.4L201.9,203.7L201.4,204L200.8,204L200.1,204.2L199.5,204.6L198.7,204.9L197.9,205L196.9,205.2L196,205.2L194.9,205.3L194.8,207.4L194.7,211.3L194.7,214L194.7,216.4L195.1,217.3L197,219.2L198.4,220.2L199.6,221.3L200.9,221.8L201.4,222.2L201.8,222.9L201.9,223.6L202.1,224.2L201.9,224.9L201.7,225.5L201.8,226.1L202.2,226.6L202.3,227.3L202.7,227.9L202.8,228.5L203.2,228.9L203.7,229.3L204.3,229.8L204.4,230.2L204.3,230.8L204.3,231.2L204.9,232.1L205.1,232.8L204.8,233.6L204.5,236.3L203.8,239.4L203.4,241.8L202.7,245.7L201.9,250.2L200.9,255.7L199.9,261.1L198.9,266.3L198.1,271.1L197.1,276.3L196.6,279.5L196.3,280L195.5,278.9L194.3,277.8L193.2,277.1L192.7,276.3L192.1,274.5L191.1,273.9L190.5,273.5L189.9,273.5L189.2,274L188.2,274.3L187.5,274.3L184.8,273.1L184.4,273L186.1,270.2L189.3,265.3L191.3,262.2L193.4,258.7L194.6,256.9L194.7,256.6L194.7,256.2L194.3,255.5L193.2,255.2L191.9,254.7L191.2,253.9L190.1,253.5L189.3,252.9L187.8,252.3L186.8,251.8L185.7,251.6L184.8,250.6L181.6,248.7L180.7,248.5L179.8,248.8L178.5,249.1L177.2,250.2L175.6,250.5L174.1,250.5L173.3,249.9L172.6,249.6L171.6,248.8L169.8,248.1L168.6,247.7L167.8,247.9L166.8,248.8L165.8,249.8L165,250.4L163.9,250.3L162.6,251.2L161.4,251.5L160.1,251.6L158.6,251.9L157,251.4L155.7,251L155.1,250.8L154.5,250.9L153.7,251.4L152.1,251.6L151,251.6L150.1,251.4L149.4,250.6L148.2,250.1L146.8,249.6L146.6,248.5L146.7,247.7L147.3,246.5L147,245.3L146.5,243.5L146.2,242.7L145.8,242L145.1,241.8L143.8,241.9L142.4,241.2L141.5,240.5L141.1,239.7L141.6,238.1L141.2,236.7L140.3,236L139.8,234.7L138.9,233.7L137.9,233.1L136.7,233.2L135.9,232.8L134.8,231.7L134,231.3L132.9,230.2L130.9,229.8L129.9,229.3L129.3,228.7L128.5,227.5L128.7,226.8L128.3,226.2L127.9,225L127.3,223.3L126.5,222.3L125.8,221.6L125.1,220.9L124.2,220L123,219.5L122,218.9L121.6,218.1L121.3,217.4L120.8,217.4L119.9,217.4L119.1,217.2L118.2,216.7L117.4,216.1L116.1,215.1L115.4,214.9L114.8,214.9L113.8,215.9L111,214.9L108.7,213.3L106.2,212.9L104.6,211.9L103.1,210.5L102.3,209.4L101.7,208.9L98.5,207.5L97.9,207.3L96.7,208L96.3,208.4L96.2,209.6L96.1,210.2L95.1,210.6L93.4,210.6L92.2,210.1L91.4,210.1L91.3,210.4L90.8,210.5L89.9,210.5L88.5,210.1L87.2,209.7L85.5,208.8L84.7,208.9L82.7,208.7L81.1,208.2L80.7,207.7L80,204.4L79.8,204.2L79.1,204L77.9,203.6L77.2,203.1L76.8,202.2L76.4,201.3L74.4,201.5L71.2,200.4L68.9,199.3L66.9,198.1L63.8,195.7L62.6,195.1L61.2,194.4L60.3,193.2L58.9,192L58.4,191.7L57.9,190.6L55.8,189.1L56.9,187.1L59.5,185.6L62.8,186.8L63.2,184.5L62,182.4L62.2,178.5L62.6,177.7L63.5,176.7L64.6,176L65.3,175.8L66.4,176.1L67.2,175.3L69.9,175.7L70.7,175.4L71.3,174.8L72,174.5L72.8,173.5L73.3,172.4L73.7,172L74.6,172.2L74.7,171.7L75.2,171.1L76.9,169.6L76.8,169L76.4,167.6L76.5,167.1L77.4,167L78.6,166.6L79.2,165.3L79.9,164.1L80.8,162.4L81.7,162.3L82.2,160.4L83.4,158.7L86,153.6L85.3,153.7L84.7,154.4L84,154.3L83.2,153.9L83.4,151.6L82.9,151.3L81.7,153.1L80.6,151.3L80.5,150.2L80.9,149.1L80.9,148.4L79.2,148.9L79.3,148.3L80.3,147.6L80.8,146.8L81.8,146L82.2,144.9L82.4,143L82.8,141L82.5,140L82,139.2L81.6,135.5L81.7,133.3L81.4,131.6L81,130.2L78.9,128.3L82.2,126.2L83.4,124.5L81.9,121.2L79.9,118.3L79.9,116.7L80.4,116.9L81,116.8L81.7,113.2L81.5,112.1L80.4,110.3L79.1,110.3L77.9,108L77.2,107.5L76.7,106.1L74.8,103.4L73.3,101.9L74.4,98.6L75.4,97.9L75.7,97.1L75.3,95L75.4,94.6L75.6,94.4L75.9,94.4L76.3,94.7L77,95.6L77.6,96.7L78.1,97L78.9,96.7L81.8,94.5L81.6,93.8L81.9,92.4L82.8,91.3L83.9,90.9L84.2,90.3L84,89.3L82.8,86.9L81.9,85.6L81.3,84.4L80.9,83.2L79.8,82.1L80.3,81L81.2,79.8L81.4,79.6L81.9,79.9L83.2,82.1L85.2,83.6L87.4,85.9L88.2,87.5L88.9,87.8L89.5,88.4L89.3,88.9L88.6,89.3L88.4,90.3L88.9,90.8L89.3,91.1L90.5,90.9L91.2,89.8L90.8,85L90,82.6L89.2,81.8L88.5,80.9L89,80.2L90.3,79.8L92,79L98.5,74.3L100.6,70L102.3,68.4L104.2,67.4L106.5,67.7L108.3,67.1L108.9,65.7L108.4,63.8L107.7,62.7L108.3,61.1L109.1,58.6L109,56.5L109.9,55.2L109.6,54.8L108.3,55.8L107.3,56.2L107.8,55.4L109.7,53.3L110.6,50.2L111.3,48.8L113.9,47L114.4,46.1L116.3,44.8L119.4,41.8L120.7,41L126.7,42.9L128.6,42.8L128.3,43.1L127.4,43.2L126.1,43.7L125.8,44.9L126.6,46.1L127.5,46.4L128.3,45.6L129.1,43.4L130.3,41L130.7,38.5L131.5,37.6L132.8,37.3L135.1,37.8L136.9,38.3L138.8,38.4L144.4,38L153.5,31.4L157.8,30L160.5,28.6L162.2,25.9L162.6,23.9L163.9,23.1L165.2,23.1L165.8,22.6L166,22L169.2,20.2L171,20L172.6,20L176.2,21.6L177.8,24.3L178.1,26.1L175.9,28.2Z"/></svg>
