<svg xmlns="http://www.w3.org/2000/svg" viewBox="0 0 400 300"><path d="M209.2,31L209.9,35.3L209.3,38.3L207.5,39.6L209.4,42L209.3,44.1L204.3,42.8L200.8,43.4L196.3,42.8L192.8,44.2L188.8,41.8L189.4,39.3L196.3,40.4L201.9,41L204.6,39.2L201.2,35.8L201.2,32.8L196.6,31.6L198.2,29.4L202.8,29.7Z" fill="#2c2c34" stroke="#474751" stroke-width="0.8"/><path d="M209.3,44.1L209.4,42L207.5,39.6L209.3,38.3L209.9,35.3L209.2,31L210.2,29.6L216,29.7L220.4,31.7L222.4,31.5L223.7,34.3L227.8,34.2L227.5,36.5L230.9,36.8L234.5,39.7L231.8,42.9L228.2,41.2L224.8,41.5L222.3,41.1L221,42.6L218.2,43L217,41.1L214.5,42.3L211.6,47.6L209.6,46.4Z" fill="#2c2c34" stroke="#474751" stroke-width="0.8"/><path d="M15.2,0L15,5.2L14.3,9.2L15.5,13.6L17.9,17.5L19.4,23.7L24.3,29.6L26,34.1L29,38L36.9,40.1L39.9,43.4L46.5,41.2L52.2,40.4L57.8,39L62.5,37.6L67.2,34.4L69,29.8L69.6,23.1L70.8,20.8L75.9,18.7L83.8,16.8L90.4,17.1L94.9,16.4L96.7,18.1L96.4,22L92.4,26.7L90.7,31.5L92,32.9L90.9,36.3L89.1,42.5L87.2,40.4L85.6,40.6L84.2,40.7L81.5,45.4L80.2,44.5L79.3,44.8L79.3,46L72.4,45.9L65.5,45.9L65.5,50.3L62.1,50.3L64.9,52.9L67.6,54.7L68.5,56.4L69.7,56.9L69.5,59.5L59.9,59.6L56.3,65.9L57.4,67.3L56.5,69.1L56.3,71.4L47.9,63.1L44,60.5L38,58.5L33.8,59.1L27.8,62L24.1,62.8L18.8,60.7L13.2,59.2L6.2,55.7L0.7,54.6L0,54.3L0,0Z" fill="#2c2c34" stroke="#474751" stroke-width="0.8"/><path d="M294.2,300L292.5,294.7L294.6,294.6L294.6,291.3L293.1,289L292.8,284.6L288.4,282.3L283.8,282.4L280.7,280.2L275.6,278.6L272.7,275.8L264.4,274.5L256.3,267.7L256.9,262.6L256,259.7L256.7,254L247,255.3L243.1,258.1L236.5,261.2L234.9,263.5L231,263.7L225.5,263L221.3,264.3L217.9,263.5L218.4,252L212.3,256.4L205.7,256.2L202.9,252.2L197.9,251.8L199.5,248.5L195.4,243.9L192.3,237.1L194.2,235.8L194.2,232.6L198.8,230.4L198,226.4L199.9,223.8L200.4,220.3L209,215.2L215.1,213.7L216.1,212.6L222.8,213L226.1,192.5L226.3,189.3L225.2,185L221.9,182.3L221.9,176.9L226.1,175.6L227.6,176.4L227.8,173.6L223.5,172.8L223.4,168.1L237.9,168.3L240.3,165.7L242.4,168.1L243.9,172.5L245.3,171.6L249.4,175.5L255.2,175L256.6,172.7L262.2,171L265.2,169.8L266.1,166.6L271.4,164.5L271,162.9L264.7,162.3L263.7,157.6L264,152.6L260.6,150.7L262,150L267.5,150.9L273.5,152.8L275.6,151L281,149.9L289.3,147.1L292,144.2L291.1,142.1L294.9,141.8L296.7,143.5L295.7,146.8L298.3,147.9L300,151.4L297.9,154L296.7,160.4L298.6,164.1L299.2,167.6L303.7,171.1L307.4,171.5L308.2,170L310.6,169.7L314,168.4L316.4,166.4L320.5,167L322.3,166.7L326.4,167.4L327,165.8L325.8,164.3L326.5,162.2L329.6,162.9L333.1,162.1L337.3,163.7L340.6,165.2L342.9,163.2L344.6,163.5L345.6,165.6L349.1,165.1L352,162.2L354.3,156.7L358.7,149.9L361.2,149.6L363.1,153.7L367.3,166.7L371.3,168L371.4,173.1L365.9,179.2L368.2,181.5L381.3,182.7L381.6,190.1L387.3,185.2L396.6,187.9L400,189.2L400,300Z" fill="#2c2c34" stroke="#474751" stroke-width="0.8"/><path d="M227,300L226.5,299.1L228.2,296.5L226.9,293.6L229.8,289.8L230,283.3L230.3,277.9L231.9,275.3L225.5,263L225.5,263L231,263.7L234.9,263.5L236.5,261.2L243.1,258.1L247,255.3L256.7,254L256,259.7L256.9,262.6L256.3,267.7L264.4,274.5L272.7,275.8L275.6,278.6L280.7,280.2L283.8,282.4L288.4,282.3L292.8,284.6L293.1,289L294.6,291.3L294.6,294.6L292.5,294.7L294.2,300L227,300Z" fill="#2c2c34" stroke="#474751" stroke-width="0.8"/><path d="M189.2,300L182.9,296.1L177.2,291.3L174.1,284.9L175.4,282.7L169,272.7L161.7,258.7L154.6,243.6L151.6,240.2L149.2,234.7L143.5,229.8L138.1,226.7L140.6,223.4L137,216.3L139.3,211L145.2,206.3L146.1,209.4L144,211.2L144.2,213.9L147.2,213.3L150.3,214.1L153.4,217.9L157.6,214.8L159,209.8L163.6,203.3L172.5,200.4L180.7,192.5L183,187.7L182,182L183.9,181.3L188.9,184.9L191.3,188.4L194.7,190.3L199.1,198.1L204.7,199.1L208.8,197.1L211.5,198.4L215.9,197.7L221.6,201.2L216.8,208.8L219.1,209L222.8,213L222.8,213L216.1,212.6L215.1,213.7L209,215.2L200.4,220.3L199.9,223.8L198,226.4L198.8,230.4L194.2,232.6L194.2,235.8L192.3,237.1L195.4,243.9L199.5,248.5L197.9,251.8L202.9,252.2L205.7,256.2L212.3,256.4L218.4,252L217.9,263.5L221.3,264.3L225.5,263L231.9,275.3L230.3,277.9L230,283.3L229.8,289.8L226.9,293.6L228.2,296.5L226.5,299.1L227,300L189.2,300Z" fill="#2c2c34" stroke="#474751" stroke-width="0.8"/><path d="M167.2,116L166.3,117.1L168,121.6L166.6,123.8L164.2,123.3L163.3,126.9L160.8,124.8L159.2,120.7L161,118.7L159.1,118.2L157.7,115.7L154,113.6L150.8,114.1L149.2,116.7L146.2,118.6L144.6,118.8L143.9,120.4L147.4,124.5L145.4,125.5L144.3,126.6L140.9,126.9L139.6,122.5L138.6,123.7L136.1,123.3L134.6,120.3L131.6,119.8L129.6,118.9L126.4,118.9L126.2,120.5L125.4,119.4L125.7,117.9L126.4,116.4L126.1,115L127.2,114.1L125.6,113L125.6,109.9L128.5,109.3L131.2,112L131,113.6L134,113.9L134.7,113.3L136.7,115.2L140.4,114.6L143.6,112.7L148.1,111.2L150.6,108.9L154.7,109.4L154.5,110.1L158.6,110.4L162,111.7L164.4,113.9Z" fill="#2c2c34" stroke="#474751" stroke-width="0.8"/><path d="M128.5,109.3L125.6,109.9L125.6,113L127.2,114.1L126.1,115L126.4,116.4L125.7,117.9L125.4,119.4L121.3,117.7L119.8,116.1L120.7,114.8L120.4,113.2L118.3,111.4L115.4,109.9L112.8,108.9L112.3,106.7L110.4,105.3L110.9,107.5L109.4,109.3L107.7,107.2L105.3,106.5L104.3,105L104.3,102.7L105.3,100.3L103.2,99.2L104.9,97.7L106,96.8L110.9,98.8L112.6,97.8L115,98.4L116.2,100L118.4,100.5L120.2,98.9L122.1,103L125,106Z" fill="#2c2c34" stroke="#474751" stroke-width="0.8"/><path d="M120.2,98.9L118.4,100.5L116.2,100L115,98.4L112.6,97.8L110.9,98.8L106,96.8L104.9,97.7L102.3,95.4L98.8,92.3L97.2,89.7L94.1,87.3L90.3,83.9L91.1,82.7L92.4,83.8L92.9,83.3L95.2,83L96.2,81.2L97.3,81.2L97.1,77.4L98.9,77.2L100.4,77.3L102,75.2L104.2,76.8L105,75.8L106.4,74.9L109,72.8L109.1,71.2L109.8,71.3L110.8,69.4L111.6,69.2L112.8,70.4L114.3,70.7L116,69.7L117.8,69.7L120.4,68.7L121.5,67.7L124,67.8L123.4,68.6L123,70.3L123.8,73.1L122,75.7L121.2,78.8L121,82.2L121.4,84.2L121.6,87.6L120.4,88.4L119.7,91.6L120.2,93.6L118.7,95.6L119.1,97.6Z" fill="#2c2c34" stroke="#474751" stroke-width="0.8"/><path d="M124,67.8L121.5,67.7L120.4,68.7L117.8,69.7L116,69.7L114.3,70.7L112.8,70.4L111.6,69.2L110.8,69.4L109.8,71.3L109.1,71.2L109,72.8L106.4,74.9L105,75.8L104.2,76.8L102,75.2L100.4,77.3L98.9,77.2L97.1,77.4L97.3,81.2L96.2,81.2L95.2,83L92.9,83.3L91.6,80.9L89.4,80.2L89.9,77.2L88.9,76.3L87.3,75.8L84.1,76.7L83.8,75.7L81.6,74.4L79.9,72.9L77.7,72.2L79.3,70.3L78.7,68.8L79.2,67.3L82.8,65.1L86.2,62.2L86.9,62.5L88.6,61.1L90.7,61L91.4,61.6L92.6,61.3L96,62L99.5,61.8L101.9,60.9L102.7,60L105.1,60.4L106.9,61L108.8,60.8L110.3,60.1L113.7,61.2L114.9,61.4L117.2,62.8L119.3,64.5L122,65.7Z" fill="#2c2c34" stroke="#474751" stroke-width="0.8"/><path d="M77.7,72.2L79.9,72.9L81.6,74.4L83.8,75.7L84.1,76.7L87.3,75.8L88.9,76.3L89.9,77.2L89.4,80.2L88.6,82L84.2,81.9L81.6,81.2L78.5,79.7L74.3,79.2L72.2,77.5L72.5,76.4L75,74.5L76.4,73.6L76,72.7Z" fill="#2c2c34" stroke="#474751" stroke-width="0.8"/><path d="M56.3,71.4L56.5,69.1L57.4,67.3L56.3,65.9L59.9,59.6L69.5,59.5L69.7,56.9L68.5,56.4L67.6,54.7L64.9,52.9L62.1,50.3L65.5,50.3L65.5,45.9L72.4,45.9L79.3,46L79.3,52.2L78.7,61L80.9,61L83.3,62.4L84,61.2L86.2,62.2L82.8,65.1L79.2,67.3L78.7,68.8L79.3,70.3L77.7,72.2L76,72.7L76.4,73.6L75,74.5L72.5,76.4L72.2,77.5L68.4,76.2L63.7,76.1L60.3,74.5Z" fill="#2c2c34" stroke="#474751" stroke-width="0.8"/><path d="M79.3,46L79.3,44.8L80.2,44.5L81.5,45.4L84.2,40.7L85.6,40.6L85.6,41.7L87.1,41.8L86.9,43.9L85.7,47.3L86.4,48.5L85.6,51.3L86.1,52L85.2,56L83.7,58L82.4,58.3L80.9,61L78.7,61L79.3,52.2Z" fill="#2c2c34" stroke="#474751" stroke-width="0.8"/><path d="M291.1,142.1L292,144.2L289.3,147.1L281,149.9L275.6,151L273.5,152.8L267.5,150.9L262,150L260.6,150.7L264,152.6L263.7,157.6L264.7,162.3L271,162.9L271.4,164.5L266.1,166.6L265.2,169.8L262.2,171L256.6,172.7L255.2,175L249.4,175.5L245.3,171.6L243,164.1L241,161.5L238.3,159.9L242.1,156.2L241.8,154.5L239.7,152.3L238.2,147.3L238.8,141.9L240.5,139.4L241.8,135.4L239.2,134.1L234.9,135L229.6,134.6L226.5,135.4L221.3,128.9L217,127.9L207.4,128.7L205.6,126L203.8,125.4L203.5,123.9L204.4,121.1L203.8,118L202.2,116.4L201.2,112.9L197.4,112.4L199.4,108L200.3,102.6L202.5,99.8L205.4,97.6L207.3,93.8L212.1,92.5L211.8,94.3L207.5,95.2L209.9,98.6L209.8,102.6L206.5,107L209.4,113L212.6,112.5L214.2,107.1L211.9,104.4L211.6,98.7L220.8,95.6L219.8,92L222.4,89.6L225.1,94.9L230.3,95L235.2,99.3L235.5,101.8L242.1,101.9L250.1,101.1L254.4,104.5L260.1,105.4L264.2,103L264.4,101.1L273.6,100.7L282.5,100.6L276.2,102.8L278.7,106.4L284.7,107L290.3,110.7L291.5,116.7L295.4,116.6L298.3,118.3L292.4,122.7L291.8,125.5L294.3,128.3L292.5,129.7L287.9,130.9L288,134.4L286,136.4Z" fill="#2c2c34" stroke="#474751" stroke-width="0.8"/><path d="M322.3,166.7L320.5,167L316.4,166.4L314,168.4L310.6,169.7L308.2,170L307.4,171.5L303.7,171.1L299.2,167.6L298.6,164.1L296.7,160.4L297.9,154L300,151.4L298.3,147.9L295.7,146.8L296.7,143.5L294.9,141.8L291.1,142.1L286,136.4L288,134.4L287.9,130.9L292.5,129.7L294.3,128.3L291.8,125.5L292.4,122.7L298.3,118.3L303.2,121.1L307.8,126L308,129.9L310.9,130L314.9,133.7L317.8,136.3L316.6,143L312.1,145L312.5,146.8L311.1,150.6L314.4,156L316.8,156L317.8,160.3Z" fill="#2c2c34" stroke="#474751" stroke-width="0.8"/><path d="M337.3,163.7L333.1,162.1L329.6,162.9L326.5,162.2L325.8,164.3L327,165.8L326.4,167.4L322.3,166.7L317.8,160.3L316.8,156L314.4,156L311.1,150.6L312.5,146.8L312.1,145L316.6,143L317.8,136.3L326.7,137.8L327.5,136.5L333.6,135.9L341.5,137.9L337.7,144.4L338.3,149.5L341.2,153.9L339.9,157.1L339.2,160.5Z" fill="#2c2c34" stroke="#474751" stroke-width="0.8"/><path d="M358.7,149.9L354.3,156.7L352,162.2L349.1,165.1L345.6,165.6L344.6,163.5L342.9,163.2L340.6,165.2L337.3,163.7L339.2,160.5L339.9,157.1L341.2,153.9L338.3,149.5L337.7,144.4L341.5,137.9L344.1,138.8L349.6,140.5L357.5,146.8Z" fill="#2c2c34" stroke="#474751" stroke-width="0.8"/><path d="M182,182L183,187.7L180.7,192.5L172.5,200.4L163.6,203.3L159,209.8L157.6,214.8L153.4,217.9L150.3,214.1L147.2,213.3L144.2,213.9L144,211.2L146.1,209.4L145.2,206.3L149.2,200.7L147.6,197.5L144.7,200.9L140.3,197.7L141.8,195.6L140.5,188.8L143.1,187.7L144.5,183L147.3,178.2L146.8,175.2L150.9,173.6L156,170.6L163.4,174.9L164.8,174.7L166.7,178L173,179L175.1,177.8L178.8,180.3Z" fill="#2c2c34" stroke="#474751" stroke-width="0.8"/><path d="M249.7,40.4L253.5,41.1L254.9,42.7L253,44.7L247.3,44.6L243,44.9L242.5,41.5L243.6,40.4Z" fill="#2c2c34" stroke="#474751" stroke-width="0.8"/><path d="M165.6,40.6L170.6,41.3L174.6,43.2L175.8,45.4L170.6,45.5L168.3,46.8L164.1,45.6L159.8,42.7L160.8,40.9L163.9,40.4Z" fill="#2c2c34" stroke="#474751" stroke-width="0.8"/><path d="M130.5,3.2L137,3.7L142.9,3.8L149.9,6.6L152.8,9.5L159.8,8.6L162.4,10.5L168.7,15.5L173.4,19.1L175.8,19L180.3,20.6L179.7,22.9L185.2,23.2L190.9,26.5L190,28.3L185,29.3L180,29.7L174.9,29.1L164.2,29.9L169.2,25.4L166.2,23.4L161.4,22.8L158.8,20.5L157,16L152.8,16.3L145.8,14.1L143.6,12.5L133.9,11.2L131.3,9.6L134.1,7.6L126.8,7.2L121.4,11.4L118.3,11.5L117.3,13.5L113.6,14.4L110.4,13.6L114.3,11.1L115.9,8.2L119.3,6.4L123.1,4.8L128.8,4.1Z" fill="#2c2c34" stroke="#474751" stroke-width="0.8"/><path d="M284,100.2L288.3,99.2L289.8,99.5L289.5,105.2L283.3,106L282,105.3L284.2,103.2Z" fill="#2c2c34" stroke="#474751" stroke-width="0.8"/><path d="M212.2,91.9L211.9,91.9L211.6,92.2L210.6,92.5L209.2,92.9L207.4,93.3L207,93.8L205.2,96.9L203.8,97.5L203.2,98L202.8,98.6L201.9,99.7L201.6,100.5L200.6,102.3L200.1,104.5L199.9,105.8L199.6,107.6L199.2,108.5L198.6,109.4L198,110.2L197.4,111.1L197,111.8L196.9,112.1L197.1,112.3L198.2,112.1L198.6,111.9L199.2,111.6L199.6,111.7L199.9,112.5L200.3,112.6L200.7,112.5L201.1,112.7L201.7,114.7L202.1,116.4L203.2,117.4L204,118.2L204.2,118.9L204.4,119.9L204.4,120.4L204.2,120.7L203.8,121.3L203.7,122.5L203.6,122.9L203.5,124L203.6,124.7L203.8,125.2L204.1,125.5L204.9,125.6L205.5,125.8L205.9,126.7L206.5,127.9L207,128.4L207.9,128.7L208.5,128.6L209.9,128.4L211.1,128.4L212.9,128.7L213.6,128.7L214.4,128.6L216,128L216.5,127.9L217.1,128L218,128.3L218.5,128.6L219.1,128.8L220,129L220.6,129L221,129L221.3,129.1L222.7,130.9L223.9,132.4L225,133.7L226.2,135.1L226.3,135.2L226.8,135L227.1,135.1L227.5,135.4L228,135.2L228.8,134.7L229.9,134.6L231.4,134.9L233.4,134.9L235.8,134.6L237.4,134.3L238,133.9L238.9,134L240.1,134.3L240.8,134.8L240.9,135.2L241.1,135.9L240.8,136.6L240.1,137.4L239.6,138.3L239.6,139.4L239.2,140.2L238.5,140.8L238.2,141.6L238.4,142.6L238.3,144.1L238,146.1L238,147.3L238.3,147.7L238.4,148.2L238.4,149L238.5,149.6L238.9,150.4L239.4,152.1L239.9,152.8L240.2,153.1L240.6,153.4L241.8,155.1L242,155.4L242,155.7L241.8,156L241.7,156.1L240.5,157.1L238.1,159.3L237.9,159.6L238,160.1L238.7,159.8L239.4,160L239.8,160.1L239.9,160.3L240.1,160.9L240.4,160.9L240.7,161.2L241.4,161.8L242,162.5L242.5,162.8L242.8,163.1L242.9,163.5L242.8,163.9L243.1,164.9L243.4,165.2L243.5,165.6L243.4,166L243.7,166.4L244,167.3L244.4,168.4L244.5,169L244.7,169.2L244.9,170L245.2,170.8L245.1,171.3L245.3,171.8L243.9,172.1L243.7,172.1L243.7,171.9L243.7,170.5L243.7,168.9L243.5,168.2L242.8,167.2L242,165.8L241.7,165.4L241.4,165.1L240.9,165.1L240.6,165.2L240.2,165.4L239.8,165.7L239.1,166.6L238.3,167.6L237.8,167.8L237.4,167.9L237,167.8L236.7,167.6L236.3,167L235.9,166.3L235.5,166.1L235.3,166.3L235.1,166.7L235,167.1L235.3,167.7L235.6,168.1L235.1,168.1L233.6,168.1L231.8,168.1L230.1,168.1L228.5,168.1L227.1,168.1L226.5,168L225.9,167.8L225.4,167.7L225.1,167.7L224.6,167.9L223.9,168L223.5,168.2L223.1,168.2L223.1,169.4L223.1,171.1L223.1,173L223.5,172.9L223.8,172.9L224.1,173L224.8,172.9L225.2,173L225.6,173L225.9,173L226.1,173.2L226.4,173.1L226.8,173L227.1,173.1L227.5,173.3L227.8,173.7L228,174.2L228.2,174.5L228.2,174.9L228.2,175.3L228.1,175.6L228.2,175.8L228.3,176L228.3,176.1L228.2,176.2L227.9,176.2L227.5,176.2L227.3,176.2L227.2,176L227,176L226.8,176L226.5,175.9L226.3,175.7L225.9,175.5L225.5,175.6L225.2,175.7L224.9,175.8L224.7,176L224.4,175.9L224.1,176.1L223.8,176.2L223.4,176.4L223,176.5L222.6,176.5L222.1,176.5L221.6,176.6L221.6,177.6L221.5,179.5L221.5,180.8L221.5,181.9L221.7,182.4L222.6,183.3L223.3,183.7L223.9,184.3L224.5,184.5L224.7,184.7L224.9,185L225,185.4L225,185.7L225,186L224.8,186.3L224.9,186.6L225.1,186.8L225.2,187.2L225.3,187.4L225.4,187.7L225.6,188L225.8,188.1L226.1,188.4L226.1,188.6L226.1,188.8L226.1,189L226.4,189.5L226.5,189.8L226.3,190.2L226.2,191.5L225.9,193L225.7,194.1L225.3,196L224.9,198.2L224.5,200.8L224,203.4L223.5,205.9L223.1,208.2L222.7,210.7L222.4,212.2L222.3,212.5L221.9,212L221.3,211.4L220.8,211.1L220.5,210.7L220.2,209.9L219.8,209.6L219.5,209.4L219.2,209.4L218.8,209.6L218.4,209.8L218,209.8L216.7,209.2L216.5,209.1L217.4,207.8L218.9,205.4L219.8,203.9L220.9,202.3L221.5,201.4L221.5,201.3L221.5,201.1L221.3,200.7L220.8,200.6L220.2,200.3L219.8,199.9L219.3,199.8L218.9,199.5L218.2,199.2L217.7,198.9L217.2,198.8L216.7,198.4L215.2,197.4L214.8,197.4L214.3,197.5L213.7,197.6L213.1,198.2L212.3,198.3L211.6,198.3L211.2,198L210.9,197.9L210.4,197.5L209.5,197.2L208.9,196.9L208.5,197.1L208.1,197.5L207.6,198L207.2,198.3L206.7,198.2L206.1,198.7L205.5,198.8L204.8,198.9L204.1,199L203.4,198.8L202.7,198.5L202.4,198.4L202.2,198.5L201.8,198.7L201,198.8L200.5,198.9L200.1,198.7L199.7,198.3L199.1,198.1L198.5,197.9L198.4,197.4L198.4,197L198.7,196.4L198.6,195.8L198.3,194.9L198.2,194.6L198,194.2L197.7,194.1L197,194.2L196.4,193.9L195.9,193.5L195.7,193.1L196,192.4L195.7,191.7L195.3,191.4L195.1,190.7L194.7,190.2L194.2,190L193.6,190L193.2,189.8L192.7,189.3L192.3,189.1L191.8,188.6L190.8,188.3L190.4,188.1L190.1,187.8L189.7,187.2L189.7,186.9L189.5,186.6L189.4,186.1L189.1,185.2L188.7,184.8L188.3,184.4L188,184.1L187.6,183.7L187,183.4L186.5,183.1L186.4,182.7L186.2,182.4L186,182.4L185.6,182.4L185.1,182.3L184.7,182.1L184.3,181.8L183.7,181.3L183.4,181.2L183.1,181.2L182.6,181.7L181.3,181.2L180.1,180.4L179,180.2L178.2,179.8L177.5,179.1L177.1,178.6L176.8,178.3L175.2,177.6L175,177.6L174.4,177.9L174.2,178.1L174.1,178.6L174.1,179L173.6,179.2L172.8,179.1L172.2,178.9L171.8,178.9L171.8,179L171.5,179.1L171.1,179.1L170.4,178.9L169.8,178.7L169,178.3L168.6,178.3L167.7,178.2L166.9,178L166.7,177.7L166.3,176.2L166.2,176L165.9,176L165.3,175.8L165,175.5L164.8,175.1L164.6,174.7L163.6,174.8L162.1,174.2L161,173.7L160,173.1L158.6,172L158,171.7L157.3,171.3L156.9,170.8L156.2,170.2L156,170.1L155.7,169.5L154.7,168.8L155.2,167.8L156.5,167.1L158.1,167.7L158.3,166.6L157.7,165.6L157.8,163.7L158,163.3L158.4,162.8L158.9,162.5L159.3,162.4L159.8,162.6L160.2,162.2L161.5,162.4L161.9,162.2L162.2,161.9L162.5,161.8L162.9,161.3L163.1,160.8L163.3,160.6L163.8,160.7L163.8,160.4L164,160.1L164.8,159.4L164.8,159.1L164.6,158.5L164.7,158.2L165.1,158.2L165.7,158L165.9,157.3L166.3,156.8L166.7,156L167.2,155.9L167.4,155L168,154.2L169.2,151.7L168.9,151.8L168.6,152.1L168.2,152.1L167.9,151.9L168,150.8L167.8,150.6L167.1,151.5L166.6,150.6L166.6,150.1L166.8,149.6L166.8,149.2L165.9,149.5L166,149.2L166.5,148.8L166.7,148.5L167.2,148.1L167.4,147.5L167.5,146.6L167.7,145.7L167.5,145.2L167.3,144.8L167.1,143L167.1,142L167,141.2L166.8,140.5L165.8,139.6L167.4,138.5L168,137.8L167.3,136.1L166.3,134.8L166.3,134L166.6,134.1L166.9,134L167.1,132.3L167.1,131.8L166.6,130.9L165.9,130.9L165.3,129.8L165,129.6L164.8,128.9L163.8,127.6L163.1,126.9L163.7,125.3L164.1,125L164.3,124.6L164.1,123.6L164.1,123.4L164.2,123.3L164.4,123.3L164.6,123.4L164.9,123.8L165.2,124.4L165.5,124.5L165.8,124.4L167.2,123.3L167.1,123L167.3,122.3L167.7,121.8L168.2,121.6L168.4,121.3L168.2,120.8L167.7,119.7L167.3,119.1L167,118.4L166.8,117.9L166.3,117.3L166.5,116.8L166.9,116.2L167,116.1L167.3,116.3L167.9,117.4L168.9,118.1L169.9,119.2L170.3,120L170.6,120.1L170.9,120.4L170.8,120.6L170.5,120.8L170.4,121.3L170.6,121.5L170.8,121.7L171.4,121.6L171.7,121.1L171.5,118.7L171.2,117.6L170.8,117.2L170.4,116.8L170.7,116.4L171.3,116.3L172.1,115.9L175.2,113.6L176.3,111.5L177.1,110.8L178,110.3L179.1,110.4L180,110.2L180.2,109.5L180,108.6L179.6,108L180,107.2L180.3,106L180.3,105L180.7,104.4L180.6,104.2L179.9,104.7L179.5,104.9L179.7,104.5L180.6,103.5L181,102L181.4,101.4L182.6,100.5L182.9,100.1L183.8,99.4L185.3,98L185.9,97.6L188.8,98.5L189.7,98.4L189.5,98.6L189.1,98.7L188.5,98.9L188.3,99.5L188.7,100L189.2,100.2L189.6,99.8L190,98.8L190.5,97.6L190.7,96.4L191.1,96L191.7,95.8L192.9,96.1L193.7,96.3L194.6,96.4L197.3,96.2L201.7,93L203.8,92.3L205,91.7L205.9,90.3L206.1,89.4L206.7,89L207.3,89L207.6,88.8L207.7,88.5L209.2,87.6L210.1,87.5L210.9,87.5L212.6,88.3L213.4,89.6L213.5,90.5L212.4,91.4ZM161.5,162L161.3,162.1L160.9,161.8L160.8,161.4L161,161.2L161.4,161.3L161.5,161.5Z" fill="#b8e653" stroke="#0c0e06" stroke-width="1"/></svg>
