<svg xmlns="http://www.w3.org/2000/svg" viewBox="0 0 300 300"><path fill="#e8e8ea" d="M280,154.5L279.7,155.9L278.3,157.5L276.4,159L273.8,160.1L267.7,156.9L261.5,153.3L258.5,154.9L257.1,159.6L254.8,162.1L252,163L250.9,164.5L250.6,180.4L250.9,195.1L255.4,195.6L262.9,200.7L266.3,203.8L267.4,206.5L266.3,207.9L260.7,211.1L255.4,215.2L252.6,220.4L257.3,228.6L258.5,234.2L258.2,240.1L257.1,242.9L246.4,249.6L244.2,252.1L244.5,253.7L250.1,258.4L252.9,262.9L255.4,268.3L255.7,272.9L250.3,264.2L243.1,255.9L236.6,250.9L236.1,238.8L233.5,232.3L224,226.3L215.6,222.2L209.8,223L213.4,229.8L222.9,238.7L223.7,242.1L223.5,246.6L217,245.9L211.2,244L203.9,243.5L199.1,240.8L189,230.2L196.3,221.2L198.6,215.4L198.3,203.1L196.6,197.2L188.8,188L176.4,178.2L159.4,170L151.3,163.6L130.8,158.5L123.3,155.2L117.1,149.1L116.3,144.5L118.5,137.7L112.9,129.1L88.8,111.9L75.4,105.6L72.3,102.1L70.4,100.8L72.3,112.6L78.2,119.7L93.6,126.3L97.8,130.2L99.5,135.2L90.5,144.8L86.1,147.3L84.7,152.5L81.9,154.1L78.8,151.1L66.2,136L42.1,128.8L37.6,124.4L28.7,110.6L24.8,98.1L26.2,89.7L36,76.5L39,70.9L38.5,67.3L38.8,62.3L35.1,58.7L25.9,53.9L20,50.2L21.7,48.2L32.3,43.1L32.9,38.6L32.9,37.1L34.6,36.8L36,35.6L37.1,34.3L39.9,29.9L42.4,27.5L45.2,27.1L48.8,28.8L62,33.7L76.8,38.9L97.8,46.3L106.5,41.6L114,37.9L119.1,38.5L130.5,42.7L137.3,44.1L141.5,43.7L148.5,49.9L152.4,54.6L153.2,57.7L155.5,59.4L161.1,59.8L174.8,62.9L183.2,62.4L190.7,59L194.9,55L196.3,48.6L198.3,51.8L200.5,56.8L201.4,63.1L211.4,84.4L219.3,96.2L236.6,117.8L243.9,121.8L256.5,139.2L261,142.1L263.5,147.1L276.4,151.4Z"/></svg>
