<svg xmlns="http://www.w3.org/2000/svg" viewBox="0 0 400 300"><path d="M13.7,0L3.6,17.8L7,22.6L4.2,28.5L3.6,35.9L0,32.3L0,0Z" fill="#2c2c34" stroke="#474751" stroke-width="0.8"/><path d="M371.2,300L363.6,295L368.1,280.8L362.7,258.4L367.9,251.9L364,231.1L354.2,218L357.3,206L365.1,207.8L369.7,200.5L364.1,186L367.1,182.4L379.7,183.1L398,165.9L400,165.3L400,300Z" fill="#2c2c34" stroke="#474751" stroke-width="0.8"/><path d="M367.1,182.4L364.1,186L369.7,200.5L365.1,207.8L357.3,206L354.2,218L346,210.9L340.8,197.6L346.8,191L340.6,189.3L336,181.1L323.9,174.3L313.2,175.9L308.2,184.4L298.4,190.7L293,191.5L290.6,196.6L302.3,210.1L295.7,213.2L292.1,216.8L280.7,218.1L276.5,203.4L273.3,207.6L265.2,206.1L260.3,196.2L250.3,194.6L243.9,191.7L233.5,191.7L232.8,197.1L229.9,193.3L231.2,188.5L233.2,183.4L232.3,179L235.9,176L230.8,172.3L230.7,162.4L240.1,160.2L248.9,169L248.4,174.3L258.2,175.4L260.5,173.4L267.2,179.5L279.2,177.7L289.7,171.4L304.5,166.4L312.8,159.1L326.3,160.5L325.4,162.9L339,163.8L349.9,168.1L357.8,175.5Z" fill="#2c2c34" stroke="#474751" stroke-width="0.8"/><path d="M213.1,126.1L207.2,131.4L200,129.7L196,124.6L188.2,122.5L182.6,125.7L166.5,119.2L162.8,122.4L154.4,114.5L142.9,104.5L137.6,96L127.3,88.2L115,76.9L117.7,73L121.7,76.7L123.6,75L131.2,73.9L134.2,68.2L137.8,68L137.3,55.7L143,55.1L148.1,55.2L153.4,48.5L160.6,53.6L163.2,50.5L167.7,47.5L176.2,40.5L176.5,35.4L178.9,35.6L182.1,29.5L184.6,28.8L188.8,32.7L193.7,33.8L199.1,30.6L205.2,30.6L213.8,27.3L217.1,23.8L225.5,24.3L223.3,26.8L222.1,32.4L224.7,41.6L219,50.2L216.4,60.3L215.6,71.4L216.9,77.9L217.5,89.2L213.8,91.6L211.5,102.3L213.1,108.9L208.2,115.3L209.3,122Z" fill="#2c2c34" stroke="#474751" stroke-width="0.8"/><path d="M163.1,0L163.5,0.1L169.3,1.8L175.8,1.2L178.4,0L183.8,0L183.8,0L191.8,2.5L195.6,3.1L203.1,7.8L210.2,13.5L219,17.4L225.5,24.3L225.5,24.3L217.1,23.8L213.8,27.3L205.2,30.6L199.1,30.6L193.7,33.8L188.8,32.7L184.6,28.8L182.1,29.5L178.9,35.6L176.5,35.4L176.2,40.5L167.7,47.5L163.2,50.5L160.6,53.6L153.4,48.5L148.1,55.2L143,55.1L137.3,55.7L137.8,68L134.2,68.2L131.2,73.9L123.6,75L119.4,67.1L112,65L113.7,54.9L110.3,52.2L105.3,50.4L94.6,53.4L93.7,50L86.3,45.9L81,40.9L73.8,38.8L78.9,32.4L77,27.4L78.7,22.6L90.3,15.4L101.4,5.8L104,6.8L109.3,2.3L116.3,2L118.6,4L122.4,2.8L133.7,5.1L145,4.4L152.9,1.6L154.4,0L163.1,0Z" fill="#2c2c34" stroke="#474751" stroke-width="0.8"/><path d="M73.8,38.8L81,40.9L86.3,45.9L93.7,50L94.6,53.4L105.3,50.4L110.3,52.2L113.7,54.9L112,65L109.3,70.9L95.1,70.5L86.3,68.1L76.2,63.1L62.6,61.5L55.7,56.1L56.5,52.5L64.8,46.1L69.4,43.3L68.1,40.3Z" fill="#2c2c34" stroke="#474751" stroke-width="0.8"/><path d="M77,0L76.9,1.7L84.2,1.7L92.1,6.3L94.2,2.6L101.4,5.8L90.3,15.4L78.7,22.6L77,27.4L78.9,32.4L73.8,38.8L68.1,40.3L69.4,43.3L64.8,46.1L56.5,52.5L55.7,56.1L43.2,51.7L27.9,51.3L16.7,46.3L3.6,35.9L3.6,35.9L4.2,28.5L7,22.6L3.6,17.8L13.7,0L77,0Z" fill="#2c2c34" stroke="#474751" stroke-width="0.8"/><path d="M85.1,0L84.2,1.7L76.9,1.7L77,0L85.1,0Z" fill="#2c2c34" stroke="#474751" stroke-width="0.8"/><path d="M239.7,159.9L239.6,160.3L239.2,160.9L238.6,161.3L237.8,161.7L235.8,160.6L233.9,159.5L232.9,160L232.5,161.5L231.8,162.3L230.9,162.6L230.6,163.1L230.5,168L230.6,172.7L232,172.8L234.3,174.4L235.4,175.4L235.8,176.2L235.4,176.7L233.6,177.7L232,179L231.1,180.6L232.6,183.2L232.9,185L232.8,186.8L232.5,187.7L229.2,189.8L228.4,190.6L228.5,191.1L230.3,192.6L231.2,194L232,195.7L232.1,197.1L230.4,194.4L228.1,191.8L226.1,190.2L225.9,186.4L225.1,184.4L222.1,182.5L219.5,181.2L217.6,181.4L218.8,183.6L221.8,186.4L222,187.4L221.9,188.9L219.9,188.6L218.1,188L215.8,187.9L214.3,187L211.1,183.7L213.4,180.9L214.1,179L214,175.2L213.5,173.3L211,170.5L207.2,167.4L201.8,164.8L199.2,162.8L192.8,161.2L190.4,160.1L188.5,158.2L188.2,156.8L189,154.6L187.2,151.9L179.6,146.5L175.4,144.5L174.4,143.4L173.8,143L174.4,146.7L176.3,149L181.1,151.1L182.4,152.3L183,153.8L180.2,156.9L178.7,157.6L178.3,159.3L177.4,159.8L176.5,158.8L172.5,154.1L164.9,151.8L163.5,150.4L160.7,146.1L159.5,142.2L159.9,139.5L163,135.4L164,133.6L163.8,132.5L163.9,130.9L162.7,129.8L159.8,128.3L158,127.1L158.5,126.5L161.9,124.9L162,123.5L162,123L162.6,122.9L163,122.5L163.4,122.1L164.2,120.8L165,120L165.9,119.9L167,120.4L171.2,121.9L175.8,123.6L182.4,125.9L185.2,124.4L187.5,123.3L189.1,123.4L192.7,124.8L194.8,125.2L196.2,125.1L198.4,127L199.6,128.5L199.9,129.5L200.6,130L202.3,130.1L206.6,131.1L209.3,131L211.6,129.9L213,128.6L213.4,126.6L214,127.6L214.7,129.2L215,131.2L218.2,137.9L220.6,141.6L226.1,148.4L228.4,149.6L232.3,155.1L233.7,156L234.5,157.6L238.6,158.9Z" fill="#b8e653" stroke="#0c0e06" stroke-width="1"/></svg>
