<svg xmlns="http://www.w3.org/2000/svg" viewBox="0 0 300 300"><path fill="#e8e8ea" d="M93.8,107.4L100.1,108.6L105.2,108.2L107.7,107.5L107.4,108.2L109.7,110.1L110.6,110.2L113.9,109.3L122.5,108.9L123.4,109.4L124.9,111.2L127.1,112.3L129.4,113.1L131.8,113.3L134.2,113L136.4,113.2L139.2,114.9L140.1,115.1L142.5,114.6L141.8,116.2L146,118.4L149.1,122.7L151.3,124.5L153.7,126.1L155.7,127.2L157.9,127.7L164.8,127.5L166.4,127.6L167.9,128.2L169.2,128.5L169.9,128.2L183.1,135L187.3,138.6L189.9,140.4L195.4,143.1L197.5,143.7L198.8,143.4L198.5,142.7L196.9,141.2L196.7,140.7L198.8,141.2L202.5,144.2L203.6,145.3L205.4,146.3L207.3,147.1L206.3,148.3L204.9,148.4L201.9,147.9L204.2,149.9L204.7,151.3L205.7,151.4L207.4,149.8L208.3,148.5L212.5,151.9L214.7,153.4L214.2,154.3L214,155.2L216.4,154.4L217.4,154.5L218.3,155L219.3,156.5L221.6,156.8L223.9,156.7L228.7,157.9L233.2,160.4L237.4,160.9L241.7,161L243.8,162.2L244.7,164L243.7,165.2L243.1,166.4L244.6,168L241.3,168.7L240.7,169.6L240.9,170.7L241.6,171.2L243.6,170.7L246.5,171.2L250.9,171.5L254,171.2L260.1,172.3L262,172.9L265.6,174.8L267.3,176.2L270.9,179.7L274,181.1L276.7,181.5L277.6,181.2L278.5,181.6L279.3,182.1L280,183.7L279.6,185.3L278.1,186.6L277.2,187.6L273.4,187.7L268,188.1L262.8,189.6L260.2,190.7L259,191.5L256.3,192.2L256.1,191.6L256.1,190.8L255.4,189.4L254.8,190.7L253.8,191.6L252.1,192.4L245.8,192.4L243.3,191.4L240.6,190.6L231.2,189.9L228.8,190L222.4,190.8L216.1,191.2L213.4,191.7L210.8,192.4L205.6,192.4L199.5,193.2L193.4,193.4L197.4,187.5L205.6,181.9L207.1,180.7L208.3,179.1L208.5,178L208.2,176.9L206.2,175.2L205.8,173.9L205.2,173L202.3,172.3L199.5,171.8L196.4,171.8L190.1,171.2L186.7,171.2L183.8,170L179,165.7L176.7,164.5L175.6,163.5L174.7,162.4L173.6,156.1L172.6,153.1L171.2,150.5L169,148.4L166.6,147.7L157.8,149.5L155.7,149.2L153.7,148.6L140.3,144.5L134.8,142.3L132.6,141.1L130.7,139.6L128.7,136.9L126.5,134.6L126.5,135.5L126.1,136.2L114.9,136.4L113.2,135.9L112,135.3L111.2,134.3L110.6,132.4L109.5,130.8L109.2,132.5L108.6,134.1L107.2,135L105.4,135.1L103.3,133L94.3,132.6L93.5,132.2L90.5,130.2L87.9,127.7L90.4,126.8L95.7,125.6L96.8,124.8L97.5,123.9L97.1,122.4L96,121.3L94.9,120.6L93.8,120.2L92.2,120L72,119.8L70.9,120.6L69,122.3L65.5,124.4L63,126.6L62.1,127.7L61.1,128.5L58.6,129.9L56.5,132L53.9,132.9L52.5,132.4L51.1,132.4L50.1,132.9L49,133.1L43.9,133.4L43.1,133.9L42.4,135.4L41.5,138.3L40.7,139.3L38.1,139.7L35.7,140.5L30.6,143.3L29.3,143.7L29.6,141.6L29.3,139.7L27.9,139.6L26.3,139.9L25,140.5L22.4,141.9L21.2,142.3L20,141.6L20.3,140.6L28.5,137L29.5,136.8L31,137L32.5,136.9L33.6,135.9L32.2,131.1L32.7,127.9L34.6,125.4L38.5,121.6L40.4,120.4L59.4,112.5L61.4,112.1L73.7,110.5L75.6,109.9L81.4,107.6L87.4,106.6ZM76.2,149L74,150.4L69.2,152.3L66.6,152.3L64,151.6L62.2,150L61.2,148.4L61.3,147.7L62.9,148.9L64.3,149.5L65.5,149.1L66.3,148.4L63.6,143.3L63.8,142.1L65.9,139.3L71.5,140.2L72.5,140.7L73.4,142.5L74.6,143.9L76.1,147.7Z"/></svg>
