<svg xmlns="http://www.w3.org/2000/svg" viewBox="0 0 400 300"><path d="M199.9,0L190.8,6.4L184.3,12.9L178.8,21L177,30.7L179.1,40L182.9,51.5L188.1,60.9L188.2,66.6L193.7,81.8L193.3,90.5L192.8,95.6L189.9,103.5L186.4,105.1L180.7,103.5L178.9,97.9L174.5,94.9L168.3,83.7L162.9,73.8L161.1,68.6L163.5,59.8L160.3,52.5L151.2,41.4L146.7,39.3L134.9,45.4L132.9,44.7L127.2,38.5L119.9,35.1L106.8,36.8L96.4,35.3L87.6,36.3L82.8,38.4L84.9,41.9L84.7,47.4L87.1,50L84.9,51.8L80.6,49.8L76.3,52.3L67.8,51.9L59.1,44.9L49,46.5L40.5,43.4L33.3,44.4L23.5,47.5L12.9,57.4L1.4,63.1L0,64.4L0,0Z" fill="#2c2c34" stroke="#474751" stroke-width="0.8"/><path d="M290.7,172.6L291.7,179.3L290.8,184L288,186.1L291,189.8L290.8,193.1L283,191L277.5,191.9L270.5,191L265,193.3L258.8,189.5L259.8,185.5L270.5,187.2L279.3,188.2L283.5,185.5L278.2,180.1L278.2,175.4L270.9,173.5L273.5,170.1L280.6,170.7Z" fill="#2c2c34" stroke="#474751" stroke-width="0.8"/><path d="M290.8,193.1L291,189.8L288,186.1L290.8,184L291.7,179.3L290.7,172.6L292.1,170.5L301.2,170.5L308.1,173.7L311.2,173.4L313.3,177.8L319.6,177.5L319.3,181.2L324.5,181.6L330.1,186.2L325.8,191.1L320.3,188.5L315,189L311.1,188.4L309.1,190.6L304.6,191.4L302.8,188.4L299,190.2L294.3,198.6L291.3,196.6Z" fill="#2c2c34" stroke="#474751" stroke-width="0.8"/><path d="M206.2,83L211.6,81.9L219.3,82.3L219.7,85.7L207,87.8ZM220,79.7L229.2,85.6L227.2,94.8L225.1,93.1L225.2,86.3L220.1,81.2ZM215.4,103.4L218.9,103.9L222.9,114.5L223,121.9L220.1,122.6L217.2,115.2L212.9,111.5Z" fill="#2c2c34" stroke="#474751" stroke-width="0.8"/><path d="M0,167.8L2.2,170.4L4.9,177.4L9.4,183.5L21.8,186.8L26.6,191.9L36.8,188.5L45.7,187.2L54.4,185L61.7,182.9L69.1,177.9L71.9,170.7L72.8,160.3L74.8,156.6L82.7,153.4L95,150.5L105.3,150.9L112.3,149.9L115.1,152.5L114.7,158.5L108.5,165.9L105.7,173.4L107.9,175.6L106.1,180.9L103.2,190.5L100.2,187.3L97.8,187.5L95.6,187.7L91.5,195.1L89.3,193.6L87.9,194.2L88,196L77.3,195.9L66.4,195.9L66.4,202.8L61.1,202.8L65.5,206.8L69.8,209.6L71.1,212.3L72.9,213L72.7,217.1L57.7,217.2L52.1,227L53.8,229.3L52.4,232.1L52.1,235.6L39,222.6L33,218.7L23.5,215.5L17,216.4L7.6,221L1.8,222.2L0,221.5L0,167.8Z" fill="#2c2c34" stroke="#474751" stroke-width="0.8"/><path d="M237.1,300L239.9,297.4L244.6,296.2L244.8,292.3L246.9,282.3L253.5,276.8L260.9,276.6L261.8,274.1L270.9,275.1L280,269.1L284.6,266.5L290.2,260.7L294.3,261.4L297.4,264.6L295.1,268.6L287.7,270.6L284.7,276.5L280.2,279.9L276.8,284.3L275.4,292.7L272.2,299.6L275.1,300L237.1,300Z" fill="#2c2c34" stroke="#474751" stroke-width="0.8"/><path d="M160.3,300L160.2,295.8L164.7,294.7L168.9,299L168.8,300L160.3,300ZM188.6,300L195.3,297.7L199.3,294.2L205.7,294.9L205.3,296L211.8,296.5L217,298.5L218.6,300L188.6,300Z" fill="#2c2c34" stroke="#474751" stroke-width="0.8"/><path d="M151.1,300L148.8,298L144.3,295.7L140.3,294.1L139.5,290.7L136.5,288.6L137.2,292L134.9,294.8L132.2,291.6L128.5,290.4L126.9,288L127,284.4L128.5,280.7L125.2,279L127.9,276.7L129.7,275.2L137.3,278.3L140,276.8L143.7,277.8L145.6,280.2L149.1,281L151.8,278.5L154.7,284.9L159.3,289.7L164.7,294.7L164.7,294.7L160.2,295.8L160.3,300L151.1,300Z" fill="#2c2c34" stroke="#474751" stroke-width="0.8"/><path d="M151.8,278.5L149.1,281L145.6,280.2L143.7,277.8L140,276.8L137.3,278.3L129.7,275.2L127.9,276.7L123.9,273L118.5,268.2L115.9,264.2L111,260.5L105.1,255.1L106.4,253.3L108.4,255L109.2,254.2L112.8,253.7L114.3,251L116,250.9L115.8,245L118.5,244.7L120.9,244.8L123.4,241.6L126.9,244L128.1,242.5L130.2,241.1L134.3,237.8L134.4,235.3L135.6,235.4L137.1,232.6L138.3,232.2L140.3,234.1L142.6,234.6L145.2,233.1L148.1,233.1L152.2,231.5L153.7,229.8L157.7,230.1L156.7,231.2L156.1,233.9L157.3,238.3L154.7,242.4L153.4,247.2L153,252.5L153.7,255.6L154,260.9L152.2,262.1L151.1,267.2L151.9,270.3L149.5,273.4L150,276.6Z" fill="#2c2c34" stroke="#474751" stroke-width="0.8"/><path d="M157.7,230.1L153.7,229.8L152.2,231.5L148.1,233.1L145.2,233.1L142.6,234.6L140.3,234.1L138.3,232.2L137.1,232.6L135.6,235.4L134.4,235.3L134.3,237.8L130.2,241.1L128.1,242.5L126.9,244L123.4,241.6L120.9,244.8L118.5,244.7L115.8,245L116,250.9L114.3,251L112.8,253.7L109.2,254.2L107.2,250.5L103.7,249.4L104.5,244.6L102.9,243.3L100.5,242.5L95.4,243.9L95,242.3L91.5,240.4L89,238L85.5,237L88,233.9L87.1,231.5L87.9,229.2L93.4,225.9L98.7,221.3L99.9,221.7L102.5,219.6L105.8,219.4L106.9,220.4L108.7,219.8L114.1,220.9L119.4,220.6L123.2,219.3L124.5,217.9L128.2,218.5L131,219.4L134.1,219.1L136.4,218L141.7,219.7L143.5,220L147.1,222.2L150.4,224.9L154.7,226.8Z" fill="#2c2c34" stroke="#474751" stroke-width="0.8"/><path d="M85.5,237L89,238L91.5,240.4L95,242.3L95.4,243.9L100.5,242.5L102.9,243.3L104.5,244.6L103.7,249.4L102.4,252.2L95.7,252.1L91.5,250.9L86.7,248.5L80.2,247.8L76.9,245.2L77.3,243.5L81.3,240.5L83.5,239.1L82.8,237.7Z" fill="#2c2c34" stroke="#474751" stroke-width="0.8"/><path d="M52.1,235.6L52.4,232.1L53.8,229.3L52.1,227L57.7,217.2L72.7,217.1L72.9,213L71.1,212.3L69.8,209.6L65.5,206.8L61.1,202.8L66.4,202.8L66.4,195.9L77.3,195.9L88,196L87.9,205.7L87,219.3L90.5,219.3L94.3,221.5L95.3,219.7L98.7,221.3L93.4,225.9L87.9,229.2L87.1,231.5L88,233.9L85.5,237L82.8,237.7L83.5,239.1L81.3,240.5L77.3,243.5L76.9,245.2L71,243.1L63.7,242.9L58.4,240.5Z" fill="#2c2c34" stroke="#474751" stroke-width="0.8"/><path d="M88,196L87.9,194.2L89.3,193.6L91.5,195.1L95.6,187.7L97.8,187.5L97.9,189.3L100.1,189.4L99.9,192.7L98,198L99,199.9L97.8,204.3L98.5,205.4L97.2,211.6L94.9,214.8L92.8,215.1L90.5,219.3L87,219.3L87.9,205.7Z" fill="#2c2c34" stroke="#474751" stroke-width="0.8"/><path d="M275.1,300L272.2,299.6L275.4,292.7L276.8,284.3L280.2,279.9L284.7,276.5L287.7,270.6L295.1,268.6L294.8,271.4L288,272.8L291.8,278.1L291.6,284.3L286.5,291.2L290.6,300L275.1,300ZM294.5,300L295.9,299.8L298.5,291.3L294.9,287.1L294.3,278.2L308.8,273.3L307.2,267.7L311.3,264L315.5,272.3L323.6,272.5L331.2,279.1L331.6,283.1L342,283.2L354.5,282L361.1,287.2L370,288.7L376.5,285L376.7,282L391.1,281.3L400,281.2L400,282.9L400,282.9L395.2,284.7L399.1,290.2L400,290.3L400,300Z" fill="#2c2c34" stroke="#474751" stroke-width="0.8"/><path d="M353.8,187.3L359.8,188.4L361.9,190.9L358.9,194L350.2,193.9L343.3,194.3L342.7,189.1L344.3,187.3Z" fill="#2c2c34" stroke="#474751" stroke-width="0.8"/><path d="M222.6,187.7L230.4,188.8L236.6,191.7L238.5,195L230.4,195.3L226.8,197.3L220.3,195.3L213.6,190.9L215.1,188.1L219.9,187.2Z" fill="#2c2c34" stroke="#474751" stroke-width="0.8"/><path d="M173,129.5L176,130.1L178.5,129.9L179.7,129.6L179.5,129.9L180.6,130.8L181,130.9L182.6,130.4L186.8,130.3L187.2,130.5L187.9,131.3L189,131.9L190.1,132.3L191.3,132.4L192.4,132.2L193.5,132.3L194.8,133.1L195.2,133.2L196.4,133L196.1,133.7L198.1,134.8L199.6,136.9L200.6,137.7L201.8,138.5L202.8,139L203.8,139.3L207.1,139.2L207.9,139.2L208.6,139.5L209.2,139.6L209.6,139.5L215.9,142.8L217.9,144.5L219.2,145.4L221.8,146.7L222.9,147L223.4,146.8L223.3,146.5L222.6,145.8L222.4,145.5L223.4,145.8L225.2,147.2L225.7,147.7L226.6,148.2L227.5,148.6L227.1,149.2L226.4,149.2L225,149L226.1,149.9L226.3,150.6L226.8,150.7L227.6,149.9L228,149.3L230.1,150.9L231.1,151.6L230.9,152.1L230.8,152.5L231.9,152.1L232.4,152.2L232.8,152.4L233.3,153.1L234.4,153.3L235.5,153.2L237.8,153.8L240,155L242,155.2L244.1,155.3L245.1,155.9L245.5,156.7L245,157.3L244.8,157.9L245.5,158.7L243.9,159L243.6,159.4L243.7,159.9L244,160.2L245,160L246.4,160.2L248.5,160.3L250,160.2L253,160.7L253.8,161L255.6,161.9L256.4,162.6L258.1,164.3L259.6,165L260.9,165.1L261.4,165L261.8,165.2L262.2,165.4L262.5,166.2L262.3,167L261.6,167.6L261.2,168.1L259.3,168.1L256.7,168.3L254.2,169L253,169.6L252.4,169.9L251.1,170.3L251,170L251,169.6L250.7,169L250.4,169.6L249.9,170L249.1,170.4L246,170.4L244.8,169.9L243.6,169.5L239,169.2L237.9,169.2L234.8,169.6L231.8,169.8L230.5,170L229.2,170.4L226.8,170.4L223.8,170.8L220.9,170.8L222.8,168L226.8,165.3L227.5,164.8L228,164L228.1,163.4L228,163L227,162.1L226.8,161.5L226.5,161.1L225.2,160.7L223.8,160.5L222.3,160.5L219.3,160.2L217.6,160.2L216.2,159.6L213.9,157.5L212.9,157L212.3,156.5L211.9,156L211.3,152.9L210.9,151.5L210.2,150.2L209.1,149.2L208,148.9L203.8,149.7L202.8,149.6L201.8,149.3L195.4,147.4L192.7,146.3L191.6,145.7L190.7,145L189.7,143.7L188.7,142.6L188.7,143L188.5,143.3L183.1,143.5L182.3,143.2L181.7,142.9L181.3,142.5L181,141.5L180.5,140.8L180.4,141.6L180.1,142.3L179.4,142.8L178.6,142.8L177.6,141.8L173.2,141.6L172.8,141.5L171.4,140.5L170.2,139.3L171.4,138.9L173.9,138.3L174.4,137.9L174.8,137.4L174.5,136.7L174,136.2L173.5,135.9L173,135.7L172.2,135.6L162.5,135.5L161.9,135.9L161.1,136.7L159.4,137.7L158.2,138.7L157.8,139.3L157.3,139.7L156,140.3L155,141.3L153.8,141.8L153.1,141.5L152.4,141.5L152,141.8L151.4,141.9L149,142L148.6,142.3L148.3,143L147.8,144.4L147.5,144.9L146.2,145L145,145.4L142.6,146.8L142,147L142.1,146L142,145L141.3,145L140.5,145.1L139.9,145.4L138.7,146.1L138.1,146.3L137.5,145.9L137.6,145.5L141.6,143.8L142.1,143.6L142.8,143.8L143.5,143.7L144,143.2L143.4,140.9L143.6,139.4L144.5,138.2L146.4,136.4L147.3,135.8L156.5,132L157.4,131.8L163.3,131L164.3,130.7L167,129.6L169.9,129.2ZM221.4,144.7L221,145.1L220.4,144.6L220.1,144.5L219.6,144.3L218.8,143.7L218.5,143L219.3,143L220.2,143.1L221.9,143.5L221.7,144.2ZM217.3,140.6L217,140.8L216.4,140.3L215.5,140.1L214.9,139.4L214.4,139.1L214.4,138.8L215.2,138.6L215.8,138.7L216.5,139.3L216.9,140.3ZM210.3,137.2L211.8,137.5L212.4,137.3L212.9,137.3L213.5,137.4L214.3,138.4L213.6,138.5L213.1,138.5L212.6,138.4L211.2,138.3L210.3,138L209.8,137.7L209.5,137.4ZM219,142.5L218.6,142.6L217.5,142.1L217.1,141.6L217.5,141L217.6,140.4L217.7,140.4L217.9,141.1L218.8,141.5L218.9,141.6L219.4,142.3ZM164.5,149.5L163.5,150.2L161.2,151.1L159.9,151.1L158.6,150.8L157.8,150L157.3,149.2L157.3,148.9L158.1,149.5L158.8,149.8L159.4,149.6L159.8,149.2L158.5,146.8L158.6,146.2L159.6,144.9L162.3,145.3L162.7,145.5L163.2,146.4L163.7,147.1L164.5,148.9ZM201.9,135.8L201.9,136.1L199.9,135.2L199,134.2L198.7,134L199.2,134L201.5,135.6Z" fill="#b8e653" stroke="#0c0e06" stroke-width="1"/></svg>
