<svg xmlns="http://www.w3.org/2000/svg" viewBox="0 0 400 300"><path d="M400,211.8L397.7,211.8L391.1,214.6L383,213.8L370.1,217.9L366,198.7L388.3,199.2L394.2,195.7L398.6,195.5L400,194.6L400,211.8ZM400,182.2L395.8,186.8L369.2,187.5L369.2,187.5L359.1,167.9L346.9,158.9L357.7,154.2L369.5,136.4L375.3,123.3L383.7,115.1L395.8,117.3L400,115.4L400,182.2Z" fill="#2c2c34" stroke="#474751" stroke-width="0.8"/><path d="M400,115.4L395.8,117.3L383.7,115.1L375.3,123.3L373.1,109.6L380,97L383,72.8L380.4,47.4L377.4,34.5L379.8,21.5L373.5,9.1L363.1,0L400,0Z" fill="#2c2c34" stroke="#474751" stroke-width="0.8"/><path d="M400,245.1L394.8,241L384.5,239.3L379,232.3L379,228.5L371.7,223.2L370.1,217.9L370.1,217.9L383,213.8L391.1,214.6L397.7,211.8L400,211.8L400,245.1Z" fill="#2c2c34" stroke="#474751" stroke-width="0.8"/><path d="M400,194.6L398.6,195.5L394.2,195.7L388.3,199.2L366,198.7L369.2,187.5L369.2,187.5L395.8,186.8L400,182.2L400,194.6Z" fill="#2c2c34" stroke="#474751" stroke-width="0.8"/><path d="M162.6,102.6L160.2,103.1L159.1,102.9L158.9,100.9L158.3,99.5L158.4,98.9L164,96.3L165.8,96.7L167.2,98.8L166.3,100ZM204.7,151.9L203.2,154.2L200,154L198.4,153.1L196.4,150.2L196.4,147.9L197.1,146L197,144.2L197.3,143.8L198.3,144.1L198.4,145.2L201.4,148L202.5,148.6ZM169.4,105.9L167.5,106.5L166.3,106.5L164.4,105.5L165,104.5L167,103.5L168.3,103.3L169.3,105.2ZM217.6,120.7L219.6,121.2L220.4,121L221.7,121.1L223.1,122.4L223.3,123.9L222.6,125.6L220,127.1L218.4,126.9L216.6,125.6L217.6,123ZM183.6,155.7L181.7,156.7L180.4,156.3L179.1,155.3L178.5,153.8L179,152.6L181.6,151.1L183.1,151.6L183.9,153.9ZM189,110.9L190,111.6L190.4,112.2L188.9,112.5L185.2,111.5L184.2,112.1L183.2,114.2L181.4,111L181.6,109.8L181.9,109.5L184.6,110.3ZM218.3,110L217.5,111.3L216.6,109.3L216,108.9L215.8,106.1L217.2,105.3L217.9,105.3L217.9,108.1ZM211.1,148.6L210.4,148.7L209.4,147.6L209.6,146L209.5,145.6L210.4,143.9L212.2,144.1L212.7,145.3L212.7,147.9Z" fill="#b8e653" stroke="#0c0e06" stroke-width="1"/></svg>
