<svg xmlns="http://www.w3.org/2000/svg" viewBox="0 0 300 300"><path fill="#e8e8ea" d="M81,96.7L82.1,101.1L91.7,106.5L104.5,111.5L112,111.8L121.6,106.5L135.6,101.1L152.1,96.1L160.7,99.2L172.5,99.9L181,98L186.9,102.1L191.7,109.3L192.8,126.7L194.4,127.6L201.9,120.7L215.3,123.5L224.4,124.5L231.9,121L236.1,120.4L241.5,118.8L247.4,115.3L252.7,110.6L258.1,112.2L267.2,117.2L273,115.9L275.7,119.4L280,129.8L262.9,133L246.3,133.9L236.7,132.6L227.6,133L200.3,162.8L185.3,172.9L167.7,178.8L150,182.3L140.9,182.6L132.9,186.4L127.5,193.3L127.5,200.2L124.9,205.5L115.2,204.2L110.9,193.6L104,188.9L86.9,191.4L78.3,191.1L50.5,180.7L41.9,176.7L36.6,167.9L22.1,136.1L20,112.5L33.4,118.5L45.7,111.2L58,99.2L72.4,94.5Z"/></svg>
