<svg xmlns="http://www.w3.org/2000/svg" viewBox="0 0 400 300"><path d="M244.7,300L244.5,299.2L230.8,257.8L237.9,248.4L236.2,246.8L242.7,233.4L247.6,211.5L251.1,204.2L251.8,203.9L260,203.9L262.2,198.8L268.8,198.4L269.2,210.3L265.8,214.7L266.4,214.9L266.4,214.9L262,224.1L253.3,220L248.1,239.3L254.2,242.5L248,246.5L246.9,254L258.4,250.1L259.1,261.3L248.6,300L244.7,300Z" fill="#2c2c34" stroke="#474751" stroke-width="0.8"/><path d="M268.8,198.4L262.2,198.8L260,203.9L251.8,203.9L260.6,180L272.7,159.1L273.1,158.1L284.1,159.6L288.1,171.2L274.8,182.3Z" fill="#2c2c34" stroke="#474751" stroke-width="0.8"/><path d="M258.4,250.1L246.9,254L248,246.5L254.2,242.5L248.1,239.3L253.3,220L262,224.1L262,241.7Z" fill="#2c2c34" stroke="#474751" stroke-width="0.8"/><path d="M248.6,300L259.1,261.3L258.4,250.1L262,241.7L262,224.1L262,224.1L266.4,214.9L293.5,226.4L341.4,195.4L351.2,230.8L346.6,235.2L297.7,249.6L322,278.1L313.9,282.9L309.9,292.3L291.3,296.3L289.1,300L248.6,300Z" fill="#2c2c34" stroke="#474751" stroke-width="0.8"/><path d="M400,249.3L380.7,238.6L351.2,230.8L351.2,230.8L341.4,195.4L395.5,164.8L400,147.2L400,249.3Z" fill="#2c2c34" stroke="#474751" stroke-width="0.8"/><path d="M400,147.2L395.5,164.8L341.4,195.4L293.5,226.4L266.4,214.9L266.4,214.9L265.8,214.7L269.2,210.3L268.8,198.4L274.8,182.3L288.1,171.2L284.1,159.6L273.1,158.1L270.8,135.3L276.8,122.9L283.3,116.3L289.9,109.6L291.3,92.7L299.3,98.6L326.2,90.1L339.1,95.9L359.2,95.8L387.4,84.3L400,84.8L400,147.2Z" fill="#2c2c34" stroke="#474751" stroke-width="0.8"/><path d="M0,135.3L5,134.8L23.2,136.9L22.6,142.1L35.9,138.5L35.9,138.5L32.8,147.4L0,149.8L0,135.3Z" fill="#2c2c34" stroke="#474751" stroke-width="0.8"/><path d="M400,84.8L387.4,84.3L359.2,95.8L339.1,95.9L326.2,90.1L299.3,98.6L291.3,92.7L289.9,109.6L283.3,116.3L276.8,122.9L267.9,109.2L277.1,97.8L262.2,100.4L241.7,93.4L224.9,110.9L187.9,114.3L168.1,98L141.7,96.9L136.1,109.5L119.2,113.1L95.6,97L69,97.6L54.4,67L36.6,49.8L48.5,25.6L33,10.5L42.3,0L400,0Z" fill="#2c2c34" stroke="#474751" stroke-width="0.8"/><path d="M289.1,300L291.3,296.3L309.9,292.3L313.9,282.9L322,278.1L297.7,249.6L346.6,235.2L351.2,230.8L380.7,238.6L400,249.3L400,300Z" fill="#2c2c34" stroke="#474751" stroke-width="0.8"/><path d="M193.3,143.4L195,143.2L198.5,136L216.1,136.4L238.4,127.4L221.8,140.2L223.7,145.8L221.1,144.7L216.4,147L212.7,146.4L211.5,147.5L211,144.5L209.3,142.7L204.5,142.3L197.9,144.9Z" fill="#2c2c34" stroke="#474751" stroke-width="0.8"/><path d="M0,283.1L3.3,273.8L0,263L0,260.9L0,260.9L8.4,247.9L40.9,247.4L64.5,254.9L88.7,263.4L100,267.8L118.8,258.8L128.9,250.6L150.4,248.2L167.8,251.8L174.4,266L180.2,256.7L199.7,263.4L218.8,265L230.8,257.8L244.5,299.2L244.7,300L187.2,300L187.2,300L185.8,296.7L183.2,299.2L183.5,300L0,300Z" fill="#2c2c34" stroke="#474751" stroke-width="0.8"/><path d="M0,238L2.5,238.4L8.4,247.9L0,260.9L0,238ZM0,263L3.3,273.8L0,283.1L0,263Z" fill="#2c2c34" stroke="#474751" stroke-width="0.8"/><path d="M192.8,142.4L193,143.2L194.6,144.1L196.7,144.9L197.9,144.9L199.5,144.1L201.8,143.2L204.5,142.3L205.9,142.9L207.9,143L209.3,142.7L210.2,143.3L211,144.5L211.2,147.4L211.5,147.5L212.7,146.4L214.9,146.9L216.4,147L217.6,146.4L218.3,146.3L219.2,146.1L220.2,145.5L221.1,144.7L221.9,145L223.4,145.8L224.4,145.6L224.8,146.2L225.5,147.9L222.7,148.4L220,148.6L218.4,148.4L216.9,148.4L212.4,153.3L210,155L207.1,156L204.2,156.5L202.7,156.6L201.4,157.2L200.5,158.3L200.5,159.5L200,160.3L198.4,160.1L197.7,158.4L196.6,157.6L193.8,158L192.4,158L187.8,156.3L186.4,155.6L185.5,154.1L183.1,148.9L182.8,145L185,146L187,144.8L189,142.9L191.4,142.1Z" fill="#b8e653" stroke="#0c0e06" stroke-width="1"/></svg>
