<svg xmlns="http://www.w3.org/2000/svg" viewBox="0 0 300 300"><path fill="#e8e8ea" d="M280,168.5L279,168.6L276.8,169.5L273.9,169.9L270.8,169.8L268.5,171.3L266.3,173.9L263.9,175.6L262.6,177.3L262,178.9L254,183.5L252.9,185.5L252.1,188.1L251.7,191.7L251.1,194.9L249.9,196.6L245.6,198.1L244.5,198.8L243.8,200.4L241.3,203L238.5,205.3L233.4,208L227.9,208.9L220.7,207.9L216.6,206.9L214.5,208L211.7,211.6L208.8,217.7L207.5,222.2L206.6,220.9L204.8,216.1L202.8,215.5L200.2,215.1L198.2,214.3L193.9,211.5L191.7,210.7L189.2,210.5L186.7,212.1L184.9,214L179.2,214L173,213.1L164,206.7L161.7,206.6L159.2,206.9L155.3,205.4L147.7,201.2L144.1,200.3L141.9,200.8L139.9,201.7L138.4,201.9L137.6,200.5L134.8,198.9L131.9,198.7L131.1,199.7L130.2,208.9L129.2,212.1L125.4,212L124,213.5L120.9,218L120.2,222.1L114.9,221.3L112.5,220.6L110.2,221.2L107.7,223.6L100.9,223.4L95.5,222L93.2,216.8L90.7,214.6L87.6,212.8L86.5,212.4L84.7,209.6L81.5,206L76.2,201.1L72.1,201.3L70.5,200.1L69.8,198.3L68.2,195.2L66.2,192.9L63.9,192.1L60.5,189.4L56,183.4L51.8,179.2L47.9,179.3L45.4,177.2L42.8,174.3L40.8,171.5L37.9,164.7L35.8,160.9L34.2,158.5L32.2,156.5L31.5,155L33.9,151.4L34.7,149.5L35.7,148.1L36.2,146.7L36.2,145.6L34.2,142L31.4,139.4L27.2,136.8L24.6,133.5L23.5,130.4L23.2,128.8L21.4,126.6L20,123.2L20,121.2L20.3,120.6L21.7,120.6L23.2,122L25.4,124.7L27.2,128.4L28.3,127L30.3,122.9L34,118.3L37.6,115.7L41,115.5L43.7,114.7L46,113.4L50,113.9L52.9,114.8L53.7,114.3L55,111.9L55.7,109.8L62.1,108.6L64.3,104.5L65.4,104.6L66.9,104L68.2,102.4L69.6,101.8L70.5,102.6L71.9,103L73.3,102.1L75.4,97.4L76.5,96.8L82.1,96.1L89.7,93.3L93.6,90.9L97.3,89.6L101.3,87.2L107.9,84.9L108.1,84L105.2,81.7L104.1,80.2L103.4,78.6L104.5,77L105.9,76.4L107.7,77.1L113.1,78.1L114.7,79.1L115.2,81.5L116.6,83.7L117.7,84L117.3,87.6L119,89L121.5,90L123.1,89.8L124.4,88.3L124.8,87.4L128.1,87.2L131.5,85.7L131.7,83.1L131.6,78.6L131.9,77.8L137,79.2L142.2,81.2L142.9,85.9L144.2,88.1L145.9,90.2L147.4,91.2L150.1,91.3L157,94.1L160.3,94.6L163.8,96.5L166.6,98.5L168.8,98.8L169.8,101L171,102.4L173.3,101.3L181.6,99.8L184.6,101.9L186.6,104.1L186.9,104.7L185.9,106.7L185.3,108.2L184.5,109.1L181.6,110.2L180.1,112L178.8,113.8L179.6,115.7L182,116.9L183.7,117.2L184.2,118.6L189.5,124.4L193.8,132L195.3,133.2L197,133.5L198.7,132.4L200.7,129.9L203.2,128.1L205.3,127.2L208.9,125.1L209.1,123.7L206,118.6L204.2,114.4L204.6,113.7L208.5,114.3L215.2,116.6L225.3,124.1L227.1,124.1L230.7,123.4L234.6,122.3L236.4,120.9L237.1,121.4L237.7,125.5L236.7,127.7L232,129.9L232.2,131L233.5,132.4L235.6,133.4L238.1,136L239.9,139L241.4,140.3L243.1,141.1L247.2,139.4L248.5,138.1L248.9,137.2L249.7,137.4L251.3,138.9L251.7,139.8L255.7,141.5L258.1,143.6L259.6,144.5L261.3,143.6L267.8,145.2L269.6,146.6L270.1,148.9L269.7,150.2L270.8,153.8L279,162.4L279.9,166.8Z"/></svg>
