<svg xmlns="http://www.w3.org/2000/svg" viewBox="0 0 400 300"><path d="M334.6,0L333.2,5.8L334.8,13.9L334.8,13.9L300.7,14.4L277.9,10.8L281.1,0L334.6,0Z" fill="#2c2c34" stroke="#474751" stroke-width="0.8"/><path d="M0,145.9L2.4,145.3L18.6,158.4L22.7,160.9L28.1,160.3L28.1,160.3L36.8,167.7L63.5,172.9L54.1,192.1L51.8,211.9L46.7,216.6L38.3,214.1L38.9,221L25.3,236.3L25,248.5L33.9,244.3L40.2,256L39.5,263.5L44.9,273.5L38.5,281.5L42.9,300L0,300Z" fill="#2c2c34" stroke="#474751" stroke-width="0.8"/><path d="M400,90.8L382.9,88.6L368.5,89.3L358.4,97.4L349.5,98.6L349.1,85.3L343.5,71.2L354.5,65L354.7,52.7L349.5,40.9L348.7,27.1L366.6,27.3L386.8,15.4L390.4,0L400,0Z" fill="#2c2c34" stroke="#474751" stroke-width="0.8"/><path d="M400,195.3L399,195.3L394.4,201.8L380.7,204.4L374.4,208.7L365.7,201.9L353.9,201.8L342.4,198.7L334.4,204.7L333.1,197.2L322.8,189.6L326.4,178.3L331.6,171L335.6,172.7L330.8,159.9L347.7,136L356.9,132.6L358.8,124.4L349.5,98.6L358.4,97.4L368.5,89.3L382.9,88.6L400,90.8L400,195.3Z" fill="#2c2c34" stroke="#474751" stroke-width="0.8"/><path d="M249.6,0L258.6,2.6L260,10.4L277.9,10.8L300.7,14.4L334.8,13.9L344.3,17.4L348.7,27.1L348.7,27.1L349.5,40.9L354.7,52.7L354.5,65L343.5,71.2L349.1,85.3L349.5,98.6L358.8,124.4L356.9,132.6L347.7,136L330.8,159.9L335.6,172.7L331.6,171L314,160.1L300.6,164.1L291.9,161.2L280.9,167.3L271.5,157.2L263.9,161.1L262.8,159.3L254.4,145.2L240.5,143.5L238.8,134.4L226.1,131.1L223.3,138.7L213.2,132.7L214.4,124.6L200.6,122.1L191.8,112.6L184.2,93.6L185.6,83.2L181,67L174.3,56.1L179.4,47.8L175.1,32L187.8,22.7L216.7,8.1L234.1,0L249.6,0Z" fill="#2c2c34" stroke="#474751" stroke-width="0.8"/><path d="M228.1,198L226.7,209.3L216.3,209.4L219.9,215.3L213.7,232.9L210.2,237.4L194,238.1L184.6,244.2L169.3,242.1L142.8,235.1L138.6,225.7L120.3,230.4L118.2,235.6L106.9,231.8L97.5,231L89.1,226.1L91.9,219.4L91.3,214.5L96.8,213L106.2,220.6L108.8,213.4L125.2,214.5L138.4,209.6L147.3,210.4L153.1,216.1L154.9,211.4L152.2,193.4L158.9,189.8L165.4,176.9L179.1,185.9L189.6,174.4L196.2,172.3L210.5,180.9L219.3,179.5L227.8,184.8L226.3,188.3Z" fill="#2c2c34" stroke="#474751" stroke-width="0.8"/><path d="M322.8,189.6L333.1,197.2L334.4,204.7L323,210.4L314.3,229L303.1,247.3L288.2,252.4L276.6,251.2L262.4,258.2L255.5,262.2L240.2,257.1L226.3,245.6L220.5,242.3L216.9,233.1L213.7,232.9L219.9,215.3L216.3,209.4L226.7,209.3L228.1,198L237.5,205.1L244.4,208.1L260,204.7L261.4,199.2L268.8,198.3L277.9,194L279.9,195.8L288.5,192.3L292.9,185.7L299,184L318.8,192.5Z" fill="#2c2c34" stroke="#474751" stroke-width="0.8"/><path d="M331.8,300L330,297.6L334.3,293.3L329.7,290L323.9,295.9L313.1,288.3L311.6,277.5L300.3,271.3L298.3,262.8L288.2,252.4L303.1,247.3L314.3,229L323,210.4L334.4,204.7L342.4,198.7L353.9,201.8L365.7,201.9L374.4,208.7L380.7,204.4L394.4,201.8L399,195.3L400,195.3L400,300Z" fill="#2c2c34" stroke="#474751" stroke-width="0.8"/><path d="M390.4,0L386.8,15.4L366.6,27.3L348.7,27.1L344.3,17.4L334.8,13.9L333.2,5.8L334.6,0L390.4,0Z" fill="#2c2c34" stroke="#474751" stroke-width="0.8"/><path d="M97.5,0L97.6,5.4L116.3,12.8L116.1,24.1L135,18.1L145.4,9.4L166.3,21.9L175.1,32L175.1,32L179.4,47.8L174.3,56.1L181,67L185.6,83.2L184.2,93.6L191.8,112.6L183.5,115.7L178.6,112.3L173.9,117.9L160.6,123.6L153.7,130.8L140.2,137.2L143.5,145.8L145.5,157.9L154.9,164.7L165.4,176.9L158.9,189.8L152.2,193.4L154.9,211.4L153.1,216.1L147.3,210.4L138.4,209.6L125.2,214.5L108.8,213.4L106.2,220.6L96.8,213L91.3,214.5L71.4,206.1L67.6,212.1L51.8,211.9L54.1,192.1L63.5,172.9L36.8,167.7L28.1,160.3L29.1,147.7L25.4,141.2L27.5,121.5L24.4,90.4L35.5,90.4L40.2,79.1L44.8,51.1L41.4,40.6L45,34L60.5,32.3L64,39.1L76.5,23.7L72.3,11.8L71.7,0L97.5,0Z" fill="#2c2c34" stroke="#474751" stroke-width="0.8"/><path d="M198.4,300L198.4,300L190,289.1L189.6,280.2L177.7,276.1L172,287.4L166.5,278.6L166.9,269.5L167.6,269.1L180.5,270L184,265.5L190.2,269.8L197.5,270.3L197.4,262.9L203.9,260.2L205.7,249.4L220.5,242.3L220.5,242.3L226.3,245.6L240.2,257.1L255.5,262.2L262.4,258.2L266.9,268.5L272.8,276L265.7,285.9L257.3,280.1L244.5,280.4L228.5,276.1L219.9,276.7L215.9,282.1L209.2,276.1L205.3,287L214.4,299.2L214.8,300L198.4,300Z" fill="#2c2c34" stroke="#474751" stroke-width="0.8"/><path d="M91.3,214.5L91.9,219.4L89.1,226.1L97.5,231L106.9,231.8L105.5,242.8L97.3,247.4L83.6,244L79.6,254.8L70.8,255.7L67.6,251.4L57.1,260.4L48.2,261.7L40.2,256L33.9,244.3L25,248.5L25.3,236.3L38.9,221L38.3,214.1L46.7,216.6L51.8,211.9L67.6,212.1L71.4,206.1Z" fill="#2c2c34" stroke="#474751" stroke-width="0.8"/><path d="M25.4,141.2L29.1,147.7L28.1,160.3L22.7,160.9L18.6,158.4L20.6,142.3Z" fill="#2c2c34" stroke="#474751" stroke-width="0.8"/><path d="M0,103.7L5.6,101.7L17.3,114.6L27.5,121.5L27.5,121.5L25.4,141.2L20.6,142.3L18.6,158.4L2.4,145.3L0,145.9L0,103.7Z" fill="#2c2c34" stroke="#474751" stroke-width="0.8"/><path d="M0,54.4L0.6,52.7L26,39.7L41.4,40.6L41.4,40.6L44.8,51.1L40.2,79.1L35.5,90.4L24.4,90.4L27.5,121.5L17.3,114.6L5.6,101.7L0,103.7L0,54.4Z" fill="#2c2c34" stroke="#474751" stroke-width="0.8"/><path d="M80.4,300L78.2,298.8L75.2,300L42.9,300L42.9,300L38.5,281.5L44.9,273.5L39.5,263.5L40.2,256L48.2,261.7L57.1,260.4L67.6,251.4L70.8,255.7L79.6,254.8L83.6,244L97.3,247.4L105.5,242.8L106.9,231.8L106.9,231.8L118.2,235.6L120.3,230.4L138.6,225.7L142.8,235.1L169.3,242.1L167.3,255.3L171.7,266.6L157,262.8L141.9,272.2L142.9,285.2L140.6,292.6L144,300L80.4,300Z" fill="#2c2c34" stroke="#474751" stroke-width="0.8"/><path d="M169.3,242.1L184.6,244.2L194,238.1L210.2,237.4L213.7,232.9L216.9,233.1L220.5,242.3L205.7,249.4L203.9,260.2L197.4,262.9L197.5,270.3L190.2,269.8L184,265.5L180.5,270L167.6,269.1L171.7,266.6L167.3,255.3Z" fill="#2c2c34" stroke="#474751" stroke-width="0.8"/><path d="M331.6,171L326.4,178.3L322.8,189.6L318.8,192.5L299,184L292.9,185.7L288.5,192.3L279.9,195.8L277.9,194L268.8,198.3L261.4,199.2L260,204.7L244.4,208.1L237.5,205.1L228.1,198L226.3,188.3L227.8,184.8L230.4,178.6L238.6,179.1L244.9,176.1L245.4,173.5L249,172.2L250.2,165.8L254.5,164.5L257.4,159.4L262.8,159.3L263.9,161.1L271.5,157.2L280.9,167.3L291.9,161.2L300.6,164.1L314,160.1Z" fill="#2c2c34" stroke="#474751" stroke-width="0.8"/><path d="M214.8,300L214.4,299.2L205.3,287L209.2,276.1L215.9,282.1L219.9,276.7L228.5,276.1L244.5,280.4L257.3,280.1L265.7,285.9L272.4,285.8L267.8,297.3L270.2,300L214.8,300Z" fill="#2c2c34" stroke="#474751" stroke-width="0.8"/><path d="M270.2,300L267.8,297.3L272.4,285.8L265.7,285.9L272.8,276L266.9,268.5L262.4,258.2L262.4,258.2L276.6,251.2L288.2,252.4L298.3,262.8L300.3,271.3L311.6,277.5L313.1,288.3L323.9,295.9L329.7,290L334.3,293.3L330,297.6L331.8,300L270.2,300Z" fill="#2c2c34" stroke="#474751" stroke-width="0.8"/><path d="M262.5,158.9L262,159L261,159.4L259.6,159.5L258.1,159.5L257,160.2L255.9,161.5L254.8,162.3L254.2,163.1L253.8,163.9L250,166.1L249.5,167.1L249.1,168.3L248.9,170.1L248.6,171.6L248,172.4L245.9,173.1L245.4,173.4L245.1,174.2L243.9,175.5L242.5,176.6L240.1,177.9L237.5,178.3L234,177.9L232,177.4L231,177.9L229.7,179.6L228.3,182.5L227.7,184.7L227.2,184.1L226.3,181.8L225.4,181.5L224.1,181.3L223.2,180.9L221.1,179.6L220.1,179.2L218.9,179.1L217.7,179.9L216.8,180.8L214,180.8L211,180.3L206.7,177.3L205.6,177.2L204.4,177.4L202.6,176.6L198.9,174.6L197.2,174.2L196.1,174.4L195.2,174.9L194.4,175L194,174.3L192.7,173.5L191.3,173.4L190.9,173.9L190.5,178.3L190,179.9L188.2,179.8L187.5,180.5L186,182.7L185.7,184.7L183.1,184.3L181.9,184L180.9,184.2L179.7,185.4L176.4,185.3L173.8,184.6L172.7,182.1L171.5,181.1L170,180.2L169.5,180L168.6,178.6L167.1,176.9L164.5,174.6L162.5,174.7L161.8,174.1L161.5,173.2L160.7,171.7L159.7,170.6L158.6,170.3L157,168.9L154.8,166.1L152.8,164L150.9,164.1L149.7,163.1L148.4,161.7L147.5,160.3L146.1,157.1L145.1,155.2L144.3,154.1L143.4,153.1L143,152.4L144.2,150.6L144.6,149.8L145,149.1L145.3,148.4L145.3,147.9L144.3,146.2L143,144.9L141,143.7L139.7,142L139.2,140.6L139,139.8L138.2,138.7L137.5,137.1L137.5,136.2L137.6,135.9L138.3,135.9L139,136.5L140.1,137.8L141,139.6L141.5,138.9L142.4,137L144.2,134.8L146,133.5L147.6,133.4L148.9,133L150,132.4L151.9,132.6L153.3,133.1L153.7,132.8L154.3,131.7L154.7,130.7L157.7,130.1L158.8,128.1L159.3,128.2L160.1,127.9L160.7,127.1L161.3,126.8L161.8,127.2L162.5,127.4L163.1,127L164.1,124.7L164.7,124.4L167.3,124.1L171,122.7L172.9,121.6L174.7,121L176.6,119.8L179.7,118.7L179.9,118.3L178.5,117.1L177.9,116.4L177.6,115.7L178.1,114.9L178.8,114.6L179.7,114.9L182.3,115.5L183,115.9L183.3,117.1L184,118.1L184.5,118.3L184.3,120L185.1,120.7L186.3,121.2L187.1,121.1L187.7,120.4L187.9,119.9L189.5,119.8L191.1,119.1L191.2,117.9L191.2,115.7L191.3,115.3L193.8,116L196.2,116.9L196.6,119.2L197.2,120.3L198,121.3L198.8,121.7L200,121.8L203.4,123.1L205,123.4L206.6,124.3L208,125.2L209,125.4L209.5,126.5L210.1,127.1L211.2,126.6L215.2,125.8L216.7,126.9L217.6,127.9L217.7,128.2L217.3,129.2L217,129.9L216.6,130.4L215.2,130.9L214.4,131.7L213.8,132.6L214.2,133.5L215.4,134.1L216.2,134.2L216.5,134.9L219,137.7L221.1,141.3L221.8,141.9L222.6,142L223.4,141.5L224.4,140.3L225.6,139.5L226.6,139L228.3,138L228.4,137.4L226.9,134.9L226.1,132.9L226.3,132.5L228.1,132.8L231.3,133.9L236.2,137.5L237.1,137.5L238.8,137.2L240.7,136.7L241.5,136L241.9,136.3L242.1,138.2L241.7,139.3L239.4,140.3L239.5,140.8L240.1,141.5L241.1,142L242.3,143.3L243.2,144.7L243.9,145.4L244.7,145.7L246.8,144.9L247.4,144.3L247.6,143.9L248,144L248.7,144.7L248.9,145.1L250.8,145.9L252,146.9L252.7,147.4L253.5,146.9L256.6,147.7L257.5,148.4L257.8,149.5L257.6,150.1L258.1,151.8L262,156L262.4,158.1Z" fill="#b8e653" stroke="#0c0e06" stroke-width="1"/></svg>
