<svg xmlns="http://www.w3.org/2000/svg" viewBox="0 0 300 300"><path fill="#e8e8ea" d="M130.5,272.3L126.8,269.9L123.2,267.6L122,267.6L116.7,268.1L116.6,267.9L115.7,266.6L114.9,266.2L114.4,266.4L114,266.8L113.5,266.7L111.1,264.6L110.2,264.3L108.8,264.6L107.3,265.7L106.6,267.1L106.7,267.9L107.6,268.2L109.7,268L110,268.2L110.1,268.7L109.9,269.1L108.1,269.5L107.6,270L107.1,270.1L106.8,270.2L105,269.6L102.2,269.6L100,270.6L96.3,271L91.5,270.8L89.7,270.1L88.7,269.6L87.9,267.6L88.1,264.4L89.3,260.2L89.6,257.1L89,255.1L89.7,252.1L91.7,248.2L92.9,244L93.6,239.6L94.5,236.7L96.3,234.7L100.6,229.1L101,228.6L100.8,225.8L99.6,225.4L98,224.5L93.7,223.5L89.7,222.9L87.8,222.1L86.2,220L85.2,219.9L83.3,220.7L80.8,221.2L79.1,220.8L78,220.9L77.4,221.3L77,220.9L76.6,219.1L75.7,218.5L74.3,218.1L73.4,218.3L72.7,219.2L71.8,219.9L70.9,219.7L68.2,215.4L67.5,214.5L67.3,213.6L66.7,212L65,210.5L63.4,210L62.6,210.1L62.7,208.1L63.3,205.3L63.9,203.8L64.7,202.6L65.6,201.7L65.7,200.2L65.7,198.7L64.7,198.5L62.1,197.4L60.7,196.3L59.6,194.8L58.2,192.9L57.6,190.9L57.5,188.9L57.8,188L57.8,187.4L59,184.3L63,181.5L62.6,178.7L62.5,176.9L61.5,175.8L59.6,175.4L59.1,174.6L58.8,173.8L60.3,172.1L58.5,170.7L57.8,169.3L55.4,167.5L55.1,166.9L56.3,161.7L55.4,160.1L54.3,159.4L53,159L52.4,158.3L52.2,157.4L52.4,156.9L53.9,157.1L54.4,156.6L58,153.5L58.1,152.9L57.7,152.5L57,152.4L56.8,151.7L56.8,150.8L58.8,146.4L59.4,144.5L59.4,143.1L59.4,141.8L58.2,139.7L57.1,138L57.1,136.7L56.4,136L54.1,132.4L54.1,131L55.4,129.9L57.1,129.2L57.8,128.6L58.8,128.3L61.6,129.3L62.8,130.3L63.2,130L64.3,129.1L66.3,129.2L71.1,127.3L71.7,126.3L72.3,125.3L72.4,124.9L70.5,122.9L70.4,122.2L70.7,121.4L71.2,120.8L72.3,120.3L73.5,119.4L76.1,117L77,114.9L77.3,112.7L77.4,110.9L76.6,109.6L75.9,108.7L74.9,108.8L73,108.8L71.2,108L70.2,106.8L70,105.7L70.4,105L70.6,104.1L70.3,103.3L70.4,102.6L71.2,102L76.9,102.1L77.3,101.4L77.7,98.1L79,93.1L80.4,90.3L80.7,89.1L80.6,82.5L80.8,79L79.8,77.4L77.7,75.7L78.2,72L78.9,69.2L81,65.7L82.7,64.7L90,64.2L98.1,64.4L101.5,69.7L100.3,72.4L102.2,73.6L103.2,73.2L103.9,70.8L104.3,68.2L105,67.4L107.6,69.4L108.5,70.7L108.5,75L109.4,69.2L108.7,65.1L109.2,61.1L110.3,59L111.2,57.7L117.1,59.1L123.7,58.4L126.2,60L131.8,67.7L133.6,68.9L136,69.3L132.8,67.7L125.9,58.3L123.9,57.1L120.8,56.8L118.8,55.9L117.6,54.4L117.3,53.2L117.3,43.7L116.1,42.3L114.6,41.8L113.6,42.4L111.7,42.5L111.3,40.3L111.8,38.6L115.7,37.6L118.3,36.1L118.4,33.5L116.7,31.4L114.8,27.7L112.5,24.1L112.3,20L116.3,20.1L117.3,20.3L123.2,22.2L124.7,23.5L126.6,23.6L129.9,22.3L132.5,21.8L133.4,22.6L134.8,22.9L135.1,22.9L135.2,23.5L138.3,24.6L139.6,26.1L141.1,28.5L141.2,31.9L139.4,34.4L137.9,35.9L143.7,35.3L144.3,36.7L145.2,38.3L148.3,37.2L156.2,41.6L161.1,39.5L162.3,39.3L163.4,43L162.1,46.6L157.9,50.4L158.9,52.8L160.2,53.3L164.2,52.8L170.5,55.2L171.8,54.5L177,49.1L179,47.9L185.7,47L187,44.9L189.7,42.8L191.4,40.6L195.7,36.1L200,36.9L202.5,37.8L205.3,38.2L207.9,42.9L214.3,48L220.2,47.6L222.3,52.5L223.2,58.5L225,60.4L226.6,61.6L231.4,62.9L231.6,63L231.7,63.8L232,66.8L232.4,69.2L234.9,79L234.9,81.4L234.8,82L233.9,85.4L232.3,88.1L230.2,89.7L229,91.5L228.8,93.4L231.5,96.8L237,101.6L239.3,105.7L238.3,109.1L237.9,111.6L238.3,113.3L239.2,114.5L240.6,115.4L241.1,117L240.9,118.9L241.1,120.3L242.1,121.3L242,121.7L241.6,123.1L240.9,125.6L240.5,127.4L238.9,130L239.4,132.1L240.6,134.6L241.6,135.8L241.9,137L241.2,139.9L241.6,140.6L245.4,142.7L246,143.6L246.4,145.6L247.8,149.9L246.6,155.3L245.6,158.2L243.5,162.8L243.3,163.3L243.1,163.8L242.4,164.6L241.5,164.7L240.1,164.1L239.2,163.4L239.4,161.4L238.8,161.2L238,160L237.7,158.7L236.9,158.1L233.9,157.6L232.9,157.2L232.1,157.5L231.5,158.4L231.9,159.3L232.5,160.1L234.1,161.4L233.9,161.9L230.3,163.1L228.1,164.5L226,165.2L223.9,166.5L219.6,168.1L216.6,168.5L216,168.8L214.8,171.4L214,171.9L213.3,171.7L212.7,171.2L212,171.6L211.3,172.5L210.4,172.8L209.8,172.7L208.6,175L205,175.7L204.7,176.8L204,178.2L203.5,178.5L201.9,177.9L199.7,177.6L198.4,178.4L196.9,178.8L195,178.9L193,180.4L191,182.9L189.9,185.2L189.3,186L188.3,183.9L187.1,182.4L186.2,181.7L185.4,181.7L185.3,182L185.3,183.1L186.1,185L187.1,186.2L187.2,187.1L187.8,188.8L189.3,190.6L191.6,192.1L193.1,193.5L194.3,195.5L194.3,196.1L194,196.9L193.4,197.6L193,198.7L191.7,200.7L192.1,201.6L193.1,202.6L194,204L195.2,206.1L196.8,209.8L197.9,211.4L199.4,213L200.7,214.2L202.9,214.1L205.2,216.4L207.7,219.7L209.6,221.3L210.9,221.7L212,223L212.9,224.7L213.3,225.7L214.1,226.4L216.4,226.2L219.3,229L221.1,230.9L222.1,232.5L221.9,233.1L221.7,235.1L221.7,237.2L221.5,238.3L220.2,239.7L219.5,240.1L219.1,240.4L215.1,238.4L214.8,238.8L214.5,239L213.4,244.5L212.7,245.5L211.6,246.6L209.3,247.5L207.7,247.9L206.4,248.3L202.5,250.6L200.7,252L199.6,253.7L199.6,254.7L201.5,257.6L203.7,260.7L203.7,263.3L202.7,265.2L202.5,266L203.2,266.3L204.4,266.4L205.4,266.7L205.9,268.1L205.7,270.5L205.3,272.8L205,273.7L204,273.8L202.1,272.8L200.7,271.7L200,271L200,270.2L200.4,269.6L199.8,268.6L198,267.7L196,268.1L194.6,268.7L193.7,268.7L192.7,267.8L191.1,267.1L189.1,266.6L187.8,266.1L187.5,266.4L187.7,268.4L187.3,269.3L177.3,270.4L174.2,271.5L172.1,272.8L170.4,273.4L170,274.3L168.4,275.4L166.5,275.7L166.1,275.4L164.9,275.9L162.9,276.4L161.6,276.2L161,275.3L159.8,274L159.2,273L159.3,272.4L156.5,272.3L154.7,271.5L150.9,271.7L150,271.4L149.8,271.7L149.2,275.6L148.5,277.3L147.3,278.9L145.8,279.8L144.5,280L144.6,278.8L144.9,277.3L144,277L142.7,276.8L142.1,276.4L142.2,275.3L141.9,274.6L141.4,273.9L140,272.9L137.2,271.4L135.3,270.6L134.5,271.4L133.2,272.2L131,271.9Z"/></svg>
