<svg xmlns="http://www.w3.org/2000/svg" viewBox="0 0 400 300"><path d="M326.2,97.7L307.3,98L294.7,96L297,88.2L311.2,82.4L321.9,85.5L326.5,88.3L325.4,93.2ZM400,71.6L399.8,71.5L394.4,73.7L392.9,69.2L382.1,64.5L378.8,53.6L377.9,44.4L373,40L377.4,34L374.3,15.8L381.7,4.3L380.1,0.7L380.9,0L400,0Z" fill="#2c2c34" stroke="#474751" stroke-width="0.8"/><path d="M211.5,0L210.6,1.6L206.1,13.2L199.2,0.9L178.9,23.9L165.2,28.4L151,18.4L147.9,0L211.5,0Z" fill="#2c2c34" stroke="#474751" stroke-width="0.8"/><path d="M156.4,178.7L161.2,182.9L176,185.8L170.8,196.4L169.5,207.3L166.7,209.9L162,208.5L162.3,212.4L154.8,220.8L154.7,227.6L159.6,225.3L163.1,231.8L162.7,235.9L165.7,241.4L162.1,245.9L164.8,257L170.4,258.8L169.2,265L159.9,273L139.6,269.2L124.7,273.8L123.5,282.2L111.6,284L100,277.7L96.3,280.7L77.4,274.3L73.3,268.9L78.6,260.3L80.6,231.4L70,215.7L62.4,208.1L46.7,202.2L45.7,191L59,187.6L76.2,191.6L73,173.8L82.7,180.6L106.6,168.2L109.7,154.9L118.7,151.7L120.1,157.4L124.9,157.6L129.7,164.1L136.8,171.7L142.1,170.4L151.1,177.7L153.4,179.1ZM182.6,280L189.2,274.7L191,286.6L187.6,297.3L182.9,294.5L180.6,285.2Z" fill="#2c2c34" stroke="#474751" stroke-width="0.8"/><path d="M280.9,0L276.3,11.2L265.6,15.8L261.7,48.3L255.9,65.7L243.4,64L237.6,78.4L225.7,79.3L222.4,62L213.9,40.7L206.1,13.2L206.1,13.2L210.6,1.6L211.5,0L280.9,0Z" fill="#2c2c34" stroke="#474751" stroke-width="0.8"/><path d="M400,147.5L393.2,148L390.5,144.2L386.6,147.1L382.8,144.7L374.7,144.3L363.2,140.4L352.9,139.1L344.9,139.5L339.3,143.9L334.4,144.6L334.2,137.2L331,129.4L337.2,126L337.2,119.2L334.4,112.6L333.9,105L343.8,105.1L355,98.5L357.4,88.5L365.8,82.8L364.8,74.7L371.1,71.6L382.1,64.5L382.1,64.5L392.9,69.2L394.4,73.7L399.8,71.5L400,71.6L400,147.5Z" fill="#2c2c34" stroke="#474751" stroke-width="0.8"/><path d="M400,237.6L396.8,242L392.1,239.5L387.3,241.9L382.7,239.2L385.3,237.6L387.1,232.5L389.9,227.8L389.2,225.1L391.3,223.9L392.3,226L398.4,226.4L400,225.8L400,237.6ZM400,224.5L399.2,223.8L399.9,221.6L396.3,217.8L394.8,211.5L391.1,209L391.8,203.8L387.2,199.7L382.9,199.1L375.4,194.3L368.6,195.8L366.1,198.1L361.8,198.1L359.2,201.7L351.6,203.2L348.1,205.5L343.4,201.8L336.8,201.7L330.4,200L326,203.3L325.3,199.2L319.6,195L321.6,188.7L324.4,184.7L326.7,185.6L324,178.5L333.3,165.3L338.4,163.4L339.5,158.8L334.4,144.6L339.3,143.9L344.9,139.5L352.9,139.1L363.2,140.4L374.7,144.3L382.8,144.7L386.6,147.1L390.5,144.2L393.2,148L400,147.5L400,224.5Z" fill="#2c2c34" stroke="#474751" stroke-width="0.8"/><path d="M333.9,105L334.4,112.6L337.2,119.2L337.2,126L331,129.4L334.2,137.2L334.4,144.6L339.5,158.8L338.4,163.4L333.3,165.3L324,178.5L326.7,185.6L324.4,184.7L314.7,178.6L307.3,180.9L302.4,179.2L296.4,182.6L291.2,177L287,179.2L286.4,178.2L281.7,170.4L274,169.4L273.1,164.4L266,162.6L264.5,166.8L258.9,163.4L259.5,159L251.9,157.6L247,152.3L242.8,141.8L243.6,136.1L241.1,127.1L237.3,121L240.2,116.5L237.8,107.7L244.8,102.6L260.8,94.4L273.8,88.4L284,91.4L284.8,95.8L294.7,96L307.3,98L326.2,97.7L331.5,99.6Z" fill="#2c2c34" stroke="#474751" stroke-width="0.8"/><path d="M267.2,199.6L266.4,205.9L260.6,205.9L262.6,209.2L259.2,218.9L257.2,221.5L248.2,221.8L243.1,225.2L234.6,224.1L219.9,220.2L217.6,215L207.5,217.6L206.3,220.5L200,218.3L194.8,217.9L190.2,215.2L191.7,211.5L191.4,208.8L194.4,207.9L199.6,212.1L201.1,208.1L210.1,208.8L217.5,206L222.4,206.5L225.6,209.6L226.6,207.1L225.1,197.1L228.8,195.1L232.4,187.9L240,193L245.8,186.6L249.5,185.4L257.4,190.2L262.2,189.4L267,192.3L266.1,194.3Z" fill="#2c2c34" stroke="#474751" stroke-width="0.8"/><path d="M319.6,195L325.3,199.2L326,203.3L319.7,206.5L314.9,216.8L308.7,226.9L300.4,229.7L294,229.1L286.2,233L282.3,235.2L273.8,232.3L266.2,226L262.9,224.1L260.9,219.1L259.2,218.9L262.6,209.2L260.6,205.9L266.4,205.9L267.2,199.6L272.4,203.5L276.2,205.2L284.8,203.3L285.6,200.3L289.7,199.8L294.7,197.4L295.8,198.4L300.6,196.5L303,192.8L306.4,191.9L317.4,196.6Z" fill="#2c2c34" stroke="#474751" stroke-width="0.8"/><path d="M400,225.8L398.4,226.4L392.3,226L391.3,223.9L389.2,225.1L389.9,227.8L387.1,232.5L385.3,237.6L382.7,239.2L380.8,232.4L381.9,226.1L381.6,219.6L375.7,210.6L372.4,204.2L369.2,199.6L366.1,198.1L366.1,198.1L368.6,195.8L375.4,194.3L382.9,199.1L387.2,199.7L391.8,203.8L391.1,209L394.8,211.5L396.3,217.8L399.9,221.6L399.2,223.8L400,224.5L400,225.8Z" fill="#2c2c34" stroke="#474751" stroke-width="0.8"/><path d="M382.7,239.2L387.3,241.9L392.1,239.5L396.8,242L397,245.7L392,248.9L388.9,247.5L386,264.8L380,263.3L372.5,258.1L360.4,261.5L355.3,265.1L340.3,264.3L332.4,262.1L328.4,263.2L325.4,257.3L323.6,254.8L326,252.4L323.4,250.6L320.2,253.8L314.2,249.6L313.4,243.6L307.1,240.2L306,235.5L300.4,229.7L308.7,226.9L314.9,216.8L319.7,206.5L326,203.3L330.4,200L336.8,201.7L343.4,201.8L348.1,205.5L351.6,203.2L359.2,201.7L361.8,198.1L366.1,198.1L369.2,199.6L372.4,204.2L375.7,210.6L381.6,219.6L381.9,226.1L380.8,232.4Z" fill="#2c2c34" stroke="#474751" stroke-width="0.8"/><path d="M364.8,74.7L365.8,82.8L357.4,88.5L355,98.5L343.8,105.1L333.9,105L331.5,99.6L326.2,97.7L325.4,93.2L326.5,88.3L321.9,85.5L311.2,82.4L309,67.1L320.7,61.4L338,62.6L348.1,60.8L349.5,64.6L355,65.8Z" fill="#2c2c34" stroke="#474751" stroke-width="0.8"/><path d="M373,40L377.9,44.4L378.8,53.6L382.1,64.5L371.1,71.6L364.8,74.7L355,65.8L349.5,64.6L348.1,60.8L338,62.6L320.7,61.4L309,67.1L309.4,53.1L314.4,41.2L324.1,34.7L332.2,48.9L340.5,48.6L342.4,33.9L351.2,30.5L355.7,32.9L364.5,40Z" fill="#2c2c34" stroke="#474751" stroke-width="0.8"/><path d="M365,0L369.5,1.3L380.1,0.7L380.1,0.7L381.7,4.3L374.3,15.8L377.4,34L373,40L364.5,40L355.7,32.9L351.2,30.5L342.4,33.9L343.6,22.5L339.9,24.9L333.3,18L332.5,6.5L345.4,1L349.6,0L365,0Z" fill="#2c2c34" stroke="#474751" stroke-width="0.8"/><path d="M325.4,257.3L328.4,263.2L332.4,262.1L340.3,264.3L355.3,265.1L360.4,261.5L372.5,258.1L380,263.3L386,264.8L380.7,270.7L377,280.7L380.2,288.6L371.4,286.8L361,291.1L360.8,298L351.5,299.3L344.3,294.5L336.1,298.2L328.5,297.8L327.7,288.7L322.6,284.3L324.3,282.3L323.2,280.7L324.9,276.2L328.8,271.8L323.8,265.7L322.9,260.5Z" fill="#2c2c34" stroke="#474751" stroke-width="0.8"/><path d="M325.3,300L326.5,298.3L328.5,297.8L328.5,297.8L336.1,298.2L344.3,294.5L351.5,299.3L360.8,298L361,291.1L365.9,294.8L364,300L325.3,300Z" fill="#2c2c34" stroke="#474751" stroke-width="0.8"/><path d="M392.8,300L393,299.5L398.9,300L392.8,300ZM364,300L365.9,294.8L361,291.1L361,291.1L371.4,286.8L380.2,288.6L381.5,293.9L390.4,298.4L389.5,300L364,300Z" fill="#2c2c34" stroke="#474751" stroke-width="0.8"/><path d="M291.7,300L292,296.9L293.4,292.6L291.7,290.4L291,286L295.5,279.2L296.1,281.8L298.9,280.6L301.1,284.3L303.5,285.7L304.2,290.7L302.9,295.4L304.1,300L291.7,300Z" fill="#2c2c34" stroke="#474751" stroke-width="0.8"/><path d="M262.9,224.1L266.2,226L273.8,232.3L282.3,235.2L286.2,233L288.6,238.7L291.9,242.8L288,248.3L283.3,245.1L276.2,245.3L267.4,242.9L262.6,243.2L260.4,246.2L256.7,242.9L254.5,248.9L259.5,255.6L261.8,260.1L266.5,265.4L270.4,268.5L274.3,274.4L283.4,279.7L282.2,282.1L272.6,276.9L266.6,271.9L257.2,267.7L248.6,257.2L250.7,256.1L246,250.1L245.8,245.2L239.2,242.9L236.1,249.1L233,244.3L233.3,239.2L233.6,239L240.8,239.5L242.7,237L246.2,239.4L250.2,239.7L250.2,235.6L253.7,234.1L254.7,228.1Z" fill="#2c2c34" stroke="#474751" stroke-width="0.8"/><path d="M191.4,208.8L191.7,211.5L190.2,215.2L194.8,217.9L200,218.3L199.2,224.5L194.7,227L187.1,225.1L184.9,231.1L180,231.6L178.2,229.2L172.5,234.2L167.5,234.9L163.1,231.8L159.6,225.3L154.7,227.6L154.8,220.8L162.3,212.4L162,208.5L166.7,209.9L169.5,207.3L178.2,207.4L180.3,204.1Z" fill="#2c2c34" stroke="#474751" stroke-width="0.8"/><path d="M154.9,168.2L156.9,171.8L156.4,178.7L153.4,179.1L151.1,177.7L152.2,168.8Z" fill="#2c2c34" stroke="#474751" stroke-width="0.8"/><path d="M156.1,157.3L154.9,168.2L152.2,168.8L151.1,177.7L142.1,170.4L136.8,171.7L129.7,164.1L124.9,157.6L120.1,157.4L118.7,151.7L126.9,148.4L134.4,149.7L143.9,146.3L150.4,153.5Z" fill="#2c2c34" stroke="#474751" stroke-width="0.8"/><path d="M163.7,112.4L165.6,118.3L163.1,133.8L160.5,140L154.3,140L156.1,157.3L150.4,153.5L143.9,146.3L134.4,149.7L126.9,148.4L132.1,143.9L141.2,119.2L155.2,111.9Z" fill="#2c2c34" stroke="#474751" stroke-width="0.8"/><path d="M2.6,300L2.6,299.9L0.5,295L0.1,290.4L0.1,290.4L3.8,286.9L8,284.9L10.6,291.6L16.7,291.6L18.4,289.9L24.4,290.4L27.3,297.2L23.7,300L2.6,300Z" fill="#2c2c34" stroke="#474751" stroke-width="0.8"/><path d="M23.7,300L27.3,297.2L24.4,290.4L18.4,289.9L16.7,291.6L10.6,291.6L8,284.9L3.8,286.9L0.1,290.4L0.6,280.5L0,279.6L0,271.9L0,271.9L10.9,264.3L23.5,266.8L37.3,266.7L48.2,269.1L56.7,268.4L73.3,268.9L77.4,274.3L96.3,280.7L100,277.7L111.6,284L123.5,282.2L124.1,290.2L114.3,299.4L111.5,300L23.7,300Z" fill="#2c2c34" stroke="#474751" stroke-width="0.8"/><path d="M0,99L7.3,91.7L15.1,83.4L17.2,93L15.1,102.4L21.5,102.2L29.2,105.8L29.2,105.8L30.9,118.1L23.2,133.2L4.9,143.1L0,142.2L0,99Z" fill="#2c2c34" stroke="#474751" stroke-width="0.8"/><path d="M232.8,300L232.7,299.9L225.1,299L217.1,292.8L207.7,283.8L200.7,275.8L197.6,261.8L192.5,260.2L184.1,255.4L179.4,257.4L173.4,264L169.2,265L170.4,258.8L164.8,257L162.1,245.9L165.7,241.4L162.7,235.9L163.1,231.8L167.5,234.9L172.5,234.2L178.2,229.2L180,231.6L184.9,231.1L187.1,225.1L194.7,227L199.2,224.5L200,218.3L200,218.3L206.3,220.5L207.5,217.6L217.6,215L219.9,220.2L234.6,224.1L233.4,231.4L235.9,237.6L227.8,235.5L219.4,240.7L220,247.9L218.7,252L222.1,259.4L231.7,266.5L236.9,278.2L248.3,289.4L256.3,289.3L258.8,292.3L256,295.1L265.1,300L232.8,300ZM186.9,300L187.4,299.6L187.7,300L186.9,300Z" fill="#2c2c34" stroke="#474751" stroke-width="0.8"/><path d="M194.7,86.1L188.1,88.8L180.4,86.4L176.2,76.4L175.9,57.7L177.6,52.6L180.6,47L189.6,45.8L193.2,40.6L201.4,35.1L201.1,45L198.1,51.1L199.3,56.4L204.9,59.2L202.4,66.1L199.3,64.1L191.9,77.3ZM219.8,65.6L223.1,74.8L217,89.3L206.2,79.2L204.8,71.7Z" fill="#2c2c34" stroke="#474751" stroke-width="0.8"/><path d="M29.2,105.8L21.5,102.2L15.1,102.4L17.2,93L15.1,83.4L23.7,82.7L34.7,93.7ZM61.1,113.8L61.1,113.8L62.6,103.7L55.7,92.9L55.6,92.6L43.1,89.5L40.7,84.7L44.4,76.6L41,71.6L35.5,80.2L34.9,62.6L29.7,53.1L33.4,33.4L41.4,17.6L49.6,19.2L62,17.5L51,38.6L61.5,35.9L72.7,36L70.1,51.5L60.8,68.1L71.4,69.3L72.2,71.2L81.4,92.5L88.4,95.3L94.7,115.2L97.7,121.9L110.1,125.2L108.9,135.9L103.6,140.8L107.7,149.3L98.5,157.9L84.8,157.7L67.3,162.2L62.5,159L55.7,166.5L46.2,164.7L39,170.9L33.5,167.7L48.6,150.6L57.8,147.1L57.7,147.1L41.7,144.3L38.8,137.7L49.5,132.5L43.9,123.4L45.8,112.2Z" fill="#2c2c34" stroke="#474751" stroke-width="0.8"/><path d="M234.6,224.1L243.1,225.2L248.2,221.8L257.2,221.5L259.2,218.9L260.9,219.1L262.9,224.1L254.7,228.1L253.7,234.1L250.2,235.6L250.2,239.7L246.2,239.4L242.7,237L240.8,239.5L233.6,239L235.9,237.6L233.4,231.4Z" fill="#2c2c34" stroke="#474751" stroke-width="0.8"/><path d="M324.4,184.7L321.6,188.7L319.6,195L317.4,196.6L306.4,191.9L303,192.8L300.6,196.5L295.8,198.4L294.7,197.4L289.7,199.8L285.6,200.3L284.8,203.3L276.2,205.2L272.4,203.5L267.2,199.6L266.1,194.3L267,192.3L268.4,188.9L273,189.1L276.5,187.5L276.7,186.1L278.7,185.3L279.4,181.8L281.8,181.1L283.3,178.2L286.4,178.2L287,179.2L291.2,177L296.4,182.6L302.4,179.2L307.3,180.9L314.7,178.6Z" fill="#2c2c34" stroke="#474751" stroke-width="0.8"/><path d="M247,152.3L251.9,157.6L259.5,159L258.9,163.4L264.5,166.8L266,162.6L273.1,164.4L274,169.4L281.7,170.4L286.4,178.2L283.3,178.2L281.8,181.1L279.4,181.8L278.7,185.3L276.7,186.1L276.5,187.5L273,189.1L268.4,188.9L267,192.3L262.2,189.4L257.4,190.2L249.5,185.4L245.8,186.6L240,193L232.4,187.9L226.6,181.2L221.4,177.4L220.3,170.7L218.5,165.9L225.9,162.4L229.8,158.4L237.1,155.3L239.7,152.2L242.4,154Z" fill="#2c2c34" stroke="#474751" stroke-width="0.8"/><path d="M283.4,279.7L274.3,274.4L270.4,268.5L266.5,265.4L261.8,260.1L259.5,255.6L254.5,248.9L256.7,242.9L260.4,246.2L262.6,243.2L267.4,242.9L276.2,245.3L283.3,245.1L288,248.3L291.7,248.3L289.1,254.6L294.1,260.1L292.5,266.8L290.1,267.4L288.2,268.7L284.9,272Z" fill="#2c2c34" stroke="#474751" stroke-width="0.8"/><path d="M304.1,300L302.9,295.4L304.2,290.7L305.5,290.8L306,288L312.1,285.9L314.3,285.4L317.9,284.5L322.6,284.3L322.6,284.3L327.7,288.7L328.5,297.8L326.5,298.3L325.3,300L304.1,300Z" fill="#2c2c34" stroke="#474751" stroke-width="0.8"/><path d="M286.2,233L294,229.1L300.4,229.7L306,235.5L307.1,240.2L313.4,243.6L314.2,249.6L320.2,253.8L323.4,250.6L326,252.4L323.6,254.8L325.4,257.3L322.9,260.5L323.8,265.7L328.8,271.8L324.9,276.2L323.2,280.7L324.3,282.3L322.6,284.3L317.9,284.5L314.3,285.4L314,284.3L315.2,282.6L316.4,279.3L314.9,279.3L312.9,276.7L311.2,276.1L309.9,273.8L308,273L306.5,271L304.7,271.8L303.3,276.4L300.8,277.5L301.6,276.2L297.7,273.3L294.4,271.8L292.9,269.9L290.1,267.4L292.5,266.8L294.1,260.1L289.1,254.6L291.7,248.3L288,248.3L291.9,242.8L288.6,238.7Z" fill="#2c2c34" stroke="#474751" stroke-width="0.8"/><path d="M298.9,280.6L296.1,281.8L295.5,279.2L291,286L291.7,290.4L289.6,289.4L286.7,284.9L282.2,282.1L283.4,279.7L284.9,272L288.2,268.7L290.1,267.4L292.9,269.9L294.4,271.8L297.7,273.3L301.6,276.2L300.8,277.5Z" fill="#2c2c34" stroke="#474751" stroke-width="0.8"/><path d="M304.2,290.7L303.5,285.7L301.1,284.3L298.9,280.6L300.8,277.5L303.3,276.4L304.7,271.8L306.5,271L308,273L309.9,273.8L311.2,276.1L312.9,276.7L314.9,279.3L316.4,279.3L315.2,282.6L314,284.3L314.3,285.4L312.1,285.9L306,288L305.5,290.8Z" fill="#2c2c34" stroke="#474751" stroke-width="0.8"/><path d="M190.6,208.8L188.8,207.7L187.1,206.5L186.5,206.5L184,206.8L183.9,206.7L183.5,206L183.1,205.9L182.9,206L182.7,206.1L182.4,206.1L181.3,205.1L180.9,205L180.2,205.1L179.5,205.6L179.1,206.3L179.2,206.7L179.6,206.8L180.6,206.7L180.8,206.8L180.8,207L180.7,207.3L179.9,207.4L179.6,207.7L179.4,207.8L179.2,207.8L178.3,207.5L177,207.5L175.9,208L174.2,208.2L171.9,208.1L171,207.7L170.5,207.5L170.1,206.5L170.2,205L170.8,203L171,201.5L170.7,200.5L171,199.1L171.9,197.2L172.5,195.2L172.9,193.1L173.3,191.7L174.2,190.7L176.2,188L176.4,187.8L176.3,186.4L175.8,186.2L175,185.8L172.9,185.4L171,185.1L170.1,184.7L169.3,183.6L168.8,183.6L167.9,184L166.7,184.2L165.9,184L165.4,184.1L165.1,184.3L164.9,184.1L164.7,183.2L164.3,183L163.6,182.8L163.2,182.8L162.9,183.3L162.4,183.6L162,183.5L160.7,181.5L160.3,181L160.2,180.6L159.9,179.8L159.1,179.1L158.3,178.8L158,178.9L158,177.9L158.3,176.6L158.6,175.9L159,175.3L159.4,174.9L159.5,174.1L159.5,173.4L159,173.3L157.8,172.8L157.1,172.2L156.5,171.6L155.9,170.6L155.6,169.7L155.5,168.7L155.7,168.3L155.7,168L156.2,166.5L158.2,165.1L158,163.8L157.9,163L157.5,162.4L156.5,162.2L156.3,161.8L156.2,161.4L156.9,160.6L156,160L155.7,159.3L154.5,158.4L154.4,158.1L154.9,155.6L154.5,154.9L154,154.5L153.4,154.3L153.1,154L153,153.6L153.1,153.3L153.8,153.4L154,153.1L155.8,151.7L155.8,151.4L155.6,151.2L155.3,151.1L155.2,150.8L155.2,150.4L156.1,148.3L156.4,147.3L156.5,146.7L156.4,146.1L155.9,145.1L155.4,144.3L155.4,143.6L155,143.2L153.9,141.5L153.9,140.9L154.5,140.3L155.4,140L155.7,139.7L156.1,139.6L157.5,140.1L158.1,140.5L158.3,140.4L158.8,139.9L159.8,140L162,139.1L162.4,138.6L162.6,138.1L162.7,137.9L161.8,137L161.7,136.6L161.9,136.2L162.1,135.9L162.6,135.7L163.2,135.3L164.5,134.1L164.9,133.1L165,132L165.1,131.2L164.7,130.6L164.4,130.1L163.9,130.2L163,130.2L162.1,129.8L161.6,129.2L161.5,128.7L161.7,128.4L161.8,128L161.7,127.5L161.7,127.2L162.1,126.9L164.9,127L165,126.6L165.2,125L165.9,122.7L166.6,121.3L166.7,120.7L166.6,117.5L166.7,115.9L166.3,115.1L165.3,114.3L165.5,112.5L165.8,111.2L166.8,109.5L167.6,109L171.2,108.7L175.1,108.8L176.7,111.4L176.1,112.7L177,113.3L177.5,113.1L177.8,111.9L178,110.7L178.4,110.3L179.6,111.3L180,111.9L180,113.9L180.5,111.2L180.2,109.2L180.4,107.3L180.9,106.3L181.3,105.6L184.2,106.3L187.4,106L188.5,106.7L191.2,110.4L192.1,111L193.3,111.2L191.7,110.4L188.4,105.9L187.5,105.3L186,105.2L185,104.7L184.4,104L184.3,103.4L184.3,98.9L183.7,98.2L183,98L182.5,98.3L181.6,98.3L181.4,97.3L181.6,96.5L183.5,95.9L184.7,95.2L184.8,94L184,93L183.1,91.2L182,89.5L181.9,87.5L183.8,87.5L184.3,87.6L187.1,88.6L187.8,89.2L188.7,89.2L190.4,88.6L191.6,88.4L192,88.7L192.7,88.9L192.8,88.9L192.9,89.2L194.4,89.7L195,90.4L195.7,91.6L195.8,93.2L194.9,94.4L194.2,95.1L197,94.9L197.3,95.5L197.7,96.3L199.2,95.8L203,97.9L205.3,96.9L205.9,96.8L206.4,98.5L205.8,100.3L203.8,102.1L204.3,103.3L204.9,103.5L206.8,103.3L209.9,104.4L210.5,104.1L213,101.5L213.9,100.9L217.2,100.5L217.8,99.5L219.1,98.5L219.9,97.4L222,95.2L224,95.6L225.2,96L226.6,96.3L227.8,98.5L230.9,101L233.7,100.8L234.7,103.1L235.2,106L236.1,106.9L236.8,107.5L239.1,108.1L239.2,108.2L239.3,108.5L239.4,110L239.6,111.2L240.8,115.9L240.8,117L240.8,117.3L240.4,118.9L239.6,120.3L238.5,121L238,121.9L237.9,122.8L239.2,124.4L241.8,126.7L242.9,128.7L242.4,130.4L242.2,131.5L242.5,132.3L242.9,132.9L243.5,133.4L243.8,134.1L243.7,135.1L243.8,135.7L244.3,136.2L244.2,136.4L244,137.1L243.7,138.3L243.5,139.2L242.7,140.4L243,141.4L243.6,142.6L244,143.2L244.2,143.8L243.9,145.1L244,145.5L245.9,146.5L246.2,146.9L246.3,147.9L247,149.9L246.5,152.5L246,153.9L244.9,156.1L244.9,156.4L244.8,156.6L244.4,157L244,157.1L243.3,156.8L242.9,156.4L243,155.5L242.7,155.4L242.3,154.8L242.2,154.2L241.8,153.9L240.3,153.6L239.8,153.5L239.5,153.6L239.2,154L239.4,154.5L239.7,154.8L240.4,155.5L240.4,155.7L238.6,156.3L237.6,157L236.6,157.3L235.5,158L233.5,158.7L232,158.9L231.7,159.1L231.2,160.3L230.8,160.5L230.4,160.4L230.2,160.2L229.8,160.4L229.5,160.8L229,161L228.8,160.9L228.2,162L226.5,162.3L226.3,162.9L225.9,163.5L225.7,163.7L224.9,163.4L223.9,163.3L223.3,163.7L222.5,163.8L221.7,163.9L220.7,164.6L219.7,165.8L219.2,166.9L218.9,167.3L218.4,166.3L217.8,165.6L217.4,165.2L217,165.2L217,165.4L217,165.9L217.3,166.8L217.8,167.4L217.9,167.8L218.2,168.6L218.9,169.5L220,170.2L220.7,170.9L221.3,171.9L221.3,172.2L221.1,172.5L220.9,172.9L220.7,173.4L220,174.4L220.2,174.8L220.7,175.3L221.2,175.9L221.7,177L222.5,178.8L223,179.5L223.7,180.3L224.4,180.9L225.4,180.8L226.5,181.9L227.8,183.5L228.6,184.3L229.3,184.5L229.8,185.1L230.2,185.9L230.4,186.4L230.8,186.7L231.9,186.7L233.3,188L234.2,188.9L234.7,189.7L234.6,190L234.5,190.9L234.5,191.9L234.4,192.4L233.7,193.1L233.4,193.3L233.2,193.4L231.3,192.5L231.2,192.7L231,192.8L230.5,195.5L230.2,195.9L229.6,196.4L228.5,196.9L227.8,197.1L227.1,197.3L225.2,198.4L224.4,199L223.8,199.9L223.8,200.4L224.8,201.7L225.8,203.2L225.8,204.4L225.4,205.4L225.2,205.8L225.6,205.9L226.2,206L226.6,206.1L226.9,206.8L226.8,207.9L226.6,209L226.5,209.5L226,209.5L225.1,209.1L224.4,208.5L224.1,208.2L224.1,207.8L224.2,207.5L223.9,207L223.1,206.6L222.1,206.8L221.4,207.1L221,207.1L220.5,206.6L219.8,206.3L218.8,206.1L218.2,205.8L218,206L218.1,206.9L217.9,207.3L213.1,207.9L211.6,208.4L210.6,209.1L209.8,209.3L209.6,209.8L208.8,210.3L207.9,210.4L207.7,210.3L207.2,210.5L206.2,210.8L205.6,210.7L205.3,210.3L204.7,209.6L204.4,209.1L204.5,208.8L203.1,208.8L202.3,208.4L200.4,208.5L200,208.4L199.9,208.5L199.6,210.4L199.3,211.2L198.7,212L198,212.4L197.4,212.5L197.4,211.9L197.6,211.2L197.1,211.1L196.5,211L196.2,210.8L196.3,210.2L196.1,209.9L195.9,209.6L195.2,209.1L193.9,208.4L192.9,208L192.6,208.4L191.9,208.8L190.9,208.6ZM233.6,96.7L233.9,97.9L233.6,98.5L232.4,97.5L231.2,97.5L230.6,99.1L230,99.2L228.2,97.7L228,97L227.9,96.5L228.2,94.5L228.1,93.9L228.7,93.2L228.8,92.2L229.8,91.2L230.6,91.1L230.9,92L231.3,92.6L232.8,93.3L233,93.6L233.2,94L232.5,94.9L232.3,95.3L232.5,96ZM238.7,104.3L238.6,104.9L238.8,105.7L238.3,105.7L237.1,105.8L235.8,105.6L235.6,104.5L235.8,103.5L235.3,102.8L234.8,102.4L234.7,101.8L234.8,101.2L237,102.9ZM208.7,96.1L207.1,96.2L206.5,95.5L205.9,95.3L206.2,94.4L206.7,94.1L208.2,94.7L208.6,95.8ZM178.1,89.6L177.9,89.9L178,87.4L179.1,84.7L179.6,84.8L179.1,85.5L179,86L178.8,87L178.9,87.6L181.4,87.7L181.2,88.2L178.5,88.5ZM181,90.9L180.6,91.3L179.6,91.3L179.1,90.9L179.3,90.4L179.8,90.1L180.2,90L180.9,90.3Z" fill="#b8e653" stroke="#0c0e06" stroke-width="1"/></svg>
