<svg xmlns="http://www.w3.org/2000/svg" viewBox="0 0 300 300"><path fill="#e8e8ea" d="M244.6,197.9L232.2,217.6L216.1,242.8L198,271.3L187.1,271.6L178.3,270.1L172,265.2L159.6,259.9L145.6,259.4L132.1,264.5L109.8,270.6L89.1,272.6L73,275.9L59,280L47.1,277.7L36.2,274.1L34.1,243.8L31.6,210.7L31.6,184.9L35.2,170.6L38.8,165L58,145.4L64.7,137.2L86.5,104.7L105.7,76.6L119.7,55.6L124.3,51.5L130,47.7L134.2,48.7L161.7,68.9L166.8,68.4L175.7,62L184,40.5L190.2,32.6L192.2,32.8L209.9,26.7L225.9,20L228,26.9L252.4,56.1L260.2,70.4L268.5,96.5L263.8,110.9L257.6,120.3L248.2,128.8L216.1,149.4L180.3,162.7L157.5,189L140.4,187.2L143,197.2L149.2,198.5L159.1,196.4L178.8,188.8L196.4,185.2L215.6,184.9L232.7,188.2Z"/></svg>
