<svg xmlns="http://www.w3.org/2000/svg" viewBox="0 0 400 300"><path d="M274.4,300L327.8,242.9L344.8,222.3L355.8,207.1L355.8,194.2L355.8,169.1L355.9,158.8L356.1,158.4L363.9,157.9L375.2,154.2L388.1,151.7L399.7,143.2L400,143.2L400,195.1L400,195.1L395.3,213.4L383.5,241L368.4,272.4L352.4,300L274.4,300Z" fill="#2c2c34" stroke="#474751" stroke-width="0.8"/><path d="M91.8,0L86.2,6.6L68.3,10.8L60.5,18.6L58.1,35.6L47.6,72.8L50.2,82.9L46.3,104.6L36.4,129.3L21.6,141.7L11.2,160.7L8.7,170.9L0,176.1L0,0Z" fill="#2c2c34" stroke="#474751" stroke-width="0.8"/><path d="M102.5,0L112.8,21.6L119.5,44.9L132.9,57.3L166.3,81.2L179.8,95.5L193.1,110L200.7,118.7L212.7,126.2L205.4,132.3L194.9,130.2L186.6,122.1L176.5,107.4L165.6,99.3L159.4,90.6L138.1,80.5L121.3,80.2L115.4,74.9L101.1,80.8L86.3,69.4L78.6,88.2L50.2,82.9L50.2,82.9L47.6,72.8L58.1,35.6L60.5,18.6L68.3,10.8L86.2,6.6L91.8,0L102.5,0Z" fill="#2c2c34" stroke="#474751" stroke-width="0.8"/><path d="M400,67L371.4,75.7L349.5,93.5L338.8,94.9L331.5,93.4L317.1,103.8L301.5,108.7L281.1,110L274.9,111.4L269.5,118L263.1,119.9L259.3,126.2L247.3,125.7L239.4,129.1L222.6,127.8L216.2,113.2L216.9,99.4L212.9,92L208.1,73.3L201.1,62.9L206,61.7L203.5,50.1L206.5,45.2L205.4,34.1L216,26L213.6,15.2L220.1,2.7L230.1,9.3L236.7,7L265,6.4L269.4,8.9L293,11.5L302.3,10.2L308.5,18.8L319.9,14.5L329.4,0L400,0Z" fill="#2c2c34" stroke="#474751" stroke-width="0.8"/><path d="M329.4,0L319.9,14.5L308.5,18.8L302.3,10.2L293,11.5L269.4,8.9L265,6.4L236.7,7L230.1,9.3L220.1,2.7L213.6,15.2L216,26L205.4,34.1L202.1,23.3L194.8,15.6L192.9,5.3L185.6,0L329.4,0Z" fill="#2c2c34" stroke="#474751" stroke-width="0.8"/><path d="M20.2,300L8.1,277.6L0,273.5L0,176.1L0,176.1L8.7,170.9L11.2,160.7L21.6,141.7L36.4,129.3L46.3,104.6L50.2,82.9L78.6,88.2L86.3,69.4L101.1,80.8L115.4,74.9L121.3,80.2L138.1,80.5L159.4,90.6L165.6,99.3L176.5,107.4L186.6,122.1L194.9,130.2L186.3,141.2L178,152.9L180,159.8L180.3,167.4L194,167.8L199.9,166L205.3,170.5L199.9,179.3L209,193L218,204.9L227.3,213.7L307.3,243.1L327.8,242.9L327.8,242.9L274.4,300L20.2,300Z" fill="#2c2c34" stroke="#474751" stroke-width="0.8"/><path d="M356.1,158.4L355.9,158.8L355.8,169.1L355.8,194.2L355.8,207.1L344.8,222.3L327.8,242.9L307.3,243.1L227.3,213.7L218,204.9L209,193L199.9,179.3L205.3,170.5L214.3,157.1L222.3,161.7L227,172.1L238,182.5L250.2,182.5L273.2,176.2L299.8,173.2L321.3,165.5L333.5,163.8L342.2,159.3Z" fill="#2c2c34" stroke="#474751" stroke-width="0.8"/><path d="M0,273.5L8.1,277.6L20.2,300L0,300Z" fill="#2c2c34" stroke="#474751" stroke-width="0.8"/><path d="M216.7,156.2L214.6,159.5L211.9,163.8L208.8,168.7L207,168.7L205.5,168.4L204.4,167.6L202.3,166.7L199.9,166.6L197.7,167.5L193.9,168.5L190.4,168.9L187.6,169.4L185.3,170.1L183.2,169.7L181.4,169.1L181,164L180.6,158.4L180.6,154L181.2,151.6L181.8,150.6L185.1,147.3L186.2,145.9L189.9,140.4L193.2,135.6L195.5,132.1L196.3,131.4L197.3,130.7L198,130.9L202.7,134.3L203.6,134.2L205.1,133.1L206.5,129.5L207.5,128.1L207.9,128.2L210.9,127.1L213.6,126L213.9,127.2L218.1,132.1L219.4,134.6L220.8,139L220,141.4L218.9,143L217.4,144.5L211.9,148L205.8,150.2L202,154.7L199.1,154.4L199.5,156.1L200.6,156.3L202.2,155.9L205.6,154.6L208.6,154L211.8,154L214.7,154.6Z" fill="#b8e653" stroke="#0c0e06" stroke-width="1"/></svg>
