<svg xmlns="http://www.w3.org/2000/svg" viewBox="0 0 300 300"><path fill="#e8e8ea" d="M300,195.3L300,204.1L298.7,206.7L296.9,208.4L292,210L287.7,212.6L283.8,217L282.6,223.2L285.4,227.7L290.9,230.1L292.3,238.8L287.7,243L276.4,247.2L275.1,257.4L275.5,265.4L275.3,271.2L274.4,279.3L265.2,282.8L259.2,270.6L259.2,265.7L257.2,260.1L257.1,255.1L254.9,247.4L246.1,245.3L242.7,245L237.9,246.3L236.9,245.9L231,235.1L232.1,223.2L229.1,217.1L228.5,214.4L228.7,211.4L226.2,209L223,207.6L221.6,200.9L225.2,199.3L233.7,200L236.3,199.6L238.6,198.2L245.5,187.1L245.4,184.7L246.1,181.5L253.5,180.2L256.9,184.5L256.4,191.5L256.7,200.2L261.3,202.6L263.1,203.1L264.9,196.5L266.3,193.3L268.1,191.5L268.8,185.6L267.7,181.9L265.4,179.3L273.9,171.8L282.8,166L287.9,165.7L293,167.1L297.8,169.1L300.5,170.8L301.9,173.5L298.7,180.1L297.8,183.6ZM160.6,278.4L159.9,278.4L156.7,277.6L154.6,275.8L148.8,277L141,280L136.7,279.9L133.3,276.7L119.5,272.3L117.2,271.8L108,271.7L107.5,264.5L106.4,259.5L103.2,251.9L108,250.1L107.1,235.1L105.3,227.2L92,219.3L81.4,211.5L83.9,185.1L84.9,178.1L80.9,164.2L81.4,148L83,122.7L86.4,121.6L88.8,121.7L98.2,126.4L102.1,126.8L104.8,130.9L108,132.6L110.3,128.2L111.2,120.8L118.6,111.1L123.9,107.6L127.5,105.8L131,109.7L133.9,114.1L134.6,104.6L136.7,86.3L129.6,83.3L123.8,85.8L118.1,97.4L113,112.1L104.6,113.3L98.1,117.5L92,113.2L88.1,109.4L88.1,104L89,100.5L95.9,88.6L105.5,77.2L114.9,77.3L121.8,73.7L126.1,73.2L138.8,74L145.6,71.5L151.4,66.1L164.4,43.8L171.6,34.4L186.2,31L199.6,20.2L203.5,20L197.1,28.2L196.1,31.2L195.4,36L199.8,46.5L198.9,52.8L199.3,65.2L195,71.6L190.1,85.3L187.9,87.4L187.6,103.2L188.1,107.1L187.4,121.4L192.4,127.3L197.5,130.4L215.1,130.3L216.8,132.7L219.1,137.2L217.5,144.8L215.6,150.3L210.6,155.1L204.1,158.6L200,158.8L194.5,152L191.8,154.2L189.2,157.7L184.6,176L182.4,188.3L181.4,189.4L178.7,187.6L174.3,187.4L168.8,190.3L171.6,192.9L174.6,197.4L173.4,199.7L168.4,202.2L164.2,207L162.2,210.8L156.7,215.2L153.4,220.8L155,227.7L155.7,233.7L157.3,240.5L155.8,245.7L149.1,253.4L146.6,260.1L152.3,259.9L156,261.4L158.2,263.4L160.3,266.2L158.9,269.6ZM205.1,210.6L207.3,215.2L209.7,224.8L213.8,235.7L212,240.2L213.3,245.9L212,252L204.2,258.9L195.2,259.2L186,255.9L172.9,249.3L171.8,245.7L170,243.8L166.5,232.7L166.7,218.8L173.2,217.1L187.6,210.6L190.8,211.5L194.3,215L198.4,215.2L204.1,210.3ZM240.4,272.7L249.3,278.1L255.1,277.8L259,279.9L260.1,283.3L260.4,290.8L256.2,293L251.6,292.3L245.2,295.1L224.4,282.8L224.8,272.6L225.5,268.6L235.4,267.5Z"/></svg>
