<svg xmlns="http://www.w3.org/2000/svg" viewBox="0 0 400 300"><path d="M252.4,0L246,10.4L235.6,37.1L219.7,8.7L173,61.8L141.4,72.2L108.6,49.3L100.3,0L252.4,0Z" fill="#2c2c34" stroke="#474751" stroke-width="0.8"/><path d="M400,26.6L397.5,32.6L372.9,43.3L363.9,118L350.5,158.3L321.8,154.2L308.3,187.6L281,189.5L273.4,149.7L253.6,100.5L235.6,37.1L235.6,37.1L246,10.4L252.4,0L400,0Z" fill="#2c2c34" stroke="#474751" stroke-width="0.8"/><path d="M316.4,300L316.3,299.8L307.7,285.8L314.3,275.3L308.8,255.1L324.9,243.2L361.9,224.5L391.7,210.6L400,213.1L400,300Z" fill="#2c2c34" stroke="#474751" stroke-width="0.8"/><path d="M139,300L142.4,279.4L138,266L142.6,257.6L162.4,255.4L166.9,264.2L182.9,244.5L177.5,229.3L176.4,206L194.3,211.5L209.5,205.2L209.8,221.1L233.7,230.6L233.5,245L257.6,237.4L270.9,226.2L297.6,242.2L308.8,255.1L308.8,255.1L314.3,275.3L307.7,285.8L316.3,299.8L316.4,300L139,300Z" fill="#2c2c34" stroke="#474751" stroke-width="0.8"/><path d="M79.2,300L86,281.5L118.4,264.9L138,266L138,266L142.4,279.4L139,300L79.2,300Z" fill="#2c2c34" stroke="#474751" stroke-width="0.8"/><path d="M0,291.6L14.4,295.3L13.9,300L0,300Z" fill="#2c2c34" stroke="#474751" stroke-width="0.8"/><path d="M272.1,171.8L272.1,176L271.5,177.3L270.6,178.1L268.3,178.9L266.2,180.1L264.3,182.2L263.7,185.2L265.1,187.4L267.7,188.5L268.4,192.7L266.2,194.7L260.8,196.7L260.2,201.6L260.3,205.5L260.2,208.3L259.8,212.1L255.4,213.9L252.5,208L252.5,205.6L251.6,202.9L251.5,200.6L250.4,196.8L246.2,195.8L244.6,195.7L242.3,196.3L241.8,196.1L238.9,190.9L239.5,185.2L238,182.3L237.8,181L237.8,179.5L236.6,178.4L235.1,177.7L234.4,174.5L236.1,173.7L240.2,174.1L241.5,173.8L242.6,173.2L245.9,167.8L245.8,166.7L246.2,165.1L249.8,164.5L251.4,166.6L251.1,170L251.3,174.1L253.5,175.3L254.4,175.5L255.2,172.4L255.9,170.8L256.8,170L257.1,167.1L256.6,165.3L255.5,164.1L259.6,160.5L263.8,157.7L266.3,157.6L268.8,158.2L271.1,159.2L272.4,160L273,161.3L271.5,164.5L271.1,166.2ZM205.1,211.7L204.8,211.7L203.2,211.4L202.2,210.5L199.4,211.1L195.7,212.5L193.6,212.4L192,210.9L185.3,208.8L184.2,208.6L179.8,208.5L179.5,205.1L179,202.6L177.5,199L179.8,198.1L179.4,190.9L178.5,187.1L172.1,183.3L167,179.6L168.2,166.9L168.7,163.5L166.8,156.8L167,149.1L167.8,136.9L169.4,136.3L170.6,136.4L175.1,138.6L177,138.9L178.3,140.8L179.8,141.6L180.9,139.5L181.3,136L184.9,131.3L187.5,129.6L189.2,128.8L190.9,130.6L192.2,132.7L192.6,128.2L193.6,119.4L190.2,117.9L187.4,119.1L184.7,124.7L182.2,131.8L178.2,132.4L175,134.4L172.1,132.3L170.3,130.5L170.3,127.9L170.7,126.2L174,120.5L178.6,115L183.1,115.1L186.5,113.3L188.5,113.1L194.6,113.5L197.9,112.3L200.7,109.7L206.9,98.9L210.4,94.4L217.4,92.8L223.9,87.6L225.7,87.5L222.7,91.4L222.2,92.9L221.8,95.2L223.9,100.2L223.5,103.3L223.7,109.2L221.6,112.3L219.3,118.9L218.2,119.9L218.1,127.5L218.3,129.4L218,136.3L220.4,139.1L222.8,140.6L231.3,140.5L232.1,141.7L233.2,143.9L232.5,147.5L231.5,150.2L229.1,152.5L226,154.2L224,154.2L221.4,151L220.1,152L218.8,153.7L216.6,162.5L215.6,168.4L215.1,168.9L213.8,168.1L211.7,168L209,169.4L210.4,170.6L211.8,172.8L211.2,173.9L208.9,175.1L206.8,177.4L205.9,179.2L203.2,181.3L201.6,184L202.4,187.4L202.7,190.2L203.5,193.5L202.8,196L199.6,199.7L198.4,202.9L201.1,202.8L202.9,203.6L203.9,204.5L204.9,205.9L204.3,207.5ZM226.5,179.2L227.5,181.3L228.7,186L230.7,191.2L229.8,193.4L230.4,196.1L229.8,199L226.1,202.3L221.7,202.5L217.3,200.9L211,197.7L210.5,196L209.6,195.1L207.9,189.7L208,183.1L211.2,182.3L218.1,179.2L219.6,179.6L221.3,181.3L223.3,181.3L226,179ZM243.5,209L247.7,211.6L250.5,211.4L252.4,212.4L252.9,214.1L253.1,217.7L251,218.8L248.8,218.4L245.8,219.8L235.8,213.9L236,208.9L236.3,207L241.1,206.5ZM228.6,214.8L227.6,215L226.2,211.7L226,210.6L227.7,208.5L228.7,206.1L231.5,202.3L233.2,198L233.7,198L233.1,202L229.4,212.8ZM271.6,205.9L270.7,206.6L267.1,206.1L263,208.9L261.4,208.1L262,206.2L262.5,205.6L263.8,204.8L264.8,203.6L265.1,201.8L266,202.8L268.5,203.2L269.7,203.8L270.7,204.6ZM274.4,179.7L272.2,181.5L271.7,181.4L270.9,178.9L272.1,177.5L272.8,176.2L273.3,176.2L274,177.6ZM222.8,210.8L221.1,211.2L219.3,210.4L216.4,206.9L216,206.1L217.6,206.6L219.5,208.4L221,208.8L223.2,210.3ZM212.7,209.2L210.2,209.8L209,208.8L206.6,208.4L205.9,202.1L206.1,201.7L207.2,202.1L211.2,205.1L212.6,208.3ZM225.7,171.9L225.2,172.7L223.8,171.9L223.6,169.2L224.1,166.7L223.5,164.5L224.2,163.1L226.3,166.4L226.9,167.9L226.2,169.7ZM236.2,108.8L235.2,109.8L232,108.4L233.4,106.4L237,105.4L239,105.7L236.7,107.8ZM331.7,203.6L330.8,204.4L326.9,203.1L322.1,200.3L322.9,194.7L324.1,192.2L332.8,198.5L332.9,200.9Z" fill="#b8e653" stroke="#0c0e06" stroke-width="1"/></svg>
