<svg xmlns="http://www.w3.org/2000/svg" viewBox="0 0 400 300"><path d="M0,51.1L7.8,50.8L7,58.5L17.9,59.4L29.9,68.9L20.8,79.4L9.2,73.8L0,74.7L0,51.1Z" fill="#2c2c34" stroke="#474751" stroke-width="0.8"/><path d="M0,250L16.2,250.4L32,264.3L33,272.5L54.9,272.8L81,270.2L95,281.3L113.7,284.4L127.4,276.6L127.7,270.4L158,268.9L187.3,268.5L166.5,275.9L174.9,287.6L194.4,289.5L210.3,300L0,300Z" fill="#2c2c34" stroke="#474751" stroke-width="0.8"/><path d="M79.7,71.4L92.2,73.7L96.6,78.8L90.3,85.3L71.9,85.1L57.6,86L56.2,75L59.7,71.3Z" fill="#2c2c34" stroke="#474751" stroke-width="0.8"/><path d="M192.1,267.4L206.2,264.2L211.3,265.1L210.3,283.6L189.9,286.3L185.5,284.1L192.6,277.2Z" fill="#2c2c34" stroke="#474751" stroke-width="0.8"/><path d="M201.9,154.8L199.6,155.4L198.6,151L197,147.8L197.3,145.8L197.5,145.1L200.9,146.3L201.9,147.8L202.6,151.7Z" fill="#b8e653" stroke="#0c0e06" stroke-width="1"/></svg>
