<svg xmlns="http://www.w3.org/2000/svg" viewBox="0 0 300 300"><path fill="#e8e8ea" d="M36.4,205.3L36.6,193L38.7,188.1L36.9,182.7L28.9,177.1L24.1,169.9L20,163.5L20.8,162.6L29.5,162.3L32.5,160L38.2,153.5L39.4,148.1L38.9,144.1L35.1,139.4L33.6,134.3L38.2,129.9L44.3,123.5L45.1,121L45.1,118.7L37.9,111.9L37.4,109L40.7,101.7L40.5,96.7L37.1,81.5L35.6,79.3L38.7,78L40.7,73.6L43.5,69.5L47.1,67.3L51.4,66L59.6,66.1L70.9,69.6L74.2,69.5L85.2,66.3L94.1,64.5L102.8,66.6L106.2,69.4L113.3,73.7L116.9,75L127.9,74.9L131,75.3L140.4,82.5L148.1,85.3L152.7,85.5L160.9,82.7L165,82.9L169.6,89L170.6,97.8L174.4,105.7L180.6,110.8L210,108.7L216.3,112.9L214.3,116.5L210,118.3L196.1,117.5L190,117.9L188.7,121.3L188.7,124.5L196.9,125.3L204.8,126.9L213,129.5L221.5,131.2L230.7,132.4L239.9,134.2L255.5,140.6L272.3,154.8L276.9,158L280,162.5L278.5,168.1L272.3,177L269,179.9L263.9,181.7L260.6,185.3L257.2,191.7L255.2,192.2L252.9,192L248.8,188.3L245.7,182.9L237.6,177.8L227.8,178.4L213.5,175.3L204.8,176.9L196.1,177.1L187.2,175.6L178.3,175.1L169.3,177L160.6,180.3L157.5,182.5L151.9,187.5L148.9,189.5L127.9,192.1L121.8,188.3L116.1,183.1L107.9,182.5L96.2,186.4L89,187.8L86,189.6L85.2,191.4L85.2,198.7L83.4,203L71.9,219.4L65.5,231.1L63,234.7L59.9,235.5L54,228.8L50.4,226.3L46.1,225.1L44.3,221.6L44.3,216.6L43,211.7L40.5,207.9Z"/></svg>
