<svg xmlns="http://www.w3.org/2000/svg" viewBox="0 0 400 300"><path d="M170.5,128.8L172.6,142.9L170.8,152.9L164.8,157.2L171.1,164.9L170.6,171.9L154.4,167.6L142.8,169.3L128,167.5L116.5,172.3L103.4,164.2L105.5,156L128.1,159.5L146.5,161.6L155.3,155.9L144.1,144.7L144.3,134.8L128.9,130.7L134.4,123.6L149.3,124.7Z" fill="#2c2c34" stroke="#474751" stroke-width="0.8"/><path d="M25.5,0L28.1,6.8L28.2,22.4L22.2,23.7L16.1,8.3L6.9,0.5L7.1,0L25.5,0Z" fill="#2c2c34" stroke="#474751" stroke-width="0.8"/><path d="M303.2,159.8L315.7,162.1L320.1,167.2L313.8,173.7L295.4,173.5L281.1,174.4L279.7,163.4L283.2,159.7Z" fill="#2c2c34" stroke="#474751" stroke-width="0.8"/><path d="M27.4,160.4L43.9,162.8L56.8,168.9L60.8,175.9L43.7,176.4L36.3,180.7L22.6,176.6L8.6,167.2L11.6,161.4L21.8,159.6Z" fill="#2c2c34" stroke="#474751" stroke-width="0.8"/><path d="M0,56.6L8.4,55.5L17,61.7L37.7,78L52.9,89.9L61,89.5L75.5,94.8L73.8,102.2L91.8,103.3L110.3,114L107.4,120.1L91.1,123.4L74.7,124.6L57.9,122.6L22.8,125.1L39.2,110.6L29.3,103.8L13.5,102.1L5.1,94.5L0,81.5L0,56.6Z" fill="#2c2c34" stroke="#474751" stroke-width="0.8"/><path d="M169.1,172L169.2,167.8L169.9,166.1L169.3,164.3L166.6,162.4L164.9,159.8L163.5,157.7L163.8,157.3L166.8,157.3L167.8,156.4L169.7,154.2L170.2,152.4L170,151L168.7,149.4L168.2,147.6L169.7,146.1L171.9,143.9L172.1,143L172.1,142.2L169.7,139.9L169.5,138.9L170.6,136.4L170.5,134.7L169.4,129.5L168.9,128.7L169.9,128.2L170.6,126.7L171.6,125.3L172.8,124.5L174.3,124.1L177.1,124.1L181,125.4L182.1,125.3L185.9,124.2L189,123.6L192,124.3L193.1,125.3L195.6,126.8L196.8,127.2L200.6,127.2L201.7,127.3L204.9,129.8L207.6,130.8L209.2,130.8L212,129.9L213.4,129.9L215,132L215.3,135L216.6,137.8L218.7,139.5L228.9,138.8L231.1,140.3L230.4,141.5L228.9,142.1L224.1,141.8L222,142L221.6,143.1L221.6,144.3L224.4,144.5L227.1,145.1L229.9,146L232.8,146.5L236,146.9L239.2,147.6L244.5,149.8L250.3,154.7L251.9,155.8L253,157.3L252.4,159.2L250.3,162.3L249.2,163.3L247.4,163.9L246.3,165.2L245.1,167.4L244.4,167.5L243.6,167.4L242.2,166.2L241.2,164.3L238.4,162.6L235,162.8L230.1,161.7L227.1,162.3L224.1,162.4L221,161.8L218,161.6L214.9,162.3L211.9,163.4L210.8,164.2L208.9,165.9L207.8,166.6L200.6,167.5L198.5,166.2L196.6,164.4L193.8,164.2L189.7,165.5L187.3,166L186.2,166.6L185.9,167.3L185.9,169.8L185.3,171.2L181.4,176.9L179.2,180.9L178.3,182.2L177.2,182.4L175.2,180.1L174,179.3L172.5,178.9L171.9,177.7L171.9,175.9L171.4,174.2L170.5,172.9Z" fill="#b8e653" stroke="#0c0e06" stroke-width="1"/></svg>
