<svg xmlns="http://www.w3.org/2000/svg" viewBox="0 0 400 300"><path d="M137.6,155.3L137.6,155.7L137.5,157L137.5,167.3L117.6,167L117.8,184L112.1,184.6L110.7,188L111.8,197.4L88.1,197.4L86.8,199.5L87.1,196.8L87.2,196.8L100.8,196.3L101.5,193.9L104,191L106,181.9L114.4,174.8L117.3,166.3L119.1,165.8L121.1,160.5L126.2,159.8L128.4,160.7L131.1,160.7L133.1,159.1L136.8,158.9L136.7,155.3Z" fill="#2c2c34" stroke="#474751" stroke-width="0.8"/><path d="M306.3,300L307.9,299.1L310.1,300L306.3,300ZM334.7,300L337.8,298.6L340.2,299.9L342.2,299.7L343.1,298.2L345.3,297.7L349.9,298.3L353.8,298.5L355.7,297.8L357.3,300L334.7,300Z" fill="#2c2c34" stroke="#474751" stroke-width="0.8"/><path d="M399.8,300L400,299.8L400,300Z" fill="#2c2c34" stroke="#474751" stroke-width="0.8"/><path d="M400,263.3L397.4,264.9L395.6,271.3L395.7,276.8L395.6,272L394.8,271.9L394.9,268.8L394.2,266.7L391.1,264.3L390.3,259.9L391.1,255.3L388.2,254.9L387.8,256.2L384.2,256.6L385.6,258.4L386.1,262.1L382.8,265.5L379.8,269.9L376.7,270.5L371.6,266.9L369.3,268.2L368.7,270L365.6,271.2L365.4,272.4L359.3,272.4L358.5,271.2L354.2,271L352,272L350.3,271.5L347.2,267.9L346.1,266.2L341.8,267L340.1,269.9L338.6,275.4L336.5,276.5L334.6,277.2L338.8,279.6L338.8,279.6L334.1,276.9L332,275.1L331.7,273.2L332.6,270.7L332.6,268.2L329.1,264.3L328.5,261.7L328.5,260.2L326.3,258.4L326.2,254.8L325,252.4L322.8,252.8L323.4,250.5L325,247.9L324.3,245.3L326.3,243.4L325.1,241.9L326.6,238.1L329.4,233.5L334.6,233.9L334.3,208.7L334.4,206L341.4,206L341.4,193L365.7,193L389.2,193L400,193L400,263.3Z" fill="#2c2c34" stroke="#474751" stroke-width="0.8"/><path d="M334.3,208.7L334.6,233.9L329.4,233.5L326.6,238.1L325.1,241.9L326.3,243.4L324.3,245.3L325,247.9L323.4,250.5L322.8,252.8L325,252.4L326.2,254.8L326.3,258.4L328.5,260.2L328.5,261.7L324.6,262.7L321.5,265.2L317.2,272L311.5,274.8L305.6,274.4L303.9,275L304.5,277.1L301.4,279.3L298.8,281.7L291.2,284L289.7,282.6L288.7,282.5L287.5,284.1L282.5,284.5L283.5,282.9L281.6,278.7L280.7,276.1L278.1,275.1L274.5,271.5L275.8,268.6L278.6,269.2L280.3,268.8L283.7,268.8L280.4,263.3L280.6,259.1L280.2,255L277.8,251.1L278.4,248.1L274.5,248L274.5,244L272,241.7L274.6,233.4L282.3,227.5L282.7,219.2L285,206.3L286.3,203.5L283.8,201.3L283.7,199.2L281.4,197.5L280,187.4L286.1,183.8L310.2,196.3Z" fill="#2c2c34" stroke="#474751" stroke-width="0.8"/><path d="M400,26.4L395.1,29.4L391.8,27.6L393.1,23.6L386.5,21.1L387.6,19.5L393.3,16.6L392.4,15.5L392.4,15.5L394,13.4L398.3,15.3L400,15.5L400,26.4Z" fill="#2c2c34" stroke="#474751" stroke-width="0.8"/><path d="M235.4,0L235.3,1L233.6,2.5L230.8,1.7L231,3.9L226.6,8.9L226.5,12.9L229.4,11.5L231.5,15.4L231.2,17.8L233,21.1L230.9,23.7L232.5,30.3L235.8,31.3L235.1,35L229.6,39.7L217.6,37.4L208.8,40.1L208.1,45.1L201.1,46.2L194.3,42.5L192.1,44.2L181,40.5L178.5,37.2L181.7,32.2L182.8,15.2L176.6,5.9L172.1,1.4L168.3,0L235.4,0ZM243,43.8L246.9,40.7L247.9,47.7L245.9,54L243.2,52.4L241.8,46.9Z" fill="#2c2c34" stroke="#474751" stroke-width="0.8"/><path d="M88.9,246.5L86.4,241.6L83.4,239.4L86.1,238.2L89,233.8L90.4,230.6L92.5,228.6L95.5,229.1L98.5,227.7L101.8,227.7L104.7,229.5L108.7,231.2L112.4,235.8L116.4,240.1L116.7,244L117.9,247.6L120.1,249.3L120.7,251.7L120.4,253.7L119.5,254L116.2,253.5L115.8,254.2L114.4,254.3L110.1,252.8L107.1,252.8L96,252.5L94.3,253.2L92.3,253L89.1,254L88.1,249.3L93.6,249.4L95.1,248.5L96.2,248.5L98.4,247L101,248.3L103.7,248.5L106.3,247.1L105.1,245.3L103.1,246.3L101.2,246.3L98.8,244.7L96.9,244.8L95.5,246.3Z" fill="#2c2c34" stroke="#474751" stroke-width="0.8"/><path d="M120.4,253.7L120.7,251.7L120.1,249.3L117.9,247.6L116.7,244L116.4,240.1L118.4,239L119.5,235.3L121.4,235.1L125.6,236.9L129,235.7L131.4,236.1L132.3,234.7L156.5,234.6L157.9,230.2L156.8,229.4L153.9,201.8L151,173.5L160.3,173.4L180.7,187.8L201.1,202L202.5,205.1L206.3,206.9L209.1,208L209.2,212L215.9,211.4L215.9,226.1L212.6,230.3L212.1,234.2L206.7,235.2L198.4,235.7L196.2,237.9L192.3,238.2L188.5,238.2L186.9,237L183.6,237.9L178,240.5L176.8,242.4L172.1,245.2L171.3,246.8L168.7,248.1L165.8,247.3L164.2,248.8L163.3,253L158.5,258.2L158.6,260.3L157,262.9L157.3,266.4L154.9,267.4L153.4,268.1L152.5,265.5L150.8,266.2L149.7,266.1L148.6,267.9L143.9,267.8L142.3,266.9L141.5,267.5L139.6,265.7L139.9,263.9L139.2,263.1L137.9,263.7L138.1,261.7L139.4,260.1L136.9,257.6L136.2,255.8L134.8,254.5L133.6,254.3L132.2,255.2L130.2,256L128.5,257.4L126,256.9L124.3,255.3L123.3,255.1L121.7,255.9L120.7,255.9Z" fill="#2c2c34" stroke="#474751" stroke-width="0.8"/><path d="M86.8,199.5L88.1,197.4L111.8,197.4L110.7,188L112.1,184.6L117.8,184L117.6,167L137.5,167.3L137.5,157L160.3,173.4L151,173.5L153.9,201.8L156.8,229.4L157.9,230.2L156.5,234.6L132.3,234.7L131.4,236.1L129,235.7L125.6,236.9L121.4,235.1L119.5,235.3L118.4,239L116.4,240.1L112.4,235.8L108.7,231.2L104.7,229.5L101.8,227.7L98.5,227.7L95.5,229.1L92.5,228.6L90.4,230.6L89.9,227.2L91.6,224.1L92.3,218.1L91.7,211.8L90.9,208.6L91.5,205.4L90,202.3Z" fill="#2c2c34" stroke="#474751" stroke-width="0.8"/><path d="M206.4,291.6L201.4,292.3L199.9,288.1L200.1,274.1L198.9,272.8L198.7,269.8L196.6,267.6L194.7,265.8L195.5,262.6L197.6,261.9L198.8,259.2L201.8,258.6L203.1,256.8L205.1,255L207.3,254.9L211.9,258.5L211.7,260.6L213,264.2L211.9,266.7L212.5,268.3L209.6,272.1L207.7,274L206.5,277.9L206.7,281.8Z" fill="#2c2c34" stroke="#474751" stroke-width="0.8"/><path d="M280,187.4L281.4,197.5L283.7,199.2L283.8,201.3L286.3,203.5L285,206.3L282.7,219.2L282.3,227.5L274.6,233.4L272,241.7L274.5,244L274.5,248L278.4,248.1L277.8,251.1L276.1,251.4L275.9,253.4L274.8,253.5L270.7,246.7L269.3,246.5L264.5,250L259.8,248.2L256.6,247.8L254.8,248.7L251.3,248.5L247.7,251.1L244.6,251.3L237.3,248.1L234.4,249.6L231.3,249.5L229.1,247.1L223,244.8L216.5,245.5L214.9,246.9L214.1,250.5L212.3,253L211.9,258.5L207.3,254.9L205.1,255L203.1,256.8L203.2,252.5L196.3,251.1L196.1,248.1L192.7,244L191.9,241.2L192.3,238.2L196.2,237.9L198.4,235.7L206.7,235.2L212.1,234.2L212.6,230.3L215.9,226.1L215.9,211.4L224.4,208.6L242,195.8L262.7,183.4L272.3,186.2L275.7,189.8Z" fill="#2c2c34" stroke="#474751" stroke-width="0.8"/><path d="M222.6,300L222.5,299.9L220.5,295.5L216.2,291.5L211.7,291.6L206.4,291.6L206.4,291.6L206.7,281.8L206.5,277.9L207.7,274L209.6,272.1L212.5,268.3L211.9,266.7L213,264.2L211.7,260.6L211.9,258.5L212.3,253L214.1,250.5L214.9,246.9L216.5,245.5L223,244.8L229.1,247.1L231.3,249.5L234.4,249.6L237.3,248.1L244.6,251.3L247.7,251.1L251.3,248.5L254.8,248.7L256.6,247.8L259.8,248.2L264.5,250L269.3,246.5L270.7,246.7L274.8,253.5L275.9,253.4L278.3,255.9L277.6,257L277.3,259L272.2,263.8L270.6,267.7L269.8,270.9L268.5,272.3L267.3,276.6L264,279.1L263.1,282.2L261.7,284.7L261.1,287.2L257,289.3L253.6,286.8L251.3,286.9L247.7,290.4L245.9,290.5L243.1,296.3L241.8,300L222.6,300Z" fill="#2c2c34" stroke="#474751" stroke-width="0.8"/><path d="M241.8,300L243.1,296.3L245.9,290.5L247.7,290.4L251.3,286.9L253.6,286.8L257,289.3L261.1,287.2L261.7,284.7L263.1,282.2L264,279.1L267.3,276.6L268.5,272.3L269.8,270.9L270.6,267.7L272.2,263.8L277.3,259L277.6,257L278.3,255.9L275.9,253.4L276.1,251.4L277.8,251.1L277.8,251.1L280.2,255L280.6,259.1L280.4,263.3L283.7,268.8L280.3,268.8L278.6,269.2L275.8,268.6L274.5,271.5L278.1,275.1L280.7,276.1L281.6,278.7L283.5,282.9L282.5,284.5L279.5,290.7L278,291.8L277.6,296.5L278.2,299.1L277.9,300L241.8,300Z" fill="#2c2c34" stroke="#474751" stroke-width="0.8"/><path d="M195.5,262.6L194.7,265.8L196.6,267.6L198.7,269.8L198.9,272.8L200.1,274.1L199.9,288.1L201.4,292.3L196.5,293.6L195.1,291.5L193.5,287.6L193,284.6L194.4,279.1L192.9,276.8L192.3,272L192.3,267.6L189.8,264.4L190.2,262.5Z" fill="#2c2c34" stroke="#474751" stroke-width="0.8"/><path d="M175,300L172.8,299.3L173.1,296.9L170.4,291.7L172,284.8L174.6,279.6L173,270.9L172.1,266.3L172.3,262.8L182.8,262.5L185.5,263L187.4,262L190.2,262.5L190.2,262.5L189.8,264.4L192.3,267.6L192.3,272L192.9,276.8L194.4,279.1L193,284.6L193.5,287.6L195.1,291.5L196.5,293.6L187,297.2L183.6,299.3L181.3,300L175,300Z" fill="#2c2c34" stroke="#474751" stroke-width="0.8"/><path d="M143.7,300L143.9,298.1L144.4,297.4L144.3,295L141.7,292.4L139.8,292L138,290.3L139.3,287.6L138.7,284.7L139,282.9L139.9,282.9L140.3,280.2L139.8,279.1L140.4,278.2L142.7,277.5L141.2,272.6L139.8,270L140.3,267.9L141.5,267.5L141.5,267.5L142.3,266.9L143.9,267.8L148.6,267.9L149.7,266.1L150.8,266.2L152.5,265.5L153.4,268.1L154.9,267.4L157.3,266.4L160.1,267.8L161.1,269.8L163.9,271.1L166,269.6L168.8,269.3L173,270.9L174.6,279.6L172,284.8L170.4,291.7L173.1,296.9L172.8,299.3L170,299.4L165.8,298.2L161.9,298.2L154.8,299.3L153.1,300L143.7,300Z" fill="#2c2c34" stroke="#474751" stroke-width="0.8"/><path d="M107.1,252.8L110.1,252.8L114.4,254.3L115.8,254.2L116.2,253.5L119.5,254L120.4,253.7L120.7,255.9L121.7,255.9L123.3,255.1L124.3,255.3L126,256.9L128.5,257.4L130.2,256L132.2,255.2L133.6,254.3L134.8,254.5L136.2,255.8L136.9,257.6L139.4,260.1L138.1,261.7L137.9,263.7L139.2,263.1L139.9,263.9L139.6,265.7L141.5,267.5L140.3,267.9L139.8,270L141.2,272.6L142.7,277.5L140.4,278.2L139.8,279.1L140.3,280.2L139.9,282.9L139,282.9L137.3,282.7L136,285.2L134.3,285.2L133.1,283.9L133.6,281.4L131,277.7L129.4,278.4L128.2,278.5L126.5,278.9L126.5,276.6L125.6,275L125.8,273.2L124.5,270.6L122.8,268.4L117.9,268.4L116.5,269.6L114.9,269.7L113.8,271.1L113.1,272.8L109.9,275.5L107.2,271.8L104.9,269.4L103.3,268.6L101.8,267.4L101.1,264.7L100.2,263.3L98.5,262.3L101.2,259.3L103,259.4L104.6,258.4L105.9,258.4L106.9,257.6L106.4,255.5L107,254.9Z" fill="#2c2c34" stroke="#474751" stroke-width="0.8"/><path d="M89.1,254L92.3,253L94.3,253.2L96,252.5L107.1,252.8L107,254.9L106.4,255.5L106.9,257.6L105.9,258.4L104.6,258.4L103,259.4L101.2,259.3L98.5,262.3L95.3,259.7L92.7,259.3L91.3,257.6L91.4,256.7L89.5,255.3Z" fill="#2c2c34" stroke="#474751" stroke-width="0.8"/><path d="M135.2,300L130.1,295.7L124.9,292.3L120.8,288.4L122.3,286.4L122.6,284.7L125.3,281.4L128.2,278.5L129.4,278.4L131,277.7L133.6,281.4L133.1,283.9L134.3,285.2L136,285.2L137.3,282.7L139,282.9L139,282.9L138.7,284.7L139.3,287.6L138,290.3L139.8,292L141.7,292.4L144.3,295L144.4,297.4L143.9,298.1L143.7,300L135.2,300Z" fill="#2c2c34" stroke="#474751" stroke-width="0.8"/><path d="M109.9,275.5L113.1,272.8L113.8,271.1L114.9,269.7L116.5,269.6L117.9,268.4L122.8,268.4L124.5,270.6L125.8,273.2L125.6,275L126.5,276.6L126.5,278.9L128.2,278.5L125.3,281.4L122.6,284.7L122.3,286.4L120.8,288.4L119.2,287.9L114.8,285.5L111.7,282.2L110.6,280Z" fill="#2c2c34" stroke="#474751" stroke-width="0.8"/><path d="M157.3,266.4L157,262.9L158.6,260.3L158.5,258.2L163.3,253L164.2,248.8L165.8,247.3L168.7,248.1L171.3,246.8L172.1,245.2L176.8,242.4L178,240.5L183.6,237.9L186.9,237L188.5,238.2L192.3,238.2L191.9,241.2L192.7,244L196.1,248.1L196.3,251.1L203.2,252.5L203.1,256.8L201.8,258.6L198.8,259.2L197.6,261.9L195.5,262.6L190.2,262.5L187.4,262L185.5,263L182.8,262.5L172.3,262.8L172.1,266.3L173,270.9L168.8,269.3L166,269.6L163.9,271.1L161.1,269.8L160.1,267.8Z" fill="#2c2c34" stroke="#474751" stroke-width="0.8"/><path d="M310.1,300L307.9,299.1L306.3,300L277.9,300L277.9,300L278.2,299.1L277.6,296.5L278,291.8L279.5,290.7L282.5,284.5L287.5,284.1L288.7,282.5L289.7,282.6L291.2,284L298.8,281.7L301.4,279.3L304.5,277.1L303.9,275L305.6,274.4L311.5,274.8L317.2,272L321.5,265.2L324.6,262.7L328.5,261.7L329.1,264.3L332.6,268.2L332.6,270.7L331.7,273.2L332,275.1L334.1,276.9L338.8,279.6L342.1,282.1L342.1,284L346.2,287.2L348.7,289.8L350.2,293.5L354.8,295.9L355.7,297.8L355.7,297.8L353.8,298.5L349.9,298.3L345.3,297.7L343.1,298.2L342.2,299.7L340.2,299.9L337.8,298.6L334.7,300L310.1,300Z" fill="#2c2c34" stroke="#474751" stroke-width="0.8"/><path d="M400,138.2L397.5,130.5L399.2,128.2L398.8,127.8L400,125.3L400,138.2Z" fill="#2c2c34" stroke="#474751" stroke-width="0.8"/><path d="M88.9,246.5L95.5,246.3L96.9,244.8L98.8,244.7L101.2,246.3L103.1,246.3L105.1,245.3L106.3,247.1L103.7,248.5L101,248.3L98.4,247L96.2,248.5L95.1,248.5L93.6,249.4L88.1,249.3Z" fill="#2c2c34" stroke="#474751" stroke-width="0.8"/><path d="M247.4,136.9L244.9,124.2L241.1,121.3L241.1,119.6L236.1,115.3L235.6,109.8L239.3,105.7L240.8,99.6L239.8,92.5L241,88.6L247.6,85.6L251.9,86.5L251.7,90.3L256.8,87.5L257.2,89L254.2,92.7L254.2,96.1L256.3,98L255.5,104.4L251.5,108.1L252.7,112.1L255.8,112.2L257.3,115.7L259.6,116.8L259.3,122.3L256.3,124.4L254.4,126.7L250.3,129.4L250.9,132.3L250.4,135.3Z" fill="#2c2c34" stroke="#474751" stroke-width="0.8"/><path d="M400,15.5L398.3,15.3L394,13.4L392.4,15.5L391.6,14.6L382.2,12.4L381.8,9.1L376.2,10.2L373.9,15L369.2,21.4L366.5,19.9L363.6,21.3L360.9,19.7L362.5,18.8L363.5,15.8L365.2,13L364.8,11.5L366,10.8L366.6,12L370.2,12.2L371.8,11.6L370.7,10.7L371.1,9.4L369,7.1L368.1,3.4L365.9,1.9L366.2,0L400,0Z" fill="#2c2c34" stroke="#474751" stroke-width="0.8"/><path d="M292.4,0L292.4,0.1L289,0.1L290.1,2.1L288.1,7.8L287,9.3L281.7,9.5L278.6,11.5L273.6,10.8L265,8.6L263.6,5.5L257.6,7L256.9,8.7L253.3,7.5L250.2,7.2L247.4,5.6L248.4,3.4L248.1,1.8L250,1.3L253,3.8L253.9,1.4L259.2,1.8L263.5,0.2L266.4,0.5L268.3,2.3L268.9,0.8L268.8,0L292.4,0Z" fill="#2c2c34" stroke="#474751" stroke-width="0.8"/><path d="M324.8,0L323.8,0.5L321,6.6L317.3,12.5L312.4,14.2L308.7,13.8L304,16.1L301.8,17.4L296.8,15.7L292.2,12L290.3,10.9L289.1,7.9L288.1,7.8L290.1,2.1L289,0.1L292.4,0.1L292.4,0L324.8,0Z" fill="#2c2c34" stroke="#474751" stroke-width="0.8"/><path d="M366.2,0L365.9,1.9L368.1,3.4L369,7.1L371.1,9.4L370.7,10.7L371.8,11.6L370.2,12.2L366.6,12L366,10.8L364.8,11.5L365.2,13L363.5,15.8L362.5,18.8L360.9,19.7L359.9,15.8L360.5,12L360.3,8.2L356.8,2.9L355.3,0L366.2,0Z" fill="#2c2c34" stroke="#474751" stroke-width="0.8"/><path d="M355.3,0L356.8,2.9L360.3,8.2L360.5,12L359.9,15.8L360.9,19.7L360.9,19.7L363.6,21.3L366.5,19.9L369.2,21.4L369.4,23.6L366.4,25.5L364.6,24.7L362.9,34.9L359.3,34L354.9,30.9L347.8,32.9L344.8,35L335.9,34.6L331.3,33.3L328.9,33.9L327.2,30.4L326.1,29L327.5,27.5L326,26.5L324.1,28.4L320.6,25.9L320.1,22.4L316.4,20.3L315.7,17.6L312.4,14.2L317.3,12.5L321,6.6L323.8,0.5L324.8,0L355.3,0Z" fill="#2c2c34" stroke="#474751" stroke-width="0.8"/><path d="M268.8,0L268.9,0.8L268.3,2.3L266.4,0.5L263.5,0.2L259.2,1.8L253.9,1.4L253,3.8L250,1.3L248.1,1.8L243.8,0L268.8,0ZM241.1,0L240.4,1L235.3,1L235.4,0L241.1,0Z" fill="#2c2c34" stroke="#474751" stroke-width="0.8"/><path d="M327.2,30.4L328.9,33.9L331.3,33.3L335.9,34.6L344.8,35L347.8,32.9L354.9,30.9L359.3,34L362.9,34.9L359.8,38.3L357.6,44.2L359.5,48.9L354.3,47.8L348.1,50.4L348.1,54.4L342.6,55.2L338.3,52.4L333.5,54.6L329,54.3L328.5,49L325.5,46.4L326.5,45.2L325.9,44.2L326.9,41.6L329.2,39L326.2,35.4L325.7,32.3Z" fill="#2c2c34" stroke="#474751" stroke-width="0.8"/><path d="M349.2,101L348.4,103.1L339.7,103.8L339.8,102.5L332.4,101.1L333.5,97.9L336.8,100.5L341.5,100L346,100.6L345.9,101.8ZM329,54.3L333.5,54.6L338.3,52.4L342.6,55.2L348.1,54.4L348.1,50.4L351.1,52.5L349.2,57.6L347.8,58.5L344.1,58.2L340.9,57.5L333.6,59.6L337.8,64L334.7,65.3L331.4,65.3L328.1,61.2L327,63L328.4,67.7L331.4,71.4L329.1,73.1L332.5,76.7L335.5,78.9L335.6,83.2L330,81.2L331.7,85.1L327.9,85.9L330.2,92.6L326.2,92.7L321.2,89.4L319,83.3L317.9,78.2L315.5,74.6L312.4,70.2L312,68L314.8,64.1L315.2,61.6L317.2,60.4L317.3,58.3L321.2,57.6L323.6,55.8L326.8,56L327.8,54.6Z" fill="#2c2c34" stroke="#474751" stroke-width="0.8"/><path d="M400,89.9L396,94.1L386.8,94.9L381.9,90.9L375.4,90.6L374,93.8L369.8,94.7L364,90.7L357.4,90.8L353.8,83.2L349.3,79L352.3,73L348.5,69.2L355.2,61.7L364.5,61.4L367,55.3L378.6,56.3L385.8,51.1L392.9,48.8L400,48.7L400,89.9ZM348.1,50.4L354.3,47.8L359.5,48.9L360.2,52L365.5,54.6L364.4,56.6L357.2,57.1L354.6,59.5L349.6,63.8L347.7,60.1L347.8,58.5L349.2,57.6L351.1,52.5Z" fill="#2c2c34" stroke="#474751" stroke-width="0.8"/><path d="M317.3,58.3L317.2,60.4L315.2,61.6L314.8,64.1L312,68L311,67.4L310.9,65.7L307.5,63L307,59.2L307.5,53.8L308.3,51.2L307.3,50L306.9,47.4L309.5,43.3L309.9,44.9L311.5,44.2L312.8,46.4L314.3,47.2L314.7,50.1L313.9,52.9L314.8,56.4Z" fill="#2c2c34" stroke="#474751" stroke-width="0.8"/><path d="M290.3,10.9L292.2,12L296.8,15.7L301.8,17.4L304,16.1L305.5,19.4L307.4,21.9L305.1,25.1L302.4,23.2L298.2,23.3L293,21.9L290.1,22.1L288.8,23.9L286.7,21.9L285.4,25.5L288.3,29.5L289.7,32.1L292.4,35.2L294.7,37L297,40.5L302.4,43.7L301.7,45L296,42L292.5,39L287,36.5L281.9,30.4L283.1,29.7L280.4,26.2L280.3,23.3L276.4,21.9L274.5,25.6L272.7,22.7L272.8,19.8L273.1,19.6L277.3,19.9L278.4,18.5L280.5,19.9L282.8,20L282.8,17.6L284.9,16.7L285.5,13.2Z" fill="#2c2c34" stroke="#474751" stroke-width="0.8"/><path d="M243.8,0L248.1,1.8L248.1,1.8L248.4,3.4L247.4,5.6L250.2,7.2L253.3,7.5L252.8,11.1L250.1,12.6L245.6,11.4L244.3,15L241.5,15.3L240.4,13.9L237,16.8L234.1,17.2L231.5,15.4L229.4,11.5L226.5,12.9L226.6,8.9L231,3.9L230.8,1.7L233.6,2.5L235.3,1L240.4,1L241.1,0L243.8,0Z" fill="#2c2c34" stroke="#474751" stroke-width="0.8"/><path d="M135.4,49.9L137.6,47.9L140,46.7L141.6,50.7L145.1,50.7L146.2,49.6L149.7,49.9L151.4,54L148.6,56.2L148.5,62.4L147.5,63.5L147.3,67.3L144.7,67.9L147.1,72.6L145.4,77.7L147.5,80L146.7,82.1L144.5,85L145,87.5L142.5,89.4L139.3,88.4L136.2,89.2L137.1,83.3L136.6,78.5L133.9,77.8L132.4,74.9L132.9,69.8L135.3,66.9L135.7,63.7L137,59L136.9,55.6L135.6,52.7Z" fill="#2c2c34" stroke="#474751" stroke-width="0.8"/><path d="M145,87.5L144.5,85L146.7,82.1L147.5,80L145.4,77.7L147.1,72.6L144.7,67.9L147.3,67.3L147.5,63.5L148.5,62.4L148.6,56.2L151.4,54L149.7,49.9L146.2,49.6L145.1,50.7L141.6,50.7L140,46.7L137.6,47.9L135.4,49.9L135.7,44.1L133.2,40.5L141.8,34.5L149.2,36L157.3,36L163.8,37.4L168.8,37L178.5,37.2L181,40.5L192.1,44.2L194.3,42.5L201.1,46.2L208.1,45.1L208.5,49.9L202.7,55.2L195,56.9L194.4,59.6L190.7,64L188.4,70.4L190.7,74.9L187.2,78.3L185.9,83.3L181.4,84.8L177.1,90.7L169.4,90.8L163.6,90.6L159.8,93.3L157.5,96.1L154.6,95.5L152.3,93L150.6,88.7Z" fill="#2c2c34" stroke="#474751" stroke-width="0.8"/><path d="M253.3,7.5L256.9,8.7L257.6,7L263.6,5.5L265,8.6L273.6,10.8L273,15.2L274.4,18.8L269.6,17.6L264.7,20.7L265,24.9L264.3,27.3L266.2,31.6L271.9,35.9L275,42.7L281.7,49.3L286.4,49.3L287.9,51.1L286.2,52.7L291.7,55.6L296.1,58L301.3,62.2L301.9,63.7L300.8,66.5L297.4,62.8L292.2,61.5L289.6,66.6L294,69.5L293.3,73.6L290.7,74.1L287.5,80.7L285,81.3L285,78.9L286.2,74.8L287.6,73.1L285.2,68.6L283.4,64.6L280.8,63.6L279.1,60.2L275.2,58.8L272.5,55.5L268.1,55L263.3,51.4L257.8,46.1L253.7,41.3L251.8,33.1L248.8,32.1L243.9,29.3L241.1,30.5L237.6,34.4L235.1,35L235.8,31.3L232.5,30.3L230.9,23.7L233,21.1L231.2,17.8L231.5,15.4L234.1,17.2L237,16.8L240.4,13.9L241.5,15.3L244.3,15L245.6,11.4L250.1,12.6L252.8,11.1ZM279.4,79.5L284,78.8L281.8,84.8L282.7,87.2L281.5,91.1L276.8,88.2L273.7,87.4L265.3,83.6L266.1,79.6L273.2,80.3ZM242.8,57.9L245.8,55.4L249.4,61L248.6,71.5L245.8,71L243.4,73.6L241.1,71.5L240.8,62L239.4,57.4Z" fill="#2c2c34" stroke="#474751" stroke-width="0.8"/><path d="M273.6,10.8L278.6,11.5L281.7,9.5L287,9.3L288.1,7.8L289.1,7.9L290.3,10.9L285.5,13.2L284.9,16.7L282.8,17.6L282.8,20L280.5,19.9L278.4,18.5L277.3,19.9L273.1,19.6L274.4,18.8L273,15.2Z" fill="#2c2c34" stroke="#474751" stroke-width="0.8"/><path d="M400,152.5L399.7,152.5L400,151.2L400,152.5Z" fill="#2c2c34" stroke="#474751" stroke-width="0.8"/><path d="M388.2,102.1L388.6,102.1L389.5,100.3L393.8,100.4L399.3,98.2L395.2,101.4L395.7,102.7L395,102.5L393.9,103L393,102.9L392.7,103.2L392.6,102.4L392.1,102L390.9,101.9L389.3,102.5Z" fill="#2c2c34" stroke="#474751" stroke-width="0.8"/><path d="M388.2,102.1L389.3,102.5L390.9,101.9L392.1,102L392.6,102.4L392.7,103.2L393,102.9L393.9,103L395,102.5L395.7,102.7L395.9,103.3L389.7,106.3L386.7,105.4L385.3,102.4Z" fill="#2c2c34" stroke="#474751" stroke-width="0.8"/><path d="M176.9,101.9L179.2,106.7L179.6,111.1L181.7,118.8L183.3,120.3L182.1,123.1L174.2,124.3L171.5,126.9L168,127.5L167.7,132.8L160.7,135.6L158.3,139.1L153.4,141L147.3,142L137.6,147.1L137.6,155.3L136.7,155.3L136.8,158.9L133.1,159.1L131.1,160.7L128.4,160.7L126.2,159.8L121.1,160.5L119.1,165.8L117.3,166.3L114.4,174.8L106,181.9L104,191L101.5,193.9L100.8,196.3L87.2,196.8L87.1,196.8L87.3,193.8L89.7,192L91.6,188.6L91.2,186.3L93.3,181.7L96.7,177.5L98.7,176.4L100.4,172.5L100.5,169L102.7,164.8L106.7,162.3L110.5,155.4L110.7,155.3L113.7,152.7L119.3,151.9L124.1,147.2L127.1,145.3L132.2,139.5L130.7,130.8L133,124.7L133.8,120.9L137.7,116L143.7,112.7L148.2,109.7L152.3,102.1L154.2,97.5L158.6,97.6L162.3,100.7L168,100.2L174.3,101.9Z" fill="#2c2c34" stroke="#474751" stroke-width="0.8"/><path d="M400,193L389.2,193L365.7,193L341.4,193L341.4,168.6L341.4,144.4L339.6,138.8L341.1,134.4L340.2,131.4L342.4,128L350.4,127.9L356.3,129.8L362.2,131.9L365.1,133L369.7,130.7L372.2,128.7L377.5,128.1L381.9,129L383.5,132.5L384.9,130.2L389.7,131.9L394.5,132.3L397.5,130.5L400,138.2L400,144.9L400,144.9L399.7,145.3L398.4,150.6L396.8,154.1L395.4,155.3L393.3,153.1L390.6,150.1L386.3,140.1L385.7,140.7L388.2,148.1L391.9,155L396.5,165.5L398.7,169.2L400,171.7L400,193Z" fill="#2c2c34" stroke="#474751" stroke-width="0.8"/><path d="M341.4,193L341.4,206L334.4,206L334.3,208.7L310.2,196.3L286.1,183.8L280,187.4L275.7,189.8L272.3,186.2L262.7,183.4L260,179.2L255.3,176.1L252.4,177.4L250.3,173.6L250,170.8L246.5,165.9L248.9,163L248.3,158.8L249.1,155.1L248.7,151.9L249.7,146.3L249.4,143.1L247.4,136.9L250.4,135.3L250.9,132.3L250.3,129.4L254.4,126.7L256.3,124.4L259.3,122.3L259.6,116.8L266.7,119.3L269.3,118.7L274.3,119.9L282.3,123.1L285.2,129.4L290.6,130.8L299.1,133.7L305.6,137.2L308.5,135.4L311.4,132.2L310,126.7L311.9,123.3L316.3,119.9L320.5,118.9L328.6,120.4L330.7,123.6L333,123.6L334.9,124.8L340.9,125.7L342.4,128L340.2,131.4L341.1,134.4L339.6,138.8L341.4,144.4L341.4,168.6Z" fill="#2c2c34" stroke="#474751" stroke-width="0.8"/><path d="M400,289.5L397.3,288.1L396.3,285.7L393.2,282.7L389.5,282.3L391.6,278.8L394.8,278.7L395.7,276.8L395.6,271.3L397.4,264.9L400,263.3L400,289.5Z" fill="#2c2c34" stroke="#474751" stroke-width="0.8"/><path d="M302.4,43.7L297,40.5L294.7,37L292.4,35.2L289.7,32.1L288.3,29.5L285.4,25.5L286.7,21.9L288.8,23.9L290.1,22.1L293,21.9L298.2,23.3L302.4,23.2L305.1,25.1L307.3,25.1L305.8,28.8L308.7,32.1L307.8,36L306.4,36.4L305.2,37.2L303.3,39.1Z" fill="#2c2c34" stroke="#474751" stroke-width="0.8"/><path d="M325.5,46.4L328.5,49L329,54.3L327.8,54.6L326.8,56L323.6,55.8L321.2,57.6L317.3,58.3L314.8,56.4L313.9,52.9L314.7,50.1L315.4,50.2L315.7,48.5L319.3,47.3L320.7,47L322.7,46.5Z" fill="#2c2c34" stroke="#474751" stroke-width="0.8"/><path d="M304,16.1L308.7,13.8L312.4,14.2L315.7,17.6L316.4,20.3L320.1,22.4L320.6,25.9L324.1,28.4L326,26.5L327.5,27.5L326.1,29L327.2,30.4L325.7,32.3L326.2,35.4L329.2,39L326.9,41.6L325.9,44.2L326.5,45.2L325.5,46.4L322.7,46.5L320.7,47L320.5,46.4L321.2,45.4L321.9,43.4L321,43.4L319.8,41.9L318.8,41.5L318,40.2L316.9,39.7L316,38.5L314.9,39L314.1,41.7L312.7,42.3L313.2,41.6L310.8,39.9L308.9,39L308,37.8L306.4,36.4L307.8,36L308.7,32.1L305.8,28.8L307.3,25.1L305.1,25.1L307.4,21.9L305.5,19.4Z" fill="#2c2c34" stroke="#474751" stroke-width="0.8"/><path d="M311.5,44.2L309.9,44.9L309.5,43.3L306.9,47.4L307.3,50L306,49.3L304.3,46.7L301.7,45L302.4,43.7L303.3,39.1L305.2,37.2L306.4,36.4L308,37.8L308.9,39L310.8,39.9L313.2,41.6L312.7,42.3Z" fill="#2c2c34" stroke="#474751" stroke-width="0.8"/><path d="M314.7,50.1L314.3,47.2L312.8,46.4L311.5,44.2L312.7,42.3L314.1,41.7L314.9,39L316,38.5L316.9,39.7L318,40.2L318.8,41.5L319.8,41.9L321,43.4L321.9,43.4L321.2,45.4L320.5,46.4L320.7,47L319.3,47.3L315.7,48.5L315.4,50.2Z" fill="#2c2c34" stroke="#474751" stroke-width="0.8"/><path d="M357.3,300L355.7,297.8L354.8,295.9L350.2,293.5L348.7,289.8L346.2,287.2L342.1,284L342.1,282.1L338.8,279.6L334.6,277.2L336.5,276.5L338.6,275.4L340.1,269.9L341.8,267L346.1,266.2L347.2,267.9L350.3,271.5L352,272L354.2,271L358.5,271.2L359.3,272.4L365.4,272.4L365.6,271.2L368.7,270L369.3,268.2L371.6,266.9L376.7,270.5L379.8,269.9L382.8,265.5L386.1,262.1L385.6,258.4L384.2,256.6L387.8,256.2L388.2,254.9L391.1,255.3L390.3,259.9L391.1,264.3L394.2,266.7L394.9,268.8L394.8,271.9L395.6,272L395.7,276.8L394.8,278.7L391.6,278.8L389.5,282.3L393.2,282.7L396.3,285.7L397.3,288.1L400,289.5L400,299.8L400,299.8L399.8,300L357.3,300Z" fill="#2c2c34" stroke="#474751" stroke-width="0.8"/><path d="M242,88.7L242.1,89.1L242.1,89.5L241.5,89.8L241.2,90L240.7,91L239.9,91.7L239.7,91.8L239.8,92L240.3,92.3L240.5,92.6L240.6,93L240.3,94.3L240.2,95.4L240,96.7L240,97.2L240.2,97.8L240.4,98.3L240.5,98.9L240.4,100.2L240.7,101L240.9,101.7L240.4,102.5L240.2,103.3L240,104.4L240,105.1L239.6,105.8L239.2,106.4L238.8,106.8L238.2,107.1L237.5,107.5L237,108.7L235.8,109.6L235.5,109.9L235.4,110.7L235.5,111.7L235.7,112.6L236.2,113.8L236.7,115.2L236.9,115.8L237.1,116.1L237.7,116.5L238.9,117.1L239.2,117.4L239.8,118.3L240.3,120L240.5,121.1L241.6,121.9L242.6,122.7L243.6,123.4L244.7,124.2L244.8,124.4L245.2,126.1L245.5,127.7L245.9,129.4L246.3,131.2L246.7,133.2L247,134.4L247.3,135.8L247.7,137.5L247.1,137.8L246.4,138.3L246.9,139.1L247.8,140.5L248.4,141.6L248.6,142.1L249.1,143.5L249.4,144.8L249.5,145.2L249.6,146.3L249.5,149.1L249.7,152.6L250.1,154.4L249.5,156L249.1,157.5L249.1,158.3L249.3,159.4L249.6,160.3L250,160.8L249.9,162.2L249.7,162.8L248.7,163.6L247.5,164.3L247.2,164.9L247.1,165.5L247.2,166.1L248.1,167.3L249.3,169L250.6,171L250.7,171.5L250.8,172.9L251.3,174.6L251.9,175.4L252.1,175.9L252.6,176.3L253,176.6L253.2,176.7L254.7,176.2L257.3,177L259.7,177.8L259.9,177.9L260.4,178.9L261.3,180.6L261.9,181.9L262.5,183L259.4,185.1L256.2,187.1L253.1,189.1L250,191.1L246.8,193.1L243.7,195.1L240.6,197L237.4,199L235.4,200.3L234,201.5L232.4,203L230.8,204.4L229.6,205.5L228,207L227.2,207.7L225.4,209.3L224.9,209.6L222.5,210.1L220.3,210.5L218.3,210.9L217,211.2L215.7,211.5L213.7,211.9L212.4,212.1L210.9,212.4L210.6,212.5L210.4,212.5L210.2,212.5L209.8,212.3L209.3,211.9L208.9,211.7L208.9,211.4L209.1,211L209.3,210.7L209.4,210.4L209.6,210.2L209.8,210L209.8,209.8L209.6,209.4L209.4,208.8L209.4,207.8L209.4,207.5L209.4,207.3L209,206.9L208.2,206.5L207.4,206.3L207,206.2L206.2,206L205,205.8L204.6,205.6L203.9,204.6L203.5,204.4L201.7,204.2L201.2,204.1L200.7,203.8L200.3,203.5L200,203L200,202.6L199.8,202.4L197.9,201.4L197.4,201L197.1,200.7L197.1,200.2L197.2,199.6L197.1,199.1L197,198.9L196.1,198.2L194.1,196.8L192.1,195.5L190.2,194.1L188.2,192.7L186.2,191.3L184.2,189.9L182.2,188.5L180.2,187.1L178.3,185.6L176.3,184.2L174.3,182.8L172.3,181.4L170.4,180L168.4,178.6L166.4,177.2L164.4,175.7L162.7,174.5L160.9,173.2L159.5,172.3L158.1,171.4L156.7,170.4L155.7,169.8L154.6,169L153.4,168.3L152.3,167.5L151.2,166.8L150,166L148.9,165.3L147.8,164.5L146.6,163.8L145.5,163.1L144.3,162.3L143.2,161.6L142.1,160.8L140.9,160.1L139.8,159.3L138.7,158.5L137.5,157.8L137.5,156.4L137.5,155.3L137.5,153.6L137.5,152.2L137.5,150.7L137.5,149.7L137.5,148.7L137.5,148.2L137.7,148L138.3,147.6L139.2,146.9L139.6,146.5L140,146.2L141.7,145.1L142,144.8L143.6,143.6L143.9,143.4L144.8,143.3L145.1,143.1L145.6,142.6L146.3,142L146.7,141.8L146.8,141.7L147.1,141.7L148.6,141.9L149.2,142L149.9,142.1L150.1,142L150.3,141.8L150.6,141.5L150.7,141L150.7,140.6L150.7,140.4L150.9,140.3L151.2,140.4L151.6,140.4L152.4,140.4L152.8,140.3L153.7,140.3L155.1,140L156.2,139.7L157.1,139.4L158,138.7L158.7,137.9L159.4,136.8L160,135.8L161.1,135.2L162.1,134.8L162.6,134.7L163.9,134.2L165,133.4L165.9,132.7L166.7,132.6L167.7,132.4L167.9,132.3L168.1,132.1L168.1,131.6L167.8,131.3L167.5,131.1L167.2,130.9L167,130.9L166.9,130.7L166.9,130.2L167,129.9L167.1,129.5L167.1,129L166.8,128.4L166.8,128L166.8,127.7L166.9,127.4L167.3,127.2L167.7,127.1L168.2,127.2L169.2,127.1L171.8,126.1L172,125.9L172.1,125.2L172.3,124.7L172.6,124.5L172.7,124.4L173.6,124.3L174.8,124.1L175.2,124L176.6,124.1L177.5,124.1L179.1,124.2L180.2,124.2L181.1,124.3L182.3,124.3L182.6,124.2L182.6,123.8L182.4,123L182.6,122.5L183,122.1L183.6,121.6L183.3,121L182.9,120.6L182.2,120.1L181.9,119.9L181.3,119.3L180.9,118.7L180.7,117.3L180.2,116.5L179.9,115.5L180.2,113.7L179.7,112.6L179.7,112.1L179.7,111.6L179.8,110.6L179.7,109.2L179.2,107.8L179.5,107.4L179.6,107.1L179.5,106.9L179.1,106.4L178.9,106.1L179,105.7L179.2,105.2L179.2,105L178.4,104.4L177.2,103.4L176.8,103L176.6,102.4L177.9,102.5L178.5,102.5L179.9,101.8L181.1,100.9L182,100.5L182.8,99.5L183.5,98.9L184.5,98.2L187.5,96.8L187.9,96.8L188.9,97.1L189.8,97L190.4,96.5L191,95.3L191.9,94.5L193.2,93.8L194.8,93.1L195.9,92.4L197.7,91.8L202,91.5L204.2,91.2L205.8,91.2L207.3,90.2L208.1,89.8L211.4,89.8L212.9,89L218.9,89L219.6,89.3L220.3,89.7L221.5,90.7L222.1,90.9L222.9,90.7L224.7,89.7L226.8,89.2L227.9,88.7L228.4,87.9L229.3,87.6L229.9,88.2L232,88.8L233.3,88.6L233.9,88.5L233.7,87.5L235,87.8L236.1,88.2L237.2,89.1L237.9,89.3L239.3,88.9Z" fill="#b8e653" stroke="#0c0e06" stroke-width="1"/></svg>
