<svg xmlns="http://www.w3.org/2000/svg" viewBox="0 0 300 300"><path fill="#e8e8ea" d="M237.3,22.5L237.6,23.3L237.6,24.1L236.4,24.8L235.6,25.3L234.7,27.3L233,28.6L232.6,29L232.7,29.4L233.9,30L234.2,30.6L234.5,31.4L233.9,34.2L233.6,36.4L233.1,39.2L233.1,40.2L233.6,41.5L234,42.5L234.2,43.6L234,46.4L234.6,48L235,49.5L234,51.3L233.5,52.9L233.2,55.2L233.1,56.7L232.5,58L231.6,59.3L230.6,60.1L229.4,60.7L228,61.6L226.9,64L224.4,66L223.9,66.7L223.7,68.3L223.8,70.4L224.2,72.2L225.3,74.7L226.4,77.5L226.7,79L227.1,79.5L228.5,80.4L231,81.7L231.5,82.1L232.7,84.1L233.9,87.5L234.2,89.8L236.5,91.6L238.6,93.3L240.7,94.8L242.9,96.4L243.2,96.8L243.9,100.2L244.7,103.5L245.5,107.2L246.2,110.8L247.2,115.1L247.7,117.6L248.4,120.5L249.2,123.9L247.9,124.7L246.6,125.6L247.6,127.4L249.5,130.3L250.7,132.6L251.1,133.6L252,136.4L252.8,139.2L252.9,140.1L253.3,142.2L252.9,148.1L253.4,155.4L254.2,159.1L253,162.4L252,165.6L252.1,167.2L252.6,169.6L253.2,171.5L253.9,172.4L253.8,175.5L253.4,176.6L251.3,178.2L248.8,179.6L248.1,180.9L248,182.3L248.3,183.4L250,185.9L252.4,189.6L255.2,193.7L255.5,194.7L255.6,197.6L256.7,201.2L258,202.8L258.4,204L259.3,204.8L260.2,205.4L260.7,205.5L263.9,204.5L269.2,206.1L274.2,207.8L274.6,208.1L275.6,210.2L277.5,213.6L278.8,216.3L280,218.7L273.5,222.9L266.9,227.1L260.4,231.3L253.9,235.4L247.4,239.6L240.9,243.7L234.4,247.9L227.8,252L223.5,254.7L220.8,257.1L217.3,260.1L214.1,263.1L211.5,265.5L208.2,268.5L206.5,270L202.8,273.4L201.7,274L196.8,275L192.3,275.9L188.1,276.8L185.3,277.3L182.6,277.9L178.6,278.7L175.7,279.2L172.6,279.8L172.1,279.9L171.6,280L171.2,279.9L170.3,279.6L169.3,278.8L168.6,278.4L168.4,277.8L168.8,277L169.3,276.2L169.5,275.6L169.9,275.2L170.3,274.8L170.3,274.3L170,273.5L169.6,272.3L169.6,270.2L169.6,269.5L169.6,269.3L168.7,268.4L167,267.6L165.4,267L164.7,266.8L162.9,266.5L160.5,266L159.6,265.6L158,263.6L157.3,263.1L153.6,262.8L152.4,262.5L151.4,262L150.6,261.4L150.1,260.3L149.9,259.4L149.6,259L145.6,256.9L144.5,256.1L144,255.5L144,254.5L144.1,253.2L143.9,252.2L143.8,251.6L141.9,250.3L137.8,247.4L133.7,244.5L129.5,241.6L125.4,238.7L121.3,235.8L117.2,232.9L113,230L108.9,227.1L104.8,224.1L100.7,221.2L96.5,218.3L92.5,215.3L88.3,212.4L84.2,209.4L80.1,206.5L76,203.5L72.5,201L68.6,198.3L65.8,196.4L62.9,194.5L59.9,192.4L57.9,191.1L55.5,189.5L53.2,188L50.8,186.5L48.4,184.9L46.1,183.4L43.7,181.8L41.3,180.3L38.9,178.7L36.6,177.2L34.2,175.6L31.9,174L29.5,172.5L27.1,170.9L24.8,169.4L22.4,167.8L20,166.2L20,163.3L20,161L20,157.5L20,154.5L20,151.5L20,149.4L20,147.2L20.1,146.2L20.3,145.8L21.6,145.1L23.6,143.5L24.4,142.8L25.3,142L28.7,139.8L29.3,139.2L32.6,136.7L33.4,136.3L35.1,136.1L35.8,135.6L36.8,134.6L38.3,133.4L39.2,132.9L39.4,132.8L40,132.7L43,133.1L44.3,133.3L45.8,133.5L46.3,133.4L46.7,133L47.2,132.2L47.4,131.3L47.4,130.4L47.5,130.1L47.8,129.9L48.4,130L49.3,130.1L51.1,130L51.7,129.9L53.8,129.7L56.6,129.2L58.9,128.5L60.7,127.9L62.7,126.4L64.1,124.9L65.6,122.5L66.8,120.5L69.2,119.2L71.2,118.5L72.3,118.2L74.9,117.1L77.1,115.5L79.1,113.9L80.7,113.7L82.7,113.5L83.2,113.2L83.7,112.7L83.7,111.7L83.1,111L82.4,110.7L81.9,110.3L81.4,110.2L81.1,109.8L81.2,108.9L81.3,108.1L81.6,107.4L81.5,106.2L81,105.1L80.9,104.3L80.9,103.5L81.2,102.9L81.9,102.5L82.8,102.4L83.9,102.6L86,102.3L91.3,100.4L91.7,99.8L92.1,98.4L92.4,97.3L93,96.9L93.3,96.8L95.1,96.5L97.6,96L98.5,96L101.3,96.1L103.3,96.2L106.5,96.4L108.7,96.4L110.7,96.5L113.3,96.6L113.9,96.3L113.9,95.5L113.5,93.9L113.7,92.9L114.7,92L115.9,90.9L115.4,89.7L114.4,88.9L113,87.8L112.3,87.4L111.1,86.2L110.3,84.8L109.8,81.9L108.9,80.2L108.2,78.2L108.8,74.5L107.9,72.2L107.7,71.2L107.7,70L108,68L107.8,65.2L106.8,62.3L107.3,61.3L107.5,60.8L107.4,60.3L106.5,59.4L106.1,58.6L106.2,57.9L106.8,56.9L106.7,56.4L105.2,55.1L102.5,53.1L101.8,52.2L101.4,51L103.9,51.3L105.2,51.2L108.3,49.8L110.6,48L112.5,47L114.2,45L115.6,43.7L117.8,42.3L124,39.3L124.9,39.3L127,40L128.7,39.7L129.9,38.7L131.3,36.2L133.3,34.6L135.8,33.1L139.3,31.6L141.5,30.2L145.2,29L154.2,28.3L158.8,27.6L162,27.8L165.2,25.6L166.7,24.9L173.6,24.7L176.9,23.1L189.2,23.1L190.7,23.6L192.2,24.5L194.8,26.6L196,27L197.6,26.6L201.4,24.6L205.7,23.6L208,22.5L209,20.8L211,20.1L212.1,21.4L216.6,22.7L219.3,22.4L220.5,22L220,20L222.9,20.6L225.1,21.5L227.4,23.4L228.9,23.8L231.6,22.9Z"/></svg>
