<svg xmlns="http://www.w3.org/2000/svg" viewBox="0 0 300 300"><path fill="#e8e8ea" d="M263.7,83L261.5,84.4L259.2,84.5L256,85L251.6,83.6L249.9,83.6L249.7,85L252.6,86.7L255.4,88.6L256.4,91.6L258,95.1L262.1,99.1L264.5,101L264.7,102.4L264,105L263.8,107.2L265.1,117L264.2,117.6L262.6,117.7L261.2,117.6L259.9,116.5L258.7,115.9L258.3,117.5L257.1,121.8L254.5,131.7L252.2,140.3L249.3,143.4L245.2,148.3L239.4,155L231.3,164.6L225.2,169.1L220.4,172.6L214.8,176.7L207.5,182L199.4,184.9L188.1,189L180.1,191.9L174.2,194L168.1,196.1L159.9,198.9L156.7,201.5L151.5,208L149.1,211.1L146.9,213.7L146.4,215L146.7,215.7L147.8,217L147.9,218.3L146.4,219.2L145.1,219.3L144.6,218.7L144.1,217.2L142.8,215.7L141.2,215.3L140.4,215.6L140.4,217L138.2,223.6L138.2,226.8L137.3,228.1L137.3,231L135.3,233.6L134.4,236L133.8,238L132.1,239.4L131.5,241.6L129.9,246.3L128.2,250L126.9,253.1L126.7,255.5L127.6,257.1L128,258.5L127.2,260.9L126.6,262.7L124.4,263.9L119.6,266.9L117.7,268.8L117,271.1L117.4,273L117.3,274.7L115,275.3L114.2,276.7L112.6,279.2L110.9,280L106.4,278.7L103.2,278.7L100.6,277.5L97.8,273.9L95.7,270.9L93.8,267.1L93.2,261.7L90.7,260.2L88.3,258.4L85.4,258.9L81.9,259.2L80,258L75.2,255.7L71.2,253.2L68.1,251.9L65.8,252.6L64.3,254.1L61.9,256.8L58.2,258.7L56.6,258.6L54.5,257.3L54,255.9L55.8,253.5L59.4,248.4L55.3,248.3L54,246.7L53.7,244.8L53.2,242.8L53.9,240.4L56.1,239.1L59.3,240.1L61.4,240.1L62.9,237.9L64.3,236.9L65.9,236.1L66.5,235L64.9,231.4L64.5,229.4L64.9,228.3L64.9,226L64.8,224.4L63.9,222.9L63.8,220.7L63,219.5L62.7,218.2L62.7,216.7L61.7,216L60.6,215.3L61.4,214.7L67.2,212.7L69.7,210.6L72.6,208.8L75.2,205.9L76.8,203.2L80.9,190.6L84.6,182.6L83.9,178.8L80.9,173.7L80.2,166L80.4,163.7L80,162L78,165.1L78.6,176.3L76.7,181.4L74.2,182.6L72.5,181.7L73.5,173.5L71.6,175.1L68.5,180.6L63.6,184.7L63.5,186L62.2,187.8L58.4,186.2L55.5,184.5L46.1,175.3L39.8,173.3L36.2,170.1L35.3,168.8L34.9,166.9L38.7,165L42.7,162.4L43,156.6L43,152.1L40.1,144.5L41.4,134.4L40.7,130.5L37.4,122.1L39.8,117.9L48.5,114.9L51.4,112.8L53.3,106.2L55.3,102.3L59.3,103.8L62.3,103.7L58.2,102.2L54.8,96.3L54.3,93.5L60.7,85.3L64.2,83.2L68.3,78.9L71.9,72.4L72.8,62.1L71.3,54.8L70.1,47L72.3,45L77.5,44L81.9,41.5L84.1,39.2L89.3,39.5L95.2,36L104.8,34.1L118,30.1L120.9,26.4L119.6,20L120.9,20.8L124.5,23.9L126.9,26.9L130.6,28.8L133.7,30.4L141.7,36.5L147,39.6L152.8,42.5L161.1,45.4L166.3,44.9L167.5,47.1L168.5,49.5L170.4,50.9L173.4,52L175.2,52.4L175.7,53L177.5,61.6L178.7,62.7L182.9,64.1L187.9,64.6L190,64.4L194.5,66.7L197.8,67.9L201.4,68.7L203.9,68.9L205.1,68.6L205.5,67.7L207.5,67.9L210.6,69L214.9,69.2L217.7,68.1L218,66.4L218.3,63.4L219.3,62.3L222.3,60.6L223.9,60.9L232.2,64.7L233.8,66L236,68.7L239.7,72.5L243.9,75.1L250.3,76.1L256.4,80.2Z"/></svg>
