<svg xmlns="http://www.w3.org/2000/svg" viewBox="0 0 400 300"><path d="M296.2,300L294.5,299.9L298.7,291.4L287.8,279.5L279.8,261.9L284.9,258.3L284.9,250.1L296.6,244.4L294.7,233.9L299.6,227.1L301,218L323.2,204.8L339,201.1L341.6,198.1L359.1,199.1L367.8,145.9L368.3,137.5L365.3,126.3L356.7,119.3L356.7,105.2L367.6,102L371.5,104L372.2,96.6L360.9,94.6L360.6,82.5L398.3,82.9L400,81.1L400,300Z" fill="#2c2c34" stroke="#474751" stroke-width="0.8"/><path d="M191.9,300L182,278.7L174,269.8L168,255.4L152.9,242.7L139.1,234.8L145.4,226.1L136,207.6L142,194L157.4,181.7L159.7,189.8L154.2,194.4L154.8,201.5L162.7,200L170.6,202.1L178.7,211.9L189.6,203.9L193.3,190.8L205.2,173.9L228.5,166.3L249.6,146L255.6,133.4L253,118.6L258.1,116.8L271,126L277.2,135.1L286.2,140.1L297.5,160.5L312,162.9L322.6,157.7L329.7,161.1L341.3,159.4L356.1,168.5L343.6,188.3L349.4,188.7L359.1,199.1L359.1,199.1L341.6,198.1L339,201.1L323.2,204.8L301,218L299.6,227.1L294.7,233.9L296.6,244.4L284.9,250.1L284.9,258.3L279.8,261.9L287.8,279.5L298.7,291.4L294.5,299.9L296.2,300L191.9,300Z" fill="#2c2c34" stroke="#474751" stroke-width="0.8"/><path d="M400,81.1L398.3,82.9L360.6,82.5L360.9,94.6L372.2,96.6L371.5,104L367.6,102L356.7,105.2L356.7,119.3L365.3,126.3L368.3,137.5L367.8,145.9L359.1,199.1L349.4,188.7L343.6,188.3L356.1,168.5L341.3,159.4L329.7,161.1L322.6,157.7L312,162.9L297.5,160.5L286.2,140.1L277.2,135.1L271,126L258.1,116.8L253,118.6L244.7,114L235.1,107.7L229.6,110.7L213.2,108L208.5,99.7L204.8,100L185.5,88.9L182.9,82.9L190.1,81.5L189.2,71.8L193.8,64.7L203.4,63.4L211.5,51.3L218.9,41.1L211.8,36.4L215.4,25.2L211.1,7.4L215.2,2.3L214.8,0L400,0L400,21.3L399.2,28.3L400,30.9L400,60.5L400,60.5L399.5,61L400,61.3L400,81.1Z" fill="#2c2c34" stroke="#474751" stroke-width="0.8"/><path d="M400,61.3L399.5,61L400,60.5L400,61.3ZM400,30.9L399.2,28.3L400,21.3L400,30.9Z" fill="#2c2c34" stroke="#474751" stroke-width="0.8"/><path d="M254.6,117.8L253.6,118.4L252.5,118.5L250.9,118.7L248.9,118.1L248,118.1L247.9,118.7L249.3,119.6L250.7,120.5L251.2,121.9L251.9,123.6L253.9,125.5L255.1,126.4L255.1,127.1L254.8,128.4L254.7,129.4L255.3,134.2L254.9,134.4L254.2,134.5L253.5,134.4L252.8,133.9L252.3,133.6L252.1,134.4L251.5,136.4L250.3,141.2L249.1,145.4L247.7,146.8L245.8,149.2L243,152.4L239.1,157L236.2,159.2L233.9,160.9L231.1,162.8L227.7,165.4L223.7,166.8L218.3,168.7L214.5,170.2L211.6,171.1L208.7,172.1L204.8,173.5L203.2,174.8L200.7,177.9L199.5,179.4L198.5,180.6L198.3,181.2L198.4,181.6L198.9,182.2L199,182.9L198.3,183.3L197.7,183.3L197.4,183L197.2,182.3L196.5,181.6L195.8,181.4L195.4,181.5L195.4,182.2L194.3,185.4L194.3,186.9L193.9,187.5L193.9,188.9L192.9,190.2L192.5,191.3L192.2,192.3L191.4,193L191.1,194L190.3,196.3L189.5,198.1L188.9,199.6L188.8,200.7L189.2,201.5L189.4,202.1L189,203.3L188.7,204.2L187.7,204.8L185.4,206.2L184.5,207.1L184.1,208.2L184.3,209.2L184.3,209.9L183.2,210.2L182.8,210.9L182,212.1L181.2,212.5L179,211.9L177.5,211.9L176.3,211.3L174.9,209.6L173.9,208.1L173,206.3L172.7,203.7L171.5,203L170.3,202.1L168.9,202.3L167.3,202.5L166.3,201.9L164,200.8L162.1,199.6L160.6,199L159.5,199.3L158.8,200L157.6,201.4L155.9,202.3L155.1,202.2L154.1,201.6L153.9,200.9L154.7,199.8L156.4,197.3L154.5,197.2L153.9,196.5L153.7,195.6L153.4,194.6L153.8,193.4L154.8,192.8L156.4,193.3L157.4,193.3L158.1,192.3L158.8,191.8L159.6,191.4L159.9,190.9L159.1,189.1L158.9,188.2L159.1,187.6L159.1,186.5L159,185.8L158.6,185L158.5,184L158.2,183.4L158,182.8L158,182.1L157.6,181.7L157,181.4L157.4,181.1L160.2,180.1L161.4,179.2L162.8,178.3L164,176.9L164.8,175.6L166.8,169.5L168.6,165.7L168.2,163.9L166.8,161.4L166.4,157.7L166.6,156.6L166.3,155.8L165.4,157.3L165.7,162.7L164.7,165.1L163.6,165.7L162.7,165.2L163.2,161.3L162.3,162L160.8,164.7L158.5,166.7L158.4,167.3L157.8,168.2L156,167.4L154.6,166.6L150,162.1L147,161.2L145.3,159.7L144.9,159L144.7,158.1L146.5,157.2L148.4,156L148.6,153.2L148.6,151L147.2,147.3L147.8,142.5L147.4,140.6L145.8,136.6L147,134.6L151.2,133.1L152.6,132.1L153.5,128.9L154.5,127.1L156.4,127.8L157.8,127.7L155.9,127L154.2,124.2L154,122.8L157.1,118.9L158.7,117.9L160.7,115.8L162.4,112.7L162.9,107.7L162.2,104.2L161.6,100.5L162.7,99.5L165.2,99L167.3,97.8L168.3,96.7L170.8,96.9L173.7,95.2L178.3,94.3L184.6,92.3L186,90.6L185.4,87.5L186,87.9L187.8,89.4L188.9,90.8L190.7,91.7L192.2,92.5L196,95.4L198.6,96.9L201.4,98.3L205.3,99.7L207.8,99.5L208.4,100.6L208.9,101.7L209.8,102.3L211.3,102.9L212.1,103.1L212.4,103.4L213.2,107.5L213.8,108.1L215.8,108.7L218.2,109L219.2,108.8L221.4,110L223,110.5L224.7,110.9L225.9,111L226.5,110.8L226.7,110.4L227.7,110.5L229.1,111L231.2,111.1L232.5,110.6L232.7,109.8L232.8,108.4L233.3,107.9L234.8,107L235.5,107.2L239.5,109L240.3,109.6L241.3,110.9L243.1,112.8L245.2,114L248.2,114.5L251.2,116.4ZM160.8,173.3L160.4,174.1L158.5,174L158,173.8L158,172.9L158.5,170.2L159,169L160.5,168L161.7,167.4L163.4,167.5L165.1,168.5L163.1,170.4L162,170.6L161.5,170.9ZM184.4,91.4L183.4,91.6L182.9,90.6L184.2,89.6L184.6,89.4Z" fill="#b8e653" stroke="#0c0e06" stroke-width="1"/></svg>
