<svg xmlns="http://www.w3.org/2000/svg" viewBox="0 0 400 300"><path d="M324.2,300L323.1,291.1L299.2,280.8L286.3,285.9L282.9,275.2L257.1,264.1L249.3,238.1L247.2,216.3L235.4,205.8L246,191.4L238.7,148.1L256.1,120.7L252.4,112.3L280.2,85.5L254.6,62.1L304.8,0L400,0L400,300Z" fill="#2c2c34" stroke="#474751" stroke-width="0.8"/><path d="M0,46.5L4.4,55.5L27.7,82.9L5.3,137.2L0,139.5L0,46.5Z" fill="#2c2c34" stroke="#474751" stroke-width="0.8"/><path d="M217.4,300L216.1,288.3L230.9,281L257.1,264.1L257.1,264.1L282.9,275.2L286.3,285.9L299.2,280.8L323.1,291.1L324.2,300L217.4,300Z" fill="#2c2c34" stroke="#474751" stroke-width="0.8"/><path d="M87.4,300L83.1,270.2L111.1,256.8L152.1,259.6L176.1,255.2L179.5,264.3L192.6,267.2L216.1,288.3L216.1,288.3L217.4,300L87.4,300Z" fill="#2c2c34" stroke="#474751" stroke-width="0.8"/><path d="M235.4,205.8L247.2,216.3L249.3,238.1L257.1,264.1L230.9,281L216.1,288.3L192.6,267.2L179.5,264.3L176.1,255.2L152.1,259.6L111.1,256.8L83.1,270.2L84,236.9L96,208.7L119,193.1L138.5,227L158.1,226.1L162.7,191.3L183.6,183.2L194.2,188.8L215.3,205.8Z" fill="#2c2c34" stroke="#474751" stroke-width="0.8"/><path d="M304.8,0L254.6,62.1L210.2,66.1L167.2,84.1L127.5,94.4L113.3,67.6L89.6,51.3L95.1,1.4L94.8,0L304.8,0Z" fill="#2c2c34" stroke="#474751" stroke-width="0.8"/><path d="M237,203.4L236.4,203.6L232.9,202.9L229.2,201.1L227.6,199.7L226,199.8L224,200.6L217,203.3L215.3,202.7L211.2,200.1L209.2,197.3L204.7,191.7L204.4,190.3L203.7,189.3L198.9,187.9L197.1,185.8L195.6,185.5L193.5,184.4L187.8,180L186.4,179.5L186.1,180.3L186.2,181.4L185.9,182L185.1,181.9L183.9,180.3L182.3,178.9L177.3,181.6L175.6,182.3L174.1,182.5L166.4,186L164,187.9L163,187.8L163.2,185.9L166.4,176.9L167.1,169.7L168.2,168.7L168.6,167.7L168,165.4L164.7,163.9L163.4,164.2L162.1,166.6L160.9,168.4L157.9,169.5L155.4,167.6L149.5,165.1L147.9,161.7L147.5,158.3L144.4,155.1L143.1,151.2L143.7,148.5L146.5,146.7L147.3,145.1L143.7,145.4L143,145L142.8,143.6L141.2,138.8L142.6,136.9L143.2,135.1L142.1,133.5L142.4,131.7L143.3,129.9L142.8,125.8L146.3,123.5L149.8,122L157.1,121.1L156.4,117.3L159.4,117.1L164.4,112.5L169.3,113.3L176.6,110.1L190.4,110.1L192.3,108.3L192,106.4L192,104.4L194.6,105L198.9,104.7L215.3,108.5L219.2,108.5L224.8,112.5L227.8,113.5L236.6,113.5L250.2,115.3L252.9,112.6L253.2,111.9L254.4,113.4L256.1,115.8L256.5,117.2L256,118L254.3,118.7L254,119.4L253.3,120.6L251.3,120.9L250.4,121.8L249.1,125.9L246.9,132.5L243.6,137.7L240.9,140.4L239.7,142.6L239,145.1L238.8,147.7L241.4,161.7L241.4,164.2L240.8,166.7L240.3,169.3L240.7,171.6L242.4,175.4L244.1,181.1L244.8,184.8L246,186.2L247.2,187.1L247.5,187.8L247.4,188.4L246.8,189.1L241.7,191L240.9,192.6L240.4,194.5L238.2,197.1L237.5,199.5L237.1,202.4ZM121.3,152.9L123.1,154L124.7,153.7L126.2,152.9L129.8,153.6L137.9,159.4L138.6,160.9L133.8,161.6L132.7,163.4L131.5,164.6L130.2,165L127.8,167.4L124.7,169.7L124,171.1L118.4,170.9L115.3,171.7L112.8,174.4L111.8,179.4L110,183.3L108.1,184.7L106.2,185L105.7,183.5L105.9,182L110,176.5L110.8,174.6L108.8,173.8L107.1,171.9L103.4,169.7L102.7,167.9L103.5,167.7L104.4,167.2L105.4,165.6L105.8,163.9L102.8,158.7L104.4,157.9L106.3,158.1L108.2,159.6L110.3,157.8L111.3,157.6L112.8,158.2L114.3,154.8L117.8,153.7L119.6,152.6ZM128.8,143.2L126.8,145.5L125.6,144.6L125,143.5L122.4,148.8L119.5,149.7L117.8,148.6L118,146.7L116.3,141.5L113.7,140L110.2,139.9L107.6,137.7L117.5,136.3L118.6,133.8L120.6,131.1L122.1,130.9L123.4,131.5L123.6,133.5L124,134.4L128.4,135.4L130.2,138.8L130.9,142.9ZM139.1,156.2L137.1,156.7L132.2,153.4L133.4,151.2L134.7,150.3L138.8,151.7L139.3,155.1Z" fill="#b8e653" stroke="#0c0e06" stroke-width="1"/></svg>
