<svg xmlns="http://www.w3.org/2000/svg" viewBox="0 0 300 300"><path fill="#e8e8ea" d="M236,261.4L234.6,261.8L226.9,260.3L218.5,256.2L214.8,253L211.2,253.2L206.6,255.2L191,261.1L187,259.8L177.9,253.9L173.3,247.7L163.2,235L162.4,231.9L161,229.6L150.1,226.3L146.1,221.7L142.8,220.9L138,218.6L125.1,208.7L121.9,207.6L121.1,209.4L121.5,211.7L120.7,213.2L119,213L116.2,209.4L112.6,206.1L101.5,212.3L97.5,213.9L94.2,214.3L76.7,222.2L71.4,226.5L69.2,226.2L69.6,222L76.9,201.6L78.3,185.5L80.9,183.1L81.7,180.9L80.5,175.6L73,172.4L70,172.9L67.2,178.4L64.4,182.4L57.7,184.9L51.9,180.7L38.6,174.9L35.1,167.4L34.3,159.8L27.3,152.4L24.4,143.6L25.6,137.5L31.9,133.5L33.7,130L25.8,130.5L24,129.6L23.6,126.5L20,115.7L23.2,111.5L24.6,107.4L22,103.9L22.8,99.8L24.8,95.7L23.6,86.4L31.5,81.3L39.4,77.8L55.9,75.9L54.3,67.3L61.1,66.9L72.4,56.4L83.5,58.2L99.7,51.1L130.9,51.1L135.2,46.9L134.4,42.8L134.4,38.2L140.4,39.6L150.1,38.8L187,47.5L195.9,47.5L208.4,56.4L215.1,58.8L235.2,58.8L265.7,62.7L271.9,56.7L272.5,55L275.2,58.4L279,63.9L280,67.1L278.8,68.8L275,70.4L274.2,71.9L272.7,74.8L268.3,75.3L266.1,77.4L263.3,86.5L258.4,101.6L250.8,113.1L244.9,119.4L242.1,124.3L240.5,130L240.1,135.7L245.9,167.3L245.9,172.9L244.5,178.6L243.5,184.6L244.3,189.7L248.1,198.4L252,211.2L253.6,219.5L256.4,222.6L259,224.7L259.6,226.2L259.4,227.6L258.2,229.2L246.5,233.5L244.9,237.1L243.7,241.2L238.7,247.1L237.2,252.7L236.2,259.1ZM-24.8,147.5L-20.9,150L-17.3,149.3L-13.7,147.5L-5.8,149.1L12.5,162.1L14.1,165.6L3.3,167.1L0.8,171.1L-1.8,173.8L-4.8,174.7L-10.1,180.2L-17.1,185.5L-18.7,188.6L-31.4,188L-38.3,190L-44.1,196L-46.2,207.2L-50.4,216.1L-54.6,219.3L-58.9,219.9L-60.1,216.4L-59.5,213.2L-50.4,200.7L-48.4,196.5L-53,194.7L-56.9,190.4L-65.3,185.3L-66.9,181.3L-64.9,180.9L-62.9,179.7L-60.7,176.2L-59.7,172.4L-66.5,160.7L-62.9,158.8L-58.7,159.2L-54.4,162.7L-49.6,158.7L-47.4,158.1L-44.1,159.6L-40.7,151.9L-32.8,149.3L-28.8,146.9ZM-8,125.7L-12.5,130.9L-15.1,128.9L-16.5,126.3L-22.4,138.3L-29,140.3L-32.8,137.9L-32.4,133.5L-36.1,121.8L-41.9,118.3L-49.8,118.1L-55.8,113.3L-33.3,110L-31,104.4L-26.4,98.5L-23,97.9L-20.1,99.2L-19.7,103.9L-18.9,105.7L-8.8,108.1L-4.8,115.7L-3.2,125Z"/></svg>
