<svg xmlns="http://www.w3.org/2000/svg" viewBox="0 0 300 300"><path fill="#e8e8ea" d="M280,265.8L273,265.8L266,265.8L259,265.8L252,265.8L245,265.8L238,265.8L230.9,265.8L223.9,265.8L216.9,265.8L209.9,265.8L202.9,265.8L195.9,265.8L188.9,265.8L181.8,265.8L174.8,265.8L167.8,265.8L163.8,265.8L164.5,263.8L165,262.3L164.5,261.3L163.2,261.1L162.2,261.4L160.2,265.7L159.1,265.9L156.5,265.9L148.4,265.9L140.2,265.8L132.1,265.8L123.9,265.8L115.8,265.8L107.6,265.8L99.4,265.8L91.2,265.8L83.1,265.8L74.9,265.8L66.8,265.8L58.6,265.8L50.5,265.8L42.3,265.8L34.2,265.8L25.9,265.8L25.9,260.7L25.9,255.4L25.9,250.3L25.9,245.1L25.9,239.8L25.9,234.6L25.9,229.4L25.9,224.1L25.9,218.9L25.9,213.6L25.9,208.4L25.9,203.1L25.9,197.8L25.9,192.5L25.9,187.2L25.9,181.9L25.9,176.6L25.9,171.3L25.9,165.9L25.9,160.5L25.9,155.2L25.9,149.8L25.9,144.4L25.9,139L25.9,133.6L25.9,128.2L25.9,122.7L25.9,117.3L25.9,111.9L25.9,106.4L25.9,100.9L25.9,95.4L25.8,94.4L24.6,90.7L23.5,85.9L22.3,80L22.2,78.1L20.2,72.1L20,70.3L20.5,69.1L23.8,64L24.7,61.5L25.5,58.5L25.8,56.1L24.8,52.4L23.8,49L23.4,45.6L23.2,42.1L24.8,39.8L26.8,37.7L27.6,36.4L28.8,34.8L29.6,34.1L31.2,37.2L34.5,37.7L45.5,35L57.5,37.7L64.2,38.7L74.4,41.1L80.6,45.2L82.4,45.7L86.8,45.7L89.8,48.1L101.5,49.2L107.7,51.9L111.2,54.1L113.4,54.7L115.2,54.7L117.8,53.8L121,52.3L124.5,50.2L131.7,44.8L134.2,43.9L135.9,44.1L138,44L138.8,42.6L139.9,41.6L140.5,40.4L141.7,39.1L145.4,38.7L152.9,36.4L152.1,37.4L145.2,40.1L148.2,40.4L151.2,39.5L154.6,39L155.2,37.8L155.7,35.7L156.4,35.4L158.7,35.8L165.8,39.1L167.5,39.1L172.5,37.4L173.5,37L175.2,38L178.8,42L177.5,41.9L173.6,38.4L173.3,40.2L171.1,43.2L173.8,44.5L176.2,45L177.4,46.7L178.2,48.2L180.4,47.6L182,45.5L181.2,44.4L180.5,43.2L181.3,43.1L182.8,44.1L187.3,48L188.8,48.8L190.5,48.7L194.2,47.6L195.2,47.7L200.1,46.3L200.7,47.4L201.5,48.4L205.4,47.3L211.5,47.3L216.6,46L222.5,42.9L222.9,42.4L223.2,43.2L223.9,45.3L225.7,50.6L227.2,54.8L229.2,60.6L229.8,62.8L230,64.3L232.8,70.6L234.4,75.8L235.6,80L237.2,86L238,88.2L236.8,89.3L234.4,93.2L231.8,105.8L228.2,115.5L227.8,121.6L227.2,123.8L225.5,126.9L223.4,129.9L219.6,128.3L213.5,123L210,118L206.2,114.7L202.6,110.4L201.6,107.3L201.7,105.3L200.1,100.4L198.9,98.1L194.5,92.8L193.3,90.1L192.3,88.8L191.4,87.1L189.8,80.3L188,75.9L186.1,77.1L186.4,79L184.7,81.5L183.6,84.4L184.5,86.8L188,90.4L188.8,92L189.6,95.4L189.5,100.1L190,101.6L192.7,105.1L193.7,107.1L194.2,108.9L195.2,110.5L197.8,113.5L201.6,119.1L205.2,122.9L207.9,124.8L209,126.6L209.2,131.4L209.1,133.7L211.4,137.9L212.2,140.1L214.5,141.8L215.5,143.8L216.4,147.1L217.8,156.7L219.8,159L225.7,171.6L230.8,179.5L233.2,185.4L236.9,192.5L244.2,208.2L248.5,213L250.2,215.7L253.4,217.7L256.8,220.7L253.5,220.5L252.8,220.7L251.6,221.1L251.1,223L250.8,224.5L251.2,232.3L252.1,236.3L254.9,243.9L257.1,246.1L258.2,247.6L259.5,248.7L266.3,251.2L270.3,256.7L279.2,263.5L280,265.3Z"/></svg>
