<svg xmlns="http://www.w3.org/2000/svg" viewBox="0 0 400 300"><path d="M112.1,300L112.8,298.8L111.6,294.4L115,291.2L112.9,288.7L115.6,282.1L120.3,274.3L129.1,275L128.6,232.2L128.7,227.7L140.6,227.6L140.6,205.6L181.9,205.6L221.7,205.6L262.5,205.6L265.8,216.5L263.5,218.5L265,229.7L268.8,242.7L272.7,245.4L278.3,249.4L273.1,255.6L265.6,257.3L262.3,260.6L261.3,267.7L256.9,283.4L258,287.7L256.3,296.8L255,300L112.1,300Z" fill="#2c2c34" stroke="#474751" stroke-width="0.8"/><path d="M33.5,300L33.7,299.2L27.1,299L27.1,292.2L22.9,288.2L27.3,274.2L40.4,264.2L40.9,250.2L44.9,228.1L47.1,223.4L42.8,219.6L42.7,216.1L38.8,213.3L36.3,196L46.7,189.9L87.6,211.2L128.6,232.2L128.6,232.2L129.1,275L120.3,274.3L115.6,282.1L112.9,288.7L115,291.2L111.6,294.4L112.8,298.8L112.1,300L33.5,300Z" fill="#2c2c34" stroke="#474751" stroke-width="0.8"/><path d="M22.5,300L20.6,296.8L18.2,296.4L13.3,300L4.2,300L4.2,300L2.2,299.2L0,299L0,193.5L0,193.5L7,189.3L23.3,194.1L29,200.2L36.3,196L36.3,196L38.8,213.3L42.7,216.1L42.8,219.6L47.1,223.4L44.9,228.1L40.9,250.2L40.4,264.2L27.3,274.2L22.9,288.2L27.1,292.2L27.1,299L33.7,299.2L33.5,300L22.5,300Z" fill="#2c2c34" stroke="#474751" stroke-width="0.8"/><path d="M0,299L2.2,299.2L4.2,300L0,300ZM13.3,300L18.2,296.4L20.6,296.8L22.5,300L13.3,300Z" fill="#2c2c34" stroke="#474751" stroke-width="0.8"/><path d="M250.7,81.5L248.9,85.3L245.2,83.6L243,91.7L245.6,93.1L243,94.7L242.5,97.9L247.4,96.3L247.6,101L242.5,120L241.5,116.9L235.8,99.5L238.7,95.6L238,94.9L240.8,89.2L242.8,80.1L244.3,77L244.6,76.8L248,76.9L249,74.7L251.7,74.5L251.9,79.6L250.5,81.4Z" fill="#2c2c34" stroke="#474751" stroke-width="0.8"/><path d="M251.7,74.5L249,74.7L248,76.9L244.6,76.8L248.3,66.8L253.4,58L253.6,57.6L258.2,58.2L259.8,63.1L254.3,67.8Z" fill="#2c2c34" stroke="#474751" stroke-width="0.8"/><path d="M247.4,96.3L242.5,97.9L243,94.7L245.6,93.1L243,91.7L245.2,83.6L248.9,85.3L248.9,92.8Z" fill="#2c2c34" stroke="#474751" stroke-width="0.8"/><path d="M0,75.4L1.8,76.3L1.2,85.6L0,86.5L0,75.4Z" fill="#2c2c34" stroke="#474751" stroke-width="0.8"/><path d="M0,180.6L2.5,182.2L7,189.3L0,193.5L0,180.6Z" fill="#2c2c34" stroke="#474751" stroke-width="0.8"/><path d="M248.9,85.3L250.7,81.5L262.1,86.3L282.2,73.3L286.4,88.2L284.4,90L263.9,96.1L274.1,108L270.7,110.1L269,114L261.2,115.7L258.7,119.9L254.3,123.6L242.8,121.7L242.5,120L247.6,101L247.4,96.3L248.9,92.8Z" fill="#2c2c34" stroke="#474751" stroke-width="0.8"/><path d="M376.6,114.4L378.7,119.6L377.8,122.3L381.1,131.1L373.9,131.5L371.3,125.9L362.1,124.7L369.7,113.4Z" fill="#2c2c34" stroke="#474751" stroke-width="0.8"/><path d="M286.4,88.2L282.2,73.3L305,60.4L308.9,45.2L307.9,36L313.5,32.8L318.8,24.8L323.2,22.8L335.2,24.5L338.8,27.7L343.7,25.6L350.3,40.8L357.1,44.6L357.8,52L352.7,56.3L350.3,66L357.4,77.7L370,84.4L375.3,93.6L373.6,102.4L376.9,102.4L377,108.7L382.7,115L376.6,114.4L369.7,113.4L362.1,124.7L343,123.8L314.1,99.9L298.8,91.5Z" fill="#2c2c34" stroke="#474751" stroke-width="0.8"/><path d="M347.9,0L350.7,3.4L357.8,5.1L361.5,4.7L367.3,0L379.3,0L379.3,0L377,4.4L383.4,11.3L385.9,10.6L389.2,20.2L398.9,22.9L400,23.9L400,115.3L400,115.3L398.6,112.3L393,114.3L386.5,110.3L382.7,115L382.7,115L377,108.7L376.9,102.4L373.6,102.4L375.3,93.6L370,84.4L357.4,77.7L350.3,66L352.7,56.3L357.8,52L357.1,44.6L350.3,40.8L343.7,25.6L338.1,15.2L340.1,11.1L337.7,0L347.9,0Z" fill="#2c2c34" stroke="#474751" stroke-width="0.8"/><path d="M250.7,81.5L250.5,81.4L251.9,79.6L251.7,74.5L254.3,67.8L259.8,63.1L258.2,58.2L253.6,57.6L252.6,48L255.1,42.8L257.8,40L260.6,37.2L261.2,30.1L264.5,32.6L275.9,29L281.3,31.5L289.8,31.4L301.6,26.6L307.1,26.8L318.8,24.8L313.5,32.8L307.9,36L308.9,45.2L305,60.4L282.2,73.3L262.1,86.3Z" fill="#2c2c34" stroke="#474751" stroke-width="0.8"/><path d="M361.4,0L361.5,4.7L361.5,4.7L357.8,5.1L355,0L361.4,0Z" fill="#2c2c34" stroke="#474751" stroke-width="0.8"/><path d="M153.8,49.4L152.5,53.1L137.7,54.2L137.8,52.1L125.3,49.6L127.2,44.3L132.8,48.5L140.8,47.8L148.5,48.7L148.2,50.9ZM122.5,0L119.7,2.1L125.5,8.1L130.5,11.9L130.7,19.3L121.2,15.8L124.2,22.5L117.7,23.8L121.6,35.2L114.8,35.3L106.4,29.8L102.5,19.4L100.7,10.8L96.7,4.7L93.4,0L122.5,0Z" fill="#2c2c34" stroke="#474751" stroke-width="0.8"/><path d="M337.7,0L340.1,11.1L338.1,15.2L343.7,25.6L343.7,25.6L338.8,27.7L335.2,24.5L323.2,22.8L318.8,24.8L307.1,26.8L301.6,26.6L289.8,31.4L281.3,31.5L275.9,29L264.5,32.6L261.2,30.1L260.6,37.2L257.8,40L255.1,42.8L251.3,37L255.2,32.2L249,33.3L240.3,30.4L233.3,37.7L217.7,39.2L209.4,32.3L198.3,31.9L195.9,37.2L188.8,38.7L178.9,31.9L167.7,32.1L161.6,19.3L154.1,12.1L159.1,1.9L157.2,0L337.7,0Z" fill="#2c2c34" stroke="#474751" stroke-width="0.8"/><path d="M59.4,0L58.9,3L54.6,3.8L49.1,15L44.9,16L44.9,12L47,5L49.2,2.1L48.1,0L59.4,0ZM35.4,12.9L43.2,11.8L39.5,22L41,26L38.9,32.6L31,27.8L25.8,26.4L11.5,19.8L12.9,13.2L24.9,14.3Z" fill="#2c2c34" stroke="#474751" stroke-width="0.8"/><path d="M389.8,0L389.4,1L385.7,4.1L385.9,10.6L383.4,11.3L377,4.4L379.3,0L389.8,0ZM367.3,0L361.5,4.7L361.4,0L367.3,0ZM355,0L357.8,5.1L357.8,5.1L350.7,3.4L347.9,0L355,0Z" fill="#2c2c34" stroke="#474751" stroke-width="0.8"/><path d="M312.5,300L311.1,297.9L306.5,294.5L303.9,290.9L294.9,286.6L287.9,286.5L285.4,284.3L279.4,286.8L273.2,282L269.9,289.9L258,287.7L258,287.7L256.9,283.4L261.3,267.7L262.3,260.6L265.6,257.3L273.1,255.6L278.3,249.4L284.3,261.9L287.1,271.7L292.8,276.9L306.8,286.9L312.5,293L318,299.1L318.9,300L312.5,300Z" fill="#2c2c34" stroke="#474751" stroke-width="0.8"/><path d="M400,282.5L393,284.6L383.8,292.1L379.3,292.7L376.2,292.1L370.2,296.5L363.6,298.5L355,299L352.4,299.6L352.1,300L327.8,300L327.8,300L328.1,294.6L326.4,291.5L324.4,283.6L321.4,279.3L323.5,278.7L322.4,273.9L323.7,271.8L323.2,267.1L327.7,263.7L326.7,259.2L329.4,253.9L333.6,256.7L336.4,255.7L348.3,255.5L350.1,256.6L360.1,257.7L364,257.1L366.6,260.7L371.4,258.9L378.7,247.6L388.3,242.7L400,241.1L400,282.5Z" fill="#2c2c34" stroke="#474751" stroke-width="0.8"/><path d="M400,241.1L388.3,242.7L378.7,247.6L371.4,258.9L366.6,260.7L364,257.1L360.1,257.7L350.1,256.6L348.3,255.5L336.4,255.7L333.6,256.7L329.4,253.9L326.7,259.2L327.7,263.7L323.2,267.1L321.9,262.6L318.8,259.3L318,255L312.7,251.2L307.2,242.1L304.3,233.2L297.2,225.7L292.6,223.9L285.8,213.5L284.6,205.8L285.1,199.2L279.2,186.8L274.4,182.4L268.8,180.1L265.4,173.6L266,171.1L263.1,165.2L260.1,162.6L256.1,154.1L249.9,144.8L244.6,136.9L239.5,136.9L241.1,130.5L241.6,126.4L242.8,121.7L242.8,121.7L254.3,123.6L258.7,119.9L261.2,115.7L269,114L270.7,110.1L274.1,108L263.9,96.1L284.4,90L286.4,88.2L298.8,91.5L314.1,99.9L343,123.8L362.1,124.7L371.3,125.9L373.9,131.5L381.1,131.1L385.1,141.2L390.2,143.8L391.9,147.9L399,152.8L399.6,157.5L398.6,161.3L399.9,165.1L400,165.3L400,241.1Z" fill="#2c2c34" stroke="#474751" stroke-width="0.8"/><path d="M220,51.4L220.7,51.3L222.2,48.3L229.6,48.5L238.9,44.7L232,50.1L232.8,52.4L231.7,52L229.7,52.9L228.1,52.7L227.6,53.1L227.4,51.9L226.7,51.1L224.7,51L221.9,52.1Z" fill="#2c2c34" stroke="#474751" stroke-width="0.8"/><path d="M220,51.4L221.9,52.1L224.7,51L226.7,51.1L227.4,51.9L227.6,53.1L228.1,52.7L229.7,52.9L231.7,52L232.8,52.4L233.1,53.4L222.5,58.5L217.5,56.9L215.1,51.9Z" fill="#2c2c34" stroke="#474751" stroke-width="0.8"/><path d="M0,86.5L1.2,85.6L1.8,76.3L13.8,80.5L18.2,79.4L26.7,81.5L40.3,86.9L45.2,97.7L54.4,100L68.9,105L79.8,110.9L84.8,107.8L89.8,102.3L87.4,93.1L90.6,87.2L98,81.5L105.1,79.9L118.9,82.4L122.4,87.8L126.3,87.8L129.5,89.9L139.8,91.4L142.3,95.3L138.5,101.1L140.1,106.2L137.5,113.6L140.6,123.1L140.6,164.3L140.6,205.6L140.6,205.6L140.6,227.6L128.7,227.7L128.6,232.2L87.6,211.2L46.7,189.9L36.3,196L29,200.2L23.3,194.1L7,189.3L2.5,182.2L0,180.6L0,86.5Z" fill="#2c2c34" stroke="#474751" stroke-width="0.8"/><path d="M255,300L256.3,296.8L258,287.7L269.9,289.9L273.2,282L279.4,286.8L285.4,284.3L287.9,286.5L294.9,286.6L303.9,290.9L306.5,294.5L311.1,297.9L312.5,300L255,300Z" fill="#2c2c34" stroke="#474751" stroke-width="0.8"/><path d="M262.5,205.7L259.1,205.7L255.8,205.7L252.4,205.7L249,205.7L245.7,205.7L242.3,205.7L238.9,205.7L235.5,205.7L232.2,205.7L228.8,205.7L225.4,205.7L222.1,205.7L218.7,205.7L215.3,205.7L211.9,205.7L208.6,205.7L206.7,205.7L207,204.7L207.2,204L207,203.5L206.3,203.4L205.9,203.6L204.9,205.6L204.4,205.7L203.1,205.7L199.2,205.7L195.3,205.7L191.4,205.7L187.5,205.7L183.5,205.7L179.6,205.7L175.7,205.7L171.7,205.7L167.8,205.7L163.9,205.7L160,205.7L156.1,205.7L152.1,205.7L148.2,205.7L144.3,205.7L140.3,205.7L140.3,203.2L140.3,200.7L140.3,198.2L140.3,195.7L140.3,193.2L140.3,190.7L140.3,188.2L140.3,185.6L140.3,183.1L140.3,180.6L140.3,178.1L140.3,175.5L140.3,173L140.3,170.4L140.3,167.9L140.3,165.3L140.3,162.8L140.3,160.2L140.3,157.6L140.3,155.1L140.3,152.5L140.3,149.9L140.3,147.3L140.3,144.7L140.3,142.1L140.3,139.5L140.3,136.9L140.3,134.3L140.3,131.7L140.3,129L140.3,126.4L140.3,123.8L140.3,123.3L139.7,121.5L139.2,119.2L138.6,116.4L138.5,115.4L137.6,112.5L137.5,111.7L137.8,111.1L139.3,108.7L139.8,107.5L140.2,106L140.3,104.8L139.8,103.1L139.3,101.4L139.1,99.8L139.1,98.1L139.8,97L140.8,96L141.2,95.4L141.7,94.6L142.1,94.3L142.9,95.8L144.5,96L149.7,94.7L155.5,96L158.7,96.5L163.6,97.6L166.6,99.6L167.5,99.9L169.6,99.8L171,101L176.7,101.6L179.7,102.9L181.4,103.9L182.4,104.2L183.3,104.2L184.5,103.8L186.1,103L187.7,102L191.2,99.4L192.4,99L193.2,99.1L194.2,99.1L194.6,98.4L195.2,97.9L195.5,97.3L196,96.7L197.8,96.5L201.4,95.4L201,95.9L197.7,97.2L199.1,97.3L200.6,96.9L202.2,96.6L202.5,96.1L202.7,95L203.1,94.9L204.2,95.1L207.6,96.7L208.4,96.7L210.8,95.8L211.3,95.7L212.1,96.1L213.9,98.1L213.2,98L211.4,96.4L211.2,97.2L210.1,98.7L211.5,99.3L212.6,99.5L213.2,100.3L213.5,101.1L214.6,100.8L215.4,99.8L215,99.2L214.7,98.6L215.1,98.6L215.8,99.1L217.9,101L218.7,101.4L219.5,101.3L221.3,100.8L221.7,100.8L224.1,100.1L224.4,100.7L224.7,101.2L226.6,100.6L229.6,100.6L232,100L234.8,98.5L235.1,98.3L235.2,98.7L235.5,99.7L236.4,102.2L237.1,104.2L238.1,107L238.4,108.1L238.5,108.8L239.8,111.8L240.6,114.3L241.2,116.3L241.9,119.2L242.3,120.3L241.8,120.8L240.6,122.7L239.3,128.7L237.6,133.4L237.4,136.3L237.1,137.4L236.3,138.9L235.3,140.3L233.5,139.6L230.5,137L228.8,134.6L227,133L225.3,131L224.8,129.5L224.9,128.5L224.1,126.2L223.5,125L221.4,122.5L220.8,121.2L220.3,120.6L219.9,119.8L219.1,116.5L218.3,114.4L217.3,115L217.5,115.9L216.7,117.1L216.2,118.5L216.6,119.6L218.3,121.4L218.6,122.1L219,123.7L219,126L219.2,126.7L220.5,128.4L221,129.4L221.3,130.2L221.7,131L223,132.4L224.8,135.2L226.6,137L227.8,137.9L228.4,138.8L228.5,141L228.4,142.2L229.5,144.2L229.9,145.2L231,146.1L231.5,147L231.9,148.6L232.6,153.2L233.5,154.3L236.4,160.4L238.8,164.2L240,167L241.8,170.4L245.3,178L247.4,180.3L248.2,181.6L249.7,182.6L251.3,184L249.8,183.9L249.4,184L248.9,184.2L248.6,185.1L248.5,185.8L248.7,189.6L249.1,191.5L250.4,195.1L251.5,196.2L252,196.9L252.7,197.4L255.9,198.7L257.8,201.3L262.1,204.6L262.5,205.5Z" fill="#b8e653" stroke="#0c0e06" stroke-width="1"/></svg>
