<svg xmlns="http://www.w3.org/2000/svg" viewBox="0 0 400 300"><path d="M131.2,300L136.2,297.7L143.4,286.9L146.9,279L152,274L159.4,275.4L166.6,272L174.9,271.8L182,276.4L191.9,280.5L200.9,291.8L208.5,300L131.2,300Z" fill="#2c2c34" stroke="#474751" stroke-width="0.8"/><path d="M214.9,300L215.7,299.6L218.2,290.5L222.9,290.2L233.3,294.5L241.6,291.4L247.4,292.4L249.6,289L309.2,288.8L312.5,278L309.9,276.1L302.8,208.5L295.6,138.9L318.3,138.6L368.4,174.1L400,196.1L400,297.4L400,297.4L397,297.6L387.5,297.7L383.8,294.7L375.6,296.9L368.8,300L214.9,300Z" fill="#2c2c34" stroke="#474751" stroke-width="0.8"/><path d="M208.5,300L200.9,291.8L191.9,280.5L182,276.4L174.9,271.8L166.6,272L159.4,275.4L152,274L146.9,279L145.6,270.7L149.8,263L151.6,248.3L150,232.9L148.2,225L149.7,217.1L145.8,209.6L138,202.8L138,202.8L141.2,197.4L199.4,197.6L196.6,174.4L200.2,166.1L214.2,164.7L213.7,122.8L262.4,123.7L262.4,98.5L318.3,138.6L295.6,138.9L302.8,208.5L309.9,276.1L312.5,278L309.2,288.8L249.6,289L247.4,292.4L241.6,291.4L233.3,294.5L222.9,290.2L218.2,290.5L215.7,299.6L214.9,300L208.5,300Z" fill="#2c2c34" stroke="#474751" stroke-width="0.8"/><path d="M396.6,300L397,297.6L400,297.4L400,300Z" fill="#2c2c34" stroke="#474751" stroke-width="0.8"/><path d="M368.8,300L375.6,296.9L383.8,294.7L387.5,297.7L397,297.6L396.6,300L368.8,300Z" fill="#2c2c34" stroke="#474751" stroke-width="0.8"/><path d="M400,196.1L368.4,174.1L318.3,138.6L262.4,98.5L262.4,98.5L262.8,95.3L262.7,94.2L262.6,74.2L286.6,61.6L301.4,59L313.6,54.4L319.3,45.8L336.6,39L337.2,26.1L345.9,24.6L352.6,18.1L372,15.2L374.7,8.3L370.8,4.6L369.6,0L400,0Z" fill="#2c2c34" stroke="#474751" stroke-width="0.8"/><path d="M369.6,0L370.8,4.6L374.7,8.3L372,15.2L352.6,18.1L345.9,24.6L337.2,26.1L336.6,39L319.3,45.8L313.6,54.4L301.4,59L286.6,61.6L262.6,74.2L262.7,94.2L260.5,94.2L260.8,103.1L251.6,103.7L246.8,107.5L240.1,107.5L234.8,105.3L222.2,107.1L217.4,120L212.8,121.2L205.8,142L185.1,159.5L180.2,181.8L174.1,189L172.4,194.8L138.9,196.1L138.7,196L139.4,188.6L145,184.3L149.9,175.9L148.9,170.4L154.1,159L162.4,148.7L167.3,146L171.3,136.5L171.6,127.8L177,117.5L186.8,111.5L196.3,94.5L196.6,94.2L204,87.8L217.9,85.9L229.5,74.4L237,69.8L249.4,55.6L245.7,34.1L251.3,19.1L253.3,9.9L261.2,0L369.6,0Z" fill="#2c2c34" stroke="#474751" stroke-width="0.8"/><path d="M262.4,94.2L262.4,97L262.4,100.4L262.5,103.2L262.5,106.5L262.5,109.8L262.5,113.5L262.5,117.2L262.5,119.9L262.5,121.8L259.5,121.8L256.7,121.8L253.9,121.8L251.2,121.8L248.4,121.8L245.7,121.8L242.9,121.8L240.1,121.8L237.3,121.8L234.6,121.8L231.8,121.8L229,121.8L226.3,121.8L223.5,121.8L220.7,121.8L218,121.8L215.2,121.8L213,121.8L213,123.8L213,126L213,128.3L213,130.5L213,132.7L213,135L213,137.2L213,139.5L213,141.7L213,143.9L213,146.1L213,148.3L213,150.6L213,152.8L213,155L213,157.2L213,159.4L213,161.4L212.9,163.2L212,163.7L209.8,164.6L207.7,165.6L204.9,166L204,166.3L202.2,167.6L199.9,169.3L197.9,170.7L196.6,172.6L196.1,173.6L195.9,174.7L196,175.7L196.8,177.8L197,178.8L197.1,180.7L197.2,182.6L197.3,184.7L197.5,186.9L197.6,189.1L197.8,191.4L197.9,193.6L198,195.3L198.1,197.4L195.9,197.4L192.5,197.4L189.1,197.5L185.7,197.5L182.3,197.5L178.8,197.5L175.5,197.5L172,197.5L168.6,197.5L165.2,197.5L161.8,197.5L158.4,197.5L155,197.5L151.6,197.5L148.2,197.5L144.8,197.5L141.4,197.5L139.5,197.5L138.9,200.5L138.4,202.6L138,204.4L138.2,205.8L137.5,205L138.8,196.7L138.9,196L139.7,195.9L143,195.3L145.2,195.1L151,195.1L153.2,194.8L155,194.8L157.5,194.9L159.6,195.3L161.8,195.6L164.3,195.6L166.4,195.7L169.1,195.7L171,195.6L172.4,194.8L173.5,193.2L174,191.9L174.4,190.8L174.3,189.7L174.1,189L174.9,188.2L175.8,186.9L176.7,186.1L177,185.5L177.9,184.9L178.9,183.7L179.5,182.9L180.2,181.8L180.4,180.8L180.7,179.6L180.7,177.3L181,174.6L181.4,172.8L181.7,171.3L182,169.1L182.9,165.2L183.2,164.1L183.8,162.3L184.5,160.7L185.1,159.5L185.9,158.6L186.9,157.9L188.6,157.3L189.7,156.6L191.2,156L192.6,155.5L193.7,154.8L194.2,154.2L194.9,153L196,151L196.6,149.6L197.4,148L198.5,146.9L199.1,146.4L199.7,146.1L201,145.2L202.7,144.2L203.8,143.4L204.9,142.6L205.8,142L206.8,141L207.3,140.2L207.9,138.7L208.6,136.4L209.2,133.9L209.8,131.3L210.2,129.7L210.7,127.7L211.3,126.2L211.7,124.5L212,123.9L212,123.1L212.3,121.9L212.4,121.8L212.8,121.2L213.8,120.9L215,120.6L216.8,120.3L217.4,120L217.7,119.1L217.9,118.2L218.6,116.9L219.4,115.8L219.8,115.1L220.5,114L221.1,113.1L222.1,112.1L223,111.3L223.4,110.4L223.4,109.4L222.7,108.6L222.2,107.1L224.2,106.6L225.8,106.1L227.4,105.6L229.2,105L230.6,105L231.7,104.8L233.2,105.1L234.8,105.3L235.8,105.8L237.6,106.8L239.2,107.5L240.1,107.5L241.1,107.1L241.9,106.7L242.5,106.6L243.2,107L244.4,107.7L245.6,107.7L246.8,107.5L247.7,106.6L249.3,105.3L250.5,104.3L251.6,103.7L252.5,103.5L253.5,103.5L254.7,103.5L256.5,103.6L257.7,103.6L259.4,103.4L260.8,103.1L261.4,102.6L261.4,102L261.1,101L260.8,100L260.7,99.1L260.9,98.2L261.1,97.5L261,96.3L260.5,94.9L260.5,94.2L260.5,94.2Z" fill="#b8e653" stroke="#0c0e06" stroke-width="1"/></svg>
