<svg xmlns="http://www.w3.org/2000/svg" viewBox="0 0 300 300"><path fill="#e8e8ea" d="M279.9,33.9L279.9,39.7L279.9,46.8L280,52.6L280,59.5L280,66.3L280,74.1L280,81.8L280,87.4L280,91.4L273.7,91.4L268,91.4L262.2,91.4L256.4,91.4L250.6,91.4L245,91.4L239.2,91.4L233.4,91.4L227.6,91.4L222,91.4L216.2,91.4L210.4,91.4L204.6,91.4L198.8,91.4L193.1,91.4L187.4,91.4L181.6,91.4L177,91.4L177,95.5L177,100.1L177,104.9L177,109.5L177,114.1L177,118.8L177,123.4L177,128.1L177,132.7L177,137.4L177,142L177,146.6L177,151.2L177,155.8L177,160.4L177,165L177,169.6L177,173.7L176.8,177.4L174.9,178.5L170.5,180.4L166,182.4L160.2,183.3L158.3,184L154.7,186.6L149.8,190.1L145.7,193.1L142.9,197L141.9,199.1L141.4,201.4L141.8,203.5L143.3,207.8L143.7,210L143.9,213.8L144.2,217.9L144.4,222.3L144.8,226.7L145,231.4L145.3,236L145.6,240.8L145.8,244.3L146.1,248.7L141.4,248.7L134.3,248.7L127.3,248.7L120.2,248.7L113.1,248.7L106,248.7L99,248.7L91.8,248.7L84.7,248.8L77.7,248.8L70.6,248.8L63.5,248.8L56.5,248.8L49.4,248.8L42.2,248.8L35.1,248.8L28.1,248.8L24.1,248.8L22.9,255L21.8,259.5L21.1,263.1L21.6,266.1L20,264.5L22.8,247.2L22.9,245.8L24.6,245.5L31.3,244.2L36,243.8L48,243.8L52.7,243.1L56.4,243.1L61.6,243.5L65.9,244.2L70.6,244.8L75.8,244.8L80.2,245.1L85.7,245.1L89.7,244.8L92.5,243.1L95,239.8L96,237.2L96.8,234.8L96.5,232.5L96.2,231.2L97.7,229.5L99.6,226.8L101.5,225.2L102.1,223.8L104,222.5L106.1,220.2L107.3,218.5L108.9,216.2L109.2,214.2L109.9,211.5L109.9,206.8L110.4,201.2L111.3,197.4L112,194.4L112.6,189.7L114.4,181.6L115.1,179.3L116.3,175.6L117.9,172.2L119.1,169.8L120.6,167.8L122.8,166.5L126.2,165.1L128.6,163.8L131.8,162.4L134.5,161.4L137,160L137.9,158.7L139.4,156.3L141.7,152L142.9,149.2L144.7,145.9L146.9,143.5L148.2,142.6L149.3,141.8L152.1,140.1L155.6,138L158,136.4L160.1,134.6L162,133.3L164.1,131.2L165.1,129.5L166.3,126.5L167.9,121.7L169.1,116.6L170.4,111.1L171.2,107.7L172.2,103.6L173.5,100.4L174.4,97.1L175,95.7L175,94L175.6,91.6L175.7,91.4L176.6,90.2L178.7,89.5L181.1,88.8L185,88.3L186.1,87.6L186.8,85.7L187.3,83.9L188.7,81.1L190.4,78.8L191.3,77.4L192.6,75.1L193.8,73.3L196,71.1L197.9,69.4L198.6,67.6L198.6,65.5L197.3,63.9L196.3,60.8L200.3,59.8L203.7,58.7L206.9,57.7L210.7,56.3L213.6,56.3L215.8,56L219.1,56.7L222.3,57.1L224.5,58.1L228.3,60.1L231.5,61.6L233.4,61.6L235.5,60.8L237.2,59.9L238.3,59.8L239.9,60.5L242.3,61.9L244.9,61.9L247.4,61.6L249.3,59.8L252.5,57.1L255.1,54.9L257.4,53.6L259.2,53.3L261.3,53.3L263.8,53.3L267.5,53.6L270.1,53.6L273.6,53.1L276.6,52.5L277.8,51.5L277.8,50.1L277.1,48L276.4,46L276.2,44.2L276.7,42.2L277.1,40.7L276.8,38.3L275.9,35.4L275.8,33.9L275.8,33.9Z"/></svg>
