<svg xmlns="http://www.w3.org/2000/svg" viewBox="0 0 300 300"><path fill="#e8e8ea" d="M23.8,188.3L22.5,176.7L21.7,169.1L20.8,160.8L20,153.1L23.6,148.4L25.5,143.8L29.8,129.1L31.6,126.2L35,118.3L35.5,116.1L38.9,106.1L38.6,99.5L37.9,92.8L39.7,88.9L41.4,85.7L41.3,83L42.1,76.7L42.7,75.2L44.6,75L48.8,75.9L51.9,75.2L55.5,75.2L58.2,75L59.9,73.1L62.1,65.8L63.5,64.4L64.6,63.9L67.9,62.6L70.5,60.5L72.8,58.9L73.5,58.6L75.8,58.4L78.1,57.5L79.2,56.5L82.1,55.7L84.9,56.1L86.9,55.2L88.1,54.7L89.7,54.6L90.9,53.8L91.5,52.5L92.3,51.6L94.6,49.7L95.7,48.4L96.1,47L96.5,45.8L97.5,44L101.4,39.3L104.8,36.6L116.6,60.2L121.3,74L125.5,88.6L128.7,110.2L131.7,121.3L136.4,126.7L139.6,137L142.6,137.4L144.5,140.2L148,149.8L150.6,153.4L151.8,150.3L151.7,148.6L150.7,145.6L151.7,141.8L153.6,139.5L158,142.6L160.5,145L161.2,149.7L162.2,152.3L166.8,157.9L170.7,159.5L175.9,159.9L180.1,161.1L183.6,163.1L190,168.8L204.6,173.7L216.5,188.8L223.3,199.3L246.1,215.1L250.1,222.7L252.2,230L256.9,229.7L265.2,237.8L267.5,244L274.3,246.2L275.5,242.6L278.7,245.6L280,250.2L275.7,252L270.9,253.7L270.3,253.6L268.7,255.7L266.4,261.5L264,263.3L262.6,263.4L255.2,257.9L254.1,257.7L252.6,258.7L251.3,259.8L248,255.7L245.4,252.1L241.8,247.7L238.4,245.7L234.8,243.3L231.2,237.5L227.5,231.2L222.1,226L211.9,218.6L202.5,209.2L195.3,199.3L190.7,194.1L188.8,192.8L179.2,189.5L172.7,185L167.5,181.3L164.4,180.3L161.3,180.1L154.8,180.9L149.4,178.5L147.2,178.5L143.6,177.9L140.6,177.1L137.4,178.1L130.5,179.7L127.8,179.4L126.2,177L125.2,175.3L122.9,173.4L120.9,173.4L119.9,175.1L112.8,179.2L100.7,181.5L97.9,181.4L95.8,179.7L89.7,172.5L88,171.4L86.6,171.2L83.8,170.4L81.3,169L78.9,166.1L76.7,164.4L74.2,170.2L69.8,180.2L67.4,185.6L64.5,192.6L63.5,192.8L62,192.3L56,183.6L52.3,180.4L49.5,180.7L47.4,182.3L46.2,185.2L44.8,187L43.2,187.7L40,187.3L35,185.9L29.8,186.3L24.5,188.2Z"/></svg>
