<svg xmlns="http://www.w3.org/2000/svg" viewBox="0 0 400 300"><path d="M338.2,300L349.8,287.6L362.9,271.8L371.3,260.2L371.3,250.3L371.3,231.1L371.4,223.3L371.5,223L377.5,222.6L386.1,219.7L396,217.8L400,214.9L400,268.5L400,268.5L392.5,286.1L385.8,300L338.2,300Z" fill="#2c2c34" stroke="#474751" stroke-width="0.8"/><path d="M0,16L71.6,16L145.7,16L151.8,35.7L147.7,39.3L150.4,59.8L157.2,83.5L164.3,88.3L174.6,95.6L165.1,106.8L151.4,110L145.4,116L143.6,129L135.5,157.5L137.6,165.2L134.5,181.8L127,200.7L115.7,210.2L107.7,224.7L105.8,232.5L96.9,237.8L91.4,257.7L91.7,274.7L91.5,260L88.9,259.6L89.2,250.1L87,243.6L77.4,236.1L75.1,222.4L77.4,208.3L68.7,207L67.4,211.2L56.2,212.2L60.7,217.8L62.2,229.3L52,239.7L42.7,253.4L33,255.3L17.3,244.3L10.3,248.2L8.3,253.7L0,256.8L0,16Z" fill="#2c2c34" stroke="#474751" stroke-width="0.8"/><path d="M400,154.6L383.2,159.7L366.4,173.3L358.2,174.4L352.7,173.2L341.7,181.2L329.8,184.9L314.1,185.9L309.4,187L305.3,192.1L300.4,193.5L297.5,198.3L288.3,197.9L282.3,200.5L269.4,199.5L264.5,188.3L265.1,177.8L262,172.2L258.3,157.9L252.9,149.9L256.7,149L254.8,140.1L257.1,136.4L256.2,127.9L264.4,121.7L262.5,113.4L267.5,103.8L275.1,108.9L280.2,107.1L301.8,106.7L305.2,108.6L323.3,110.6L330.4,109.6L335.1,116.2L343.8,112.9L357.2,92.3L374.7,83.4L400,79.9L400,154.6Z" fill="#2c2c34" stroke="#474751" stroke-width="0.8"/><path d="M400,79.9L374.7,83.4L357.2,92.3L343.8,112.9L335.1,116.2L330.4,109.6L323.3,110.6L305.2,108.6L301.8,106.7L280.2,107.1L275.1,108.9L267.5,103.8L262.5,113.4L264.4,121.7L256.2,127.9L253.8,119.6L248.2,113.7L246.7,105.9L237.1,98.8L227.1,82.4L221.8,66.2L208.9,52.6L200.5,49.3L188.2,30.3L186,16.3L186.8,4.3L184.8,0L400,0Z" fill="#2c2c34" stroke="#474751" stroke-width="0.8"/><path d="M128.2,0L142.4,11.9L145.7,16L145.7,16L71.6,16L0,16L0,0Z" fill="#2c2c34" stroke="#474751" stroke-width="0.8"/><path d="M91.3,300L84.1,293L72.6,291.7L79,280.9L88.9,280.5L91.7,274.7L91.4,257.7L96.9,237.8L105.8,232.5L107.7,224.7L115.7,210.2L127,200.7L134.5,181.8L137.6,165.2L159.3,169.3L165.2,154.8L176.5,163.6L187.4,159.1L191.9,163.1L204.8,163.3L221.1,171.1L225.8,177.7L234.2,183.9L241.8,195.2L248.2,201.3L241.6,209.8L235.3,218.7L236.8,224L237.1,229.8L247.5,230.1L252,228.8L256.2,232.2L252.1,238.9L259,249.4L265.9,258.5L273,265.3L334.2,287.7L349.8,287.6L349.8,287.6L338.2,300L91.3,300Z" fill="#2c2c34" stroke="#474751" stroke-width="0.8"/><path d="M248.2,201.3L256.2,203L261.8,198.3L266.3,204.3L265.7,212.2L255,216.8L263,222L256.2,232.2L252,228.8L247.5,230.1L237.1,229.8L236.8,224L235.3,218.7L241.6,209.8Z" fill="#2c2c34" stroke="#474751" stroke-width="0.8"/><path d="M371.5,223L371.4,223.3L371.3,231.1L371.3,250.3L371.3,260.2L362.9,271.8L349.8,287.6L334.2,287.7L273,265.3L265.9,258.5L259,249.4L252.1,238.9L256.2,232.2L263,222L269.2,225.5L272.8,233.4L281.2,241.3L290.5,241.4L308.1,236.5L328.4,234.3L344.9,228.4L354.2,227.1L360.9,223.6Z" fill="#2c2c34" stroke="#474751" stroke-width="0.8"/><path d="M0,256.8L8.3,253.7L10.3,248.2L17.3,244.3L33,255.3L42.7,253.4L52,239.7L62.2,229.3L60.7,217.8L56.2,212.2L67.4,211.2L68.7,207L77.4,208.3L75.1,222.4L77.4,236.1L87,243.6L89.2,250.1L88.9,259.6L91.5,260L91.7,274.7L88.9,280.5L79,280.9L72.6,291.7L84.1,293L91.3,300L0,300Z" fill="#2c2c34" stroke="#474751" stroke-width="0.8"/><path d="M139.3,168.4L138.7,162.9L138.3,159.2L137.9,155.2L137.5,151.5L139.2,149.2L140.1,147L142.2,140L143.1,138.6L144.7,134.8L145,133.7L146.6,128.9L146.4,125.7L146.1,122.5L147,120.6L147.8,119.1L147.7,117.8L148.1,114.8L148.4,114L149.3,114L151.4,114.4L152.8,114.1L154.6,114.1L155.9,114L156.7,113L157.8,109.5L158.4,108.8L159,108.6L160.5,108L161.8,107L162.9,106.2L163.2,106.1L164.3,106L165.4,105.5L166,105.1L167.4,104.6L168.7,104.9L169.7,104.4L170.3,104.2L171,104.1L171.6,103.7L171.9,103.1L172.3,102.7L173.4,101.8L173.9,101.1L174.1,100.5L174.3,99.9L174.8,99L176.7,96.8L178.3,95.5L183.9,106.8L186.2,113.5L188.2,120.5L189.8,130.9L191.2,136.2L193.5,138.8L195,143.7L196.4,143.9L197.4,145.3L199.1,149.9L200.3,151.6L200.9,150.2L200.8,149.3L200.3,147.9L200.8,146.1L201.7,144.9L203.8,146.4L205,147.6L205.4,149.9L205.9,151.1L208.1,153.8L210,154.6L212.4,154.8L214.5,155.3L216.1,156.3L219.2,159L226.2,161.4L232,168.6L235.3,173.7L246.2,181.3L248.1,184.9L249.1,188.5L251.4,188.3L255.4,192.2L256.5,195.2L259.7,196.2L260.3,194.5L261.9,195.9L262.5,198.2L260.4,199L258.1,199.8L257.9,199.8L257.1,200.8L256,203.6L254.8,204.5L254.2,204.5L250.6,201.9L250.1,201.8L249.3,202.3L248.7,202.8L247.1,200.8L245.9,199.1L244.1,197L242.5,196L240.8,194.8L239,192.1L237.3,189L234.6,186.5L229.7,183L225.2,178.4L221.8,173.7L219.6,171.2L218.6,170.6L214.1,169L210.9,166.8L208.4,165.1L206.9,164.6L205.4,164.5L202.3,164.9L199.7,163.7L198.7,163.7L196.9,163.4L195.5,163L193.9,163.5L190.6,164.3L189.3,164.1L188.6,163L188.1,162.1L186.9,161.2L186,161.2L185.5,162L182.1,164.1L176.3,165.2L175,165.1L174,164.3L171,160.8L170.2,160.3L169.5,160.2L168.2,159.8L167,159.1L165.8,157.7L164.7,156.9L163.5,159.7L161.5,164.5L160.3,167.1L158.9,170.5L158.4,170.6L157.7,170.4L154.8,166.2L153,164.6L151.7,164.8L150.7,165.5L150.1,166.9L149.4,167.8L148.7,168.1L147.1,167.9L144.7,167.3L142.2,167.4L139.7,168.4ZM205.7,133L206.3,134.9L204.5,134.2L204.2,133.8L205,133.1L205.2,132.6ZM206.9,140.6L207.7,141.6L208.2,141.5L208.7,141.1L208.9,140.4L211.9,141.9L211.7,142.8L210,142.9L207.9,142.5L206.1,142.6L203.8,142.2L203.3,140.6L204.7,141.3L205.4,141.1L205.6,140.9L204.6,139.8L203.2,139.6L203.2,138.7L203.9,138.4L204.3,138L203.4,136.8L205,137.1L206.1,137.8L206.7,138.6Z" fill="#b8e653" stroke="#0c0e06" stroke-width="1"/></svg>
