<svg xmlns="http://www.w3.org/2000/svg" viewBox="0 0 400 300"><path d="M141.7,300L141.7,298.7L143.2,298.7L143.2,298.7L143.2,299.5L143.2,300L141.7,300Z" fill="#2c2c34" stroke="#474751" stroke-width="0.8"/><path d="M263.3,0L265.3,2.7L272.3,10L277.4,8.8L286.1,15.8L288.3,17.2L291.2,16.9L291.2,16.9L295.9,20.9L310.3,23.7L305.2,34L304,44.6L301.2,47.1L296.7,45.8L297,49.5L289.7,57.7L289.6,64.3L294.3,62L297.7,68.3L297.3,72.4L300.3,77.7L296.8,82L299.4,92.9L304.8,94.6L303.7,100.6L294.6,108.4L275,104.7L260.5,109.1L259.3,117.3L247.8,119L236.5,112.9L232.9,115.8L214.6,109.7L210.6,104.4L215.8,96.1L217.7,68L207.4,52.8L200,45.4L184.8,39.7L183.8,28.7L196.7,25.4L213.4,29.3L210.3,12L219.7,18.6L242.9,6.6L244.4,0L263.3,0ZM316.7,115.2L323.1,110L324.8,121.6L321.5,131.9L317,129.2L314.7,120.2Z" fill="#2c2c34" stroke="#474751" stroke-width="0.8"/><path d="M324,268.5L319.8,247.6L313.7,242.8L313.6,240L305.4,232.9L304.5,223.8L310.7,217.1L313,207.1L311.4,195.3L313.5,189L324.3,183.9L331.3,185.4L331,191.7L339.5,187.1L340.2,189.5L335.2,195.6L335.1,201.3L338.6,204.4L337.3,214.9L330.7,221L332.6,227.6L337.7,227.8L340.2,233.5L344.1,235.3L343.5,244.4L338.6,247.8L335.5,251.6L328.7,256.1L329.8,260.9L328.9,265.8Z" fill="#2c2c34" stroke="#474751" stroke-width="0.8"/><path d="M143.2,300L143.2,299.5L143.2,298.7L143.1,285.3L159.2,276.9L169.1,275.1L177.3,272L181.1,266.3L192.8,261.7L193.2,253L199,252L203.5,247.7L216.5,245.7L218.3,241.1L215.7,238.6L212.3,226L211.7,218.7L207.9,210.9L217.5,204.2L228.3,202.1L234.6,197L244.2,193.2L261.1,191L277.5,190L282.6,191.8L292,186.9L302.6,186.8L306.7,189.7L313.5,189L311.4,195.3L313,207.1L310.7,217.1L304.5,223.8L305.4,232.9L313.6,240L313.7,242.8L319.8,247.6L324,268.5L327.3,278.6L327.8,283.9L326,293.2L326.8,298.4L326.4,300L143.2,300Z" fill="#2c2c34" stroke="#474751" stroke-width="0.8"/><path d="M400,1.8L397.7,1.2L396.2,5.2L390.8,2L391,0L400,0Z" fill="#2c2c34" stroke="#474751" stroke-width="0.8"/><path d="M398.8,37.1L398,43.2L392.4,43.2L394.3,46.5L391,55.9L389.1,58.3L380.4,58.7L375.4,62L367.2,60.9L352.9,57.1L350.7,52L340.8,54.6L339.7,57.4L333.6,55.3L328.5,54.9L324,52.2L325.5,48.6L325.2,46L328.2,45.2L333.2,49.3L334.6,45.4L343.4,46L350.5,43.4L355.3,43.8L358.4,46.9L359.4,44.4L357.9,34.7L361.5,32.7L365,25.8L372.4,30.7L378.1,24.5L381.6,23.3L389.3,28L394,27.2L398.6,30L397.8,31.9Z" fill="#2c2c34" stroke="#474751" stroke-width="0.8"/><path d="M400,64.6L397.8,62.7L394.6,60.9L392.7,56L391,55.9L394.3,46.5L392.4,43.2L398,43.2L398.8,37.1L400,38.1L400,64.6Z" fill="#2c2c34" stroke="#474751" stroke-width="0.8"/><path d="M359.7,0L358.8,1L351.5,4.4L353.3,9.1L354.3,15.6L359.4,19.3L365,25.8L361.5,32.7L357.9,34.7L359.4,44.4L358.4,46.9L355.3,43.8L350.5,43.4L343.4,46L334.6,45.4L333.2,49.3L328.2,45.2L325.2,46L314.5,41.5L312.4,44.7L304,44.6L305.2,34L310.3,23.7L295.9,20.9L291.2,16.9L291.8,10.1L289.8,6.6L290.5,0L359.7,0Z" fill="#2c2c34" stroke="#474751" stroke-width="0.8"/><path d="M400,79.4L399,79.1L394.3,79.4L392.2,82.4L388.6,79.1L386.5,85L391.4,91.5L393.6,95.8L398.1,101L400,102.5L400,108.7L400,108.7L398.3,107.3L389.2,103.2L380.8,93L382.8,92L378.2,86.1L378.1,81.3L371.6,79.1L368.6,85.2L365.7,80.5L365.9,75.6L366.2,75.3L373.2,75.8L375,73.4L378.4,75.8L382.3,76L382.3,72L385.7,70.6L386.7,64.8L394.6,60.9L394.6,60.9L397.8,62.7L400,64.6L400,79.4Z" fill="#2c2c34" stroke="#474751" stroke-width="0.8"/><path d="M325.2,46L325.5,48.6L324,52.2L328.5,54.9L333.6,55.3L332.8,61.2L328.4,63.7L321.1,61.9L318.9,67.7L314.2,68.1L312.4,65.9L306.8,70.7L302,71.4L297.7,68.3L294.3,62L289.6,64.3L289.7,57.7L297,49.5L296.7,45.8L301.2,47.1L304,44.6L312.4,44.7L314.5,41.5Z" fill="#2c2c34" stroke="#474751" stroke-width="0.8"/><path d="M289.8,6.6L291.8,10.1L291.2,16.9L288.3,17.2L286.1,15.8L287.2,7.2Z" fill="#2c2c34" stroke="#474751" stroke-width="0.8"/><path d="M290.5,0L289.8,6.6L287.2,7.2L286.1,15.8L277.4,8.8L272.3,10L265.3,2.7L263.3,0L290.5,0Z" fill="#2c2c34" stroke="#474751" stroke-width="0.8"/><path d="M139.5,125.2L143.1,121.8L147.2,119.9L149.7,126.4L155.6,126.4L157.3,124.7L163.1,125.2L165.9,131.9L161.3,135.5L161.1,145.8L159.5,147.7L159.1,153.8L154.8,154.9L158.8,162.6L156,171L159.5,174.8L158.1,178.2L154.4,182.9L155.3,187.1L151.2,190.3L146,188.5L140.9,189.9L142.4,180.1L141.4,172.4L137,171.2L134.6,166.3L135.4,158L139.4,153.2L140.1,148L142.2,140.1L141.9,134.5L139.9,129.8Z" fill="#2c2c34" stroke="#474751" stroke-width="0.8"/><path d="M400,144.9L397.7,144.3L393.5,152.7L400,157.1L400,161.3L400,161.3L399.5,164.2L395.3,165L390,175.9L385.9,176.9L385.9,173L387.9,166.2L390.1,163.4L386.2,156L383.2,149.4L379,147.8L376.1,142.2L369.7,139.8L365.4,134.5L358,133.6L350.2,127.6L341.1,118.9L334.3,111.1L331.2,97.5L326.3,95.9L318.1,91.3L313.6,93.2L307.8,99.6L303.7,100.6L304.8,94.6L299.4,92.9L296.8,82L300.3,77.7L297.3,72.4L297.7,68.3L302,71.4L306.8,70.7L312.4,65.9L314.2,68.1L318.9,67.7L321.1,61.9L328.4,63.7L332.8,61.2L333.6,55.3L333.6,55.3L339.7,57.4L340.8,54.6L350.7,52L352.9,57.1L367.2,60.9L366,68L368.4,74L360.5,72L352.4,77L352.9,84L351.7,88L355,95.1L364.4,102.1L369.4,113.4L380.5,124.2L388.3,124.2L390.7,127.1L387.9,129.8L396.8,134.6L400,136.3L400,144.9ZM376.7,173.9L384.2,172.8L380.6,182.7L382.1,186.6L380,193L372.4,188.3L367.3,187L353.5,180.6L354.8,174.1L366.5,175.3ZM316.4,138.3L321.3,134.2L327.3,143.5L325.9,160.7L321.4,159.9L317.3,164.2L313.6,160.8L313.2,145.1L310.9,137.6Z" fill="#2c2c34" stroke="#474751" stroke-width="0.8"/><path d="M207.9,0L204.7,0.8L203.5,0L207.9,0ZM198,0L193.5,5L184.3,3.3L177.3,9.2L172,6.1L177.4,0L198,0Z" fill="#2c2c34" stroke="#474751" stroke-width="0.8"/><path d="M367.2,60.9L375.4,62L380.4,58.7L389.1,58.3L391,55.9L392.7,56L394.6,60.9L386.7,64.8L385.7,70.6L382.3,72L382.3,76L378.4,75.8L375,73.4L373.2,75.8L366.2,75.3L368.4,74L366,68Z" fill="#2c2c34" stroke="#474751" stroke-width="0.8"/><path d="M400,38.1L398.8,37.1L397.8,31.9L398.6,30L400,26.7L400,26.7L400,38.1Z" fill="#2c2c34" stroke="#474751" stroke-width="0.8"/><path d="M391,0L390.8,2L396.2,5.2L397.7,1.2L400,1.8L400,26.7L400,26.7L400,26.7L398.6,30L394,27.2L389.3,28L381.6,23.3L378.1,24.5L372.4,30.7L365,25.8L359.4,19.3L354.3,15.6L353.3,9.1L351.5,4.4L358.8,1L359.7,0L391,0Z" fill="#2c2c34" stroke="#474751" stroke-width="0.8"/><path d="M98,300L98.6,298.9L98.8,298.7L103.8,294.4L113.1,293.2L120.9,285.4L125.9,282.4L134.2,272.8L131.7,258.4L135.5,248.3L136.9,242.1L143.3,234.1L153.3,228.6L160.6,223.7L167.3,211.1L170.4,203.6L177.8,203.7L183.8,208.9L193.3,208L203.6,210.7L207.9,210.9L207.9,210.9L211.7,218.7L212.3,226L215.7,238.6L218.3,241.1L216.5,245.7L203.5,247.7L199,252L193.2,253L192.8,261.7L181.1,266.3L177.3,272L169.1,275.1L159.2,276.9L143.1,285.3L143.2,298.7L141.7,298.7L141.7,300L98,300Z" fill="#2c2c34" stroke="#474751" stroke-width="0.8"/><path d="M326.4,300L326.8,298.4L326,293.2L327.8,283.9L327.3,278.6L324,268.5L328.9,265.8L329.8,260.9L328.7,256.1L335.5,251.6L338.6,247.8L343.5,244.4L344.1,235.3L355.7,239.4L359.9,238.4L368.3,240.4L381.5,245.7L386.1,256.1L395.1,258.3L400,260.1L400,300Z" fill="#2c2c34" stroke="#474751" stroke-width="0.8"/><path d="M400,102.5L398.1,101L393.6,95.8L391.4,91.5L386.5,85L388.6,79.1L392.2,82.4L394.3,79.4L399,79.1L400,79.4L400,102.5Z" fill="#2c2c34" stroke="#474751" stroke-width="0.8"/><path d="M245.4,167.2L245.2,167.3L244.6,167.2L243.6,167.2L243.5,166.7L243.7,166.3L243.8,165.9L244.5,166.7L245.4,166.8ZM260.9,152.8L261.9,153.2L262.9,152.8L263.4,153L263.9,153.2L264,154L263.6,154.9L262.9,155.8L262.4,156.8L261.9,158L261,158.7L260.2,159.1L258.4,158.3L257.4,158L257.2,157.7L256.9,156.4L256.5,156L255.8,155.8L255.2,156.1L254.5,156.8L254,156.1L253.4,156L253.2,155.6L253.2,155.1L257.3,152L258.5,151.3L261,150.5L261.4,150.6L261.1,151.1L261.1,151.3L261.4,151.5L261.4,151.9L261,152.2ZM272.3,152.1L272.2,152.3L269.1,150.8L268.1,150.6L267.8,150.4L267.9,149.6L268,149.3L270,149.1L271.6,149.6L272.5,151.2L272.6,151.4ZM244,164L243.6,164.8L242.1,164.5L241.7,164.2L242,163.3L242.5,163.2L242.5,162.6L243,161.9L245.1,161.4L245.6,161.9L245.7,162.5L244.5,163.9ZM211.7,104.6L211.7,105L212.1,105.7L212.5,105.9L213.3,106.3L214,106.3L214.9,106.5L215.5,106.9L215.5,107.4L215.4,108.1L215,108.7L214.8,109.2L215,109.4L215.3,109.6L215.6,109.7L215.9,109.6L216.1,109.3L216.4,108.8L216.6,108.8L216.6,109L216.7,109.3L217.8,109.9L220.2,110.8L221.2,110.9L222,111L222.2,111.4L223.7,112.9L224.1,112.8L224.8,112.9L225.6,112.7L226.2,112.5L226.6,112.5L227,112.8L227.5,113L228.2,113.5L228.7,114.2L229.1,114.4L231.5,113.9L232.1,114.3L232.6,114.3L233.3,114.2L234.7,114.4L235.8,114.4L236,114.2L236.1,112.9L236.2,112.4L236.5,112.2L237.2,112.3L239.6,113.1L240.6,113.6L241.6,114L242.4,114.1L243,114.3L243.8,115.6L243.7,116.3L243.7,116.5L243.8,117L243.8,117.4L244,117.8L244.3,117.8L244.8,117.7L245.4,117.5L246.3,117L246.5,116.9L248.1,117.5L248.8,117.9L249,118.4L249.3,118.8L249.8,118.9L250.4,118.5L251.5,118L253.2,118.4L255.1,119L256,119.1L256,118.8L256.2,118.4L256.5,118.2L256.9,118.1L257.6,117.9L258.4,117.5L259.1,117.4L260,117.6L261,117.9L261.6,117.9L261.8,118.7L262.3,119L262.5,119.8L261.6,120.2L261.1,120.2L261,121.5L261.2,121.8L261.7,122.2L261.8,122.5L261.9,124.4L260.9,125.5L259.5,126.8L252.6,130.8L250.9,132.7L250.3,133.2L245.2,134.4L241.5,135.7L239.8,136.1L237.7,138.4L236.7,139.3L237.5,139.6L238.4,140.6L238.1,141.1L236.7,141.8L236.1,142.1L235.8,141.9L235.5,142L233.2,145.9L231.1,148.7L230,149.9L228.8,151.7L226.3,156.3L226.3,157.6L227.5,162.2L228.2,163.4L229.2,164.4L231.1,165.2L231.5,166.1L230.9,166.9L229,168.3L225.8,170.2L224.4,171.7L224.1,173.1L223.1,173.8L222.7,175.8L222.2,177.2L222,177.6L221.4,178.6L221.3,179.4L222.4,180.4L221.9,180.8L221.3,181L220.2,181.1L216.3,181.3L213.2,183.4L211.6,185.4L210.2,189L208.5,191.1L207.8,191.5L206.6,190.5L205.1,190.4L203.7,190.7L202.9,191.4L201.8,191.8L200.6,191.5L198.2,191.3L197.1,191.3L195.3,191.9L193.9,191.5L191.4,191.3L186,191.8L185.4,192L184.7,192.9L183,194.4L180.4,194.5L178,195.4L177.4,196.1L176.4,197.8L176.1,199L175.9,199L175.7,198.7L175.3,198.8L175.1,199.8L174.2,200.2L173.5,200.4L171.7,199.6L170.1,198.4L169.4,198.4L168.1,196.6L167.5,195.4L167.1,194.2L167.2,193.7L167.1,193.3L165.9,192.8L165.6,191.7L166.5,190.2L167.2,189.5L167.6,189.4L166.6,189.4L165.8,190.4L164.8,188.8L160.9,185.9L161.2,185.2L161.1,184.8L160.5,185.6L160,185.8L158,185.7L155.7,186L155.1,182.9L154.8,181.7L154.8,181L155.4,179.2L156,178.4L156.9,176.9L158,175.6L159.1,175.3L159.6,175.1L160,174.2L160.2,173.3L160,173.3L158.7,173.4L156.4,169.9L156.4,169.4L156.7,168.5L156.9,167.5L157,166.6L157.6,165.9L158.5,165.2L159.3,164.2L159.7,163.2L159.8,162.3L159.4,161.6L158.1,161.2L156.7,158.6L156.4,157L156.2,156.8L155.3,156.1L154.5,154.7L154.4,154.5L155.3,154.2L158.6,154.2L159.3,153.9L159.4,153.8L160,152.7L160.7,150.9L160.8,149.8L160.6,149.3L159.5,148.2L159.5,147.9L159.6,147.4L160.3,146.8L161.2,146.2L161.7,145.6L161.6,145.2L161.3,144.7L161.3,144.3L161.4,143.8L161.5,142L161.6,141.5L161.4,139.9L161.2,138.6L160.5,136.8L160.6,136.5L161,136.1L162,135.5L162.9,134.1L164.1,132.9L165.7,132L166.8,130.9L167.3,130.1L167.6,129.9L167.5,129.5L167.3,129L166.7,128.4L165.8,128.1L164.9,128.1L164.3,128L164.2,127.6L164.2,126.5L164.2,125.3L164,124.8L163.6,124.4L162.7,124.5L162,124.2L161.4,124.1L161.1,124.4L159.5,124.3L158.8,124.1L158.3,123.9L158,124L157.8,124.3L157.8,124.6L157.7,125.1L157.1,125.5L155.8,125.9L154.7,125.8L153.7,125.6L153.4,125.3L152.9,125.1L150.8,125.4L150.6,125.2L149.9,125.6L148.9,126.1L148.3,126.2L148.1,126.1L148,125.8L147.6,125.1L147.7,124.6L148.5,123.4L148.4,123.1L148.1,122.7L147.8,122.1L147.7,121.9L147.2,121.8L146.6,122.1L144.5,122.7L144,122.9L143,123.5L142.1,124.4L141.3,124.6L141.1,124.4L141,122.2L142.1,120.8L142.9,120L142.6,119.8L141.7,119.8L141.7,119.2L142.2,118.8L142.6,118.1L142.1,117.8L141.7,117.3L141.7,116.1L141.8,115.6L141.7,115L140,115.8L139.5,115.7L139.5,114.7L140.5,113.3L140.6,112.9L139.4,112.7L138.6,112L138.1,111.3L137.5,110.4L137.5,109.6L138.1,107.8L138.9,107.2L139.6,106.9L141.1,105.6L143.2,105.8L144.5,105.5L145.6,104.9L146.3,104.7L147.3,104.1L147.3,103.3L146.9,102.8L147.3,102.2L148.4,101.5L149.8,100.6L151.3,100.5L152.8,99.6L153.9,100.2L154.8,100L155.8,100.6L157.2,102L159.2,102.6L160.8,102.1L163.6,102L165,102.2L167.5,101.9L169,102L171.3,101.3L173.1,102.2L176.6,102.6L178.7,103.3L184.5,104.4L186.6,104.5L189.5,103.8L190.8,103.3L191.9,103.6L193.6,103L194.4,103.1L195.5,104L199.2,105.1L200.2,104.1L200.9,103.9L203.6,104.5L206.2,105.7L207.6,105.7L209.7,105.4L211.3,104.7ZM66.7,290.5L65.9,293.1L65.1,294.1L64.7,294.5L63.5,294.7L62.2,293.1L61.5,291.5L61.1,291L61.7,290.6L62.6,290.6L64.5,290.3L64.9,290.2L66.9,288.5L68.9,288.3L68.9,288.9ZM92.9,284.5L92.2,285.2L91.4,285L91.8,283.3L92.1,282.9L93.5,282.1L94.7,281.8L95,281.1L95.4,280.8L95.8,281.2L95.5,281.8L95.2,283.4L94.4,283.9ZM88.1,292.9L86.7,294.2L85.3,293.9L85.1,293.7L86.5,293.4L87.7,292.4L88.5,290.2L89.7,287.8L90,286.8L90.5,286.4L91.1,286.4L91.4,286.5L91.8,287L91.8,288.2L91.4,290.2L90.8,292ZM76.1,293.2L76,294L76.2,294.9L76.2,296.3L75.7,297L74.5,297.7L73.5,297.6L73,297.3L72,296.1L72,294.9L72.9,294.1L73.2,293.1L75.5,293.3L75.8,293.1L75.9,293ZM58.3,294.6L57.9,294.7L57.4,294.4L56.9,293.5L57.2,292.8L57.5,292.5L58,292.6L58.8,293.1L59.1,293.6L59.1,293.9ZM51.3,297L50.3,298.8L49.1,298.1L48.8,297.9L48.6,297.5L49.7,297.4L50.9,296.5ZM51.8,289.2L51.6,289.3L51.3,288.4L50.1,286.3L50.9,285.3L52.2,285.2L52.7,285.9L52.9,286.6L52.6,287L52.7,287.9L52.6,288.4Z" fill="#b8e653" stroke="#0c0e06" stroke-width="1"/></svg>
