<svg xmlns="http://www.w3.org/2000/svg" viewBox="0 0 300 300"><path fill="#e8e8ea" d="M174.3,55.5L174.3,56.5L175.1,57.9L176,58.4L177.8,59.1L179.1,59.2L181,59.5L182.2,60.3L182.3,61.5L181.9,62.9L181.2,64.1L180.7,65.1L181.2,65.6L181.9,66.1L182.5,66.2L183.1,66L183.4,65.3L184.1,64.3L184.5,64.2L184.5,64.7L184.8,65.4L187.1,66.5L192.1,68.5L194,68.6L195.7,68.8L196.1,69.7L199.3,72.8L200.1,72.7L201.5,72.7L203.2,72.5L204.4,71.9L205.2,72L206.1,72.6L207.2,73.1L208.6,74.2L209.8,75.4L210.6,75.9L215.6,75L216.7,75.8L217.9,75.8L219.3,75.6L222.2,76L224.6,75.9L224.8,75.5L225,72.7L225.4,71.7L225.9,71.5L227.3,71.7L232.4,73.3L234.5,74.4L236.5,75.2L238.3,75.3L239.4,75.8L241,78.5L240.8,79.8L240.9,80.3L241.1,81.3L241,82.3L241.5,83L242.2,83.1L243.3,82.8L244.3,82.4L246.3,81.3L246.8,81.1L250,82.4L251.4,83.3L251.9,84.2L252.6,85.2L253.6,85.3L254.9,84.4L257.1,83.4L260.7,84.3L264.7,85.5L266.4,85.7L266.5,85.1L266.8,84.2L267.5,83.8L268.4,83.6L269.9,83.2L271.4,82.4L273,82.1L274.7,82.7L276.8,83.2L278.1,83.2L278.6,84.9L279.6,85.6L280,87.1L278.2,87.9L277.1,88L276.8,90.7L277.2,91.4L278.3,92.1L278.6,92.9L278.8,96.8L276.7,99.1L273.7,101.7L259.3,110L255.9,114L254.6,115L244,117.5L236.4,120.2L232.8,121.2L228.4,125.8L226.3,127.7L228,128.3L229.9,130.5L229.3,131.5L226.4,133L225.1,133.5L224.5,133.3L223.8,133.4L219,141.5L214.7,147.3L212.3,149.8L209.9,153.5L204.7,163.1L204.6,165.9L207.2,175.3L208.7,177.8L210.7,179.9L214.7,181.7L215.6,183.4L214.3,185.1L210.4,188L203.6,192L200.7,195.1L200.1,198.1L198.1,199.5L197.3,203.7L196.1,206.5L195.8,207.4L194.6,209.6L194.4,211.1L196.5,213.2L195.4,214.1L194.4,214.5L192,214.7L184,215L177.5,219.6L174.2,223.6L171.3,231L167.7,235.4L166.1,236.2L163.7,234.3L160.6,234L157.6,234.7L156.1,236.1L153.7,237L151.3,236.3L146.2,235.9L143.9,236L140.3,237.2L137.2,236.4L132.1,236L120.9,236.9L119.6,237.4L118.1,239.2L114.6,242.4L109.2,242.5L104.3,244.5L103.1,245.8L101,249.4L100.3,251.9L99.9,252L99.4,251.4L98.6,251.5L98.2,253.5L96.3,254.4L94.9,254.7L91,253.1L87.9,250.7L86.3,250.6L83.6,246.9L82.4,244.4L81.6,241.9L81.7,240.9L81.5,240.1L79.1,239L78.5,236.6L80.3,233.6L81.7,232.2L82.6,231.9L80.4,232L78.9,234L76.9,230.8L68.7,224.6L69.3,223.2L69.2,222.4L67.8,224L66.9,224.5L62.7,224.2L57.9,225L56.6,218.5L56,216L55.9,214.4L57.2,210.7L58.5,209.1L60.3,206L62.5,203.3L64.9,202.7L65.9,202.3L66.7,200.3L67.2,198.6L66.9,198.4L64.2,198.7L59.3,191.4L59.4,190.3L60,188.5L60.4,186.3L60.5,184.6L61.8,183.1L63.7,181.6L65.4,179.5L66.2,177.4L66.4,175.5L65.4,174.1L62.8,173.4L60,168L59.4,164.6L58.8,164.2L57.1,162.6L55.4,159.8L55.2,159.3L56.9,158.8L63.9,158.7L65.4,158.1L65.6,157.9L66.9,155.6L68.2,151.8L68.5,149.5L68.1,148.6L65.7,146.3L65.7,145.6L66,144.5L67.4,143.3L69.3,142L70.3,140.8L70.1,139.9L69.5,139L69.4,138.1L69.8,137L69.9,133.3L70.1,132.3L69.8,129L69.3,126.2L67.8,122.6L68.1,121.8L68.8,121.2L71,119.9L72.8,117L75.4,114.5L78.7,112.6L81,110.3L82,108.7L82.7,108.2L82.5,107.4L82,106.3L80.7,105.2L79,104.5L77,104.5L75.8,104.3L75.5,103.4L75.6,101.1L75.5,98.7L75.1,97.6L74.3,96.8L72.5,97L71,96.4L69.8,96.2L69.1,96.7L65.7,96.6L64.3,96.2L63.3,95.7L62.7,96L62.3,96.5L62.2,97.2L62,98.1L60.7,99L58,99.9L55.7,99.8L53.7,99.2L53,98.7L52,98.3L47.8,98.8L47.2,98.5L45.8,99.3L43.7,100.4L42.5,100.4L42,100.2L41.9,99.8L41,98.1L41.2,97.2L42.9,94.7L42.8,94.1L42,93.3L41.4,92.1L41.2,91.5L40.1,91.4L39,92L34.5,93.3L33.4,93.7L31.5,95L29.5,96.9L28,97.2L27.4,96.7L27.2,92.3L29.6,89.3L31.3,87.5L30.5,87.2L28.7,87.2L28.8,85.8L29.7,85.2L30.5,83.7L29.6,83L28.8,82L28.8,79.4L29,78.4L28.8,77.2L25.1,78.8L24.2,78.6L24.2,76.6L26.2,73.7L26.4,72.8L24,72.4L22.2,70.9L21.2,69.6L20,67.7L20,66.1L21.2,62.2L22.9,61L24.4,60.3L27.5,57.6L31.8,58.1L34.5,57.5L36.9,56.1L38.3,55.8L40.4,54.6L40.4,53L39.6,51.7L40.3,50.6L42.8,49.1L45.5,47.3L48.7,47L51.9,45.3L54,46.4L55.9,46L58.1,47.2L60.9,50.1L65.1,51.3L68.4,50.4L74.3,50.2L77.2,50.6L82.5,49.9L85.4,50.1L90.2,48.7L94,50.5L101.3,51.3L105.6,52.8L117.7,55.2L122.1,55.3L128.2,53.9L130.8,52.9L133.2,53.5L136.7,52.3L138.4,52.5L140.6,54.3L148.4,56.5L150.4,54.6L151.9,54.2L157.4,55.3L163,57.8L165.9,57.9L170.1,57.3L173.6,55.7Z"/></svg>
