<svg xmlns="http://www.w3.org/2000/svg" viewBox="0 0 300 300"><path fill="#e8e8ea" d="M59.4,214.9L59.1,214.6L57.6,213.3L56.1,211.7L55.2,210L54.4,208.5L54,205.2L52.9,203.2L51.9,200.8L50.4,196.1L49.7,194.5L48.4,193.4L47.1,192.4L45.7,190.4L42.2,188.5L40.9,187.1L38.5,184.6L37.9,183.4L37.7,182.1L37,181L35.7,179.7L31.6,176.8L30.4,176.5L28.9,176.2L26.8,175.9L23.9,175.3L21.4,174.2L20.3,173.4L20,172.8L20.3,171.9L21.1,170.4L22.9,166.6L24.1,164.1L24.9,163.4L27.1,163.2L29.5,163.3L31.2,163.5L33.6,163.5L36.6,163.3L37.7,162.4L38.6,161.5L39,160.9L39.1,159.2L39.1,157.9L38.9,152.8L38.8,149.7L38.7,146.1L38.7,145.4L38.7,144.5L39.4,140.7L40.1,138.5L40.6,137.3L42.4,133.7L42.7,132.5L42.8,131.5L42.1,126.6L43.3,124.3L44.9,122L46.2,121L47.3,120.4L47.8,120.7L49.1,121.7L50.7,122.7L51.6,122.5L52.7,121.6L53.6,120.7L53.4,118.9L54.2,115.4L54.1,113.4L54.9,110.8L55.7,107.3L56.2,105L56.7,103.8L59.1,101.3L61.2,97.8L62.6,95.2L65.1,91L66.4,89.5L67.4,88.8L69,88.4L71.9,88L73.9,87.6L74.2,87.1L74.4,86.2L74.4,84.3L74.9,81.1L75.7,77.9L76.8,75.5L77.4,74.4L78.1,73.4L78.9,71.6L79.9,67.7L79.8,65.1L81.2,60.3L81.5,60.3L83.9,59.4L86.2,59.3L88.4,59.9L89.9,60L90.5,59.7L91.2,58.9L91.7,57.6L92.7,56.9L93.9,56.8L95.5,58.2L98.2,62.1L98.9,62.3L99.4,62.2L100.7,59.1L101.7,56.7L103.7,52.2L104.8,49.6L105.8,50.4L106.9,51.7L108,52.3L109.2,52.7L109.9,52.8L110.6,53.3L113.4,56.5L114.3,57.2L115.5,57.3L120.9,56.3L124.1,54.4L124.5,53.7L125.4,53.7L126.5,54.5L126.9,55.3L127.6,56.3L128.8,56.5L131.9,55.7L133.3,55.3L134.7,55.7L136.3,56L137.3,56L139.7,57L142.6,56.7L144,56.7L145.3,57.2L147.7,58.9L150.6,60.9L154.8,62.3L155.7,62.9L157.8,65.2L161,69.6L165.2,73.9L169.7,77.2L172.2,79.5L173.8,82.3L175.4,84.9L177,86L178.5,86.8L180.1,88.8L181.3,90.4L182.8,92.3L181.1,94.8L178.8,98.2L176.2,102.1L175.3,103.1L173,105.4L172.6,106.1L172.2,107.8L172.2,110.9L172.5,114.9L172.7,118.6L174,119L175.5,119.3L177.2,118.8L179.1,118.4L181.6,118.2L184.3,117.4L185.9,116.8L187.6,116.9L189.1,117.5L189.8,118.1L190.9,118.3L192.2,118.3L192,119L191.2,120L190.3,121L189.5,122L187.6,124.9L187.6,125.3L187.8,125.9L188.8,127.2L189.8,129.4L190.4,131.4L190.8,132.3L192.1,133.4L193.8,135.7L194.8,137.2L196.7,138L197.4,139.9L198.8,142.8L200.4,145.1L202,146.8L203.6,147.5L204.3,147.6L207.9,150.9L210.6,153.4L211.3,153.8L216.3,155.4L221.9,157.3L226.5,158.8L232.2,160.7L237.9,162.6L243.3,164.4L250.8,166.9L256.8,169L261.6,170.6L262.6,171.1L268.3,171.1L274.1,171.1L280,171.1L275.7,175.3L270.9,180L265.8,184.9L262.5,188.1L257.3,193.1L253,197.4L248.5,201.9L244.5,206.1L239.3,211.8L235.9,215.5L230.6,221.3L227.3,225L226.8,225.2L222,224.9L217.3,224.7L211.4,224.3L210.8,224.3L209,224.7L208,225L203.7,226L202.9,226.2L199.4,227.8L195.8,229.7L193.8,231.1L192.4,233.1L191.8,234.6L191.1,235.2L190,235.8L182.4,237.2L180.1,237.4L176.7,238.5L174.8,240.3L174.2,241.3L171.7,241.2L167.2,241.5L165.3,241.8L164.4,241.9L162.7,241.9L161.3,241.5L160.3,241L159.2,239.9L156.7,237.6L154.8,236.1L150.7,237.8L147,239.5L141.7,241.8L138.8,243.5L137.8,245.2L135.5,248.2L133.5,250.1L132.7,250.4L128,249.9L126.3,249.6L123.6,249.2L119.9,248.5L117.4,247.9L114.6,247.8L110.7,247.5L108.3,247L105.9,245.3L102.7,243.2L99.4,241.1L96,238.9L92.1,236.5L87.8,233.7L86.8,233.4L86.4,233.4L81.7,233.3L76.8,233.1L73.5,233.1L72.5,232.7L71.7,232.1L70.7,230.1L69.4,228.6L68,226.8L67.9,224.3L68.2,221.6L68.6,220.7L68.4,219.8L68.4,218.6L67.7,217.5L62.9,216.2L62.1,216.3L61.3,216.7L60.4,217.1L59.7,216.8L59.3,216.3L59.3,215.5Z"/></svg>
