<svg xmlns="http://www.w3.org/2000/svg" viewBox="0 0 400 300"><path d="M124.3,300L122.1,299.1L118.6,296.9L114.1,286.3L109.3,281.6L107.6,276.8L108.5,272.4L106.9,264.7L110.4,264.3L113.4,261.3L116.7,256.9L118.8,255.1L118.7,252.4L116.9,250.5L116.4,247.2L118.8,246.2L119.3,241.3L116,236.6L118.9,235.6L128,235.7L145,235L145,235L146.5,236L176.7,253L177.3,257.8L189.3,266.2L185.4,276.5L185.9,281.2L191.2,284.3L191.5,286.5L189.2,291.6L189.7,294.1L189.1,298.2L190.1,300L124.3,300Z" fill="#2c2c34" stroke="#474751" stroke-width="0.8"/><path d="M44.5,300L45.3,296.7L43.6,293.4L43.4,288.1L33.3,288.2L34,285.1L29.8,285.2L29.3,286.6L24.2,287L22.1,291.9L20.8,294L16.2,292.8L13.5,294L7.9,294.6L4.7,290.2L2.8,287.5L0.4,282.5L0,281.2L0,240.6L0,240.6L2.9,237.3L8.4,233.3L9.3,230.6L9.5,227.6L10.9,224.7L10.5,220L11.5,212.6L13.1,207.4L15.6,202.9L16.1,197.8L16.9,192L20.1,187.8L24.6,185.1L31.5,187.9L36.8,191L42.9,191.8L49.1,193.5L51.6,188.4L52.7,187.7L56.5,188.6L65.8,184.4L69.1,186.2L71.8,185.9L73.1,183.9L76.2,183.2L82.5,184.1L87.8,184.3L90.5,183.4L95.6,190.3L99.3,191.3L101.6,189.9L105.4,190.4L110.1,188.7L112.1,192.2L119.4,197.8L118.9,207.6L122.3,208.7L119.6,211.7L116.4,213.9L113.2,218.2L111.4,222.1L111,228.8L109,232L109,238.3L106.6,240.6L106.3,245.6L105.1,246.2L104.3,250.8L106.4,254.6L106.9,264.7L106.9,264.7L108.5,272.4L107.6,276.8L109.3,281.6L114.1,286.3L118.6,296.9L115.4,296.1L104.2,297.5L101.9,298.5L101.2,300L44.5,300Z" fill="#2c2c34" stroke="#474751" stroke-width="0.8"/><path d="M209.1,241.1L204.2,234.3L204.1,203.9L211.4,194.4L213.7,191.7L219,191.6L226.5,185.7L237.3,185.3L260.9,160.1L266.7,153.1L270.5,147.9L270.5,143.5L270.5,134.9L270.5,131.4L270.6,131.3L273.3,131.1L277.1,129.8L281.5,129L285.5,126L288.6,126L288.8,128.4L288.1,133.3L288.1,137.8L286.3,140.9L284,150L280,159.4L274.8,170.2L267.6,182.5L260.5,191.9L250.7,203.3L242.3,210L229.9,218.3L222.1,224.7L213,234.8L211,239.2Z" fill="#2c2c34" stroke="#474751" stroke-width="0.8"/><path d="M189.3,266.2L177.3,257.8L176.7,253L146.5,236L145,235L145,226.2L147.4,222.8L151.5,217.3L154.5,211.2L150.8,201.6L149.8,197.4L145.9,191.6L151,186.6L156.7,181.1L161,182.5L161,187.2L163.9,189.9L169.7,189.9L180.2,197L182.9,197.1L184.8,196.9L186.7,197.9L192.2,198.5L194.7,195L202.3,191.5L205.7,194.4L211.4,194.4L204.1,203.9L204.2,234.3L209.1,241.1L203.3,244.5L201.2,248L198.1,248.6L196.9,254.5L194.2,257.8L192.6,263.4Z" fill="#2c2c34" stroke="#474751" stroke-width="0.8"/><path d="M67.1,158.2L60.8,154.5L57.9,152.1L57.4,149.4L58.7,145.9L58.7,142.5L53.9,137.2L52.9,133.5L53,131.5L50,129L49.9,124L48.1,120.7L45.2,121.2L46,118.1L48.2,114.5L47.2,110.9L50,108.3L48.2,106.3L50.4,101L54.3,94.6L61.5,95.2L61,60.4L61.1,56.7L70.7,56.7L70.7,38.8L104.3,38.8L136.7,38.8L169.8,38.8L172.5,47.6L170.6,49.3L171.8,58.4L174.9,69L178.1,71.1L182.7,74.4L178.4,79.4L172.3,80.8L169.6,83.5L168.8,89.3L165.2,102L166.1,105.5L164.8,112.8L161.4,121.3L156.4,125.5L152.8,132L152,135.5L148,137.9L145.5,146.8L145.6,154.3L145.6,147.8L144.4,147.6L144.5,143.4L143.5,140.5L139.2,137.1L138.2,131L139.2,124.7L135.4,124.1L134.8,126L129.8,126.4L131.8,128.9L132.5,134.1L127.9,138.7L123.8,144.8L119.4,145.7L112.4,140.8L109.3,142.5L108.4,145L104.1,146.6L103.9,148.3L95.5,148.3L94.4,146.6L88.4,146.3L85.4,147.7L83.1,147L78.8,142.1L77.3,139.7L71.3,140.9L69,144.8L66.9,152.4L64,154L61.5,154.9Z" fill="#2c2c34" stroke="#474751" stroke-width="0.8"/><path d="M0,28.9L27.8,43.4L61,60.4L61,60.4L61.5,95.2L54.3,94.6L50.4,101L48.2,106.3L50,108.3L47.2,110.9L48.2,114.5L46,118.1L45.2,121.2L48.1,120.7L49.9,124L50,129L53,131.5L52.9,133.5L47.6,135L43.4,138.4L37.4,147.7L29.5,151.6L21.5,151.1L19.1,151.8L20,154.8L15.6,157.8L12,161L1.5,164.3L0,162.8L0,28.9Z" fill="#2c2c34" stroke="#474751" stroke-width="0.8"/><path d="M0,162.8L1.5,164.3L12,161L15.6,157.8L20,154.8L19.1,151.8L21.5,151.1L29.5,151.6L37.4,147.7L43.4,138.4L47.6,135L52.9,133.5L53.9,137.2L58.7,142.5L58.7,145.9L57.4,149.4L57.9,152.1L60.8,154.5L67.1,158.2L71.7,161.6L71.8,164.3L77.4,168.7L80.9,172.3L83,177.4L89.2,180.7L90.5,183.4L90.5,183.4L87.8,184.3L82.5,184.1L76.2,183.2L73.1,183.9L71.8,185.9L69.1,186.2L65.8,184.4L56.5,188.6L52.7,187.7L51.6,188.4L49.1,193.5L42.9,191.8L36.8,191L31.5,187.9L24.6,185.1L20.1,187.8L16.9,192L16.1,197.8L10.8,197.4L5.1,196L0.1,200.4L0,200.6L0,162.8Z" fill="#2c2c34" stroke="#474751" stroke-width="0.8"/><path d="M0,200.6L0.1,200.4L5.1,196L10.8,197.4L16.1,197.8L16.1,197.8L15.6,202.9L13.1,207.4L11.5,212.6L10.5,220L10.9,224.7L9.5,227.6L9.3,230.6L8.4,233.3L2.9,237.3L0,240.6L0,200.6Z" fill="#2c2c34" stroke="#474751" stroke-width="0.8"/><path d="M101.2,300L101.9,298.5L104.2,297.5L115.4,296.1L118.6,296.9L118.6,296.9L122.1,299.1L124.3,300L101.2,300Z" fill="#2c2c34" stroke="#474751" stroke-width="0.8"/><path d="M0,281.2L0.4,282.5L2.8,287.5L4.7,290.2L7.9,294.6L13.5,294L16.2,292.8L20.8,294L22.1,291.9L24.2,287L29.3,286.6L29.8,285.2L34,285.1L33.3,288.2L43.4,288.1L43.6,293.4L45.3,296.7L44.5,300L0,300Z" fill="#2c2c34" stroke="#474751" stroke-width="0.8"/><path d="M116.4,247.2L116.9,250.5L118.7,252.4L118.8,255.1L116.7,256.9L113.4,261.3L110.4,264.3L106.9,264.7L106.4,254.6L104.3,250.8L109.4,251.5L112,246.7Z" fill="#2c2c34" stroke="#474751" stroke-width="0.8"/><path d="M292.5,18.5L294,18L294.3,20.5L300.9,19.1L307.8,19.3L312.8,19.6L318.5,13.4L324.7,7.5L330,1.8L331.6,4.9L332.7,12.2L328.5,12.3L327.8,18.2L329.3,19.5L325.5,21.3L325.5,25L323,28.8L322.8,32.4L321.1,34.4L296.1,29.8L292.9,20.6Z" fill="#2c2c34" stroke="#474751" stroke-width="0.8"/><path d="M286.1,13.8L285.6,7.1L287.8,2.2L290.1,1.2L292.6,4.1L292.8,9.5L290.9,15L288.6,15.6Z" fill="#2c2c34" stroke="#474751" stroke-width="0.8"/><path d="M322.8,32.4L323,28.8L325.5,25L325.5,21.3L329.3,19.5L327.8,18.2L328.5,12.3L332.7,12.2L336.5,18.5L341.1,21.8L347.2,23L352.2,24.7L356,29.9L358.2,32.9L361.2,34L361.2,36L358.2,41.4L356.8,43.9L353.3,46.8L350.2,52.9L346.4,52.4L344.7,54.5L343.3,59.1L344.4,65L343.6,66L339.7,66L334.5,69.3L333.7,73.6L331.8,75.5L326.6,75.4L323.3,77.6L323.4,81.1L319.3,83.5L314.7,82.7L309.2,85.7L305.3,86.2L302.6,80.1L296.1,65.6L321.1,56.7L326.6,38.8ZM333.4,0L332.7,3.2L331.6,4.9L331.6,4.9L330,1.8L331.4,0L333.4,0Z" fill="#2c2c34" stroke="#474751" stroke-width="0.8"/><path d="M400,9.4L387,9.5L375.3,10.8L378.5,0.1L378.6,0L400,0Z" fill="#2c2c34" stroke="#474751" stroke-width="0.8"/><path d="M378.6,0L378.5,0.1L375.3,10.8L359.6,8L350.5,5.9L341.1,4.7L339.6,0L378.6,0Z" fill="#2c2c34" stroke="#474751" stroke-width="0.8"/><path d="M166.1,105.5L165.2,102L168.8,89.3L169.6,83.5L172.3,80.8L178.4,79.4L182.7,74.4L187.5,84.5L189.8,92.5L194.4,96.7L205.8,104.9L210.4,109.8L214.9,114.7L217.5,117.7L221.6,120.2L219.1,122.3L215.5,121.6L212.7,118.8L209.3,113.8L205.5,111L203.4,108.1L196.1,104.6L190.4,104.5L188.4,102.7L183.5,104.7L178.4,100.8L175.8,107.3Z" fill="#2c2c34" stroke="#474751" stroke-width="0.8"/><path d="M296.1,65.6L302.6,80.1L305.3,86.2L299.3,88.5L297.6,92.4L297.5,95.3L289.1,99L275.8,103L268.3,109.1L264.7,109.5L262.2,109L257.3,112.6L252,114.3L245,114.7L242.9,115.2L241,117.4L238.8,118.1L237.5,120.2L233.4,120.1L230.7,121.2L225,120.8L222.8,115.8L223.1,111.1L221.7,108.6L220.1,102.2L217.6,98.6L219.3,98.2L218.5,94.3L219.5,92.6L219.1,88.8L222.8,86L221.9,82.3L224.1,78L227.6,80.3L229.8,79.5L239.5,79.3L241,80.2L249,81.1L252.2,80.6L254.3,83.5L258.2,82.1L264.2,72.9L272,68.9Z" fill="#2c2c34" stroke="#474751" stroke-width="0.8"/><path d="M281,0L280.3,2.8L281.4,5.9L283.8,8.5L284.9,11.5L286.1,13.8L288.6,15.6L290.9,15L292.5,18.5L292.9,20.6L296.1,29.8L321.1,34.4L322.8,32.4L326.6,38.8L321.1,56.7L296.1,65.6L272,68.9L264.2,72.9L258.2,82.1L254.3,83.5L252.2,80.6L249,81.1L241,80.2L239.5,79.3L229.8,79.5L227.6,80.3L224.1,78L221.9,82.3L222.8,86L219.1,88.8L218,85.1L215.5,82.5L214.9,79L210.6,75.8L206.1,68.5L203.7,61.3L198,55.2L194.2,53.7L188.7,45.2L187.8,39L188.1,33.6L183.3,23.5L179.4,20L174.9,18.1L172.2,12.8L172.6,10.8L170.3,6L167.9,3.9L166,0L281,0Z" fill="#2c2c34" stroke="#474751" stroke-width="0.8"/><path d="M146.3,0L146.7,1L149.8,6L152.5,11.2L160,21.4L158.3,23L158.6,28.9L168.3,37L169.8,38.8L169.8,38.8L136.7,38.8L104.3,38.8L70.7,38.8L70.7,5.2L70.7,0L146.3,0Z" fill="#2c2c34" stroke="#474751" stroke-width="0.8"/><path d="M70.7,0L70.7,5.2L70.7,38.8L70.7,38.8L70.7,56.7L61.1,56.7L61,60.4L27.8,43.4L0,28.9L0,0Z" fill="#2c2c34" stroke="#474751" stroke-width="0.8"/><path d="M215.5,121.6L219.1,122.3L221.6,120.2L223.6,122.9L223.3,126.4L218.6,128.5L222.2,130.8L219.1,135.4L217.2,133.8L215.2,134.4L210.6,134.3L210.4,131.7L209.8,129.4L212.6,125.4Z" fill="#2c2c34" stroke="#474751" stroke-width="0.8"/><path d="M270.6,131.3L270.5,131.4L270.5,134.9L270.5,143.5L270.5,147.9L266.7,153.1L260.9,160.1L253.9,160.2L226.6,150.1L223.4,147.1L220.4,143L217.3,138.4L219.1,135.4L222.2,130.8L224.9,132.4L226.5,135.9L230.3,139.4L234.4,139.5L242.3,137.3L251.4,136.3L258.7,133.7L262.9,133.1L265.8,131.5Z" fill="#2c2c34" stroke="#474751" stroke-width="0.8"/><path d="M145,235L128,235.7L118.9,235.6L116,236.6L111,239.1L109,238.3L109,232L111,228.8L111.4,222.1L113.2,218.2L116.4,213.9L119.6,211.7L122.3,208.7L118.9,207.6L119.4,197.8L122.9,195.5L128.2,197.4L134.9,195.4L140.7,195.4L145.9,191.6L149.8,197.4L150.8,201.6L154.5,211.2L151.5,217.3L147.4,222.8L145,226.2Z" fill="#2c2c34" stroke="#474751" stroke-width="0.8"/><path d="M116,236.6L119.3,241.3L118.8,246.2L116.4,247.2L112,246.7L109.4,251.5L104.3,250.8L105.1,246.2L106.3,245.6L106.6,240.6L109,238.3L111,239.1Z" fill="#2c2c34" stroke="#474751" stroke-width="0.8"/><path d="M119.4,197.8L112.1,192.2L110.1,188.7L105.4,190.4L101.6,189.9L99.3,191.3L95.6,190.3L90.5,183.4L89.2,180.7L83,177.4L80.9,172.3L77.4,168.7L71.8,164.3L71.7,161.6L67.1,158.2L61.5,154.9L64,154L66.9,152.4L69,144.8L71.3,140.9L77.3,139.7L78.8,142.1L83.1,147L85.4,147.7L88.4,146.3L94.4,146.6L95.5,148.3L103.9,148.3L104.1,146.6L108.4,145L109.3,142.5L112.4,140.8L119.4,145.7L123.8,144.8L127.9,138.7L132.5,134.1L131.8,128.9L129.8,126.4L134.8,126L135.4,124.1L139.2,124.7L138.2,131L139.2,137.1L143.5,140.5L144.5,143.4L144.4,147.6L145.6,147.8L145.6,154.3L144.4,156.9L140,157.1L137.1,161.9L142.2,162.5L146.5,166.6L147.9,170L151.7,171.9L156.7,181.1L151,186.6L145.9,191.6L140.7,195.4L134.9,195.4L128.2,197.4L122.9,195.5Z" fill="#2c2c34" stroke="#474751" stroke-width="0.8"/><path d="M156.4,181.2L156.3,181L155.6,180.4L154.9,179.7L154.4,178.8L154.1,178.1L153.8,176.6L153.3,175.6L152.9,174.4L152.1,172.2L151.8,171.4L151.2,170.9L150.5,170.4L149.9,169.4L148.2,168.5L147.5,167.8L146.4,166.6L146.1,166L146,165.4L145.7,164.9L145,164.3L143.1,162.9L142.5,162.7L141.8,162.6L140.8,162.4L139.4,162.1L138.2,161.6L137.6,161.2L137.5,161L137.6,160.5L138,159.8L138.9,158L139.5,156.8L139.8,156.4L140.9,156.3L142.1,156.4L142.9,156.5L144,156.5L145.5,156.4L146,156L146.5,155.5L146.6,155.2L146.7,154.4L146.7,153.8L146.6,151.3L146.5,149.8L146.5,148.1L146.5,147.8L146.5,147.3L146.8,145.5L147.2,144.5L147.4,143.9L148.3,142.2L148.4,141.6L148.5,141.1L148.1,138.8L148.7,137.6L149.5,136.5L150.1,136.1L150.6,135.8L150.9,135.9L151.5,136.4L152.3,136.9L152.7,136.8L153.2,136.3L153.6,135.9L153.6,135.1L153.9,133.4L153.9,132.4L154.3,131.2L154.7,129.5L154.9,128.4L155.1,127.8L156.3,126.6L157.3,124.9L158,123.7L159.2,121.6L159.8,120.9L160.3,120.6L161.1,120.4L162.4,120.2L163.4,120L163.6,119.8L163.7,119.3L163.7,118.4L163.9,116.9L164.3,115.4L164.8,114.2L165.1,113.7L165.4,113.2L165.8,112.3L166.3,110.5L166.2,109.2L166.9,106.9L167.1,106.9L168.2,106.5L169.3,106.4L170.4,106.7L171.1,106.8L171.4,106.6L171.7,106.2L172,105.6L172.4,105.3L173,105.2L173.8,105.9L175.1,107.8L175.4,107.9L175.7,107.8L176.3,106.3L176.8,105.2L177.7,103L178.3,101.8L178.7,102.1L179.3,102.7L179.8,103L180.4,103.2L180.7,103.3L181.1,103.5L182.4,105L182.8,105.4L183.4,105.4L186,104.9L187.5,104L187.8,103.7L188.2,103.7L188.7,104.1L188.9,104.5L189.2,105L189.8,105L191.3,104.7L192,104.5L192.6,104.7L193.4,104.8L193.9,104.8L195,105.3L196.4,105.1L197.1,105.2L197.8,105.4L198.9,106.2L200.3,107.2L202.3,107.9L202.7,108.1L203.7,109.2L205.3,111.4L207.3,113.4L209.5,115L210.6,116.1L211.4,117.5L212.2,118.7L213,119.2L213.7,119.6L214.5,120.6L215,121.3L215.8,122.2L214.9,123.5L213.8,125.1L212.6,127L212.2,127.4L211.1,128.6L210.9,128.9L210.6,129.7L210.6,131.2L210.8,133.1L210.9,134.9L211.6,135.1L212.2,135.2L213.1,135L214,134.8L215.2,134.7L216.5,134.3L217.3,134L218.1,134.1L218.8,134.4L219.2,134.7L219.7,134.8L220.3,134.7L220.2,135.1L219.8,135.6L219.4,136.1L219,136.6L218.1,138L218.1,138.1L218.2,138.4L218.6,139.1L219.2,140.1L219.4,141L219.6,141.5L220.2,142L221.1,143.1L221.5,143.9L222.5,144.2L222.8,145.2L223.5,146.5L224.2,147.6L225,148.5L225.8,148.8L226.1,148.8L227.8,150.4L229.2,151.6L229.5,151.8L231.9,152.6L234.6,153.5L236.8,154.2L239.5,155.1L242.3,156.1L244.8,156.9L248.4,158.1L251.4,159.1L253.7,159.9L254.1,160.2L256.9,160.2L259.6,160.2L262.5,160.2L260.4,162.2L258.1,164.4L255.7,166.8L254.1,168.3L251.6,170.7L249.5,172.8L247.4,175L245.4,177L242.9,179.7L241.3,181.5L238.7,184.3L237.1,186.1L236.9,186.2L234.6,186L232.4,185.9L229.5,185.7L229.2,185.7L228.4,185.9L227.9,186.1L225.8,186.5L225.4,186.7L223.7,187.4L222,188.3L221.1,189L220.4,190L220.1,190.7L219.8,191L219.2,191.3L215.6,191.9L214.5,192L212.8,192.5L211.9,193.4L211.6,193.9L210.4,193.9L208.3,194L207.4,194.1L206.9,194.2L206.1,194.2L205.4,194L205,193.8L204.4,193.2L203.2,192.1L202.3,191.4L200.3,192.2L198.5,193L196,194.1L194.6,194.9L194.2,195.8L193,197.2L192.1,198.1L191.7,198.2L189.4,198L188.6,197.9L187.3,197.7L185.5,197.4L184.3,197L183,197L181.1,196.9L179.9,196.6L178.8,195.8L177.2,194.8L175.7,193.8L174.1,192.8L172.2,191.6L170.1,190.2L169.6,190.1L169.4,190.1L167.2,190L164.8,190L163.2,189.9L162.7,189.8L162.3,189.5L161.9,188.5L161.3,187.8L160.6,186.9L160.5,185.7L160.7,184.4L160.9,184L160.8,183.6L160.8,183L160.4,182.4L158.1,181.8L157.7,181.9L157.4,182.1L156.9,182.3L156.6,182.1L156.4,181.9L156.4,181.5Z" fill="#b8e653" stroke="#0c0e06" stroke-width="1"/></svg>
