<svg xmlns="http://www.w3.org/2000/svg" viewBox="0 0 300 300"><path fill="#e8e8ea" d="M129.6,140.5L128.5,135.7L127.9,133.9L127,131.6L125.3,130.5L125,129.8L124.8,128.8L124.7,127.5L124.5,125.5L124.6,123.8L124.8,122.8L125.5,122.2L126.5,120.3L126.7,118.9L126.8,116.8L127.3,114.9L127.8,114L127.7,113.3L127.3,112.2L126.6,110.7L125.4,108.8L124.5,107L124.2,105.3L123.9,103.9L124,102.5L124.3,101.6L125.4,100.4L125.6,99.9L125.1,97.3L124.4,96.8L123.1,96.6L122.3,96.6L122.2,96.3L122.1,95.8L122.3,94.7L122.7,93.5L123,92.7L123.1,92L122.6,89.7L122.5,86.9L122.7,84.7L124.1,83.1L124.1,82.5L122.4,80.7L121.1,78.7L120.7,77.5L119.3,77.3L118.4,73.9L117.1,72.2L115.8,70.7L115,70L110.6,67.9L108.8,67.5L106.7,66.3L105.2,64.7L103.8,63.7L102.7,62.5L101.1,61.3L100.6,60.4L98.9,58.5L98.1,57.3L95.3,55L95.2,54.1L95.2,53.2L95.1,52.9L92.2,51.2L92.7,50.2L95,50.2L96.8,51L97.3,50.7L97.5,49.8L96.7,46.7L96.8,45.9L97.7,44.9L99,44.1L101,44L102.5,44.1L102.7,44.2L104.8,47.7L106.7,51L107.6,52.5L109.9,56.5L110.8,58.9L111.1,60.5L112.1,60.5L115.4,61.2L118.1,61.8L118.9,62.8L120.8,62.6L122.3,61.7L124.9,60.7L125.5,59.4L126.4,58L127.9,58.2L129.6,59.3L131.5,60.7L133.1,61.4L135.4,62.5L136.5,63.8L137.9,64.2L139.5,62.9L140.4,59.2L141.2,57.5L142.3,56.3L143.6,55.8L144.7,55.6L145.4,54.6L146.5,52.6L146.7,50L146.5,45.4L146.7,43.8L147.6,41.3L148.7,34.6L149.3,32.7L149.9,31.5L150.8,30.8L152.4,28.7L154.7,24.6L155.3,24.2L157,24L159,24.2L160.9,24.9L161.1,24.9L161.9,24.5L163.4,23.2L166,20.7L167.7,20L169.2,20.1L170.8,22.9L173.2,26L174.7,27.5L178.8,30.3L182.4,32.1L184.5,38.1L183.5,40.5L183,41.3L181.2,43.7L179.3,47L179.2,48.7L179.8,50.5L180.6,51.6L179.9,52L177.7,53.4L176.3,54.4L174.7,55.1L175.1,56L177.8,56.2L178.2,56.5L178.5,57L178.6,57.7L178.3,59L175.4,65.8L175.3,67.2L176.3,71.2L177.6,75.8L181.6,77.8L184.6,79.4L186.5,83.2L189.6,88.1L191.3,89.9L191.4,90.5L190.9,93.9L188.9,97.2L187,100L185.1,103.4L183.5,106.2L181.9,109.7L181.7,110.8L181.6,111.8L181.9,113L184,117.1L184.9,119.2L185.9,121.4L186.7,123.9L187.2,126.1L188,128.2L188.6,129.3L189.5,130.8L190.5,133.1L190.9,134.9L192.5,141L192.6,142.6L192.5,143.7L191.9,144L190.3,144.2L188.6,145L188.5,145.2L189.6,146.6L188.7,149L188.5,152.5L187.5,154.3L187.4,154.8L187.4,155.1L187.6,155.4L189.5,155.9L189.7,156.4L189.7,157.4L189.5,158.3L188.6,159L187.5,160L187.3,161L187.4,161.8L187.7,163.3L188.4,164.9L189.3,165.9L192.3,166.9L192.7,167.7L192.9,168.8L192.8,169.9L191.4,172L191.4,172.9L192,174.9L192.7,176.7L195.7,178.8L196.7,179.9L197,180.8L197.1,182.2L197.1,183.8L196.9,185.2L195.9,186.9L193.8,190.4L191.6,191.8L191.4,192L192.1,193.1L196,197.6L198.5,199.6L201.9,202.4L204.1,204.5L204.8,206.1L205.7,207.8L206.8,209.3L207.5,210.5L207.8,211.2L207.8,212.1L206.8,214.6L206.2,216.6L205.2,219.4L204.1,221.4L201.5,225L197.5,229.5L196.6,230.8L194.8,233.2L191.7,237.8L190.8,238.8L188.3,242.6L187.1,243.7L186.2,244.8L183.6,248.3L180.9,250.9L178.2,253.3L177.4,254.5L176.4,255.5L175.2,256.3L174.7,256.9L171.9,260.1L168.2,264.6L167.8,264.7L166.8,265.5L165.3,265.7L164.7,266.2L162.3,264.6L161.9,264.5L160.5,264.9L159.2,266.1L156.8,266.4L155.6,266.8L154.8,267.3L154.7,266.1L155,264.5L155.5,263.4L155.6,262.7L155.2,262.7L154.4,264.3L154,266.1L153.2,267.1L151.3,267.4L149.5,266L148.7,266L149.2,267L149.6,268.2L149.5,268.8L148.6,268.7L147.5,269.4L146.6,270.4L146.1,270.4L145.5,269L144.4,269.7L143.4,270.6L141.4,270.8L140.2,272L138.1,272.8L137,272.8L134.3,273.7L133.4,275.2L132.7,275.7L131.6,275.2L128.2,275.9L125,276.8L123.6,276.8L122.3,276.4L120.8,277.7L119.3,279.4L117.6,280L117,279.8L117.5,278.9L118.6,278L119.4,276.7L119.4,275.7L118.9,275.2L118.2,275.1L117.3,274L116.4,271.6L115.9,271.5L115.7,272.2L115.4,274L115.2,274.5L114.7,274.9L114.1,275.3L113.6,275.5L111.7,275.5L111.4,274.6L111.4,274.2L111.7,273L111.5,272.8L111.7,271.8L112.2,271.9L112.7,271.8L113,271.3L113,270.7L112.2,270.5L112.2,270.1L112.9,268.5L112.9,268L112.7,267.9L112.3,268.1L109.5,267.6L106,265.4L105.2,265.3L104.7,263.4L103.9,263.6L102.6,264.8L101.7,263.9L100.8,263.4L100.5,262.5L100.5,261.2L100.4,259.7L100.2,257.9L100,255.3L100.2,253.3L100.9,251.8L101.2,250.9L101.6,248.4L101.7,245.6L101.5,244.6L101.5,243.9L102.1,243.9L102,243.4L101.7,243.1L101.4,242.4L101.7,242.1L102.4,242.1L102.5,241.8L102.6,241.5L102,239.9L101.9,239L101.1,236.6L100.2,234.3L98.9,232.6L99.4,229.8L99.9,227.3L99.8,226.1L99.6,224.6L97.9,223L97.6,220.7L97.3,218.2L97.4,216.6L97.7,215.5L98.2,214.3L101,210.6L101.2,208.6L103.1,208.5L102.2,206.8L102,205.8L101.9,204.6L104.6,203.8L105.7,204.5L108,203.7L110.1,202.1L110.1,201.3L109.8,200.6L109.3,199.1L109.6,198.7L110.4,199L110,198.3L110.1,197.6L111,197.8L112.3,195.7L112.4,194.1L114.8,193.3L117.5,190L118.7,188.9L120,188.2L122.6,184.8L123.7,184.7L124.3,182.4L126.5,179.4L127.1,179L128.2,176.3L130.9,173.1L132.6,169L133.6,167.6L133.9,166L134.9,165.9L135.9,164.7L137.9,163.9L140,164.2L140.8,164.7L141.6,164.5L141.5,163.1L141,162.3L141.4,161.4L142.5,160.8L142.4,159.4L142.1,158.5L141.3,157.5L141.7,154.9L141.8,152.1L142.2,148.9L141.1,147.2L136.8,144.3L136,144.4L135.1,144L134.1,141.8L134.5,139.8L134.6,139.1L134.2,139.2L133.6,140.1L132.2,141.1L130.5,140.3Z"/></svg>
