<svg xmlns="http://www.w3.org/2000/svg" viewBox="0 0 400 300"><path d="M307.7,300L309.4,296.4L313.5,300L307.7,300ZM314.8,300L315.3,295.2L325.8,286.4L333.8,286.2L345,291.8L351,295.1L356.4,291.7L364.5,291.5L371,295.7L372.5,293.3L379.7,293.7L380.9,289.8L372.7,284.2L377.6,280.1L376.6,277.8L381.5,275.7L377.8,269.8L380.2,266.9L399.2,263.8L400,263.2L400,300Z" fill="#2c2c34" stroke="#474751" stroke-width="0.8"/><path d="M182.9,264.1L173.6,264.2L167.3,263.2L168.4,259.3L175.5,256.5L180.8,258L183.1,259.4L182.5,261.8ZM379.2,0L365.1,16.5L357.5,34.3L349.5,50.9L350.5,64.6L360.3,77.5L357.3,78.9L340.6,76.9L339.3,69.9L330.1,65.7L329.3,56.9L334.5,53.3L334.3,44.1L344.5,29L339.8,26.8L339.8,26.8L352,10.4L350.6,1.6L352.3,0L379.2,0ZM400,263.2L399.2,263.8L380.2,266.9L377.8,269.8L381.5,275.7L376.6,277.8L377.6,280.1L372.7,284.2L380.9,289.8L379.7,293.7L372.5,293.3L371,295.7L364.5,291.5L356.4,291.7L351,295.1L345,291.8L333.8,286.2L325.8,286.4L315.3,295.2L314.8,300L313.5,300L313.5,300L309.4,296.4L307.7,300L260.2,300L260.2,300L257.6,297L253.7,298.3L247.3,295.5L247.4,293.9L245.6,290.4L241.5,290L241.1,287.4L242.4,285.8L239.1,281.1L233.8,281.9L232.3,281.5L231,283.3L229.1,283L227.8,277.7L226.6,274.9L227.6,274.1L231.7,274.4L233.7,272.5L232.2,270.2L228.8,268.7L229.1,267.1L227,265.6L223.8,259.8L224.9,257.4L224.4,253.2L219.4,251.1L216.8,252.1L216.1,249.9L210.7,247.6L209,242.2L208.6,237.6L206.1,235.4L208.3,232.4L206.8,223.4L210.5,217.7L209.7,215.9L215.5,210.3L210.1,205.5L221,192L225.8,185.7L227.7,180.1L220.2,172.3L222.2,164.8L217.6,155.9L221.1,145.4L215.2,131L219.9,121L212.1,111.9L212.8,102.1L216.9,100.8L225.6,95L230.8,89.8L239.2,98.7L253.2,102.1L272.4,117.8L276.3,124.2L276.7,132.9L271,139.7L262.7,143L239.9,133.3L236.2,135L244.5,144.3L244.8,150L245.2,162.3L251.7,165.9L255.7,168.9L256.4,163.2L253.3,158.1L256.5,153.6L268.9,161L273.1,158.1L269.7,149.3L281.6,137L286.3,137.7L291.1,142.1L294,133.4L289.8,125.6L292.3,117.6L288.5,109L302.8,113.5L305.7,121.1L299.2,122.8L299.3,130.1L303.3,134.5L311.2,131.7L312.4,123.4L323,116.9L340.8,105L344.7,105.7L339.7,114.2L346,115.6L349.6,110.9L359.2,110.5L366.7,104.7L372.6,113.1L378.3,103.9L373,95.5L375.7,90.7L390.7,95.1L397.8,99.7L400,101.6L400,263.2Z" fill="#2c2c34" stroke="#474751" stroke-width="0.8"/><path d="M225.6,95L216.9,100.8L212.8,102.1L215,91.9L208.4,86L200.5,91L198,101.7L193.1,108L187.7,104.6L181,105.2L175.4,97.7L172.3,101.5L169.1,102.1L168.4,111.3L158.8,109.1L157.4,116.8L152.5,116.7L149.2,126.3L144.1,140.6L136.2,157.9L138,161.9L136.3,166.6L131.2,166.4L127.9,177.1L128.2,191.8L131.5,197.2L129.8,209.4L125.5,216.4L123.3,222.1L119.9,216L109.8,227.4L103,229.7L96,224.7L94.1,214L92.5,189.9L97.2,182.9L110.7,173.4L120.7,161.5L130.1,144.5L142.3,119.5L150.9,109.2L164.9,91.2L176,84.6L184.4,85.4L192.2,72.7L201.5,73.4L210.6,70.3L226.6,81.6L220,85.7Z" fill="#2c2c34" stroke="#474751" stroke-width="0.8"/><path d="M72.1,300L73.9,299L75.5,292.5L79.9,290.8L80.6,293.7L83,293.8L85.4,297L88.2,300L72.1,300Z" fill="#2c2c34" stroke="#474751" stroke-width="0.8"/><path d="M123.3,222.1L125.5,216.4L129.8,209.4L131.5,197.2L128.2,191.8L127.9,177.1L131.2,166.4L136.3,166.6L138,161.9L136.2,157.9L144.1,140.6L149.2,126.3L152.5,116.7L157.4,116.8L158.8,109.1L168.4,111.3L169.1,102.1L172.3,101.5L179.1,108.4L187,117.8L187.2,138L188.9,142.9L180.1,146.5L175.2,155L176,162.3L167.9,171.6L158,181.4L154.3,196.7L158,204.1L162.8,209.8L158.2,221.1L152.9,223.4L150.9,239.5L148,248.2L141.8,247.3L138.9,254.5L133.1,254.9L131.4,246.3L127.2,235.7Z" fill="#2c2c34" stroke="#474751" stroke-width="0.8"/><path d="M210.7,247.6L216.1,249.9L216.8,252.1L219.4,251.1L224.4,253.2L224.9,257.4L223.8,259.8L227,265.6L229.1,267.1L228.8,268.7L232.2,270.2L233.7,272.5L231.7,274.4L227.6,274.1L226.6,274.9L227.8,277.7L229.1,283L224.7,283.5L223.1,285.3L222.8,289.5L220.8,288.7L216.2,289.1L214.8,287.1L212.9,288.6L211,287.4L207,287.2L201.3,285.2L196.2,284.6L192.2,284.8L189.4,287L187,287.3L186.9,283.7L185.3,279.8L188.4,278.1L188.4,274.7L187,271.5L186.8,267.7L191.7,267.7L197.2,264.5L198.4,259.5L202.6,256.7L202.1,252.6L205.2,251.1Z" fill="#2c2c34" stroke="#474751" stroke-width="0.8"/><path d="M184.8,300L186.5,297.6L189,296.7L189.5,294.4L187,287.3L189.4,287L192.2,284.8L196.2,284.6L201.3,285.2L207,287.2L211,287.4L212.9,288.6L214.8,287.1L216.2,289.1L220.8,288.7L222.8,289.5L223.1,285.3L224.7,283.5L229.1,283L229.1,283L231,283.3L232.3,281.5L233.8,281.9L239.1,281.1L242.4,285.8L241.1,287.4L241.5,290L245.6,290.4L247.4,293.9L247.3,295.5L253.7,298.3L257.6,297L260.2,300L184.8,300Z" fill="#2c2c34" stroke="#474751" stroke-width="0.8"/><path d="M159.7,300L157,299.7L156.6,297.2L153.1,296.3L152.3,298.3L149.5,296.7L149.8,294.5L146,293.8L143.6,291.2L141.5,286L141.9,283.1L140.7,278.6L138.8,275.6L140.2,273.4L139.1,269L142.5,266.5L150.5,262.4L156.9,259.5L162,261L162.4,263.1L167.3,263.2L173.6,264.2L182.9,264.1L185.5,265L186.8,267.7L186.8,267.7L187,271.5L188.4,274.7L188.4,278.1L185.3,279.8L186.9,283.7L187,287.3L189.5,294.4L189,296.7L186.5,297.6L184.8,300L159.7,300Z" fill="#2c2c34" stroke="#474751" stroke-width="0.8"/><path d="M202.1,252.6L202.6,256.7L198.4,259.5L197.2,264.5L191.7,267.7L186.8,267.7L185.5,265L182.9,264.1L182.5,261.8L183.1,259.4L180.8,258L175.5,256.5L174.4,248.9L180.2,246.1L188.8,246.7L193.8,245.7L194.5,247.6L197.2,248.2Z" fill="#2c2c34" stroke="#474751" stroke-width="0.8"/><path d="M206.1,235.4L208.6,237.6L209,242.2L210.7,247.6L205.2,251.1L202.1,252.6L197.2,248.2L194.5,247.6L193.8,245.7L188.8,246.7L180.2,246.1L174.4,248.9L174.6,241.9L177.1,236L181.9,232.8L185.9,239.9L190,239.7L191,232.4L195.3,230.7L197.6,231.9L201.9,235.4Z" fill="#2c2c34" stroke="#474751" stroke-width="0.8"/><path d="M209.7,215.9L210.5,217.7L206.8,223.4L208.3,232.4L206.1,235.4L201.9,235.4L197.6,231.9L195.3,230.7L191,232.4L191.6,226.7L189.7,228L186.5,224.5L186,218.8L192.5,216L198.9,214.6L204.4,216.2Z" fill="#2c2c34" stroke="#474751" stroke-width="0.8"/><path d="M98.4,300L97.9,299L98.5,293.6L97.6,285.1L100.7,285.1L102,282L103.2,274.3L102.3,271.4L103.3,269.6L107.5,269.1L108.5,271L111.9,266.7L110.8,263.5L110.5,258.5L114.4,259.6L117.7,258.3L117.7,261.7L122.9,263.8L122.8,266.8L128,265.2L130.9,262.8L136.6,266.3L139.1,269L139.1,269L140.2,273.4L138.8,275.6L140.7,278.6L141.9,283.1L141.5,286L143.6,291.2L141.4,292L140,291.1L138.7,292.6L135.1,294.2L133.2,296.2L129.5,297.9L130.2,300L98.4,300Z" fill="#2c2c34" stroke="#474751" stroke-width="0.8"/><path d="M96.5,300L96.6,299.3L97.9,299L97.9,299L98.4,300L96.5,300Z" fill="#2c2c34" stroke="#474751" stroke-width="0.8"/><path d="M88.2,300L85.4,297L83,293.8L80.6,293.7L79.9,290.8L84,289.2L87.7,289.9L92.4,288.2L95.7,291.7L98.5,293.6L98.5,293.6L97.9,299L96.6,299.3L96.5,300L88.2,300Z" fill="#2c2c34" stroke="#474751" stroke-width="0.8"/><path d="M102.3,271.4L103.2,274.3L102,282L100.7,285.1L97.6,285.1L98.5,293.6L95.7,291.7L92.4,288.2L87.7,289.9L84,289.2L86.6,287L91.1,274.7L98.1,271.1Z" fill="#2c2c34" stroke="#474751" stroke-width="0.8"/><path d="M35.5,268.1L36.4,274.2L32.5,281.7L23.5,286.6L16.3,285.3L20.4,276.6L17.7,267.9L24.7,261.1L28.5,257L29.6,261.7L28.5,266.4L31.7,266.3Z" fill="#2c2c34" stroke="#474751" stroke-width="0.8"/><path d="M117.7,258.3L114.4,259.6L110.5,258.5L108.5,253.5L108.3,244.2L109.2,241.7L110.6,238.9L115.1,238.3L116.9,235.7L121,233L120.8,237.9L119.3,240.9L119.9,243.5L122.7,244.9L121.5,248.4L119.9,247.4L116.3,253.9ZM130.1,248.1L131.8,252.7L128.7,259.9L123.4,254.9L122.7,251.1Z" fill="#2c2c34" stroke="#474751" stroke-width="0.8"/><path d="M35.5,268.1L31.7,266.3L28.5,266.4L29.6,261.7L28.5,257L32.8,256.6L38.2,262.1ZM39.7,300L37.7,298.8L45.1,290.3L49.7,288.6L49.7,288.6L41.7,287.2L40.2,283.9L45.6,281.4L42.8,276.8L43.8,271.3L51.3,272.1L51.3,272.1L51.3,272.1L52.1,267.1L48.7,261.7L48.6,261.6L42.4,260L41.2,257.6L43.1,253.6L41.4,251.1L38.6,255.4L38.3,246.6L35.8,241.9L37.6,232.2L41.6,224.3L45.6,225.1L51.8,224.3L46.3,234.7L51.5,233.4L57.1,233.4L55.8,241.1L51.2,249.4L56.5,250L56.9,250.9L61.4,261.5L64.9,262.9L68,272.7L69.5,276.1L75.7,277.7L75,283L72.4,285.5L74.5,289.7L69.9,293.9L63.1,293.9L54.4,296.1L52,294.5L48.7,298.2L44,297.3L40.8,300L39.7,300Z" fill="#2c2c34" stroke="#474751" stroke-width="0.8"/><path d="M130.2,300L129.5,297.9L133.2,296.2L135.1,294.2L138.7,292.6L140,291.1L141.4,292L143.6,291.2L143.6,291.2L146,293.8L149.8,294.5L149.5,296.7L152.3,298.3L153.1,296.3L156.6,297.2L157,299.7L159.7,300L130.2,300Z" fill="#2c2c34" stroke="#474751" stroke-width="0.8"/><path d="M190.2,145.4L189.7,143.1L189.4,142.3L188.9,141.2L188.1,140.6L188,140.3L187.9,139.8L187.8,139.2L187.7,138.2L187.8,137.4L187.9,136.9L188.2,136.6L188.7,135.7L188.8,135L188.9,134L189.1,133.1L189.3,132.7L189.3,132.3L189.1,131.8L188.7,131.1L188.2,130.2L187.7,129.4L187.6,128.5L187.5,127.8L187.5,127.2L187.7,126.7L188.2,126.2L188.3,125.9L188,124.7L187.7,124.4L187,124.3L186.7,124.3L186.6,124.2L186.6,123.9L186.7,123.4L186.9,122.8L187,122.4L187.1,122.1L186.8,121L186.8,119.7L186.9,118.6L187.5,117.8L187.6,117.5L186.7,116.7L186.1,115.7L185.9,115.1L185.2,115L184.8,113.4L184.2,112.6L183.6,111.9L183.2,111.6L181,110.5L180.2,110.4L179.2,109.8L178.4,109L177.8,108.5L177.3,107.9L176.5,107.4L176.3,106.9L175.4,106L175.1,105.4L173.7,104.3L173.6,103.9L173.6,103.5L173.6,103.3L172.2,102.5L172.5,102L173.5,102L174.4,102.4L174.6,102.2L174.8,101.8L174.4,100.3L174.4,100L174.8,99.5L175.5,99.1L176.5,99L177.1,99.1L177.3,99.1L178.3,100.8L179.2,102.4L179.6,103.1L180.7,105.1L181.2,106.2L181.3,107L181.8,107L183.3,107.3L184.7,107.6L185,108.1L185.9,108L186.7,107.6L187.9,107.1L188.2,106.4L188.7,105.8L189.4,105.9L190.2,106.4L191.1,107.1L191.9,107.4L193,107.9L193.5,108.6L194.2,108.7L194.9,108.1L195.4,106.3L195.8,105.5L196.3,105L196.9,104.7L197.4,104.6L197.8,104.1L198.3,103.2L198.4,101.9L198.3,99.7L198.4,99L198.8,97.8L199.4,94.5L199.7,93.6L200,93L200.4,92.7L201.2,91.7L202.3,89.7L202.6,89.5L203.4,89.4L204.3,89.5L205.2,89.9L205.3,89.9L205.7,89.7L206.5,89.1L207.7,87.8L208.5,87.5L209.2,87.5L210,88.9L211.2,90.4L211.9,91.1L213.9,92.4L215.6,93.3L216.6,96.2L216.1,97.4L215.9,97.8L215,98.9L214.1,100.5L214,101.3L214.3,102.1L214.7,102.7L214.4,102.9L213.3,103.6L212.7,104L211.9,104.4L212.1,104.8L213.4,104.9L213.6,105.1L213.7,105.3L213.7,105.6L213.6,106.3L212.2,109.5L212.2,110.2L212.6,112.1L213.3,114.3L215.2,115.3L216.6,116.1L217.6,117.9L219.1,120.3L219.9,121.1L219.9,121.4L219.7,123L218.7,124.6L217.8,126L216.9,127.6L216.1,129L215.3,130.6L215.2,131.1L215.2,131.6L215.4,132.2L216.4,134.2L216.8,135.2L217.2,136.3L217.6,137.5L217.9,138.5L218.3,139.5L218.5,140.1L219,140.8L219.5,141.9L219.6,142.7L220.4,145.7L220.5,146.4L220.5,147L220.1,147.1L219.4,147.2L218.6,147.6L218.5,147.7L219.1,148.4L218.6,149.5L218.5,151.2L218,152.1L218,152.3L218,152.5L218.1,152.6L219,152.8L219.1,153.1L219.1,153.5L219,154L218.5,154.3L218.1,154.8L217.9,155.3L218,155.7L218.1,156.4L218.5,157.2L218.9,157.7L220.3,158.1L220.5,158.5L220.6,159.1L220.6,159.6L219.9,160.6L219.9,161L220.2,162L220.5,162.9L222,163.8L222.5,164.4L222.6,164.8L222.7,165.5L222.7,166.3L222.5,166.9L222.1,167.7L221,169.4L220,170.1L219.9,170.2L220.3,170.7L222.1,172.9L223.3,173.9L225,175.2L226,176.2L226.3,177L226.8,177.8L227.3,178.5L227.7,179.1L227.8,179.4L227.8,179.8L227.3,181.1L227,182L226.5,183.4L226,184.3L224.7,186.1L222.9,188.2L222.4,188.9L221.5,190L220,192.2L219.6,192.7L218.4,194.5L217.8,195.1L217.4,195.6L216.2,197.2L214.8,198.5L213.5,199.7L213.2,200.3L212.7,200.7L212.1,201.1L211.9,201.4L210.5,203L208.8,205.1L208.6,205.2L208.1,205.5L207.4,205.6L207,205.9L205.9,205.1L205.7,205L205.1,205.2L204.4,205.8L203.3,206L202.7,206.1L202.3,206.4L202.2,205.8L202.4,205L202.7,204.5L202.7,204.2L202.5,204.2L202.1,205L201.9,205.8L201.5,206.3L200.6,206.5L199.8,205.8L199.4,205.8L199.6,206.3L199.8,206.8L199.8,207.1L199.3,207.1L198.8,207.4L198.3,207.9L198.1,207.9L197.8,207.2L197.3,207.5L196.8,208L195.9,208.1L195.3,208.6L194.3,209L193.7,209L192.5,209.5L192,210.2L191.7,210.4L191.1,210.2L189.5,210.5L188,211L187.3,211L186.7,210.8L186,211.4L185.2,212.2L184.4,212.5L184.1,212.4L184.4,212L184.9,211.5L185.3,210.9L185.3,210.4L185.1,210.2L184.7,210.2L184.3,209.6L183.9,208.5L183.6,208.4L183.5,208.7L183.4,209.6L183.3,209.9L183,210L182.8,210.3L182.5,210.3L181.6,210.3L181.4,209.9L181.4,209.7L181.6,209.1L181.5,209L181.6,208.6L181.8,208.6L182.1,208.5L182.2,208.3L182.2,208L181.8,207.9L181.8,207.8L182.2,206.9L182.2,206.7L182.1,206.7L181.9,206.8L180.5,206.5L178.9,205.5L178.5,205.4L178.2,204.5L177.8,204.6L177.2,205.2L176.8,204.8L176.3,204.5L176.2,204.1L176.2,203.5L176.2,202.7L176,201.9L175.9,200.6L176,199.7L176.4,198.9L176.6,198.5L176.7,197.3L176.8,195.9L176.7,195.5L176.7,195.2L177,195.2L176.9,194.9L176.8,194.7L176.6,194.4L176.8,194.3L177.1,194.3L177.2,194.1L177.2,194L176.9,193.2L176.9,192.8L176.5,191.6L176.1,190.5L175.4,189.7L175.7,188.4L175.9,187.2L175.9,186.6L175.8,185.9L175,185.1L174.8,184L174.6,182.8L174.7,182L174.8,181.5L175.1,180.9L176.4,179.1L176.5,178.2L177.4,178.1L177,177.3L176.9,176.8L176.9,176.3L178.2,175.9L178.7,176.2L179.8,175.8L180.8,175.1L180.8,174.7L180.7,174.3L180.4,173.6L180.6,173.4L181,173.6L180.8,173.2L180.8,172.9L181.2,173L181.9,172L181.9,171.2L183.1,170.8L184.4,169.2L185,168.7L185.6,168.4L186.8,166.7L187.4,166.7L187.6,165.6L188.7,164.1L189,163.9L189.5,162.6L190.8,161.1L191.6,159.1L192.1,158.5L192.2,157.7L192.8,157.6L193.2,157.1L194.2,156.7L195.2,156.8L195.6,157.1L196,157L195.9,156.3L195.7,155.9L195.9,155.5L196.4,155.2L196.3,154.5L196.2,154.1L195.8,153.6L196,152.4L196.1,151L196.3,149.5L195.7,148.6L193.7,147.3L193.3,147.3L192.8,147.1L192.4,146L192.6,145.1L192.6,144.8L192.4,144.8L192.1,145.2L191.5,145.7L190.6,145.4ZM179.2,207.2L178.8,207.2L178.3,206.7L178.2,206.5L178.4,206.4L178.3,206L178.3,205.8L178.7,206.1L179,206.5L178.7,206.6L179.1,207ZM175.2,175.8L175.3,176.1L175.6,176L176,175.6L176.3,175.8L176.2,176.3L176,176.3L176,176.2L175.7,176.6L175.7,176.7L175.4,176.9L174.9,176.3L174.5,175.4L175.3,175.4L175.2,175.6ZM180.1,206.8L180.7,207.1L181,207L181.3,207.5L180.8,207.9L180.8,208.3L181,208.6L181,208.9L180.5,208.9L180.3,208.6L180.2,208.2L179.9,207.9L179.6,207.7L179.8,207.4L179.9,207ZM176.4,205.2L176.3,205.7L176,205.6L175.6,205.7L175.4,205.2L175.2,204.4L175.3,204.3L175.5,204.1L175.6,204.5ZM178.4,209.2L177.8,209.5L177.7,209.5L177.7,208.9L178,208.6L178.5,208.6ZM177.3,209.5L176.9,209.6L176.6,209.3L176.7,209.1L177,208.9L177.3,208.9L177.4,209.2ZM193.7,155.4L193,155.8L192.4,155.6L192.3,154.8L192.7,154.4L193.4,154.3L194.4,154.6L194.5,154.8L193.9,155Z" fill="#b8e653" stroke="#0c0e06" stroke-width="1"/></svg>
