<svg xmlns="http://www.w3.org/2000/svg" viewBox="0 0 300 300"><path fill="#e8e8ea" d="M524.8,-161.3L497,-135.8L487.1,-122.8L478.5,-108.2L454.7,-92.5L444.7,-71.6L445.4,-50.6L469.2,-72.6L495.7,-90.5L503.6,-94.2L512.2,-94.2L511.6,-87.9L507.6,-81.9L504.3,-65.9L511.6,-50.9L491.7,-52.6L472.5,-51.2L449.4,-42.9L426.9,-39.2L418.3,-38.9L409.7,-41.9L404.4,-46.2L400.4,-55.9L396.4,-57.6L377.9,-57.2L351.5,-37.6L342.2,-21.2L331.6,-20.2L319.7,-23.9L304.5,-11.2L287.3,-6.6L279.3,-17.2L274.7,-30.6L268.1,-40.2L248.9,-42.6L251.6,-54.6L256.8,-59.6L261.5,-66.6L264.8,-74.6L274,-69.2L283.3,-66.2L293.9,-72.2L305.1,-72.6L316.4,-90.2L333.6,-101.2L358.1,-109.8L382.5,-116.1L395.1,-117.1L407,-120.8L428.2,-137.4L442.1,-145.7L458,-150.7L472.5,-153.7L485.8,-151.1L497,-152.7L524.8,-164.3ZM208.6,69.6L208.6,78.3L213.8,81.9L219.1,82.6L233,98.7L253.5,112.7L266.1,123.4L266.8,132.8L262.8,142.5L268.1,159.6L270.7,177.7L280,206.5L266.8,211.9L246.9,212.6L242.3,217.6L235,214.9L218.5,217L201.9,226.4L186.7,239.1L168.9,239.1L149,241.8L129.2,240.1L115.3,233.1L90.1,225.7L57.7,219.3L43.8,214.3L32.6,205.9L22,184.7L20,174.3L22,164.3L31.9,160.9L39.8,155.9L40.5,149.5L44.5,144.9L49.1,143.2L51.1,140.2L47.8,129.4L47.1,119.7L66.3,102L86.8,86.9L123.9,72.9L146.4,74.2L180.8,63.2L192,58.2L202.6,61.5Z"/></svg>
