<svg xmlns="http://www.w3.org/2000/svg" viewBox="0 0 400 300"><path d="M400,36.3L386,36.5L374.1,34.6L376.3,27.2L389.7,21.8L399.8,24.7L400,24.8L400,36.3Z" fill="#2c2c34" stroke="#474751" stroke-width="0.8"/><path d="M264.2,300L264.8,297.6L263.2,286.2L265.2,280L275.8,275.1L282.6,276.5L282.2,282.7L290.5,278.2L291.2,280.5L286.3,286.5L286.3,292L289.6,295L289,300L264.2,300Z" fill="#2c2c34" stroke="#474751" stroke-width="0.8"/><path d="M164.5,300L171.9,294.8L182.4,292.7L188.5,287.8L197.8,284.1L214.3,282L230.3,281L235.2,282.8L244.3,278L254.7,277.9L258.6,280.7L265.2,280L263.2,286.2L264.8,297.6L264.2,300L164.5,300Z" fill="#2c2c34" stroke="#474751" stroke-width="0.8"/><path d="M339.5,0L337.5,6.1L325.7,4.4L320.2,18L309,18.8L305.9,2.5L304.9,0L339.5,0Z" fill="#2c2c34" stroke="#474751" stroke-width="0.8"/><path d="M400,129.8L397.6,128L399.5,122.1L400,121.4L400,129.8Z" fill="#2c2c34" stroke="#474751" stroke-width="0.8"/><path d="M400,116.9L393,112.6L386,114.7L381.4,113.2L375.7,116.4L370.8,111.1L366.8,113.1L366.3,112.2L361.8,104.8L354.6,103.9L353.7,99.2L347,97.5L345.6,101.4L340.3,98.3L340.9,94.1L333.7,92.7L329.1,87.8L325.1,77.9L325.9,72.4L323.5,63.9L320,58.2L322.7,53.9L320.4,45.7L327,40.8L342.2,33.1L354.4,27.5L364,30.3L364.8,34.4L374.1,34.6L386,36.5L400,36.3L400,116.9Z" fill="#2c2c34" stroke="#474751" stroke-width="0.8"/><path d="M348.1,132.4L347.4,138.3L342,138.3L343.8,141.5L340.6,150.6L338.7,153L330.3,153.4L325.4,156.6L317.4,155.5L303.5,151.8L301.4,146.9L291.8,149.4L290.7,152.1L284.8,150.1L279.8,149.7L275.5,147.1L276.9,143.6L276.6,141L279.5,140.2L284.4,144.2L285.8,140.4L294.3,141L301.2,138.5L305.9,138.9L308.9,141.8L309.8,139.4L308.4,130L311.9,128.1L315.3,121.4L322.5,126.1L328,120.1L331.4,119L338.9,123.5L343.5,122.7L347.9,125.5L347.1,127.4Z" fill="#2c2c34" stroke="#474751" stroke-width="0.8"/><path d="M400,137.8L397.7,138.9L393.2,148.6L387.3,158.2L379.5,160.8L373.5,160.2L366.1,163.9L362.4,166L354.4,163.3L347.2,157.3L344.1,155.6L342.2,150.8L340.6,150.6L343.8,141.5L342,138.3L347.4,138.3L348.1,132.4L353,136.1L356.6,137.7L364.8,135.9L365.5,133L369.4,132.6L374.1,130.3L375.2,131.2L379.7,129.4L382,126L385.2,125.1L395.5,129.5L397.6,128L397.6,128L400,129.8L400,137.8Z" fill="#2c2c34" stroke="#474751" stroke-width="0.8"/><path d="M400,181.7L398.2,183.6L392.5,179.6L391.8,173.9L385.9,170.7L384.8,166.3L379.5,160.8L387.3,158.2L393.2,148.6L397.7,138.9L400,137.8L400,181.7Z" fill="#2c2c34" stroke="#474751" stroke-width="0.8"/><path d="M400,24.8L399.8,24.7L389.7,21.8L387.6,7.3L398.7,2L400,2.1L400,24.8Z" fill="#2c2c34" stroke="#474751" stroke-width="0.8"/><path d="M400,2.1L398.7,2L387.6,7.3L387.8,0L400,0Z" fill="#2c2c34" stroke="#474751" stroke-width="0.8"/><path d="M320.4,45.7L322.7,53.9L320,58.2L323.5,63.9L325.9,72.4L325.1,77.9L329.1,87.8L324.8,89.4L322.2,87.6L319.8,90.6L312.8,93.5L309.2,97.3L302.2,100.6L303.9,105.1L304.9,111.5L309.9,115L315.3,121.4L311.9,128.1L308.4,130L309.8,139.4L308.9,141.8L305.9,138.9L301.2,138.5L294.3,141L285.8,140.4L284.4,144.2L279.5,140.2L276.6,141L266.2,136.6L264.2,139.8L256,139.7L257.2,129.4L262.1,119.3L248.1,116.6L243.6,112.7L244.1,106.1L242.2,102.7L243.3,92.4L241.6,76.2L247.5,76.2L249.9,70.3L252.3,55.6L250.5,50.1L252.4,46.7L260.5,45.8L262.3,49.4L268.9,41.3L266.7,35.1L266.2,25.6L273.6,27.8L279.8,25.3L279.9,31.7L289.7,35.6L289.6,41.5L299.5,38.4L304.9,33.9L315.8,40.4Z" fill="#2c2c34" stroke="#474751" stroke-width="0.8"/><path d="M400,285.5L393.6,281.2L389.9,271.5L388.2,263.3L384.5,257.6L379.5,250.5L378.9,246.9L383.4,240.8L383.9,236.7L387.1,234.8L387.3,231.5L393.6,230.3L397.3,227.5L400,227.7L400,285.5Z" fill="#2c2c34" stroke="#474751" stroke-width="0.8"/><path d="M387.3,231.5L387.1,234.8L383.9,236.7L383.4,240.8L378.9,246.9L377.2,246L377,243.3L371.6,239L370.8,232.9L371.6,224.2L372.9,220.1L371.3,218.1L370.7,214L374.8,207.5L375.5,210L378.1,208.8L380.1,212.3L382.4,213.7L383.1,218.4L381.9,222.8L383.2,228.3Z" fill="#2c2c34" stroke="#474751" stroke-width="0.8"/><path d="M344.1,155.6L347.2,157.3L354.4,163.3L362.4,166L366.1,163.9L368.4,169.2L371.5,173.2L367.8,178.3L363.4,175.3L356.7,175.5L348.3,173.2L343.8,173.5L341.7,176.4L338.3,173.2L336.2,178.9L340.9,185.3L343.1,189.5L347.5,194.5L351.2,197.4L354.9,203L363.4,208L362.4,210.2L353.3,205.4L347.6,200.6L338.8,196.6L330.7,186.7L332.6,185.7L328.2,180L328,175.4L321.8,173.2L318.8,179.1L315.9,174.5L316.1,169.8L316.5,169.6L323.3,170L325,167.7L328.3,169.9L332.1,170.2L332.1,166.3L335.5,164.9L336.4,159.3Z" fill="#2c2c34" stroke="#474751" stroke-width="0.8"/><path d="M276.6,141L276.9,143.6L275.5,147.1L279.8,149.7L284.8,150.1L284,155.8L279.8,158.2L272.6,156.4L270.5,162.1L265.9,162.5L264.2,160.3L258.8,165L254.1,165.7L249.9,162.7L246.6,156.6L242,158.8L242.1,152.4L249.2,144.4L248.9,140.8L253.3,142.1L256,139.7L264.2,139.8L266.2,136.6Z" fill="#2c2c34" stroke="#474751" stroke-width="0.8"/><path d="M242.2,102.7L244.1,106.1L243.6,112.7L240.8,113L238.6,111.7L239.7,103.3Z" fill="#2c2c34" stroke="#474751" stroke-width="0.8"/><path d="M243.3,92.4L242.2,102.7L239.7,103.3L238.6,111.7L230.1,104.9L225.1,106L218.4,98.9L213.9,92.8L209.4,92.5L208,87.1L215.7,84.1L222.8,85.3L231.8,82.1L237.9,88.8Z" fill="#2c2c34" stroke="#474751" stroke-width="0.8"/><path d="M250.5,50.1L252.3,55.6L249.9,70.3L247.5,76.2L241.6,76.2L243.3,92.4L237.9,88.8L231.8,82.1L222.8,85.3L215.7,84.1L220.7,79.8L229.2,56.5L242.5,49.7Z" fill="#2c2c34" stroke="#474751" stroke-width="0.8"/><path d="M96.1,218.1L99.6,214.7L103.6,212.8L106,219.2L111.7,219.2L113.4,217.6L119,218L121.7,224.5L117.2,228L117.1,238L115.6,239.8L115.2,245.8L111,246.9L114.9,254.4L112.2,262.5L115.5,266.2L114.2,269.5L110.6,274.1L111.4,278.1L107.5,281.3L102.4,279.6L97.4,280.9L98.9,271.4L98,263.8L93.7,262.7L91.3,258L92.1,249.8L96,245.3L96.7,240.2L98.7,232.5L98.5,227.1L96.5,222.5Z" fill="#2c2c34" stroke="#474751" stroke-width="0.8"/><path d="M111.4,278.1L110.6,274.1L114.2,269.5L115.5,266.2L112.2,262.5L114.9,254.4L111,246.9L115.2,245.8L115.6,239.8L117.1,238L117.2,228L121.7,224.5L119,218L113.4,217.6L111.7,219.2L106,219.2L103.6,212.8L99.6,214.7L96.1,218.1L96.6,208.8L92.6,203L106.3,193.4L118.2,195.8L131.2,195.7L141.5,198L149.5,197.3L165.2,197.7L169.1,202.9L186.9,208.9L190.4,206.1L201.3,212L212.6,210.3L213.1,217.9L203.9,226.5L191.5,229.3L190.6,233.6L184.7,240.6L180.9,250.9L184.7,258L179.1,263.5L177,271.5L169.7,273.9L162.8,283.3L150.5,283.5L141.3,283.2L135.2,287.5L131.5,292L126.8,291L123.2,287L120.4,280Z" fill="#2c2c34" stroke="#474751" stroke-width="0.8"/><path d="M123.6,43.8L125.2,55.5L117.9,69.8L100.7,79L87,76.7L94.8,60.1L89.8,43.6L102.9,30.6L110.3,22.7L112.2,31.8L110.3,40.7L116.3,40.4Z" fill="#2c2c34" stroke="#474751" stroke-width="0.8"/><path d="M284.8,150.1L290.7,152.1L291.8,149.4L301.4,146.9L303.5,151.8L317.4,155.5L316.3,162.4L318.7,168.3L310.9,166.3L303.1,171.2L303.6,178L302.4,181.9L305.6,188.8L314.7,195.6L319.6,206.5L330.3,217.1L337.9,217L340.3,219.9L337.6,222.5L346.2,227.1L353.4,231L361.7,237.7L362.7,240.1L360.9,244.6L355.5,238.7L347,236.6L343,244.8L350,249.4L348.8,256L344.8,256.7L339.6,267.3L335.6,268.2L335.6,264.5L337.6,257.8L339.7,255.2L335.9,247.9L333,241.6L328.9,240L326.1,234.5L319.8,232.2L315.7,227L308.5,226.2L300.9,220.3L292,211.9L285.4,204.3L282.5,191.1L277.6,189.5L269.8,185.1L265.3,186.9L259.7,193.1L255.7,194.1L256.8,188.3L251.5,186.6L249,176.1L252.4,171.9L249.5,166.7L249.9,162.7L254.1,165.7L258.8,165L264.2,160.3L265.9,162.5L270.5,162.1L272.6,156.4L279.8,158.2L284,155.8ZM326.6,265.3L334,264.3L330.5,273.9L331.9,277.7L329.9,283.9L322.5,279.4L317.6,278.1L304.1,271.9L305.4,265.6L316.7,266.7ZM268,230.7L272.9,226.8L278.6,235.8L277.3,252.5L272.9,251.7L269,255.9L265.3,252.6L264.9,237.4L262.7,230.1Z" fill="#2c2c34" stroke="#474751" stroke-width="0.8"/><path d="M289.3,0L287,6.4L284.1,4.6L277.1,17L279.8,25.3L279.8,25.3L273.6,27.8L266.2,25.6L262.3,16.2L262,0L289.3,0ZM303.5,5.9L306.6,14.6L300.8,28.3L290.6,18.8L289.3,11.7Z" fill="#2c2c34" stroke="#474751" stroke-width="0.8"/><path d="M123.6,43.8L116.3,40.4L110.3,40.7L112.2,31.8L110.3,22.7L118.4,22L128.8,32.4ZM158,0L153.4,8.3L163.4,9.4L164.2,11.2L172.8,31.3L179.5,34L185.4,52.7L188.2,59.1L199.9,62.1L198.7,72.3L193.8,76.9L197.7,84.9L188.9,93L176,92.9L159.5,97.1L155,94.1L148.6,101.2L139.6,99.5L132.8,105.3L127.7,102.2L141.9,86.2L150.5,82.8L150.5,82.8L135.3,80.2L132.6,74L142.7,69.1L137.4,60.5L139.2,49.9L153.6,51.4L153.6,51.4L153.7,51.4L155.1,41.9L148.6,31.7L148.5,31.5L136.7,28.5L134.4,23.9L137.9,16.3L134.7,11.6L129.5,19.7L128.9,3.1L127.2,0L158,0Z" fill="#2c2c34" stroke="#474751" stroke-width="0.8"/><path d="M317.4,155.5L325.4,156.6L330.3,153.4L338.7,153L340.6,150.6L342.2,150.8L344.1,155.6L336.4,159.3L335.5,164.9L332.1,166.3L332.1,170.2L328.3,169.9L325,167.7L323.3,170L316.5,169.6L318.7,168.3L316.3,162.4Z" fill="#2c2c34" stroke="#474751" stroke-width="0.8"/><path d="M400,121.4L399.5,122.1L397.6,128L395.5,129.5L385.2,125.1L382,126L379.7,129.4L375.2,131.2L374.1,130.3L369.4,132.6L365.5,133L364.8,135.9L356.6,137.7L353,136.1L348.1,132.4L347.1,127.4L347.9,125.5L349.3,122.3L353.6,122.5L356.9,121L357.2,119.6L359,118.9L359.7,115.6L361.9,114.9L363.4,112.2L366.3,112.2L366.8,113.1L370.8,111.1L375.7,116.4L381.4,113.2L386,114.7L393,112.6L400,116.9L400,121.4Z" fill="#2c2c34" stroke="#474751" stroke-width="0.8"/><path d="M329.1,87.8L333.7,92.7L340.9,94.1L340.3,98.3L345.6,101.4L347,97.5L353.7,99.2L354.6,103.9L361.8,104.8L366.3,112.2L363.4,112.2L361.9,114.9L359.7,115.6L359,118.9L357.2,119.6L356.9,121L353.6,122.5L349.3,122.3L347.9,125.5L343.5,122.7L338.9,123.5L331.4,119L328,120.1L322.5,126.1L315.3,121.4L309.9,115L304.9,111.5L303.9,105.1L302.2,100.6L309.2,97.3L312.8,93.5L319.8,90.6L322.2,87.6L324.8,89.4Z" fill="#2c2c34" stroke="#474751" stroke-width="0.8"/><path d="M123.8,300L126.2,294.3L133.3,294.3L139.1,299.4L148.3,298.5L153.9,300L123.8,300Z" fill="#2c2c34" stroke="#474751" stroke-width="0.8"/><path d="M363.4,208L354.9,203L351.2,197.4L347.5,194.5L343.1,189.5L340.9,185.3L336.2,178.9L338.3,173.2L341.7,176.4L343.8,173.5L348.3,173.2L356.7,175.5L363.4,175.3L367.8,178.3L371.2,178.3L368.8,184.3L373.5,189.5L372.1,195.8L369.8,196.4L368,197.6L364.9,200.7Z" fill="#2c2c34" stroke="#474751" stroke-width="0.8"/><path d="M400,227.7L397.3,227.5L393.6,230.3L387.3,231.5L383.2,228.3L381.9,222.8L383.1,218.4L384.3,218.5L384.8,215.8L390.5,213.8L392.7,213.3L396,212.5L400,212.4L400,227.7Z" fill="#2c2c34" stroke="#474751" stroke-width="0.8"/><path d="M400,212.4L396,212.5L392.7,213.3L392.3,212.3L393.5,210.8L394.6,207.6L393.2,207.6L391.3,205.2L389.7,204.6L388.5,202.4L386.7,201.6L385.3,199.8L383.5,200.5L382.2,204.9L379.9,205.9L380.7,204.7L377,202L373.8,200.5L372.4,198.7L369.8,196.4L372.1,195.8L373.5,189.5L368.8,184.3L371.2,178.3L367.8,178.3L371.5,173.2L368.4,169.2L366.1,163.9L366.1,163.9L373.5,160.2L379.5,160.8L384.8,166.3L385.9,170.7L391.8,173.9L392.5,179.6L398.2,183.6L400,181.7L400,212.4Z" fill="#2c2c34" stroke="#474751" stroke-width="0.8"/><path d="M378.1,208.8L375.5,210L374.8,207.5L370.7,214L371.3,218.1L369.3,217.1L366.5,212.8L362.4,210.2L363.4,208L364.9,200.7L368,197.6L369.8,196.4L372.4,198.7L373.8,200.5L377,202L380.7,204.7L379.9,205.9Z" fill="#2c2c34" stroke="#474751" stroke-width="0.8"/><path d="M383.1,218.4L382.4,213.7L380.1,212.3L378.1,208.8L379.9,205.9L382.2,204.9L383.5,200.5L385.3,199.8L386.7,201.6L388.5,202.4L389.7,204.6L391.3,205.2L393.2,207.6L394.6,207.6L393.5,210.8L392.3,212.3L392.7,213.3L390.5,213.8L384.8,215.8L384.3,218.5Z" fill="#2c2c34" stroke="#474751" stroke-width="0.8"/><path d="M275.5,205.9L275.2,207.9L275.4,208.4L275.8,208.9L275.9,209.3L276.2,214.4L276.1,214.8L275,216.9L274.7,217.5L274.6,220L274.4,220.7L274,221.4L273.3,223.5L272.6,224.5L270.8,223.3L269.8,222.8L269.3,222.2L269,221.9L269.2,221.3L269.7,220.8L269.7,220.4L268.6,219.9L268.1,219.6L268.1,219.1L268.5,218.2L268.3,217.5L267.7,217.5L267.1,217.4L267.1,217L267.5,216.6L267.9,215.9L267.9,215.3L267.3,215L266.8,214.4L266.6,213.7L267,213.1L267.7,212.8L267.2,212L266.9,212L266.6,211.8L266.8,211.5L267.3,210.9L268,209.3L269,208.6L270.8,208.1L271.3,207.8L271.7,207.3L272.2,206.9L272.7,207L273.3,207.2L273.6,207.4L273.9,207.2L274.1,206.4L273.9,205.8L274,204.1L274.3,203.1L274.8,203.1L275.3,203.6L275.3,204.1L275.4,205.2ZM257.4,140.1L256.2,140.7L256,141.3L255.5,142L254.8,142.4L254,142.4L253.4,142.4L253,142.1L253.1,141.8L252.8,141.6L252,141.6L251.1,142.1L250.5,142.9L250.7,143.4L251.3,143.5L251.4,143.7L251.4,143.9L251.2,144.2L251,144.7L249.7,146.2L248.4,147.7L248.2,148.1L247.8,148.5L246.2,149.3L246,149.6L245.9,150.9L245.7,152L244.5,153L243.3,154L243,154.7L242.8,155.4L242.4,156.2L242.3,156.6L242.9,157.3L242.9,157.9L242.7,158.7L242.1,159.3L241.5,159.6L241.5,160.5L241.8,160.6L242.6,160.6L243.7,159.9L244.4,159.1L244,158.3L243.9,158.1L244,158L244.9,157.1L245.9,156.6L247.4,156.5L249.1,156.8L249.3,156.9L249.2,157.4L249.4,158.2L249.7,158.8L249.2,160.3L249.6,160.8L250,161.4L250.4,161.9L251,162.4L251.5,163.2L251.7,163.6L250.9,164.5L249.6,165.2L249.4,165.7L249.4,166.2L249.6,166.6L250.3,167.2L251.1,168.4L251.6,169.5L252.7,170.6L252.9,170.9L252.9,171.2L252.6,171.6L252.2,173.1L251.8,173.4L251.3,173.5L249.9,174.6L249.3,174.4L248.4,174.5L247.9,174.8L247.9,175.5L248.4,176.1L248.8,176.8L248.9,177.5L249.5,178L250.4,178.3L250.9,178.4L251.2,178.5L251.4,178.8L251.7,180.3L251.5,180.7L251.1,180.8L250.8,181.5L250.2,182.4L249.9,183.1L250.3,183.8L250.4,184.2L250.2,184.7L250.5,185.5L251.1,186.2L252.9,187.3L254.5,188.1L255,188.3L257.2,187.7L257.6,187.8L257.9,188.5L258,188.9L257.8,189.6L257.2,190.5L256.5,191.2L256.1,191.8L256.2,192.4L256.2,193.1L255.7,193.4L255.7,193.2L255.5,193.1L255.3,193.2L255.1,193.3L255.1,193.6L254,194.1L253.2,194.6L250.1,197.5L248.7,198.4L248.4,198.9L248.1,199.9L247.3,200.7L246.5,201.1L244.7,201.5L242.9,202.4L242.1,202L239.9,202.1L238.6,201L236,200.3L235.2,198.8L234,198.7L233.2,198.7L232.8,198.5L232.6,198L232.6,197.5L231.8,197.7L231.2,197.7L230.8,197.9L230.6,198.1L230.2,198L230,198L230,198.3L229.3,198.4L228.5,198.2L226.3,197.4L226,197.3L224.6,197L224,196.7L223.5,195.9L223.1,195.6L222.9,195.5L221.5,195.9L221,196.5L220.3,197.2L215.2,200.8L214.3,202.3L213.2,204.5L213.1,205.5L213.6,208.8L214.6,210.5L214.8,210.9L214.2,210.9L213.2,210.7L212.4,210.4L211.6,210.5L210.9,210.9L210.3,211.1L209.8,211.2L209.5,211.4L209.3,211.8L209.3,212.1L208.5,212L206.6,211.4L205,211L203.9,211.5L203.3,211.9L202.9,211.8L202.5,211.4L202.3,210.9L201.6,210.5L200.1,209.9L200.2,209.6L200.5,209.2L200.5,209L200.2,208.6L198.8,208.2L198.2,208.1L197.8,208.4L197.5,208.7L196.7,207.5L196.2,207.2L195.3,207.2L194.4,206.8L193.4,206.3L191,205.5L190.4,205.4L190.1,205.5L190,206L189.9,207.3L189.7,207.5L188.6,207.5L187.3,207.3L186.6,207.4L186.1,207.4L185.6,207.1L183.2,207.5L182.8,207.3L182.3,206.7L181.6,206.2L181.1,206L180.7,205.7L180.3,205.6L179.8,205.9L179,206L178.3,206L178,206L176.5,204.6L176.2,204.2L175.5,204.1L174.6,204L172.2,203.1L171.2,202.6L171,202.3L171,202L170.8,202.1L170.5,202.5L170.4,202.9L170.1,202.9L169.8,202.9L169.5,202.7L169.3,202.4L169.5,202L169.8,201.4L170,200.7L170,200.2L169.4,199.8L168.5,199.7L167.9,199.6L167,199.3L166.6,199.1L166.3,198.4L166.2,198L167.8,197.6L169.2,195.9L170.6,189.7L171.6,182.4L172.3,181.1L173.2,180.7L172.4,179.7L172,180.2L171.8,180.7L171.6,181L172.1,174.2L172.5,171.7L173.1,169.1L174.5,170.1L175.6,171.2L176.2,172.1L176.9,175.2L177.5,175.8L178.3,176.4L178,175.7L177.4,175.2L176.5,171.1L176,170L175.1,169L172.3,167L172,166.6L171.9,165.8L172.8,165.8L173.6,166.2L173.5,165.8L173.3,165.3L172.9,163.7L172.6,159.8L172.7,159.1L172.5,158.2L171.6,158.1L170.9,158L170.1,157.7L166.3,155.4L165,153L163.7,151.2L163.3,150.4L163.4,149.6L164.1,148L163.4,146.9L162.9,146.7L162.3,146.2L162.8,145.4L163.2,144.8L164,144.6L165,144.8L166,145.3L166.7,145.5L164.5,144.1L160.8,144.6L160,144.4L159.4,144.1L159.1,143.1L159.6,142.6L160.1,141.8L159.6,141.2L158.9,141L157.8,141L156.8,141.2L156.5,140.9L157.1,139.9L156.6,139.6L155.9,139.8L154.9,139.9L153.9,139.7L153,138.6L152.4,138.6L152,138.7L151.4,138.3L150.7,138.2L150.3,138.4L149.6,137.8L145.8,136.5L144.2,136.4L142.7,136.9L141.9,136.8L141.2,136L140.7,134.7L138.3,133.6L138.8,132.9L139.9,132.8L141.2,132.3L141.7,131.7L140.7,131L139.9,130.9L139.6,130.6L139.3,130L139.7,129.7L140,129.8L141,129.9L142.5,129.8L142,129.2L141.3,129L141.1,128.9L139.8,128.8L139.2,129L137.9,128.9L137.6,128.2L137.5,127.6L137.9,126.3L139.7,125.2L144.3,123.9L146.3,124.1L147.6,123.8L149.3,123L150,122.3L152.3,121.9L154.5,122.7L156.6,125.4L157.6,126.4L159.9,124.7L163.5,124.8L164.2,125.7L164.5,124.9L165.2,124L165.7,124.4L166,125L169.7,124.8L170.3,124.7L169.3,124L168.5,122.4L168.3,116.6L167.3,114.9L166.1,112.3L165.5,110.7L165.5,110.2L165.6,109.4L167.1,109.4L168.2,109.6L170.4,109L171.4,109.5L171.4,110.7L171.7,112.2L172.1,113L172.6,113.8L174.3,113.7L176.2,114.2L178.6,114.3L182,115.2L183.5,114.7L184.9,113.6L187.7,112.9L187.9,112.5L186.3,112.7L184.9,112L184.7,111.3L184.9,110.6L185.4,109.1L189.6,106.7L192.6,106L195.7,104.7L197.2,103.3L198.3,101.5L198.6,101.2L199.1,100.8L198.6,100.2L198.9,93.4L199.2,92.2L199.8,91.2L200.8,90.4L202.2,89.6L207.3,88.4L208.1,87.9L208.2,88.7L208.6,89.6L208.8,90.1L208.6,90.8L208.8,91.3L209.5,92.3L210.4,93.2L211.1,93.9L211.4,93.8L211.9,93.6L212.9,93L213.7,92.8L214.2,93.3L214.4,93.5L215,94.6L215.1,95.7L215.3,96.6L215.8,97L217.3,97.1L218.5,97.4L218.8,97.7L219.1,99.7L219.4,100L219.7,99.8L220,99.5L220.3,99.4L221,99.5L221.9,99.6L222.8,99.8L224.1,100.9L224,101.3L223.8,102L223.7,102.5L223.9,102.7L224.2,103.2L224.2,103.9L223.8,104.3L223.7,104.7L223.7,104.9L223.8,105.1L224.1,105.2L225.9,105.5L227.7,105.2L228.7,104.6L228.9,104L229.2,103.2L229.9,102.5L230.3,102.3L230.7,102.6L230,105.3L230.5,105.9L230.6,107L230.8,107.8L231.4,107.8L232.1,108L232.6,108.3L233.3,108.8L234.1,109.3L234.8,109.5L235,109.9L235.5,110.4L236.3,111.3L237,112L237.3,112L238,111.7L239,111.6L239.7,111.6L240,112.1L240.8,112.3L241.1,112.5L241.4,112.8L241.9,113L242.5,112.8L242.9,112.4L243.5,112.2L244.1,112.2L244.4,112.5L245.1,112.9L245.4,112.8L246.2,113L246.9,113.7L247.2,114.4L247.3,114.8L247.6,115.3L248.9,117.2L249.3,117.3L249.7,117L250,116.6L250.4,116.5L251,116.7L251.4,116.9L251.7,117.8L251.8,117.9L252.1,117.7L252.6,117.7L253.4,117.9L254.5,117.7L255.4,117.3L255.8,117.3L256.5,118.3L257.4,118.7L259.2,118.9L261.1,119.4L261.9,119.8L262.4,120L262.5,121.2L262.3,121.4L260.4,124L259.6,124.9L259.2,126.2L258.8,128.2L258.3,130.1L257.4,131.9L257.1,133.3L257.3,134.2L257.2,135.6L256.7,137.5L256.6,138.9L256.9,139.9ZM172.2,163.9L171.9,165.2L171.2,164L170.4,163L170.2,162.2L170.2,161.9L171.2,162.6Z" fill="#b8e653" stroke="#0c0e06" stroke-width="1"/></svg>
