<svg xmlns="http://www.w3.org/2000/svg" viewBox="0 0 300 300"><path fill="#e8e8ea" d="M269.4,129.3L266.9,130.7L266.4,131.9L265.5,133.4L263.9,134.1L262.4,134.3L261.1,134.1L260.3,133.5L260.4,132.9L259.8,132.4L258.1,132.4L256.4,133.5L255,135.3L255.4,136.3L256.7,136.5L257,136.9L257,137.4L256.6,138L256.1,139L253.4,142.1L250.7,145.2L250.3,146.1L249.5,146.8L246,148.5L245.7,149.1L245.5,151.9L245.1,154.2L242.6,156.3L240.1,158.4L239.4,159.7L239,161.2L238.2,162.9L238.1,163.7L239.3,165.2L239.2,166.4L238.8,168.1L237.6,169.3L236.3,170L236.3,171.8L237,172.1L238.6,172L240.9,170.6L242.3,168.9L241.5,167.2L241.3,166.9L241.6,166.5L243.4,164.8L245.5,163.7L248.5,163.5L252.1,164.1L252.5,164.4L252.3,165.5L252.7,167.1L253.3,168.2L252.4,171.4L253.1,172.4L254.1,173.6L254.9,174.7L256.1,175.7L257.1,177.4L257.4,178.4L255.8,180.1L253.1,181.6L252.7,182.6L252.8,183.7L253.1,184.6L254.6,185.8L256.2,188.3L257.3,190.6L259.5,192.9L260.1,193.5L260,194.1L259.3,195L258.6,198.1L257.7,198.6L256.6,198.8L253.8,201.1L252.6,200.8L250.8,200.9L249.5,201.6L249.6,203L250.8,204.3L251.4,205.7L251.7,207.2L253,208.3L254.8,208.9L255.8,209L256.4,209.4L256.9,209.9L257.6,213L257.1,213.8L256.2,214.2L255.6,215.4L254.5,217.4L253.8,218.9L254.5,220.2L254.8,221.2L254.5,222.2L255,223.8L256.4,225.3L260,227.6L263.4,229.3L264.5,229.6L269,228.5L269.8,228.6L270.4,230L270.6,230.9L270.1,232.3L268.9,234.2L267.5,235.7L266.7,237L266.9,238.2L266.9,239.7L265.9,240.2L265.8,239.9L265.3,239.6L265,239.8L264.7,240.1L264.6,240.7L262.3,241.7L260.6,242.7L254.2,248.9L251.3,250.7L250.7,251.8L250.1,253.8L248.4,255.5L246.8,256.3L243,257.2L239.2,259L237.5,258.2L233,258.3L230.2,256.1L224.9,254.7L223.1,251.5L220.7,251.3L219.1,251.4L218.2,250.9L217.9,249.8L217.9,248.7L216.2,249.2L214.9,249.2L214.1,249.6L213.5,250.1L212.8,249.8L212.4,249.9L212.5,250.6L210.9,250.7L209.2,250.3L204.8,248.6L204.1,248.4L201.1,247.8L199.8,247.1L198.8,245.4L198,244.9L197.6,244.6L194.8,245.4L193.7,246.7L192.2,248.2L181.6,255.7L179.7,258.8L177.4,263.4L177.3,265.5L178.2,272.2L180.4,275.8L180.7,276.6L179.5,276.6L177.4,276.2L175.8,275.6L174.2,275.9L172.7,276.7L171.3,277.1L170.4,277.2L169.7,277.6L169.4,278.5L169.4,279.1L167.7,279L163.8,277.7L160.3,276.9L158.2,277.8L156.9,278.7L155.9,278.6L155.3,277.7L154.8,276.7L153.4,275.9L150.3,274.6L150.5,274L151,273.2L151,272.6L150.4,271.9L147.5,271L146.2,270.8L145.4,271.4L144.7,272.1L143.1,269.5L142,269L140.3,268.9L138.3,268.1L136.3,267.1L131.4,265.5L130,265.3L129.5,265.5L129.1,266.5L128.9,269.2L128.7,269.6L126.4,269.7L123.5,269.3L122.2,269.5L121.1,269.5L120,268.7L115.1,269.6L114.3,269.1L113.1,267.9L111.8,266.9L110.8,266.4L109.9,265.8L109.1,265.7L107.9,266.3L106.3,266.5L104.9,266.5L104.2,266.6L101,263.5L100.6,262.7L99,262.5L97.1,262.4L92.3,260.4L90,259.3L89.7,258.7L89.7,258.2L89.4,258.3L88.7,259.2L88.3,260L87.8,260.1L87.2,260L86.5,259.6L86.1,259.1L86.5,258.1L87.2,256.9L87.6,255.6L87.5,254.4L86.3,253.6L84.5,253.3L83.2,253.2L81.4,252.5L80.6,252L79.8,250.7L79.8,249.7L83,248.9L86,245.4L88.8,232.7L90.9,217.5L92.3,214.6L94.2,213.8L92.7,211.7L91.7,212.7L91.4,213.9L90.9,214.5L92,200.4L92.8,195.2L94.1,189.7L97,191.9L99.3,194.1L100.5,196L102,202.3L103.1,203.6L104.9,204.9L104.2,203.5L103,202.4L101.2,194L100,191.6L98.2,189.6L92.4,185.3L91.8,184.5L91.5,182.9L93.5,182.9L95.2,183.7L94.9,182.8L94.4,181.9L93.7,178.4L93.1,170.3L93.1,168.9L92.8,167.1L90.9,166.8L89.5,166.7L87.9,166L79.9,161.2L77.2,156.2L74.4,152.5L73.8,150.9L73.8,149.3L75.3,145.8L74,143.6L72.7,143.2L71.7,142.1L72.7,140.3L73.5,139.1L75.1,138.8L77.2,139.3L79.3,140.3L80.8,140.5L76.2,137.8L68.5,138.7L66.9,138.3L65.5,137.7L65,135.6L66.1,134.7L67,132.9L65.9,131.8L64.5,131.3L62.2,131.3L60.1,131.7L59.6,131L60.8,129.1L59.8,128.3L58.3,128.7L56.2,129.1L54.2,128.5L52.3,126.3L51,126.3L50.2,126.6L48.9,125.7L47.5,125.5L46.6,125.8L45.2,124.5L37.3,122L33.9,121.7L30.8,122.8L29.1,122.5L27.8,120.8L26.7,118.1L21.7,115.9L22.7,114.5L25,114.2L27.7,113.2L28.7,112L26.6,110.5L25,110.2L24.4,109.6L23.7,108.4L24.6,107.8L25.3,108.1L27.2,108.3L30.4,108L29.3,106.6L28,106.3L27.4,106L24.8,105.9L23.6,106.3L20.9,106.1L20.2,104.7L20,103.5L20.8,100.8L24.6,98.4L34.1,95.7L38.2,96L41.1,95.6L44.5,93.9L46,92.4L50.8,91.6L55.4,93.1L59.7,98.9L61.7,100.8L66.6,97.5L74,97.6L75.6,99.5L76.2,97.9L77.5,96L78.6,96.8L79.2,98L87,97.7L88.2,97.4L86.1,96L84.4,92.7L84.1,80.5L81.9,77L79.4,71.6L78.3,68.3L78.2,67.2L78.5,65.6L81.6,65.6L83.9,66.1L88.4,64.8L90.6,65.7L90.4,68.2L91.1,71.5L91.9,73L93,74.7L96.6,74.6L100.5,75.6L105.5,75.8L112.6,77.6L115.7,76.5L118.7,74.3L124.3,72.9L124.8,72.1L121.6,72.4L118.5,71L118.2,69.5L118.5,68.1L119.7,65L128.4,60L134.5,58.5L141,55.8L144.3,52.9L146.4,49.2L147.2,48.4L148,47.7L147.2,46.4L147.8,32.3L148.4,29.8L149.6,27.7L151.6,26.1L154.5,24.3L165.2,21.9L166.8,20.9L167,22.4L167.8,24.4L168.4,25.4L167.9,26.8L168.3,28L169.7,30L171.5,31.9L173.1,33.2L173.7,33.1L174.8,32.7L176.8,31.5L178.6,31.1L179.5,32L180,32.6L181.1,34.8L181.4,37L181.9,38.9L182.8,39.7L186,39.9L188.4,40.7L189,41.3L189.8,45.4L190.3,46L190.9,45.5L191.5,44.9L192.3,44.8L193.7,45L195.6,45.1L197.4,45.5L200.1,48L200,48.7L199.5,50.1L199.3,51.2L199.7,51.6L200.4,52.7L200.3,54L199.5,54.9L199.3,55.7L199.3,56.2L199.5,56.6L200.1,56.9L204,57.4L207.5,56.9L209.8,55.6L210.1,54.2L210.8,52.6L212.1,51.3L213,50.8L213.9,51.4L212.5,57L213.5,58.4L213.6,60.5L214.1,62.3L215.3,62.3L216.8,62.6L217.9,63.3L219.2,64.4L221,65.4L222.3,65.7L222.8,66.6L223.9,67.6L225.4,69.6L226.9,70.9L227.6,70.9L229,70.4L231,70.1L232.6,70.1L233.3,71.1L234.9,71.6L235.4,72L236,72.7L237.1,73L238.4,72.7L239.2,71.7L240.5,71.3L241.7,71.5L242.4,72L243.8,72.7L244.5,72.6L246,73.1L247.6,74.5L248.2,76L248.4,76.8L249.1,77.7L251.6,81.8L252.5,82L253.4,81.3L254,80.5L254.8,80.3L256.1,80.7L257,81.2L257.4,82.9L257.7,83.3L258.3,82.9L259.4,82.8L261,83.2L263.3,82.7L265.1,82L266.1,82L267.6,84.1L269.3,84.8L273.1,85.4L277.2,86.4L278.8,87.2L279.9,87.5L280,90.2L279.6,90.6L275.6,95.9L273.9,97.8L273,100.6L272.4,104.7L271.2,108.6L269.4,112.4L268.8,115.2L269.3,117L269,120L267.9,123.9L267.7,126.9L268.4,128.9Z"/></svg>
