<svg xmlns="http://www.w3.org/2000/svg" viewBox="0 0 300 300"><path fill="#e8e8ea" d="M221.1,25.9L220.9,28.8L217.6,36L216,41.5L215.7,47.4L216.6,52.1L218.1,55.4L219.1,59.1L218.4,61.7L216.7,62.7L217.9,64.1L220.3,64.3L224.4,63.3L230.7,61.3L239,58.5L244.4,56.9L253.4,57.9L258.2,59L260.6,61L263.4,69.4L264.6,70.7L266.8,74.3L268.6,78.6L268.9,80.7L268.8,82.3L267,84.7L264.9,88.1L264.1,90.2L262.5,91.7L260.3,93.2L254.3,93.8L253.4,94.7L251.6,98.4L248.5,101.5L247.1,104.4L245.8,108.2L246.1,113.1L245.5,120.1L244.7,124.7L246.4,126.4L253.6,127.5L254.9,128.5L256.9,131.4L259.3,134.1L265.8,135.8L268.3,137.9L270.4,140.2L270.7,142.1L269.2,149.7L267.7,156.8L268.3,162.4L268.9,167.7L269.7,175.3L269.4,180L267.4,182.8L267.4,185.1L268.3,187.8L266.7,195.2L265.6,196.5L262.6,197.9L261.1,199.9L260.6,203.1L259,207.4L257.5,208.9L257.5,210.9L259,212.4L259,214.6L256,217.3L254.3,219.3L250.4,220.3L245.9,219.3L244.8,217.8L245.9,215.5L245.6,213.7L243.9,211.7L241.5,206.7L239.4,205.6L238.4,207.6L234.6,211.5L228.3,216.4L223.8,216.8L215.5,215.3L208.4,212.9L205.3,207.2L203.2,202.5L200.2,197L196.9,194.4L193.3,192.7L191.7,192.6L186.6,195.7L185.1,196.8L185.1,199.4L185.6,201.8L186.3,203L187.1,204.5L186.9,206.9L186,210.1L185.7,213.7L169.8,217.1L166.9,215.8L165,214.2L162.6,214.5L155.6,216.4L153.1,215L150.5,214.2L149.5,214.9L149.3,216.4L150.5,224.7L150.1,227.9L148.6,232L147.7,234.8L152,235.6L153.5,236.9L155,239L157,241L157.1,242.1L154.9,244.3L154,247L155.2,249L158,251.2L162.3,253.5L164.4,255L164.1,256.4L162.1,259.3L161.4,261.7L160,263.9L160.3,266L162.3,267.9L162,269.5L160.8,270.8L158,270.5L155.9,270.8L154,270.2L147.7,263.6L146.3,263.4L137.3,268.5L135,270.5L133.2,273.5L130.7,280L126.6,276.3L123,269.4L118.9,265.2L110.2,258.3L108,253.3L98,242.2L83.7,231.2L73.4,221.5L71.8,219.4L73.7,219.6L83.6,224.4L84.9,223.9L86,222.8L81.8,220.3L77.7,218.3L73.8,217.1L69.9,217.2L67.8,215.2L66.4,212.1L65.7,209.5L64,206.7L58.5,201L57.1,198.8L54.2,195.8L56.1,195.4L61.9,198.3L62.4,197.1L61.9,195.4L56.1,192.7L52.7,192.5L52,190.6L52.4,188.4L48.2,180.1L43.9,173.9L43.3,170.9L55,184.4L56.7,184.7L58.6,184.6L63.6,183L62.7,181.2L60.4,179.3L58.3,180.2L55.5,180.4L54.1,179.6L53.3,178.2L56.2,171.6L55,171.9L54.1,173.1L52.6,173.7L50.2,174L44.3,170.5L39.2,161.1L37.9,159.1L36.5,155.8L35.1,154.4L29.3,141L31.5,142L34.2,145.8L39.5,145L41.5,142.8L43.3,142.8L45.1,142.3L47.3,140.2L54.1,130.9L55.9,118.7L55.3,111.4L54.2,104.2L56.5,101.9L57.4,103.4L57.9,106L58.9,107.9L61.3,109.5L65.7,110.1L72.6,112.7L75,114.4L75.6,111L83.6,108.1L81.2,107.1L74.1,108.2L64.5,103.9L61.3,101.1L58.3,95.9L55.3,93.1L55.5,90.7L62.4,88.4L64.2,88.7L64.9,91.4L66.7,92.5L67.5,92.1L67.8,89.9L67.8,83.6L65.7,74.8L66.4,73.1L68.2,72.5L69.9,71.3L71.1,71.1L73.5,71.3L74.7,73.4L75.3,74.5L77.6,75L79.5,76.1L81.2,75.8L82.7,74.6L84.6,74.3L91,74.3L96.7,74.4L108,74.4L119.4,74.4L130.7,74.4L139.2,74.4L139.2,69.4L139.2,61.6L139.1,52.4L139.1,43.5L139.1,35.3L138.9,25.7L139.4,22.9L140,21.7L139.8,20.1L148.6,20L164.5,20.7L171.4,20.7L173.4,20.7L182.1,20.3L189.2,20.9L192.2,21.6L194.9,21.9L203.3,22.3L214.3,21.8L218.1,22L220.2,23.3Z"/></svg>
