<svg xmlns="http://www.w3.org/2000/svg" viewBox="0 0 400 300"><path d="M400,280.7L379.3,280.8L381,273.5L370.7,273.6L369.6,277.1L357.2,277.9L352.2,289.7L349.2,294.8L338,291.9L331.4,294.8L318.1,296.4L310.5,285.8L305.8,279.2L300.1,267.1L295.1,252.1L235.8,251.8L228.7,254.2L223,253.8L214.6,256.5L211.8,250.3L217,248.2L217.6,239.4L220.9,234.2L228.2,229.9L233.5,232L240.3,224.3L251.3,224.5L252.5,230.2L260.1,233.8L271.9,221.1L283.6,211.3L288.7,204.8L288,188.3L296.7,168.8L305.9,158.4L319.2,148.7L321.5,142.3L322,134.9L325.2,128L324.2,116.6L326.7,98.8L330.7,86.2L336.7,75.5L337.8,63.3L339.6,49.3L347.4,39.1L358.2,32.6L374.8,39.4L387.6,46.8L400,48.5L400,280.7Z" fill="#2c2c34" stroke="#474751" stroke-width="0.8"/><path d="M21.5,0L21.2,7.8L21.2,7.8L4.6,10.1L1,0L21.5,0Z" fill="#2c2c34" stroke="#474751" stroke-width="0.8"/><path d="M162.3,0L158.5,3.8L152.6,4L143,23.5L137.9,37.8L117,45.1L109.4,44L101.7,48.5L85.6,48.1L74.8,35.4L68.3,20.9L54,7.6L38.9,7.8L21.2,7.8L21.2,7.8L21.5,0L162.3,0Z" fill="#2c2c34" stroke="#474751" stroke-width="0.8"/><path d="M266.3,0L264,4.8L259.1,8.4L257.6,24.1L259.6,32.6L258,38.6L267.5,49.1L269.2,56.3L276.6,66.7L285.8,73.2L286.7,82.4L288.8,88.2L287.3,99.1L271.4,94.3L255.1,89L229.8,88.2L227.3,87.1L215.4,89.7L203.2,87L193.7,88.3L161,87.9L163.9,72L156.1,58.7L146.9,55.3L142.8,46.3L137.6,43.4L137.9,37.8L143,23.5L152.6,4L158.5,3.8L162.3,0L266.3,0Z" fill="#2c2c34" stroke="#474751" stroke-width="0.8"/><path d="M1,0L4.6,10.1L0,11.4L0,0Z" fill="#2c2c34" stroke="#474751" stroke-width="0.8"/><path d="M400,48.5L387.6,46.8L374.8,39.4L358.2,32.6L347.4,39.1L339.6,49.3L337.8,63.3L324.9,62.2L311.3,58.8L299.3,69.5L288.8,88.2L286.7,82.4L285.8,73.2L276.6,66.7L269.2,56.3L267.5,49.1L258,38.6L259.6,32.6L257.6,24.1L259.1,8.4L264,4.8L266.3,0L400,0Z" fill="#2c2c34" stroke="#474751" stroke-width="0.8"/><path d="M337.8,63.3L336.7,75.5L330.7,86.2L326.7,98.8L324.2,116.6L325.2,128L322,134.9L321.5,142.3L319.2,148.7L305.9,158.4L296.7,168.8L288,188.3L288.7,204.8L283.6,211.3L271.9,221.1L260.1,233.8L252.5,230.2L251.3,224.5L240.3,224.3L233.5,232L228.2,229.9L220.6,223L214.6,226.4L206.5,235.1L190,213.8L205.3,202.7L197.7,189.3L204.6,184.3L218.1,181.8L219.8,172.9L230.5,182.6L248.2,183.4L254.4,173.9L257,160.6L254.7,144.9L245.2,133L253.9,109.7L248.9,105.7L234,107.4L228.3,97L229.8,88.2L255.1,89L271.4,94.3L287.3,99.1L288.8,88.2L299.3,69.5L311.3,58.8L324.9,62.2Z" fill="#2c2c34" stroke="#474751" stroke-width="0.8"/><path d="M161,87.9L193.7,88.3L193.8,112.5L164.6,112.3L157.8,113.5L154,110.4Z" fill="#2c2c34" stroke="#474751" stroke-width="0.8"/><path d="M228.2,229.9L220.9,234.2L217.6,239.4L217,248.2L211.8,250.3L206.5,235.1L214.6,226.4L220.6,223ZM231,300L226.9,286.8L222.8,273.3L212.8,260.5L214.6,256.5L214.6,256.5L223,253.8L228.7,254.2L235.8,251.8L295.1,252.1L300.1,267.1L305.8,279.2L310.5,285.8L318.1,296.4L331.4,294.8L338,291.9L349.2,294.8L352.2,289.7L357.2,277.9L369.6,277.1L370.7,273.6L381,273.5L379.3,280.8L400,280.7L400,300Z" fill="#2c2c34" stroke="#474751" stroke-width="0.8"/><path d="M234.2,90.3L234.1,91.7L232.5,95.2L231.7,97.8L231.6,100.7L232,102.9L232.7,104.5L233.2,106.3L232.9,107.5L232.1,108.1L232.7,108.7L233.8,108.8L235.8,108.3L238.8,107.4L242.8,106L245.4,105.3L249.7,105.7L252,106.2L253.2,107.2L254.5,111.3L255.1,111.9L256.2,113.6L257,115.7L257.2,116.7L257.1,117.5L256.2,118.6L255.2,120.2L254.9,121.2L254.1,122L253.1,122.7L250.2,123L249.7,123.4L248.9,125.2L247.3,126.7L246.7,128.1L246,129.9L246.2,132.3L245.9,135.6L245.5,137.8L246.3,138.6L249.8,139.2L250.4,139.7L251.4,141L252.5,142.4L255.7,143.2L256.9,144.2L257.9,145.3L258,146.2L257.3,149.8L256.6,153.3L256.9,155.9L257.2,158.5L257.5,162.2L257.4,164.4L256.4,165.8L256.4,166.9L256.9,168.2L256.1,171.7L255.6,172.3L254.1,173L253.4,174L253.2,175.5L252.4,177.6L251.7,178.3L251.7,179.3L252.4,180L252.4,181.1L251,182.4L250.2,183.3L248.3,183.8L246.1,183.3L245.6,182.6L246.1,181.5L246,180.6L245.2,179.7L244,177.3L243,176.7L242.5,177.7L240.7,179.6L237.6,181.9L235.5,182.1L231.5,181.4L228.1,180.3L226.6,177.5L225.6,175.2L224.1,172.6L222.5,171.3L220.8,170.5L220.1,170.5L217.6,172L216.9,172.5L216.9,173.8L217.1,174.9L217.5,175.5L217.8,176.2L217.8,177.4L217.3,178.9L217.2,180.6L209.5,182.3L208.1,181.7L207.2,180.9L206,181L202.7,181.9L201.5,181.3L200.3,180.9L199.7,181.2L199.7,181.9L200.3,185.9L200,187.5L199.3,189.4L198.9,190.8L201,191.2L201.7,191.8L202.4,192.8L203.4,193.7L203.4,194.3L202.4,195.3L201.9,196.6L202.5,197.6L203.9,198.7L205.9,199.8L206.9,200.5L206.8,201.1L205.8,202.5L205.5,203.7L204.8,204.8L205,205.8L205.9,206.7L205.8,207.5L205.2,208.1L203.9,208L202.9,208.1L201.9,207.8L198.9,204.6L198.2,204.5L193.9,207L192.8,208L191.9,209.4L190.7,212.5L188.8,210.7L187,207.4L185.1,205.4L180.9,202.1L179.8,199.7L175,194.3L168.1,189L163.2,184.4L162.4,183.4L163.3,183.5L168.1,185.8L168.7,185.5L169.2,185L167.2,183.8L165.2,182.8L163.4,182.3L161.5,182.3L160.5,181.3L159.8,179.8L159.5,178.6L158.7,177.3L156,174.5L155.3,173.5L154,172L154.8,171.8L157.7,173.2L157.9,172.7L157.7,171.9L154.8,170.5L153.2,170.5L152.9,169.5L153.1,168.5L151.1,164.5L149,161.5L148.7,160.1L154.3,166.5L155.1,166.7L156.1,166.6L158.5,165.9L158,165L156.9,164.1L155.9,164.5L154.5,164.6L153.9,164.2L153.5,163.5L154.9,160.4L154.3,160.5L153.9,161.1L153.2,161.4L152,161.6L149.2,159.8L146.7,155.3L146.1,154.4L145.4,152.8L144.8,152.1L142,145.7L143,146.1L144.3,148L146.9,147.6L147.8,146.5L148.7,146.6L149.6,146.3L150.6,145.3L153.9,140.8L154.8,134.9L154.5,131.5L154,128L155.1,126.9L155.5,127.6L155.7,128.8L156.2,129.7L157.4,130.6L159.5,130.8L162.8,132L163.9,132.9L164.2,131.2L168.1,129.9L166.9,129.4L163.5,129.9L158.9,127.8L157.4,126.5L155.9,124L154.5,122.7L154.5,121.5L157.9,120.4L158.7,120.5L159.1,121.8L160,122.4L160.3,122.2L160.5,121.1L160.5,118.1L159.5,113.8L159.8,113L160.7,112.7L161.5,112.2L162.1,112.1L163.2,112.2L163.8,113.2L164.1,113.7L165.2,113.9L166.1,114.5L166.9,114.3L167.6,113.7L168.6,113.6L171.6,113.6L174.4,113.6L179.8,113.6L185.3,113.7L190.7,113.7L194.8,113.7L194.8,111.3L194.8,107.5L194.8,103.1L194.8,98.8L194.8,94.9L194.7,90.2L194.9,88.9L195.2,88.3L195.1,87.6L199.3,87.5L207,87.8L210.3,87.8L211.2,87.8L215.4,87.6L218.8,87.9L220.3,88.3L221.6,88.4L225.6,88.6L230.9,88.4L232.7,88.4L233.7,89.1Z" fill="#b8e653" stroke="#0c0e06" stroke-width="1"/></svg>
