<svg xmlns="http://www.w3.org/2000/svg" viewBox="0 0 300 300"><path fill="#e8e8ea" d="M141.7,235.7L140.4,236.9L136.2,238L134.5,239.3L131.3,242L130.8,242.2L126,241.5L122.5,238L120.3,236.6L119.4,236.4L118.4,236.8L116.3,237.2L114.3,237.2L115.3,235.5L116.8,234.6L113.6,234L112.6,233.5L111.6,232.4L109.1,232.2L107.9,232.5L105.8,234L102.6,235.6L98.7,233.3L98,232.4L98,230.4L97.4,228.9L96.3,228.4L97.7,226.5L99.4,225.1L103,223.8L108.6,220.7L111.7,219.4L114.6,217.1L115.8,215.7L116.7,213.8L117.5,211.4L118.7,209.5L117.5,209.1L117,207.6L117.2,206.2L117.7,204.8L117.2,203.2L116.3,201.5L116.4,200.2L116.6,198.7L114.4,198.8L112.1,199.3L110.1,200.3L108.2,201.6L106.5,201.9L106.5,200.8L107.2,199.4L109.2,197.5L111.3,195.9L112.1,194.6L112.6,193.2L113.7,192.1L116.5,189.9L121.7,187.4L122.5,187.3L124.6,187.6L126.6,187.2L128.4,186.3L130.2,186.1L134.2,188.7L133,184.7L134.7,183.8L137.3,187.4L138.3,187.7L140.3,187.2L139.5,186.6L138.6,186.6L137.4,186.1L136.4,184.9L134.7,181.3L134.9,179.1L135.9,176.9L137.2,174.8L136.2,174.4L135.3,173.6L135.1,171.5L135.4,169.7L137.6,168L138.3,165.6L138.6,162.8L138.2,161.6L136,161.8L134.9,162.3L134,163.1L133,163.1L130.3,160L128.7,157.7L125.9,152.9L125.5,149.9L127.7,143.7L131.2,139.6L135.2,138.2L134.5,137.9L128.3,137.8L126.2,138.4L124.3,140L123.3,140.5L122.2,140.7L121.1,141.5L120.2,142.7L119.1,143.4L117,143.2L116,143.5L115.3,142.8L114.8,141.7L114,141.4L113.1,141.8L111.2,143.2L109.4,144.1L107.1,143.2L104.1,141.4L103.5,142.1L102.8,143.7L102.4,146.2L100.4,144L98.5,141.1L97.9,139.3L97.9,137.2L98.8,136.4L99.9,137.1L101.5,132.2L104.6,125.7L105.8,123.9L106.5,121.4L106.4,119.7L105.7,118.4L102.8,115.3L102.8,112.7L103.1,109.8L103.9,108.1L104.3,107.8L108.2,107.8L106.7,106.9L103.6,104.3L103.7,103.4L104.4,100.9L104.1,101.2L103.4,102.3L102.2,105L101.4,105.6L99.3,106.3L98.9,107.6L98.5,108L97.5,108.1L97.1,109.3L96.9,109.4L96.6,108.1L96.6,105.9L97,103.8L97.8,102.2L100.9,98.6L99.4,99.7L96,103.1L94.2,105.3L93.7,106L93.6,106.7L93.6,107.4L94.4,111.3L94.1,113.1L91.2,124.8L90.6,126L90.1,126.6L89.6,126.7L88.1,126.5L87.5,125.6L87.5,124.7L87.8,123.2L89,117.6L89.5,116L90.3,114.6L92,112L92,111.9L90.9,112.4L90.3,112.2L90,111.7L90.2,104.2L91.2,101.7L91.5,98L92.4,94.9L93.3,92.6L94.1,89.7L95.1,88.4L95.4,86.4L96.6,84.2L97.6,82L97.1,82.2L91,88L89.5,89.1L87.4,88.9L85.8,88.2L84.5,86.8L83.9,84.1L82.4,84.1L81.1,83.6L81.1,83.2L82.8,81.7L85.6,81.2L88.1,78.9L85.8,77.3L86,76.8L88,75.5L90.5,70.9L91.1,66.7L89.8,64.7L89.4,63.4L87,62L86.6,60.1L86.9,59.1L87.6,58.1L88.8,57.3L90.7,56.5L89,55.7L88.4,54.7L87.9,53.4L87.9,52.5L88.8,48.9L89.3,47.5L90.3,45.6L94.8,45.7L95.3,44.8L95.8,44.8L98.2,45.6L97.8,44.7L94,40.2L93.7,39.3L94.8,36.9L94.8,35.8L94.7,34.6L95,33.7L96.2,33.3L99.9,33.3L100.7,32.9L100.4,31.7L99.5,30.2L99.4,28.9L99.5,27.7L99.6,25.4L99.7,24.4L100.6,22.8L101.3,22.3L102.2,22L104.3,22.6L105,23.2L105.9,24.7L106.5,24.5L109,23L109.8,22.7L110.8,24.6L115.1,23.1L120.8,22.4L124.3,21.5L127.9,21.1L131.3,20L134.9,20.5L135,21.2L134.9,22L134,24.5L134.1,27.2L133.9,28.1L133.5,29.1L132.2,31L128.7,33.7L122.3,39.9L118.6,43L118,44.5L117.8,46.5L120,46.9L120.9,47.6L120.4,48.7L117,52.2L116,55.5L118.6,55.4L120.7,54.8L124.9,52.7L128.8,51.2L130.7,51.2L134.4,52.3L135.2,52.4L136.8,51.8L138.4,51.8L149.1,52.1L152,51.4L154.1,52.3L155.7,54.4L157.3,58.2L157.2,58.9L156.3,60.6L154.5,62.8L153,65.8L152.6,67.5L152.3,69.3L151.8,70.9L148.8,78.6L145.9,82.8L144.6,85.8L143,88.2L141.5,89.7L139.8,90.7L135,91.8L133.7,92.5L132.2,93.8L130.5,94.5L132.4,94.3L134.4,93.6L137.9,93.4L142,95.9L141.6,97.9L140,99.5L136.2,99.8L132.8,103.4L131.2,104.4L129.6,105L127.5,104.8L123.7,103.9L122.1,102.9L123.6,104.5L125.2,105.4L135,107.4L135.6,107.2L138.7,105L142.9,105L150.8,108.9L153.1,111.9L156.3,116.1L158.1,117.7L159.4,119.2L160.2,121.4L161.7,128.8L163.4,135.9L165.8,143.7L166.8,145.8L168.2,147.2L175.1,150.7L176.6,151.8L179.3,155.1L181.9,158.6L184.3,161.2L186.9,163.3L185.6,164.5L184.7,166.2L185.4,168.6L186.4,170.9L188.5,174.5L190.4,178.5L189.7,177.9L189,177.5L188,177.6L187.1,177.4L185.3,176.2L183.6,174.7L180.3,175.3L178.4,175L176.8,175L179.9,175.9L183.2,176L190.6,182.6L193.1,186.5L194.5,191.6L193.5,193.9L192,195.4L190.5,197.1L189.1,199L193.2,201.8L194.1,201.7L195,201.3L195.9,200.4L197.4,198.1L198.1,197.3L200.7,197L202.8,197.1L204.9,197.6L206.8,197.5L210.6,198.5L212.5,199.4L217.3,203.4L218.3,205.6L218.8,208.5L218.9,211.6L218.1,214.5L217.1,217.1L216.6,220.4L216.2,221.6L215.6,222.5L213.1,225.2L211.4,226.2L210.7,225.8L209.9,225.8L209.8,226.5L210.6,227.8L210.7,229.4L209.1,230.6L207.6,231.1L205.1,230.4L201.5,232.7L204,233.8L204.6,235L203.9,237.1L202.3,238.1L200.5,238.5L198.7,238.6L197.2,239.1L195.7,240.1L197.6,239.5L198.8,240L199.6,241.8L200.3,242.3L203.9,243L206.1,243L210.3,242.6L212.4,242.7L213.1,243L213.1,244.4L212.8,248L212.2,248.8L206.6,251.8L205.4,253.9L205.1,255.1L201.8,255L200.3,256.3L197.6,257.2L195.6,258.1L193.6,259.3L191.9,259.7L184.8,258.2L180.4,258.4L174.6,259.6L173.1,259.4L170.9,258.2L168.5,257.4L165.9,257.1L163.6,256L165,258.1L161.8,260.1L160.4,260.5L158.8,260.4L155.7,261L152.8,260.7L153.2,262.2L154,263.4L153.4,263.9L152.7,264.1L147.3,263.1L146.4,263.3L145.8,264.2L143.8,263.7L141.8,262.3L139.8,261.2L137.6,260.8L135.9,261L128.8,263.3L127.4,265.6L126.7,268.9L125.7,271.8L124,274L122,274.4L120.1,272.8L116.6,271.1L115.3,269.9L115,269.8L114.6,270.3L113.2,270.8L111.8,270.8L109.6,271.3L105.6,272.7L104.1,273.6L100.7,276.2L100,276.9L98.8,279.5L97,280L95.3,278.3L93.3,277.7L91.3,278.3L90,279.2L89.5,278.5L89.4,277L90.9,275.2L94.9,273.9L98.4,270.4L100.2,268.2L100.8,267L101.7,266.3L102.8,266L103.3,264.6L108.2,259.3L108.6,258.1L108.9,255.9L109.2,253.7L113.2,252.3L115.1,247.9L115.6,247.5L121.1,246.7L125.2,246.7L129.3,247.6L131.4,247.7L133.5,247.4L135.1,246.2L137.9,241.8L139.5,239.8L141.3,238.1L143,236.1L145.8,232.4L143.9,233.6ZM79.6,164.2L78.1,164.1L77.1,164.6L76.4,165L75.7,165L73.9,165.1L72,165.1L71.8,164.4L72.1,162L71.7,161.4L70,161.1L69.4,160.5L68.4,158.9L68.2,158.1L68.1,157.1L67.1,155.7L65.8,154.7L65,154.7L63.6,156.3L62.4,157.9L62.8,158.7L63.2,159.7L62.5,160.5L60.6,162.2L60.3,162.9L59.7,163.3L58.7,162.8L56.4,162.9L55.3,162.6L54.1,161.3L51,160.4L50.4,158.4L49.9,158L46.3,154.5L45.9,153.3L46.3,152.6L47.7,151.5L52.1,149.7L52.8,149.1L52.9,148.4L51.6,147.7L50.4,146.9L50.1,146.4L50,145.9L50.7,145.3L52,145.3L53,145.5L53.8,145L55.3,144.5L56.3,143.8L57.2,142.1L58.1,140.5L58.1,139.6L58.9,136.6L59.3,135.9L62.1,133.9L62.8,135L64.2,135.3L65.4,134.3L66.9,131.2L67.9,131L69,131.2L71.2,130.8L75.1,129.4L76.9,129.4L79.3,130.1L81.2,130.1L82.8,132.3L83.7,135.8L85.7,139.3L88.4,142.3L88.5,144.1L87.5,145.1L85.5,146.3L85.6,147.6L86.8,147L88,146.7L90.7,147L91.7,148.3L92.3,150.3L92.7,151.9L92.4,153.7L91.7,153.1L91,151.5L90.2,150.8L89.2,150.4L89.6,152.6L89.4,155.5L89.8,155.7L91.2,155.8L90.3,158.7L88.5,159.5L86.4,159.9L85.9,160.9L85.6,162.2L84.5,164.2L83.1,165.4L81.3,165.1Z"/></svg>
