<svg xmlns="http://www.w3.org/2000/svg" viewBox="0 0 400 300"><path d="M400,153.5L394.1,153.6L383.7,152L385.7,145.6L397.2,140.8L400,141.6L400,153.5Z" fill="#2c2c34" stroke="#474751" stroke-width="0.8"/><path d="M321.8,0L318.8,10L319.3,34.1L324.6,43.1L321.8,63.2L314.9,74.7L311.2,84.2L305.5,74.1L288.9,92.9L277.7,96.6L266.1,88.5L263.1,70.9L260.4,31.1L268.1,19.4L290.3,3.9L293.6,0L321.8,0Z" fill="#2c2c34" stroke="#474751" stroke-width="0.8"/><path d="M211.5,300L205.8,298.1L202.4,293.6L206.8,286.6L208.4,262.9L199.7,250.1L193.5,243.8L180.7,239L179.8,229.8L190.7,227L204.8,230.3L202.2,215.7L210.1,221.3L229.7,211.1L232.2,200.3L239.6,197.6L240.8,202.3L244.7,202.5L248.6,207.8L254.5,214L258.8,213L266.2,218.9L268,220L270.4,219.8L270.4,219.8L274.4,223.1L286.5,225.5L282.3,234.2L281.2,243.2L278.9,245.3L275.1,244.2L275.4,247.3L269.2,254.2L269.1,259.8L273.1,257.9L276,263.2L275.6,266.6L278.1,271.1L275.2,274.7L277.4,283.9L281.9,285.4L281,290.4L273.3,297L256.7,293.9L244.5,297.6L244.2,300L211.5,300ZM295.3,300L297.4,298.3L297.6,300L295.3,300Z" fill="#2c2c34" stroke="#474751" stroke-width="0.8"/><path d="M385.5,0L384.7,0.9L368.5,17L362.4,42.2L368.4,54.4L376.4,63.9L368.7,82.6L359.9,86.4L356.7,112.9L352,127.2L341.8,125.8L337,137.6L327.3,138.3L324.6,124.2L317.5,106.7L311.2,84.2L311.2,84.2L314.9,74.7L321.8,63.2L324.6,43.1L319.3,34.1L318.8,10L321.8,0L385.5,0Z" fill="#2c2c34" stroke="#474751" stroke-width="0.8"/><path d="M400,219.7L394.1,221.5L390.1,220.2L385.1,222.9L380.9,218.4L377.4,220.1L376.9,219.3L373.1,212.9L366.8,212.1L366,208L360.3,206.6L359,210L354.4,207.2L355,203.6L348.7,202.4L344.7,198.1L341.2,189.5L341.9,184.8L339.8,177.5L336.8,172.5L339.1,168.8L337.2,161.6L342.9,157.4L356,150.7L366.6,145.8L375,148.3L375.6,151.8L383.7,152L394.1,153.6L400,153.5L400,219.7Z" fill="#2c2c34" stroke="#474751" stroke-width="0.8"/><path d="M361.2,236.9L360.6,242L355.8,242L357.4,244.7L354.7,252.7L353.1,254.8L345.7,255.1L341.5,257.8L334.5,256.9L322.5,253.7L320.6,249.5L312.3,251.6L311.3,253.9L306.2,252.2L301.9,251.9L298.1,249.6L299.4,246.6L299.1,244.4L301.6,243.7L305.9,247.1L307.1,243.8L314.5,244.4L320.5,242.1L324.5,242.5L327.2,245.1L328,243L326.7,234.8L329.8,233.2L332.7,227.3L339,231.4L343.7,226.2L346.7,225.2L353.2,229.1L357.2,228.5L361,230.9L360.3,232.5Z" fill="#2c2c34" stroke="#474751" stroke-width="0.8"/><path d="M400,251.4L395.2,259.2L388.4,261.5L383.2,261L376.8,264.2L373.6,266L366.7,263.7L360.4,258.5L357.7,257L356.1,252.8L354.7,252.7L357.4,244.7L355.8,242L360.6,242L361.2,236.9L365.5,240.1L368.6,241.5L375.6,239.9L376.3,237.4L379.7,237L383.7,235.1L384.7,235.9L388.6,234.3L390.6,231.3L393.3,230.5L400,233.4L400,251.4Z" fill="#2c2c34" stroke="#474751" stroke-width="0.8"/><path d="M400,278L399.7,277.8L399.1,272.9L393.9,270.1L393,266.3L388.4,261.5L395.2,259.2L400,251.4L400,278Z" fill="#2c2c34" stroke="#474751" stroke-width="0.8"/><path d="M400,141.6L397.2,140.8L395.5,128.3L400,126.1L400,141.6Z" fill="#2c2c34" stroke="#474751" stroke-width="0.8"/><path d="M400,126.1L395.5,128.3L395.8,116.9L399.9,107.2L400,107.1L400,126.1Z" fill="#2c2c34" stroke="#474751" stroke-width="0.8"/><path d="M337.2,161.6L339.1,168.8L336.8,172.5L339.8,177.5L341.9,184.8L341.2,189.5L344.7,198.1L340.9,199.5L338.7,198L336.6,200.6L330.6,203.1L327.4,206.4L321.3,209.3L322.8,213.2L323.7,218.7L328,221.8L332.7,227.3L329.8,233.2L326.7,234.8L328,243L327.2,245.1L324.5,242.5L320.5,242.1L314.5,244.4L307.1,243.8L305.9,247.1L301.6,243.7L299.1,244.4L290.1,240.5L288.4,243.3L281.2,243.2L282.3,234.2L286.5,225.5L274.4,223.1L270.4,219.8L270.9,214.1L269.2,211.1L270.2,202.2L268.8,188.1L273.8,188.1L276,182.9L278,170.2L276.5,165.5L278.1,162.5L285.2,161.7L286.7,164.8L292.4,157.8L290.5,152.4L290.1,144.2L296.5,146.1L301.9,143.9L302,149.5L310.5,152.9L310.4,158L319,155.3L323.7,151.3L333.2,157Z" fill="#2c2c34" stroke="#474751" stroke-width="0.8"/><path d="M365.4,300L360.8,296L353.1,292.6L346,284L347.7,283.1L343.9,278.2L343.7,274.2L338.3,272.3L335.7,277.4L333.3,273.4L333.4,269.3L333.7,269.1L339.6,269.5L341.2,267.5L344,269.5L347.3,269.7L347.3,266.3L350.2,265.1L351,260.2L357.7,257L357.7,257L360.4,258.5L366.7,263.7L373.6,266L376.8,264.2L378.8,268.8L381.5,272.3L378.2,276.7L374.4,274.1L368.6,274.3L361.4,272.3L357.4,272.6L355.6,275L352.6,272.3L350.8,277.2L355,282.8L356.8,286.4L360.6,290.7L363.9,293.3L367,298.1L370.2,300L365.4,300Z" fill="#2c2c34" stroke="#474751" stroke-width="0.8"/><path d="M299.1,244.4L299.4,246.6L298.1,249.6L301.9,251.9L306.2,252.2L305.6,257.2L301.9,259.3L295.6,257.7L293.8,262.6L289.8,263L288.4,261.1L283.6,265.2L279.6,265.8L276,263.2L273.1,257.9L269.1,259.8L269.2,254.2L275.4,247.3L275.1,244.2L278.9,245.3L281.2,243.2L288.4,243.3L290.1,240.5Z" fill="#2c2c34" stroke="#474751" stroke-width="0.8"/><path d="M269.2,211.1L270.9,214.1L270.4,219.8L268,220L266.2,218.9L267.1,211.6Z" fill="#2c2c34" stroke="#474751" stroke-width="0.8"/><path d="M270.2,202.2L269.2,211.1L267.1,211.6L266.2,218.9L258.8,213L254.5,214L248.6,207.8L244.7,202.5L240.8,202.3L239.6,197.6L246.3,194.9L252.5,196L260.2,193.2L265.6,199.1Z" fill="#2c2c34" stroke="#474751" stroke-width="0.8"/><path d="M276.5,165.5L278,170.2L276,182.9L273.8,188.1L268.8,188.1L270.2,202.2L265.6,199.1L260.2,193.2L252.5,196L246.3,194.9L250.6,191.2L258,171L269.5,165.1Z" fill="#2c2c34" stroke="#474751" stroke-width="0.8"/><path d="M140.7,300L139.4,298.1L151.3,289.8L161.6,291.9L172.9,291.8L181.9,293.8L188.8,293.2L202.4,293.6L205.8,298.1L211.5,300L140.7,300Z" fill="#2c2c34" stroke="#474751" stroke-width="0.8"/><path d="M166.3,160L167.7,170.1L161.4,182.5L146.4,190.6L134.5,188.5L141.4,174.1L137,159.8L148.4,148.5L154.8,141.7L156.5,149.5L154.8,157.3L160,157Z" fill="#2c2c34" stroke="#474751" stroke-width="0.8"/><path d="M307.5,300L306.8,299.3L304.2,287.8L300,286.4L293.2,282.6L289.3,284.2L284.4,289.6L281,290.4L281.9,285.4L277.4,283.9L275.2,274.7L278.1,271.1L275.6,266.6L276,263.2L279.6,265.8L283.6,265.2L288.4,261.1L289.8,263L293.8,262.6L295.6,257.7L301.9,259.3L305.6,257.2L306.2,252.2L306.2,252.2L311.3,253.9L312.3,251.6L320.6,249.5L322.5,253.7L334.5,256.9L333.6,262.9L335.6,268L328.9,266.3L322.1,270.5L322.5,276.4L321.5,279.8L324.3,285.8L332.2,291.7L335.9,300L307.5,300Z" fill="#2c2c34" stroke="#474751" stroke-width="0.8"/><path d="M301.9,143.9L296.5,146.1L290.1,144.2L286.7,136L286.5,120.6L287.9,116.5L290.3,111.9L297.7,110.9L300.6,106.6L307.4,102.2L307.1,110.2L304.6,115.2L305.6,119.5L310.2,121.8L308.1,127.6L305.6,125.9L299.6,136.7ZM322.5,127.1L325.1,134.6L320.1,146.5L311.3,138.3L310.1,132.1Z" fill="#2c2c34" stroke="#474751" stroke-width="0.8"/><path d="M68,0L61.6,3.1L50.5,0.3L49.5,0L68,0Z" fill="#2c2c34" stroke="#474751" stroke-width="0.8"/><path d="M334.5,256.9L341.5,257.8L345.7,255.1L353.1,254.8L354.7,252.7L356.1,252.8L357.7,257L351,260.2L350.2,265.1L347.3,266.3L347.3,269.7L344,269.5L341.2,267.5L339.6,269.5L333.7,269.1L335.6,268L333.6,262.9Z" fill="#2c2c34" stroke="#474751" stroke-width="0.8"/><path d="M400,54.6L397.7,53L399.6,35.8L395.5,19.6L399.5,8.8L400,8L400,54.6Z" fill="#2c2c34" stroke="#474751" stroke-width="0.8"/><path d="M400,233.4L393.3,230.5L390.6,231.3L388.6,234.3L384.7,235.9L383.7,235.1L379.7,237L376.3,237.4L375.6,239.9L368.6,241.5L365.5,240.1L361.2,236.9L360.3,232.5L361,230.9L362.2,228.1L365.9,228.3L368.8,227L369,225.8L370.7,225.2L371.2,222.3L373.1,221.7L374.5,219.4L376.9,219.3L377.4,220.1L380.9,218.4L385.1,222.9L390.1,220.2L394.1,221.5L400,219.7L400,233.4Z" fill="#2c2c34" stroke="#474751" stroke-width="0.8"/><path d="M344.7,198.1L348.7,202.4L355,203.6L354.4,207.2L359,210L360.3,206.6L366,208L366.8,212.1L373.1,212.9L376.9,219.3L374.5,219.4L373.1,221.7L371.2,222.3L370.7,225.2L369,225.8L368.8,227L365.9,228.3L362.2,228.1L361,230.9L357.2,228.5L353.2,229.1L346.7,225.2L343.7,226.2L339,231.4L332.7,227.3L328,221.8L323.7,218.7L322.8,213.2L321.3,209.3L327.4,206.4L330.6,203.1L336.6,200.6L338.7,198L340.9,199.5Z" fill="#2c2c34" stroke="#474751" stroke-width="0.8"/><path d="M370.2,300L367,298.1L363.9,293.3L360.6,290.7L356.8,286.4L355,282.8L350.8,277.2L352.6,272.3L355.6,275L357.4,272.6L361.4,272.3L368.6,274.3L374.4,274.1L378.2,276.7L381.3,276.7L379.2,281.9L383.2,286.4L382,291.9L380,292.4L378.4,293.5L375.7,296.2L375,300L370.2,300Z" fill="#2c2c34" stroke="#474751" stroke-width="0.8"/><path d="M398.6,300L397.3,299.5L396.2,297.7L394.6,297L393.4,295.3L391.9,296L390.8,299.8L390.2,300L389.2,300L389.2,300L389.4,299.6L386.2,297.2L383.5,296L382.3,294.4L380,292.4L382,291.9L383.2,286.4L379.2,281.9L381.3,276.7L378.2,276.7L381.5,272.3L378.8,268.8L376.8,264.2L376.8,264.2L383.2,261L388.4,261.5L393,266.3L393.9,270.1L399.1,272.9L399.7,277.8L400,278L400,300Z" fill="#2c2c34" stroke="#474751" stroke-width="0.8"/><path d="M375,300L375.7,296.2L378.4,293.5L380,292.4L382.3,294.4L383.5,296L386.2,297.2L389.4,299.6L389.2,300L375,300Z" fill="#2c2c34" stroke="#474751" stroke-width="0.8"/><path d="M390.2,300L390.8,299.8L391.9,296L393.4,295.3L394.6,297L396.2,297.7L397.3,299.5L398.6,300L390.2,300Z" fill="#2c2c34" stroke="#474751" stroke-width="0.8"/><path d="M196,191.2L195.4,191.8L193.4,192.3L192.5,192.9L191,194.2L190.8,194.3L188.5,194L186.8,192.3L185.7,191.6L185.3,191.5L184.8,191.7L183.8,191.9L182.8,191.9L183.3,191.1L184,190.7L182.5,190.4L182,190.1L181.6,189.6L180.3,189.5L179.8,189.6L178.8,190.4L177.2,191.1L175.3,190.1L175,189.6L175,188.7L174.7,187.9L174.2,187.7L174.9,186.8L175.6,186.1L177.4,185.5L180.1,184L181.6,183.4L183,182.3L183.5,181.6L184,180.7L184.4,179.5L185,178.6L184.4,178.4L184.1,177.7L184.2,177L184.5,176.4L184.2,175.6L183.8,174.8L183.9,174.1L183.9,173.4L182.9,173.5L181.8,173.7L180.8,174.2L179.9,174.8L179.1,174.9L179.1,174.4L179.4,173.8L180.4,172.8L181.4,172.1L181.8,171.5L182,170.8L182.6,170.2L183.9,169.2L186.4,168L186.8,167.9L187.8,168.1L188.8,167.9L189.6,167.5L190.5,167.4L192.4,168.6L191.8,166.7L192.7,166.3L193.9,168L194.4,168.1L195.3,167.9L194.9,167.6L194.5,167.6L193.9,167.3L193.5,166.8L192.7,165L192.7,164L193.2,162.9L193.8,161.9L193.4,161.7L192.9,161.3L192.8,160.3L193,159.5L194.1,158.7L194.4,157.5L194.5,156.2L194.3,155.6L193.3,155.7L192.8,155.9L192.3,156.3L191.8,156.3L190.5,154.8L189.8,153.7L188.4,151.4L188.2,150L189.3,146.9L191,145L192.9,144.3L192.5,144.2L189.6,144.2L188.6,144.4L187.7,145.2L187.2,145.5L186.6,145.5L186.1,145.9L185.7,146.5L185.2,146.8L184.2,146.7L183.7,146.9L183.3,146.5L183.1,146L182.7,145.9L182.2,146L181.4,146.7L180.5,147.2L179.4,146.7L177.9,145.9L177.6,146.2L177.3,147L177.1,148.2L176.1,147.1L175.3,145.7L175,144.8L175,143.9L175.4,143.4L175.9,143.8L176.7,141.4L178.2,138.3L178.7,137.4L179.1,136.2L179,135.4L178.7,134.8L177.3,133.3L177.3,132.1L177.5,130.7L177.9,129.8L178,129.7L179.9,129.7L179.2,129.3L177.7,128L177.7,127.6L178.1,126.4L177.9,126.5L177.6,127.1L177,128.4L176.6,128.7L175.6,129L175.4,129.6L175.3,129.8L174.7,129.8L174.6,130.4L174.5,130.5L174.3,129.8L174.3,128.8L174.5,127.8L174.9,127L176.4,125.3L175.7,125.8L174,127.4L173.2,128.5L173,128.9L172.9,129.2L172.9,129.5L173.3,131.4L173.1,132.2L171.7,137.9L171.4,138.5L171.2,138.7L171,138.8L170.3,138.7L169.9,138.3L169.9,137.8L170.1,137.1L170.7,134.4L170.9,133.7L171.3,133L172.1,131.7L172.1,131.7L171.6,131.9L171.3,131.8L171.2,131.6L171.3,128L171.7,126.8L171.9,125L172.3,123.5L172.7,122.4L173.1,121L173.6,120.4L173.8,119.4L174.3,118.4L174.8,117.3L174.6,117.4L171.7,120.2L170.9,120.7L169.9,120.6L169.1,120.3L168.5,119.6L168.2,118.3L167.5,118.3L166.9,118.1L166.9,117.9L167.7,117.2L169,116.9L170.3,115.8L169.1,115L169.2,114.8L170.2,114.2L171.4,112L171.7,109.9L171.1,109L170.9,108.4L169.7,107.7L169.5,106.8L169.7,106.3L170,105.8L170.6,105.4L171.5,105L170.7,104.7L170.4,104.2L170.1,103.5L170.1,103.1L170.6,101.4L170.8,100.7L171.3,99.8L173.5,99.8L173.7,99.4L174,99.4L175.1,99.8L174.9,99.4L173.1,97.2L172.9,96.8L173.4,95.6L173.5,95.1L173.4,94.5L173.6,94.1L174.1,93.9L175.9,93.9L176.3,93.7L176.1,93.1L175.7,92.4L175.6,91.8L175.7,91.2L175.8,90.1L175.8,89.6L176.3,88.8L176.6,88.6L177,88.5L178,88.7L178.4,89L178.8,89.8L179.1,89.7L180.3,88.9L180.7,88.8L181.2,89.7L183.2,89L186,88.7L187.6,88.2L189.4,88L191,87.5L192.8,87.8L192.8,88.1L192.7,88.5L192.3,89.7L192.4,91L192.3,91.4L192.1,91.9L191.4,92.8L189.8,94.1L186.7,97.1L184.9,98.6L184.6,99.3L184.5,100.3L185.6,100.5L186,100.8L185.8,101.3L184.2,103L183.7,104.6L184.9,104.5L185.9,104.2L187.9,103.2L189.8,102.5L190.7,102.5L192.5,103.1L192.9,103.1L193.7,102.8L194.4,102.8L199.6,102.9L201,102.6L202,103L202.7,104L203.5,105.9L203.5,106.2L203,107L202.2,108.1L201.4,109.5L201.2,110.3L201.1,111.2L200.9,112L199.4,115.7L198,117.7L197.4,119.1L196.6,120.3L195.9,121L195.1,121.5L192.8,122L192.2,122.3L191.4,123L190.6,123.3L191.5,123.2L192.5,122.9L194.2,122.8L196.1,124L196,125L195.2,125.7L193.4,125.9L191.7,127.6L191,128.1L190.2,128.4L189.2,128.3L187.4,127.8L186.6,127.4L187.3,128.1L188.1,128.5L192.8,129.5L193.1,129.4L194.6,128.4L196.6,128.4L200.4,130.2L201.5,131.7L203,133.7L203.9,134.5L204.5,135.2L204.9,136.3L205.6,139.8L206.5,143.2L207.6,146.9L208.1,148L208.7,148.7L212.1,150.3L212.8,150.9L214.1,152.4L215.3,154.1L216.5,155.4L217.7,156.4L217.1,157L216.7,157.8L217,158.9L217.5,160L218.5,161.8L219.4,163.7L219.1,163.4L218.8,163.2L218.3,163.3L217.8,163.2L217,162.6L216.1,161.9L214.5,162.2L213.7,162L212.9,162L214.4,162.5L216,162.5L219.5,165.7L220.7,167.5L221.4,170L220.9,171.1L220.2,171.8L219.5,172.6L218.8,173.6L220.8,174.9L221.2,174.9L221.7,174.7L222.1,174.2L222.8,173.1L223.1,172.7L224.4,172.6L225.4,172.6L226.4,172.9L227.3,172.8L229.1,173.3L230,173.7L232.4,175.7L232.9,176.7L233.1,178.1L233.1,179.6L232.7,181L232.3,182.2L232,183.8L231.8,184.4L231.6,184.9L230.3,186.1L229.5,186.6L229.2,186.4L228.8,186.5L228.8,186.8L229.1,187.4L229.2,188.2L228.4,188.7L227.7,189L226.5,188.7L224.7,189.7L226,190.3L226.2,190.9L225.9,191.9L225.2,192.3L224.3,192.5L223.4,192.6L222.7,192.8L222,193.3L222.9,193L223.5,193.3L223.9,194.1L224.2,194.4L225.9,194.7L227,194.7L229,194.5L230,194.5L230.3,194.7L230.3,195.4L230.2,197.1L229.9,197.5L227.2,198.9L226.7,199.9L226.5,200.6L224.9,200.5L224.2,201.1L222.9,201.5L221.9,202L221,202.6L220.1,202.7L216.7,202L214.6,202.1L211.8,202.7L211.1,202.6L210,202L208.9,201.6L207.6,201.5L206.5,200.9L207.2,202L205.7,202.9L205,203.1L204.3,203.1L202.7,203.4L201.3,203.2L201.6,203.9L201.9,204.5L201.7,204.8L201.3,204.8L198.7,204.4L198.3,204.5L198,204.9L197,204.7L196.1,204L195.1,203.5L194.1,203.3L193.2,203.3L189.8,204.5L189.1,205.6L188.8,207.2L188.3,208.6L187.5,209.6L186.5,209.8L185.6,209L183.9,208.2L183.3,207.6L183.2,207.6L183,207.8L182.3,208.1L181.6,208.1L180.6,208.3L178.7,209L177.9,209.4L176.3,210.7L176,211L175.4,212.3L174.5,212.5L173.7,211.7L172.7,211.4L171.8,211.7L171.2,212.1L170.9,211.8L170.9,211.1L171.6,210.2L173.5,209.6L175.2,207.9L176,206.8L176.3,206.3L176.8,205.9L177.3,205.8L177.6,205.1L179.9,202.5L180.1,202L180.2,200.9L180.4,199.9L182.3,199.2L183.2,197L183.5,196.9L186.1,196.5L188.1,196.5L190.1,196.9L191.1,197L192.1,196.8L192.8,196.2L194.2,194.1L195,193.2L195.8,192.3L196.7,191.4L198,189.6L197.1,190.2ZM183.2,167.7L183.5,168L184.4,168L184.1,168.5L183.1,169.2L182.5,169.8L181.7,170.4L181.3,169.8L180.8,169.8L180.2,168.6L180,166.8L180.9,166.4L182.2,166.4ZM197,78L196.1,78.1L196.5,77.1L197.1,76.8L198.2,76.9L198,77.4ZM209.7,56.5L209.5,56.7L208.6,55L209.2,53L210,53L210.1,53.6L210,54.1L209.6,54.1L209.6,54.3L209.7,55.2L209.7,56.3ZM207.4,56.1L207.6,57.3L208,57L208.7,58.2L209,58.2L209.6,57.7L209.5,58.8L208.9,61.8L208.7,62.3L208.6,63.2L208.5,63.3L208.3,65.1L208,65.7L207.6,67.1L207.5,67.3L207,66.7L207.5,64.6L207.7,63.3L207.6,62.7L207.3,62.1L206.6,62L206,62.3L205.9,62L205.8,61.5L205.7,61.3L204.9,61.4L204.6,61.3L204.5,60.8L204.4,60.5L205.2,60.2L205.9,60.3L206.9,59.6L206.3,57.3L205.4,57.1L205.2,56.9L205.4,56.5L205.8,56.3L206.6,55.1L207,54.9L207.5,54.9ZM211.9,51.4L211.9,51.6L211.5,53.1L211.5,53.6L210.8,53.6L210.7,53.4L210.5,52.6L210.6,51.7L210.7,51.4L210.9,51.3L211.2,51.5L211.5,51.1L211.7,51.1ZM191.8,85.2L191.3,85.4L190.9,85.4L190.1,84.4L189.8,83.7L189.9,83.3L190.2,83.1L190.9,83.4L191.3,84.2L191.3,84.7L191.4,84.9L191.9,85.1ZM193.8,86L193.7,86.1L193.4,85.8L192.9,84.7L193.7,84.5L194.1,84.6L193.9,85.1ZM192.7,81.3L192.6,81.7L193.3,81.7L194.2,82.1L194.7,82.1L195.2,82.5L195,83.3L194.7,83.6L194.4,83.6L193.3,82.8L191.8,83.1L191.5,83L191.3,82.8L191.3,82.5L191.3,82L191.2,81.8L190.7,82.3L190.4,82.3L190.3,82L190.2,81.5L190.3,80.8L190.6,79.7L191.1,79.4L191.9,79.6L192.8,80.2L193.1,80.6L193.1,80.9ZM195.5,78.8L194.7,79.2L194.4,78.8L194.4,77.8L193.5,77.3L193.1,77L192.8,76.5L192.8,76.3L193.4,76.1L194.4,77.1L194.8,77.9L195.5,78.1L195.6,78.2ZM162.9,119.9L162.4,120L162.4,119.8L163.2,118.7L163.7,118.6L163.9,118.7L163.5,119.3ZM175.5,137L174.4,137L174.1,136.9L173.6,136.5L173.1,134.5L173.3,133.8L173.5,133.4L173.7,133.1L174.3,133L174.8,133.4L175,133.8L175.5,135.2L175.6,136.4ZM169.9,123.6L166.5,124.4L165.4,124.4L165.2,123.9L165.5,123.7L166.4,123.4L166.8,121.4L165.4,120.4L165.3,120.2L165.4,119.7L165.6,119.5L166.4,119L166.8,118.9L167.1,119L167.7,119.5L168.4,120.7L169.4,120.9L170,121.4ZM166.9,129.8L167.2,131.7L167.5,132.9L167.5,133.4L167.2,133.9L165.9,134.7L165.4,134.7L165.4,134.5L165.7,133.7L165.4,132.9L165.6,132.2L165.4,132.1L165.2,132.2L164.2,133.2L163.8,133.3L163.8,133.1L164.1,132.2L164.1,131.7L164.2,131.3L164.5,131L164.8,130.7L165.1,130.7L165.4,130.9L166.2,130.2ZM168.2,131.6L168.1,131.7L167.6,131.7L167.5,131.4L167.4,131.1L167.4,130.4L167.6,129.9L168.7,129.2L168.2,128.9L168.2,128.7L168.5,128.1L169.7,127.2L170,127L170.3,127L169.7,128.7ZM166.3,92.1L165.2,94.9L164.8,95L164.5,95.7L163.3,96.4L164.3,96.4L164.6,96.7L164.6,97.2L164.4,97.6L163.1,98.8L162.2,99.3L161.3,100.6L160.8,100.6L160.3,101.5L159.9,101.8L159.7,101.8L159.5,101.7L158.9,100.9L159.9,100L160.1,99.6L160.8,99.1L160.7,99L159.5,98.3L159.1,97.8L159.2,97.6L159.7,97.1L159.4,97L159.2,96.8L158.9,96.7L158.8,96.4L158.8,95.7L158.9,95L159.2,94.7L159.3,94.4L159.5,94.3L160,94.4L160.5,95L161.2,94.8L161.9,94.9L161.9,94.7L161.4,93.4L161.5,93.1L161.8,92.8L163.4,91.8L165.5,90.1L166,89.9L166.1,90.1L166.4,91ZM165.6,114.1L165.4,114.3L165.1,114.3L164.8,114L164.4,113.3L165.3,112.8L165.7,113.1L165.8,113.4L165.8,113.8ZM166.8,105.7L166.8,106.4L166.6,107.2L166.8,108.1L166.8,108.7L167.2,108.9L167.4,109.2L169,109.5L170.5,109.4L170.7,109.6L170.8,110.1L170.5,110.5L169.7,111.3L168.7,112.6L168.4,112.8L168.1,112.9L167.9,112.7L167.7,110.4L166.6,110.7L165.8,110.7L165.3,110.4L164.9,109.9L164.3,108.5L162.3,107.9L161.8,107.2L161.6,106.7L161.7,106.4L162.1,105.9L162.6,106L162.9,105.9L163.1,105.7L163.1,105.4L162.8,105L162.8,104.8L164.8,104.2L165,103.2L165.4,103.1L165.9,103.4L166.6,104.4ZM157.9,102.9L158.8,103.8L158,105.3L156.9,105.3L155.2,104.2L155.2,104L155.4,103.7L155.6,103.4L155.9,103.3L156.3,103.5L156.9,103.2L157.3,103.3ZM157.5,111.8L157.1,111.9L156.7,111.8L156.4,111.5L156.1,110.6L156,110L156.2,108.9L156.1,107.6L157.1,107.6L157.3,107.8L157.5,111.6ZM156.1,114.1L155.3,114.3L155.1,114.2L155,114L155.2,113.4L155.8,113.3L156.2,113.5L156.2,113.8ZM166.1,156.8L165.4,156.8L164.9,157L164.6,157.2L164.3,157.2L163.4,157.3L162.5,157.3L162.4,156.9L162.5,155.8L162.4,155.5L161.5,155.3L161.2,155L160.8,154.3L160.7,153.9L160.6,153.4L160.1,152.7L159.5,152.3L159.2,152.2L158.5,153L157.9,153.8L158.1,154.2L158.3,154.7L157.9,155L157,155.9L156.9,156.2L156.6,156.4L156.1,156.1L155,156.2L154.5,156.1L153.9,155.4L152.4,155L152.1,154L151.9,153.9L150.2,152.2L150,151.6L150.2,151.3L150.8,150.7L152.9,149.9L153.3,149.5L153.3,149.2L152.7,148.9L152.1,148.5L151.9,148.3L151.9,148L152.3,147.8L152.9,147.7L153.4,147.9L153.8,147.6L154.5,147.4L154.9,147L155.4,146.2L155.8,145.4L155.8,145L156.2,143.6L156.4,143.2L157.7,142.3L158.1,142.8L158.7,142.9L159.3,142.5L160,140.9L160.5,140.9L161.1,141L162.1,140.8L164,140.1L164.8,140.1L166,140.4L166.9,140.4L167.7,141.5L168.1,143.2L169.1,144.9L170.4,146.3L170.4,147.2L170,147.7L169,148.2L169,148.9L169.6,148.5L170.2,148.4L171.5,148.5L172,149.2L172.3,150.1L172.4,150.9L172.3,151.8L172,151.5L171.6,150.7L171.2,150.4L170.7,150.2L171,151.2L170.9,152.6L171.1,152.8L171.7,152.8L171.3,154.2L170.4,154.6L169.4,154.7L169.2,155.2L169,155.9L168.5,156.8L167.8,157.4L167,157.3ZM209.5,203.7L208.8,204.2L208.6,204.7L208.4,204.9L207.9,205L207.5,205.1L205.7,204L205.3,204L205.7,203.5L206.8,203.1L207.4,202.6L208.8,203.1Z" fill="#b8e653" stroke="#0c0e06" stroke-width="1"/></svg>
