<svg xmlns="http://www.w3.org/2000/svg" viewBox="0 0 400 300"><path d="M0,284.6L11.7,299L21.5,296.3L39.1,297.7L53,294.9L61.7,299.1L61.4,300L0,300Z" fill="#2c2c34" stroke="#474751" stroke-width="0.8"/><path d="M61.4,300L61.7,299.1L53,294.9L39.1,297.7L21.5,296.3L11.7,299L0,284.6L0,152.6L0,152.6L6.9,166.4L24.1,166.8L39.9,180.7L40.9,188.9L62.8,189.2L88.9,186.6L102.9,197.7L121.6,200.8L135.3,193L135.6,186.8L165.9,185.3L195.2,184.9L174.4,192.3L182.8,204L202.3,205.9L220.8,218.1L224.7,237.9L237.4,237.3L247,243.1L227.6,257.6L225.5,266.6L233.9,275.8L227.8,280.4L212.8,284.3L213.2,295.7L209,300L61.4,300Z" fill="#2c2c34" stroke="#474751" stroke-width="0.8"/><path d="M209,300L213.2,295.7L212.8,284.3L227.8,280.4L233.9,275.8L225.5,266.6L227.6,257.6L247,243.1L263.1,252.2L278.1,268.3L278.8,280.9L288.1,281.5L301.2,293.6L308.4,300L209,300Z" fill="#2c2c34" stroke="#474751" stroke-width="0.8"/><path d="M99.9,0L98.2,1.7L79.9,1.5L65.5,2.4L65.2,0L99.9,0Z" fill="#2c2c34" stroke="#474751" stroke-width="0.8"/><path d="M200,183.8L214.1,180.6L219.2,181.5L218.2,200L197.8,202.7L193.4,200.5L200.5,193.6Z" fill="#2c2c34" stroke="#474751" stroke-width="0.8"/><path d="M199.1,152.6L197.6,152.7L198.2,151.8L198.3,150.2L199.2,148.3L200.5,147L201.9,147.3L201.3,151.6Z" fill="#b8e653" stroke="#0c0e06" stroke-width="1"/><circle cx="200" cy="150" r="6" fill="#b8e653" stroke="#0c0e06" stroke-width="1"/></svg>
