<svg xmlns="http://www.w3.org/2000/svg" viewBox="0 0 300 300"><path fill="#e8e8ea" d="M154.5,213.7L154.5,212.7L154.2,211.2L153.1,210.1L151.4,209.4L148.2,209.7L145.4,209L143.3,207.1L142.9,205.6L144,204.4L143.2,203.4L139.7,201.1L133.8,195.2L130.4,193.8L129.2,190.1L127.9,189.3L125.1,188.9L122.2,189.3L121.5,189.8L120.6,190.4L118.3,195L116.7,196.6L112.7,195.8L109.5,194.7L106.8,194.2L101.6,193.7L95.6,193.6L91.7,197L90,196.5L87,194.9L82.1,193.5L79.5,192.6L87,182.8L89.2,176.9L89.3,173.4L89.3,169L85.6,159.7L82.2,146.6L78.7,132.8L76.1,128.7L64.7,123.9L62.1,118.5L53.4,111.4L41.2,108.3L38.9,107L28.2,98.1L20,92.4L21.8,88.9L24.2,85.2L26.7,84.4L34.3,85.8L41.1,87.5L46.1,86.3L52,89.1L57.5,92.5L62.9,94.8L73.7,97L77.6,100.1L82.3,103.1L100.5,104.6L101.9,104.1L103.3,103.7L109.5,102.6L114.8,102.9L120.5,106.5L124.1,106.3L128.1,105.7L133.1,107.7L137,109.9L137.4,112.1L140.9,115.3L150.8,120.2L159.1,123L161.6,125L167.8,128.2L168.5,129.2L168.3,130.5L166.5,132.9L166.1,135L166.9,136.3L169.4,137.5L174.6,137.7L176.4,136.2L180.2,135.1L184,133.1L189,130.5L195.8,128.1L198.6,128.1L201.3,128.8L203.1,130.1L206.2,135.1L209.3,128.2L210.1,127.6L212.9,129L217.8,130.9L221.3,132L223.1,133.3L228.4,139.6L236.9,139.3L240.4,140.3L242.4,141.3L243.2,142.5L241.8,148.7L239.7,155.2L239.9,156.7L243.2,159.1L247.8,161.7L250.4,163.7L252,165.5L255.8,167L260.2,167.8L262.1,168L264.3,169.5L269.8,172.4L270.6,173.1L269.7,174.9L267.4,178.4L265.6,180.1L263.6,180.4L261.7,181.1L261,182.9L261,185.3L261.3,187L261.8,187.6L263.8,188.1L265.7,193L268.8,195.5L273.6,198.3L277.9,201.5L280,204.5L279.6,206.6L278.2,211L274.7,214.7L271.6,215.6L270.6,215.3L268.7,214.2L264.8,211.3L260.6,209.1L257.2,209.8L255.1,210.7L250.8,209.6L245.9,207.7L243.2,205.8L242.1,204.3L242.8,201.8L231.5,197.3L225.9,196.1L223.5,197.4L215.1,204.2L214.2,205L207.7,205.8L207.7,206.5L209.1,207.9L208.8,208.4L198.1,208.5L194.6,209.4L185.1,208.3L181.9,208.8L179.2,209.9L172.6,211L168.2,212.5L162.4,213.3L156.4,213.3Z"/></svg>
