<svg xmlns="http://www.w3.org/2000/svg" viewBox="0 0 400 300"><path d="M400,150.4L379.6,155.4L371.3,163.8L370.3,157.7L374.9,147.2L371.3,138.4L349.7,129.6L341.3,106.5L330.9,99.9L330.3,91.4L348.5,93.9L349.2,74.6L365.1,70.3L381.4,74.3L384.7,48.2L381.4,31.4L362.7,32.7L346.8,26.1L325.3,38.1L307.9,43.8L298.3,39.4L300.3,25.3L288.4,6.9L274.5,7.7L268.1,0L400,0Z" fill="#2c2c34" stroke="#474751" stroke-width="0.8"/><path d="M268.1,0L274.5,7.7L288.4,6.9L300.3,25.3L298.3,39.4L307.9,43.8L299.3,59.7L281.3,64.1L262.7,91.4L279.6,116.1L277.8,133.4L298.2,163.2L287,173.2L283.8,179.5L275.6,177.9L262.8,162.7L257.5,161.9L245.8,156L240.1,145.7L222.6,140.4L211.3,144.4L208.1,139.6L182.7,127.4L155.2,123.3L139.4,118.9L137.1,121.9L113.3,100L92,90.2L75.9,74.7L89.4,70.4L105,48L94.5,37.3L122,26.1L121.5,20.2L104.8,24.6L105.4,12.4L115,4.6L133.1,2.6L133.9,0L268.1,0ZM0,68L0.4,67.4L18.2,58.5L15.4,55.3L15.4,55.3L20.3,48.6L33.6,54.4L39.6,55.4L42,60.7L44.8,61.6L45,63.9L54.1,70.3L73.2,68.7L69.5,78.1L49.1,82.7L23.7,97.9L13.4,92.6L17.5,80.2L0,73.6L0,68Z" fill="#2c2c34" stroke="#474751" stroke-width="0.8"/><path d="M162.6,300L162,294.4L172.2,288.6L181.8,274L189.8,270.4L211.6,273.4L218.1,279.4L227,275.4L237.7,300L162.6,300Z" fill="#2c2c34" stroke="#474751" stroke-width="0.8"/><path d="M400,274.2L397.8,274.8L394.4,258.1L397,233.2L382.5,225.1L387.3,208.4L374.9,207L379,186.4L396.6,192.4L400,190.8L400,274.2ZM400,170.2L399.5,169.6L394.1,155.3L379,161.7L377.2,180L371.3,163.8L371.3,163.8L379.6,155.4L400,150.4L400,170.2Z" fill="#2c2c34" stroke="#474751" stroke-width="0.8"/><path d="M237.7,300L227,275.4L216.8,256.6L220.5,249.2L214.7,221.7L227.4,214.8L230.4,224L239.9,235.1L252.6,238.2L259.4,237.6L281.4,219.8L288.4,218L293.9,225.1L287.5,237L299.1,249.5L303.8,248.3L309.7,265.8L327.4,270.7L340.3,282.4L366.9,286.4L396,280.3L397.8,274.8L400,274.2L400,300Z" fill="#2c2c34" stroke="#474751" stroke-width="0.8"/><path d="M72.7,300L76.1,296.6L77.1,283.7L83.2,288.2L103.8,281.7L113.6,286.1L129,286.1L150.5,277.3L160.6,277.7L181.8,274L172.2,288.6L162,294.4L162.6,300L72.7,300Z" fill="#2c2c34" stroke="#474751" stroke-width="0.8"/><path d="M259.4,237.6L252.6,238.2L245,224.3L245.1,220.6L236.8,220.7L231.3,214.2L227.4,214.8L220.1,207.7L206.2,201.7L208,189.7L204.8,181L230.8,177.1L234.6,183.6L241.7,188L238,194.1L247.9,202.5L242.7,210.3L250.6,216.9L258.9,220.9Z" fill="#2c2c34" stroke="#474751" stroke-width="0.8"/><path d="M133.9,0L133.1,2.6L115,4.6L105.4,12.4L104.8,24.6L89.9,26.8L77.4,35.6L59.9,37.1L43.9,47.1L44.8,61.6L42,60.7L39.6,55.4L33.6,54.4L20.3,48.6L15.4,55.3L12.8,52.3L0,49.3L0,0Z" fill="#2c2c34" stroke="#474751" stroke-width="0.8"/><path d="M61.6,300L59.2,296.3L66.3,287.6L54.9,289.6L39.2,284.2L26.4,297.6L0,300L0,163.4L0,163.4L16.9,157.9L47.7,157.4L80.3,175L107.1,184.6L128.8,180.8L144.9,183L166.9,170L186.8,168.8L204.8,181L208,189.7L206.2,201.7L220.1,207.7L227.4,214.8L214.7,221.7L220.5,249.2L216.8,256.6L227,275.4L227,275.4L218.1,279.4L211.6,273.4L189.8,270.4L181.8,274L160.6,277.7L150.5,277.3L129,286.1L113.6,286.1L103.8,281.7L83.2,288.2L77.1,283.7L76.1,296.6L72.7,300L61.6,300Z" fill="#2c2c34" stroke="#474751" stroke-width="0.8"/><path d="M257.5,161.9L262.8,162.7L275.6,177.9L283.8,179.5L287,173.2L298.2,163.2L308,176.3L317.5,193.8L326.2,195L331.9,201.6L316.6,203.5L313.3,222.4L310.1,230.9L303.3,236.5L303.8,248.3L299.1,249.5L287.5,237L293.9,225.1L288.4,218L281.4,219.8L259.4,237.6L258.9,220.9L250.6,216.9L242.7,210.3L247.9,202.5L238,194.1L241.7,188L234.6,183.6L230.8,177.1L235.3,173.1L249.3,180.2L259.3,181.7L261.8,178.8L252.7,165.3ZM252.6,238.2L239.9,235.1L230.4,224L227.4,214.8L231.3,214.2L236.8,220.7L245.1,220.6L245,224.3Z" fill="#2c2c34" stroke="#474751" stroke-width="0.8"/><path d="M202.2,180.6L202.2,180.2L202,179.4L201.5,178.9L200.7,178.6L199.1,178.7L197.8,178.4L196.8,177.5L196.6,176.7L197.1,176.2L196.7,175.7L195,174.6L192.2,171.7L190.6,171.1L190,169.3L189.4,168.9L188,168.7L186.6,168.9L186.3,169.1L185.9,169.4L184.7,171.6L184,172.4L182.1,172L180.5,171.5L179.2,171.2L176.7,171L173.9,171L172,172.6L171.2,172.4L169.7,171.6L167.3,170.9L166.1,170.5L169.7,165.8L170.8,163L170.8,161.3L170.8,159.1L169,154.7L167.4,148.4L165.7,141.7L164.4,139.7L159,137.4L157.7,134.8L153.6,131.4L147.7,130L146.6,129.3L141.5,125.1L137.5,122.3L138.4,120.6L139.5,118.9L140.7,118.5L144.4,119.1L147.6,119.9L150.1,119.4L152.9,120.7L155.5,122.3L158.1,123.5L163.3,124.5L165.2,126L167.5,127.5L176.2,128.2L176.9,128L177.6,127.7L180.5,127.2L183.1,127.3L185.8,129.1L187.6,129L189.4,128.7L191.9,129.6L193.8,130.7L194,131.8L195.6,133.3L200.4,135.7L204.4,137L205.6,138L208.5,139.5L208.9,140L208.8,140.6L207.9,141.8L207.7,142.8L208.1,143.4L209.3,144L211.8,144.1L212.7,143.4L214.5,142.8L216.3,141.9L218.8,140.6L222,139.5L223.4,139.5L224.7,139.8L225.5,140.4L227,142.8L228.5,139.5L228.9,139.3L230.2,139.9L232.6,140.8L234.3,141.3L235.1,142L237.7,145L241.8,144.8L243.5,145.3L244.4,145.8L244.8,146.4L244.2,149.4L243.1,152.5L243.2,153.2L244.8,154.4L247,155.6L248.3,156.6L249.1,157.5L250.9,158.2L253,158.6L253.9,158.6L255,159.4L257.6,160.8L258,161.1L257.5,162L256.5,163.6L255.6,164.5L254.6,164.6L253.7,165L253.4,165.8L253.4,166.9L253.5,167.8L253.8,168.1L254.7,168.3L255.6,170.7L257.1,171.9L259.4,173.2L261.5,174.8L262.5,176.2L262.3,177.2L261.6,179.3L259.9,181.1L258.5,181.5L258,181.4L257.1,180.9L255.2,179.5L253.2,178.4L251.5,178.7L250.5,179.2L248.5,178.7L246.1,177.8L244.8,176.8L244.3,176.1L244.6,174.9L239.2,172.7L236.5,172.1L235.3,172.8L231.3,176.1L230.8,176.4L227.8,176.9L227.8,177.2L228.4,177.8L228.3,178.1L223.1,178.1L221.4,178.6L216.9,178L215.3,178.3L214,178.8L210.9,179.3L208.7,180L206,180.4L203.1,180.4Z" fill="#b8e653" stroke="#0c0e06" stroke-width="1"/></svg>
