<svg xmlns="http://www.w3.org/2000/svg" viewBox="0 0 300 300"><path fill="#e8e8ea" d="M188.6,22.1L191.2,24.6L191.7,26L190.9,31.3L189,35L187.7,38.5L188,40.2L189,42L192.9,44.6L194.9,46.4L197.4,49.1L200.1,51.7L204.8,55.1L206.6,55.8L206.6,56.7L205.9,58.1L205.5,70.7L205.2,74.1L204.8,75.7L204.3,80.4L203.9,81.1L203,81.1L202.2,81.2L202,82.2L202.3,83.1L205.2,83.8L204.5,84.5L202.4,85.2L201.4,86.6L201.9,88.3L200.7,89.6L201.1,90.4L201.9,91.1L203,90.8L206.3,88.6L207.7,88.4L209.4,88.9L212.6,92.2L212.6,93.9L211.4,99.5L210.1,103.8L209.8,109.5L211.3,112.7L211,114.5L209.5,116L206.3,118.2L206.6,119.7L208.1,122.6L210.8,125.7L216.2,129.6L218.9,134.7L219.1,136.7L217.3,138.8L215.5,140.5L214.9,143.1L215.8,160.1L211.4,167.4L211.4,169.6L211.8,171.9L213,173.4L215.2,173.8L216.9,175.3L216.3,180.5L215.3,185.7L215.2,188.3L214.6,189.5L213,190.4L212.4,192.1L212.9,194.1L212.4,195.6L213.4,197.6L215.3,200.1L218.4,206.1L219.7,206.6L220.1,207.9L219.8,209.1L221,211.7L224.4,214.5L228,216.8L230.9,217.1L231.7,219.2L233.5,221.8L235,223L237.2,223.8L239,224.2L239,226.5L235.9,228L233.5,230.3L231.8,233.8L229.5,237.7L221.5,239.7L218.4,239.8L201.9,239.9L186.2,247.5L177.4,250.2L171.9,254.5L164.5,257.6L159.3,261.3L148.6,263.1L131,268.9L125.5,271.2L120,275.2L110.9,280L107.4,279.9L100.3,275.5L95,273.3L81.9,269.8L72.2,268.6L67.5,267.1L66.3,266.8L67.3,265.2L70.1,265.2L73,265.6L75,264.4L78.2,264.2L79,263L79.3,259.8L79.3,257.2L80.3,256L80.6,253L79,246.2L78,245.5L72.4,244.5L72,243.2L70.9,241.7L69.8,238.2L68.6,233.1L66.6,226.6L62.7,216L61.8,212.2L61.1,208.4L61,203.8L61.8,202.1L61.7,199.8L61.4,197.4L64,192L69.3,185.4L70.4,183L71.4,181.3L71.5,178.9L72.5,171.2L75,161.9L76.6,158.3L77.6,156.4L78.9,153.3L79.3,151.8L84.1,148.1L86.4,147.2L86.9,145.8L86.1,144.1L86.4,143.1L87.6,142.5L89.3,142.1L90.6,140.6L88.6,129L87,117.5L86.9,116.6L85.8,114.9L85,110.2L83.2,107.4L80.9,106.6L81.1,104L83.4,99.5L84,96.9L82.8,96.1L82.7,94.2L83.4,90.8L83.1,88.9L82.7,86.7L80.2,81.6L79.6,78L80.9,76L80.8,71.4L79.5,64.3L79.3,59.8L80.2,58L79.8,56.2L78,54.5L77.9,52.9L79.3,51.2L79.2,50L77.3,49.1L75.7,46.9L74.3,43.5L74.6,38L77.3,27.7L77.6,26.9L80.8,27L80.8,27.4L90.6,27.3L101.8,27.2L115.1,27L127.1,26.9L127.6,26.5L129.7,25.9L141.8,27L149.5,26.4L152.7,26.8L155.1,27.5L160.3,27L163.2,27.3L165.3,29.8L166.1,29.8L167.3,28.7L169.5,27.5L171.6,26.5L173.2,24.6L174.1,23L175.5,23.3L177.4,23.2L178.9,21.9L179.3,20Z"/></svg>
