<svg xmlns="http://www.w3.org/2000/svg" viewBox="0 0 400 300"><path d="M0,3.3L0.6,3.2L14.1,8.8L25,4.8L32.5,6.2L35.4,1.7L112.9,1.4L113.3,0L290.2,0L290.2,0L290.2,0.1L273,3.2L246.6,5L239.5,12.1L227.2,12.9L214.8,13L209.9,9.1L199.3,12L181.3,20.3L177.6,26.5L162.5,35.4L159.9,40.5L151.8,44.6L142.5,41.9L137.2,46.8L134.4,60.3L119,76.7L119.5,83.4L114.2,91.7L115.5,103.1L107.5,106.1L103,108.5L100,100.1L94.5,102.4L91.1,102L87.6,107.7L72.6,107.5L67.3,104.6L64.8,106.4L58.8,100.7L59.9,94.9L57.5,92.6L53.3,94.5L54.1,88.1L58.1,83L50.1,74.8L47.9,69.3L43.5,65L39.7,64.5L35.1,67.2L28.8,69.9L23.5,74.2L15.2,72.6L9.9,67.5L6.7,66.9L1.6,69.5L0,69.5L0,3.3Z" fill="#2c2c34" stroke="#474751" stroke-width="0.8"/><path d="M113.3,0L112.9,1.4L35.4,1.7L32.5,6.2L25,4.8L14.1,8.8L0.6,3.2L0,3.3L0,0Z" fill="#2c2c34" stroke="#474751" stroke-width="0.8"/><path d="M271.9,183.4L256,185.7L251.2,172.3L252.1,127.5L248.2,123.5L247.4,113.8L240.7,107L234.8,101.2L237.2,90.8L243.9,88.6L247.8,80L257.3,78.1L261.5,72.3L268,66.5L274.9,66.4L289.7,77.8L288.9,84.3L293.2,96L289.5,103.9L291.5,109.2L282.1,121.3L276.1,127.3L272.5,139.6L273,152.1Z" fill="#2c2c34" stroke="#474751" stroke-width="0.8"/><path d="M400,54.4L394.1,54.7L370.6,44.5L361.5,49.3L351.7,49L344.4,41.5L325,34.1L304.3,36.4L299.3,40.7L296.6,52.2L291,60.1L289.7,77.8L274.9,66.4L268,66.5L261.5,72.3L261.9,58.7L239.7,54.2L239.1,44.6L228.2,31.6L225.6,22.5L227.2,12.9L239.5,12.1L246.6,5L273,3.2L290.2,0.1L290.2,0L400,0Z" fill="#2c2c34" stroke="#474751" stroke-width="0.8"/><path d="M400,179.8L398.3,179.9L389.1,198.6L384.1,212.3L364,219.3L356.7,218.3L349.3,222.6L333.9,222.2L323.5,210.1L317.2,196L303.5,183.2L288.9,183.5L271.9,183.4L271.9,183.4L273,152.1L272.5,139.6L276.1,127.3L282.1,121.3L291.5,109.2L289.5,103.9L293.2,96L288.9,84.3L289.7,77.8L291,60.1L296.6,52.2L299.3,40.7L304.3,36.4L325,34.1L344.4,41.5L351.7,49L361.5,49.3L370.6,44.5L394.1,54.7L400,54.4L400,179.8Z" fill="#2c2c34" stroke="#474751" stroke-width="0.8"/><path d="M400,231.8L392.8,229.1L388.9,220.5L383.9,217.7L384.1,212.3L389.1,198.6L398.3,179.9L400,179.8L400,231.8Z" fill="#2c2c34" stroke="#474751" stroke-width="0.8"/><path d="M237.2,90.8L234.8,101.2L240.7,107L247.4,113.8L248.2,123.5L252.1,127.5L251.2,172.3L256,185.7L240.4,189.9L236.1,183L230.9,170.7L229.4,161L233.6,143.4L228.8,136.3L227,120.9L227,106.7L219,96.5L220.3,90.4Z" fill="#2c2c34" stroke="#474751" stroke-width="0.8"/><path d="M64.8,106.4L67.3,104.6L72.6,107.5L87.6,107.7L91.1,102L94.5,102.4L100,100.1L103,108.5L107.5,106.1L115.5,103.1L124.2,107.4L127.6,113.9L136.3,118.1L143,113.1L152,112.4L165.3,117.4L170.4,145.3L162.3,161.6L157.2,183.6L165.6,200.3L164.7,208L155.9,208.2L142.4,204.4L130.1,204.6L107.2,208L93.8,213.6L74.6,220.7L70.9,220.2L72.4,204.2L74.2,201.8L73.7,194.2L65.5,186L59.3,184.7L53.7,179.4L57.9,170.8L55.9,161.3L56.8,155.7L59.9,155.7L61.1,147.2L59.5,143.4L61.4,140.7L68.6,138.3L63.8,122.7L59.3,114.5L60.9,107.9Z" fill="#2c2c34" stroke="#474751" stroke-width="0.8"/><path d="M0,69.5L1.6,69.5L6.7,66.9L9.9,67.5L15.2,72.6L23.5,74.2L28.8,69.9L35.1,67.2L39.7,64.5L43.5,65L47.9,69.3L50.1,74.8L58.1,83L54.1,88.1L53.3,94.5L57.5,92.6L59.9,94.9L58.8,100.7L64.8,106.4L60.9,107.9L59.3,114.5L63.8,122.7L68.6,138.3L61.4,140.7L59.5,143.4L61.1,147.2L59.9,155.7L56.8,155.7L51.4,155.2L47.4,163L42,162.9L38.2,158.8L39.5,150.9L31.4,139L26.4,141.2L22.3,141.6L16.9,142.8L17.1,135.6L14.1,130.5L14.7,124.8L10.5,116.5L5.1,109.5L0,109.5L0,69.5Z" fill="#2c2c34" stroke="#474751" stroke-width="0.8"/><path d="M0,171.7L3.5,167L4.5,161.3L13.3,150.7L22.3,141.6L26.4,141.2L31.4,139L39.5,150.9L38.2,158.8L42,162.9L47.4,163L51.4,155.2L56.8,155.7L56.8,155.7L55.9,161.3L57.9,170.8L53.7,179.4L59.3,184.7L65.5,186L73.7,194.2L74.2,201.8L72.4,204.2L70.9,220.2L65.8,220.4L45.9,211.1L28.4,196.4L11.9,185.7L0,174.3L0,171.7Z" fill="#2c2c34" stroke="#474751" stroke-width="0.8"/><path d="M0,109.5L5.1,109.5L10.5,116.5L14.7,124.8L14.1,130.5L17.1,135.6L16.9,142.8L22.3,141.6L13.3,150.7L4.5,161.3L3.5,167L0,171.7L0,109.5Z" fill="#2c2c34" stroke="#474751" stroke-width="0.8"/><path d="M115.5,103.1L114.2,91.7L119.5,83.4L119,76.7L134.4,60.3L137.2,46.8L142.5,41.9L151.8,44.6L159.9,40.5L162.5,35.4L177.6,26.5L181.3,20.3L199.3,12L209.9,9.1L214.8,13L227.2,12.9L225.6,22.5L228.2,31.6L239.1,44.6L239.7,54.2L261.9,58.7L261.5,72.3L257.3,78.1L247.8,80L243.9,88.6L237.2,90.8L220.3,90.4L211.4,88.8L205.2,92L196.6,90.6L163.1,91.5L162.6,102.7L165.3,117.4L152,112.4L143,113.1L136.3,118.1L127.6,113.9L124.2,107.4Z" fill="#2c2c34" stroke="#474751" stroke-width="0.8"/><path d="M399.2,300L399.4,299.4L400,297.1L400,300Z" fill="#2c2c34" stroke="#474751" stroke-width="0.8"/><path d="M400,282.5L399.7,282.2L400,281L400,282.5Z" fill="#2c2c34" stroke="#474751" stroke-width="0.8"/><path d="M218.5,88.5L219.8,89.7L220.1,90.4L219.6,92.9L218.7,94.7L218.1,96.4L218.3,97.2L218.7,98.1L220.6,99.4L221.6,100.2L222.8,101.5L224.1,102.8L226.3,104.4L227.2,104.7L227.2,105.1L226.9,105.8L226.7,111.9L226.5,113.5L226.3,114.3L226.1,116.6L225.9,116.9L225.5,116.9L225.1,116.9L225,117.4L225.1,117.8L226.5,118.2L226.2,118.5L225.2,118.8L224.7,119.5L224.9,120.3L224.4,120.9L224.6,121.4L224.9,121.7L225.5,121.6L227.1,120.5L227.7,120.4L228.6,120.6L230.1,122.2L230.1,123L229.5,125.7L228.9,127.8L228.8,130.5L229.5,132.1L229.3,132.9L228.6,133.6L227.1,134.7L227.2,135.4L227.9,136.8L229.2,138.3L231.8,140.2L233.1,142.6L233.2,143.6L232.4,144.6L231.5,145.5L231.2,146.7L231.6,154.9L229.5,158.4L229.5,159.4L229.7,160.6L230.3,161.3L231.3,161.5L232.2,162.1L231.9,164.6L231.4,167.1L231.3,168.4L231.1,169L230.3,169.4L230,170.2L230.2,171.2L230,171.9L230.5,172.9L231.4,174.1L232.9,177L233.5,177.2L233.7,177.8L233.6,178.4L234.1,179.7L235.8,181L237.5,182.1L238.9,182.3L239.3,183.3L240.2,184.5L240.9,185.1L241.9,185.5L242.8,185.7L242.8,186.8L241.3,187.5L240.2,188.6L239.3,190.3L238.2,192.2L234.4,193.1L232.9,193.2L224.9,193.2L217.4,196.9L213.2,198.2L210.5,200.2L207,201.7L204.5,203.5L199.3,204.4L190.9,207.1L188.2,208.3L185.6,210.2L181.2,212.5L179.5,212.5L176.1,210.3L173.5,209.3L167.3,207.6L162.6,207L160.3,206.3L159.8,206.2L160.3,205.4L161.6,205.4L163,205.6L163.9,205L165.5,204.9L165.9,204.3L166,202.8L166,201.5L166.5,201L166.7,199.5L165.9,196.3L165.4,195.9L162.7,195.4L162.5,194.8L162,194.1L161.4,192.4L160.9,189.9L159.9,186.8L158,181.7L157.6,179.9L157.3,178.1L157.2,175.9L157.6,175L157.5,173.9L157.4,172.8L158.7,170.2L161.2,167L161.7,165.9L162.2,165L162.3,163.9L162.8,160.2L163.9,155.7L164.7,154L165.2,153.1L165.8,151.6L166,150.9L168.3,149.1L169.4,148.6L169.6,148L169.3,147.2L169.4,146.7L170,146.4L170.8,146.2L171.4,145.5L170.5,139.9L169.7,134.4L169.6,133.9L169.2,133.1L168.7,130.9L167.9,129.5L166.8,129.1L166.9,127.9L168,125.7L168.2,124.5L167.7,124.1L167.6,123.2L168,121.6L167.8,120.6L167.6,119.6L166.4,117.1L166.2,115.4L166.8,114.4L166.7,112.2L166.1,108.8L166,106.6L166.4,105.8L166.2,104.9L165.4,104.1L165.3,103.3L166,102.5L166,101.9L165.1,101.5L164.3,100.4L163.6,98.8L163.7,96.1L165.1,91.2L165.2,90.8L166.7,90.8L166.7,91.1L171.4,91L176.8,91L183.2,90.9L189,90.8L189.3,90.6L190.2,90.3L196.1,90.8L199.8,90.6L201.3,90.7L202.5,91.1L205,90.9L206.4,91L207.3,92.2L207.8,92.2L208.3,91.7L209.4,91.1L210.4,90.6L211.2,89.7L211.6,88.9L212.3,89.1L213.2,89L213.9,88.4L214.1,87.5Z" fill="#b8e653" stroke="#0c0e06" stroke-width="1"/></svg>
