<svg xmlns="http://www.w3.org/2000/svg" viewBox="0 0 300 300"><path fill="#e8e8ea" d="M42.8,136.8L64.6,135.9L91.5,136.2L120.5,136.6L133.9,136.8L141.1,124.2L154.8,118.7L168.9,116.7L176.1,117.3L183.9,119.1L198.5,129.4L207.6,131.8L215.4,134.2L221,139.1L229.7,144.2L236.6,145.5L240.7,144.8L247.5,142.8L252.2,141.3L266.9,140.7L277.8,146.4L280,152.7L278.1,159.2L263.8,162.6L243.5,168L226.9,165.1L206.7,157.7L194.8,152.4L189.8,150.3L182.6,147L176.1,143.3L169.8,141L165.1,139.4L161.7,141.4L159.8,145.8L157,150.9L153.3,153.8L136.4,155.5L121.1,157.4L113,158.9L107.7,160.2L105.8,175.2L88.7,175L71.8,174.8L54,175L35.3,175.3L30.3,178.4L25.3,183.3L24.7,175.8L20,158.6L26.6,151.2L33.4,146.7L38.1,150.3L39.7,157.2L43.4,162L55.6,165.1L68.1,162.9L75.6,163.9L75.2,160L77.7,154.9L92.7,152.6L108.3,151.2L124.6,148.1L137.4,148.2L141.1,147.3L140.2,146.1L128.9,144.5L104.6,148.1L79.6,149.2L60.9,158.5L53.4,157.5L45.6,148.2Z"/></svg>
