<svg xmlns="http://www.w3.org/2000/svg" viewBox="0 0 400 300"><path d="M167.8,146.4L157.7,126.8L145.6,117.8L156.3,113L168.1,95.2L173.9,82.1L182.3,74L194.5,76.2L206.3,70.6L220,70.4L231.7,77.8L247.9,84.6L262.6,103.3L278.8,120.6L280,136.3L284.7,150.7L293.9,157.8L296,167.5L294.8,175.3L291.3,176.7L278,174.7L276.2,177.5L270.8,178L253.2,171.9L241.4,171.7L196.3,170.6L189.7,173.5L181.6,172.7L168.7,176.7L164.6,157.5L186.9,158.1L192.8,154.5L197.2,154.3L206.3,148.5L216.7,153.8L227.4,154.3L237.9,148.6L233,141.4L224.9,145.6L217.3,145.5L207.7,139.3L199.9,139.7L194.4,145.7Z" fill="#2c2c34" stroke="#474751" stroke-width="0.8"/><path d="M400,232.6L389.9,232.5L383.2,228.7L380,231L372.5,223.9L373.8,216.5L370.7,213.5L365.6,216L366.5,207.9L371.5,201.5L361.5,191L358.6,184.1L353.2,178.6L348.3,178L342.4,181.5L334.5,184.8L327.8,190.3L317.4,188.2L310.6,181.9L306.5,181.1L300.1,184.4L296.2,184.4L294.8,175.3L294.8,175.3L296,167.5L293.9,157.8L284.7,150.7L280,136.3L278.8,120.6L287,116L291.1,101.1L298.9,100.5L315.9,107.6L329.8,102.6L339.2,104.3L342.9,98.7L400,98.4L400,232.6Z" fill="#2c2c34" stroke="#474751" stroke-width="0.8"/><path d="M400,98.4L342.9,98.7L339.2,104.3L329.8,102.6L315.9,107.6L298.9,100.5L291.1,101.1L287,116L278.8,120.6L262.6,103.3L247.9,84.6L231.7,77.8L220,70.4L206.3,70.6L194.5,76.2L182.3,74L173.9,82.1L171.8,68.4L178.6,55.9L181.6,31.7L179,6.2L177.5,0L400,0Z" fill="#2c2c34" stroke="#474751" stroke-width="0.8"/><path d="M368.9,300L370,293.4L373.8,293.4L375.3,282.6L373.4,277.8L375.8,274.4L384.8,271.4L378.8,251.6L373.1,241.3L375.1,232.9L380,231L380,231L383.2,228.7L389.9,232.5L400,232.6L400,300Z" fill="#2c2c34" stroke="#474751" stroke-width="0.8"/><path d="M348.9,300L346.4,297.3L348.1,287.4L337.9,272.3L331.4,275.1L326.2,275.6L319.5,277L319.7,267.9L315.9,261.5L316.7,254.3L311.4,243.9L304.5,235L285,235L279.3,239.7L272.6,240.2L268.4,245.6L265.5,252.4L252.5,263.3L241.8,248.7L232.3,238.9L226,235.8L220,230.8L217.2,219.8L213.6,214.3L206.5,210.3L217.3,198.1L224.7,198.6L231.1,194.4L236.5,194.4L240.4,191.1L238.3,182.8L241,180.2L241.4,171.7L241.4,171.7L253.2,171.9L270.8,178L276.2,177.5L278,174.7L291.3,176.7L294.8,175.3L296.2,184.4L300.1,184.4L306.5,181.1L310.6,181.9L317.4,188.2L327.8,190.3L334.5,184.8L342.4,181.5L348.3,178L353.2,178.6L358.6,184.1L361.5,191L371.5,201.5L366.5,207.9L365.6,216L370.7,213.5L373.8,216.5L372.5,223.9L380,231L375.1,232.9L373.1,241.3L378.8,251.6L384.8,271.4L375.8,274.4L373.4,277.8L375.3,282.6L373.8,293.4L370,293.4L363.1,292.7L359.4,300L348.9,300Z" fill="#2c2c34" stroke="#474751" stroke-width="0.8"/><path d="M168.7,176.7L181.6,172.7L189.7,173.5L196.3,170.6L241.4,171.7L241,180.2L238.3,182.8L240.4,191.1L236.5,194.4L231.1,194.4L224.7,198.6L217.3,198.1L206.5,210.3L193.4,199.8L183.1,198.2L177.6,191.2L177.7,187.4L170.3,182.1Z" fill="#2c2c34" stroke="#474751" stroke-width="0.8"/><path d="M304.2,300L314.9,287.1L326.2,275.6L331.4,275.1L337.9,272.3L348.1,287.4L346.4,297.3L348.9,300L304.2,300ZM359.4,300L363.1,292.7L370,293.4L370,293.4L368.9,300L359.4,300Z" fill="#2c2c34" stroke="#474751" stroke-width="0.8"/><path d="M268.9,300L259.8,290.6L255.5,281.6L252.5,263.3L252.5,263.3L265.5,252.4L268.4,245.6L272.6,240.2L279.3,239.7L285,235L304.5,235L311.4,243.9L316.7,254.3L315.9,261.5L319.7,267.9L319.5,277L326.2,275.6L314.9,287.1L304.2,300L268.9,300Z" fill="#2c2c34" stroke="#474751" stroke-width="0.8"/><path d="M171.5,146.6L177.7,146.3L185.2,146.4L193.4,146.6L197.2,146.6L199.2,143.1L203.1,141.5L207,140.9L209.1,141.1L211.3,141.6L215.4,144.5L218,145.2L220.2,145.9L221.7,147.2L224.2,148.7L226.1,149L227.3,148.9L229.2,148.3L230.5,147.9L234.7,147.7L237.7,149.3L238.4,151.1L237.8,152.9L233.8,153.9L228.1,155.4L223.4,154.6L217.7,152.5L214.3,151L212.9,150.4L210.9,149.5L209.1,148.4L207.3,147.8L206,147.3L205,147.9L204.5,149.1L203.7,150.6L202.6,151.4L197.9,151.9L193.6,152.4L191.3,152.8L189.8,153.2L189.3,157.4L184.4,157.4L179.7,157.3L174.7,157.4L169.4,157.5L168,158.3L166.6,159.7L166.4,157.6L165.1,152.7L166.9,150.7L168.9,149.4L170.2,150.4L170.6,152.4L171.7,153.7L175.1,154.6L178.6,154L180.7,154.2L180.7,153.1L181.4,151.7L185.6,151L190,150.7L194.6,149.8L198.2,149.8L199.2,149.6L199,149.2L195.8,148.8L188.9,149.8L181.9,150.1L176.6,152.7L174.5,152.4L172.3,149.8Z" fill="#b8e653" stroke="#0c0e06" stroke-width="1"/></svg>
