<svg xmlns="http://www.w3.org/2000/svg" viewBox="0 0 400 300"><path d="M109.3,86.9L102.3,73.3L93.8,67.1L101.3,63.8L109.5,51.4L113.5,42.3L119.4,36.7L127.8,38.2L136,34.4L145.5,34.2L153.6,39.4L164.9,44L175.1,57L186.4,69L187.1,80L190.4,89.9L196.8,94.8L198.3,101.6L197.5,107L195,108L185.8,106.6L184.5,108.5L180.8,108.9L168.6,104.7L160.4,104.5L129.1,103.8L124.5,105.7L118.9,105.2L109.9,108L107.1,94.7L122.5,95L126.6,92.6L129.7,92.4L136,88.4L143.2,92.1L150.6,92.4L158,88.5L154.5,83.5L148.9,86.4L143.7,86.3L137,82L131.6,82.3L127.7,86.4Z" fill="#2c2c34" stroke="#474751" stroke-width="0.8"/><path d="M400,63.5L399.2,63.6L388.3,63.7L384,60.3L374.7,62.8L358.9,70.1L355.6,75.5L342.4,83.4L340.1,87.9L333,91.4L324.8,89.1L320.2,93.3L317.7,105.3L304.2,119.7L304.6,125.5L300,132.8L301.1,142.8L294.1,145.4L290.2,147.6L287.5,140.2L282.7,142.1L279.7,141.8L276.6,146.8L263.5,146.7L258.8,144.1L256.6,145.7L251.4,140.7L252.3,135.6L250.2,133.6L246.6,135.3L247.2,129.6L250.7,125.2L243.8,117.9L241.7,113.1L238,109.3L234.6,108.9L230.5,111.3L225,113.6L220.4,117.4L213.1,116L208.4,111.6L205.6,111L201.1,113.3L198.4,113.3L197.5,107L197.5,107L198.3,101.6L196.8,94.8L190.4,89.9L187.1,80L186.4,69L192,65.9L194.9,55.5L200.3,55.1L212.1,60L221.7,56.5L228.2,57.7L230.8,53.8L298.8,53.5L302.6,41.2L299.7,39L295.6,0L400,0Z" fill="#2c2c34" stroke="#474751" stroke-width="0.8"/><path d="M295.6,0L299.7,39L302.6,41.2L298.8,53.5L230.8,53.8L228.2,57.7L221.7,56.5L212.1,60L200.3,55.1L194.9,55.5L192,65.9L186.4,69L175.1,57L164.9,44L153.6,39.4L145.5,34.2L136,34.4L127.8,38.2L119.4,36.7L113.5,42.3L112,32.8L116.8,24.1L118.9,7.3L118.1,0L295.6,0Z" fill="#2c2c34" stroke="#474751" stroke-width="0.8"/><path d="M400,79.8L397.8,72.1L399.2,63.6L400,63.5L400,79.8Z" fill="#2c2c34" stroke="#474751" stroke-width="0.8"/><path d="M400,166.8L399,158.4L399,145.9L392,137L393.2,131.7L400,131.8L400,166.8Z" fill="#2c2c34" stroke="#474751" stroke-width="0.8"/><path d="M400,223L384.1,229L374.7,234.8L359.5,239.7L344.3,234.9L345.1,228.2L337.7,213.5L342.2,194.2L349.3,179.8L344.8,155.4L342.5,142.4L342.9,132.6L372.4,131.8L379.9,133.1L385.4,130.3L393.2,131.7L393.2,131.7L392,137L399,145.9L399,158.4L400,166.8L400,223Z" fill="#2c2c34" stroke="#474751" stroke-width="0.8"/><path d="M256.6,145.7L258.8,144.1L263.5,146.7L276.6,146.8L279.7,141.8L282.7,142.1L287.5,140.2L290.2,147.6L294.1,145.4L301.1,142.8L308.7,146.6L311.7,152.3L319.4,155.9L325.3,151.6L333.2,151L344.8,155.4L349.3,179.8L342.2,194.2L337.7,213.5L345.1,228.2L344.3,234.9L336.6,235.1L324.8,231.7L313.9,232L293.8,234.9L282,239.8L265.2,246.1L262,245.6L263.3,231.6L264.9,229.5L264.4,222.8L257.2,215.6L251.8,214.5L246.9,209.8L250.5,202.2L248.8,193.9L249.6,189L252.3,189L253.3,181.5L252,178.2L253.6,175.8L259.9,173.7L255.7,160L251.8,152.9L253.2,147Z" fill="#2c2c34" stroke="#474751" stroke-width="0.8"/><path d="M109.9,108L118.9,105.2L124.5,105.7L129.1,103.8L160.4,104.5L160.1,110.4L158.2,112.2L159.7,118L157,120.2L153.3,120.3L148.8,123.2L143.7,122.8L136.2,131.3L127.1,124L119.9,122.9L116.1,118L116.1,115.4L111,111.7Z" fill="#2c2c34" stroke="#474751" stroke-width="0.8"/><path d="M249.6,189L248.8,193.9L250.5,202.2L246.9,209.8L251.8,214.5L257.2,215.6L264.4,222.8L264.9,229.5L263.3,231.6L262,245.6L257.5,245.8L240,237.7L224.6,224.7L210.2,215.4L198.7,204.4L202.8,198.9L203.7,193.9L211.4,184.6L219.3,176.6L222.9,176.3L227.3,174.3L234.4,184.8L233.3,191.7L236.6,195.3L241.4,195.4L244.9,188.5Z" fill="#2c2c34" stroke="#474751" stroke-width="0.8"/><path d="M168.1,168.1L177.1,160.5L179.1,155.8L182,152.1L186.7,151.7L190.6,148.4L204.2,148.4L208.9,154.6L212.6,161.8L212.1,166.8L214.7,171.3L214.6,177.6L219.3,176.6L211.4,184.6L203.7,193.9L202.8,198.9L198.7,204.4L194.2,203.1L182,196.2L173.2,187L170.2,180.8Z" fill="#2c2c34" stroke="#474751" stroke-width="0.8"/><path d="M400,131.8L393.2,131.7L385.4,130.3L379.9,133.1L372.4,131.8L342.9,132.6L342.5,142.4L344.8,155.4L333.2,151L325.3,151.6L319.4,155.9L311.7,152.3L308.7,146.6L301.1,142.8L301.1,142.8L300,132.8L304.6,125.5L304.2,119.7L317.7,105.3L320.2,93.3L324.8,89.1L333,91.4L340.1,87.9L342.4,83.4L355.6,75.5L358.9,70.1L374.7,62.8L384,60.3L388.3,63.7L399.2,63.6L397.8,72.1L400,79.8L400,131.8Z" fill="#2c2c34" stroke="#474751" stroke-width="0.8"/><path d="M109.3,86.9L127.7,86.4L131.6,82.3L137,82L143.7,86.3L148.9,86.4L154.5,83.5L158,88.5L150.6,92.4L143.2,92.1L136,88.4L129.7,92.4L126.6,92.6L122.5,95L107.1,94.7Z" fill="#2c2c34" stroke="#474751" stroke-width="0.8"/><path d="M218.4,175.3L217.1,175.1L216.5,175.3L214.7,177.4L213.7,178.2L212.9,178.1L212.1,177.9L211.5,178.1L211.1,177.8L211.3,177.3L211.7,176.7L212.5,174.5L214.6,172.3L214.7,171.8L213.8,170.5L212.9,168.7L212.9,166.8L212.7,165.4L210.8,165L210.5,164.8L210.4,164.4L210.9,163.1L211.5,162L211.6,161.5L211.5,161L210.3,159.8L208.5,157.6L206.8,155.1L205.4,152.9L204.2,151.9L203.1,150.5L202.7,149.6L201.6,149.3L198.2,149.3L194.2,149.3L190.7,149.4L190.6,150.6L186.8,151.4L184.5,150.4L182,151L180.7,151.6L180.4,152.9L179.8,154.3L179.2,154.9L179,155.5L178.7,156.1L178.2,156.8L177.6,158.1L176.4,160L175.1,161.2L173,161.9L172.3,163.9L171.8,164.6L171,165.2L170,165.6L169.3,165.4L168.3,165.2L167.3,165.6L167.1,165.1L167.7,163.5L167.2,162.7L165.5,161L165.4,160.2L164.9,159.2L162.7,157.1L160.5,157.2L161.1,155.5L161.1,153.1L160.4,151.8L160.6,150.5L160.2,150.6L159.5,151.5L158.4,151.2L156.1,149.8L155,148.4L154.8,147.3L154.5,146.8L153.9,147.1L152.4,147L148.1,145L145,139.8L144.9,138.6L145.3,136.6L145.3,136L143.9,137.4L143.5,136.5L142.4,134.4L142.1,133.2L141.1,132.6L140.2,132.5L139.6,132.9L138.8,135.4L138.1,135.4L137.5,134.8L137.6,133L138.4,132.1L139.3,130.7L142.1,125L143.1,123.6L143.7,123.2L145.1,123.1L147.6,122.4L149.8,121.1L150.8,120.6L153.3,120.7L156.1,120.5L159.9,119.3L159.9,117.5L159.9,115.4L159.7,114.5L158.4,113.7L157.7,113.1L157,112.2L156.2,111.6L156.2,110.9L157.2,110.4L157.8,110.1L159.4,110.1L159.9,109.8L160.3,109.3L160.7,107.8L160.8,106.4L159.9,104.4L159.9,103L165.4,103.2L166,103.3L168.4,103.6L169.9,103.6L170.8,103.7L171.3,104L171.2,104.6L170.9,105.4L171.2,106.2L172.1,106.4L172.5,106.2L172.9,105.8L173.5,105.4L174.1,105.6L175.7,106.8L177.1,107.1L178.7,107.8L180.2,108.1L181.5,108.1L182.4,108.8L184.3,109L186.7,108.1L188.5,107.8L191.1,107.7L192.5,108L196.5,107.3L198.4,107.4L199.6,107.7L199.1,108.1L198.6,109.1L198.1,110.4L197.6,111.2L197.8,111.8L199.2,112.9L201,114.4L201.8,114.6L202.7,114.3L204,113L205.1,111.7L206.1,111.1L207.4,111.1L208.3,112L209.5,114.1L210.5,115.9L210.7,116.1L211.1,116.4L211.7,116.4L212.2,116L212.7,115.7L213.2,114.9L215.2,112.3L216.8,111.6L217.4,111.4L218.5,111L220.3,111.6L223,112.7L226.2,113.9L227.3,114.2L228,113.9L229,112.2L230.1,111.5L231.8,110.7L233.3,110.3L234,110.3L234.3,109.8L234.5,109L234.3,108.3L233.4,107L233.4,106.6L233.9,106.4L235,106.2L236.5,106.3L238.1,106.9L239.4,107.7L240.2,108.7L240.9,110.8L241.6,112.8L243.2,116L243.2,118L243.1,120.3L243.9,120.8L244.7,121L245,121.3L245.8,123.1L246.6,123.6L247.4,123.7L249.1,124.9L250.2,125.3L250.3,125.7L250.3,126.1L249.9,126.7L249.2,127.1L248.3,127.9L247.5,128.9L245.8,131.4L245.8,131.8L246.1,132.1L246.8,132.2L247.5,132L249,131.1L250.2,131.5L251.4,132.1L251.8,132.9L251.9,133.8L251.6,135L251.6,136.3L252,138.6L252.5,140.9L253.2,141.7L256.9,143.7L257.3,144.5L257.5,145.3L257.2,146.4L256.9,147.1L255.8,148.1L254.7,148.9L254.4,149.7L254.6,151.3L254.6,154.8L254.7,157.9L255.6,159L256.6,159.6L257.7,159.5L258.8,159.3L258.8,161.1L258.5,163.2L259.8,163.8L260.5,164.5L260.9,165L258.7,166.1L258.1,166.8L257.9,168.5L257.9,170.1L260.7,171.2L261.8,172.6L262.3,173.9L262.5,176.6L262.3,177.2L261.5,177.2L260.7,176.4L260.1,175.6L259.3,175.6L257.9,175.4L256.3,175.1L254.3,175.2L253.5,175.3L253,175.8L252.9,176.6L252.7,179.2L253.4,179.8L254.7,180.5L255.5,180.8L256.3,180.7L256.8,181.1L256.9,182.2L256.5,183.1L255.8,183.9L254.9,185.8L255.1,186.6L255.1,187.7L253.6,190.6L253.2,191.2L251.1,190.6L249.8,190.4L248.8,191.1L248.2,190.7L247.5,190L247.3,189.1L246.8,188.9L245.9,188.9L245.1,189.4L244.7,190.3L244.7,191.4L244.5,192.2L244.1,192.7L243,194L242.6,195.2L242,196.2L241.2,196.2L240.8,196L240.5,196.3L239.2,196.8L238.1,197L237.8,196.4L237.2,195.9L236.5,195L235.6,194.3L234.1,193.7L233.5,194L232.8,193.9L232.3,193.6L232.3,193.1L233.1,192L233.6,190.9L233.9,189.8L233.9,188.7L233.4,187.1L232.7,185.9L232.6,185.2L232.6,184.2L232.5,183.2L232.2,182.7L232.2,181.7L231.9,180.9L231.5,180.6L231.2,179.1L231.4,177.7L230.7,177.1L229.8,176.7L229.2,176.1L228.9,175.5L228.5,175.3L228.2,175.3L227.9,175.7L227.6,175.8L227.1,174.4L226.8,174.4L226.5,174.7L222.1,176.2L221.9,175.6L221.5,174.9L220.7,174.7L219.2,175.2Z" fill="#b8e653" stroke="#0c0e06" stroke-width="1"/></svg>
