<svg xmlns="http://www.w3.org/2000/svg" viewBox="0 0 300 300"><path fill="#e8e8ea" d="M188.2,202.6L185.5,202.2L184.2,202.7L180.7,206.9L178.5,208.6L176.9,208.5L175.1,208.1L173.9,208.4L173.1,207.9L173.4,206.9L174.3,205.6L176,201L180.4,196.3L180.5,195.3L178.6,192.6L176.9,188.9L176.7,184.9L176.5,182.1L172.5,181.3L171.8,180.8L171.7,179.8L172.7,177.2L173.9,174.9L174.1,173.8L173.8,173L171.4,170.4L167.7,165.8L164.2,160.5L161.2,156.1L158.8,154L156.5,151.1L155.7,149.2L153.2,148.5L146.3,148.6L137.9,148.6L130.8,148.7L130.4,151.2L122.6,152.9L117.8,150.9L112.5,152.1L109.9,153.3L109.2,156.1L107.9,159L106.8,160.2L106.4,161.5L105.6,162.7L104.6,164.1L103.4,166.9L100.9,170.8L98.2,173.4L93.8,174.8L92.4,178.9L91.4,180.5L89.6,181.7L87.7,182.5L86,182L84,181.7L82,182.5L81.6,181.4L82.9,178.1L81.9,176.4L78.3,173L78,171.3L76.9,169.2L72.3,164.8L67.9,165L69.2,161.3L69,156.4L67.6,153.8L68,151L67.1,151.2L65.7,153.1L63.4,152.5L58.6,149.5L56.3,146.7L55.9,144.3L55.4,143.4L54,143.9L51,143.8L42,139.5L35.5,128.7L35.4,126.3L36.3,122.1L36.1,120.9L33.2,123.7L32.6,121.8L30.3,117.5L29.7,115L27.5,113.9L25.7,113.7L24.4,114.5L22.7,119.6L21.3,119.6L20,118.5L20.3,114.7L21.8,112.8L23.7,109.9L29.5,97.9L31.7,95.2L33,94.2L35.8,94.1L41.1,92.6L45.5,89.9L47.7,88.8L52.8,89.1L58.7,88.6L66.5,86L66.6,82.5L66.5,78L66.2,76.2L63.6,74.6L61.9,73.2L60.5,71.4L58.9,70.1L58.9,68.8L61,67.6L62.3,67L65.5,67.1L66.6,66.4L67.4,65.3L68.3,62.3L68.5,59.2L66.5,55.1L66.6,52.2L78,52.6L79.2,52.9L84.3,53.5L87.4,53.4L89.4,53.7L90.2,54.3L90.1,55.5L89.5,57.2L90.1,58.9L91.9,59.3L92.8,58.8L93.7,58L94.8,57.3L96.2,57.7L99.5,60.2L102.4,60.9L105.7,62.2L108.8,62.9L111.5,62.9L113.5,64.3L117.3,64.7L122.2,62.9L126.1,62.2L131.5,62L134.4,62.6L142.7,61.1L146.8,61.4L149.2,61.9L148.2,62.9L147.1,65L146.1,67.6L145.1,69.4L145.5,70.5L148.3,72.8L152.1,76L153.7,76.4L155.5,75.7L158.3,73.1L160.6,70.4L162.8,69L165.3,69.1L167.2,71L169.8,75.3L171.9,79.2L172.3,79.5L173.2,80.2L174.3,80.2L175.5,79.2L176.4,78.7L177.4,76.9L181.7,71.5L185,70.1L186.1,69.6L188.4,68.8L192.2,70.1L197.8,72.3L204.6,75L206.8,75.5L208.2,75L210.3,71.3L212.7,70L216.2,68.3L219.2,67.5L220.8,67.3L221.4,66.3L221.7,64.8L221.4,63.3L219.5,60.6L219.5,59.7L220.6,59.2L222.8,58.9L225.9,59.1L229.2,60.3L232,62L233.5,64.1L235.2,68.4L236.4,72.6L239.9,79.4L239.9,83.5L239.7,88.3L241.3,89.2L242.9,89.6L243.7,90.3L245.3,94L246.8,95.1L248.6,95.4L252.2,97.7L254.3,98.6L254.7,99.4L254.6,100.3L253.7,101.6L252.4,102.4L250.4,104L248.8,106.2L245.3,111.2L245.2,112.2L246,112.9L247.4,113L248.9,112.7L251.9,110.8L254.5,111.5L256.9,112.9L257.6,114.3L257.9,116.3L257.4,118.8L257.3,121.5L258.2,126.3L259.3,131L260.6,132.7L268.4,136.9L269.2,138.5L269.6,140.2L269.1,142.6L268.3,143.9L266,146L263.9,147.6L263.2,149.4L263.6,152.6L263.6,160L263.9,166.4L265.6,168.8L267.7,170L270.1,169.7L272.4,169.3L272.3,173.1L271.6,177.4L274.4,178.8L275.8,180.1L276.6,181.3L272.1,183.6L270.9,184.9L270.3,188.5L270.5,191.8L276.3,194.2L278.6,197L279.6,199.8L280,205.3L279.5,206.5L278,206.5L276.2,204.8L274.9,203.2L273.4,203.2L270.3,202.8L267,202.2L262.9,202.3L261.3,202.7L260.3,203.6L260.1,205.3L259.7,210.8L261.1,212.1L263.7,213.4L265.5,214L267,213.8L268.2,214.7L268.4,217.1L267.6,218.8L266.2,220.4L264.3,224.6L264.6,226.1L264.6,228.4L261.5,234.5L260.6,235.6L256.4,234.5L253.6,234L251.5,235.6L250.3,234.6L248.9,233.2L248.4,231.4L247.4,231L245.5,231L243.8,232L243,233.9L242.9,236.1L242.7,237.8L241.6,238.8L239.5,241.5L238.6,244L237.3,246.1L235.7,246L234.8,245.7L234.3,246.2L231.6,247.4L229.3,247.8L228.7,246.6L227.4,245.6L225.9,243.6L224.1,242L220.9,240.9L219.7,241.4L218.1,241.3L217.1,240.7L217.3,239.7L218.9,237.3L219.9,235.1L220.4,232.7L220.4,230.4L219.5,227.2L218,224.6L217.8,223.1L217.9,221L217.5,219.1L217,218L216.9,216L216.4,214.3L215.5,213.6L215,210.6L215.2,207.5L214,206.4L211.9,205.5L210.8,204.3L210,203L209.4,202.6L208.7,202.7L208.1,203.5L207.5,203.7L206.3,200.8L205.8,200.7L205.1,201.4L195.9,204.5L195.5,203.3L194.8,201.9L193,201.4L189.9,202.4Z"/></svg>
