<svg xmlns="http://www.w3.org/2000/svg" viewBox="0 0 400 300"><path d="M274.9,300L276.4,298.3L289.8,298.6L290.1,300L274.9,300ZM309.7,300L314.9,294.5L329,282.5L335.3,274.7L334.4,254.6L345.1,230.8L356.2,218.2L372.3,206.4L375.1,198.6L375.8,189.7L379.7,181.2L378.5,167.3L381.5,145.7L386.3,130.4L393.6,117.4L395,102.6L397.2,85.5L400,81.9L400,300Z" fill="#2c2c34" stroke="#474751" stroke-width="0.8"/><path d="M366.2,0L352.4,4.2L347.7,0L366.2,0ZM340.9,0L337.7,4.5L317.5,6.4L321.1,0L340.9,0Z" fill="#2c2c34" stroke="#474751" stroke-width="0.8"/><path d="M11.1,0L9.9,35L9.9,35L0,36.4L0,0Z" fill="#2c2c34" stroke="#474751" stroke-width="0.8"/><path d="M237.3,0L233.4,7L231.1,17.3L214.3,25.5L200.6,15.4L191.4,15.8L176.9,30.2L169.7,30.5L158.1,54.2L151.9,71.5L126.5,80.3L117.2,79.1L107.8,84.5L88.3,84L75.2,68.6L67.2,50.9L49.8,34.7L31.5,35L9.9,35L9.9,35L11.1,0L237.3,0Z" fill="#2c2c34" stroke="#474751" stroke-width="0.8"/><path d="M321.1,0L317.5,6.4L305.2,31.3L299.3,35.8L297.5,54.8L299.9,65.2L297.9,72.5L309.5,85.3L311.5,94.1L320.6,106.7L331.8,114.6L332.8,125.7L335.4,132.8L333.6,146L314.3,140.2L294.5,133.8L263.7,132.8L260.6,131.5L246.2,134.7L231.3,131.4L219.7,133L179.9,132.4L183.5,113.1L174,96.9L162.8,92.8L157.9,81.8L151.5,78.3L151.9,71.5L158.1,54.2L169.7,30.5L176.9,30.2L191.4,15.8L200.6,15.4L214.3,25.5L231.1,17.3L233.4,7L237.3,0L321.1,0Z" fill="#2c2c34" stroke="#474751" stroke-width="0.8"/><path d="M400,81.9L397.2,85.5L395,102.6L379.4,101.2L362.8,97.1L348.2,110.1L335.4,132.8L332.8,125.7L331.8,114.6L320.6,106.7L311.5,94.1L309.5,85.3L297.9,72.5L299.9,65.2L297.5,54.8L299.3,35.8L305.2,31.3L317.5,6.4L337.7,4.5L340.9,0L347.7,0L347.7,0L352.4,4.2L366.2,0L400,0Z" fill="#2c2c34" stroke="#474751" stroke-width="0.8"/><path d="M290.1,300L289.8,298.6L276.4,298.3L274.9,300L256,300L256,300L252.5,296.8L246.8,300L226.4,300L226.4,300L215.2,285.5L233.9,272L224.6,255.8L233,249.7L249.4,246.7L251.5,235.9L264.5,247.6L286,248.6L293.5,237.1L296.7,220.8L293.9,201.8L282.4,187.3L293,159L286.9,154.2L268.7,156.1L261.8,143.5L263.7,132.8L294.5,133.8L314.3,140.2L333.6,146L335.4,132.8L348.2,110.1L362.8,97.1L379.4,101.2L395,102.6L395,102.6L393.6,117.4L386.3,130.4L381.5,145.7L378.5,167.3L379.7,181.2L375.8,189.7L375.1,198.6L372.3,206.4L356.2,218.2L345.1,230.8L334.4,254.6L335.3,274.7L329,282.5L314.9,294.5L309.7,300L290.1,300Z" fill="#2c2c34" stroke="#474751" stroke-width="0.8"/><path d="M219.7,133L231.3,131.4L246.2,134.7L260.6,131.5L263.7,132.8L261.8,143.5L268.7,156.1L286.9,154.2L293,159L282.4,187.3L293.9,201.8L296.7,220.8L293.5,237.1L286,248.6L264.5,247.6L251.5,235.9L249.4,246.7L233,249.7L224.6,255.8L233.9,272L215.2,285.5L190.1,260.8L174,240.6L159.1,215.4L159.9,207.3L165.3,199.5L171.1,181.7L176.1,163.6L184.3,162.1L219.9,162.4Z" fill="#2c2c34" stroke="#474751" stroke-width="0.8"/><path d="M246.8,300L252.5,296.8L256,300L246.8,300Z" fill="#2c2c34" stroke="#474751" stroke-width="0.8"/><path d="M157.6,96.3L158.2,96.5L161.8,96.4L162.9,97.6L162.8,99.6L159,105.1L158.3,107.5L156.8,109.4L155.6,109.6L151.3,108.4L150.5,107.7L150.2,106.8L150.7,104.6L151,103.9L153,103.5L153.7,103.1L154.9,100.7L155.2,98.5L156.1,96.9ZM220.9,135.3L221,140.9L221,145.7L221,150.9L221.1,156.3L221.1,160.9L221.1,163.8L216.1,163.8L209.5,163.8L202.8,163.8L196.2,163.8L192.9,163.7L189.2,163.7L188,163.9L187.2,164.6L186.2,164.8L185,164.1L183.7,163.8L183.4,163.2L182.7,162L181.3,161.8L180.6,162L179.6,162.7L178.5,163L178.7,162.5L176.5,161L174.9,160.9L173.5,160.4L174.7,156.6L176.2,153.2L178.4,150.6L179.5,150L179.9,148.7L181.6,144.5L183.8,141.1L183.1,137.7L183.6,131.9L184.3,132.1L184.3,132.6L184.5,133.5L185.3,134.1L188,135.3L196,135.3L200.8,135.3L207.8,135.3L215.3,135.3Z" fill="#b8e653" stroke="#0c0e06" stroke-width="1"/></svg>
