<svg xmlns="http://www.w3.org/2000/svg" viewBox="0 0 300 300"><path fill="#e8e8ea" d="M279,78.6L279.5,109.4L279.5,135.6L279.5,163.9L280,193.4L280,218.4L280,234.4L252.6,234.4L216.6,234.4L180,234.2L144,234.2L125.7,233.9L105.5,233.9L99.3,234.9L94.5,238.8L89.2,239.7L83,236.2L75.7,234.6L73.8,231.2L70,224.4L62.3,223.7L58.4,224.4L53.2,228.1L47.4,230.2L48.4,227.2L36.3,219.1L27.7,218.4L20,215.9L26.2,195L34.4,176.4L46.4,162.3L52.7,159.1L54.6,152.1L64.2,129.1L76.2,110.6L72.4,91.8L75.3,60.3L78.6,61.2L79.1,64.2L80.1,68.6L84.4,72.3L99.3,78.6L143,78.6L169,78.6L207.4,78.6L248.3,78.6Z"/></svg>
