<svg xmlns="http://www.w3.org/2000/svg" viewBox="0 0 300 300"><path fill="#e8e8ea" d="M154,159.2L156,164.4L158.1,166.2L162.3,168.3L164.4,168.7L171.5,172.5L180,173.2L181.1,174.3L182.1,177.2L183.8,179.5L184.2,181.3L183.3,183.3L184.5,189.4L186.7,195.1L189.9,197.9L193.8,198.7L197.7,198.6L198.6,199.8L198.2,204.7L196.6,206.8L195.3,207.2L194.1,206.7L193.2,205.5L192.1,204.9L189.9,204.8L188.2,202.8L184.2,200L183.6,198.4L183.4,195.8L181.6,194L180.1,190.4L178.6,189.4L177.8,187.6L177.7,186.8L171.8,186.3L167,186.3L162.9,184.3L161.6,179L159.2,177.5L157.4,176L155.9,173.9L151.9,170.1L147.7,166.8L143.6,164.7L139.2,163.3L135.6,164.9L133.6,164.6L133.2,163.5L137.7,161.2L143.7,157L147.9,155.6L150,155.4ZM170.5,322.9L173.2,323.2L176.7,323.1L177.5,322.9L179.7,320.1L182.5,320L183.7,322.8L181,324L180.3,324.7L180.8,325.3L183,326.4L185.9,325.9L186,328.1L186.6,329.8L188.1,330.9L189.6,331.1L193.2,330.7L196.6,330.1L200,328.7L203.6,328L214.4,328.7L218.2,331.6L225.5,332L232.3,333.6L235.9,332.5L242.1,331.5L243,332.6L242.2,339.2L242.6,341.2L244.4,342.1L246,341.7L248.2,339.5L253.3,337.8L258.6,337.8L263.2,333.4L264.5,333.2L263.7,335.3L263,340.4L262.1,343.3L261.7,345.7L258.6,346.9L254.1,347.1L245.8,346.7L237.5,347.5L222.1,349.7L206.6,350.8L204.5,350.1L204.5,347.1L204.1,345.1L203.2,343.7L198.4,342.5L193.8,340.4L176,337.4L171.8,336.3L164.9,337L162.5,336.9L160.7,335.8L159.5,334.1L158.9,328.5L159.9,322.9L161.2,321.4L161.9,323.1L163.7,323.8L165.3,322.1L165.3,319.6L166.2,317.3L167.4,318.2L168.4,321.9ZM264.5,21.4L268,22.5L269.9,24.2L271.1,25.7L273,27L274.4,27.3L275.5,31.8L276,37.4L275.2,39.9L272.7,40.4L264.9,45.7L264.7,50.5L264.8,52.9L264.9,54.5L265.8,55.9L265.8,57.9L264.9,60L261.5,63.6L259,66.5L256.4,70.3L254.9,70.9L253.7,71.5L252.7,69.4L246.9,65.6L233.2,63.5L226.6,60.7L223.7,61.2L218.2,58L214.4,59.4L206.3,64.9L202.1,64.3L197.4,61L194.4,60.4L190.8,62.1L185.1,68.5L179.3,71.7L174.1,70.4L167.1,70.4L166.4,74L167.8,76.4L171.5,80.6L169.7,83.8L171.1,87L173.6,87.6L177.4,87.4L184.2,91.5L187.3,95.8L189.2,100.5L185.1,97.1L182.2,93.9L178.4,92.7L172.9,89.9L169.5,89.5L165.9,91.4L165.5,93.5L169.5,97.6L173,100.1L174.9,102.1L176.2,106.6L175.5,108.1L174.1,109.5L169.9,106.7L163.4,96.7L154.4,94.7L152.9,96.8L154.7,102L155.9,104.1L163.8,109.9L163.2,111.1L162.1,111.6L153.2,108.3L150.5,103.3L150,97L141.9,92.7L134.2,87.9L132.5,83.3L134.1,81.7L135.2,78.4L131,79L128.4,81.1L124,83.1L123.8,86.4L124.5,89.6L123.1,94.1L121.8,101.9L122.6,106L131.9,117.7L135.1,126.2L137.3,129.4L142.1,133L147,139.5L149,143L150.5,148.5L146.4,152L144,152.2L142.7,150.6L144.5,146.8L144.2,144.4L137.8,140.8L135.1,142.1L132.1,144.4L133.8,148.8L135.8,151.7L136.8,155.6L140.7,155.3L135.5,159.7L130.7,162L125.9,162L122.7,162.5L121.8,163.6L124.2,164.4L126.3,164.5L129.6,166.9L138.9,169.8L143.4,173.3L147.8,173.7L152.2,180.3L159.9,182L164.1,188.7L170,190L174.9,192.5L176.4,194.7L177.1,198.9L177.4,207.9L178.5,214.5L178.5,216.6L178.2,219.7L177,221.3L175.1,221.3L171.5,216.5L166,211.4L160.3,205.2L158.6,204.2L157.3,204.1L154.1,206.2L145.5,207.8L141.5,209.9L140,210.4L139.5,211.6L141.4,212.9L143.7,215.6L143.7,219.4L145.6,224.1L148.1,225.2L151.4,225.1L153.2,226L153.7,227.8L155.6,230L156.9,231.6L156.7,232.6L147.7,235.7L145.9,237L144.2,237.8L141.9,236.3L141.8,232.6L138.8,230.7L135.9,229L132.5,228.2L129.6,225.7L127.7,227.8L129.2,234.9L132.5,239.9L137.9,253L140.4,260.7L141,264.4L139.7,270.6L142.3,275.2L144.2,279.9L142.2,279.8L140.4,278.1L137.5,276.1L131.8,268.6L129.7,263.9L127.4,263.5L123.3,264.2L118.6,274.2L118.8,280L116.3,278.6L114.4,276.8L114.5,270.5L114.4,267.9L108.9,259.3L106.3,258.3L105.2,255.4L103.1,252.3L100.5,253L98.4,254.2L97.8,258.8L97.5,263L96,266.2L90.1,260.2L84.2,249.8L84.1,244.2L88.4,239L87.8,235.2L83.7,227.8L77.8,223.1L74.5,221.6L73,216.6L69.9,214L67.3,212.8L66.7,210.9L67.5,209.6L73.7,204.4L77.4,196.3L79.2,195.8L82.9,197.8L87.1,197.3L90.5,192.5L93.4,189.9L98.4,190.2L109.3,196.6L121.2,200.3L127.1,203.5L130.5,206.7L132.3,207.3L135.1,207.8L134.9,205.4L134.1,203.3L136.4,202.1L142.7,202.2L144,201L145.1,199.3L143.8,197.3L141.6,196.3L139.5,196L137.9,195.3L135.6,196L131.8,194.4L129.9,193.1L128.8,191.7L122.3,189L116.2,184.5L114.8,187.1L112.2,188.4L108.8,188.7L98.8,185.7L92.6,188L89.3,188.5L86.7,188.6L83.6,189.6L80,190.2L76.8,186L75.6,182.7L74.7,182.1L74.5,185.2L73.6,187.7L69,189L66.3,187.1L64.2,181.3L61.8,174L57.3,168.1L53.6,166.5L53.1,163.2L53.6,160.7L57.9,160L64.8,162.7L66.3,162.2L67.8,160.9L67.5,158.1L66.6,155.7L64.7,155.5L63.3,155.8L59,155.3L53.7,156.7L51.1,155.4L50.3,153.8L45.7,149.9L41.8,144.6L35.5,141.1L31.2,130.3L27.8,125.6L24,122.2L24.8,122.2L26.3,122.7L28.9,124.6L31.8,125L33.4,123.7L34.4,122.6L34.9,120.8L35.2,118.6L35.6,117.9L37.8,118.1L38.5,117.6L38.5,115.6L37.1,113.2L35.7,110.2L35.7,108.8L36.8,108.2L38.6,106.9L39.4,105.3L41.4,104.5L44,104.4L47,103.7L49,101.9L49.3,100.3L50.5,95.5L51.2,93.2L52.6,91.1L53.3,88.3L54.7,85.6L57.5,84.4L60.1,83.1L62.1,79.7L63.1,76.7L63.1,75L61.5,71.9L60.3,69L60.7,65.3L65.9,65L67.7,64.7L74.4,64.4L77.4,62.4L79.4,62.6L84,64.3L85.9,63L91.6,60.2L97.4,52.3L99.9,51.1L105.3,50.7L107.1,49.8L109.2,50L115.3,51.5L118.9,51.8L123,50.7L127.7,48.7L128.8,42L129.9,41L132.7,40.7L134.9,40.7L139,41.3L144.1,41.4L147.3,38.3L152.3,38L154.7,37.6L158.5,38.3L162.3,38.2L167.1,36.9L171.6,34.7L175.2,34.8L176.6,34.5L177.4,34L178.4,31L184.9,30.9L187.3,31.1L191,31.2L194.8,29.6L195.9,29.8L197.8,34.1L198.9,35.4L201,36.5L205.6,39.8L206.4,38.9L208.4,37.8L214,39.3L219.3,41.8L223.8,45.5L228.8,44.4L234.3,42.6L238,42.1L241.8,41.8L244.1,41.1L249.3,42L254.8,40L257.4,38.3L258.2,35.7L257.8,31.3L256.6,27L255.2,25.3L254.8,23.6L255.5,22L256.3,21L259.9,20Z"/></svg>
