<svg xmlns="http://www.w3.org/2000/svg" viewBox="0 0 400 300"><path d="M400,18L393.4,22L383.2,16.7L387.2,4.6L375,0L400,0Z" fill="#2c2c34" stroke="#474751" stroke-width="0.8"/><path d="M315.3,0L315.5,4.6L306.6,10.2L301.1,7.8L296,38.6L285.2,35.9L271.9,26.7L250.4,32.6L241.3,39.1L214.4,37.8L200.4,33.8L193.3,35.6L188,25.2L184.7,20.7L188.9,16.4L184.4,13.2L178.7,19L168,11.5L166.5,0.8L165,0L315.3,0Z" fill="#2c2c34" stroke="#474751" stroke-width="0.8"/><path d="M188,25.2L193.3,35.6L200.4,33.8L214.4,37.8L241.3,39.1L250.4,32.6L271.9,26.7L285.2,35.9L296,38.6L286.5,49.1L279.8,66.9L285.7,81L269.9,77.7L251.3,85.5L251.1,97.6L234.5,100L221.6,91.4L207,98.1L193.4,97.4L192.1,81.2L182.9,73.3L186,69.8L184,66.9L187.1,58.9L194,51.1L185.1,40.2L183.5,31Z" fill="#2c2c34" stroke="#474751" stroke-width="0.8"/><path d="M400,213.5L396,217.6L368.3,220.2L353.5,208L333.7,207.2L329.5,216.6L316.8,219.3L299.2,207.3L279.2,207.7L268.4,184.8L255,172L263.9,153.8L252.3,142.5L272.6,119.6L300.8,118.7L308.5,100.3L343.3,103.5L365.3,87.7L386.7,80.8L400,80.5L400,213.5ZM251.3,85.5L269.9,77.7L285.7,81L287.9,90.5L303.9,98.3L300.5,104.3L278.8,105.7L271,113.1L255.7,126.1L250,114.9L250.2,109.9L254.5,107.2L260.2,92Z" fill="#2c2c34" stroke="#474751" stroke-width="0.8"/><path d="M158,109.5L157.7,115.8L151.7,119.3L150.7,127.1L142.2,138.6L139,137L138.7,131.8L128.5,123.7L127,112.3L128.5,95.7L131,88.1L127.9,84.2L126.7,76.4L134.6,64.2L135.8,68.8L140.7,66.7L144.6,73.3L149,75.8L150.2,84.8L147.9,93.1L150.5,103.6Z" fill="#2c2c34" stroke="#474751" stroke-width="0.8"/><path d="M127.9,0L121.2,9.2L112.9,3.4L100.3,3.8L86.5,0L127.9,0ZM76.5,0L76,0L72,5.4L66.1,0L76.5,0ZM65.3,0L61.6,10.2L70.6,22.2L74.6,30.1L83,39.6L89.9,45.2L96.9,55.7L113.1,65.1L111,69.4L93.8,60.2L83.2,51.1L66.5,43.7L51.2,25L54.8,23.1L46.5,12.3L46.1,3.5L35.9,0L65.3,0ZM34.1,0L28.8,10.6L23.4,2L23.4,0L34.1,0Z" fill="#2c2c34" stroke="#474751" stroke-width="0.8"/><path d="M0,8L0,8.5L0,8.6L0,8ZM0,20.6L3.8,28.9L21,41.6L30.2,62.4L50.6,82.3L64.9,82.2L69.3,87.6L64.2,92.5L80.6,101.3L94,108.6L109.7,121.2L111.6,125.7L108.2,134.2L98,123.1L82.1,119.1L74.5,134.6L87.6,143.4L85.5,155.7L77.8,157.1L68.1,177.1L60.4,178.9L60.5,171.8L64.3,159.3L68.2,154.2L61.1,140.6L55.5,128.6L47.9,125.6L42.5,115.2L30.7,110.8L22.8,101.1L9.3,99.5L0,92.3L0,20.6ZM43.6,173.5L57.5,171.4L50.9,189.7L53.6,196.8L49.8,208.5L35.7,199.9L26.5,197.5L1,185.8L3.5,173.8L24.9,176Z" fill="#2c2c34" stroke="#474751" stroke-width="0.8"/><path d="M400,234.7L393.7,239.6L395.1,243.8L393.1,243L389.6,244.7L386.9,244.2L385.9,245.1L385.6,242.8L384.3,241.4L380.7,241.2L375.8,243.1L372.4,242L372.4,242L373.6,241.9L376.2,236.4L389.4,236.7L400,232.5L400,234.7Z" fill="#2c2c34" stroke="#474751" stroke-width="0.8"/><path d="M372.4,242L375.8,243.1L380.7,241.2L384.3,241.4L385.6,242.8L385.9,245.1L386.9,244.2L389.6,244.7L393.1,243L395.1,243.8L395.6,245.6L376.8,254.6L367.9,251.8L363.7,242.8Z" fill="#2c2c34" stroke="#474751" stroke-width="0.8"/><path d="M0,291.9L5.2,293.8L12.9,291.9L28.2,295.5L39.4,300L0,300ZM149.3,300L155,295.6L167.7,292.7L192.4,297.1L194.2,300L149.3,300Z" fill="#2c2c34" stroke="#474751" stroke-width="0.8"/><path d="M66.1,0L72,5.4L76,0L76.5,0L86.5,0L86.5,0L100.3,3.8L112.9,3.4L121.2,9.2L127.8,9.1L123.3,20.4L132.1,30.2L129.4,42.1L125.1,43.3L121.7,45.5L115.8,51.4L113.1,65.1L113.1,65.1L96.9,55.7L89.9,45.2L83,39.6L74.6,30.1L70.6,22.2L61.6,10.2L65.3,0L66.1,0Z" fill="#2c2c34" stroke="#474751" stroke-width="0.8"/><path d="M182.9,73.3L192.1,81.2L193.4,97.4L189.9,98.3L186.9,102.5L177,102L170,107.3L158,109.5L150.5,103.6L147.9,93.1L150.2,84.8L152.5,85L153.4,79.9L164.2,76.1L168.3,75.2L174.5,73.7Z" fill="#2c2c34" stroke="#474751" stroke-width="0.8"/><path d="M165,0L166.5,0.8L168,11.5L178.7,19L184.4,13.2L188.9,16.4L184.7,20.7L188,25.2L183.5,31L185.1,40.2L194,51.1L187.1,58.9L184,66.9L186,69.8L182.9,73.3L174.5,73.7L168.3,75.2L167.7,73.3L169.8,70.4L171.9,64.3L169.3,64.5L165.8,59.8L162.7,58.7L160.4,54.7L156.9,53.1L154.3,49.6L151,51L148.5,59.3L144.1,61.1L145.6,58.9L138.6,53.7L132.6,51.1L130,47.6L125.1,43.3L129.4,42.1L132.1,30.2L123.3,20.4L127.8,9.1L121.2,9.2L127.9,0L165,0Z" fill="#2c2c34" stroke="#474751" stroke-width="0.8"/><path d="M140.7,66.7L135.8,68.8L134.6,64.2L126.7,76.4L127.9,84.2L124.1,82.3L118.9,74.3L111,69.4L113.1,65.1L115.8,51.4L121.7,45.5L125.1,43.3L130,47.6L132.6,51.1L138.6,53.7L145.6,58.9L144.1,61.1Z" fill="#2c2c34" stroke="#474751" stroke-width="0.8"/><path d="M150.2,84.8L149,75.8L144.6,73.3L140.7,66.7L144.1,61.1L148.5,59.3L151,51L154.3,49.6L156.9,53.1L160.4,54.7L162.7,58.7L165.8,59.8L169.3,64.5L171.9,64.3L169.8,70.4L167.7,73.3L168.3,75.2L164.2,76.1L153.4,79.9L152.5,85Z" fill="#2c2c34" stroke="#474751" stroke-width="0.8"/><path d="M283.2,210.1L282.8,210.4L281.9,209.4L281.9,208.8L282.8,208.2L283.3,208.1L283.4,208.5L283.4,209.4ZM150.6,167.9L150.9,170.6L152.1,171.1L153.8,173.5L153.7,174.7L153.3,175.1L150.5,174L149.8,174.5L149,174.3L148.5,173L148.6,172.5L148,171.7L147.7,171.4L146.6,172.4L145.9,172.6L145.9,171.6L146.9,169L147.4,168.5L148.2,169.4L148.9,169.1L149.4,167.6L149.5,166.2L149.7,165.7ZM155.7,181.3L157.6,183.6L156.1,183L154.4,184.6L152.3,182.8L151,180.9L150.7,180.2L152.1,178.5L153.3,180.2L154.8,180.5ZM152,162.6L151.3,162.8L150.7,162.7L150.1,162.8L149.5,163.2L149.6,161.4L150.3,159.1L151,157.7L152.1,157.1L152.6,158.2L152.5,161.9ZM153.3,169.1L152.4,169.4L151.3,167.1L150.8,165.6L151.3,165.5L151.7,165.7L152.3,166.3L152.3,166.9L152.4,167.5L152.9,168.3ZM140.9,143.2L141.3,144.5L138.9,143.7L137.3,142.5L135.9,139.6L133,136.3L133,135.3L134.1,134.5L136.4,134L137.4,134.6L138,135.1L138.2,135.8L136.9,137L136.6,137.6L137.6,138.8L137.6,139.2L138.1,141.5L138.6,142.3L139.9,143ZM201.9,154.4L202.9,156.9L203.9,157.8L205.9,158.8L206.9,159L210.3,160.8L214.4,161.1L215,161.7L215.4,163.1L216.3,164.2L216.5,165.1L216,166L216.6,168.9L217.7,171.7L219.2,173L221.1,173.4L222.9,173.4L223.4,173.9L223.2,176.3L222.4,177.3L221.8,177.5L221.2,177.2L220.7,176.7L220.2,176.4L219.2,176.4L218.4,175.4L216.5,174.1L216.1,173.3L216.1,172L215.2,171.1L214.5,169.4L213.8,169L213.4,168.1L213.3,167.7L210.5,167.5L208.2,167.5L206.2,166.5L205.6,163.9L204.4,163.2L203.6,162.5L202.8,161.5L200.9,159.7L198.9,158.1L196.9,157.1L194.8,156.4L193.1,157.2L192.1,157L191.9,156.5L194.1,155.4L197,153.3L199,152.7L200,152.6ZM208.6,150.7L207.8,151.5L206.5,151.2L205.1,148.5ZM210.5,149.7L209.7,150L210.5,148.1L212.1,147.1L211.5,148.7ZM225,157.9L223,158.5L222.5,158.4L222.9,157.7L222.9,157.4L221,156L221.3,154.3L221.5,153.9L222.9,154.8L223.2,156.3ZM226.7,115L224.4,115.8L222,114.2L222.1,113.2L223.3,111.2L224,110.7L225.8,110.8L226.7,112.2L227,112.8L226.7,113.9ZM204.3,178.5L203.6,179.1L202.8,179.1L202.2,178.9L202,178.4L202.3,178.2L202.8,177.2L203.2,177L203.8,177.1L204.1,177.5ZM195.3,218.3L195.1,219.3L193.2,218.6L192.7,217.6L192.6,215.4L193.1,214.3L193.4,213.9L194.3,215.2L196,217ZM270.7,234.7L270,235.9L269.3,234.9L269.6,233.7L268.8,231.7L270.3,228.8L270.3,227.4L271.5,226.7L271.3,229.1L270.3,231L271.3,232.6L271.7,234.4ZM267.8,200.8L266,201.1L266.3,199.3L265.5,197.9L266.9,198.7L267.8,199.6L268.2,199.8L268.1,200.4ZM266.5,206.1L266,206.1L266.7,205L268.6,203.5L271.4,202.2L272.3,202L273.9,202.9L271,204.2L270.2,204.9L268.1,205.1ZM240.9,200.6L239.3,201.5L238.1,200.2L237.5,198.2L240.5,195.4L241.2,195.6L241.6,196.4L241.6,198.9ZM236,198.3L234.5,200.1L233.3,199.9L232.8,199.1L233.6,197.4L235.2,196.4L235.9,196.7L235.8,198ZM239.7,213.7L238.9,214.9L237.7,214.5L238.1,214L238.5,213.4L238.5,212.6L238.1,212.1L238.3,211.9L239.5,212.7ZM237.9,207.3L237.5,207.7L236.2,206.2L235.6,205.4L236.3,204.7L238.3,206.3ZM264.3,181.2L266.5,182L267.1,181.9L268.2,182.1L268.5,183.5L267,183.8L264.6,185L263.6,184.8L262.4,183.6L260.4,183.5L259.8,183.2L260.9,181.9L262.8,181.2ZM249.7,187.7L248.9,187.8L249.1,186.8L250.8,185.2L253,185.2L255.1,184.4L255.6,184.4L254.6,185.6L253,186.8ZM246.6,204.7L245,204.8L244.5,204.7L245.4,204.3L246.2,203.9L246.5,203.4L248.1,202.4L249.2,201.3L250.4,202.1L248.9,202.6ZM257.6,209.3L256.2,209.9L255.3,211L254.1,210.2L254.1,209.1L255.3,209.5L256.2,208.8L255.9,208.1L256.9,208.5ZM219.1,186.6L217.8,187.7L217.7,186L218.4,184.3L219.5,184.2L219.9,184.9ZM220.5,192L219.5,192.6L219.9,191L219.4,190.2L219.8,189.5L220.5,188.9L220.8,189.5L221.4,190.5ZM222.4,205.3L222.4,206.6L222.3,207.1L218.6,207.7L218.9,206.2L219.1,205.7L220.4,206.4L220.8,206.1L221,205.7ZM229.8,188.5L229.8,190.9L229.2,190.9L229,190.5L229,189.6L229.2,188.2ZM230.8,182.4L230.2,183.9L228.8,182.1L227.2,180.9L226.6,179.8L225.7,179.1L225.4,177.7L226.5,177.1L227.1,177L228.3,178.8L230.1,179L230,180.1L230.5,181.5ZM235.6,186.1L234.9,187.6L233.7,187.3L231.8,185.7L231.2,185L230.8,184.3L231.6,184.2L232.5,185L235,185.4ZM225.8,201.6L225.4,201.8L225,200.8L224.8,199.9L225,199.4L225.7,199.3L226.5,201ZM250.9,171.7L249.1,173L247.2,171.1L246.9,170.5L248.3,169.8L249,168.6L248.5,167.1L246.4,165L246.4,163.4L249.4,162.8L251.2,164.1L252.1,164.2L251.8,165.5L251.9,165.9L252,169.8L251.2,170.3L251,171.4ZM256.7,145.6L256.4,147L258.9,149.4L259.7,150.8L260.1,152.3L259.9,152.7L258.9,151.9L258.1,151.7L258.4,152.7L259.2,153.5L257.8,154.1L256.3,154L252.1,152.8L251.2,151.5L253.7,149.5L254.2,148.8L252.4,148.8L250.5,151.2L247.5,150.2L246.6,149.2L246.3,148.7L247.6,146.6L249.7,146.7L250.8,146.3L252.2,145.6L252.2,144.6L255.5,144.4ZM243.4,119.5L241.4,120.1L239.1,118.1L241.3,117.4L242.3,117.9L243,118.6ZM238.9,130.1L238.2,130.9L237.7,132.3L237.4,134.3L236.4,134.4L235.7,133.9L235.5,133.2L235.4,132.2L235,132.3L234.6,133.3L234.2,133.8L233.2,133.9L232,133.2L232.1,131.9L231.8,130.3L231.9,129.7L235.2,129.6L236.1,130.8L237.3,130.1L237.7,129.3L239.1,128.9ZM238.3,190.2L236.5,190.4L236.6,188.6L237.3,188.2L239.3,189L239.3,189.6ZM222.2,197L221.5,197.4L220.4,196.8L220.7,195.6L221.4,195L222.3,195.4L222.4,196ZM282.9,224.2L281.5,224.7L281.1,224.6L280.6,223.6L281.3,221L280.6,219.4L280.6,218.7L281.7,217.8L282.4,216.4L284.2,214.8L288.9,213L290,212.8L290,214.2L288.4,217.9L287,219.7L287.4,221.1L285.2,221.6ZM209.9,233.1L211.1,233.3L212.8,233.2L213.2,233.1L214.3,231.8L215.6,231.7L216.2,233.1L214.9,233.7L214.6,234L214.8,234.3L215.9,234.8L217.3,234.6L217.3,235.6L217.6,236.5L218.3,237L219,237L220.7,236.9L222.4,236.6L224,235.9L225.8,235.6L231,235.9L232.8,237.3L236.3,237.5L239.6,238.3L241.3,237.7L244.3,237.3L244.7,237.8L244.3,241L244.5,241.9L245.4,242.3L246.2,242.1L247.2,241.1L249.7,240.3L252.2,240.3L254.4,238.2L255.1,238.1L254.7,239.1L254.3,241.5L253.9,243L253.7,244.1L252.2,244.7L250.1,244.8L246,244.5L242.1,244.9L234.6,246L227.2,246.6L226.2,246.2L226.2,244.8L226,243.8L225.6,243.1L223.2,242.5L221.1,241.5L212.5,240.1L210.5,239.6L207.2,239.9L206,239.8L205.1,239.3L204.5,238.5L204.3,235.8L204.7,233.1L205.4,232.4L205.7,233.2L206.6,233.6L207.4,232.8L207.4,231.5L207.8,230.4L208.4,230.9L208.8,232.6ZM255.1,88.2L256.7,88.7L257.6,89.5L258.2,90.2L259.1,90.9L259.8,91L260.3,93.2L260.6,95.9L260.2,97L259,97.3L255.3,99.8L255.1,102.2L255.2,103.3L255.3,104.1L255.7,104.8L255.7,105.7L255.3,106.8L253.6,108.5L252.4,109.9L251.2,111.7L250.5,112L249.9,112.3L249.4,111.2L246.6,109.4L240,108.4L236.8,107L235.4,107.3L232.8,105.8L231,106.5L227.1,109.1L225,108.8L222.8,107.2L221.3,106.9L219.6,107.8L216.9,110.8L214.1,112.3L211.6,111.7L208.2,111.7L207.9,113.5L208.6,114.6L210.3,116.6L209.5,118.2L210.1,119.7L211.3,120L213.2,119.9L216.5,121.9L217.9,123.9L218.8,126.2L216.9,124.6L215.5,123L213.6,122.4L211,121.1L209.4,120.9L207.6,121.8L207.4,122.9L209.4,124.8L211.1,126L212,127L212.6,129.1L212.3,129.8L211.6,130.5L209.6,129.2L206.5,124.4L202.1,123.4L201.4,124.4L202.2,126.9L202.8,127.9L206.7,130.7L206.3,131.3L205.8,131.5L201.5,130L200.3,127.6L200,124.5L196.1,122.4L192.4,120.2L191.6,117.9L192.4,117.1L192.9,115.6L190.8,115.9L189.6,116.9L187.5,117.8L187.4,119.4L187.8,120.9L187.1,123.1L186.4,126.9L186.8,128.8L191.3,134.5L192.8,138.6L193.9,140.1L196.2,141.8L198.6,144.9L199.5,146.6L200.3,149.3L198.3,151L197.1,151.1L196.5,150.3L197.4,148.5L197.2,147.3L194.1,145.6L192.8,146.2L191.4,147.3L192.2,149.4L193.2,150.8L193.7,152.7L195.5,152.5L193,154.7L190.7,155.8L188.4,155.8L186.9,156L186.4,156.5L187.6,156.9L188.6,157L190.2,158.1L194.7,159.5L196.8,161.2L198.9,161.4L201.1,164.5L204.7,165.4L206.8,168.6L209.6,169.2L212,170.4L212.7,171.5L213,173.5L213.2,177.8L213.7,181L213.7,182L213.6,183.5L213,184.3L212.1,184.3L210.3,182L207.7,179.5L204.9,176.6L204.1,176L203.5,176L202,177L197.8,177.8L195.9,178.8L195.2,179.1L194.9,179.6L195.9,180.2L197,181.6L197,183.4L197.9,185.6L199.1,186.2L200.7,186.1L201.5,186.5L201.8,187.4L202.7,188.4L203.3,189.2L203.2,189.7L198.9,191.2L198,191.8L197.2,192.2L196.1,191.5L196,189.7L194.6,188.8L193.2,188L191.6,187.6L190.2,186.4L189.3,187.4L190,190.8L191.6,193.2L194.2,199.5L195.4,203.2L195.7,205L195.1,208L196.3,210.2L197.2,212.5L196.2,212.4L195.4,211.6L194,210.6L191.2,207L190.3,204.7L189.1,204.6L187.2,204.9L184.9,209.7L185,212.5L183.8,211.8L182.9,211L182.9,208L182.9,206.7L180.2,202.6L179,202.1L178.5,200.7L177.5,199.2L176.2,199.5L175.2,200.1L174.9,202.3L174.8,204.3L174.1,205.9L171.2,203L168.4,198L168.3,195.3L170.4,192.8L170.1,191L168.1,187.4L165.3,185.1L163.7,184.4L163,182L161.5,180.8L160.2,180.2L160,179.3L160.4,178.7L163.3,176.2L165.1,172.2L165.9,172L167.7,173L169.8,172.7L171.4,170.4L172.8,169.2L175.2,169.3L180.4,172.4L186.2,174.2L189,175.7L190.6,177.2L191.5,177.6L192.8,177.8L192.8,176.6L192.4,175.6L193.5,175.1L196.5,175.1L197.1,174.5L197.6,173.7L197,172.7L196,172.2L194.9,172.1L194.2,171.8L193.1,172.1L191.2,171.4L190.3,170.7L189.8,170.1L186.7,168.8L183.7,166.6L183.1,167.8L181.8,168.5L180.2,168.6L175.4,167.2L172.4,168.3L170.8,168.5L169.6,168.6L168.1,169L166.3,169.3L164.8,167.3L164.2,165.7L163.8,165.4L163.7,166.9L163.2,168.1L161.1,168.8L159.8,167.8L158.8,165.1L157.6,161.5L155.4,158.7L153.6,158L153.4,156.4L153.6,155.1L155.7,154.8L159,156.1L159.8,155.9L160.5,155.3L160.4,153.9L159.9,152.7L159,152.6L158.3,152.8L156.3,152.6L153.7,153.2L152.4,152.6L152.1,151.8L149.9,149.9L148,147.4L144.9,145.7L142.9,140.5L141.3,138.3L139.4,136.6L139.8,136.6L140.5,136.9L141.8,137.8L143.2,138L144,137.4L144.4,136.8L144.7,136L144.8,134.9L145,134.6L146.1,134.7L146.4,134.4L146.4,133.5L145.7,132.3L145.1,130.9L145.1,130.2L145.6,129.9L146.5,129.3L146.8,128.5L147.8,128.1L149,128.1L150.5,127.7L151.5,126.9L151.6,126.1L152.2,123.8L152.5,122.7L153.2,121.7L153.5,120.3L154.2,119L155.5,118.5L156.8,117.9L157.7,116.2L158.2,114.8L158.2,113.9L157.5,112.5L156.9,111.1L157.1,109.3L159.6,109.1L160.4,109L163.6,108.9L165.1,107.9L166.1,108L168.3,108.8L169.2,108.2L171.9,106.8L174.7,103L175.9,102.5L178.5,102.2L179.4,101.8L180.4,101.9L183.3,102.7L185,102.8L187,102.2L189.3,101.3L189.8,98.1L190.3,97.6L191.7,97.5L192.8,97.5L194.7,97.7L197.2,97.8L198.7,96.3L201.1,96.2L202.2,95.9L204.1,96.3L205.9,96.2L208.2,95.6L210.4,94.6L212.1,94.6L212.8,94.5L213.2,94.3L213.6,92.8L216.8,92.7L217.9,92.9L219.7,92.9L221.5,92.1L222.1,92.2L223,94.3L223.5,94.9L224.5,95.4L226.7,97L227.1,96.6L228.1,96.1L230.8,96.8L233.3,98L235.5,99.8L237.9,99.2L240.5,98.4L242.3,98.1L244.1,98L245.2,97.6L247.8,98.1L250.4,97.1L251.6,96.3L252,95.1L251.8,92.9L251.2,90.9L250.6,90.1L250.4,89.2L250.7,88.5L251.1,88L252.8,87.5Z" fill="#b8e653" stroke="#0c0e06" stroke-width="1"/></svg>
