<svg xmlns="http://www.w3.org/2000/svg" viewBox="0 0 300 300"><path fill="#e8e8ea" d="M27.2,228.9L28.8,227.2L30.1,223.5L31.8,219.6L30.7,215.1L30.1,211.5L32.1,206.3L31.8,202.4L32.7,199.9L35.6,198.3L36.9,195.3L29,184.9L29,182.5L30.1,179.6L36.5,168.5L44.2,155.4L52.6,140.8L57.7,131.9L76.2,131.9L88.6,131.9L104.2,131.9L121,131.9L132.2,131.9L136.9,131.8L136,126L136.7,119.7L138.6,114L138.6,111.5L135.3,108.4L128.9,106.5L125.4,103.9L125.4,100.3L123.6,96.1L120.5,91.2L114.1,86.1L104.4,81L96.1,74L89.2,65.3L83.3,59.7L78.8,57.4L77.7,56L91,56.2L103.3,56.3L103.3,43.8L103.6,32.6L103.6,20L126.1,20.1L153,20.1L180.8,20.1L202.6,20.1L215.6,20.1L215,35.7L214.3,53.8L213.9,67.1L213.2,84.8L212.6,102.7L211.5,127.4L211,143.2L211.2,143.5L218.5,142.7L229.3,143.4L232,143.4L235.3,144.7L237.9,145.2L243.2,148.7L249.8,151.5L253.8,146L251.8,142.7L250.1,141.1L250.3,139.5L272.8,153.7L270.1,155.9L264.4,160.9L254,169.5L244.8,177.1L235.9,184.1L227.8,190.3L226.9,191L216.7,195.4L215,197.5L212.8,206.3L211.9,208.5L213.7,213.5L215.4,221L215,224.9L207.9,229.9L204.6,234.1L203.3,237L202,236.3L199.8,236.1L194.7,237.2L192.3,237.4L190.3,238.6L190,241.4L191.4,245.8L192,248.1L190.5,249.1L184.3,251.8L181.9,254.3L179.5,258.5L176.8,260.2L173.9,259.8L172,260.5L167.8,263.5L161.1,269.4L157.8,273.8L157.6,277L158.3,280L134.9,269.6L126.9,267.8L93.8,268.1L79.7,264L63.6,256.1L52.6,248.9Z"/></svg>
