<svg xmlns="http://www.w3.org/2000/svg" viewBox="0 0 400 300"><path d="M27,0L28.4,2.5L33.3,22.8L49.5,42.2L55.2,57L64.8,69.7L90.8,76.5L100.8,87.3L122.3,80.1L140.9,77.5L159.2,72.9L174.6,68.5L190.1,57.9L196,42.8L197.9,20.9L202.1,13.2L218.7,6.4L244.5,0.3L266.2,1.2L274.3,0L282.1,0L282.1,0L286.8,4.6L286.1,17.2L273,32.7L267.1,48.5L271.6,53L267.9,64.2L261.9,84.3L255.6,77.7L250.5,78.2L245.9,78.5L237.1,94L232.7,91L229.8,92.2L229.9,96L207.3,95.7L184.5,95.7L184.5,110.1L173.5,110.2L182.5,118.7L191.6,124.6L194.3,130.1L198.3,131.7L197.7,140.4L166.2,140.4L154.5,161.1L158,165.9L155.2,171.8L154.5,179.1L126.9,151.9L114.3,143.7L94.4,137L80.7,138.9L61,148.4L48.7,150.9L31.5,144.2L13.2,139.4L0,132.7L0,0Z" fill="#2c2c34" stroke="#474751" stroke-width="0.8"/><path d="M339.3,300L338.1,294.9L331.7,290.5L333.3,297.7L331.5,300L325.5,300L325.5,300L322.8,296.8L315,294.3L311.7,289.3L311.8,281.8L315,273.9L308.1,270.4L313.8,265.6L317.5,262.4L333.6,269L339.1,265.7L346.9,267.8L351,272.9L358.2,274.6L364,269.3L370.2,282.8L379.7,292.8L387.4,300L339.3,300Z" fill="#2c2c34" stroke="#474751" stroke-width="0.8"/><path d="M364,269.3L358.2,274.6L351,272.9L346.9,267.8L339.1,265.7L333.6,269L317.5,262.4L313.8,265.6L305.3,257.8L293.9,247.7L288.5,239.3L278.2,231.4L265.9,220.1L268.6,216.3L272.7,220L274.5,218.3L282.1,217.2L285.2,211.5L288.8,211.2L288.3,198.9L294,198.3L299.1,198.5L304.4,191.8L311.6,196.9L314.1,193.7L318.6,190.7L327.1,183.8L327.5,178.6L329.9,178.8L333,172.8L335.6,172.1L339.7,175.9L344.6,177.1L350,173.8L356.2,173.8L364.7,170.5L368,167.1L376.4,167.6L374.3,170L373.1,175.7L375.6,184.9L370,193.5L367.3,203.6L366.5,214.7L367.9,221.1L368.5,232.4L364.7,234.9L362.4,245.6L364.1,252.2L359.2,258.5L360.2,265.2Z" fill="#2c2c34" stroke="#474751" stroke-width="0.8"/><path d="M376.4,167.6L368,167.1L364.7,170.5L356.2,173.8L350,173.8L344.6,177.1L339.7,175.9L335.6,172.1L333,172.8L329.9,178.8L327.5,178.6L327.1,183.8L318.6,190.7L314.1,193.7L311.6,196.9L304.4,191.8L299.1,198.5L294,198.3L288.3,198.9L288.8,211.2L285.2,211.5L282.1,217.2L274.5,218.3L270.3,210.4L262.9,208.2L264.6,198.1L261.3,195.4L256.2,193.6L245.5,196.6L244.6,193.2L237.2,189.2L232,184.2L224.7,182L229.8,175.6L227.9,170.7L229.7,165.8L241.2,158.7L252.4,149L254.9,150L260.3,145.6L267.2,145.2L269.5,147.3L273.3,146L284.7,148.3L295.9,147.7L303.8,144.8L306.6,142L314.5,143.3L320.3,145L326.7,144.4L331.5,142.3L342.7,145.8L346.6,146.3L354.1,151.1L361.1,156.7L370,160.6Z" fill="#2c2c34" stroke="#474751" stroke-width="0.8"/><path d="M224.7,182L232,184.2L237.2,189.2L244.6,193.2L245.5,196.6L256.2,193.6L261.3,195.4L264.6,198.1L262.9,208.2L260.2,214.1L246,213.8L237.2,211.3L227.1,206.4L213.6,204.8L206.6,199.4L207.4,195.7L215.8,189.4L220.3,186.5L219,183.6Z" fill="#2c2c34" stroke="#474751" stroke-width="0.8"/><path d="M229.9,96L229.8,92.2L232.7,91L237.1,94L245.9,78.5L250.5,78.2L250.6,81.9L255.3,82.1L254.8,89L250.9,100.2L253,104.1L250.4,113.3L252,115.7L249.2,128.6L244.4,135.4L240,136.2L235.1,145L227.8,145L229.8,116.2Z" fill="#2c2c34" stroke="#474751" stroke-width="0.8"/><path d="M154.4,179L155,178.3L155.5,176.8L156.2,175.3L155.8,173.5L155.5,172.1L156.3,170L156.2,168.4L156.6,167.5L157.7,166.8L158.2,165.6L155.1,161.5L155.1,160.5L155.5,159.4L158.1,154.9L161.1,149.7L164.5,143.9L166.5,140.3L173.9,140.3L178.8,140.3L185.1,140.3L191.8,140.3L196.2,140.3L198.1,140.3L197.7,138L198,135.5L198.8,133.2L198.8,132.2L197.5,131L194.9,130.2L193.5,129.1L193.5,127.7L192.8,126.1L191.6,124.1L189,122.1L185.2,120L181.8,117.2L179.1,113.8L176.7,111.6L175,110.6L174.5,110.1L179.8,110.1L184.7,110.2L184.7,105.2L184.8,100.8L184.8,95.7L193.8,95.8L204.5,95.8L215.6,95.8L224.3,95.8L229.5,95.8L229.2,102L229,109.2L228.8,114.5L228.5,121.5L228.3,128.7L227.8,138.5L227.6,144.8L227.7,145L230.6,144.7L234.9,144.9L236,144.9L237.3,145.4L238.4,145.6L240.5,147L243.1,148.1L244.7,145.9L243.9,144.7L243.2,144L243.3,143.4L252.3,149L251.2,149.9L248.9,151.9L244.8,155.3L241.1,158.4L237.6,161.1L234.3,163.6L234,163.9L229.9,165.7L229.2,166.5L228.4,170L228,170.9L228.7,172.9L229.4,175.8L229.2,177.4L226.4,179.4L225.1,181.1L224.6,182.2L224,182L223.2,181.9L221.1,182.3L220.2,182.4L219.4,182.9L219.3,184L219.8,185.7L220.1,186.7L219.5,187L217,188.1L216,189.1L215.1,190.8L214,191.5L212.9,191.3L212.1,191.6L210.4,192.8L207.8,195.1L206.4,196.9L206.4,198.2L206.6,199.4L197.3,195.2L194.1,194.5L180.9,194.6L175.3,193L168.9,189.8L164.5,187Z" fill="#b8e653" stroke="#0c0e06" stroke-width="1"/></svg>
