<svg xmlns="http://www.w3.org/2000/svg" viewBox="0 0 400 300"><path d="M156.3,111.6L146.2,92L134,83.1L144.8,78.3L156.5,60.5L162.3,47.4L170.8,39.3L182.9,41.5L194.8,35.9L208.4,35.6L220.1,43.1L236.3,49.9L251.1,68.6L267.3,85.9L268.4,101.6L273.2,116L282.3,123L284.4,132.8L283.3,140.6L279.8,141.9L266.5,140L264.7,142.8L259.3,143.3L241.7,137.2L229.9,137L184.8,135.9L178.2,138.7L170.1,137.9L157.2,142L153.1,122.8L175.4,123.3L181.3,119.8L185.7,119.6L194.7,113.8L205.2,119.1L215.8,119.6L226.4,113.9L221.5,106.7L213.4,110.9L205.8,110.8L196.1,104.6L188.4,105L182.8,110.9Z" fill="#2c2c34" stroke="#474751" stroke-width="0.8"/><path d="M400,193.6L397.3,198L378.4,197.7L371.6,194L368.5,196.3L361,189.1L362.3,181.7L359.2,178.8L354,181.3L355,173.2L360,166.8L350,156.3L347.1,149.4L341.6,143.9L336.8,143.3L330.9,146.8L323,150.1L316.3,155.5L305.8,153.5L299,147.2L295,146.4L288.6,149.7L284.7,149.7L283.3,140.6L283.3,140.6L284.4,132.8L282.3,123L273.2,116L268.4,101.6L267.3,85.9L275.5,81.3L279.6,66.4L287.3,65.8L304.4,72.9L318.2,67.9L327.6,69.5L331.3,63.9L400,63.6L400,193.6Z" fill="#2c2c34" stroke="#474751" stroke-width="0.8"/><path d="M400,63.6L331.3,63.9L327.6,69.5L318.2,67.9L304.4,72.9L287.3,65.8L279.6,66.4L275.5,81.3L267.3,85.9L251.1,68.6L236.3,49.9L220.1,43.1L208.4,35.6L194.8,35.9L182.9,41.5L170.8,39.3L162.3,47.4L160.2,33.7L167.1,21.1L169.7,0L400,0Z" fill="#2c2c34" stroke="#474751" stroke-width="0.8"/><path d="M372.3,300L369.3,297L361.6,295.4L354.5,288.6L359.7,277.7L357.3,265.8L358.4,258.6L362.3,258.6L363.8,247.8L361.9,243.1L364.2,239.7L373.3,236.7L367.2,216.9L361.6,206.6L363.6,198.2L368.5,196.3L368.5,196.3L371.6,194L378.4,197.7L397.3,198L400,193.6L400,300Z" fill="#2c2c34" stroke="#474751" stroke-width="0.8"/><path d="M229.9,137L241.7,137.2L259.3,143.3L264.7,142.8L266.5,140L279.8,141.9L283.3,140.6L284.7,149.7L288.6,149.7L295,146.4L299,147.2L305.8,153.5L316.3,155.5L323,150.1L330.9,146.8L336.8,143.3L341.6,143.9L347.1,149.4L350,156.3L360,166.8L355,173.2L354,181.3L359.2,178.8L362.3,181.7L361,189.1L368.5,196.3L363.6,198.2L361.6,206.6L367.2,216.9L373.3,236.7L364.2,239.7L361.9,243.1L363.8,247.8L362.3,258.6L358.4,258.6L351.6,258L346.5,267.9L339.7,267.8L334.8,262.5L336.5,252.6L326.3,237.5L319.9,240.3L314.7,240.9L307.9,242.3L308.2,233.2L304.3,226.7L305.1,219.6L299.8,209.1L293,200.3L273.4,200.2L267.7,204.9L261,205.5L256.8,210.8L254,217.7L241,228.6L230.3,213.9L220.8,204.2L214.5,201L208.4,196.1L205.6,185.1L202,179.6L195,175.5L205.8,163.4L213.2,163.8L219.6,159.7L225,159.6L228.9,156.3L226.7,148L229.5,145.4Z" fill="#2c2c34" stroke="#474751" stroke-width="0.8"/><path d="M306.8,300L301.6,296.7L285.1,280.8L291,272.9L292.3,265.8L303.4,252.4L314.7,240.9L319.9,240.3L326.3,237.5L336.5,252.6L334.8,262.5L339.7,267.8L346.5,267.9L351.6,258L358.4,258.6L358.4,258.6L357.3,265.8L359.7,277.7L354.5,288.6L361.6,295.4L369.3,297L372.3,300L306.8,300Z" fill="#2c2c34" stroke="#474751" stroke-width="0.8"/><path d="M241,228.6L254,217.7L256.8,210.8L261,205.5L267.7,204.9L273.4,200.2L293,200.3L299.8,209.1L305.1,219.6L304.3,226.7L308.2,233.2L307.9,242.3L314.7,240.9L303.4,252.4L292.3,265.8L291,272.9L285.1,280.8L278.6,279L261,269L248.3,255.9L244,246.8Z" fill="#2c2c34" stroke="#474751" stroke-width="0.8"/><path d="M156.3,111.6L182.8,110.9L188.4,105L196.1,104.6L205.8,110.8L213.4,110.9L221.5,106.7L226.4,113.9L215.8,119.6L205.2,119.1L194.7,113.8L185.7,119.6L181.3,119.8L175.4,123.3L153.1,122.8Z" fill="#2c2c34" stroke="#474751" stroke-width="0.8"/><path d="M156.3,142.8L157.7,142.5L160.9,142.9L163.5,142.4L165.3,141.6L167.8,140.6L170.2,140.2L177.7,140.7L184.1,139.3L188.9,136.9L193.3,134.6L199.1,134.6L205.3,134.6L214.1,134.7L221,134.7L229.2,134.8L229.1,136.8L230.5,139.6L230.3,141.8L229.7,143.8L229.2,144.6L228.4,145.1L226.2,145L225.3,145.5L223.8,146.2L223.8,147.2L225,148.1L225.9,149.3L227.1,150.3L228.9,151.4L229.1,152.6L229.2,155.7L229.1,158.2L223.7,160L219.6,160.3L216.1,160.1L214.6,160.9L211.5,162.7L207.8,163.8L205.9,163.9L205,164.5L203.5,166.4L199.5,174.7L198.2,176.7L197.1,178L195.9,176.3L196.8,173L195.8,173.1L193.8,175.7L192.7,175.8L192.9,172.7L191.7,172.5L190.4,172.8L188.6,171.2L188.4,169.9L188.5,168.2L189.6,167.1L189.4,166.7L188.4,166.6L187.2,166.8L186.5,166.3L187.7,164.1L192,162.3L194.1,162.1L196.4,161.7L195.2,160.1L192.5,159.4L190.4,159.9L189.4,161L188,161.2L185.8,158.5L185.9,157.2L186.7,155.5L187.9,154.8L193,154.8L194.9,153.9L195.7,153.7L196.4,152.9L196.2,152.4L195.4,152.4L193.6,153.4L187.5,153L185.6,153.7L182.2,156.2L178.1,157.5L175.1,157L176.1,153.6L175.6,153.2L174.8,152.6L170.4,153.7L167,152.2L165.7,150.3L166,148L167.5,146.5L167.7,145.7L166,145.5L163.1,146.5ZM170.9,175.1L168.9,175.4L168.1,174.2L167.9,173.7L168.9,173.3L169.4,173.3L170.2,172.4L171.1,171.8L171.6,171.6L172,171.6L172.4,173.6L171.9,174.5ZM176.2,174.5L176,175.2L174.6,175.1L174.9,174.4L174.6,174.2L175,172.1L175.2,171.8L175.9,172.5L176,172.9ZM180.4,171.2L180.4,172.2L179.4,172L179.1,171.7L179.7,169.9L180.6,169L181.7,169.2L182.1,169.4L181.9,170.1L181.4,170.7ZM184.6,163.2L184.4,163.8L183,163.3L185,161.2L186.4,160.8L186.3,162.4L185.3,162.8ZM176.1,165L174.9,165.7L173.8,165.4L173.2,164.7L173.3,163.4L174.6,161.6L175.8,161.9ZM174,154.6L172.7,157.6L171.2,157.3L170.1,155.5L170,154.7L173.2,154.4Z" fill="#b8e653" stroke="#0c0e06" stroke-width="1"/></svg>
