<svg xmlns="http://www.w3.org/2000/svg" viewBox="0 0 300 300"><path fill="#e8e8ea" d="M20,102.6L24.9,101.7L36.3,103L45.3,101.4L51.7,98.6L60.4,94.8L68.7,93.4L94.9,95.3L117.3,90.6L134.3,82L149.7,74L170,74.1L191.6,74.1L222.4,74.3L246.7,74.4L275.4,74.6L275.1,81.6L280,91.6L279.4,99.1L277.2,106.2L275.4,109L272.6,110.6L264.9,110.5L261.8,112L256.6,114.7L256.6,117.9L260.6,121.1L264,125.4L268,128.9L274.5,132.7L275.1,137.1L275.4,148L275.1,156.6L256.3,162.9L241.8,163.9L229.5,163.3L224.2,165.9L213.5,172.4L200.5,176.2L193.7,176.5L190.7,178.8L185.4,185.5L171.3,214.5L166.6,221.5L162.9,226L158.6,220L162,208.5L158.3,208.6L151.2,217.9L147.5,218.2L148.2,207.3L144.1,206.8L139.5,207.6L133.1,202L132.4,197.7L132.7,191.7L136.8,187.9L136.1,186.4L132.4,185.9L128.1,186.8L125.7,185.2L130,177.4L145.1,170.9L152.5,170.1L160.5,168.8L156.2,163.2L146.9,160.9L139.5,162.4L135.8,166.5L131.2,167.3L123.5,157.7L123.8,153L126.6,147.2L130.9,144.8L148.5,144.8L155.2,141.6L158,141L160.5,138.1L159.9,136.3L157.1,136.2L150.6,140L129.4,138.4L122.6,140.7L110.9,149.5L96.4,154.2L85.9,152.2L89.3,140.6L87.8,139L84.7,137.1L69.3,140.9L57.6,135.5L53,129L53.9,121L59.1,115.5L60,112.8L54.2,112.3L43.7,115.6Z"/></svg>
