<svg xmlns="http://www.w3.org/2000/svg" viewBox="0 0 400 300"><path d="M15.3,300L22,259.2L22.4,251.9L19.8,242.2L12.2,236L12.3,223.7L21.8,220.9L25.2,222.6L25.8,216.2L15.9,214.4L15.7,203.8L48.7,204.2L54.3,198.4L59,203.7L62.3,213.7L65.5,211.6L74.8,220.6L88,219.5L91.3,214.3L103.9,210.3L110.9,207.6L112.8,200.4L124.9,195.6L124,192L109.6,190.5L107.3,179.9L108,168.5L100.4,164.1L103.5,162.5L116.1,164.7L129.6,169L134.5,164.9L146.7,162.3L165.6,155.9L171.8,149.5L169.5,144.6L178.4,143.9L182.3,147.8L180.1,155.3L185.9,157.9L189.8,165.7L185.1,171.7L182.4,186.2L186.7,194.7L188,202.6L198.4,210.5L206.7,211.4L208.6,208L213.9,207.3L221.6,204.3L227.1,199.8L236.5,201.3L240.6,200.7L249.8,202.1L251.3,198.6L248.5,195.2L250.2,190.3L257.1,191.8L265,190.1L274.7,193.7L282.1,197.2L287.4,192.6L291.1,193.3L293.5,198.1L301.6,196.9L308.1,190.4L313.3,177.9L323.3,162.4L329.1,161.6L333.3,171L342.7,200.6L351.8,203.4L352.3,215.1L339.6,229.1L344.8,234.2L374.8,236.8L375.4,253.8L388.2,242.7L400,246.1L400,300Z" fill="#2c2c34" stroke="#474751" stroke-width="0.8"/><path d="M0,271.9L11.8,279L0.8,296.3L5.9,296.7L9,300L0,300Z" fill="#2c2c34" stroke="#474751" stroke-width="0.8"/><path d="M9,300L5.9,296.7L0.8,296.3L11.8,279L0,271.9L0,112.6L0,112.6L1.1,112.5L11,114.7L22.9,129.3L29.8,127.5L42,128.4L51.6,126.5L57.6,129.4L54.6,138.6L50.8,144.3L49.5,156.5L52.9,167.8L57.7,172.8L58.2,176.6L49.7,185.1L55.8,188.8L60.3,194.7L65.5,211.6L65.5,211.6L62.3,213.7L59,203.7L54.3,198.4L48.7,204.2L15.7,203.8L15.9,214.4L25.8,216.2L25.2,222.6L21.8,220.9L12.3,223.7L12.2,236L19.8,242.2L22.4,251.9L22,259.2L15.3,300L9,300Z" fill="#2c2c34" stroke="#474751" stroke-width="0.8"/><path d="M0,42.2L9.9,38.9L7.6,30.7L13.5,25.3L19.6,37.4L31.5,37.7L42.5,47.3L43.2,53L58.4,53.2L76.5,51.4L86.2,59.1L99.2,61.3L108.6,55.9L108.9,51.5L129.8,50.5L150.1,50.3L135.7,55.4L141.5,63.5L155.1,64.8L167.9,73.2L170.6,87L179.4,86.6L186.1,90.6L172.6,100.7L171.2,106.9L177,113.2L172.8,116.4L162.3,119.2L162.6,127L158.1,131.7L169.5,144.6L169.5,144.6L171.8,149.5L165.6,155.9L146.7,162.3L134.5,164.9L129.6,169L116.1,164.7L103.5,162.5L100.4,164.1L108,168.5L107.3,179.9L109.6,190.5L124,192L124.9,195.6L112.8,200.4L110.9,207.6L103.9,210.3L91.3,214.3L88,219.5L74.8,220.6L65.5,211.6L60.3,194.7L55.8,188.8L49.7,185.1L58.2,176.6L57.7,172.8L52.9,167.8L49.5,156.5L50.8,144.3L54.6,138.6L57.6,129.4L51.6,126.5L42,128.4L29.8,127.5L22.9,129.3L11,114.7L1.1,112.5L0,112.6L0,42.2Z" fill="#2c2c34" stroke="#474751" stroke-width="0.8"/><path d="M274.7,193.7L265,190.1L257.1,191.8L250.2,190.3L248.5,195.2L251.3,198.6L249.8,202.1L240.6,200.7L230.3,185.9L228,176.4L222.6,176.3L215.1,164L218.2,155.2L217.3,151.2L227.6,146.8L230.3,131.5L250.6,134.9L252.4,131.8L266.1,130.6L284.3,135.2L275.5,149.8L276.9,161.4L283.5,171.5L280.5,178.8L279.1,186.6Z" fill="#2c2c34" stroke="#474751" stroke-width="0.8"/><path d="M323.3,162.4L313.3,177.9L308.1,190.4L301.6,196.9L293.5,198.1L291.1,193.3L287.4,192.6L282.1,197.2L274.7,193.7L279.1,186.6L280.5,178.8L283.5,171.5L276.9,161.4L275.5,149.8L284.3,135.2L290.1,137L302.6,141.1L320.5,155.4Z" fill="#2c2c34" stroke="#474751" stroke-width="0.8"/><path d="M153.5,49.5L163.3,47.2L166.8,47.9L166.1,60.7L152,62.6L148.9,61L153.9,56.3Z" fill="#2c2c34" stroke="#474751" stroke-width="0.8"/><path d="M169.4,144.6L165.8,140.6L162.2,136.6L158.7,132.6L158.4,132.1L159.9,130.2L161.2,128.8L162.3,128.1L162.8,127.4L162.5,124.5L162.5,123.4L162,122.3L161.6,121L162,119.9L162.6,119.2L163.3,118.9L164.9,118.7L166.1,118.5L166.5,118.1L167.2,117.6L168.1,117.6L169.8,117.9L170.6,117.3L172,116.4L175.3,114.9L176,113.9L176.6,112.4L176.5,111.7L176.1,111.4L175.3,111.2L174.1,111.1L173.1,111.5L172.1,111.3L171.2,110.4L171.2,109.6L171.7,108.5L171.4,107.8L169.8,105.5L169.8,104.8L171,103.8L171.7,102.9L172.5,100.8L173.3,100.1L175.5,99.8L176.1,99.4L177.3,98.3L179,97L181.4,96L182.2,94.1L182.6,93.6L184.5,92.6L184.9,92.1L184.8,91.7L181.7,87.5L182.3,87.8L184.7,90.5L186.1,91.1L186.4,91.1L186.4,90.4L187.7,90.7L190.8,92.6L195.5,95.6L202.1,101.4L204,103.6L205.2,104.7L207.2,107.2L207.8,108.4L207.7,113.3L206,116.6L205.6,119.1L205.5,122.5L204.5,124.4L205.8,123.3L206.2,120.3L207.3,118.5L208.8,116.5L210.8,116.1L213,116.9L214.7,117L216.1,117.6L219.4,120.8L222.5,123.4L223.6,125.4L227,126.4L228.9,128L229.5,129.4L230,133L229.3,138.4L229.5,138.7L228.6,139.8L228.5,140.5L227.8,141.7L227.4,142.3L228.1,143.9L228.8,143.9L229.1,144.1L229.3,144.4L229.2,144.7L228.9,145L228.3,145.4L227.5,146.2L227.6,147.2L227.2,147.7L225.8,148L223.1,148L221.8,148L220.8,148.2L220,148.8L219.2,149.3L218.5,149.4L217.9,150.1L217.3,151.1L217.5,151.8L218.1,152.7L218.4,153.7L218,155.2L217.5,156.4L217.1,157.3L216.7,159.1L215.7,161L214.9,162.1L214.9,163.3L215.3,165L217.4,167.5L218.1,168.7L218.7,170.6L220.6,172L221.8,173.2L221.7,174.8L221.9,175.3L222.6,175.7L223.5,176L224.5,176L225.4,175.9L225.6,175.6L227.7,175.6L227.9,176L228,178.3L228.1,179.2L228.6,179.6L228.9,180.2L228.9,180.7L229,182L229.3,182.6L229.2,184L229.5,184.5L230,184.8L230.8,185.8L231,186L231.1,186.3L231.8,187.7L232.1,188.1L232.3,188.2L232.4,188.6L232.8,190L233.1,190.3L233.8,191.2L233.9,192.3L234.7,193.5L235.5,194.3L235.8,195.1L236.9,197L237.8,198.3L239.1,198.7L240.2,198.9L240.9,199.4L241.6,200L240.8,200.2L240.2,200.6L239.3,200.3L238,200.4L236.7,200.8L235.6,201L233.3,200.4L232.7,200.3L232.2,200.1L231.3,198.9L230.8,198.7L229.6,199.3L228.1,199.7L227.4,199.6L226.6,200L225.8,200.5L224.3,202.8L223.6,203.6L222.7,204L221.1,204L219.3,204.1L218,204.6L216.7,204.9L216.1,204.9L215.9,206.2L215.6,206.8L215.3,207.1L214.3,207.2L213.4,207.2L212.9,206.6L212,206.4L211.1,206.2L210.5,205.9L210.1,206L209.7,206.5L209.4,206.9L209.2,207.8L207.8,208L207.3,208.5L207.6,210L207.5,210.6L207.2,211.1L205.6,211.2L204.2,211.1L203.5,211.7L202.5,212.4L201.9,212.5L201.3,212.5L200.3,211.7L199.5,210.8L197.2,210.1L195,209.6L193.6,208.1L193.2,207.3L192.5,207L190.8,205.2L189.8,204.1L188.8,203.8L187.7,203.3L187.7,202.4L187.6,201.6L187.1,201.3L186.4,201.1L186.1,200.7L186.2,199.6L186.3,196.9L186.1,194.3L184.5,193.4L183.9,192.8L182.6,189L182.1,187.3L182,186L182.5,182.2L182.9,180.5L184.1,177.2L184.8,176.1L184.9,175.3L184.8,174.2L184.4,172.1L186.6,170.7L187.4,170.1L187.6,169.3L188.7,168.1L189.2,167L189.6,166.2L189.5,165.7L189,165.5L188.4,164.7L187.2,162.3L186.8,161.9L186.4,161.2L186.6,160.2L187,159.1L187,158.6L186.3,158L184.8,157L183.6,156.9L182.6,156.5L181.2,156.5L180.1,156.4L179.5,156L179.6,155.4L179.8,154.9L180.8,153.7L181.4,152.5L181.6,151.2L181.7,149.6L182,148.2L182.2,146.6L180.6,145.6L180.2,144.7L179.6,144L178.9,144L177.9,143.7L176.3,144.7L175,144.5L174.2,144.9L172.2,144.8L170.9,144.3Z" fill="#b8e653" stroke="#0c0e06" stroke-width="1"/></svg>
