<svg xmlns="http://www.w3.org/2000/svg" viewBox="0 0 300 300"><path fill="#e8e8ea" d="M86.4,138.8L78.9,130.5L71.4,122.1L64.1,113.9L63.5,112.7L66.6,108.8L69.4,106L71.7,104.4L72.7,103L71.9,96.9L71.9,94.7L70.9,92.3L70.1,89.7L71,87.5L72.2,85.9L73.6,85.3L77,84.8L79.4,84.6L80.3,83.7L81.7,82.7L83.6,82.6L87.3,83.3L88.9,82L91.8,80.1L98.6,77L100.1,75L101.2,71.8L101.1,70.3L100.3,69.8L98.7,69.2L96.2,69.2L94.1,70L92,69.5L90.2,67.6L90.1,65.9L91.2,63.7L90.6,62.2L87.1,57.4L87.1,56L89.7,53.9L91.1,52.1L92.9,47.6L94.4,46.2L99.1,45.6L100.3,44.7L102.7,42.4L106.3,39.8L111.4,37.6L112.9,33.8L113.8,32.7L117.8,30.7L118.6,29.6L118.5,28.7L111.9,20L113.1,20.6L118.2,26.2L121.1,27.5L121.6,27.5L121.6,26L124.3,26.6L130.9,30.5L140.7,36.9L154.4,48.9L158.3,53.6L160.8,55.7L165,61L166.2,63.5L166,73.7L162.5,80.6L161.6,85.8L161.4,92.8L159.3,96.7L162.1,94.5L162.9,88.3L165.3,84.5L168.3,80.4L172.5,79.4L177,81.1L180.5,81.4L183.6,82.7L190.3,89.3L196.9,94.6L199.2,98.8L206.1,100.9L210.2,104.2L211.5,107.1L212.3,114.6L211,126L211.3,126.5L209.4,128.8L209.2,130.2L207.9,132.7L207,134.1L208.4,137.2L209.9,137.3L210.6,137.8L211,138.4L210.8,139.1L210.2,139.6L208.8,140.4L207.3,142.2L207.4,144.2L206.5,145.3L203.7,145.8L198.1,145.8L195.4,145.9L193.2,146.2L191.7,147.5L189.9,148.5L188.5,148.7L187.2,150.2L186,152.3L186.3,153.7L187.6,155.7L188.4,157.7L187.4,160.9L186.3,163.4L185.6,165.3L184.8,169L182.7,172.9L181,175.2L181,177.7L181.9,181.2L186.2,186.4L187.7,188.8L188.9,192.7L192.8,195.8L195.4,198.3L195.1,201.6L195.5,202.7L197,203.5L198.9,204.1L200.9,204.1L202.8,203.8L203.2,203.3L207.5,203.3L208,204.1L208.3,208.9L208.4,210.8L209.4,211.6L210.1,212.8L210.1,213.8L210.3,216.5L211,217.9L210.8,220.7L211.3,221.8L212.5,222.5L214,224.5L214.5,224.8L214.8,225.5L216.2,228.4L216.8,229.3L217.2,229.4L217.4,230.4L218.3,233.1L218.9,233.8L220.2,235.7L220.6,238L222.2,240.4L223.9,242.1L224.5,243.9L226.7,247.8L228.6,250.6L231.4,251.3L233.7,251.7L235.1,252.8L236.5,253.9L234.9,254.4L233.7,255.2L231.8,254.6L229.1,254.9L226.4,255.6L224,256.1L219.3,254.8L217.9,254.7L216.9,254.1L215,251.7L214,251.4L211.6,252.5L208.5,253.3L207,253.1L205.2,254L203.7,255.1L200.6,259.9L199,261.5L197.3,262.3L193.8,262.3L190.2,262.4L187.5,263.6L184.8,264.2L183.6,264.3L183.2,266.8L182.5,268.1L181.8,268.8L179.7,269L178,268.9L176.8,267.8L174.9,267.3L173,266.8L171.9,266.2L171,266.4L170.2,267.5L169.6,268.4L169.1,270.1L166.3,270.7L165.2,271.7L165.8,274.9L165.5,276.1L164.9,277.1L161.6,277.3L158.8,277.2L157.3,278.4L155.3,279.8L154,280L152.6,279.9L150.7,278.3L148.9,276.4L144.2,275L139.7,273.9L136.6,270.8L135.9,269.2L134.5,268.6L130.9,264.8L128.9,262.4L126.7,261.8L124.3,260.8L124.3,259.1L124.2,257.4L123.2,256.7L121.6,256.3L121.1,255.4L121.3,253.2L121.5,247.6L121.1,242.2L117.8,240.3L116.4,239.1L113.9,231.1L112.8,227.5L112.6,224.8L113.5,216.9L114.4,213.5L117,206.6L118.5,204.3L118.6,202.6L118.4,200.3L117.6,195.9L122,193.1L123.8,191.9L124.2,190L126.5,187.7L127.5,185.4L128.4,183.6L128.1,182.7L127.1,182.1L125.8,180.5L123.4,175.6L122.5,174.7L121.8,173.3L122.2,171.2L123,168.8L122.9,167.8L121.5,166.6L118.4,164.5L115.8,164.4L113.8,163.6L110.9,163.5L108.6,163.2L107.3,162.4L107.6,161.2L108.1,160.2L110.1,157.7L111.4,155.1L111.6,152.6L112,149.2L112.5,146.3L112.9,143L109.7,140.8L108.8,139.1L107.6,137.5L106.2,137.5L104,136.8L100.7,138.9L98.1,138.5L96.3,139.3L92.2,139.1L89.6,138.1Z"/></svg>
