<svg xmlns="http://www.w3.org/2000/svg" viewBox="0 0 400 300"><path d="M0,51.4L5.8,59.1L27.2,64.7L35.4,73.6L53.1,67.7L68.5,65.5L83.6,61.7L96.3,58.1L109.1,49.4L113.9,36.9L115.5,18.8L119,12.5L132.6,6.8L154,1.8L171.8,2.6L184.1,0.8L188.9,5.3L188.2,15.8L177.4,28.5L172.6,41.6L176.3,45.3L173.3,54.6L168.3,71.1L163.1,65.7L158.9,66L155.1,66.3L147.9,79.1L144.2,76.6L141.8,77.6L141.9,80.7L123.3,80.5L104.5,80.5L104.4,92.4L95.4,92.5L102.8,99.5L110.3,104.4L112.5,108.9L115.8,110.2L115.3,117.3L89.4,117.4L79.8,134.5L82.6,138.4L80.3,143.2L79.8,149.3L57,126.8L46.5,120.1L30.1,114.6L18.8,116.1L2.6,124L0,124.5L0,51.4Z" fill="#2c2c34" stroke="#474751" stroke-width="0.8"/><path d="M369.2,300L368.9,299.5L371.5,289.7L377.9,291.1L381.7,285.1L377.1,273.1L379.5,270.1L389.9,270.7L400,261.3L400,300Z" fill="#2c2c34" stroke="#474751" stroke-width="0.8"/><path d="M379.5,270.1L377.1,273.1L381.7,285.1L377.9,291.1L371.5,289.7L368.9,299.5L362.1,293.7L357.8,282.7L362.8,277.3L357.7,275.9L353.9,269.1L343.9,263.5L335,264.8L331,271.9L322.9,277L318.4,277.7L316.5,281.9L326.1,293L320.6,295.6L317.7,298.6L308.3,299.6L304.8,287.5L302.2,290.9L295.5,289.7L291.4,281.5L283.2,280.2L278,277.8L269.3,277.9L268.7,282.3L266.4,279.2L267.4,275.2L269.1,271L268.4,267.3L271.4,264.9L267.1,261.9L267.1,253.7L274.8,251.8L282.1,259.1L281.7,263.5L289.7,264.4L291.6,262.7L297.2,267.7L307,266.3L315.7,261.1L327.9,257L334.8,250.9L345.9,252.1L345.1,254.1L356.4,254.8L365.4,258.4L371.9,264.5Z" fill="#2c2c34" stroke="#474751" stroke-width="0.8"/><path d="M274.8,251.8L267.1,253.7L267.1,261.9L271.4,264.9L268.4,267.3L269.1,271L267.4,275.2L266.4,279.2L255.5,274.7L251.4,270.4L253.7,266.8L252.9,262.4L247.3,257.5L239.4,253.4L232.5,250.8L231.2,244.8L225.9,241.2L227.2,247.1L223.2,252L218.5,246.4L212.1,244.3L209.3,240.2L209.5,234L212.1,227.5L206.4,224.6L211.1,220.6L214.1,218L227.4,223.4L232,220.8L238.4,222.5L241.8,226.7L247.7,228.1L252.5,223.7L257.6,234.8L265.4,243.1Z" fill="#2c2c34" stroke="#474751" stroke-width="0.8"/><path d="M252.5,223.7L247.7,228.1L241.8,226.7L238.4,222.5L232,220.8L227.4,223.4L214.1,218L211.1,220.6L204.1,214.2L194.7,205.9L190.2,198.9L181.8,192.5L171.6,183.1L173.8,179.9L177.2,183L178.7,181.6L184.9,180.7L187.5,176L190.5,175.8L190,165.6L194.7,165.1L198.9,165.3L203.3,159.7L209.3,164L211.4,161.3L215.1,158.9L222.1,153.2L222.4,148.9L224.3,149.1L227,144.1L229.1,143.5L232.5,146.7L236.5,147.6L241,144.9L246,144.9L253.1,142.2L255.8,139.4L262.7,139.8L261,141.8L260,146.5L262.1,154.1L257.4,161.2L255.2,169.5L254.6,178.6L255.7,184L256.2,193.3L253.1,195.3L251.2,204.1L252.6,209.6L248.5,214.8L249.4,220.3Z" fill="#2c2c34" stroke="#474751" stroke-width="0.8"/><path d="M137.6,151.7L143.6,153.5L147.9,157.6L154,161L154.8,163.7L163.6,161.3L167.8,162.8L170.5,165L169.1,173.3L166.9,178.2L155.2,177.9L147.9,175.9L139.6,171.8L128.4,170.5L122.7,166L123.4,163L130.2,157.8L134,155.4L132.9,153Z" fill="#2c2c34" stroke="#474751" stroke-width="0.8"/><path d="M79.8,149.3L80.3,143.2L82.6,138.4L79.8,134.5L89.4,117.4L115.3,117.3L115.8,110.2L112.5,108.9L110.3,104.4L102.8,99.5L95.4,92.5L104.4,92.4L104.5,80.5L123.3,80.5L141.9,80.7L141.8,97.5L140.2,121.2L146.2,121.2L152.7,125L154.5,121.9L160.4,124.5L151.2,132.5L141.7,138.3L140.3,142.3L141.9,146.4L137.6,151.7L132.9,153L134,155.4L130.2,157.8L123.4,163L122.7,166L112.4,162.4L99.8,162L90.6,157.9Z" fill="#2c2c34" stroke="#474751" stroke-width="0.8"/><path d="M141.9,80.7L141.8,77.6L144.2,76.6L147.9,79.1L155.1,66.3L158.9,66L159,69.2L162.8,69.3L162.5,75L159.2,84.2L160.9,87.5L158.8,95L160.1,97L157.8,107.7L153.8,113.2L150.2,113.9L146.2,121.2L140.2,121.2L141.8,97.5Z" fill="#2c2c34" stroke="#474751" stroke-width="0.8"/><path d="M400,79.1L388.6,79.4L382.5,83L371.2,79.6L359.6,71.9L362.1,67L370.5,65.5L375.2,66.3L375.2,66.3L388.7,68.2L399.4,73.3L400,74.3L400,79.1Z" fill="#2c2c34" stroke="#474751" stroke-width="0.8"/><path d="M385.9,0L396.2,8.1L400,7.9L400,35.1L400,35.1L371.4,37.1L384.9,25.2L376.7,19.6L363.7,18.1L356.7,11.9L352.1,0L385.9,0ZM346.4,0L340.6,0.4L339.2,0L346.4,0Z" fill="#2c2c34" stroke="#474751" stroke-width="0.8"/><path d="M262.5,139.9L257.3,139.5L254.9,140.2L253.8,141.6L252.9,142.3L252.1,142.2L250.6,142.7L248.2,144L246.1,144.5L244.2,144.2L243.7,144.5L243.6,144.9L243.3,145.3L242.5,145.6L241.7,145.4L240.7,145L240.2,145.2L240.2,146L239.6,146.2L238.7,145.8L237.6,146.1L236.4,147.1L234.7,147.4L232.5,146.8L230.9,145.7L229.6,144.1L228.2,143.7L225.7,144.9L224.6,146.3L224.4,147.1L224.6,147.9L224.2,148.4L223,148.7L222.2,149.6L221.5,151.3L221.4,152.5L221.8,153.4L221.2,154L219.7,154.5L217.9,155.9L215.8,158.3L213.7,160L211.6,160.9L210.7,161.9L210.7,163.1L210.6,163.5L210.2,163.6L209.5,163.7L205.6,161.3L204.5,159.5L203.4,159.7L202.2,160.6L200.5,162.6L198.6,165.3L197.6,165.6L192.9,165.2L190.5,165.4L190,165.8L189.7,166.8L189.9,168.1L190.5,172.8L190.9,174.8L190.5,175.4L189.3,175.5L187.6,175.7L186.8,176.6L186.5,177.6L186.5,178.8L185.9,180.2L184.9,181.1L183.9,181.4L178.3,181.7L178.4,179.5L176.7,178.6L175.9,176.8L175.1,175.6L175.3,174.8L175.2,174L173,173.3L170.8,173.8L169.6,173.5L168.7,173L170.2,171.9L170.4,171.3L169.9,170.8L169.3,170.5L169.5,169.3L169.8,167.8L170.7,164.4L170.4,163.8L168.9,162.8L167.1,162.7L165.1,163L164.2,162.5L163.3,161.4L161.9,160.8L159.4,161.7L156.7,163.1L155.9,163.6L155.2,163.6L154.9,162.5L154.8,161.3L154.6,161L153.2,160.5L151.5,160.2L150.7,159.9L149.9,159L147.9,157.9L147.4,157.2L144.8,155.3L144.2,154.4L143.7,153.7L142.4,152.9L141.3,153L138,152L137.5,151.9L137.9,150.9L139,149.5L141.3,147.9L141.5,146.6L140.9,144.1L140.3,142.5L140.6,141.8L141.3,138.9L141.9,138.2L145.3,136.8L145.6,136.5L148.2,134.5L151.1,132.2L154.2,129.7L157.6,126.9L159.5,125.2L160.4,124.5L162.3,125.1L163.8,123.7L164.7,123.3L166.8,121.7L167.5,121.3L170.9,120.7L172.6,120.7L174.1,122.3L175.3,123.2L177.5,122.5L179.4,122.3L187,123.8L190,123.1L195.5,123L198.1,123.4L201.6,121.2L203.9,120.8L206.6,119.8L206.2,118.7L205.6,118.3L209.6,118.7L215.6,120.9L222.1,120.5L224.4,119.4L225.9,119L232.5,121.3L234.3,123L235.7,123.1L236.7,122.7L237,122.4L235.7,122L235.1,121.5L240.3,122.5L250.1,130.6L250.3,131.2L246.1,128.9L243.9,129.1L243.3,129.4L243.4,130.7L243.6,131.4L244.6,131.4L245.3,131.1L247,131.5L248.1,132.4L249.5,133.7L250.4,135.1L251.3,135.2L252.1,134.3L253.8,134.2L254.9,135.1L255.7,135.1L254.6,133.6L252.1,132.1L252.7,132L258.3,134.7L259.8,138.1L261.2,138.8ZM196.8,110.9L193.6,112.5L192.6,112.5L194,111.2L196.4,110.1L198.4,109.6L200.1,109.8ZM207.9,109.1L206.3,110.3L206.1,109.8L206.8,108.6L207.7,108L208.6,108.1L208.4,108.6Z" fill="#b8e653" stroke="#0c0e06" stroke-width="1"/></svg>
