<svg xmlns="http://www.w3.org/2000/svg" viewBox="0 0 300 300"><path fill="#e8e8ea" d="M280,128.9L269.3,128.3L264.2,129.6L261.9,132.6L260.1,134L258.4,133.7L255.3,134.9L250.3,137.5L245.9,138.6L242,137.9L240.9,138.6L240.6,139.4L240,140.3L238.5,140.8L236.7,140.5L234.7,139.5L233.7,139.9L233.5,141.7L232.5,142.2L230.5,141.4L228.2,142L225.7,144.1L222.2,144.5L217.7,143.3L214.2,141.1L211.6,137.7L208.6,136.8L203.5,139.3L201.2,142.3L200.8,144L201.2,145.6L200.3,146.7L197.9,147.2L196.1,149.2L194.7,152.6L194.6,155.3L195.3,157.1L194.1,158.4L191,159.3L187.2,162.2L182.8,167.2L178.6,170.7L174.2,172.7L172.3,174.8L172.3,177.2L172.1,178L171.2,178.3L169.8,178.6L161.5,173.4L159.3,169.7L157.2,170.3L154.6,172.1L151,176.3L147.1,181.8L145.1,182.5L135.3,181.7L130.2,182.1L129.1,182.9L128.6,184.9L129,187.7L130.3,197.5L131.1,201.5L130.3,202.8L127.7,203L124.3,203.5L122.5,205.4L122,207.3L121.9,209.9L120.7,212.7L118.5,214.7L116.6,215.4L104.8,215.9L105.1,211.4L101.6,209.5L99.8,205.8L98.2,203.2L98.6,201.7L98.5,199.9L93.8,198.4L89.3,199.5L86.7,198.8L84.9,197.8L88.1,195.6L88.4,194.2L87.3,193.2L86.2,192.6L86.5,190.1L87.2,187.1L89,180L88.4,178.7L85.3,176.6L81.6,176.4L77.5,177.1L75.5,176L73.7,173.6L70.7,172.4L65.6,174.4L60,177.3L58.3,178.4L56.8,178.2L56.2,176L55.9,173.4L55.6,172.8L52.6,171.9L49.1,171.2L47.5,170.5L45.8,168.8L41.6,166.5L40.7,164.9L35.1,161L34,159.1L32.8,157.7L30.1,155.9L28,156.3L21.1,154.1L20,153.9L20.9,152L23.2,149L28,145.6L28.3,142.9L27.1,137.8L25.9,134.4L26.5,132.9L28,126.9L29.2,125.5L36.1,122.5L36.8,122L42.3,117.7L48.4,112.9L54.7,107.7L61.8,101.8L65.7,98.4L67.5,96.9L71.6,98.1L74.8,95.3L76.6,94.4L81,91.1L82.3,90.4L89.6,89L93,89.1L96.2,92.4L98.6,94.3L103.1,92.7L107.1,92.3L122.9,95.5L129.3,94.1L140.7,93.8L146,94.6L153.4,90.1L158.1,89.2L163.7,87.2L162.9,85L161.5,84.1L170,85L182.5,89.5L195.9,88.7L200.8,86.3L203.9,85.6L217.7,90.2L221.3,93.8L224.2,94.1L226.3,93.3L226.9,92.6L224.2,91.8L223,90.7L233.8,92.9L254.2,109.6L254.6,111L245.9,106.1L241.2,106.5L240,107.2L240.3,109.9L240.8,111.2L242.7,111.4L244.2,110.6L247.9,111.5L250.1,113.3L253,116L254.8,119.1L256.6,119.1L258.4,117.3L261.9,117.1L264.2,119.1L265.8,119L263.6,115.8L258.3,112.7L259.6,112.6L271.2,118.2L274.4,125.2L277.3,126.7Z"/></svg>
