<svg xmlns="http://www.w3.org/2000/svg" viewBox="0 0 300 300"><path fill="#e8e8ea" d="M22.7,102.9L24.3,105.4L36.1,108.5L38.4,107.1L40,105.1L40,103.8L41,103.3L45.1,105.4L48.5,104.9L53.9,104.7L57.7,105.1L60.2,103.5L63.7,98L65,94.8L66.4,94L67.5,94.4L68.2,97L70.1,99.5L73.7,103.4L76.5,105.3L78.8,106.1L81.1,104.4L83.6,104L90.4,107L96.2,107.6L100.5,106.1L100,103.8L98.4,101.4L98.1,98.9L98.4,96.9L101.3,94.8L101.1,93.9L97.6,90.2L97.8,89.3L105.6,85.1L113.2,82.8L114.3,81L115.1,78.4L115.4,73.3L114.9,69.2L111.9,65.4L111.8,63.4L112.4,61.4L113.7,59.5L116.7,58.7L120.2,57.4L123,55.8L126.7,54.6L129.7,52.8L132.6,48.6L134.3,48L139.7,48.5L140.9,47.5L140.2,41.4L141.2,39.8L143.1,38.9L143.9,38.2L148.6,38.8L152.5,40.4L154.9,41.3L162.8,45.7L168.2,50.6L171.2,56.2L175.4,60.4L180.5,63.4L184.6,67.5L187.6,72.5L191.9,75.4L197.3,76.1L200.6,77.7L202.1,80.7L205.1,83.2L209.6,85.6L216.4,86.9L229.7,87.2L230.9,87.2L233.9,88L237.4,87.1L241.7,85.2L242.9,84.1L247.4,78.2L249.9,78.7L254.9,78L257.9,76.6L258.1,76.6L257.9,78.2L257.6,80.8L255.2,82.7L257.6,87.1L260,94.1L258.5,97.6L260.1,100.3L264.7,102.2L265.1,103L263.6,103.8L262.5,106.1L262.5,110.3L266.3,114.2L274.3,118L276.8,118.5L277.8,119.9L279,120.9L279.8,122L280,123.5L279.4,124.5L275.5,124.8L271.3,124.8L268.2,123.1L268.1,124.4L267.9,125.8L265.1,126.8L266.6,137L266,139.9L264.9,140.9L263.9,140.4L262.7,140.3L262,141.3L262.5,143.5L259.6,143.7L255,142.6L252.8,140.7L252.5,138.6L252.5,136.8L251.1,133.6L247.4,130.5L239.6,129.9L236.7,128.9L233.9,127.7L230.7,126.9L227.7,127L224.2,127.9L217.8,126.4L215.8,128.3L212.6,130.5L209.7,130.5L204.3,125.5L202.7,125.1L197.9,127.6L196,127.7L194.6,127L188.2,125L185.4,124.7L183.2,125.6L179.5,124.6L170.3,118L164.7,123L153.1,121.8L149.8,125.1L145.8,131.7L142.6,134.8L139.9,133.6L136.7,130.8L131,123.5L128.1,122.1L124.8,121.8L121.9,122.6L120.3,124.2L119.2,134.8L118.1,144.2L118.1,150L124.5,155.1L132,164.1L134.3,165.2L135.5,168.1L137.2,175.6L139.1,184L142.9,189.6L146.4,193.5L150.6,197.1L155.8,202.6L160.1,208.6L161.2,210.8L169.5,218.7L177.6,226.8L184.9,229.6L186,231.1L186,237.4L186.8,239.7L191.6,246.1L201.4,255.5L202.6,257.8L202.9,259.3L202.2,260.6L199.7,261.8L197.6,260.5L188.4,251.2L179.7,245.4L169.6,234.4L156.3,230.1L147.1,225.2L141.7,225.9L135.5,227.4L131.8,227.5L129.1,226.6L127.2,223.6L127.5,221.3L127.2,218.3L121.8,213.4L114.5,208.8L107.6,202.8L93.8,186.7L90.9,181.5L93.6,180.5L95.7,180.5L98.1,179.4L101.9,179.4L106.3,180.5L102.4,177.1L97.4,173.6L84.7,160L80.9,153.6L80.4,146.6L81.4,137.1L79.2,130.2L69.3,121.3L65.6,116.6L58.5,113.9L55.1,114.1L53.2,117.6L51.8,125.4L45.4,135.5L43.2,139.9L39.9,145.5L37,146L35.3,145.4L30,135.9L24.9,128.5L24.3,125.1L23.8,120.8L20,105.1Z"/></svg>
