<svg xmlns="http://www.w3.org/2000/svg" viewBox="0 0 400 300"><path d="M0,13.4L22.4,17.8L11.7,39.7L9.1,62.3L3.2,67.7L0,66.8L0,13.4ZM0,130.8L1.2,132.9L0,134.4L0,130.8ZM0,165.4L10.8,169L8.4,181.7L0,188.9L0,165.4ZM36.2,212.8L49.9,201.7L53.5,226.5L46.4,248.4L36.8,242.7L31.9,223.4Z" fill="#2c2c34" stroke="#474751" stroke-width="0.8"/><path d="M400,51.1L385.8,53.8L378.6,58.7L368.7,51L355.1,50.8L341.9,47.3L332.8,54.1L331.3,45.6L319.5,36.9L323.7,23.9L329.5,15.5L334.1,17.4L328.7,2.8L330.7,0L400,0Z" fill="#2c2c34" stroke="#474751" stroke-width="0.8"/><path d="M330.7,0L328.7,2.8L334.1,17.4L329.5,15.5L309.4,3L294.1,7.6L284.1,4.3L271.4,11.3L261,0L330.7,0ZM260.1,0L252,4.2L250.8,2.2L249.5,0L260.1,0Z" fill="#2c2c34" stroke="#474751" stroke-width="0.8"/><path d="M211,46.4L209.4,59.4L197.5,59.5L201.6,66.3L194.5,86.4L190.5,91.6L171.9,92.4L161.2,99.4L143.7,97L113.3,89L108.5,78.2L87.6,83.6L85.1,89.5L72.2,85.1L61.4,84.3L51.8,78.6L55,70.9L54.2,65.4L60.6,63.6L71.4,72.3L74.4,64.1L93.1,65.4L108.3,59.7L118.5,60.7L125.1,67.1L127.1,61.8L124,41.1L131.7,37.1L139.2,22.3L154.9,32.6L166.9,19.4L174.4,17L190.9,26.9L200.9,25.2L210.7,31.3L208.9,35.4Z" fill="#2c2c34" stroke="#474751" stroke-width="0.8"/><path d="M319.5,36.9L331.3,45.6L332.8,54.1L319.8,60.7L309.7,82L296.9,103L279.9,108.7L266.6,107.4L250.3,115.4L242.4,120L224.9,114.1L209,101L202.3,97.2L198.1,86.7L194.5,86.4L201.6,66.3L197.5,59.5L209.4,59.4L211,46.4L221.8,54.5L229.7,58L247.5,54.1L249.2,47.8L257.7,46.8L268,41.9L270.3,43.9L280.2,39.9L285.3,32.4L292.2,30.4L314.9,40.2Z" fill="#2c2c34" stroke="#474751" stroke-width="0.8"/><path d="M400,177.2L393.5,181.9L362.3,180.3L346,175.8L337.7,177.9L331.6,165.7L327.7,160.6L332.7,155.6L327.4,151.8L320.8,158.6L308.4,149.9L306.7,137.5L293.8,130.4L291.4,120.7L279.9,108.7L296.9,103L309.7,82L319.8,60.7L332.8,54.1L341.9,47.3L355.1,50.8L368.7,51L378.6,58.7L385.8,53.8L400,51.1L400,177.2Z" fill="#2c2c34" stroke="#474751" stroke-width="0.8"/><path d="M116.3,0L116.4,0.5L127.2,8.4L139.2,22.3L131.7,37.1L124,41.1L127.1,61.8L125.1,67.1L118.5,60.7L108.3,59.7L93.1,65.4L74.4,64.1L71.4,72.3L60.6,63.6L54.2,65.4L31.5,55.7L27.1,62.6L9.1,62.3L11.7,39.7L22.4,17.8L0,13.4L0,0Z" fill="#2c2c34" stroke="#474751" stroke-width="0.8"/><path d="M400,250.5L385.6,252.5L370.6,242.7L353.6,250.4L337.9,249.6L336.4,230.8L325.7,221.6L329.2,217.6L327,214.1L330.5,204.9L338.6,195.8L328.2,183.2L326.4,172.5L331.6,165.7L331.6,165.7L337.7,177.9L346,175.8L362.3,180.3L393.5,181.9L400,177.2L400,250.5Z" fill="#2c2c34" stroke="#474751" stroke-width="0.8"/><path d="M400,263.9L390.9,263.3L379.8,260.6L354.1,268L368.8,283.6L358,288.1L346.2,288.2L335,273.8L331,280L335.7,296.5L338.6,300L278.9,300L278.9,300L278.4,297.5L288.3,284L289.5,275L296.4,270.9L296.8,263.6L310.7,261.1L318.8,254.9L330.3,255.5L333.8,250.6L337.9,249.6L337.9,249.6L353.6,250.4L370.6,242.7L385.6,252.5L400,250.5L400,263.9Z" fill="#2c2c34" stroke="#474751" stroke-width="0.8"/><path d="M296.8,263.6L296.4,270.9L289.5,275L288.3,284L278.4,297.5L274.7,295.5L274.4,289.5L262.6,280.1L260.7,266.8L262.5,247.6L265.4,238.8L261.8,234.3L260.4,225.2L269.6,211L271,216.4L276.7,213.9L281.2,221.6L286.3,224.6L287.7,234.9L285.1,244.6L288,256.7Z" fill="#2c2c34" stroke="#474751" stroke-width="0.8"/><path d="M0,66.8L3.2,67.7L9.1,62.3L27.1,62.6L31.5,55.7L54.2,65.4L54.2,65.4L55,70.9L51.8,78.6L61.4,84.3L72.2,85.1L70.5,97.8L61.2,103L45.5,99.1L40.9,111.5L30.8,112.5L27.1,107.6L15.2,118L4.9,119.4L0,115.9L0,66.8Z" fill="#2c2c34" stroke="#474751" stroke-width="0.8"/><path d="M184.5,300L184.3,299.7L177.8,285.7L169,282.3L162.7,270.2L149,265.2L139.9,253.8L124.1,252L107.5,239.2L88.1,220.6L73.7,204L67.1,175.1L56.5,171.7L39.3,161.9L29.5,165.9L17.2,179.6L8.4,181.7L10.8,169L0,165.4L0,134.4L0,134.4L1.2,132.9L0,130.8L0,115.9L0,115.9L4.9,119.4L15.2,118L27.1,107.6L30.8,112.5L40.9,111.5L45.5,99.1L61.2,103L70.5,97.8L72.2,85.1L72.2,85.1L85.1,89.5L87.6,83.6L108.5,78.2L113.3,89L143.7,97L141.3,112.1L146.4,125.1L129.5,120.7L112.3,131.4L113.4,146.4L110.8,154.9L117.8,170L137.7,184.9L148.4,208.9L172.1,232.1L188.6,231.9L193.8,238.2L187.9,243.9L206.9,254.1L222.5,262.6L240.7,277.2L242.9,282.4L239,292.3L227.2,279.4L208.7,274.8L199.8,292.7L210.7,300L184.5,300ZM29.2,300L28.6,276.6L23.7,260.6L35.4,262L35.4,262L46.1,253.3L58.8,273.2L56.6,300L29.2,300Z" fill="#2c2c34" stroke="#474751" stroke-width="0.8"/><path d="M143.7,97L161.2,99.4L171.9,92.4L190.5,91.6L194.5,86.4L198.1,86.7L202.3,97.2L185.4,105.4L183.3,117.7L175.9,120.8L176,129.3L167.6,128.7L160.4,123.8L156.5,128.9L141.7,127.9L146.4,125.1L141.3,112.1Z" fill="#2c2c34" stroke="#474751" stroke-width="0.8"/><path d="M261,0L271.4,11.3L284.1,4.3L294.1,7.6L309.4,3L329.5,15.5L329.5,15.5L323.7,23.9L319.5,36.9L314.9,40.2L292.2,30.4L285.3,32.4L280.2,39.9L270.3,43.9L268,41.9L257.7,46.8L249.2,47.8L247.5,54.1L229.7,58L221.8,54.5L211,46.4L208.9,35.4L210.7,31.3L213.6,24.2L223.1,24.8L230.3,21.4L230.8,18.4L235,16.9L236.4,9.5L241.2,8.1L244.5,2.2L250.8,2.2L252,4.2L260.1,0L261,0Z" fill="#2c2c34" stroke="#474751" stroke-width="0.8"/><path d="M249.5,0L250.8,2.2L244.5,2.2L241.2,8.1L236.4,9.5L235,16.9L230.8,18.4L230.3,21.4L223.1,24.8L213.6,24.2L210.7,31.3L200.9,25.2L190.9,26.9L174.4,17L166.9,19.4L154.9,32.6L139.2,22.3L127.2,8.4L116.4,0.5L116.3,0L249.5,0Z" fill="#2c2c34" stroke="#474751" stroke-width="0.8"/><path d="M244.6,212.1L225.8,201.2L217.8,189L209.7,182.5L200,171.5L195.3,162.3L184.9,148.4L189.4,135.9L197,142.8L201.6,136.6L211.5,135.9L229.8,140.9L244.5,140.5L254.1,147.1L261.7,147L256.5,160.2L266.7,171.6L263.6,185.4L258.6,186.7L254.6,189.4L247.7,196.2Z" fill="#2c2c34" stroke="#474751" stroke-width="0.8"/><path d="M325.7,221.6L336.4,230.8L337.9,249.6L333.8,250.6L330.3,255.5L318.8,254.9L310.7,261.1L296.8,263.6L288,256.7L285.1,244.6L287.7,234.9L290.4,235.2L291.4,229.3L303.9,224.9L308.7,223.8L315.9,222.1Z" fill="#2c2c34" stroke="#474751" stroke-width="0.8"/><path d="M250.3,115.4L266.6,107.4L279.9,108.7L291.4,120.7L293.8,130.4L306.7,137.5L308.4,149.9L320.8,158.6L327.4,151.8L332.7,155.6L327.7,160.6L331.6,165.7L326.4,172.5L328.2,183.2L338.6,195.8L330.5,204.9L327,214.1L329.2,217.6L325.7,221.6L315.9,222.1L308.7,223.8L308,221.6L310.5,218.2L312.9,211.2L309.9,211.4L305.8,206L302.3,204.6L299.5,200L295.5,198.2L292.5,194.1L288.6,195.7L285.7,205.3L280.7,207.4L282.4,204.9L274.3,198.9L267.3,195.8L264.3,191.7L258.6,186.7L263.6,185.4L266.7,171.6L256.5,160.2L261.7,147L254.1,147.1L262.3,135.8L255.5,127.2Z" fill="#2c2c34" stroke="#474751" stroke-width="0.8"/><path d="M276.7,213.9L271,216.4L269.6,211L260.4,225.2L261.8,234.3L257.4,232.1L251.4,222.8L242.2,217L244.6,212.1L247.7,196.2L254.6,189.4L258.6,186.7L264.3,191.7L267.3,195.8L274.3,198.9L282.4,204.9L280.7,207.4Z" fill="#2c2c34" stroke="#474751" stroke-width="0.8"/><path d="M287.7,234.9L286.3,224.6L281.2,221.6L276.7,213.9L280.7,207.4L285.7,205.3L288.6,195.7L292.5,194.1L295.5,198.2L299.5,200L302.3,204.6L305.8,206L309.9,211.4L312.9,211.2L310.5,218.2L308,221.6L308.7,223.8L303.9,224.9L291.4,229.3L290.4,235.2Z" fill="#2c2c34" stroke="#474751" stroke-width="0.8"/><path d="M138.8,127.3L139.6,128.6L145.2,130L146.4,129.4L147.1,128.4L147.1,127.8L147.6,127.6L149.6,128.6L151.2,128.3L153.8,128.2L155.6,128.4L156.8,127.7L158.5,125L159.1,123.5L159.8,123.1L160.4,123.3L160.7,124.5L161.6,125.7L163.3,127.6L164.6,128.5L165.8,128.9L166.9,128.1L168.1,127.9L171.4,129.3L174.1,129.6L176.2,128.9L176,127.8L175.2,126.6L175,125.5L175.2,124.5L176.6,123.5L176.5,123L174.8,121.2L174.9,120.8L178.6,118.8L182.3,117.7L182.8,116.8L183.2,115.6L183.4,113.1L183.1,111.2L181.7,109.3L181.6,108.4L181.9,107.4L182.5,106.5L184,106.1L185.7,105.5L187,104.7L188.8,104.1L190.3,103.3L191.6,101.3L192.5,100.9L195.1,101.2L195.6,100.7L195.3,97.8L195.8,97L196.7,96.6L197.1,96.2L199.4,96.6L201.2,97.3L202.3,97.7L206.2,99.9L208.8,102.2L210.2,104.9L212.2,106.9L214.6,108.4L216.6,110.3L218.1,112.8L220.1,114.1L222.7,114.5L224.4,115.3L225,116.7L226.5,117.9L228.6,119L231.9,119.6L238.3,119.8L238.9,119.8L240.3,120.2L242,119.8L244.1,118.9L244.7,118.3L246.8,115.5L248.1,115.7L250.4,115.4L251.9,114.7L252,114.7L251.9,115.5L251.7,116.7L250.6,117.6L251.7,119.8L252.9,123.1L252.2,124.8L252.9,126.1L255.2,127L255.3,127.4L254.6,127.8L254.1,128.9L254.1,130.9L255.9,132.8L259.7,134.6L261,134.9L261.4,135.5L262,136L262.4,136.5L262.5,137.3L262.2,137.7L260.4,137.9L258.3,137.9L256.8,137.1L256.8,137.7L256.7,138.4L255.3,138.8L256.1,143.7L255.8,145.1L255.2,145.6L254.8,145.4L254.2,145.4L253.9,145.8L254.1,146.9L252.7,147L250.5,146.4L249.4,145.5L249.3,144.5L249.3,143.6L248.6,142.1L246.8,140.6L243.1,140.3L241.7,139.9L240.3,139.3L238.8,138.9L237.3,138.9L235.7,139.4L232.6,138.7L231.6,139.6L230.1,140.6L228.7,140.6L226.1,138.2L225.3,138L223.1,139.3L222.1,139.3L221.4,138.9L218.4,138L217,137.8L215.9,138.3L214.2,137.8L209.7,134.6L207.1,137L201.5,136.4L199.9,138L198,141.2L196.4,142.7L195.1,142.1L193.6,140.8L190.9,137.3L189.5,136.6L187.9,136.4L186.5,136.8L185.7,137.6L185.2,142.7L184.7,147.2L184.7,150L187.7,152.5L191.3,156.8L192.5,157.3L193,158.7L193.8,162.3L194.8,166.4L196.6,169L198.3,170.9L200.3,172.6L202.8,175.3L204.9,178.2L205.4,179.2L209.4,183.1L213.3,186.9L216.8,188.3L217.3,189L217.3,192L217.7,193.1L220,196.2L224.7,200.7L225.3,201.8L225.4,202.6L225.1,203.2L223.9,203.8L222.9,203.1L218.5,198.7L214.3,195.8L209.4,190.6L203,188.5L198.6,186.2L196,186.5L193,187.2L191.2,187.3L189.9,186.8L189,185.4L189.2,184.3L189,182.8L186.4,180.5L182.9,178.3L179.6,175.4L173,167.6L171.6,165.1L172.9,164.7L173.9,164.7L175,164.1L176.9,164.1L179,164.7L177.1,163L174.7,161.4L168.6,154.8L166.8,151.7L166.6,148.4L167,143.8L165.9,140.5L161.2,136.2L159.4,134L156,132.7L154.4,132.8L153.5,134.4L152.8,138.2L149.7,143L148.7,145.1L147.1,147.8L145.7,148.1L144.8,147.8L142.3,143.2L139.9,139.7L139.6,138L139.3,136L137.5,128.4ZM204.1,202.1L208,202.9L210.9,202.5L213.5,203L215.1,204L215.5,204.4L213.3,204.5L211,204.1L208.3,205L205.9,204.5L205,203.9L204.4,203.2ZM215.6,198.3L214.1,198.6L204.7,198.4L202,197.8L198.9,196.2L198.2,195.8L201.3,195.3L204.2,195.8L205.1,196.9L212.8,197.8ZM206.9,194.1L203.6,194.2L200.7,193.7L199.2,192.8L199.4,192L199.8,190.7L203,190.9L208,191.8L209.1,192.9L208.8,193.3ZM173.9,170.9L174.3,171.9L171.6,170L170.6,168.6L170.4,168.1ZM164.9,143.6L162.3,144.3L161.1,143.1L160.8,142.2L158.6,141.9L157.3,140.6L157.1,140L158.9,138.5L159.9,136.2L161.1,137.6L162.7,140.2L163.5,141ZM165.4,150.2L165.9,151.5L164,150.3L162.2,149.8L161.8,148.9L162,148.2L162.4,147.5L163.8,147.6L164,148.3ZM173,162.8L172.4,163.6L171.1,162.1L169.8,161.1L168.9,159.9L167.2,158.3L166.6,156.6L164,153L163.5,152L164.9,153.5L165.9,154.4L166.9,154.6L169.2,156.9L171.4,159.8L174.1,162.3L173.5,162.4ZM173.1,175L173.4,175.4L173.3,175.8L172.2,175.3L171.9,175.4L166.7,169L166.2,167.8L168,169.2ZM176.9,173.5L178.3,175.7L177,175.2L175.6,173.9L174.7,172.4ZM158.1,153.1L158,154.3L156.7,152.8L156,150.2L154.4,145.9L154.2,144.7L155,143.5L155,142.3L153.9,138.6L154.8,138L155.4,137.9L155.6,140.5L156.2,142L157.7,143.8L157.4,146.9L157.7,151.2L158,152.1ZM224.4,208.7L227.3,210.7L218.8,208.1L219.8,207.8L220.7,207.8ZM242,214.7L242,215.8L242.9,217L243.7,218.4L239.8,215.7L236.1,212.6L229,207.9L223.9,206.7L216.9,202.9L212.4,201.6L214.2,201.2L216.2,201.2L226.9,206.3L225.7,205L227.2,204.5L228.5,204.8L229.3,206.5L231,207.6L233.7,209.5L235.4,211L239.2,213.6L240.1,214Z" fill="#b8e653" stroke="#0c0e06" stroke-width="1"/></svg>
