<svg xmlns="http://www.w3.org/2000/svg" viewBox="0 0 400 300"><path d="M223.7,172.7L224.1,165.7L217.9,158L223.9,153.7L225.7,143.7L223.6,129.7L226.6,125.2L245.7,125.3L260.2,132L266.6,131.4L271,140.5L284.4,140L283.6,147.8L294.5,148.7L306.5,158.2L297.4,168.6L285.8,163L274.6,164.1L266.5,162.9L262.1,167.6L252.8,169.2L249,162.9L240.9,166.6L231.2,184.2L224.9,180.1Z" fill="#2c2c34" stroke="#474751" stroke-width="0.8"/><path d="M78.3,0L81.2,7.7L81.3,23.2L75.3,24.5L69.1,9.1L60,1.4L60.4,0L78.3,0Z" fill="#2c2c34" stroke="#474751" stroke-width="0.8"/><path d="M356.3,160.6L368.8,162.9L373.2,168L366.9,174.5L348.5,174.4L334.2,175.3L332.8,164.3L336.3,160.5Z" fill="#2c2c34" stroke="#474751" stroke-width="0.8"/><path d="M80.5,161.3L96.9,163.6L109.9,169.8L113.9,176.8L96.8,177.3L89.4,181.6L75.7,177.4L61.7,168.1L64.7,162.2L74.9,160.4Z" fill="#2c2c34" stroke="#474751" stroke-width="0.8"/><path d="M0,40.5L6,40.6L28.9,49.6L38.6,59.3L61.5,56.4L70.1,62.5L90.8,78.9L106,90.7L114.1,90.4L128.6,95.7L126.9,103.1L144.9,104.1L163.4,114.8L160.5,120.9L144.2,124.2L127.7,125.5L110.9,123.5L75.9,126L92.3,111.5L82.3,104.7L66.6,102.9L58.2,95.4L52.3,80.5L38.5,81.5L15.8,74.4L8.5,68.9L0,67.8L0,40.5Z" fill="#2c2c34" stroke="#474751" stroke-width="0.8"/><path d="M221.9,129.5L222.5,130.3L223.6,135.5L223.7,137.2L222.6,139.8L222.7,140.7L225.2,143.1L225.2,143.9L224.9,144.7L222.8,146.9L221.2,148.5L221.8,150.2L223.1,151.8L223.3,153.2L222.8,155.1L220.9,157.3L219.8,158.1L216.8,158.2L216.6,158.5L218,160.7L219.7,163.2L222.4,165.1L223,167L222.3,168.6L222.2,172.9L220.2,170.8L217.9,169.1L216.5,168.5L215.1,168L204.3,168.2L203,168.6L202.1,169.1L201.1,169.4L198.1,169.9L195.1,170L188.2,168.6L185.4,167.9L182.7,167.4L179.5,167.6L176.4,168L173.8,169L172,170.8L171.6,172.4L170.5,172.8L167.9,170.2L165.6,168.4L162.9,167L157.5,165L156.4,163.8L156,162.3L158.3,157.8L160.7,157L162.1,156.8L165.2,157.4L168.3,158.4L171,159.1L175.3,159.4L177.7,160.5L194.1,162.2L197.2,162.7L198.5,162.5L199.5,161.9L200.4,160.6L201.4,159.7L206.4,159.5L207.3,159.1L208,157.8L208,156.5L205.1,154.7L200.7,150.9L196.7,146.3L198.5,144.7L197.8,141.9L198.5,139.3L199.3,136.7L195.5,134.5L190.8,132.3L184.4,131.7L182.4,131.1L181.4,129.4L182.4,127.2L184.4,126L186.8,125.3L189.2,124.7L195.1,124.1L201,124.8L206,127.1L211.2,128.9L217.6,129.4L220.6,130.1ZM196.9,153.9L196.4,155.7L190.2,153.5L185.2,150.8L185.4,149.3L188,149L190.5,149.9L194.1,151.7ZM200.3,121.2L201.4,121.8L200.9,122.6L198.5,122.1L195.9,121.3L195.1,121.5L194.6,121.4L193.1,120.6L194.4,120L195.7,119.8L197.2,119.8Z" fill="#b8e653" stroke="#0c0e06" stroke-width="1"/></svg>
