<svg xmlns="http://www.w3.org/2000/svg" viewBox="0 0 300 300"><path fill="#e8e8ea" d="M267.8,78.8L269.8,81.7L274.1,101.3L274.4,107.7L270.1,117.2L270.8,120.9L280,129.7L280,132.7L279,135.9L271.1,144.2L265.1,149.9L267.1,156.5L272.1,162.6L272.7,167.8L271.1,174.7L263.8,183.1L259.8,186.1L248.6,186.4L247.6,187.6L252.9,195.9L259.2,205.3L269.4,212.5L271.7,219.4L269.1,225.7L268.8,241.7L261.2,233.9L252.6,227.6L247.3,225.1L242,223.4L201.4,224.2L196.7,225.4L193.1,227.4L189.5,228.4L178.2,230.4L167,230.8L140.9,225.6L130.7,222.9L120.4,221.2L108.5,221.7L96.6,223.4L87.1,227.1L80.1,233.8L78.8,239.8L74.5,241.5L64.9,231.6L56,224.7L46.1,219.5L25.6,212L21.7,207.4L20,202.1L28.6,185.1L37.8,181.9L43.1,181.4L54.7,183.4L66.3,187.3L76.5,189.8L92.7,190.8L101.6,195L163.4,201.4L174.9,203.4L179.6,202.7L183.5,200.2L186.8,195.7L190.8,192.2L209.3,191.5L212.9,190L215.6,185.1L215.6,180.2L204.7,173.5L187.8,159L173,141.7L179.6,135.9L176.9,125.3L179.6,115.5L182.9,105.9L168.3,97.6L150.8,89.3L126.7,86.8L119.4,84.6L115.5,78.5L119.1,70.2L126.7,65.5L135.6,62.8L144.9,60.7L167,58.3L189.1,61.1L208,69.5L227.5,76.3L251.6,78.5L262.8,80.9ZM173.6,170.3L172,177L148.5,169L129.7,158.7L130.3,153.1L140.3,151.9L149.5,155.3L163.1,162Z"/></svg>
