<svg xmlns="http://www.w3.org/2000/svg" viewBox="0 0 300 300"><path fill="#e8e8ea" d="M251.4,79.6L255.2,79.1L255.3,79.2L256.1,79.5L256.7,82.2L256.8,82.3L257.8,84.1L258.6,86.5L259.9,88.2L262.6,88.9L266.3,91.1L268.7,95.2L272.3,97L272.5,97L273.2,96.8L275.9,96.7L276.4,97.5L278.5,99.5L279.3,101.3L278.9,103L279.2,105.2L280,105.9L279,107.3L272.4,114.4L269.8,116.2L268,116.6L265.2,115.9L262.5,116.4L259.9,118L257.5,118.4L255.8,120.3L253.5,124.1L250.7,127.3L247.8,129.4L246.3,131.2L246.2,137.4L244.7,139.1L242.6,140.9L241.4,142.5L238.2,151.9L235.7,154.9L233.5,157.2L233.1,159.3L233.1,161.7L230.5,166.5L227,171.5L226.3,173.5L227.1,176.2L223.8,179.4L221.9,180.9L220.4,181.7L219.4,183.6L217.8,188.4L218.2,190.6L218.2,192.5L215.4,193.6L214.6,195.9L213.9,198.5L212.8,199.7L209.6,201.9L201.9,201L198.9,201.7L198,203.3L197.9,204.6L196.9,205.8L195.1,207.3L193.2,208L189.2,206.2L180.5,208L179,209.3L177.7,208.4L175.9,207.5L167.3,206.5L163.8,207.3L159.1,206.9L155,206L151.8,206.7L148.9,210.5L147.5,211.8L146.4,212.6L144.1,213.7L142,215.2L139.4,216.2L137,216L134.7,214.4L134,214.8L133.2,216.3L132.1,217.6L128.6,219.1L127.8,219.1L127.6,219.1L125,220.3L120.7,220.9L118.5,220.4L114.7,225.6L113.6,226.6L109.8,228.2L106.8,228.9L104.2,228.3L103.2,228.3L91.6,228L85.7,226.9L81.8,224.8L79.2,222.6L78,220.1L75.1,218.6L70.4,218.1L66.6,215.6L64,211.2L60.4,207.6L56,205L52.4,201.4L49.8,196.5L45.1,192.3L38.2,188.4L36.1,187.7L35.7,186.4L32.4,181.7L31,179.9L31.2,177.6L30.5,176.2L29.2,175.3L28.6,171.9L28.3,169.3L27.3,167.7L20,167.3L26.1,161.2L29.1,159.5L32.7,159.8L33.8,159.3L34.1,158.4L34.6,156.4L35,154.5L35.3,152.8L34.9,151.8L33.2,151.5L32.4,147.1L33.2,145.4L34.1,144.2L33.1,138.9L33.4,137.2L36.1,136.9L38.4,135.7L40.3,134.4L40.8,132.7L42.4,129.4L41,125.2L33,122.6L32.6,121.5L34.4,120.3L36.4,118.6L37.5,117.3L39,117.1L41.3,117.8L45.1,120.8L46.5,121.3L48,120.4L49.5,120.2L53.7,120.3L57.3,119.6L56.4,116.4L56.4,114.1L55.9,112.2L56.3,110.2L57.7,108.6L58.1,105L60.4,102.6L61.4,102.3L65.4,102.7L66.2,103.2L66.9,103.4L73.1,109.3L79.1,113.8L83.9,116L91.1,116.2L98.7,116.4L111.4,115.7L120.9,115.1L121.4,114L123,111.3L121.7,109L121.8,106.4L123.4,102.8L128.1,100L141.6,98.8L149.3,96.6L150.4,93.6L153,90.7L155.4,90.1L158.6,91.5L162.4,94L165.9,95.4L167.8,94.5L174.7,90.2L182.6,85.9L188,74.4L188.5,72.6L194.4,71.3L203,71.5L207.4,73L210.6,73.8L215.6,73.6L222.7,71.1L225.4,71.2L227.4,72.9L229.6,74.4L231.1,76.3L232.3,78.9L232.9,79.8L233.9,81.2L235.7,83L237.5,83.5L250.6,80.3Z"/></svg>
