<svg xmlns="http://www.w3.org/2000/svg" viewBox="0 0 400 300"><path d="M0,273.5L2.1,268.3L2.1,268.3L14,258.7L17.1,280.2L11,299.3L2.6,294.3L0,284L0,273.5Z" fill="#2c2c34" stroke="#474751" stroke-width="0.8"/><path d="M400,31.3L396.7,30L380.1,31.4L375.2,24.5L368.3,29.6L361.4,25.3L346.9,24.7L326.3,17.6L307.7,15.2L293.4,15.9L283.3,24L274.5,25.2L274.1,11.9L269.3,0L400,0Z" fill="#2c2c34" stroke="#474751" stroke-width="0.8"/><path d="M400,181.6L386.5,200L378.1,195.6L369.5,199.8L361.2,194.9L365.9,192.1L369.1,183L374.2,174.6L372.8,169.8L376.7,167.6L378.5,171.3L389.4,172.1L394.3,170.1L390.8,167.4L392.1,163.4L385.6,156.6L383,145.2L376.3,140.8L377.6,131.5L369.3,124.1L361.7,123.1L348.2,114.4L335.9,117.2L331.5,121.2L323.7,121.2L319.1,127.7L305.5,130.3L299.2,134.6L290.6,127.9L278.8,127.7L267.4,124.7L259.4,130.6L258.2,123.2L247.9,115.7L251.6,104.4L256.7,97.1L260.6,98.8L255.9,86.1L272.7,62.3L281.8,58.9L283.7,50.8L274.5,25.2L283.3,24L293.4,15.9L307.7,15.2L326.3,17.6L346.9,24.7L361.4,25.3L368.3,29.6L375.2,24.5L380.1,31.4L396.7,30L400,31.3L400,181.6Z" fill="#2c2c34" stroke="#474751" stroke-width="0.8"/><path d="M269.3,0L274.1,11.9L274.5,25.2L283.7,50.8L281.8,58.9L272.7,62.3L255.9,86.1L260.6,98.8L256.7,97.1L239.1,86.3L225.9,90.3L217.2,87.4L206.2,93.4L196.9,83.4L189.4,87.3L188.3,85.5L179.9,71.5L166.2,69.7L164.4,60.7L151.8,57.5L149,65L139,59L140.2,51L126.4,48.5L117.7,39L110.1,20.2L111.6,9.9L108.8,0L269.3,0Z" fill="#2c2c34" stroke="#474751" stroke-width="0.8"/><path d="M153.8,124L152.4,135.2L142.1,135.3L145.6,141.2L139.5,158.6L136,163.2L119.9,163.8L110.6,169.9L95.4,167.9L69,160.9L64.8,151.5L46.7,156.2L44.5,161.4L33.3,157.5L23.9,156.8L15.6,151.9L18.4,145.2L17.7,140.4L23.2,138.9L32.6,146.4L35.2,139.3L51.4,140.4L64.7,135.5L73.5,136.3L79.2,141.9L81,137.3L78.3,119.4L85,115.9L91.5,103L105.1,112L115.5,100.5L122,98.4L136.3,107L145,105.6L153.5,110.8L152,114.3Z" fill="#2c2c34" stroke="#474751" stroke-width="0.8"/><path d="M331.5,121.2L335.9,117.2L348.2,114.4L361.7,123.1L369.3,124.1L377.6,131.5L376.3,140.8L383,145.2L385.6,156.6L392.1,163.4L390.8,167.4L394.3,170.1L389.4,172.1L378.5,171.3L376.7,167.6L372.8,169.8L374.2,174.6L369.1,183L365.9,192.1L361.2,194.9L357.9,182.9L359.9,171.5L359.3,159.8L348.7,143.6L342.8,132.1L337.1,124Z" fill="#2c2c34" stroke="#474751" stroke-width="0.8"/><path d="M361.2,194.9L369.5,199.8L378.1,195.6L386.5,200L386.9,206.8L377.9,212.4L372.4,209.9L367.2,241L356.4,238.4L343,229L321.3,235L312.1,241.5L285.1,240.2L270.9,236.2L263.8,238L258.5,227.5L255.1,223L259.4,218.7L254.8,215.4L249,221.3L238.3,213.7L236.8,203L225.6,196.8L223.6,188.4L213.5,178L228.3,173L239.5,154.8L248.2,136.3L259.4,130.6L267.4,124.7L278.8,127.7L290.6,127.9L299.2,134.6L305.5,130.3L319.1,127.7L323.7,121.2L331.5,121.2L337.1,124L342.8,132.1L348.7,143.6L359.3,159.8L359.9,171.5L357.9,182.9Z" fill="#2c2c34" stroke="#474751" stroke-width="0.8"/><path d="M108.8,0L111.6,9.9L110.1,20.2L117.7,39L109.4,42.1L104.6,38.7L99.9,44.4L86.7,50L79.8,57.2L66.4,63.5L69.7,72.1L71.7,84.1L81,90.9L91.5,103L85,115.9L78.3,119.4L81,137.3L79.2,141.9L73.5,136.3L64.7,135.5L51.4,140.4L35.2,139.3L32.6,146.4L23.2,138.9L17.7,140.4L0,132.9L0,0Z" fill="#2c2c34" stroke="#474751" stroke-width="0.8"/><path d="M301,300L292.3,294.3L279.7,300L263.9,300L263.9,300L262.6,284L253.3,276L256.4,272.5L254.4,269.5L257.5,261.5L264.5,253.6L255.5,242.7L253.9,233.3L258.5,227.5L258.5,227.5L263.8,238L270.9,236.2L285.1,240.2L312.1,241.5L321.3,235L343,229L356.4,238.4L367.2,241L357.6,251.6L350.9,269.5L356.8,283.8L341,280.4L322.2,288.2L322,300L301,300Z" fill="#2c2c34" stroke="#474751" stroke-width="0.8"/><path d="M279.7,300L292.3,294.3L301,300L279.7,300ZM322,300L322.2,288.2L331.2,294.8L329.2,300L322,300Z" fill="#2c2c34" stroke="#474751" stroke-width="0.8"/><path d="M329.2,300L331.2,294.8L322.2,288.2L322.2,288.2L341,280.4L356.8,283.8L359,293.3L372.7,300L329.2,300Z" fill="#2c2c34" stroke="#474751" stroke-width="0.8"/><path d="M198.3,300L198.5,298.5L201,290.9L197.9,287L196.7,279.1L204.6,266.8L205.8,271.5L210.8,269.3L214.7,276L219.1,278.5L220.4,287.5L218,295.9L219,300L198.3,300Z" fill="#2c2c34" stroke="#474751" stroke-width="0.8"/><path d="M146.2,168L152,171.3L165.8,182.7L181,187.8L187.9,183.8L192.4,194L198.3,201.6L191.2,211.4L182.8,205.6L170.1,205.9L154.2,201.6L145.6,202.2L141.6,207.6L135,201.6L131.1,212.4L140.2,224.5L144.2,232.5L152.6,242.1L159.7,247.7L166.6,258.2L182.9,267.8L180.9,272L163.6,262.8L152.9,253.7L136,246.1L120.6,227.3L124.3,225.4L115.9,214.5L115.5,205.7L103.7,201.6L98,212.8L92.6,204.1L93,195L93.6,194.6L106.5,195.5L109.9,191.1L116.1,195.4L123.4,195.9L123.3,188.5L129.7,185.8L131.5,175.1Z" fill="#2c2c34" stroke="#474751" stroke-width="0.8"/><path d="M0,132.9L17.7,140.4L17.7,140.4L18.4,145.2L15.6,151.9L23.9,156.8L33.3,157.5L31.9,168.5L23.8,173.1L10.1,169.7L6.1,180.5L0,181L0,132.9Z" fill="#2c2c34" stroke="#474751" stroke-width="0.8"/><path d="M75.3,300L64,291.3L47.1,275.1L34.6,260.7L28.9,235.6L19.7,232.6L4.7,224.1L0,226.1L0,181L0,181L6.1,180.5L10.1,169.7L23.8,173.1L31.9,168.5L33.3,157.5L33.3,157.5L44.5,161.4L46.7,156.2L64.8,151.5L69,160.9L95.4,167.9L93.3,181L97.8,192.2L83.1,188.4L68.1,197.7L69.1,210.7L66.8,218.1L72.9,231.2L90.2,244.1L99.5,265L120,285.1L134.4,284.9L138.9,290.4L133.7,295.3L142.4,300L75.3,300Z" fill="#2c2c34" stroke="#474751" stroke-width="0.8"/><path d="M95.4,167.9L110.6,169.9L119.9,163.8L136,163.2L139.5,158.6L142.6,158.9L146.2,168L131.5,175.1L129.7,185.8L123.3,188.5L123.4,195.9L116.1,195.4L109.9,191.1L106.5,195.5L93.6,194.6L97.8,192.2L93.3,181Z" fill="#2c2c34" stroke="#474751" stroke-width="0.8"/><path d="M256.7,97.1L251.6,104.4L247.9,115.7L244,118.5L224.3,110.1L218.2,111.8L213.9,118.3L205.2,121.8L203.3,120L194.3,124.3L186.9,125.1L185.5,130.6L170,134L163.2,131L153.8,124L152,114.3L153.5,110.8L156.1,104.7L164.2,105.1L170.5,102.3L171,99.6L174.6,98.3L175.8,91.9L180,90.7L182.9,85.6L188.3,85.5L189.4,87.3L196.9,83.4L206.2,93.4L217.2,87.4L225.9,90.3L239.1,86.3Z" fill="#2c2c34" stroke="#474751" stroke-width="0.8"/><path d="M117.7,39L126.4,48.5L140.2,51L139,59L149,65L151.8,57.5L164.4,60.7L166.2,69.7L179.9,71.5L188.3,85.5L182.9,85.6L180,90.7L175.8,91.9L174.6,98.3L171,99.6L170.5,102.3L164.2,105.1L156.1,104.7L153.5,110.8L145,105.6L136.3,107L122,98.4L115.5,100.5L105.1,112L91.5,103L81,90.9L71.7,84.1L69.7,72.1L66.4,63.5L79.8,57.2L86.7,50L99.9,44.4L104.6,38.7L109.4,42.1Z" fill="#2c2c34" stroke="#474751" stroke-width="0.8"/><path d="M182.9,267.8L166.6,258.2L159.7,247.7L152.6,242.1L144.2,232.5L140.2,224.5L131.1,212.4L135,201.6L141.6,207.6L145.6,202.2L154.2,201.6L170.1,205.9L182.8,205.6L191.2,211.4L197.8,211.3L193.2,222.7L202.1,232.5L199.4,244.6L195.1,245.7L191.6,248L185.7,253.9Z" fill="#2c2c34" stroke="#474751" stroke-width="0.8"/><path d="M219,300L218,295.9L220.4,287.5L222.7,287.7L223.6,282.7L234.4,278.8L238.5,277.9L244.9,276.4L253.3,276L253.3,276L262.6,284L263.9,300L219,300Z" fill="#2c2c34" stroke="#474751" stroke-width="0.8"/><path d="M187.9,183.8L202.1,176.9L213.5,178L223.6,188.4L225.6,196.8L236.8,203L238.3,213.7L249,221.3L254.8,215.4L259.4,218.7L255.1,223L258.5,227.5L253.9,233.3L255.5,242.7L264.5,253.6L257.5,261.5L254.4,269.5L256.4,272.5L253.3,276L244.9,276.4L238.5,277.9L238,276L240.1,273L242.2,266.9L239.6,267.1L236,262.4L233,261.2L230.6,257.2L227.1,255.7L224.5,252.1L221.2,253.5L218.6,261.9L214.3,263.7L215.7,261.5L208.7,256.3L202.7,253.6L200,250.1L195.1,245.7L199.4,244.6L202.1,232.5L193.2,222.7L197.8,211.3L191.2,211.4L198.3,201.6L192.4,194Z" fill="#2c2c34" stroke="#474751" stroke-width="0.8"/><path d="M210.8,269.3L205.8,271.5L204.6,266.8L196.7,279.1L197.9,287L194,285.1L188.9,277L180.9,272L182.9,267.8L185.7,253.9L191.6,248L195.1,245.7L200,250.1L202.7,253.6L208.7,256.3L215.7,261.5L214.3,263.7Z" fill="#2c2c34" stroke="#474751" stroke-width="0.8"/><path d="M220.4,287.5L219.1,278.5L214.7,276L210.8,269.3L214.3,263.7L218.6,261.9L221.2,253.5L224.5,252.1L227.1,255.7L230.6,257.2L233,261.2L236,262.4L239.6,267.1L242.2,266.9L240.1,273L238,276L238.5,277.9L234.4,278.8L223.6,282.7L222.7,287.7Z" fill="#2c2c34" stroke="#474751" stroke-width="0.8"/><path d="M248.8,116.1L250.6,115.9L250.6,116L251,116.1L251.3,117.4L251.4,117.4L251.8,118.3L252.2,119.5L252.8,120.3L254.1,120.6L255.9,121.7L257.1,123.6L258.8,124.5L258.9,124.5L259.2,124.4L260.5,124.4L260.8,124.7L261.8,125.7L262.2,126.6L262,127.4L262.1,128.5L262.5,128.8L262,129.5L258.9,132.9L257.6,133.8L256.7,134L255.4,133.6L254.1,133.9L252.8,134.6L251.7,134.8L250.9,135.7L249.8,137.5L248.4,139.1L247,140.1L246.3,140.9L246.2,143.9L245.5,144.8L244.5,145.6L243.9,146.4L242.4,150.9L241.2,152.4L240.1,153.4L239.9,154.5L239.9,155.6L238.7,157.9L237,160.3L236.7,161.3L237.1,162.6L235.5,164.2L234.6,164.8L233.8,165.2L233.4,166.2L232.6,168.5L232.8,169.5L232.8,170.4L231.4,171L231.1,172.1L230.7,173.3L230.2,173.9L228.7,175L224.9,174.5L223.5,174.9L223.1,175.6L223,176.3L222.6,176.8L221.7,177.6L220.8,177.9L218.8,177L214.7,177.9L213.9,178.5L213.3,178.1L212.5,177.6L208.3,177.1L206.6,177.6L204.4,177.4L202.4,176.9L200.9,177.3L199.5,179.1L198.8,179.7L198.3,180.1L197.1,180.6L196.2,181.3L194.9,181.8L193.8,181.8L192.6,181L192.3,181.2L191.9,181.9L191.4,182.5L189.7,183.2L189.3,183.2L189.3,183.2L188,183.8L185.9,184.1L184.9,183.9L183,186.4L182.5,186.8L180.7,187.6L179.2,188L178,187.6L177.5,187.6L171.9,187.5L169.1,186.9L167.2,186L166,184.9L165.4,183.7L164,183L161.7,182.7L159.9,181.5L158.7,179.4L156.9,177.7L154.8,176.4L153.1,174.7L151.8,172.4L149.6,170.3L146.3,168.5L145.3,168.1L145.1,167.5L143.5,165.2L142.8,164.4L142.9,163.3L142.5,162.6L141.9,162.1L141.6,160.5L141.5,159.3L141,158.5L137.5,158.3L140.4,155.4L141.9,154.6L143.6,154.7L144.1,154.5L144.3,154L144.5,153.1L144.7,152.2L144.9,151.3L144.7,150.9L143.9,150.7L143.5,148.6L143.9,147.8L144.3,147.2L143.8,144.7L143.9,143.8L145.3,143.7L146.3,143.1L147.3,142.5L147.5,141.7L148.2,140.1L147.6,138.1L143.7,136.8L143.5,136.3L144.4,135.7L145.4,134.9L145.9,134.3L146.7,134.2L147.7,134.5L149.6,136L150.2,136.2L151,135.8L151.7,135.7L153.7,135.7L155.4,135.4L155,133.9L155,132.7L154.8,131.8L155,130.9L155.6,130.1L155.8,128.4L156.9,127.2L157.4,127L159.3,127.2L159.7,127.5L160.1,127.6L163,130.4L165.9,132.6L168.2,133.7L171.7,133.8L175.3,133.9L181.4,133.5L186,133.2L186.3,132.7L187,131.4L186.4,130.3L186.5,129.1L187.2,127.3L189.5,125.9L196,125.4L199.7,124.3L200.2,122.9L201.5,121.5L202.6,121.2L204.1,121.9L206,123.1L207.6,123.7L208.6,123.3L211.9,121.2L215.7,119.2L218.2,113.6L218.5,112.8L221.4,112.1L225.5,112.2L227.6,113L229.1,113.3L231.5,113.3L235,112L236.2,112.1L237.2,112.9L238.3,113.6L239,114.6L239.5,115.8L239.9,116.2L240.3,116.9L241.2,117.8L242.1,118L248.4,116.5Z" fill="#b8e653" stroke="#0c0e06" stroke-width="1"/></svg>
