<svg xmlns="http://www.w3.org/2000/svg" viewBox="0 0 300 300"><path fill="#e8e8ea" d="M-53.8,195.7L-52.9,197.5L-51.7,199L-50.8,200.8L-49.5,209.1L-45.6,216.2L-33.9,219L-35.8,220.1L-36.7,221.2L-37.5,222.4L-39.1,227.3L-39.1,228.4L-38,230L-37.8,231.9L-39.2,231.9L-40.8,231.4L-42.2,230.8L-43.4,229.9L-44.7,229.1L-46.1,228.7L-48.5,227.3L-51.7,226.3L-55,225.5L-56.6,223.4L-57.3,220.8L-56.5,216.9L-57.3,215.9L-58.6,214.9L-59.9,212.2L-60.5,208.9L-62.5,207.6L-65.3,206.9L-66.5,206.2L-71.9,207.4L-73.2,207.1L-74.3,206.2L-77.3,205.3L-77.2,203.5L-75.8,202.1L-72.6,200.6L-71.1,199.4L-70.8,197.8L-71.4,196.6L-71.1,195.4L-70.1,194.1L-68.9,193.2L-65.7,192L-64.2,194.1L-63.6,195.9L-62.6,197.3L-61.3,195.4L-62.2,192.2L-59.7,191.5L-57.3,191.4L-55.5,192.3L-54.3,193.7ZM432.3,126.9L427.4,131.3L425.8,133.4L424.5,135.7L422.5,138.2L420.3,140.4L419.2,141.1L416.5,142.3L414.9,142.8L412,143L402.9,144.7L400.1,144.9L397.1,144.8L391.5,144.4L390.4,144.2L388.2,141.9L385.7,140.1L383.4,139.9L381.2,140L365,140.2L359.3,140.5L353.6,141.3L350.6,141L347.5,140L345.3,139.7L343,139.8L332.3,141.2L329.6,141.1L324.2,139.3L321,139L318,139.4L315.1,141L314.1,142.1L311.1,145.7L309.4,148.3L308.1,151.6L307.1,154.9L306.5,157.6L306.5,160.5L306.9,163.7L307.8,166.9L308.7,169.4L312.3,175L313.1,175.8L317.1,177.4L319.5,179.4L321.8,185L323.4,188L324.9,188L326.7,187.8L329.8,188.1L332.8,188.9L335.8,187.2L337.4,183.9L339.1,181.4L343.1,176.8L345.4,174.7L346.8,174L348.3,174.3L349.5,175.5L350.9,176.5L353.9,177L357,176.7L360.1,175.2L361.3,174.3L362.3,173.1L365,172.1L371.4,172.1L374.7,172.5L380.7,172.1L380.6,171.2L379.5,170.3L379.1,169.6L380.2,169.1L384,168.1L387.9,167.3L390.8,167.9L393.3,169.3L394.3,170.9L394.7,172.7L393.8,177.4L393.3,178.5L391.2,179L389.4,178.4L387.4,176L384.8,175.1L381,175.8L379.7,176.5L378.5,177.5L376.4,180L374.6,182.9L370.8,187.4L366.4,191.2L364.2,192.7L361.8,193.7L354.1,196.3L352.1,198.2L350.5,200.6L348.7,201.5L346.7,201.8L345.2,201.3L342.1,199.9L341.1,201L340.9,202.8L342.4,203.4L344.9,205.3L346.8,208.1L348,208.7L350.7,209.6L351.8,210.4L353.8,212.7L357,218.2L358.1,221.2L359.9,223.5L365.2,227.6L365.5,228.8L365.2,230.1L365.6,231.3L367.6,233.7L368,235.2L365.9,237.1L365.8,239.9L364.5,243.6L364.2,244.9L364.2,246.1L365.2,247.1L366.2,247.9L367.7,248.4L369,249.1L371.4,252.1L372.7,252.8L373.4,253.9L373.4,255.5L374.5,256.4L375.6,258L377,258.4L377.8,258L378.3,257.3L379.6,257.5L380.4,258.7L380.8,260.1L380.9,261.8L380.8,264.9L380.2,266L378.8,265.9L376.3,264.7L376.2,265.6L376.4,266.5L375.1,266.8L373.6,266.7L369.9,266.8L363.1,268.7L360.7,269.8L359.1,271.9L359,273.3L359.6,276.4L358.7,277.4L355.6,277.8L351.2,277L348.6,276.2L347.1,275.5L345.2,273.5L344.4,270.9L345.9,263.2L346.3,262.2L347,261.3L347.7,259.9L347.9,258.3L345.8,256.2L342.7,255.4L340,253.8L329.7,244.4L329.1,243.4L329.1,241.9L329.5,240.4L332.9,235.3L333.3,234.3L333.8,230.3L333.7,226.9L333.3,223.6L331.7,221.5L328.8,220.8L325.9,220.8L323,221.4L320.2,223.1L314.9,226.6L312.9,228.7L312.7,231.4L313.9,234L315.5,236.4L316.2,239L317.4,248.3L317.3,249.3L316,252L315.5,258.1L316,266.6L317,271.8L316.6,274.6L314.2,280.8L313.4,284.1L313.3,285.5L316.2,291.9L316.9,294.4L317.2,297L314.2,295.8L312.8,295.8L311.3,296.2L308.1,296.6L304.9,296.7L303.8,297.2L301.5,298.9L300.1,299.6L298.9,299.7L294.8,297.6L292.3,295.2L290,292.7L289.7,289.9L290.4,286.9L291.5,283.8L293.7,278.6L293.7,275.1L294.4,272.2L295.7,269.4L296.2,266.8L296.4,256.7L296.2,255.8L293.1,249.9L292.7,248.9L292.7,247.3L293,245.7L293.1,244.3L292.4,243.3L291.1,242.3L289.7,241.9L286.5,242.3L280.2,243.9L278.3,242.5L276.9,240.3L276,237.3L275.5,234.1L275.7,231.1L276.7,228.2L275.9,226.1L274.8,223.9L274.8,222.8L275.5,221.8L276.6,221L278,220.5L279.3,219.6L282.7,216.7L283.8,214.1L283.9,210.9L284.8,207.8L286.6,205L288.6,202.4L289.3,199.7L288.3,195.4L288.7,193.5L288.4,191.2L288.4,188.9L289.6,184.7L293.5,176L297.2,171.4L298.7,170.2L300.6,172.3L302.1,174.8L302.2,172.6L301.7,170.3L300.2,165.1L298.9,154.9L299.3,153.9L300.6,154.1L302,153.2L302.7,151.6L301.3,147.8L301.3,146.4L303.9,141.1L306.1,139.2L307,138L307.6,134.7L308.7,133.5L310.2,132.6L312,130.4L313.1,127.6L313.7,127.3L314.5,127.2L315.6,129.7L316.9,130.7L319.5,131.5L321.7,130.6L322.3,129.3L323.2,128.3L324.5,127.1L325.6,125.9L326.9,122.9L328.6,120.3L329.7,119.4L331.1,118.8L332.6,118.4L334,118.4L337.3,120L339.2,120.3L341.1,120.3L342.4,120.5L343.3,121.3L344.2,122.8L345.2,124.1L346.1,124.7L347.2,125L354.3,124.5L360.5,126L369,126.3L371.9,127.2L374.7,128.4L378.1,130.3L379.4,130.8L380.8,130.7L382.5,128.8L383.8,128.4L385.2,128.3L390.7,128.7L405.4,131L407.5,130.6L416.4,126.2L419.9,122L423.1,120.9L424.1,119L424.8,116.7L425.9,116.1L428.6,115.4L429.6,114.7L431.5,112L433.8,109.5L434.8,108.7L438,109.1L439.3,110.2L441.1,113.8L440.8,114.5L438.8,116.3L438.1,117L435.8,122.2L434.2,124.7ZM-19.6,307.8L-17,310.8L-14.6,312.4L-11.9,313.2L-9.2,313.3L-6.4,313.7L-3.1,314.8L0.1,315.3L1.7,315.1L3.2,314.6L4.2,314.5L5.1,315L7.5,317.6L10,319.9L10.5,321L12.2,326.6L14.1,328.2L16.8,328.6L19.8,328.6L22.9,328.8L30,330.1L32.8,330L35.3,328.7L37.6,329.5L43.6,331L46.6,331.4L49.9,331L53.3,330.9L54.9,331.3L56.5,332L57.8,332.3L59.2,332.2L61.6,330.9L63.3,328.6L64.6,325.5L65.6,322.4L66.2,321.1L67.2,319.9L68.5,319.1L69.8,318.7L73.3,319L74,319.7L77.9,325L78.7,325.5L82.9,325.8L84,325.6L86.5,324.6L88,324.5L90.6,325.8L91.8,326.9L93,327.7L99.5,328.6L102.1,330.8L103.3,331.1L107.8,330.9L111,331.1L113.7,331.7L114.9,334.9L115.9,338.2L116.6,339.4L119.2,340.5L120.3,341.5L120,344.8L120.3,348L126,350.7L132,352.3L138.4,352.4L144.9,351.9L148.1,351.2L152.3,350.1L153.2,350.1L161.2,353.7L162,354.2L162.8,356.9L162.8,359.7L161.3,366.5L161.2,368.3L161.3,370.2L163,374.2L163.8,375.3L166.7,377.5L166.8,378.6L166.4,379.7L163.2,378.9L161.2,378L160.1,376.5L158.5,375.7L155.5,376L149.8,374.4L143.4,372.1L132.1,367.1L129,367.1L126,367.8L123,369L119.7,370L117.3,370.3L114.9,370L108.9,368.8L102.7,368L87.1,367.6L82.8,366.4L75.4,365.9L69.6,364.9L63.8,363.5L49.2,356.8L44.4,355.2L29.7,352L27.4,351.7L22,351.9L18.7,351L15.7,351L11.4,352L10,352.8L8.3,354.3L5.2,354.3L2.3,353.9L-5.5,352.4L-8.4,351.5L-11.2,350.1L-13.8,348.3L-15.1,347.7L-21.8,345.9L-27.4,345.2L-38.7,344.4L-41.2,343.9L-43.2,343.2L-44.3,341.7L-44.3,339.8L-43.4,338.2L-42.3,336.6L-41.6,335L-49.8,331.7L-56.4,329.9L-59.2,329.6L-62.1,329.6L-65.2,330L-68.4,329.8L-69.9,329.3L-71.5,329.1L-72.9,329.5L-74.2,329.3L-74.5,327.8L-73.7,326.6L-72.1,325.1L-71.2,324.9L-70.8,327.1L-70.3,327.6L-68.9,328.1L-68.3,327.9L-65.8,325.1L-65.1,323.7L-63.8,319.8L-62.5,320.5L-61.2,320.1L-60.5,319.5L-58.4,310.7L-56.6,308.1L-54.2,306L-53.1,305.4L-50.7,306.7L-45.9,307.2L-43.1,308.1L-40.3,308.2L-37.6,308.7L-33.7,310.2L-32.3,310L-31,309.6L-28.8,307.8L-28,305.1L-25,306.5L-20.6,307.1ZM38.7,100.3L36.3,103.7L36.5,104.9L37.2,106L38.9,106.8L39.3,110.9L41.4,113.3L43.5,115.5L45.1,116.5L46.7,118.1L48,119.5L49.3,120.7L51.2,121.9L56.3,126.9L58.5,128.4L60.1,129.8L61.2,130.4L64.1,130L72.4,126.3L73.9,126.1L76.6,125.5L81.4,125.7L86.5,126.9L88.1,127L89.6,126.2L91.9,126.4L93.8,126.8L94.8,126.5L97.8,123.9L101.8,123.1L103.1,120.5L104.1,118.1L104.6,115.5L106.3,114.4L108.6,113.5L112.1,112.4L124.1,112.2L125.3,112.7L125.6,114L125.3,115L125.8,115.6L127.3,115.7L128.8,116.3L134.9,118.4L137.4,119L138.9,118.9L141.6,120.7L143.1,120.1L145.2,118.8L147.1,117L148.9,115.6L151.4,115.1L154.6,115.1L158.5,114.7L161.3,113.9L164.6,115.1L165.4,114.7L166,113.5L167.6,110.9L168.4,109.1L169,105.7L169.5,104.8L170.7,104.4L172,103.7L172.4,102.7L172.8,101.5L172.4,100.5L171.7,99.7L171,96.8L171.2,95.5L171.6,94.5L172.9,94L176.4,91.9L179.4,89.5L181.1,88.3L181.8,87.5L181.9,86.4L180.6,85.2L179.3,84.6L179.2,83.3L179.3,82.3L179.6,81.4L179.4,80.6L179.4,79.3L180.2,77.9L182,75.8L183.5,74.5L185.2,75.4L187.1,74.9L188.9,74.3L189.9,71.9L190,70.7L189.8,69.8L190.4,66.3L190.6,65.8L191.8,63.6L191.9,62.2L191.2,58.8L191.6,56.2L191.9,50.9L192.5,50L193.4,47.2L194.7,44.3L197.4,42.8L198.8,40.7L199.4,40.4L200.3,40.3L203.5,41.8L206.5,40.2L209.1,39.9L211.2,40.2L212.5,40.9L213.7,41.4L216.2,39.8L217.2,40L218.2,40.6L219.5,40.6L220.9,40.2L224.8,40.5L231.3,40.6L235.9,41.6L240.4,44.3L242.6,44.9L243.6,44.9L243.3,45.2L241.6,45.9L240.7,47.4L243.2,49.6L243.3,51.2L245.3,52.5L247.5,54.6L247.6,55.3L248.4,56.2L248.8,57.4L247.2,58.5L245,58.8L243.4,57.7L241.9,56.3L241.6,58L240.4,58.9L236.2,58.7L233.2,58.7L230.2,59.1L231.7,59.3L233,59.9L237.7,64.2L238.7,65.8L237.1,68.9L237.8,70.2L239.6,70.9L241.8,72.5L243.4,72.7L244.5,73.5L244.5,75L245.2,76.5L243.4,77L245.2,77.4L246.8,78.1L245.9,78.8L245.3,79.7L245.9,80.1L248.1,81L249,81.7L249.5,83.7L251.6,87L255.4,91.3L256.2,92.8L256.2,94.2L255.7,95.4L253.4,96.9L251.7,98.7L251.5,99.4L249.1,100.3L250.2,100.9L251,101.8L252.7,104.4L256.6,108.7L258.6,110.3L266.7,116L271,118.6L276.6,124.3L279.4,125.7L280,127.3L277.6,129.7L274.1,131L268.3,131.6L262.5,130.7L259.6,130.1L257,128.6L254.9,125.8L252.2,124.2L253.4,126L254,127.7L253.6,129.7L252.6,131.1L250.8,132.3L248.8,133.1L248,133.8L243,143.8L242.2,146.5L240.7,157.8L240.7,161L243,166.9L243.1,170L243.6,171.3L243.2,172.5L242.2,173.1L237.9,175L235,176.5L232.6,178.6L230.6,181.3L228.8,183.3L226.5,184.2L224.8,184L223.5,183.1L222.6,181.4L222.1,179.5L221.7,180.9L221.8,182.3L222.5,183.7L222.9,185.3L222.4,186.8L221.4,188.1L218.7,189.4L217.2,190.6L217,192.7L216.3,193.8L215.3,194.7L211.6,196.8L210.7,197.6L210.1,198.7L212.1,198.5L213.9,198.7L214.1,200.7L214.6,202.2L213.9,205.6L211.1,207.8L212.5,208.3L213.8,209L216.6,209.6L217.5,211.9L217.1,214.8L216.6,217.4L214.6,218.1L213.3,217.6L212,217.7L211.1,218.4L210.9,219.8L212.7,219.1L212.6,222.5L212.1,225.7L211.5,227.5L210.5,229L208.8,229.4L207.3,228.3L206.9,229.6L207.4,230.7L209.6,233.3L208.2,233.8L207.3,234.7L206.8,236L204.4,239L203.4,241.2L202.9,243.5L201.8,245.4L183.8,253.5L169.3,260.2L168.2,259.8L167.6,258.8L167,248.2L165.2,242.8L165,239.7L162.9,242.5L161.6,242.2L160.2,241.5L159.2,240.6L159.2,239.5L160.2,236.1L158.9,237.9L157.4,239.3L155.9,239.2L154.6,238.5L154.2,237.4L153.5,237.2L150.3,240.2L146.1,241.8L143.8,241.8L141.9,240.8L142,238.6L141.8,236.4L141.4,235.1L140.2,234.6L139.1,234.8L136.2,235.9L135.1,235.8L134.4,236.4L126.5,228.3L124.8,234.8L119.4,238.3L115.3,240.4L111.3,239.6L107.1,238.3L103,239.9L98.7,243.7L97.4,244.3L96.1,244.3L95.2,243.8L95.5,240.8L95.6,238L95.2,231.5L94.8,230.2L93.6,228.4L92,227.2L90.9,228.1L90.1,229.4L86.8,229.3L83.5,228.3L80.7,228.9L75.2,231.5L72.2,231.8L70.6,231.3L69.6,229.9L70.1,228.6L71.4,227.7L69.1,228.4L67.2,229.7L66.3,230.6L65.4,230.1L63,227.2L58,228.3L57.2,228.6L56,229.6L54.8,229.1L54.2,228.1L54,222L51.4,210.2L50.7,204.2L50.2,202.8L47.2,200.6L47.3,197.5L48.8,195L49.2,191.9L48.7,188.7L47.8,185.5L46.7,183.1L45,181L42.8,178.7L40,176.9L34.1,175L31.1,175.2L29.8,174.4L29.1,173.4L29.4,171.5L30.5,170.1L31.9,169.8L32.1,169.1L29,167.5L26.6,165.3L25.8,164.1L25.6,162.7L25.6,159.4L26.3,157.4L26.7,156.3L27.4,152.9L29.1,151.8L28.8,151.1L28.1,150.7L27.1,149.6L26.2,148.3L24.4,146.1L21,143.4L20.5,138.8L20,132.1L20.3,129.1L21.3,123.3L23.3,121.5L24.7,121L25.9,120.3L24.9,120.2L24.1,120.4L22.7,120.6L23.8,115.5L24.4,114L26.7,111.2L29.5,108.6L30.6,105.6L32.2,103Z"/></svg>
