<svg xmlns="http://www.w3.org/2000/svg" viewBox="0 0 400 300"><path d="M336.7,262L338.1,259L348.8,256.2L357.5,255.8L361.3,254.2L366,255.8L361.5,259.2L348.6,264.6L338.2,268.3L337.9,264.4Z" fill="#2c2c34" stroke="#474751" stroke-width="0.8"/><path d="M113.7,0L99.1,6.8L104.6,14.5L91.5,15.4L80.8,20.5L70.4,18.6L65.4,12.1L59.6,0L113.7,0Z" fill="#2c2c34" stroke="#474751" stroke-width="0.8"/><path d="M26.4,0L20.6,15.9L16.6,27.1L17.4,36.2L25.5,36.6L30.5,48L32.8,58.9L39.7,66L47.2,67.5L53.6,73.9L49.6,79.1L41.4,80.6L40.4,74.1L30.3,68.7L28.1,70.9L23.2,66.1L21.1,59.9L14.5,52.9L8.5,46.9L6.5,54.3L4.1,47.3L5.4,39.5L9.1,27.5L15.1,14.5L21.9,2.7L20.8,0L26.4,0Z" fill="#2c2c34" stroke="#474751" stroke-width="0.8"/><path d="M20.8,0L21.9,2.7L15.1,14.5L9.1,27.5L7.9,18.1L11.7,8.4L7.5,0.9L7.6,0L20.8,0Z" fill="#2c2c34" stroke="#474751" stroke-width="0.8"/><path d="M141.6,0L141.2,5.6L130.8,13.9L116.6,22L106.5,32.5L91,44.2L86.5,36.2L90,27.6L80.8,20.5L80.8,20.5L91.5,15.4L104.6,14.5L99.1,6.8L113.7,0L141.6,0Z" fill="#2c2c34" stroke="#474751" stroke-width="0.8"/><path d="M307.1,26.8L310.3,23.3L311.6,15.5L318.4,14.7L316.5,23.2L325.6,11.1L324.5,23.1L320,27.2L316.1,35.2L312.2,38.9L304.6,30.2ZM354.2,46.5L355.4,54.8L356.1,61.9L351.9,73.3L347.4,60.6L341.6,66.9L345.5,76.1L342,81.9L327.4,74.7L323.9,65.7L327.7,59.7L319.8,53.8L315.9,59L310.1,58.5L300.9,65.5L298.9,61.8L303.8,51.3L311.6,47.8L318.3,43L322.7,48.7L332.1,45.3L334.2,39.7L342.9,39.4L342.2,29.6L352.2,35.6L353.3,41.9ZM256.5,35.2L240,47.1L246.1,38.3L255,30.6L262.5,21.9L269,9.3L271.2,19.6L263,26.6ZM300.4,8.7L298.4,2.7L305.8,6.6L313.8,6.6L313.5,11.9L307.8,17.3L299.9,21.1L299.5,15.2ZM343.5,0L346.8,13.4L337.2,10.1L337.5,14.3L340.5,22.1L334.6,24.9L334.1,16L330.4,15.4L328.4,7.7L335.7,8.7L335.5,3.9L332.5,0L343.5,0Z" fill="#2c2c34" stroke="#474751" stroke-width="0.8"/><path d="M28.1,70.9L30.3,68.7L40.4,74.1L41.4,80.6L49.6,79.1L53.6,73.9L56.5,75.1L63.8,82.6L69,91L69.7,99.4L68.4,105L69.6,109.3L70.5,116.6L74.9,120L79.7,131L79.5,135.2L70.7,136L59,126.8L44.3,117L42.9,110.7L35.7,102.4L34,92.1L29.5,85.3L30.8,76.2ZM248.8,99.9L238,97.8L223.8,97.8L219.5,111.9L214.7,116.2L208.3,133.5L198.3,136.2L186.5,132.7L180.6,133.8L173.3,140L165.4,139.1L157.5,141.7L149,134.7L146.9,126.4L156,130.6L165.5,128.3L168,117.8L173.3,115.4L188.2,112.8L197.1,102.9L203.2,95.1L208.8,101.5L211.4,97.3L217.4,97.7L218.1,89.7L218.7,83.6L228.2,74.9L234.5,65.2L239.5,65.1L245.8,71.4L246.4,76.9L254.6,80.4L264.9,84.1L264,89L255.7,89.6L257.9,95.7Z" fill="#2c2c34" stroke="#474751" stroke-width="0.8"/><path d="M218.7,83.6L218.1,89.7L217.4,97.7L211.4,97.3L208.8,101.5L203.2,95.1L208.1,90.4Z" fill="#2c2c34" stroke="#474751" stroke-width="0.8"/><path d="M0,137.5L1.1,138.6L1.4,139.2L1,140.3L0.7,143.4L0,144.2L0,144.2L0,137.5ZM16.7,173.3L15.5,173.4L13.1,171.9L12.5,171.2L12.4,170.3L10,166.9L9.7,166.1L10.6,163.3L13,162.6L13.8,163.1L14.1,164.4L15.4,166.6L15.9,167.9L16.3,168.4L16.4,168.8L16.3,169.1L17.3,170.6L17.9,171.4L18,172.8ZM233.4,258.5L231.8,261.1L232.4,261.5L232.7,261.9L230.1,262.4L229.1,262.1L228.4,262.2L225.8,261.7L223.9,261.1L223.7,260.7L223.8,260.1L224.4,260.3L225.8,260.4L226.4,260.1L226.4,258.4L226.2,256.3L228.2,254.5L229.2,253.8L230.4,253.3L233.5,254.3L234,254.6L234.4,255L234.6,255.6ZM218.6,252.7L219.9,253.4L221.7,255.3L221.8,255.9L221.3,256.4L220,257.2L217.2,258.5L216.7,259.1L216.1,260.3L216,260.8L215.8,261.1L215.5,261.3L214.9,261.4L214.2,261.2L214.8,260.4L214.8,259.5L214.4,258.7L213.8,258L212.5,257L211.1,256.1L209.7,255.7L208.3,255.5L207.7,255.1L206.9,254L206.6,253.5L206.5,252.9L206.6,252.3L206.9,252.2L208.3,252.4L211,253.1L212.3,253.1L213,253L215,251.6L215.4,251.6L217.3,252.2ZM102,172L102.5,172.8L103,173.6L103.5,174.4L104.1,178.4L106,181.8L111.6,183.2L110.7,183.7L110.2,184.2L109.9,184.8L109.1,187.2L109.1,187.7L109.6,188.5L109.7,189.4L109,189.4L108.3,189.1L107.6,188.8L107,188.4L106.4,188L105.7,187.8L104.6,187.1L103,186.7L101.4,186.3L100.7,185.3L100.3,184L100.7,182.2L100.3,181.7L99.7,181.2L99.1,179.9L98.8,178.3L97.8,177.7L96.5,177.3L95.9,177L93.3,177.6L92.7,177.5L92.1,177L90.7,176.6L90.8,175.7L91.4,175L93,174.3L93.7,173.7L93.8,173L93.6,172.4L93.7,171.8L94.2,171.2L94.8,170.8L96.3,170.2L97,171.2L97.3,172.1L97.8,172.7L98.4,171.8L98,170.3L99.2,169.9L100.4,169.9L101.2,170.3L101.8,171ZM314.5,207.7L314.8,210.4L314.7,211.1L314,210.1L313.8,209.9L313.6,210.1L313.3,210.2L312.9,210.2L312.5,211.2L312.5,212.2L312.1,212.9L311.9,215L312.1,215.7L312.6,215.4L312.9,215.3L314.1,216.1L314.8,216.7L314.6,217.5L313.8,218.2L312.8,218.6L312.1,218.2L311.9,218.4L311.5,218.8L311.1,219.3L311.3,219.8L310.4,221.3L310,221.7L309,221.2L308.3,221.6L307.9,221.6L307.1,220.1L307.1,219.4L307.8,218.6L307.9,218.1L308.2,217.4L308.9,216.6L309.4,216L309.4,215.5L309.7,214L309.8,213.3L310,212.7L310.4,211.2L310.4,208.6L311.6,206.4L312.7,205.8L313.2,205.7L313.1,206.3ZM307.9,216.7L307.5,217.5L306.9,218.2L306.3,218.2L305.8,218.1L304.7,217.5L304.5,218.1L303.7,218.1L303.4,217.3L303.9,215L304.8,214.2L304.7,213.3L304,211.4L304.5,210.4L306.4,209.7L308,208.8L308.6,208.6L309.1,209.3L309.3,212.5L307.5,215ZM130.2,105.5L128.5,105.9L127.5,105.3L128.6,104.5L128.9,104.4L129.2,104.3L129.3,104L127.4,103.4L126.8,103L126.3,101.8L126.3,101.1L128.8,99.1L129.3,98.9L129.4,99.7L131.1,101.8L131.2,103.2L131.2,103.7ZM128.8,188.4L128.6,189.8L128.3,190.2L127.3,190.9L127,191.3L126,191.2L125.8,190.5L125.5,190.1L124.5,189.5L124.2,189.7L124.1,190.5L122.1,191L121.5,191.1L121.7,190L121.3,189.2L121.2,188.2L121.1,187.7L120.8,187.5L121.3,186.8L121.3,186L121.8,185.1L122.1,183.1L124.2,182.6L124.7,183L127.2,183.5L128.9,184.7L129.9,186.4ZM379.9,125.8L377.9,126L377.5,125.4L377,122.8L378.3,120.6L380.1,119.4L381.3,119L381.7,119L382.8,120.6L382,123.7L381.1,125.2ZM376.2,171.8L375.4,172.3L375,172.5L373.2,172.1L371.1,172.2L368.8,172.7L367.5,172.3L366.7,171.7L366.8,171L367.5,169.3L369.2,168L369.9,167.8L371.1,168.1L373.1,169.1L374.7,170.3L376.1,171.1ZM350.1,181.6L350,181.9L349.2,181.2L348.7,179.3L348.3,178.8L347.8,177L347.9,176.5L348.5,175.7L349,175.7L349.4,176.2L349.2,178.1L350.3,180.6ZM349.8,173.4L353.6,173.8L353,174.3L348.9,175L347.5,174.9L343,175.3L342.5,175.3L342.4,174.6L341.9,174.1L342.6,173.7L343.5,173.6L346,173.7ZM336.7,172.4L337.9,172.8L338.3,172.8L338.7,172.3L338.9,172.2L339.4,172.5L339.5,173.3L340.3,173.2L340.8,173.5L341,173.7L341,174.5L338.8,174.7L337.1,175.4L335,174.8L332.6,175.8L331.1,176.1L329.9,176.1L328.8,174.3L329.4,172.2L329.9,171.8L330.7,171.7L332.9,171.5ZM359.4,246.6L359.6,247.2L359.6,247.5L358.1,247.7L356.7,248.4L355.9,249.2L355.3,250.2L353.3,249.7L351.6,249.7L350.8,249.3L350,249.4L348.9,249.7L347.3,250.5L347,250.6L347.1,249.3L347.5,248.5L349.2,246.6L350.5,247L352.1,247.1L353.9,246.7L355.2,245.9L357,245.4L358.5,246.5ZM331.8,252.5L332.1,253.3L333.1,252.9L334,252.8L336.1,252.9L337.7,253L338.6,253.4L338.7,254.9L338.3,255.2L330.2,256.4L329.4,256L329.1,255.6L330,254.5L329.6,253.9L330,253.1L331,252.5ZM0,89.8L1.1,90.7L1.8,91.9L2.2,93.4L2.5,93.7L5.3,96.4L5.6,97.6L5.2,99.2L6.1,100.5L8.8,101.6L10.4,102.5L10.8,103L11,103.7L11.9,104.6L13,105.2L16.5,106.8L21.1,110.2L23.8,111.8L25.9,114.2L26.7,115.3L27.3,116.6L28.6,118.4L30.8,120.7L31.4,121.3L32,122.3L32.7,123.2L33.6,124.1L34.6,124.7L35.5,125L37.2,126.6L38.1,127.1L37.9,125.8L37.2,124.7L37.2,124L37.3,123.4L37.9,122.9L38.7,122.8L40,123.2L42.2,125.2L43.2,126.3L43.9,127.8L44.5,129.5L45.4,130.2L46.6,130.5L47.9,130.6L49.2,131.1L52.1,133.4L53.1,134.4L53.8,135.6L54.3,137.1L54.6,138.6L54.8,139L56.7,140.8L57.7,141.6L58.9,142L62.4,142.4L63.6,143L64.6,144.1L65.1,145.1L64.3,146.1L61.6,147.6L58.7,148.6L61.5,148.2L62.9,147.8L64.3,147.1L65.6,146.3L67.7,145.1L68.4,144.9L69.4,145L70.2,145.3L71.4,146.4L72.6,147.7L73.5,149.1L74,150.7L73,151.5L71.6,152.1L69.6,153.6L69.4,154.2L69.8,154.6L69.3,155.7L70.4,156.4L70.6,157L69.6,157.9L69.7,158.4L70.8,160.6L71.4,161.1L73.2,162.2L75.9,163.4L77.4,163.9L79.1,164.3L79.9,164.3L81.1,164.1L81.4,164.6L81.9,166.8L82.2,168.1L82.6,171.1L83.1,172.3L83,173.8L83.7,175.1L85,175.9L86.5,176.6L87.1,177.2L87.1,178.2L86.9,179L86.4,179.6L85,180.9L84.7,181.4L84.5,182.8L84.7,183.4L85.3,183.5L85.8,183.1L87.5,181.3L88,180.9L88.7,180.7L89.4,180.5L92.6,180.5L94,180.8L95.2,181.4L96.3,182.2L100.2,187.1L102,189.8L102.1,190.5L102.2,191.2L101.9,191.7L100.2,193.6L100,194.1L99.5,196.1L99.6,197.5L100.2,198.2L100.6,198.8L100.6,199.4L99.5,202.4L99.4,202.9L100,207.8L100.1,209.1L100,210.8L100,213.4L99.2,221.8L99,222.3L98.3,223.5L97.5,223.5L96.7,223.3L96.2,222.8L95.9,222.2L95.5,221.7L93.4,220.2L92.8,220.4L90.6,222.3L90,222.6L89.3,222.4L88.2,221.8L84.6,219.8L84.4,220.5L84.3,221.3L85,223.5L85.1,224.5L84.5,224.7L84.1,224.6L82.6,223.3L81.3,221.9L79.7,220L78.5,219.1L77.5,218.1L74.6,214.3L73.8,213.7L69.3,211.1L68.4,210.4L67.2,209.3L66,208.3L63.3,206.8L58.5,202.8L56.5,200.5L54.2,196.8L53.4,195.9L49.6,193.2L47.5,191.5L46.6,190.5L44.6,187.2L44,186.1L43.3,185.1L42,184.3L40.9,183.4L38.8,180.3L38.1,179.1L37.6,177.8L37.7,175.2L33.1,167.4L31.9,164.9L30.9,161.5L30.6,161.2L28.1,158.1L27.3,157.1L26.2,156.2L25.3,155.1L23.6,151.7L22.9,150.7L22.1,150L18.8,148.7L17.6,147.9L16.6,146.9L16,145.6L15.4,142.7L13.8,138.5L12.1,132.7L11,130.1L9.6,128.1L9.2,127.7L3.3,124L2.3,123.5L1.3,123.2L0,123L0,89.8ZM309.6,258.4L307.8,258.9L306.7,259.3L305.7,259.9L305,260L303.8,260L302.2,259.9L301,260.1L297.9,261.6L296.6,261.7L295.5,262L295.2,261.5L294.7,261.1L293.7,261L292.6,261L291.5,262.3L289.8,262L289.2,262.1L288.5,262.4L287.9,262.5L287.2,262.4L284.7,261.4L281.9,260.8L279,261.1L276.6,260.5L275.2,260.9L273.9,261.5L273.6,260.9L273.1,260.3L272.7,259.5L272.7,258.6L272.8,257.9L273.2,257.3L273.4,256.7L273.5,256L274.1,256.4L274.6,256.2L276.3,255.5L277.9,254.4L279.5,254L280.4,253.9L281.1,254.1L281.8,254L282.6,253.8L283.9,254.6L284.4,254.8L286.1,254.9L287.6,255.4L288.9,256.1L290.9,256.8L292.1,257.7L293,258L293.7,258.1L294.2,258L295,257.4L295.9,257.1L296.7,257.1L298.2,257L298.8,256.8L299.5,256.5L300.1,256.7L300.7,257L303.1,258.6L303.9,258.7L305.2,258.3L305.7,257.9L305.8,257.2L306.3,256.7L306.7,256.2L307.4,255.8L309.2,255.2L310.4,254.6L311.3,253.5L309.3,253.1L309.7,252.4L310.4,251.9L311.3,252.1L312,252.7L312.3,254.9L311.7,255.2L311.3,255.5L311.1,256L309.9,256.8L310.4,257.8L310,258.2ZM275.2,268L275.8,268.6L277.8,269.7L278.1,270.1L278.3,270.9L278.7,271.5L279.6,271.5L280.6,271.4L281.3,271.8L282,272.4L282.9,273.4L283.8,274.7L284.8,275.4L285.4,276.4L285,277.3L283.7,278.5L283,278.8L282.1,278.8L280.5,279.6L280,279.2L278.2,278.9L276.9,278.4L275.7,277.4L275,276.4L274.2,275.5L272.7,274.8L270.1,273L268.5,272.9L267.8,273L267.1,273L263.7,272.2L263.2,271.7L262.8,271.1L262.4,270.5L262.1,269.8L262.6,269.3L263,268.8L265,268.1L266.3,267.9L267.9,268L270.3,267.8L272.5,268.1L273.2,267.8L274.3,267.1L274.7,267.4ZM253.3,254.8L253.9,255.2L254.5,255.2L255.6,254.5L256.3,254.2L257.1,254.2L257.9,254.3L258.6,254.8L258.8,255.7L259.1,256L259.6,254.9L260.1,254.6L260.8,254.4L261.7,254.5L262.5,255L263.2,256.5L263.2,257.8L263.4,258.3L263.9,258.7L264.3,259.2L264,259.7L263.7,259.9L262.7,260.2L262.3,260.1L261.9,259.7L261.5,259.6L260.4,259.7L259.5,260L259.6,260.5L260.4,260.7L260.6,260.9L260.6,261.2L260.3,261.3L259.3,260.9L258.6,260.9L256.2,261.5L255.6,261.5L255.2,261L255.2,259.6L255,259.2L253.2,260.9L252.6,261.3L251.9,261.5L251.2,261.5L248.5,262.5L247.7,262.3L246.9,262.3L244.2,263.4L242.7,263.7L241.9,263.7L241.2,263.7L240.5,263.7L239.9,264.2L238.6,264.6L237.4,264.3L236.3,263.9L235.2,263.4L235,262.8L235,262L235.5,260.9L235.2,259.1L235.4,258.3L235.8,257.4L236.5,257.1L237.3,257.1L238.7,256.4L239.9,255.4L240.6,255.5L242.3,256.1L243.3,256.2L244.9,256.1L245.6,256.5L245.8,257.5L246.2,257.8L246.7,258.1L247.9,259.7L248.9,259.6L249.9,259.9L251.6,258.9L252.8,258.9L253.2,258.2L252.4,257.4L251.5,256.7L251,256.6L250.5,256.6L250,256.5L248,255.1L247.4,254.3L247,253.3L247.2,252.7L248.6,252L249.3,251.9L251.7,252.3L252.1,252.7L252.8,254.1ZM335.7,138.9L333.3,141L332.6,142L332,143.1L331,144.3L330,145.4L329.4,145.7L328.1,146.3L327.4,146.5L325.9,146.6L321.6,147.5L320.2,147.6L318.8,147.5L316.1,147.3L315.6,147.2L314.5,146.1L313.3,145.2L312.2,145.1L311.2,145.2L303.3,145.3L300.6,145.5L297.9,145.8L296.4,145.7L295,145.2L293.9,145.1L292.8,145.1L287.6,145.8L286.3,145.7L283.8,144.9L282.2,144.7L280.8,144.9L279.4,145.7L278.9,146.2L277.5,147.9L276.7,149.2L276,150.7L275.5,152.4L275.2,153.7L275.2,155.1L275.4,156.6L275.8,158.1L276.3,159.3L278,162L278.4,162.4L280.4,163.2L281.5,164.1L282.6,166.9L283.3,168.3L284.1,168.3L285,168.2L286.4,168.3L287.9,168.7L289.3,167.9L290.1,166.3L290.9,165.1L292.8,162.9L293.9,161.9L294.6,161.5L295.3,161.7L295.9,162.3L296.6,162.7L298,163L299.5,162.8L301,162.1L301.6,161.7L302.1,161.1L303.3,160.6L306.4,160.6L308,160.8L310.9,160.6L310.8,160.2L310.3,159.8L310.1,159.4L310.7,159.2L312.5,158.7L314.4,158.3L315.8,158.6L317,159.3L317.5,160L317.6,160.9L317.2,163.2L317,163.7L316,164L315.1,163.7L314.2,162.5L312.9,162.1L311.1,162.4L310.4,162.8L309.9,163.2L308.8,164.4L308,165.8L306.2,168L304,169.8L303,170.5L301.8,171L298.1,172.3L297.1,173.2L296.4,174.3L295.5,174.8L294.6,174.9L293.8,174.7L292.4,174L291.9,174.5L291.8,175.4L292.5,175.7L293.7,176.6L294.6,177.9L295.2,178.2L296.5,178.6L297,179L298,180.2L299.5,182.8L300,184.2L300.9,185.4L303.5,187.3L303.6,187.9L303.5,188.5L303.7,189.1L304.6,190.2L304.8,191L303.8,191.9L303.8,193.2L303.1,195L303,195.6L303,196.2L303.4,196.7L303.9,197.1L304.6,197.3L305.3,197.7L306.4,199.1L307.1,199.4L307.4,199.9L307.4,200.7L307.9,201.1L308.4,201.9L309.2,202.1L309.5,201.9L309.8,201.6L310.4,201.7L310.8,202.2L310.9,203L311,203.8L311,205.2L310.7,205.8L310,205.7L308.8,205.1L308.8,205.6L308.8,206L308.2,206.1L307.5,206.1L305.7,206.1L302.5,207.1L301.3,207.6L300.5,208.6L300.5,209.3L300.8,210.7L300.4,211.2L298.8,211.4L296.7,211.1L295.5,210.7L294.8,210.3L293.8,209.4L293.5,208.1L294.2,204.4L294.4,203.9L294.7,203.5L295,202.8L295.1,202L294.2,201.1L292.6,200.7L291.3,199.9L286.4,195.4L286.1,194.9L286.1,194.2L286.3,193.5L287.9,191L288.1,190.5L288.3,188.6L288.3,187L288.1,185.4L287.4,184.4L286,184.1L284.6,184L283.2,184.3L281.8,185.1L279.3,186.8L278.3,187.8L278.2,189.1L278.8,190.4L279.6,191.5L279.9,192.8L280.5,197.3L280.4,197.8L279.8,199L279.6,202L279.8,206.1L280.3,208.6L280.1,209.9L278.9,212.9L278.6,214.5L278.5,215.2L279.9,218.2L280.2,219.4L280.4,220.7L278.9,220.1L278.3,220.1L277.5,220.3L276,220.5L274.5,220.5L273.9,220.8L272.8,221.6L272.1,221.9L271.6,222L269.6,221L268.4,219.8L267.3,218.6L267.1,217.3L267.5,215.8L268,214.3L269.1,211.8L269.1,210.1L269.4,208.7L270,207.4L270.3,206.1L270.4,201.3L270.3,200.9L268.8,198L268.6,197.5L268.6,196.8L268.8,196L268.8,195.4L268.5,194.8L267.9,194.4L267.1,194.2L265.6,194.4L262.6,195.1L261.7,194.5L261,193.4L260.6,192L260.4,190.4L260.4,189L260.9,187.6L260.5,186.6L260,185.5L260,185L260.3,184.5L260.8,184.1L261.5,183.9L262.1,183.5L263.8,182.1L264.3,180.8L264.4,179.3L264.8,177.8L265.7,176.4L266.7,175.2L267,173.9L266.5,171.8L266.7,170.9L266.5,169.8L266.5,168.7L267.1,166.7L269,162.5L270.8,160.3L271.5,159.7L272.4,160.7L273.1,161.9L273.2,160.8L272.9,159.8L272.2,157.2L271.6,152.3L271.8,151.9L272.4,152L273.1,151.5L273.4,150.7L272.7,148.9L272.7,148.3L274,145.7L275,144.8L275.5,144.2L275.8,142.7L276.3,142.1L277,141.6L277.9,140.6L278.4,139.2L278.7,139.1L279.1,139.1L279.6,140.2L280.2,140.7L281.5,141.1L282.5,140.6L282.9,140.1L283.3,139.6L283.9,139L284.4,138.4L285,137L285.8,135.7L286.4,135.3L287.1,135L287.8,134.8L288.5,134.8L290,135.6L291,135.7L291.9,135.7L292.5,135.8L292.9,136.2L293.3,136.9L293.8,137.5L294.3,137.9L294.8,138L298.2,137.7L301.2,138.5L305.3,138.6L306.7,139L308,139.6L309.6,140.5L310.3,140.8L310.9,140.7L311.8,139.8L312.4,139.6L313.1,139.6L315.7,139.7L322.8,140.9L323.8,140.7L328.1,138.6L329.8,136.6L331.3,136L331.8,135.1L332.1,134L332.6,133.7L333.9,133.4L334.4,133L335.4,131.7L336.4,130.5L336.9,130.2L338.4,130.3L339.1,130.9L340,132.6L339.8,132.9L338.8,133.8L338.5,134.1L337.4,136.6L336.7,137.8ZM118.5,225.9L119.7,227.3L120.8,228.1L122.1,228.5L123.5,228.5L124.8,228.7L126.4,229.2L127.9,229.5L128.7,229.4L129.4,229.1L129.9,229.1L130.4,229.4L131.5,230.6L132.7,231.7L132.9,232.2L133.8,234.9L134.6,235.7L135.9,235.9L137.4,235.9L138.9,236L142.3,236.6L143.7,236.5L144.9,235.9L145.9,236.3L148.8,237L150.3,237.2L151.9,237L153.5,237L154.3,237.2L155,237.5L155.7,237.6L156.3,237.6L157.5,237L158.3,235.9L158.9,234.4L159.4,232.9L159.7,232.3L160.2,231.7L160.8,231.3L161.4,231.1L163.1,231.2L163.5,231.6L165.4,234.1L165.7,234.4L167.7,234.5L168.3,234.4L169.5,233.9L170.2,233.9L171.4,234.5L172,235L172.6,235.4L175.7,235.9L177,236.9L177.5,237.1L179.7,237L181.3,237.1L182.5,237.3L183.1,238.9L183.6,240.5L183.9,241L185.2,241.6L185.7,242.1L185.6,243.7L185.7,245.2L188.4,246.5L191.3,247.2L194.4,247.3L197.5,247.1L199.1,246.7L201.1,246.2L201.5,246.2L205.4,247.9L205.8,248.2L206.2,249.5L206.2,250.8L205.4,254.1L205.4,255L205.4,255.9L206.3,257.8L206.7,258.3L208,259.4L208.1,259.9L207.9,260.4L206.3,260.1L205.4,259.6L204.9,258.9L204.1,258.5L202.6,258.6L199.9,257.9L196.8,256.8L191.4,254.4L189.9,254.4L188.5,254.7L187,255.3L185.4,255.7L184.3,255.9L183.1,255.8L180.2,255.2L177.3,254.8L169.8,254.6L167.7,254L164.2,253.8L161.3,253.3L158.6,252.7L151.5,249.4L149.2,248.6L142.1,247.1L141.1,247L138.5,247.1L136.9,246.6L135.4,246.6L133.3,247.1L132.7,247.5L131.9,248.2L130.4,248.2L129,248L125.2,247.3L123.8,246.9L122.5,246.2L121.3,245.4L120.6,245.1L117.4,244.2L114.7,243.9L109.3,243.5L108.1,243.2L107.1,242.9L106.6,242.2L106.6,241.3L107,240.5L107.5,239.7L107.9,239L103.9,237.4L100.8,236.5L99.4,236.3L98,236.3L96.5,236.5L95,236.4L94.3,236.2L93.5,236.1L92.8,236.3L92.2,236.2L92.1,235.5L92.5,234.9L93.2,234.2L93.7,234.1L93.8,235.2L94.1,235.4L94.8,235.6L95,235.5L96.3,234.2L96.6,233.5L97.2,231.6L97.8,232L98.4,231.8L98.8,231.5L99.8,227.2L100.7,226L101.8,225L102.4,224.7L103.5,225.3L105.8,225.6L107.1,226L108.5,226.1L109.8,226.3L111.7,227L112.4,226.9L113,226.7L114,225.9L114.4,224.6L115.8,225.3L118,225.5ZM146.5,126.1L145.4,127.7L145.4,128.3L145.8,128.8L146.6,129.2L146.8,131.2L147.8,132.4L148.8,133.4L149.6,133.9L150.4,134.7L150.9,135.4L151.6,135.9L152.5,136.5L155,138.9L156,139.6L156.8,140.3L157.3,140.6L158.7,140.4L162.7,138.6L163.4,138.5L164.7,138.2L167,138.3L169.5,138.9L170.2,138.9L171,138.6L172.1,138.7L173,138.9L173.5,138.7L174.9,137.4L176.8,137.1L177.5,135.8L177.9,134.7L178.2,133.4L179,132.9L180.1,132.5L181.8,131.9L187.5,131.8L188.1,132.1L188.3,132.7L188.1,133.2L188.3,133.5L189.1,133.5L189.8,133.8L192.7,134.8L193.9,135.1L194.6,135L196,135.9L196.7,135.6L197.7,135L198.6,134.1L199.5,133.5L200.7,133.2L202.2,133.2L204.1,133L205.4,132.6L207,133.2L207.4,133L207.7,132.5L208.5,131.2L208.8,130.3L209.2,128.7L209.4,128.3L210,128.1L210.6,127.8L210.8,127.3L211,126.7L210.8,126.2L210.4,125.8L210.1,124.4L210.2,123.8L210.4,123.3L211,123.1L212.7,122.1L214.2,120.9L215,120.3L215.3,120L215.3,119.4L214.7,118.9L214.1,118.6L214,117.9L214.1,117.5L214.2,117L214.2,116.6L214.2,116L214.5,115.3L215.4,114.3L216.1,113.7L216.9,114.1L217.8,113.9L218.7,113.6L219.2,112.4L219.2,111.9L219.2,111.4L219.4,109.8L219.5,109.5L220.1,108.5L220.1,107.8L219.8,106.2L220,104.9L220.1,102.4L220.4,101.9L220.8,100.6L221.5,99.2L222.8,98.5L223.4,97.5L223.8,97.3L224.2,97.3L225.7,98L227.1,97.2L228.4,97.1L229.4,97.2L230,97.5L230.6,97.8L231.8,97L232.3,97.1L232.8,97.4L233.4,97.4L234.1,97.2L235.9,97.4L239.1,97.4L241.3,97.9L243.4,99.2L244.5,99.5L245,99.5L244.9,99.6L244,99.9L243.6,100.7L244.8,101.8L244.9,102.5L245.8,103.1L246.9,104.1L246.9,104.5L247.3,104.9L247.5,105.5L246.7,106L245.7,106.1L244.9,105.6L244.2,105L244,105.8L243.4,106.2L241.4,106.1L240,106.1L238.6,106.3L239.3,106.4L239.9,106.7L242.1,108.7L242.6,109.5L241.9,111L242.2,111.6L243.1,112L244.2,112.7L244.9,112.8L245.4,113.2L245.4,114L245.8,114.7L244.9,114.9L245.8,115.1L246.5,115.4L246.1,115.8L245.8,116.2L246.1,116.4L247.1,116.8L247.6,117.2L247.9,118.1L248.8,119.7L250.7,121.8L251.1,122.5L251.1,123.2L250.8,123.8L249.7,124.5L248.9,125.4L248.8,125.7L247.6,126.1L248.2,126.4L248.6,126.8L249.4,128.1L251.3,130.1L252.2,130.9L256.1,133.7L258.2,134.9L260.8,137.7L262.2,138.3L262.5,139.1L261.3,140.2L259.6,140.8L256.9,141.2L254.1,140.7L252.7,140.4L251.4,139.7L250.4,138.4L249.2,137.6L249.7,138.5L250,139.3L249.8,140.2L249.3,140.9L248.4,141.5L247.5,141.9L247.1,142.2L244.7,147L244.3,148.3L243.6,153.7L243.6,155.3L244.7,158.1L244.8,159.6L245,160.3L244.8,160.8L244.3,161.1L242.3,162L240.8,162.7L239.7,163.8L238.8,165L237.9,166L236.8,166.4L236,166.4L235.4,165.9L234.9,165.1L234.6,164.2L234.5,164.9L234.5,165.5L234.9,166.2L235,167L234.8,167.7L234.3,168.3L233,169L232.3,169.5L232.2,170.5L231.9,171.1L231.4,171.5L229.6,172.5L229.2,172.9L228.9,173.4L229.9,173.3L230.7,173.4L230.8,174.4L231.1,175.1L230.7,176.7L229.4,177.8L230,178L230.7,178.4L232,178.6L232.5,179.8L232.3,181.2L232,182.4L231.1,182.7L230.4,182.5L229.8,182.5L229.4,182.9L229.3,183.5L230.1,183.2L230.1,184.8L229.9,186.4L229.6,187.3L229.1,188L228.3,188.2L227.5,187.7L227.4,188.3L227.6,188.8L228.7,190L228,190.3L227.5,190.7L227.3,191.4L226.2,192.8L225.7,193.8L225.4,195L224.9,195.9L216.3,199.7L209.3,203L208.8,202.8L208.4,202.3L208.2,197.2L207.3,194.6L207.2,193.1L206.2,194.5L205.6,194.3L204.9,194L204.4,193.6L204.4,193L204.9,191.4L204.3,192.3L203.6,192.9L202.9,192.9L202.2,192.5L202,192L201.7,191.9L200.1,193.4L198.1,194.1L197,194.1L196.1,193.7L196.2,192.6L196.1,191.5L195.8,190.9L195.3,190.7L194.8,190.8L193.3,191.3L192.8,191.2L192.5,191.5L188.7,187.6L187.9,190.8L185.3,192.5L183.3,193.4L181.4,193.1L179.4,192.4L177.4,193.2L175.3,195.1L174.7,195.3L174.1,195.3L173.7,195.1L173.8,193.7L173.8,192.3L173.7,189.2L173.5,188.6L172.9,187.7L172.1,187.1L171.6,187.6L171.2,188.2L169.6,188.1L168,187.6L166.7,187.9L164,189.2L162.6,189.3L161.8,189.1L161.3,188.4L161.6,187.8L162.2,187.3L161.1,187.7L160.2,188.3L159.8,188.7L159.3,188.5L158.2,187.1L155.8,187.6L155.4,187.8L154.8,188.3L154.2,188L153.9,187.5L153.8,184.6L152.6,179L152.3,176.1L152,175.4L150.6,174.3L150.6,172.9L151.3,171.6L151.5,170.2L151.3,168.6L150.8,167.1L150.3,165.9L149.5,164.9L148.4,163.8L147.1,163L144.3,162L142.8,162.1L142.2,161.7L141.9,161.3L142,160.3L142.5,159.7L143.2,159.5L143.3,159.2L141.8,158.4L140.7,157.4L140.3,156.8L140.2,156.1L140.2,154.5L140.5,153.5L140.7,153L141.1,151.4L141.9,150.9L141.7,150.6L141.4,150.3L140.9,149.8L140.5,149.2L139.6,148.1L138,146.8L137.7,144.6L137.5,141.4L137.6,139.9L138.1,137.2L139.1,136.3L139.8,136.1L140.3,135.7L139.9,135.7L139.5,135.8L138.8,135.9L139.3,133.4L139.6,132.7L140.7,131.3L142.1,130.1L142.6,128.7L143.3,127.4ZM370.9,140.7L371.9,141L372.8,140.9L373.3,140.4L373.4,139.7L373.9,138.3L375,137.4L375.7,137.3L376.3,136.9L376.2,135.9L376.2,134.9L377,133.9L379.6,132.4L380.9,131.9L382.8,131.8L383,132.3L382.8,133.1L383.2,134.3L383,137.5L382.5,138L380.7,139.1L378.6,140L378,140.4L377.5,141.3L377.5,142.2L379.2,143.3L381.8,144.4L382.4,145L382.8,145.8L382.9,146.8L383.5,147.2L384.4,147.5L385,147.9L385.4,148.6L381,147.1L379.8,146.4L378.4,146.3L377,146.1L375.6,145.5L374.1,145.4L373.3,145.8L373,146.6L372.9,147.6L373.2,148.7L373.2,149.4L372.9,150.6L374,154.3L375.4,157.3L377.4,160.3L378.4,161.4L379.6,162.3L377.7,162L377.2,161L374.9,160L374.4,159.4L372.9,156.5L372.5,156L371.1,155L370.4,154.3L370.2,153.3L370.4,152.2L370.3,150.8L370.4,149.4L370.7,147.7L370.2,147.1L369.5,146.5L368.8,145.2L368.5,143.7L368.6,142.8L368.9,142L369.3,141.4L369.4,140.7L368.3,139.8L367.2,137.1L367.1,135.7L368.5,133L368.5,131.8L368.8,131L368.9,130.2L369.7,128.4L370.9,126.9L373,124.7L373.8,124.3L374.7,124L374.8,124.5L374.6,125L373.1,127.1L372.9,127.6L372.9,128.5L373.6,129L374.4,130.1L374.6,131.6L374.6,133.2L374.4,134.7L374.1,135.3L372.9,136.8L370,138.7L369.7,139.1L369.7,139.6L370.3,140.3ZM400,194.6L399.3,194.4L398.8,193.9L398.5,193.3L397.1,192.5L394.5,192.4L393.4,192.4L393,192.6L393.1,193L393.1,193.8L392.5,194.1L390.8,193.5L389.3,193.4L388,192.8L386.3,192.5L386.1,192.3L386.2,191.8L386.2,191.5L385.8,191.3L385,191.4L384.2,191.8L383.6,192.2L382.7,193.4L382.2,193.8L380.7,194L380,193.9L379.5,193.6L377.7,191.5L377.1,191L376.5,190.6L375.9,190.4L375.3,190.8L375,191.4L374.8,192.2L374.6,192.7L373.9,194L373.3,194.8L373.1,194.6L373.4,193.4L373.4,192.7L373,192L372.8,191.2L375.7,187.7L376.7,186.8L381.3,186.5L384.1,186.7L385.6,186.6L386.6,186.3L387.4,186.5L387.6,187.2L388.1,187.7L388.8,187.6L390.1,187.1L391.3,186.2L392,185.9L392.7,185.8L393.4,185.9L394.1,186.1L396,186.8L396,186.8L398.9,188.2L400,188.3L400,194.6ZM360.1,189.6L362.2,190.5L362.6,191.2L363,191.9L363.4,192.3L363.9,192.7L364.7,193.3L364.9,194.3L364.7,196.3L363.8,196.5L362.9,196.8L361.2,198L360.3,198.2L359.3,198.3L358.7,198.6L358,198.7L356.3,198.1L354.6,197.3L352.1,196L351.7,195.7L351.3,195L350.2,193.7L349.9,192.9L349.8,190.6L350.1,190.1L350.6,189.8L352.2,190.3L353.3,189.8L356.3,189.3L359.5,189.3ZM336.1,262.6L336,263.7L336.3,264L336.7,264.1L338.3,263.4L338.6,263.5L338.9,263.8L338.9,264.9L338.3,265.7L336.8,265.8L336.6,266L336.6,266.5L336.7,267L337.1,267.4L337.5,268.1L337.9,269.8L337.1,270.4L336.6,271.7L335.1,272.9L333.4,274.8L332.1,275.8L331,277L330,277.8L328.7,278L326.8,278.2L324.3,279.6L322.9,280.2L321.5,280.3L320.3,279.8L319.8,279.3L319.9,278.6L320.3,278L320.8,277.5L321.2,276.9L319.7,276.1L319.6,275.5L320.1,273.8L320.5,272.2L321.1,271L323.1,269L324.4,268L325.1,267.6L325.3,268L325.8,268.6L326.1,268.6L326.3,268.5L328.2,268.7L328.6,268.5L329.3,267.7L329.8,267.3L330.1,266.3L330.2,265.7L331.8,265.3L332.7,264.8L333.4,264.1L335.7,262.9ZM48.2,125.5L48.9,126.5L49.1,127.1L48.6,127.9L48.4,129.1L46.9,130L45.7,129.8L45.3,129.4L44.5,127.7L44.6,126.2L45,125.6L46.2,125.7L47.4,124.9ZM57.1,139L56.6,139.4L55.9,138.8L55.3,137.9L55,137L54.8,135.6L54.7,134.5L55,133.9L55.3,134L56.3,134.6L57,135.6L57.4,135.9L57.4,136.9L57.2,138ZM57.9,133.2L58,134.8L57.1,134.3L56.4,133.7L55.3,133.2L53.8,133.1L52.8,132.7L52.1,131.9L52.1,131.6L52.1,131.3L52.4,131.1L57.7,132.5ZM64.6,142L64.4,142.5L63.9,142.1L61.5,141.6L60.7,141.5L58.6,140.9L57.9,140.6L57.5,140.2L57.6,139.5L57.9,139L58.1,137.7L58.7,137.2L59.7,138.2L60.8,139L61.5,139.4L63.6,140.2L64.3,140.6ZM66.3,140.5L65.9,140.8L65.3,140.7L64.7,140.3L63.8,139.6L62.9,138.9L61.6,138.5L60.8,138.3L60.6,138.2L60.8,136.9L61.7,136.8L64.2,138L65.1,138.7ZM67.8,144.5L66.4,144.6L66,144.4L66.2,143.3L66.6,142.6L67.2,142.6L67.9,143.6ZM69.8,143L69.6,143.2L68.5,141.6L68.8,140.7L69.1,140.5L69.6,141L70.1,141.6L70.4,142.3ZM77,136.6L77.8,137.1L78.4,136.8L78.3,137.2L78.2,137.7L77.5,139L76.2,138.7L75.9,138.3L75.8,138L76,137.8L76.1,137.1L76.7,137.1ZM83.9,136.2L84,137.1L84.7,137.5L84.9,138.2L84.7,139.3L84.1,140.6L83.8,140.9L82.9,140.7L82.6,140.3L82.5,139.9L82.6,139.7L82,139.4L82.4,138.9L82.1,138.2L80.3,138.6L79.8,138.7L79.7,137.9L79.8,137.6L81.2,136.6L82,136.4L82.9,136.6ZM86.3,153.4L86.7,153.6L87.1,153L87.9,153.9L88.4,154.3L89.1,154.8L88.4,154.8L88.2,155.2L88,155.3L85.4,153.8L83.7,154.3L82.5,153.9L82.2,153.6L82.8,152.8L83.4,151L84.6,151.5L84.8,152L84.7,152.2L85.5,152.5ZM82.5,155.4L83.7,156.6L84,157L83.4,157.7L82.9,158.6L82.7,158.8L81.8,158.5L81.2,159.4L80.8,157.9L79.9,157L80.4,156L80.6,156L80.9,156L81.2,156.2ZM73.4,155.6L71.8,156L70,155.7L70.2,154.9L71.1,154.1L71.8,154.1L73.2,154.7L73.8,155.2ZM147.5,165.9L145,167.2L144.4,167.1L144,166.6L144.2,164.2L144.6,163.5L146.3,163.4L147.3,163.7L147.9,164.1L148.1,165L148,165.5ZM198.8,239.6L198.5,239.8L196.4,239.7L195,240.7L194.1,241L190.7,241L190.3,240.9L190,240.9L189.8,241.1L188.8,240.9L185.3,240L184.9,239.2L185.4,238.3L186.6,237L189.1,236.8L200.4,236.7L201.6,237.8L201.7,238.1L199.2,238.9ZM365,157.4L364.2,157.7L363.3,157.7L363.2,156.4L363.4,154.7L364.2,154.4L365.4,154.8L365,155.2L365.4,156.1ZM368.9,155.2L370.3,157.1L369.4,158.8L370,159.8L371.8,159.9L372.3,160.2L372.6,160.7L372.8,161.3L372.3,161.8L371.3,162.2L370.1,161.6L369.8,161L369.6,160.8L368,161.2L367.6,161.3L367.3,160.4L367.7,159.2L366.6,158.7L365.6,157.5L365.5,156.9L365.9,156.1L365.9,155.4L366.5,155.4L367.5,156.3L368,155.4L368.4,155.1ZM377.7,196.8L377.4,197.3L376.7,197.6L376,197.6L376.3,197.1L376.1,196.9L375.6,197L374.9,197.3L374,198.1L373.4,197.7L373.3,197.1L373.4,196.9L374.5,195.9L375.8,195.8L377.5,194.8L378.3,194.9L378.2,195.5L377.9,195.9L377.7,196.3ZM359.6,101.2L359.1,101.5L358.3,101.4L358.2,100.7L359,99.6L359.6,98.4L359,98.1L358.4,97.3L358.4,96.4L358.9,94.8L359.6,94.9L360.2,95.6L360.4,97L360.9,98L360,99.4ZM345.2,108.6L344.9,109L343.4,108.3L343.5,107.2L343.3,106.7L342.9,106.1L342.7,105.5L342.9,104.9L343.8,105.7L344.3,106.9L345,108.1ZM397.1,250.2L396.3,251.4L395.5,251.3L394,249.7L394.1,248.7L394.2,248.3L394.8,248.2L396.7,248.5L397.1,249.4ZM372.1,252L374.2,252.5L375.5,252.5L375.8,252.9L374.6,254L372.1,253.2L371.6,252.3ZM400,176.4L397.7,175.9L396,174.8L395.8,174.4L399,173.1L400,172.8L400,176.4ZM56.4,219.3L55.4,219.4L53.5,217.8L53.2,217.3L53.8,216.9L54.3,216.9L56.5,217.9L56.9,218.4ZM32.3,190.7L32.8,192.6L31.3,191.3L31.4,190.4L31.2,189.9L30.3,189.2L29.6,188.3L29.3,186.2L29.5,185.8L30.1,185.8L32.7,188.5L32.9,189L32.8,189.9L32.5,190.2ZM29.6,185.2L28.7,186.3L27.2,186.2L27,185.6L27,184.1L26.7,183.6L26.7,183.4L26.9,182.6L27.2,182.4L29.6,184.5ZM25.1,180.3L25.2,180.6L23.2,179.6L22.2,179.3L21.3,178.1L21.6,177.5L21.6,176.7L21.7,176.4L22.4,176.3L23.2,176.8L23.8,178.3L24.8,179.6ZM7.9,157.8L7.2,158.4L6.1,157.9L6.5,157.1L6.7,156L7.3,155.1L7.5,154.1L6.3,151.3L6.9,151.2L7.4,151.5L8.3,153.3L9,154.4L8.7,156ZM300.4,218.8L299.6,219.1L298.1,217.7L297.5,216.5L297.6,215.8L298.1,215.3L298.3,215.1L298.2,214.5L298.8,214.2L299.5,214.3L299.9,215.1L300.4,215.3L300.6,216.1ZM314.9,165.8L315.2,166.5L314.7,167.2L315.2,168.5L316.5,166.8L317.7,166.6L318.3,166.9L318.8,167.2L319.1,167.8L318.6,169.2L317.8,169.8L316.8,170L316.3,169.2L315.7,169.1L315.2,170.8L315,171.1L314.4,171.3L313.9,170.8L313.8,170.6L314.6,169.8L314.2,167.4L313.6,167.9L312.1,170L310.9,170.9L310.5,170.4L309.9,169L310.2,167.2L311.1,165.9L311.9,166L314.2,165.6ZM298.2,156.3L298.7,156.8L298.4,157.5L298,157.3L296.8,157.3L296.4,157.4L295.9,157.8L295.6,157.8L295.8,157.2L296.7,156.3L297.4,156.4ZM281.6,229.5L281.1,231.6L280.8,230.9L280.8,229L280.4,228L280.7,227L280.6,224.2L281,223L281.7,224.6L281.9,225.4ZM217.7,237.9L216.7,238.1L215.8,237.7L215.8,237.1L216,236.5L217.5,236.3L218.2,236.3L219,236.7L219.6,237L219.8,237.5L218.3,237.5ZM229.2,199.3L226.6,201.6L226.2,201L226.4,198.6L225.7,197.2L225.8,196.1L226.3,194.2L226.9,192.7L228.4,191.7L228.8,191.6L228.7,193.4L229,194L229.1,194.6L229,195.1L229.2,197.4L229.4,197.9L229.1,198.7ZM311.7,287.3L310.5,287.4L310.1,287.2L310,286.1L310.4,285.5L313,284.7L314.1,283.9L315.6,282.4L316.5,282L316.7,281.8L316.9,281.9L317,283.1L317.4,283.7L317.5,284.1L316.1,284.7L315,286.1L312.3,287ZM328.2,254.9L327.5,255.7L327,257L326.5,257.4L325.5,257.7L324.9,256.3L323.8,256.4L324.3,255.2L324.8,254.8L325.5,254.8L325.8,255.2L326,255.3L327.6,253.3L327.9,253.3L328.2,253.4L328.4,253.6ZM323.8,254.2L322,254.5L320.9,256.1L320.1,256.1L319.6,256.8L319.5,257.1L319.6,257.3L319.5,257.6L319.1,257.9L318.3,257.4L317.6,258L317.4,258.1L316.3,257.5L315.4,257.5L315.1,257.4L316.3,256.3L317.9,255.2L318.2,254.8L317.5,254.7L317.2,254.5L317.1,254.3L318.1,254.1L318.8,254.1L319.4,254.4L319.7,254.4L321.9,253.2L322.8,253.5L323.4,253.8ZM316.2,255.2L315.9,255.8L312.6,255.7L312.7,255L313.6,254.2L313.9,254L315,253.7L316.4,254.2ZM69.5,138.2L69.6,138.9L68.8,138.8L68.2,138L68.7,137.4L69,137.2L69.3,138ZM74.5,141.3L74.6,141.7L73.5,141L73.4,140.4L73.6,140.2L74.2,140.8ZM79.6,140.9L78.8,141.3L77.9,140.1L77.9,139.9L78,139.7L78.2,139.6L78.8,140.1L79.5,140.3ZM85.2,150.5L85.3,150.8L84.7,150.5L84.4,150.3L84.2,150.1L82.9,148.4L83.4,148.5L84.8,150ZM105,112.1L105,112.9L104.1,112.4L103.9,111.5L104.2,111.2L104.8,111.4ZM98.5,115.7L97.9,115.8L97.8,115.4L97.9,114.8L97.8,114.3L97.6,113.9L97.6,113.2L98.1,113.6L98.5,113.9L98.9,114.1L99.2,114.2L99.4,114.3L99.1,115.2ZM137.3,115.2L136.7,115.9L136,115.4L137,114.1L137.2,114ZM138.1,171.3L136.7,171.9L136.2,170.7L137.1,170.3L138.1,170.6ZM119.7,187.2L119.2,187.5L118.9,187.2L118.8,186.9L119.1,186.5L119.7,186.4L120,186.5ZM112.5,188.5L112.2,188.8L111.6,188.7L111.1,188.3L110.8,188L110.7,187.6L111.3,187.2L112.8,187.6ZM205.8,239.9L205.6,240.4L205,240.3L204.4,239.5L204.6,239.3L205,239.2L205.4,239.3ZM184.8,223.4L184.5,223.9L183.3,223.9L183.1,223.3L183.9,222.4L184.4,222.4L184.9,222.7ZM92.2,233.8L91.4,234.1L90.8,233.8L90.6,233.5L91.4,232.6L91.9,232.4L92.3,232.3L92.5,232.8ZM319.7,172.4L318.8,172.5L318.3,172.1L318.3,170.3L318.8,169.9L319.1,170L319.2,170.5L319.5,171L319.9,171.4ZM315.3,202.3L314.1,203.8L313.2,203.7L312.2,202.7L311.9,201.7L311.9,201.3L312.6,200.7L314.9,200.9L315.3,201.4ZM322.8,175.5L323,176L322.2,176L321.9,175.1L322,174.5ZM314.2,173.8L313.3,174.8L313.2,174.3L313.3,173.8L313.6,173.4L314,173.2ZM268.4,260.1L267.9,260.2L267.5,260L267.6,258.9L267.4,258.1L267.9,257.5L268,256.5L268.2,256.2L268.5,256.5L268.7,256.7L268.9,256.8L269.5,256.8L269.6,257.3L269.6,257.7L269.3,258.2L268.7,258.7L268.2,259.2ZM263.6,253.8L263,253.8L262.9,253.3L263.1,252.8L263.7,252.5L263.9,252.5L264.2,253L264.3,253.2L264,253.6ZM220.6,260.4L220.3,260.9L219.3,260.1L219,259.8L219.8,259.3L220,259.2L220.7,259.7ZM245.9,99.5L247.1,99.5L248.8,99.3L249.2,100.5L249.3,100.9L247,101.6L245.6,100.1ZM246,110.6L245.9,111L244.8,110L244.5,109.2L244.6,108.7L245.8,108.6L246.3,109ZM325.3,225.5L325.2,226.1L324.7,225.4L324.3,225L324.4,224.3L325,224.6ZM320,216.7L320,218L319.5,217.9L319.1,217.5L319,217L319,216.7L319.2,216.4ZM284.7,239.8L283.4,239.8L283,239.7L282.9,238.5L284.3,239L284.8,239.1ZM244.8,255.4L244.5,255.4L243.9,255.2L244.2,254.6L243.8,253.8L243.9,253.1L244.6,252.7L246.1,252.6L246.2,253.2ZM230.7,194.2L230.3,196.4L229.5,195.2L230.4,193.7L230.8,193.4ZM366.5,141.4L366.1,141.8L365.7,141.7L365.4,141.2L365.5,140.8L365.8,140.6L366.3,140.7ZM393.5,153.6L392.9,153.6L392.5,152.9L391.3,152.1L390.5,150.7L393.4,153ZM367.5,151.3L367.5,151.7L367.1,151.2L366.8,151L367.1,149.7L367.2,149.5L367.5,150.4ZM367.1,143.3L366.7,143.4L366.5,143.4L366.4,142.9L366.6,142L367.1,142L367.4,142.2L367.4,142.8ZM365.6,160.9L365.4,161.2L364.2,160.9L363.8,160.7L364.5,158.9L365.1,159L365.6,160.6ZM383.2,195.3L383.2,195.8L383.1,196L382.5,195.8L382,195.8L381.5,194.8L381.7,194.6L382.5,194.9L382.9,195ZM381.3,195.7L379.1,196.4L379.6,195.2L379.9,194.9L380.9,195.2ZM358.4,103.2L358.4,103.7L357.7,102.5L357.4,101.1L358,101.6L358.7,102.6ZM360,104.5L359.8,104.6L359.4,104.3L359.1,103.9L359.2,103.6L359.5,103.4L360.1,103.9L360.1,104.3ZM342.1,118.4L342,118.6L341.5,117.2L341.9,116.4L342.5,116.7L342.6,117L342.1,117.7ZM382.6,240.6L382,240.9L381.1,240.2L380.8,239.9L381.4,239.3L382.1,239.1L382.5,239.4L382.6,239.7L382.5,240ZM367.1,246.1L366.3,246.4L366.5,245.4L366.5,244.7L367.8,244.9L367.8,245.5L367.6,245.7ZM317.4,279.7L316.3,280.1L316.3,279.2L317.2,278L317.9,277.6L318.4,278.1L318.4,278.3L317.3,278.8ZM298.4,283.3L297.8,283.5L296.5,283.1L296.2,282.9L297.3,282.3L298.2,281.4L299.2,281.3L299.9,281.5L299.6,282.5ZM374.1,187.7L373.5,188.7L372.4,188.7L372.2,188.5L373.5,187.9ZM369.4,192.4L369.7,192.9L368.4,192.6L367.9,192L368.4,191.7L368.8,191.6ZM312,257.6L311.6,258.4L310.9,258.1L311.1,257.4L311.4,257L312.4,256.4L313.4,256.3L314,256.5L314.2,256.7L312.6,257Z" fill="#b8e653" stroke="#0c0e06" stroke-width="1"/></svg>
