<svg xmlns="http://www.w3.org/2000/svg" viewBox="0 0 300 300"><path fill="#e8e8ea" d="M189.4,39L183.1,43.5L182.2,45.2L180.4,52L180.2,53.9L178.2,57.5L176.2,61.5L174.1,63L170.6,64.2L168.8,65.4L166.5,64.8L163.5,65L161.9,66.3L162,67.3L162.9,68.5L165.5,70.3L168.5,72L168.2,73.4L166.6,75L156.6,79L153.6,81.5L152.6,83.1L153.6,85.8L161.6,93.9L162.9,94.7L164.2,99.3L171.2,101.3L174.1,104.2L176.5,104.8L181.8,104.6L183.9,105.8L185.2,105L185.9,103.4L190.4,99.4L192,97.6L191.1,95.3L190.1,93.5L192.8,89.8L196.1,86.2L197.8,86.3L200.7,88.5L203,91.6L203.3,94L203.7,95.7L206,99.4L207.4,100.7L211.3,101.4L212.1,102.8L211.4,108.2L212,110L216.2,110L220.5,109.7L221.9,109.8L223.5,108.7L225.9,107.5L229.2,107.9L230.9,110.4L231.6,112.8L228.8,113.7L225.6,113.2L224.2,114.8L224,117.9L225.2,121.9L227.2,124.7L228.8,131.1L230.2,138.1L232.2,142.4L232.6,147.6L232.3,150.2L232.8,154.8L231.9,156.5L232.5,160.8L235.1,169.8L236.1,174.8L236.8,185.6L235.1,189.7L232.8,193.5L231.2,198L230,202.9L229.3,210.9L224.2,220.1L222,222.3L219.4,223.8L225,230.1L220.5,233.1L215.6,234L210.1,232.4L206.8,232.5L203.7,234.6L202.6,235.9L201.5,235.2L199.5,230L198,235.4L194.8,237.1L189.5,236.8L180.6,238.2L177.2,239.8L175.8,242.2L174.6,245L173.2,246.6L171.6,247.4L164.7,249.5L163.5,250.4L160.2,254.8L156,257.4L152.6,258.2L149.6,255.6L148.3,254.1L146.9,253.2L142.1,253.4L143.6,254.2L144.6,256L145,259.5L144.4,263L142.1,264.7L139.4,265L135,268.6L129.1,269.6L125.9,272.9L106.8,278.4L105.8,278.4L103,277L100.2,276.5L97.3,276.9L89.3,280L85.3,279.3L90.3,271.7L97,267.8L97.7,266.7L95.4,266.2L82.8,268.9L78.4,271.2L74,271.9L76,268.3L81.7,263.5L84.7,261.2L86.7,260.3L88.7,257.5L94.7,254.3L75.4,260.9L70.4,260.1L69.2,258.3L65.2,259.1L63.8,254.6L69.5,247.8L73,244.9L77.1,243.3L81,241.1L82.4,238.2L80.6,237.3L68.8,238L63.2,237.5L63.5,235.2L64.7,232.7L70.4,228.6L73.5,227.9L76.4,228.3L79.1,229.3L81.3,230.8L87.9,229.9L85.1,227.3L84.7,221.8L82.6,220L85.3,217.5L88.3,215.9L93.4,210.6L95.3,209.8L105.5,208.5L116.4,205.8L127.2,201.9L121.6,199.7L118.9,196.9L114.6,202.7L111.6,204.9L102.9,206L100.2,205.3L96.3,203.6L95,204.3L93.9,205.7L88.1,208.4L82.1,209.1L89.1,204L98,195.3L100,192.4L102.9,187.6L102,185.6L100.2,184.3L106.6,174.3L108.9,172.6L113.1,172.3L116.2,170.6L117.5,170.6L118.6,170.1L121.4,167.1L117.2,165.2L113.1,164.2L99.9,165.2L98.2,165L96.4,164.1L95.4,162.8L94.6,159.3L93.7,158.6L90.7,158.6L87.9,159.7L85.7,159.6L83.7,158.1L87,154.6L82.8,153.8L78.7,154.5L75.1,153.4L75.1,151.2L76.7,149L74.5,146.9L74.1,144.3L76.4,143L78.7,143.5L83.7,141.5L89.9,140.6L84.6,138.7L82.4,137.1L82.3,134.5L82.7,132.4L89,128.7L95.6,127.1L95,124.7L95.6,122.1L88.9,121.3L82.3,123.2L83,118.1L84.6,113.7L84.8,110.7L84.6,107.5L81.4,108.8L81,104.4L79.7,101.3L75.1,103.4L75.3,99.3L76.5,96.5L79,95.2L81.4,95.7L85.7,95.7L90,93.5L96.2,93L106,93.6L112.8,99.8L114.5,98.7L117.2,94.8L118.5,94.4L128.7,96.1L135,98.2L136.7,97.5L135.7,93.4L133.5,90.4L136.3,86.5L139.5,83.9L141.8,82.6L147,80.9L149.1,79.4L150.7,74.4L153,70.2L140.1,72.4L127.9,67.5L130,64L132.5,62L137,60.4L137.4,58.6L139.5,57.1L143.3,53.1L142,47.9L142.7,44.1L145.4,41.5L146.3,37.9L147.4,35.3L152.9,34.3L158.2,31.9L160,32.1L166.2,31.5L168.3,32.5L167.8,28.1L171.6,27.6L173.1,28.5L173.8,31.5L175.5,33.6L175.9,37L174.8,39.6L172.9,41.7L174.6,43.7L171.9,47.4L174.9,45.9L179.1,42.1L178.9,39.1L178.2,35.4L176.9,32L177.5,28.2L179.9,25.8L186.1,24.6L183.5,20.4L185.8,20L188.4,20.9L192,24.2L195.7,26.8L199.7,28.9L195.8,33.1L191.2,35.9Z"/></svg>
