<svg xmlns="http://www.w3.org/2000/svg" viewBox="0 0 400 300"><path d="M269.6,300L269.2,295.7L294,289.3L326.1,296.8L320,263.6L338.1,276.3L382.6,253.2L388.4,228.6L400,224.3L400,300Z" fill="#2c2c34" stroke="#474751" stroke-width="0.8"/><path d="M238.5,137L224,130.2L212.2,130.7L216.1,113.1L212.2,95.3L228.2,94L248.7,114.5ZM285.3,0L279.1,11.8L298.6,6.9L319.5,7.1L314.6,35.9L297.3,66.9L317.1,69.1L318.6,72.6L335.7,112.2L348.8,117.5L360.5,154.5L366,167L389.2,173.1L386.8,193.1L377.1,202.2L384.7,218.1L367.5,234.1L342,233.8L309.4,242.1L300.4,236.2L287.8,250.2L270.2,246.8L256.7,258.2L246.5,252.3L274.6,220.5L291.7,214L291.6,213.9L261.7,208.8L256.2,196.5L276.3,186.9L265.8,169.9L269.4,149L297.8,151.9L297.8,151.9L297.9,151.9L300.6,133.2L287.8,113L287.6,112.5L264.4,106.7L259.8,97.7L266.8,82.7L260.4,73.3L250.2,89.3L249,56.5L239.4,38.9L246.3,2.3L247.5,0L285.3,0Z" fill="#2c2c34" stroke="#474751" stroke-width="0.8"/><path d="M166.7,135.5L166.7,136.4L165.2,135.2L164.5,134L160.7,133.4L162.3,132.1L163.1,132.5L165.9,132.5L166.6,133.1ZM218.9,96.6L215.9,98.8L215.5,99.6L214.6,102.9L214.5,103.8L213.6,105.5L212.6,107.4L211.6,108.2L209.9,108.8L209,109.3L207.9,109.1L206.5,109.1L205.7,109.7L205.8,110.3L206.2,110.8L207.4,111.7L208.9,112.5L208.7,113.2L208,113.9L203.2,115.9L201.7,117.1L201.2,117.8L201.7,119.1L205.6,123L206.2,123.4L206.8,125.6L210.2,126.6L211.6,128L212.7,128.3L215.3,128.2L216.3,128.7L216.9,128.3L217.3,127.6L219.4,125.7L220.2,124.8L219.8,123.7L219.3,122.8L220.6,121.1L222.2,119.3L223,119.4L224.4,120.4L225.5,121.9L225.6,123.1L225.8,123.9L226.9,125.7L227.6,126.3L229.5,126.6L229.9,127.3L229.5,129.9L229.8,130.8L231.8,130.8L233.9,130.6L234.6,130.7L235.3,130.2L236.5,129.6L238.1,129.8L238.9,130.9L239.2,132.1L237.9,132.5L236.3,132.3L235.7,133.1L235.6,134.6L236.1,136.5L237.1,137.8L237.9,140.9L238.6,144.3L239.5,146.4L239.7,148.9L239.6,150.1L239.8,152.3L239.4,153.1L239.7,155.2L240.9,159.5L241.4,161.9L241.7,167.1L240.9,169.1L239.8,170.9L239,173.1L238.5,175.5L238.1,179.3L235.7,183.7L234.6,184.8L233.4,185.5L236.1,188.5L233.9,189.9L231.5,190.4L228.9,189.6L227.3,189.7L225.8,190.7L225.3,191.3L224.8,191L223.8,188.5L223.1,191.1L221.5,191.9L219,191.7L214.7,192.4L213.1,193.2L212.4,194.3L211.8,195.7L211.2,196.4L210.4,196.9L207.1,197.8L206.5,198.3L204.9,200.4L202.9,201.6L201.2,202L199.8,200.8L199.2,200L198.5,199.6L196.2,199.7L196.9,200.1L197.4,200.9L197.6,202.7L197.3,204.3L196.2,205.1L194.9,205.3L192.8,207L189.9,207.5L188.4,209.1L179.2,211.8L178.7,211.8L177.4,211.1L176,210.8L174.7,211L170.8,212.5L168.9,212.2L171.3,208.5L174.5,206.6L174.9,206.1L173.8,205.9L167.7,207.2L165.6,208.3L163.4,208.6L164.4,206.9L167.2,204.6L168.6,203.5L169.6,203L170.5,201.7L173.4,200.1L164.1,203.3L161.7,202.9L161.2,202.1L159.2,202.4L158.6,200.3L161.3,197L163,195.6L165,194.9L166.8,193.8L167.5,192.4L166.6,192L161,192.3L158.3,192L158.4,191L159,189.8L161.7,187.8L163.2,187.4L164.6,187.7L165.9,188.1L167,188.9L170.1,188.4L168.8,187.2L168.6,184.5L167.6,183.6L168.9,182.4L170.3,181.7L172.8,179.1L173.7,178.7L178.6,178.1L183.8,176.8L189.1,175L186.4,173.9L185.1,172.5L183,175.3L181.6,176.4L177.4,176.9L176,176.6L174.2,175.8L173.6,176.1L173,176.8L170.3,178.1L167.4,178.4L170.7,175.9L175,171.8L176,170.4L177.4,168.1L176.9,167.1L176,166.5L179.1,161.7L180.2,160.9L182.2,160.7L183.8,159.9L184.4,159.9L184.9,159.7L186.2,158.2L184.2,157.3L182.2,156.8L175.9,157.3L175.1,157.2L174.3,156.8L173.8,156.2L173.4,154.5L172.9,154.2L171.5,154.2L170.1,154.7L169.1,154.6L168.1,153.9L169.7,152.2L167.7,151.8L165.7,152.2L164,151.7L164,150.6L164.8,149.5L163.7,148.5L163.5,147.2L164.6,146.6L165.7,146.9L168.1,145.9L171.1,145.5L168.5,144.6L167.5,143.8L167.4,142.5L167.6,141.5L170.7,139.7L173.8,139L173.6,137.8L173.8,136.6L170.6,136.2L167.4,137.1L167.8,134.7L168.5,132.5L168.7,131.1L168.5,129.6L167,130.2L166.8,128.1L166.2,126.6L164,127.6L164.1,125.6L164.7,124.3L165.9,123.6L167,123.9L169.1,123.9L171.2,122.8L174.1,122.6L178.9,122.9L182.1,125.8L182.9,125.3L184.2,123.5L184.9,123.3L189.7,124.1L192.8,125.1L193.6,124.8L193.1,122.8L192.1,121.4L193.4,119.5L195,118.2L196.1,117.6L198.6,116.8L199.6,116L200.3,113.6L201.4,111.6L195.3,112.7L189.4,110.3L190.4,108.7L191.6,107.7L193.7,106.9L193.9,106.1L195,105.3L196.8,103.4L196.1,100.9L196.5,99.1L197.8,97.9L198.2,96.1L198.8,94.8L201.4,94.4L203.9,93.2L204.8,93.3L207.8,93L208.8,93.5L208.5,91.4L210.4,91.2L211.1,91.6L211.4,93L212.3,94L212.5,95.7L211.9,96.9L211,97.9L211.8,98.9L210.5,100.7L212,99.9L214,98.1L213.9,96.7L213.6,94.9L212.9,93.3L213.2,91.5L214.4,90.3L217.3,89.7L216.1,87.7L217.2,87.5L218.5,87.9L220.2,89.5L222,90.8L223.9,91.8L222,93.8L219.8,95.1Z" fill="#b8e653" stroke="#0c0e06" stroke-width="1"/></svg>
