<svg xmlns="http://www.w3.org/2000/svg" viewBox="0 0 400 300"><path d="M220.1,97.2L213.5,97.6L211.3,102.7L203.1,102.6L211.8,78.7L224,57.9L224.4,56.9L235.4,58.4L239.4,70L226.1,81.1Z" fill="#2c2c34" stroke="#474751" stroke-width="0.8"/><path d="M209.7,148.9L198.2,152.8L199.2,145.2L205.5,141.3L199.4,138.1L204.5,118.8L213.3,122.9L213.3,140.5Z" fill="#2c2c34" stroke="#474751" stroke-width="0.8"/><path d="M213.3,122.9L217.6,113.7L244.8,125.2L292.7,94.2L302.5,129.6L297.9,134L248.9,148.3L273.3,176.9L265.2,181.7L261.2,191.1L242.5,195L236.7,205.2L226.2,213.8L198.9,209.4L198.1,205.3L210.3,160.1L209.7,148.9L213.3,140.5Z" fill="#2c2c34" stroke="#474751" stroke-width="0.8"/><path d="M400,183.6L368.3,157.5L332,137.4L302.5,129.6L302.5,129.6L292.7,94.2L346.8,63.6L356,27.5L353.7,5.5L363.4,0L400,0Z" fill="#2c2c34" stroke="#474751" stroke-width="0.8"/><path d="M363.4,0L353.7,5.5L356,27.5L346.8,63.6L292.7,94.2L244.8,125.2L217.6,113.7L217.6,113.7L217.1,113.5L220.4,109.1L220.1,97.2L226.1,81.1L239.4,70L235.4,58.4L224.4,56.9L222.1,34L228.1,21.7L234.6,15.1L241.2,8.4L241.9,0L363.4,0Z" fill="#2c2c34" stroke="#474751" stroke-width="0.8"/><path d="M241.9,0L241.2,8.4L234.6,15.1L228.1,21.7L219.1,8L225.6,0L241.9,0ZM185.5,0L176.2,9.7L139.2,13L123.3,0L185.5,0ZM91.1,0L87.4,8.3L70.5,11.9L53.1,0L91.1,0Z" fill="#2c2c34" stroke="#474751" stroke-width="0.8"/><path d="M236.9,300L230.6,286.5L215.6,264.4L203.2,245.4L191,245.5L194.8,230.3L195.9,220.5L198.9,209.4L198.9,209.4L226.2,213.8L236.7,205.2L242.5,195L261.2,191.1L265.2,181.7L273.3,176.9L248.9,148.3L297.9,134L302.5,129.6L332,137.4L368.3,157.5L400,183.6L400,300Z" fill="#2c2c34" stroke="#474751" stroke-width="0.8"/><path d="M144.6,42.1L146.3,42L149.8,34.8L167.4,35.2L189.7,26.2L173.1,39L175,44.6L172.3,43.5L167.7,45.8L164,45.2L162.7,46.3L162.3,43.3L160.5,41.4L155.8,41.1L149.2,43.7Z" fill="#2c2c34" stroke="#474751" stroke-width="0.8"/><path d="M144.6,42.1L149.2,43.7L155.8,41.1L160.5,41.4L162.3,43.3L162.7,46.3L164,45.2L167.7,45.8L172.3,43.5L175,44.6L175.7,47L150.6,59.1L138.6,55.2L133,43.3Z" fill="#2c2c34" stroke="#474751" stroke-width="0.8"/><path d="M0,148.7L15.8,153.7L39.9,162.2L51.3,166.6L70.1,157.6L80.1,149.4L101.7,147L119.1,150.6L125.7,164.8L131.4,155.5L151,162.2L170,163.8L182.1,156.6L195.7,198L198.1,205.3L191.2,216.6L186,237.6L179.4,252L173.7,256.9L165.5,247.9L154.5,235.6L137.1,195.5L134.5,198L144.6,227.6L159.7,255.5L178.1,298.1L179.3,300L0,300Z" fill="#2c2c34" stroke="#474751" stroke-width="0.8"/><path d="M221.2,92.6L220.8,94.5L220.4,95.6L220.4,97.2L221,98L221.7,99.6L222.1,101.3L221.2,102.7L221.3,104.2L221.6,105.3L222.3,106.7L221,109.3L219.6,111.6L219.2,113L218,113.1L214.9,114.5L214.6,114.9L214,115.7L213.9,116.3L213.5,122.8L211.8,122.7L209.8,121.2L209.5,120L208.8,119.6L207.4,119.4L204.7,118.8L201.6,120.9L200.3,124.5L200,126.1L198.9,129.6L199.3,131.7L199.5,134.5L199.8,136.7L199.5,138.1L198.9,138.8L199.1,139.3L199.6,139.5L201.3,138.9L203.1,139.5L204.9,140.7L205,141.4L203.7,141.9L200.8,143.6L198.8,145.7L198.3,147.6L196.9,151.6L197,152.4L197.8,152.9L202.5,152.4L206.7,150.8L210,149.1L211,149.2L210.3,153.6L209.8,156.3L210,156.8L210.8,159.1L209.4,163.4L207.9,166.9L207.3,168.5L205.8,172.2L204.3,176.4L203.5,179.4L203.6,180.4L203.2,185.8L203.5,187.3L201.7,191.9L201.3,194.2L200.6,197.3L199.3,203.8L197.7,206L196.8,203.5L194.9,196.6L193.5,191.8L191.7,185.9L188.5,178.6L188.3,176.9L187.5,174.4L185.3,167.8L183.6,163L181.6,156.9L184.1,154.6L184.1,152.5L188.4,147.9L188.3,147.4L187.2,146.2L187.4,146L192.1,137.2L195.2,128.6L198.1,116.5L200.1,110.3L201.9,106.2L202.7,102.8L205.5,102.6L207.5,102.9L210.1,103.1L212.1,101.8L213.1,98L214.2,97.4L214.7,98.3L215.3,97.3L218,95.6L219.2,94.5L220.5,93.1Z" fill="#b8e653" stroke="#0c0e06" stroke-width="1"/></svg>
