<svg xmlns="http://www.w3.org/2000/svg" viewBox="0 0 300 300"><path fill="#e8e8ea" d="M194.3,20L193.3,24.2L192.5,26.9L192.5,30.4L193.7,32.2L195.3,36.1L196.3,39.9L194.3,43L194.5,46.4L195.1,49.1L196.7,52.3L193.7,58.1L190.5,63.6L189.7,66.7L186.8,67L179.8,70.2L179,71.1L177.8,72.9L177.6,74.3L176.5,89.2L172.7,88.9L168.1,85.6L167.3,82.8L165.8,81.8L162.6,81.5L156.4,80L149.3,85L146.3,93L145.5,96.8L143,104.9L144,109.7L144.5,116L145.1,121.2L144.5,124.3L143,126L143.4,127.1L144.7,127.6L148.5,126.2L152.7,127.6L156.8,130.2L157,131.9L154.1,133L147.5,137L142.8,141.7L141.6,146L138.4,155.3L138.8,157.1L140.4,158.2L151.3,157.2L161,153.5L168.5,149.5L170.9,149.8L169.3,159.9L168.1,166.1L168.5,167.2L170.3,172.6L167.1,182.3L163.6,190.4L162.2,194.1L158.8,202.5L155.3,212.2L153.5,219L153.9,221.4L152.9,233.7L153.5,237.2L149.5,247.7L148.5,253L146.9,260.1L144,275.1L140.2,280L138.2,274.4L134,258.5L130.7,247.5L126.5,233.9L119.2,217.3L118.6,213.4L117,207.6L112,192.4L107.9,181.5L103.3,167.6L109.1,162.1L109.1,157.4L119,146.7L118.8,145.7L116.2,142.8L116.6,142.4L127.5,122.3L134.6,102.5L141.2,74.7L145.9,60.6L149.9,51.2L151.7,43.4L158.2,42.8L162.8,43.6L168.7,44L173.3,41L175.5,32.2L178.2,30.8L179.4,32.9L180.8,30.6L186.8,26.8L189.7,24.2L192.7,21.2Z"/></svg>
