<svg xmlns="http://www.w3.org/2000/svg" viewBox="0 0 400 300"><path d="M0,252.8L11.7,259.3L12,261.8L18,265.9L16.1,271.1L16.3,273.5L19,275L19.1,276.1L17.9,278.7L18.2,280L17.9,282L19.4,284.6L21.1,288.8L22.6,289.7L19.3,292.2L14.7,293.9L12.2,293.8L10.7,295.1L7.8,295.2L6.7,295.7L1.7,294.5L0,294.7L0,252.8Z" fill="#2c2c34" stroke="#474751" stroke-width="0.8"/><path d="M86.5,0L87,0.3L87.4,0L102.2,0L102.2,0L103.4,0.8L103.9,0L205.7,0L205.7,0L206.9,2.3L209.9,3.6L211.7,6.3L217,5.5L219.3,9.4L219.3,9.4L216.1,13.6L212.6,14.2L212.4,20.5L210.1,23.3L201.8,21.3L198.8,32.1L196.6,33.4L188.3,35.8L192.1,45.9L189.2,47.4L189.6,50.6L187,49.8L184.9,47.8L178.7,47.2L171.8,47L170.3,47.6L164.3,45.2L161.9,46.4L161.3,49.8L154.4,47.8L151.6,48.6L150.7,51.1L148.3,52.2L142.8,56.1L141,60L139.4,60.1L138.3,57.4L133,57.3L132.1,52.7L130.1,52.6L130.4,46.9L125.4,42.8L118.2,43.2L113.3,44L109.3,38.8L105.9,36.6L99.4,32.3L98.6,31.8L87.9,35.3L88,56.5L85.9,56.7L83,52.4L80.1,50.8L75.4,52L73.6,53.8L73.3,52.5L74.4,50.1L73.6,48.1L68.7,46.2L66.8,41L64.5,39.5L64.4,37.6L68.4,38.2L68.6,33.9L72.2,32.9L75.8,33.8L76.6,27.9L75.8,24.2L71.6,24.5L68.1,23L63.3,25.7L59.4,26.9L57.2,26L57.7,22.8L55,18.7L51.9,18.9L48.3,14.6L50.7,9.8L49.5,8.5L52.9,1.4L57.2,5.2L57.7,0.4L58.2,0L86.5,0Z" fill="#2c2c34" stroke="#474751" stroke-width="0.8"/><path d="M88,56.5L87.9,35.3L98.6,31.8L99.4,32.3L105.9,36.6L109.3,38.8L113.3,44L118.2,43.2L125.4,42.8L130.4,46.9L130.1,52.6L132.1,52.7L133,57.3L138.3,57.4L139.4,60.1L141,60L142.8,56.1L148.3,52.2L150.7,51.1L152,51.7L148.4,55.3L151.5,57.4L154.5,56L159.5,58.9L154.1,62.9L150.9,62.3L149.2,62.5L148.6,61L149.5,58.4L143.9,59.7L142.6,63.2L140.6,66.2L137.1,66L136,68.4L139.1,69.6L140,73.6L137.6,78.9L134.5,77.8L132.1,77.8L132.3,74.6L126.7,72.3L122.3,69.7L119.6,67.1L114.8,63.4L112.8,57.7L111.4,56.7L106.8,57L105.2,55.8L104.8,51.3L99.2,48.4L95.6,51.6L92.1,53.6L92.8,56.4Z" fill="#2c2c34" stroke="#474751" stroke-width="0.8"/><path d="M400,250.7L399.6,250.3L400,250.2L400,250.7ZM376.4,283.7L376.9,284.5L376.9,285.8L374.2,289L370.6,289.9L370.1,289.4L370.5,288L372.3,285.4ZM346.8,229.1L344.4,232.8L347.5,236.8L346.8,238.7L351.5,242.6L346.5,243.1L345.1,245.9L345.3,249.7L341.3,252.6L341.2,256.8L339.6,263.2L339,261.7L334.2,263.6L332.6,261L329.6,260.8L327.5,259.4L322.5,260.9L321,258.9L318.3,259.1L314.8,258.6L314.2,253L312.1,251.9L310.1,248.3L309.5,244.6L310,240.8L312.5,238L313.2,240.8L316,243.1L318.7,242.3L321.4,242.6L323.8,240.5L325.8,240.1L329.8,241.3L333.2,240.4L335.3,234.6L336.9,233.1L338.4,228.4L343.2,228.4ZM400,262L397.4,260.8L393.9,260.4L391.6,260.7L388.7,260.6L389.7,258.3L394.8,258.1L394.8,258.1L399.4,259.3L400,260.5L400,262ZM384.4,262.2L381.5,261.5L380.7,259.7L384.9,259.5L386,260.8ZM388.8,237.3L389.1,239.6L391.6,239.9L392,241.6L391.8,245.3L389.6,244.9L389,247.4L390.7,249.6L389.5,250.1L387.8,247.5L386.6,242.2L387.4,238.8ZM367.9,242.7L372.7,242.5L376.8,239.5L377.6,240.4L374.2,244.6L371.1,245.4L367.1,244.6L360.1,244.8L356.4,245.4L355.8,248.5L359.6,252.3L361.8,250.4L369.6,248.9L369.3,250.9L367.5,250.3L365.7,252.7L362,254.3L365.9,259.7L365.2,261.1L368.9,266L368.9,268.7L366.7,270L365,268.5L367,265.1L362.9,266.7L361.9,265.5L362.4,263.9L359.4,261.4L359.7,257.4L356.9,258.6L357.3,263.5L357.5,269.5L354.8,270.1L353,268.9L354.2,265L353.6,261L351.8,261L350.5,258.1L352.2,255.4L352.8,252L354.9,245.7L355.8,244L359.4,240.9L362.6,242.1ZM356.9,289.5L351.4,286.5L355.3,285.7L357.5,287L358.9,288.3L358.7,289.4ZM361.3,282.2L364.1,281.9L367.8,280.3L367.2,282.7L360.9,283.9L355.3,283.3L355.3,281.8L358.7,280.9ZM348.4,281.5L351,281.1L352,282.9L347.2,283.8L344.3,284.3L342,284.3L343.5,281.9L345.8,281.8L346.9,280.3ZM307.5,273.3L308.1,274.8L316.1,275.2L317.1,273.5L324.8,275.5L326.3,278.2L332.6,279L337.7,281.5L333,283.1L328.4,281.4L324.6,281.5L320.2,281.2L316.3,280.4L311.5,278.8L308.4,278.4L306.7,278.9L299.1,277.2L298.3,275.4L294.5,275.1L297.4,271.1L302.4,271.3L305.8,273ZM290.3,250.9L291.1,253.8L292.5,256.2L295.6,256.5L297.6,259.2L296.6,264.4L296.4,270.9L291.8,271L288.2,267.5L282.9,264L281.1,261.5L277.9,258.1L275.9,254.9L272.7,249.1L269,245.6L267.8,242L266.2,238.8L262.5,236.1L260.3,232.5L257.1,230.2L252.8,225.6L252.4,223.4L255.1,223.6L261.6,224.4L265.3,228.5L268.5,231.4L270.8,233.1L274.8,237.6L279,237.7L282.5,240.5L284.9,244L288.1,245.9L286.4,249.4L288.8,250.8Z" fill="#2c2c34" stroke="#474751" stroke-width="0.8"/><path d="M27.9,253.4L25.5,250L25.4,234.7L29.1,230L30.2,228.7L32.9,228.6L36.6,225.6L42.1,225.4L53.9,212.8L56.8,209.3L58.7,206.7L58.7,204.5L58.7,200.2L58.7,198.4L58.7,198.4L60,198.3L62,197.6L64.2,197.2L66.2,195.8L67.8,195.7L67.8,196.9L67.5,199.4L67.5,201.6L66.6,203.2L65.4,207.8L63.4,212.5L60.8,217.9L57.2,224L53.7,228.7L48.7,234.4L44.6,237.8L38.3,242L34.4,245.2L29.8,250.2L28.9,252.4Z" fill="#2c2c34" stroke="#474751" stroke-width="0.8"/><path d="M0,239.5L0.6,238.4L0,236.9L0,224.9L0,224.9L1.7,223.3L3.8,224L3.8,226.4L5.3,227.8L8.2,227.8L13.5,231.3L14.8,231.4L15.8,231.3L16.7,231.7L19.5,232.1L20.7,230.3L24.5,228.6L26.2,230L29.1,230L25.4,234.7L25.5,250L27.9,253.4L25,255.1L24,256.8L22.4,257.1L21.8,260.1L20.5,261.8L19.7,264.6L18,265.9L18,265.9L12,261.8L11.7,259.3L0,252.8L0,239.5Z" fill="#2c2c34" stroke="#474751" stroke-width="0.8"/><path d="M0,152.1L8.2,152.1L9.6,156.5L8.6,157.3L9.3,161.9L10.8,167.2L12.4,168.3L14.7,169.9L12.5,172.4L9.5,173.1L8.2,174.4L7.7,177.3L5.9,183.7L6.4,185.4L5.7,189.2L4,193.4L1.5,195.5L0,198.2L0,152.1Z" fill="#2c2c34" stroke="#474751" stroke-width="0.8"/><path d="M400,12.9L399.9,12.5L394.9,8L387.7,5.9L386.3,0L400,0ZM352.9,0L352.7,0.5L352.7,3.4L346.8,7.5L341.8,5.1L336.8,5.6L334.6,3.4L332.1,2.7L326,7.3L320.5,8.4L316.6,10L311.4,8.9L307.5,9L305,5.7L300.9,2.6L296.7,1.7L291.4,2.6L287.4,3.8L281.5,1L281.4,0L352.9,0ZM264,0L264.7,1.6L260.6,6.1L254.6,4.5L250.4,4.3L247.6,1.2L243.3,1.1L241.3,0L264,0ZM237.7,0L233.3,2.2L225.3,7.8L220.9,8.9L219.3,9.4L217,5.5L211.7,6.3L209.9,3.6L206.9,2.3L205.7,0L237.7,0ZM103.9,0L103.4,0.8L102.2,0L103.9,0ZM87.4,0L87,0.3L86.5,0L87.4,0ZM58.2,0L57.7,0.4L57.2,5.2L52.9,1.4L49.5,8.5L50.7,9.8L48.3,14.6L51.9,18.9L55,18.7L57.7,22.8L57.2,26L59.4,26.9L57.4,30.5L53.4,31.5L49.2,37.6L53,43.1L52.6,47L57.2,53.7L54.7,55.9L54,57.3L52.1,57L49.3,53.6L48.1,53.4L45.5,52.1L44.2,49.8L40.3,48.6L37.7,49.5L37,48.4L31.3,45.7L25.2,44.7L21.6,43.8L21.1,44.4L15.8,39.5L11,37.3L7.4,33.9L10.5,32.9L13.9,27.9L11.6,25.5L17.8,23L17.6,21.7L13.9,22.6L14,19.9L16.2,18.2L20.2,17.7L20.9,15.6L19.9,12.2L21.6,8.8L21.6,6.9L15.4,4.8L13,4.9L10.4,1.8L7.2,2.9L1.9,0.6L1.9,0L58.2,0ZM0,30.8L0.5,30.9L0.5,31.4L2.5,32.9L6.8,32.5L6,34.6L1.4,35.7L0,36.5L0,30.8Z" fill="#2c2c34" stroke="#474751" stroke-width="0.8"/><path d="M376.4,283.7L376.9,282.7L380.5,281.7L383.4,281.6L384.7,281.1L386.3,281.6L384.8,282.7L380.4,284.6L376.9,285.8L376.9,284.5Z" fill="#2c2c34" stroke="#474751" stroke-width="0.8"/><path d="M0,294.7L1.7,294.5L6.7,295.7L7.8,295.2L10.7,295.1L12.2,293.8L14.7,293.9L19.3,292.2L22.6,289.7L23.3,291.6L23.1,295.9L23.6,299.6L23.7,300L0,300Z" fill="#2c2c34" stroke="#474751" stroke-width="0.8"/><path d="M0,102L0.2,101L0.8,99.7L0.9,99.7L2.3,99.7L2.7,98.8L3.8,98.7L3.9,100.8L3.3,101.5L3.4,101.6L3.4,101.6L2.7,103.1L1.2,102.4L0.3,105.7L1.4,106.3L0.3,107L0.1,108.3L2.1,107.6L2.2,109.5L0.1,117.2L0,117L0,102Z" fill="#2c2c34" stroke="#474751" stroke-width="0.8"/><path d="M3.8,98.7L2.7,98.8L2.3,99.7L0.9,99.7L2.4,95.6L4.5,92L4.6,91.8L6.5,92.1L7.1,94.1L4.9,96Z" fill="#2c2c34" stroke="#474751" stroke-width="0.8"/><path d="M58.3,300L58.4,299L59.7,297.1L61.2,298.9L61.2,298.9L61.9,300L58.3,300Z" fill="#2c2c34" stroke="#474751" stroke-width="0.8"/><path d="M2.1,107.6L0.1,108.3L0.3,107L1.4,106.3L0.3,105.7L1.2,102.4L2.7,103.1L2.7,106.2Z" fill="#2c2c34" stroke="#474751" stroke-width="0.8"/><path d="M2.7,103.1L3.4,101.6L8.1,103.5L16.3,98.2L17.9,104.3L17.1,105L8.8,107.5L13,112.4L11.6,113.2L10.9,114.8L7.7,115.5L6.7,117.2L4.9,118.7L0.2,117.9L0.1,117.2L2.2,109.5L2.1,107.6L2.7,106.2Z" fill="#2c2c34" stroke="#474751" stroke-width="0.8"/><path d="M69.7,141.9L70.4,141.7L70.6,142.9L73.9,142.2L77.3,142.3L79.9,142.4L82.7,139.3L85.8,136.4L88.5,133.5L89.3,135.1L89.8,138.8L87.7,138.8L87.4,141.8L88.1,142.4L86.2,143.3L86.2,145.2L85,147.1L84.9,148.9L84,149.8L71.5,147.6L69.9,142.9Z" fill="#2c2c34" stroke="#474751" stroke-width="0.8"/><path d="M66.5,139.5L66.2,136.2L67.3,133.7L68.5,133.2L69.8,134.7L69.8,137.4L68.9,140.1L67.8,140.4Z" fill="#2c2c34" stroke="#474751" stroke-width="0.8"/><path d="M54.6,115L55.5,117.1L55.1,118.2L56.5,121.8L53.5,121.9L52.5,119.6L48.8,119.2L51.8,114.6Z" fill="#2c2c34" stroke="#474751" stroke-width="0.8"/><path d="M17.9,104.3L16.3,98.2L25.5,93L27.1,86.8L26.7,83.1L29,81.8L31.1,78.5L32.9,77.7L37.8,78.4L39.3,79.7L41.3,78.8L44,85L46.7,86.6L47,89.6L44.9,91.3L43.9,95.3L46.9,100L52,102.8L54.1,106.5L53.4,110.1L54.8,110.1L54.8,112.6L57.1,115.2L54.6,115L51.8,114.6L48.8,119.2L41,118.8L29.2,109.1L23,105.6Z" fill="#2c2c34" stroke="#474751" stroke-width="0.8"/><path d="M84.9,148.9L85,147.1L86.2,145.2L86.2,143.3L88.1,142.4L87.4,141.8L87.7,138.8L89.8,138.8L91.7,141.9L94.1,143.6L97.1,144.2L99.6,145L101.5,147.6L102.6,149.1L104.1,149.7L104.1,150.7L102.6,153.4L101.9,154.6L100.1,156.1L98.6,159.1L96.7,158.9L95.8,160L95.1,162.2L95.7,165.2L95.3,165.7L93.3,165.7L90.7,167.3L90.3,169.5L89.4,170.4L86.8,170.4L85.1,171.5L85.1,173.3L83.1,174.5L80.8,174.1L78,175.5L76.1,175.8L74.7,172.7L71.5,165.5L84,161L86.8,152.1ZM89.3,135.1L88.5,133.5L89.7,131.9L90.2,132.3L89.8,134.3Z" fill="#2c2c34" stroke="#474751" stroke-width="0.8"/><path d="M282.9,195.1L281.9,189.9L284.6,186.3L290,185.5L293.9,186.1L297.3,187.8L299.2,184.8L302.9,186.4L303.9,189.3L303.4,194.4L296.4,197.7L298.2,200.3L293.8,200.6L290.2,202.3L286.7,201.7L285,199.5Z" fill="#2c2c34" stroke="#474751" stroke-width="0.8"/><path d="M293.9,186.1L290,185.5L284.6,186.3L281.9,189.9L282.9,195.1L279.1,193.1L275.6,193.2L276.2,189.8L272.5,189.8L272.2,194.5L269.9,200.8L268.5,204.5L268.8,207.6L271.6,207.7L273.3,211.6L274,215.2L276.3,217.6L278.9,218.1L281,220.3L279.7,222L276.9,222.6L276.6,220.4L273.2,218.6L272.4,219.3L270.8,217.7L270.1,215.6L267.9,213.2L265.8,211.2L265.1,213.7L264.3,211.4L264.8,208.7L266,204.7L268.1,200.3L270.3,196.3L268.7,192.4L268.8,190.4L268.3,188L265.5,184.6L264.5,182.4L266,181.6L267.5,177.8L265.8,175L263.1,171.8L261.1,167.9L262.9,167.1L264.8,162.3L267.7,162.1L270.2,160.2L272.6,159.2L274.4,160.5L274.6,163.2L277.4,163.4L276.4,168.1L276.5,172L280.9,169.4L282.2,170.2L284.6,170L285.5,168.5L288.6,168.8L291.8,172.4L292.1,176.7L295.4,180.5L295.3,184.1Z" fill="#2c2c34" stroke="#474751" stroke-width="0.8"/><path d="M302.9,186.4L299.2,184.8L297.3,187.8L293.9,186.1L295.3,184.1L295.4,180.5L292.1,176.7L291.8,172.4L288.6,168.8L285.5,168.5L284.6,170L282.2,170.2L280.9,169.4L276.5,172L276.4,168.1L277.4,163.4L274.6,163.2L274.4,160.5L272.6,159.2L273.4,157.5L277,154.6L277.4,155.7L279.6,155.8L279,150.6L281.2,150L283.6,153.5L285.5,157.6L290.6,157.7L292.2,161.5L289.6,162.7L288.4,164.3L293.4,166.9L296.8,172.1L299.5,176L302.6,179L303.7,182.1Z" fill="#2c2c34" stroke="#474751" stroke-width="0.8"/><path d="M272.6,159.2L270.2,160.2L267.7,162.1L264.8,162.3L262.9,167.1L261.1,167.9L263.1,171.8L265.8,175L267.5,177.8L266,181.6L264.5,182.4L265.5,184.6L268.3,188L268.8,190.4L268.7,192.4L270.3,196.3L268.1,200.3L266,204.7L265.6,201.5L266.9,198.2L265.5,195.7L265.9,191L264.2,188.8L262.8,183.7L262,178.2L260.2,174.6L257.5,176.8L252.7,179.9L250.4,179.5L247.8,178.5L249.2,173L248.4,168.9L245.1,163.8L245.6,162.2L243.1,161.7L240.2,158L239.9,154.4L241.4,155.1L241.5,151.9L243.5,150.8L243.1,148.9L244,147.4L244.2,142.6L247.4,143.7L249.3,139.9L249.5,137.7L251.8,133.8L251.7,131.1L257.1,127.9L260.1,128.7L259.8,125.8L261.2,125L260.9,123.2L263.4,122.8L264.8,125.6L266.6,126.7L266.7,130.3L266.5,134.2L262.6,138L262.1,143.5L266.5,142.7L267.5,146.9L270.1,147.8L268.9,151.5L272,153.2L273.8,154.1L276.9,152.8L277,154.6L273.4,157.5Z" fill="#2c2c34" stroke="#474751" stroke-width="0.8"/><path d="M290.2,202.3L293.8,200.6L298.2,200.3L296.4,197.7L303.4,194.4L303.9,189.3L302.9,186.4L303.7,182.1L302.6,179L299.5,176L296.8,172.1L293.4,166.9L288.4,164.3L289.6,162.7L292.2,161.5L290.6,157.7L285.5,157.6L283.6,153.5L281.2,150L283.4,148.9L286.7,148.9L290.8,148.4L294.3,146L296.4,147.7L300.2,148.5L299.5,151.1L301.5,152.9L305.7,154.1L300.1,157.9L296.7,162.1L295.7,165.2L298.9,169.9L302.9,175.6L306.6,178.3L309.2,181.8L311.1,189.7L310.5,197.3L307,200.1L302.3,202.8L298.8,206.4L293.6,210.3L292.1,207.6L293.3,204.7Z" fill="#2c2c34" stroke="#474751" stroke-width="0.8"/><path d="M400,51.2L399.1,51L397.3,52.9L396.1,54.8L396.2,58.8L394.1,60.1L393.3,61L391.8,62.6L389,63.5L387.2,65L387,67.4L386.5,67.9L388.2,68.8L390.6,71.2L390,72.5L388.2,72.8L385.2,73.1L383.6,75.5L381.7,75.3L381.5,75.8L379.5,74.8L378.9,75.8L377.7,76.2L377.6,75.2L376.5,74.7L375.4,73.9L376.5,71.5L377.5,70.9L377.1,69.9L378.2,67L377.9,66.1L375.5,65.5L373.5,64.1L376.9,60.6L381.5,57.6L384.4,53.6L386.4,55.4L390,55.6L389.3,52.6L395.8,50.2L397.4,47L400,50.2L400,51.2Z" fill="#2c2c34" stroke="#474751" stroke-width="0.8"/><path d="M381.5,75.8L381.7,75.3L383.6,75.5L385.2,73.1L388.2,72.8L390,72.5L390.6,71.2L394.2,77.4L395.2,80.8L395.2,86.8L393.7,89.6L389.9,90.6L386.5,92.7L382.8,93.1L382.3,90.4L383.1,86.5L381.2,81.1L384.3,80.3Z" fill="#2c2c34" stroke="#474751" stroke-width="0.8"/><path d="M241.3,0L243.3,1.1L247.6,1.2L250.4,4.3L254.6,4.5L260.6,6.1L264.7,1.6L264,0L281.4,0L281.4,0L281.5,1L287.4,3.8L291.4,2.6L296.7,1.7L300.9,2.6L305,5.7L307.5,9L311.4,8.9L316.6,10L320.5,8.4L326,7.3L332.1,2.7L334.6,3.4L336.8,5.6L341.8,5.1L339.8,9.9L336.8,16.2L337.9,18.8L340.2,18L344.4,19L347.6,16.7L350.9,18.7L354.7,23L354.3,25.2L351,24.5L344.9,25.3L342,27L338.9,31L332.5,33.3L328.4,36.4L324.1,35.2L321.7,34.7L319.5,38.5L320.8,40.8L321.5,42.7L318.6,44.6L315.6,47.7L310.7,49.7L304.4,49.9L297.7,51.8L292.8,54.9L291,53.1L285.9,53.1L279.7,49.7L275.6,48.9L270.1,49.6L261.4,48.4L256.8,48.5L254.4,45.1L252.5,39.8L249.9,39.1L244.8,35.5L239.2,34.6L234.2,33.6L232.7,31L234.3,24L231.5,19L225.5,16.7L222,13.3L220.9,8.9L220.9,8.9L225.3,7.8L233.3,2.2L237.7,0L241.3,0Z" fill="#2c2c34" stroke="#474751" stroke-width="0.8"/><path d="M241.5,151.9L241.4,155.1L239.9,154.4L240.2,158L239,155.7L238.8,153.4L238,151.3L236.2,148.6L232.4,148.4L232.7,150.3L231.4,152.8L229.6,151.9L229,152.7L227.9,152.2L226.2,151.8L225.6,148.1L224.1,144.7L224.8,141.9L222.3,140.7L223.2,139L225.8,137.3L222.8,134.9L224.3,131.7L227.6,133.7L229.6,133.9L230,137.2L233.9,137.8L237.8,137.7L240.2,138.5L238.3,142.4L236.4,142.7L235.1,145.3L237.4,147.6L238.1,144.7L239.2,144.7Z" fill="#2c2c34" stroke="#474751" stroke-width="0.8"/><path d="M237.4,125.5L239.1,127L238.8,129.9L235.4,130L231.8,129.7L229.2,130.4L225.4,128.6L225.3,127.7L228.1,124.2L230.4,123L233.3,124.1L235.5,124.2Z" fill="#2c2c34" stroke="#474751" stroke-width="0.8"/><path d="M222.4,125L222.1,127L222.7,130L222.2,131.8L218.7,131.9L213.7,130.8L210.4,130.4L208,128L202.3,127.4L196.8,124.7L192.9,122.4L188.9,120.6L190.5,116.1L193.1,113.9L194.9,112.8L198.2,114.3L202.4,117.4L204.8,118.1L206.2,120.4L209.4,121.3L212.8,123.4L217.6,124.5Z" fill="#2c2c34" stroke="#474751" stroke-width="0.8"/><path d="M179.5,87.5L175.4,91.8L170.8,92.6L164.4,91.3L162.4,93.5L163.9,97.9L165.3,101.3L168.7,103.7L165.1,106.6L165.2,110.1L161.1,115L158.5,119.8L154.1,124.8L149.3,124.4L144.7,129.4L147.4,131.5L147.9,135.1L150.2,137.4L151.1,141.4L141.9,141.4L139.1,144.4L136,143.2L134.8,140L131.5,136.4L123.8,137.3L117,137.4L111.2,138L112.7,132.7L118.8,130.2L118.4,128.1L116.4,127.3L116.3,123.2L112.3,121.1L110.6,118.2L108.6,115.7L115.6,118.1L119.7,117.4L122.2,118L123.1,117L126,117.4L131.4,115.4L131.6,111.3L133.9,108.5L137,108.5L137.5,107.1L140.7,106.5L142.2,106.9L143.8,105.6L143.6,102.6L145.4,99.6L148.1,98.3L146.4,95L150.4,95.2L151.5,93.3L151.3,91.4L153.4,89.3L153,86.7L152,84.5L154.4,82.3L158.9,81.2L163.7,80.6L165.8,79.6L168.3,79L171.3,81.5L172.6,85.4Z" fill="#2c2c34" stroke="#474751" stroke-width="0.8"/><path d="M132.1,77.8L134.5,77.8L137.6,78.9L138.9,79.6L141.9,77.9L143.3,78.9L144.7,76.5L147.2,76.6L147.8,75.8L148.3,73.7L150.1,71.9L152.3,73.1L151.9,74.7L153.1,74.9L152.7,79.4L154.4,81.1L155.9,80L157.7,79.5L160.3,77.1L163.2,77.5L167.5,77.5L168.3,79L165.8,79.6L163.7,80.6L158.9,81.2L154.4,82.3L152,84.5L153,86.7L153.4,89.3L151.3,91.4L151.5,93.3L150.4,95.2L146.4,95L148.1,98.3L145.4,99.6L143.6,102.6L143.8,105.6L142.2,106.9L140.7,106.5L137.5,107.1L137,108.5L133.9,108.5L131.6,111.3L131.4,115.4L126,117.4L123.1,117L122.2,118L119.7,117.4L115.6,118.1L108.6,115.7L112.3,111.3L112,108.1L108.8,107.3L108.5,104.2L107.1,100.2L108.9,97.5L107.1,96.7L108.3,93.1L110,86.7L114.2,88.7L117.4,88L118.2,85.6L121.5,84.9L123.9,83.3L124.7,79.1L128.3,78.1L128.9,76.2L130.9,77.6Z" fill="#2c2c34" stroke="#474751" stroke-width="0.8"/><path d="M137.6,78.9L140,73.6L139.1,69.6L136,68.4L137.1,66L140.6,66.2L142.6,63.2L143.9,59.7L149.5,58.4L148.6,61L149.2,62.5L150.9,62.3L149.4,64L144.8,63.1L144.5,66.3L149,65.8L154.1,67.6L162.1,66.8L163.1,71.7L164.5,71.2L167,72.4L166.9,74.5L167.5,77.5L163.2,77.5L160.3,77.1L157.7,79.5L155.9,80L154.4,81.1L152.7,79.4L153.1,74.9L151.9,74.7L152.3,73.1L150.1,71.9L148.3,73.7L147.8,75.8L147.2,76.6L144.7,76.5L143.3,78.9L141.9,77.9L138.9,79.6Z" fill="#2c2c34" stroke="#474751" stroke-width="0.8"/><path d="M150.7,51.1L151.6,48.6L154.4,47.8L161.3,49.8L161.9,46.4L164.3,45.2L170.3,47.6L171.8,47L178.7,47.2L184.9,47.8L187,49.8L189.6,50.6L189,51.9L182.4,55L180.9,57.2L175.6,57.8L174,61.3L169.6,60.6L166.7,61.7L162.7,64.3L163.2,65.5L162.1,66.8L154.1,67.6L149,65.8L144.5,66.3L144.8,63.1L149.4,64L150.9,62.3L154.1,62.9L159.5,58.9L154.5,56L151.5,57.4L148.4,55.3L152,51.7Z" fill="#2c2c34" stroke="#474751" stroke-width="0.8"/><path d="M73.6,53.8L75.4,52L80.1,50.8L83,52.4L85.9,56.7L88,56.5L92.8,56.4L92.1,53.6L95.6,51.6L99.2,48.4L104.8,51.3L105.2,55.8L106.8,57L111.4,56.7L112.8,57.7L114.8,63.4L119.6,67.1L122.3,69.7L126.7,72.3L132.3,74.6L132.1,77.8L130.9,77.6L128.9,76.2L128.3,78.1L124.7,79.1L123.9,83.3L121.5,84.9L118.2,85.6L117.4,88L114.2,88.7L110,86.7L109.6,82.4L106.5,82.2L101.7,77.5L98.4,77L93.7,74.3L90.8,73.8L88.9,74.8L86.1,74.6L83.2,77.6L79.5,78.7L78.7,74.9L79.3,69.4L76.1,67.5L77.1,63.8L74.4,63.5L75.3,58.9L79.2,60.2L82.9,58.5L79.9,55.1L78.7,51.9L75.3,53.3L74.9,57.4Z" fill="#2c2c34" stroke="#474751" stroke-width="0.8"/><path d="M57.1,115.2L54.8,112.6L54.8,110.1L53.4,110.1L54.1,106.5L52,102.8L46.9,100L43.9,95.3L44.9,91.3L47,89.6L46.7,86.6L44,85L41.3,78.8L39,74.6L39.8,72.9L38.5,66.8L41.3,65.2L42,67.3L44.1,69.8L47,70.5L48.5,70.3L53.4,66.4L55,66L56.2,67.5L54.8,70.2L57.4,73L58.4,72.7L59.8,76.7L63.7,77.7L66.6,80.4L72.6,81.3L79.1,79.9L79.5,78.7L83.2,77.6L86.1,74.6L88.9,74.8L90.8,73.8L93.7,74.3L98.4,77L101.7,77.5L106.5,82.2L109.6,82.4L110,86.7L108.3,93.1L107.1,96.7L108.9,97.5L107.1,100.2L108.5,104.2L108.8,107.3L112,108.1L112.3,111.3L108.6,115.7L110.6,118.2L112.3,121.1L116.3,123.2L116.4,127.3L118.4,128.1L118.8,130.2L112.7,132.7L111.2,138L103.3,136.6L98.7,135.6L94,135L92.2,129.3L90.2,128.4L87,129.3L82.8,131.5L77.7,130L73.5,126.4L69.5,125L66.7,120.5L63.6,114.1L61.3,114.9L58.7,113.3Z" fill="#2c2c34" stroke="#474751" stroke-width="0.8"/><path d="M3.4,101.6L3.3,101.5L3.9,100.8L3.8,98.7L4.9,96L7.1,94.1L6.5,92.1L4.6,91.8L4.2,87.9L5.2,85.8L6.3,84.7L7.5,83.6L7.7,80.7L9.1,81.7L13.7,80.2L15.9,81.2L19.3,81.2L24.1,79.2L26.4,79.3L31.1,78.5L29,81.8L26.7,83.1L27.1,86.8L25.5,93L16.3,98.2L8.1,103.5Z" fill="#2c2c34" stroke="#474751" stroke-width="0.8"/><path d="M48.5,70.3L47,70.5L45.3,67.4L45.3,66.5L43.5,66.6L42.2,65.1L41.3,65.2L39.7,63.7L36.6,62.3L37,59.6L36.3,57.7L42.1,56.8L43,58.3L44.5,59.2L43.7,60.6L45.9,62.5L44.8,64.2L46.5,65.7L48.4,66.6Z" fill="#2c2c34" stroke="#474751" stroke-width="0.8"/><path d="M1.9,0L1.9,0.6L7.2,2.9L10.4,1.8L13,4.9L15.4,4.8L21.6,6.9L21.6,8.8L19.9,12.2L20.9,15.6L20.2,17.7L16.2,18.2L14,19.9L13.9,22.6L10.5,23.1L7.8,25.1L3.8,25.4L0.3,27.7L0.5,30.9L0,30.8L0,0Z" fill="#2c2c34" stroke="#474751" stroke-width="0.8"/><path d="M0,52.4L1.1,52.4L8.4,56.3L14.4,58.5L19.3,57.6L22.9,58.1L27.8,55.2L32.3,54.9L36.3,57.7L37,59.6L36.6,62.3L39.7,63.7L41.3,65.2L38.5,66.8L39.8,72.9L39,74.6L41.3,78.8L41.3,78.8L39.3,79.7L37.8,78.4L32.9,77.7L31.1,78.5L26.4,79.3L24.1,79.2L19.3,81.2L15.9,81.2L13.7,80.2L9.1,81.7L7.7,80.7L7.5,83.6L6.3,84.7L5.2,85.8L3.7,83.5L5.3,81.5L2.7,82L0,81L0,52.4Z" fill="#2c2c34" stroke="#474751" stroke-width="0.8"/><path d="M399.5,300L400,299.3L400,300Z" fill="#2c2c34" stroke="#474751" stroke-width="0.8"/><path d="M196,214.8L195.3,219.2L193.6,220.4L189.9,221.4L188,218L187.2,212L189.1,205.1L192,207.5L193.9,210.4Z" fill="#2c2c34" stroke="#474751" stroke-width="0.8"/><path d="M311.7,169L308.3,167.6L308.1,163.8L310.2,161.8L314.8,160.6L317.2,160.7L318.1,162.4L316.3,164.3L315.3,166.9ZM386.3,0L387.7,5.9L394.9,8L399.9,12.5L400,12.9L400,50.2L400,50.2L397.4,47L395.8,50.2L389.3,52.6L390,55.6L386.4,55.4L384.4,53.6L381.5,57.6L376.9,60.6L373.5,64.1L367.7,65.7L364.6,68.2L360.1,69.7L362.3,67.2L361.4,65L364.7,61.4L362.5,58.5L358.9,60.4L354.2,64.2L351.6,67.7L347.5,68L345.4,70.5L347.6,74.1L351,75L351.1,77.4L354.4,78.9L359.1,75.1L362.8,77.2L365.5,77.3L366.2,80.1L360.3,81.5L358.3,84.3L354.3,86.9L352.1,90.5L356.6,93.3L358.3,98.2L360.8,102.8L363.7,106.6L363.6,110.2L361,111.6L362,114.1L364.4,115.6L363.8,119.6L362.7,123.3L360.4,123.7L357.3,128.9L353.9,135L350.1,140.5L344.3,144.7L338.5,148.5L333.8,149.1L331.2,151.1L329.8,149.6L327.4,151.8L321.6,154.1L317.2,154.8L315.7,159.5L313.4,159.8L312.3,156.5L313.3,154.8L307.7,153.4L305.7,154.1L301.5,152.9L299.5,151.1L300.2,148.5L296.4,147.7L294.3,146L290.8,148.4L286.7,148.9L283.4,148.9L281.2,150L279,150.6L279.6,155.8L277.4,155.7L277,154.6L276.9,152.8L273.8,154.1L272,153.2L268.9,151.5L270.1,147.8L267.5,146.9L266.5,142.7L262.1,143.5L262.6,138L266.5,134.2L266.7,130.3L266.6,126.7L264.8,125.6L263.4,122.8L260.9,123.2L256.4,122.4L257.8,120.4L255.9,117.5L252.9,119.5L249.4,118.3L244.5,121.4L240.8,124.9L237.4,125.5L235.5,124.2L233.3,124.1L230.4,123L228.1,124.2L225.3,127.7L225,124L222.4,125L217.6,124.5L212.8,123.4L209.4,121.3L206.2,120.4L204.8,118.1L202.4,117.4L198.2,114.3L194.9,112.8L193.1,113.9L187.3,110.6L183.2,107.5L182,102L185.1,102.7L185.2,100.2L183.5,97.6L183.9,93.5L179.5,87.5L172.6,85.4L171.3,81.5L168.3,79L167.5,77.5L166.9,74.5L167,72.4L164.5,71.2L163.1,71.7L162.1,66.8L163.2,65.5L162.7,64.3L166.7,61.7L169.6,60.6L174,61.3L175.6,57.8L180.9,57.2L182.4,55L189,51.9L189.6,50.6L189.6,50.6L189.2,47.4L192.1,45.9L188.3,35.8L196.6,33.4L198.8,32.1L201.8,21.3L210.1,23.3L212.4,20.5L212.6,14.2L216.1,13.6L219.3,9.4L220.9,8.9L222,13.3L225.5,16.7L231.5,19L234.3,24L232.7,31L234.2,33.6L239.2,34.6L244.8,35.5L249.9,39.1L252.5,39.8L254.4,45.1L256.8,48.5L261.4,48.4L270.1,49.6L275.6,48.9L279.7,49.7L285.9,53.1L291,53.1L292.8,54.9L297.7,51.8L304.4,49.9L310.7,49.7L315.6,47.7L318.6,44.6L321.5,42.7L320.8,40.8L319.5,38.5L321.7,34.7L324.1,35.2L328.4,36.4L332.5,33.3L338.9,31L342,27L344.9,25.3L351,24.5L354.3,25.2L354.7,23L350.9,18.7L347.6,16.7L344.4,19L340.2,18L337.9,18.8L336.8,16.2L339.8,9.9L341.8,5.1L346.8,7.5L352.7,3.4L352.7,0.5L352.9,0L386.3,0Z" fill="#2c2c34" stroke="#474751" stroke-width="0.8"/><path d="M363.1,141.2L360.6,148.5L358.8,152.2L356.6,148.4L356.1,145L358.6,140.5L361.9,137L363.8,138.4Z" fill="#2c2c34" stroke="#474751" stroke-width="0.8"/><path d="M48.1,53.4L49.3,53.6L52.1,57L54,57.3L54.7,55.9L57.2,53.7L59.4,56.6L61.5,60.5L63.5,60.8L64.7,62.3L61.3,62.7L60.6,66.9L59.9,68.8L58.3,70.1L58.4,72.7L57.4,73L54.8,70.2L56.2,67.5L55,66L53.4,66.4L48.5,70.3L48.4,66.6L46.5,65.7L44.8,64.2L45.9,62.5L43.7,60.6L44.5,59.2L43,58.3L42.1,56.8L43.1,55.9L46.2,57.5L48.5,57.8L49,57.2L47,54.2ZM47,70.5L44.1,69.8L42,67.3L41.3,65.2L42.2,65.1L43.5,66.6L45.3,66.5L45.3,67.4Z" fill="#2c2c34" stroke="#474751" stroke-width="0.8"/><path d="M21.1,44.4L21.6,43.8L25.2,44.7L31.3,45.7L37,48.4L37.7,49.5L40.3,48.6L44.2,49.8L45.5,52.1L48.1,53.4L47,54.2L49,57.2L48.5,57.8L46.2,57.5L43.1,55.9L42.1,56.8L36.3,57.7L32.3,54.9L27.8,55.2L28.4,52.8L27.4,49L25,46.9L22.7,46.2Z" fill="#2c2c34" stroke="#474751" stroke-width="0.8"/><path d="M359.2,192.8L357,189.6L360.6,189.7L362.1,191.3L360.9,195ZM366.5,204.4L367.5,203.3L368,200.6L370.3,200.4L369.6,203.2L372.7,199.1L372.3,203.2L370.8,204.6L369.5,207.3L368.2,208.5L365.6,205.6ZM382.3,211.1L382.7,213.9L383,216.3L381.6,220.1L380,215.8L378.1,217.9L379.4,221L378.2,223L373.3,220.6L372.1,217.5L373.4,215.5L370.8,213.5L369.4,215.3L367.5,215.1L364.4,217.5L363.7,216.2L365.3,212.7L368,211.5L370.2,209.9L371.7,211.8L374.9,210.7L375.6,208.8L378.5,208.7L378.3,205.4L381.7,207.4L382,209.5ZM349.4,207.3L343.9,211.3L345.9,208.3L348.9,205.7L351.4,202.8L353.6,198.5L354.4,202L351.6,204.4ZM365.4,168.9L364.8,170.7L366.2,173.8L365.1,177.5L362.6,178.9L362,182.4L362.9,185.9L365.1,186.3L367,185.8L372.2,188.2L371.8,190.5L373.1,191.6L372.7,193.6L369.5,191.4L367.9,189.2L366.8,190.8L364.2,188.2L360.4,188.8L358.3,187.9L358.5,186.1L359.8,185L358.6,184L358,185.6L356,183.1L355.3,181.2L355.2,177L356.9,178.5L357.3,171.6L358.7,167.7L361.2,167.7L363.8,168.9L365.1,167.8ZM364.2,198.3L363.5,196.3L366,197.6L368.7,197.6L368.6,199.4L366.7,201.2L364,202.5L363.9,200.5ZM378.7,195.2L379.8,199.9L376.6,198.8L376.7,200.2L377.7,202.8L375.7,203.8L375.6,200.8L374.3,200.6L373.7,198L376.1,198.3L376.1,196.7L373.5,193.5L377.5,193.6Z" fill="#2c2c34" stroke="#474751" stroke-width="0.8"/><path d="M272.4,219.3L273.2,218.6L276.6,220.4L276.9,222.6L279.7,222L281,220.3L282,220.7L284.5,223.2L286.2,226.1L286.4,228.9L286,230.8L286.4,232.2L286.7,234.7L288.2,235.9L289.8,239.6L289.8,241L286.8,241.3L282.8,238.2L277.9,234.8L277.4,232.7L275,229.9L274.4,226.4L272.9,224.1L273.4,221.1ZM346.8,229.1L343.2,228.4L338.4,228.4L336.9,233.1L335.3,234.6L333.2,240.4L329.8,241.3L325.8,240.1L323.8,240.5L321.4,242.6L318.7,242.3L316,243.1L313.2,240.8L312.5,238L315.5,239.4L318.8,238.6L319.6,235.1L321.4,234.3L326.4,233.4L329.4,230.1L331.5,227.4L333.3,229.6L334.2,228.2L336.2,228.3L336.5,225.6L336.7,223.6L339.9,220.7L342,217.4L343.7,217.3L345.8,219.5L346,221.3L348.8,222.5L352.2,223.7L351.9,225.4L349.1,225.6L349.9,227.6Z" fill="#2c2c34" stroke="#474751" stroke-width="0.8"/><path d="M336.7,223.6L336.5,225.6L336.2,228.3L334.2,228.2L333.3,229.6L331.5,227.4L333.1,225.9Z" fill="#2c2c34" stroke="#474751" stroke-width="0.8"/><path d="M6.4,185.4L5.9,183.7L7.7,177.3L8.2,174.4L9.5,173.1L12.5,172.4L14.7,169.9L17.1,175L18.2,179L20.5,181.1L26.2,185.2L28.6,187.6L30.8,190.1L32.1,191.6L34.2,192.9L32.9,193.9L31.1,193.5L29.7,192.1L28,189.6L26.1,188.2L25.1,186.8L21.4,185L18.5,185L17.5,184.1L15.1,185.1L12.6,183.1L11.3,186.4Z" fill="#2c2c34" stroke="#474751" stroke-width="0.8"/><path d="M400,109.5L398.3,107.9L399.3,103.5L396.7,102.1L395,98.6L399,97.1L400,95.6L400,109.5Z" fill="#2c2c34" stroke="#474751" stroke-width="0.8"/><path d="M71.5,165.5L74.7,172.7L76.1,175.8L73.1,177L72.3,178.9L72.2,180.4L68,182.2L61.3,184.2L57.6,187.3L55.7,187.5L54.5,187.2L52,189L49.4,189.9L45.9,190.1L44.8,190.3L43.9,191.5L42.8,191.8L42.2,192.9L40.1,192.8L38.8,193.3L35.9,193.1L34.8,190.6L34.9,188.3L34.2,187L33.4,183.8L32.2,182L33,181.8L32.6,179.8L33.1,179L32.9,177.1L34.8,175.7L34.3,173.9L35.4,171.7L37.2,172.9L38.3,172.5L43.1,172.4L43.9,172.8L47.9,173.2L49.5,173L50.6,174.5L52.5,173.7L55.5,169.1L59.4,167.2Z" fill="#2c2c34" stroke="#474751" stroke-width="0.8"/><path d="M0,118.8L0.2,117.9L0.2,117.9L4.9,118.7L6.7,117.2L7.7,115.5L10.9,114.8L11.6,113.2L13,112.4L8.8,107.5L17.1,105L17.9,104.3L23,105.6L29.2,109.1L41,118.8L48.8,119.2L52.5,119.6L53.5,121.9L56.5,121.8L58.1,125.9L60.2,126.9L60.9,128.6L63.7,130.6L64,132.5L63.6,134L64.1,135.6L65.3,136.9L65.9,138.4L66.5,139.5L67.8,140.4L68.9,140.1L69.7,141.9L69.9,142.9L71.5,147.6L84,149.8L84.9,148.9L86.8,152.1L84,161L71.5,165.5L59.4,167.2L55.5,169.1L52.5,173.7L50.6,174.5L49.5,173L47.9,173.2L43.9,172.8L43.1,172.4L38.3,172.5L37.2,172.9L35.4,171.7L34.3,173.9L34.8,175.7L32.9,177.1L32.4,175.2L31.1,173.9L30.8,172.2L28.6,170.6L26.4,166.9L25.2,163.3L22.3,160.3L20.5,159.5L17.7,155.3L17.2,152.1L17.4,149.5L15,144.4L13.1,142.6L10.8,141.7L9.4,139.1L9.6,138L8.5,135.6L7.3,134.6L5.6,131.1L3.1,127.3L1,124.1L0,124.1L0,118.8Z" fill="#2c2c34" stroke="#474751" stroke-width="0.8"/><path d="M0,117L0.1,117.2L0,117.4L0,117ZM0,138.8L3.3,143.3L2.5,144.1L2.6,147.1L7.5,151.2L8.2,152.1L8.2,152.1L0,152.1L0,138.8Z" fill="#2c2c34" stroke="#474751" stroke-width="0.8"/><path d="M0,198.2L1.5,195.5L4,193.4L5.7,189.2L6.4,185.4L11.3,186.4L12.6,183.1L15.1,185.1L17.5,184.1L18.5,185L21.4,185L25.1,186.8L26.1,188.2L28,189.6L29.7,192.1L31.1,193.5L29.7,195.4L28.3,197.4L28.6,198.6L28.6,199.9L31,200L32,199.7L32.9,200.4L32,201.9L33.5,204.3L35.1,206.3L36.7,207.8L50.4,212.8L53.9,212.8L53.9,212.8L42.1,225.4L36.6,225.6L32.9,228.6L30.2,228.7L29.1,230L26.2,230L24.5,228.6L20.7,230.3L19.5,232.1L16.7,231.7L15.8,231.3L14.8,231.4L13.5,231.3L8.2,227.8L5.3,227.8L3.8,226.4L3.8,224L1.7,223.3L0,220.3L0,198.2Z" fill="#2c2c34" stroke="#474751" stroke-width="0.8"/><path d="M31.1,193.5L32.9,193.9L34.2,192.9L35.2,194.2L35,196L32.7,197L34.5,198.1L32.9,200.4L32,199.7L31,200L28.6,199.9L28.6,198.6L28.3,197.4L29.7,195.4Z" fill="#2c2c34" stroke="#474751" stroke-width="0.8"/><path d="M58.7,198.4L58.7,198.4L58.7,200.2L58.7,204.5L58.7,206.7L56.8,209.3L53.9,212.8L50.4,212.8L36.7,207.8L35.1,206.3L33.5,204.3L32,201.9L32.9,200.4L34.5,198.1L35.8,198.9L36.6,200.7L38.5,202.5L40.6,202.5L44.5,201.4L49.1,200.9L52.8,199.6L54.8,199.3L56.3,198.5Z" fill="#2c2c34" stroke="#474751" stroke-width="0.8"/><path d="M0,236.9L0.6,238.4L0,239.5L0,236.9Z" fill="#2c2c34" stroke="#474751" stroke-width="0.8"/><path d="M0,220.3L1.7,223.3L0,224.9L0,220.3Z" fill="#2c2c34" stroke="#474751" stroke-width="0.8"/><path d="M139,143.7L139.3,143.5L139.5,143.3L139.9,143.2L140.4,143.1L140.8,143.2L141.4,143.2L141.4,141.8L141.4,141.7L141.5,141.6L141.6,141.6L141.7,141.6L141.8,141.8L141.9,141.8L142.1,141.7L142.5,141.7L142.7,141.7L143,141.8L143.5,141.8L144.4,141.7L144.8,141.7L145.2,142L145.5,142.2L145.9,142.2L146.4,142.2L146.8,142.1L147,141.9L147.1,141.7L147.9,141.4L148.7,141.1L149,141.1L149.1,141.2L149,141.5L149.1,141.7L149.5,141.9L149.7,141.9L149.9,141.9L150.1,141.8L150.4,141.4L150.6,141.3L150.8,141.3L151.1,141.2L151.1,141L150.9,141L150.8,140.8L150.8,140.6L150.7,140.4L150.8,140.2L150.9,140L151.1,139.8L151,139.5L150.7,138.9L150.4,138.1L150,137.5L149.6,136.9L149.4,136.5L149.4,135.5L149.4,135.3L149.3,135.2L149.1,135.1L148.8,135.2L148.6,135.3L148.1,135.2L147.8,135.1L147.1,134.2L147,133.8L147,133.4L147.3,132.8L147.3,132.2L147.3,131.6L147.3,131.4L147.2,131.2L146.9,131.1L146.3,131L145.6,130.8L145,130.5L144.6,130.3L144.5,130.2L144.5,130L144.6,129.3L144.8,128.5L144.9,128.3L145.1,128L145.3,127.9L145.5,127.6L146.3,126.9L146.9,125.8L147.3,125.1L147.5,124.9L147.7,124.7L148,124.5L148.4,124.3L148.7,124.3L149.1,124.5L149.3,124.7L149.4,125.2L149.6,125.5L149.8,125.7L150,125.8L150.4,125.7L151.6,125.2L152.1,125.1L153.1,125L153.9,124.8L154.5,124.6L154.6,124.2L154.8,123.6L155.6,122.8L155.8,122.4L156,121.7L156.3,121.1L156.5,120.8L157.7,120.1L158.8,119.5L159,119.2L159.8,117.9L160.2,117L160.3,116.7L160.6,115.9L160.8,115.2L161.2,115L162,114.7L162.6,114.4L162.9,114.1L163.1,113.8L163.1,113.5L162.9,113.1L163,112.9L163,112.7L163.4,112.3L164.3,111.1L164.8,110.5L165,110.5L165.5,110.2L166.1,109.8L166,109.7L166,109.4L165.7,109.3L165.6,109.1L165.6,108.7L165.9,107.7L165.8,107.4L165.6,106.5L165.6,106.2L165.7,106L166.1,105.6L166.5,105.3L167.9,104.6L168.2,104.6L168.7,104.4L169,104L169,103.7L168.9,103.5L168.6,103.2L168,103L167.5,102.8L166.7,102.8L166.3,102.6L166.2,102.5L166.1,102.1L166.2,101.3L166.1,101.3L165.9,101.4L165.4,101.3L164.9,101.3L164.7,101.1L164.8,100.8L164.8,100.5L164.7,100.2L164.6,100.1L164.3,100L163.9,99.8L163.6,99.4L163.4,99.2L163.4,99L163.4,98.9L163.6,98.6L163.9,98.2L164,97.9L164,97.6L164,97.4L163.7,97.2L163.4,97L163.3,96.8L163.3,96.5L163.4,96.2L163.7,95.9L164.3,95.7L164.5,95.4L164.4,95.2L164.3,95.1L163.9,95.1L163.2,95L163.1,94.9L163,94.7L163,94.6L163.2,94.4L163.3,94.1L163.3,93.9L163.1,93.7L162.6,93.5L162.6,93.2L162.6,93L162.8,92.7L162.9,92.4L163.2,91.8L163.6,91.7L164.1,91.5L164.7,91.2L165.5,91.4L165.9,91.5L166.7,91.7L167.4,91.8L168.1,91.9L168.4,91.9L168.7,92.1L169.5,92.4L170.1,92.6L170.6,92.6L171.2,92.3L171.5,92L171.9,91.7L172.5,91.7L173.7,91.3L173.9,91.4L174.3,91.4L174.7,91.1L174.9,90.8L174.9,90.7L175,90.6L175.5,90.4L175.9,90.1L176.1,89.7L176.2,89.5L176.7,89.2L177.2,88.8L177.7,88.5L178.3,88.1L178.9,87.8L179.3,87.5L179.3,87.5L179.3,87.6L179.5,87.7L179.7,87.7L179.9,87.6L180.2,87.5L180.3,87.6L180.3,87.7L180.2,88.5L180.2,88.8L180.4,89.4L180.8,90.3L181.1,91.2L181.3,91.8L181.5,92L182.3,92.3L182.9,92.5L183.3,92.8L183.7,93.1L184,93.3L184.2,93.6L184.2,93.8L184.2,94L184,94.2L183.3,94.7L183.2,94.8L183.2,95L183.3,95.7L183.4,96.1L183.4,96.9L183.5,97.6L183.7,98L184,98.2L184.1,98.4L184.4,98.7L184.6,98.9L184.8,99L184.9,99.3L184.8,99.6L184.7,99.9L184.8,100L184.9,100.1L185.2,100.4L185.2,100.8L185.2,101.1L185.3,101.3L185.3,101.6L185.2,102.3L185.2,102.6L185.2,102.6L185,102.6L184.8,102.7L184.6,103.2L184.3,103.3L184,103.3L183.6,103L183.4,102.8L183.3,102.6L183.2,102.3L183.1,102.1L182.8,102.2L182.3,102.3L181.9,102.3L181.8,102.4L181.8,102.5L181.9,102.8L182,103.1L182,103.6L182.2,103.9L182.2,104L183,105L183.2,105.2L183.2,105.3L183.1,105.6L183,106L183,106.4L183.3,106.7L183.5,107L183.3,107.3L183.2,107.7L183.3,107.9L183.2,108.4L183.3,108.5L183.4,108.5L183.7,108.5L183.9,108.4L184.1,108.3L184.2,108.4L184.4,108L184.5,107.9L184.8,108L185.3,108.8L185.7,109.5L185.8,109.6L185.9,109.7L186.4,110L186.7,110.2L187.1,110.2L187.6,110.1L188,110.4L188.1,110.5L188.2,110.5L188.2,110.5L188.8,111L189.1,111L189.3,111.2L189.4,111.5L189.3,111.9L189.3,112.1L189.6,112.1L190.2,112.4L190.8,112.6L191,112.7L191.3,112.8L191.6,113.1L192.1,113.4L192.6,113.7L192.7,114L192.5,114L192.3,114L192,114.2L191.9,114.3L191.4,114.9L191.1,115.1L190.8,115.3L190.2,116.1L189.8,116.9L189.6,117.6L189.6,118.1L189.5,118.7L189.2,119L189,119.2L188.8,119.7L188.7,120.3L188.8,120.4L189.1,120.7L189.4,121L189.9,121.2L190.2,121.5L190.5,121.5L190.6,121.4L190.6,121.2L191,121.3L191.3,121.6L191.5,121.8L191.6,121.8L192.2,122.2L192.7,122.4L193.4,122.8L193.5,123L193.7,123.3L194,123.6L194.7,124.1L195.3,124.5L195.8,124.8L196.2,125L196.4,125L196.6,124.9L196.8,124.8L197,124.9L197.3,125L198.1,125.5L198.7,125.9L199.5,125.9L199.7,125.9L199.8,126.3L199.9,126.7L200.7,126.9L201.3,127L201.9,127.2L202.2,127.4L202.6,127.2L202.6,127L202.9,126.9L203.3,127L204.1,127.2L204.5,127.3L204.8,127.1L205.3,126.9L205.6,126.8L206.2,127.1L207.2,127.5L207.8,127.7L207.9,127.9L207.9,128.1L207.9,128.7L208.1,128.9L209.1,129.5L209.5,129.7L209.8,129.7L209.9,129.8L210,129.8L210.1,130.1L210.2,130.2L210.4,130.3L210.6,130.3L211.3,130.1L211.8,129.9L212.1,129.9L212.3,130.1L212.3,130.5L212.5,130.8L212.7,131L213,131L213.6,130.7L214.1,130.9L214.6,131L215.1,131.1L215.3,131.2L215.8,131.5L216.5,131.7L216.8,131.7L217.8,131.2L217.9,131.2L218.1,131.8L218.4,131.9L219,132.1L219.5,131.8L219.9,131.9L220.4,131.9L220.9,131.8L221.3,131.7L221.9,132L222,131.9L222.2,131.8L222.4,131L222.6,130.4L222.6,130L222.4,129.4L221.9,128.7L221.9,128.5L222,127.2L222.2,126.4L222.4,126.1L222.5,125.6L222.6,125.3L222.5,125.1L222.4,125L222.3,124.8L222.4,124.7L222.5,124.6L223.1,124.5L223.7,124.3L224,124.2L224.1,124.1L224.3,124L224.5,124L225.1,124.2L225.3,124.4L225.4,124.8L225.5,125L225.4,125.5L225.1,126.7L225.1,127.1L225.4,127.4L225.6,127.6L225.6,127.7L225.1,128.1L225,128.3L225.1,128.5L225.3,128.6L225.4,128.8L225.5,129.3L225.8,129.4L226.3,129.7L226.7,130L227.5,129.8L227.7,129.9L228.1,130L228.4,130.1L228.6,130.1L228.7,130.2L228.6,130.3L228.7,130.4L229.1,130.4L229.3,130.5L230,130.4L230.8,130.3L231.1,129.8L231.3,129.8L231.7,129.6L232.2,129.8L232.6,130.1L232.9,130.1L233.4,130.2L233.9,130.1L235,130L235.7,130.1L236.3,129.7L236.4,129.7L236.6,130L237.3,130L237.6,129.9L238,129.8L238.2,129.8L238.4,129.8L238.6,129.8L238.9,129.7L238.9,129.5L238.9,129.2L238.8,128.9L238.6,128.7L238.6,128.6L238.7,128.4L238.8,128.1L239,127.7L238.8,127.4L238.6,127L238.4,126.9L238,127L237.6,127L237.2,126.8L236.9,126.5L236.9,126.2L237,125.9L237.1,125.6L237.1,125.5L237.4,125.5L237.9,125.6L238.3,125.7L238.6,125.7L239.1,125.3L239.3,125.3L239.6,125.2L239.7,125.1L239.8,125.2L240.1,125.2L240.4,125.2L240.6,125.1L240.9,125L241.4,124.6L241.5,124.4L241.5,124.3L241.4,124.2L241.3,124.1L241.4,124L241.6,123.7L242.3,123.3L243,122.8L243.3,122.5L243.5,122.1L243.7,121.6L243.9,121.4L244.3,121.3L245.6,121.1L246,120.9L246.6,120.6L246.9,120.3L247.1,120.1L247.1,119.8L247.5,119.8L247.8,119.4L248.2,118.9L249,118.6L249.6,118.1L249.8,118.2L250.1,118.4L250.2,118.7L250.2,118.8L251,118.9L251.2,118.9L251.8,119.1L252.4,119.4L252.7,119.5L252.8,119.5L252.9,119.4L253.1,119.1L253.2,119L253.3,118.9L253.3,118.6L254.1,118.1L254.9,117.8L255.5,117.5L255.7,117.6L255.9,117.8L256.2,118.3L256.3,118.5L256.8,118.4L256.9,118.4L256.8,118.6L256.5,118.9L256.1,119.1L255.9,119.2L256,119.8L255.9,120L256,120.1L256.8,119.5L257.2,119.4L257.3,119.5L257.3,119.8L257.7,120.4L257.8,120.8L257,121.5L256.7,121.9L256.7,122L256.7,122.2L256.5,122.4L256.5,122.4L256.7,122.6L256.9,122.7L257,122.6L257.2,122.5L257.9,122.2L258.1,122.3L258.6,122.7L258.8,122.7L259.5,122.8L259.9,122.6L260.1,122.8L260.8,123.3L260.9,123.4L260.8,123.7L260.8,124L261,124.3L261,124.5L260.9,124.7L260.8,124.8L260.5,124.9L260.2,125.2L259.7,125.5L259.4,125.8L259.1,126.1L259,126.3L259.1,126.7L259.1,127L260,128.3L260,128.6L259.7,128.6L259.4,128.5L259,128.3L258.7,127.7L258.4,127.5L258.1,127.5L256.5,127.8L256.2,127.9L255.6,128.1L255.2,128.5L255,128.9L254.7,129L254.3,129.3L253.1,130.2L252.5,130.6L252,130.8L251.7,131L251.6,131.3L251.4,131.6L251.4,132.2L251.5,132.9L251.6,133.4L251.7,133.4L251.7,133.6L251.6,133.8L251.3,134L251.2,134.2L251.2,134.8L251,135.2L250.6,135.6L250.3,136L249.8,136.3L249.6,136.5L249.4,136.9L249.3,137.3L249.3,137.4L249.4,137.5L249.6,137.6L249.8,137.8L249.9,138L250,138.2L249.8,138.7L249.5,139.5L249.1,140.1L248.7,140.6L248.6,140.8L248.2,141.5L247.9,142.5L247.7,143.1L247.5,143.6L247.3,143.6L247,143.4L246.4,143.3L246,143.1L245.7,143L245.5,143L245.2,143.1L244.9,143.1L244.7,143.1L244.3,142.7L244.2,142.7L244.1,142.9L244.4,144L244.6,144.5L244.5,145.2L244.5,146L244.3,147L244.3,147.2L244.1,147.4L243.9,147.5L243.7,147.4L243.5,147.4L243.5,147.6L243.5,148L243.3,148.4L243.1,148.8L243.2,149.2L243.3,149.6L243.5,150.5L243.5,150.8L243.5,151L243.3,151.2L243.1,151.1L243,151.3L242.9,151.4L242.7,152.1L242.4,152.1L242.2,152L241.9,151.6L241.7,151.5L241.5,151.5L241.5,151.6L241.4,151.9L241.3,152L241,152.2L241,151.9L240.9,150.2L240.8,149.7L240.7,149L240.6,148.8L240.4,148.4L240.3,148L240.2,147.9L240.1,147.2L240,146.5L240,146.1L239.9,145.3L239.7,144.4L239.4,144.5L239.3,144.3L239.2,144.3L238.8,144.5L238.6,144.4L238.3,144.4L238.3,144.8L238.4,145.3L238.3,145.4L237.8,145.9L237.6,146.3L237.6,146.6L237.7,147.1L237.6,147.3L237.4,147.5L237.1,147.6L236.8,147.6L236.6,147.4L236.4,146.9L236.3,146.6L236.1,146.6L236,146.7L236,147L236,147.2L236,147.2L235.9,147.2L235.8,147.1L235.5,145.9L235.2,144.9L235.1,144.5L235.3,144.1L235.4,143.4L235.9,142.9L235.9,142.7L236,142.6L236.1,142.5L236.7,142.6L236.9,142.5L237,142.3L237.3,142.1L237.5,142.1L237.7,142L238,142.2L238.1,142.1L238.2,141.8L238.4,141.5L238.4,141.4L238.6,141.3L238.9,141.3L239,141.2L239.1,141.1L239.1,140.7L239.5,139.8L239.6,139.5L239.6,139.4L239.6,139L239.7,138.9L240.3,139.1L240.5,139.1L240.6,139L240.7,138.9L240.6,138.7L240.2,138.3L239.5,137.9L238.9,137.6L237.7,137.7L236.5,137.8L236.1,137.7L235.7,137.6L234.6,137.6L233.3,137.7L232.9,137.6L232.6,137.6L232.1,137.7L231.3,137.6L230.8,137.4L230.3,137.2L229.7,137.1L229.6,137.1L229.5,137L229.5,136.9L229.4,136.7L229.6,135.8L229.5,134.5L229.5,134L229.1,133L228.9,132.8L228.7,132.8L228.6,132.9L228.5,133.2L228.6,133.4L228.4,133.7L228.1,133.9L227.6,133.7L227.3,133.6L226.9,133.3L226.6,132.8L226.5,132.3L226.4,132L226.2,131.9L226,131.8L225.9,131.9L225.8,132L225.9,132.2L226,132.4L226,132.6L225.9,132.6L225.7,132.6L225.4,132.6L225.1,132.5L224.9,132.5L224.8,132.4L224.8,132.1L224.5,131.8L224.1,131.4L223.7,131.1L223.5,131.1L223.4,131.4L223.4,131.5L223.5,131.6L223.8,131.7L223.8,131.9L223.8,132.1L223.5,132.3L223.3,132.6L222.9,132.9L222.6,133.4L222.5,133.7L222.3,134L222.3,134.3L222.4,134.5L222.5,134.7L223,134.8L223.5,135.2L223.8,135.8L224,135.9L224.4,136.1L225.1,136.1L225.3,136.3L225.4,136.7L225.5,136.9L225.9,137.1L225.9,137.2L225.8,137.4L225.6,137.5L225.3,137.6L225,137.6L224.8,137.6L224.3,137.5L223.8,137.5L223.5,138.6L223.2,139L223.1,138.9L222.7,138.8L222.5,138.8L222.1,139.7L222.1,140L222,140.1L222.3,140.5L222.5,140.8L222.9,140.9L223.1,140.8L223.3,140.9L223.6,141.2L224,141.4L224.6,141.5L225,141.7L225,141.9L225,142.1L224.9,142.7L224.8,143L224.5,143.8L224.3,144.5L224.4,144.8L224.5,145L224.6,145.1L224.8,145.3L225,145.6L224.9,146.2L225,146.4L225.3,146.5L225.7,146.6L225.8,146.7L225.5,147.4L225.6,147.8L225.7,148.3L225.8,149L225.8,149L225.8,149.2L226,149.8L226.3,150.8L226.3,151.2L226.3,151.7L226.2,152.4L225.9,152.4L226.2,152.8L226.3,153.2L226.3,153.6L226,153.7L225.7,153.6L225.5,153.2L225.4,153.6L225,154L224.9,153.8L224.8,153.6L224.8,153.3L225,152.1L225,151.9L224.9,151.8L224.7,151.8L224.6,151.5L224.3,152.8L224.4,153.4L224.4,153.6L223.8,153.8L223.2,153.3L223.1,153.2L223.1,153.4L223,153.8L222.4,153.7L222.2,153.5L222.3,153L222.7,151.9L222.7,151.4L222.3,151.1L221.9,150.9L221.7,150.4L221.8,150.9L222,151.1L222.3,151.3L222.6,151.5L222.4,151.9L222.1,152.1L221.7,152.9L221.2,153.3L220.6,153.6L218.6,154.1L218.2,154.3L217.6,154.9L217.2,155.5L217.1,156.1L217.3,156.7L217.5,157.7L217.6,157.9L217.4,158.3L217.1,158.7L216.8,159.2L216.8,159.5L216.7,159.6L215.7,160.3L215.4,160.6L215.1,161L214.8,160.8L214.6,160.8L214.9,161.1L214.8,161.3L214.7,161.4L214.5,161.5L212.9,162L211.8,162.4L211.5,162.4L211.5,162.2L211.7,162.1L211.7,161.6L211.5,161.5L211.3,161.5L210.4,162.1L210.1,162.7L210.1,162.8L210.3,162.8L210.9,162.5L211.2,162.6L211.2,162.7L210.3,163.2L208.4,164.9L208.3,165.2L208.1,165.6L207.8,166L207.1,166.8L206,168.1L205.7,168.6L203.8,169.6L203.4,169.9L202.7,170.8L201.9,171.6L200.9,172.2L199.3,173.1L198.4,173.8L198.1,174.4L198,174.5L198.1,174.8L198.3,175L198.4,175.2L198.3,175.5L198.2,175.7L197.9,176.2L197.4,176.5L195.9,177.2L195.6,177.2L194.4,177L193.9,177.2L193.7,177.5L193.2,178.8L192.8,179.1L192.6,179.4L192.6,179.7L192.3,179.7L192.1,179.6L191.9,179.6L191.8,179.2L191.4,179.1L191.2,179.1L190.1,179.5L189.7,179.9L188.9,181.6L188.7,182.6L188.9,183.8L189.2,184.8L189.2,185.2L189.2,185.8L189.1,186L189,186.4L189.1,187L189.4,187.9L189.5,188.2L189.5,188.6L189.8,189.5L189.6,189.3L189.5,189L189.1,188.5L188.8,189L189,189.3L189.7,189.7L189.9,190L189.4,192.9L189.1,193.9L188.6,194.6L188.4,194.8L187.9,195.9L187.5,197.2L187.5,197.7L187.6,198.2L187.4,198.5L187.2,198.8L187.7,198.7L187.8,199L187.9,199.3L187.9,201.1L187.8,203L187.5,203.1L187.1,203.1L186.8,203L186.5,203L185.9,203.1L185.6,203.3L185.4,203.6L185.4,204.2L184.3,205.7L184.1,206.2L184,206.7L184.1,206.9L184.4,207.2L184.8,207.3L185.5,207.4L185.8,207.5L186,207.8L185.2,207.5L184.2,207.5L181.9,208.2L181.3,208.6L180.9,209.1L180.7,210L180.7,210.7L180.4,211.2L179.2,212L178.4,212.3L178.1,212.5L177.2,212.2L176.2,211.5L175.8,211.1L174.4,209.3L174.1,209L173.8,208.2L173.7,207.9L173.7,207.8L173.5,207.7L173.5,207.6L173.1,206.7L173,205.7L172.8,204.7L173,204.8L173.2,205.1L173.3,205.6L173.3,206.3L173.5,206.4L173.7,206.3L173.2,204.7L172.8,204.3L172.7,204.3L172.6,204L172.6,203.7L172.6,203.5L172.3,203L172.2,202.7L171.5,201L171.1,199.9L170.6,198.6L170.3,198.1L169.8,197.1L169.4,196.7L168.9,196L168.5,195.7L168.4,195.6L167.4,193.4L167,192.2L166.8,191.7L166.6,191.2L166.3,189.4L166.3,189.1L166.2,188.7L166,187.9L165.5,187.1L165.4,186.5L165.4,186.3L165.1,185.5L165,185.1L164.8,184.8L164.6,184.5L164.3,184.2L163.8,183.4L163.6,183.2L163.2,182.6L162.9,181.6L162.6,181.2L163.1,181.2L162.8,180.9L162.6,180.6L162.5,180.5L162.7,180.1L162.3,180.1L162.1,179.9L161.8,179.2L161.2,178.4L161.1,178L160.6,176.6L160.2,173.4L159.8,172L159.9,171.5L159.4,170.3L159.2,169.4L159.1,168.7L159,168.3L158.9,167.3L158.7,167L158.7,166.9L158.8,166.4L159.1,165.8L159.3,165.4L159.1,164.8L158.8,165.4L158.5,165.6L158.4,165.1L158.4,164.5L158.4,164.3L158.4,164.1L159.2,164.2L158.3,163.9L158.3,163.6L158.2,163.5L158.4,163.2L158.1,162.9L158,162.1L157.9,161.9L157.8,161.8L158,160.7L158.7,158.5L158.8,158L158.7,157.3L158.6,156.8L158.5,156.2L158.4,156L158.2,156L158,155.8L157.7,154.9L157.9,154.6L158.1,154.5L157.8,154.5L157.6,154.5L158.1,154.1L158.4,153.8L159.3,153.4L159.7,153.2L159.1,153.4L158.6,153.5L157.3,153.4L157.5,152.6L157.7,152.4L158,152.2L157.6,152.3L157.2,152.2L157.4,151.4L157.7,151.2L158,151.1L158.4,151L158,150.9L157.5,150.8L157,151L156.4,150.9L155.8,150.9L156.1,151L156.3,151.2L156.2,151.7L156.1,152L155.7,152.1L155.5,152.4L155.4,152.7L155.2,152.9L155.5,153L155.8,153.1L155.9,153.3L156.1,153.6L156.1,154.2L155.4,155.6L155.1,155.9L153.3,156.7L152.5,157.2L151,157.7L150.4,157.8L149.7,157.7L148.7,157.3L147.2,156.1L146.8,155.8L145.6,154.3L144.8,153.5L144.1,152.8L143.3,152.1L142.5,151.2L142.4,150.8L142.4,150.3L142.7,150.1L143.1,150.2L143.3,150.6L143.5,150.7L143.7,150.8L144.8,150.2L145.3,150.3L145.6,150L145.9,150L146.7,149.6L147,149.6L147.4,149.5L148.1,148.4L148.5,147.7L148.8,147.5L148.8,147.4L148.7,147.2L148.5,147.2L148.4,147.4L148.2,147.7L148.1,147.8L147.8,147.7L147.5,147.7L147.2,147.8L146.1,148.2L145.6,148.6L145.3,148.6L143.5,148.2L141.7,147.3L141,146.7L140.5,145.9L140.1,145L140.2,144.7L141,144.1L141.6,143.7L141,143.9L140.4,144.2L140.1,144.3L139.8,144.7L139.3,144.8L139.1,144.2ZM246.5,217.8L246.3,218.1L245.8,217L245.6,217L245.6,216.5L245.7,216.3L246.3,216.1L246.4,216.2L246.7,217.2ZM245.9,215.5L245.5,215.9L245.3,215.7L245.4,215.5L245.6,215.4L245.7,215.3ZM243.4,211.8L243.5,211.9L243.3,211.9L243.1,211.7L243.1,211.4L243.2,211.4ZM244.7,213.3L244.3,213.4L244.3,213.2L244.1,213L244.2,212.8L244.4,212.8L244.6,213.1L244.7,213.3ZM245.1,212.6L244.9,212.7L244.8,212.7L244.8,212.6L244.8,212.5L244.8,212.4L244.7,212.1L244.9,211.9L245,211.9L245,212.2ZM241.9,208L241.7,208.1L241.6,207.9L241.6,207.7L241.7,207.6L241.8,207.6L241.9,207.6L242,207.9ZM240.7,202L240.6,202.2L240.2,202L240.2,201.6L240.1,201.2L240.2,201L240.5,200.7L240.8,200.6L241,201L241,201.4ZM241.5,198.5L241.3,198.6L241.1,198.5L241.3,198.3L241.3,197.9L241.5,198.1L241.5,198.4ZM241.7,197.8L241.6,197.9L241.4,197.8L241.1,197.1L241,196.6L240.9,196.4L241,196.1L241.2,196.1L241.3,195.8L241.3,195.4L241.5,195L241.6,194.9L241.9,194.9L241.9,194.9L241.9,194.6L241.7,194.4L241.7,194.3L241.7,193.5L241.7,193.2L241.8,193L241.7,192.5L241.8,192.3L242,192.1L242.1,191.6L242,191.4L242.2,190.6L242.2,190L242.5,189.5L243,189.2L243.1,189.2L243.1,189.7L243.1,189.8L242.9,190.1L243.1,190.5L243.1,190.6L243,190.9L242.8,191.2L242.6,191.3L242.5,191.7L242.3,191.8L242.7,192.2L242.8,193.5L242.5,193.9L242.3,194L242.3,194.9L242.3,195.1L242,195.5L241.9,195.7L241.8,195.9L241.8,196.1L242,196.2L242,196.4L241.9,196.9L241.8,197.4ZM242.9,195.7L243.1,196.3L242.8,196L242.6,195.8L242.8,195.7ZM241.6,192.2L241.5,192.4L241.5,191.8L241.6,191.8L241.6,191.7L241.7,191.8ZM158.3,199.3L158.3,199.3L158.3,199.2L158.3,199.1L158.4,199L158.4,199L158.4,199.1L158.3,199.2ZM159.5,211.7L159.5,211.7L159.4,211.8L159.4,211.8L159.3,211.7L159.3,211.7L159.4,211.7L159.5,211.7L159.5,211.5L159.6,211.5L159.6,211.5L159.6,211.6Z" fill="#b8e653" stroke="#0c0e06" stroke-width="1"/></svg>
