<svg xmlns="http://www.w3.org/2000/svg" viewBox="0 0 300 300"><path fill="#e8e8ea" d="M23.2,136.8L23.8,136.4L24.2,136.1L25,135.9L26,135.7L26.8,135.8L28,135.8L28.1,132.9L28.2,132.7L28.3,132.5L28.5,132.5L28.7,132.5L28.9,132.9L29.2,132.9L29.6,132.7L30.3,132.8L30.9,132.7L31.5,132.9L32.5,132.9L34.3,132.8L35.3,132.8L35.9,133.3L36.7,133.8L37.4,133.9L38.5,133.8L39.3,133.6L39.7,133.1L40,132.7L41.6,132L43.4,131.5L43.9,131.5L44,131.8L44,132.3L44.2,132.8L44.9,133.1L45.4,133.2L45.8,133.1L46.1,132.9L46.8,132.2L47.2,132L47.7,132L48.2,131.6L48.2,131.3L47.9,131.2L47.6,130.8L47.6,130.5L47.6,130L47.6,129.5L47.8,129.2L48.2,128.9L48,128.2L47.4,126.9L46.8,125.3L46.1,123.9L45.2,122.7L44.8,121.8L44.8,119.9L44.8,119.5L44.5,119.2L44.1,119.1L43.5,119.3L43,119.3L41.9,119.3L41.4,119.1L40,117.1L39.8,116.3L39.8,115.6L40.3,114.2L40.4,112.9L40.5,111.7L40.4,111.3L40.1,110.9L39.6,110.6L38.4,110.6L36.8,110.2L35.7,109.5L34.8,109.1L34.6,108.8L34.5,108.4L34.7,107L35.1,105.3L35.4,104.8L35.8,104.3L36.2,104L36.7,103.5L38.2,101.9L39.6,99.7L40.4,98.2L40.8,97.8L41.3,97.4L41.9,96.9L42.6,96.5L43.4,96.5L44.1,96.9L44.6,97.3L44.8,98.4L45.1,99L45.5,99.4L46,99.6L46.7,99.5L49.4,98.4L50.3,98.2L52.5,98L54.1,97.6L55.4,97.1L55.5,96.3L56.1,95L57.6,93.3L58.1,92.6L58.5,91.1L59,89.9L59.5,89.3L61.9,87.9L64.4,86.6L64.8,86L66.3,83.2L67.2,81.4L67.5,80.8L68,79.1L68.5,77.5L69.3,77.1L70.9,76.5L72.2,75.9L72.9,75.2L73.3,74.6L73.2,74L72.9,73.3L73,72.9L73,72.5L74,71.6L75.8,69.1L76.8,67.9L77.2,67.9L78.3,67.2L79.4,66.4L79.3,66.1L79.2,65.6L78.6,65.4L78.4,64.9L78.5,64.1L79.1,62L78.9,61.4L78.3,59.5L78.5,59L78.7,58.4L79.4,57.7L80.3,57.1L83.2,55.7L83.8,55.5L84.8,55.1L85.4,54.4L85.5,53.7L85.2,53.3L84.6,52.7L83.5,52.2L82.5,51.8L80.8,51.9L79.8,51.5L79.6,51.2L79.5,50.3L79.7,48.8L79.4,48.6L79,48.8L78.1,48.6L77,48.6L76.6,48.2L76.8,47.7L76.7,47L76.5,46.3L76.4,46.2L75.8,46L75,45.5L74.3,44.8L73.9,44.3L73.8,44L73.8,43.8L74.3,43.1L74.9,42.3L75.1,41.5L75.2,41L75,40.6L74.5,40.1L73.9,39.7L73.7,39.3L73.7,38.8L73.9,38.1L74.6,37.5L75.8,37L76.1,36.4L76,35.9L75.7,35.8L74.9,35.8L73.5,35.6L73.2,35.4L73.1,35.1L73.1,34.7L73.4,34.3L73.7,33.8L73.7,33.4L73.2,32.8L72.2,32.4L72.1,31.9L72.3,31.4L72.6,30.7L72.9,30.3L73.6,29L74.4,28.7L75.4,28.2L76.5,27.8L78.2,28.1L79.1,28.3L80.8,28.7L82.2,29L83.6,29.1L84.2,29.1L84.9,29.5L86.5,30.2L87.9,30.6L88.8,30.5L90.1,29.9L90.7,29.4L91.6,28.8L92.8,28.8L95.2,27.9L95.7,28L96.5,28.1L97.3,27.5L97.8,26.9L97.9,26.6L98.1,26.4L99,25.9L100,25.4L100.3,24.6L100.4,24.1L101.4,23.5L102.5,22.8L103.7,22.1L104.9,21.3L106,20.6L106.9,20L107,20L107,20.1L107.4,20.4L107.8,20.5L108.2,20.3L108.8,20.1L109,20.2L109.1,20.5L108.7,22L108.8,22.6L109.3,23.8L110.1,25.9L110.7,27.7L111.1,28.9L111.5,29.5L113.1,30L114.5,30.4L115.3,31.1L116.2,31.7L116.8,32.1L117.1,32.7L117.2,33.1L117.1,33.4L116.8,33.8L115.2,34.9L115,35.3L115,35.7L115.3,37L115.5,37.8L115.5,39.5L115.7,41.1L116.2,41.8L116.7,42.2L116.9,42.7L117.5,43.2L117.9,43.7L118.3,43.9L118.5,44.5L118.4,45.1L118.3,45.7L118.3,46L118.6,46.2L119.1,46.8L119.2,47.7L119.2,48.2L119.3,48.8L119.4,49.3L119.3,50.8L119.3,51.4L119.3,51.4L118.8,51.5L118.5,51.7L117.9,52.6L117.3,52.8L116.7,52.9L116,52.3L115.4,51.8L115.2,51.4L115.1,50.8L114.8,50.4L114.2,50.6L113.2,50.7L112.3,50.8L112.1,51L112.1,51.2L112.3,51.8L112.5,52.5L112.6,53.5L112.9,54.1L113,54.4L114.6,56.3L115,56.7L115.1,57L114.9,57.7L114.7,58.6L114.7,59.2L115.2,60L115.7,60.5L115.2,61.2L115,62L115.3,62.3L115.1,63.5L115.2,63.7L115.6,63.8L116,63.7L116.5,63.4L116.9,63.3L117.1,63.4L117.5,62.6L117.7,62.4L118.3,62.7L119.4,64.3L120.3,65.7L120.6,66L120.8,66.1L121.7,66.8L122.3,67.3L123.1,67.1L124.3,67.1L124.9,67.5L125.3,67.8L125.4,67.9L125.4,67.9L126.8,69L127.4,68.9L127.7,69.2L127.9,70L127.7,70.8L127.7,71.1L128.3,71.2L129.6,71.7L130.8,72.2L131.4,72.3L132,72.7L132.6,73.2L133.6,73.9L134.6,74.5L134.8,75.2L134.5,75.1L134,75.1L133.4,75.5L133.2,75.7L132,76.9L131.4,77.3L130.8,77.9L129.5,79.6L128.8,81.1L128.3,82.6L128.3,83.7L128.1,84.9L127.5,85.6L127.2,85.8L126.8,86.9L126.5,88.1L126.7,88.5L127.4,89.1L128,89.6L128.9,90.1L129.7,90.7L130.2,90.8L130.4,90.5L130.5,90.2L131.2,90.3L131.9,90.9L132.4,91.3L132.6,91.4L133.8,92.1L134.9,92.7L136.2,93.4L136.6,93.9L136.8,94.4L137.5,95L139,96.1L140.3,96.9L141.3,97.6L142.2,98L142.5,98L143,97.7L143.4,97.6L143.8,97.7L144.4,98.1L145.9,99.1L147.4,100L148.9,99.8L149.3,99.9L149.6,100.7L149.8,101.5L151.5,102L152.7,102.2L154,102.6L154.6,102.9L155.3,102.5L155.5,102.2L156,102L156.9,102.1L158.6,102.7L159.3,102.8L159.9,102.3L161,102L161.6,101.7L162.8,102.4L165,103.1L166.1,103.6L166.4,104.1L166.5,104.5L166.5,105.6L166.8,106.1L169,107.3L169.7,107.7L170.3,107.9L170.6,107.9L170.8,108L171,108.7L171.2,108.8L171.6,109L172.1,109.1L173.5,108.5L174.5,108.1L175.1,108.2L175.6,108.7L175.7,109.3L175.9,110L176.4,110.4L177,110.4L178.3,109.9L179.3,110.3L180.3,110.5L181.4,110.7L181.8,110.9L182.9,111.4L184.3,112L184.8,112L187,110.9L187.2,111L187.7,112.1L188.4,112.4L189.4,112.8L190.5,112.2L191.4,112.3L192.4,112.4L193.4,112.1L194.3,112L195.6,112.5L195.8,112.4L196.1,112.1L196.6,110.6L197,109.2L197,108.4L196.6,107.2L195.6,105.7L195.5,105.2L195.8,102.5L196.2,101L196.5,100.2L196.9,99.2L197,98.7L196.9,98.3L196.6,98L196.5,97.7L196.6,97.4L196.8,97.2L198,97L199.3,96.6L199.8,96.4L200.2,96.2L200.6,95.8L201,95.8L202.2,96.3L202.6,96.7L202.8,97.7L203,98L202.8,99L202.1,101.4L202.2,102.3L202.8,103L203.3,103.4L203.3,103.6L202.2,104.4L202,104.8L202.2,105.2L202.7,105.6L202.9,105.9L203.1,106.9L203.6,107.2L204.7,107.9L205.6,108.3L207.2,108L207.6,108.2L208.4,108.5L209,108.5L209.4,108.7L209.6,108.8L209.6,109.1L209.6,109.3L210.5,109.3L211,109.4L212.5,109.2L214,108.9L214.8,108L215.1,108L216,107.6L216.9,108L217.9,108.5L218.4,108.7L219.4,108.8L220.4,108.7L222.8,108.5L224.2,108.6L225.4,107.8L225.7,107.8L226.2,108.4L227.5,108.5L228.2,108.2L229,108L229.5,107.9L229.9,107.9L230.4,108L230.8,107.7L231,107.4L231,106.8L230.6,106.1L230.4,105.8L230.3,105.6L230.4,105.1L230.6,104.4L231.1,103.7L230.8,103L230.3,102.1L229.9,102L229.1,102.3L228.1,102.2L227.4,101.7L226.8,101.1L226.7,100.6L226.9,99.9L227.1,99.3L227.2,99.1L227.9,99.1L228.9,99.2L229.6,99.4L230.2,99.4L231.3,98.6L231.8,98.6L232.3,98.4L232.5,98.3L232.7,98.4L233.4,98.5L234,98.5L234.5,98.3L235.1,97.9L236.1,97.2L236.4,96.8L236.4,96.5L236.2,96.3L236,96.1L236.1,95.8L236.5,95.3L238.1,94.5L239.4,93.5L240.1,92.8L240.4,91.9L240.9,90.9L241.3,90.5L242.2,90.3L244.8,89.9L245.7,89.5L246.9,88.8L247.5,88.2L247.9,87.8L247.9,87.3L248.7,87.1L249.4,86.3L250.3,85.4L251.8,84.7L253.2,83.7L253.6,83.9L254.1,84.3L254.4,84.8L254.5,85.1L256.2,85.4L256.5,85.4L257.7,85.8L258.9,86.4L259.5,86.5L259.8,86.5L260.1,86.3L260.4,85.8L260.7,85.5L261,85.3L260.9,84.8L262.6,83.7L264.2,82.9L265.5,82.4L265.8,82.6L266.3,83.1L266.8,84.1L267.2,84.4L268.1,84.2L268.3,84.4L268.1,84.7L267.5,85.2L266.7,85.7L266.2,86L266.4,87.2L266.3,87.6L266.6,87.7L268.2,86.6L268.9,86.3L269.2,86.6L269.3,87.3L269.9,88.5L270.2,89.2L268.6,90.7L268,91.6L268,91.8L268,92.1L267.6,92.5L267.6,92.7L267.9,92.9L268.3,93.1L268.5,93.1L268.9,92.7L270.4,92.2L270.8,92.3L271.9,93.1L272.4,93.2L273.7,93.4L274.5,93.1L275.1,93.4L276.4,94.4L276.6,94.6L276.5,95.2L276.5,95.9L276.8,96.4L276.8,96.9L276.8,97.3L276.5,97.7L275.8,97.8L275.2,98.3L274.3,99.1L273.5,99.7L273,100.2L272.8,100.8L272.8,101.5L273,102.2L274.7,104.9L274.7,105.4L274.2,105.5L273.4,105.2L272.8,104.8L272.1,103.6L271.5,103.3L270.9,103.2L267.5,103.8L266.8,104L265.7,104.4L264.9,105.3L264.3,106.1L263.7,106.4L262.9,107L260.5,108.9L259.1,109.7L258.2,110L257.6,110.5L257.2,111.2L257,111.7L256.9,112.9L257.1,114.4L257.4,115.4L257.6,115.6L257.6,115.9L257.3,116.4L256.8,116.8L256.6,117.1L256.4,118.5L256,119.1L255.3,120.1L254.6,120.9L253.6,121.5L253.2,121.9L252.8,122.8L252.6,123.5L252.6,123.8L252.7,124L253.1,124.3L253.6,124.6L253.9,124.9L253.9,125.4L253.5,126.5L252.9,128.1L252,129.4L251.2,130.5L251,130.9L250.3,132.4L249.7,134.4L249.3,135.7L248.9,136.6L248.4,136.7L247.8,136.4L246.5,136L245.7,135.7L245,135.4L244.6,135.4L244,135.6L243.4,135.7L243,135.6L242.2,134.7L241.9,134.8L241.7,135.2L242.3,137.6L242.7,138.5L242.6,139.9L242.5,141.7L242.2,143.7L242.1,144.1L241.7,144.6L241.3,144.8L240.8,144.6L240.5,144.6L240.4,144.9L240.5,145.8L240.1,146.7L239.7,147.6L239.8,148.4L240,149.2L240.5,150.9L240.5,151.6L240.4,152.2L240.1,152.4L239.7,152.4L239.5,152.6L239.3,153L238.8,154.3L238.3,154.4L237.8,154.2L237.1,153.3L236.6,153.1L236.4,153.1L236.2,153.3L236.1,153.9L235.9,154.2L235.4,154.5L235.3,153.9L235,150.5L234.8,149.4L234.6,147.9L234.4,147.4L234.1,146.6L233.8,145.9L233.5,145.6L233.4,144.3L233.3,142.6L233.3,141.9L232.9,140.3L232.5,138.4L232,138.5L231.7,138.1L231.5,138.1L230.8,138.5L230.2,138.4L229.8,138.4L229.8,139.3L229.9,140.1L229.7,140.5L228.5,141.5L228.3,142.2L228.3,142.9L228.4,143.9L228.2,144.4L227.7,144.9L227.1,145.1L226.5,145L226.1,144.6L225.8,143.6L225.5,143L225.2,142.9L224.9,143L224.9,143.7L224.9,144.2L224.8,144.3L224.6,144.2L224.4,143.9L223.9,141.4L223.1,139.4L223.1,138.7L223.3,137.7L223.7,136.2L224.6,135.3L224.7,134.9L224.9,134.6L225.1,134.5L226.3,134.6L226.7,134.4L227,134L227.5,133.6L228,133.5L228.4,133.4L229,133.8L229.3,133.6L229.5,132.9L229.8,132.3L229.9,132L230.4,131.9L230.9,131.9L231.1,131.8L231.3,131.5L231.4,130.7L232.1,128.9L232.4,128.1L232.4,127.9L232.4,127L232.6,126.9L233.7,127.3L234.2,127.3L234.5,127.1L234.6,126.8L234.5,126.4L233.6,125.7L232.2,124.8L230.8,124.3L228.3,124.3L225.8,124.5L225.1,124.4L224.2,124.2L222,124.2L219.3,124.4L218.3,124.3L217.8,124.3L216.8,124.4L215.2,124.1L214,123.8L213,123.4L211.8,123.1L211.5,123.1L211.4,123L211.3,122.7L211.2,122.3L211.5,120.5L211.3,117.8L211.5,116.8L210.5,114.6L210.1,114.2L209.7,114.2L209.4,114.4L209.3,115L209.4,115.6L209.1,116.2L208.4,116.4L207.5,116.2L206.8,115.9L205.9,115.2L205.3,114.3L205.2,113.3L204.9,112.6L204.5,112.3L204.2,112.2L203.9,112.3L203.6,112.6L203.8,113L204.1,113.5L204,113.8L203.8,113.9L203.4,113.7L202.8,113.8L202.2,113.5L201.9,113.5L201.5,113.4L201.5,112.8L201,112.1L200.1,111.2L199.2,110.7L198.8,110.8L198.6,111.4L198.7,111.6L199,111.7L199.4,112L199.5,112.4L199.4,112.7L198.9,113.2L198.5,113.8L197.6,114.5L196.9,115.4L196.7,116.1L196.5,116.7L196.3,117.3L196.5,117.8L196.9,118.1L197.8,118.3L198.8,119.2L199.5,120.4L200,120.7L200.8,121.1L202.3,121.2L202.5,121.5L202.8,122.4L203,122.7L203.8,123.1L203.9,123.4L203.7,123.7L203.3,124L202.7,124.2L202.1,124.3L201.5,124.2L200.6,124.1L199.6,124.1L198.8,126.3L198.3,127L198,127L197.2,126.6L196.9,126.7L196,128.6L195.9,129.1L195.8,129.5L196.3,130.2L196.9,130.8L197.6,131L198.1,130.9L198.5,131.1L199.1,131.7L199.9,132.1L201.2,132.3L201.9,132.8L202,133.2L201.9,133.7L201.8,134.8L201.7,135.4L201,137.1L200.5,138.5L200.8,139.2L201,139.5L201.1,139.7L201.7,140.3L202,140.8L201.7,142.2L201.9,142.5L202.6,142.7L203.4,142.9L203.7,143.2L203,144.5L203.2,145.5L203.4,146.4L203.6,147.9L203.7,148L203.6,148.4L204.1,149.5L204.7,151.7L204.8,152.6L204.8,153.5L204.5,154.9L203.8,154.9L204.5,155.9L204.7,156.6L204.8,157.6L204,157.7L203.5,157.6L203.1,156.7L202.8,157.5L202.1,158.2L201.8,157.9L201.7,157.5L201.6,156.8L202,154.3L202,154L201.7,153.8L201.3,153.7L201.2,153.2L200.5,155.9L200.8,157L200.7,157.5L199.5,157.9L198.3,156.9L198.1,156.6L198,157.2L197.8,157.9L196.7,157.7L196.1,157.2L196.5,156.3L197.2,154L197.3,153L196.4,152.3L195.6,151.8L195.1,150.8L195.3,151.9L195.7,152.3L196.3,152.6L197,153.2L196.5,153.9L196.1,154.3L195.1,156L194.1,156.9L192.8,157.6L188.7,158.6L187.8,159L186.5,160.3L185.7,161.5L185.5,162.7L186,164L186.4,166L186.7,166.5L186.3,167.2L185.5,168L184.8,169.1L184.9,169.7L184.8,170L182.6,171.4L182.1,172.1L181.5,172.9L180.8,172.5L180.3,172.5L180.9,173.1L180.8,173.5L180.7,173.7L180.1,173.9L176.9,174.9L174.5,175.8L173.8,175.7L174,175.5L174.4,175.2L174.4,174.2L173.9,174L173.5,173.9L171.7,175.2L171,176.5L171.1,176.7L171.5,176.6L172.7,175.9L173.3,176.1L173.4,176.4L171.5,177.5L167.5,181L167.4,181.7L166.8,182.5L166.1,183.2L164.9,185L162.4,187.7L161.8,188.7L157.8,190.7L157.1,191.3L155.5,193.3L153.9,194.9L151.9,196.3L148.6,198L146.6,199.6L145.9,200.7L145.9,201L146.1,201.6L146.5,202L146.6,202.4L146.4,203.1L146.3,203.5L145.7,204.4L144.7,205.1L141.4,206.5L140.9,206.5L138.2,206.2L137.2,206.5L136.8,207.1L135.9,209.9L135,210.6L134.7,211.3L134.6,211.7L134,211.7L133.6,211.5L133.2,211.6L132.9,210.7L132.2,210.5L131.7,210.5L129.4,211.4L128.6,212.1L127,215.6L126.5,217.9L126.9,220.4L127.5,222.3L127.6,223.2L127.5,224.4L127.2,225L127,225.6L127.3,227L128,228.8L128.2,229.5L128.2,230.3L128.7,232.1L128.4,231.8L128.1,231.1L127.4,230.1L126.6,231.1L127,231.7L128.6,232.6L129,233.2L128,239.2L127.3,241.4L126.4,242.7L125.9,243.3L124.8,245.5L124.1,248.1L123.9,249.1L124.3,250.3L123.9,250.9L123.4,251.5L124.3,251.2L124.6,251.9L124.7,252.5L124.8,256.3L124.7,260.2L123.9,260.4L123.2,260.4L122.5,260.3L122,260.2L120.8,260.4L120.1,260.8L119.6,261.5L119.6,262.8L117.3,265.9L116.8,266.9L116.7,267.9L117,268.4L117.5,269L118.3,269.2L119.8,269.4L120.5,269.7L120.9,270.2L119.2,269.6L117.2,269.5L112.3,271L111.1,272L110.3,272.9L109.9,274.9L109.8,276.2L109.2,277.3L106.7,279L105.1,279.5L104.5,280L102.6,279.4L100.5,277.9L99.7,277.1L96.7,273.2L96.1,272.8L95.5,271.1L95.4,270.5L95.2,270.2L94.9,270.1L94.8,269.8L94.1,267.9L93.8,265.9L93.4,263.7L93.7,263.9L94.3,264.6L94.5,265.7L94.6,267.1L94.9,267.3L95.3,267.2L94.3,263.8L93.4,262.9L93.2,262.9L93,262.3L93,261.6L93,261.3L92.4,260.2L92.1,259.5L90.6,256.1L89.9,253.7L88.9,251L88.2,250.1L87.1,248L86.3,247L85.3,245.7L84.6,245.2L84.3,244.9L82.1,240.4L81.4,237.8L80.9,236.7L80.6,235.8L79.8,231.9L79.8,231.3L79.7,230.5L79.2,228.9L78.2,227.1L77.9,226L78,225.6L77.3,223.9L77.2,223.1L76.8,222.4L76.3,221.7L75.8,221.2L74.7,219.4L74.2,219L73.5,217.9L72.9,215.8L72.2,215L73.3,215L72.6,214.2L72.3,213.7L71.9,213.4L72.4,212.6L71.6,212.6L71.1,212.1L70.5,210.7L69.3,209L69.1,208.1L68.1,205.4L67.3,198.6L66.5,195.7L66.5,194.8L65.6,192.2L65.1,190.4L65,189L64.7,188L64.5,186.1L64.1,185.4L64.1,185.1L64.3,184.2L65,182.8L65.3,182L65,180.8L64.3,182L63.8,182.4L63.5,181.4L63.5,180.2L63.4,179.8L63.6,179.4L65.1,179.6L63.4,178.8L63.2,178.4L63.1,178L63.5,177.4L62.8,176.9L62.6,175.2L62.4,174.8L62.3,174.5L62.7,172.2L64.2,167.7L64.3,166.7L64.1,165.3L63.8,164.1L63.7,162.9L63.6,162.6L63,162.5L62.5,162L61.9,160.2L62.5,159.6L62.9,159.3L62.3,159.4L61.9,159.4L62.8,158.5L63.5,157.9L65.4,157.1L66.2,156.7L65,157.1L63.8,157.3L61.2,157.2L61.7,155.5L62.1,154.9L62.6,154.6L61.9,154.7L61,154.5L61.3,152.8L62,152.5L62.7,152.4L63.5,152.1L62.6,151.9L61.6,151.7L60.5,152L59.4,151.8L58.1,151.8L58.6,152L59.2,152.6L58.9,153.5L58.6,154.1L57.9,154.5L57.3,155.1L57.2,155.6L56.8,156L57.4,156.3L58,156.4L58.3,156.9L58.8,157.5L58.7,158.7L57.2,161.6L56.7,162.2L52.8,164L51.3,164.9L48,166.1L46.8,166.3L45.4,166.1L43.3,165.2L40.2,162.8L39.4,162L36.9,158.9L35.2,157.3L33.8,155.8L32.1,154.4L30.5,152.5L30.2,151.6L30.3,150.7L30.9,150.2L31.6,150.4L32.1,151.2L32.5,151.5L32.8,151.6L35.2,150.5L36.1,150.5L36.8,150L37.5,150.1L39.2,149.2L39.9,149.1L40.7,149L42,146.7L43,145.2L43.6,144.9L43.5,144.5L43.4,144.1L42.9,144.2L42.6,144.6L42.3,145.2L42.1,145.5L41.3,145.2L40.8,145.2L40.2,145.4L37.8,146.3L36.8,147L36.2,147.2L32.5,146.4L28.8,144.4L27.3,143.1L26.3,141.5L25.4,139.5L25.7,139L27.2,137.8L28.5,136.8L27.3,137.3L26.1,137.8L25.4,138.2L24.7,139.1L23.8,139.3L23.4,138Z"/></svg>
