<svg xmlns="http://www.w3.org/2000/svg" viewBox="0 0 400 300"><path d="M354.5,0L354.7,23.5L348.2,24.3L339.4,11.1L330.9,6.4L316.7,9.9L311.1,15.5L310.4,11.4L313.5,4.4L311.7,0L354.5,0Z" fill="#2c2c34" stroke="#474751" stroke-width="0.8"/><path d="M400,5.4L389.8,0L400,0ZM387.1,0L377.5,9L366.8,14.8L368.8,23.3L354.7,23.5L354.7,23.5L354.5,0L387.1,0Z" fill="#2c2c34" stroke="#474751" stroke-width="0.8"/><path d="M251.6,0L261.9,15.1L254.4,21.9L252.2,26.1L246.7,25L238,14.8L234.5,14.2L226.6,10.3L222.8,3.3L211.8,0L251.6,0ZM210.4,0L203.4,2.5L201.7,0L210.4,0Z" fill="#2c2c34" stroke="#474751" stroke-width="0.8"/><path d="M100.3,159.1L98,163.8L93.5,161.7L90.9,171.6L94,173.3L90.8,175.3L90.3,179.2L96.2,177.2L96.5,182.9L90.2,206.2L89,202.4L82,181.2L85.6,176.3L84.7,175.5L88.1,168.6L90.6,157.3L92.4,153.5L92.8,153.4L97,153.4L98.1,150.8L101.5,150.6L101.7,156.7L100,159Z" fill="#2c2c34" stroke="#474751" stroke-width="0.8"/><path d="M101.5,150.6L98.1,150.8L97,153.4L92.8,153.4L97.3,141.1L103.5,130.4L103.7,129.9L109.4,130.7L111.4,136.6L104.6,142.3Z" fill="#2c2c34" stroke="#474751" stroke-width="0.8"/><path d="M96.2,177.2L90.3,179.2L90.8,175.3L94,173.3L90.9,171.6L93.5,161.7L98,163.8L98,172.9Z" fill="#2c2c34" stroke="#474751" stroke-width="0.8"/><path d="M98,163.8L100.3,159.1L114.2,165L138.8,149L143.9,167.3L141.5,169.5L116.4,176.9L128.9,191.6L124.7,194.1L122.6,198.9L113.1,200.9L110.1,206.1L104.6,210.6L90.6,208.3L90.2,206.2L96.5,182.9L96.2,177.2L98,172.9Z" fill="#2c2c34" stroke="#474751" stroke-width="0.8"/><path d="M319.4,300L304.8,297.3L300,283.4L299.5,280.3L299.5,280.3L301.7,279.6L302.2,283.4L312.1,281.2L322.5,281.6L330.1,282L338.7,272.6L348,263.7L356,255.1L358.3,259.9L360.1,270.9L353.6,270.9L352.6,279.9L354.8,281.8L349.1,284.6L349.1,290.2L345.4,295.8L345.2,300L319.4,300Z" fill="#2c2c34" stroke="#474751" stroke-width="0.8"/><path d="M289.8,273.2L289,263.1L292.4,255.8L295.9,254.3L299.7,258.7L299.9,266.8L297.1,275L293.6,276Z" fill="#2c2c34" stroke="#474751" stroke-width="0.8"/><path d="M254.2,199.3L256.9,205.7L255.7,209L259.8,219.8L250.9,220.2L247.8,213.4L236.6,212L245.8,198.1Z" fill="#2c2c34" stroke="#474751" stroke-width="0.8"/><path d="M345.2,300L345.4,295.8L349.1,290.2L349.1,284.6L354.8,281.8L352.6,279.9L353.6,270.9L360.1,270.9L365.7,280.3L372.7,285.3L381.9,287.1L389.4,289.6L395,297.5L396.9,300L345.2,300ZM358.3,259.9L356,255.1L359.6,250.4L361.2,251.6L360,257.4Z" fill="#2c2c34" stroke="#474751" stroke-width="0.8"/><path d="M389.8,0L400,5.4L400,91L400,91L395.7,86.8L385.7,85.1L371.8,77.1L362.9,75.6L357.3,78.5L348.9,78.1L340,87.2L329,90.2L326.6,79L328.4,62.2L318.7,56.8L321.9,45.6L313.5,44.6L316.3,30.7L328.2,34.8L339.2,29.5L330.1,19.4L326.4,9.8L316.3,14.1L315,26.4L311.1,15.5L311.1,15.5L316.7,9.9L330.9,6.4L339.4,11.1L348.2,24.3L354.7,23.5L368.8,23.3L366.8,14.8L377.5,9L387.1,0L389.8,0Z" fill="#2c2c34" stroke="#474751" stroke-width="0.8"/><path d="M400,264.4L386.8,261.3L372.6,259.6L367.3,242.3L361.3,239.8L351.6,242.4L338.9,249.2L323.6,244.5L310.9,233.7L298.8,229.6L290.4,216.1L281.1,196.8L274.4,199.2L266.4,194.4L261.7,200L261.7,200L254.7,192.4L254.6,184.6L250.6,184.6L252.7,174L246.2,162.7L230.8,154.5L222.1,140.2L225,128.3L231.3,123L230.4,114L222.1,109.3L214,90.7L207.1,78L209.6,73L205.7,54.5L214.3,49.9L216.2,56L222.6,63.5L231.2,65.6L235.8,65.2L250.6,53.2L255.3,52L259,56.8L254.7,64.8L262.5,73.2L265.6,72.4L269.6,84.2L281.5,87.5L290.3,95.4L308.1,98.1L327.8,93.9L329,90.2L340,87.2L348.9,78.1L357.3,78.5L362.9,75.6L371.8,77.1L385.7,85.1L395.7,86.8L400,91L400,264.4Z" fill="#2c2c34" stroke="#474751" stroke-width="0.8"/><path d="M100.3,159.1L100,159L101.7,156.7L101.5,150.6L104.6,142.3L111.4,136.6L109.4,130.7L103.7,129.9L102.6,118.1L105.6,111.8L109,108.4L112.4,104.9L113.1,96.2L117.2,99.3L131,94.9L137.7,97.9L148,97.8L162.5,91.9L169.2,92.2L183.5,89.7L177.1,99.6L170.2,103.4L171.4,114.7L166.7,133.3L138.8,149L114.2,165Z" fill="#2c2c34" stroke="#474751" stroke-width="0.8"/><path d="M235.8,65.2L231.2,65.6L226.1,56.3L226.1,53.8L220.6,53.8L216.9,49.4L214.3,49.9L209.3,45.1L200,41L201.2,33L199.1,27.1L216.5,24.5L219.1,28.9L223.9,31.8L221.4,35.9L228,41.6L224.5,46.8L229.9,51.3L235.5,53.9Z" fill="#2c2c34" stroke="#474751" stroke-width="0.8"/><path d="M0,4.1L3.2,11.7L0,11.1L0,4.1Z" fill="#2c2c34" stroke="#474751" stroke-width="0.8"/><path d="M0,38.1L13.5,37.6L18.8,25L42.8,27.2L57.9,16.3L72.5,11.6L93.3,11.2L115.2,23.1L133.3,29.5L147.9,26.9L158.7,28.4L173.5,19.7L186.9,18.9L199.1,27.1L201.2,33L200,41L209.3,45.1L214.3,49.9L205.7,54.5L209.6,73L207.1,78L214,90.7L214,90.7L208,93.3L203.6,89.3L188.9,87.3L183.5,89.7L169.2,92.2L162.5,91.9L148,97.8L137.7,97.9L131,94.9L117.2,99.3L113.1,96.2L112.4,104.9L109,108.4L105.6,111.8L101,104.7L105.8,98.8L98.1,100.2L87.6,96.6L78.9,105.6L59.9,107.3L49.7,98.9L36.1,98.4L33.3,104.9L24.6,106.7L12.4,98.4L0,98.7L0,38.1ZM0,11.1L3.2,11.7L4.7,18.2L15.7,23.6L13.3,27.7L0,28.6L0,11.1Z" fill="#2c2c34" stroke="#474751" stroke-width="0.8"/><path d="M234.5,14.2L238,14.8L246.7,25L252.2,26.1L254.4,21.9L261.9,15.1L268.5,23.9L274.9,35.7L280.8,36.5L284.6,41L274.3,42.3L272.1,55L269.9,60.7L265.3,64.4L265.6,72.4L262.5,73.2L254.7,64.8L259,56.8L255.3,52L250.6,53.2L235.8,65.2L235.5,53.9L229.9,51.3L224.5,46.8L228,41.6L221.4,35.9L223.9,31.8L219.1,28.9L216.5,24.5L219.6,21.8L229,26.6L235.7,27.6L237.4,25.6L231.3,16.6ZM231.2,65.6L222.6,63.5L216.2,56L214.3,49.9L216.9,49.4L220.6,53.8L226.1,53.8L226.1,56.3Z" fill="#2c2c34" stroke="#474751" stroke-width="0.8"/><path d="M201.7,0L203.4,2.5L210.4,0L211.8,0L211.8,0L222.8,3.3L226.6,10.3L234.5,14.2L231.3,16.6L237.4,25.6L235.7,27.6L229,26.6L219.6,21.8L216.5,24.5L199.1,27.1L186.9,18.9L173.5,19.7L175.4,12.5L172.3,0.9L171.2,0L201.7,0Z" fill="#2c2c34" stroke="#474751" stroke-width="0.8"/><path d="M140.8,300L135.1,287.9L129.2,282.6L122.4,279.7L118.3,271.8L118.9,268.7L115.5,261.5L111.8,258.4L106.9,247.9L99.2,236.6L92.8,226.8L86.5,226.9L88.5,219L89.1,214L90.6,208.3L90.6,208.3L104.6,210.6L110.1,206.1L113.1,200.9L122.6,198.9L124.7,194.1L128.9,191.6L116.4,176.9L141.5,169.5L143.9,167.3L159.1,171.3L177.7,181.6L213.2,210.8L236.6,212L247.8,213.4L250.9,220.2L259.8,219.8L264.7,232.1L270.9,235.4L273,240.3L281.6,246.3L282.3,252L281.1,256.7L282.7,261.4L286.3,265.3L288,269.8L289.8,273.2L293.6,276L297.1,275L299.5,280.3L300,283.4L304.8,297.3L319.4,300L140.8,300Z" fill="#2c2c34" stroke="#474751" stroke-width="0.8"/><path d="M62.7,122.3L63.6,122.2L65.4,118.5L74.4,118.7L85.9,114.1L77.4,120.6L78.3,123.5L77,123L74.6,124.2L72.7,123.8L72,124.4L71.8,122.9L70.9,121.9L68.4,121.8L65.1,123.1Z" fill="#2c2c34" stroke="#474751" stroke-width="0.8"/><path d="M62.7,122.3L65.1,123.1L68.4,121.8L70.9,121.9L71.8,122.9L72,124.4L72.7,123.8L74.6,124.2L77,123L78.3,123.5L78.7,124.8L65.8,131L59.6,129L56.7,122.9Z" fill="#2c2c34" stroke="#474751" stroke-width="0.8"/><path d="M0,180.9L8.9,184L14.7,186.3L24.4,181.6L29.5,177.4L40.6,176.2L49.6,178.1L53,185.4L55.9,180.6L66,184L75.8,184.9L82,181.2L89,202.4L90.2,206.2L86.7,212L84,222.8L80.6,230.2L77.6,232.7L73.4,228.1L67.8,221.8L58.8,201.1L57.5,202.4L62.7,217.6L70.4,232L79.9,253.9L84.6,261.5L88.6,269.4L99.9,284.7L97.4,287.1L97.8,296L102.7,300L0,300Z" fill="#2c2c34" stroke="#474751" stroke-width="0.8"/><path d="M183.7,91.6L184.9,91.3L187.2,89.4L188.5,87.7L188.9,87.5L190,88.1L190.9,88.2L192.9,87.6L194,87.9L195,88.4L195.6,88.4L198.2,89.5L198.9,89.6L200.2,89.8L202.2,89.8L203.5,89.1L204.4,88.4L205.1,88.4L205.7,88.6L206.2,88.9L206.7,89.4L206.9,90.2L206.8,92.5L207,93.2L207.4,93.6L207.8,93.7L208.4,93.2L209.3,92.4L210.5,91.6L211.4,90.9L211.9,90.6L212.7,90.6L213.5,90.8L213.9,91.1L213.9,91.2L214.3,92.3L215.3,96.5L215.9,97L216.6,97.5L217.1,98.1L217.3,98.7L217.2,99.7L217.2,100.8L217.5,101.6L217.9,102.3L218.3,102.6L218.8,102.6L219.5,102.8L219.9,103.5L221.3,108.2L221.4,108.7L222,108.9L222.9,108.9L223.9,109.3L225,110.1L225.9,111.5L226.6,111.8L228.7,111.6L231.5,111.8L232.8,112.5L232.7,112.9L231.7,113.5L229.9,114.1L229.4,115.1L229,116.4L229.1,117.1L229.5,117.9L230.8,119.5L230.9,120.1L231.1,120.9L231.4,121.4L231.1,122.5L229.9,123.2L228.4,124L225.4,127.5L225.2,128.3L225.2,130.4L224.8,131L223.9,130.9L223.1,130.8L223.1,131.6L222.6,132.5L222.3,133.4L223.5,135.4L223.7,136.4L223.5,137.4L222.4,139L221.9,140.1L222,140.4L222.8,140.8L225.3,144.4L226.1,145.7L227.2,145.3L227.6,145.4L227.9,145.6L228.1,146L228.1,146.5L227.8,147.4L229.2,147.7L229.7,148.5L231.3,151.3L231.2,152.1L230.4,153.4L230.4,154.3L230.6,155.1L230.8,155.4L233.2,155.5L234.2,155.8L236.6,157.2L239.3,159.4L241.6,161.2L243.5,162.7L245.6,162.6L246.1,162.9L246.6,163.3L247.2,164.6L248.4,167.4L249.4,168.4L250.9,170.6L252.4,172.7L251.4,175.5L250.5,178.5L250.5,182.3L250.5,184.4L252.5,184.4L254.7,184.5L254.7,187L254.7,189.4L254.7,192.2L255.4,192.3L256.4,192.9L256.8,193.8L257.4,194.3L258,194.4L258.7,194.8L259.4,195.6L259.6,196.2L259.4,196.6L259.5,197.4L260,198.4L260.6,198.9L261.4,199.5L260.3,199.9L259,199.6L256.3,198.4L255.5,198.3L254.3,198.8L254.3,199.2L251.4,197.9L250.4,197.6L250.1,197.6L248.5,197.6L246.1,197.8L244.8,198.4L243.8,199L243.4,199.5L243.2,199.8L242.5,201.5L241.7,203.7L240.8,205.7L239.1,208.4L238.1,209.7L236.1,212L233.9,212.5L228.8,212L223.1,211.5L217.5,211L213.3,210.6L212.9,210.5L208.8,207.2L205.5,204.5L201.4,201.2L197.2,197.8L193,194.3L189.9,191.8L186.2,188.5L182.8,185.5L180.1,183.2L176.6,181.1L173.9,179.5L170,177.2L166.9,175.3L164.2,173.7L160.1,171.2L158.7,170.5L154.4,169.7L150.3,169L146.1,168.3L143.3,167.8L145.1,166L144.5,164.4L143.2,164.7L142,165.1L141.2,162.6L142.2,162.3L141.3,159.1L140.4,155.7L139.5,152.5L138.6,149.2L142.1,147L144.8,145.4L148.6,143.2L152.1,141L155.5,139L159.3,136.7L162.7,134.6L165.8,133.8L166.4,133.2L167.8,130.4L169,128L169.1,127.4L169.1,124L169.3,120L169.7,117.9L170.4,116L171,114.6L171.1,113.3L171,112L170.4,109.9L169.6,107.9L169.7,105.8L169.9,104.8L170.3,103L171,101.8L171.8,101L174.8,100.2L176.5,99.7L178.8,97.4L180.2,96.1L182.1,94L183.5,92.4L183.7,91.9Z" fill="#b8e653" stroke="#0c0e06" stroke-width="1"/></svg>
