<svg xmlns="http://www.w3.org/2000/svg" viewBox="0 0 300 300"><path fill="#e8e8ea" d="M116,28.6L118.6,28L123.3,24L126,20.3L126.9,20L129.3,21.2L131.1,21.5L135.2,20.1L137.6,20.9L139.7,21.8L140.8,21.9L146.2,24.2L147.6,24.4L150.5,24.7L154.6,24.8L157.3,23.4L159.2,21.9L160.6,21.9L161.9,22.3L163,22.9L163.9,24L164.3,25.5L164.2,30.5L164.6,31.8L165.3,32.8L166.3,32.9L167.4,31.8L169.4,30.3L171.8,28.5L173.7,27L174.7,26.4L176.4,26.5L178,26.8L178.9,27.5L178.9,27.8L179.7,30.1L181.9,38.8L183.1,39.8L184.5,40.8L185.6,42.1L185.9,43.4L185.9,45.3L185.9,47.7L186.4,49.4L187.3,50.8L188,51.4L189.1,51.5L190.5,51.8L191.3,53.2L194.2,63L194.5,64.2L195.7,64.6L197.7,64.4L199.7,65.4L201.9,67L203.9,70L205.3,70.5L209.7,70L215.6,70.5L218.3,72L218,72.9L215.9,74L212.2,75.2L211.1,77.3L210.4,80L210.5,81.5L211.4,83.2L214.1,86.5L214.3,87.7L214.7,89.4L215.2,90.5L214.6,92.8L212.3,94.3L209.1,95.9L202.8,103.2L202.3,104.8L202.3,109.1L201.7,110.4L199.7,110.3L198.1,110.1L198.1,111.7L197,113.6L196.5,115.4L198.8,119.5L199.2,121.7L198.8,123.7L196.7,127.2L195.4,129.5L195.7,129.9L197.4,130.9L202.7,138.4L204.3,141L206.6,140.3L207.4,140.4L208.1,140.8L208.4,141.7L208.4,142.8L207.9,144.5L210.7,145.2L211.7,146.9L215,152.7L214.8,154.4L213.3,157.2L213.3,159L213.6,160.6L214.1,161.2L219,161.4L221,162.1L226,165.1L231.8,169.6L236.5,173.3L240.5,176.4L244.8,176.2L246,176.8L247,177.8L248.2,180.3L250.7,186.2L252.8,188.2L256,192.8L259,197.2L257,203.1L255.1,209.3L255.1,217.2L255.1,221.5L259.2,221.6L263.8,221.8L263.8,226.9L263.8,232L263.9,237.8L265.2,238L267.3,239.2L268.2,241.1L269.4,242.1L270.7,242.3L272.1,243.2L273.5,244.9L273.9,246.2L273.5,247L273.8,248.5L274.8,250.7L276,251.7L277.7,253L275.3,253.7L272.7,253.1L267.1,250.6L265.4,250.5L263,251.5L262.9,252.4L257,249.5L254.9,249L254.2,248.9L250.8,249L246,249.4L243.2,250.6L241.2,251.8L240.3,253L240,253.7L238.4,257.2L236.7,261.7L234.9,265.8L231.3,271.5L229.3,274.1L225.1,279L220.5,280L209.8,279L198.1,278L186.3,276.9L177.7,276.1L176.9,275.8L168.3,268.9L161.5,263.3L153,256.4L144.3,249.3L135.4,242.1L129,236.9L121.3,230.1L114.2,223.9L108.6,219.1L101.4,214.8L95.8,211.4L87.6,206.6L81.1,202.7L75.5,199.3L66.9,194.2L64,192.7L55.1,191L46.6,189.6L37.8,188L32,187L35.9,183.4L34.6,180L31.9,180.6L29.3,181.4L27.8,176.3L29.7,175.6L27.9,168.9L26,161.9L24.2,155.2L22.3,148.3L29.7,143.8L35.2,140.5L43,135.8L50.4,131.3L57.5,127L65.4,122.3L72.4,118L78.8,116.3L80.2,115L83.1,109.1L85.5,104.2L85.7,103L85.7,95.9L86.1,87.6L87,83.1L88.5,79.2L89.8,76.3L89.9,73.6L89.7,70.9L88.4,66.7L86.9,62.3L87.1,58.1L87.3,55.9L88.2,52.3L89.8,49.7L91.4,48L97.5,46.4L101.1,45.3L106,40.6L108.8,37.9L112.8,33.4L115.7,30.2L116,29.1Z"/></svg>
