<svg xmlns="http://www.w3.org/2000/svg" viewBox="0 0 400 300"><path d="M400,27.7L391.4,25.6L386.7,42.5L383.3,44.5L370.5,48.2L376.3,63.9L371.9,66.2L372.4,71.2L368.4,69.9L365.2,66.7L355.6,65.8L344.8,65.6L342.5,66.5L333.2,62.8L329.5,64.7L328.5,69.9L317.9,66.8L313.6,68.1L312.1,71.9L308.4,73.5L299.9,79.6L297,85.7L294.6,85.8L292.8,81.7L284.6,81.5L283.3,74.4L280.1,74.3L280.6,65.5L272.8,59L261.7,59.7L254.1,61L247.9,52.8L242.6,49.4L232.6,42.8L231.4,42L214.7,47.5L214.9,80.2L211.6,80.7L207.1,73.9L202.7,71.4L195.3,73.2L192.5,76.1L192.1,74L193.7,70.4L192.5,67.3L184.9,64.3L182,56.2L178.4,54L178.2,51L184.5,51.9L184.8,45.2L190.3,43.7L196,45.1L197.1,36L196,30.2L189.5,30.6L184,28.3L176.5,32.5L170.4,34.5L167.1,32.9L167.8,28L163.7,21.6L158.8,21.9L153.3,15.3L157.1,7.9L155.2,5.9L157.9,0L166.3,0L166.3,0L167,0.7L167.1,0L400,0Z" fill="#2c2c34" stroke="#474751" stroke-width="0.8"/><path d="M214.9,80.2L214.7,47.5L231.4,42L232.6,42.8L242.6,49.4L247.9,52.8L254.1,61L261.7,59.7L272.8,59L280.6,65.5L280.1,74.3L283.3,74.4L284.6,81.5L292.8,81.7L294.6,85.8L297,85.7L299.9,79.6L308.4,73.5L312.1,71.9L314.1,72.8L308.6,78.4L313.4,81.7L318,79.5L325.7,84.1L317.4,90.2L312.5,89.4L309.8,89.6L308.9,87.2L310.2,83.3L301.6,85.2L299.5,90.7L296.4,95.4L291,95L289.3,98.7L294.1,100.7L295.5,106.8L291.8,115.1L286.9,113.4L283.3,113.3L283.5,108.3L274.9,104.8L268.1,100.7L263.9,96.8L256.5,91L253.3,82.2L251.1,80.6L244.1,81L241.6,79.2L240.9,72.3L232.2,67.7L226.7,72.8L221.2,75.8L222.2,80.1Z" fill="#2c2c34" stroke="#474751" stroke-width="0.8"/><path d="M172.1,300L174.5,299.2L177.9,298.6L181,296.3L183.5,296.3L183.6,298.1L183.3,300L172.1,300Z" fill="#2c2c34" stroke="#474751" stroke-width="0.8"/><path d="M0,274.1L1.4,271.9L7,272.3L6.6,245.3L6.7,242.4L14.2,242.4L14.2,228.5L40.2,228.5L65.4,228.5L91.1,228.5L93.2,235.4L91.8,236.6L92.7,243.8L95.1,252L97.6,253.6L101.1,256.2L97.8,260.1L93.1,261.2L91,263.2L90.4,267.7L87.6,277.6L88.3,280.3L87.2,286.1L84.6,292.6L80.7,295.9L78.4,300L66.6,300L66.6,300L67.4,295.3L64.4,294.8L63.9,296.3L60,296.6L61.6,298.6L61.8,300L0,300Z" fill="#2c2c34" stroke="#474751" stroke-width="0.8"/><path d="M0,241.9L6.6,245.3L6.6,245.3L7,272.3L1.4,271.9L0,274.1L0,241.9Z" fill="#2c2c34" stroke="#474751" stroke-width="0.8"/><path d="M167.1,0L167,0.7L166.3,0L167.1,0ZM157.9,0L155.2,5.9L157.1,7.9L153.3,15.3L158.8,21.9L163.7,21.6L167.8,28L167.1,32.9L170.4,34.5L167.5,40L161.2,41.5L154.7,51L160.6,59.6L160,65.6L167.1,75.9L163.2,79.4L162.1,81.6L159.2,81L154.8,75.8L153,75.5L148.9,73.4L146.9,69.9L140.8,68L136.9,69.4L135.8,67.8L127,63.5L117.4,62.1L111.9,60.5L111.1,61.6L102.9,54L95.5,50.6L89.9,45.2L94.6,43.7L100,35.9L96.3,32.2L105.9,28.3L105.7,26.3L99.9,27.8L100.1,23.5L103.4,20.9L109.7,20.2L110.8,16.9L109.3,11.5L111.9,6.3L111.9,3.4L102.3,0.2L98.5,0.3L98.3,0L157.9,0ZM68.9,38.4L70.6,36.1L75.2,38.1L77.3,38.5L78.1,40.4L79.1,40.6L79.1,41.4L82.3,43.7L88.9,43.1L87.6,46.4L80.6,48L71.8,53.3L68.2,51.4L69.6,47.1L62.5,44.4L63.7,42.7L69.8,39.6Z" fill="#2c2c34" stroke="#474751" stroke-width="0.8"/><path d="M83.7,150.2L82.5,152.6L80.2,151.6L78.9,156.7L80.5,157.5L78.8,158.6L78.5,160.6L81.6,159.5L81.7,162.5L78.5,174.5L77.9,172.6L74.3,161.6L76.1,159.1L75.7,158.7L77.4,155.1L78.7,149.3L79.6,147.3L79.8,147.3L82,147.3L82.6,145.9L84.3,145.8L84.4,149L83.5,150.2Z" fill="#2c2c34" stroke="#474751" stroke-width="0.8"/><path d="M84.3,145.8L82.6,145.9L82,147.3L79.8,147.3L82.1,140.9L85.4,135.4L85.5,135.1L88.4,135.5L89.4,138.6L85.9,141.6Z" fill="#2c2c34" stroke="#474751" stroke-width="0.8"/><path d="M81.6,159.5L78.5,160.6L78.8,158.6L80.5,157.5L78.9,156.7L80.2,151.6L82.5,152.6L82.5,157.3Z" fill="#2c2c34" stroke="#474751" stroke-width="0.8"/><path d="M82.5,152.6L83.7,150.2L90.9,153.3L103.6,145L106.2,154.4L105,155.6L92,159.4L98.5,167L96.3,168.2L95.2,170.7L90.3,171.8L88.7,174.5L85.9,176.8L78.7,175.6L78.5,174.5L81.7,162.5L81.6,159.5L82.5,157.3Z" fill="#2c2c34" stroke="#474751" stroke-width="0.8"/><path d="M186.5,212.7L187.6,212.4L187.9,214.3L193,213.2L198.3,213.4L202.2,213.6L206.7,208.8L211.5,204.2L215.6,199.8L216.8,202.2L217.7,207.9L214.4,207.9L213.9,212.5L215,213.5L212.1,214.9L212.1,217.8L210.2,220.8L210,223.6L208.7,225.1L189.2,221.5L186.7,214.4Z" fill="#2c2c34" stroke="#474751" stroke-width="0.8"/><path d="M181.5,209.1L181.1,203.9L182.8,200.1L184.6,199.3L186.6,201.6L186.7,205.8L185.3,210L183.5,210.5Z" fill="#2c2c34" stroke="#474751" stroke-width="0.8"/><path d="M163.1,171L164.5,174.3L163.9,176L166,181.5L161.4,181.7L159.8,178.2L154,177.5L158.8,170.3Z" fill="#2c2c34" stroke="#474751" stroke-width="0.8"/><path d="M106.2,154.4L103.6,145L117.9,136.9L120.4,127.3L119.8,121.5L123.3,119.5L126.6,114.4L129.4,113.2L137,114.2L139.3,116.3L142.4,114.9L146.6,124.5L150.8,126.9L151.3,131.6L148,134.3L146.5,140.4L151,147.8L159,152.1L162.3,157.9L161.2,163.4L163.3,163.4L163.4,167.4L167,171.3L163.1,171L158.8,170.3L154,177.5L142,176.9L123.7,161.8L114,156.5Z" fill="#2c2c34" stroke="#474751" stroke-width="0.8"/><path d="M210,223.6L210.2,220.8L212.1,217.8L212.1,214.9L215,213.5L213.9,212.5L214.4,207.9L217.7,207.9L220.6,212.7L224.2,215.3L229,216.3L232.8,217.5L235.8,221.6L237.5,223.9L239.8,224.8L239.8,226.4L237.5,230.5L236.4,232.5L233.7,234.7L231.3,239.5L228.3,239.1L227,240.8L226,244.3L226.7,248.9L226.1,249.7L223.2,249.7L219.1,252.2L218.5,255.6L217,257L213,256.9L210.4,258.7L210.4,261.4L207.3,263.3L203.7,262.6L199.4,264.9L196.4,265.3L194.3,260.6L189.2,249.3L208.7,242.4L213,228.5ZM216.8,202.2L215.6,199.8L217.5,197.3L218.3,197.9L217.7,200.9Z" fill="#2c2c34" stroke="#474751" stroke-width="0.8"/><path d="M400,250L396.3,254.1L391.4,258.4L385,262.8L384.9,265.9L381.7,267.6L375.9,270L372.8,270.4L370.9,275.5L372.2,284.2L372.6,289.8L369.8,296.1L369.8,300L342.4,300L342.4,300L340.9,297.9L337.4,291.5L335.8,283.2L334.7,279L328.8,269.8L326.1,256.6L324.2,247.9L324.2,239.5L322.9,233L313.5,237.2L308.9,236.4L300.5,227.9L303.6,225.4L301.7,222.6L294.1,216.7L298.4,211.9L312.7,211.9L311.4,205.8L307.7,202.2L307,196.6L302.8,193.3L309.9,185.7L317.4,186.2L324.2,178.5L328.3,171L334.6,163.4L334.5,158L340,153.6L334.8,149.8L332.5,144.5L330.2,137.7L333.4,134.3L343.2,136.2L350.5,135.1L356.7,128.4L363.7,137.7L363,144L365.6,148L365.4,151.9L360.7,150.9L362.6,159.3L368.9,164.1L377.9,169.4L373.8,172.8L371.3,179.7L377.6,182.5L383.7,186.1L392.1,190.3L400,191.1L400,250Z" fill="#2c2c34" stroke="#474751" stroke-width="0.8"/><path d="M400,191.1L392.1,190.3L383.7,186.1L377.6,182.5L371.3,179.7L373.8,172.8L377.9,169.4L380.6,167.6L385.8,169.9L392.4,174.8L396,175.8L398.2,179.4L400,179.9L400,191.1Z" fill="#2c2c34" stroke="#474751" stroke-width="0.8"/><path d="M356.7,128.4L350.5,135.1L343.2,136.2L333.4,134.3L330.2,137.7L332.5,144.5L334.8,149.8L340,153.6L334.5,158L334.6,163.4L328.3,171L324.2,178.5L317.4,186.2L309.9,185.7L302.8,193.3L307,196.6L307.7,202.2L311.4,205.8L312.7,211.9L298.4,211.9L294.1,216.7L289.3,214.9L287.4,209.7L282.4,204.3L270.4,205.6L259.9,205.8L250.8,206.8L253.2,198.4L262.6,194.7L262,191.3L258.9,190.1L258.8,183.7L252.6,180.4L249.9,176L246.7,172.1L257.6,175.9L264.1,174.7L268,175.7L269.3,174.1L273.8,174.7L282.2,171.6L282.5,165.2L286,160.9L290.9,161L291.6,158.8L296.6,157.8L299,158.5L301.5,156.4L301.1,151.8L303.9,147.1L308,145.2L305.4,140L311.6,140.3L313.4,137.5L313.1,134.4L316.4,131.1L315.6,127.2L314.1,123.8L317.9,120.3L324.8,118.6L332.3,117.6L335.6,116.1L339.4,115.2L344.1,119L346.1,125.2Z" fill="#2c2c34" stroke="#474751" stroke-width="0.8"/><path d="M283.3,113.3L286.9,113.4L291.8,115.1L293.8,116.1L298.5,113.5L300.7,115.1L302.8,111.3L306.7,111.5L307.7,110.3L308.3,107L311.1,104.1L314.6,106L313.9,108.5L315.9,108.9L315.3,115.8L317.9,118.4L320.1,116.7L323,115.9L327,112.3L331.5,112.9L338.2,112.9L339.4,115.2L335.6,116.1L332.3,117.6L324.8,118.6L317.9,120.3L314.1,123.8L315.6,127.2L316.4,131.1L313.1,134.4L313.4,137.5L311.6,140.3L305.4,140L308,145.2L303.9,147.1L301.1,151.8L301.5,156.4L299,158.5L296.6,157.8L291.6,158.8L290.9,161L286,160.9L282.5,165.2L282.2,171.6L273.8,174.7L269.3,174.1L268,175.7L264.1,174.7L257.6,175.9L246.7,172.1L252.6,165.2L252.1,160.4L247.2,159.1L246.7,154.3L244.6,148.1L247.3,143.9L244.5,142.7L246.3,137L248.9,127.2L255.5,130.2L260.4,129.1L261.8,125.5L266.9,124.3L270.6,121.8L271.8,115.4L277.3,113.8L278.3,110.9L281.4,113.1Z" fill="#2c2c34" stroke="#474751" stroke-width="0.8"/><path d="M291.8,115.1L295.5,106.8L294.1,100.7L289.3,98.7L291,95L296.4,95.4L299.5,90.7L301.6,85.2L310.2,83.3L308.9,87.2L309.8,89.6L312.5,89.4L310.1,92L303,90.6L302.4,95.4L309.5,94.8L317.5,97.5L329.7,96.2L331.4,103.9L333.5,103.1L337.4,105L337.2,108.2L338.2,112.9L331.5,112.9L327,112.3L323,115.9L320.1,116.7L317.9,118.4L315.3,115.8L315.9,108.9L313.9,108.5L314.6,106L311.1,104.1L308.3,107L307.7,110.3L306.7,111.5L302.8,111.3L300.7,115.1L298.5,113.5L293.8,116.1Z" fill="#2c2c34" stroke="#474751" stroke-width="0.8"/><path d="M312.1,71.9L313.6,68.1L317.9,66.8L328.5,69.9L329.5,64.7L333.2,62.8L342.5,66.5L344.8,65.6L355.6,65.8L365.2,66.7L368.4,69.9L372.4,71.2L371.5,73.2L361.3,77.9L359,81.3L350.7,82.3L348.2,87.8L341.4,86.7L336.9,88.3L330.7,92.3L331.6,94.3L329.7,96.2L317.5,97.5L309.5,94.8L302.4,95.4L303,90.6L310.1,92L312.5,89.4L317.4,90.2L325.7,84.1L318,79.5L313.4,81.7L308.6,78.4L314.1,72.8Z" fill="#2c2c34" stroke="#474751" stroke-width="0.8"/><path d="M192.5,76.1L195.3,73.2L202.7,71.4L207.1,73.9L211.6,80.7L214.9,80.2L222.2,80.1L221.2,75.8L226.7,72.8L232.2,67.7L240.9,72.3L241.6,79.2L244.1,81L251.1,80.6L253.3,82.2L256.5,91L263.9,96.8L268.1,100.7L274.9,104.8L283.5,108.3L283.3,113.3L281.4,113.1L278.3,110.9L277.3,113.8L271.8,115.4L270.6,121.8L266.9,124.3L261.8,125.5L260.4,129.1L255.5,130.2L248.9,127.2L248.4,120.4L243.5,120.1L236.1,112.9L230.9,112L223.8,107.9L219.2,107.1L216.3,108.7L212,108.4L207.4,113.1L201.7,114.7L200.5,108.9L201.4,100.2L196.4,97.4L198,91.6L193.7,91.2L195.1,84L201.3,86.1L207,83.3L202.2,78.2L200.4,73.2L195.1,75.4L194.5,81.8Z" fill="#2c2c34" stroke="#474751" stroke-width="0.8"/><path d="M83.7,150.2L83.5,150.2L84.4,149L84.3,145.8L85.9,141.6L89.4,138.6L88.4,135.5L85.5,135.1L84.9,129.1L86.5,125.8L88.2,124L89.9,122.3L90.3,117.8L92.4,119.4L99.6,117.1L103,118.6L108.3,118.6L115.8,115.6L119.3,115.7L126.6,114.4L123.3,119.5L119.8,121.5L120.4,127.3L117.9,136.9L103.6,145L90.9,153.3Z" fill="#2c2c34" stroke="#474751" stroke-width="0.8"/><path d="M153.6,101.8L151.2,102L148.6,97.2L148.6,95.9L145.8,95.9L143.8,93.6L142.5,93.9L140,91.4L135.1,89.3L135.8,85.1L134.7,82.1L143.7,80.8L145,83L147.5,84.5L146.2,86.7L149.6,89.6L147.8,92.3L150.5,94.6L153.4,96Z" fill="#2c2c34" stroke="#474751" stroke-width="0.8"/><path d="M98.3,0L98.5,0.3L102.3,0.2L111.9,3.4L111.9,6.3L109.3,11.5L110.8,16.9L109.7,20.2L103.4,20.9L100.1,23.5L99.9,27.8L94.7,28.6L90.4,31.6L84.3,32.1L78.8,35.6L79.1,40.6L78.1,40.4L77.3,38.5L75.2,38.1L70.6,36.1L68.9,38.4L68,37.4L57.9,35.1L57.5,31.5L51.5,32.7L49,37.9L44,44.7L41.1,43.2L38,44.6L35.1,42.9L36.8,41.9L37.9,38.7L39.7,35.8L39.2,34.1L40.6,33.3L41.2,34.6L45,34.9L46.8,34.2L45.5,33.3L46,31.9L43.7,29.4L42.8,25.5L40.4,23.9L40.9,20.6L38,18L35.3,17.7L30.5,14.6L26.2,15.6L24.7,17L21.9,17L20.3,19.3L15.5,20.2L13.3,21.7L10.3,19.4L6.2,19.3L2.1,18.2L0,19.8L0,1.9L0,1.9L1.4,0L98.3,0Z" fill="#2c2c34" stroke="#474751" stroke-width="0.8"/><path d="M1.4,0L0,1.9L0,0Z" fill="#2c2c34" stroke="#474751" stroke-width="0.8"/><path d="M24.7,17L26.2,15.6L30.5,14.6L35.3,17.7L38,18L40.9,20.6L40.4,23.9L42.8,25.5L43.7,29.4L46,31.9L45.5,33.3L46.8,34.2L45,34.9L41.2,34.6L40.6,33.3L39.2,34.1L39.7,35.8L37.9,38.7L36.8,41.9L35.1,42.9L34,38.7L34.7,34.7L34.5,30.6L30.7,24.9L28.7,20.8L26.6,18Z" fill="#2c2c34" stroke="#474751" stroke-width="0.8"/><path d="M0,19.8L2.1,18.2L6.2,19.3L10.3,19.4L13.3,21.7L15.5,20.2L20.3,19.3L21.9,17L24.7,17L26.6,18L28.7,20.8L30.7,24.9L34.5,30.6L34.7,34.7L34,38.7L35.1,42.9L35.1,42.9L38,44.6L41.1,43.2L44,44.7L44.2,47.1L41,49.1L39.1,48.2L37.2,59.2L33.4,58.2L28.7,54.9L21.1,57L17.9,59.3L8.3,58.9L3.4,57.5L0.9,58.1L0,56.4L0,19.8Z" fill="#2c2c34" stroke="#474751" stroke-width="0.8"/><path d="M0,56.4L0.9,58.1L3.4,57.5L8.3,58.9L17.9,59.3L21.1,57L28.7,54.9L33.4,58.2L37.2,59.2L33.9,62.9L31.5,69.2L33.6,74.2L28,73L21.4,75.8L21.3,80.1L15.5,80.9L10.9,77.9L5.7,80.2L0.9,80L0.4,74.3L0,73.9L0,64.8L0,64.8L1.1,63.6L0,62.2L0,56.4Z" fill="#2c2c34" stroke="#474751" stroke-width="0.8"/><path d="M22.5,129.9L21.7,132.3L12.4,133L12.5,131.6L4.5,130.1L5.8,126.7L9.3,129.4L14.3,128.9L19.2,129.5L19,130.9ZM0,93.5L0.2,94.3L3.5,98.3L1,100.1L4.7,103.9L7.9,106.3L7.9,111L2,108.8L3.9,113L0,113.8L0,93.5ZM0,114.5L2.2,121L0,121L0,114.5ZM0,80.2L0.9,80L0.9,80L5.7,80.2L10.9,77.9L15.5,80.9L21.3,80.1L21.4,75.8L24.6,78.1L22.6,83.5L21,84.4L17.1,84.2L13.7,83.4L5.8,85.6L10.3,90.4L7,91.8L3.4,91.8L0,87.4L0,87.4L0,80.2Z" fill="#2c2c34" stroke="#474751" stroke-width="0.8"/><path d="M142.4,114.9L139.3,116.3L137,114.2L129.4,113.2L126.6,114.4L119.3,115.7L115.8,115.6L108.3,118.6L103,118.6L99.6,117.1L92.4,119.4L90.3,117.8L89.9,122.3L88.2,124L86.5,125.8L84.1,122.1L86.5,119.1L82.6,119.8L77.1,118L72.7,122.6L62.9,123.5L57.6,119.2L50.6,118.9L49.1,122.2L44.6,123.2L38.4,118.9L31.3,119.1L27.5,111L22.7,106.4L25.9,100L21.8,96L29,87.9L38.9,87.5L41.7,81L54,82.2L61.8,76.6L69.4,74.1L80.1,73.9L91.4,80L100.7,83.4L108.3,82L113.8,82.8L121.5,78.3L128.4,77.9L134.7,82.1L135.8,85.1L135.1,89.3L140,91.4L142.5,93.9L138.1,96.3L140.1,105.8L138.8,108.4ZM21.4,75.8L28,73L33.6,74.2L34.4,77.5L40,80.3L38.8,82.4L31.1,82.9L28.4,85.6L23,90.2L20.9,86.2L21,84.4L22.6,83.5L24.6,78.1Z" fill="#2c2c34" stroke="#474751" stroke-width="0.8"/><path d="M400,179.9L398.2,179.4L396,175.8L392.4,174.8L385.8,169.9L380.6,167.6L377.9,169.4L368.9,164.1L362.6,159.3L360.7,150.9L365.4,151.9L365.6,148L363,144L363.7,137.7L356.7,128.4L346.1,125.2L344.1,119L339.4,115.2L338.2,112.9L337.2,108.2L337.4,105L333.5,103.1L331.4,103.9L329.7,96.2L331.6,94.3L330.7,92.3L336.9,88.3L341.4,86.7L348.2,87.8L350.7,82.3L359,81.3L361.3,77.9L371.5,73.2L372.4,71.2L372.4,71.2L371.9,66.2L376.3,63.9L370.5,48.2L383.3,44.5L386.7,42.5L391.4,25.6L400,27.7L400,179.9Z" fill="#2c2c34" stroke="#474751" stroke-width="0.8"/><path d="M153,75.5L154.8,75.8L159.2,81L162.1,81.6L163.2,79.4L167.1,75.9L170.5,80.5L173.8,86.6L176.8,87L178.8,89.3L173.5,89.9L172.3,96.5L171.2,99.4L168.8,101.4L169,105.5L167.4,105.9L163.4,101.6L165.6,97.4L163.7,95L161.2,95.6L153.6,101.8L153.4,96L150.5,94.6L147.8,92.3L149.6,89.6L146.2,86.7L147.5,84.5L145,83L143.7,80.8L145.2,79.4L150.1,81.8L153.6,82.4L154.4,81.3L151.3,76.7ZM151.2,102L146.8,100.9L143.5,97L142.5,93.9L143.8,93.6L145.8,95.9L148.6,95.9L148.6,97.2Z" fill="#2c2c34" stroke="#474751" stroke-width="0.8"/><path d="M111.1,61.6L111.9,60.5L117.4,62.1L127,63.5L135.8,67.8L136.9,69.4L140.8,68L146.9,69.9L148.9,73.4L153,75.5L151.3,76.7L154.4,81.3L153.6,82.4L150.1,81.8L145.2,79.4L143.7,80.8L134.7,82.1L128.4,77.9L121.5,78.3L122.5,74.6L120.8,68.6L117.1,65.3L113.5,64.3Z" fill="#2c2c34" stroke="#474751" stroke-width="0.8"/><path d="M88.3,280.3L87.6,277.6L90.4,267.7L91,263.2L93.1,261.2L97.8,260.1L101.1,256.2L104.9,264L106.7,270.2L110.2,273.5L119.1,279.9L122.7,283.7L126.2,287.5L128.2,289.8L131.4,291.8L129.4,293.4L126.7,292.8L124.5,290.7L121.8,286.8L118.9,284.7L117.2,282.3L111.6,279.7L107.1,279.6L105.6,278.2L101.8,279.8L97.8,276.7L95.8,281.7Z" fill="#2c2c34" stroke="#474751" stroke-width="0.8"/><path d="M189.2,249.3L194.3,260.6L196.4,265.3L191.7,267.1L190.5,270.1L190.3,272.4L183.9,275.3L173.5,278.4L167.7,283.1L164.8,283.5L162.9,283.1L159.1,285.9L155,287.1L149.5,287.5L147.9,287.9L146.5,289.6L144.8,290.1L143.8,291.8L140.6,291.7L138.5,292.6L134,292.2L132.3,288.3L132.5,284.7L131.4,282.7L130.2,277.8L128.3,275L129.6,274.7L128.9,271.6L129.7,270.3L129.4,267.4L132.3,265.2L131.6,262.3L133.3,259L136,260.8L137.8,260.2L145.2,260L146.4,260.7L152.7,261.4L155.2,261L156.8,263.3L159.8,262.2L164.5,255L170.5,251.9Z" fill="#2c2c34" stroke="#474751" stroke-width="0.8"/><path d="M78.7,175.6L85.9,176.8L88.7,174.5L90.3,171.8L95.2,170.7L96.3,168.2L98.5,167L92,159.4L105,155.6L106.2,154.4L114,156.5L123.7,161.8L142,176.9L154,177.5L159.8,178.2L161.4,181.7L166,181.5L168.5,187.9L171.7,189.6L172.8,192.1L177.2,195.2L177.6,198.2L177,200.6L177.8,203L179.7,205L180.5,207.3L181.5,209.1L183.5,210.5L185.3,210L186.5,212.7L186.7,214.4L189.2,221.5L208.7,225.1L210,223.6L213,228.5L208.7,242.4L189.2,249.3L170.5,251.9L164.5,255L159.8,262.2L156.8,263.3L155.2,261L152.7,261.4L146.4,260.7L145.2,260L137.8,260.2L136,260.8L133.3,259L131.6,262.3L132.3,265.2L129.4,267.4L128.6,264.5L126.6,262.4L126.1,259.7L122.8,257.3L119.3,251.6L117.5,246L113,241.2L110.1,240.1L105.8,233.5L105.1,228.6L105.4,224.5L101.7,216.7L98.6,213.9L95.1,212.4L93,208.3L93.3,206.7L91.5,203L89.6,201.4L87.1,196L83.1,190.2L79.9,185.1L76.6,185.2L77.6,181.1L77.9,178.5Z" fill="#2c2c34" stroke="#474751" stroke-width="0.8"/><path d="M64.3,131.2L64.8,131.2L65.7,129.3L70.4,129.4L76.3,127L71.9,130.4L72.4,131.9L71.7,131.6L70.4,132.2L69.4,132L69.1,132.3L69,131.5L68.5,131L67.3,130.9L65.5,131.6Z" fill="#2c2c34" stroke="#474751" stroke-width="0.8"/><path d="M64.3,131.2L65.5,131.6L67.3,130.9L68.5,131L69,131.5L69.1,132.3L69.4,132L70.4,132.2L71.7,131.6L72.4,131.9L72.5,132.5L65.9,135.7L62.7,134.7L61.2,131.5Z" fill="#2c2c34" stroke="#474751" stroke-width="0.8"/><path d="M91.1,228.5L65.4,228.5L40.2,228.5L14.2,228.5L14.2,202.4L14.2,176.5L12.2,170.5L13.9,165.8L12.9,162.6L15.3,158.9L23.9,158.8L30.1,160.8L36.5,163.1L39.5,164.2L44.5,161.8L47.2,159.7L52.9,159L57.5,160L59.3,163.8L60.8,161.3L66,163.1L71.1,163.5L74.3,161.6L77.9,172.6L78.5,174.5L76.7,177.5L75.3,183.1L73.5,186.9L72,188.2L69.8,185.8L66.9,182.5L62.3,171.9L61.6,172.6L64.3,180.4L68.3,187.8L73.2,199.1L75.6,203L77.7,207.1L83.5,215L82.2,216.2L82.4,220.8L90,227.1Z" fill="#2c2c34" stroke="#474751" stroke-width="0.8"/><path d="M0,150.7L0.5,150.8L2.7,154.2L5.2,154.2L7.2,155.5L13.7,156.4L15.3,158.9L12.9,162.6L13.9,165.8L12.2,170.5L14.2,176.5L14.2,202.4L14.2,228.5L14.2,228.5L14.2,242.4L6.7,242.4L6.6,245.3L0,241.9L0,150.7Z" fill="#2c2c34" stroke="#474751" stroke-width="0.8"/><path d="M78.4,300L80.7,295.9L84.6,292.6L87.2,286.1L88.3,280.3L95.8,281.7L97.8,276.7L101.8,279.8L105.6,278.2L107.1,279.6L111.6,279.7L117.2,282.3L118.9,284.7L121.8,286.8L124.5,290.7L126.7,292.8L124.4,295.8L122.2,298.9L122.5,300L78.4,300Z" fill="#2c2c34" stroke="#474751" stroke-width="0.8"/><path d="M122.5,300L122.2,298.9L124.4,295.8L126.7,292.8L126.7,292.8L129.4,293.4L131.4,291.8L132.9,293.9L132.7,296.6L129,298.2L131.8,300L131.8,300L122.5,300Z" fill="#2c2c34" stroke="#474751" stroke-width="0.8"/><path d="M131.8,300L131.8,300L131.8,300L131.8,300Z" fill="#2c2c34" stroke="#474751" stroke-width="0.8"/><path d="M0,73.9L0.4,74.3L0.9,80L0,80.2L0,73.9Z" fill="#2c2c34" stroke="#474751" stroke-width="0.8"/><path d="M0,62.2L1.1,63.6L0,64.8L0,62.2Z" fill="#2c2c34" stroke="#474751" stroke-width="0.8"/><path d="M61.8,300L61.6,298.6L60,296.6L63.9,296.3L64.4,294.8L67.4,295.3L66.6,300L61.8,300Z" fill="#2c2c34" stroke="#474751" stroke-width="0.8"/><path d="M216.4,193.5L215.8,194.4L214.8,195.1L214.4,194.9L214.2,194.9L213.5,195.2L213,195.2L212.2,195.7L211.4,195.9L210.9,195.9L210.7,195.9L210.6,195.5L210.6,195.4L210.9,195.5L212.1,195L213.6,194.3L213.7,194L213.5,193.4L213.6,193.3L214.5,193.6L215.6,193L216.5,192.9L217,193.3ZM201.6,113.5L203.4,113.6L204.1,113.4L205.2,113L205.9,112.7L206.3,112.7L206.7,112.5L207,112.2L207.7,110.4L208,109.9L209.1,108.9L210.1,108.3L211.1,107.7L212.4,107.3L214.1,107.3L215.5,107.5L216.2,107.5L216.6,107.5L216.9,107.5L217.1,107.3L217.2,106.5L217.5,106.3L218,106.1L218.7,106.1L219.5,106L220.2,106.1L221,106.4L222.1,106.4L222.9,106.3L223.3,106.6L223.6,107.1L223.8,107.4L223.8,107.9L223.8,108.2L223.9,108.3L224.4,108.6L225,108.7L226.2,108.9L227.4,109.3L228,109.5L228.8,109.9L229.8,110.9L230.2,111L230.6,111.1L230.9,111.1L231.7,110.7L232.3,111L232.7,110.9L233.4,110.7L234.2,111L236.2,112.1L236.4,112L236.5,112.1L236.7,112.4L236.8,112.7L237,113.6L237.6,114.2L238.2,114.8L239,115.2L240.7,116L241.5,116.6L242.2,117.7L243.2,119.1L243.3,119.2L245.7,119.2L248.3,119.2L248.7,119.8L248.6,120.9L248.7,122L248.9,122.8L248.9,123.6L248.8,123.9L248.6,124.4L248.5,124.5L248.9,124.8L249.2,125.4L249.2,126.3L249.1,126.7L249.1,127.1L249.3,127.4L249.4,127.9L249.4,128.2L249.2,128.6L249,129L248.8,129.5L248.8,129.8L248.5,130L248.2,130.2L248.2,130.7L248.4,131.1L248.5,131.6L248.4,131.9L248.2,132.3L248,132.9L248.1,133.5L247.8,133.9L247.5,134.3L247.3,134.6L247.2,135.1L247,135.2L246.6,135.6L246.3,135.8L245.9,135.9L245.8,136.1L245.8,136.3L246,136.5L246.3,136.9L246.8,137.7L245.3,137.8L244.8,138.5L244.2,139.5L244.5,141.4L244.2,142.4L244.4,143L244.8,143.4L245.3,143.6L246.3,143.6L247,143.8L247,144L246.7,144.4L246,145.2L245.7,145.5L244.7,146.9L244.7,147.5L244.8,148L245.3,149.6L245.7,151.1L246.4,153.7L246.4,154.4L246.2,155.8L246.2,156.6L246.3,157.7L246.2,158.2L246.4,159.5L246.6,159.6L248.3,159.8L249.8,160.1L251.8,160.4L252.5,161.1L252.8,162.7L252.8,163.9L252.7,164.5L251.2,166.3L249.7,168.1L248.2,169.8L246.5,171.8L247.8,173.3L248.5,174.2L249.6,175.5L249.8,175.8L249.8,176.3L250.9,178.2L251.3,179.2L251.6,179.8L252.5,180.7L253.3,181.6L254.3,182L254.9,182.1L256.3,182.5L256.9,182.9L257.7,183.9L258.7,183.7L258.9,183.7L259,183.8L259,184.1L258.8,185.6L259.1,187.1L259.3,189.3L259.2,189.7L259,190.3L259,190.7L258.9,191L259,191.1L259.3,191.2L260,191.3L261.6,191.1L261.8,191.1L262.2,191.4L262.5,191.8L262.5,192L262.1,192.4L262,192.9L262.2,193.8L262.1,193.9L261.7,194.1L261.6,195.3L261.5,195.5L261.1,195.6L259.1,195.5L258.9,195.5L258.2,195.9L256.9,196.1L256.5,196.2L256.1,196.6L255.7,197.1L255.7,197.5L255.6,197.6L254.9,197.5L254.6,197.9L253.2,198.4L253,198.5L252.8,199L252.6,200.2L252.4,201.3L252.3,201.4L251.9,201.8L251.9,202L251.9,202.4L251.7,203.2L251.6,205.3L251.4,205.9L251,205.9L250.7,206.2L250.2,206.6L249.1,206.3L248.3,206L245.4,205.3L245.1,205L244.9,204.4L244.4,204.2L243.7,205.1L241.2,204.6L240.4,204.7L239.9,204.5L238.6,204.4L237.6,203.9L236.1,204.3L234.9,204.3L233.3,203.4L231.6,203.1L230.2,203.2L229.4,203.1L228.3,202.7L227.7,202.4L226.8,202.7L226.4,202.1L223.8,201.7L223.3,200.7L223,199.9L222.9,199L222.3,197.5L222.1,195.2L221.9,194.4L221.5,193.6L221.1,193L220.4,192.3L219.9,192L217.5,191.5L217,191.5L215.9,191.9L214.8,192.6L212.9,193.1L212.5,193.4L212,194.1L211.4,194.6L210.6,194.5L209.7,194.9L208,196.1L207.1,196.5L206.3,196.5L205.6,195.9L203.8,195.1L202.6,194.9L201,195L200.3,194.9L199,194L198.6,193.3L197.9,192.9L195.6,191.9L193.7,190.6L193.3,190.1L193.1,189.3L192.3,188.4L190.5,187.7L189.4,186.9L188.2,186.7L187,186.7L186.6,186.6L186.1,186.3L184.5,184.6L184.5,184L183.6,182.4L183.3,181.8L183.1,180.3L182.9,179.8L181.9,179.2L181.7,178.8L181.9,178.2L181.9,177.8L181.4,177.4L180.6,177.1L180.4,176.7L180.6,175.7L180.5,175.1L179.8,174.2L178.8,173.2L177.7,171.7L177.3,171.4L177.1,170.4L176.7,169.3L176.1,169.2L173.4,170.6L172.6,169.8L170.1,168.5L169.9,168.3L169.8,168L170.1,167.8L170.4,167.7L171,168L171.4,167.7L171.2,167.2L170.6,167L169.8,167L170,167.4L169.2,167.8L169.1,168.3L169.2,169L169.2,169.9L168.9,170.3L168.7,170.5L167.6,170.6L167.1,171L166.8,171.1L166.4,170.7L166.1,170.5L165.9,170L165.8,169.6L165.9,169.4L165.8,169.1L165.4,168.6L165.1,168.4L164.8,168.4L164.5,168.1L164.2,167.6L163.7,167.3L163.4,167.3L163.4,165.8L163.4,164.6L163.4,163.3L162.2,163.3L161.2,163.2L161.2,162.2L161.2,160.2L161.7,158.7L162.2,157.2L161.4,156.1L160.6,155L160.1,154.5L159.5,153L159.2,152.4L158.9,152.2L158.6,152L157.6,152.1L156.6,151.3L155.4,150.4L154,149.2L152.8,148.5L152.3,148.3L151,148.3L150.9,148.1L150.9,147.7L150.9,147.3L151.2,146.6L151.3,146.2L150.5,144.7L150.2,144.3L149.5,144.2L149.6,143.7L149.6,143.5L149.5,143.2L149.4,143.1L149.2,143.1L148.6,143.3L148.2,142.6L146.9,140.8L146.5,140.5L146.4,140.4L146.7,139.8L147.3,139L147.3,138.5L147.3,138L146.7,136.9L146.8,136.5L147.1,136L147.1,135.6L147.5,135.7L148,135.7L148.1,135.4L148.1,134.3L148.2,133.9L149.8,132.1L150.6,131.7L151.2,131.3L151.3,130.8L151.2,130.5L151.1,130.1L151,129.8L150.4,128.9L150.1,128.5L150.1,128.2L150.3,127.5L150.6,127L151.5,126.7L152,126.4L152.1,126.2L151.4,125.8L149.9,125.7L148.9,125.8L148.5,125.7L148,124.9L147.5,124.5L147,124.3L146.5,124.3L146.2,124.2L146.1,123.9L145.4,121.5L145.2,121.2L144.9,121.1L144.6,121.1L144.4,120.9L144.2,120.6L144,120.1L144,119.6L144.1,119.1L144,118.7L143.7,118.4L143.4,118.2L143.1,117.9L142.5,115.8L142.3,115.2L142.3,115.1L142.3,115L142.3,114.5L142.5,114.1L142.5,113.9L142,113.4L141.3,112.8L141.1,112.7L141.1,112.2L141.1,111.7L141,111.3L140.9,111.1L140.9,110.9L141.2,110.5L141,110.2L139.9,109.5L139.5,109.2L138.8,109.1L138.7,108.9L138.8,108.4L139.1,107.8L139.5,107.2L139.6,106.9L139.8,106.4L139.8,106L140.3,105.5L140.3,105.4L140.1,105.2L139.8,105.1L139.4,105L139.3,104.9L139.2,104.7L139.3,103.5L139.2,102.8L139,102.3L139.1,101.2L138.9,101L138.5,100.4L138.3,99.9L138.4,99.7L138.5,99.4L138.5,98.9L138.5,98.6L138.1,98.3L137.9,98L137.8,97.7L137.7,97.2L137.6,96.9L137.5,96.7L137.6,96.6L138.2,96.5L138.9,96.5L139.5,96.5L139.9,96.3L140.3,94.3L140.7,93.7L141.2,93.4L142.1,94.1L142.4,94.4L142.7,94.4L142.8,94.6L143.8,96.3L144.3,96.8L144.6,97.2L144.8,97.7L145.1,98L145.5,98.2L146,98.7L146.4,99L147,99.8L147.6,100.1L149.8,100.6L151.1,100.9L151.4,100.9L152.4,100.6L153.5,100.6L153.9,100.6L155.4,99.1L155.8,98.6L156.7,98.3L157.2,97.7L158,97L159,96.3L159.9,95.7L160.6,95.3L161.8,94.4L162.6,94.1L163.3,94.1L164.3,95.1L165.1,96.1L165.4,96.5L164.9,96.9L164.2,97.2L164,97.5L164,97.8L164,98.1L164.1,98.4L165.1,99L165.2,99.3L165.2,99.7L165.1,99.9L164.9,100L164.2,100.2L163.6,100.4L163.4,100.6L163.2,100.8L163.3,101.1L163.4,101.3L164.6,102.1L164.7,102.4L165,102.8L165.3,103.1L165.8,103.1L166,103.3L167.1,104.7L167.4,104.8L168.7,104.5L168.9,104.5L168.9,104.9L169.1,106.9L169.3,108L169.5,109L169.9,110L170.3,110.8L170.9,111.4L172.2,112.1L172.8,112.3L174.5,112.4L176.1,112.7L177.1,113L177.4,113.2L177.6,113.5L178.4,115.1L179.7,116.2L182.3,117.8L183.5,118.4L187.7,119.4L190.5,119.4L198.1,117.4L200.7,116.9L201.6,116.9L201.1,117.3L200.1,117.5L200.7,117.8L201.6,117.8L202,117.8L202.3,117.5L202.3,117.1L202.3,116.7L201.9,114.8Z" fill="#b8e653" stroke="#0c0e06" stroke-width="1"/></svg>
