<svg xmlns="http://www.w3.org/2000/svg" viewBox="0 0 300 300"><path fill="#e8e8ea" d="M153.4,74.1L157.1,74.3L158.6,73.9L160.7,73L162.3,72.4L163.2,72.4L164,71.9L164.6,71.4L166,67.6L166.7,66.7L169,64.6L171.1,63.2L173.2,62L175.8,61.2L179.4,61.3L182.2,61.6L183.8,61.6L184.6,61.6L185.1,61.5L185.5,61.3L185.9,59.6L186.5,59.1L187.4,58.6L188.8,58.6L190.5,58.5L191.9,58.6L193.7,59.2L196.1,59.3L197.6,59.2L198.5,59.8L199.1,60.7L199.5,61.4L199.5,62.3L199.5,63.1L199.8,63.3L200.7,63.8L202,64.1L204.6,64.5L206.9,65.3L208.2,65.8L210,66.6L212,68.6L212.8,68.9L213.7,69.1L214.3,69.1L215.9,68.2L217.2,68.9L217.9,68.8L219.5,68.3L221.1,68.9L225.2,71.1L225.6,71L226,71.2L226.4,71.7L226.6,72.4L226.9,74.3L228.1,75.6L229.5,76.9L231.2,77.5L234.8,79.2L236.3,80.5L237.9,82.8L239.8,85.7L240,86L245,85.9L250.5,85.9L251.2,87.1L251.1,89.4L251.3,91.8L251.8,93.5L251.8,95L251.4,95.8L251.1,96.7L251,97L251.7,97.6L252.3,98.9L252.4,100.6L252.1,101.6L252.1,102.3L252.5,103L252.7,104.1L252.7,104.7L252.2,105.4L251.9,106.2L251.6,107.3L251.5,108.1L250.8,108.5L250.3,108.7L250.3,109.8L250.6,110.7L250.9,111.7L250.6,112.4L250.3,113.2L249.9,114.5L250,115.6L249.5,116.5L248.8,117.3L248.4,118L248.3,118.9L247.8,119.2L246.8,120L246.3,120.6L245.4,120.7L245.2,121.1L245.3,121.6L245.7,121.8L246.3,122.8L247.4,124.4L244.1,124.6L243.1,126L242,128.1L242.5,132.2L242,134.3L242.3,135.4L243.2,136.3L244.3,136.7L246.3,136.7L247.7,137.1L247.8,137.6L247,138.4L245.8,139.9L245.1,140.6L243,143.6L243,144.8L243.2,145.8L244.1,149.1L245,152.2L246.6,157.8L246.6,159.1L246.1,162L246.1,163.7L246.3,166L246.1,167.1L246.5,169.8L246.9,169.9L250.4,170.4L253.6,170.9L257.8,171.5L259.1,173.1L259.9,176.4L259.9,178.9L259.5,180.2L256.5,183.9L253.4,187.5L250.3,191.2L246.8,195.4L249.4,198.4L251,200.3L253.2,203L253.5,203.6L253.5,204.6L255.8,208.6L256.6,210.7L257.3,211.9L259.1,213.8L260.9,215.7L262.9,216.6L264.2,216.7L267.2,217.7L268.3,218.5L270,220.5L272.1,220.2L272.5,220.2L272.6,220.3L272.7,221L272.4,224L273,227.1L273.4,231.7L273.2,232.5L272.7,233.9L272.7,234.7L272.6,235.2L272.7,235.5L273.4,235.8L274.8,236L278.2,235.4L278.5,235.6L279.4,236.1L280,237L280,237.4L279.2,238.1L279,239.3L279.3,241.1L279.1,241.3L278.4,241.7L278.2,244.3L278,244.5L277.1,244.8L273,244.6L272.5,244.7L271,245.4L268.4,245.9L267.6,246.2L266.6,247L265.9,247.9L265.8,248.8L265.6,249L264.1,248.8L263.6,249.5L260.6,250.7L260.3,250.9L259.9,251.8L259.5,254.4L259.1,256.7L258.9,257L258,257.8L257.9,258.1L258,258.9L257.6,260.6L257.2,265L256.8,266.3L256.1,266.4L255.5,267L254.5,267.8L252.2,267.2L250.4,266.5L244.4,265.1L243.7,264.3L243.4,263.1L242.3,262.8L240.8,264.6L235.8,263.5L234,263.9L233,263.3L230.2,263.2L228.1,262.1L225,262.9L222.6,263L219.2,261L215.6,260.4L212.7,260.6L211.2,260.4L208.8,259.7L207.6,258.9L205.7,259.5L204.9,258.4L199.5,257.5L198.5,255.5L197.8,253.8L197.7,251.9L196.4,248.7L196,244.1L195.5,242.3L194.8,240.7L193.8,239.4L192.5,237.9L191.3,237.3L186.3,236.2L185.3,236.4L183.1,237.1L180.7,238.7L176.8,239.6L176,240.3L175,241.8L173.7,242.7L172,242.5L170.1,243.4L166.6,246L164.8,246.7L163.2,246.7L161.6,245.5L157.9,243.8L155.5,243.3L152.1,243.7L150.6,243.4L147.9,241.5L147.2,240.1L145.6,239.2L140.8,237.1L136.9,234.4L136.2,233.3L135.7,231.8L134,229.9L130.1,228.4L128,226.7L125.4,226.4L123.1,226.4L122,226.1L121.1,225.4L117.8,222.1L117.8,220.7L115.8,217.4L115.3,216.2L114.9,212.9L114.4,212.1L112.3,210.7L111.9,209.8L112.4,208.6L112.4,207.7L111.3,206.9L109.7,206.5L109.3,205.4L109.6,203.5L109.4,202.2L107.9,200.2L105.8,198.2L103.7,195.2L102.9,194.5L102.3,192.5L101.6,190.1L100.4,190L94.6,192.8L92.9,191.2L87.9,188.4L87.5,188L87.1,187.4L87.8,187L88.4,186.9L89.7,187.4L90.4,186.8L90.1,185.8L88.9,185.3L87.1,185.3L87.6,186.2L86,187L85.6,188.1L85.9,189.4L86,191.3L85.3,192.2L84.9,192.7L82.7,192.8L81.7,193.6L81,193.8L80.1,193.2L79.5,192.6L79,191.5L78.8,190.7L79,190.3L78.8,189.6L78.1,188.8L77.4,188.3L76.7,188.2L76.1,187.7L75.6,186.7L74.5,186.1L73.8,185.9L73.8,183L73.8,180.3L73.8,177.7L71.4,177.6L69.3,177.5L69.3,175.3L69.3,171.3L70.3,168.1L71.3,165L69.8,162.8L68.1,160.4L67,159.3L65.8,156.3L65.1,155L64.6,154.5L64,154.2L61.8,154.3L59.7,152.7L57.3,150.8L54.3,148.4L51.7,146.9L50.7,146.6L48.2,146.5L47.9,146.1L47.8,145.3L47.8,144.4L48.5,143L48.6,142.1L46.9,139.1L46.4,138.2L45,137.8L45.2,137L45.2,136.4L45,135.9L44.7,135.7L44.3,135.7L43.1,136L42.3,134.7L39.6,130.8L38.7,130.3L38.5,130.1L39.2,128.9L40.3,127.1L40.5,126.1L40.3,124.9L39.1,122.8L39.4,121.9L39.9,120.9L39.9,120.1L40.7,120.2L41.7,120.2L42.1,119.6L42.1,117.4L42.3,116.5L45.6,112.8L47.2,111.9L48.4,111.1L48.7,110L48.5,109.4L48.3,108.5L48.2,107.9L46.8,106.2L46.3,105.3L46.3,104.6L46.6,103.2L47.2,102.1L49.1,101.5L50.2,100.9L50.3,100.4L48.9,99.6L45.9,99.4L43.6,99.6L42.9,99.4L41.9,97.9L40.7,97L39.7,96.5L38.7,96.6L38.1,96.4L37.9,95.8L36.4,90.7L36,90L35.3,89.8L34.7,89.8L34.3,89.5L33.9,88.8L33.6,87.9L33.6,86.7L33.6,85.7L33.4,85L32.9,84.3L32.2,83.8L31.6,83.3L30.4,78.8L30,77.6L30,77.5L30,77.3L29.9,76.2L30.4,75.3L30.4,75L29.3,73.8L27.8,72.7L27.4,72.5L27.4,71.3L27.5,70.4L27.3,69.6L27,69.1L27,68.7L27.6,67.8L27.2,67.3L25,65.8L24.2,65.1L22.7,64.9L22.5,64.5L22.8,63.5L23.3,62.2L24.1,61L24.4,60.4L24.7,59.3L24.8,58.5L25.7,57.4L25.8,57.1L25.5,56.8L24.8,56.6L24,56.5L23.7,56.3L23.6,55.7L23.7,53.3L23.4,51.9L23.2,50.8L23.4,48.5L22.8,48L22,46.8L21.7,45.8L21.8,45.4L22,44.7L22.1,43.8L22.1,43.2L21.3,42.5L20.8,41.9L20.7,41.1L20.5,40.3L20.1,39.6L20,39.1L20.3,38.8L21.4,38.6L22.9,38.7L24.2,38.8L25,38.3L25.8,34L26.7,32.9L27.6,32.2L29.5,33.8L30.2,34.3L30.7,34.3L31,34.7L33.2,38.3L34.1,39.4L34.7,40.2L35.1,41.2L35.7,41.9L36.6,42.3L37.7,43.3L38.4,44L39.7,45.5L40.9,46.1L45.6,47.3L48.2,47.8L48.9,47.9L50.9,47.2L53.3,47.3L54.1,47.3L57.2,44.2L58.2,43.1L60,42.5L61,41.3L62.7,39.7L64.7,38.3L66.6,37L68,36.2L70.6,34.3L72.2,33.7L73.6,33.7L75.7,35.9L77.4,37.9L78,38.7L77.1,39.5L75.4,40.2L75.1,40.8L75,41.5L75.1,42.1L75.3,42.7L77.3,43.9L77.6,44.6L77.6,45.3L77.3,45.8L76.9,46L75.5,46.4L74.3,46.8L73.9,47.2L73.5,47.7L73.6,48.2L73.9,48.8L76.4,50.4L76.7,51L77.1,51.9L77.8,52.4L78.8,52.5L79.3,52.8L81.6,55.8L82.2,56L85,55.4L85.3,55.4L85.4,56.2L85.8,60.4L86.1,62.6L86.6,64.8L87.3,66.7L88.2,68.6L89.4,69.7L92.1,71.1L93.4,71.5L96.9,71.7L100.3,72.4L102.3,73L103,73.5L103.5,74.1L105.1,77.4L107.8,79.7L113.1,83.1L115.7,84.2L124.4,86.4L130.1,86.3L146.1,82.1L151.4,81.1L153.4,81.1L152.2,81.9L150.2,82.4L151.4,83L153.3,83.1L154.1,83L154.8,82.4L154.9,81.6L154.8,80.7L153.9,76.8Z"/></svg>
