<svg xmlns="http://www.w3.org/2000/svg" viewBox="0 0 400 300"><path d="M157.3,0L131.2,24.5L100,49.6L66.5,60.3L53.9,60.4L42.1,72.1L26.1,103.3L1.5,123.3L0,123.5L0,0Z" fill="#2c2c34" stroke="#474751" stroke-width="0.8"/><path d="M239.8,116.2L241.1,116.4L243.2,115.4L244.1,114.7L246.3,112.5L247.6,111.9L249.6,112L250.6,111.9L250.6,112.1L249.4,113L248.4,113.3L247,114.7L245.6,117.7L244.6,119.2L244.7,119.8L245.9,121L247.2,121.6L248.4,121L248.9,121.3L249.4,122.1L249.7,123L249.8,123.8L249.5,125.6L248.8,127.4L247.8,128.8L248,129.3L248.7,129.6L252.5,128.6L252.9,128.6L253.1,129.1L253.2,130L253.4,130.8L253.8,131.5L253.6,132.3L252,134.6L254,133.1L255.5,132.7L258.2,133.4L259.2,134.3L259.9,135.7L260.8,135.3L261.2,135.3L261.8,136.1L261.8,137L261.4,138.3L261.2,139.4L260.8,139.9L259.9,140.2L259.7,140.7L260,141.5L260.6,142.4L261.4,142.4L261.5,142.8L261.6,143.3L261.4,143.9L261.2,144.3L260.8,144.5L260.2,145.1L262.2,146.5L262.5,146.9L262.5,147.7L262.3,148.5L262,149.3L261.4,149.8L260,149.9L259.1,150.5L259.4,151.4L259.4,152.7L259.1,154L258,156.2L256.9,157.3L255.9,158L254,157.8L253,157.2L253.1,159L252.1,160.1L252.3,161.1L252.7,161.5L252.4,162.7L252,163.9L251.2,165.2L250.2,165.9L248.4,166.9L246.8,168.5L245.7,169.2L243,169.1L240.3,170.1L236.5,172.3L233.8,174L231.8,176L229.2,179.1L227.2,180.4L226.1,180.8L223.8,181.1L222,181.9L215.8,183.5L213.7,184.4L213.5,185.2L212.6,186.4L212.5,186.8L212.9,187.1L213,187.5L212.2,189L210.7,189.9L210,189.9L209.1,189L208.7,189.1L208.6,189.2L208.6,189.5L209.1,190.6L208.1,191L204.1,192.3L197.3,191.4L194.6,190.4L191.3,188.9L189.3,188.5L186.5,188.4L184.2,186.3L183.1,185L183,184.5L183.1,183.9L183.3,183.5L183.7,183.2L184.5,183.2L184.6,183L184,182L183.4,182.3L181.9,183.8L181.3,183.7L180.4,183L180.4,182.3L178.7,182L177.2,181.1L175.7,179.9L175.5,179.4L176.2,178.6L176.1,178.5L175.5,178.4L174.5,178.6L172.9,180.2L172.2,180.6L161.6,181L158.9,181.2L158.4,181.4L157.9,180.3L157.5,178L157.3,176.4L157.4,175.6L157.8,174.7L158.4,174.9L158.9,175.6L159.4,176.6L160,177.1L163.7,175.9L165.2,175L165.8,174.2L166.6,172.9L167.4,172.2L167.8,171.5L168.5,169.4L169,168.5L169.6,167.7L170.3,167.3L172,167L170.9,166.5L169.9,166.5L166.4,168.7L165.2,168.7L165.3,168.3L165.8,167.7L167,166.6L166.1,166.5L165.8,166L165.8,165L166.4,163.3L169.2,161.1L170.2,160.8L170.5,160.4L170.1,160L169.6,159.8L166.7,162.1L164.6,162.9L164,162.7L162.9,161.8L162.6,161.4L162.1,160.4L162.2,159.8L163.2,158L163,157.7L162.3,157.5L160.5,155.8L157.6,156L150.4,155.1L148.9,155.5L146.5,156.9L145,157.3L144.3,157.1L143.7,156.3L143.1,155.3L142.7,154L142.9,153.1L143.8,152.6L144.5,152.4L146.4,152.7L148.8,151.8L150.4,151.6L150.8,151.4L151.7,150.5L152.1,150.3L152.8,150.6L153.1,151.3L155.6,150.2L156.4,149.8L156.5,149.4L156.8,149L158,149.6L159,149.6L160.2,149.2L162.3,149.1L167.1,149L167.8,148.2L168.1,147.4L168.5,145.6L168.4,145.2L165.4,146.9L164.7,146.9L161.2,146L160,145L160.4,144.1L162.2,142.4L164.1,140.9L166.9,139.4L167.5,138.8L167.6,138.1L165.8,136.8L162.3,137.2L161.4,135.7L158.5,134.8L156.5,135.3L155.5,134.4L153,135.7L147.5,137.5L145.2,138.8L144.1,139.2L142.7,138.2L140.4,137L137.7,136.6L137.5,136L139,133.9L140.1,133.5L141.2,133.7L143.2,135.1L144.6,135.6L142.8,133.4L142.9,132.6L142.7,131.4L142.2,130.8L141.7,129.4L141.9,129L142.6,128.8L144,129.3L147.4,131.7L149,131.3L149.9,130.4L151.1,129.7L150.8,129.4L147.9,129.3L146.3,128.8L145.5,128.2L144.8,126.9L145.1,126.4L145.9,125.9L148.4,126.1L146.7,124L145.6,122.8L145.5,122.2L145.6,121.5L145.7,121L145.9,120.8L148.8,122L149.4,122L148.8,121.2L147.6,120.1L147.5,119.6L148.1,119.3L148.3,118.6L148.3,118.1L149.2,117.6L150.1,117.6L150.9,118L153.7,120.3L154.1,120.9L154.2,121.7L154.1,122.8L154.2,123.2L155.2,122.9L156.1,123.3L156.5,123.2L157.6,121.6L158.3,122L158.7,122.7L158.8,123.4L158.9,124.3L158.7,126.2L158.8,126.4L159.5,125.3L160.8,125.3L161,124.8L161,122.8L160.9,121.1L160.7,120.8L156.6,118.4L155.9,117.9L155,116.7L155.2,116.1L156,115.6L157.2,115.4L160,115.4L160.3,115.2L159.8,114.6L158.4,114.2L158.1,113.8L158,113.1L156.4,113.5L154.7,113.5L153,113.1L153,112.6L153.7,111.8L155,110.5L155.6,110.2L157.5,110.4L159.4,110L161,110.5L162.1,111.8L163.9,114L166.2,115.4L166.4,115.9L167.7,117.1L170.1,120.2L172.6,122L172.7,122.5L172.3,123L171.4,123.6L171.6,124L172.9,124.4L173.7,125.6L173.8,126.2L173,130L172.6,130.7L172,131.2L169.7,130.4L170.3,131.6L172,132.9L172.3,133.6L172.1,134.3L172.2,134.5L172.9,134.1L173.1,134.5L173,135.6L172.7,136.6L172.3,137.4L172.4,137.7L173.1,137.6L173.7,137.8L174.6,138.8L175.4,142L175.8,143L176.1,142.1L176.4,139.8L176.7,138.6L177,138.6L177.3,138.2L177.5,137.5L178,134.8L179.5,132.8L180.3,132.3L180.9,132.1L181.3,132.4L182.5,134.4L183.2,134.8L183.5,134.7L184,133.3L184.6,130.6L184.8,127.5L184.4,124.2L184.6,121.8L185.4,120.3L186.3,119.9L187.5,120.5L188.4,121.3L190.2,124.7L191.6,126.4L192.8,128.3L193.4,128.9L194.6,129.2L194.9,129.1L195.1,128.6L195.2,127.9L195,123.1L195.3,121.6L195.8,120.6L198,120L199.1,119.3L200.3,118.2L201.2,117.6L202,117.5L202.7,118L203.5,118.9L204.8,120.7L206.4,123.7L208.5,125.9L209.5,129.5L209.7,130.1L210,130.1L210.3,129.7L210.4,129L210.5,127.5L209.9,125.4L208,120.1L208,119.1L208.2,118.2L209.6,118.2L212.7,118.6L213.7,119.5L215.8,122.7L216.4,123.5L216.8,123.7L216.9,123.3L217.7,122.7L218.3,122L219.2,120.2L221.3,117L221.7,116.9L222.4,117.1L223.4,118L223.9,118.6L224.9,119.2L225.9,119L227.4,117.9L229,117.2L229.5,115.6L229.6,114.8L228.3,110L228.9,109L231.7,107.8L234.1,107.7L234.7,108.1L236.2,110.4L237.3,111.6L237.8,112.5L237.9,114.6L238.6,115.4Z" fill="#b8e653" stroke="#0c0e06" stroke-width="1"/></svg>
