<svg xmlns="http://www.w3.org/2000/svg" viewBox="0 0 300 300"><path fill="#e8e8ea" d="M232.7,79.8L235.4,80.1L239.9,78L241.8,76.7L246.3,72L249.1,70.7L253.3,71L255.2,70.7L255.3,71.2L252.7,73.1L250.7,73.7L247.7,76.5L244.9,82.8L242.8,85.9L242.9,87.2L245.4,89.7L248.1,91L250.7,89.8L251.8,90.3L252.8,92L253.3,93.8L253.5,95.6L253,99.2L251.5,103L249.5,106L249.7,107L251.4,107.5L259.3,105.5L260.1,105.6L260.5,106.6L260.6,108.5L261.1,110.1L261.8,111.6L261.6,113.1L258.1,117.9L262.3,114.9L265.4,114L271,115.5L273.2,117.3L274.5,120.3L276.5,119.3L277.3,119.4L278.5,121.1L278.5,122.9L277.7,125.6L277.3,128L276.4,129L274.6,129.7L274.1,130.6L274.9,132.4L276.1,134.1L277.7,134.2L277.9,135.1L278,136.1L277.8,137.3L277.3,138.1L276.4,138.5L275.3,139.8L279.4,142.6L279.9,143.6L280,145.2L279.7,146.8L279,148.6L277.7,149.7L274.8,149.9L272.9,151L273.5,153L273.5,155.5L273,158.4L270.6,162.8L268.3,165.2L266.2,166.6L262.3,166.1L260.3,165L260.5,168.7L258.3,171.1L258.7,173L259.5,174L259.1,176.5L258.1,179L256.4,181.5L254.5,183.2L250.6,185.2L247.3,188.5L245.1,189.9L239.5,189.8L233.8,191.9L225.8,196.3L220.3,199.9L216.2,204L210.7,210.5L206.5,213.3L204.2,214L199.6,214.6L195.7,216.4L182.9,219.7L178.6,221.5L178,223.1L176.2,225.6L176.1,226.5L176.9,227.2L177,228.1L175.4,231L172.2,233.1L170.8,233.1L169,231.2L168.1,231.3L167.9,231.6L167.9,232.1L168.9,234.4L166.9,235.3L158.6,237.9L144.4,236L138.8,234L131.9,230.9L127.7,230.1L121.8,229.9L117,225.6L114.8,222.9L114.6,221.7L114.9,220.4L115.3,219.6L116.1,219.1L117.7,219.1L117.9,218.6L116.7,216.5L115.5,217.2L112.4,220.3L111,220.1L109.2,218.6L109.2,217.2L105.6,216.6L102.6,214.7L99.5,212.1L99,211.1L100.5,209.6L100.2,209.3L99.1,209L96.9,209.5L93.6,212.8L92.1,213.7L70.1,214.4L64.5,214.8L63.4,215.3L62.4,213.1L61.6,208.1L61.2,204.9L61.5,203.3L62.3,201.4L63.5,201.8L64.6,203.2L65.6,205.4L66.8,206.4L74.4,203.8L77.6,202.1L78.9,200.4L80.4,197.7L82.2,196.1L82.9,194.8L84.5,190.4L85.6,188.4L86.8,186.9L88.3,185.9L91.8,185.3L89.4,184.2L87.4,184.2L80.1,188.8L77.7,188.8L77.8,188.1L78.8,186.8L81.3,184.5L79.6,184.4L78.9,183.4L78.8,181.3L80.1,177.7L86,173.2L88.1,172.5L88.7,171.5L87.9,170.9L86.7,170.4L80.7,175.1L76.4,176.7L75.1,176.5L72.9,174.6L72.2,173.8L71.2,171.6L71.3,170.4L73.4,166.7L73.1,165.9L71.6,165.6L67.8,162.2L61.7,162.5L46.8,160.5L43.7,161.4L38.7,164.3L35.6,165.3L34.2,164.7L32.9,163.1L31.7,161L30.7,158.4L31.1,156.5L33.1,155.4L34.6,155L38.6,155.5L43.6,153.7L46.7,153.3L47.6,153L49.5,151L50.4,150.6L51.8,151.2L52.5,152.6L57.5,150.5L59.3,149.5L59.4,148.8L60.2,148L62.6,149.2L64.7,149.2L67.1,148.4L71.6,148.1L81.5,147.9L83,146.2L83.7,144.7L84.6,140.8L84.2,140.1L77.9,143.6L76.6,143.5L69.4,141.6L66.8,139.6L67.7,137.8L71.4,134.1L75.4,131.2L81.1,128L82.5,126.7L82.7,125.2L78.8,122.6L71.5,123.3L69.6,120.2L63.6,118.3L59.6,119.5L57.5,117.6L52.2,120.2L40.7,124L36.1,126.7L33.7,127.5L30.9,125.4L26,122.9L20.5,122.2L20,120.8L23.2,116.4L25.4,115.6L27.6,116L31.8,119L34.7,120L31.1,115.5L31.1,113.8L30.9,111.2L29.8,110.1L28.7,107.2L29.1,106.3L30.5,105.9L33.5,106.9L40.5,111.9L43.9,111L45.8,109.2L48.3,107.8L47.6,107.1L41.6,107L38.3,106L36.7,104.6L35.3,102L35.8,100.9L37.5,99.9L42.6,100.2L39.2,95.9L36.9,93.4L36.6,92.2L36.8,90.7L37.1,89.7L37.6,89.2L43.5,91.7L44.8,91.8L43.6,90.2L41,87.7L40.8,86.8L41.9,86.1L42.5,84.7L42.5,83.5L44.3,82.6L46.1,82.5L47.9,83.4L53.6,88.1L54.5,89.5L54.7,91.2L54.5,93.4L54.6,94.2L56.9,93.5L58.7,94.5L59.5,94.2L61.7,91L63.2,91.7L64.1,93.2L64.4,94.7L64.6,96.5L64.1,100.4L64.2,100.9L65.8,98.7L68.4,98.6L68.8,97.5L68.9,93.3L68.6,89.9L68.3,89.2L59.7,84.3L58.2,83.1L56.3,80.7L56.8,79.6L58.4,78.4L61,78L66.8,78.1L67.4,77.6L66.3,76.3L63.5,75.4L62.9,74.7L62.6,73.3L59.3,74.1L55.7,74.1L52.3,73.3L52.2,72.1L53.6,70.6L56.4,67.9L57.7,67.2L61.7,67.7L65.6,66.9L68.8,67.8L71.3,70.5L74.9,75.1L79.7,78.1L80.2,79L82.8,81.5L87.9,87.9L93,91.7L93.3,92.7L92.4,93.8L90.5,95.2L90.9,95.9L93.6,96.8L95.4,99.3L95.5,100.4L93.8,108.3L93,109.9L91.8,110.8L87,109.3L88.2,111.8L91.7,114.4L92.4,115.9L91.9,117.3L92.3,117.7L93.6,116.9L94.1,117.7L93.8,120.1L93.3,122.1L92.4,123.7L92.7,124.4L94.1,124.2L95.3,124.6L97.2,126.8L98.9,133.4L99.6,135.5L100.2,133.6L100.9,128.8L101.6,126.3L102.2,126.2L102.8,125.4L103.2,123.9L104.2,118.4L107.4,114.3L109,113.1L110.4,112.8L111.1,113.3L113.5,117.6L115,118.3L115.8,118.1L116.8,115.2L118.1,109.6L118.3,103.3L117.6,96.3L118.1,91.3L119.6,88.2L121.6,87.3L124.1,88.6L126,90.4L129.6,97.3L132.5,100.9L135,104.9L136.2,106.1L138.7,106.8L139.3,106.5L139.8,105.6L140,104.1L139.5,94.1L140.2,91L141.2,88.8L145.8,87.5L148.2,86.1L150.6,83.9L152.4,82.6L154.1,82.4L155.7,83.3L157.3,85.3L160,89.1L163.3,95.3L167.6,99.9L169.8,107.3L170.3,108.6L170.8,108.7L171.4,107.8L171.7,106.4L171.8,103.2L170.6,98.8L166.7,87.7L166.6,85.7L167.1,84L169.9,83.9L176.4,84.8L178.5,86.5L182.9,93.2L184.2,94.9L184.8,95.4L185.2,94.5L186.9,93.2L188,91.7L190,88L194.4,81.3L195.2,81.1L196.5,81.6L198.7,83.4L199.8,84.8L201.8,85.9L204,85.5L207,83.1L210.2,81.7L211.4,78.4L211.6,76.9L208.9,66.9L210,64.8L215.9,62.3L220.9,62.1L222.1,62.8L225.4,67.7L227.5,70.1L228.7,72L228.9,76.4L230.2,78Z"/></svg>
