<svg xmlns="http://www.w3.org/2000/svg" viewBox="0 0 400 300"><path d="M400,6.7L399.5,6.5L397,10.3L393.2,9.6L391,0L400,0ZM400,113L399.9,113L400,112.9L400,113Z" fill="#2c2c34" stroke="#474751" stroke-width="0.8"/><path d="M136,51.5L140.7,55.6L155.2,58.4L150.1,68.8L148.9,79.5L146.1,82.1L141.5,80.7L141.8,84.5L134.5,92.8L134.3,99.4L139.1,97.1L142.6,103.5L142.2,107.5L145.1,112.9L141.6,117.3L144.2,128.2L149.7,130L148.5,136L139.4,143.8L119.6,140.1L105,144.6L103.8,152.8L92.2,154.6L80.9,148.4L77.2,151.3L58.7,145.1L54.7,139.8L59.9,131.4L61.8,103.1L51.4,87.8L44,80.3L28.7,74.5L27.7,63.5L40.7,60.2L57.6,64.1L54.4,46.7L63.9,53.3L87.3,41.2L90.3,28.3L99.1,25L100.5,30.6L105.2,30.9L109.9,37.2L116.9,44.7L122.1,43.4L130.9,50.5L133.1,51.9ZM161.7,150.7L168.2,145.5L169.9,157.2L166.6,167.6L162,164.8L159.7,155.7Z" fill="#2c2c34" stroke="#474751" stroke-width="0.8"/><path d="M168,300L164.8,284.2L158.6,279.4L158.5,276.5L150.3,269.4L149.4,260.3L155.6,253.5L158,243.3L156.4,231.5L158.5,225.1L169.4,220L176.4,221.5L176.1,227.9L184.6,223.2L185.4,225.6L180.3,231.8L180.3,237.5L183.7,240.6L182.4,251.3L175.8,257.4L177.7,264L182.9,264.2L185.4,270L189.3,271.8L188.7,281L183.8,284.4L180.7,288.2L173.8,292.8L174.9,297.6L174.5,300L168,300Z" fill="#2c2c34" stroke="#474751" stroke-width="0.8"/><path d="M32.7,300L36.7,298.4L37.2,289.7L43,288.7L47.5,284.3L60.7,282.3L62.5,277.6L59.9,275.1L56.4,262.4L55.8,255L52,247.2L61.7,240.4L72.5,238.3L78.9,233.1L88.6,229.3L105.6,227.1L122.2,226.1L127.3,227.9L136.7,223L147.5,222.9L151.6,225.8L158.5,225.1L156.4,231.5L158,243.3L155.6,253.5L149.4,260.3L150.3,269.4L158.5,276.5L158.6,279.4L164.8,284.2L168,300L32.7,300Z" fill="#2c2c34" stroke="#474751" stroke-width="0.8"/><path d="M391,0L393.2,9.6L384.6,10.6L381.5,14.1L380.9,22.3L376.8,20.7L367.8,21.5L365.2,17.7L361.4,20.6L357.6,18.2L349.7,17.9L338.5,14L328.3,12.7L320.6,13.1L315.1,17.5L310.2,18.1L310,10.9L307,3.3L312.8,0L391,0Z" fill="#2c2c34" stroke="#474751" stroke-width="0.8"/><path d="M400,100.2L392.8,98.5L392.1,93L382.8,94.8L379.1,102.8L371.3,113.5L366.8,111L362,113.3L357.5,110.7L360.1,109.1L361.8,104.2L364.6,99.6L363.9,97L366,95.8L366.9,97.8L372.9,98.2L375.5,97.2L373.7,95.7L374.3,93.5L370.8,89.8L369.4,83.6L365.7,81.2L366.5,76.1L361.9,72.1L357.8,71.5L350.4,66.8L343.7,68.3L341.3,70.5L337.1,70.5L334.6,74.1L327.1,75.5L323.7,77.8L319,74.1L312.6,74.1L306.4,72.4L302,75.6L301.3,71.6L295.7,67.5L297.7,61.3L300.5,57.4L302.7,58.3L300.1,51.3L309.2,38.4L314.2,36.5L315.3,32.1L310.2,18.1L315.1,17.5L320.6,13.1L328.3,12.7L338.5,14L349.7,17.9L357.6,18.2L361.4,20.6L365.2,17.7L367.8,21.5L376.8,20.7L380.9,22.3L381.5,14.1L384.6,10.6L393.2,9.6L393.2,9.6L397,10.3L399.5,6.5L400,6.7L400,100.2Z" fill="#2c2c34" stroke="#474751" stroke-width="0.8"/><path d="M312.8,0L307,3.3L310,10.9L310.2,18.1L315.3,32.1L314.2,36.5L309.2,38.4L300.1,51.3L302.7,58.3L300.5,57.4L291,51.4L283.7,53.6L279,52L273,55.4L268,49.9L263.8,52L263.3,51L258.7,43.4L251.2,42.4L250.2,37.5L243.3,35.8L241.8,39.8L236.4,36.6L237,32.2L229.5,30.8L224.7,25.7L220.6,15.4L221.4,9.8L218.9,1L218.3,0L312.8,0Z" fill="#2c2c34" stroke="#474751" stroke-width="0.8"/><path d="M244.4,72L243.7,78.1L238,78.2L240,81.4L236.6,90.9L234.7,93.4L225.9,93.7L220.9,97L212.6,95.9L198.2,92.1L195.9,87L186,89.6L184.9,92.4L178.7,90.3L173.6,89.9L169.1,87.2L170.6,83.6L170.2,81L173.2,80.1L178.3,84.3L179.8,80.3L188.6,81L195.8,78.3L200.6,78.7L203.8,81.8L204.7,79.3L203.3,69.5L206.9,67.6L210.4,60.6L217.9,65.5L223.6,59.2L227.1,58.1L234.9,62.7L239.6,62L244.3,64.8L243.4,66.8Z" fill="#2c2c34" stroke="#474751" stroke-width="0.8"/><path d="M295.7,67.5L301.3,71.6L302,75.6L295.9,78.7L291.1,88.8L285.1,98.7L277,101.5L270.7,100.8L263,104.6L259.3,106.8L251,104L243.5,97.8L240.3,96L238.3,91L236.6,90.9L240,81.4L238,78.2L243.7,78.1L244.4,72L249.5,75.8L253.3,77.5L261.7,75.6L262.5,72.6L266.5,72.2L271.4,69.8L272.5,70.8L277.2,68.9L279.6,65.3L282.9,64.4L293.6,69Z" fill="#2c2c34" stroke="#474751" stroke-width="0.8"/><path d="M341.3,70.5L343.7,68.3L350.4,66.8L357.8,71.5L361.9,72.1L366.5,76.1L365.7,81.2L369.4,83.6L370.8,89.8L374.3,93.5L373.7,95.7L375.5,97.2L372.9,98.2L366.9,97.8L366,95.8L363.9,97L364.6,99.6L361.8,104.2L360.1,109.1L357.5,110.7L355.7,104.1L356.8,97.9L356.5,91.5L350.7,82.7L347.5,76.4L344.4,72Z" fill="#2c2c34" stroke="#474751" stroke-width="0.8"/><path d="M357.5,110.7L362,113.3L366.8,111L371.3,113.5L371.5,117.1L366.6,120.2L363.6,118.9L360.8,135.8L354.9,134.4L347.6,129.3L335.7,132.5L330.8,136.1L316,135.4L308.3,133.2L304.4,134.2L301.5,128.4L299.6,126L302,123.6L299.5,121.9L296.4,125L290.5,120.9L289.7,115.1L283.6,111.7L282.5,107.1L277,101.5L285.1,98.7L291.1,88.8L295.9,78.7L302,75.6L306.4,72.4L312.6,74.1L319,74.1L323.7,77.8L327.1,75.5L334.6,74.1L337.1,70.5L341.3,70.5L344.4,72L347.5,76.4L350.7,82.7L356.5,91.5L356.8,97.9L355.7,104.1Z" fill="#2c2c34" stroke="#474751" stroke-width="0.8"/><path d="M218.3,0L218.9,1L221.4,9.8L220.6,15.4L224.7,25.7L220.2,27.4L217.6,25.5L215.1,28.6L207.8,31.7L204.1,35.6L196.8,39L198.6,43.7L199.7,50.3L204.8,54L210.4,60.6L206.9,67.6L203.3,69.5L204.7,79.3L203.8,81.8L200.6,78.7L195.8,78.3L188.6,81L179.8,80.3L178.3,84.3L173.2,80.1L170.2,81L159.5,76.4L157.4,79.6L148.9,79.5L150.1,68.8L155.2,58.4L140.7,55.6L136,51.5L136.6,44.7L134.5,41.2L135.7,30.5L134,13.7L140,13.7L142.6,7.5L143.8,0L218.3,0Z" fill="#2c2c34" stroke="#474751" stroke-width="0.8"/><path d="M301.5,128.4L304.4,134.2L308.3,133.2L316,135.4L330.8,136.1L335.7,132.5L347.6,129.3L354.9,134.4L360.8,135.8L355.6,141.6L351.9,151.4L355.1,159.1L346.5,157.3L336.3,161.6L336.1,168.2L327,169.5L319.9,164.8L311.9,168.5L304.5,168.1L303.7,159.2L298.7,154.9L300.4,153L299.3,151.3L301,147L304.8,142.7L299.9,136.7L299,131.6Z" fill="#2c2c34" stroke="#474751" stroke-width="0.8"/><path d="M338,245.5L336.7,249.2L322.3,250.2L322.4,248.2L310.1,245.8L312,240.5L317.5,244.7L325.3,244L332.8,244.9L332.5,247ZM304.5,168.1L311.9,168.5L319.9,164.8L327,169.5L336.1,168.2L336.3,161.6L341.1,165.1L338,173.5L335.6,175L329.5,174.6L324.3,173.4L312.1,176.8L319.1,184.2L314,186.4L308.4,186.4L303.1,179.6L301.2,182.5L303.4,190.3L308.5,196.4L304.7,199.3L310.3,205.2L315.2,208.9L315.4,216.1L306.1,212.7L309.1,219.2L302.7,220.6L306.5,231.6L299.8,231.8L291.6,226.4L287.8,216.2L286,207.8L282.1,201.9L277,194.5L276.3,190.8L281,184.4L281.6,180.1L284.9,178.2L285,174.7L291.6,173.6L295.5,170.6L300.9,170.9L302.5,168.6Z" fill="#2c2c34" stroke="#474751" stroke-width="0.8"/><path d="M400,235.1L392.4,228.9L381.5,228.4L379.2,233.6L372.3,235.1L362.6,228.5L351.6,228.7L345.6,216.1L338.3,209.1L343.2,199.1L336.8,192.9L347.9,180.3L363.4,179.8L367.7,169.7L386.8,171.5L398.9,162.8L400,162.4L400,235.1ZM336.3,161.6L346.5,157.3L355.1,159.1L356.3,164.3L365.1,168.6L363.3,171.9L351.3,172.7L347.1,176.7L338.7,183.9L335.5,177.7L335.6,175L338,173.5L341.1,165.1Z" fill="#2c2c34" stroke="#474751" stroke-width="0.8"/><path d="M285,174.7L284.9,178.2L281.6,180.1L281,184.4L276.3,190.8L274.6,189.9L274.4,187L268.8,182.6L268,176.3L268.8,167.2L270.2,163L268.5,160.9L267.8,156.6L272.2,149.9L272.8,152.4L275.5,151.2L277.7,154.9L280,156.3L280.7,161.2L279.5,165.8L280.9,171.5Z" fill="#2c2c34" stroke="#474751" stroke-width="0.8"/><path d="M240.3,96L243.5,97.8L251,104L259.3,106.8L263,104.6L265.5,110.2L268.7,114.3L264.8,119.6L260.3,116.5L253.3,116.7L244.7,114.3L240,114.6L237.8,117.6L234.2,114.3L232.1,120.2L237,126.8L239.2,131.2L243.8,136.4L247.6,139.4L251.4,145.2L260.3,150.4L259.2,152.7L249.8,147.7L243.9,142.7L234.7,138.6L226.3,128.4L228.3,127.3L223.7,121.4L223.6,116.6L217.1,114.3L214,120.5L211.1,115.7L211.3,110.7L211.6,110.5L218.6,111L220.5,108.6L223.9,110.9L227.8,111.2L227.8,107.2L231.3,105.7L232.3,99.9Z" fill="#2c2c34" stroke="#474751" stroke-width="0.8"/><path d="M170.2,81L170.6,83.6L169.1,87.2L173.6,89.9L178.7,90.3L178,96.3L173.5,98.8L166.1,96.9L163.9,102.8L159.1,103.3L157.4,101L151.8,105.8L146.9,106.5L142.6,103.5L139.1,97.1L134.3,99.4L134.5,92.8L141.8,84.5L141.5,80.7L146.1,82.1L148.9,79.5L157.4,79.6L159.5,76.4Z" fill="#2c2c34" stroke="#474751" stroke-width="0.8"/><path d="M134.5,41.2L136.6,44.7L136,51.5L133.1,51.9L130.9,50.5L131.9,41.8Z" fill="#2c2c34" stroke="#474751" stroke-width="0.8"/><path d="M135.7,30.5L134.5,41.2L131.9,41.8L130.9,50.5L122.1,43.4L116.9,44.7L109.9,37.2L105.2,30.9L100.5,30.6L99.1,25L107.1,21.9L114.5,23.1L123.8,19.8L130.2,26.8Z" fill="#2c2c34" stroke="#474751" stroke-width="0.8"/><path d="M143.8,0L142.6,7.5L140,13.7L134,13.7L135.7,30.5L130.2,26.8L123.8,19.8L114.5,23.1L107.1,21.9L112.3,17.4L118.7,0L143.8,0Z" fill="#2c2c34" stroke="#474751" stroke-width="0.8"/><path d="M0,161.3L0.9,160.3L6.8,160.8L9.6,167.5L5,171.2L4.9,181.5L3.2,183.4L2.8,189.6L0,190.3L0,161.3ZM0,193.6L2.5,198.5L0,206.1L0,193.6ZM0,207.3L3.2,210.8L1.8,214.2L0,216.5L0,207.3Z" fill="#2c2c34" stroke="#474751" stroke-width="0.8"/><path d="M0,216.5L1.8,214.2L3.2,210.8L0,207.3L0,206.1L0,206.1L2.5,198.5L0,193.6L0,190.3L0,190.3L2.8,189.6L3.2,183.4L4.9,181.5L5,171.2L9.6,167.5L6.8,160.8L0.9,160.3L0,161.3L0,136.5L0,136.5L5.9,137.7L19.4,137.7L30.1,140L38.5,139.3L54.7,139.8L58.7,145.1L77.2,151.3L80.9,148.4L92.2,154.6L103.8,152.8L104.4,160.7L94.9,169.6L82,172.5L81.1,176.9L74.9,184.2L71,194.9L74.9,202.3L69.1,208L67,216.3L59.4,218.8L52.2,228.5L39.5,228.7L29.9,228.4L23.6,232.9L19.8,237.5L14.9,236.5L11.1,232.3L8.3,225.1L0,223.4L0,216.5Z" fill="#2c2c34" stroke="#474751" stroke-width="0.8"/><path d="M9.2,0L5.6,7L0,10L0,0Z" fill="#2c2c34" stroke="#474751" stroke-width="0.8"/><path d="M90.6,0L89.5,9.6L84.4,14.4L88.4,22.8L79.3,31.1L65.9,31L48.8,35.4L44.1,32.2L37.5,39.6L28.2,37.8L21.1,43.8L15.8,40.7L30.5,24L39.5,20.6L39.4,20.6L23.7,17.9L20.9,11.4L31.4,6.3L27.5,0L90.6,0Z" fill="#2c2c34" stroke="#474751" stroke-width="0.8"/><path d="M212.6,95.9L220.9,97L225.9,93.7L234.7,93.4L236.6,90.9L238.3,91L240.3,96L232.3,99.9L231.3,105.7L227.8,107.2L227.8,111.2L223.9,110.9L220.5,108.6L218.6,111L211.6,110.5L213.9,109.2L211.5,103.1Z" fill="#2c2c34" stroke="#474751" stroke-width="0.8"/><path d="M300.5,57.4L297.7,61.3L295.7,67.5L293.6,69L282.9,64.4L279.6,65.3L277.2,68.9L272.5,70.8L271.4,69.8L266.5,72.2L262.5,72.6L261.7,75.6L253.3,77.5L249.5,75.8L244.4,72L243.4,66.8L244.3,64.8L245.7,61.5L250.1,61.7L253.6,60.2L253.8,58.7L255.8,58L256.4,54.5L258.7,53.8L260.3,51.1L263.3,51L263.8,52L268,49.9L273,55.4L279,52L283.7,53.6L291,51.4Z" fill="#2c2c34" stroke="#474751" stroke-width="0.8"/><path d="M224.7,25.7L229.5,30.8L237,32.2L236.4,36.6L241.8,39.8L243.3,35.8L250.2,37.5L251.2,42.4L258.7,43.4L263.3,51L260.3,51.1L258.7,53.8L256.4,54.5L255.8,58L253.8,58.7L253.6,60.2L250.1,61.7L245.7,61.5L244.3,64.8L239.6,62L234.9,62.7L227.1,58.1L223.6,59.2L217.9,65.5L210.4,60.6L204.8,54L199.7,50.3L198.6,43.7L196.8,39L204.1,35.6L207.8,31.7L215.1,28.6L217.6,25.5L220.2,27.4Z" fill="#2c2c34" stroke="#474751" stroke-width="0.8"/><path d="M400,252.3L398,248L400,247.8L400,252.3Z" fill="#2c2c34" stroke="#474751" stroke-width="0.8"/><path d="M0,263L4.3,260.1L11.1,247.4L14.2,239.9L21.6,239.9L27.7,245.2L37.2,244.3L47.6,247L52,247.2L52,247.2L55.8,255L56.4,262.4L59.9,275.1L62.5,277.6L60.7,282.3L47.5,284.3L43,288.7L37.2,289.7L36.7,298.4L32.7,300L0,300Z" fill="#2c2c34" stroke="#474751" stroke-width="0.8"/><path d="M324.3,300L323.1,296.1L326.7,290.5L340.1,290.3L349.7,293.4L359.7,296.9L364.4,298.7L372.1,295L376.2,291.6L385.1,290.6L392.3,292.1L395,298L397.3,294.1L400,295.1L400,300Z" fill="#2c2c34" stroke="#474751" stroke-width="0.8"/><path d="M174.5,300L174.9,297.6L173.8,292.8L180.7,288.2L183.8,284.4L188.7,281L189.3,271.8L201.1,276L205.3,274.9L213.7,276.9L227,282.2L231.7,292.8L240.8,295L254.9,300L255,300L174.5,300ZM273,300L275.3,297.3L273,288.3L276.1,282.6L283.4,277L290.3,275.4L303.9,277.8L307.3,283.1L311.1,283.2L314.3,285.2L324.2,286.6L326.7,290.5L323.1,296.1L324.3,300L273,300Z" fill="#2c2c34" stroke="#474751" stroke-width="0.8"/><path d="M260.3,150.4L251.4,145.2L247.6,139.4L243.8,136.4L239.2,131.2L237,126.8L232.1,120.2L234.2,114.3L237.8,117.6L240,114.6L244.7,114.3L253.3,116.7L260.3,116.5L264.8,119.6L268.4,119.6L265.9,125.8L270.8,131.2L269.3,137.7L266.9,138.4L265.1,139.6L261.8,142.9Z" fill="#2c2c34" stroke="#474751" stroke-width="0.8"/><path d="M298.7,154.9L303.7,159.2L304.5,168.1L302.5,168.6L300.9,170.9L295.5,170.6L291.6,173.6L285,174.7L280.9,171.5L279.5,165.8L280.7,161.2L282,161.3L282.5,158.5L288.4,156.4L290.6,155.9L294.1,155.1Z" fill="#2c2c34" stroke="#474751" stroke-width="0.8"/><path d="M263,104.6L270.7,100.8L277,101.5L282.5,107.1L283.6,111.7L289.7,115.1L290.5,120.9L296.4,125L299.5,121.9L302,123.6L299.6,126L301.5,128.4L299,131.6L299.9,136.7L304.8,142.7L301,147L299.3,151.3L300.4,153L298.7,154.9L294.1,155.1L290.6,155.9L290.3,154.9L291.5,153.3L292.6,149.9L291.2,150L289.3,147.5L287.6,146.8L286.3,144.6L284.4,143.8L283,141.8L281.2,142.6L279.8,147.2L277.4,148.2L278.2,147L274.4,144.1L271.1,142.7L269.6,140.7L266.9,138.4L269.3,137.7L270.8,131.2L265.9,125.8L268.4,119.6L264.8,119.6L268.7,114.3L265.5,110.2Z" fill="#2c2c34" stroke="#474751" stroke-width="0.8"/><path d="M275.5,151.2L272.8,152.4L272.2,149.9L267.8,156.6L268.5,160.9L266.4,159.8L263.5,155.4L259.2,152.7L260.3,150.4L261.8,142.9L265.1,139.6L266.9,138.4L269.6,140.7L271.1,142.7L274.4,144.1L278.2,147L277.4,148.2Z" fill="#2c2c34" stroke="#474751" stroke-width="0.8"/><path d="M280.7,161.2L280,156.3L277.7,154.9L275.5,151.2L277.4,148.2L279.8,147.2L281.2,142.6L283,141.8L284.4,143.8L286.3,144.6L287.6,146.8L289.3,147.5L291.2,150L292.6,149.9L291.5,153.3L290.3,154.9L290.6,155.9L288.4,156.4L282.5,158.5L282,161.3Z" fill="#2c2c34" stroke="#474751" stroke-width="0.8"/><path d="M144.4,104.4L144.7,104.7L145.5,105.1L147.5,104.6L148.7,104.1L149.6,103.6L150.1,103.7L152.1,104.5L152.7,104.1L154.1,103.1L154.4,102.6L155.5,101L155.5,100.6L155,99.6L155.2,99.4L156.5,98.4L157.2,97.5L157.9,96.8L158.5,96.8L158.6,97L158.7,97.5L158.6,99.2L158.8,99.8L159.9,101L160.7,101.7L162.4,102.2L162.5,102.4L162,103.4L163.1,104.5L163.3,105.3L163.8,105.8L164.5,105.6L164.7,105.1L164.5,104.4L164.2,103.6L164.3,103.1L164.5,102.6L165,101.8L166.3,100.1L166.8,99.2L166.9,97.6L166.9,96.4L167.3,96.1L168.3,96.3L168.5,96.3L168.7,97.1L169.1,98.3L169.6,98.9L170.1,99L170.7,99L172.2,98.3L173.1,98L173.7,98.1L174,98.6L174.7,99.9L175.1,100L175.6,99.9L175.8,99.7L175.6,99.1L175.4,98.1L175.1,97.2L174.8,96.8L174.7,96.3L174.9,95.4L175.2,94.6L175.7,94.4L176.3,94.3L177,95.1L178,95.4L178.6,95.3L178.7,94.8L178.7,94.3L178.3,93.7L178.4,92.6L178.9,90.7L179.1,90.8L180.1,90.9L181.2,91L181.9,91.8L182.6,92L183.6,92.1L184.3,92L184.6,91.7L185,90.8L185.7,89.6L186.8,89.1L188.7,89L189.7,88.8L190.6,88.8L191.4,89L192.1,88.9L194.1,88.1L196.1,87.5L196.4,87.6L196.4,87.8L196.1,88.3L195.7,88.9L196,89.7L197.1,91.1L197.7,92.3L198.3,93.1L199.2,93.5L200.4,93.8L201.4,93.9L202.5,94.2L206.1,95L208,95.2L209.4,95.3L211.5,95.8L211.3,96.6L210.9,96.8L210.1,97.3L209.2,98L208.5,98.7L208.3,99.5L208.5,100.1L208.7,100.2L209,100.1L209.4,100.2L209.9,100.5L210.8,100.8L210.8,101L210.7,101.4L210,102L209.4,102.7L209.3,103.2L209.4,103.5L209.6,103.7L210.5,103.6L210.6,103.9L210.2,105.7L210.3,106L211.1,106.3L211.7,106.8L212.8,107.9L213.3,108.9L212.9,109.2L212.2,109.4L211.7,109.3L212.3,108.7L210.8,106.6L210.1,106.6L209.1,107.5L206.5,106.6L206,107L205.7,107.7L204.8,108.6L203.5,108.9L202,109.9L200.6,110.6L199.4,111.1L198.8,111L199.8,109.9L199.3,109.9L198,110.6L197.2,111.3L196.9,112.4L196.7,114.2L197.3,114.7L198.4,117.1L199.7,118.1L199.4,119.1L199.1,119.9L198.3,120.5L197.6,120L197.2,120L196.9,121.6L197.5,125.7L198.4,128.6L199.3,129.9L201.4,131.8L203.5,132.8L207.4,136.1L209.6,137.1L210.1,137.7L211.4,140.2L212.5,143.1L213.7,147.6L214.6,149.9L216.3,152.4L220,155.9L223.2,158.5L226.2,160.1L228.6,160.4L234.2,160.1L235.2,160.2L236.3,160.6L236.5,161.7L236.1,162.5L234.9,163.3L233.7,164.3L233.6,165.8L234.7,166.8L240.1,169.5L245.7,171.8L247.4,173L249.4,174.8L254.2,177.2L255,178.4L258,181L259.3,183L259.6,184.5L258.9,186L258.7,187.1L258.2,188.2L256.9,187.8L255.5,186.7L253.3,182.2L249.4,181.7L248.6,181.4L247.2,180.6L247.2,180.1L246.8,179.5L246.5,179.2L244.9,179.1L243.9,179.8L242.7,181.6L241.3,184.1L239.9,187.7L239.8,189.2L240.6,190.6L242.9,191.4L244.6,192.6L245.8,194L245.9,197.1L246.4,198.9L245.6,199.9L244.2,199.7L242.2,200.3L240.8,201.5L240.2,202.6L240.4,205.4L240.1,206.5L237.4,208.5L236,210.6L235.7,211.5L235.2,212.5L231.8,212.5L231.1,211.3L231,209.5L231.6,208.4L232.8,207.8L233.6,205.5L233.4,203.9L233.9,203.1L234.3,202.6L235.3,202.3L236.6,202L236.7,199.6L235.7,198.6L235.3,197.1L234.8,194.3L233.1,190.7L232.2,187.6L231.5,186L230.4,185.2L228.5,185.2L227.5,185L224,182.7L223.8,182.4L223.8,181.8L224.4,180.9L224,179.7L223.6,178.5L223,177.6L222.2,177.1L220.6,177.4L220.1,177.6L219.1,177.5L218.4,177.9L217.9,178L219.1,176.2L218.8,175.9L217.6,175.1L216,175L215.5,174.9L215.2,175.4L215,175.1L215,174.4L213.1,170.9L211.8,169.5L211.2,169.2L210,169.5L208.1,168.9L206.9,168.8L206.3,168.9L205.3,169.4L204.9,169.1L204.7,168.6L202.9,167.2L200.7,166.4L196.5,161.8L195.2,160L192.5,158.1L190.8,155.3L189.3,154.3L187.3,153.5L186.9,153.6L186.2,153.9L185.8,153.9L185.4,153.6L185.8,153.2L186.2,153L186.1,152L183.7,149.2L182.4,148.3L182,147.7L181.7,147L181.4,146.5L180.8,146.2L180.2,146.2L179.5,146.1L179.5,144.7L179.7,143.7L179.5,142.8L178.8,140.5L177.5,138.5L176.8,133.8L176.2,132.5L174.8,131.5L171.6,130.3L167.2,127.3L166.2,127.2L163.6,126L161.9,125.8L159.8,126.9L157.2,129.8L155,132.9L154.3,133.5L151.5,134.5L149.1,135L149.1,134.2L149,133.6L149.4,133L150.1,132.2L150.7,131.3L151,130.6L150.9,130.1L150.6,129.4L150.2,129.4L147.9,130L147.3,129.8L145.6,128.9L143.8,127.8L143.2,127L142.9,126.3L143.1,125.7L142.9,125.3L142.6,124.6L142.9,123.8L143.5,122.9L143.8,122.2L144.2,122.1L144.5,121.7L144.1,120.1L143.9,119.9L143.5,119.7L143,119.6L142.2,119.3L141.5,118.8L141.4,118L141.1,117.3L140.5,116.7L140.4,116L141.1,115.6L142,115.6L142.6,115.7L144,114.6L144.5,114.5L145,114.3L145.3,112.7L145.6,112.2L145.7,111.9L145.4,111.6L144.3,110.5L143.8,109.4L143,108.1L142.2,107.5L142.1,107.1L142,106.5L142.2,106L143.5,105.2ZM198.8,160.6L198.8,160.5L198.7,160.5L198.7,160.6L198.7,160.6ZM199.3,133.1L199.6,132.4L199.5,131.9L198.8,132L198.4,132.6L198.7,133.2ZM178.3,147.6L178.6,148.1L178.6,148.4L178.4,148.7L178.5,149.5L177.7,148.9L176.4,149.2L175.6,149.1L175.4,148.6L175.6,148.2L176.8,148.1L177.2,148L177.9,148ZM213.9,176.5L213.4,176.7L213.2,176.5L213,176.3L213.2,175.8L214.1,176.1L214.1,176.4ZM194.9,227.4L194.4,227.6L193.8,227.2L193.8,226.6L193.9,226.4L194.7,226.6L194.9,227.2ZM230.3,208.9L229.6,210.4L229.3,210.9L226.9,214.5L226.6,215.3L226.5,216.2L226.2,216.9L225.9,217.7L225.6,218.6L225.6,219.7L225.7,220.2L226,220.5L226.5,220.8L226.9,221.3L226.3,221.8L226.9,222.6L227.4,223.2L227.5,223.7L227.5,224.2L226.4,225.2L226,225.7L225.7,226.4L225.6,227.1L225.7,227.7L225.7,228.3L224.6,228.2L223.4,227.9L222.3,228L220.7,227.3L220.1,227.2L219.6,226.9L218.2,224.7L217.1,223.8L215.9,223.1L214.7,223L213.5,223.1L212.5,222.7L210.4,221.2L208.1,220L207.1,219.2L206.7,218.7L206.2,218.3L204.9,218L203.7,217.2L203.2,217.1L202,217.2L201.4,217.2L200.9,216.9L199.7,215.9L199,214.6L198.8,214L199.3,212.5L199.9,211.1L200.5,210.6L201.1,210.4L201.5,209.9L201.8,209.4L202.9,210.9L203.5,211.3L204,211.2L204.9,210.7L205,210.1L206.1,209.3L207.4,209.3L208,209.4L208.3,210.1L208.8,210.3L209.4,210.4L211.3,211.7L211.8,211.9L212.4,212L213.9,211.4L215,211.2L217.4,211.5L218.7,211.2L219.6,211.2L220.9,210.6L221.9,209.8L222.4,209.6L223,209.5L224.4,209.6L225.7,209.8L226.3,209.6L226.8,209L227.4,208.8L228,209L229.6,208L230.3,208L230.9,208.3ZM170.6,174.2L171.1,175.1L172.2,178.5L172.3,179.3L172.1,180.1L171.8,180.6L170.7,182.3L170.9,183.8L171.3,184.7L171.4,185.6L171.2,186.9L170.5,194.3L170.1,195.6L169.9,196.7L169.2,197.1L168.1,196.7L166.9,196.1L166.3,196.1L165.8,196.3L165.3,196.1L164.8,195.8L164.5,198.3L163.9,199.4L163.1,200L162.3,200.1L161.4,199.8L160.7,199.8L160.2,199.4L159.8,198.5L159.1,197.4L158.4,196.2L158.3,195.1L158.2,192.6L158.4,192.1L158.7,191.6L158.9,190.5L158.7,189.5L159,189.2L159.4,189.5L159.6,189.4L159.6,188.9L159.7,188L159.2,187.2L158.3,187L158.2,186.2L158.3,185.4L158.8,184.8L158.9,184.2L159,182L158.3,181.2L158.1,180L157.8,179.3L157.2,178.5L156.5,177.9L156.1,177.3L156,175.7L156.2,174.4L156.5,173.8L156.7,173.9L157.3,174.5L157.9,174.7L158.9,174.8L160,174.6L161.2,174L162.5,173.3L164.2,171.2L165.3,170.8L165.9,170.2L166.1,169.4L166.6,169.2L167.1,170L167.8,170L168.8,170.6L169.3,171.2L169.7,171.9L170,172.2L170.4,172.4L170.5,172.6L170.2,172.7L169.8,173.6L170,173.8ZM159,198L158.5,199.3L157.8,198.4L157.8,197.6L157.9,197.4L158.6,197.7ZM157.1,172.1L156.8,172.7L156.3,172.7L156.5,172.2L156.9,171.3L157.4,171L157.7,171.3L157.4,171.8Z" fill="#b8e653" stroke="#0c0e06" stroke-width="1"/></svg>
