<svg xmlns="http://www.w3.org/2000/svg" viewBox="0 0 300 300"><path fill="#e8e8ea" d="M34.3,55.1L35,55.8L36.6,56.5L40.7,55.5L43.3,54.6L45.1,53.5L46.3,53.8L50.3,55.3L51.7,54.5L54.6,52.4L55.1,51.4L57.3,48.1L57.4,47.3L56.4,45.2L56.7,44.8L59.6,42.6L61,40.7L62.5,39.4L63.6,39.4L63.9,39.9L64,40.8L63.9,44.4L64.3,45.5L66.6,48.1L68.2,49.6L71.9,50.6L72,51.1L71,53L73.3,55.4L73.7,57L74.7,58L76.1,57.6L76.6,56.6L76.1,55.1L75.6,53.4L75.7,52.4L76.1,51.4L77.1,49.8L79.9,46.3L80.9,44.3L81.1,41.1L81.1,38.5L82,37.9L84,38.4L84.6,38.3L84.9,39.9L85.7,42.4L86.7,43.6L87.7,44L89,44L92.1,42.4L94.1,41.8L95.3,42L95.9,43L97.4,45.7L98.3,46L99.2,45.7L99.6,45.3L99.2,44.2L98.9,42L98.3,40.2L97.5,39.4L97.4,38.3L97.8,36.4L98.3,34.7L99.4,34.3L100.7,34.1L102.3,35.8L104.1,36.4L105.6,36.3L105.8,35.3L105.7,34.2L104.9,32.8L105,30.6L106,26.6L106.5,27L108.7,27L111,27.2L112.4,28.9L113.8,29.4L116,29.6L117.3,29.4L118,28.8L118.8,26.9L120.2,24.5L122.6,23.3L126.5,23L128.5,22.6L130.5,22.7L132.1,23L133.6,23L137.7,21.3L141.9,20L142.5,20.2L142.6,20.7L141.8,21.7L141.1,23L141.6,24.5L143.9,27.5L145.2,29.9L146.5,31.6L148.4,32.5L150.9,33.1L153,33.3L155.2,34L162.8,35.6L166.6,36L169.5,36.1L173.9,37.2L173.4,38.9L172.6,39.3L171,40.4L169.2,41.8L167.6,43.3L167.2,45L167.6,46.1L168.1,46.5L168.7,46.2L169.5,46.4L170.7,47L172.5,47.6L172.5,48.2L172.2,48.9L170.7,50.2L169.5,51.7L169.3,52.6L169.5,53.3L169.9,53.7L171.8,53.5L172.1,54.1L171.2,57.9L171.5,58.6L173.1,59.2L174.3,60.1L176.6,62.5L177.6,64.5L176.9,65.1L175.5,65.5L174.3,65.3L175.6,64.1L172.4,59.8L171,59.8L169,61.6L163.6,59.7L162.5,60.5L161.8,62L159.9,63.8L157.3,64.6L154.3,66.5L151.2,67.9L148.8,69L147.4,68.8L149.6,66.5L148.6,66.5L145.7,68.1L144.1,69.5L143.6,71.8L143,75.6L144.3,76.6L146.6,81.6L149.3,83.7L148.8,85.7L148.1,87.3L146.4,88.7L145,87.7L144.2,87.7L143.6,90.9L144.8,99.5L146.7,105.5L148.5,108.1L152.8,112.2L157.3,114.3L165.5,121.1L169.9,123.3L171,124.5L173.7,129.7L176.1,135.7L178.6,145.1L180.4,149.7L184,154.9L191.5,162.3L198.3,167.7L204.6,171.1L209.6,171.6L221.2,170.9L223.3,171.2L225.4,172.1L225.9,174.4L225.1,176L222.7,177.6L220.2,179.8L219.9,182.9L222.2,185L233.5,190.7L245,195.4L248.6,197.8L252.7,201.5L262.8,206.7L264.5,209.1L270.7,214.4L273.4,218.6L273.9,221.8L272.6,224.9L272,227.2L271,229.5L268.3,228.6L265.4,226.3L260.9,217L252.8,216L251.2,215.3L248.2,213.7L248.1,212.6L247.3,211.3L246.7,210.8L243.5,210.5L241.4,212L238.8,215.7L236,220.9L233,228.4L232.9,231.5L234.5,234.4L239.2,236.1L242.8,238.7L245.2,241.4L245.4,248L246.5,251.7L244.9,253.8L241.8,253.3L237.8,254.7L234.8,257L233.6,259.3L233.9,265.3L233.3,267.5L227.8,271.7L225,276.1L224.2,277.9L223.2,280L216.2,280L214.6,277.5L214.5,273.7L215.7,271.4L218.3,270.3L219.9,265.5L219.4,262L220.5,260.5L221.4,259.4L223.3,258.8L226.1,258.2L226.3,253.3L224.2,251L223.5,247.9L222.4,242.1L218.9,234.8L217,228.1L215.6,224.9L213.3,223.1L209.3,223.2L207.2,222.7L200,218L199.5,217.3L199.5,216.1L200.8,214.2L200,211.8L199.1,209.4L197.7,207.3L196.2,206.3L192.9,206.9L191.8,207.4L189.8,207.2L188.2,208.1L187.3,208.2L189.8,204.6L189.1,203.8L186.6,202.3L183.2,202.1L182.3,201.9L181.7,202.8L181.1,202.3L181.2,200.7L177.2,193.5L174.6,190.6L173.3,190L170.9,190.7L166.8,189.4L164.4,189.1L163.1,189.4L161.1,190.3L160.1,189.7L159.7,188.8L156.1,185.7L151.5,184L142.7,174.5L140,170.9L134.3,166.9L130.8,161.1L127.8,159L123.6,157.3L122.6,157.4L121.4,158.1L120.4,158.2L119.6,157.4L120.4,156.7L121.3,156.3L121,154.1L116.2,148.3L113.3,146.5L112.6,145.3L112,143.7L111.4,142.7L110,142L108.9,142.2L107.3,141.8L107.4,139L107.7,136.8L107.4,135L105.9,130.2L103.2,126.1L101.7,116.3L100.5,113.6L97.5,111.4L90.9,109.1L81.7,102.7L79.8,102.6L74.2,100.1L70.7,99.7L66.3,101.9L60.9,108.1L56.4,114.4L54.9,115.6L49.2,117.8L44.2,118.8L44.1,117.2L43.9,116L44.8,114.6L46.2,113.1L47.5,111L48,109.6L47.8,108.7L47.2,107.2L46.3,107.1L41.6,108.3L40.5,108L36.9,106.2L33.2,103.9L31.8,102.2L31.2,100.6L31.6,99.5L31.3,98.5L30.5,97.1L31.2,95.6L32.4,93.6L33,92.3L34,91.9L34.5,91.1L33.7,87.8L33.3,87.3L32.6,86.9L31.5,86.8L29.7,86.2L28.4,85L28.1,83.5L27.4,82.1L26.2,80.7L26.1,79.2L27.4,78.5L29.3,78.4L30.5,78.7L33.5,76.4L34.5,76.2L35.5,75.6L36.3,72.4L36.9,71.4L37.1,70.8L36.5,70.2L34.2,67.8L33,65.5L31.4,62.8L29.8,61.6L29.5,60.7L29.4,59.5L29.8,58.5L32.6,56.9ZM147.6,172L147.6,171.8L147.3,171.8L147.3,172L147.3,172.1ZM148.5,114.9L149.1,113.4L148.9,112.3L147.6,112.5L146.7,113.9L147.3,115.1ZM213.1,272.5L211.7,275.6L211,276.7L205.9,284.1L205.4,285.8L205,287.6L204.5,289.2L203.8,290.8L203.2,292.7L203.2,294.9L203.5,295.9L204.1,296.7L205.1,297.3L205.9,298.3L204.7,299.3L206,301.1L207.1,302.2L207.2,303.3L207.2,304.4L205,306.5L204.1,307.5L203.5,309L203.2,310.4L203.5,311.6L203.4,312.9L201.1,312.7L198.7,311.9L196.4,312.3L193,310.8L191.8,310.6L190.7,310L187.8,305.5L185.6,303.5L183.1,302L180.7,301.9L178.2,302.1L176,301.2L171.6,298.1L166.8,295.6L164.8,294L163.9,292.9L162.8,292.2L160.1,291.4L157.6,289.7L156.6,289.6L154.2,289.8L153,289.7L151.8,289.1L149.4,287.1L147.9,284.4L147.5,283.2L148.5,280L149.8,277L150.9,276.1L152.2,275.5L153,274.6L153.7,273.5L156.1,276.7L157.3,277.5L158.3,277.3L160.3,276.2L160.4,274.9L162.6,273.3L165.3,273.3L166.6,273.6L167.3,275L168.3,275.4L169.5,275.7L173.5,278.4L174.6,278.8L175.8,278.9L178.9,277.7L181.2,277.3L186.2,277.9L188.9,277.2L190.7,277.2L193.5,276.1L195.6,274.4L196.7,274L197.8,273.8L200.7,273.9L203.5,274.3L204.7,273.9L205.7,272.8L206.9,272.3L208.2,272.6L211.5,270.6L212.9,270.5L214.3,271.3ZM88.9,200.4L89.9,202.2L92.2,209.4L92.5,210.9L92,212.5L91.4,213.6L89.1,217.2L89.5,220.2L90.3,222.1L90.4,224.1L90,226.7L88.6,242.1L87.9,244.9L87.4,247.2L85.9,247.9L83.7,247.1L81.2,245.8L80,245.9L78.8,246.4L77.8,246L76.8,245.2L76.1,250.5L74.9,252.7L73.2,254L71.5,254.1L69.8,253.6L68.3,253.6L67.2,252.7L66.3,250.9L64.9,248.7L63.5,246.1L63.4,243.8L63.1,238.7L63.5,237.6L64.1,236.5L64.4,234.2L64.2,232.2L64.6,231.5L65.5,232.2L66.1,231.9L66,230.9L66.2,229L65.1,227.4L63.3,226.9L63.1,225.2L63.3,223.6L64.3,222.5L64.6,221L64.6,216.6L63.3,215L62.8,212.5L62.2,210.9L60.9,209.3L59.6,208L58.7,206.7L58.5,203.4L59,200.7L59.4,199.5L59.9,199.7L61.2,201L62.4,201.3L64.6,201.7L66.7,201.2L69.4,200L71.9,198.5L75.6,194L77.9,193.2L79.1,192L79.5,190.4L80.4,190L81.6,191.5L83,191.7L85.2,192.9L86.1,194.2L86.9,195.6L87.7,196.2L88.5,196.6L88.6,197L88,197.3L87.2,199L87.7,199.5Z"/></svg>
