<svg xmlns="http://www.w3.org/2000/svg" viewBox="0 0 400 300"><path d="M336.9,109.8L339,123.9L337.2,133.8L331.2,138.2L337.5,145.9L337,152.9L320.7,148.5L309.2,150.3L294.3,148.4L282.9,153.2L269.8,145.2L271.9,136.9L294.4,140.5L312.9,142.6L321.7,136.8L310.5,125.7L310.7,115.8L295.3,111.7L300.8,104.6L315.7,105.7Z" fill="#2c2c34" stroke="#474751" stroke-width="0.8"/><path d="M400,143.6L399.1,143.2L387.9,144.3L379.9,143L375.5,147.7L366.1,149.3L362.3,143L354.3,146.7L344.5,164.4L338.2,160.3L337,152.9L337,152.9L337.5,145.9L331.2,138.2L337.2,133.8L339,123.9L336.9,109.8L339.9,105.3L359,105.5L373.5,112.2L379.9,111.5L384.3,120.7L397.7,120.2L396.9,127.9L400,128.2L400,143.6Z" fill="#2c2c34" stroke="#474751" stroke-width="0.8"/><path d="M194.6,0L194.6,3.3L188.6,4.7L186.8,0L194.6,0Z" fill="#2c2c34" stroke="#474751" stroke-width="0.8"/><path d="M330.9,300L335.9,295L344.5,296.5L347.9,300L330.9,300Z" fill="#2c2c34" stroke="#474751" stroke-width="0.8"/><path d="M0,253.5L8.2,246.8L8.5,241.6L10.9,241.8L14.1,235.8L16.6,235.1L20.8,238.9L25.7,240.1L31.1,236.8L37.2,236.8L45.8,233.5L49.1,230.1L57.5,230.6L55.3,233L54.1,238.7L56.7,247.9L51,256.5L48.4,266.6L47.6,277.7L48.9,284.2L49.5,295.4L45.8,297.9L45.3,300L0,300Z" fill="#2c2c34" stroke="#474751" stroke-width="0.8"/><path d="M0,207.7L1.3,208.1L7.8,207.5L12.6,205.3L23.8,208.8L27.6,209.4L35.1,214.1L42.2,219.7L51,223.6L57.5,230.6L57.5,230.6L49.1,230.1L45.8,233.5L37.2,236.8L31.1,236.8L25.7,240.1L20.8,238.9L16.6,235.1L14.1,235.8L10.9,241.8L8.5,241.6L8.2,246.8L0,253.5L0,207.7Z" fill="#2c2c34" stroke="#474751" stroke-width="0.8"/><path d="M78.9,18.5L100,20.4L119.3,20.7L142.3,29.8L151.9,39.4L174.8,36.5L183.4,42.7L204.1,59L219.3,70.9L227.4,70.5L241.9,75.8L240.2,83.2L258.2,84.3L276.7,95L273.8,101L257.5,104.3L241,105.6L224.2,103.6L189.2,106.1L205.6,91.6L195.7,84.8L179.9,83.1L171.5,75.5L165.7,60.6L151.8,61.6L129.1,54.5L121.8,49L89.9,44.9L81.4,39.8L90.5,33.2L66.5,31.8L49,45.6L38.9,45.9L35.4,52.4L23.2,55.2L12.9,52.8L25.7,44.6L31,35.1L42.1,29.2L54.6,24L73,21.5Z" fill="#2c2c34" stroke="#474751" stroke-width="0.8"/><path d="M201.3,142.3L204.3,143.2L207.3,143.7L208.7,143.7L209.9,144L212.7,146.2L215,147.4L223.5,150.1L226.4,154.8L227,156.3L224.8,157.1L222,157.4L219.3,157.5L216.9,156.6L215.8,155.9L213.2,155.6L213.9,154.9L212.7,154.6L211.3,154.7L210.3,156.5L209,157.9L206.8,157.8L205.9,156.6L204.8,157.1L203.8,158L202.7,161.4L200.8,159.7L198.8,158.3L196.4,157.8L191.3,157.7L188.9,157.2L186.9,154.4L186.2,153.6L184.1,152.8L182.2,149.6L181.5,149.1L176,148.4L175,146.6L175.3,145L177.1,143.1L178,142.5L181,142.6L183.8,142L185,141.1L186.3,140.6L196.6,142L199,142Z" fill="#b8e653" stroke="#0c0e06" stroke-width="1"/></svg>
