<svg xmlns="http://www.w3.org/2000/svg" viewBox="0 0 300 300"><path fill="#e8e8ea" d="M151.5,106.4L166.5,111.1L181.9,113.5L188.5,113.5L194.7,115.1L208.7,126.1L220.2,132.3L262.8,145.7L277.4,169.1L280,176.5L269,180.7L254.9,182.3L241.7,182.5L229.4,178.1L224.1,174.5L211.4,172.9L214.5,169.8L208.7,168.2L201.7,168.7L196.4,177.6L190.3,184.7L179.3,184.1L174.9,178.1L169.1,180.7L164.3,185.2L158.6,201.9L149.3,193.7L139.2,186.7L126.9,183.9L101.8,183.4L89.5,181L79.8,166.9L75.9,162.9L65.8,159.1L56.1,143L52.6,140.8L25.3,137.2L20,128.3L21.8,120.2L30.6,110.4L35,107.7L49.9,107.9L64,105L70.2,100.8L76.8,98.1L128.2,105.3L140.1,105.3Z"/></svg>
