<svg xmlns="http://www.w3.org/2000/svg" viewBox="0 0 300 300"><path fill="#e8e8ea" d="M79.1,60.4L84.8,61.7L88,64.6L93.6,73.1L102,75.5L105.4,77.9L110.2,82.3L116,83.9L133.9,86.6L148.3,77.3L160.3,69.5L174.3,60.5L183.7,54.3L199.5,43.9L210.2,37.3L224,28.6L237.8,20L241.6,34L245.2,47.8L249,61.9L252.9,75.6L248.9,76.9L251.9,87.4L257.3,85.7L262.8,84.5L265.3,91.3L257.5,98.7L249.6,106.1L247.7,106.9L237.6,109.9L216.5,116.1L202.6,120.2L184.6,125.5L169.7,130L155,134.3L141.4,138.3L149,146.9L161.1,159.8L168.9,168.4L178.3,179.5L186.7,189.4L195.5,199.7L189.4,203.3L179.1,209.1L178.1,210.2L177.2,211.3L172.9,221.6L169.5,229.8L168.5,230.8L154.2,233.8L139.7,236.9L130.5,238.7L127.8,240.8L121.9,251L115.8,261.4L105.4,270L94,279.4L91.3,280L83.1,278.5L68.9,276.1L55.4,273.7L46,272L34.7,270.1L36.4,262L35.8,257.8L38.5,243.6L40.1,236.9L41,231.9L44.8,221.9L44.3,218.5L45.2,206.9L44.8,204.7L46.6,198.2L49.8,189L53.1,181.1L54.4,177.5L57.6,169.9L60.7,160.7L59,155.6L58.6,154.5L59.8,148.7L61.3,139.1L62,133.9L63.8,127.1L67,121.2L65.5,107.5L65.7,100.1L67.8,91.6L66.6,81.7L67.6,67.6L67.8,66.3L68.9,64.5L69.7,63.7L76.4,60.7Z"/></svg>
