<svg xmlns="http://www.w3.org/2000/svg" viewBox="0 0 400 300"><path d="M174.7,107.6L170.4,116.8L161.6,112.7L156.5,132L162.5,135.2L156.3,139.1L155.2,146.7L166.8,142.8L167.4,154L155.2,199.2L152.8,191.9L139.1,150.5L146.2,141.1L144.5,139.5L151,126L155.9,104.2L159.5,96.8L160.2,96.6L168.3,96.6L170.5,91.5L177.1,91.1L177.5,103L174.2,107.4Z" fill="#2c2c34" stroke="#474751" stroke-width="0.8"/><path d="M177.1,91.1L170.5,91.5L168.3,96.6L160.2,96.6L168.9,72.6L181,51.8L181.5,50.8L192.5,52.3L196.4,63.9L183.1,75Z" fill="#2c2c34" stroke="#474751" stroke-width="0.8"/><path d="M166.8,142.8L155.2,146.7L156.3,139.1L162.5,135.2L156.5,132L161.6,112.7L170.4,116.8L170.4,134.4Z" fill="#2c2c34" stroke="#474751" stroke-width="0.8"/><path d="M400,208.5L394.3,208.2L325.4,151.4L289,131.3L259.6,123.5L259.6,123.5L249.7,88.1L303.8,57.5L313.1,21.4L310.8,0L400,0Z" fill="#2c2c34" stroke="#474751" stroke-width="0.8"/><path d="M310.8,0L313.1,21.4L303.8,57.5L249.7,88.1L201.9,119.1L174.7,107.6L174.7,107.6L174.2,107.4L177.5,103L177.1,91.1L183.1,75L196.4,63.9L192.5,52.3L181.5,50.8L179.2,27.9L185.2,15.6L191.7,9L198.3,2.3L198.4,0L310.8,0Z" fill="#2c2c34" stroke="#474751" stroke-width="0.8"/><path d="M198.4,0L198.3,2.3L191.7,9L185.2,15.6L176.2,1.9L177.7,0L198.4,0ZM136.7,0L133.3,3.6L96.2,6.9L87.8,0L136.7,0ZM45.4,0L44.4,2.2L27.5,5.8L19,0L45.4,0Z" fill="#2c2c34" stroke="#474751" stroke-width="0.8"/><path d="M196.8,300L187.6,280.4L172.7,258.3L160.3,239.3L148,239.4L151.9,224.2L153,214.4L155.9,203.3L155.9,203.3L183.2,207.7L193.8,199.1L199.6,189L218.2,185L222.3,175.6L230.4,170.8L206,142.3L254.9,127.9L259.6,123.5L289,131.3L325.4,151.4L394.3,208.2L400,208.5L400,300Z" fill="#2c2c34" stroke="#474751" stroke-width="0.8"/><path d="M101.7,36.1L103.3,35.9L106.9,28.7L124.5,29.1L146.7,20.1L130.2,32.9L132,38.5L129.4,37.4L124.7,39.7L121,39.1L119.8,40.2L119.4,37.2L117.6,35.3L112.8,35L106.2,37.6Z" fill="#2c2c34" stroke="#474751" stroke-width="0.8"/><path d="M101.7,36.1L106.2,37.6L112.8,35L117.6,35.3L119.4,37.2L119.8,40.2L121,39.1L124.7,39.7L129.4,37.4L132,38.5L132.7,40.9L107.7,53L95.7,49.1L90.1,37.2Z" fill="#2c2c34" stroke="#474751" stroke-width="0.8"/><path d="M0,157.3L8.3,160.5L27.2,151.5L37.2,143.3L58.7,140.9L76.2,144.5L82.8,158.7L88.5,149.4L108,156.1L127.1,157.7L139.1,150.5L152.8,191.9L155.2,199.2L148.3,210.5L143,231.5L136.4,245.9L130.7,250.8L122.5,241.8L111.5,229.5L94.1,189.4L91.6,191.9L101.7,221.5L116.7,249.4L135.2,292L140,300L0,300Z" fill="#2c2c34" stroke="#474751" stroke-width="0.8"/><path d="M176.3,106.9L178.9,107.5L180.4,108.9L183,112.7L186.8,113.8L188.4,115L190.6,117L193.2,117.7L201.5,119L208.1,114.7L213.7,111.1L220.1,106.9L224.4,104.1L231.7,99.3L236.6,96.3L242.9,92.3L249.3,88.3L251,94.8L252.7,101.1L254.5,107.6L256.2,113.9L254.4,114.5L255.8,119.3L258.3,118.6L260.8,118L261.9,121.1L258.3,124.5L254.7,127.9L253.9,128.3L249.2,129.7L239.5,132.5L233.1,134.4L224.8,136.9L218,138.9L211.2,140.9L204.9,142.8L208.5,146.7L214,152.6L217.6,156.6L221.9,161.7L225.8,166.2L229.8,171L227,172.6L222.3,175.3L221.8,175.8L221.4,176.3L219.5,181.1L217.9,184.9L217.4,185.3L210.8,186.7L204.2,188.1L199.9,188.9L198.7,189.9L196,194.6L193.2,199.4L188.4,203.3L183.1,207.6L181.9,207.9L178.1,207.3L171.6,206.1L165.4,205L161,204.2L155.9,203.4L156.7,199.7L156.4,197.7L157.6,191.2L158.3,188.1L158.8,185.8L160.5,181.2L160.3,179.7L160.7,174.3L160.5,173.3L161.3,170.3L162.8,166.1L164.3,162.4L164.9,160.8L166.4,157.3L167.8,153L167,150.7L166.9,150.2L167.4,147.5L168.1,143.1L168.4,140.7L169.2,137.6L170.7,134.9L170,128.6L170.1,125.2L171.1,121.3L170.5,116.7L171,110.2L171.1,109.6L171.6,108.8L172,108.4L175,107Z" fill="#b8e653" stroke="#0c0e06" stroke-width="1"/></svg>
