<svg xmlns="http://www.w3.org/2000/svg" viewBox="0 0 400 300"><path d="M273.9,0L279.8,9.3L279.5,20.7L271,10.9L263.6,23.5L261.5,9.8L262.3,0L273.9,0ZM228.4,0L223.8,6.6L220,17.9L204.7,36.7L189.6,55L182.3,64.1L167.3,73.2L160.2,73.4L153.1,65.9L138,77.1L136.3,82.2L136.3,82.2L134.7,79.5L134.6,71.8L140.4,71.4L142,53L139,39.5L148.7,33.9L162.4,36.7L169.9,21L173.8,3.1L176,0L228.4,0Z" fill="#2c2c34" stroke="#474751" stroke-width="0.8"/><path d="M136.3,82.2L136.3,82.2L136.3,82.2ZM134.7,79.5L136.3,82.2L132,81.3L127.1,86.4L123.8,91.6L124.2,102.3L118.4,105.6L116.3,108.2L112.1,112.6L104.6,115L99.7,118.9L99.4,125.3L98.1,126.9L102.6,129.2L108.9,135.6L107.3,139L102.5,140L94.6,140.7L90.2,147.1L85.2,146.6L84.5,147.9L79,145.2L77.6,147.9L74.3,149.1L73.9,146.4L71,145.1L68,142.8L71,136.5L73.7,134.8L72.7,132.2L75.6,124.3L74.9,122L68.3,120.4L62.9,116.4L72.1,107L84.5,99L92.3,88.3L97.6,93L107.4,93.6L105.6,85.6L123,79.1L127.5,70.5Z" fill="#2c2c34" stroke="#474751" stroke-width="0.8"/><path d="M84.5,147.9L85.2,146.6L90.2,147.1L94.6,140.7L102.5,140L107.3,139L108.9,135.6L118.7,152.4L121.4,161.6L121.5,177.6L117.3,185.2L107.1,187.9L98.1,193.5L87.9,194.7L86.7,187.3L88.8,176.9L83.8,162.4L92.2,160Z" fill="#2c2c34" stroke="#474751" stroke-width="0.8"/><path d="M7.3,0L12.4,5.8L11.2,11.6L2.3,9.8L0,10.1L0,0Z" fill="#2c2c34" stroke="#474751" stroke-width="0.8"/><path d="M0,10.1L2.3,9.8L11.2,11.6L12.4,5.8L7.3,0L176,0L176,0L173.8,3.1L169.9,21L162.4,36.7L148.7,33.9L139,39.5L142,53L140.4,71.4L134.6,71.8L134.7,79.5L127.5,70.5L123,79.1L105.6,85.6L107.4,93.6L97.6,93L92.3,88.3L84.5,99L72.1,107L62.9,116.4L47.2,120.7L39,127.5L26.8,131.5L32.8,124.7L30.5,119L39.4,109.2L33.4,101.4L23.6,106.6L10.9,116.9L4,126.3L0,126.6L0,10.1ZM0,145.2L2.3,145.8L2.7,152.2L11.6,156.3L24.2,146.2L34.2,151.7L41.5,152.1L43.3,159.5L27.4,163.4L22.1,171L11.2,178L5.4,187.6L17.5,195.1L21.9,208.5L28.8,220.7L36.4,230.9L36.2,240.7L29.2,244.3L31.9,251.3L38.5,255.3L36.8,265.8L33.9,276L27.6,277.1L19.4,290.9L14.4,300L0,300Z" fill="#2c2c34" stroke="#474751" stroke-width="0.8"/><path d="M165.4,169.7L164.9,170.2L164,170.1L163.4,169.3L163.6,168.5L164.6,167.8L165.5,169.1ZM221.4,146.9L220.4,146.9L220.1,146.8L220.7,146.4L220.8,145.8L221.2,144.8L221.2,144.5L220.3,144.4L220.4,143.2L221,142L222.8,140.2L223.2,139.8L223.3,140.7L222.8,142.6L222.6,143.3L224,143.4L223.1,145.7ZM183,196.1L181.8,197.3L180.7,197.2L180.2,196.7L180,196L181.1,195L181.9,193.6L182.7,193L183.3,192.6L183.8,192.6L182.7,194.6ZM134.5,249.7L133.2,250L132.5,249.7L131.9,248.1L133.1,247.1L134.7,248.1L135.1,248.4ZM138.3,248L137.3,248.1L137.3,247.3L138.1,245.6L138.1,244.4L138.9,242.8L139.2,242.5L139.4,242.3L139.7,242.8L139.4,244.8L138.7,246.2ZM128.4,223.8L127.5,224.3L127.4,223.8L127,223.6L127.7,223L127.7,222.7L127.2,222.3L127.7,220.6L127.6,219.9L129.4,219.7L129.7,220.3L129.8,222.3ZM119.4,198.3L118.7,198.9L118.3,198.1L118.7,195.7L120,196.2L120,196.9ZM120.6,195.2L120.4,195.9L119.6,195.4L119.3,195L120,192.9L119.9,192.1L119.9,191.7L121.3,190.7L121.6,190.9L121.7,191.2L121.5,191.6L121.6,192.7L120.5,194.4ZM112.5,216.4L112.9,216.8L113.6,216.6L114.1,216.5L114.4,216.7L114.9,217.6L115.1,218.2L114.2,218.3L113.9,218.4L113.4,219.1L112.8,218.8L112.4,218.5L112.3,218.1ZM131.8,221.2L130.8,221.3L130.4,221.1L130.2,220.7L131.6,219.9L132.7,220L132.2,220.8ZM252.1,33.7L251.7,34.7L251.1,33.2L251,31.6L251.3,31.6L252,31.8L252.1,32.6ZM254.6,37.1L253.9,37.2L252.9,36.5L252.8,35.7L253.5,35L254.2,35.3L254.8,36.1L255,36.6ZM234.2,84.3L234,84.4L233.7,84.3L233.4,83.1L233.7,82.5L234.4,82.1L235.1,82L234.5,84.1ZM176.5,193.5L176.3,193.7L176.1,193.6L175.3,194.3L175.2,193.7L174.7,193.3L174.6,193L176.2,192.7L176.7,192.9ZM233.9,190.1L233.8,190.8L233.2,190.6L232.9,190.2L233,189.4L233.6,189.4ZM117.1,215.7L116.8,215.8L116.5,214.6L116.2,214.2L116.6,213.9L117.5,211.7L117.6,212.6L118,213.5L118.3,213.6L118,214.2L117.5,214.5ZM121.8,210.5L121,211.2L120.4,211.2L120.9,210.4L121,210.1L121.5,209.1L122.3,208.7L122.7,208.7L122,209.7ZM125.2,203.4L124.4,204L123.8,203.6L124.1,202.4L124.3,202L125,202.4ZM156.5,198.5L156.2,199L155.2,198.8L155.6,198.4L155.9,197.8L156.1,197.7L156.3,198.3ZM153,200.8L153.5,201.3L154.8,201.1L155,201.2L154.6,201.6L154.1,202.1L153,201.8L152.4,201.7L152.3,201L152.4,200.7ZM124.3,231.4L124,231.6L124.2,230.6L125.1,229.7L125.2,230.3ZM264.7,296.4L264.5,296.4L263.8,295.1L264,295L264.4,295.2L264.9,296ZM283.1,52.9L284.5,53L285.2,53L286.2,53.2L290.5,55.6L291.8,55.9L293.1,55.9L294.1,55.7L294.9,55L297.5,52.2L300.2,49.5L300.5,49.6L300.5,50.4L300.3,51.2L299.1,53.6L297.8,56.8L297.5,58.4L297.9,60L298.7,61.4L299.4,63.1L300.2,65.6L301.2,65.9L301.8,66L302.9,65.2L303.9,64.3L304.8,64.2L305.7,64.3L304.5,65L303.3,65.8L302.4,67.3L302,67.6L300.9,67.5L300.2,67.6L298.9,68.2L297.8,68.9L296.7,69.8L295.4,70.3L294.1,70.4L292.2,71.1L290.9,71.1L288.5,70.5L287.3,70.7L284.7,72.1L282.4,74.2L280.4,76.4L278.7,79.2L278,80.6L277.6,82.2L277.5,83.3L277.3,84.3L277,85L276.5,85.6L275.1,85.2L272.8,83.8L268.3,81.6L263.6,78.4L260.9,76.7L255.9,77.2L251.2,80.4L250.7,80.1L248.9,78L248,77.1L247,76.9L246.2,76.9L245.4,77.1L244.4,78.1L244,78.9L243.7,79.8L243.6,80.5L243.7,81.1L244.8,82.5L246,83.6L246.5,83.8L247.8,83.7L248.3,83.8L250.3,85.9L252.5,87.8L253,88.5L252.2,89.2L251.3,89.5L250.3,89.4L249.3,89.2L247.5,88.3L246.7,89L245.6,90.5L244.9,92.1L244.4,92.8L243.1,93.8L241.7,94.2L241,94.1L240.5,93.5L240.2,92.8L240,92L240.3,90.1L241,88.5L241.3,86.9L240.7,84.5L240.3,84.1L238.9,82.7L238.2,81.3L238,79.7L238.1,78.8L238.5,76.7L238.8,75.7L239.5,75.3L240.2,75.1L241.3,74.4L242.6,73.4L243.7,72.3L244.9,71L245.5,69.5L244.5,67.7L244.3,66.6L244.5,65.6L245.5,65.1L246.6,65.5L248.8,67L249.3,67.1L250.8,67.2L252.9,67.5L254.1,67.4L254.6,67.2L255.5,66L255.9,64.4L255.8,62.4L255.8,60.4L256.3,58.7L258.1,56L258.6,54.5L258.7,50.6L259.4,48.9L259.9,47.2L260.1,43.5L259.4,39.9L258.7,38.2L257.9,36.5L258,34.9L258.7,33.4L258.7,33L258.8,32.6L260.1,32.3L260.6,32L261.2,31.3L261.9,30.8L262.3,31.3L262.7,32L264.5,33.8L267.2,37L270.5,41.9L272.5,44.2L274.7,46.4L277,48.5L279.6,50.4L281.2,51.3L282.4,52.7ZM140.7,205.4L142.2,205.8L142.9,205.8L143.5,205.7L144.4,205.1L145.3,204.7L146,204.9L146.6,205.4L146.9,206.1L146.7,206.8L145.7,208.2L144.8,209.8L146.8,210.1L148.8,210.1L148.4,211.1L148.3,211.9L148.9,212.4L149.5,212.9L149.3,213.4L149,213.9L150.1,214.6L150,215.1L149.7,215.6L147,219L146.2,220.7L145.6,222.5L145.1,223.9L144.8,225.3L144.4,226.8L143.9,228.4L144.1,229.8L143.9,231.2L142.6,234.7L141.6,234.7L140.3,234.3L139.6,234.3L139.2,235.1L139.9,236.7L137.7,238.6L135.2,239.9L135.2,239.3L135.4,238.8L135.8,238.5L136,238L136.4,236.5L136.2,235L135.5,233.1L135.4,232.5L135.9,232.2L136.3,232.1L136.4,231.9L136.5,231.2L136.2,230.8L135.6,230.6L134.9,230.6L134.4,231.3L133.8,232.7L133.4,234L133.6,234.8L133.9,235.4L134.7,236.5L134.5,237.2L134.1,237.7L131,236.6L130.3,236.5L129.8,236.2L129.2,234.7L130.5,234.3L130.8,234.1L130.9,233.6L131.1,232.2L130.5,230.9L130,230.5L129.6,229.9L129.9,228.9L129.7,227.5L129.7,225.7L129.9,225.3L131.1,225L131.9,224L132.7,222.8L133.8,220.8L134.7,218.6L133.9,218.5L133.1,218.1L133.9,217.1L133.7,215.8L132.5,214.2L131.8,212.3L130.7,211.4L130.2,211.1L129.5,211.6L128.9,212.1L129.4,213.4L129.4,214.4L129.5,215.5L130,215.6L130.7,215.3L131.2,215.5L131.5,216.1L131.5,216.8L131.3,217.5L130.9,217.9L130.2,217.8L129.7,217.4L129.2,216.9L128.1,216.6L127,217.2L125.8,218.6L124.9,219.3L125.3,218.3L125.5,217.2L125.1,216.5L124,215.2L123.8,214.5L123.7,213.6L123.9,212.7L125,213.7L125.6,215L126.4,215.5L127.4,215.5L126.6,213.7L126.4,213.2L125.2,212.4L123.7,211L122.8,210.3L123.1,208.9L123.7,208.6L124.2,208.7L125.8,209.2L125.9,208.5L125.7,208.1L125.5,207.6L126.6,207L128.3,206.5L128.7,206.3L129,205.7L129.4,205.5L130.6,205.5L131.6,205L132.4,203.6L132.6,202.9L133,202.3L135,201.2L135.6,201L136.9,201.2L138.2,201.8L138.9,203.1L139.4,204.5ZM176.6,196.5L178.1,197.1L179.7,197L179.7,199.4L179.9,200.3L180.3,201L180.1,202.1L180.9,202.5L178.7,203.7L176.8,205.3L176,206.4L175.3,207.6L174.8,208.9L174.6,210.2L173.9,209.7L172.1,207.5L170.9,206.9L169,206.6L168.4,206.6L164.5,208.7L164,210.2L162.9,212.4L162.4,213.1L161.9,213.4L161.4,213.7L161,215.6L159.8,216.8L159.1,216.8L157.8,216.5L157.2,216.7L158,214.8L156.8,214.6L155.6,214.6L155.6,213.4L154.8,212.7L155.4,211.8L155.4,211.1L155.7,210.7L155.8,210.1L155.8,209.6L155,209.4L154.6,209.1L154.6,207.7L154.2,207.7L153.2,207.9L151,208.9L150.4,208.9L151.3,208.2L153.3,207.2L154.1,206.6L156.1,205L157.2,204.2L157.9,202.9L158.1,202L158.5,201.3L158.9,200.1L159.5,199.7L160.6,198.7L161.2,198.8L161.9,200.1L162.8,201L163.4,200.9L164.6,200.4L165.2,200.3L166.6,200.4L167.8,199.8L168.3,199.1L168.5,198.2L168.1,196.7L168.7,196.9L169.2,196.8L170.6,195.8L171.9,195.3L173.4,195.2L175,195.7ZM253.9,95L254.3,95.3L256.4,94.5L256,96.8L255.8,99.1L256,103L256.1,104.7L256.5,106.4L257.4,107.6L258.6,108.4L260.3,111.1L261.2,114.4L261.9,116L262.3,117.7L262.5,118.4L262.5,119.2L262.3,120.2L262.5,121.1L262.3,123.7L261.5,126.8L261.4,128.4L260.8,128.7L260.4,129.4L260,129.7L259.7,130L259.1,130L258.7,130.3L258.6,131.2L258.3,131.9L257.8,132.6L257.5,133.4L257.2,135.3L257,137.2L256.6,138.6L255.5,138.9L254.2,138.9L252.5,139.5L252.2,139.9L250.9,142.2L250.5,143.6L250.5,145.1L250.9,146.9L251.4,148.7L251.7,151.9L251.3,156.9L251,158.5L250.1,159.6L249.5,160.1L249,160.7L248.3,162.3L247.1,165.5L247,166.3L247,167.2L246.7,168.3L246.5,169.3L246.7,170.6L247.1,171.7L248.6,174.7L249.2,175.6L249.9,176.4L247.3,177.2L246.8,177.6L245.2,179.3L244.7,180.9L244.8,182.7L244.5,183.3L244.1,183.9L243.6,184.2L241.8,185.1L240.7,185.8L239.6,187.1L239.2,187.7L238.3,187.5L237.8,187L238.3,186.2L238.1,185.4L238.4,183.2L238.1,182.3L239,181.6L239.4,180.5L240.4,179.7L241,178.9L241.1,178.3L240.5,177.6L239.9,177.1L239,177.1L238.2,177.3L237.7,177.9L237.5,178.8L237.5,179.2L237.4,179.5L236.1,180.7L236.3,182L236.7,182.6L237.2,182.9L237,183.3L236.4,184.3L236,184.4L235.2,183L234.1,182.3L232.9,182.3L231.6,182.5L230.6,183.5L230.3,184.2L230.1,185L230.2,187L229.8,188.6L229,190L228.6,190.5L227.7,191.5L227,191.6L226.5,191.1L226.1,190.5L226.6,188.1L226.6,186.7L227.7,186L226.8,185.1L225.6,184.7L224,185.2L223.6,185.8L223.3,186.6L222.4,187.5L221.5,188.5L220.4,190L219.7,191.9L217.3,191.3L216,191.1L214.7,191.2L212.4,191L209.9,191.4L207,192.1L207.2,191.6L209.5,190.4L209.6,190.1L209.4,189.5L208.8,189.5L207.4,189.7L206.7,189.6L206.3,188.9L205.9,188.6L205.6,188.9L205.7,190.2L205.3,190.4L204.8,190L205,189L204.7,187.6L204.6,186.7L205.1,185.9L204.6,185.6L204.1,185.7L203.4,186.1L202.8,186.6L201.5,189.2L201,190.8L202,192L204.5,193.7L204.9,194.1L205,194.8L204.6,195.6L204,196L201.2,196.5L198.8,197.6L198,198.7L195.8,203L194.1,206L191.6,207L188.9,206.1L188.2,205.1L187.7,203.8L186.6,202.7L185.8,201.4L185.2,199.9L185.3,197.5L184.9,196.1L185.3,195.7L186.8,194.8L187.3,194.4L188.1,193.2L188.4,192.6L188.5,191.6L187.8,191.1L186,191.1L184.3,191.4L183,191L181.3,189.8L180.9,189.6L179.1,189.5L177.9,189.7L176.6,190.2L175.3,190.3L174.9,190.5L173.4,191.9L172.2,192.8L171.1,193.3L168.9,193.4L167.8,193.7L166.6,194.2L166.3,194.1L165.1,194.8L163.6,195.3L162.9,195.9L161.5,195.5L158.7,196.6L157.4,196.7L156,196.1L154.8,195.2L153.5,195.6L152.7,196.9L152.3,199.6L151.8,200.8L151.6,202.2L151,202L147.3,199.4L147.1,199.3L144.1,199.8L143.3,200L142.4,200.5L141.4,200.7L140.5,200.4L139.6,199.7L138.7,199.9L137.8,200.4L137.5,196.5L137.7,196L138.2,195.3L138.8,194.7L140.3,194.5L141.7,194.7L142.7,194.4L143.6,193.6L144.6,192.5L145.6,191.6L147,190.9L148.4,190.1L149.6,189L150.8,187.7L151.8,186.8L152.9,186.1L154.7,184.2L157,182.1L157.9,180.6L158.4,180.2L160.4,179.3L163,178.7L164.3,178.7L165.5,180.1L166.2,179.9L166.8,179.5L168.2,179.3L169.6,179.5L171,179.5L172.3,179.4L174.9,178.9L176.3,178.4L177.7,177.7L182.4,177.2L185.8,176.1L186.2,176.1L186.8,176.4L186.8,177.3L186.4,178.2L186.8,178.8L187.5,179.1L190.5,179.2L191.4,179.4L192.7,178.8L193.9,178L195.2,177L196.1,175.8L195.3,174.3L195.1,172.7L195.8,170.9L196.8,169.4L198,168.5L199.1,167.5L201.3,164.6L202.9,162.2L203.5,159.2L203.1,155.7L204.5,153.1L205.9,152.7L208.5,151.5L209.9,151.2L210.1,151.7L210.1,152.4L208,154.5L206.8,155.4L206.1,155.7L205.5,156.1L205.2,156.9L206.2,158.2L206.5,159.1L206.4,160L206.5,160.8L207.7,161.7L209.1,162L209.6,162L210.2,161.8L211.7,159.6L212.1,159.2L216.6,157.6L218.8,156.4L220,156.1L221.1,155.5L223.7,153L224.7,151.9L225.5,150.6L226.2,149.2L226.8,147.6L227.5,146.6L231.6,144.2L232.9,142.9L233.3,142.3L233.8,140.5L234.2,138.6L234.7,137.2L235.3,135.8L236.2,134.3L237.2,133L237.8,131.7L238.7,128.5L239.1,126.6L239.4,126L239.8,125.5L240.2,124.8L240.5,124L240.6,123.2L240.8,120.9L240.7,119.1L240,117.5L239.4,117.1L238.8,117L237.9,117.2L237.1,116.6L237.3,116L238.1,115.9L238.6,115.6L239,115.1L239.7,113.4L240.2,111.6L240.2,110.8L239.6,109.3L239.2,107.5L239.2,106.5L239.7,105.4L240.4,104.6L241,104.3L241.7,104.3L242.3,103.9L242.9,103.4L243.2,102.9L243.7,101.4L243.9,100.5L243.6,98.2L243.9,97.6L244.4,97.2L245,97.4L245.6,97.5L246.4,97.4L247.1,97.7L247.3,98.3L247.7,102.2L248,102.7L248.5,103.1L249,103L249.6,102.4L249.9,101.6L250.6,101.5L252.7,102.3L253.4,101.7L253.8,100.8L254.3,99.1L254.1,97.5L253.5,97L253.1,97.1L252.6,97.5L252.1,97.7L249,98.5L249.1,96.8L249.7,94.2L250.1,93.4L250.6,93L251.9,93.5L252.5,93.8ZM101.9,300L101.9,298.7L102.7,298.5L103,298.3L104.2,297.2L104.4,296.7L103.7,296.2L103.8,295.7L104,295.4L104.9,295.6L105.3,296L105.5,296.1L106.1,295.8L106.3,295.2L107.4,294.1L107.9,293L108.7,293.9L108.5,295.1L107.9,295.9L107.9,295.9L106.8,296.5L106.4,297.2L105.4,297.4L104.4,298.4L103.5,298.6L103.5,299.4L103.9,300L101.9,300ZM116.2,282.4L115.7,282.7L115.1,282.3L114.9,280.9L115.2,280.2L115.7,280L116.1,281.3L116.4,281.8ZM121.3,276.2L120.4,277.2L119.3,276.3L118.1,275.7L118.7,275.5L119,275.3L119.1,274.9L119.9,274.3L121.5,273.8L122,273.8L122.5,273.4L122.8,273L123,272.8L124,272.3L124.3,272.9L124.3,273.3L123.5,273.6L122.7,274.3L122,275.1L121.4,275.4L121.2,275.6ZM119.9,277.5L120,277.8L118.9,277.6L118.4,276.4L119.1,276.6L119.4,277ZM238.3,212.8L238.1,212.9L237.5,212.5L237.5,212.1L237.5,211.8L237.9,211.8L238.6,212.3Z" fill="#b8e653" stroke="#0c0e06" stroke-width="1"/></svg>
