<svg xmlns="http://www.w3.org/2000/svg" viewBox="0 0 300 300"><path fill="#e8e8ea" d="M322.8,-51.9L325.8,-51.7L327.1,-51.9L329.3,-51.4L338.2,-46.4L340.9,-45.8L343.7,-45.7L345.7,-46.1L347.3,-47.5L352.7,-53.5L358.4,-59L359.1,-58.8L359.1,-57.2L358.6,-55.6L356.1,-50.5L353.3,-43.8L352.7,-40.4L353.7,-37.1L355.3,-34.4L356.8,-30.7L358.4,-25.5L360.6,-24.9L361.8,-24.8L364,-26.3L366.1,-28.3L368,-28.5L369.8,-28.2L367.3,-26.8L365,-25.1L362.9,-22L362.2,-21.4L359.8,-21.6L358.5,-21.5L355.8,-20.1L353.3,-18.6L351,-16.8L348.5,-15.8L345.8,-15.6L341.7,-14.1L339,-14L334,-15.3L331.6,-15L326.3,-12L321.4,-7.7L317.2,-3L313.6,2.7L312.2,5.7L311.4,9L311.2,11.2L310.8,13.3L310.1,14.8L309.1,16L306.1,15.3L301.3,12.2L292.1,7.8L282.2,1L276.6,-2.4L266.3,-1.3L256.4,5.2L255.5,4.6L251.8,0.2L249.9,-1.6L247.7,-2.1L246.1,-2.1L244.5,-1.7L242.3,0.5L241.5,2.2L240.9,4.1L240.7,5.4L241,6.7L243.1,9.6L245.7,11.8L246.8,12.2L249.3,12.1L250.5,12.3L254.6,16.7L259.3,20.7L260.3,22.1L258.6,23.5L256.7,24.2L254.5,24L252.4,23.5L248.7,21.8L247.2,23.2L244.8,26.3L243.4,29.5L242.3,31.1L239.6,33L236.8,34L235.3,33.7L234.2,32.5L233.6,31L233.2,29.3L233.8,25.5L235.2,22.1L235.8,18.7L234.7,13.8L233.9,12.8L230.9,9.9L229.4,7.2L229.1,3.7L229.3,1.8L230,-2.4L230.8,-4.6L232.1,-5.3L233.6,-5.8L236,-7.2L238.5,-9.2L241,-11.5L243.4,-14.3L244.7,-17.4L242.6,-21.2L242.2,-23.4L242.5,-25.5L244.7,-26.7L247,-25.8L251.6,-22.7L252.5,-22.4L255.6,-22.2L259.9,-21.6L262.5,-21.7L263.7,-22.2L265.5,-24.8L266.3,-28.1L266,-32.3L266,-36.5L267.2,-39.9L270.8,-45.5L271.8,-48.7L272.2,-56.7L273.5,-60.2L274.5,-63.8L275,-71.5L273.6,-78.9L272.1,-82.6L270.4,-86.1L270.6,-89.4L272,-92.5L272,-93.4L272.3,-94.2L274.9,-94.8L276.1,-95.5L277.3,-97L278.7,-97.9L279.7,-97L280.5,-95.5L284.1,-91.7L289.9,-85L296.6,-74.9L300.8,-70L305.3,-65.5L310.3,-61L315.6,-57.1L318.9,-55.3L321.3,-52.4ZM26.7,265.2L29.9,266.1L31.2,266.1L32.4,265.8L34.3,264.7L36.3,263.8L37.7,264.3L38.9,265.2L39.6,266.6L39.2,268.1L37,271.1L35.2,274.5L39.4,275.1L43.6,275L42.6,277.1L42.5,278.8L43.8,279.7L44.9,280.8L44.5,281.8L43.9,282.8L46.2,284.4L46,285.4L45.5,286.5L39.7,293.5L38,297L36.9,300.9L35.8,303.7L35.1,306.7L34.4,309.8L33.4,313.1L33.7,316L33.4,319L30.5,326.3L28.4,326.1L25.9,325.3L24.3,325.4L23.5,327L24.9,330.4L20.3,334.3L15.3,337L15.2,335.7L15.7,334.8L16.5,334L17,333.1L17.7,330L17.3,326.9L15.8,322.9L15.7,321.5L16.7,321L17.5,320.8L17.8,320.3L17.9,319L17.4,318L16,317.7L14.5,317.6L13.6,319.1L12.2,321.9L11.6,324.7L11.8,326.3L12.4,327.7L14.3,330L13.8,331.4L13,332.4L6.5,330.1L5.1,329.9L3.9,329.4L2.6,326.2L5.3,325.4L6.1,325L6.3,324L6.8,320.9L5.5,318.2L4.5,317.3L3.6,316.2L4.2,314L3.8,311.3L3.7,307.4L4.2,306.7L6.7,305.9L8.5,303.8L10.1,301.5L12.3,297.3L14.2,292.8L12.4,292.5L10.9,291.7L12.5,289.5L12,286.8L9.5,283.5L8.1,279.5L5.9,277.8L4.7,277.2L3.3,278.1L2.1,279.2L3.2,281.8L3.1,284L3.3,286.3L4.4,286.4L5.8,285.8L6.9,286.2L7.4,287.4L7.6,288.9L7.2,290.4L6.2,291.2L4.9,291.1L3.7,290.3L2.7,289.1L0.4,288.5L-1.9,289.9L-4.3,292.7L-6.2,294.1L-5.3,292L-4.9,289.8L-5.8,288.2L-8.1,285.6L-8.6,284.1L-8.7,282.3L-8.3,280.5L-6,282.6L-4.8,285.1L-3.1,286.2L-1,286.3L-2.6,282.5L-3.2,281.5L-5.5,279.8L-8.7,276.9L-10.6,275.5L-9.9,272.5L-8.7,271.9L-7.7,272.1L-4.4,273.1L-4.1,271.6L-4.6,270.9L-4.9,269.9L-2.7,268.6L0.9,267.5L1.6,267L2.3,265.9L3.1,265.4L5.7,265.4L7.8,264.4L9.5,261.5L9.9,260L10.6,258.7L14.9,256.4L16,256.1L18.8,256.4L21.5,257.7L22.9,260.4L24,263.3ZM101.2,246.8L104.4,248L107.7,247.7L107.7,252.8L108.2,254.5L109.1,256.1L108.7,258.4L110.2,259.1L105.7,261.7L101.7,265.1L100,267.4L98.5,269.8L97.6,272.4L97.1,275.2L95.8,274.1L91.9,269.6L89.4,268.3L85.5,267.7L84.2,267.8L76.1,272.1L75,275.1L72.8,279.8L71.8,281.3L70.7,281.8L69.8,282.6L68.9,286.5L66.4,289L64.8,289L62.2,288.4L61,288.7L62.6,284.8L60.1,284.4L57.6,284.4L57.6,281.9L56.1,280.5L57.2,278.6L57.2,277.1L57.8,276.2L58.1,275L58,273.9L56.5,273.6L55.5,272.8L55.7,270.1L54.8,270L52.6,270.5L48.1,272.6L46.8,272.6L48.7,271.1L52.8,269L54.6,267.8L58.6,264.4L61,262.8L62.4,260L62.8,258.2L63.7,256.7L64.4,254.3L65.7,253.5L68,251.3L69.2,251.5L70.7,254.1L72.6,256.1L73.9,256L76.5,254.9L77.6,254.7L80.5,254.8L83,253.6L84.1,252.1L84.5,250.3L83.5,247.2L84.8,247.5L86,247.3L88.8,245.4L91.6,244.2L94.6,243.9L98,245ZM262,35.6L263,36.2L267.4,34.6L266.5,39.4L266.1,44.2L266.4,52.2L266.8,55.8L267.5,59.2L269.4,61.7L271.8,63.5L275.4,69.1L277.3,75.9L278.7,79.3L279.6,82.8L279.9,84.4L279.9,85.9L279.7,88.1L280,89.9L279.6,95.4L278,101.7L277.8,105L276.5,105.6L275.6,107.1L274.9,107.8L274.1,108.3L272.9,108.5L272.2,109.1L271.8,110.8L271.3,112.4L270.3,113.9L269.5,115.5L268.9,119.4L268.6,123.4L267.7,126.2L265.3,126.9L262.6,126.9L259.3,128.2L258.5,129L255.8,133.8L255.1,136.7L255.1,139.8L255.8,143.5L256.8,147.2L257.6,154L256.7,164.4L256,167.7L254.3,170L252.9,171L251.9,172.2L250.4,175.6L248,182.3L247.8,184L247.8,185.7L247.1,188L246.7,190.2L247.1,192.8L247.9,195.2L251.1,201.4L252.4,203.2L253.8,204.9L248.3,206.7L247.3,207.5L244,211L243,214.4L243.1,218L242.5,219.3L241.7,220.5L240.6,221.2L237,222.9L234.7,224.5L232.4,227.1L231.5,228.5L229.7,228.1L228.6,226.9L229.6,225.3L229.3,223.6L229.9,219L229.3,217.1L231.1,215.7L232,213.5L234,211.8L235.3,210.2L235.6,208.9L234.3,207.5L233.1,206.5L231.2,206.5L229.4,206.8L228.3,208.1L227.9,209.9L228,210.7L227.8,211.5L225.1,213.9L225.5,216.5L226.3,217.8L227.3,218.4L227,219.3L225.7,221.4L224.8,221.6L223.1,218.7L221,217.1L218.4,217.1L215.8,217.7L213.7,219.6L213,221.2L212.6,222.9L212.7,226.9L211.9,230.2L210.3,233.2L209.5,234.3L207.5,236.2L206.1,236.5L205.1,235.6L204.3,234.2L205.3,229.2L205.2,226.4L207.6,224.9L205.7,222.9L203.3,222.1L200,223.2L199.1,224.4L198.4,226L196.6,228.1L194.6,230L192.4,233.3L190.9,237.2L186,235.9L183.3,235.6L180.6,235.7L175.8,235.2L170.5,236L164.5,237.5L164.9,236.4L169.8,234.1L170,233.4L169.5,232.1L168.3,232.1L165.4,232.5L163.9,232.3L163.2,230.9L162.2,230.3L161.6,230.9L161.8,233.6L161,234L160.1,233.3L160.4,231.2L159.7,228.2L159.7,226.2L160.7,224.6L159.7,224L158.5,224.2L157,225L155.9,226.1L153.2,231.6L152.1,234.8L154.1,237.4L159.4,240.9L160.2,241.8L160.3,243.3L159.7,244.9L158.2,245.6L152.4,246.8L147.4,249L145.9,251.3L141.4,260.3L137.7,266.4L132.5,268.5L126.9,266.6L125.5,264.5L124.3,261.9L122.2,259.5L120.4,256.9L119.3,253.8L119.4,248.9L118.6,245.9L119.4,245.1L122.5,243.3L123.5,242.3L125.3,239.9L125.9,238.6L126,236.5L124.6,235.5L120.9,235.5L117.3,236.2L114.6,235.3L111.2,232.9L110.2,232.3L106.6,232.2L103.9,232.6L101.3,233.5L98.6,233.8L97.7,234.3L94.6,237.2L92.1,239.1L90,240L85.3,240.3L83,240.9L80.5,241.9L79.8,241.8L77.3,243.1L74.4,244.3L72.8,245.5L69.9,244.7L64.2,246.8L61.4,247.1L58.5,245.9L55.9,244.1L53.4,244.9L51.6,247.6L50.8,253.2L49.8,255.6L49.4,258.6L48.1,258.1L40.5,252.8L40,252.6L33.7,253.5L32.1,253.9L30.2,255L28.1,255.5L26.2,254.7L24.3,253.5L22.5,253.8L20.7,254.7L20,246.6L20.3,245.6L21.5,244.2L22.7,242.9L25.7,242.5L28.8,242.9L30.9,242.3L32.7,240.8L34.7,238.5L36.9,236.6L39.8,235.1L42.7,233.5L45.2,231.1L47.6,228.5L49.8,226.6L52.1,225L55.7,221.2L60.5,216.8L62.4,213.7L63.5,212.8L67.6,211L73.1,209.6L75.7,209.7L78.2,212.5L79.7,212.1L81,211.4L83.9,211L86.7,211.5L89.6,211.5L92.4,211.1L97.9,210.2L100.7,209.1L103.5,207.6L113.5,206.6L120.4,204.2L121.4,204.4L122.5,204.9L122.6,206.7L121.7,208.7L122.6,209.9L123.9,210.6L130.3,210.8L132.2,211.2L134.9,209.9L137.4,208.3L140,206.1L141.9,203.6L140.2,200.5L139.8,197.2L141.3,193.5L143.3,190.4L145.8,188.5L148.1,186.4L152.7,180.3L156,175.3L157.2,169.2L156.5,162L159.4,156.5L162.2,155.6L167.7,153.1L170.6,152.4L171,153.5L170.9,154.9L166.6,159.5L164.1,161.3L162.7,161.9L161.3,162.7L160.7,164.3L162.9,167L163.5,168.9L163.4,170.8L163.4,172.5L166,174.4L168.8,175L170,175L171.1,174.5L174.4,170L175.1,169.2L184.4,165.9L189.1,163.3L191.6,162.7L194,161.3L199.3,156.2L201.3,153.9L203.1,151.3L204.6,148.2L205.7,145L207.2,142.9L215.7,138L218.4,135.3L219.3,134L220.3,130.2L221.1,126.4L222.1,123.3L223.4,120.4L225.3,117.4L227.4,114.7L228.7,111.9L230.4,105.2L231.3,101.4L231.9,100.1L232.8,99L233.6,97.5L234.2,95.9L234.4,94.3L234.8,89.4L234.6,85.6L233.2,82.4L232,81.5L230.8,81.5L228.8,81.7L227.2,80.4L227.6,79.3L229.3,79.1L230.4,78.4L231.1,77.3L232.6,73.8L233.6,70L233.6,68.4L232.5,65.3L231.5,61.6L231.5,59.6L232.6,57.3L234,55.5L235.3,55L236.8,54.9L238,54.2L239.2,53.1L239.9,52L241,48.8L241.3,47.1L240.7,42.2L241.4,40.9L242.3,40.1L243.7,40.7L244.9,40.8L246.5,40.6L248,41.1L248.3,42.4L249.2,50.5L249.7,51.6L250.8,52.5L252,52.3L253.1,51.1L253.8,49.4L255.2,49L259.5,50.9L261,49.6L262,47.6L262.9,44L262.5,40.8L261.4,39.7L260.4,39.9L259.4,40.7L258.3,41.2L252,42.9L252.1,39.3L253.5,34L254.2,32.3L255.2,31.5L257.9,32.4L259.2,33Z"/></svg>
