<svg xmlns="http://www.w3.org/2000/svg" viewBox="0 0 300 300"><path fill="#e8e8ea" d="M48.3,185.8L48.2,181.4L48.8,170.4L48.8,160.7L49.3,155.8L51.7,152.7L52.8,150.5L53.6,147.3L54.9,144.8L57.7,142.7L58.2,141.6L61.2,138.1L63.1,133.7L64.5,132.2L66.1,130.7L67.3,130L69.3,129.3L70.9,128.8L71.2,128.5L71.2,127.8L70.8,125L71.4,124.1L72.4,122.3L73.6,120.6L74.7,119.4L75.4,118.3L75.6,116.4L75.7,115L75.6,112.8L75.4,107.6L74.1,103.4L73.3,98.6L73.8,97L72.8,94.2L72.3,94L71.5,93.4L70.5,90.8L69.7,88.4L69.2,87.7L65.8,85.6L64.1,80.6L62.2,79.5L61.1,74.6L61,73.2L62.1,68.2L61.9,67.1L60.8,66.1L57.6,65L55,62.9L55.3,62.2L55.5,61.5L54.2,61L50.1,52.5L55.3,47.5L60.4,42.3L67.1,35.8L73.2,29.8L78.4,24.6L83.1,20L83,20.8L83,22L83.6,22.8L84.6,23.2L85.9,22.7L87,22L88.2,21.9L95.3,23.8L96.4,25.5L96.4,27.2L96.7,28.6L96.1,29.9L95.6,33.9L95.8,37.5L97.9,40.2L99.7,42.3L101.2,45.3L102.4,46.2L103.8,46.7L108.7,46.8L115.9,47L122.7,47.1L123.4,47.2L124.8,47.6L131.2,51.7L137,55.3L141.9,58.5L146.7,61.6L151.4,64.6L155,67.2L158.5,67.9L164.2,68.3L168.3,68.4L171.9,69.4L177.4,70.4L181.5,70.9L184,71.5L190.8,72.1L191.9,71.7L195,68.9L198.4,64.5L199.8,62L204.1,59.5L211.8,56.1L217.2,53.6L223.3,51.2L226,53.3L229.8,56.7L231.4,58.4L232.8,59.1L234.9,59.6L237.4,59.6L238.8,59.5L241.5,59.1L248,58.7L251.8,58.7L248.7,63.2L244.9,68.6L237.9,78.6L232.7,83.8L228.7,87.7L228.3,88.4L228.4,92.8L228.4,103.6L228.5,125.1L228.6,146.6L228.7,168.1L228.7,178.8L228.7,182.4L232.2,187L235.6,191.3L240.1,197.2L242.5,200.3L243,201.4L242.8,203.5L239.1,207.9L236.1,209.9L232,210.8L230.8,210.6L229.1,210L228.5,211L228,212.7L227.1,212.3L226.5,211.8L226.8,214.8L227.3,216.2L226.6,218.1L224.6,219.8L224.4,221.2L220.1,225L214.1,225.4L210.9,227.3L209.4,228.8L208.3,232.1L208.7,237.3L207,241.2L206.7,243.2L203.5,245.7L202.1,248L201.1,250.4L200.2,251.5L199.1,256.8L197.6,260.1L197.3,261.2L196.9,262.2L195.8,264.1L195.1,265.4L194.5,266.2L190.8,274.5L187.8,278.3L185.6,277.9L184.1,279.3L183.9,280L183.1,279.6L181.2,278.3L177.3,275.4L173.4,272.6L169.5,269.8L165.5,266.9L161.7,264.1L157.7,261.3L153.8,258.5L149.9,255.6L147.6,254L146.6,253L145.8,251.1L145.4,250.6L144.3,250L143.1,249.8L142.7,249.5L142.7,248.5L143.2,247.2L144.7,244.6L144.8,243L144.5,241.3L144,238.6L143.7,237.9L141.1,236.5L135.7,233.4L130.2,230.4L124.8,227.3L119.3,224.3L113.9,221.3L108.4,218.3L103,215.2L97.6,212.2L92.2,209.1L86.8,206.1L81.2,203.1L75.8,200L70.4,197L65,194L59.6,190.9L54.1,187.9L52.1,186.7L50.2,185.8Z"/></svg>
