<svg xmlns="http://www.w3.org/2000/svg" viewBox="0 0 400 300"><path d="M151.1,166.6L153.2,167.9L197.6,192.9L198.5,200L216.1,212.3L210.4,227.5L211.1,234.5L219,239L219.3,242.2L216,249.6L216.7,253.4L215.9,259.3L220.2,267.1L225.2,279.4L229.7,282.1L219.9,289.3L206.6,294.2L199.2,294L194.8,297.7L186.3,298L183.1,299.6L168.4,296.1L159.1,297.1L155.7,280.1L151.5,274.3L149.1,270.9L137.1,268.6L130.1,264.8L122.3,262.7L117.4,260.7L112.3,257.5L105.7,241.9L98.6,235L96.2,227.9L97.4,221.5L95.1,210.1L100.2,209.6L104.7,205.1L109.4,198.7L112.5,196.1L112.4,192.1L109.7,189.3L109,184.5L112.5,183L113.2,175.7L108.4,168.8L112.7,167.4L126.1,167.5Z" fill="#2c2c34" stroke="#474751" stroke-width="0.8"/><path d="M69.2,300L68.5,298.2L65.1,300L50.9,300L50.9,300L47.1,294.7L39.3,293.6L33.5,293.9L32.9,290L28.6,289.7L23,288.9L15.4,290.8L10.1,290.5L7.1,291.6L7.8,276.8L3.7,272.2L2.7,264.6L4.5,257.1L2.1,252.3L1.9,244.5L0,244.6L0,103L0,103L1,103.1L10.2,105.5L13.8,98.1L15.5,97.1L21.1,98.4L34.7,92.2L39.6,94.8L43.6,94.4L45.4,91.5L50,90.4L59.2,91.7L67,92L71.1,90.7L78.5,100.8L84,102.3L87.3,100.3L92.9,101.1L99.8,98.5L102.7,103.7L113.5,111.9L112.8,126.2L117.7,127.9L113.7,132.3L109,135.5L104.3,141.9L101.7,147.6L101.1,157.4L98.2,162.1L98.1,171.4L94.6,174.8L94.1,182.1L92.5,183L91.3,189.7L94.4,195.3L95.1,210.1L95.1,210.1L97.4,221.5L96.2,227.9L98.6,235L105.7,241.9L112.3,257.5L107.5,256.3L91,258.3L87.7,259.8L84.2,267.7L87,273.2L84.8,288L83.4,300L69.2,300Z" fill="#2c2c34" stroke="#474751" stroke-width="0.8"/><path d="M245.3,175.6L238,165.4L237.9,120.8L248.6,106.8L251.9,103L259.8,102.7L270.7,94.1L286.7,93.5L321.3,56.5L329.9,46.2L335.4,38.5L335.4,32L335.4,19.5L335.4,14.3L335.5,14.1L339.5,13.9L345.1,12L351.6,10.8L357.4,6.5L362,6.4L362.3,9.9L361.2,17.2L361.3,23.7L358.7,28.2L355.2,41.7L349.3,55.5L341.7,71.3L331.2,89.4L320.7,103.1L306.3,119.9L294,129.8L275.7,142L264.3,151.3L250.9,166.2L248.1,172.7Z" fill="#2c2c34" stroke="#474751" stroke-width="0.8"/><path d="M174.5,0L167.7,5.7L162.5,15.3L161.3,20.4L155.4,23.9L151.8,36.9L152,48L151.9,38.4L150.1,38.1L150.4,31.9L148.9,27.7L142.6,22.7L141.1,13.7L142.6,4.5L136.9,3.6L136.1,6.4L128.7,7.1L131.6,10.7L132.7,18.2L125.9,25.1L119.9,34.1L113.5,35.4L103.2,28.1L98.6,30.7L97.3,34.3L91,36.6L90.6,39.2L78.4,39.2L76.7,36.6L67.9,36.2L63.5,38.3L60.1,37.3L53.8,30L51.6,26.6L42.8,28.3L39.5,34.1L36.3,45.2L32.1,47.5L28.3,48.9L36.7,53.7L36.7,53.7L27.3,48.3L23.1,44.7L22.3,40.8L24.3,35.7L24.2,30.6L17.2,22.8L15.8,17.5L15.9,14.4L11.4,10.8L11.3,3.5L9.5,0L174.5,0Z" fill="#2c2c34" stroke="#474751" stroke-width="0.8"/><path d="M9.5,0L11.3,3.5L11.4,10.8L15.9,14.4L15.8,17.5L8,19.6L1.8,24.6L0,27.4L0,0Z" fill="#2c2c34" stroke="#474751" stroke-width="0.8"/><path d="M0,27.4L1.8,24.6L8,19.6L15.8,17.5L17.2,22.8L24.2,30.6L24.3,35.7L22.3,40.8L23.1,44.7L27.3,48.3L36.7,53.7L43.4,58.7L43.5,62.7L51.7,69.2L56.8,74.5L59.9,81.9L69.1,86.8L71.1,90.7L71.1,90.7L67,92L59.2,91.7L50,90.4L45.4,91.5L43.6,94.4L39.6,94.8L34.7,92.2L21.1,98.4L15.5,97.1L13.8,98.1L10.2,105.5L1,103.1L0,103L0,27.4Z" fill="#2c2c34" stroke="#474751" stroke-width="0.8"/><path d="M28.6,300L28.5,299.6L29.9,293.6L28.6,289.7L32.9,290L33.5,293.9L39.3,293.6L47.1,294.7L50.9,300L28.6,300ZM65.1,300L68.5,298.2L69.2,300L65.1,300ZM83.4,300L84.8,288L87,273.2L84.2,267.7L87.7,259.8L91,258.3L107.5,256.3L112.3,257.5L112.3,257.5L117.4,260.7L122.3,262.7L130.1,264.8L137.1,268.6L142.9,274.1L146,284.7L143.9,288.1L141.4,298.2L141.8,300L83.4,300Z" fill="#2c2c34" stroke="#474751" stroke-width="0.8"/><path d="M141.8,300L141.4,298.2L143.9,288.1L146,284.7L142.9,274.1L137.1,268.6L137.1,268.6L149.1,270.9L151.5,274.3L155.7,280.1L159.1,297.1L158.1,300L141.8,300Z" fill="#2c2c34" stroke="#474751" stroke-width="0.8"/><path d="M158.1,300L159.1,297.1L159.1,297.1L168.4,296.1L183.1,299.6L186.3,298L194.8,297.7L199.2,294L206.6,294.2L219.9,289.3L229.7,282.1L231.7,287.7L231.2,300L158.1,300Z" fill="#2c2c34" stroke="#474751" stroke-width="0.8"/><path d="M0,244.6L1.9,244.5L2.1,252.3L4.5,257.1L2.7,264.6L3.7,272.2L7.8,276.8L7.1,291.6L10.1,290.5L15.4,290.8L23,288.9L28.6,289.7L29.9,293.6L28.5,299.6L28.6,300L0,300Z" fill="#2c2c34" stroke="#474751" stroke-width="0.8"/><path d="M109,184.5L109.7,189.3L112.4,192.1L112.5,196.1L109.4,198.7L104.7,205.1L100.2,209.6L95.1,210.1L94.4,195.3L91.3,189.7L98.8,190.7L102.5,183.7Z" fill="#2c2c34" stroke="#474751" stroke-width="0.8"/><path d="M261.1,0L259.9,1L255,0L261.1,0Z" fill="#2c2c34" stroke="#474751" stroke-width="0.8"/><path d="M254.6,0L250.4,5.5L246.2,11.3L247.2,14.8L247.4,18.6L254.2,18.8L257.1,17.9L259.9,20.2L257.2,24.6L261.7,31.4L266.2,37.4L270.9,41.9L311,56.6L321.3,56.5L321.3,56.5L286.7,93.5L270.7,94.1L259.8,102.7L251.9,103L248.6,106.8L240.2,106.8L235.3,102.7L224.1,107.8L220.4,113L212.3,112L209.5,110.6L206.7,110.9L202.8,110.8L187.3,100.3L178.8,100.3L174.6,96.3L174.6,89.4L168.2,87.3L160.9,73.9L155.3,71L153.2,66.1L147,60.1L139.5,59.2L143.6,52.1L150.1,51.8L152,48L151.8,36.9L155.4,23.9L161.3,20.4L162.5,15.3L167.7,5.7L174.5,0L254.6,0Z" fill="#2c2c34" stroke="#474751" stroke-width="0.8"/><path d="M255,0L259.9,1L261.1,0L265.1,0L265.1,0L266.5,1.8L266.1,7L259.1,10.1L264.4,13.5L259.9,20.2L257.1,17.9L254.2,18.8L247.4,18.6L247.2,14.8L246.2,11.3L250.4,5.5L254.6,0L255,0Z" fill="#2c2c34" stroke="#474751" stroke-width="0.8"/><path d="M335.5,14.1L335.4,14.3L335.4,19.5L335.4,32L335.4,38.5L329.9,46.2L321.3,56.5L311,56.6L270.9,41.9L266.2,37.4L261.7,31.4L257.2,24.6L259.9,20.2L264.4,13.5L268.4,15.8L270.8,20.9L276.3,26.2L282.4,26.2L294,23L307.3,21.5L318.1,17.7L324.2,16.8L328.6,14.5Z" fill="#2c2c34" stroke="#474751" stroke-width="0.8"/><path d="M151.1,166.6L126.1,167.5L112.7,167.4L108.4,168.8L101.1,172.6L98.1,171.4L98.2,162.1L101.1,157.4L101.7,147.6L104.3,141.9L109,135.5L113.7,132.3L117.7,127.9L112.8,126.2L113.5,111.9L118.5,108.5L126.3,111.3L136.2,108.4L144.8,108.4L152.3,102.8L158.2,111.3L159.6,117.5L165,131.5L160.5,140.5L154.5,148.6L151,153.6Z" fill="#2c2c34" stroke="#474751" stroke-width="0.8"/><path d="M108.4,168.8L113.2,175.7L112.5,183L109,184.5L102.5,183.7L98.8,190.7L91.3,189.7L92.5,183L94.1,182.1L94.6,174.8L98.1,171.4L101.1,172.6Z" fill="#2c2c34" stroke="#474751" stroke-width="0.8"/><path d="M113.5,111.9L102.7,103.7L99.8,98.5L92.9,101.1L87.3,100.3L84,102.3L78.5,100.8L71.1,90.7L69.1,86.8L59.9,81.9L56.8,74.5L51.7,69.2L43.5,62.7L43.4,58.7L36.7,53.7L28.3,48.9L32.1,47.5L36.3,45.2L39.5,34.1L42.8,28.3L51.6,26.6L53.8,30L60.1,37.3L63.5,38.3L67.9,36.2L76.7,36.6L78.4,39.2L90.6,39.2L91,36.6L97.3,34.3L98.6,30.7L103.2,28.1L113.5,35.4L119.9,34.1L125.9,25.1L132.7,18.2L131.6,10.7L128.7,7.1L136.1,6.4L136.9,3.6L142.6,4.5L141.1,13.7L142.6,22.7L148.9,27.7L150.4,31.9L150.1,38.1L151.9,38.4L152,48L150.1,51.8L143.6,52.1L139.5,59.2L147,60.1L153.2,66.1L155.3,71L160.9,73.9L168.2,87.3L159.9,95.4L152.3,102.8L144.8,108.4L136.2,108.4L126.3,111.3L118.5,108.5Z" fill="#2c2c34" stroke="#474751" stroke-width="0.8"/><path d="M238,181.4L237.6,181.5L237.8,180.8L239.1,179.9L239.7,180.1L239.8,180.3L239.8,180.5L239.5,180.7ZM151.1,167.2L151.1,165.1L151.4,159.8L151.3,155.1L151.6,152.8L152.7,151.3L153.3,150.2L153.7,148.7L154.3,147.5L155.6,146.5L155.9,146L157.3,144.3L158.2,142.1L158.9,141.4L159.7,140.7L160.2,140.4L161.2,140L162,139.8L162.1,139.7L162.1,139.3L161.9,138L162.2,137.5L162.7,136.7L163.3,135.8L163.8,135.3L164.1,134.8L164.3,133.8L164.3,133.2L164.3,132.1L164.1,129.6L163.5,127.6L163.1,125.3L163.4,124.5L162.9,123.2L162.7,123.1L162.3,122.8L161.8,121.5L161.4,120.4L161.2,120.1L159.5,119.1L158.7,116.7L157.8,116.1L157.3,113.7L157.2,113.1L157.7,110.7L157.6,110.1L157.1,109.6L155.6,109.1L154.3,108.1L154.5,107.8L154.5,107.4L153.9,107.2L152,103.1L154.5,100.7L156.9,98.2L160.2,95.1L163.1,92.2L165.6,89.7L167.8,87.5L167.8,87.9L167.8,88.5L168.1,88.8L168.5,89.1L169.2,88.8L169.7,88.5L170.3,88.4L173.7,89.3L174.2,90.1L174.2,91L174.4,91.6L174.1,92.2L173.8,94.2L173.9,95.9L174.9,97.2L175.8,98.2L176.5,99.7L177.1,100.1L177.8,100.3L180.1,100.4L183.6,100.5L186.9,100.6L187.2,100.6L187.9,100.8L191,102.7L193.7,104.5L196.1,106L198.4,107.5L200.7,109L202.4,110.2L204.1,110.5L206.8,110.7L208.8,110.8L210.5,111.3L213.2,111.7L215.1,112L216.3,112.2L219.6,112.5L220.2,112.4L221.6,111L223.3,108.9L223.9,107.7L226,106.5L229.7,104.8L232.3,103.7L235.2,102.5L236.5,103.5L238.4,105.1L239.1,106L239.8,106.3L240.8,106.5L242,106.5L242.7,106.5L244,106.3L247.1,106.1L248.9,106.1L247.4,108.3L245.6,110.9L242.3,115.7L239.8,118.2L237.8,120.1L237.6,120.4L237.7,122.5L237.7,127.7L237.7,138L237.8,148.4L237.8,158.7L237.8,163.9L237.8,165.6L239.5,167.8L241.2,169.9L243.3,172.7L244.5,174.2L244.7,174.7L244.6,175.7L242.9,177.8L241.4,178.8L239.4,179.2L238.8,179.1L238,178.8L237.7,179.3L237.5,180.1L237.1,180L236.8,179.7L236.9,181.1L237.2,181.8L236.8,182.8L235.9,183.6L235.8,184.2L233.7,186.1L230.8,186.3L229.3,187.2L228.6,187.9L228,189.5L228.2,192L227.4,193.8L227.3,194.8L225.7,196L225.1,197.1L224.6,198.3L224.1,198.8L223.6,201.4L222.9,202.9L222.7,203.5L222.6,203.9L222,204.8L221.7,205.5L221.4,205.9L219.6,209.9L218.2,211.7L217.1,211.5L216.4,212.2L216.3,212.5L215.9,212.3L215,211.7L213.1,210.3L211.3,208.9L209.4,207.6L207.5,206.2L205.6,204.9L203.7,203.5L201.8,202.2L200,200.8L198.9,200L198.4,199.5L198,198.6L197.8,198.4L197.3,198.1L196.7,198L196.5,197.8L196.5,197.4L196.7,196.7L197.4,195.5L197.5,194.7L197.4,193.9L197.1,192.6L197,192.3L195.7,191.6L193.1,190.1L190.5,188.7L187.9,187.2L185.3,185.7L182.7,184.3L180,182.8L177.4,181.4L174.8,179.9L172.2,178.4L169.6,177L166.9,175.5L164.3,174L161.7,172.6L159.1,171.1L156.5,169.7L153.9,168.2L152.9,167.7L152,167.2Z" fill="#b8e653" stroke="#0c0e06" stroke-width="1"/></svg>
