<svg xmlns="http://www.w3.org/2000/svg" viewBox="0 0 400 300"><path d="M308.7,0L309.8,2.2L317.7,5.6L322.6,13.1L337.2,10.8L343.2,21.4L343.2,21.4L334.6,32.9L325.2,34.5L324.6,51.5L318.3,59.1L295.8,53.6L287.6,83.1L281.8,86.7L259.3,93.1L269.5,120.5L261.8,124.5L262.7,133.3L255.7,131.1L250,125.5L233.1,123.9L214.3,123.5L210.2,125.2L194,118.7L187.6,121.9L185.8,131L167.2,125.7L159.7,127.9L157.1,134.6L150.7,137.5L135.7,148.1L130.7,158.8L126.5,158.9L123.4,151.8L108.9,151.3L106.6,138.9L101.1,138.8L102,123.3L88.4,112L68.9,113.2L55.6,115.5L44.8,101.2L35.5,95.2L17.9,83.7L15.8,82.3L0,87.4L0,0Z" fill="#2c2c34" stroke="#474751" stroke-width="0.8"/><path d="M0,87.4L15.8,82.3L17.9,83.7L35.5,95.2L44.8,101.2L55.6,115.5L68.9,113.2L88.4,112L102,123.3L101.1,138.8L106.6,138.9L108.9,151.3L123.4,151.8L126.5,158.9L130.7,158.8L135.7,148.1L150.7,137.5L157.1,134.6L160.5,136.1L151,146L159.4,151.7L167.4,147.9L180.9,155.9L166.4,166.6L157.7,165.1L153.1,165.5L151.4,161.4L153.8,154.4L138.6,157.9L135,167.5L129.6,175.7L120.1,175L117.2,181.4L125.5,184.9L128,195.7L121.6,210.2L113,207.2L106.7,207.1L107,198.3L92,192.2L80.1,185.1L72.7,178.2L59.7,168L54.1,152.6L50.3,149.8L38,150.5L33.7,147.4L32.5,135.3L17.2,127.2L7.6,136.1L0,140.3L0,87.4Z" fill="#2c2c34" stroke="#474751" stroke-width="0.8"/><path d="M385,0L381.3,1.8L359.6,17L347.7,20L343.2,21.4L337.2,10.8L322.6,13.1L317.7,5.6L309.8,2.2L308.7,0L385,0Z" fill="#2c2c34" stroke="#474751" stroke-width="0.8"/><path d="M400,90.3L397.4,89.9L383.9,87.1L379.8,80.1L384.2,60.9L376.3,47.5L360.2,41.1L350.7,32.1L347.7,20L347.7,20L359.6,17L381.3,1.8L385,0L400,0Z" fill="#2c2c34" stroke="#474751" stroke-width="0.8"/><path d="M192,300L196.4,294.7L196.2,285.3L205.9,277.5L196.7,270.9L192.8,261.7L188.8,249.8L194.4,243.8L211.6,247.2L224.2,245.1L235.2,233.5L247.3,249.7L246.2,260.8L250.7,267.8L250.4,274.7L242.2,272.9L245.4,287.6L256.5,296L263.3,300L192,300Z" fill="#2c2c34" stroke="#474751" stroke-width="0.8"/><path d="M105.1,300L105.2,297.9L111.5,290.4L119.9,290.5L121.2,286.7L129.9,285L134.1,286.2L138.5,282.5L137.9,274.4L142.7,266.3L149.9,262.8L145.4,253.8L156.3,254.3L159.4,249.3L158.9,244L164.5,238.2L163.2,231.3L160.5,225.4L167.2,219.2L179.4,216.2L192.4,214.6L198.2,212L204.8,210.4L213.2,217L216.5,227.8L235.2,233.5L235.2,233.5L224.2,245.1L211.6,247.2L194.4,243.8L188.8,249.8L192.8,261.7L196.7,270.9L205.9,277.5L196.2,285.3L196.4,294.7L192,300L105.1,300Z" fill="#2c2c34" stroke="#474751" stroke-width="0.8"/><path d="M51.2,300L53,298L52,289.5L43.5,287.2L42.6,278.7L38.8,268L43.7,260.5L38.8,258.5L41.9,248.6L46.5,231.3L58.1,236.6L66.6,234.7L69,228.4L77.9,226.3L84.4,222L86.6,210.7L96.2,207.9L98,202.8L103.3,206.7L106.7,207.1L106.7,207.1L113,207.2L121.6,210.2L125.1,211.9L133.3,207.4L137.1,210.1L140.8,203.6L147.5,203.9L149.3,201.8L150.5,196L155.4,191L161.5,194.2L160.3,198.7L163.7,199.3L162.7,211.3L167.2,216L171.1,213L176.1,211.6L183.2,205.2L191.1,206.3L202.7,206.3L204.8,210.4L198.2,212L192.4,214.6L179.4,216.2L167.2,219.2L160.5,225.4L163.2,231.3L164.5,238.2L158.9,244L159.4,249.3L156.3,254.3L145.4,253.8L149.9,262.8L142.7,266.3L137.9,274.4L138.5,282.5L134.1,286.2L129.9,285L121.2,286.7L119.9,290.5L111.5,290.4L105.2,297.9L105.1,300L51.2,300Z" fill="#2c2c34" stroke="#474751" stroke-width="0.8"/><path d="M121.6,210.2L128,195.7L125.5,184.9L117.2,181.4L120.1,175L129.6,175.7L135,167.5L138.6,157.9L153.8,154.4L151.4,161.4L153.1,165.5L157.7,165.1L153.6,169.7L141.2,167.3L140.2,175.8L152.5,174.6L166.5,179.4L187.9,177.2L190.8,190.7L194.5,189.2L201.4,192.5L201,198.1L202.7,206.3L191.1,206.3L183.2,205.2L176.1,211.6L171.1,213L167.2,216L162.7,211.3L163.7,199.3L160.3,198.7L161.5,194.2L155.4,191L150.5,196L149.3,201.8L147.5,203.9L140.8,203.6L137.1,210.1L133.3,207.4L125.1,211.9Z" fill="#2c2c34" stroke="#474751" stroke-width="0.8"/><path d="M0,140.3L7.6,136.1L17.2,127.2L32.5,135.3L33.7,147.4L38,150.5L50.3,149.8L54.1,152.6L59.7,168L72.7,178.2L80.1,185.1L92,192.2L107,198.3L106.7,207.1L103.3,206.7L98,202.8L96.2,207.9L86.6,210.7L84.4,222L77.9,226.3L69,228.4L66.6,234.7L58.1,236.6L46.5,231.3L45.5,219.5L37.1,219L24.1,206.4L15,204.8L2.5,197.6L0,197.2L0,140.3Z" fill="#2c2c34" stroke="#474751" stroke-width="0.8"/><path d="M0,197.2L2.5,197.6L15,204.8L24.1,206.4L37.1,219L45.5,219.5L46.5,231.3L41.9,248.6L38.8,258.5L43.7,260.5L38.8,268L42.6,278.7L43.5,287.2L52,289.5L53,298L51.2,300L0,300Z" fill="#2c2c34" stroke="#474751" stroke-width="0.8"/><path d="M263.3,300L256.5,296L245.4,287.6L242.2,272.9L250.4,274.7L250.7,267.8L246.2,260.8L247.3,249.7L235.2,233.5L216.5,227.8L213.2,217L204.8,210.4L202.7,206.3L201,198.1L201.4,192.5L194.5,189.2L190.8,190.7L187.9,177.2L191.2,173.8L189.6,170.3L200.4,163.3L208.3,160.4L220.3,162.4L224.6,152.8L239.1,151.1L243.2,145.1L261.1,136.8L262.7,133.3L262.7,133.3L261.8,124.5L269.5,120.5L259.3,93.1L281.8,86.7L287.6,83.1L295.8,53.6L318.3,59.1L324.6,51.5L325.2,34.5L334.6,32.9L343.2,21.4L347.7,20L350.7,32.1L360.2,41.1L376.3,47.5L384.2,60.9L379.8,80.1L383.9,87.1L397.4,89.9L400,90.3L400,300Z" fill="#2c2c34" stroke="#474751" stroke-width="0.8"/><path d="M157.1,165.2L157.5,165L158.7,164.8L161,164.5L161.8,164.7L162.8,165.2L163.5,165.7L164.2,165.7L164.7,165.6L165,165.7L165.2,166.1L165.4,166.5L166.3,166L167.2,165.3L167.8,165.2L168.4,164.9L168.6,164.5L169.1,163.7L170.4,162.3L171.1,162L171.6,162L171.6,162.3L171.8,162.5L173,162.8L173.3,162.4L173.5,161.9L173.1,161.1L173.1,160.7L173.3,160.4L173.5,160.2L175.4,161L175.8,161L176.6,160.5L177.4,159.7L177.7,159.1L181.5,157.1L181.8,156.7L181.8,156.4L180.1,155.9L179.5,156.2L178.8,156.2L178.4,155.9L176.4,155.8L176,155.6L174.7,154.1L173.8,153.6L173,153.2L172.3,153.3L171.3,153.6L171,153.5L171,152.8L171,152.1L170.8,151.2L170.2,151L169.5,151.4L168.5,151L167.6,150.9L167.3,149.2L167,148.4L166.6,147.6L166.2,147.4L165.5,147L165.5,146.1L165.4,145.8L165.1,145.7L164.8,145.8L164.4,146.3L164.6,147.3L164.5,148.3L164.2,148.8L163.8,149.2L163.2,149.2L162.3,148.7L162.2,151.8L162.1,152L161,151.6L160.1,151.7L158.8,151.6L157.9,151L157.1,150.9L156,150.5L155.1,149.9L154.6,147.8L154,147.1L153.6,146.9L151.6,147.6L150.9,147.1L149.5,146.4L148.5,146.1L148.2,145.7L148.3,145.2L151.4,142.9L152.6,141.3L153.4,140.6L154.5,140.1L155.4,139.9L155.8,138.4L156,138.2L156.6,138.1L157.9,137.5L160.2,136.2L160.2,135.9L160,135.5L159.1,134.9L158,134.3L157.4,134.6L157,134.9L156.4,134.2L156.4,133.5L157,132.3L157.6,131.7L157.8,130.5L158.7,129.7L159.5,128.4L160.5,127.4L162.4,126.7L163.4,126.9L164.4,126.7L165.9,126.1L166.2,126.1L166.8,126.1L170.8,127L172.1,127.1L175.1,128.3L176.5,128.6L177.5,128.9L177.9,129.4L178.6,130.1L182.4,130.6L183.5,131L183.9,131.5L184.9,132.3L185.9,132.4L185,129.6L185.4,127.9L186.6,123.3L187.2,122.6L188.4,121.9L190.3,121.2L191.1,120.3L192.6,120.4L193.3,120.3L193.8,120.1L194,119.6L195.8,120.5L198.7,122.4L200.9,123.6L203.5,124.8L207.1,125.8L210.2,126.2L210.7,125.9L211.9,124.3L212.5,124.3L213.6,124.4L216.8,124.5L220.1,124.6L221.7,124.4L225,123.7L225.5,123.7L226.3,123.8L228.4,124.7L229.9,124.8L230.9,124.8L231.5,124.8L232.7,124.8L234.8,124.9L237.3,125.5L240.3,125.4L241.3,125.3L243,125.4L244.3,126L246,126.5L247.1,126.8L247.8,126.9L249,127L249.8,126.8L250.2,127.1L250.7,128.5L251.7,129.4L252.5,130.3L253.2,131.3L253.9,131.7L255.1,131.7L257.5,132L258.8,132.4L260.5,134.1L262.1,135.8L262.3,136.7L262.5,137.8L262.4,138L262.2,138.2L258.7,138.5L257.9,138.8L257.1,140.2L254.1,141.4L252.4,142L251.7,142L250,143L245.4,145.4L243.2,146.9L242,147.5L241.1,148.3L241,149L240.9,149.6L238.4,152.7L236.5,153.1L234.9,153L233.8,153.5L232.3,154L228.9,153.6L227.7,153.7L225.5,153.3L224.6,153.5L223.7,154.1L222.3,156.6L221.8,157.2L221.6,157.7L221.4,158.9L220.9,160.2L220.2,161.2L219.8,162.1L218.8,163L217.9,163.5L217.2,162.4L216.7,162.7L216.1,163.2L215,163L214.4,163.3L212.9,164.3L210.7,164.2L210.4,163.9L210,161.1L209.6,159.8L209.3,159.5L208.9,159.4L205.7,161.6L204.2,162L203,162.1L201.4,161.4L201.1,161.6L200.8,162L200.7,162.4L201.2,163.6L201.1,163.9L200.3,163.9L199.3,164.2L198.6,164.7L196.3,166.7L194.4,167.4L192.6,167.7L191.9,167.9L191.5,168.1L190.9,169.1L190.3,170.6L190,171.3L189.7,171.7L189.8,172.3L190.3,173L190.6,174.6L190.6,175L190.2,175.7L189.6,176.3L188.4,176.7L187.5,176.9L186.8,176.8L185.6,176.7L184.7,177L184.1,177.4L182.9,178L181.5,178.2L179.7,178.2L178.8,178.2L176.2,177.8L175.3,178L174.5,178.2L173,178.6L172.2,179.5L171.8,180.3L171.5,180.4L170.6,179.7L169.9,178.9L169.4,178.3L168.8,178.3L166.7,179.4L166.4,179.4L165.8,179L165.9,177.9L165.9,177.3L165.2,176.9L163.8,176.8L163.3,176.5L163.3,175.9L163.4,175.4L163.3,175L162.9,174.6L162.2,174.7L161.3,175.1L160.7,175.6L159.9,175.9L158.9,176L158.3,176.3L157.6,177.5L155.3,177.7L154.5,177.4L153.9,176.6L153.1,175.2L152.7,175L151.9,174.9L150.7,175L149,175.5L148.6,175.1L148.2,174.9L147.8,175.3L147.4,175.3L145.8,175.4L143.6,175.3L142.4,175.1L141.7,175.1L140.2,175.7L139.3,175.7L138.3,175.8L138.1,173.7L137.5,172.3L137.7,171.3L138,170L138.4,169.2L139,169.5L139.8,170.1L140.3,170L140.4,169.5L140.2,168.9L140.2,168.5L140.5,167.9L140.9,167.3L143.6,166.4L145.9,165.8L147.1,166.2L149.3,167.2L150.5,167.7L151.3,168.1L152.1,169.5L152.5,169.4L153,169.2L153.3,168.8L153.6,167.5L154.6,166.8L157,166L157.1,165.5ZM159.9,170.4L160,170.2L159.6,169.1L160.2,168.1L159.1,167.9L158.5,167.6L157.8,166.6L157.6,166.5L157.3,166.8L157.1,167.5L157.3,168.2L157.8,168.7L158,168.9L158.1,168.9L158.1,169.1L157.7,170.3L158.3,170.5L159.4,170.5ZM166.4,169.5L166.5,168.9L166.3,168.9L165.9,169.1L165.3,169.2L165.2,169.6L165.6,170L166.1,170.1ZM154.2,171.4L154.2,171.1L153.8,170.9L152.7,170.8L151.9,170.5L151.7,170.5L151.8,170.8L152.1,171.3L152.6,171.9L153.2,171.9Z" fill="#b8e653" stroke="#0c0e06" stroke-width="1"/></svg>
