<svg xmlns="http://www.w3.org/2000/svg" viewBox="0 0 300 300"><path fill="#e8e8ea" d="M60.8,181.7L61.5,181.2L64,180.7L68.9,180.2L70.6,180.5L72.6,181.6L74,182.6L75.5,182.6L76.6,182.4L77.1,182.6L77.5,183.5L78.1,184.3L80,183.3L81.7,181.8L83,181.6L84.3,181.1L84.7,180.1L85.7,178.5L88.5,175.5L89.9,175L90.9,175L90.9,175.5L91.4,176L93.8,176.7L94.5,175.9L94.9,174.7L94.1,173L94.1,172.2L94.4,171.5L94.9,171.2L98.8,172.8L99.6,172.8L101.4,171.9L103,170.2L103.6,168.9L111.6,164.7L112.2,163.9L112.1,163.4L108.7,162.4L107.3,163L105.8,163L105,162.3L100.9,162.1L100,161.7L97.3,158.6L95.5,157.4L93.9,156.7L92.3,156.8L90.4,157.6L89.8,157.2L89.6,155.9L89.7,154.3L89.2,152.6L88.1,152.1L86.6,152.9L84.4,152.1L82.5,151.9L82,148.3L81.3,146.7L80.5,145.1L79.6,144.6L78.3,143.7L78.2,141.8L77.9,141.3L77.4,141L76.8,141.2L76,142.2L76.4,144.3L76.1,146.5L75.6,147.6L74.6,148.3L73.5,148.4L71.7,147.3L71.4,153.8L71.1,154.2L68.9,153.2L67.1,153.6L64.4,153.2L62.4,152.1L60.9,151.9L58.5,150.9L56.6,149.8L55.5,145.4L54.4,143.9L53.4,143.6L49.3,145.1L47.8,143.9L45,142.4L42.9,141.9L42.3,141.1L42.4,140.1L48.9,135.2L51.4,131.8L53.1,130.5L55.3,129.5L57.1,128.9L58.1,125.9L58.4,125.5L59.7,125.3L62.5,124L67.2,121.3L67.2,120.6L66.8,119.9L64.9,118.6L62.7,117.4L61.3,118L60.5,118.6L59.3,117.2L59.3,115.7L60.6,113.1L61.8,111.8L62.3,109.4L64,107.8L65.7,105.2L67.8,103L71.7,101.5L73.9,102L75.9,101.6L79.1,100.3L79.7,100.3L81,100.2L89.2,102.2L91.9,102.3L98.2,104.8L101.1,105.4L103.1,106.1L104,107.2L105.6,108.6L113.5,109.7L115.7,110.4L116.4,111.6L118.6,113.1L120.6,113.5L118.9,107.6L119.6,104.1L122.1,94.4L123.4,92.9L126,91.6L129.9,90.2L131.4,88.2L134.6,88.4L136,88.2L137,87.9L137.5,86.7L141.2,88.7L147.3,92.6L151.9,95.2L157.3,97.6L164.8,99.8L171.2,100.5L172.3,99.9L174.8,96.6L176,96.5L178.2,96.8L184.9,97L191.8,97.1L195,96.8L202.1,95.4L203.1,95.3L204.7,95.4L209,97.3L212.1,97.6L214.2,97.6L215.4,97.7L218.1,97.6L222.3,97.9L227.5,99.1L233.9,98.9L235.8,98.6L239.4,98.9L242.1,100L245.7,101.2L247.9,101.7L249.3,102L252,102.1L253.6,101.7L254.5,102.3L255.4,105.2L257.6,107.2L259.3,109.1L260.7,111.1L262.2,111.9L264.7,112L269.5,112.5L272.4,113.3L275.8,116.8L279.2,120.4L279.6,122.4L280,124.6L279.7,125.1L279.3,125.5L272,126L270.4,126.6L268.7,129.7L262.5,132.2L258.9,133.4L257.5,133.4L254.1,135.4L244.5,140.4L239.8,143.6L237.4,144.9L235.6,146.4L235.2,147.8L235.1,149.2L229.9,155.6L226,156.4L222.6,156.3L220.4,157.3L217.1,158.2L210.1,157.6L207.7,157.7L203,156.8L201.2,157.3L199.2,158.6L196.5,163.7L195.4,164.9L194.9,166L194.4,168.5L193.4,171.2L192.1,173.2L191.1,175.2L189.2,177L187.3,178.2L185.9,175.8L184.7,176.4L183.5,177.4L181.3,177.1L179.9,177.6L176.8,179.7L172.2,179.6L171.7,178.9L170.7,173.1L170,170.3L169.3,169.7L168.4,169.6L161.9,174.2L158.8,175L156.3,175.2L153,173.8L152.3,174.1L151.7,174.9L151.4,175.8L152.5,178.4L152.2,178.9L150.7,178.9L148.6,179.5L147,180.6L142.3,184.8L138.3,186.2L134.6,186.8L133.1,187.2L132.4,187.7L131.1,189.7L129.9,192.8L129.2,194.3L128.7,195.2L128.8,196.4L129.8,197.8L130.5,201.2L130.4,202L129.6,203.4L128.4,204.7L125.9,205.6L123.9,205.9L122.6,205.7L120.1,205.6L118.1,206.2L116.9,207.1L114.5,208.2L111.5,208.6L107.8,208.8L106,208.6L100.5,207.9L98.7,208.2L96.9,208.8L93.8,209.4L92.1,211.3L91.3,213.1L90.8,213.3L88.8,211.7L87.4,210.2L86.4,208.9L85.2,209L80.8,211.2L80.2,211.2L78.9,210.3L79.1,208.1L79.1,206.7L77.6,206L74.6,205.8L73.6,205L73.7,203.9L74,202.8L73.6,201.9L72.9,201.2L71.3,201.4L69.5,202.3L68.2,203.3L66.6,203.8L64.5,204L63.3,204.6L61.9,207.1L57,207.6L55.4,207.1L54.2,205.3L52.5,202.4L51.6,202.1L50,201.7L47.4,201.9L44,203.1L43.1,202.1L42.2,201.8L41.4,202.7L40.6,202.5L37.2,202.8L32.7,202.7L30.3,202.1L28.7,202.1L25.5,203.4L23.8,203.4L21.6,203.7L21.2,199.3L20,196.4L20.3,194.4L21.1,191.6L21.8,190L23.1,190.7L24.8,191.8L25.8,191.5L26,190.6L25.7,189.3L25.6,188.4L26.2,187.2L27.1,186.1L32.7,184.2L37.4,182.8L39.9,183.7L44.6,185.8L47.1,186.9L48.8,187.6L50.3,190.6L51.3,190.4L52.3,189.9L52.9,189.1L53.4,186.5L55.6,185L60.5,183.3L60.9,182.3ZM66.6,192.4L66.8,191.9L66,189.7L67.2,187.6L64.9,187.2L63.7,186.6L62.3,184.5L61.9,184.3L61.2,184.9L60.9,186.3L61.1,187.9L62.1,188.9L62.7,189.2L62.8,189.3L62.8,189.8L62.1,192.3L63.2,192.6L65.5,192.6ZM80.2,190.6L80.4,189.2L79.8,189.3L79.1,189.6L77.9,190L77.5,190.7L78.5,191.6L79.6,191.9ZM54.8,194.5L54.7,193.8L53.8,193.5L51.5,193.2L49.9,192.7L49.6,192.6L49.7,193.3L50.4,194.3L51.4,195.5L52.6,195.6Z"/></svg>
