<svg xmlns="http://www.w3.org/2000/svg" viewBox="0 0 400 300"><path d="M103.5,300L88.8,292.1L84.7,296.3L75.4,287.2L71.4,275.4L58.8,261.9L47.3,250.6L43.5,264.6L39,251.4L41.5,236.5L48.5,213.5L60,188.8L72.9,166.3L63.7,144.2L64.1,133L61.3,119.4L45.6,100L40,87.8L48.2,83.2L56.7,61.9L47.1,45.6L32.1,27.5L20.7,5.7L30.6,1.2L31.1,0L108.7,0L108.7,0L107.2,6.6L107.7,28.9L132.7,14.1L139.7,18.5L153.6,17.8L158.3,9.1L176.2,10.8L194.2,31L195.7,55.4L214.8,76.8L213.7,97.5L206.1,108.5L206.1,108.5L183.9,105.1L153.3,109.7L138.2,129.9L143.8,159.2L122.6,148.1L102.4,148.5L105.8,129.5L85,129.6L83.1,156.3L70.4,191.5L62.7,212.8L64.3,230.1L79.7,230.9L89.3,252.7L93.6,273.4L106.8,287L121.1,289.8L131.3,300L103.5,300Z" fill="#2c2c34" stroke="#474751" stroke-width="0.8"/><path d="M202.7,0L203.1,0.2L222.8,29.6L237.7,51.4L255.5,68.5L261.5,85.9L257.2,110.3L257.2,110.3L236.3,101.3L225.6,118.1L206.1,108.5L213.7,97.5L214.8,76.8L195.7,55.4L194.2,31L176.2,10.8L158.3,9.1L153.6,17.8L139.7,18.5L132.7,14.1L107.7,28.9L107.2,6.6L108.7,0L202.7,0Z" fill="#2c2c34" stroke="#474751" stroke-width="0.8"/><path d="M31.1,0L30.6,1.2L20.7,5.7L32.1,27.5L47.1,45.6L56.7,61.9L48.2,83.2L40,87.8L45.6,100L61.3,119.4L64.1,133L63.7,144.2L72.9,166.3L60,188.8L48.5,213.5L46.2,195.6L53.5,177.2L45.5,162.9L47.5,136.5L37.9,123.9L30.2,94.8L25.9,63.8L15.6,43.3L0.1,55.7L0,55.8L0,0Z" fill="#2c2c34" stroke="#474751" stroke-width="0.8"/><path d="M223.1,0L234.6,16.7L256.7,49.1L278.2,64.3L292.5,84L303.3,129.2L300.2,171.7L280.5,187.6L253.4,203.1L234.1,223.1L204.6,245.4L196,230.1L202.7,213.8L185.2,200.2L185.2,200.2L205.6,190.5L230.4,188.8L220,174.2L259.8,155.6L262.7,126.5L257.2,110.3L261.5,85.9L255.5,68.5L237.7,51.4L222.8,29.6L203.1,0.2L202.7,0L223.1,0Z" fill="#2c2c34" stroke="#474751" stroke-width="0.8"/><path d="M327,0L306.7,11.9L306.7,11.9L287.3,4.2L287.1,0L327,0Z" fill="#2c2c34" stroke="#474751" stroke-width="0.8"/><path d="M86.6,300L84.7,296.3L84.7,296.3L88.8,292.1L103.5,300L86.6,300Z" fill="#2c2c34" stroke="#474751" stroke-width="0.8"/><path d="M154.7,181L154.3,181.2L153.8,181.2L153.4,180.9L153.5,179.4L153.8,178.6L154.5,178.4ZM161.2,194.6L160.2,195.5L158.9,193.6L158.9,193.1ZM260.5,98L260.8,99.3L259.8,101.9L258.8,104.2L256.8,106.2L256.7,107.7L255.9,112.1L256.3,113.5L256.7,114.7L257.4,115.4L259.1,119.7L260.6,123.6L262.2,126.8L262.5,128.9L261.1,134L259.4,138.8L259.5,141.1L260.3,143.5L261,146.6L261.3,150.7L260.9,153.3L260.1,154.9L258.7,156.6L257.5,157.4L255.9,156L254.8,156L253.1,156.4L251.9,157L249.4,159.5L246.5,161.8L242.6,162.5L241.1,164.2L239.4,164.5L236.3,164.6L234.3,165L234.4,165.9L234.2,170L234.2,171L234,171.3L232.5,171.4L230.2,170.8L226.9,169.7L224.6,169.5L223.4,171.4L222.8,172.1L221.9,172.2L221,172.5L220.7,173.4L220.6,174.4L221.1,176.1L221.2,178.8L221.1,180.7L222,181.9L226.8,186L228.3,187L228.5,187.5L227.6,189.7L228.4,192.8L226.8,192.7L224.3,191.4L223,190.6L221.6,191.2L221.1,191.1L220,189.6L218.8,188.1L217.4,188L214.5,188.6L211.6,189L210.5,189L210,189.3L208.3,191.6L207.6,191.2L204.6,190.3L202,190L201.4,190.6L201.7,192.4L202.3,194.2L202,195L200.5,196L198.5,197.7L197.3,199L196.6,199.4L193.6,199.3L190.6,199.5L189.4,200.7L188.3,201.7L187.4,202L183.5,198.9L175.8,197.8L174.9,196.4L174.2,196.2L173.5,197.9L169.2,199.7L167.5,198.6L166.2,197.4L166.3,195.8L167.6,194.6L169.7,193.6L170.7,190.5L169.1,186.4L167.7,185.2L166.2,184.3L164.6,185.8L163.4,188.4L162,189.7L160,190L157.2,189.9L156.1,186L155.8,182.7L156.1,179L156.6,176.8L153.8,173.7L153.7,170.7L152.4,169.2L152.1,170L152.1,170.8L151.7,170.2L147.4,161.5L146.7,157.5L147.4,154.4L147.8,153.4L146.6,151.8L144.8,149.9L141.8,147.5L141.6,143.7L140.9,139.1L140,137.6L138.5,134.8L137.8,132.5L137.5,126.4L137.9,125.9L140.1,125.7L142.9,125.3L143.4,124.3L142.9,123.5L144.6,122.1L147.2,119L149.2,115.9L150.6,113.8L151.5,111.9L154.3,109L158.3,107.1L161,106.6L163.8,106L166.5,105L167.8,104.9L171.1,106.1L173,106.4L174.9,106.4L176.8,106.5L178.5,106.4L182.6,105.6L186.9,106.2L190.9,105.7L195.6,104.7L198,105.3L200.1,106.3L200.5,108.1L201,109L201.7,109.7L202.6,109.7L203.9,108.3L204.9,107L205.2,106.7L205.2,107.4L205.7,108.9L206.7,110.3L207.6,111.3L209.1,112.5L210.2,112.6L213.5,111.4L218.3,113.1L218.9,114L220.6,115.8L222.3,117L226.1,117.1L227.4,114L226.8,112.1L224.6,108.8L224,106.8L224.7,106.5L228.5,106.1L229.1,105.7L229.8,103.6L230.8,103.8L232.9,104.1L235.1,102.6L236.4,101.1L237.1,101.8L237.8,102.9L238.7,103.5L240.2,104.5L242,105.8L243,107L243.9,107.5L246.1,107.2L246.7,107.2L247.9,105.7L248.9,104.8L249.7,105L250.8,105L253.1,103.1L254.3,101.2L255.1,100.8L257.1,101.7L258,101.5L259.2,99Z" fill="#b8e653" stroke="#0c0e06" stroke-width="1"/></svg>
