<svg xmlns="http://www.w3.org/2000/svg" viewBox="0 0 300 300"><path fill="#e8e8ea" d="M275.8,41.9L276.5,44.6L274.3,49.9L272.2,54.7L268.1,58.9L268,62L266.4,71.2L267.1,74.1L268,76.7L269.4,78L272.9,86.9L276.1,95.1L279.3,101.8L280,106.1L277,116.8L273.5,126.6L273.8,131.5L275.4,136.5L276.8,143L277.5,151.4L276.6,156.8L275,160.2L272,163.7L269.6,165.4L266.4,162.5L263.9,162.4L260.5,163.3L258.1,164.6L252.7,169.7L246.7,174.6L238.6,175.9L235.4,179.6L232,180.1L225.5,180.3L221.4,181.2L221.6,183L221.2,191.7L221.2,193.7L220.7,194.2L217.7,194.5L212.7,193.2L206,191L201.2,190.7L198.8,194.5L197.3,196L195.6,196.1L193.6,196.8L193.1,198.6L192.9,200.7L193.8,204.3L194.2,210L194,213.9L195.8,216.4L205.8,224.8L208.9,226.9L209.2,228.1L207.4,232.6L209,239L205.8,238.9L200.5,236.1L197.9,234.4L194.9,235.7L193.8,235.6L191.7,232.4L189,229.2L186.2,229L180.2,230.3L174.2,231.1L171.9,231.1L170.8,231.7L167.3,236.4L165.8,235.7L159.6,233.8L154.2,233.1L152.9,234.4L153.6,238.3L154.9,242L154.2,243.6L151,245.6L146.9,249.2L144.4,252L142.8,252.7L136.6,252.6L130.4,252.9L128,255.5L125.7,257.6L123.7,258.1L115.6,251.6L99.6,249.4L97.9,246.5L96.3,246L94.9,249.7L86,253.3L82.3,251.1L79.6,248.5L80,245.3L82.7,242.7L86.9,240.8L89,234.2L85.7,225.7L82.8,223.3L79.6,221.3L76.5,224.5L73.8,229.8L71,232.6L66.9,233.2L61.1,233L58.8,225L58.1,218.1L58.8,210.3L59.6,205.6L54,199.2L53.6,193.1L51,189.9L50.3,191.5L50.3,193.3L49.6,192L40.5,174L39.1,165.7L40.5,159.2L41.4,157.1L38.9,153.7L35.2,149.9L28.9,144.8L28.5,136.8L27.1,127.4L25.1,124.2L22.1,118.5L20.5,113.6L20,100.9L20.9,99.9L25.5,99.5L31.2,98.6L32.2,96.5L31.2,94.8L34.9,91.9L40.2,85.6L44.2,79L47.3,74.8L49,70.7L55,64.8L63.4,60.7L68.9,59.8L74.7,58.4L80.4,56.4L83,56.2L89.9,58.6L93.8,59.2L97.7,59.2L101.8,59.5L105.3,59.2L113.8,57.5L122.8,58.9L131,57.8L140.9,55.9L145.8,57.1L150.3,59L151,62.9L152,64.7L153.5,66.1L155.4,66.1L158.1,63.4L160.2,60.5L160.9,60L160.9,61.4L161.9,64.4L163.9,67.4L165.8,69.4L169,72.1L171.2,72.2L178.1,69.7L188.1,73.3L189.4,75.2L192.7,78.8L196.3,81.4L204.2,81.6L207.1,75.2L205.8,71.2L201.2,64.2L200,60.2L201.4,59.5L209.2,58.7L210.4,57.9L212,53.5L214.2,53.9L218.4,54.6L223,51.5L225.7,48.3L227.1,49.7L228.7,52L230.4,53.3L233.6,55.3L237.3,58L239.5,60.6L241.2,61.7L245.8,60.9L247.1,61L249.7,57.8L251.7,56.1L253.3,56.5L255.6,56.5L260.4,52.3L263,48.6L264.6,47.6L268.9,49.4L270.6,49.1L273.1,43.9Z"/></svg>
