<svg xmlns="http://www.w3.org/2000/svg" viewBox="0 0 400 300"><path d="M90.6,0L87.7,7.9L89.1,21.8L104.7,30.8L105.4,37.2L98.8,52.1L100.2,59.6L98.6,71.4L107.1,86.8L117.2,111.3L126.1,116.7L106.7,131.1L80,140.8L65.3,140.4L56.6,147.9L39.6,148.5L33.2,151.7L3.8,144.6L0,145.1L0,0Z" fill="#2c2c34" stroke="#474751" stroke-width="0.8"/><path d="M0,203.4L2.8,206L13,224.2L15.1,256.8L4.5,262.1L0,272.9L0,203.4Z" fill="#2c2c34" stroke="#474751" stroke-width="0.8"/><path d="M0,145.1L3.8,144.6L33.2,151.7L39.6,148.5L56.6,147.9L65.3,140.4L80,140.8L106.7,131.1L126.1,116.7L130.1,127.9L129.1,152.7L132.1,174.6L133.1,213.9L137.4,226.3L130.1,244.3L120.6,262L105,277.7L82.7,287.5L55.1,299.9L55,300L0,300L0,272.9L4.5,262.1L15.1,256.8L13,224.2L2.8,206L0,203.4L0,145.1Z" fill="#2c2c34" stroke="#474751" stroke-width="0.8"/><path d="M215.6,300L215.2,295.4L223.8,281.1L227.1,264.9L239.2,263.9L252.9,258.7L261.9,254.1L272.7,253.8L286.6,239.4L306.7,223.8L314,211.1L310.7,200.3L321,203.3L334.5,185.9L335,170.8L343.1,159.6L351.6,170.4L351.6,170.4L358.1,181L364.1,197.6L368.1,227.9L374.4,239.7L372,251.9L367.7,259.4L359.4,244.5L354.7,252L359.4,270.9L357.3,281.7L350.5,287.6L349.6,300L215.6,300Z" fill="#2c2c34" stroke="#474751" stroke-width="0.8"/><path d="M227.8,160.7L229,164.1L229,166.7L228.5,167.5L227.4,167L225.3,164.9L221.6,162.9L223.3,162.8L224.4,162.9L225.4,162.8L226.1,161.6L226.2,160.9L227.2,160.4ZM211,166.3L212.7,167.8L207.9,167.2L207.2,165.8L207.1,164.8L208.9,165ZM203.1,156.2L202.6,156.5L200.4,155.1L199.1,154.7L197.3,152.4L198,144.5L198.6,143.4L199,143L200.1,142.9L201.3,143.9L201,149L202.6,152.4L203.7,155.2Z" fill="#b8e653" stroke="#0c0e06" stroke-width="1"/></svg>
