<svg xmlns="http://www.w3.org/2000/svg" viewBox="0 0 400 300"><path d="M394.1,0L392.9,3.6L368.4,33.7L344.2,62.9L332.6,77.6L308.5,92.1L297.2,92.4L285.8,80.4L261.6,98.4L258.8,106.6L258.8,106.6L256.3,102.3L256.2,89.8L265.4,89.2L268,59.8L263.2,38.1L278.7,29.1L300.6,33.6L312.7,8.5L314.5,0L394.1,0Z" fill="#2c2c34" stroke="#474751" stroke-width="0.8"/><path d="M175.8,211.8L176.9,209.7L185,210.5L192,200.2L204.8,199.1L212.4,197.6L215,192L230.6,219L235,233.6L235.2,259.4L228.4,271.6L212,275.8L197.6,284.9L181.4,286.7L179.4,274.8L182.7,258.2L174.8,235L188.2,231.2Z" fill="#2c2c34" stroke="#474751" stroke-width="0.8"/><path d="M7.9,0L5.3,1.5L0,8.4L0,0Z" fill="#2c2c34" stroke="#474751" stroke-width="0.8"/><path d="M0,8.4L5.3,1.5L7.9,0L314.5,0L314.5,0L312.7,8.5L300.6,33.6L278.7,29.1L263.2,38.1L268,59.8L265.4,89.2L256.2,89.8L256.3,102.3L244.7,87.8L237.5,101.6L209.6,112L212.5,124.8L196.9,123.9L188.4,116.3L176,133.4L156.1,146.2L141.4,161.4L116.2,168.2L102.9,179.1L83.5,185.4L93.1,174.6L89.3,165.5L103.6,149.7L94.1,137.2L78.3,145.7L58,162.1L46.9,177.2L29.2,178.3L20,189.1L29.5,204.7L44.3,208.4L44.9,218.7L59.1,225.3L79.3,209.1L95.4,217.9L107,218.5L109.9,230.4L84.4,236.7L75.9,248.7L58.4,259.9L49.2,275.4L68.6,287.4L72.8,300L0,300Z" fill="#2c2c34" stroke="#474751" stroke-width="0.8"/><path d="M400,280.9L374.9,282L356.3,300L339.2,300L339.2,300L337.1,298.5L336.3,282.2L305,287L283.6,297.3L262.5,297.7L265.1,300L253.8,300L253.8,300L260.6,290.2L278.8,278.9L291.9,263.8L327.8,257.2L347.1,261.7L366,221.9L378,232.7L400,213.8L400,280.9ZM292.8,300L297.5,293.9L307.8,296.4L315.2,287.3L328.4,292L330.7,299.5L330.3,300L292.8,300Z" fill="#2c2c34" stroke="#474751" stroke-width="0.8"/><path d="M215.5,191.8L214.8,192.1L213.7,194L212.8,196.5L211.8,197.8L210.6,198.6L209.4,199L207,199.2L204.8,199L204.1,198.8L201.1,198.9L200.3,199.1L196,198.9L193.7,199.1L192.3,199.6L190.9,200.5L189.6,202.1L188.5,203.7L186.3,206.6L184.7,208L184.7,210L184.7,210.6L184.1,211.1L183.9,210.9L183,210.7L179.3,208.9L176.3,210L175.6,211.5L174.8,211.9L173.6,209.1L171.6,209L168.5,206.4L167.1,206.9L166.8,207.9L165.1,210.3L162.7,212.2L161.9,212.5L161.1,212.4L161.2,211.8L160.3,209.6L156.5,208.8L155.1,207.9L154.4,207.6L158.1,205.2L159.1,204.8L158.4,204.2L157.6,203.9L154.5,204.3L153,203.5L150.6,203.8L149.1,203.1L152.4,200.7L152.5,199.3L152.5,198.2L154.1,195L155.8,193.3L160.2,190.8L162.1,190.4L163.5,190.6L164.6,190.3L163.4,189.4L162.3,188.9L160,189L157.7,187.5L157.5,186L162,176.3L162.1,175.5L161.4,173.1L161.2,170.8L157.8,169.5L156.4,169.3L152.3,166.7L150.6,165.4L149.9,165.8L149.8,167.8L149.2,168.3L148.1,168.7L147.5,166.3L146.6,164.6L143.9,162.8L142.9,161.9L143.4,159.8L143.1,159.6L143.6,157.2L145.3,155.4L149.4,152.1L150.5,150.6L152.7,148.8L153.6,148.9L154.6,148.7L154.9,147.9L155.1,147.3L156,146.8L158,145.7L160.3,144.5L162.1,144.1L164.4,142.1L165.3,141.2L166.3,141.2L166.5,140.8L167.1,139.8L167.8,139.2L168.8,139L170.4,138.5L172.5,138.3L173.9,136.6L174.3,135.4L175.2,134.1L177.3,132.7L178.6,130.6L180.1,128.3L180.8,127.5L181.5,127.4L181.9,126.5L182.4,124.1L183.1,121.7L183.5,120.6L185.2,119.3L185.7,118.8L186.1,118.5L186.9,118.7L187.9,118L188.9,117.2L189.8,117.5L190.8,118.1L191.8,119.5L192.2,120.5L193,121.4L193.2,122.7L193.9,123.2L195.6,123.5L198.3,124.4L200,124.4L201,125.1L203.1,125.4L207.2,124.9L208.9,125.2L209.6,126L210.7,126.7L211.4,126.7L212.3,125.6L213.3,123.8L214,122.5L213.9,121.4L213.3,120.2L212,119.2L211.1,117.5L210.2,115.8L209.7,115.2L209.3,114.3L209.2,113.1L209.5,112.2L211.6,111.6L214.2,111.3L216.4,111.7L220,111.4L222.2,110.9L223.9,111L225.3,111L226.1,110.2L228.1,108.5L229.2,107.8L230.3,106.6L230.5,105.3L230.7,104.3L231.3,103.2L232.4,101.9L233.3,101.2L234.4,101.3L235.5,101.9L236.2,102.5L237,102.4L237.6,101.3L238.1,101.1L239.3,101L239.7,100.3L240.2,97.2L240.7,94.7L240.8,93L241.9,90.1L242.3,88.3L242.9,87.5L243.7,87.5L244.4,88.1L245.1,88.4L246.2,88.1L247,88.5L247.5,89.5L249.1,90.1L249.2,90.6L249.2,93.7L250.1,95.2L251.2,96.5L252.9,97.7L253.8,98L254.3,98.8L254.7,100.3L255.9,101.8L256.5,102.8L256.6,103.9L257.1,104.6L256.2,105.2L255,104.8L253,104.6L250.5,106.7L249,107.4L248,109.5L246,110.8L244.9,112.1L243.4,114.4L242.5,116.6L240.4,118.9L239.1,121.7L239,124.1L240.4,126.6L240.5,128.7L239.6,133L240.1,137.6L239.5,139.4L232.9,142.5L231.2,144L228.7,148.1L225.7,149.6L223.9,151.2L221.4,152.2L219.7,155L217.9,156.6L215.8,157.6L214.2,158.8L210.6,158.9L208.1,159.8L206.3,162.1L200.9,164.8L200.2,166.8L200.6,169.9L200.6,172.3L200.1,174.3L198.9,173.7L198.3,174.4L197.6,176.1L197.8,178.2L199.6,178.9L201.1,179.7L203.3,180.1L204.8,181.1L208.2,185.4L210.9,187.3L211.6,188L213.2,189L214.6,190.4ZM152.9,170.6L151.9,171.2L151.9,170L152.7,169L153.4,168.9Z" fill="#b8e653" stroke="#0c0e06" stroke-width="1"/></svg>
