<svg xmlns="http://www.w3.org/2000/svg" viewBox="0 0 300 300"><path fill="#e8e8ea" d="M182.2,236.9L180.8,237.6L178.6,241.6L176.5,246.8L174.5,249.5L172.1,251L169.6,251.9L164.5,252.3L160.1,252L158.6,251.4L152.4,251.7L150.6,252.1L141.7,251.7L137,252.2L134,253.1L131,255.1L128.3,258.3L126,261.6L121.5,267.6L118.1,270.6L118.1,274.8L118.1,276.1L116.9,277L116.5,276.6L114.6,276.3L107,272.4L100.8,274.8L99.2,277.9L97.6,278.8L95,272.8L90.9,272.7L84.5,267.3L81.6,268.4L81,270.5L77.4,275.5L72.4,279.4L70.8,280L69.1,279.8L69.3,278.6L67.3,274.1L59.5,272.3L56.7,270.4L55.2,269.9L62.9,264.8L64.9,263.9L63.4,262.8L61.8,262.2L55.4,262.9L52.2,261.3L47.3,261.8L44.1,260.5L51,255.6L51.3,252.6L51.1,250.3L54.6,243.7L58.1,240L67.2,234.9L71.2,234.1L74.1,234.4L76.4,233.9L73.9,231.9L71.5,230.9L66.8,231.1L61.9,228.1L61.5,224.9L71,204.8L71.1,202.9L69.6,198.1L69.2,193.3L62.3,190.5L59.4,190.1L50.7,184.7L47.2,181.9L45.9,182.8L45.6,187.1L44.4,188.1L42.1,189L40.9,184L39,180.4L33.3,176.7L31.1,174.7L32.2,170.3L31.7,170L32.6,165L36.1,161.2L44.8,154.5L47.1,151.3L51.5,147.5L53.4,147.6L55.6,147.3L56.1,145.7L56.7,144.4L58.4,143.3L62.6,141.1L67.5,138.5L71.2,137.7L76,133.6L77.8,131.8L79.9,131.8L80.3,130.9L81.5,128.8L83,127.5L85,127.2L88.4,126.2L92.7,125.6L95.7,122.1L96.6,119.6L98.5,116.9L102.7,114L105.4,109.6L108.6,104.8L110.1,103.3L111.5,103L112.4,101.2L113.4,96.1L114.8,91.2L115.6,88.8L119.3,86.2L120.2,85L121,84.6L122.7,84.9L124.8,83.4L127,81.8L128.9,82.4L130.9,83.7L132.9,86.5L133.9,88.7L135.5,90.5L135.8,93.1L137.4,94.3L140.8,94.9L146.4,96.7L150.1,96.8L152.1,98.2L156.4,98.8L165.1,97.8L168.6,98.4L170,100.1L172.3,101.5L173.7,101.5L175.6,99.2L177.7,95.5L179.1,92.8L179,90.5L177.7,88.1L174.9,85.9L173,82.4L171.3,78.8L170.2,77.6L169.4,75.8L169.2,73.2L169.8,71.4L174.1,70.2L179.6,69.5L184.1,70.2L191.6,69.7L196.2,68.7L199.6,68.8L202.7,68.8L204.2,67.3L208.5,63.6L210.7,62.3L213,59.7L213.4,57.1L213.8,55L215.1,52.7L217.4,49.9L219.3,48.5L221.5,48.7L223.8,50L225.3,51.3L226.9,50.9L228.2,48.7L229.2,48.3L231.7,48.1L232.5,46.7L233.6,40.1L234.6,34.9L234.8,31.4L237.1,25.3L237.9,21.7L239.3,20L240.9,20.1L242.3,21.2L243.9,21.8L246.2,21.2L247.8,22.1L248.7,24.1L252.1,25.4L252.4,26.4L252.4,33L254.1,36L256.6,38.7L259.9,41.3L261.8,41.8L262.9,43.6L263.9,46.7L266.3,49.7L267.5,51.9L267.8,54.2L268.9,55.5L267,56.9L264.4,56L260.2,55.5L255,60L252,61.5L249.8,65.9L245.6,68.5L243.3,71.2L240.4,75.9L238.5,80.6L234,85.3L231.3,91.1L231.2,96.2L234,101.3L234.3,105.7L232.3,114.7L233.5,124.2L232.1,127.9L218.4,134.4L214.9,137.6L209.7,146L203.5,149.1L199.7,152.5L194.5,154.6L191,160.4L187.3,163.8L182.9,165.8L179.5,168.4L172.1,168.5L166.8,170.3L163.2,175.2L152,180.8L150.3,185L151.1,191.5L151.1,196.4L150.2,200.5L147.8,199.3L146.4,200.7L144.9,204.4L145.5,208.7L149.3,210.1L152.4,211.8L156.8,212.7L160.1,214.7L167.1,223.7L172.7,227.6L174.2,229L177.5,231L180.4,234.1Z"/></svg>
