<svg xmlns="http://www.w3.org/2000/svg" viewBox="0 0 300 300"><path fill="#e8e8ea" d="M90.1,72L91.7,70.8L91.7,69.1L91.7,63.7L96,59.8L102,52L105,47.7L108.4,43.6L112.3,41L116.1,39.8L122.2,39.3L133.8,39.7L136,39.3L144.1,38.8L146,39.6L151.7,40L158.4,39.5L161.5,38.3L164.7,36.4L167.3,32.8L169.9,26.1L172.9,21L174.6,20L186.5,47.7L197.7,65.5L207.4,78.4L221.2,103L225.3,116.1L225.6,124.2L227.9,135.3L226,141.6L226.5,151.7L225.6,156.8L224,160.6L223.9,167.9L224.4,171.8L224.6,176.9L225.6,178.8L227.2,179.6L229.6,177.7L232.8,177L232.2,183.1L228.4,198.7L225.3,210L220.9,219.8L215.3,228.8L208.7,232.3L204,233.6L195,234L187.5,232.5L181.3,233.6L178.6,235.5L176.7,238.6L178.1,243.6L177.9,247.3L175.1,247L169.7,244.8L163.8,244.6L161,243.5L158.2,238.2L155.2,238.4L150.2,241.6L142.5,242.2L139.9,244L139,246.1L140,248.8L143.9,252.4L142.7,256.1L138.7,257.9L135.3,253.4L133.2,249L131,248.8L127.5,250L126.8,254.8L128.5,258L131.1,261.7L127.3,266L126.4,269.1L123.6,271.2L116.3,266.4L117.3,262.9L120.5,259.6L121,256.1L120,254L109.3,262.8L102.9,272.7L99.5,271.9L98,269.4L96,268.4L89.1,274.8L87.7,279.8L85.2,280L84,277.9L84,273.3L82.8,269.5L75.6,263.8L72.3,258.9L74,256.1L80,257.6L84.9,257.4L83.8,255.1L82.3,253.9L85.6,252.7L88.2,249.9L85.9,249.2L82.6,250.8L79.8,250L78.8,243.6L75.3,236.9L73.5,230.4L76.8,226.7L78.6,220.9L81.7,212.6L83.3,209.8L87.7,207.8L89.2,205.6L86.8,204.5L83,203.6L83.1,201.1L85.7,199.8L88.5,197.1L94.1,193.8L95.9,187.7L94.3,186.1L90.8,184.7L91.7,181.6L93.1,179.2L92.6,177.7L88.4,173.7L85.6,170L86.4,165.8L85.7,159.5L86.1,154.2L85.9,151.3L84,144.8L83.1,138.2L80.3,139.2L78.2,140.8L70.6,138.5L68.1,138.4L67.2,133.4L69.9,127.5L76.5,122.2L80.2,121.6L83,119.2L87.5,118.5L92.7,122.1L97.4,122.8L100.1,129L101.6,130.3L102,128L105.8,125.3L106.7,123.3L106,122.2L101.6,121.1L97.6,113.4L97.1,110.1L95.5,107.9L97.8,101.7L93.3,94.6L91,92.4L91.3,86.1L88.9,82L87.5,79.7L86.8,75.9L87.5,74.2L89.6,73.6Z"/></svg>
