<svg xmlns="http://www.w3.org/2000/svg" viewBox="0 0 400 300"><path d="M242.1,0L242.8,19L230.8,25.7L226.6,31.2L217.9,40.2L202.4,45.2L192.2,53.4L191.4,66.5L188.8,69.8L198.1,74.7L211.2,87.8L207.9,95L198,97L181.4,98.4L172.4,111.8L162,110.7L160.5,113.4L149.2,107.8L146.4,113.4L139.6,115.8L138.7,110.2L132.7,107.5L126.4,102.8L132.8,89.7L138.3,86.2L136.2,80.8L142.2,64.5L140.7,59.6L127,56.3L116,48.2L135,28.6L160.7,12L169.4,0L192.8,0L192.8,0L208,0.9L207.8,0L242.1,0Z" fill="#2c2c34" stroke="#474751" stroke-width="0.8"/><path d="M207.8,0L208,0.9L192.8,0L207.8,0ZM169.4,0L160.7,12L135,28.6L116,48.2L83.4,57L66.3,71.1L41.1,79.3L53.5,65.4L48.6,53.6L67.1,33.1L54.8,17L34.5,27.9L8.1,49.1L0,60.1L0,0ZM0,126.4L9.6,130.9L35.7,109.9L56.5,121.3L71.5,122.1L75.3,137.4L42.3,145.6L31.4,161.2L8.7,175.6L0,190.2L0,126.4ZM0,197.6L21.9,211.2L31,238.8L45.2,264.3L61.1,285.4L60.8,300L0,300Z" fill="#2c2c34" stroke="#474751" stroke-width="0.8"/><path d="M400,221.7L384.8,236.4L369.2,225.6L368.1,204.5L327.6,210.8L300,224.1L272.7,224.6L296.4,245.2L280.8,292.1L270.3,300L262,300L262,300L254.4,292.9L260.2,268.2L245.4,260.1L235.9,241.1L258,232.5L270.2,214.8L293.7,200.2L310.7,180.7L357.1,172.1L382.1,178L400,140.2L400,221.7ZM305,236.4L317.9,219.7L331.2,222.9L340.8,211.1L357.9,217.1L360.8,226.8L347.7,243.7L338.2,234.8L326.2,241.3L320,257.5L304.8,249.6Z" fill="#2c2c34" stroke="#474751" stroke-width="0.8"/><path d="M171.2,112.5L172,111.9L172,111.1L172,108.5L174.1,106.6L176.9,102.9L178.3,100.8L180,98.9L181.9,97.6L183.7,97L186.7,96.8L192.2,97L193.3,96.8L197.1,96.5L198.1,96.9L200.8,97.1L204,96.9L205.5,96.3L207.1,95.4L208.3,93.7L209.6,90.5L211,88L211.8,87.5L217.5,100.8L222.9,109.4L227.6,115.6L234.3,127.4L236.2,133.7L236.3,137.6L237.4,143L236.5,146L236.8,150.8L236.3,153.3L235.6,155.1L235.5,158.6L235.8,160.5L235.8,162.9L236.3,163.9L237.1,164.2L238.3,163.3L239.8,163L239.5,165.9L237.7,173.4L236.2,178.8L234.1,183.6L231.4,187.9L228.2,189.6L225.9,190.2L221.7,190.4L218,189.6L215,190.2L213.8,191.1L212.8,192.6L213.5,195L213.4,196.8L212.1,196.6L209.5,195.6L206.6,195.5L205.3,194.9L203.9,192.4L202.5,192.5L200.1,194L196.4,194.3L195.1,195.2L194.7,196.2L195.2,197.5L197.1,199.2L196.5,201L194.5,201.9L192.9,199.7L191.9,197.6L190.9,197.5L189.2,198.1L188.8,200.4L189.7,201.9L190.9,203.7L189.1,205.8L188.7,207.3L187.3,208.3L183.8,206L184.3,204.3L185.8,202.7L186.1,201L185.6,200L180.4,204.3L177.3,209L175.7,208.6L175,207.4L174.1,206.9L170.7,210L170,212.4L168.9,212.5L168.3,211.5L168.3,209.3L167.7,207.4L164.2,204.7L162.6,202.3L163.5,201L166.3,201.7L168.7,201.6L168.2,200.5L167.4,200L169,199.4L170.3,198L169.2,197.7L167.6,198.4L166.3,198.1L165.8,195L164.1,191.8L163.2,188.7L164.8,186.9L165.7,184.1L167.2,180.1L167.9,178.7L170,177.8L170.8,176.7L169.6,176.2L167.8,175.8L167.8,174.6L169.1,174L170.5,172.7L173.1,171.1L174,168.1L173.2,167.4L171.5,166.7L172,165.2L172.6,164L172.4,163.3L170.4,161.4L169,159.6L169.4,157.6L169.1,154.6L169.3,152L169.2,150.6L168.3,147.5L167.8,144.3L166.5,144.8L165.5,145.6L161.8,144.5L160.6,144.4L160.2,142L161.5,139.2L164.7,136.6L166.4,136.3L167.8,135.2L169.9,134.9L172.5,136.6L174.7,136.9L176,139.9L176.7,140.5L176.9,139.4L178.8,138.1L179.2,137.2L178.8,136.6L176.7,136.1L174.8,132.4L174.6,130.8L173.8,129.8L174.9,126.8L172.7,123.4L171.6,122.3L171.8,119.3L170.6,117.3L169.9,116.2L169.6,114.4L169.9,113.6L171,113.3ZM220.4,198.8L218.1,200.6L215.2,198.2L214.5,196.9L216.7,195L218.6,192.8L219.9,192.7ZM204.6,198.6L204.4,201.3L202.7,201.5L201.8,199.7L200.7,200.6L200.2,200.6L199.3,198.4L199.2,196.6L201.1,195.3L202.3,196.1L203.9,196.5ZM161.9,210.9L160.4,211.4L159.5,210.4L159,210.1L159.3,208.8L161.7,206.3L162.2,205.5L164.5,206L165.3,207.3L164.2,209.4ZM168.6,113.8L168.4,117.7L167.2,117.5L166.3,117.1L165.9,116.4L165.1,112.7L166,111.3L167.9,112.4ZM174,211.7L174.4,213L172.5,212.7L171.5,211.5L171.6,210.3L172.8,210.2ZM198.4,204L198.2,204.9L197,203.6L198.2,202.1ZM166.2,150.2L165.8,152.1L164.3,150.8L163.9,146.7L165.5,147.9ZM160.5,200.7L160.1,201.4L159.1,201.2L158.1,199.2L157.7,197.7L156.6,196.8L158.3,195.5L160.4,197.9ZM271.1,121.4L270,122.3L268.8,121.4L268.6,120.5L269.3,119.7L270.8,119.2L271.5,119.9ZM164.1,243.1L163,243.7L162.1,243.3L161.8,243L160.6,241.4L160.3,240.6L161.1,239.1L164.3,236.5L172.6,234L174.1,233.9L177.4,234.9L178.2,237L177.6,238.7L176.8,239.8L173,241.8L170,242.7Z" fill="#b8e653" stroke="#0c0e06" stroke-width="1"/></svg>
