<svg xmlns="http://www.w3.org/2000/svg" viewBox="0 0 300 300"><path fill="#e8e8ea" d="M257,102.3L249.2,105.9L244.3,104.2L238.9,95.8L230.5,74.9L235.4,67L235,63.7L235.9,61.3L238.4,59.6L241.3,49.8L244.7,46.5L250.6,53.4L266.8,77.3L266.8,87.4L265.8,91.2ZM280,270.7L256,270.9L226.1,271.5L202.1,271.7L174.7,272L163,257.5L159.1,241.3L154.7,224.9L142.4,201.2L102.3,195.5L81.2,192.5L46,187.9L20,184.7L42,159.3L52.3,145.5L70.9,115.9L80.2,94.7L89.5,71.1L97.4,52.8L99.3,49.5L103.7,43.3L114,36.7L128.7,30.7L153.7,28.3L171.3,28L175.2,28.3L186,31.3L216.8,46L215.9,51.7L220.3,69.2L230.1,87.9L238.4,103.1L239.4,110.5L232,109.4L226.1,106.4L215.4,103.4L194.8,123.8L182.1,134.6L182.1,138.4L198.7,142.7L211,142.5L219.3,139.5L226.6,144.4L231.5,156.8L233.5,166.8L244.7,202.8L254,214.9L265.8,236.5L270.2,247.5L272.7,256.9Z"/></svg>
