<svg xmlns="http://www.w3.org/2000/svg" viewBox="0 0 400 300"><path d="M400,294.6L394.6,297.2L394.6,300L300.8,300L300.8,300L299.1,295L298.1,288.9L298.1,288.9L302.4,287.5L303.4,294.9L322.5,290.7L342.7,291.4L357.5,292.2L374.2,274L392.4,256.7L400,248.5L400,294.6Z" fill="#2c2c34" stroke="#474751" stroke-width="0.8"/><path d="M279.3,275.2L277.7,255.5L284.3,241.3L291,238.4L298.4,246.9L298.8,262.7L293.5,278.6L286.7,280.5Z" fill="#2c2c34" stroke="#474751" stroke-width="0.8"/><path d="M0,25.6L39.8,3.1L40.6,0L151.6,0L151.6,0L147.5,16.4L164.5,44.3L194.4,60.2L207,82.1L203,102.8L210.8,102.8L211,117.9L224.5,132.8L210.1,131.4L193.6,129.1L175.7,156.1L130.3,153.8L61.3,97L25,76.9L0,70.3L0,25.6Z" fill="#2c2c34" stroke="#474751" stroke-width="0.8"/><path d="M394.6,300L394.6,297.2L400,294.6L400,300Z" fill="#2c2c34" stroke="#474751" stroke-width="0.8"/><path d="M400,215L399.4,215.2L374.8,228.4L344.9,219.3L320.2,198.2L296.7,190.4L280.4,164L262.3,126.6L249.2,131.2L233.7,121.8L224.5,132.8L224.5,132.8L211,117.9L210.8,102.8L203,102.8L207,82.1L194.4,60.2L164.5,44.3L147.5,16.4L151.6,0L400,0Z" fill="#2c2c34" stroke="#474751" stroke-width="0.8"/><path d="M40.6,0L39.8,3.1L0,25.6L0,0Z" fill="#2c2c34" stroke="#474751" stroke-width="0.8"/><path d="M0,70.3L25,76.9L61.3,97L130.3,153.8L175.7,156.1L197.5,158.8L203.6,172.1L220.8,171.3L230.4,195.2L242.5,201.5L246.6,211.2L263.3,222.7L264.7,233.9L262.3,243L265.4,252.1L272.4,259.7L275.7,268.6L279.3,275.2L286.7,280.5L293.5,278.6L298.1,288.9L299.1,295L300.8,300L0,300Z" fill="#2c2c34" stroke="#474751" stroke-width="0.8"/><path d="M217.4,141.4L216,142L215.1,141.7L214.1,140.2L212.6,136.4L213.5,135L213.4,134.4L213.6,134L214,133.7L214.6,131.9L215.2,131.3L216.2,132.6L219.1,136.9L219.1,138.7L219,139.3ZM221.5,171.6L217.2,171.6L211.8,171.7L207.5,171.8L202.6,171.8L200.5,169.2L199.8,166.3L199,163.4L196.8,159.1L189.6,158.1L185.8,157.6L179.5,156.7L174.8,156.1L178.8,151.6L180.6,149.1L184,143.8L185.6,140L187.3,135.7L188.7,132.5L189.1,131.9L189.8,130.7L191.7,129.6L194.3,128.5L198.8,128L202,128L202.7,128L204.6,128.6L210.2,131.2L210,132.3L210.8,135.4L212.5,138.8L214,141.5L214.2,142.8L212.9,142.6L211.8,142.1L209.9,141.5L206.2,145.2L203.9,147.2L203.9,147.8L206.9,148.6L209.1,148.6L210.6,148L211.9,148.9L212.8,151.1L213.2,152.9L215.2,159.4L216.9,161.6L219,165.5L219.8,167.4L220.2,169.1Z" fill="#b8e653" stroke="#0c0e06" stroke-width="1"/></svg>
