<svg xmlns="http://www.w3.org/2000/svg" viewBox="0 0 400 300"><path d="M166.2,181.4L166.1,165.9L174,163.3L174.6,163.7L179.4,166.8L181.9,168.4L184.8,172.3L188.4,171.6L193.7,171.3L197.3,174.4L197.1,178.6L198.6,178.6L199.2,182L203.1,182.1L204,184L205.1,184L206.5,181.1L210.5,178.2L212.3,177.5L213.2,177.9L210.6,180.5L212.9,182.1L215.1,181.1L218.7,183.2L214.8,186.1L212.4,185.7L211.2,185.8L210.7,184.7L211.4,182.8L207.3,183.8L206.3,186.3L204.8,188.6L202.3,188.4L201.5,190.1L203.7,191.1L204.4,194L202.7,197.9L200.3,197.1L198.6,197.1L198.7,194.7L194.6,193L191.4,191.1L189.4,189.2L185.9,186.5L184.4,182.3L183.4,181.6L180,181.8L178.9,180.9L178.5,177.6L174.4,175.4L171.8,177.8L169.2,179.3L169.7,181.3Z" fill="#2c2c34" stroke="#474751" stroke-width="0.8"/><path d="M137.6,300L141.1,296.2L143.3,293.6L144.7,291.7L144.7,290.1L144.7,287L144.7,285.7L144.7,285.6L145.7,285.6L147.1,285.1L148.7,284.8L150.2,283.7L151.3,283.7L151.4,284.6L151.1,286.4L151.1,288L150.5,289.2L149.6,292.5L148.1,296L146.2,299.9L146.2,300L137.6,300Z" fill="#2c2c34" stroke="#474751" stroke-width="0.8"/><path d="M69.8,295.5L67.5,294.2L66.4,293.3L66.2,292.3L66.7,291L66.7,289.7L65,287.8L64.6,286.5L64.6,285.7L63.5,284.8L63.5,283L62.8,281.7L61.8,281.9L62.1,280.8L62.9,279.5L62.5,278.1L63.5,277.2L62.9,276.4L63.7,274.5L65.1,272.1L67.8,272.4L67.6,259.6L67.6,258.2L71.2,258.2L71.2,251.6L83.5,251.6L95.4,251.6L107.6,251.6L108.6,254.9L107.9,255.5L108.4,258.8L109.5,262.7L110.7,263.5L112.3,264.7L110.8,266.5L108.5,267.1L107.5,268.1L107.3,270.2L105.9,274.9L106.3,276.1L105.8,278.9L104.5,282L102.7,283.5L101.3,285.9L101,287.2L99.6,288.1L98.7,291.3L98.7,294.1L98.7,291.7L98.3,291.6L98.3,290.1L97.9,289L96.4,287.8L96,285.5L96.4,283.2L94.9,283L94.7,283.7L92.9,283.9L93.6,284.8L93.9,286.7L92.2,288.4L90.7,290.6L89.1,290.9L86.5,289.1L85.3,289.8L85,290.7L83.4,291.3L83.3,291.9L80.3,291.9L79.9,291.3L77.7,291.2L76.5,291.7L75.7,291.4L74.1,289.6L73.6,288.7L71.4,289.2L70.5,290.6L69.7,293.4L68.7,294L67.8,294.3Z" fill="#2c2c34" stroke="#474751" stroke-width="0.8"/><path d="M67.6,259.6L67.8,272.4L65.1,272.1L63.7,274.5L62.9,276.4L63.5,277.2L62.5,278.1L62.9,279.5L62.1,280.8L61.8,281.9L62.8,281.7L63.5,283L63.5,284.8L64.6,285.7L64.6,286.5L62.7,287L61.1,288.3L58.9,291.7L56,293.1L53,292.9L52.2,293.2L52.5,294.3L50.9,295.4L49.6,296.6L45.7,297.8L44.9,297.1L44.4,297L43.9,297.8L41.3,298L41.8,297.2L40.8,295.1L40.4,293.8L39.1,293.2L37.3,291.4L37.9,290L39.3,290.3L40.2,290.1L41.9,290.1L40.2,287.2L40.3,285.2L40.1,283.1L38.9,281.1L39.2,279.6L37.3,279.5L37.3,277.5L36,276.3L37.3,272.1L41.2,269.1L41.4,264.9L42.6,258.3L43.2,256.9L42,255.8L41.9,254.8L40.8,253.9L40,248.8L43.1,246.9L55.3,253.3Z" fill="#2c2c34" stroke="#474751" stroke-width="0.8"/><path d="M64.2,121.4L58.6,121.5L54.8,120.9L55.5,118.6L59.7,116.8L62.9,117.8L64.3,118.6L63.9,120.1ZM165.1,0L165.2,1.3L171,9L169.2,9.9L159.2,8.7L158.4,4.5L152.8,1.9L152.7,0L165.1,0ZM400,153.4L396.5,153.4L395.3,149.1L391.7,145.8L386.3,144.3L385.2,139.5L384.1,136.5L383,134.4L381.1,129.4L378.4,127.5L373.8,126L369.7,126.1L365.9,127L363.4,129.6L365,130.8L365.1,133.5L363.4,135.1L360.6,140.3L360.6,142.4L356.3,145.4L352.6,143.6L349,144L347.3,142.4L345.5,141.9L341,145.3L337,146.1L334.2,147.2L330.3,146.5L327.4,146.5L325.6,144.1L322.6,141.8L319.5,141.2L315.6,141.8L312.7,142.7L308.3,140.7L307.8,137L304.1,135.7L301.4,135.2L297.9,133.1L294.7,138.2L296,141.1L293,144.4L288.6,143.2L285.5,143L283.4,140.8L280.3,140.7L277.6,139.2L272.9,141.5L267,145.6L263.8,146.4L262.6,146.8L261,143.9L257,144.6L255.7,142.5L253.6,141.6L252.1,138.8L250.4,137.9L246,139.2L241.8,136.4L240.1,138.9L233.3,126.2L229.3,122.2L230.5,120.6L222.8,125.5L219.8,125.8L220.1,123L216.1,121.2L212.9,122.4L212,116.9L206.5,115.8L203.7,118L196,120L194.5,121.3L183,123.1L181.6,124.9L183.8,128.4L180.9,129.7L181.5,131.1L178.5,133.5L183.5,136.9L182.7,139.3L178.4,139.1L177.5,140.5L173.6,138L168.7,138.1L165.5,140.1L161.8,138.2L155.1,134.7L150.3,134.9L143.9,140.2L143.5,143.7L140.4,140.9L137.9,146.2L138.8,147.1L137.1,150.7L139.7,153.8L142,153.6L143.9,156.7L143.6,159L145.2,159.7L143.8,162.3L140.8,163L137.7,167.5L140.5,171.6L140.2,174.4L143.6,179.3L141.7,181L141.2,182L139.9,181.8L137.7,179.3L136.9,179.1L134.9,178.2L134,176.5L131.1,175.6L129.3,176.3L128.7,175.5L124.6,173.5L120,172.8L117.5,172.1L117.1,172.6L113.2,169L109.7,167.3L107,164.8L109.2,164.1L111.8,160.4L110.1,158.6L114.6,156.8L114.5,155.8L111.8,156.6L111.9,154.5L113.4,153.3L116.4,152.9L116.9,151.4L116.2,148.8L117.5,146.4L117.4,145L112.9,143.5L111.1,143.5L109.2,141.3L106.9,142L103,140.3L103,139.4L101.9,137.3L99.5,137L99.2,135.5L100,134.5L98,131.7L94.9,132.2L93.9,131.9L93.1,133L92,132.8L91.2,129.6L90.5,127.9L91.1,127.5L93.6,127.6L94.8,126.5L93.9,125.1L91.8,124.2L92,123.3L90.8,122.3L88.8,118.9L89.5,117.4L89.2,114.9L86.2,113.6L84.6,114.2L84.2,112.9L80.9,111.5L79.9,108.2L79.7,105.5L78.2,104.2L79.5,102.4L78.6,96.9L80.8,93.5L80.3,92.4L83.8,89.1L80.6,86.1L87.2,78L90,74.2L91.2,70.8L86.6,66.1L87.9,61.6L85.1,56.3L87.2,50L83.6,41.2L86.4,35.2L81.7,29.8L82.2,23.8L84.7,23L89.9,19.6L93.1,16.5L98.1,21.8L106.5,23.8L118.1,33.3L120.5,37.2L120.7,42.4L117.3,46.5L112.2,48.5L98.5,42.7L96.3,43.7L101.3,49.2L101.5,52.7L101.7,60.1L105.6,62.3L108,64.1L108.4,60.7L106.6,57.6L108.5,54.9L116,59.4L118.5,57.6L116.5,52.3L123.6,44.9L126.5,45.3L129.3,48L131.1,42.7L128.6,38L130.1,33.2L127.8,28L136.4,30.7L138.2,35.3L134.3,36.3L134.3,40.7L136.7,43.4L141.4,41.7L142.2,36.7L148.6,32.8L159.3,25.6L161.6,26L158.6,31.1L162.4,32L164.6,29.1L170.4,28.9L174.9,25.4L178.4,30.5L181.9,24.9L178.7,19.9L180.3,17L189.4,19.6L193.6,22.4L204.7,32L206.8,27.7L203.7,23.2L203.6,21.3L199.9,20.5L200.9,16.3L199.3,9.2L199.2,6.2L203.2,0L215.9,0L215.9,0L215,2.5L216.9,5.6L217.9,12.1L217.2,24.2L220.6,29.4L219.3,34.9L213.2,46.1L216.8,47.2L218,44.4L221.4,42.4L222.2,38.5L224.8,34.7L223,30.1L224.5,24.5L221.1,23.8L220.4,18.9L222.8,9.9L218.8,2.2L220.6,0L226,0L226,0L225.6,3.2L228.8,5L227.8,0L390.3,0L390.3,0L392.6,4.6L397.5,8.4L400,0L400,0ZM400,173.6L396.4,176.3L395.9,177.6L395.9,177.6L395.5,176.9L395.5,174.8L397,174.7L397.5,169.7L396.7,166L399.3,164.5L400,164.6L400,173.6ZM97.1,161.6L97.9,160.5L100.1,161.5L101,161.6L101.4,162.5L101.9,162.6L101.9,163L103.4,164.1L106.6,163.8L106,165.4L102.6,166.1L98.4,168.6L96.7,167.7L97.4,165.7L94,164.4L94.6,163.6L97.5,162.1Z" fill="#2c2c34" stroke="#474751" stroke-width="0.8"/><path d="M89.9,19.6L84.7,23L82.2,23.8L83.5,17.7L79.6,14.2L74.8,17.2L73.3,23.6L70.3,27.4L67.1,25.3L63.1,25.7L59.6,21.2L57.8,23.5L55.9,23.8L55.4,29.4L49.7,28.1L48.8,32.7L45.9,32.7L43.9,38.4L40.8,47L36,57.4L37.1,59.9L36.1,62.7L33,62.6L31,69L31.2,77.9L33.2,81.1L32.2,88.5L29.6,92.7L28.3,96.1L26.2,92.5L20.1,99.3L16,100.7L11.8,97.7L10.7,91.3L9.7,76.8L12.6,72.5L20.7,66.8L26.7,59.6L32.4,49.4L39.7,34.3L44.9,28.1L53.3,17.3L60,13.3L65.1,13.8L69.8,6.1L75.4,6.6L80.9,4.7L90.5,11.5L86.5,14Z" fill="#2c2c34" stroke="#474751" stroke-width="0.8"/><path d="M0,138.3L2.1,137.6L2.6,139.3L4,139.3L5.4,141.3L7.6,143.6L9.2,143.2L11.8,145.3L12.5,145.8L13.4,145.7L13.4,145.7L14.9,146.9L19.3,147.8L17.7,150.9L17.3,154.2L16.5,155L15.1,154.6L15.2,155.7L13,158.2L12.9,160.3L14.4,159.6L15.4,161.5L15.3,162.8L16.2,164.4L15.1,165.7L15.9,169.1L17.6,169.6L17.2,171.5L14.5,173.8L8.4,172.7L3.9,174.1L3.6,176.6L0,177.1L0,177.1L0,138.3ZM21.3,175.9L23.2,174.3L23.8,177.9L22.7,181.1L21.4,180.3L20.6,177.5Z" fill="#2c2c34" stroke="#474751" stroke-width="0.8"/><path d="M0,256.2L0,256.2L0.7,257.7L2.7,258.7L4.1,259.2L4.1,261.3L7.5,261L7.5,268.4L5.8,270.5L5.6,272.5L2.9,273L0,273.2L0,256.2Z" fill="#2c2c34" stroke="#474751" stroke-width="0.8"/><path d="M0,285L0.4,284.9L1,284L2.1,283L3.2,283L5.5,284.8L5.4,285.9L6.1,287.7L5.5,289L5.8,289.8L4.3,291.8L3.3,292.7L2.8,294.7L2.9,296.6L2.7,300L0,300Z" fill="#2c2c34" stroke="#474751" stroke-width="0.8"/><path d="M0,273.2L2.9,273L5.6,272.5L5.8,270.5L7.5,268.4L7.5,261L11.8,259.5L20.7,253.1L31.3,246.7L36.1,248.2L37.8,250L40,248.8L40,248.8L40.8,253.9L41.9,254.8L42,255.8L43.2,256.9L42.6,258.3L41.4,264.9L41.2,269.1L37.3,272.1L36,276.3L37.3,277.5L37.3,279.5L39.2,279.6L38.9,281.1L38.1,281.3L38,282.3L37.4,282.3L35.3,278.9L34.6,278.7L32.2,280.5L29.8,279.6L28.2,279.4L27.3,279.9L25.5,279.8L23.7,281.1L22.1,281.2L18.4,279.5L16.9,280.3L15.4,280.3L14.2,279.1L11.1,277.9L7.8,278.3L7,279L6.6,280.8L5.7,282L5.5,284.8L3.2,283L2.1,283L1,284L1.1,281.8L0,281.6L0,273.2Z" fill="#2c2c34" stroke="#474751" stroke-width="0.8"/><path d="M2.7,300L2.9,296.6L2.8,294.7L3.3,292.7L4.3,291.8L5.8,289.8L5.5,289L6.1,287.7L5.4,285.9L5.5,284.8L5.7,282L6.6,280.8L7,279L7.8,278.3L11.1,277.9L14.2,279.1L15.4,280.3L16.9,280.3L18.4,279.5L22.1,281.2L23.7,281.1L25.5,279.8L27.3,279.9L28.2,279.4L29.8,279.6L32.2,280.5L34.6,278.7L35.3,278.9L37.4,282.3L38,282.3L39.2,283.5L38.8,284.1L38.7,285.1L36.1,287.5L35.3,289.5L34.8,291.1L34.2,291.8L33.6,294L31.9,295.3L31.5,296.9L30.8,298.1L30.5,299.4L29.3,300L27.8,300L27.8,300L26.6,299.2L25.5,299.2L24.7,300L2.7,300Z" fill="#2c2c34" stroke="#474751" stroke-width="0.8"/><path d="M24.7,300L25.5,299.2L26.6,299.2L27.8,300L24.7,300ZM29.3,300L30.5,299.4L30.8,298.1L31.5,296.9L31.9,295.3L33.6,294L34.2,291.8L34.8,291.1L35.3,289.5L36.1,287.5L38.7,285.1L38.8,284.1L39.2,283.5L38,282.3L38.1,281.3L38.9,281.1L38.9,281.1L40.1,283.1L40.3,285.2L40.2,287.2L41.9,290.1L40.2,290.1L39.3,290.3L37.9,290L37.3,291.4L39.1,293.2L40.4,293.8L40.8,295.1L41.8,297.2L41.3,298L40.4,300L29.3,300Z" fill="#2c2c34" stroke="#474751" stroke-width="0.8"/><path d="M0,281.6L1.1,281.8L1,284L0.4,284.9L0,285L0,281.6Z" fill="#2c2c34" stroke="#474751" stroke-width="0.8"/><path d="M40.4,300L41.3,298L43.9,297.8L44.4,297L44.9,297.1L45.7,297.8L49.6,296.6L50.9,295.4L52.5,294.3L52.2,293.2L53,292.9L56,293.1L58.9,291.7L61.1,288.3L62.7,287L64.6,286.5L65,287.8L66.7,289.7L66.7,291L66.2,292.3L66.4,293.3L67.5,294.2L69.8,295.5L71.5,296.8L71.5,297.8L73.6,299.4L74.2,300L40.4,300Z" fill="#2c2c34" stroke="#474751" stroke-width="0.8"/><path d="M104.1,214.5L103.5,215.7L102.4,215.2L101.8,217.6L102.6,218L101.8,218.5L101.6,219.4L103.1,218.9L103.2,220.3L101.6,226L101.3,225.1L99.6,219.9L100.5,218.7L100.3,218.5L101.1,216.8L101.7,214.1L102.2,213.2L102.3,213.1L103.3,213.1L103.6,212.5L104.4,212.4L104.4,213.9L104,214.5Z" fill="#2c2c34" stroke="#474751" stroke-width="0.8"/><path d="M104.4,212.4L103.6,212.5L103.3,213.1L102.3,213.1L103.3,210.1L104.9,207.5L104.9,207.4L106.3,207.6L106.8,209L105.1,210.4Z" fill="#2c2c34" stroke="#474751" stroke-width="0.8"/><path d="M103.1,218.9L101.6,219.4L101.8,218.5L102.6,218L101.8,217.6L102.4,215.2L103.5,215.7L103.5,217.9Z" fill="#2c2c34" stroke="#474751" stroke-width="0.8"/><path d="M23.5,223.2L22.2,216.7L20.3,215.3L20.3,214.4L17.8,212.2L17.5,209.4L19.4,207.3L20.1,204.2L19.6,200.6L20.3,198.7L23.6,197.1L25.8,197.6L25.7,199.5L28.3,198.1L28.5,198.8L27,200.7L26.9,202.5L28,203.4L27.6,206.7L25.6,208.6L26.2,210.6L27.7,210.6L28.5,212.4L29.7,213L29.5,215.8L28,216.8L27.1,218L25,219.4L25.3,220.8L25,222.3Z" fill="#2c2c34" stroke="#474751" stroke-width="0.8"/><path d="M0,199.8L4.1,199.3L9.2,199L10.7,199.5L13.6,198L16.9,198L18.2,198.9L20.3,198.7L19.6,200.6L20.1,204.2L19.4,207.3L17.5,209.4L17.8,212.2L20.3,214.4L20.3,215.3L22.2,216.7L23.5,223.2L24.5,226.3L24.7,227.9L24.1,230.8L24.4,232.4L24,234.3L24.2,236.4L23,237.9L24.8,240.3L25,241.8L26.1,243.7L27.5,243.1L29.9,244.6L31.3,246.7L20.7,253.1L11.8,259.5L7.5,261L4.1,261.3L4.1,259.2L2.7,258.7L0.7,257.7L0,256.2L0,256.2L0,199.8Z" fill="#2c2c34" stroke="#474751" stroke-width="0.8"/><path d="M103.5,215.7L104.1,214.5L107.5,216L113.5,212.1L114.7,216.5L114.2,217.1L108,218.9L111.1,222.5L110.1,223.1L109.5,224.2L107.2,224.7L106.5,226L105.2,227.1L101.7,226.5L101.6,226L103.2,220.3L103.1,218.9L103.5,217.9Z" fill="#2c2c34" stroke="#474751" stroke-width="0.8"/><path d="M152.8,244.1L153.3,244L153.4,244.9L155.8,244.4L158.4,244.4L160.2,244.5L162.3,242.3L164.6,240.1L166.6,238L167.1,239.2L167.6,241.8L166,241.8L165.7,244L166.3,244.5L164.9,245.2L164.9,246.5L164,247.9L163.9,249.3L163.3,250L154.1,248.3L152.9,244.9Z" fill="#2c2c34" stroke="#474751" stroke-width="0.8"/><path d="M150.4,242.4L150.2,239.9L151,238.2L151.9,237.8L152.8,238.9L152.9,240.8L152.2,242.8L151.3,243.1Z" fill="#2c2c34" stroke="#474751" stroke-width="0.8"/><path d="M141.7,224.3L142.3,225.9L142.1,226.7L143,229.4L140.9,229.5L140.1,227.8L137.4,227.4L139.6,224.1Z" fill="#2c2c34" stroke="#474751" stroke-width="0.8"/><path d="M114.7,216.5L113.5,212.1L120.3,208.2L121.5,203.7L121.2,200.9L122.9,200L124.4,197.6L125.7,197L129.3,197.5L130.4,198.5L131.9,197.8L133.9,202.4L135.9,203.5L136.1,205.7L134.6,207L133.8,209.9L136,213.4L139.7,215.4L141.3,218.2L140.8,220.8L141.8,220.8L141.8,222.7L143.5,224.5L141.7,224.3L139.6,224.1L137.4,227.4L131.7,227.2L123,220L118.4,217.5Z" fill="#2c2c34" stroke="#474751" stroke-width="0.8"/><path d="M163.9,249.3L164,247.9L164.9,246.5L164.9,245.2L166.3,244.5L165.7,244L166,241.8L167.6,241.8L168.9,244.1L170.6,245.4L172.9,245.8L174.7,246.4L176.1,248.3L176.9,249.4L178,249.9L178,250.6L176.9,252.6L176.4,253.5L175.1,254.5L174,256.8L172.6,256.6L171.9,257.4L171.5,259.1L171.8,261.2L171.5,261.6L170.1,261.6L168.2,262.8L167.9,264.4L167.2,265.1L165.3,265.1L164.1,265.9L164.1,267.2L162.6,268.1L160.9,267.8L158.9,268.9L157.5,269L156.5,266.8L154.1,261.5L163.3,258.2L165.3,251.6ZM167.1,239.2L166.6,238L167.4,236.8L167.8,237.1L167.5,238.5Z" fill="#2c2c34" stroke="#474751" stroke-width="0.8"/><path d="M309.4,283.2L308.6,279.4L310.6,276.8L314.6,276.2L317.4,276.6L320,277.8L321.4,275.7L324.1,276.8L324.8,278.9L324.4,282.7L319.3,285.1L320.6,287L317.4,287.3L314.7,288.5L312.1,288.1L310.9,286.4Z" fill="#2c2c34" stroke="#474751" stroke-width="0.8"/><path d="M300.7,300L300.5,299.8L299.9,298.3L298.3,296.5L296.8,295.1L296.3,296.9L295.7,295.2L296.1,293.2L297,290.2L298.5,287L300.1,284.1L299,281.2L299,279.8L298.6,278L296.6,275.5L295.9,273.9L296.9,273.3L298,270.5L296.8,268.4L294.8,266.1L293.4,263.3L294.7,262.7L296.1,259.2L298.2,259L300,257.6L301.8,256.8L303.1,257.8L303.3,259.8L305.3,260L304.6,263.4L304.7,266.3L307.9,264.3L308.8,264.9L310.6,264.8L311.2,263.7L313.6,263.9L315.9,266.5L316.1,269.7L318.6,272.5L318.4,275.2L317.4,276.6L317.4,276.6L314.6,276.2L310.6,276.8L308.6,279.4L309.4,283.2L306.6,281.7L304,281.8L304.4,279.3L301.7,279.3L301.5,282.8L299.8,287.4L298.8,290.1L299,292.4L301,292.5L302.3,295.3L302.8,298L304.5,299.8L305.7,300L300.7,300Z" fill="#2c2c34" stroke="#474751" stroke-width="0.8"/><path d="M324.1,276.8L321.4,275.7L320,277.8L317.4,276.6L318.4,275.2L318.6,272.5L316.1,269.7L315.9,266.5L313.6,263.9L311.2,263.7L310.6,264.8L308.8,264.9L307.9,264.3L304.7,266.3L304.6,263.4L305.3,260L303.3,259.8L303.1,257.8L301.8,256.8L302.4,255.6L305,253.5L305.3,254.3L307,254.3L306.5,250.6L308.1,250.1L309.9,252.7L311.3,255.7L315,255.7L316.2,258.6L314.3,259.4L313.4,260.6L317.1,262.5L319.6,266.4L321.5,269.2L323.9,271.4L324.6,273.7Z" fill="#2c2c34" stroke="#474751" stroke-width="0.8"/><path d="M301.8,256.8L300,257.6L298.2,259L296.1,259.2L294.7,262.7L293.4,263.3L294.8,266.1L296.8,268.4L298,270.5L296.9,273.3L295.9,273.9L296.6,275.5L298.6,278L299,279.8L299,281.2L300.1,284.1L298.5,287L297,290.2L296.7,287.9L297.6,285.5L296.6,283.7L296.8,280.2L295.6,278.6L294.6,274.8L294,270.8L292.7,268.1L290.7,269.8L287.2,272L285.5,271.7L283.6,271L284.6,267L284,264L281.6,260.3L282,259.1L280.2,258.7L278,256L277.8,253.4L278.9,253.9L278.9,251.5L280.4,250.7L280.1,249.3L280.8,248.2L280.9,244.7L283.3,245.5L284.7,242.7L284.8,241L286.5,238.2L286.5,236.2L290.4,233.8L292.6,234.5L292.4,232.3L293.4,231.7L293.2,230.4L295,230.1L296,232.2L297.4,233L297.5,235.6L297.3,238.5L294.4,241.3L294.1,245.3L297.3,244.7L298,247.8L300,248.5L299.1,251.2L301.4,252.5L302.7,253.1L304.9,252.1L305,253.5L302.4,255.6Z" fill="#2c2c34" stroke="#474751" stroke-width="0.8"/><path d="M314.7,288.5L317.4,287.3L320.6,287L319.3,285.1L324.4,282.7L324.8,278.9L324.1,276.8L324.6,273.7L323.9,271.4L321.5,269.2L319.6,266.4L317.1,262.5L313.4,260.6L314.3,259.4L316.2,258.6L315,255.7L311.3,255.7L309.9,252.7L308.1,250.1L309.7,249.3L312.2,249.3L315.2,248.9L317.8,247.1L319.3,248.4L322.1,249L321.6,250.9L323,252.2L326.1,253.1L322,255.9L319.5,259L318.8,261.3L321.1,264.7L324,268.9L326.8,270.9L328.7,273.4L330.1,279.3L329.7,284.8L327.1,286.9L323.6,288.9L321.1,291.5L317.3,294.4L316.1,292.4L317,290.3Z" fill="#2c2c34" stroke="#474751" stroke-width="0.8"/><path d="M395.9,177.6L395.9,177.6L395.9,177.6ZM395.5,176.9L395.9,177.6L394.7,177.4L393.4,178.8L392.5,180.2L392.6,183.1L391,184L390.5,184.7L389.3,185.9L387.3,186.6L385.9,187.7L385.8,189.4L385.5,189.8L386.7,190.5L388.5,192.2L388,193.1L386.7,193.4L384.5,193.6L383.3,195.3L382,195.2L381.8,195.6L380.3,194.8L379.9,195.6L379,195.9L378.9,195.1L378.1,194.8L377.3,194.2L378.1,192.4L378.8,192L378.6,191.3L379.4,189.1L379.2,188.5L377.4,188L375.9,187L378.4,184.4L381.8,182.2L383.9,179.3L385.4,180.6L388,180.7L387.5,178.6L392.3,176.8L393.5,174.5Z" fill="#2c2c34" stroke="#474751" stroke-width="0.8"/><path d="M381.8,195.6L382,195.2L383.3,195.3L384.5,193.6L386.7,193.4L388,193.1L388.5,192.2L391.1,196.8L391.9,199.3L391.9,203.7L390.7,205.7L387.9,206.5L385.5,208L382.7,208.3L382.4,206.3L382.9,203.5L381.6,199.5L383.9,198.9Z" fill="#2c2c34" stroke="#474751" stroke-width="0.8"/><path d="M263.8,146.4L267,145.6L272.9,141.5L277.6,139.2L280.3,140.7L283.4,140.8L285.5,143L288.6,143.2L293,144.4L296,141.1L294.7,138.2L297.9,133.1L301.4,135.2L304.1,135.7L307.8,137L308.3,140.7L312.7,142.7L315.6,141.8L319.5,141.2L322.6,141.8L325.6,144.1L327.4,146.5L330.3,146.5L334.2,147.2L337,146.1L341,145.3L345.5,141.9L347.3,142.4L349,144L352.6,143.6L351.1,147.2L349,151.8L349.7,153.7L351.5,153.1L354.5,153.9L356.9,152.2L359.3,153.6L362.1,156.8L361.8,158.4L359.4,157.9L354.9,158.5L352.7,159.8L350.5,162.7L345.8,164.4L342.8,166.7L339.6,165.8L337.9,165.4L336.3,168.2L337.2,169.8L337.7,171.3L335.6,172.7L333.4,174.9L329.8,176.4L325.2,176.6L320.2,178L316.7,180.2L315.3,178.9L311.6,178.9L307,176.4L304,175.8L299.9,176.4L293.6,175.4L290.2,175.5L288.4,173L287,169.1L285.1,168.6L281.4,166L277.3,165.4L273.6,164.6L272.5,162.7L273.7,157.5L271.6,153.9L267.2,152.2L264.6,149.7Z" fill="#2c2c34" stroke="#474751" stroke-width="0.8"/><path d="M293.2,230.4L293.4,231.7L292.4,232.3L292.6,234.5L290.4,233.8L286.5,236.2L286.5,238.2L284.8,241L284.7,242.7L283.3,245.5L280.9,244.7L280.8,248.2L280.1,249.3L280.4,250.7L278.9,251.5L277.3,246.2L276.5,246.2L276,248.3L274.3,246.6L275.2,244.7L276.6,244.5L278,241.7L276.2,241.1L273.4,241.1L270.5,240.7L270.2,238.3L268.7,238.1L266.3,236.6L265.2,239L267.4,240.8L265.5,242L264.8,243.3L266.7,244.2L266.2,246.2L267.3,248.7L267.7,251.4L267.3,252.6L265.2,252.6L261.4,253.3L261.6,255.8L260,257.7L255.5,259.9L252.1,263.7L249.8,265.8L246.8,267.9L246.7,269.3L245.2,270.1L242.4,271.3L241,271.4L240.1,273.9L240.7,278L240.9,280.6L239.6,283.6L239.6,288.9L238,289.1L236.6,291.4L237.5,292.5L234.7,293.4L233.7,295.5L232.5,296.4L229.6,293.5L228.1,289.1L227,285.9L225.9,284.5L224.2,281.4L223.5,277.5L223,275.5L220.2,271.1L218.9,264.9L218,260.8L218,256.8L217.4,253.8L212.9,255.7L210.8,255.3L206.8,251.3L208.2,250.1L207.3,248.8L203.7,246L205.8,243.7L212.5,243.8L211.9,240.9L210.2,239.1L209.8,236.5L207.8,234.9L211.2,231.3L214.8,231.6L218,227.9L219.9,224.3L222.9,220.8L222.8,218.2L225.5,216.1L223,214.3L221.9,211.8L220.8,208.6L222.3,207L227,207.9L230.4,207.3L233.4,204.2L236.7,208.6L236.4,211.6L237.6,213.5L237.5,215.3L235.3,214.9L236.1,218.8L239.2,221.1L243.4,223.6L241.5,225.2L240.3,228.5L243.3,229.8L246.2,231.5L250.2,233.5L254.4,233.9L256.1,235.7L258.5,236L262.2,236.8L264.8,236.8L265.1,235.4L264.7,233.2L264.9,231.7L266.8,231L267.1,233.7L267.1,234.4L269.9,235.7L271.9,235.2L274.4,235.4L277,235.3L277.2,233.2L275.9,232.1L278.4,231.6L281.2,229.1L284.7,226.8L287.3,227.7L289.5,226.2L290.9,228.4L289.9,229.8Z" fill="#2c2c34" stroke="#474751" stroke-width="0.8"/><path d="M278.9,251.5L278.9,253.9L277.8,253.4L278,256L277.1,254.3L276.9,252.6L276.3,251L275.1,249.1L272.2,249L272.5,250.3L271.6,252.2L270.2,251.5L269.8,252.1L268.9,251.7L267.7,251.4L267.3,248.7L266.2,246.2L266.7,244.2L264.8,243.3L265.5,242L267.4,240.8L265.2,239L266.3,236.6L268.7,238.1L270.2,238.3L270.5,240.7L273.4,241.1L276.2,241.1L278,241.7L276.6,244.5L275.2,244.7L274.3,246.6L276,248.3L276.5,246.2L277.3,246.2Z" fill="#2c2c34" stroke="#474751" stroke-width="0.8"/><path d="M275.9,232.1L277.2,233.2L277,235.3L274.4,235.4L271.9,235.2L269.9,235.7L267.1,234.4L267.1,233.7L269.1,231.1L270.8,230.3L273,231.1L274.6,231.1Z" fill="#2c2c34" stroke="#474751" stroke-width="0.8"/><path d="M264.9,231.7L264.7,233.2L265.1,235.4L264.8,236.8L262.2,236.8L258.5,236L256.1,235.7L254.4,233.9L250.2,233.5L246.2,231.5L243.3,229.8L240.3,228.5L241.5,225.2L243.4,223.6L244.7,222.8L247.2,223.9L250.3,226.2L252,226.7L253,228.4L255.4,229L257.9,230.6L261.4,231.4Z" fill="#2c2c34" stroke="#474751" stroke-width="0.8"/><path d="M233.4,204.2L230.4,207.3L227,207.9L222.3,207L220.8,208.6L221.9,211.8L223,214.3L225.5,216.1L222.8,218.2L222.9,220.8L219.9,224.3L218,227.9L214.8,231.6L211.2,231.3L207.8,234.9L209.8,236.5L210.2,239.1L211.9,240.9L212.5,243.8L205.8,243.7L203.7,246L201.5,245.1L200.6,242.7L198.2,240.1L192.5,240.8L187.5,240.8L183.2,241.3L184.4,237.4L188.8,235.6L188.5,234L187.1,233.4L187,230.4L184.1,228.8L182.8,226.7L181.3,224.9L186.4,226.7L189.5,226.1L191.3,226.6L192,225.8L194.1,226.1L198.1,224.7L198.2,221.6L199.9,219.6L202.2,219.6L202.5,218.6L204.9,218.1L206,218.5L207.2,217.5L207.1,215.3L208.4,213.1L210.3,212.1L209.1,209.7L212,209.8L212.9,208.5L212.7,207L214.3,205.5L213.9,203.6L213.2,202L215,200.3L218.3,199.5L221.8,199.1L223.4,198.4L225.2,197.9L227.4,199.7L228.3,202.7Z" fill="#2c2c34" stroke="#474751" stroke-width="0.8"/><path d="M198.6,197.1L200.3,197.1L202.7,197.9L203.6,198.4L205.8,197.1L206.8,197.9L207.8,196.1L209.7,196.2L210.1,195.6L210.5,194.1L211.8,192.7L213.5,193.6L213.1,194.8L214,195L213.8,198.2L215,199.5L216,198.7L217.4,198.3L219.3,196.6L221.4,196.8L224.6,196.8L225.2,197.9L223.4,198.4L221.8,199.1L218.3,199.5L215,200.3L213.2,202L213.9,203.6L214.3,205.5L212.7,207L212.9,208.5L212,209.8L209.1,209.7L210.3,212.1L208.4,213.1L207.1,215.3L207.2,217.5L206,218.5L204.9,218.1L202.5,218.6L202.2,219.6L199.9,219.6L198.2,221.6L198.1,224.7L194.1,226.1L192,225.8L191.3,226.6L189.5,226.1L186.4,226.7L181.3,224.9L184.1,221.6L183.8,219.3L181.5,218.7L181.3,216.4L180.3,213.5L181.6,211.5L180.2,211L181.1,208.3L182.3,203.6L185.5,205L187.8,204.5L188.4,202.8L190.8,202.3L192.6,201.1L193.2,198L195.8,197.3L196.3,195.9L197.7,196.9Z" fill="#2c2c34" stroke="#474751" stroke-width="0.8"/><path d="M202.7,197.9L204.4,194L203.7,191.1L201.5,190.1L202.3,188.4L204.8,188.6L206.3,186.3L207.3,183.8L211.4,182.8L210.7,184.7L211.2,185.8L212.4,185.7L211.3,186.9L208,186.3L207.7,188.6L211,188.3L214.8,189.6L220.6,189L221.4,192.6L222.4,192.2L224.2,193.1L224.1,194.6L224.6,196.8L221.4,196.8L219.3,196.6L217.4,198.3L216,198.7L215,199.5L213.8,198.2L214,195L213.1,194.8L213.5,193.6L211.8,192.7L210.5,194.1L210.1,195.6L209.7,196.2L207.8,196.1L206.8,197.9L205.8,197.1L203.6,198.4Z" fill="#2c2c34" stroke="#474751" stroke-width="0.8"/><path d="M212.3,177.5L213,175.6L215,175L220,176.5L220.5,174L222.2,173.1L226.6,174.9L227.7,174.4L232.8,174.6L237.4,175L238.9,176.5L240.8,177.1L240.4,178L235.5,180.3L234.5,181.9L230.5,182.4L229.4,185L226.1,184.4L224,185.2L221,187.1L221.5,188L220.6,189L214.8,189.6L211,188.3L207.7,188.6L208,186.3L211.3,186.9L212.4,185.7L214.8,186.1L218.7,183.2L215.1,181.1L212.9,182.1L210.6,180.5L213.2,177.9Z" fill="#2c2c34" stroke="#474751" stroke-width="0.8"/><path d="M155.6,179.4L157,178.1L160.4,177.2L162.5,178.4L164.7,181.6L166.2,181.4L169.7,181.3L169.2,179.3L171.8,177.8L174.4,175.4L178.5,177.6L178.9,180.9L180,181.8L183.4,181.6L184.4,182.3L185.9,186.5L189.4,189.2L191.4,191.1L194.6,193L198.7,194.7L198.6,197.1L197.7,196.9L196.3,195.9L195.8,197.3L193.2,198L192.6,201.1L190.8,202.3L188.4,202.8L187.8,204.5L185.5,205L182.3,203.6L182.1,200.4L179.8,200.3L176.3,196.9L173.8,196.4L170.4,194.5L168.2,194.1L166.9,194.8L164.8,194.7L162.7,196.9L160,197.7L159.4,195L159.8,190.9L157.4,189.5L158.2,186.8L156.2,186.6L156.9,183.2L159.8,184.2L162.5,182.9L160.2,180.4L159.3,178L156.9,179.1L156.6,182.1Z" fill="#2c2c34" stroke="#474751" stroke-width="0.8"/><path d="M143.5,224.5L141.8,222.7L141.8,220.8L140.8,220.8L141.3,218.2L139.7,215.4L136,213.4L133.8,209.9L134.6,207L136.1,205.7L135.9,203.5L133.9,202.4L131.9,197.8L130.2,194.7L130.8,193.5L129.8,189L131.9,187.8L132.4,189.3L134,191.2L136.1,191.7L137.2,191.6L140.8,188.7L142,188.4L142.9,189.5L141.8,191.5L143.7,193.5L144.5,193.3L145.5,196.2L148.4,197L150.5,199L154.9,199.6L159.7,198.6L160,197.7L162.7,196.9L164.8,194.7L166.9,194.8L168.2,194.1L170.4,194.5L173.8,196.4L176.3,196.9L179.8,200.3L182.1,200.4L182.3,203.6L181.1,208.3L180.2,211L181.6,211.5L180.3,213.5L181.3,216.4L181.5,218.7L183.8,219.3L184.1,221.6L181.3,224.9L182.8,226.7L184.1,228.8L187,230.4L187.1,233.4L188.5,234L188.8,235.6L184.4,237.4L183.2,241.3L177.4,240.3L174.1,239.5L170.6,239.1L169.3,234.9L167.8,234.2L165.5,234.9L162.4,236.5L158.6,235.4L155.5,232.7L152.6,231.8L150.5,228.4L148.3,223.7L146.6,224.3L144.7,223.1Z" fill="#2c2c34" stroke="#474751" stroke-width="0.8"/><path d="M104.1,214.5L104,214.5L104.4,213.9L104.4,212.4L105.1,210.4L106.8,209L106.3,207.6L104.9,207.4L104.6,204.5L105.4,203L106.2,202.1L107,201.3L107.2,199.2L108.2,199.9L111.6,198.8L113.2,199.6L115.7,199.6L119.3,198.1L120.9,198.2L124.4,197.6L122.9,200L121.2,200.9L121.5,203.7L120.3,208.2L113.5,212.1L107.5,216Z" fill="#2c2c34" stroke="#474751" stroke-width="0.8"/><path d="M137.2,191.6L136.1,191.7L134.8,189.4L134.8,188.8L133.5,188.8L132.6,187.7L131.9,187.8L130.7,186.7L128.4,185.7L128.7,183.7L128.2,182.3L132.5,181.6L133.1,182.7L134.3,183.4L133.7,184.4L135.3,185.8L134.4,187.1L135.7,188.2L137.1,188.8Z" fill="#2c2c34" stroke="#474751" stroke-width="0.8"/><path d="M28.3,96.1L29.6,92.7L32.2,88.5L33.2,81.1L31.2,77.9L31,69L33,62.6L36.1,62.7L37.1,59.9L36,57.4L40.8,47L43.9,38.4L45.9,32.7L48.8,32.7L49.7,28.1L55.4,29.4L55.9,23.8L57.8,23.5L61.9,27.7L66.7,33.3L66.8,45.5L67.8,48.4L62.5,50.6L59.5,55.7L60,60.1L55.1,65.7L49.2,71.6L47,80.8L49.2,85.3L52.1,88.7L49.3,95.6L46.1,96.9L44.9,106.6L43.2,111.9L39.4,111.3L37.7,115.7L34.2,115.9L33.2,110.7L30.6,104.4Z" fill="#2c2c34" stroke="#474751" stroke-width="0.8"/><path d="M80.9,111.5L84.2,112.9L84.6,114.2L86.2,113.6L89.2,114.9L89.5,117.4L88.8,118.9L90.8,122.3L92,123.3L91.8,124.2L93.9,125.1L94.8,126.5L93.6,127.6L91.1,127.5L90.5,127.9L91.2,129.6L92,132.8L89.4,133.1L88.4,134.2L88.2,136.7L87,136.2L84.2,136.5L83.4,135.3L82.3,136.2L81.1,135.5L78.7,135.4L75.3,134.2L72.2,133.8L69.8,133.9L68.1,135.3L66.6,135.4L66.6,133.2L65.6,130.9L67.5,129.9L67.5,127.8L66.6,125.9L66.5,123.6L69.5,123.6L72.8,121.7L73.5,118.7L76,117L75.8,114.5L77.6,113.6Z" fill="#2c2c34" stroke="#474751" stroke-width="0.8"/><path d="M92,132.8L93.1,133L93.9,131.9L94.9,132.2L98,131.7L100,134.5L99.2,135.5L99.5,137L101.9,137.3L103,139.4L103,140.3L106.9,142L109.2,141.3L111.1,143.5L112.9,143.5L117.4,145L117.5,146.4L116.2,148.8L116.9,151.4L116.4,152.9L113.4,153.3L111.9,154.5L111.8,156.6L109.3,156.9L107.3,158.4L104.4,158.6L101.7,160.3L101.9,162.6L101.4,162.5L101,161.6L100.1,161.5L97.9,160.5L97.1,161.6L96.6,161.1L91.9,160L91.7,158.3L88.8,158.9L87.7,161.3L85.3,164.6L83.9,163.8L82.5,164.5L81.1,163.7L81.9,163.3L82.4,161.7L83.2,160.3L83,159.5L83.7,159.2L84,159.8L85.8,159.9L86.6,159.6L86,159.1L86.2,158.5L85.2,157.3L84.7,155.4L83.6,154.7L83.8,153.2L82.4,151.9L81.2,151.8L78.9,150.3L76.9,150.8L76.1,151.5L74.8,151.5L74.1,152.5L71.8,153L70.8,153.7L69.3,152.6L67.4,152.5L65.5,152L64.1,153L63.9,151.8L62.2,150.5L62.8,148.6L63.7,147.4L64.3,147.7L63.6,145.6L66.3,141.6L67.9,141.1L68.2,139.7L66.6,135.4L68.1,135.3L69.8,133.9L72.2,133.8L75.3,134.2L78.7,135.4L81.1,135.5L82.3,136.2L83.4,135.3L84.2,136.5L87,136.2L88.2,136.7L88.4,134.2L89.4,133.1Z" fill="#2c2c34" stroke="#474751" stroke-width="0.8"/><path d="M66.5,123.6L66.6,125.9L67.5,127.8L67.5,129.9L65.6,130.9L66.6,133.2L66.6,135.4L68.2,139.7L67.9,141.1L66.3,141.6L63.6,145.6L64.3,147.7L63.7,147.4L60.8,145.6L58.5,146.3L57.1,145.8L55.3,146.8L53.7,145.1L52.5,145.8L52.3,145.5L50.9,143.2L48.6,142.9L48.3,141.4L46.2,140.8L45.7,142.1L44.1,141.1L44.3,139.8L42,139.3L40.5,137.8L39.3,134.6L39.5,132.9L38.7,130.2L37.6,128.4L38.5,127L37.8,124.4L39.9,122.9L44.7,120.4L48.5,118.7L51.6,119.6L51.8,120.8L54.8,120.9L58.6,121.5L64.2,121.4L65.8,122Z" fill="#2c2c34" stroke="#474751" stroke-width="0.8"/><path d="M46.5,151.9L46.3,153.8L44.6,153.8L45.2,154.8L44.2,157.7L43.6,158.4L40.9,158.5L39.3,159.6L36.8,159.2L32.4,158.1L31.7,156.5L28.7,157.3L28.3,158.1L26.5,157.5L24.9,157.4L23.5,156.6L24,155.4L23.9,154.6L24.8,154.4L26.3,155.6L26.8,154.4L29.5,154.6L31.7,153.8L33.2,154L34.1,154.9L34.4,154.1L34,151.1L35.1,150.6L36.2,148.4L38.4,149.9L40.2,148L41.2,147.7L43.6,149.1L45.1,148.8L46.5,149.7L46.2,150.3Z" fill="#2c2c34" stroke="#474751" stroke-width="0.8"/><path d="M62.2,150.5L63.9,151.8L64.1,153L62.3,154L60.8,157L59,160.1L56.5,160.9L54.6,160.7L52.2,161.9L51.1,162.5L48.5,161.7L46.2,159.8L45.3,159.2L44.7,157.7L44.2,157.7L45.2,154.8L44.6,153.8L46.3,153.8L46.5,151.9L48.1,153.1L49.2,153.6L51.8,153L52.1,152.1L53.3,152L54.8,151.2L55.1,151.5L56.5,151L57.3,149.9L58.3,149.6L61.6,151Z" fill="#2c2c34" stroke="#474751" stroke-width="0.8"/><path d="M76.1,151.5L76.9,150.8L78.9,150.3L81.2,151.8L82.4,151.9L83.8,153.2L83.6,154.7L84.7,155.4L85.2,157.3L86.2,158.5L86,159.1L86.6,159.6L85.8,159.9L84,159.8L83.7,159.2L83,159.5L83.2,160.3L82.4,161.7L81.9,163.3L81.1,163.7L80.5,161.7L80.9,159.8L80.8,157.9L79,155.2L78,153.3L77.1,151.9Z" fill="#2c2c34" stroke="#474751" stroke-width="0.8"/><path d="M81.1,163.7L82.5,164.5L83.9,163.8L85.3,164.6L85.4,165.7L83.9,166.6L82.9,166.2L82.1,171.4L80.3,171L78.1,169.4L74.4,170.4L72.9,171.5L68.4,171.3L66,170.6L64.9,170.9L64,169.2L63.4,168.4L64.1,167.7L63.4,167.1L62.4,168.1L60.6,166.9L60.4,165.1L58.5,164L58.2,162.6L56.5,160.9L59,160.1L60.8,157L62.3,154L64.1,153L65.5,152L67.4,152.5L69.3,152.6L70.8,153.7L71.8,153L74.1,152.5L74.8,151.5L76.1,151.5L77.1,151.9L78,153.3L79,155.2L80.8,157.9L80.9,159.8L80.5,161.7Z" fill="#2c2c34" stroke="#474751" stroke-width="0.8"/><path d="M75.8,114.5L76,117L73.5,118.7L72.8,121.7L69.5,123.6L66.5,123.6L65.8,122L64.2,121.4L63.9,120.1L64.3,118.6L62.9,117.8L59.7,116.8L59.1,112.3L62.6,110.6L67.7,110.9L70.7,110.4L71.2,111.5L72.8,111.9Z" fill="#2c2c34" stroke="#474751" stroke-width="0.8"/><path d="M78.2,104.2L79.7,105.5L79.9,108.2L80.9,111.5L77.6,113.6L75.8,114.5L72.8,111.9L71.2,111.5L70.7,110.4L67.7,110.9L62.6,110.6L59.1,112.3L59.2,108.1L60.7,104.5L63.6,102.6L66,106.8L68.5,106.7L69.1,102.4L71.7,101.3L73,102L75.7,104.2Z" fill="#2c2c34" stroke="#474751" stroke-width="0.8"/><path d="M80.3,92.4L80.8,93.5L78.6,96.9L79.5,102.4L78.2,104.2L75.7,104.2L73,102L71.7,101.3L69.1,102.4L69.4,98.9L68.3,99.7L66.3,97.6L66.1,94.2L69.9,92.5L73.8,91.6L77.1,92.6Z" fill="#2c2c34" stroke="#474751" stroke-width="0.8"/><path d="M37.8,124.4L38.5,127L37.6,128.4L38.7,130.2L39.5,132.9L39.3,134.6L40.5,137.8L39.1,138.3L38.3,137.7L37.6,138.6L35.4,139.6L34.2,140.8L32,141.8L32.5,143.3L32.9,145.3L34.4,146.4L36.2,148.4L35.1,150.6L34,151.1L34.4,154.1L34.1,154.9L33.2,154L31.7,153.8L29.5,154.6L26.8,154.4L26.3,155.6L24.8,154.4L23.9,154.6L20.6,153.2L19.9,154.2L17.3,154.2L17.7,150.9L19.3,147.8L14.9,146.9L13.4,145.7L13.6,143.6L13,142.5L13.3,139.2L12.8,134.1L14.6,134.1L15.4,132.2L16.2,127.6L15.6,125.8L16.2,124.7L18.8,124.5L19.4,125.6L21.4,123L20.7,121.1L20.6,118.1L22.9,118.8L24.9,117.9L24.9,120L28,121.2L28,123.1L31.1,122.1L32.8,120.7L36.3,122.7Z" fill="#2c2c34" stroke="#474751" stroke-width="0.8"/><path d="M64,169.2L64.9,170.9L66,170.6L68.4,171.3L72.9,171.5L74.4,170.4L78.1,169.4L80.3,171L82.1,171.4L80.5,173.2L79.4,176.2L80.4,178.5L77.7,178L74.6,179.3L74.6,181.3L71.8,181.7L69.6,180.3L67.2,181.4L64.9,181.3L64.7,178.6L63.1,177.2L63.6,176.6L63.3,176.1L63.8,174.8L65,173.5L63.5,171.7L63.2,170.1Z" fill="#2c2c34" stroke="#474751" stroke-width="0.8"/><path d="M75.1,204.9L74.7,206L70.3,206.4L70.3,205.7L66.6,205L67.2,203.4L68.9,204.7L71.2,204.5L73.5,204.7L73.5,205.4ZM64.9,181.3L67.2,181.4L69.6,180.3L71.8,181.7L74.6,181.3L74.6,179.3L76.1,180.4L75.1,182.9L74.4,183.4L72.5,183.3L70.9,182.9L67.2,183.9L69.3,186.2L67.8,186.8L66.1,186.9L64.5,184.8L63.9,185.7L64.6,188.1L66.1,189.9L64.9,190.8L66.7,192.6L68.2,193.7L68.2,195.9L65.4,194.9L66.3,196.9L64.3,197.3L65.5,200.7L63.5,200.7L60.9,199.1L59.8,196L59.3,193.4L58.1,191.6L56.5,189.3L56.3,188.2L57.7,186.2L57.9,184.9L58.9,184.4L58.9,183.3L61,182.9L62.1,182L63.8,182.1L64.3,181.4Z" fill="#2c2c34" stroke="#474751" stroke-width="0.8"/><path d="M131.9,197.8L130.4,198.5L129.3,197.5L125.7,197L124.4,197.6L120.9,198.2L119.3,198.1L115.7,199.6L113.2,199.6L111.6,198.8L108.2,199.9L107.2,199.2L107,201.3L106.2,202.1L105.4,203L104.3,201.2L105.4,199.8L103.6,200.1L101,199.2L98.9,201.4L94.2,201.9L91.7,199.8L88.4,199.7L87.7,201.3L85.6,201.7L82.6,199.7L79.3,199.8L77.5,195.9L75.2,193.8L76.7,190.7L74.8,188.8L78.2,185L82.9,184.8L84.2,181.8L90,182.3L93.7,179.6L97.3,178.5L102.4,178.4L107.7,181.3L112.1,182.9L115.7,182.2L118.4,182.6L122,180.5L125.3,180.3L128.2,182.3L128.7,183.7L128.4,185.7L130.7,186.7L131.9,187.8L129.8,189L130.8,193.5L130.2,194.7ZM74.6,179.3L77.7,178L80.4,178.5L80.7,180.1L83.4,181.4L82.8,182.4L79.2,182.7L77.9,183.9L75.3,186.1L74.4,184.2L74.4,183.4L75.1,182.9L76.1,180.4Z" fill="#2c2c34" stroke="#474751" stroke-width="0.8"/><path d="M58.9,183.3L58.9,184.4L57.9,184.9L57.7,186.2L56.3,188.2L55.7,187.9L55.7,187L54,185.7L53.7,183.8L54,181L54.4,179.7L53.9,179.1L53.7,177.7L55,175.7L55.2,176.5L56,176.1L56.7,177.2L57.4,177.7L57.6,179.1L57.2,180.5L57.7,182.3Z" fill="#2c2c34" stroke="#474751" stroke-width="0.8"/><path d="M45.3,159.2L46.2,159.8L48.5,161.7L51.1,162.5L52.2,161.9L53,163.6L53.9,164.8L52.8,166.5L51.4,165.5L49.2,165.6L46.6,164.8L45.2,164.9L44.5,165.8L43.4,164.8L42.8,166.6L44.3,168.7L44.9,170L46.3,171.6L47.5,172.5L48.7,174.3L51.4,175.9L51.1,176.6L48.2,175L46.4,173.5L43.6,172.2L41,169.1L41.6,168.8L40.2,167L40.2,165.5L38.2,164.8L37.2,166.7L36.3,165.3L36.4,163.7L36.5,163.7L38.7,163.8L39.2,163.1L40.3,163.8L41.5,163.9L41.5,162.7L42.5,162.2L42.8,160.4Z" fill="#2c2c34" stroke="#474751" stroke-width="0.8"/><path d="M23.9,154.6L24,155.4L23.5,156.6L24.9,157.4L26.5,157.5L26.2,159.3L24.9,160.1L22.6,159.5L21.9,161.3L20.5,161.5L19.9,160.8L18.2,162.2L16.7,162.5L15.4,161.5L14.4,159.6L12.9,160.3L13,158.2L15.2,155.7L15.1,154.6L16.5,155L17.3,154.2L19.9,154.2L20.6,153.2Z" fill="#2c2c34" stroke="#474751" stroke-width="0.8"/><path d="M13,142.5L13.6,143.6L13.4,145.7L12.5,145.8L11.8,145.3L12.2,142.7Z" fill="#2c2c34" stroke="#474751" stroke-width="0.8"/><path d="M13.3,139.2L13,142.5L12.2,142.7L11.8,145.3L9.2,143.2L7.6,143.6L5.4,141.3L4,139.3L2.6,139.3L2.1,137.6L4.6,136.6L6.8,137L9.7,136L11.6,138.1Z" fill="#2c2c34" stroke="#474751" stroke-width="0.8"/><path d="M15.6,125.8L16.2,127.6L15.4,132.2L14.6,134.1L12.8,134.1L13.3,139.2L11.6,138.1L9.7,136L6.8,137L4.6,136.6L6.2,135.2L8.9,127.8L13.1,125.7Z" fill="#2c2c34" stroke="#474751" stroke-width="0.8"/><path d="M0,177.1L0,177.1L3.6,176.6L3.7,179L0.8,181.7L0,181.9L0,177.1Z" fill="#2c2c34" stroke="#474751" stroke-width="0.8"/><path d="M239.6,300L239.1,295.6L240.5,290.6L242.6,292.3L244,294.5L245.5,297.7L245.5,297.7L245.2,300L239.6,300Z" fill="#2c2c34" stroke="#474751" stroke-width="0.8"/><path d="M330.5,264.1L328,263.1L327.9,260.3L329.4,258.8L332.8,257.9L334.5,257.9L335.2,259.2L333.9,260.6L333.2,262.5ZM400,164.6L399.3,164.5L396.7,166L397.5,169.7L397,174.7L395.5,174.8L395.5,176.9L393.5,174.5L392.3,176.8L387.5,178.6L388,180.7L385.4,180.6L383.9,179.3L381.8,182.2L378.4,184.4L375.9,187L371.6,188.1L369.4,190L366,191.1L367.7,189.2L367,187.7L369.5,185L367.8,182.9L365.2,184.3L361.7,187.1L359.8,189.7L356.8,189.9L355.2,191.7L356.9,194.4L359.4,195L359.5,196.7L361.9,197.9L365.3,195.1L368.1,196.6L370,196.7L370.5,198.7L366.2,199.8L364.8,201.9L361.8,203.8L360.2,206.4L363.5,208.4L364.7,212.1L366.6,215.4L368.7,218.2L368.6,220.9L366.7,221.9L367.4,223.8L369.2,224.9L368.8,227.7L368,230.5L366.3,230.8L364,234.6L361.5,239.1L358.7,243.1L354.5,246.2L350.2,249L346.7,249.4L344.9,250.9L343.8,249.8L342.1,251.5L337.8,253.1L334.5,253.6L333.5,257.1L331.8,257.3L331,254.9L331.7,253.6L327.6,252.6L326.1,253.1L323,252.2L321.6,250.9L322.1,249L319.3,248.4L317.8,247.1L315.2,248.9L312.2,249.3L309.7,249.3L308.1,250.1L306.5,250.6L307,254.3L305.3,254.3L305,253.5L304.9,252.1L302.7,253.1L301.4,252.5L299.1,251.2L300,248.5L298,247.8L297.3,244.7L294.1,245.3L294.4,241.3L297.3,238.5L297.5,235.6L297.4,233L296,232.2L295,230.1L293.2,230.4L289.9,229.8L290.9,228.4L289.5,226.2L287.3,227.7L284.7,226.8L281.2,229.1L278.4,231.6L275.9,232.1L274.6,231.1L273,231.1L270.8,230.3L269.1,231.1L267.1,233.7L266.8,231L264.9,231.7L261.4,231.4L257.9,230.6L255.4,229L253,228.4L252,226.7L250.3,226.2L247.2,223.9L244.7,222.8L243.4,223.6L239.2,221.1L236.1,218.8L235.3,214.9L237.5,215.3L237.6,213.5L236.4,211.6L236.7,208.6L233.4,204.2L228.3,202.7L227.4,199.7L225.2,197.9L224.6,196.8L224.1,194.6L224.2,193.1L222.4,192.2L221.4,192.6L220.6,189L221.5,188L221,187.1L224,185.2L226.1,184.4L229.4,185L230.5,182.4L234.5,181.9L235.5,180.3L240.4,178L240.8,177.1L240.8,177.1L240.6,174.7L242.7,173.6L239.9,166.2L246,164.5L247.6,163.5L249.8,155.5L255.9,157L257.6,155L257.7,150.4L260.3,149.9L262.6,146.8L263.8,146.4L264.6,149.7L267.2,152.2L271.6,153.9L273.7,157.5L272.5,162.7L273.6,164.6L277.3,165.4L281.4,166L285.1,168.6L287,169.1L288.4,173L290.2,175.5L293.6,175.4L299.9,176.4L304,175.8L307,176.4L311.6,178.9L315.3,178.9L316.7,180.2L320.2,178L325.2,176.6L329.8,176.4L333.4,174.9L335.6,172.7L337.7,171.3L337.2,169.8L336.3,168.2L337.9,165.4L339.6,165.8L342.8,166.7L345.8,164.4L350.5,162.7L352.7,159.8L354.9,158.5L359.4,157.9L361.8,158.4L362.1,156.8L359.3,153.6L356.9,152.2L354.5,153.9L351.5,153.1L349.7,153.7L349,151.8L351.1,147.2L352.6,143.6L356.3,145.4L360.6,142.4L360.6,140.3L363.4,135.1L365.1,133.5L365,130.8L363.4,129.6L365.9,127L369.7,126.1L373.8,126L378.4,127.5L381.1,129.4L383,134.4L384.1,136.5L385.2,139.5L386.3,144.3L391.7,145.8L395.3,149.1L396.5,153.4L400,153.4L400,164.6Z" fill="#2c2c34" stroke="#474751" stroke-width="0.8"/><path d="M368.3,243.6L366.4,249L365.1,251.7L363.5,248.9L363.1,246.4L364.9,243.1L367.4,240.6L368.8,241.6Z" fill="#2c2c34" stroke="#474751" stroke-width="0.8"/><path d="M26.5,157.5L28.3,158.1L28.7,157.3L31.7,156.5L32.4,158.1L36.8,159.2L36.5,161.4L37.2,163.3L34.8,162.6L32.3,164.2L32.4,166.3L32.1,167.6L33.1,169.8L35.9,171.9L37.5,175.4L40.9,178.7L43.3,178.7L44.1,179.6L43.2,180.4L45.9,181.9L48.2,183.2L50.8,185.3L51.1,186L50.6,187.4L48.9,185.6L46.2,184.9L44.9,187.5L47.1,189L46.8,191.1L45.5,191.3L43.8,194.6L42.6,194.9L42.6,193.8L43.2,191.6L43.9,190.8L42.7,188.5L41.7,186.5L40.5,186L39.6,184.3L37.6,183.5L36.3,181.9L34,181.6L31.6,179.8L28.8,177.1L26.7,174.7L25.7,170.5L24.2,170L21.7,168.6L20.3,169.2L18.5,171.2L17.2,171.5L17.6,169.6L15.9,169.1L15.1,165.7L16.2,164.4L15.3,162.8L15.4,161.5L16.7,162.5L18.2,162.2L19.9,160.8L20.5,161.5L21.9,161.3L22.6,159.5L24.9,160.1L26.2,159.3ZM39.7,194L42.1,193.7L41,196.8L41.4,197.9L40.8,199.9L38.4,198.5L36.9,198.1L32.6,196.1L33,194.1L36.6,194.5ZM21.2,183.1L22.7,181.8L24.5,184.7L24.1,190L22.7,189.7L21.5,191L20.3,190L20.2,185.2L19.5,182.9Z" fill="#2c2c34" stroke="#474751" stroke-width="0.8"/><path d="M24.9,117.9L22.9,118.8L20.6,118.1L19.3,115.1L19.3,109.4L19.8,107.9L20.6,106.3L23.3,105.9L24.4,104.3L26.9,102.7L26.8,105.7L25.9,107.5L26.2,109.1L27.9,109.9L27.2,112L26.2,111.4L24,115.3ZM32.4,111.8L33.4,114.6L31.5,118.9L28.3,115.9L27.9,113.6Z" fill="#2c2c34" stroke="#474751" stroke-width="0.8"/><path d="M136.9,179.1L137.7,179.3L139.9,181.8L141.2,182L141.7,181L143.6,179.3L145.2,181.5L146.7,184.4L148.2,184.6L149.1,185.7L146.6,186L146.1,189.1L145.5,190.5L144.4,191.4L144.5,193.3L143.7,193.5L141.8,191.5L142.9,189.5L142,188.4L140.8,188.7L137.2,191.6L137.1,188.8L135.7,188.2L134.4,187.1L135.3,185.8L133.7,184.4L134.3,183.4L133.1,182.7L132.5,181.6L133.2,181L135.5,182.1L137.2,182.4L137.6,181.9L136.1,179.7ZM136.1,191.7L134,191.2L132.4,189.3L131.9,187.8L132.6,187.7L133.5,188.8L134.8,188.8L134.8,189.4Z" fill="#2c2c34" stroke="#474751" stroke-width="0.8"/><path d="M117.1,172.6L117.5,172.1L120,172.8L124.6,173.5L128.7,175.5L129.3,176.3L131.1,175.6L134,176.5L134.9,178.2L136.9,179.1L136.1,179.7L137.6,181.9L137.2,182.4L135.5,182.1L133.2,181L132.5,181.6L128.2,182.3L125.3,180.3L122,180.5L122.4,178.7L121.7,175.9L119.9,174.3L118.2,173.8Z" fill="#2c2c34" stroke="#474751" stroke-width="0.8"/><path d="M365.4,281.6L363.8,279.2L366.4,279.3L367.5,280.4L366.7,283.1ZM370.8,290.1L371.5,289.2L371.9,287.3L373.6,287.1L373.1,289.2L375.3,286.2L375,289.2L373.9,290.2L373,292.2L372,293.1L370.1,290.9ZM381.3,300L380.7,298.4L379.3,300L375,300L375,300L374.9,299.7L375.8,298.2L373.9,296.8L372.9,298L371.5,297.9L369.2,299.7L368.7,298.7L369.9,296.1L371.9,295.3L373.5,294.1L374.6,295.5L376.9,294.7L377.4,293.3L379.6,293.2L379.4,290.8L381.9,292.3L382.2,293.8L382.4,295L382.4,295L382.7,297L382.9,298.8L382.4,300L381.3,300ZM358.2,292.2L354.1,295.1L355.6,292.9L357.9,291L359.7,288.9L361.3,285.8L361.9,288.3L359.8,290ZM370,264L369.5,265.3L370.5,267.6L369.7,270.3L367.9,271.3L367.4,273.9L368.1,276.4L369.8,276.8L371.1,276.4L374.9,278.2L374.6,279.9L375.7,280.6L375.3,282.1L372.9,280.5L371.8,278.9L371,280L369.1,278.2L366.3,278.6L364.7,277.9L364.9,276.6L365.9,275.8L364.9,275.1L364.5,276.2L363,274.4L362.6,273L362.5,270L363.7,271L364,266L365,263.1L366.9,263.1L368.8,264L369.7,263.1ZM369.1,285.6L368.6,284.1L370.4,285.1L372.4,285.1L372.3,286.4L370.9,287.7L369,288.7L368.9,287.2ZM379.7,283.3L380.6,286.8L378.2,285.9L378.3,287L379,288.9L377.6,289.6L377.4,287.4L376.5,287.2L376,285.4L377.8,285.6L377.8,284.4L375.9,282L378.9,282.1Z" fill="#2c2c34" stroke="#474751" stroke-width="0.8"/><path d="M352.5,300L352.8,299.6L354,299.6L354.4,300L352.5,300Z" fill="#2c2c34" stroke="#474751" stroke-width="0.8"/><path d="M36.8,159.2L39.3,159.6L40.9,158.5L43.6,158.4L44.2,157.7L44.7,157.7L45.3,159.2L42.8,160.4L42.5,162.2L41.5,162.7L41.5,163.9L40.3,163.8L39.2,163.1L38.7,163.8L36.5,163.7L37.2,163.3L36.5,161.4Z" fill="#2c2c34" stroke="#474751" stroke-width="0.8"/><path d="M82.2,23.8L81.7,29.8L86.4,35.2L83.6,41.2L87.2,50L85.1,56.3L87.9,61.6L86.6,66.1L91.2,70.8L90,74.2L87.2,78L80.6,86.1L75,86.6L69.6,88.9L64.6,90.2L62.8,86.8L59.9,84.8L60.6,78.5L59.1,72.6L60.5,68.6L63.3,64.3L70.3,56.6L72.4,55.1L72.1,52L67.8,48.4L66.8,45.5L66.7,33.3L61.9,27.7L57.8,23.5L59.6,21.2L63.1,25.7L67.1,25.3L70.3,27.4L73.3,23.6L74.8,17.2L79.6,14.2L83.5,17.7Z" fill="#2c2c34" stroke="#474751" stroke-width="0.8"/><path d="M63.7,147.4L62.8,148.6L62.2,150.5L61.6,151L58.3,149.6L57.3,149.9L56.5,151L55.1,151.5L54.8,151.2L53.3,152L52.1,152.1L51.8,153L49.2,153.6L48.1,153.1L46.5,151.9L46.2,150.3L46.5,149.7L46.9,148.7L48.3,148.8L49.3,148.3L49.4,147.9L50,147.6L50.2,146.6L50.9,146.4L51.4,145.5L52.3,145.5L52.5,145.8L53.7,145.1L55.3,146.8L57.1,145.8L58.5,146.3L60.8,145.6Z" fill="#2c2c34" stroke="#474751" stroke-width="0.8"/><path d="M40.5,137.8L42,139.3L44.3,139.8L44.1,141.1L45.7,142.1L46.2,140.8L48.3,141.4L48.6,142.9L50.9,143.2L52.3,145.5L51.4,145.5L50.9,146.4L50.2,146.6L50,147.6L49.4,147.9L49.3,148.3L48.3,148.8L46.9,148.7L46.5,149.7L45.1,148.8L43.6,149.1L41.2,147.7L40.2,148L38.4,149.9L36.2,148.4L34.4,146.4L32.9,145.3L32.5,143.3L32,141.8L34.2,140.8L35.4,139.6L37.6,138.6L38.3,137.7L39.1,138.3Z" fill="#2c2c34" stroke="#474751" stroke-width="0.8"/><path d="M106.3,276.1L105.9,274.9L107.3,270.2L107.5,268.1L108.5,267.1L110.8,266.5L112.3,264.7L114.1,268.4L115,271.4L116.6,272.9L120.8,275.9L122.5,277.7L124.2,279.5L125.2,280.6L126.7,281.6L125.8,282.3L124.4,282.1L123.4,281.1L122.1,279.2L120.8,278.2L120,277.1L117.3,275.8L115.2,275.8L114.4,275.1L112.6,275.9L110.8,274.4L109.8,276.8Z" fill="#2c2c34" stroke="#474751" stroke-width="0.8"/><path d="M400,210.1L396.5,210.2L399.7,212.9L397.6,219.1L395.6,220.6L394.1,219.2L394.9,215.9L392.9,214.9L391.7,212.4L394.6,211.2L396.2,208.9L399.3,207L400,206.2L400,210.1Z" fill="#2c2c34" stroke="#474751" stroke-width="0.8"/><path d="M154.1,261.5L156.5,266.8L157.5,269L155.2,269.9L154.6,271.3L154.6,272.4L151.5,273.7L146.6,275.2L143.9,277.5L142.5,277.6L141.6,277.5L139.8,278.8L137.8,279.4L135.3,279.5L134.5,279.7L133.8,280.5L133,280.8L132.5,281.6L131,281.5L130,281.9L127.9,281.8L127.1,279.9L127.2,278.2L126.7,277.3L126.1,274.9L125.2,273.6L125.8,273.5L125.5,272L125.9,271.4L125.8,270L127.1,269L126.8,267.6L127.6,266L128.9,266.9L129.7,266.6L133.2,266.5L133.8,266.8L136.8,267.2L137.9,267L138.7,268.1L140.1,267.5L142.3,264.2L145.2,262.7Z" fill="#2c2c34" stroke="#474751" stroke-width="0.8"/><path d="M101.7,226.5L105.2,227.1L106.5,226L107.2,224.7L109.5,224.2L110.1,223.1L111.1,222.5L108,218.9L114.2,217.1L114.7,216.5L118.4,217.5L123,220L131.7,227.2L137.4,227.4L140.1,227.8L140.9,229.5L143,229.4L144.3,232.4L145.8,233.2L146.3,234.4L148.4,235.8L148.6,237.2L148.3,238.4L148.7,239.5L149.5,240.5L149.9,241.6L150.4,242.4L151.3,243.1L152.2,242.8L152.8,244.1L152.9,244.9L154.1,248.3L163.3,250L163.9,249.3L165.3,251.6L163.3,258.2L154.1,261.5L145.2,262.7L142.3,264.2L140.1,267.5L138.7,268.1L137.9,267L136.8,267.2L133.8,266.8L133.2,266.5L129.7,266.6L128.9,266.9L127.6,266L126.8,267.6L127.1,269L125.8,270L125.3,268.6L124.4,267.7L124.2,266.4L122.6,265.2L121,262.5L120.1,259.9L118,257.6L116.6,257.1L114.6,254L114.2,251.7L114.3,249.7L112.6,246L111.2,244.7L109.5,244L108.5,242.1L108.6,241.3L107.8,239.5L106.9,238.8L105.7,236.2L103.8,233.4L102.3,231.1L100.7,231.1L101.2,229.2L101.3,227.9Z" fill="#2c2c34" stroke="#474751" stroke-width="0.8"/><path d="M94.9,205.5L95.1,205.5L95.6,204.6L97.8,204.7L100.6,203.5L98.5,205.1L98.7,205.8L98.4,205.7L97.8,206L97.3,205.9L97.2,206L97.1,205.7L96.9,205.4L96.3,205.4L95.5,205.7Z" fill="#2c2c34" stroke="#474751" stroke-width="0.8"/><path d="M94.9,205.5L95.5,205.7L96.3,205.4L96.9,205.4L97.1,205.7L97.2,206L97.3,205.9L97.8,206L98.4,205.7L98.7,205.8L98.8,206.1L95.7,207.7L94.2,207.2L93.4,205.7Z" fill="#2c2c34" stroke="#474751" stroke-width="0.8"/><path d="M107.6,251.6L95.4,251.6L83.5,251.6L71.2,251.6L71.2,239.3L71.2,227L70.2,224.1L71,221.9L70.6,220.4L71.7,218.7L75.8,218.6L78.7,219.5L81.8,220.6L83.2,221.2L85.5,220L86.8,219L89.5,218.7L91.7,219.2L92.5,220.9L93.2,219.8L95.7,220.6L98.1,220.8L99.6,219.9L101.3,225.1L101.6,226L100.8,227.4L100.1,230.1L99.3,231.9L98.6,232.5L97.5,231.4L96.1,229.8L94,224.8L93.6,225.1L94.9,228.8L96.8,232.3L99.1,237.7L100.2,239.5L101.2,241.5L104,245.2L103.4,245.8L103.5,248L107.1,250.9Z" fill="#2c2c34" stroke="#474751" stroke-width="0.8"/><path d="M71.2,251.6L71.2,258.2L67.6,258.2L67.6,259.6L55.3,253.3L43.1,246.9L40,248.8L37.8,250L36.1,248.2L31.3,246.7L29.9,244.6L27.5,243.1L26.1,243.7L25,241.8L24.8,240.3L23,237.9L24.2,236.4L24,234.3L24.4,232.4L24.1,230.8L24.7,227.9L24.5,226.3L23.5,223.2L25,222.3L25.3,220.8L25,219.4L27.1,218L28,216.8L29.5,215.8L29.7,213L33.3,214.2L34.6,213.9L37.1,214.5L41.2,216.1L42.7,219.4L45.4,220L49.7,221.5L53,223.3L54.5,222.4L56,220.7L55.3,218L56.2,216.2L58.4,214.5L60.6,214L64.7,214.8L65.7,216.4L66.9,216.4L67.9,217L70.9,217.5L71.7,218.7L70.6,220.4L71,221.9L70.2,224.1L71.2,227L71.2,239.3Z" fill="#2c2c34" stroke="#474751" stroke-width="0.8"/><path d="M99.8,300L99.6,299.9L99,298.6L97.5,297.1L95.6,296.9L96.6,295.1L98.3,295.1L98.7,294.1L98.7,291.3L99.6,288.1L101,287.2L101.3,285.9L102.7,283.5L104.5,282L105.8,278.9L106.3,276.1L109.8,276.8L110.8,274.4L112.6,275.9L114.4,275.1L115.2,275.8L117.3,275.8L120,277.1L120.8,278.2L122.1,279.2L123.4,281.1L124.4,282.1L123.4,283.5L122.3,284.9L122.6,285.8L122.6,286.7L124.3,286.8L125.1,286.6L125.7,287.1L125.1,288.2L126.2,290L127.3,291.5L128.5,292.6L138.6,296.3L141.1,296.2L141.1,296.2L137.6,300L99.8,300Z" fill="#2c2c34" stroke="#474751" stroke-width="0.8"/><path d="M124.4,282.1L125.8,282.3L126.7,281.6L127.4,282.5L127.3,283.9L125.6,284.6L126.9,285.5L125.7,287.1L125.1,286.6L124.3,286.8L122.6,286.7L122.6,285.8L122.3,284.9L123.4,283.5Z" fill="#2c2c34" stroke="#474751" stroke-width="0.8"/><path d="M144.7,285.6L144.7,285.7L144.7,287L144.7,290.1L144.7,291.7L143.3,293.6L141.1,296.2L138.6,296.3L128.5,292.6L127.3,291.5L126.2,290L125.1,288.2L125.7,287.1L126.9,285.5L127.9,286L128.5,287.3L129.9,288.6L131.4,288.7L134.3,287.9L137.6,287.5L140.3,286.5L141.8,286.3L142.9,285.7Z" fill="#2c2c34" stroke="#474751" stroke-width="0.8"/><path d="M51.4,175.9L48.7,174.3L47.5,172.5L46.3,171.6L44.9,170L44.3,168.7L42.8,166.6L43.4,164.8L44.5,165.8L45.2,164.9L46.6,164.8L49.2,165.6L51.4,165.5L52.8,166.5L53.9,166.4L53.1,168.3L54.6,170L54.1,172L53.4,172.2L52.8,172.6L51.8,173.6Z" fill="#2c2c34" stroke="#474751" stroke-width="0.8"/><path d="M63.1,177.2L64.7,178.6L64.9,181.3L64.3,181.4L63.8,182.1L62.1,182L61,182.9L58.9,183.3L57.7,182.3L57.2,180.5L57.6,179.1L58,179.2L58.2,178.3L60,177.7L60.7,177.5L61.7,177.3Z" fill="#2c2c34" stroke="#474751" stroke-width="0.8"/><path d="M52.2,161.9L54.6,160.7L56.5,160.9L58.2,162.6L58.5,164L60.4,165.1L60.6,166.9L62.4,168.1L63.4,167.1L64.1,167.7L63.4,168.4L64,169.2L63.2,170.1L63.5,171.7L65,173.5L63.8,174.8L63.3,176.1L63.6,176.6L63.1,177.2L61.7,177.3L60.7,177.5L60.6,177.2L60.9,176.7L61.3,175.7L60.8,175.7L60.2,175L59.7,174.8L59.3,174.1L58.8,173.8L58.3,173.2L57.8,173.5L57.3,174.9L56.6,175.2L56.9,174.8L55.7,173.9L54.7,173.5L54.2,172.9L53.4,172.2L54.1,172L54.6,170L53.1,168.3L53.9,166.4L52.8,166.5L53.9,164.8L53,163.6Z" fill="#2c2c34" stroke="#474751" stroke-width="0.8"/><path d="M56,176.1L55.2,176.5L55,175.7L53.7,177.7L53.9,179.1L53.2,178.7L52.4,177.4L51.1,176.6L51.4,175.9L51.8,173.6L52.8,172.6L53.4,172.2L54.2,172.9L54.7,173.5L55.7,173.9L56.9,174.8L56.6,175.2Z" fill="#2c2c34" stroke="#474751" stroke-width="0.8"/><path d="M57.6,179.1L57.4,177.7L56.7,177.2L56,176.1L56.6,175.2L57.3,174.9L57.8,173.5L58.3,173.2L58.8,173.8L59.3,174.1L59.7,174.8L60.2,175L60.8,175.7L61.3,175.7L60.9,176.7L60.6,177.2L60.7,177.5L60,177.7L58.2,178.3L58,179.2Z" fill="#2c2c34" stroke="#474751" stroke-width="0.8"/><path d="M74.2,300L73.6,299.4L71.5,297.8L71.5,296.8L69.8,295.5L67.8,294.3L68.7,294L69.7,293.4L70.5,290.6L71.4,289.2L73.6,288.7L74.1,289.6L75.7,291.4L76.5,291.7L77.7,291.2L79.9,291.3L80.3,291.9L83.3,291.9L83.4,291.3L85,290.7L85.3,289.8L86.5,289.1L89.1,290.9L90.7,290.6L92.2,288.4L93.9,286.7L93.6,284.8L92.9,283.9L94.7,283.7L94.9,283L96.4,283.2L96,285.5L96.4,287.8L97.9,289L98.3,290.1L98.3,291.6L98.7,291.7L98.7,294.1L98.3,295.1L96.6,295.1L95.6,296.9L97.5,297.1L99,298.6L99.6,299.9L99.8,300L74.2,300Z" fill="#2c2c34" stroke="#474751" stroke-width="0.8"/><path d="M148.5,166.5L148.4,166.6L148.2,166.6L147.9,166.1L148,165.7L148.1,165.6L148.3,165.5L148.3,165.6L148.1,165.8L148,166.1L148.2,166.4ZM148.9,166L148.8,166L148.7,165.8L148.8,165.5L149,165.5L148.9,165.9ZM156.1,164.1L156.1,164.1L155.9,164L155.8,163.8L155.9,163.6L156.1,163.6L156.2,163.8ZM212.2,177.5L212,177.7L211.7,177.8L211.5,177.9L211.4,178.1L211.2,178.3L211.1,178.4L211,178.4L210.8,178.2L210.6,178.2L210.3,178.4L210,178.8L209.6,179.3L209.2,179.6L208.7,179.8L208.3,179.9L208,180.1L207.5,180.4L207.4,180.6L207,180.8L206.7,180.9L206.4,181.2L206.4,181.6L206.2,181.8L205.8,182.2L205.4,182.5L205.2,182.8L205,183.2L204.9,183.3L204.9,183.6L205,183.8L205,184L204.9,184.2L204.7,184.2L204.4,184.2L204.1,184L203.7,183.8L203.5,183.7L203.3,183.4L203.3,183.2L203.4,182.8L203.5,182.5L203.4,182.4L203.2,182.3L203.2,182.1L203,181.9L202.8,181.9L202.6,182L202.4,181.9L201.7,181.9L201.2,182L200.8,182L200.2,182L199.5,182.1L199.3,182L199.2,181.9L199.1,181.6L199,181.2L198.9,180.6L198.8,180.2L198.7,179.6L198.6,179L198.6,178.6L198,178.6L197.6,178.5L197.1,178.5L197.1,178.2L197.1,177.8L197.1,177.3L197.2,176.6L197.2,176L197.3,175.4L197.3,174.9L197.3,174.4L197,174.6L196.7,174.7L196.4,174.9L196.2,174.5L196,174.1L195.7,173.5L195.5,173.1L195.1,172.8L194.8,172.6L194.5,172.3L194.2,172L194,171.7L193.7,171.4L193.4,171.5L193.1,171.6L192.8,171.8L192.4,172L192.3,172.1L191.9,172L191.5,172L190.9,172L190.4,171.9L189.9,171.9L189.2,171.8L188.5,171.7L188,171.8L187.4,171.9L186.7,172L186.2,172.1L185.5,172.2L185,172.3L184.7,172.3L184.4,172L183.9,171.4L183.6,171L183.3,170.7L182.9,170.2L182.5,169.8L182.2,169.4L182,169.1L181.9,168.7L181.7,168.5L181.3,168.2L180.9,167.9L180.5,167.6L180,167.4L179.6,167.1L179.2,166.8L178.8,166.5L178.3,166.2L177.9,165.9L177.5,165.7L177.1,165.4L176.6,165.1L176.2,164.8L175.8,164.5L175.4,164.2L175,163.9L174.5,163.6L174.2,163.4L173.9,163.5L173.4,163.6L172.9,163.8L172.4,163.9L171.5,164.2L170.9,164.4L170.4,164.5L169.9,164.7L169.3,164.9L168.8,165.1L168.1,165.3L167.6,165.4L167.1,165.6L166.6,165.7L166.3,165.9L166.3,166.9L166.3,167.9L166.3,168.8L166.3,169.8L166.3,170.8L166.3,171.8L166.3,172.8L166.3,173.7L166.3,174.7L166.3,175.6L166.3,176.6L166.3,177.6L166.3,178.5L166.3,179.5L166.3,180.4L166.3,181.3L166.1,181.3L165.8,181.4L165.4,181.5L164.9,181.6L164.8,181.5L164.6,181.4L164.5,181.2L164.2,181L164,180.8L163.8,180.4L163.6,180L163.1,179.3L163.1,179.1L163,178.9L162.8,178.7L162.3,178.2L161.6,177.8L161,177.4L160.9,177.3L160.6,177.2L160.2,177.2L160,177.2L159.2,177.3L158.7,177.5L157.9,177.7L157.3,177.9L157.2,178L156.7,178.3L156.2,178.8L155.6,179.5L155.5,179L155.5,178.4L155.5,178.1L155.6,177.6L155.8,177.2L156,176.8L156,176.3L155.9,175.4L155.7,175.2L155.6,175.1L155.4,175.1L155.1,175.2L154.9,175.2L154.6,174.9L154.3,174.9L154.1,175L153.9,175L153.7,174.9L153.6,174.8L153.5,174.6L153.4,174.4L153.1,174L152.9,173.7L152.6,173.7L152.1,173.7L151.9,173.7L151.9,173.4L151.9,172.9L151.9,172.6L151.9,172.4L151.8,172.1L151.7,172L151.4,171.7L151.2,171.2L150.8,170.3L150.5,169.3L150.3,169.2L150,169L149.4,168.9L148.9,168.8L148.8,168.6L148.7,168.4L148.7,168.2L148.7,167.9L148.8,167.7L149.2,167.5L149.9,167.4L150.6,167.5L151.1,167.9L151.3,168L151.5,168L151.9,167.9L152.1,167.8L152.7,167.9L152.5,167.7L152.3,167.6L152.1,167.6L151.9,167.5L151.7,167.1L151.2,166.7L151.1,166.5L151,166.2L151.1,165.9L151.5,165.7L151.7,165.3L151.9,164.9L152,164.6L152.3,164.3L152.6,164.4L153.2,164.1L154.2,164.2L155.4,164.1L155.7,164.1L156.4,164.4L156.9,164.5L157.4,164.5L157.7,164.4L157.4,164.1L156.6,163.7L156.4,163.4L156.8,162.4L157.3,161.6L157.5,160.6L157.5,159.6L157.3,159.4L157.4,159L157.5,158.8L157.6,158.5L157.5,158.2L157.3,157.7L157.2,157.5L156.9,157.2L156.1,157.2L155.5,157.1L155.3,157.2L155.2,157.4L155.1,157.5L154.6,157.7L154.5,157.8L154.3,157.7L154.1,157.5L153.9,157.5L153.3,157.3L153,156.9L152.9,156.9L151.9,156.6L151.5,156.5L150.7,156.8L150.2,157.2L150,157.3L149.7,157.5L149.5,157.6L149.4,157.5L149.2,157.6L148.9,157.9L148.2,158.4L147.9,158.7L147.6,158.8L147.2,158.9L146.8,159L146.6,159.1L146.2,159.1L145.9,159.2L145.9,159.3L146,159.7L145.7,159.5L145.5,159.8L145.6,160L145.4,159.9L144.7,159.5L144.2,159.2L143.6,159L143.6,158.9L143.4,158.8L143.3,158.6L143.3,158.4L143.4,158.2L143.5,158.1L143.6,158.1L143.8,158.1L143.9,158.2L144.2,158.3L144.5,158.3L144.7,158.2L144.7,158L144.3,157.2L144,156.6L143.6,155.8L143.5,155.6L143,155L142.6,154.3L142.3,153.8L142.1,153.6L141.6,153.6L140.6,153.4L140.2,153.4L139.9,153.5L139.6,153.7L139.3,153.4L139.1,153L139,152.7L139,152.4L139.1,151.9L138.9,151.4L138.7,151.2L138.3,151L137.7,150.6L137.5,149.8L137.8,148.7L138.3,148L138.6,147.7L138.7,147.4L138.8,147.1L138.8,146.9L138.6,146.6L138.3,146.4L138.1,146.1L138.2,145.5L138.4,144.5L138.7,143.8L139.1,143.4L139.5,143.1L139.6,142.8L139.6,142.4L139.6,142.1L139.7,141.8L139.9,141.6L140,141.4L140.3,141.2L140.5,141.1L140.9,141.3L141.3,141.8L142,142.7L142.3,143.3L142.5,143.4L142.8,143.8L143.1,143.9L143.6,143.7L144.1,143.5L144.3,143.3L144.4,143L144.3,142.6L144.2,142.4L144.1,142L143.9,141.4L143.8,140.5L143.7,140.2L143.8,140.1L144,140.2L144.3,140.2L144.6,140L145,139.6L145.8,139L146,138.6L146.1,138.1L146.4,137.9L146.9,137.8L147.4,137.6L147.7,137.3L148.2,137L148.7,136.9L148.9,136.7L149,136.5L149.5,135.8L149.9,135.4L150.2,135L150.4,134.7L150.6,134.7L151,134.9L151.5,135.1L151.8,135.4L151.9,135.6L151.9,135.8L152,136L152.2,136L152.4,135.9L152.9,135.9L153.4,135.6L154.1,135L154.7,134.8L155.1,134.9L155.3,135.4L155.6,135.8L155.8,135.9L155.9,135.9L156,135.9L156.3,135.8L156.3,135.8L156.6,135.9L156.8,136L157.2,136L157.8,135.9L157.9,135.9L158.2,135.9L158.5,136.1L158.8,136.3L159.2,137L159.5,137.2L160.1,137.5L160.3,137.7L160.6,138.1L160.8,138.3L161.1,138.7L161.5,139.3L161.6,139.9L161.6,140.3L161.8,140.5L161.9,140.5L162,140.5L162.1,140.3L162.2,139.9L162.2,139.3L162.1,138.9L161.9,138.7L161.9,138.5L162,138.3L162.2,138.2L162.4,138.3L162.9,138.6L163.3,138.9L163.9,139.5L164.4,139.9L164.9,140.2L165.4,140.3L165.7,140.2L166.1,140L166.5,139.7L166.7,139.4L166.8,139L167.3,138.6L167.8,138.2L168.1,138.3L168.2,138.4L168.8,138.1L168.9,138.1L169.4,138L169.9,138.1L170.4,138.5L170.8,138.8L171.1,138.8L171.4,138.6L171.6,138.4L171.8,138.1L172,137.8L172,137.8L172.6,137.9L173,137.9L173.1,137.9L173.6,138L174.2,138.4L174.5,138.9L175,139.6L175.2,139.8L175.5,139.9L175.7,139.9L176.1,140L176.9,140.1L177.1,140.2L177.2,140.3L177.1,140.7L177.2,140.7L177.9,140.5L178,140.3L178.3,139.8L178.5,139.3L178.6,139.1L178.8,139L179,139.1L179.2,139.4L179.5,139.7L179.9,139.8L180.2,139.9L180.6,139.9L181.5,139.8L182.4,139.4L182.9,139L183.1,138.3L183.3,137.6L183.5,137.2L183.4,136.7L182.9,136.3L182.8,136.1L181.7,135.9L181.7,135.7L181.6,135.6L180.5,135.3L180,135.1L179.9,134.8L179.8,134.5L179.5,134.2L178.8,133.9L178.7,133.7L178.8,133.5L179.3,133.2L179.9,132.7L180.2,132.6L180.7,132.6L181.2,132.2L181.5,131.9L181.7,131.7L181.6,131.4L181.1,130.5L181,130L181.1,129.6L181.4,129.2L181.5,129L181.7,128.6L181.8,128.4L182.3,128.4L182.9,128.3L183.3,128.4L183.9,128.5L184.4,128.5L184.7,128.6L184.9,128.5L185,128.3L185,128L184.8,127.8L184,127.4L183.7,127.1L183.5,127.2L183,127.1L182.6,126.9L182.3,126.8L182.2,126.6L182.3,126.2L182.4,126L182.6,125.9L182.9,126L183.2,125.8L183.3,125.7L183.3,125.6L183.3,125.5L183.1,125.3L182.9,125.3L182.7,125.4L182.4,125.5L182,125.3L181.6,125.1L181.6,124.9L181.9,124.6L182,124.4L182,124.1L182,123.8L182.1,123.3L182.4,123L182.7,122.9L183.5,123.2L184.5,123.4L184.7,123.4L184.8,123.2L184.9,123.1L186.3,123.1L186.6,122.9L186.7,122.8L188.1,122.6L188.2,122.4L188.4,122.3L188.7,122.3L189.1,122.2L189.6,122L190,121.9L190,121.9L190.4,121.9L190.9,121.7L191,121.7L191.1,121.6L191.5,121.3L192.3,121.1L192.5,121.2L192.9,121.3L193.4,121.2L193.7,121.1L194,121.2L194.2,121.4L194.5,121.2L194.6,120.8L194.7,120.4L194.9,120.2L195.1,120.2L195.3,120L195.4,119.9L196.1,119.9L196.8,119.5L196.9,119.7L197.7,119.6L198.7,119.4L199.3,119.3L200.4,119L200.9,118.8L201.6,118.6L202.2,118.5L202.7,118.2L203,118.1L203.4,118.1L203.6,118L203.8,117.8L203.9,117.6L203.9,117.2L203.8,117L204.1,116.9L204.5,116.8L204.8,116.8L205.4,116.2L205.8,115.9L206.2,115.8L207,115.9L207.8,115.9L208.5,116.2L208.9,116.5L209.3,116.8L209.6,116.9L209.9,117L210.2,116.9L210.5,116.7L210.6,116.5L210.8,116.3L211.6,116.2L211.7,116.5L212.1,117.2L212.4,118.1L212.8,119.4L213,120L212.9,120.3L212.9,120.8L212.9,121.2L212.5,121.8L212.7,122L213.4,122.3L214.5,122.2L215.1,122L215.5,122.1L215.7,121.9L215.8,121.5L216,121.4L216.3,121.7L216.5,122.2L216.6,122.5L216.6,122.9L216.7,123.3L216.8,123.4L217.1,123.3L217.3,123.2L217.3,123L217.2,122.9L217.2,122.7L217.2,122.5L217.4,122.4L217.7,122.5L218.3,122.6L218.9,123.2L219.2,123.4L219.4,123.4L219.7,123.3L220.1,123.1L220.3,122.9L220.4,122.8L220.6,122.8L220.7,122.9L220.7,123.2L220.6,123.5L220.2,123.8L219.8,124.1L219.5,124.7L219.4,125.2L219.5,125.5L219.6,125.7L219.7,126L219.8,126L220,125.9L220.5,125.4L220.8,125.2L221.2,125.1L221.8,125.2L222.2,125.3L222.4,125.6L222.7,125.8L222.8,125.7L222.9,125.5L222.9,125.2L223,125L223.7,124.4L224.2,124.1L224.3,124L224.6,124.1L224.8,124L225.3,123.7L225.8,123.3L225.9,123L225.9,122.8L226,122.7L226.7,122.6L226.8,122.5L227.4,122.3L228.2,121.8L228.5,121.5L229.3,121.4L229.4,121.3L229.6,121.1L230.1,120.9L230.3,120.8L230.2,121.5L229.9,122.2L229.7,122.4L229,122.4L229,122.6L229.1,122.9L229.2,123L229.3,123.2L229.5,123.4L230.3,124.1L231.2,124.9L232.3,125.7L233,126.4L233.3,126.7L233.4,126.9L234,127.8L234.5,128.7L235.3,130.1L236.1,131.6L236.9,133.1L237.4,134L238.4,135.9L238.6,136.4L239.1,137.5L239.6,138.5L240,139.4L240.2,139.5L240.2,139.2L240.3,139.1L240.4,139L240.7,138.7L240.8,138.6L241.1,138.7L241.3,138.5L241.4,138.3L241.3,137.8L241.3,137.6L241.4,137.4L241.5,137.3L241.7,137.2L241.9,137.2L242,136.9L242.3,136.8L242.5,136.9L242.7,136.9L242.9,137.1L243,137.4L243.2,137.4L243.5,137.3L243.5,137.6L243.4,137.9L243.3,138.2L243.3,138.4L243.5,138.5L244.1,138.4L244.3,138.5L244.3,138.7L244.4,138.9L244.5,139.1L244.4,139.4L244.5,139.5L245,139.6L245.4,139.4L246,139.4L246.5,139.7L246.8,139.6L247.2,139.5L247.7,139.6L248,139.4L248.3,139.1L248.4,138.9L248.5,138.8L249,138.8L249.3,138.8L249.5,138.5L249.7,138.3L250.1,138.3L250.3,138.3L251,138.6L251.4,138.8L251.9,139.2L252.1,139.4L252.3,139.9L252.6,140.2L252.8,140.6L252.9,141L253.1,141.7L253.3,142L253.5,142L253.8,142.1L254.2,142.1L254.9,142.7L255.1,142.7L255.3,142.8L255.4,143.1L255.3,143.3L255.4,143.6L255.6,144L255.8,144.3L256,144.7L256.1,144.9L256.3,145L256.5,144.9L256.9,145L258.1,145.2L258.2,145.2L258.4,145.5L258.5,145.5L258.7,145.5L259,145.5L259.2,145.3L259.3,145.1L259.7,144.8L260,144.5L260.3,144.2L260.5,144.2L260.7,144.3L260.7,144.6L260.5,144.7L260.3,145L260.4,145.2L260.6,145.2L260.9,145.5L261.4,146.3L261.5,146.5L261.7,146.6L262,146.7L262.2,146.8L262.4,147.1L262.5,147.4L262.2,147.3L261.6,147.3L261.3,147.4L261.2,147.4L260.9,147.6L260.7,147.8L260.7,148.1L260.8,148.5L260.6,149.2L260.5,149.5L260.1,150L259.9,150.1L259.6,150.2L259.3,150.4L258.6,150.5L257.9,150.6L257.7,150.7L257.5,151L257.4,151.3L257.3,151.5L257.1,152.2L257,152.9L257.1,153.6L257.2,154.5L257.2,154.8L257.3,155.2L257.4,155.5L257.4,155.9L257.1,156.2L257,156.6L256.9,156.7L256.5,156.8L256.1,156.9L255.7,157.2L255.4,157.4L254.9,157.7L254.7,157.8L254.6,157.6L254.5,157.3L254.3,157.1L254.1,157.1L253.9,157.1L253.3,157L253,157L252.7,157.1L252.3,157.1L251.8,157L251.4,156.9L251.2,156.8L250.6,156.5L249.8,156.2L249.5,156.1L249.3,156.2L249.3,156.4L249.2,156.9L249.1,157.2L248.6,158.7L248.3,159.8L247.9,160.8L247.7,161.4L247.5,162.3L247.2,162.9L247.1,163.3L247.1,163.4L247.2,163.6L247.5,163.8L247.9,163.9L248,164L248.1,164.2L248.1,164.6L248,164.9L247.9,165.2L247.8,165.3L247.6,165.3L247.4,165.1L247.1,165L247,164.9L246.5,165L246.1,165.2L246,165.2L245.7,165.1L245.5,164.9L245.4,164.5L245.2,164.3L244.9,164.5L244.1,164.8L243.2,165.1L242.6,165.3L242.4,165.3L242,165.3L241.6,165.4L241.3,165.5L240.7,165.7L240.2,165.8L239.9,166.1L239.6,166.4L239.6,166.5L239.8,166.6L240,166.7L240.4,166.7L240.8,166.7L241.1,166.8L241.4,167L241.5,167.1L241.4,167.2L241.2,167.3L241.2,167.3L241.2,167.5L241.1,167.8L241,168.3L241.1,168.8L241.1,169.2L241.1,169.4L241.1,169.7L241.2,170L241.3,170.4L241.5,170.6L241.8,171.5L242,172L242.2,172.6L242.1,172.9L242.1,173.1L242.3,173.2L242.3,173.5L242.4,173.7L242.4,173.9L242.3,174L241.9,173.9L241.6,174L241.2,174.2L241.2,174.3L241.2,174.4L241.2,174.5L241.4,174.7L241.7,174.8L241.7,174.9L241.3,175L240.8,175.2L240.6,175.5L240.5,175.8L240.5,176L240.6,176.4L240.7,176.9L240.8,177.4L240.8,177.6L240.7,177.7L240.7,177.8L240.2,177.3L239.8,176.8L239.4,176.7L238.8,176.7L238.5,176.7L238.3,176.5L238.1,176.3L237.9,176L237.6,175.8L237.5,175.4L237.3,175.3L237.1,175.4L236.8,175.4L236.6,175.3L236.3,175.3L235.8,175.1L235.5,175L235,174.9L234.8,175L233.9,175L233.3,174.8L232.7,174.8L232.4,174.8L232.2,174.8L231.9,174.8L231.5,174.8L231,174.5L230.8,174.5L230.6,174.5L229.7,174.7L229.3,174.7L228.4,174.7L227.5,174.7L227.2,174.7L227.1,174.7L226.8,175.1L226.6,175.2L225.8,175.1L224.8,174.8L224.1,174.5L223.5,174.2L222.7,173.6L222.2,173.4L222.2,173.5L222,173.6L221.9,173.6L221.4,173.6L221.2,173.8L220.7,174L220.4,174.2L220.2,174.4L219.9,175.6L219.8,176.1L220,176.9L219.8,176.8L219.5,176.6L219.4,176.5L219.1,176.4L218.1,176.2L217.9,176L217.8,175.9L217.5,175.8L217.1,175.7L216.3,175.4L215.9,175.4L214.9,175.1L214.7,175.1L214.6,175.1L214.2,175.3L214,175.4L213.7,175.3L213.2,175.5L212.9,175.8L212.7,176.1L212.5,176.3L212.4,176.6L212.2,176.8L212.1,177.1L212.1,177.3Z" fill="#b8e653" stroke="#0c0e06" stroke-width="1"/></svg>
