<svg xmlns="http://www.w3.org/2000/svg" viewBox="0 0 300 300"><path fill="#e8e8ea" d="M175.4,207.3L174.9,207.6L174.3,207.7L173.9,207.9L173.6,208.5L173.3,208.9L173.1,209.1L172.8,209.1L172.5,208.7L172,208.7L171.5,209.2L170.8,209.9L170,210.9L169.1,211.5L168,212L167.2,212.2L166.6,212.6L165.5,213.3L165.3,213.7L164.6,214L164,214.3L163.4,214.8L163.3,215.7L162.9,216.2L162,216.9L161.3,217.6L160.8,218.2L160.3,219L160.2,219.4L160.2,219.9L160.4,220.4L160.4,220.8L160.3,221.1L159.8,221.2L159.2,221.1L158.5,220.8L157.6,220.3L157.3,220L156.9,219.5L157,219.1L157.2,218.3L157.3,217.7L157,217.4L156.7,217.1L156.6,216.8L156.2,216.3L155.7,216.4L155.4,216.5L154.9,216.3L153.6,216.4L152.6,216.5L151.7,216.5L150.5,216.6L149,216.7L148.6,216.6L148.4,216.4L148.1,215.6L148,215L147.7,213.7L147.5,212.8L147.3,211.6L147.1,210.3L147,209.4L145.9,209.4L145.1,209.4L143.9,209.4L143.9,208.6L143.9,207.7L143.9,206.7L144.1,205.3L144.2,204.2L144.3,202.8L144.4,201.8L144.5,200.8L143.9,201.1L143.2,201.5L142.6,201.8L142.1,201L141.7,200.2L141.1,198.9L140.6,198L139.8,197.5L139.2,197.1L138.5,196.4L138,195.7L137.5,195L136.9,194.5L136.3,194.6L135.6,195L134.9,195.3L134.2,195.7L133.9,195.9L133.1,195.8L132.4,195.8L131.1,195.7L130.1,195.6L129,195.5L127.5,195.4L126,195.2L125,195.4L123.7,195.6L122.3,195.8L121.2,196L119.8,196.3L118.8,196.4L118.2,196.4L117.6,195.7L116.5,194.5L115.9,193.7L115.3,193L114.4,192L113.6,191.2L112.9,190.4L112.5,189.7L112.3,188.8L112,188.4L111.1,187.9L110.3,187.3L109.4,186.7L108.5,186.1L107.6,185.5L106.7,184.9L105.8,184.3L105,183.7L104.1,183.2L103.2,182.6L102.3,182L101.4,181.4L100.6,180.8L99.7,180.2L98.8,179.6L97.9,179L97,178.4L96.3,177.9L95.6,178L94.6,178.3L93.5,178.7L92.5,179L90.6,179.5L89.4,179.9L88.5,180.2L87.4,180.6L86.1,181L85,181.3L83.7,181.8L82.6,182.1L81.6,182.4L80.6,182.8L79.8,183L79.8,185.1L79.8,187.1L79.8,189.2L79.8,191.3L79.8,193.3L79.8,195.3L79.8,197.3L79.8,199.3L79.8,201.4L79.8,203.4L79.8,205.3L79.8,207.3L79.8,209.3L79.8,211.3L79.8,213.2L79.8,215.2L79.6,215.2L78.9,215.3L77.9,215.6L77.1,215.7L76.7,215.6L76.4,215.4L76.1,215L75.6,214.5L75.2,214L74.6,213.2L74.2,212.5L73.3,211L73.1,210.6L73,210.1L72.7,209.7L71.5,208.7L70.2,207.8L68.9,207L68.6,206.8L68,206.5L67.2,206.5L66.7,206.6L65.2,206.8L64,207.2L62.4,207.6L61.2,208.1L60.9,208.3L60,208.9L58.9,209.9L57.6,211.3L57.4,210.4L57.4,209L57.4,208.5L57.7,207.3L58.1,206.5L58.4,205.7L58.5,204.6L58.3,202.8L58,202.4L57.6,202.3L57.2,202.3L56.5,202.3L56.2,202.5L55.6,201.9L54.9,201.8L54.6,201.9L54.2,202L53.8,201.9L53.4,201.5L53.2,201.1L53.1,200.7L52.5,199.8L52,199.4L51.3,199.2L50.3,199.3L49.9,199.2L49.9,198.7L50,197.6L50,197L50,196.5L49.8,196.1L49.6,195.7L48.9,195L48.5,194.1L47.7,192.3L47,190.2L46.7,189.9L46,189.6L44.7,189.3L43.8,189L43.4,188.8L43.3,188.3L43.3,187.8L43.4,187.2L43.6,186.7L44.3,186.4L45.8,186.3L47.1,186.3L48.4,187.2L48.8,187.4L49.2,187.5L50,187.2L50.5,187.1L51.5,187.2L51.2,186.8L50.8,186.6L50.4,186.6L50,186.4L49.4,185.6L48.4,184.7L48.2,184.3L48.1,183.7L48.3,183.2L49,182.6L49.6,181.9L49.9,180.9L50.2,180.4L50.7,179.7L51.5,179.9L52.7,179.4L54.7,179.5L57.1,179.3L57.8,179.4L59.4,179.9L60.3,180.1L61.3,180.2L62.1,180L61.4,179.3L59.8,178.5L59.4,177.8L60.1,175.9L61.1,174.2L61.7,172.1L61.5,170L61.2,169.5L61.3,168.8L61.7,168.2L61.9,167.7L61.7,167L61.3,165.9L61,165.6L60.3,165L58.8,165L57.5,164.7L57.1,164.9L56.9,165.3L56.6,165.6L55.6,166.1L55.3,166.2L55,166.1L54.5,165.5L54.1,165.6L52.8,165.2L52.2,164.4L52,164.3L49.9,163.7L49.2,163.6L47.5,164.2L46.3,165L46,165.2L45.4,165.7L45,165.8L44.7,165.7L44.3,165.7L43.6,166.5L42.3,167.4L41.7,168L40.9,168.4L40.1,168.6L39.3,168.6L39,168.8L38.1,168.9L37.5,169.1L37.5,169.4L37.6,170.1L37.1,169.8L36.6,170.3L36.8,170.8L36.5,170.7L35,169.8L33.8,169.2L32.8,168.6L32.6,168.5L32.3,168.3L32.1,167.8L32.1,167.4L32.2,167.1L32.5,166.9L32.8,166.8L33,166.8L33.3,167L33.8,167.3L34.5,167.3L35,167.2L35,166.7L34.2,165L33.4,163.6L32.7,162.1L32.4,161.6L31.5,160.3L30.6,159L30,157.9L29.6,157.6L28.5,157.4L26.3,157.1L25.6,157L25,157.3L24.4,157.6L23.8,157.1L23.3,156.3L23.1,155.6L23.2,154.9L23.3,153.9L22.9,152.9L22.5,152.4L21.6,152L20.3,151.2L20,149.6L20.6,147.4L21.6,145.8L22.3,145.1L22.6,144.5L22.7,144L22.6,143.5L22.2,143L21.6,142.5L21.2,141.9L21.4,140.6L21.8,138.7L22.5,137.1L23.3,136.3L24.1,135.7L24.4,135.1L24.4,134.3L24.4,133.5L24.6,132.9L24.9,132.5L25.2,132.1L25.7,131.7L26.3,131.5L27,131.9L27.9,132.9L29.3,134.7L30,136L30.3,136.3L31,137.1L31.7,137.4L32.7,136.9L33.7,136.4L34.1,136L34.3,135.5L34.1,134.7L33.9,134.1L33.7,133.4L33.4,132.1L33.1,130.2L32.9,129.5L33.1,129.5L33.6,129.6L34,129.6L34.7,129.2L35.7,128.4L37.3,127.1L37.7,126.3L38,125.4L38.5,124.8L39.5,124.6L40.5,124.3L41.2,123.6L42.3,123L43.2,122.7L43.6,122.3L43.9,121.9L45,120.5L45.8,119.6L46.5,118.7L46.7,118.2L47.3,118.3L48.2,118.7L49.1,119L49.8,119.6L49.9,120.1L50,120.6L50.3,120.8L50.6,120.8L51.1,120.7L51.9,120.7L53,120L54.5,118.7L55.8,118.4L56.6,118.7L57.1,119.6L57.6,120.4L58.1,120.7L58.4,120.7L58.5,120.7L59.1,120.6L59.1,120.6L59.7,120.6L60.2,120.9L61.1,120.9L62.3,120.7L62.4,120.6L63,120.7L63.7,121.1L64.2,121.5L65.2,123.1L65.8,123.4L66.9,124L67.5,124.5L68.1,125.2L68.4,125.7L69.1,126.5L69.9,127.8L70,128.9L70.2,129.8L70.5,130.3L70.8,130.3L71,130.2L71.3,129.8L71.4,129.1L71.3,127.8L71.1,126.8L70.8,126.5L70.7,126.2L70.9,125.7L71.3,125.5L71.8,125.7L72.7,126.2L73.7,127L74.8,128.2L75.9,129L77.1,129.6L78,129.8L78.7,129.6L79.5,129.1L80.3,128.5L80.6,127.9L80.9,127.2L82,126.3L83.1,125.4L83.6,125.6L83.9,125.8L85,125.3L85.4,125.2L86.4,125L87.5,125.3L88.3,126.2L89.2,126.8L89.9,126.7L90.5,126.4L90.9,125.8L91.2,125.2L91.7,124.7L91.7,124.7L93,124.9L93.9,124.9L94,124.8L95,125L96.3,125.9L97,127L98,128.3L98.4,128.7L99,128.9L99.5,129L100.2,129.2L102,129.5L102.3,129.6L102.5,129.8L102.3,130.6L102.5,130.7L103.9,130.2L104.3,129.8L104.8,128.8L105.2,127.7L105.5,127.3L105.9,127.1L106.2,127.3L106.7,128L107.4,128.6L108.2,128.9L108.8,129L109.6,129L111.5,128.7L113.4,127.9L114.4,127L114.9,125.7L115.2,124.2L115.6,123.3L115.4,122.3L114.5,121.4L114.2,121.1L112,120.6L111.9,120.2L111.7,120.1L109.5,119.3L108.5,119L108.2,118.4L108,117.7L107.3,117.1L106,116.5L105.7,116.1L105.9,115.6L107,115.1L108.2,114.1L108.7,113.8L109.8,113.8L110.8,112.9L111.5,112.4L111.9,111.9L111.8,111.3L110.8,109.4L110.5,108.3L110.6,107.6L111.2,106.8L111.5,106.4L112,105.6L112.2,105.2L113.2,105L114.5,104.9L115.3,105.1L116.5,105.2L117.6,105.3L118.1,105.5L118.5,105.2L118.8,104.8L118.8,104.3L118.4,103.7L116.8,103L116.1,102.4L115.6,102.5L114.7,102.3L113.9,101.9L113.2,101.8L112.9,101.3L113.1,100.5L113.4,100.1L113.9,99.9L114.5,100L115.1,99.7L115.3,99.5L115.3,99.3L115.2,99L114.9,98.7L114.5,98.6L114,98.8L113.5,99L112.5,98.7L111.8,98.2L111.8,97.9L112.4,97.3L112.6,96.8L112.6,96.2L112.6,95.4L112.8,94.5L113.4,93.9L114,93.6L115.7,94.2L117.8,94.7L118.2,94.6L118.3,94.4L118.6,94.1L121.5,94L122,93.7L122.3,93.4L125.1,93L125.5,92.6L125.9,92.3L126.6,92.3L127.3,92.1L128.4,91.7L129.1,91.5L129.3,91.5L130.1,91.6L131.1,91.2L131.3,91.1L131.5,90.8L132.3,90.3L134,89.9L134.4,90.2L135.2,90.3L136.2,90.1L137,89.8L137.4,90.1L138,90.4L138.5,90.2L138.7,89.3L139,88.5L139.5,88.1L139.9,88L140.2,87.7L140.5,87.3L142,87.4L143.3,86.5L143.5,86.9L145.2,86.8L147.4,86.3L148.6,86L150.9,85.5L151.9,85L153.3,84.8L154.6,84.6L155.5,83.8L156.2,83.7L157.1,83.6L157.6,83.4L157.9,83.1L158.2,82.6L158,81.9L157.9,81.4L158.5,81.1L159.4,81L160,80.8L161.1,79.7L162,79.1L162.9,78.8L164.6,79L166.1,79.2L167.7,79.7L168.6,80.4L169.3,80.9L169.9,81.2L170.5,81.3L171.2,81.1L171.7,80.8L172,80.3L172.5,80L174.1,79.7L174.4,80.2L175.2,81.7L175.7,83.7L176.6,86.3L176.9,87.6L176.8,88.2L176.8,89.2L176.7,90.2L176.1,91.3L176.3,91.8L177.9,92.4L180.1,92.2L181.4,91.7L182.2,91.9L182.6,91.6L182.8,90.8L183.3,90.6L183.9,91.2L184.3,92.2L184.6,92.8L184.6,93.6L184.7,94.5L185,94.8L185.5,94.4L185.9,94.2L186,93.9L185.8,93.5L185.7,93.2L185.9,92.8L186.1,92.7L186.9,92.8L188,93L189.3,94.4L190,94.6L190.3,94.6L191,94.5L191.8,94.2L192.3,93.7L192.5,93.4L192.8,93.5L193.1,93.7L193.1,94.2L192.9,94.9L192.1,95.6L191.1,96.2L190.5,97.3L190.3,98.5L190.6,99.1L190.9,99.5L190.9,100L191.1,100.1L191.5,99.9L192.6,98.7L193.2,98.4L194,98.2L195.4,98.3L196.3,98.7L196.7,99.2L197.2,99.7L197.5,99.5L197.7,99L197.7,98.4L197.8,98L199.3,96.8L200.3,96L200.6,95.9L201.2,96.1L201.6,96L202.7,95.3L203.7,94.5L203.8,93.9L203.8,93.4L204.1,93.2L205.5,93L205.7,92.9L206.9,92.3L208.6,91.3L209.4,90.7L210.9,90.5L211.1,90.3L211.6,89.9L212.5,89.4L213,89.3L212.7,90.6L212.2,92.1L211.9,92.6L210.4,92.5L210.4,92.9L210.6,93.5L210.8,93.9L211,94.2L211.4,94.8L212.9,96.1L214.9,97.7L217.1,99.6L218.6,100.8L219.2,101.5L219.6,102L220.7,103.9L221.7,105.6L223.5,108.7L225.1,111.7L226.8,114.9L227.8,116.7L229.8,120.6L230.4,121.8L231.4,124L232.3,126.1L233.1,127.9L233.7,128.1L233.7,127.6L233.8,127.3L234,127.1L234.6,126.5L235,126.4L235.4,126.4L235.9,126.2L236.1,125.7L236,124.7L235.9,124.2L236.1,123.8L236.4,123.6L236.7,123.4L237.1,123.3L237.4,122.8L237.9,122.6L238.4,122.7L238.8,122.8L239.2,123.2L239.4,123.7L239.8,123.7L240.4,123.7L240.5,124.1L240.3,124.9L240.1,125.5L240.1,125.9L240.4,126.2L241.7,126L242.1,126.1L242.2,126.5L242.4,126.9L242.5,127.4L242.4,127.9L242.6,128.3L243.7,128.3L244.4,128L245.6,128L246.6,128.5L247.4,128.5L248.1,128.2L249.1,128.4L249.9,127.9L250.4,127.4L250.6,127L250.9,126.7L251.9,126.7L252.5,126.7L253,126L253.4,125.7L254.1,125.7L254.7,125.7L256.1,126.3L257,126.8L257.9,127.5L258.4,127.9L258.8,128.9L259.4,129.6L259.9,130.5L260,131.3L260.4,132.8L260.8,133.3L261.3,133.3L262,133.5L262.6,133.6L264.1,134.8L264.7,134.8L265.1,135.1L265.1,135.6L265,136.2L265.2,136.7L265.7,137.4L266,138.1L266.5,139L266.6,139.5L267,139.6L267.5,139.4L268.3,139.6L270.8,140L271.1,140.1L271.4,140.6L271.7,140.6L272.1,140.5L272.7,140.6L273.1,140.2L273.4,139.7L274.2,139.2L274.9,138.6L275.4,138L275.9,137.9L276.2,138.1L276.2,138.7L275.8,139.1L275.5,139.5L275.5,140L276.1,140L276.7,140.7L277.6,142.4L277.9,142.7L278.4,143L278.9,143.1L279.4,143.4L279.8,144.1L280,144.7L279.4,144.5L278.2,144.4L277.5,144.5L277.2,144.6L276.7,145L276.3,145.4L276.2,146.1L276.4,146.9L276.1,148.4L275.8,149L275.1,150.1L274.6,150.3L273.9,150.5L273.2,150.8L271.9,151.1L270.5,151.2L270,151.4L269.6,152.1L269.3,152.7L269.1,153.2L268.8,154.6L268.5,155.9L268.7,157.6L268.9,159.3L268.9,159.9L269.3,160.9L269.4,161.4L269.4,162.2L268.9,162.8L268.6,163.6L268.3,164L267.4,164.2L266.6,164.3L265.9,164.9L265.2,165.4L264.3,166.1L263.8,166.2L263.5,165.9L263.4,165.2L263,164.9L262.6,164.8L262.2,164.8L260.9,164.6L260.1,164.6L259.6,164.8L258.9,164.9L257.7,164.6L256.9,164.4L256.4,164.2L255.2,163.6L253.6,162.8L253,162.6L252.6,162.8L252.5,163.3L252.4,164.3L252.2,164.9L251.1,168.1L250.4,170.3L249.5,172.4L249.3,173.8L248.7,175.6L248.2,176.9L248,177.6L248,177.9L248.1,178.3L248.9,178.7L249.7,179L249.9,179.1L250,179.6L250,180.3L249.8,181L249.6,181.6L249.3,181.8L249.1,181.9L248.5,181.5L248.1,181.1L247.7,181L246.8,181.2L245.9,181.5L245.7,181.5L245.1,181.3L244.7,180.9L244.5,180.2L244,179.8L243.5,180.2L241.7,180.7L239.9,181.4L238.7,181.8L238.2,181.8L237.3,181.8L236.5,182L235.9,182.3L234.7,182.7L233.6,182.9L232.9,183.5L232.4,184L232.4,184.2L232.8,184.5L233.2,184.8L234,184.7L234.9,184.7L235.5,185L236.1,185.3L236.3,185.5L236.1,185.8L235.8,185.9L235.7,186.1L235.7,186.3L235.5,187L235.4,188L235.5,189L235.6,189.9L235.5,190.4L235.5,191.1L235.7,191.5L236,192.4L236.4,192.9L237,194.7L237.4,195.8L237.7,197L237.5,197.6L237.5,198L237.9,198.3L238.1,198.9L238.3,199.3L238.2,199.7L238,199.8L237.2,199.6L236.5,200L235.7,200.4L235.6,200.6L235.6,200.8L235.7,201L236.1,201.3L236.7,201.5L236.7,201.8L235.9,202L234.8,202.5L234.5,203L234.3,203.6L234.3,204L234.4,204.9L234.6,206L234.9,207L234.9,207.4L234.7,207.6L234.6,207.8L233.7,206.8L232.7,205.8L232,205.6L230.7,205.5L230,205.4L229.6,205.2L229.2,204.7L228.7,204.2L228.1,203.6L227.9,202.8L227.7,202.7L227.2,202.8L226.5,202.8L226.1,202.7L225.5,202.5L224.6,202.2L223.8,201.9L222.9,201.9L222.3,201.9L220.6,202L219.2,201.6L218,201.6L217.3,201.6L217,201.6L216.4,201.6L215.6,201.5L214.4,201L214,201L213.7,201L211.8,201.4L210.9,201.4L209.1,201.4L207.3,201.4L206.7,201.3L206.3,201.3L205.7,202.2L205.4,202.4L203.6,202.2L201.6,201.6L200.1,200.9L198.9,200.2L197.2,199.2L196.3,198.6L196.1,198.9L195.8,199L195.5,199.1L194.6,199L194.2,199.6L193.1,200L192.4,200.3L192.1,200.7L191.4,203.3L191.2,204.3L191.7,205.9L191.1,205.8L190.6,205.4L190.3,205L189.7,204.8L187.6,204.6L187.2,204.2L186.9,203.9L186.4,203.7L185.6,203.5L183.9,202.8L183.2,202.8L181,202.3L180.6,202.3L180.5,202.3L179.6,202.7L179,202.8L178.5,202.6L177.4,203L176.8,203.6L176.4,204.3L175.9,204.8L175.8,205.4L175.4,205.8L175.1,206.5L175.1,206.9Z"/></svg>
