<svg xmlns="http://www.w3.org/2000/svg" viewBox="0 0 400 300"><path d="M182,237.1L178.7,220L187.6,208.2L205.5,205.4L218.5,207.5L229.9,213.1L236.2,203.2L248.4,208.5L251.6,218L249.9,235L226.6,245.9L232.7,254.4L218.2,255.5L206.2,261.1L194.6,259.1L189,251.7Z" fill="#2c2c34" stroke="#474751" stroke-width="0.8"/><path d="M134.8,300L132.3,297.3L125.6,290.6L123.3,298.8L120.7,291.1L122.2,282.3L126.2,268.9L133,254.5L140.5,241.3L135.2,228.4L135.4,221.8L133.8,213.8L124.6,202.5L121.3,195.3L126,192.7L131.1,180.2L125.5,170.7L116.6,160.1L110,147.3L115.8,144.7L122.1,128.8L131.9,128.2L139.9,121.8L147.9,118.4L153.8,122.9L154.6,131.8L164,132.4L160.6,147.9L160.9,160.9L175.5,152.2L179.6,154.8L187.7,154.4L190.5,149.3L201,150.3L211.5,162.1L212.4,176.4L223.6,188.9L223,201L218.5,207.5L218.5,207.5L205.5,205.4L187.6,208.2L178.7,220L182,237.1L169.6,230.6L157.8,230.9L159.8,219.7L147.6,219.8L146.5,235.4L139,256.1L134.6,268.5L135.5,278.6L144.5,279.1L150.2,291.8L151.8,300L134.8,300Z" fill="#2c2c34" stroke="#474751" stroke-width="0.8"/><path d="M118.4,0L122,7.2L128,11L128.4,22.9L127.9,35.6L114.8,48.4L113.2,66.4L127.7,63.9L131,77.8L139.8,80.7L135.8,93.1L146,98.7L152,101.5L162.2,97.1L162.6,103.3L150.8,112.9L147.9,118.4L147.9,118.4L139.9,121.8L131.9,128.2L122.1,128.8L115.8,144.7L110,147.3L116.6,160.1L125.5,170.7L131.1,180.2L126,192.7L121.3,195.3L124.6,202.5L133.8,213.8L135.4,221.8L135.2,228.4L140.5,241.3L133,254.5L126.2,268.9L124.9,258.5L129.2,247.7L124.5,239.3L125.7,223.9L120,216.5L115.5,199.4L113.1,181.3L107,169.3L97.9,176.6L82.2,186.8L74.5,185.6L65.9,182.2L70.7,164.3L67.8,150.7L56.9,133.8L58.6,128.6L50.5,126.7L40.7,114.7L39.8,102.7L44.6,105L44.9,94.3L51.7,90.8L50.3,84.4L53.4,79.3L53.9,63.7L64.7,67.1L70.9,54.6L71.6,47.2L79.2,34.3L78.8,25.5L96.7,14.8L106.6,17.6L105.5,8L110.3,5.1L109.5,0L118.4,0Z" fill="#2c2c34" stroke="#474751" stroke-width="0.8"/><path d="M206.2,261.1L218.2,255.5L232.7,254.4L226.6,245.9L249.9,235L251.6,218L248.4,208.5L250.9,194.2L247.4,184.1L237,174L228.2,161.3L216.7,144.1L200.1,135.3L204.1,130.1L213,126.2L207.6,113.4L190.6,113.2L184.4,99.7L176.3,88L183.7,84.3L194.7,84.4L208.2,82.6L220,74.6L226.6,80.3L239.3,83L237.1,91.6L243.7,97.7L257.6,101.6L239.1,114.3L227.6,128.2L224.6,138.4L235.2,153.7L248.1,172.7L260.7,181.6L269.1,193.1L275.4,219.6L273.6,244.5L262,253.8L246.2,262.8L234.9,274.5L217.6,287.6L212.6,278.6L216.5,269.1Z" fill="#2c2c34" stroke="#474751" stroke-width="0.8"/><path d="M109.5,0L110.3,5.1L105.5,8L106.6,17.6L96.7,14.8L78.8,25.5L79.2,34.3L71.6,47.2L70.9,54.6L64.7,67.1L53.9,63.7L53.4,79.3L50.3,84.4L51.7,90.8L44.9,94.3L37.6,70.5L33.8,70.5L31.5,80.2L24,72.4L28.2,63.8L34.4,62.9L40.8,50L32.8,47.4L20,47.6L6.8,45.5L5.6,34.9L0,34.2L0,21.2L0,21.2L4.4,23.2L13.1,20.8L24.8,21.8L36.1,21.4L37.1,11.8L31.4,6.8L42.6,4.9L47.8,0L109.5,0Z" fill="#2c2c34" stroke="#474751" stroke-width="0.8"/><path d="M0,34.2L5.6,34.9L6.8,45.5L20,47.6L32.8,47.4L40.8,50L34.4,62.9L28.2,63.8L24,72.4L31.5,80.2L33.8,70.5L37.6,70.5L44.9,94.3L44.9,94.3L44.6,105L39.8,102.7L40.7,114.7L36.8,106.9L36,99.4L33.3,92.2L27.5,83.5L14.8,82.9L16,89L11.7,97.4L5.8,94.3L3.8,97L0,95.4L0,34.2Z" fill="#2c2c34" stroke="#474751" stroke-width="0.8"/><path d="M0,3.5L0.7,2.6L5.6,0L11.9,0L11.9,0L18,2.3L25.4,2.6L31.4,6.8L31.4,6.8L37.1,11.8L36.1,21.4L24.8,21.8L13.1,20.8L4.4,23.2L0,21.2L0,3.5Z" fill="#2c2c34" stroke="#474751" stroke-width="0.8"/><path d="M277.3,150.9L266,146.4L265.6,133.8L272.4,127.2L287.5,123.1L295.5,123.4L298.6,129L292.5,135.5L289.3,143.9ZM400,59.7L385.3,70.5L366.1,83.2L350.5,84.9L342,91.6L337.2,86.7L329.4,94.1L310.1,101.6L295.5,103.9L290.7,119.5L283.1,120.4L279.4,109.7L282.7,103.9L264.1,99.2L257.6,101.6L243.7,97.7L237.1,91.6L239.3,83L226.6,80.3L220,74.6L208.2,82.6L194.7,84.4L183.7,84.3L176.3,88L169.1,90.2L171.2,107.2L163.8,106.8L162.6,103.3L162.2,97.1L152,101.5L146,98.7L135.8,93.1L139.8,80.7L131,77.8L127.7,63.9L113.2,66.4L114.8,48.4L127.9,35.6L128.4,22.9L128,11L122,7.2L118.4,0L400,0ZM47.8,0L42.6,4.9L31.4,6.8L25.4,2.6L18,2.3L11.9,0L47.8,0ZM5.6,0L0.7,2.6L0,3.5L0,0Z" fill="#2c2c34" stroke="#474751" stroke-width="0.8"/><path d="M400,279.2L383.9,290.8L390.6,281L400,272.9L400,279.2Z" fill="#2c2c34" stroke="#474751" stroke-width="0.8"/><path d="M175.7,89.2L176.4,90.7L178.1,92.3L180.1,94.5L180.7,95.5L182,96.3L182.4,97.1L182.7,98.3L182.8,99.2L183.1,99.7L183.6,99.9L184.2,99.7L184.6,99.2L185,97.9L185.2,97.8L185.6,98.9L186.1,99.1L186.6,99.2L187.1,99.7L187.2,100.5L187.1,101.3L186.5,102.3L186.2,103.2L186,104.8L185.7,105.8L186.2,106.8L189.2,111.4L190.7,112.1L194.2,113L195.4,113.7L196.6,114.3L197.7,114L198.7,112.6L200,111.8L202.3,110.6L203,110.6L204.3,111L206.4,112.4L208,113.7L208.9,114.4L209.7,115L209.6,115.7L209,116.4L208.2,116.7L207.2,117.4L206.7,118L207,118.3L208.5,118.4L210.2,119L210.7,119.7L210.8,120.3L211,121.2L211.3,121.5L212.8,121.4L213.3,121.6L213.9,122L214.4,123.3L214.4,124.3L213.3,125.3L212.9,126L212.7,127L211.9,128.2L209.7,130.1L209.2,130.3L205.2,129.2L203.3,129.2L202.5,129.3L202,129.3L201.8,129.7L202.3,131L202.5,132.2L202,133L200.6,133.9L200.1,134.2L200.1,134.8L200.4,135.3L201.7,135.8L203.1,136.4L207.8,139.5L208.8,140.2L210.1,141.3L211.5,142.1L215.3,143.2L217,143.9L217.5,144.3L217.4,144.8L217,145.5L216.6,146.6L216.6,147.2L217,147.9L217.7,148.9L219.2,150.4L220.1,151L221,151.2L221.8,151.6L222.6,152.7L223.6,154L223.7,155L224.1,156.2L225,157.6L226.2,159L227.9,160.6L228.9,161.8L229.3,162.3L233,165.2L233.9,166.2L235.2,168.3L235.7,168.6L236.2,169L236.6,170.1L236.7,170.9L236.8,173.4L237.5,174.1L238.1,175L238.3,175.6L238.9,176.1L239.5,176.2L240.2,175.7L240.8,175.2L241,175.3L241.6,177L242.1,177.6L243.1,178.2L244.1,178.7L246.1,180.8L247.2,181.5L248,181.8L248.6,182.1L248.8,182.8L248.5,183.4L248.1,183.9L245.7,185.1L245.4,185.6L245.7,186.4L246.3,187.4L247,188.2L247.8,189.1L249.5,190.4L250.9,191.5L251.7,192.6L252.1,193.4L251.8,194.4L251.2,195.4L250.8,196.3L249.9,196.8L249.7,197.4L250.1,198.3L250.3,198.9L250.2,199.7L250.3,201.3L249.6,201.9L248.9,203.4L248.4,203.5L247.2,202.9L246.7,203.2L246,204.3L244.6,205.4L244,205.4L243.5,205.3L243,205.8L242.2,206.7L241.9,206.7L240.6,206.9L240.1,206.6L239.5,205.9L238.4,205.1L237.5,204.5L237.1,204.2L236.6,203.5L236.2,203.1L235.5,204L234.2,204.9L233,204.7L232.4,204.6L231.9,205.8L231.6,206.1L229.4,206.3L229,206.5L229.3,207.6L230.6,209.6L231,210.7L230.2,212.5L227.9,212.5L226.9,211.7L226,210.7L225.6,210.2L222.8,209.2L220.9,209.9L220.3,209.8L219.4,209.1L218.8,208.5L218.3,207.7L218,206.8L218,206.4L218.8,206.1L220.2,205.4L221.3,204.6L222,203.8L222.3,203L222.4,201.9L222.7,199.3L223,198.1L222.8,196.5L222.2,195.3L222.2,193.4L222.4,192.5L222.5,191.9L223.4,191.2L224,190.1L224.3,188.7L224.3,187.7L224.1,187.1L223.2,186.5L221.8,185.9L221,185.2L220.6,184.3L220.6,183.6L221.1,182.9L220,182.2L217.5,181.4L216.1,180.4L215.8,179.3L214.7,177.8L212.9,176L212,173.4L211.9,170L212.1,167.2L212.9,164L211.9,161.6L210.7,160.4L209.1,159.5L207.5,158.2L206.1,156.5L204.3,154L202.3,150.7L200.9,149.2L200.2,149.5L198.7,149.2L196.5,148.2L194.5,147.7L192.8,147.6L191.7,147.8L191.2,148.4L191.2,148.9L191.6,149.4L191.4,149.7L190.5,150L189.8,150.6L189,151.8L188.5,153.4L187.7,154L186.4,154.1L185.1,154.6L183.9,155.4L183.3,156L183.3,156.4L183.1,156.5L182.5,156.2L182.2,155.7L182.2,154.9L181.6,154.3L180.3,154L178.8,153.1L177.1,151.6L176,150.8L175.3,150.7L174.4,151.3L173.2,152.6L172.2,153.1L171.4,152.9L170.8,153.3L170.4,154.5L169.6,155.4L167.9,156.4L167.8,156.5L165.8,157.9L164.2,159.3L162.4,161.1L161.6,161.4L160.7,160.9L159.5,160.5L158.8,159.8L160.1,156.8L161.7,153.3L162.1,151.7L162.2,150.6L162,149.6L161.4,148.6L160.8,147.9L160.8,147.4L161,146.8L161.6,146L162.4,144.8L163.1,142.2L164,139.6L164,137.9L163.2,136.1L162.9,134.4L163.1,132.1L163,131.2L162.3,130.7L159.6,130.3L158.8,130.3L158.1,130.7L157.4,131.3L156.6,131.7L154.9,131.9L153.4,131.1L152.1,129.8L151.7,128.1L152.7,126.2L153.4,124.6L153.8,123.3L153.7,122.6L153.4,121.9L153.1,121.8L152.2,121L151.4,119.5L150.6,118.8L150,119L149.3,119.5L148.7,120.5L148.2,120.9L147.9,120.7L148,119.9L148.1,119.1L148.8,115.8L149.7,113.8L150.8,112.8L151.9,112.4L153.1,112.5L154.1,112.4L154.9,111.9L154.8,111.6L153.9,111.5L153.5,110.9L153.7,109.9L154.1,109.2L154.7,108.9L155.4,107.9L156,106.1L156.7,105.2L157.6,105.1L159.1,104.4L161.2,102.8L162,101.4L162.8,102L162.5,103.7L162.9,104.1L163.1,104.7L163,105.6L163.2,106.5L163.5,106.9L164,107.1L166.2,106.4L167.6,106.3L168.2,106.8L168.7,107L169.3,107.3L169.9,107.5L170.2,107.5L170.9,106.8L171.2,106.6L171.2,106.3L170.7,105.6L170.1,105.1L170.1,103.9L170.4,101.9L170.4,100.8L170.4,98.2L170.3,97.5L169.8,96.7L168.4,95.1L168.1,94.1L167.8,93.1L167.9,92.5L167.5,91.8L167.3,91.1L168,90.8L168.7,90L169,88.9L169.4,88L169.9,87.6L170.3,87.5L170.6,87.6L171.8,89.1L173.2,88.3L174.3,88.4L175.2,88.7Z" fill="#b8e653" stroke="#0c0e06" stroke-width="1"/></svg>
