<svg xmlns="http://www.w3.org/2000/svg" viewBox="0 0 300 300"><path fill="#e8e8ea" d="M99.5,23.6L101,26.6L104.4,29.9L108.6,34.6L109.8,36.7L112.5,38.4L113.3,40L114,42.5L114.3,44.4L114.8,45.4L115.8,45.9L117.1,45.4L118,44.4L118.7,41.7L119.2,41.4L120.1,43.6L121,44L122.1,44.3L123.1,45.3L123.4,47L123.1,48.7L121.9,50.7L121.3,52.7L120.9,55.9L120.3,58.1L121.2,60.1L127.5,69.7L130.6,71.2L137.9,73.1L140.5,74.4L142.9,75.7L145.1,75.1L147.3,72.2L149.9,70.6L154.9,68.1L156.2,68L158.9,69L163.4,71.9L166.6,74.5L168.5,75.9L170.1,77.2L169.9,78.6L168.6,80L167.1,80.8L165,82.2L163.9,83.5L164.6,84L167.6,84.4L171.1,85.6L172.2,87L172.4,88.2L172.8,90.2L173.4,90.7L176.7,90.4L177.8,90.9L178.9,91.9L180,94.5L180,96.5L177.7,98.7L176.8,100L176.4,102.1L174.8,104.6L170.2,108.7L169.1,109L160.8,106.7L156.9,106.8L155.2,106.9L154.2,107L153.7,107.9L154.8,110.4L155.2,112.9L154.1,114.7L151.3,116.4L150.3,117.2L150.2,118.3L150.9,119.4L153.5,120.6L156.4,121.6L166.2,128.1L168.2,129.6L170.9,131.8L173.9,133.6L181.9,135.8L185.4,137.4L186.4,138.2L186.3,139.2L185.3,140.6L184.6,142.9L184.6,144.3L185.4,145.6L186.8,147.7L190,150.8L191.7,152.2L193.6,152.5L195.3,153.3L197,155.6L199,158.4L199.3,160.4L200.1,162.9L202,165.9L204.5,168.7L208.1,172.1L210.1,174.6L211,175.6L218.7,181.6L220.4,183.8L223.1,188L224.3,188.6L225.3,189.5L226,191.8L226.2,193.5L226.5,198.6L228,200.1L229.2,202L229.8,203.3L230.9,204.3L232.1,204.5L233.7,203.4L234.8,202.3L235.4,202.7L236.6,206.2L237.6,207.5L239.7,208.7L241.7,209.7L245.9,214L248.2,215.6L249.8,216.1L251.1,216.8L251.4,218.2L250.9,219.6L250.1,220.4L245.1,222.9L244.5,224L245.1,225.6L246.3,227.7L247.7,229.5L249.4,231.2L252.9,234L255.9,236.3L257.5,238.7L258.5,240.4L257.8,242.3L256.6,244.4L255.7,246.3L253.9,247.3L253.5,248.5L254.2,250.4L254.7,251.8L254.4,253.4L254.6,256.8L253.1,257.9L251.6,261L250.6,261.2L248.1,260.1L247.2,260.7L245.6,262.9L242.8,265.3L241.5,265.3L240.5,265.1L239.4,266.1L237.8,267.9L237.1,267.9L234.4,268.4L233.4,267.7L232.1,266.2L230,264.6L228.1,263.5L227.1,262.7L226.1,261.3L225.3,260.5L223.8,262.4L221.1,264.2L218.6,263.8L217.3,263.6L216.4,266.1L215.7,266.6L211.1,267.1L210.3,267.5L211,269.9L213.7,273.9L214.4,276.2L212.8,280L208.1,279.9L206,278.4L204.1,276.2L203.3,275.2L197.4,273L193.4,274.5L192.2,274.4L190.3,272.9L189.2,271.7L188,270L187.4,268.2L187.4,267.4L189.2,266.8L192,265.3L194.2,263.7L195.8,261.9L196.4,260.2L196.5,258L197.1,252.6L197.9,250L197.4,246.7L196.2,244.1L196.2,240.3L196.6,238.4L196.8,237.2L198.6,235.6L199.8,233.4L200.4,230.5L200.5,228.4L200,227.1L198.3,225.8L195.4,224.7L193.6,223.2L192.9,221.4L192.9,219.8L193.8,218.5L191.6,217L186.4,215.3L183.5,213.3L182.8,211L180.7,207.9L176.9,204.1L175,198.7L174.8,191.5L175.2,185.8L176.8,179.1L174.7,174.2L172.2,171.6L168.9,169.7L165.6,167L162.6,163.5L159,158.3L154.8,151.4L151.9,148.3L150.4,149L147.3,148.3L142.6,146.3L138.6,145.3L135.1,145.1L132.8,145.5L131.8,146.6L131.7,147.6L132.6,148.7L132.1,149.5L130.3,150.1L128.9,151.2L127.2,153.7L126.1,157L124.3,158.4L121.6,158.6L119,159.6L116.4,161.2L115.2,162.4L115.3,163.2L114.8,163.4L113.5,163L112.9,161.9L113,160.1L111.7,159L109,158.4L105.9,156.5L102.5,153.4L100.1,151.7L98.7,151.5L96.8,152.8L94.3,155.5L92.2,156.5L90.5,155.9L89.3,156.9L88.4,159.4L86.8,161.2L83.2,163.3L83,163.6L78.9,166.4L75.6,169.3L71.8,173L70,173.7L68.3,172.7L65.8,171.8L64.3,170.5L67,164.1L70.2,156.9L71.2,153.6L71.3,151.2L71,149.2L69.7,147.2L68.5,145.6L68.4,144.5L68.8,143.4L70,141.7L71.8,139.2L73.3,133.9L75.2,128.3L75.1,124.8L73.6,121.1L72.7,117.6L73.3,112.7L73.1,110.9L71.5,109.9L66,109L64.3,109.1L62.9,109.8L61.4,111.1L59.7,111.9L56.3,112.4L53,110.7L50.4,107.9L49.6,104.5L51.7,100.5L53,97.2L53.9,94.4L53.8,93L53.2,91.6L52.4,91.4L50.7,89.7L49,86.6L47.4,85.2L45.9,85.5L44.6,86.6L43.2,88.7L42.3,89.5L41.5,89.1L41.8,87.3L42,85.6L43.5,79L45.4,74.6L47.7,72.6L49.9,71.8L52.4,72.1L54.5,71.7L56.2,70.7L56.1,70L54.1,69.9L53.3,68.8L53.7,66.6L54.5,65.2L55.8,64.5L57.2,62.3L58.4,58.6L60,56.7L61.9,56.7L65,55.1L69.3,51.9L71,48.8L72.6,50.2L72,53.8L72.9,54.5L73.3,55.8L73.1,57.7L73.5,59.5L74.2,60.3L75.1,60.7L79.8,59.2L82.6,59.1L83.8,60L84.8,60.6L86.2,61.1L87.3,61.7L88,61.5L89.5,60L90,59.8L90.1,59.1L89,57.7L87.9,56.6L87.9,54.1L88.4,49.8L88.5,47.6L88.4,42.3L88.2,40.8L87.1,39L84.3,35.8L83.6,33.7L83.1,31.7L83.2,30.4L82.5,28.9L82.1,27.5L83.4,26.8L84.8,25.2L85.6,22.8L86.3,21L87.3,20.3L88.3,20L88.9,20.2L91.3,23.4L94.2,21.7L96.4,21.8L98.4,22.6Z"/></svg>
