<svg xmlns="http://www.w3.org/2000/svg" viewBox="0 0 400 300"><path d="M196.2,185.4L191.9,194.6L183.1,190.5L178,209.8L184,213L177.8,217L176.7,224.5L188.3,220.6L188.9,231.8L176.6,277L174.3,269.7L160.6,228.3L167.7,218.9L166,217.3L172.5,203.9L177.4,182L181,174.7L181.7,174.4L189.8,174.4L192,169.3L198.6,168.9L199,180.8L195.6,185.2Z" fill="#2c2c34" stroke="#474751" stroke-width="0.8"/><path d="M188.3,220.6L176.7,224.5L177.8,217L184,213L178,209.8L183.1,190.5L191.9,194.6L191.9,212.2Z" fill="#2c2c34" stroke="#474751" stroke-width="0.8"/><path d="M191.9,194.6L196.2,185.4L223.4,196.9L271.2,165.9L281.1,201.3L276.4,205.7L227.5,220.1L251.9,248.6L243.8,253.4L239.7,262.8L221.1,266.8L215.3,276.9L204.7,285.5L177.4,281.1L176.6,277L188.9,231.8L188.3,220.6L191.9,212.2Z" fill="#2c2c34" stroke="#474751" stroke-width="0.8"/><path d="M400,273L346.9,229.2L310.5,209.1L281.1,201.3L281.1,201.3L271.2,165.9L325.3,135.3L334.5,99.2L332.3,77.2L345.6,69.7L358.1,50.6L368.6,45.8L397.1,49.8L400,52.4L400,273Z" fill="#2c2c34" stroke="#474751" stroke-width="0.8"/><path d="M196.2,185.4L195.6,185.2L199,180.8L198.6,168.9L204.6,152.8L217.9,141.7L213.9,130.1L202.9,128.6L200.7,105.8L206.6,93.4L213.2,86.8L219.7,80.1L221.1,63.2L229.1,69.1L256,60.6L268.9,66.4L289.1,66.3L317.2,54.8L330.3,55.3L358.1,50.6L345.6,69.7L332.3,77.2L334.5,99.2L325.3,135.3L271.2,165.9L223.4,196.9Z" fill="#2c2c34" stroke="#474751" stroke-width="0.8"/><path d="M400,52.4L397.1,49.8L368.6,45.8L358.1,50.6L330.3,55.3L317.2,54.8L289.1,66.3L268.9,66.4L256,60.6L229.1,69.1L221.1,63.2L219.7,80.1L213.2,86.8L206.6,93.4L197.7,79.7L206.9,68.3L192,70.9L171.5,63.9L154.7,81.4L117.7,84.8L97.9,68.5L71.5,67.4L65.9,80L49,83.6L25.4,67.5L0,68L0,0L400,0Z" fill="#2c2c34" stroke="#474751" stroke-width="0.8"/><path d="M173.6,300L174.4,292.3L177.4,281.1L177.4,281.1L204.7,285.5L215.3,276.9L221.1,266.8L239.7,262.8L243.8,253.4L251.9,248.6L227.5,220.1L276.4,205.7L281.1,201.3L310.5,209.1L346.9,229.2L400,273L400,300Z" fill="#2c2c34" stroke="#474751" stroke-width="0.8"/><path d="M123.2,113.9L124.8,113.7L128.4,106.5L145.9,106.9L168.2,97.9L151.7,110.7L153.5,116.3L150.9,115.2L146.2,117.5L142.5,116.9L141.3,118L140.8,115L139.1,113.1L134.3,112.8L127.7,115.4Z" fill="#2c2c34" stroke="#474751" stroke-width="0.8"/><path d="M123.2,113.9L127.7,115.4L134.3,112.8L139.1,113.1L140.8,115L141.3,118L142.5,116.9L146.2,117.5L150.9,115.2L153.5,116.3L154.2,118.7L129.1,130.8L117.2,126.9L111.6,115Z" fill="#2c2c34" stroke="#474751" stroke-width="0.8"/><path d="M0,227.4L18.5,233.9L29.8,238.3L48.7,229.3L58.7,221.1L80.2,218.7L97.7,222.3L104.2,236.5L110,227.2L129.5,233.9L148.6,235.5L160.6,228.3L174.3,269.7L176.6,277L169.8,288.3L166.8,300L129.8,300L129.8,300L115.6,267.2L113,269.7L123.2,299.3L123.5,300L0,300Z" fill="#2c2c34" stroke="#474751" stroke-width="0.8"/><path d="M202.4,129.1L206.6,129.1L209.5,129L210.2,127.6L212.4,128.2L213.6,129.5L212.4,130.9L211,132.5L211,132.9L212.2,133L214.1,133.9L215.3,134.9L217.3,141.2L216.1,143.7L214.1,146L213.3,146.2L211.7,147.4L210.2,148.9L209.8,149.9L209.9,150.8L211.8,152L211.9,152.4L211.5,152.8L209.9,152.5L207.9,152.4L206.6,152.4L205.2,152.6L203.5,154.1L202.7,155L202.2,155.5L201.5,157.5L202.3,158.8L203.7,159.5L203.8,159.9L203.6,160.5L202.2,161.3L201.2,162.4L200.9,163.4L199.8,164.3L199.1,164.9L197.8,166.2L196.5,167.3L193.9,169L193.3,170L192.7,169.1L191.6,169.7L190.6,173.5L188.6,174.8L186.1,174.6L184,174.3L181.2,174.5L182.4,172.3L183.5,169.4L184.6,165.5L186.8,162.3L191.1,151.2L193.5,146.8L194.4,140.3L198.2,134.7L201.1,133.1L202.4,131.5Z" fill="#b8e653" stroke="#0c0e06" stroke-width="1"/></svg>
