<svg xmlns="http://www.w3.org/2000/svg" viewBox="0 0 300 300"><path fill="#e8e8ea" d="M167.4,28.2L190.7,28.2L206.2,27.7L210.6,20L222.2,23.4L229,30.8L222.7,38.5L214.4,47L214.9,49.2L221.2,50.1L231.9,54.9L238.7,60.3L249.3,94.8L242.5,108.9L231.9,121.3L227.5,122.4L218.3,128.9L210.6,137.4L208.1,142.7L208.6,147.8L219.3,154.3L219.8,156.8L217.3,158.8L208.6,157.4L197.5,156.8L190.7,156.8L182.9,157.9L173.3,165.8L168.9,170.9L166.5,173.9L162.6,184.6L167,191.6L174.2,195.8L175.2,197.8L173.7,201.4L166,205.9L160.7,211.5L159.2,217.1L152.9,222.5L149,225.3L141.8,232.5L135,238.7L120.5,247.9L117.1,253.5L114.2,248.5L107.9,251.8L102.5,272.8L91.4,280L77.3,279.2L66.2,277.2L50.7,278.6L57,266.3L63.3,250.4L69.6,228.9L81.2,211L104.9,150L118.5,125.5L123.4,90.3L144.2,59.4L160.2,50.4L167.4,41.6Z"/></svg>
