<svg xmlns="http://www.w3.org/2000/svg" viewBox="0 0 400 300"><path d="M0,19.7L8.4,20.4L20.4,29.9L11.3,40.4L0,34.9L0,19.7Z" fill="#2c2c34" stroke="#474751" stroke-width="0.8"/><path d="M0,211.2L6.7,211.4L22.5,225.3L23.5,233.5L45.4,233.8L71.5,231.2L85.5,242.3L104.2,245.4L117.9,237.6L118.2,231.4L148.5,229.9L177.8,229.5L157,236.9L165.4,248.6L184.9,250.4L203.4,262.6L207.3,282.4L220,281.9L229.6,287.7L213.2,300L0,300Z" fill="#2c2c34" stroke="#474751" stroke-width="0.8"/><path d="M213.2,300L229.6,287.7L245.7,296.8L248.7,300L213.2,300Z" fill="#2c2c34" stroke="#474751" stroke-width="0.8"/><path d="M70.2,32.4L82.7,34.6L87.1,39.8L80.8,46.3L62.5,46.1L48.1,47L46.7,36L50.2,32.3Z" fill="#2c2c34" stroke="#474751" stroke-width="0.8"/><path d="M182.6,228.4L196.7,225.2L201.8,226L200.8,244.6L180.4,247.3L176,245.1L183.1,238.2Z" fill="#2c2c34" stroke="#474751" stroke-width="0.8"/><path d="M201.8,151.8L200.5,154.5L197.7,152.8L197.5,150.7L197.7,149.5L199.3,147.1L200.6,145.5L201.5,145L202.1,147Z" fill="#b8e653" stroke="#0c0e06" stroke-width="1"/></svg>
