<svg xmlns="http://www.w3.org/2000/svg" viewBox="0 0 400 300"><path d="M0,38L7.1,7.9L28.4,0.1L32,13.7L43.3,14.3L54.7,29.7L71.7,47.7L84.3,44.8L105.7,62L111.1,65.3L118.2,64.5L118.2,64.5L129.7,74.3L164.9,81.2L152.6,106.5L149.5,132.5L142.7,138.7L131.6,135.4L132.4,144.6L114.6,164.7L114.1,180.8L125.8,175.2L134.2,190.7L133.2,200.6L140.4,213.7L131.9,224.3L138.2,250.9L151.5,255.2L148.7,269.9L126.5,288.9L78.3,279.8L42.8,290.7L41.5,300L0,300ZM187.6,300L196.5,292.9L197.5,300L187.6,300Z" fill="#2c2c34" stroke="#474751" stroke-width="0.8"/><path d="M400,42.6L398.2,42.3L396,30.4L379.2,26.1L375.6,36L362.3,28.1L363.8,17.5L345.6,14.2L333.9,1.6L333.3,0L400,0Z" fill="#2c2c34" stroke="#474751" stroke-width="0.8"/><path d="M381.9,114.2L380,129.1L366.3,129.2L371,137.1L362.9,160.2L358.2,166.2L336.8,167.1L324.5,175.1L304.4,172.4L269.4,163.2L263.9,150.8L239.8,157L237,163.8L222.1,158.7L209.7,157.8L198.7,151.2L202.3,142.4L201.5,136L208.8,134L221.2,144L224.6,134.5L246.2,136L263.7,129.5L275.4,130.6L283,138L285.3,131.9L281.8,108.1L290.6,103.5L299.2,86.4L317.3,98.4L331.1,83.2L339.8,80.4L358.7,91.7L370.2,89.8L381.4,96.8L379.4,101.5Z" fill="#2c2c34" stroke="#474751" stroke-width="0.8"/><path d="M400,192.8L397.8,192.1L379.5,177L371.8,172.6L367,160.6L362.9,160.2L371,137.1L366.3,129.2L380,129.1L381.9,114.2L394.3,123.6L400,126.1L400,192.8Z" fill="#2c2c34" stroke="#474751" stroke-width="0.8"/><path d="M333.3,0L333.9,1.6L323,5.7L316.6,1.2L310.5,8.7L292.9,16.1L283.8,25.7L266,34.1L270.3,45.4L273,61.4L285.4,70.4L299.2,86.4L290.6,103.5L281.8,108.1L285.3,131.9L283,138L275.4,130.6L263.7,129.5L246.2,136L224.6,134.5L221.2,144L208.8,134L201.5,136L175.3,124.9L170.2,132.8L149.5,132.5L152.6,106.5L164.9,81.2L129.7,74.3L118.2,64.5L119.6,47.9L114.6,39.4L117.5,13.4L116.1,0L333.3,0Z" fill="#2c2c34" stroke="#474751" stroke-width="0.8"/><path d="M400,222L382.4,217.2L371,217.9L365.7,225.1L357,217.2L351.8,231.5L363.8,247.6L369.1,258.1L380.3,270.8L389.6,278.2L398.9,292.2L400,292.9L400,300L398.1,300L394.8,298.2L380.7,286.2L358.3,276.2L337.8,251.3L342.7,248.7L331.6,234.3L331.1,222.6L315.4,217.2L307.9,232.1L300.7,220.5L301.2,208.4L302.1,207.9L319.2,209.1L323.7,203.2L331.9,208.9L341.5,209.6L341.4,199.8L350,196.3L352.3,182L371.8,172.6L371.8,172.6L379.5,177L397.8,192.1L400,192.8L400,222Z" fill="#2c2c34" stroke="#474751" stroke-width="0.8"/><path d="M201.5,136L202.3,142.4L198.7,151.2L209.7,157.8L222.1,158.7L220.2,173.3L209.5,179.3L191.4,174.8L186.1,189.1L174.5,190.2L170.2,184.6L156.5,196.6L144.7,198.2L134.2,190.7L125.8,175.2L114.1,180.8L114.6,164.7L132.4,144.6L131.6,135.4L142.7,138.7L149.5,132.5L170.2,132.8L175.3,124.9Z" fill="#2c2c34" stroke="#474751" stroke-width="0.8"/><path d="M114.6,39.4L119.6,47.9L118.2,64.5L111.1,65.3L105.7,62L108.3,40.8Z" fill="#2c2c34" stroke="#474751" stroke-width="0.8"/><path d="M100.1,0L104,4.3L117.5,13.4L117.5,13.4L114.6,39.4L108.3,40.8L105.7,62L84.3,44.8L71.7,47.7L54.7,29.7L43.3,14.3L32,13.7L28.4,0.1L28.6,0L100.1,0Z" fill="#2c2c34" stroke="#474751" stroke-width="0.8"/><path d="M116.1,0L117.5,13.4L104,4.3L100.1,0L116.1,0Z" fill="#2c2c34" stroke="#474751" stroke-width="0.8"/><path d="M227.7,300L223.8,295.5L216.2,262.2L204.1,258.3L184.2,247.1L173,251.7L158.8,267.4L148.7,269.9L151.5,255.2L138.2,250.9L131.9,224.3L140.4,213.7L133.2,200.6L134.2,190.7L144.7,198.2L156.5,196.6L170.2,184.6L174.5,190.2L186.1,189.1L191.4,174.8L209.5,179.3L220.2,173.3L222.1,158.7L222.1,158.7L237,163.8L239.8,157L263.9,150.8L269.4,163.2L304.4,172.4L301.7,189.8L307.6,204.7L288.1,199.6L268.2,212L269.6,229.2L266.6,239L274.6,256.4L297.5,273.5L309.3,300L227.7,300Z" fill="#2c2c34" stroke="#474751" stroke-width="0.8"/><path d="M304.4,172.4L324.5,175.1L336.8,167.1L358.2,166.2L362.9,160.2L367,160.6L371.8,172.6L352.3,182L350,196.3L341.4,199.8L341.5,209.6L331.9,208.9L323.7,203.2L319.2,209.1L302.1,207.9L307.6,204.7L301.7,189.8Z" fill="#2c2c34" stroke="#474751" stroke-width="0.8"/><path d="M400,126.1L394.3,123.6L381.9,114.2L379.4,101.5L381.4,96.8L384.9,88.6L395.7,89.3L400,87.3L400,126.1Z" fill="#2c2c34" stroke="#474751" stroke-width="0.8"/><path d="M400,87.3L395.7,89.3L384.9,88.6L381.4,96.8L370.2,89.8L358.7,91.7L339.8,80.4L331.1,83.2L317.3,98.4L299.2,86.4L285.4,70.4L273,61.4L270.3,45.4L266,34.1L283.8,25.7L292.9,16.1L310.5,8.7L316.6,1.2L323,5.7L333.9,1.6L333.9,1.6L345.6,14.2L363.8,17.5L362.3,28.1L375.6,36L379.2,26.1L396,30.4L398.2,42.3L400,42.6L400,87.3Z" fill="#2c2c34" stroke="#474751" stroke-width="0.8"/><path d="M400,292.9L398.9,292.2L389.6,278.2L380.3,270.8L369.1,258.1L363.8,247.6L351.8,231.5L357,217.2L365.7,225.1L371,217.9L382.4,217.2L400,222L400,292.9Z" fill="#2c2c34" stroke="#474751" stroke-width="0.8"/><path d="M201.1,152.9L199.2,152.7L198.8,152.7L198.7,151.4L198.7,148.7L199.8,145.2L200.1,145.8L200.2,146.5L200.4,147.3L200.5,148.3L200.9,149.3L201.6,150.2L201.8,151.1L201.5,152.2Z" fill="#b8e653" stroke="#0c0e06" stroke-width="1"/></svg>
