<svg xmlns="http://www.w3.org/2000/svg" viewBox="0 0 300 300"><path fill="#e8e8ea" d="M96.1,20L102.4,20.4L109.3,20.1L114.1,21.1L122.3,31.5L144.6,50.2L156.8,69.2L157.8,73.3L159.5,76.8L162.4,77.8L165,79.5L177,97.7L178.4,101.4L178.2,105.3L178.9,108.3L182.3,109.8L186.1,110.5L188.8,113.3L192.1,127.8L192.1,132.4L192.8,134.4L208.2,156.9L209.2,159.7L208.9,161.8L209.4,163.6L212.3,167.5L217.1,178.3L219.2,180.7L222.1,190.2L222.4,208.1L221.4,216.2L218.5,226L215.2,235.4L211.3,242.3L206.3,248.1L189.2,260.4L184.2,263L161.9,270.7L145.6,278L130.2,280L115.1,276L103.6,266.4L97.8,252.2L93.7,237.4L87.7,221L83.4,170.2L81.2,156L77.6,137.9L78.1,130L80.5,122.5L80.5,139L82.7,141L84.4,138.9L86,121.8L87.2,114.6L93.2,95.7L93.5,92.4L92.3,85.2L92.5,81.7L101.6,68.5L103.8,60.7L105,52.9L104.5,44.3L102.8,35.9L110.3,38.5L114.4,41.5L118.4,43.5L121.8,42.4L125.6,42.4L123,37.8L114.4,33.6L100.2,31L95.9,27.6L94.2,24.7L94.9,21.3Z"/></svg>
