<svg xmlns="http://www.w3.org/2000/svg" viewBox="0 0 400 300"><path d="M188.8,0L189.8,15.9L179.4,39.6L179.3,82L166.7,83.2L155.6,102.1L163,110.3L140.7,117.3L132.5,134.1L122.7,141.2L99.6,118.1L88.3,83.4L78.9,58.3L70.3,46.5L57.3,22.5L53,0L188.8,0Z" fill="#2c2c34" stroke="#474751" stroke-width="0.8"/><path d="M182.1,100L180.6,100.3L179.3,98.6L179.1,97.9L179.3,97.4L179.7,97.2L180.1,97.2L180.7,98.8ZM179.8,114.4L180.5,116.2L178.5,115L177.1,113.9L176.6,113L179.4,114ZM182.4,95.5L184.7,95.6L187.3,95.5L189,95.9L192,99.7L200.2,106.5L204.7,113.5L205,115L205.6,116.3L206.7,116.7L207.7,117.3L212.1,124L212.6,125.3L212.5,126.8L212.8,127.8L214,128.4L215.4,128.7L216.4,129.7L217.6,135L217.6,136.7L217.9,137.4L223.5,145.7L223.8,146.7L223.8,147.5L223.9,148.1L225,149.6L226.7,153.5L227.5,154.4L228.6,157.9L228.7,164.4L228.3,167.4L227.3,171L226,174.4L224.6,177L222.8,179.1L216.5,183.6L214.7,184.6L206.5,187.4L200.5,190.1L194.9,190.8L189.4,189.3L185.1,185.8L183,180.6L181.5,175.2L179.3,169.1L177.8,150.5L177,145.3L175.6,138.7L175.8,135.8L176.7,133.1L176.7,139.1L177.5,139.8L178.1,139.1L178.7,132.8L179.2,130.2L181.4,123.2L181.4,122L181,119.4L181.1,118.1L184.4,113.2L185.2,110.4L185.7,107.5L185.5,104.4L184.9,101.3L187.6,102.3L189.1,103.4L190.6,104.1L191.8,103.7L193.2,103.7L192.3,102L189.1,100.5L183.9,99.5L182.3,98.3L181.7,97.2L182,96Z" fill="#b8e653" stroke="#0c0e06" stroke-width="1"/></svg>
