<svg xmlns="http://www.w3.org/2000/svg" viewBox="0 0 300 300"><path fill="#e8e8ea" d="M23.3,121.6L26.6,118.8L31.3,109.9L38.2,101.3L44.4,96.2L49.3,91L54.6,86.9L62.2,82.3L73.7,70L76.4,68.6L78.2,60L81,49.1L84.4,45.8L92.4,43.7L94.1,41.9L96.8,34.2L98.6,25.2L98.8,23.4L101.9,23L107.3,21.2L110.4,22.1L111.7,24.5L112.4,26.7L128.3,21.2L129.7,20L130.6,20.2L132.6,25.3L133.7,25L134.8,23.5L135.9,23.4L137,24L138.3,26.4L140.3,28.4L143.9,30L146.1,32L145.7,37.3L146.6,42.6L148.1,43.8L149,46.8L149.2,50.3L150.1,52.1L150.8,55.6L150.6,59.3L151,61.9L153.7,66.3L155.2,72L155.2,76L154.3,80.2L152.6,84L149.7,88.2L149.4,90L151.2,91L153.9,91.3L156.1,90.4L161.7,92.3L164.8,95L167.4,98.5L169.7,100.2L170.8,102.4L174.8,101.7L179.4,99.7L180.3,98.7L181.9,99.3L184.8,99.5L187,95.7L188.5,91.4L192.3,86.7L194.1,85L194.5,82L194.7,78.1L196.1,74.8L199,73L202.3,73L204.1,73.7L205,76.9L207.4,79.4L209.6,81L210.7,81.8L212.7,83.7L214.5,90.2L221.4,111.1L221,116.9L219.6,120.7L219.6,124.5L219.2,128.1L215,134.1L202.5,146.4L203.4,147.5L206.3,148.9L209.4,149.5L211.8,149.2L215,152.2L218.5,156.1L222.1,158L227.2,159.9L231.6,160.1L235.4,159.3L240.7,160.1L246.5,163.3L248.5,168.6L250,173.1L252,175.5L252.3,179.4L256.3,182.9L262,183.6L269.6,187.6L271.6,187.4L272.5,186.9L273.4,187.8L275.1,199.5L276.7,205.7L276,208.2L274.9,210.2L274.9,219.7L271.4,225.2L270.9,231.2L269.8,233.1L266.3,234.9L266.3,239.4L265.4,245L264.9,250.9L265.8,266.4L266,277.9L267.8,280L260.7,279L239.8,270.2L223.6,265.2L169.9,236.5L154.8,224.9L137.7,207.7L99.3,173L90.6,167.5L79.5,164.8L72.6,161.8L67.9,158.6L63.9,149L54.4,143.3L36.6,135.2Z"/></svg>
