<svg xmlns="http://www.w3.org/2000/svg" viewBox="0 0 400 300"><path d="M146.6,0L146.4,1.5L142.8,2.9L129.6,1L127.7,3.7L122.4,4.3L110,0L146.6,0ZM29.7,0L20.2,3L19.6,0L29.7,0Z" fill="#2c2c34" stroke="#474751" stroke-width="0.8"/><path d="M318.7,0L300.1,19.8L300.7,28.2L294.1,38.8L295.6,53.2L285.6,56.9L279.9,60L276.1,49.4L269.1,52.2L264.9,51.7L260.4,58.9L241.5,58.7L234.7,55L231.5,57.3L224,50.1L225.4,42.7L222.3,39.8L217.1,42.2L218.1,34.2L223.1,27.8L213,17.3L210.1,10.4L204.7,4.9L199.9,4.3L194,7.8L186,11.1L179.4,16.5L168.9,14.5L162.1,8.1L158.1,7.3L151.6,10.6L147.8,10.7L146.4,1.5L146.4,1.5L146.6,0L318.7,0Z" fill="#2c2c34" stroke="#474751" stroke-width="0.8"/><path d="M400,186.2L379.7,192.8L357.9,185.8L359.1,176.1L348.4,154.9L354.8,127.2L365.1,106.5L358.6,71.2L355.3,52.6L355.9,38.5L398.3,37.3L400,37.6L400,186.2Z" fill="#2c2c34" stroke="#474751" stroke-width="0.8"/><path d="M231.5,57.3L234.7,55L241.5,58.7L260.4,58.9L264.9,51.7L269.1,52.2L276.1,49.4L279.9,60L285.6,56.9L295.6,53.2L306.6,58.6L311,66.8L321.9,72L330.5,65.8L341.9,64.9L358.6,71.2L365.1,106.5L354.8,127.2L348.4,154.9L359.1,176.1L357.9,185.8L346.8,186.1L329.8,181.3L314.1,181.5L285.2,185.8L268.2,192.9L244,201.9L239.3,201.3L241.2,181L243.5,178L242.8,168.3L232.4,158L224.7,156.4L217.5,149.6L222.8,138.7L220.3,126.8L221.5,119.6L225.4,119.6L226.9,108.8L224.9,104.1L227.3,100.6L236.4,97.7L230.3,77.9L224.7,67.6L226.7,59.2Z" fill="#2c2c34" stroke="#474751" stroke-width="0.8"/><path d="M110,0L122.4,4.3L127.7,3.7L129.6,1L142.8,2.9L146.4,1.5L147.8,10.7L151.6,10.6L158.1,7.3L162.1,8.1L168.9,14.5L179.4,16.5L186,11.1L194,7.8L199.9,4.3L204.7,4.9L210.1,10.4L213,17.3L223.1,27.8L218.1,34.2L217.1,42.2L222.3,39.8L225.4,42.7L224,50.1L231.5,57.3L226.7,59.2L224.7,67.6L230.3,77.9L236.4,97.7L227.3,100.6L224.9,104.1L226.9,108.8L225.4,119.6L221.5,119.6L214.6,119L209.6,128.9L202.8,128.8L197.9,123.5L199.6,113.6L189.4,98.5L183,101.3L177.8,101.9L171,103.3L171.3,94.2L167.4,87.7L168.2,80.6L162.9,70.1L156,61.3L136.5,61.2L130.8,65.9L124.1,66.5L119.9,71.8L117.1,78.7L104.1,89.6L93.3,74.9L83.8,65.2L77.6,62L71.5,57.1L68.7,46.1L65.1,40.6L58.1,36.5L68.9,24.4L76.3,24.8L82.7,20.7L88,20.6L91.9,17.3L89.8,9L92.5,6.4L92.9,0L110,0Z" fill="#2c2c34" stroke="#474751" stroke-width="0.8"/><path d="M92.9,0L92.5,6.4L89.8,9L91.9,17.3L88,20.6L82.7,20.7L76.3,24.8L68.9,24.4L58.1,36.5L44.9,26.1L34.7,24.5L29.1,17.4L29.2,13.6L21.8,8.4L20.2,3L20.2,3L29.7,0L92.9,0Z" fill="#2c2c34" stroke="#474751" stroke-width="0.8"/><path d="M104.1,89.6L117.1,78.7L119.9,71.8L124.1,66.5L130.8,65.9L136.5,61.2L156,61.3L162.9,70.1L168.2,80.6L167.4,87.7L171.3,94.2L171,103.3L177.8,101.9L166.4,113.4L155.3,126.7L154,133.9L148.2,141.8L141.6,140L124,130L111.4,116.9L107,107.8Z" fill="#2c2c34" stroke="#474751" stroke-width="0.8"/><path d="M400,37.6L398.3,37.3L355.9,38.5L355.3,52.6L358.6,71.2L341.9,64.9L330.5,65.8L321.9,72L311,66.8L306.6,58.6L295.6,53.2L295.6,53.2L294.1,38.8L300.7,28.2L300.1,19.8L318.7,0L400,0Z" fill="#2c2c34" stroke="#474751" stroke-width="0.8"/><path d="M146.5,138.8L147.9,137.7L149.7,134.2L152.4,130.8L154.9,128.8L156.8,126.7L158.9,125.1L161.9,123.3L166.5,118.4L167.6,117.8L168.3,114.4L169.4,110.1L170.7,108.8L173.9,108L174.6,107.2L175.7,104.2L176.4,100.6L176.5,99.9L177.7,99.8L179.8,99.1L181,99.4L181.6,100.4L181.8,101.2L188.2,99.1L188.7,98.6L189,98.7L189.8,100.7L190.3,100.6L190.7,100L191.1,99.9L191.6,100.2L192.1,101.1L192.9,101.9L194.3,102.5L195.2,103.3L195,105.4L195.4,107.5L196,108L196.3,109.2L196.4,110.6L196.8,111.3L197,112.7L196.9,114.1L197.1,115.2L198.2,116.9L198.8,119.2L198.8,120.8L198.4,122.4L197.7,123.9L196.6,125.6L196.5,126.3L197.2,126.7L198.3,126.8L199.1,126.5L201.3,127.2L202.6,128.3L203.6,129.7L204.5,130.4L205,131.2L206.5,131L208.4,130.1L208.7,129.8L209.4,130L210.5,130.1L211.4,128.6L212,126.9L213.5,125L214.2,124.3L214.4,123.1L214.5,121.6L215,120.3L216.1,119.6L217.4,119.6L218.1,119.8L218.5,121.1L219.5,122.1L220.3,122.7L220.8,123L221.6,123.8L222.3,126.4L225,134.7L224.8,137L224.3,138.5L224.3,140L224.1,141.4L222.5,143.8L217.5,148.6L217.9,149.1L219,149.6L220.3,149.9L221.2,149.8L222.5,151L223.9,152.5L225.3,153.3L227.3,154L229.1,154.1L230.6,153.8L232.7,154.1L234.9,155.3L235.7,157.4L236.4,159.2L237.1,160.2L237.2,161.7L238.8,163.1L241.1,163.4L244.1,165L244.9,164.9L245.2,164.7L245.6,165L246.3,169.7L246.9,172.2L246.6,173.1L246.2,173.9L246.2,177.7L244.8,179.9L244.6,182.2L244.2,183L242.8,183.7L242.8,185.5L242.4,187.7L242.3,190L242.6,196.2L242.7,200.7L243.4,201.6L240.6,201.2L232.3,197.7L225.9,195.7L204.6,184.3L198.6,179.7L191.8,172.9L176.6,159.2L173.2,157L168.8,155.9L166.1,154.8L164.2,153.5L162.6,149.7L158.9,147.4L151.8,144.2Z" fill="#b8e653" stroke="#0c0e06" stroke-width="1"/></svg>
