<svg xmlns="http://www.w3.org/2000/svg" viewBox="0 0 400 300"><path d="M218.3,132.5L207.7,124L196.2,129.6L183,140.6L169.9,158.4L188.3,180.1L197,177.3L201.5,168.3L215.1,163.8L219.3,154.7L226.8,141ZM0,20L3,21.8L17.5,47.5L15.2,64.1L20.7,73.7L38.2,70.9L50.4,58.7L62,50.6L68,37.6L79.9,31.3L90.1,34.6L101.8,42.2L121.7,43.5L137.4,37.2L139.8,28.8L144.1,15.9L157.4,13.7L164.7,3.6L166.4,0L288.1,0L288.1,0L290.4,7.1L286.1,37.1L288.2,46.9L275.8,41.9L268.8,43.8L266.5,51.7L259.8,62L260,71.4L274.6,86.3L288.9,83.3L293.9,71.1L312.4,71.4L306.3,91.3L303.5,114.3L297.1,126.9L280.4,141L275.7,145L265.3,159.3L258.5,173.8L244.6,194.2L217,223.8L199.8,241.2L181.3,254.5L155.8,265.8L143.4,267.4L140.2,275.5L125.3,271.2L113.2,276.8L86.7,271.1L71.9,274.7L61.8,273.1L36.7,284.8L15.7,289.5L1.6,300L0,300Z" fill="#2c2c34" stroke="#474751" stroke-width="0.8"/><path d="M166.4,0L164.7,3.6L157.4,13.7L144.1,15.9L139.8,28.8L137.4,37.2L121.7,43.5L101.8,42.2L90.1,34.6L79.9,31.3L68,37.6L62,50.6L50.4,58.7L38.2,70.9L20.7,73.7L15.2,64.1L17.5,47.5L3,21.8L0,20L0,0Z" fill="#2c2c34" stroke="#474751" stroke-width="0.8"/><path d="M376.8,0L376.7,0.5L366.4,10L346.3,19.1L316.9,33.7L306.2,43.7L308.3,55.1L314.5,57L312.4,71.4L293.9,71.1L291.8,59.1L288.2,46.9L286.1,37.1L290.4,7.1L288.1,0L376.8,0Z" fill="#2c2c34" stroke="#474751" stroke-width="0.8"/><path d="M293.9,71.1L288.9,83.3L274.6,86.3L260,71.4L259.8,62L266.5,51.7L268.8,43.8L275.8,41.9L288.2,46.9L291.8,59.1Z" fill="#2c2c34" stroke="#474751" stroke-width="0.8"/><path d="M212.4,164.7L210.2,165.4L209.9,165.5L208.5,165.3L206.6,165.5L205.1,165.9L204,166L202.1,168L198.7,173.5L197.8,174.6L197.6,176.7L196.8,178.4L195.8,179.7L194.8,180L192,179.5L188.4,178.8L186.3,177.2L184.4,175L183.4,173.5L182.3,172.6L182,172.1L180.5,171.4L180,171.1L179.4,170.8L178.9,169.7L178.6,168.8L178.6,166.3L177.6,164.8L175.8,162.3L174.7,160.2L173.2,157.3L172.2,154.9L171.3,152.4L171.3,151.3L172.3,150.6L175,149.3L177.1,148.3L178.7,146.5L180.3,143.9L181.2,142.3L182,141.5L182.9,140.4L184.4,137.9L186.1,135.1L188,132.1L190.3,131.2L193.4,130.2L196.5,127.7L200.1,125.4L205.9,123.1L208.6,122.5L209.7,122.1L210.3,122.6L211,123.9L212.1,125L214.4,127.1L215.3,127.5L217.7,130.5L220.2,132.5L223.2,134.8L225.2,136L226.2,136.3L227,138.4L227.9,139.9L228.4,141.3L228.3,142.7L227.4,146.2L226.1,149.7L224.9,151.1L223.6,152.1L222.3,153.4L221.8,156.3L221.2,159.6L219.5,160.9L218.2,161.8L216.4,163Z" fill="#b8e653" stroke="#0c0e06" stroke-width="1"/></svg>
