<svg xmlns="http://www.w3.org/2000/svg" viewBox="0 0 300 300"><path fill="#e8e8ea" d="M206.5,211.4L196.6,214.4L195,214.9L188.7,214L180.4,214.9L173.7,216.6L168.6,217.1L160.3,226.1L144.9,250.6L140.9,255.7L139.7,265.2L136.2,272.7L131.8,278.7L127.5,280L114.9,277.8L98.7,274.7L89.2,267.4L80.5,257.7L76.2,250.6L71.4,246.8L69.8,244.6L63.1,241.3L60.8,239.8L58.4,238.5L56,233.8L54.4,229.9L54.8,218.6L50.1,211.8L42.2,200.4L37.1,191.1L30.4,178.2L26,167.4L21.7,156L22.1,151.2L26.4,147.9L38.6,142.2L48.1,137.8L55.2,129.7L62.3,117.7L66.3,110.5L69.8,107.2L73.8,102L80.5,90.9L88.4,78.2L96.7,65L107,61L121.2,56.5L135,45L151.2,35L177.2,24.3L189.5,21.7L194.2,20L197,22.2L200.1,28.2L204.9,33.2L215.2,42.4L219.5,44.3L230.2,57.6L241.6,66.7L254.6,77.2L263.7,82.4L268.5,83.7L272,93.1L276,99.8L278.3,106.4L277.5,112.7L273.6,128L267.7,143.8L262.5,150.3L256.6,154.5L250.7,160.6L248.7,173.3L246,188.3L238.5,194.4L232.5,198.4L224.2,203.4Z"/></svg>
