<svg xmlns="http://www.w3.org/2000/svg" viewBox="0 0 300 300"><path fill="#e8e8ea" d="M98,214.1L96.2,210.3L94,203.4L94.4,198L95.5,192.5L100.9,176.3L100.7,173.8L96.6,169.2L91.7,165.9L89,158.9L79,158.5L69.5,158.9L66.6,158.6L57.6,155.6L48.8,150.9L43,148.1L38.1,145L35.5,141.8L31.3,142.6L28.5,142.6L28.5,142L27,136.2L28.7,127.4L25.6,114.4L20.7,98.6L20.3,81.6L20,77.8L32.1,68.2L47.5,57.8L51.1,56.9L65.1,50.7L67.1,50.3L79.8,51.4L89.9,52.8L98.3,52.7L103,51.1L107.3,52.4L110.5,57.1L114.1,56.5L117.6,53.5L136.5,56.2L140.8,56.2L145.5,56.7L154.3,59.4L159.6,61.9L170.7,60.4L175.6,60.4L178,59.4L185.7,52.4L189.1,51.1L192.2,50L195,51L196.8,56.9L202.5,67.2L208.7,69L226.1,72.8L229.5,74.9L239.1,84L245,88.3L248.6,91.9L254.3,98.7L257.6,103.6L263,107.4L269.4,109.9L271.8,110.4L271.7,114L270.5,120.1L268.4,127.9L266.1,134L265.6,136.4L267.3,138.3L275.8,139.3L279.3,140.2L280,141.9L278.2,144L275.4,145.8L274.3,147.4L272.2,153.2L258.1,152.5L256.1,153.8L255.3,156.4L254.7,159.6L252.7,163.4L249,166.6L243.2,167.8L238.5,170L234.9,176.7L232.3,185.9L232.3,192.3L232.6,195.8L232.3,197.9L230.5,200.2L227.5,206L225.3,212.5L224.3,216L224.8,217.6L227.4,217.8L231.3,219.1L233.4,221.7L234.1,224.7L234.1,227.9L233.4,229.6L230.3,231L225.4,231L222.6,229.4L222,228.2L223.3,225.2L222.3,221.3L220.4,219.1L216.3,222.4L212.3,222.4L207.6,225.2L204.5,229.8L201.6,231.5L193.6,230.6L191.4,232.6L189.8,241.9L188.8,243.7L182.3,243.3L175.7,247.1L168.4,250L164.8,248L162.7,245.6L158.7,246L154.3,247.1L151.6,246.5L148.3,246.7L141.9,248.6L134.1,248L130.6,246.4L130.3,244.9L130.5,241.3L130.5,235.7L129.2,230.7L125.4,226.3L121.5,223.2L116.4,219.9L112.7,218.6L110.5,218.2L110,216.4L109.4,214.8L107.6,213.3L103.8,211.4L100.6,211Z"/></svg>
