<svg xmlns="http://www.w3.org/2000/svg" viewBox="0 0 400 300"><path d="M174.3,181.9L134.1,182.5L107.3,178.2L112.2,161.6L142.3,149.3L165.2,156L174.8,162L172.5,172.4ZM400,257L392.1,258.2L385.5,256.4L380,264.5L371.9,263.1L366.5,240.1L361.3,228.1L365.6,224.7L383.2,226L391.7,218L385.4,208.3L370.7,201.8L371.9,195.1L363.1,188.3L349.4,163.7L354.1,153.4L352,135.5L330.6,126.2L319.1,130.8L316.1,121.2L293.1,111.4L286.1,88.1L284.2,68.6L273.7,59.3L283.1,46.4L276.6,7.7L281.5,0L400,0Z" fill="#2c2c34" stroke="#474751" stroke-width="0.8"/><path d="M63.6,0L45.4,7.9L37.1,76.8L24.8,114L0,110.4L0,0Z" fill="#2c2c34" stroke="#474751" stroke-width="0.8"/><path d="M293.1,111.4L316.1,121.2L319.1,130.8L330.6,126.2L352,135.5L354.1,153.4L349.4,163.7L363.1,188.3L371.9,195.1L370.7,201.8L385.4,208.3L391.7,218L383.2,226L365.6,224.7L361.3,228.1L366.5,240.1L371.9,263.1L353.1,265.2L346.4,272.9L345,290.6L336.3,287.3L316.6,288.9L310.9,280.7L302.7,286.8L294.5,281.7L277.3,281L253,272.6L230.9,269.8L214,270.6L202.1,280.2L191.6,281.6L191.2,265.9L184.5,249.3L197.5,242L197.7,227.6L191.6,213.7L190.7,197.4L211.7,197.6L235.5,183.6L240.5,162.4L258.4,150.1L256.4,133L269.7,126.4Z" fill="#2c2c34" stroke="#474751" stroke-width="0.8"/><path d="M198.3,300L191.6,281.6L202.1,280.2L214,270.6L230.9,269.8L253,272.6L277.3,281L294.5,281.7L302.7,286.8L310.9,280.7L316.6,288.9L336.3,287.3L345,290.6L346.4,272.9L353.1,265.2L371.9,263.1L371.9,263.1L380,264.5L385.5,256.4L392.1,258.2L400,257L400,300Z" fill="#2c2c34" stroke="#474751" stroke-width="0.8"/><path d="M7.8,300L5.9,298L0,283.3L0,193.1L0,193.1L1.2,192.2L35.3,175L62.8,162.2L84.5,168.6L86.2,177.8L107.3,178.2L134.1,182.5L174.3,181.9L185.4,185.9L190.7,197.4L190.7,197.4L191.6,213.7L197.7,227.6L197.5,242L184.5,249.3L191.2,265.9L191.6,281.6L198.3,300L7.8,300Z" fill="#2c2c34" stroke="#474751" stroke-width="0.8"/><path d="M273.7,59.3L284.2,68.6L286.1,88.1L293.1,111.4L269.7,126.4L256.4,133L235.4,114.1L223.8,111.6L220.7,103.4L199.3,107.3L162.6,104.8L137.7,116.8L138.4,87.1L149.1,61.9L169.7,47.9L187.1,78.2L204.6,77.4L208.8,46.3L227.4,39.1L236.9,44.1L255.7,59.3Z" fill="#2c2c34" stroke="#474751" stroke-width="0.8"/><path d="M281.5,0L276.6,7.7L283.1,46.4L273.7,59.3L255.7,59.3L236.9,44.1L227.4,39.1L208.8,46.3L211.3,22L203.3,27.2L189.4,12.4L188.5,0L281.5,0Z" fill="#2c2c34" stroke="#474751" stroke-width="0.8"/><path d="M0,283.3L5.9,298L0.6,300L0,300Z" fill="#2c2c34" stroke="#474751" stroke-width="0.8"/><path d="M0.6,300L5.9,298L5.9,298L7.8,300L0.6,300Z" fill="#2c2c34" stroke="#474751" stroke-width="0.8"/><path d="M135.5,145.9L134.3,145.6L136.8,141.2L137.7,138.3L138.4,134.2L139,132.9L139,134.8L138.8,137.8L137.2,143.2ZM175,180.8L174.1,179L173.1,175.7L173.2,173.1L173.8,170.5L176.4,162.6L176.3,161.5L174.3,159.2L172,157.6L170.7,154.3L165.9,154.1L161.3,154.3L159.9,154.1L155.6,152.7L151.3,150.4L148.6,149.1L146.2,147.6L145,146L142.9,146.4L141.6,146.4L141.6,146.2L140.9,143.4L141.7,139.1L140.2,132.9L137.8,125.3L137.7,117.1L137.5,115.3L143.3,110.7L150.7,105.7L152.4,105.3L159.2,102.3L160.1,102L166.3,102.6L171.1,103.3L175.1,103.2L177.4,102.5L179.5,103.1L181,105.3L182.8,105.1L184.4,103.6L193.5,104.9L195.6,104.9L197.8,105.1L202.1,106.4L204.6,107.7L209.9,106.9L212.3,106.9L213.5,106.4L217.2,103.1L218.8,102.5L220.3,101.9L221.6,102.4L222.5,105.3L225.3,110.2L228.2,111.1L236.6,112.9L238.2,113.9L242.9,118.3L245.7,120.4L247.4,122L250.2,125.4L251.7,127.7L254.3,129.5L257.4,130.7L258.6,130.9L258.5,132.7L257.9,135.6L256.9,139.4L255.8,142.3L255.6,143.4L256.4,144.4L260.5,144.8L262.2,145.3L262.5,146.1L261.6,147.1L260.3,148L259.8,148.8L258.7,151.6L252,151.2L251,151.8L250.6,153.1L250.3,154.6L249.4,156.5L247.6,158L244.8,158.6L242.5,159.6L240.8,162.8L239.6,167.2L239.6,170.3L239.7,172L239.6,173L238.7,174.1L237.3,176.9L236.2,180L235.7,181.7L235.9,182.5L237.2,182.6L239.1,183.2L240.1,184.5L240.4,185.9L240.4,187.4L240.1,188.3L238.6,188.9L236.3,188.9L234.9,188.2L234.6,187.6L235.2,186.2L234.8,184.3L233.8,183.2L231.9,184.8L230,184.8L227.7,186.2L226.2,188.4L224.8,189.2L220.9,188.7L219.9,189.7L219.1,194.2L218.7,195.1L215.5,194.9L212.4,196.7L208.8,198.1L207.1,197.1L206.1,196L204.2,196.2L202.1,196.7L200.7,196.4L199.2,196.5L196.1,197.4L192.3,197.1L190.7,196.4L190.5,195.6L190.6,193.9L190.6,191.2L190,188.8L188.2,186.7L186.3,185.2L183.9,183.6L182,183L181,182.8L180.8,181.9L180.5,181.2L179.6,180.4L177.8,179.5L176.2,179.3Z" fill="#b8e653" stroke="#0c0e06" stroke-width="1"/></svg>
