<svg xmlns="http://www.w3.org/2000/svg" viewBox="0 0 400 300"><path d="M21.6,300L22.5,286.8L0,253.6L0,189.2L0,189.2L12.1,192L4.3,149.6L27.5,165.8L84.3,136.3L91.7,104.8L113.1,97L116.6,110.6L127.9,111.2L139.3,126.7L156.4,144.7L168.9,141.7L190.3,158.9L195.8,162.3L202.8,161.4L202.8,161.4L214.3,171.3L249.5,178.2L237.2,203.5L234.1,229.5L227.3,235.7L216.3,232.3L217,241.5L199.2,261.6L198.8,277.7L210.5,272.2L218.8,287.7L217.8,297.6L219.2,300L21.6,300Z" fill="#2c2c34" stroke="#474751" stroke-width="0.8"/><path d="M400,31.3L395.5,24.1L400,16.9L400,31.3ZM400,4.7L398.7,0L400,0Z" fill="#2c2c34" stroke="#474751" stroke-width="0.8"/><path d="M400,270.8L389,269.4L354,260.1L348.6,247.7L324.5,253.9L321.6,260.7L306.8,255.7L294.3,254.7L283.3,248.1L287,239.3L286.1,233L293.4,230.9L305.8,241L309.2,231.4L330.8,233L348.3,226.5L360,227.6L367.6,235L369.9,228.9L366.4,205.1L375.2,200.4L383.8,183.4L400,194L400,270.8Z" fill="#2c2c34" stroke="#474751" stroke-width="0.8"/><path d="M398.7,0L400,4.7L400,16.9L400,16.9L395.5,24.1L400,31.3L400,99.7L400,99.7L395.1,105.6L377.5,113.1L368.4,122.6L350.7,131L355,142.4L357.6,158.3L370,167.3L383.8,183.4L375.2,200.4L366.4,205.1L369.9,228.9L367.6,235L360,227.6L348.3,226.5L330.8,233L309.2,231.4L305.8,241L293.4,230.9L286.1,233L259.9,221.8L254.9,229.7L234.1,229.5L237.2,203.5L249.5,178.2L214.3,171.3L202.8,161.4L204.2,144.9L199.3,136.3L202.1,110.3L198,69.4L212.6,69.4L218.8,54.4L224.9,17.5L220.4,3.7L222.4,0L249.2,0L249.2,0L250.1,1.8L251.6,0L398.7,0Z" fill="#2c2c34" stroke="#474751" stroke-width="0.8"/><path d="M286.1,233L287,239.3L283.3,248.1L294.3,254.7L306.8,255.7L304.8,270.3L294.1,276.3L276,271.8L270.7,286L259.1,287.2L254.9,281.6L241.2,293.5L229.4,295.1L218.8,287.7L210.5,272.2L198.8,277.7L199.2,261.6L217,241.5L216.3,232.3L227.3,235.7L234.1,229.5L254.9,229.7L259.9,221.8Z" fill="#2c2c34" stroke="#474751" stroke-width="0.8"/><path d="M202.1,110.3L199.3,136.3L192.9,137.7L190.3,158.9L168.9,141.7L156.4,144.7L139.3,126.7L127.9,111.2L116.6,110.6L113.1,97L132.6,89.3L150.5,92.4L173.2,84.2L188.6,101.3Z" fill="#2c2c34" stroke="#474751" stroke-width="0.8"/><path d="M220.4,3.7L224.9,17.5L218.8,54.4L212.6,69.4L198,69.4L202.1,110.3L188.6,101.3L173.2,84.2L150.5,92.4L132.6,89.3L145.2,78.5L166.6,19.7L200.1,2.5Z" fill="#2c2c34" stroke="#474751" stroke-width="0.8"/><path d="M385.9,300L372.7,296.6L367.2,300L219.2,300L219.2,300L217.8,297.6L218.8,287.7L229.4,295.1L241.2,293.5L254.9,281.6L259.1,287.2L270.7,286L276,271.8L294.1,276.3L304.8,270.3L306.8,255.7L306.8,255.7L321.6,260.7L324.5,253.9L348.6,247.7L354,260.1L389,269.4L386.3,286.8L391.5,300L385.9,300Z" fill="#2c2c34" stroke="#474751" stroke-width="0.8"/><path d="M52.9,0L56.2,10.1L63.1,26.2L92.8,33.9L89.8,59.5L77.3,71.2L87,91.4L65,111.8L32.4,111.4L0,119.7L0,0Z" fill="#2c2c34" stroke="#474751" stroke-width="0.8"/><path d="M391.5,300L386.3,286.8L389,269.4L389,269.4L400,270.8L400,300Z" fill="#2c2c34" stroke="#474751" stroke-width="0.8"/><path d="M400,194L383.8,183.4L370,167.3L357.6,158.3L355,142.4L350.7,131L368.4,122.6L377.5,113.1L395.1,105.6L400,99.7L400,194Z" fill="#2c2c34" stroke="#474751" stroke-width="0.8"/><path d="M201.1,136.6L200.9,137.6L201,139.9L201.7,142.1L203.2,144.4L204.5,146L206.1,147.3L209,148.6L210.2,148.8L210.3,150.5L210.1,152.2L209.1,153.2L208.2,154.6L207.5,156.3L206.8,159.6L206.7,161.9L205,160.9L204.1,160.3L202.6,160.1L201.1,160.6L200.1,161.8L198.5,162.1L197.3,161.8L196.5,160.9L195.8,160.4L193.9,159.9L193.1,158.7L193.7,158.1L194.3,157.1L194.7,155.8L195.3,154.6L193.5,151.3L193,150.3L191.5,148.4L191.5,147.5L191.9,146.6L191.8,145.9L192,144.2L193,142.6L193.7,140.7L195,138L197.7,134.8L199.5,135.3L200.4,135.3L201,136.4Z" fill="#b8e653" stroke="#0c0e06" stroke-width="1"/></svg>
