<svg xmlns="http://www.w3.org/2000/svg" viewBox="0 0 300 300"><path fill="#e8e8ea" d="M152.1,37L149.6,46.4L150.4,68.4L157.1,89.8L172.2,111.1L183.9,126.7L199.8,139.2L227.4,151.1L238.2,153.6L239.1,169.2L237.4,186.1L228.2,195.4L219,208.5L212.3,224.7L205.6,255.8L204.8,277.5L188.9,268.8L180.5,262.6L166.3,260.8L152.1,265.7L142.1,276.9L127,280L115.3,276.9L107.8,268.8L101.9,263.9L83.5,258.9L76,247.1L81.8,241.5L86.8,232.2L91,220.3L96.9,208.5L79.3,177.3L75.1,167.4L60.9,149.9L60.9,141.1L64.3,132.4L63.4,125.5L65.1,109.8L75.1,94.8L81.8,76L93.5,50.8L119.5,20L137,25L145.4,25L150.4,35.7Z"/></svg>
