<svg xmlns="http://www.w3.org/2000/svg" viewBox="0 0 400 300"><path d="M167.4,228.7L135.4,229.2L114,225.8L117.9,212.6L141.9,202.8L160.1,208.1L167.8,212.9L165.9,221.2ZM368.2,300L359.1,286.8L341,289.6L335.8,288.1L331.4,294.6L324.9,293.5L320.6,275.2L316.5,265.6L319.9,262.9L333.9,263.9L340.7,257.5L335.6,249.8L323.9,244.6L324.9,239.3L317.9,233.8L307,214.2L310.7,206.1L309,191.7L292,184.4L282.9,188L280.4,180.4L262.1,172.5L256.5,154L255,138.5L246.6,131L254.1,120.8L248.9,89.9L261.3,70.4L258.7,64.5L278.5,45.4L260.2,28.7L283.4,0L400,0L400,300Z" fill="#2c2c34" stroke="#474751" stroke-width="0.8"/><path d="M70.4,0L82.1,24L98.7,43.5L82.8,82.2L64.7,90L58,145L48.2,174.6L27.1,171.6L17.2,196.1L0,197.3L0,0Z" fill="#2c2c34" stroke="#474751" stroke-width="0.8"/><path d="M221.7,300L212.5,298.8L199.1,299.5L198.4,300L181,300L181,300L180.8,295.7L175.5,282.5L185.9,276.6L186,265.2L181.2,254.1L180.5,241.1L197.2,241.3L216.2,230.1L220.2,213.2L234.4,203.4L232.8,189.8L243.4,184.5L262.1,172.5L262.1,172.5L280.4,180.4L282.9,188L292,184.4L309,191.7L310.7,206.1L307,214.2L317.9,233.8L324.9,239.3L323.9,244.6L335.6,249.8L340.7,257.5L333.9,263.9L319.9,262.9L316.5,265.6L320.6,275.2L324.9,293.5L309.9,295.2L305.7,300L221.7,300Z" fill="#2c2c34" stroke="#474751" stroke-width="0.8"/><path d="M198.4,300L199.1,299.5L212.5,298.8L221.7,300L198.4,300ZM305.7,300L309.9,295.2L324.9,293.5L324.9,293.5L331.4,294.6L335.8,288.1L341,289.6L359.1,286.8L368.2,300L305.7,300Z" fill="#2c2c34" stroke="#474751" stroke-width="0.8"/><path d="M26.5,300L27.4,293.8L23.1,278.5L16.8,268.3L21.6,260.5L17.6,245.7L29.4,237L56.6,223.2L78.5,213L95.9,218.2L97.2,225.5L114,225.8L135.4,229.2L167.4,228.7L176.3,232L180.5,241.1L180.5,241.1L181.2,254.1L186,265.2L185.9,276.6L175.5,282.5L180.8,295.7L181,300L26.5,300Z" fill="#2c2c34" stroke="#474751" stroke-width="0.8"/><path d="M232.8,189.8L234.4,203.4L220.2,213.2L216.2,230.1L197.2,241.3L180.5,241.1L176.3,232L167.4,228.7L165.9,221.2L167.8,212.9L160.1,208.1L141.9,202.8L138.2,176.9L158.1,167.3L187.3,169.3L204.4,166.2L206.8,172.7L216.1,174.7Z" fill="#2c2c34" stroke="#474751" stroke-width="0.8"/><path d="M258.7,64.5L261.3,70.4L248.9,89.9L254.1,120.8L246.6,131L232.3,131L217.3,118.9L209.7,114.9L194.9,120.7L196.9,101.3L190.5,105.5L179.5,93.7L178,74.3L199.9,64.8L221.9,59.8L240.7,65.5Z" fill="#2c2c34" stroke="#474751" stroke-width="0.8"/><path d="M0,230.7L9.3,236.2L17.6,245.7L17.6,245.7L21.6,260.5L16.8,268.3L23.1,278.5L27.4,293.8L26.5,300L0,300Z" fill="#2c2c34" stroke="#474751" stroke-width="0.8"/><path d="M283.4,0L260.2,28.7L228.7,31.5L198.1,44.4L169.8,51.7L159.7,32.6L142.8,21.1L145.1,0L283.4,0Z" fill="#2c2c34" stroke="#474751" stroke-width="0.8"/><path d="M234.6,188.1L233.6,188L231.2,187L229.1,185.6L227.9,183.7L225.7,181L224.3,179.7L222,178L218.3,174.6L217,173.8L210.4,172.3L208,171.6L205.8,167.7L205.1,165.4L204.1,165L202.9,165.4L201.6,165.9L198.6,168.6L197.7,169L195.8,169L191.5,169.6L189.5,168.6L186.2,167.6L184.3,167.4L182.7,167.4L175.5,166.4L174.1,167.5L172.8,167.7L171.5,165.9L169.9,165.4L168.1,166L164.9,166.1L161,165.5L156.1,165.1L155.3,165.3L150,167.7L148.6,168L142.7,172L138.1,175.7L137.5,169.7L137.8,157.9L138.5,151.9L141.7,148.5L143.3,145.7L144.3,142.1L144.6,138.7L145.2,136L149.9,127.9L153.7,127.1L158.7,124.8L164.3,122.9L165.4,125.3L165.9,127.1L172.7,133.7L174.4,135.9L177,143.5L183.3,147.2L188.2,146L190.4,144.2L194.3,140.8L196.1,138.3L196.4,135.9L195.7,125.5L194.7,121L195.1,118.2L195.7,118.3L197.4,116.9L202.9,114.4L204,114.3L205.3,113.8L208.8,111.9L209.9,112.9L210.8,114L211.3,114.1L211.6,113.6L211.5,112.9L211.7,112.3L212.7,112.7L216.8,115.8L218.3,116.5L219.4,116.8L220.6,118.2L224,119.3L224.5,120L224.7,121L227.9,125L229.4,127L232.3,128.8L233.5,129.2L238.5,127.3L239.9,126.7L241,126.7L242.2,127.7L244.8,129L247.3,129.4L247.7,129.3L249.8,129.4L250.5,130L251,132.5L253.3,134.5L255.5,136.2L256.1,136.9L256.2,138.4L256.1,140.1L255.8,141L254.9,142L254.1,144.6L254,147L252.7,151.2L253,151.3L255.6,150.6L256.4,151L256.9,151.9L257.1,154.5L258,155.7L258.9,157.6L259.1,159L260.8,160.7L260.9,161.8L261.9,165.8L262.3,168L262.5,169.7L262,171.9L261.6,173.4L261.1,173.3L259.6,173.7L257.2,175.4L253.7,179.6L252.8,180.6L251.9,183.7L251.7,184.1L249.6,184L249,183.8L247,183.9L242.5,183.1L240.8,183.6L238.5,186.9L237.6,187.3L235,187.8Z" fill="#b8e653" stroke="#0c0e06" stroke-width="1"/></svg>
