<svg xmlns="http://www.w3.org/2000/svg" viewBox="0 0 300 300"><path fill="#e8e8ea" d="M221.9,229.3L220,229L214.9,227L210.6,224L208,220.1L203.4,214.6L200.5,211.8L195.9,208.3L188.2,201.1L185.4,199.4L171.6,196.4L166.7,194.9L162.1,186.8L160.7,182L158.5,181.2L156,182.1L153.3,183.1L147.1,188.7L145.2,189.5L141.3,189.5L132.4,190.7L128.2,188.7L121.2,186.5L117.4,186.2L114,186.2L98.9,184L96.2,186.4L93.3,186.9L90.7,183.1L87.3,182.1L83.6,183.4L76.9,183.5L68.8,182.3L58.7,181.4L57.1,181.8L45.9,186.8L43.1,187.4L30.8,195.7L21.2,203.4L20,191.1L20.7,166.4L22.1,154L28.7,146.8L32.1,141.1L34.1,133.6L34.7,126.6L36,120.9L45.8,104.1L53.6,102.3L64,97.6L75.8,93.7L78,98.7L79.1,102.4L93.2,116.1L96.7,120.7L102.2,136.4L115.2,144.3L125.5,141.7L129.9,137.9L138.1,130.8L141.8,125.6L142.6,120.6L141.1,99.1L138.9,89.7L139.7,83.8L141.1,84.1L144.7,81.2L156.1,76L158.3,75.8L160.9,74.7L168.2,70.7L170.6,72.8L172.4,75.2L173.6,75.3L174.1,74.4L173.8,72.8L174.4,71.6L176.4,72.3L184.9,78.9L188,80.4L190.3,80.9L192.9,83.9L200,86.1L200.9,87.6L201.5,89.6L208.1,98L211.1,102.1L217.1,105.9L219.7,106.7L230,102.9L233,101.6L235.3,101.5L237.8,103.6L243.3,106.3L248.3,107.2L249.3,107L253.6,107.2L255,108.4L256,113.6L260.9,117.7L265.4,121.2L266.6,122.7L266.8,125.9L266.6,129.3L266.1,131.2L264.1,133.3L262.5,138.7L262.3,143.8L259.7,152.5L260.3,152.8L265.7,151.2L267.2,152.1L268.4,154L268.8,159.4L270.6,161.9L272.4,165.8L273,168.8L276.5,172.3L276.7,174.6L278.8,182.8L279.6,187.4L280,190.9L279,195.6L278,198.6L277,198.4L273.9,199.3L268.9,202.9L261.6,211.7L259.8,213.6L257.9,220.2L257.5,220.8L253.2,220.6L252,220.4L247.7,220.5L238.4,218.8L234.8,220L230.1,226.7L228.3,227.7L222.8,228.5Z"/></svg>
