<svg xmlns="http://www.w3.org/2000/svg" viewBox="0 0 400 300"><path d="M254.1,300L251.9,298.7L249.1,296.4L248.6,293.9L249.9,290.6L249.9,287.3L245.3,282.3L244.5,278.9L244.5,276.9L241.6,274.6L241.6,269.9L239.9,266.8L237.1,267.2L237.9,264.3L240,260.9L239.1,257.5L241.7,255L240,253.1L242.1,248.1L245.7,242.1L252.5,242.6L252.1,209.8L252.2,206.2L261.3,206.2L261.3,189.3L293,189.3L323.6,189.3L354.9,189.3L357.5,197.7L355.8,199.2L356.9,207.9L359.8,217.8L362.8,219.9L367.1,223L363.1,227.7L357.3,229L354.8,231.6L354.1,237.1L350.7,249.1L351.5,252.3L350.2,259.3L347,267.3L342.3,271.3L338.9,277.5L338.1,280.8L334.3,283L332,291.4L332.1,298.6L332,292.4L330.9,292.2L331.1,288.2L330.1,285.5L326.1,282.3L325.1,276.5L326.1,270.5L322.4,270L321.9,271.8L317.1,272.2L319,274.6L319.7,279.4L315.4,283.8L311.4,289.6L307.4,290.4L300.7,285.7L297.8,287.4L296.9,289.7L292.9,291.2L292.6,292.9L284.7,292.9L283.7,291.2L278,291L275.1,292.3L273,291.6L268.9,287L267.5,284.8L261.8,285.9L259.7,289.6L257.6,296.7L254.9,298.2L252.5,299.1L254.1,300L254.1,300Z" fill="#2c2c34" stroke="#474751" stroke-width="0.8"/><path d="M183,300L182.2,297.7L178.8,296.3L174.1,291.7L175.9,287.9L179.5,288.7L181.7,288.1L186.1,288.2L181.8,280.9L182.1,275.6L181.6,270.2L178.4,265L179.2,261.2L174.1,261L174.1,255.8L170.9,252.8L174.3,242L184.3,234.3L184.8,223.5L187.8,206.6L189.5,203L186.2,200.1L186.1,197.4L183.2,195.2L181.2,182L189.2,177.3L220.7,193.6L252.1,209.8L252.1,209.8L252.5,242.6L245.7,242.1L242.1,248.1L240,253.1L241.7,255L239.1,257.5L240,260.9L237.9,264.3L237.1,267.2L239.9,266.8L241.6,269.9L241.6,274.6L244.5,276.9L244.5,278.9L239.5,280.3L235.5,283.5L229.7,292.3L222.3,296L214.7,295.5L212.5,296.2L213.3,299L211.8,300L183,300Z" fill="#2c2c34" stroke="#474751" stroke-width="0.8"/><path d="M139.4,0L136.8,8.1L133.3,5.9L131.8,0L139.4,0Z" fill="#2c2c34" stroke="#474751" stroke-width="0.8"/><path d="M0,243.6L20.3,243.5L22.1,237.8L20.7,236.8L16.9,200.9L13.1,163.9L25.2,163.7L51.8,182.6L78.4,201.1L80.3,205.1L85.2,207.5L88.9,208.8L88.9,214.1L97.7,213.3L97.7,232.4L93.4,237.9L92.7,243L85.7,244.3L74.9,245L72,247.9L67,248.2L61.9,248.3L59.9,246.7L55.6,247.8L48.2,251.2L46.7,253.8L40.6,257.4L39.5,259.5L36.2,261.2L32.4,260.1L30.3,262.1L29.1,267.6L22.8,274.3L23,277L20.9,280.4L21.4,285.1L18.1,286.3L16.3,287.3L15.1,283.9L12.8,284.8L11.4,284.6L10,286.9L3.9,286.9L1.7,285.7L0.7,286.4L0,285.8L0,243.6Z" fill="#2c2c34" stroke="#474751" stroke-width="0.8"/><path d="M0,145.7L25.2,163.7L13.1,163.9L16.9,200.9L20.7,236.8L22.1,237.8L20.3,243.5L0,243.6L0,145.7Z" fill="#2c2c34" stroke="#474751" stroke-width="0.8"/><path d="M77.1,300L77.2,295L75.6,293.4L75.3,289.5L72.5,286.7L70.1,284.3L71.1,280.1L73.8,279.1L75.4,275.6L79.3,274.9L81,272.5L83.7,270.1L86.5,270.1L92.5,274.7L92.2,277.4L94,282.2L92.4,285.4L93.3,287.6L89.4,292.5L87,295L85.5,300L85.5,300L77.1,300Z" fill="#2c2c34" stroke="#474751" stroke-width="0.8"/><path d="M181.2,182L183.2,195.2L186.1,197.4L186.2,200.1L189.5,203L187.8,206.6L184.8,223.5L184.3,234.3L174.3,242L170.9,252.8L174.1,255.8L174.1,261L179.2,261.2L178.4,265L176.2,265.5L175.9,268.1L174.5,268.3L169.1,259.4L167.3,259.1L161.1,263.6L155,261.2L150.7,260.8L148.5,261.9L143.8,261.7L139.2,265.1L135.2,265.3L125.6,261.1L121.9,263.1L117.8,263L114.9,259.9L107,256.9L98.5,257.8L96.4,259.6L95.3,264.3L93.1,267.5L92.5,274.7L86.5,270.1L83.7,270.1L81,272.5L81.2,266.9L72.1,265.1L71.8,261.2L67.4,255.9L66.4,252.2L67,248.2L72,247.9L74.9,245L85.7,244.3L92.7,243L93.4,237.9L97.7,232.4L97.7,213.3L108.8,209.6L131.7,193L158.7,176.8L171.2,180.5L175.6,185.2Z" fill="#2c2c34" stroke="#474751" stroke-width="0.8"/><path d="M85.5,300L85.5,300L87,295L89.4,292.5L93.3,287.6L92.4,285.4L94,282.2L92.2,277.4L92.5,274.7L93.1,267.5L95.3,264.3L96.4,259.6L98.5,257.8L107,256.9L114.9,259.9L117.8,263L121.9,263.1L125.6,261.1L135.2,265.3L139.2,265.1L143.8,261.7L148.5,261.9L150.7,260.8L155,261.2L161.1,263.6L167.3,259.1L169.1,259.4L174.5,268.3L175.9,268.1L179.1,271.3L178.2,272.8L177.8,275.4L171.1,281.7L169,286.8L167.9,290.9L166.3,292.7L164.7,298.3L162.5,300L85.5,300Z" fill="#2c2c34" stroke="#474751" stroke-width="0.8"/><path d="M162.5,300L164.7,298.3L166.3,292.7L167.9,290.9L169,286.8L171.1,281.7L177.8,275.4L178.2,272.8L179.1,271.3L175.9,268.1L176.2,265.5L178.4,265L178.4,265L181.6,270.2L182.1,275.6L181.8,280.9L186.1,288.2L181.7,288.1L179.5,288.7L175.9,287.9L174.1,291.7L178.8,296.3L182.2,297.7L183,300L162.5,300Z" fill="#2c2c34" stroke="#474751" stroke-width="0.8"/><path d="M68.6,300L67.7,298.6L66.9,292.3L66.9,286.5L63.6,282.4L64.2,279.9L71.1,280.1L71.1,280.1L70.1,284.3L72.5,286.7L75.3,289.5L75.6,293.4L77.2,295L77.1,300L68.6,300Z" fill="#2c2c34" stroke="#474751" stroke-width="0.8"/><path d="M43.4,300L41.7,290.9L40.6,284.9L40.8,280.3L54.5,280L58,280.6L60.6,279.2L64.2,279.9L64.2,279.9L63.6,282.4L66.9,286.5L66.9,292.3L67.7,298.6L68.6,300L43.4,300Z" fill="#2c2c34" stroke="#474751" stroke-width="0.8"/><path d="M0.6,300L2.2,299.5L0.3,293.1L0,292.6L0,286.7L0,286.7L0.7,286.4L0.7,286.4L1.7,285.7L3.9,286.9L10,286.9L11.4,284.6L12.8,284.8L15.1,283.9L16.3,287.3L18.1,286.3L21.4,285.1L24.9,286.8L26.3,289.5L29.9,291.2L32.6,289.2L36.3,288.9L41.7,290.9L43.4,300L0.6,300Z" fill="#2c2c34" stroke="#474751" stroke-width="0.8"/><path d="M0,285.8L0.7,286.4L0,286.7L0,285.8ZM0,292.6L0.3,293.1L2.2,299.5L0.6,300L0,300Z" fill="#2c2c34" stroke="#474751" stroke-width="0.8"/><path d="M21.4,285.1L20.9,280.4L23,277L22.8,274.3L29.1,267.6L30.3,262.1L32.4,260.1L36.2,261.2L39.5,259.5L40.6,257.4L46.7,253.8L48.2,251.2L55.6,247.8L59.9,246.7L61.9,248.3L67,248.2L66.4,252.2L67.4,255.9L71.8,261.2L72.1,265.1L81.2,266.9L81,272.5L79.3,274.9L75.4,275.6L73.8,279.1L71.1,280.1L64.2,279.9L60.6,279.2L58,280.6L54.5,280L40.8,280.3L40.6,284.9L41.7,290.9L36.3,288.9L32.6,289.2L29.9,291.2L26.3,289.5L24.9,286.8Z" fill="#2c2c34" stroke="#474751" stroke-width="0.8"/><path d="M211.8,300L213.3,299L212.5,296.2L214.7,295.5L222.3,296L229.7,292.3L235.5,283.5L239.5,280.3L244.5,278.9L245.3,282.3L249.9,287.3L249.9,290.6L248.6,293.9L249.1,296.4L251.9,298.7L254.1,300L211.8,300Z" fill="#2c2c34" stroke="#474751" stroke-width="0.8"/><path d="M345.9,94L344.5,96.9L341.7,95.6L340,101.8L342,102.9L340,104.2L339.6,106.6L343.4,105.3L343.6,108.9L339.6,123.5L338.8,121.2L334.4,107.8L336.7,104.8L336.2,104.3L338.3,99.9L339.9,92.9L341,90.5L341.2,90.4L343.9,90.4L344.6,88.8L346.7,88.6L346.8,92.5L345.7,93.9Z" fill="#2c2c34" stroke="#474751" stroke-width="0.8"/><path d="M346.7,88.6L344.6,88.8L343.9,90.4L341.2,90.4L344,82.7L348,76L348.1,75.6L351.6,76.1L352.9,79.9L348.6,83.5Z" fill="#2c2c34" stroke="#474751" stroke-width="0.8"/><path d="M343.4,105.3L339.6,106.6L340,104.2L342,102.9L340,101.8L341.7,95.6L344.5,96.9L344.5,102.6Z" fill="#2c2c34" stroke="#474751" stroke-width="0.8"/><path d="M138.8,116.2L135.5,99.6L130.6,95.9L130.5,93.6L124.1,88L123.4,80.9L128.3,75.5L130.1,67.6L128.9,58.3L130.5,53.2L139.1,49.2L144.6,50.4L144.3,55.4L151.1,51.8L151.6,53.7L147.7,58.5L147.6,63L150.3,65.5L149.3,73.8L144.1,78.6L145.6,83.8L149.7,84L151.7,88.5L154.7,90L154.2,97.2L150.4,99.8L148,102.8L142.5,106.4L143.4,110.2L142.7,114.1Z" fill="#2c2c34" stroke="#474751" stroke-width="0.8"/><path d="M0,127.2L8.3,122.8L16.2,121.5L22.6,119L25.7,114.4L34.9,110.8L35.2,104L39.8,103.2L43.4,99.7L53.7,98.2L55.1,94.5L53.1,92.5L50.3,82.5L49.9,76.8L46.9,70.6L54.5,65.3L63,63.6L68,59.6L75.6,56.6L89,54.8L102,54L106,55.5L113.4,51.6L121.9,51.5L125.1,53.8L130.5,53.2L128.9,58.3L130.1,67.6L128.3,75.5L123.4,80.9L124.1,88L130.5,93.6L130.6,95.9L135.5,99.6L138.8,116.2L141.4,124.3L141.8,128.4L140.4,135.8L141,139.9L140,144.7L140.7,150.3L137.6,153.9L142.2,160.3L142.5,164.1L145.3,168.9L149,167.3L155.3,171.4L158.7,176.8L131.7,193L108.8,209.6L97.7,213.3L88.9,214.1L88.9,208.8L85.2,207.5L80.3,205.1L78.4,201.1L51.8,182.6L25.2,163.7L0,145.7L0,127.2Z" fill="#2c2c34" stroke="#474751" stroke-width="0.8"/><path d="M344.5,96.9L345.9,94L354.7,97.7L370.1,87.7L373.3,99.1L371.8,100.5L356,105.2L363.9,114.4L361.3,115.9L360,119L353.9,120.2L352.1,123.5L348.7,126.3L339.9,124.9L339.6,123.5L343.6,108.9L343.4,105.3L344.5,102.6Z" fill="#2c2c34" stroke="#474751" stroke-width="0.8"/><path d="M400,112.6L394.6,108.1L382.8,101.6L373.3,99.1L373.3,99.1L370.1,87.7L387.6,77.8L390.6,66.1L389.9,59L394.2,56.6L398.2,50.4L400,49.6L400,112.6Z" fill="#2c2c34" stroke="#474751" stroke-width="0.8"/><path d="M345.9,94L345.7,93.9L346.8,92.5L346.7,88.6L348.6,83.5L352.9,79.9L351.6,76.1L348.1,75.6L347.4,68.2L349.3,64.2L351.4,62.1L353.5,60L353.9,54.5L356.5,56.4L365.2,53.7L369.4,55.5L375.9,55.5L385,51.8L389.2,52L398.2,50.4L394.2,56.6L389.9,59L390.6,66.1L387.6,77.8L370.1,87.7L354.7,97.7Z" fill="#2c2c34" stroke="#474751" stroke-width="0.8"/><path d="M284.3,0L284.9,1.4L278.2,0L270.1,3.4L270,8.6L262.9,9.6L257.3,5.9L251,8.8L245.1,8.5L244.6,1.5L242.8,0L284.3,0Z" fill="#2c2c34" stroke="#474751" stroke-width="0.8"/><path d="M271.5,69.3L270.5,72.2L259.1,73L259.2,71.4L249.6,69.5L251.1,65.4L255.4,68.7L261.5,68.1L267.4,68.8L267.2,70.5ZM245.1,8.5L251,8.8L257.3,5.9L262.9,9.6L270,8.6L270.1,3.4L273.9,6.2L271.5,12.7L269.6,13.9L264.8,13.6L260.7,12.6L251.2,15.3L256.6,21.2L252.6,22.8L248.2,22.8L244.1,17.5L242.6,19.8L244.3,25.9L248.3,30.7L245.3,33L249.7,37.6L253.6,40.5L253.7,46.2L246.4,43.5L248.8,48.6L243.8,49.7L246.7,58.4L241.5,58.5L235,54.2L232.1,46.3L230.7,39.6L227.6,35L223.6,29.2L223,26.3L226.7,21.3L227.2,17.9L229.7,16.4L229.9,13.7L235.1,12.8L238.1,10.5L242.3,10.7L243.6,8.9Z" fill="#2c2c34" stroke="#474751" stroke-width="0.8"/><path d="M400,49.6L398.2,50.4L389.2,52L385,51.8L375.9,55.5L369.4,55.5L365.2,53.7L356.5,56.4L353.9,54.5L353.5,60L351.4,62.1L349.3,64.2L346.4,59.8L349.4,56.1L344.6,57L338,54.7L332.5,60.4L320.6,61.5L314.2,56.2L305.7,55.9L303.8,59.9L298.4,61.1L290.8,55.9L282.2,56.1L277.5,46.2L271.7,40.7L275.5,32.8L270.5,27.9L279.3,18.1L291.4,17.7L294.8,9.8L309.8,11.1L319.3,4.3L328.5,1.3L341.5,1.1L355.3,8.6L366.6,12.6L375.8,11L382.6,11.9L391.9,6.4L400,6L400,49.6ZM270.1,3.4L278.2,0L284.9,1.4L285.9,5.5L292.8,8.9L291.3,11.5L282,12.1L278.6,15.3L272,20.9L269.5,16L269.6,13.9L271.5,12.7L273.9,6.2Z" fill="#2c2c34" stroke="#474751" stroke-width="0.8"/><path d="M226.1,0L226.5,3.1L225.5,6.6L226.6,11.2L229.9,13.7L229.9,13.7L229.7,16.4L227.2,17.9L226.7,21.3L223,26.3L221.7,25.6L221.5,23.3L217.2,19.8L216.5,14.9L217.1,7.8L218.2,4.5L216.9,2.8L216.4,0L226.1,0Z" fill="#2c2c34" stroke="#474751" stroke-width="0.8"/><path d="M0,1.7L0.8,3.7L5.5,3.7L6.8,2.4L11.4,2.8L13.6,8.1L9.9,10.9L9.9,19L8.6,20.5L8.3,25.4L4.9,26.2L8,32.4L5.8,39L8.6,42L7.5,44.7L4.5,48.5L5.2,51.7L2,54.3L0,53.6L0,1.7Z" fill="#2c2c34" stroke="#474751" stroke-width="0.8"/><path d="M87.8,0L88,2.7L80.5,9.7L70.4,11.9L69.7,15.4L64.9,21.2L61.8,29.5L64.9,35.3L60.3,39.8L58.6,46.3L52.7,48.3L47.1,55.9L37.1,56.1L29.5,55.9L24.6,59.3L21.6,63L17.7,62.2L14.8,58.9L12.6,53.3L5.2,51.7L5.2,51.7L4.5,48.5L7.5,44.7L8.6,42L5.8,39L8,32.4L4.9,26.2L8.3,25.4L8.6,20.5L9.9,19L9.9,10.9L13.6,8.1L11.4,2.8L6.8,2.4L5.5,3.7L0.8,3.7L0,1.7L0,0Z" fill="#2c2c34" stroke="#474751" stroke-width="0.8"/><path d="M181.5,0L183.5,2L189.7,1.9L191.6,4.3L189.4,6.4L196.5,10.2L202.3,13.3L209,18.8L209.9,20.7L208.4,24.4L204,19.6L197.1,17.9L193.8,24.5L199.5,28.3L198.6,33.7L195.3,34.3L191.1,42.9L187.8,43.7L187.8,40.6L189.4,35.2L191.1,33L188.1,27.1L185.7,21.9L182.4,20.6L180.1,16.2L175,14.3L171.6,10.1L165.7,9.4L159.5,4.6L154.7,0L181.5,0ZM180.5,41.3L186.5,40.4L183.7,48.3L184.8,51.4L183.2,56.4L177.1,52.7L173.1,51.7L162.1,46.6L163.2,41.5L172.4,42.4ZM132.8,13.1L136.7,9.9L141.4,17.3L140.3,30.9L136.7,30.2L133.5,33.6L130.5,30.9L130.2,18.5L128.4,12.6Z" fill="#2c2c34" stroke="#474751" stroke-width="0.8"/><path d="M400,6L391.9,6.4L393.1,1.9L392.6,0L400,0Z" fill="#2c2c34" stroke="#474751" stroke-width="0.8"/><path d="M400,268L398.2,267.6L395.5,265L392.3,260.2L388.8,257.6L386.8,254.8L379.9,251.6L374.5,251.5L372.6,249.7L367.9,251.7L363.2,248L360.7,254.1L351.5,252.3L351.5,252.3L350.7,249.1L354.1,237.1L354.8,231.6L357.3,229L363.1,227.7L367.1,223L371.7,232.5L373.9,240.1L378.2,244.1L389,251.8L393.4,256.4L397.6,261.1L400,263.8L400,268Z" fill="#2c2c34" stroke="#474751" stroke-width="0.8"/><path d="M400,232.5L398.2,230.6L397.6,227.3L393.5,224.3L389.3,217.4L387.1,210.5L381.6,204.8L378.1,203.4L372.9,195.4L372,189.5L372.3,184.4L367.8,174.9L364.1,171.5L359.8,169.7L357.2,164.7L357.6,162.8L355.5,158.3L353.2,156.3L350.1,149.8L345.3,142.6L341.3,136.5L337.3,136.5L338.6,131.6L338.9,128.5L339.9,124.9L339.9,124.9L348.7,126.3L352.1,123.5L353.9,120.2L360,119L361.3,115.9L363.9,114.4L356,105.2L371.8,100.5L373.3,99.1L382.8,101.6L394.6,108.1L400,112.6L400,232.5Z" fill="#2c2c34" stroke="#474751" stroke-width="0.8"/><path d="M322.3,70.9L322.9,70.8L324,68.5L329.7,68.6L336.9,65.7L331.5,69.8L332.1,71.6L331.3,71.3L329.8,72L328.6,71.8L328.2,72.2L328,71.2L327.5,70.6L325.9,70.5L323.8,71.4Z" fill="#2c2c34" stroke="#474751" stroke-width="0.8"/><path d="M322.3,70.9L323.8,71.4L325.9,70.5L327.5,70.6L328,71.2L328.2,72.2L328.6,71.8L329.8,72L331.3,71.3L332.1,71.6L332.4,72.4L324.3,76.3L320.4,75.1L318.6,71.2Z" fill="#2c2c34" stroke="#474751" stroke-width="0.8"/><path d="M0,86.6L3.6,84.7L9.5,80.7L14.7,70.8L17.2,64.9L23,64.9L27.8,69L35.3,68.3L43.5,70.5L46.9,70.6L46.9,70.6L49.9,76.8L50.3,82.5L53.1,92.5L55.1,94.5L53.7,98.2L43.4,99.7L39.8,103.2L35.2,104L34.9,110.8L25.7,114.4L22.6,119L16.2,121.5L8.3,122.8L0,127.2L0,86.6Z" fill="#2c2c34" stroke="#474751" stroke-width="0.8"/><path d="M354.9,189.3L323.6,189.3L293,189.3L261.3,189.3L261.3,157.6L261.3,125.9L258.9,118.6L261,113L259.7,109L262.6,104.6L273.1,104.5L280.7,106.9L288.5,109.6L292.2,111.1L298.3,108.1L301.5,105.5L308.5,104.7L314.1,105.9L316.2,110.5L318.1,107.5L324.4,109.6L330.5,110.2L334.4,107.8L338.8,121.2L339.6,123.5L337.4,127.2L335.7,134L333.6,138.6L331.7,140.2L329.1,137.3L325.5,133.3L319.9,120.4L319.1,121.2L322.3,130.7L327.2,139.7L333.2,153.5L336.1,158.3L338.6,163.2L345.7,172.8L344.1,174.3L344.4,179.9L353.6,187.6Z" fill="#2c2c34" stroke="#474751" stroke-width="0.8"/><path d="M331.4,300L332.1,298.6L332,291.4L334.3,283L338.1,280.8L338.9,277.5L342.3,271.3L347,267.3L350.2,259.3L351.5,252.3L360.7,254.1L363.2,248L367.9,251.7L372.6,249.7L374.5,251.5L379.9,251.6L386.8,254.8L388.8,257.6L392.3,260.2L395.5,265L398.2,267.6L395.5,271.2L392.8,275L393.4,277.2L393.5,279.6L397.9,279.8L399.8,279.2L400,279.3L400,283.2L400,283.2L399.9,283.5L400,283.7L400,300Z" fill="#2c2c34" stroke="#474751" stroke-width="0.8"/><path d="M400,279.3L399.8,279.2L397.9,279.8L393.5,279.6L393.4,277.2L392.8,275L395.5,271.2L398.2,267.6L398.2,267.6L400,268L400,279.3Z" fill="#2c2c34" stroke="#474751" stroke-width="0.8"/><path d="M400,283.7L399.9,283.5L400,283.2L400,283.7Z" fill="#2c2c34" stroke="#474751" stroke-width="0.8"/><path d="M242.8,0L244.6,1.5L245.1,8.5L243.6,8.9L242.3,10.7L238.1,10.5L235.1,12.8L229.9,13.7L226.6,11.2L225.5,6.6L226.5,3.1L227.5,3.1L227.9,1L230.6,0L242.8,0Z" fill="#2c2c34" stroke="#474751" stroke-width="0.8"/><path d="M216.4,0L216.9,2.8L215.2,2L213.9,0L216.4,0Z" fill="#2c2c34" stroke="#474751" stroke-width="0.8"/><path d="M230.6,0L227.9,1L227.5,3.1L226.5,3.1L226.5,3.1L226.1,0L230.6,0Z" fill="#2c2c34" stroke="#474751" stroke-width="0.8"/><path d="M254.1,300L252.5,299.1L254.9,298.2L257.6,296.7L259.7,289.6L261.8,285.9L267.5,284.8L268.9,287L273,291.6L275.1,292.3L278,291L283.7,291.2L284.7,292.9L292.6,292.9L292.9,291.2L296.9,289.7L297.8,287.4L300.7,285.7L307.4,290.4L311.4,289.6L315.4,283.8L319.7,279.4L319,274.6L317.1,272.2L321.9,271.8L322.4,270L326.1,270.5L325.1,276.5L326.1,282.3L330.1,285.5L331.1,288.2L330.9,292.2L332,292.4L332.1,298.6L331.4,300L254.1,300Z" fill="#2c2c34" stroke="#474751" stroke-width="0.8"/><path d="M139.1,116.9L140.1,116.4L141.4,115.9L142.1,115.5L142.4,115.1L143.4,113.7L143.9,112.9L144.6,111.9L144.9,111.1L145,110.4L144.9,109.6L144.3,107.6L143.8,105.6L144.2,104.8L144.5,104.5L145.1,103.5L145.3,103.3L146.7,103.1L147.2,102.4L147.6,101.7L147.7,101.3L148.3,100.8L149,100.4L149.5,99.9L150.9,99L152.2,98.2L153.6,97.4L154.8,96.7L155.1,96.2L155,95.7L154.4,94.6L154.4,93.3L154.5,92.2L154.5,91.6L154.8,89.8L154.8,89.5L156,90.1L157.2,90.4L160.9,92.6L162.1,92.9L164.7,93.1L167.7,92.2L168.8,92L170.9,92.9L171.7,93.1L173.2,93.2L175.7,94L176.4,94.2L177.8,95.5L178.6,95.8L183.8,97L184.5,97.7L185.2,99.1L185.3,100.9L185.7,102.1L186.3,103.8L187.1,105L188,105.9L188.9,106.5L191.3,107.4L193.8,107.8L196.4,107.9L200.9,109.1L204.7,110.5L205.7,111.2L207.6,111.9L211.4,115.2L213.5,116.4L214.9,116.6L216.3,116.4L218.6,115.2L219.6,114.6L222,111.7L222.7,110.2L223,109.1L223,108.1L222.7,107.1L222,106.1L221.5,104.7L221.3,102.3L221.6,100.6L222.1,99.6L222.8,98.6L224.8,96.6L226.8,95.2L230.2,93.3L232.2,93.3L233.1,93.1L234.7,91.8L235.4,91.8L236.4,92.1L239.1,92L240.3,92.4L241.8,93.2L243.6,93.7L244.9,94.2L246.2,94.8L246.5,96.4L246.4,96.9L246.4,97.5L247.8,98.6L251.8,99.1L252.6,99.4L253.7,100.3L254.4,100.5L257.2,100.6L258.8,100.5L260.3,100.7L260.9,101L261.5,101.7L262.2,103.3L262.5,103.8L262.2,104.1L261.8,104.6L261.5,105.1L260.7,105.9L260.1,106.8L260.2,108L260.3,109.3L260.7,110.5L261.1,111.9L261,112.8L260.7,113.9L260.3,114.8L259.1,116.7L258.9,117.2L259,117.8L259.7,120.1L259.8,120.8L260.3,122.9L260.7,124.7L261.1,126.1L261.1,126.4L261.1,128.5L261.1,130.5L261.1,132.5L261.1,134.5L261.1,136.5L261.1,138.5L261.1,140.5L261.1,142.5L261.1,144.5L261.1,146.5L261.1,148.5L261.1,150.5L261.1,152.5L261.1,154.5L261.1,156.4L261.1,158.4L261.1,160.4L261.1,162.3L261.1,164.3L261.1,166.2L261.1,168.2L261.1,170.1L261.1,172.1L261.1,174L261.1,175.9L261.1,177.9L261.1,179.8L261.1,181.7L261.1,183.6L261.1,185.5L261.1,187.5L261.1,189.4L261.1,193.6L261.1,197.8L261.1,202L261.1,206.2L261.1,206.2L261.1,206.3L261.1,206.3L261.1,206.3L259.1,206.3L257.2,206.3L255.2,206.3L253.3,206.3L253.3,207.3L253.3,208.4L253.3,209.4L253.3,210.5L249.5,208.5L245.7,206.5L241.9,204.5L238.1,202.5L234.3,200.5L230.6,198.5L226.8,196.5L223,194.5L219.2,192.5L215.5,190.5L211.7,188.5L207.9,186.5L204.1,184.5L200.3,182.4L196.5,180.4L192.8,178.4L190.1,177L187.3,178.3L185.1,179.4L182.2,180.8L178.9,182.7L176.3,184.1L176.2,184.1L176.1,184L173.4,181.6L171.3,179.8L170.4,179.3L166.5,178.3L162.6,177.3L158.5,176.3L157.7,174.8L156.9,173.1L155.7,171L155.1,169.7L154.8,169.5L151.7,168.4L148.4,167.4L146.4,168L146.1,168L145.5,167.6L144.9,167.1L144.7,166.3L143.9,165.3L143.2,163.1L143.1,161.3L142.9,160.6L141.2,158.1L139.6,155.7L138.6,154.2L138.4,153.5L138.5,152.6L138.9,151.8L140.5,150.9L141.8,149.9L142,149.2L142.1,147.3L141.6,146.7L141.3,145.6L141,144L140.9,143L141.6,141.1L142.3,139L141.8,136.7L141.5,132L141.7,128.4L141.5,127L141.4,126.5L140.9,124.8L140.3,123L140.1,122.3L139.3,120.9L138.1,119.1L137.5,118L138.4,117.4Z" fill="#b8e653" stroke="#0c0e06" stroke-width="1"/></svg>
