<svg xmlns="http://www.w3.org/2000/svg" viewBox="0 0 300 300"><path fill="#e8e8ea" d="M23.4,81.2L25.4,80.2L28.2,79.1L29.6,78.2L30.2,77.5L32.3,74.5L33.4,72.9L34.8,70.6L35.5,69.1L35.5,67.6L35.3,65.9L34.1,61.7L33.2,57.6L33.9,56L34.5,55.3L35.8,53.4L36.3,53L39.1,52.3L40.2,51.1L41.1,49.5L41.3,48.6L42.5,47.7L44,46.8L44.9,45.7L47.8,43.9L50.5,42.3L53.6,40.5L56,39.2L56.5,38.1L56.5,37.1L55.2,34.8L55.2,32.1L55.3,29.8L55.4,28.5L56,24.8L56,24.2L58.5,25.5L61.1,26L68.8,30.6L71.1,31.1L76.5,31.7L82.8,29.8L85.2,29.5L89.4,31.2L91.2,31.7L94.3,31.9L99.5,33.5L100.8,34L103.9,36.6L105.4,37.3L116.3,39.7L117.7,41.2L119.3,44.2L119.3,47.8L120.2,50.5L121.5,53.9L123.2,56.3L124.9,58.3L127,59.6L131.8,61.4L137.2,62.1L142.6,62.4L152,64.9L159.8,67.9L161.8,69.4L165.7,70.8L173.6,77.7L178,80L181.1,80.5L183.8,80.1L188.7,77.7L190.7,76.3L195.7,70.3L197.3,67.2L197.9,65L197.7,62.8L197.2,60.7L195.8,58.6L194.8,55.8L194.3,50.8L195,47.3L196,45.2L197.5,43L201.5,38.9L205.7,36L212.9,32.2L217.1,32.1L218.8,31.7L222.3,29L223.7,28.9L225.6,29.6L231.4,29.4L233.9,30.1L236.9,31.8L240.6,32.9L243.3,33.9L246.1,35.2L246.8,38.6L246.5,39.5L246.4,40.8L249.4,43.1L257.8,44.2L259.4,44.8L261.7,46.5L263.2,47.1L269,47.3L272.3,46.9L275.5,47.5L276.7,48.2L277.9,49.5L279.4,52.8L280,53.9L279.4,54.5L278.5,55.6L277.9,56.6L276.3,58.3L275.1,60.1L275.2,62.7L275.5,65.3L276.3,67.9L277.1,70.8L276.9,72.6L276.2,75L275.5,76.9L273,80.8L272.6,81.7L272.8,83.1L274.3,87.7L274.4,89.2L275.3,93.7L276.2,97.4L277,100.2L277.2,101L277.2,105.2L277.2,109.4L277.2,113.6L277.2,117.8L277.2,122L277.2,126.2L277.2,130.3L277.2,134.5L277.2,138.6L277.2,142.8L277.2,146.9L277.2,151L277.2,155.1L277.2,159.3L277.2,163.3L277.2,167.4L277.2,171.5L277.2,175.6L277.2,179.7L277.2,183.7L277.2,187.8L277.2,191.8L277.2,195.9L277.2,199.9L277.2,203.9L277.2,207.9L277.2,211.9L277.2,216L277.2,220L277.2,223.9L277.2,227.9L277.2,231.9L277.2,240.7L277.2,249.5L277.2,258.2L277.2,266.9L277.1,267L277,267L277,267L277,267.1L272.9,267.1L268.9,267.1L264.8,267.1L260.8,267.1L260.8,269.2L260.8,271.4L260.8,273.6L260.8,275.8L252.9,271.6L245,267.5L237.2,263.4L229.3,259.3L221.4,255.1L213.6,250.9L205.7,246.8L197.9,242.6L190,238.4L182.1,234.3L174.3,230.1L166.4,225.9L158.6,221.7L150.7,217.5L142.8,213.2L134.9,209L129.5,206.1L123.6,209L119.1,211.2L113,214.1L106.1,217.9L100.7,220.8L100.5,220.8L100.2,220.8L94.7,215.8L90.4,211.9L88.4,210.9L80.3,208.9L72.2,206.9L63.6,204.8L62.1,201.6L60.3,198.1L57.9,193.7L56.5,190.9L56,190.5L49.5,188.3L42.6,186.2L38.5,187.5L37.8,187.4L36.7,186.6L35.5,185.5L34.9,184L33.2,181.9L31.8,177.2L31.6,173.5L31.3,172.1L27.7,166.8L24.4,162L22.2,158.7L21.8,157.3L22.1,155.5L23,153.8L26.1,151.9L29,149.8L29.4,148.4L29.6,144.4L28.6,143.2L27.9,140.8L27.3,137.6L27.2,135.5L28.5,131.4L29.9,127.1L29,122.3L28.3,112.7L28.7,105L28.3,102.3L28.1,101.1L27.2,97.5L25.9,93.8L25.4,92.4L23.8,89.4L21.3,85.7L20,83.4L21.8,82.2Z"/></svg>
