<svg xmlns="http://www.w3.org/2000/svg" viewBox="0 0 300 300"><path fill="#e8e8ea" d="M256.7,35.9L257.1,37.3L258,38.4L261.4,41L263.3,42.6L263.4,43.2L262.7,44.5L262.5,45.4L263,46.3L264.2,47.5L264.3,48L264,48.7L263.4,49.9L264.7,53.6L264.9,57.1L264.6,59.6L264.6,61L264.7,62.2L265.9,65.1L265.1,69.7L266,72.2L267.2,74.3L267.8,77.9L268.7,79.7L270.3,81.2L271.1,81.7L272.8,83L274,84L274.8,85.5L273.2,86.8L272,88L271.7,89.2L272.2,91.2L272.2,92.2L271.4,92.6L268.3,92.5L265.8,92.4L263,92.3L259,92.1L256.5,92L253.1,91.8L251.9,91.9L248.8,92.4L246.6,92.8L246.3,93L245.5,93.4L245.1,94.9L244.6,96.5L244.2,97.3L237.6,99.7L235,100L233.5,99.7L232.4,99.9L231.5,100.4L231.2,101.2L231.2,102.2L231.4,103.2L232,104.6L232.1,106L231.7,106.9L231.6,107.9L231.4,109L231.8,109.5L232.4,109.6L233,110.1L233.9,110.5L234.7,111.4L234.6,112.6L234,113.2L233.5,113.6L231,113.9L229,114.2L226.5,116.1L223.8,118.1L220.5,119.4L219.1,119.8L216.6,120.7L213.6,122.3L212.2,124.8L210.4,127.8L208.6,129.7L206.1,131.5L203.9,132.2L201,133.1L197.5,133.8L194.9,134L194.1,134.2L191.9,134.2L190.8,134.1L190,134L189.7,134.2L189.6,134.7L189.5,135.7L189.3,136.9L188.7,137.9L188.2,138.3L187.5,138.5L185.7,138.3L184.1,137.9L180.4,137.5L179.6,137.6L179.4,137.7L178.2,138.4L176.4,139.8L175.1,141.1L174.2,141.7L172.1,142L171.1,142.5L167.1,145.6L166.2,146.4L162.1,149.1L160.9,150L159.9,150.9L157.4,152.9L155.9,153.7L155.6,154.3L155.5,155.5L155.5,158.2L155.5,160.8L155.5,164.6L155.5,168.3L155.5,172.6L153.4,172.6L153.4,172.6L153.4,173.4L153.9,174.9L154.1,176.1L153.8,176.8L153.6,177.8L153.7,178.8L154.1,179.8L154.4,180.8L154.4,181.5L153.8,182.1L152.3,182.4L150.5,182.6L149.2,182.6L147.3,182.4L146.1,182.5L145,182.5L144.1,182.6L142.9,183.3L141.6,184.4L140,185.8L139,186.7L137.7,186.8L136.4,186.8L135.2,186.1L134.4,185.8L133.8,185.8L133,186.3L131.9,186.7L131,186.7L129.3,185.9L127.4,184.9L126.3,184.4L124.6,184.2L123,183.8L121.9,184L120.4,184L118.5,184.7L116.9,185.2L115.1,185.8L113.1,186.3L113.6,187.8L114.3,188.7L114.3,189.7L113.9,190.6L113,191.5L111.8,192.6L111.2,193.5L110.6,194.7L110.1,195.4L109.3,196.5L108.5,198L108.3,198.9L108,199.9L107.4,200.2L105.4,200.5L104.2,200.8L103.1,201.2L102.7,201.8L102.6,201.9L102.3,203.1L102.3,203.9L102,204.6L101.5,206.4L100.9,208L100.4,210L100,211.7L99.3,214.5L98.7,217.1L97.9,219.6L97.3,221.1L96.8,222L95.7,223L94.8,223.7L93.7,224.6L92.5,225.4L90.7,226.4L89.3,227.3L88.7,227.7L88.1,228.2L86.9,229.4L86,231.1L85.4,232.5L84.3,234.7L83.5,235.9L83.1,236.5L81.8,237.2L80.4,237.8L78.8,238.4L77.6,239.1L75.8,239.8L74.8,240.5L74,241.5L73.4,242.7L72.6,244.4L71.9,246.3L71.6,247.5L70.7,251.6L70.4,254L70,255.5L69.6,257.4L69.3,260.2L69.3,262.6L69,264L68.8,265L68,266.2L67.4,267L66.3,268.2L65.4,268.9L65.1,269.6L64.1,270.4L63.2,271.8L62.4,272.6L62.5,273.3L62.7,274.4L62.3,275.6L61.7,277L60.5,278.7L59.1,279.5L57.1,279.7L54.3,279.7L52.1,279.5L49.4,279.5L47,279.2L44.8,278.8L42.2,278.7L40.3,278.7L38,279L31.9,279L29.5,279.2L26.1,279.9L25.2,280L26.4,271.9L28.6,267.6L30.2,265.6L32.9,264.6L35.3,260.2L36.2,256.1L37.8,254.2L38.3,252.8L37.7,251.6L39.2,249.4L41,246L41.9,243.9L44,240.5L44.3,239.8L44.1,238.9L43.2,239.7L42.3,240.9L41.2,241.9L41.7,240.7L42.5,238.9L44.4,237.1L47.4,235L53.6,228L56,226.8L58.1,223.9L58.9,221.2L59.1,215.2L59.8,212L61.2,209.5L62.8,205L64.1,203L64.9,198.9L65.8,197.3L67.4,196.5L69.6,194.4L73,193.2L77,190.5L78.9,188.8L80.2,186.4L81.5,181.6L83.9,176.5L85.1,172.7L85.2,172.6L87.3,170.6L88.7,168.1L91.2,166.9L96.2,166.4L103.8,164.3L110.6,161L112.5,159.8L114.6,157.2L117.9,153.8L124.4,149.8L127.3,147.6L131.7,141.9L134.7,137.2L137.2,134.2L138.9,131.5L140.1,128.8L140.8,124.4L140.3,122.6L138.4,119.8L137.2,119.1L136.8,117.7L137.5,115.4L137.5,111.3L137.9,104.8L140,99.6L145.1,92.6L146.1,89.8L146.6,85.2L146.7,83.6L153.1,77.1L156.9,72.1L158.2,70.9L161.5,68.7L173,63.7L179.6,60.1L183.4,57.5L185.7,54.4L192,42.2L198.2,24.8L198.7,22.8L201.5,22.2L203.4,22L205,21.3L206.9,20L208.8,20.5L207.9,21.4L207.9,23.6L209.2,26.1L211.5,28.9L215.7,32.5L219,33.9L223.7,34.8L229.1,33.2L232.1,33.2L233.6,32.5L235.2,33.5L238.3,33.8L241.2,33.3L243.5,31.8L244.9,30.1L245.1,30.9L245.2,31.9L245.6,32.4L246.5,34.6L247,35.4L248.7,35.3L250.1,35.7L253.5,35.5Z"/></svg>
