<svg xmlns="http://www.w3.org/2000/svg" viewBox="0 0 400 300"><path d="M202.8,160.9L202.8,161.4L202.6,163.1L202.6,175.8L177.9,175.4L178.2,196.6L171.1,197.3L169.2,201.5L170.7,213.3L141.2,213.2L139.6,215.9L139.9,212.5L140,212.5L157,211.9L157.9,208.9L161,205.3L163.5,194L173.9,185.1L177.5,174.6L179.8,174L182.3,167.4L188.6,166.5L191.3,167.6L194.7,167.6L197.2,165.7L201.8,165.4L201.6,160.9Z" fill="#2c2c34" stroke="#474751" stroke-width="0.8"/><path d="M383.2,300L380.3,295.1L380.6,290L380.1,284.9L377.1,280L377.8,276.4L373,276.2L373,271.2L369.9,268.3L373.2,258.1L382.7,250.7L383.2,240.4L386.1,224.3L387.7,220.8L384.5,218.1L384.4,215.5L381.6,213.4L379.8,200.8L387.4,196.3L400,202.9L400,300Z" fill="#2c2c34" stroke="#474751" stroke-width="0.8"/><path d="M319.4,0L320.7,5.4L324.8,6.8L324,11.3L317.1,17.2L302.3,14.4L291.3,17.7L290.5,23.9L281.7,25.2L273.3,20.6L270.5,22.8L256.7,18.1L253.7,14.1L257.6,7.9L258.1,0L319.4,0ZM333.8,22.3L338.7,18.4L339.9,27.1L337.4,34.9L334,32.9L332.3,26.1Z" fill="#2c2c34" stroke="#474751" stroke-width="0.8"/><path d="M142.2,274.3L139.1,268.3L135.4,265.5L138.7,264L142.3,258.6L144.1,254.5L146.7,252L150.4,252.7L154.1,251L158.3,250.9L161.9,253.2L166.9,255.3L171.4,261L176.4,266.4L176.8,271.2L178.2,275.7L181,277.8L181.7,280.8L181.3,283.2L180.2,283.7L176.2,283L175.6,283.9L173.9,284.1L168.5,282.2L164.9,282.1L151,281.8L149,282.7L146.5,282.4L142.5,283.7L141.2,277.7L148.1,277.9L149.9,276.8L151.3,276.8L154,275L157.3,276.6L160.6,276.8L163.8,275L162.3,272.8L159.8,274.1L157.5,274L154.5,272.1L152.1,272.3L150.4,274.1Z" fill="#2c2c34" stroke="#474751" stroke-width="0.8"/><path d="M222,300L221.3,297.9L219.1,298.8L217.8,298.7L217,300L209.1,300L209.1,300L208.5,299.7L208.1,300L207.2,300L207.2,300L205.3,298.2L205.7,295.9L204.7,295L203.1,295.8L203.4,293.3L205,291.3L201.9,288.1L201,285.9L199.3,284.3L197.8,284.1L196,285.1L193.6,286.2L191.5,287.8L188.3,287.2L186.2,285.3L184.9,285L183,286L181.8,286L181.3,283.2L181.3,283.2L181.7,280.8L181,277.8L178.2,275.7L176.8,271.2L176.4,266.4L178.9,265L180.2,260.4L182.6,260.2L187.8,262.4L192.1,260.8L195,261.3L196.1,259.6L226.3,259.5L228,254L226.7,253L223.1,218.8L219.4,183.5L230.9,183.4L256.3,201.4L281.7,219L283.5,222.8L288.2,225.1L291.7,226.4L291.8,231.5L300.1,230.7L300.1,248.9L296,254.1L295.4,259L288.7,260.2L278.4,260.9L275.6,263.7L270.8,264L266,264L264.1,262.5L260,263.6L252.9,266.8L251.5,269.3L245.7,272.7L244.6,274.7L241.5,276.3L237.9,275.3L235.8,277.2L234.7,282.5L228.7,288.8L228.9,291.4L226.8,294.7L227.3,299.1L224.9,300L222,300Z" fill="#2c2c34" stroke="#474751" stroke-width="0.8"/><path d="M139.6,215.9L141.2,213.2L170.7,213.3L169.2,201.5L171.1,197.3L178.2,196.6L177.9,175.4L202.6,175.8L202.6,163.1L230.9,183.4L219.4,183.5L223.1,218.8L226.7,253L228,254L226.3,259.5L196.1,259.6L195,261.3L192.1,260.8L187.8,262.4L182.6,260.2L180.2,260.4L178.9,265L176.4,266.4L171.4,261L166.9,255.3L161.9,253.2L158.3,250.9L154.1,251L150.4,252.7L146.7,252L144.1,254.5L143.4,250.3L145.5,246.4L146.5,239L145.7,231.2L144.7,227.2L145.5,223.2L143.5,219.4Z" fill="#2c2c34" stroke="#474751" stroke-width="0.8"/><path d="M275.5,300L273.8,298.4L274.8,294.3L277.4,293.5L278.9,290.1L282.6,289.4L284.2,287.1L286.7,284.8L289.4,284.8L295.2,289.2L294.9,291.8L296.6,296.3L295.1,299.4L295.3,300L275.5,300Z" fill="#2c2c34" stroke="#474751" stroke-width="0.8"/><path d="M379.8,200.8L381.6,213.4L384.4,215.5L384.5,218.1L387.7,220.8L386.1,224.3L383.2,240.4L382.7,250.7L373.2,258.1L369.9,268.3L373,271.2L373,276.2L377.8,276.4L377.1,280L375,280.5L374.7,282.9L373.3,283.1L368.2,274.6L366.5,274.3L360.6,278.6L354.8,276.4L350.7,275.9L348.5,277L344.1,276.8L339.7,280.1L335.8,280.3L326.7,276.3L323.2,278.2L319.3,278L316.5,275.1L308.9,272.2L300.9,273.1L298.9,274.8L297.9,279.3L295.7,282.4L295.2,289.2L289.4,284.8L286.7,284.8L284.2,287.1L284.4,281.8L275.7,280.1L275.5,276.3L271.2,271.3L270.2,267.7L270.8,264L275.6,263.7L278.4,260.9L288.7,260.2L295.4,259L296,254.1L300.1,248.9L300.1,230.7L310.7,227.1L332.5,211.3L358.3,195.8L370.2,199.3L374.4,203.8Z" fill="#2c2c34" stroke="#474751" stroke-width="0.8"/><path d="M295.3,300L295.1,299.4L296.6,296.3L294.9,291.8L295.2,289.2L295.7,282.4L297.9,279.3L298.9,274.8L300.9,273.1L308.9,272.2L316.5,275.1L319.3,278L323.2,278.2L326.7,276.3L335.8,280.3L339.7,280.1L344.1,276.8L348.5,277L350.7,275.9L354.8,276.4L360.6,278.6L366.5,274.3L368.2,274.6L373.3,283.1L374.7,282.9L377.7,286L376.9,287.4L376.5,289.9L370.1,295.8L368.4,300L295.3,300Z" fill="#2c2c34" stroke="#474751" stroke-width="0.8"/><path d="M368.4,300L370.1,295.8L376.5,289.9L376.9,287.4L377.7,286L374.7,282.9L375,280.5L377.1,280L377.1,280L380.1,284.9L380.6,290L380.3,295.1L383.2,300L368.4,300Z" fill="#2c2c34" stroke="#474751" stroke-width="0.8"/><path d="M270.4,300L267.6,296.5L268.2,294.2L274.8,294.3L274.8,294.3L273.8,298.4L275.5,300L270.4,300Z" fill="#2c2c34" stroke="#474751" stroke-width="0.8"/><path d="M245.9,300L245.7,298.9L245.9,294.6L258.9,294.2L262.3,294.8L264.7,293.6L268.2,294.2L268.2,294.2L267.6,296.5L270.4,300L245.9,300Z" fill="#2c2c34" stroke="#474751" stroke-width="0.8"/><path d="M208.1,300L208.5,299.7L209.1,300L208.1,300ZM217,300L217.8,298.7L219.1,298.8L221.3,297.9L222,300L217,300ZM224.9,300L227.3,299.1L229.1,300L224.9,300Z" fill="#2c2c34" stroke="#474751" stroke-width="0.8"/><path d="M158.2,300L157.4,296.9L156.3,295.3L154.1,294L157.5,290.3L159.7,290.4L161.7,289.1L163.4,289.1L164.6,288.1L163.9,285.5L164.8,284.7L164.9,282.1L164.9,282.1L168.5,282.2L173.9,284.1L175.6,283.9L176.2,283L180.2,283.7L181.3,283.2L181.8,286L183,286L184.9,285L186.2,285.3L188.3,287.2L191.5,287.8L193.6,286.2L196,285.1L197.8,284.1L199.3,284.3L201,285.9L201.9,288.1L205,291.3L203.4,293.3L203.1,295.8L204.7,295L205.7,295.9L205.3,298.2L207.2,300L158.2,300Z" fill="#2c2c34" stroke="#474751" stroke-width="0.8"/><path d="M142.5,283.7L146.5,282.4L149,282.7L151,281.8L164.9,282.1L164.8,284.7L163.9,285.5L164.6,288.1L163.4,289.1L161.7,289.1L159.7,290.4L157.5,290.3L154.1,294L150.1,290.8L146.9,290.3L145.2,288.1L145.2,286.9L143,285.3Z" fill="#2c2c34" stroke="#474751" stroke-width="0.8"/><path d="M229.1,300L227.3,299.1L227.3,299.1L226.8,294.7L228.9,291.4L228.7,288.8L234.7,282.5L235.8,277.2L237.9,275.3L241.5,276.3L244.6,274.7L245.7,272.7L251.5,269.3L252.9,266.8L260,263.6L264.1,262.5L266,264L270.8,264L270.2,267.7L271.2,271.3L275.5,276.3L275.7,280.1L284.4,281.8L284.2,287.1L282.6,289.4L278.9,290.1L277.4,293.5L274.8,294.3L268.2,294.2L264.7,293.6L262.3,294.8L258.9,294.2L245.9,294.6L245.7,298.9L245.9,300L229.1,300Z" fill="#2c2c34" stroke="#474751" stroke-width="0.8"/><path d="M142.2,274.3L150.4,274.1L152.1,272.3L154.5,272.1L157.5,274L159.8,274.1L162.3,272.8L163.8,275L160.6,276.8L157.3,276.6L154,275L151.3,276.8L149.9,276.8L148.1,277.9L141.2,277.7Z" fill="#2c2c34" stroke="#474751" stroke-width="0.8"/><path d="M339.3,138.1L336.1,122.3L331.5,118.7L331.4,116.5L325.3,111.2L324.6,104.4L329.3,99.3L331,91.7L329.8,82.8L331.4,78L339.6,74.2L344.8,75.3L344.6,80.1L351,76.6L351.5,78.4L347.8,83L347.7,87.3L350.3,89.7L349.3,97.6L344.4,102.2L345.8,107.2L349.7,107.3L351.6,111.6L354.5,113L354,119.9L350.4,122.5L348,125.3L342.9,128.7L343.7,132.3L343,136Z" fill="#2c2c34" stroke="#474751" stroke-width="0.8"/><path d="M202.6,163.1L202.8,161.4L202.8,160.9L202.7,150.8L214.9,144.4L222.4,143.1L228.5,140.7L231.4,136.4L240.2,132.9L240.5,126.4L244.9,125.6L248.3,122.3L258.1,120.8L259.5,117.4L257.5,115.5L254.9,106L254.5,100.4L251.7,94.6L258.9,89.5L267,87.9L271.8,84.1L279,81.2L291.8,79.5L304.2,78.8L308,80.2L315.1,76.5L323.2,76.4L326.2,78.6L331.4,78L329.8,82.8L331,91.7L329.3,99.3L324.6,104.4L325.3,111.2L331.4,116.5L331.5,118.7L336.1,122.3L339.3,138.1L341.8,145.7L342.2,149.7L340.9,156.7L341.4,160.6L340.5,165.3L341.1,170.5L338.1,174.1L342.6,180.2L342.9,183.7L345.5,188.3L349.1,186.8L355,190.7L358.3,195.8L332.5,211.3L310.7,227.1L300.1,230.7L291.8,231.5L291.7,226.4L288.2,225.1L283.5,222.8L281.7,219L256.3,201.4L230.9,183.4Z" fill="#2c2c34" stroke="#474751" stroke-width="0.8"/><path d="M386.9,0L390.2,4.4L391.9,7.7L395.3,11.6L398.2,13.9L400,16.7L400,20.2L400,20.2L399.8,20L395.4,16.3L388.5,13.2L382.2,5.6L383.7,4.8L380.3,0.3L380.3,0L386.9,0Z" fill="#2c2c34" stroke="#474751" stroke-width="0.8"/><path d="M200,29.9L202.7,27.3L205.8,25.8L207.7,30.8L212.1,30.8L213.4,29.5L217.8,29.9L219.9,34.9L216.4,37.6L216.3,45.4L215.1,46.8L214.8,51.5L211.6,52.3L214.6,58.1L212.5,64.4L215.1,67.3L214.1,69.9L211.3,73.4L211.9,76.6L208.9,79L204.9,77.7L201,78.7L202.2,71.3L201.5,65.5L198.1,64.6L196.3,60.9L196.9,54.6L199.9,51L200.4,47.1L202,41.1L201.8,36.9L200.3,33.3Z" fill="#2c2c34" stroke="#474751" stroke-width="0.8"/><path d="M211.9,76.6L211.3,73.4L214.1,69.9L215.1,67.3L212.5,64.4L214.6,58.1L211.6,52.3L214.8,51.5L215.1,46.8L216.3,45.4L216.4,37.6L219.9,34.9L217.8,29.9L213.4,29.5L212.1,30.8L207.7,30.8L205.8,25.8L202.7,27.3L200,29.9L200.4,22.7L197.3,18.2L207.9,10.7L217.2,12.6L227.3,12.5L235.3,14.3L241.5,13.8L253.7,14.1L256.7,18.1L270.5,22.8L273.3,20.6L281.7,25.2L290.5,23.9L290.9,29.8L283.7,36.5L274.1,38.6L273.4,41.9L268.8,47.4L265.9,55.4L268.8,60.9L264.5,65.2L262.9,71.4L257.2,73.3L251.8,80.6L242.3,80.7L235.1,80.5L230.4,83.8L227.5,87.3L223.8,86.6L221.1,83.4L218.9,78Z" fill="#2c2c34" stroke="#474751" stroke-width="0.8"/><path d="M360.8,0L360.3,1.8L362.7,7.1L369.8,12.4L373.6,20.9L382,29.1L387.8,29.1L389.7,31.3L387.6,33.3L394.3,37L399.8,40L400,40.1L400,45.5L400,45.5L394.9,44.3L391.8,50.6L397.2,54.3L396.3,59.3L393.2,59.9L389.2,68.1L386,68.9L386.1,65.9L387.6,60.8L389.2,58.7L386.3,53.1L384,48.2L380.9,46.9L378.7,42.7L373.8,40.9L370.6,36.9L365,36.2L359.1,31.7L352.2,25.1L347.1,19.2L344.8,8.9L341,7.7L334.9,4.3L331.4,5.7L327.1,10.5L324,11.3L324.8,6.8L320.7,5.4L319.4,0L360.8,0ZM379.1,66.6L384.8,65.8L382.1,73.3L383.2,76.2L381.6,81.1L375.9,77.5L372,76.5L361.6,71.7L362.6,66.8L371.4,67.7ZM333.5,39.7L337.3,36.6L341.8,43.7L340.8,56.7L337.3,56.1L334.3,59.3L331.4,56.7L331.1,44.9L329.4,39.2Z" fill="#2c2c34" stroke="#474751" stroke-width="0.8"/><path d="M400,202.9L387.4,196.3L379.8,200.8L374.4,203.8L370.2,199.3L358.3,195.8L355,190.7L349.1,186.8L345.5,188.3L342.9,183.7L342.6,180.2L338.1,174.1L341.1,170.5L340.5,165.3L341.4,160.6L340.9,156.7L342.2,149.7L341.8,145.7L339.3,138.1L343,136L343.7,132.3L342.9,128.7L348,125.3L350.4,122.5L354,119.9L354.5,113L363.3,116.1L366.5,115.3L372.8,116.8L382.7,120.8L386.2,128.7L393,130.4L400,132.8L400,202.9Z" fill="#2c2c34" stroke="#474751" stroke-width="0.8"/><path d="M400,16.7L398.2,13.9L395.3,11.6L391.9,7.7L390.2,4.4L386.9,0L400,0Z" fill="#2c2c34" stroke="#474751" stroke-width="0.8"/><path d="M251.3,95.1L251.5,95.8L251.9,96.4L253.5,97.6L254.5,98.4L254.5,98.6L254.2,99.3L254.1,99.7L254.3,100.2L254.9,100.7L254.9,101L254.8,101.3L254.5,101.9L255.1,103.6L255.2,105.3L255.1,106.5L255.1,107.2L255.2,107.8L255.7,109.2L255.4,111.4L255.8,112.6L256.3,113.6L256.6,115.4L257.1,116.2L257.8,116.9L258.2,117.2L259,117.8L259.6,118.3L260,119L259.3,119.6L258.7,120.2L258.5,120.8L258.8,121.7L258.8,122.2L258.4,122.4L256.9,122.3L255.7,122.3L254.3,122.3L252.4,122.2L251.2,122.1L249.6,122L249,122.1L247.5,122.3L246.4,122.5L246.3,122.6L245.9,122.8L245.7,123.5L245.5,124.3L245.3,124.7L242.1,125.8L240.9,126L240.2,125.8L239.6,125.9L239.2,126.2L239,126.5L239,127L239.1,127.5L239.4,128.2L239.5,128.8L239.3,129.3L239.2,129.8L239.2,130.3L239.3,130.5L239.6,130.6L239.9,130.8L240.3,131L240.7,131.4L240.7,132L240.4,132.3L240.1,132.5L238.9,132.6L238,132.8L236.8,133.7L235.5,134.7L233.9,135.3L233.2,135.5L232,135.9L230.6,136.7L229.9,137.9L229,139.3L228.2,140.2L227,141.1L225.9,141.5L224.5,141.9L222.8,142.2L221.6,142.3L221.2,142.4L220.2,142.4L219.6,142.3L219.2,142.3L219.1,142.4L219,142.6L219,143.1L218.9,143.7L218.6,144.2L218.3,144.4L218,144.5L217.2,144.4L216.4,144.2L214.6,144L214.3,144L214.1,144.1L213.5,144.4L212.7,145.1L212.1,145.7L211.7,146L210.6,146.2L210.2,146.4L208.2,147.9L207.8,148.3L205.8,149.6L205.2,150L204.8,150.4L203.6,151.4L202.8,151.8L202.7,152.1L202.6,152.7L202.6,153.9L202.6,155.2L202.6,157L202.6,158.8L202.6,160.9L201.6,160.9L201.6,160.9L201.7,161.2L201.9,162L202,162.5L201.8,162.9L201.7,163.4L201.8,163.8L202,164.3L202.1,164.8L202.1,165.2L201.8,165.4L201.1,165.6L200.2,165.7L199.6,165.7L198.7,165.6L198.1,165.6L197.6,165.6L197.2,165.7L196.6,166L196,166.5L195.2,167.2L194.7,167.6L194.1,167.7L193.5,167.7L192.9,167.4L192.5,167.2L192.2,167.2L191.8,167.4L191.3,167.6L190.8,167.6L190.1,167.3L189.1,166.8L188.6,166.5L187.8,166.4L187,166.3L186.5,166.3L185.8,166.3L184.9,166.7L184.1,166.9L183.2,167.2L182.3,167.4L182.5,168.2L182.8,168.6L182.8,169.1L182.7,169.5L182.2,169.9L181.7,170.5L181.4,170.9L181,171.5L180.8,171.8L180.4,172.4L180.1,173.1L180,173.5L179.8,174L179.5,174.1L178.6,174.3L178,174.4L177.5,174.6L177.2,174.9L177.2,174.9L177.1,175.5L177.1,175.9L176.9,176.3L176.7,177.1L176.4,177.9L176.2,178.9L175.9,179.7L175.6,181L175.3,182.3L175,183.4L174.7,184.2L174.4,184.6L173.9,185.1L173.4,185.4L172.9,185.8L172.3,186.2L171.5,186.7L170.8,187.2L170.5,187.4L170.2,187.6L169.7,188.2L169.2,189L169,189.6L168.4,190.7L168,191.3L167.8,191.6L167.2,191.9L166.5,192.2L165.8,192.5L165.2,192.9L164.3,193.2L163.8,193.5L163.5,194L163.2,194.6L162.8,195.4L162.5,196.3L162.3,196.9L161.9,198.8L161.7,200L161.6,200.7L161.3,201.6L161.2,203L161.2,204.1L161,204.8L161,205.3L160.6,205.9L160.3,206.3L159.8,206.8L159.3,207.2L159.2,207.5L158.7,207.9L158.2,208.5L157.9,208.9L158,209.3L158,209.8L157.8,210.4L157.6,211.1L157,211.9L156.3,212.3L155.3,212.3L154,212.3L152.9,212.3L151.6,212.3L150.5,212.1L149.4,211.9L148.2,211.9L147.3,211.9L146.1,212L143.2,212L142.1,212.1L140.4,212.4L140,212.5L140.6,208.6L141.6,206.5L142.4,205.6L143.7,205.1L144.9,203L145.3,201L146.1,200.1L146.3,199.4L146,198.9L146.7,197.8L147.6,196.2L148,195.1L149,193.5L149.2,193.2L149.1,192.8L148.7,193.1L148.2,193.7L147.7,194.2L147.9,193.6L148.3,192.7L149.3,191.9L150.7,190.9L153.7,187.5L154.8,186.9L155.8,185.5L156.2,184.2L156.3,181.4L156.7,179.8L157.3,178.6L158.1,176.5L158.7,175.5L159.1,173.5L159.5,172.7L160.3,172.4L161.4,171.4L163,170.7L164.9,169.4L165.8,168.7L166.4,167.5L167.1,165.2L168.2,162.8L168.8,160.9L168.8,160.9L169.8,159.9L170.5,158.7L171.7,158.1L174.2,157.9L177.8,156.9L181,155.3L182,154.7L183,153.5L184.6,151.8L187.7,149.9L189.1,148.8L191.2,146.1L192.7,143.9L193.9,142.4L194.7,141.1L195.2,139.8L195.6,137.7L195.3,136.8L194.4,135.5L193.8,135.1L193.7,134.5L194,133.3L194,131.4L194.2,128.3L195.2,125.7L197.6,122.4L198.1,121L198.4,118.9L198.4,118.1L201.5,115L203.3,112.6L203.9,112L205.5,110.9L211.1,108.5L214.2,106.8L216.1,105.5L217.2,104L220.2,98.2L223.2,89.8L223.4,88.8L224.7,88.6L225.7,88.5L226.4,88.1L227.4,87.5L228.3,87.8L227.8,88.2L227.8,89.2L228.4,90.4L229.6,91.8L231.6,93.5L233.2,94.2L235.4,94.6L238,93.9L239.5,93.8L240.2,93.5L241,94L242.5,94.2L243.9,93.9L244.9,93.2L245.6,92.4L245.7,92.8L245.8,93.2L246,93.5L246.4,94.5L246.6,94.9L247.4,94.9L248.1,95.1L249.7,95Z" fill="#b8e653" stroke="#0c0e06" stroke-width="1"/></svg>
