<svg xmlns="http://www.w3.org/2000/svg" viewBox="0 0 400 300"><path d="M203.2,0L201.5,14.6L194.7,20.8L183.6,17.5L184.4,26.7L166.6,46.8L166.1,62.8L177.8,57.3L186.2,72.8L185.2,82.7L192.4,95.8L183.9,106.4L190.2,133L203.5,137.3L200.7,152L178.5,171L130.3,161.9L94.8,172.8L92,192.8L63.6,197.1L36.1,182.1L27.2,189.3L0,180.1L0,0ZM232.7,187.7L248.5,175L252.6,203.4L244.5,228.7L233.4,222.1L227.8,200Z" fill="#2c2c34" stroke="#474751" stroke-width="0.8"/><path d="M400,48.7L388.9,49.2L376.5,57.2L356.4,54.5L321.4,45.3L315.9,32.9L291.8,39.1L289,45.9L274.2,40.8L261.7,39.9L250.7,33.3L254.4,24.5L253.5,18.1L260.8,16.1L273.2,26.1L276.6,16.6L298.2,18.1L315.7,11.6L327.4,12.7L335,20.1L337.3,14L335.2,0L400,0Z" fill="#2c2c34" stroke="#474751" stroke-width="0.8"/><path d="M335.2,0L337.3,14L335,20.1L327.4,12.7L315.7,11.6L298.2,18.1L276.6,16.6L273.2,26.1L260.8,16.1L253.5,18.1L227.3,7L222.3,14.9L201.5,14.6L203.2,0L335.2,0Z" fill="#2c2c34" stroke="#474751" stroke-width="0.8"/><path d="M400,145.7L389.8,133.4L394.8,130.8L383.6,116.4L383.1,104.7L367.4,99.2L359.9,114.2L352.7,102.6L353.2,90.5L354.1,90L371.2,91.2L375.7,85.3L383.9,91L393.5,91.7L393.4,81.9L400,79.2L400,145.7Z" fill="#2c2c34" stroke="#474751" stroke-width="0.8"/><path d="M253.5,18.1L254.4,24.5L250.7,33.3L261.7,39.9L274.2,40.8L272.2,55.4L261.5,61.4L243.4,56.9L238.1,71.2L226.5,72.3L222.3,66.7L208.5,78.6L196.7,80.3L186.2,72.8L177.8,57.3L166.1,62.8L166.6,46.8L184.4,26.7L183.6,17.5L194.7,20.8L201.5,14.6L222.3,14.9L227.3,7Z" fill="#2c2c34" stroke="#474751" stroke-width="0.8"/><path d="M0,180.1L27.2,189.3L36.1,182.1L63.6,197.1L92,192.8L93.3,212L70.2,233.7L38.8,240.6L36.6,251.5L21.6,269.2L12.2,295.1L14.8,300L0,300Z" fill="#2c2c34" stroke="#474751" stroke-width="0.8"/><path d="M400,281L395.6,271.7L385.5,267.7L378.3,253.8L362.6,248L352,234.9L333.9,232.9L314.8,218.1L292.4,196.7L275.8,177.6L268.3,144.3L256.1,140.4L236.2,129.1L225,133.8L210.8,149.5L200.7,152L203.5,137.3L190.2,133L183.9,106.4L192.4,95.8L185.2,82.7L186.2,72.8L196.7,80.3L208.5,78.6L222.3,66.7L226.5,72.3L238.1,71.2L243.4,56.9L261.5,61.4L272.2,55.4L274.2,40.8L274.2,40.8L289,45.9L291.8,39.1L315.9,32.9L321.4,45.3L356.4,54.5L353.7,71.9L359.6,86.8L340.1,81.7L320.2,94.1L321.6,111.3L318.6,121.1L326.6,138.5L349.5,155.6L361.9,183.3L389,209.9L400,209.8L400,281ZM225.6,300L225,299.5L224,261.1L218.4,242.7L231.8,244.3L231.8,244.3L244.1,234.3L258.7,257.2L255.2,299.3L244.2,297.3L241.6,300L225.6,300Z" fill="#2c2c34" stroke="#474751" stroke-width="0.8"/><path d="M400,79.2L393.4,81.9L393.5,91.7L383.9,91L375.7,85.3L371.2,91.2L354.1,90L359.6,86.8L353.7,71.9L356.4,54.5L356.4,54.5L376.5,57.2L388.9,49.2L400,48.7L400,79.2Z" fill="#2c2c34" stroke="#474751" stroke-width="0.8"/><path d="M200.8,150.1L199.3,150.7L199.4,150L199.7,149.6L200.2,149.4L200.7,149.7Z" fill="#b8e653" stroke="#0c0e06" stroke-width="1"/><circle cx="200" cy="150" r="6" fill="#b8e653" stroke="#0c0e06" stroke-width="1"/></svg>
