<svg xmlns="http://www.w3.org/2000/svg" viewBox="0 0 300 300"><path fill="#e8e8ea" d="M47.2,39.3L48.4,36.2L60.5,28.1L63.6,29.3L70,29.8L82.8,29.5L89.2,24L93.2,25.5L96.3,23.1L101.6,20L102.4,20.8L103.1,21.2L111.3,22.6L117.4,25.5L121.6,30L125.9,32.9L130.3,33.9L132.6,36.1L133.2,39.6L137.2,41.3L145,41.1L148.4,43.4L147.2,48L148,49.4L150.7,47.8L152.8,49.2L153.9,52.6L155.2,54.1L159.2,48.9L163.2,49.4L173.3,51.6L178.8,62.5L182.2,66.4L185.1,67.9L188.7,66.2L192.1,64.3L194,65.2L198,72.3L199,81.7L199,85.5L197.6,91.8L195.5,98.6L193.8,103L194.4,106.6L195.9,109.5L198.4,110.5L206.2,116.4L208.9,120.6L213.4,123.6L216.5,123.7L218.2,125.5L218.9,127.6L218.2,132.9L216.5,137.8L216.8,140.9L219.5,144.7L219.9,149.2L220.1,151.8L221.6,154.1L228.8,158.8L238.1,163.4L240.4,167.5L241.8,172.5L241.4,181L240.8,188.2L252.8,198.1L251.6,199.9L249.7,201.9L238.1,203.4L235.7,204.3L230.7,196.9L227.9,195.9L225.6,198.7L222.7,200.2L219.1,199.4L215.3,197.1L213.4,195.4L211.9,195.3L209.6,196.9L206.4,196.2L204.5,194.4L201.6,200.8L199.7,202.1L198.6,201.8L198.4,191.2L197.6,189.5L195.2,189.2L189.5,191.8L184.1,195.2L182.4,198L182.6,203.3L183.2,209.6L187,219L184.9,223.1L183.4,229.7L177.7,235.7L171.2,239.2L170.8,246.4L167.2,251.2L160.9,256.2L156.9,262L157.9,266.1L158.1,269.8L157.5,272.5L157.3,274.5L155.6,275.4L146.1,276.1L143.6,277.2L140.4,280L137.5,274.8L134.5,270.1L132.4,267.7L133.2,266.5L135.8,265.2L137.5,263.6L137.2,258.1L136,251.6L134.7,248.6L134.7,243.8L133.9,236.2L134.9,222.2L139.8,204.6L142.3,195.7L141,190.9L142.1,179.6L140,174L136.8,166.6L132.2,150.6L126.5,145.1L119.5,139L116.4,134.4L114.5,129.3L110.2,124.2L105.4,119.5L99.7,107.8L96.7,102.5L95.7,101L89.2,93.5L85.8,86.7L83.9,81.1L83,76L78.4,65.6L74.2,57.9L70.2,52.4L68.3,48.4L63.6,43.6L56.9,39.6L52.7,39Z"/></svg>
