<svg xmlns="http://www.w3.org/2000/svg" viewBox="0 0 400 300"><path d="M400,37.2L399.4,37.4L368.4,24L368.9,16.4L360.4,0L400,0ZM321.4,193.2L327.8,184.5L345.3,192.1L353.1,193.4L356.3,200.4L360,201.4L360.1,204.5L372.1,212.8L397.1,210.8L392.2,223.1L365.5,229.2L332.3,249L318.8,242L324.1,225.9L297.4,215.7L301.8,209.1L325.1,197.4Z" fill="#2c2c34" stroke="#474751" stroke-width="0.8"/><path d="M360.4,0L368.9,16.4L368.4,24L399.4,37.4L400,37.2L400,167.7L400,167.7L379.7,169.4L358.7,182.6L360,201.4L356.3,200.4L353.1,193.4L345.3,192.1L327.8,184.5L321.4,193.2L318.1,189.4L280.1,180.5L278.4,167.2L255.8,171.6L246.7,191L227.8,216.9L216.7,211L205.2,216.6L194.3,210.1L200.5,206.4L204.8,194.3L211.5,183.1L209.7,176.8L214.8,173.9L217.2,178.8L231.6,179.9L238.1,177.2L233.5,173.6L235.2,168.3L226.7,159.3L223.2,144.3L214.3,138.3L216,126L205,116.2L194.9,114.9L177,103.4L160.7,107L154.9,112.4L144.5,112.4L138.5,121L120.4,124.5L112.1,130.1L100.7,121.2L85.1,121L69.9,117L59.4,124.9L57.7,115L44.1,105L48.9,90.1L55.7,80.4L61,82.7L54.7,65.8L76.9,34.3L89,29.8L91.6,19L84.7,0L360.4,0Z" fill="#2c2c34" stroke="#474751" stroke-width="0.8"/><path d="M84.7,0L91.6,19L89,29.8L76.9,34.3L54.7,65.8L61,82.7L55.7,80.4L32.5,66.1L14.9,71.4L3.3,67.5L0,69.4L0,0Z" fill="#2c2c34" stroke="#474751" stroke-width="0.8"/><path d="M0,106.9L4.7,99.9L12.8,97.6L38.9,108.8L44.1,105L44.1,105L57.7,115L59.4,124.9L44.4,132.4L32.9,156.9L18.1,181.1L0,187.2L0,106.9Z" fill="#2c2c34" stroke="#474751" stroke-width="0.8"/><path d="M0,187.2L18.1,181.1L32.9,156.9L44.4,132.4L59.4,124.9L69.9,117L85.1,121L100.7,121.2L112.1,130.1L120.4,124.5L138.5,121L144.5,112.4L154.9,112.4L162.3,116L169.9,126.8L177.7,142.1L191.8,163.5L192.6,179.1L189.9,194.1L194.3,210.1L194.3,210.1L205.2,216.6L216.7,211L227.8,216.9L228.4,225.8L216.5,233.3L209.1,230L202.2,271.2L187.9,267.7L170.1,255.3L141.4,263.3L129.2,271.9L93.3,270.1L74.6,264.8L65.1,267.3L58.1,253.3L53.6,247.4L59.3,241.6L53.2,237.3L45.6,245L31.3,235L29.4,220.8L14.5,212.6L11.8,201.5L0,189.3L0,187.2Z" fill="#2c2c34" stroke="#474751" stroke-width="0.8"/><path d="M56.2,300L56.8,298.4L66.1,287.9L54.2,273.4L52.1,261L58.1,253.3L58.1,253.3L65.1,267.3L74.6,264.8L93.3,270.1L129.2,271.9L141.4,263.3L170.1,255.3L187.9,267.7L202.2,271.2L189.6,285.2L184.1,300L56.2,300Z" fill="#2c2c34" stroke="#474751" stroke-width="0.8"/><path d="M0,69.4L3.3,67.5L14.9,71.4L32.5,66.1L55.7,80.4L55.7,80.4L48.9,90.1L44.1,105L38.9,108.8L12.8,97.6L4.7,99.9L0,106.9L0,69.4Z" fill="#2c2c34" stroke="#474751" stroke-width="0.8"/><path d="M0,189.3L11.8,201.5L14.5,212.6L29.4,220.8L31.3,235L45.6,245L53.2,237.3L59.3,241.6L53.6,247.4L58.1,253.3L52.1,261L54.2,273.4L66.1,287.9L56.8,298.4L56.2,300L28.6,300L28.6,300L28.3,299.6L24.3,298L21.1,292.7L16.5,290.7L13,285.9L8.6,287.8L5.3,298.9L2.5,300L0.3,300L0.3,300L1.4,298.4L0,297.4L0,189.3Z" fill="#2c2c34" stroke="#474751" stroke-width="0.8"/><path d="M0,297.4L1.4,298.4L0.3,300L0,300Z" fill="#2c2c34" stroke="#474751" stroke-width="0.8"/><path d="M2.5,300L5.3,298.9L8.6,287.8L13,285.9L16.5,290.7L21.1,292.7L24.3,298L28.3,299.6L28.6,300L2.5,300Z" fill="#2c2c34" stroke="#474751" stroke-width="0.8"/><path d="M154.9,111L155.4,109.8L160.4,106.4L161.8,106.9L164.4,107.1L169.8,107L172.4,104.7L174.1,105.3L175.4,104.3L177.6,103L177.9,103.3L178.2,103.5L181.6,104.1L184.2,105.3L186,107.1L187.7,108.4L189.6,108.8L190.5,109.7L190.8,111.2L192.5,111.9L195.7,111.8L197.1,112.8L196.6,114.7L197,115.2L198.1,114.6L199,115.2L199.4,116.6L199.9,117.2L201.6,115L203.3,115.2L207.5,116.2L209.8,120.7L211.2,122.3L212.4,123L213.9,122.3L215.3,121.5L216.1,121.8L217.8,124.8L218.2,128.7L218.2,130.3L217.6,133L216.7,135.8L216,137.6L216.3,139.1L216.9,140.3L218,140.7L221.2,143.2L222.4,144.9L224.2,146.2L225.5,146.3L226.2,147L226.5,147.9L226.2,150.1L225.5,152.1L225.6,153.4L226.8,155L226.9,156.9L227,158L227.7,158.9L230.6,160.9L234.5,162.8L235.5,164.5L236.1,166.6L235.9,170.1L235.7,173.1L240.7,177.3L240.1,178L239.3,178.9L234.5,179.5L233.5,179.9L231.4,176.8L230.3,176.3L229.3,177.5L228.1,178.1L226.6,177.8L225,176.8L224.2,176.2L223.6,176.1L222.6,176.8L221.3,176.5L220.5,175.7L219.3,178.4L218.5,178.9L218.1,178.8L218,174.4L217.6,173.7L216.7,173.6L214.3,174.6L212,176L211.3,177.2L211.4,179.4L211.6,182.1L213.2,186L212.3,187.7L211.7,190.5L209.4,193L206.6,194.4L206.5,197.4L205,199.4L202.3,201.5L200.6,203.9L201.1,205.6L201.2,207.2L200.9,208.3L200.8,209.1L200.1,209.5L196.2,209.8L195.1,210.3L193.8,211.4L192.6,209.3L191.3,207.3L190.4,206.3L190.8,205.8L191.8,205.3L192.6,204.6L192.5,202.3L191.9,199.6L191.4,198.3L191.4,196.3L191.1,193.1L191.5,187.3L193.5,180L194.6,176.3L194,174.3L194.5,169.6L193.6,167.2L192.3,164.1L190.4,157.5L188,155.2L185.1,152.6L183.8,150.7L183,148.6L181.2,146.4L179.2,144.5L176.8,139.6L175.6,137.4L175.1,136.8L172.4,133.6L171,130.8L170.2,128.5L169.9,126.3L167.9,122L166.2,118.8L164.5,116.5L163.7,114.9L161.8,112.8L158.9,111.2L157.2,110.9Z" fill="#b8e653" stroke="#0c0e06" stroke-width="1"/></svg>
