<svg xmlns="http://www.w3.org/2000/svg" viewBox="0 0 300 300"><path fill="#e8e8ea" d="M127.2,21.6L126.8,23.6L127.6,29L130.1,34.8L139.1,40.2L152.3,51.4L167.9,72.1L175.3,78.1L181.9,79.4L194.2,88.1L203.2,90L212.7,92.4L238.6,110.1L250.1,115.2L257.9,122L259.1,128.2L258.7,132L243.9,136.6L241,143.3L234,142.5L225.4,142.5L222.5,146.8L226.6,154.1L229.5,162.5L227.5,174L226.6,175.7L224.6,175.1L212.3,181.8L203.2,185.1L195,186.7L191.3,183.5L189.2,178.9L189.7,166.2L188,161.9L185.5,160L179.8,163L173.2,172.7L167.1,184L158,196.1L150.6,207.3L142.8,221.5L137.1,233.3L142.8,240L146.5,249.3L145.3,256.3L146.5,260.3L144.5,272.5L144,280L126.4,267.8L119,250.7L93.1,221.5L63.1,201.7L61.4,198.5L63.1,194.7L64.7,191.8L58.6,191.5L54,193.9L49.9,193.1L45.4,185.9L40.9,179.4L40.9,173.5L42.9,173L45.8,170.5L52,164.4L53.2,160.8L52.8,156L44.2,139.8L42.9,129.5L41.7,110.1L43.4,105.5L46.6,103.3L62.3,100.9L61.8,85.7L62.7,81L66,74.8L68,69.1L76.6,60.6L88.2,50.8L93.1,50.6L97.6,51.9L102.5,60.4L108.3,59.3L109.1,49.2L102.1,35.8L98.4,27.4L99.7,22.5L102.1,20L108.3,21.6L114,24.1L118.2,22.5L123.9,21.1Z"/></svg>
