<svg xmlns="http://www.w3.org/2000/svg" viewBox="0 0 400 300"><path d="M129.3,0L125.8,9.9L121.1,15.9L99.8,16.8L87.4,24.8L67.3,22.1L32.3,12.9L26.8,0.5L2.7,6.7L0,13.3L0,0Z" fill="#2c2c34" stroke="#474751" stroke-width="0.8"/><path d="M260.6,0L258.4,4.8L243.6,29L224,35.6L208.8,34.1L190,43.3L180.9,48.6L160.7,41.8L142.4,26.7L134.7,22.3L129.9,10.3L125.8,9.9L129.3,0L260.6,0Z" fill="#2c2c34" stroke="#474751" stroke-width="0.8"/><path d="M400,106.3L395.6,103.2L366.8,111.2L354.7,119.8L318.8,118L300.1,112.7L290.6,115.2L283.5,101.2L279,95.3L284.8,89.5L278.7,85.2L271,93L256.8,83L254.8,68.7L240,60.5L237.3,49.4L224,35.6L243.6,29L258.4,4.8L260.6,0L400,0Z" fill="#2c2c34" stroke="#474751" stroke-width="0.8"/><path d="M400,172.9L393,171.4L368.1,181.7L367.8,198L345.6,201.1L328.4,189.7L308.9,198.7L290.7,197.7L289,176.1L276.7,165.5L280.8,160.8L278.2,156.9L282.3,146.3L291.5,135.8L279.7,121.3L277.5,108.9L283.5,101.2L283.5,101.2L290.6,115.2L300.1,112.7L318.8,118L354.7,119.8L366.8,111.2L395.6,103.2L400,106.3L400,172.9Z" fill="#2c2c34" stroke="#474751" stroke-width="0.8"/><path d="M247.2,300L246,294.1L236.5,279.7L223.9,261.8L222.3,252.8L233.6,237.3L235.1,226.9L243.1,222.3L243.5,213.8L259.5,210.9L268.8,203.8L282,204.5L286.1,198.8L290.7,197.7L290.7,197.7L308.9,198.7L328.4,189.7L345.6,201.1L367.8,198L368.1,181.7L379.9,190.4L372.4,210.7L366.6,214.4L351.7,213.5L338.9,210.4L309.4,218.8L326.3,236.9L313.9,242L300.3,242.1L287.4,225.6L282.8,232.6L288.3,251.7L300.5,266.5L291.3,273.4L304.9,287.9L316.9,296.9L317,300L247.2,300Z" fill="#2c2c34" stroke="#474751" stroke-width="0.8"/><path d="M375.8,300L373,297.2L384.9,273L369.4,257.9L396.5,227.4L400,227.3L400,300ZM400,213.3L394.4,218.7L374,236L366.3,221L366.6,214.4L372.4,210.7L379.9,190.4L368.1,181.7L368.1,181.7L393,171.4L400,172.9L400,213.3Z" fill="#2c2c34" stroke="#474751" stroke-width="0.8"/><path d="M243.5,213.8L243.1,222.3L235.1,226.9L233.6,237.3L222.3,252.8L218.1,250.6L217.6,243.6L204.1,232.8L202,217.5L204,195.4L207.3,185.2L203.2,180.1L201.6,169.6L212.2,153.3L213.8,159.5L220.4,156.6L225.6,165.5L231.4,168.9L233,180.8L230,191.9L233.4,205.9Z" fill="#2c2c34" stroke="#474751" stroke-width="0.8"/><path d="M134.7,22.3L142.4,26.7L160.7,41.8L180.9,48.6L190,43.3L195.9,56.9L203.7,66.8L194.3,79.8L183.2,72.1L166.4,72.6L145.3,66.9L133.9,67.6L128.6,74.8L119.9,66.9L114.7,81.2L126.7,97.3L132,107.8L143.2,120.5L152.5,127.9L161.8,142L183.4,154.6L180.7,160.2L157.7,148L143.6,135.9L121.2,125.9L100.7,101L105.7,98.4L94.5,84L94,72.3L78.3,66.9L70.8,81.8L63.6,70.2L64.1,58.2L65,57.6L82.1,58.8L86.6,52.9L94.8,58.6L104.4,59.3L104.3,49.5L112.9,46L115.2,31.7Z" fill="#2c2c34" stroke="#474751" stroke-width="0.8"/><path d="M0,13.3L2.7,6.7L26.8,0.5L32.3,12.9L67.3,22.1L64.6,39.5L70.5,54.4L51,49.4L31.1,61.8L32.5,78.9L29.5,88.7L37.5,106.1L60.4,123.2L72.8,150.9L99.9,177.5L119,177.4L125,184.6L118.1,191.1L140.1,202.9L158,212.7L178.9,229.4L181.5,235.5L176.9,246.8L163.4,231.9L142.1,226.7L131.9,247.3L149.5,259.1L146.6,275.6L136.4,277.4L125.4,300L113.2,300L113.2,300L113.2,297L118.2,280.3L123.5,273.6L114,255.3L106.5,239.3L96.4,235.3L89.2,221.4L73.5,215.6L62.9,202.6L44.8,200.5L25.7,185.7L3.4,164.4L0,160.5L0,13.3ZM37,300L37,299.8L39.3,300L37,300ZM85,300L90.6,299.2L90.6,299.2L109.2,296.6L107.9,300L85,300Z" fill="#2c2c34" stroke="#474751" stroke-width="0.8"/><path d="M67.3,22.1L87.4,24.8L99.8,16.8L121.1,15.9L125.8,9.9L129.9,10.3L134.7,22.3L115.2,31.7L112.9,46L104.3,49.5L104.4,59.3L94.8,58.6L86.6,52.9L82.1,58.8L65,57.6L70.5,54.4L64.6,39.5Z" fill="#2c2c34" stroke="#474751" stroke-width="0.8"/><path d="M183.4,154.6L161.8,142L152.5,127.9L143.2,120.5L132,107.8L126.7,97.3L114.7,81.2L119.9,66.9L128.6,74.8L133.9,67.6L145.3,66.9L166.4,72.6L183.2,72.1L194.3,79.8L203.1,79.7L197.1,94.8L208.8,107.9L205.2,123.8L199.5,125.4L194.9,128.4L187,136.2Z" fill="#2c2c34" stroke="#474751" stroke-width="0.8"/><path d="M276.7,165.5L289,176.1L290.7,197.7L286.1,198.8L282,204.5L268.8,203.8L259.5,210.9L243.5,213.8L233.4,205.9L230,191.9L233,180.8L236.1,181.1L237.3,174.4L251.7,169.3L257.1,168L265.5,166Z" fill="#2c2c34" stroke="#474751" stroke-width="0.8"/><path d="M190,43.3L208.8,34.1L224,35.6L237.3,49.4L240,60.5L254.8,68.7L256.8,83L271,93L278.7,85.2L284.8,89.5L279,95.3L283.5,101.2L277.5,108.9L279.7,121.3L291.5,135.8L282.3,146.3L278.2,156.9L280.8,160.8L276.7,165.5L265.5,166L257.1,168L256.3,165.5L259.2,161.6L262,153.5L258.5,153.7L253.8,147.5L249.7,145.9L246.6,140.6L242,138.6L238.5,133.8L234.1,135.7L230.7,146.8L224.9,149.2L226.9,146.3L217.5,139.4L209.5,135.8L206,131.1L199.5,125.4L205.2,123.8L208.8,107.9L197.1,94.8L203.1,79.7L194.3,79.8L203.7,66.8L195.9,56.9Z" fill="#2c2c34" stroke="#474751" stroke-width="0.8"/><path d="M233,180.8L231.4,168.9L225.6,165.5L220.4,156.6L224.9,149.2L230.7,146.8L234.1,135.7L238.5,133.8L242,138.6L246.6,140.6L249.7,145.9L253.8,147.5L258.5,153.7L262,153.5L259.2,161.6L256.3,165.5L257.1,168L251.7,169.3L237.3,174.4L236.1,181.1Z" fill="#2c2c34" stroke="#474751" stroke-width="0.8"/><path d="M198.9,125.1L198.8,125.5L199,126.6L199.5,127.9L201.4,129L204.3,131.4L207.6,135.8L209.2,137.1L210.6,137.4L213.2,139.3L215.2,139.7L217.2,140.2L222.7,144L225.2,145.1L226.9,146.5L227.1,147.9L227,148.7L223.9,149.7L223.3,151.1L221.8,150.9L219.9,150.9L219.3,151.8L220.2,153.4L220.8,155.2L220.4,157.7L220.2,158L219.7,157.9L217.1,159.3L215.2,160L213.4,160.4L212.6,159.7L212.2,158.7L212.3,156L211.9,155.1L211.4,154.7L210.2,155.3L208.8,157.4L207.4,159.8L205.5,162.4L203.9,164.8L202.2,167.8L201,170.4L202.2,171.8L203,173.8L202.8,175.3L203,176.1L202.6,178.8L202.5,180.4L198.7,177.7L197.1,174.1L191.6,167.8L185.2,163.6L184.8,162.9L185.2,162.1L185.5,161.5L184.2,161.4L183.2,161.9L182.4,161.8L181.4,160.2L180.4,158.8L180.4,157.6L180.9,157.4L181.5,156.9L182.8,155.6L183.1,154.9L183,153.8L181.1,150.3L180.9,148.2L180.6,144L181,143L181.7,142.5L185,142L184.9,138.8L185.1,137.8L185.8,136.4L186.2,135.2L188.1,133.4L190.5,131.3L191.6,131.2L192.6,131.5L193.6,133.3L194.9,133.1L195,131L193.5,128.1L192.7,126.3L193,125.2L193.5,124.7L194.9,125.1L196.1,125.6L197,125.2L198.2,124.9Z" fill="#b8e653" stroke="#0c0e06" stroke-width="1"/></svg>
