<svg xmlns="http://www.w3.org/2000/svg" viewBox="0 0 400 300"><path d="M105.3,0L119.8,8.2L120.4,13.2L133,22L128.9,32.8L129.4,37.8L135,41L135.3,43.3L132.9,48.6L133.4,51.3L132.8,55.5L135.9,61.1L139.5,69.8L142.7,71.8L135.7,76.9L126.2,80.4L120.9,80.3L117.8,82.9L111.7,83.2L109.4,84.3L98.9,81.8L92.3,82.5L89.9,70.4L86.9,66.3L85.2,63.8L76.6,62.1L71.7,59.5L66.1,58L62.6,56.5L58.9,54.3L54.2,43.1L49.2,38.2L47.4,33.1L48.3,28.5L46.7,20.5L50.3,20L53.5,16.9L56.9,12.3L59.1,10.5L59,7.6L57.1,5.6L56.6,2.2L59.1,1.1L59.2,0L105.3,0Z" fill="#2c2c34" stroke="#474751" stroke-width="0.8"/><path d="M46,0L46,0.4L44.8,1.1L44,5.9L46.2,9.9L46.7,20.5L46.7,20.5L48.3,28.5L47.4,33.1L49.2,38.2L54.2,43.1L58.9,54.3L55.5,53.4L43.8,54.8L41.4,55.9L38.9,61.6L40.9,65.5L39.3,76L38.3,84.9L40.6,86.5L46.7,90L49.1,88.4L49.8,98.1L43.2,98L39.6,93L36.3,89.2L29.6,88L27.7,83.3L22.3,86.1L15.3,84.9L12.4,80.8L6.9,80L2.7,80.2L2.3,77.4L0,77.3L0,0Z" fill="#2c2c34" stroke="#474751" stroke-width="0.8"/><path d="M147.2,0L145.5,2.9L142.2,3.6L141,9.7L138.2,13.3L136.5,19.1L133,22L133,22L120.4,13.2L119.8,8.2L105.3,0L147.2,0Z" fill="#2c2c34" stroke="#474751" stroke-width="0.8"/><path d="M43.5,245.8L39.7,242.7L35.6,244.8L30.9,248.7L26.2,255.1L32.8,262.8L35.9,261.8L37.5,258.6L42.4,257L43.9,253.7L46.6,248.8ZM0,212.3L1.9,213.5L9,213.9L14.6,211.7L15.5,208.7L17,204L21.8,203.3L24.4,199.7L27.3,193.3L35.1,186.2L47.5,179.2L51.1,179.3L55.3,180.9L58.2,179.8L62.9,180.7L67.1,194.1L69.4,200.9L67.8,211.7L68.5,215.1L64.1,213.4L61.6,214.1L60.8,216.9L58.4,220.6L58.5,223.9L63.7,229.2L68.8,228.2L70.6,223.8L77.2,223.9L75,231.1L74,239.3L71.8,243.8L65.8,248.8L64.1,250.3L60.4,255.4L57.9,260.6L53,267.9L43.1,278.5L36.9,284.7L30.3,289.5L21.2,293.5L16.7,294.1L15.6,297L10.3,295.4L5.9,297.4L0,296.2L0,212.3Z" fill="#2c2c34" stroke="#474751" stroke-width="0.8"/><path d="M43.5,245.8L46.6,248.8L43.9,253.7L42.4,257L37.5,258.6L35.9,261.8L32.8,262.8L26.2,255.1L30.9,248.7L35.6,244.8L39.7,242.7Z" fill="#2c2c34" stroke="#474751" stroke-width="0.8"/><path d="M62.9,180.7L58.2,179.8L55.3,180.9L51.1,179.3L47.5,179.2L41.9,175L35.2,173.5L32.6,167.6L32.6,164.3L28.8,163.3L18.9,153.1L16.2,147.7L14.4,146.1L11.1,138.7L20.8,139.7L23.7,140.8L26.6,140.6L31.5,134.6L39.1,127.1L42.2,126.4L43.3,123.2L48.3,119.6L54.9,118.4L55.4,121.8L62.8,121.6L66.8,123.5L68.7,125.7L72.8,126.4L77.4,129.3L77.4,140.9L75.7,147.3L75.3,154.2L76.7,157L75.8,162.5L74.4,163.3L72.1,170.1Z" fill="#2c2c34" stroke="#474751" stroke-width="0.8"/><path d="M0,141.3L1.9,140.1L4.6,140.1L9.5,138L11.1,138.7L14.4,146.1L16.2,147.7L18.9,153.1L28.8,163.3L32.6,164.3L32.6,167.6L35.2,173.5L41.9,175L47.5,179.2L47.5,179.2L35.1,186.2L27.3,193.3L24.4,199.7L21.8,203.3L17,204L15.5,208.7L14.6,211.7L9,213.9L1.9,213.5L0,212.3L0,141.3Z" fill="#2c2c34" stroke="#474751" stroke-width="0.8"/><path d="M0,134.8L0.3,134.7L6,135.2L9.4,137.3L9.5,138L4.6,140.1L1.9,140.1L0,141.3L0,134.8Z" fill="#2c2c34" stroke="#474751" stroke-width="0.8"/><path d="M0,94.9L0.2,94.9L0,94.3L0,90.3L0,90.3L0.7,88.5L0,86.6L0,80.7L0,80.7L0.2,80L0,79.5L0,77.3L0,77.3L2.3,77.4L2.7,80.2L6.9,80L12.4,80.8L15.3,84.9L22.3,86.1L27.7,83.3L29.6,88L36.3,89.2L39.6,93L43.2,98L49.8,98.1L49.1,88.4L46.7,90L40.6,86.5L38.3,84.9L39.3,76L40.9,65.5L38.9,61.6L41.4,55.9L43.8,54.8L55.5,53.4L58.9,54.3L58.9,54.3L62.6,56.5L66.1,58L71.7,59.5L76.6,62.1L80.7,66.1L83,73.6L81.5,76L79.7,83.3L81.4,90.7L78.7,93.8L76,102.1L80.6,104.5L54.1,111.9L54.9,118.4L48.3,119.6L43.3,123.2L42.2,126.4L39.1,127.1L31.5,134.6L26.6,140.6L23.7,140.8L20.8,139.7L11.1,138.7L9.5,138L9.4,137.3L6,135.2L0.3,134.7L0,134.8L0,94.9Z" fill="#2c2c34" stroke="#474751" stroke-width="0.8"/><path d="M76.6,62.1L85.2,63.8L86.9,66.3L89.9,70.4L92.3,82.5L89.9,89.3L92.3,101L95.4,100.8L98.5,103.7L102.2,110.3L103,121.9L99.2,123.8L96.5,130.1L90.8,124.5L90.1,118.1L92,113.9L91.5,110.3L88,108L85.6,108.8L80.6,104.5L76,102.1L78.7,93.8L81.4,90.7L79.7,83.3L81.5,76L83,73.6L80.7,66.1Z" fill="#2c2c34" stroke="#474751" stroke-width="0.8"/><path d="M92.3,82.5L98.9,81.8L109.4,84.3L111.7,83.2L117.8,82.9L120.9,80.3L126.2,80.4L135.7,76.9L142.7,71.8L144.1,75.8L143.8,84.6L144.8,92.5L145.2,106.6L146.7,111L144.1,117.5L140.7,123.8L135.1,129.4L127.1,132.9L117.3,137.3L107.4,147.2L104.1,148.9L97.9,155.5L94.3,157.6L93.6,164.3L97.8,171.4L99.5,176.9L99.6,179.7L101.1,179.2L100.9,188.5L99.5,192.9L101.5,194.6L100.2,198.5L96.6,202L89.4,205.2L78.8,210.4L75,214L75.8,218.1L78,218.8L77.2,223.9L70.6,223.8L69.8,219.5L68.5,215.1L67.8,211.7L69.4,200.9L67.1,194.1L62.9,180.7L72.1,170.1L74.4,163.3L75.8,162.5L76.7,157L75.3,154.2L75.7,147.3L77.4,140.9L77.4,129.3L72.8,126.4L68.7,125.7L66.8,123.5L62.8,121.6L55.4,121.8L54.9,118.4L54.1,111.9L80.6,104.5L85.6,108.8L88,108L91.5,110.3L92,113.9L90.1,118.1L90.8,124.5L96.5,130.1L99.2,123.8L103,121.9L102.2,110.3L98.5,103.7L95.4,100.8L92.3,101L89.9,89.3Z" fill="#2c2c34" stroke="#474751" stroke-width="0.8"/><path d="M70.6,223.8L68.8,228.2L63.7,229.2L58.5,223.9L58.4,220.6L60.8,216.9L61.6,214.1L64.1,213.4L68.5,215.1L69.8,219.5Z" fill="#2c2c34" stroke="#474751" stroke-width="0.8"/><path d="M0,79.5L0.2,80L0,80.7L0,79.5ZM0,86.6L0.7,88.5L0,90.3L0,86.6ZM0,94.3L0.2,94.9L0,94.9L0,94.3Z" fill="#2c2c34" stroke="#474751" stroke-width="0.8"/><path d="M56.6,2.2L57.1,5.6L59,7.6L59.1,10.5L56.9,12.3L53.5,16.9L50.3,20L46.7,20.5L46.2,9.9L44,5.9L49.3,6.6L52,1.6Z" fill="#2c2c34" stroke="#474751" stroke-width="0.8"/><path d="M59.2,0L59.1,1.1L56.6,2.2L52,1.6L49.3,6.6L44,5.9L44.8,1.1L46,0.4L46,0L59.2,0Z" fill="#2c2c34" stroke="#474751" stroke-width="0.8"/><path d="M223.3,90.7L223.8,91.6L224.2,92.5L225.7,94.7L226.3,95.5L226.8,96.4L227.1,98.2L228,100.9L228.9,105.1L229.2,109.4L229.5,111.4L230.1,113.2L231.2,115.1L231.6,117.3L230.9,119.5L229.9,121.5L229.7,121.9L229.2,122.5L229,122.5L228.2,121.9L227.6,121L226.7,119L226.4,117.9L226.1,117.7L225.1,117.8L224.4,118.5L224.3,118.9L224.5,120.1L224.7,121.1L224.9,122.2L224.9,123.5L225.1,123.9L225.5,124.3L225.9,125.2L226,127.3L225.7,128.3L225,129.3L225.1,129.8L225.4,130.3L225.1,130.6L224.2,131L223.8,131.3L223.3,132.3L222.6,134.2L222.5,135.1L223,138.1L222.8,140.2L221.8,144.2L221.2,146.1L220.4,148.4L219.2,151.5L217.9,155.3L216.9,159.2L216.1,161.6L215.2,163.9L214,168L213,172.2L211.4,176.9L209.3,182.1L209.1,182.8L208.6,185.4L208.2,187.7L207.6,190.1L206.4,193.9L206.3,195L206,196.2L204.9,198.6L204.4,199.5L204.1,200.4L203.9,201.6L203.5,202.8L202.7,204.9L201.5,206.8L200.6,207.4L198.8,208.4L197.8,208.6L195.8,208.7L193.8,209.2L191.7,210.3L189.7,211.5L188.9,212.1L188.1,212.4L185.5,212.5L184.7,212.2L182,210.2L181,209.9L179,209.6L178.5,209.4L177.9,209.2L177.2,208.1L175.6,207.2L175.2,206.9L175,206.3L174.8,205.7L174.4,204.9L174.1,203.5L173.6,202.5L172.2,200.8L172,200.2L171.9,198.4L172,197.2L171.8,194.9L172,193.8L172.5,192.9L172.3,191.8L171.7,190.8L171.6,189.6L171.1,188.6L169.6,186.8L169.3,185.9L169,184.9L168.5,182L168.4,181L168.5,178.8L168.7,177.7L169.1,177L169.2,176.4L169.4,175.9L169.8,175.5L170,175L170.5,172.3L171.3,171.7L172.3,171.4L173.2,170.6L173.7,169.7L174.1,167.7L175.5,165.8L175.9,164.7L177,163.2L177.9,161L178.2,160L178.5,158.9L178.7,156.6L178.9,155.5L178.8,154.3L178.3,153.2L177,151L177,150.7L177.1,149.1L176.9,148L176.5,146.8L175.9,145.8L175.3,143.8L175,140.5L175,139.3L174.9,138.3L174.4,137.3L174.7,135.6L178.6,129.3L178.7,128.5L178.6,126.6L178.6,125.5L178.8,125.1L179.1,124.8L179.7,124.7L182.9,124.4L183.3,124.2L184.1,123.7L185.1,122.7L185.6,122.4L186,122.5L186.3,122.9L186.6,123.2L187.9,122.7L188.4,122.7L188.9,122.8L189.1,122.4L189.2,121.8L189.4,121.4L189.8,121.2L191.4,121L192.4,120.9L193.8,120.5L194.1,120.5L195.1,122L195.5,122.1L195.9,122.2L196.3,121.9L195.4,121.1L195.3,120.7L195.3,120.2L195.8,119.2L196.6,118.4L198.3,117.2L200.1,115.8L200.6,115.8L201.1,116L201.4,117.6L201.4,117.9L201.7,117.9L202,117.7L202.3,117L202.3,116.5L202.1,116L202,115.5L202,115.1L202.9,114.2L203.6,113.3L203.9,112.2L204.2,111.6L205,111.1L205.2,111.2L205.4,111.6L205.5,112.1L205.3,112.6L205,113.1L204.9,113.7L205.3,113.8L205.7,113.7L206.3,112.5L207,111.4L207.4,110.9L207.9,110.5L208.8,110.6L209.6,110.8L208.2,109.7L207.9,108.1L209.5,105.3L209.5,104.8L209.7,104.6L209.8,104.4L209,103.5L208.9,103L209,102.3L209.4,101.7L209.7,101.3L210.2,101.1L210.7,101.3L211.5,102.1L212.1,102.2L212.9,101.5L213.4,100.6L214.3,100L215.3,99.6L216.9,98.1L217.9,95.2L217.9,94.3L217.7,93.3L217.4,92.2L216.8,91L216.9,90.7L217.8,90.9L218.1,90.7L218.9,89.6L220.4,87.5L221,87.5L221.4,87.9L221.5,88.5L221.8,88.9L222.8,89.9ZM212.9,99L212.9,99.3L211.8,99.2L211.6,98.1L212.1,98L212.3,97.6L212.6,97.5L213,98.5ZM226.8,131.1L225.8,132.8L226.1,131.3L227.2,129.3L227.6,129.2Z" fill="#b8e653" stroke="#0c0e06" stroke-width="1"/></svg>
