<svg xmlns="http://www.w3.org/2000/svg" viewBox="0 0 300 300"><path fill="#e8e8ea" d="M198.6,26.6L199.4,28.5L200.4,30.4L203.4,34.9L204.7,36.6L205.8,38.5L206.3,42.2L208.3,48L210.1,56.6L210.7,65.5L211.3,69.6L212.6,73.5L215,77.5L215.7,81.9L214.3,86.5L212.2,90.8L211.7,91.6L210.7,92.8L210.3,92.7L208.6,91.6L207.3,89.8L205.6,85.4L205,83.3L204.3,82.9L202.3,83.1L200.8,84.5L200.6,85.3L200.9,87.8L201.4,89.9L201.7,92.2L201.7,95L202.3,95.8L203.1,96.5L203.9,98.3L204.1,102.7L203.5,104.9L202.1,106.8L202.2,107.9L202.7,109L202.2,109.6L200.3,110.4L199.6,111.2L198.6,113.1L196.9,117.1L196.7,119.1L197.8,125.3L197.4,129.6L195.3,138L194.2,142L192.5,146.7L189.8,153L187.3,161L185.1,169.1L183.4,174.1L181.6,178.9L179.1,187.5L176.9,196.3L173.8,205.9L169.4,216.7L168.9,218.1L168,223.7L167,228.5L165.8,233.3L163.4,241.2L163.1,243.7L162.5,246L160.2,251L159.1,252.9L158.5,254.9L158.1,257.4L157.4,259.8L155.6,264.3L153,268.1L151.3,269.5L147.5,271.5L145.5,271.9L141.3,272L137.1,273.1L132.7,275.4L128.6,277.9L127,279.2L125.2,279.9L119.8,280L118.1,279.4L112.6,275.2L110.5,274.5L106.4,274L105.2,273.6L104.1,273L102.5,270.9L99.2,269L98.4,268.4L98,267.2L97.6,265.8L96.8,264.2L96.1,261.3L95.1,259.3L92.1,255.7L91.8,254.5L91.6,250.7L91.7,248.1L91.4,243.4L91.7,241.2L92.7,239.2L92.3,237L91.2,234.8L90.8,232.4L90,230.3L86.8,226.5L86.1,224.6L85.6,222.6L84.4,216.5L84.3,214.4L84.5,210L84.9,207.7L85.7,206.1L85.9,204.9L86.4,203.9L87.1,203L87.6,202.1L88.7,196.4L90.2,195.1L92.4,194.4L94.2,192.9L95.2,190.9L96.2,186.8L99,182.8L99.9,180.6L102.2,177.4L104.1,172.9L104.7,170.7L105.2,168.5L105.7,163.7L106,161.3L106,159L104.8,156.6L102.2,152.2L102.1,151.4L102.3,148.1L102,145.8L101.1,143.4L99.8,141.2L98.6,137.1L97.9,130.3L98,127.8L97.7,125.7L96.8,123.6L97.4,120L105.5,106.8L105.8,105.3L105.4,101.3L105.6,99L105.9,98.1L106.5,97.6L107.9,97.4L114.3,96.8L115.2,96.4L116.8,95.3L119.1,93.2L120,92.6L121,92.8L121.5,93.7L122.2,94.2L124.8,93.3L125.9,93.2L126.9,93.4L127.4,92.5L127.6,91.3L128,90.5L128.8,90L132.1,89.7L134.3,89.4L137.1,88.6L137.7,88.7L139.9,91.7L140.6,92L141.5,92.1L142.2,91.5L140.4,90L140.1,89.1L140.2,88.1L141.2,86L142.8,84.3L146.5,81.8L150.2,79L151.3,78.8L152.3,79.2L153,82.6L152.9,83.1L153.5,83.2L154.2,82.8L154.8,81.4L154.8,80.3L154.4,79.2L154.1,78.3L154.1,77.5L156,75.5L157.5,73.6L158.2,71.3L158.8,70.2L160.4,69.1L160.8,69.2L161.2,70.2L161.4,71.2L161,72.2L160.4,73.2L160.2,74.5L161.1,74.8L162,74.5L163.2,72.1L164.6,69.8L165.4,68.6L166.5,67.8L168.2,68L169.9,68.5L167.1,66.1L166.5,62.8L169.7,57.1L169.8,55.9L170.3,55.6L170.5,55.1L168.8,53.2L168.4,52.2L168.7,50.8L169.5,49.5L170.3,48.6L171.3,48.3L172.2,48.8L174,50.4L175.2,50.6L176.8,49.1L177.9,47.2L179.8,45.9L181.9,45.1L185.1,42.1L187.2,35.9L187.3,34.1L186.8,32L186.1,29.9L184.9,27.3L185.2,26.7L187,27L187.6,26.7L189.4,24.4L192.5,20L193.6,20L194.4,20.8L194.8,22L195.4,22.9L197.5,25Z"/></svg>
