<svg xmlns="http://www.w3.org/2000/svg" viewBox="0 0 300 300"><path fill="#e8e8ea" d="M133.2,62.5L139,63.3L151.1,59.9L158.8,54.9L162.8,54.2L167.9,52.3L175.3,52.5L183,54.7L192.5,52L202,47.5L206,48.5L210.1,52.5L212.6,53.5L228.4,74L236.8,82.1L247,88.5L258.8,93L262.8,97.5L270.1,119.1L273.8,127.2L278.5,129.8L279.6,132.2L280,135.2L274.5,150.4L272.3,184.3L270.8,186.9L265,186.9L257.3,187.6L254.4,190.2L251.4,208.3L239,213.4L228,216.5L218.5,215.8L202,211.6L196.5,211.1L191.7,213.4L177.1,214.6L170.5,217.9L155.1,238.9L139.7,246.4L134.6,249.9L122.5,245.3L117,244.8L109,250.2L91,250.9L86.3,251.8L72.4,252.5L71.6,249.7L69.1,245.5L62.8,243.4L49.7,245L46.4,242L40.9,224L36.8,221.2L32.1,215.1L24,195.6L23.7,186.9L24.4,179.4L20,161.9L22.6,157.4L26.6,154.6L26.6,147.5L25.5,136.7L30.6,115.3L31.7,113.9L33.2,114.9L44.9,116.5L47.8,113.9L50,109.6L50.4,94L53.3,86.8L81.9,73L90.3,72.6L96.9,79L102,83L105,82.8L106.1,78.7L109.7,70.9L115.6,66.4Z"/></svg>
