<svg xmlns="http://www.w3.org/2000/svg" viewBox="0 0 400 300"><path d="M400,16.8L393.6,25.5L382.5,19.5L371,25.1L360.1,18.7L366.3,14.9L370.6,2.9L372.3,0L400,0Z" fill="#2c2c34" stroke="#474751" stroke-width="0.8"/><path d="M138.4,0L130.3,4L121.2,9.2L101.1,2.5L98.1,0L138.4,0Z" fill="#2c2c34" stroke="#474751" stroke-width="0.8"/><path d="M372.3,0L370.6,2.9L366.3,14.9L360.1,18.7L355.7,2.7L356.2,0L372.3,0Z" fill="#2c2c34" stroke="#474751" stroke-width="0.8"/><path d="M356.2,0L355.7,2.7L360.1,18.7L360.1,18.7L371,25.1L382.5,19.5L393.6,25.5L394.2,34.4L382.3,41.9L374.9,38.6L368,79.8L353.7,76.3L335.9,63.9L307.2,71.9L295,80.4L259.1,78.7L240.4,73.4L230.9,75.9L223.9,61.9L219.4,55.9L225.1,50.2L219,45.9L211.4,53.6L197.1,43.6L195.2,29.4L180.3,21.2L177.6,10.1L167.9,0L356.2,0Z" fill="#2c2c34" stroke="#474751" stroke-width="0.8"/><path d="M223.9,61.9L230.9,75.9L240.4,73.4L259.1,78.7L295,80.4L307.2,71.9L335.9,63.9L353.7,76.3L368,79.8L355.4,93.8L346.5,117.6L354.3,136.5L333.3,132.1L308.4,142.4L308.1,158.7L286,161.8L268.7,150.4L249.2,159.3L231.1,158.4L229.3,136.7L217.1,126.2L221.1,121.5L218.5,117.6L222.6,107L231.9,96.5L220,82L217.9,69.6Z" fill="#2c2c34" stroke="#474751" stroke-width="0.8"/><path d="M199.8,300L199.7,300L190.6,275.4L186.3,254.8L176.8,240.4L164.2,222.4L162.6,213.4L174,198L175.4,187.6L183.4,182.9L183.8,174.5L199.8,171.6L209.2,164.5L222.4,165.2L226.4,159.5L231.1,158.4L231.1,158.4L249.2,159.3L268.7,150.4L286,161.8L308.1,158.7L308.4,142.4L320.3,151.1L312.7,171.4L306.9,175.1L292,174.1L279.3,171.1L249.7,179.5L266.6,197.5L254.2,202.7L240.7,202.8L227.7,186.2L223.1,193.3L228.6,212.4L240.8,227.2L231.6,234.1L245.2,248.5L257.3,257.5L257.6,275.1L235,266.8L242.2,282.6L226.8,285.9L231.6,300L199.8,300Z" fill="#2c2c34" stroke="#474751" stroke-width="0.8"/><path d="M343,300L331.2,275.1L313.3,257.9L325.2,233.6L309.7,218.5L336.8,188L374.4,186.8L384.7,162.2L400,163.7L400,300ZM308.4,142.4L333.3,132.1L354.3,136.5L357.2,149.1L378.6,159.6L374.1,167.6L345.1,169.4L334.7,179.3L314.3,196.7L306.6,181.7L306.9,175.1L312.7,171.4L320.3,151.1Z" fill="#2c2c34" stroke="#474751" stroke-width="0.8"/><path d="M183.8,174.5L183.4,182.9L175.4,187.6L174,198L162.6,213.4L158.4,211.2L158,204.2L144.4,193.5L142.3,178.2L144.3,156.1L147.7,145.9L143.5,140.7L142,130.3L152.5,114L154.1,120.2L160.7,117.3L165.9,126.2L171.7,129.6L173.4,141.5L170.3,152.6L173.7,166.6Z" fill="#2c2c34" stroke="#474751" stroke-width="0.8"/><path d="M98.1,0L101.1,2.5L121.2,9.2L130.3,4L136.2,17.5L144.1,27.5L134.7,40.5L123.6,32.8L106.7,33.3L85.7,27.5L74.2,28.3L68.9,35.5L60.2,27.5L55,41.9L67,58L72.4,68.5L83.5,81.2L92.9,88.6L102.1,102.6L123.7,115.3L121,120.9L98.1,108.6L83.9,96.6L61.6,86.6L41.1,61.7L46,59.1L34.8,44.7L34.4,33L18.6,27.5L11.2,42.5L3.9,30.9L4.5,18.8L5.3,18.3L22.4,19.5L26.9,13.6L35.2,19.3L44.8,19.9L44.7,10.2L53.2,6.6L54.3,0L98.1,0Z" fill="#2c2c34" stroke="#474751" stroke-width="0.8"/><path d="M4.9,0L4.9,0.2L10.8,15.1L0,12.3L0,0ZM0,83.3L0.8,83.9L13.1,111.6L40.3,138.2L59.4,138L65.3,145.2L58.5,151.8L80.4,163.6L98.3,173.3L119.3,190.1L121.8,196.1L117.2,207.5L103.7,192.6L82.4,187.3L72.2,208L89.8,219.8L86.9,236.2L76.7,238.1L63.7,264.8L53.5,267.2L53.6,257.7L58.6,241L63.8,234.3L54.3,216L46.9,200L36.7,196L29.5,182.1L13.8,176.3L3.2,163.2L0,162.9L0,83.3ZM28.2,300L20.5,295.3L8.1,292L0,288.3L0,262.7L0,262.7L6,263.3L30.9,259.9L30.9,259.9L49.5,257.2L40.7,281.6L44.3,291.1L41.4,300L28.2,300Z" fill="#2c2c34" stroke="#474751" stroke-width="0.8"/><path d="M54.3,0L53.2,6.6L44.7,10.2L44.8,19.9L35.2,19.3L26.9,13.6L22.4,19.5L5.3,18.3L10.8,15.1L4.9,0.2L4.9,0L54.3,0Z" fill="#2c2c34" stroke="#474751" stroke-width="0.8"/><path d="M123.7,115.3L102.1,102.6L92.9,88.6L83.5,81.2L72.4,68.5L67,58L55,41.9L60.2,27.5L68.9,35.5L74.2,28.3L85.7,27.5L106.7,33.3L123.6,32.8L134.7,40.5L143.5,40.4L137.4,55.5L149.2,68.6L145.6,84.5L139.8,86L135.3,89.1L127.4,96.9Z" fill="#2c2c34" stroke="#474751" stroke-width="0.8"/><path d="M167.9,0L177.6,10.1L180.3,21.2L195.2,29.4L197.1,43.6L211.4,53.6L219,45.9L225.1,50.2L219.4,55.9L223.9,61.9L217.9,69.6L220,82L231.9,96.5L222.6,107L218.5,117.6L221.1,121.5L217.1,126.2L205.8,126.7L197.5,128.7L196.7,126.2L199.6,122.2L202.3,114.1L198.9,114.4L194.1,108.2L190.1,106.6L186.9,101.3L182.3,99.2L178.8,94.5L174.4,96.3L171.1,107.4L165.3,109.9L167.2,107L157.9,100L149.9,96.5L146.4,91.8L139.8,86L145.6,84.5L149.2,68.6L137.4,55.5L143.5,40.4L134.7,40.5L144.1,27.5L136.2,17.5L130.3,4L130.3,4L138.4,0L167.9,0Z" fill="#2c2c34" stroke="#474751" stroke-width="0.8"/><path d="M160.7,117.3L154.1,120.2L152.5,114L142,130.3L143.5,140.7L138.4,138.2L131.6,127.5L121,120.9L123.7,115.3L127.4,96.9L135.3,89.1L139.8,86L146.4,91.8L149.9,96.5L157.9,100L167.2,107L165.3,109.9Z" fill="#2c2c34" stroke="#474751" stroke-width="0.8"/><path d="M173.4,141.5L171.7,129.6L165.9,126.2L160.7,117.3L165.3,109.9L171.1,107.4L174.4,96.3L178.8,94.5L182.3,99.2L186.9,101.3L190.1,106.6L194.1,108.2L198.9,114.4L202.3,114.1L199.6,122.2L196.7,126.2L197.5,128.7L192,129.9L177.6,135L176.4,141.7Z" fill="#2c2c34" stroke="#474751" stroke-width="0.8"/><path d="M197.1,128.6L198.5,128.7L201.4,127.9L203.3,126.7L204.2,126.6L205.5,126.1L207.2,126.2L209.1,126.7L211.4,126L213.6,125L214.6,125.2L215.6,126.2L216.2,126.4L220,131.3L222,133.3L224.5,134.8L227.3,135.9L228.3,137L230,142.2L230.9,144.1L232,144.7L232.3,145.3L232.4,146L231.1,149.7L230.5,157.8L230.2,158.4L228.8,158.4L226.9,158.6L226.2,159.2L225.5,163.6L222.5,164.8L219.9,165.5L217.6,165.4L213.6,164.4L212.3,164.2L211.2,164.8L207.7,165.1L206.1,165.9L202.4,170.9L198.7,172.7L197.5,173.6L194.6,172.5L193.2,172.3L191.3,173.6L187,173.8L185.9,174L182.5,174.2L182.3,173.5L181.7,172.5L180.2,172L177.1,172.4L176.3,171.7L174.9,167.3L174,166.7L172.8,165.2L170.9,160.5L170.8,158.4L171,156.6L169.9,152.4L170.5,151.4L171.5,150.7L171.5,149L171.2,146.4L172.5,141.2L172.7,140.9L173.1,141.1L175.9,141.5L176.6,140.9L177.1,139.9L177.2,136.1L177.9,134.4L184.8,131.1L186.8,131L188.4,132.5L189.6,133.5L190.3,133.4L190.6,132.5L191.5,130.6L192.9,129.5Z" fill="#b8e653" stroke="#0c0e06" stroke-width="1"/></svg>
