<svg xmlns="http://www.w3.org/2000/svg" viewBox="0 0 400 300"><path d="M164.9,68.4L164.9,69L164.7,70.6L164.7,83.4L139.9,83L140.1,104.3L133,105L131.2,109.3L132.6,121.1L103,121L101.3,123.7L101.6,120.3L101.8,120.3L118.8,119.6L119.7,116.7L122.8,113L125.3,101.7L135.8,92.7L139.4,82.2L141.8,81.5L144.2,75L150.6,74.1L153.3,75.2L156.8,75.2L159.2,73.2L163.9,73L163.7,68.4Z" fill="#2c2c34" stroke="#474751" stroke-width="0.8"/><path d="M354.4,300L354.6,299.5L358.1,295.6L363.1,292L363.9,289.5L364.1,286.8L365.4,284.1L365,279.8L365.9,273.1L367.4,268.4L369.7,264.4L370.1,259.8L370.8,254.5L373.7,250.6L377.8,248.2L384,250.8L388.8,253.6L394.4,254.3L400,255.8L400,300Z" fill="#2c2c34" stroke="#474751" stroke-width="0.8"/><path d="M400,191.5L399.1,189.8L396.5,190.3L397.2,187.4L399.2,184.2L398.3,181L400,179.4L400,191.5ZM400,177.6L399.2,176.8L400,174.9L400,177.6Z" fill="#2c2c34" stroke="#474751" stroke-width="0.8"/><path d="M400,174.9L399.2,176.8L400,177.6L400,179.4L400,179.4L398.3,181L399.2,184.2L397.2,187.4L396.5,190.3L399.1,189.8L400,191.5L400,202.4L400,202.4L398.7,202.8L394.9,205.9L389.4,214.3L382.3,217.8L374.9,217.4L372.8,218.1L373.6,220.8L369.6,223.4L366.4,226.4L356.9,229.3L355,227.6L353.7,227.5L352.3,229.4L346.1,230L347.3,227.9L344.9,222.7L343.8,219.5L340.5,218.2L336.1,213.7L337.7,210.1L341.2,210.9L343.3,210.3L347.5,210.4L343.4,203.4L343.7,198.3L343.2,193.1L340.1,188.2L340.9,184.5L336.1,184.3L336.1,179.3L332.9,176.4L336.2,166.1L345.8,158.7L346.3,148.4L349.2,132.1L350.8,128.7L347.6,125.9L347.5,123.3L344.7,121.2L342.8,108.5L350.5,104L380.7,119.7L400,129.6L400,174.9Z" fill="#2c2c34" stroke="#474751" stroke-width="0.8"/><path d="M104,182.5L100.8,176.4L97.1,173.6L100.4,172.1L104,166.6L105.8,162.6L108.5,160L112.2,160.7L115.9,159L120.1,158.9L123.7,161.2L128.8,163.3L133.3,169.1L138.3,174.5L138.7,179.3L140.2,183.8L143,186L143.7,189L143.3,191.4L142.2,191.8L138.1,191.2L137.5,192.1L135.9,192.3L130.4,190.4L126.8,190.3L112.8,190L110.7,190.8L108.2,190.6L104.2,191.9L103,185.9L109.9,186.1L111.7,185L113.1,184.9L115.9,183.1L119.1,184.8L122.4,184.9L125.7,183.2L124.2,180.9L121.6,182.2L119.3,182.2L116.3,180.3L113.9,180.4L112.2,182.2Z" fill="#2c2c34" stroke="#474751" stroke-width="0.8"/><path d="M101.3,123.7L103,121L132.6,121.1L131.2,109.3L133,105L140.1,104.3L139.9,83L164.7,83.4L164.7,70.6L193.2,91L181.6,91.2L185.3,126.6L188.9,161.1L190.2,162L188.5,167.6L158.2,167.7L157,169.4L154.1,168.9L149.8,170.4L144.6,168.3L142.2,168.4L140.9,173.1L138.3,174.5L133.3,169.1L128.8,163.3L123.7,161.2L120.1,158.9L115.9,159L112.2,160.7L108.5,160L105.8,162.6L105.2,158.3L107.3,154.4L108.2,146.9L107.4,139.1L106.5,135.1L107.3,131L105.3,127.2Z" fill="#2c2c34" stroke="#474751" stroke-width="0.8"/><path d="M250.8,238.9L244.6,239.7L242.7,234.5L243,216.9L241.5,215.4L241.2,211.6L238.6,208.9L236.3,206.6L237.2,202.6L239.9,201.7L241.4,198.3L245.1,197.6L246.8,195.3L249.3,193L252,193L257.8,197.5L257.5,200L259.2,204.6L257.7,207.7L258.5,209.8L254.8,214.5L252.5,216.9L251.1,221.7L251.2,226.6Z" fill="#2c2c34" stroke="#474751" stroke-width="0.8"/><path d="M342.8,108.5L344.7,121.2L347.5,123.3L347.6,125.9L350.8,128.7L349.2,132.1L346.3,148.4L345.8,158.7L336.2,166.1L332.9,176.4L336.1,179.3L336.1,184.3L340.9,184.5L340.1,188.2L338,188.6L337.8,191.1L336.4,191.3L331.2,182.8L329.5,182.4L323.6,186.8L317.7,184.5L313.6,184.1L311.4,185.2L307,184.9L302.5,188.2L298.7,188.4L289.5,184.4L285.9,186.3L282.1,186.2L279.2,183.3L271.6,180.3L263.5,181.3L261.5,183L260.5,187.4L258.3,190.6L257.8,197.5L252,193L249.3,193L246.8,195.3L246.9,190L238.2,188.2L238,184.5L233.7,179.4L232.7,175.8L233.3,172L238.1,171.7L240.9,168.9L251.2,168.3L258,167L258.6,162.2L262.8,156.9L262.7,138.6L273.4,135L295.3,119.1L321.3,103.5L333.2,107.1L337.5,111.6Z" fill="#2c2c34" stroke="#474751" stroke-width="0.8"/><path d="M250.8,238.9L251.2,226.6L251.1,221.7L252.5,216.9L254.8,214.5L258.5,209.8L257.7,207.7L259.2,204.6L257.5,200L257.8,197.5L258.3,190.6L260.5,187.4L261.5,183L263.5,181.3L271.6,180.3L279.2,183.3L282.1,186.2L285.9,186.3L289.5,184.4L298.7,188.4L302.5,188.2L307,184.9L311.4,185.2L313.6,184.1L317.7,184.5L323.6,186.8L329.5,182.4L331.2,182.8L336.4,191.3L337.8,191.1L340.8,194.2L339.9,195.6L339.5,198.1L333.2,204.1L331.2,209L330.1,213L328.5,214.7L327,220.1L322.9,223.2L321.8,227.1L320,230.2L319.3,233.4L314.1,235.9L309.9,232.8L307,232.9L302.5,237.4L300.3,237.4L296.7,244.8L294.8,250.2L286.9,252.9L284.1,252.5L281.1,254.2L275.1,254L271,249.3L268.5,243.8L263.2,238.8L257.5,238.9Z" fill="#2c2c34" stroke="#474751" stroke-width="0.8"/><path d="M340.1,188.2L343.2,193.1L343.7,198.3L343.4,203.4L347.5,210.4L343.3,210.3L341.2,210.9L337.7,210.1L336.1,213.7L340.5,218.2L343.8,219.5L344.9,222.7L347.3,227.9L346.1,230L342.3,237.7L340.4,239.1L339.9,245L340.6,248.2L340,250.5L343.6,254.4L344.2,257.2L347,261.1L350.5,263.5L350.8,267L351.6,269.2L351.1,273.3L345.1,271.5L338.9,269.5L329.4,269.2L328.5,268.8L324,269.7L319.4,268.7L315.8,269.2L303.5,269L304.6,263.1L301.6,258L298.2,256.8L296.6,253.4L294.7,252.3L294.8,250.2L296.7,244.8L300.3,237.4L302.5,237.4L307,232.9L309.9,232.8L314.1,235.9L319.3,233.4L320,230.2L321.8,227.1L322.9,223.2L327,220.1L328.5,214.7L330.1,213L331.2,209L333.2,204.1L339.5,198.1L339.9,195.6L340.8,194.2L337.8,191.1L338,188.6Z" fill="#2c2c34" stroke="#474751" stroke-width="0.8"/><path d="M237.2,202.6L236.3,206.6L238.6,208.9L241.2,211.6L241.5,215.4L243,216.9L242.7,234.5L244.6,239.7L238.5,241.4L236.8,238.7L234.8,233.9L234.2,230.1L235.8,223.2L233.9,220.4L233.2,214.4L233.2,208.8L230.1,204.8L230.6,202.4Z" fill="#2c2c34" stroke="#474751" stroke-width="0.8"/><path d="M230.6,202.4L230.1,204.8L233.2,208.8L233.2,214.4L233.9,220.4L235.8,223.2L234.2,230.1L234.8,233.9L236.8,238.7L238.5,241.4L226.6,245.8L222.4,248.4L215.6,250.6L208.8,248.5L209.2,245.5L205.9,238.9L207.9,230.3L211.1,223.9L209,213L208,207.2L208.2,202.8L221.3,202.5L224.7,203.1L227.1,201.8Z" fill="#2c2c34" stroke="#474751" stroke-width="0.8"/><path d="M169.7,208.7L170.7,208L172.8,209.1L178.6,209.2L180,206.9L181.3,207.1L183.5,206.2L184.7,209.5L186.4,208.5L189.5,207.4L192.9,209.1L194.3,211.6L197.7,213.2L200.3,211.3L203.9,211L209,213L211.1,223.9L207.9,230.3L205.9,238.9L209.2,245.5L208.8,248.5L205.4,248.6L200.1,247.1L195.3,247.2L186.3,248.5L181,250.7L173.5,253.5L172.1,253.3L172.7,247L173.4,246.1L173.2,243.1L169.9,239.9L167.6,239.4L165.3,237.3L167,233.9L166.2,230.2L166.6,228L167.8,228L168.2,224.6L167.6,223.2L168.4,222.1L171.2,221.2L169.3,215L167.6,211.9L168.2,209.3Z" fill="#2c2c34" stroke="#474751" stroke-width="0.8"/><path d="M126.8,190.3L130.4,190.4L135.9,192.3L137.5,192.1L138.1,191.2L142.2,191.8L143.3,191.4L143.7,194.2L144.9,194.2L146.9,193.2L148.2,193.5L150.3,195.4L153.5,196L155.6,194.4L158,193.3L159.9,192.2L161.4,192.4L163.1,194.1L164,196.3L167.1,199.5L165.5,201.5L165.2,204L166.8,203.3L167.8,204.2L167.4,206.5L169.7,208.7L168.2,209.3L167.6,211.9L169.3,215L171.2,221.2L168.4,222.1L167.6,223.2L168.2,224.6L167.8,228L166.6,228L164.4,227.8L162.9,230.9L160.8,230.8L159.3,229.2L159.8,226.1L156.6,221.4L154.6,222.3L153,222.5L150.9,222.9L151,220.1L149.8,218.1L150.1,215.9L148.4,212.6L146.3,209.9L140.3,209.9L138.5,211.3L136.4,211.5L135.1,213.2L134.2,215.3L130.2,218.7L126.9,214.1L123.9,211.1L122,210.1L120.1,208.6L119.2,205.2L118.1,203.5L115.9,202.2L119.3,198.5L121.6,198.6L123.6,197.3L125.2,197.3L126.4,196.3L125.8,193.7L126.6,192.9Z" fill="#2c2c34" stroke="#474751" stroke-width="0.8"/><path d="M104.2,191.9L108.2,190.6L110.7,190.8L112.8,190L126.8,190.3L126.6,192.9L125.8,193.7L126.4,196.3L125.2,197.3L123.6,197.3L121.6,198.6L119.3,198.5L115.9,202.2L111.9,199L108.7,198.5L107,196.3L107,195.2L104.7,193.5Z" fill="#2c2c34" stroke="#474751" stroke-width="0.8"/><path d="M166.6,228L166.2,230.2L167,233.9L165.3,237.3L167.6,239.4L169.9,239.9L173.2,243.1L173.4,246.1L172.7,247L172.1,253.3L170.1,253.3L162.3,249.7L155.4,243.9L149,239.8L143.9,234.8L145.7,232.4L146.1,230.2L149.5,226L153,222.5L154.6,222.3L156.6,221.4L159.8,226.1L159.3,229.2L160.8,230.8L162.9,230.9L164.4,227.8Z" fill="#2c2c34" stroke="#474751" stroke-width="0.8"/><path d="M130.2,218.7L134.2,215.3L135.1,213.2L136.4,211.5L138.5,211.3L140.3,209.9L146.3,209.9L148.4,212.6L150.1,215.9L149.8,218.1L151,220.1L150.9,222.9L153,222.5L149.5,226L146.1,230.2L145.7,232.4L143.9,234.8L141.8,234.3L136.4,231.2L132.5,227.1L131.1,224.3Z" fill="#2c2c34" stroke="#474751" stroke-width="0.8"/><path d="M189.5,207.4L189,202.9L191.1,199.7L190.9,197.1L196.9,190.6L198.1,185.3L200.1,183.4L203.8,184.5L206.9,182.9L208,180.9L213.9,177.4L215.3,174.9L222.4,171.7L226.5,170.6L228.4,172.1L233.3,172L232.7,175.8L233.7,179.4L238,184.5L238.2,188.2L246.9,190L246.8,195.3L245.1,197.6L241.4,198.3L239.9,201.7L237.2,202.6L230.6,202.4L227.1,201.8L224.7,203.1L221.3,202.5L208.2,202.8L208,207.2L209,213L203.9,211L200.3,211.3L197.7,213.2L194.3,211.6L192.9,209.1Z" fill="#2c2c34" stroke="#474751" stroke-width="0.8"/><path d="M400,255.8L394.4,254.3L388.8,253.6L384,250.8L377.8,248.2L373.7,250.6L370.8,254.5L370.1,259.8L365.2,259.4L360.1,258.1L355.6,262.1L351.6,269.2L350.8,267L350.5,263.5L347,261.1L344.2,257.2L343.6,254.4L340,250.5L340.6,248.2L339.9,245L340.4,239.1L342.3,237.7L346.1,230L352.3,229.4L353.7,227.5L355,227.6L356.9,229.3L366.4,226.4L369.6,223.4L373.6,220.8L372.8,218.1L374.9,217.4L382.3,217.8L389.4,214.3L394.9,205.9L398.7,202.8L400,202.4L400,255.8Z" fill="#2c2c34" stroke="#474751" stroke-width="0.8"/><path d="M338.9,300L339.6,296.4L338.8,290.5L335.2,286L338.5,277.3L336.6,275.8L331,276.4L328.8,272.5L329.4,269.2L338.9,269.5L345.1,271.5L351.1,273.3L351.6,269.2L355.6,262.1L360.1,258.1L365.2,259.4L370.1,259.8L370.1,259.8L369.7,264.4L367.4,268.4L365.9,273.1L365,279.8L365.4,284.1L364.1,286.8L363.9,289.5L363.1,292L358.1,295.6L354.6,299.5L354.4,300L338.9,300Z" fill="#2c2c34" stroke="#474751" stroke-width="0.8"/><path d="M300.1,300L297,294.7L297.3,292.2L298.9,289.8L300.8,284.3L302.3,278.7L304.8,278.2L315.8,278.3L315.8,269.2L315.8,269.2L319.4,268.7L324,269.7L328.5,268.8L329.4,269.2L328.8,272.5L331,276.4L336.6,275.8L338.5,277.3L335.2,286L338.8,290.5L339.6,296.4L338.9,300L300.1,300Z" fill="#2c2c34" stroke="#474751" stroke-width="0.8"/><path d="M303.5,269L315.8,269.2L315.8,278.3L304.8,278.2L302.3,278.7L300.9,277.5Z" fill="#2c2c34" stroke="#474751" stroke-width="0.8"/><path d="M104,182.5L112.2,182.2L113.9,180.4L116.3,180.3L119.3,182.2L121.6,182.2L124.2,180.9L125.7,183.2L122.4,184.9L119.1,184.8L115.9,183.1L113.1,184.9L111.7,185L109.9,186.1L103,185.9Z" fill="#2c2c34" stroke="#474751" stroke-width="0.8"/><path d="M312.8,0L312.2,4.8L307.3,9.4L308.7,14.4L312.6,14.5L314.5,18.9L317.4,20.3L317,27.2L313.3,29.8L310.9,32.6L305.7,36L306.6,39.7L305.9,43.4L302.2,45.4L302.2,45.4L299,29.6L294.3,25.9L294.2,23.8L288.1,18.4L287.4,11.5L292.1,6.4L293.6,0L312.8,0Z" fill="#2c2c34" stroke="#474751" stroke-width="0.8"/><path d="M293.6,0L292.1,6.4L287.4,11.5L288.1,18.4L294.2,23.8L294.3,25.9L299,29.6L302.2,45.4L304.6,53.2L305.1,57.2L303.7,64.2L304.3,68.1L303.3,72.8L304,78.1L301,81.6L305.4,87.8L305.7,91.3L308.4,96L312,94.5L317.9,98.3L321.3,103.5L295.3,119.1L273.4,135L262.7,138.6L254.4,139.4L254.3,134.3L250.8,133L246,130.6L244.2,126.9L218.7,109.1L193.2,91L164.7,70.6L164.7,70.6L164.9,69L164.9,68.4L164.8,58.2L177,51.8L184.6,50.5L190.8,48.1L193.7,43.8L202.5,40.3L202.8,33.7L207.2,32.9L210.7,29.6L220.5,28.1L221.9,24.6L219.9,22.7L217.3,13.2L216.9,7.6L214,1.7L216.4,0L293.6,0Z" fill="#2c2c34" stroke="#474751" stroke-width="0.8"/><path d="M195.5,0L195.7,0.2L197.7,0L204.7,0L204.7,0L210.7,1.6L214,1.7L214,1.7L216.9,7.6L217.3,13.2L219.9,22.7L221.9,24.6L220.5,28.1L210.7,29.6L207.2,32.9L202.8,33.7L202.5,40.3L193.7,43.8L190.8,48.1L184.6,50.5L177,51.8L164.8,58.2L164.9,68.4L163.7,68.4L163.9,73L159.2,73.2L156.8,75.2L153.3,75.2L150.6,74.1L144.2,75L141.8,81.5L139.4,82.2L135.8,92.7L125.3,101.7L122.8,113L119.7,116.7L118.8,119.6L101.8,120.3L101.6,120.3L102,116.5L104.9,114.3L107.4,110L106.9,107.2L109.5,101.4L113.7,96.1L116.2,94.8L118.3,90L118.4,85.5L121.2,80.3L126.2,77.2L131,68.5L131.2,68.4L134.9,65.1L142,64.2L147.9,58.3L151.7,56L158.1,48.7L156.2,37.8L159.1,30.1L160.1,25.4L164.9,19.3L172.5,15.2L178.1,11.4L183.2,1.9L184,0L195.5,0Z" fill="#2c2c34" stroke="#474751" stroke-width="0.8"/><path d="M400,129.6L380.7,119.7L350.5,104L342.8,108.5L337.5,111.6L333.2,107.1L321.3,103.5L317.9,98.3L312,94.5L308.4,96L305.7,91.3L305.4,87.8L301,81.6L304,78.1L303.3,72.8L304.3,68.1L303.7,64.2L305.1,57.2L304.6,53.2L302.2,45.4L305.9,43.4L306.6,39.7L305.7,36L310.9,32.6L313.3,29.8L317,27.2L317.4,20.3L326.3,23.4L329.5,22.6L335.8,24.1L345.8,28.1L349.4,36L356.2,37.7L366.8,41.4L374.9,45.8L378.6,43.5L382.2,39.5L380.4,32.7L382.8,28.3L388.3,24.1L393.5,22.9L400,24.1L400,129.6Z" fill="#2c2c34" stroke="#474751" stroke-width="0.8"/><path d="M144.3,191.7L144.3,191.1L143.8,190.7L143.8,190.5L143.8,190L144.1,188.8L144,188.4L144.3,187.5L143.9,187.2L143.8,186.9L143.5,186.4L143.1,185.8L142.9,185.2L142.8,184.8L142.4,184.2L142.1,184.1L141.5,184L141.3,184.2L141.1,184.5L140.9,184.6L140.6,184.3L140.4,183.9L140.4,183.6L140,183.1L139.2,182.2L139.3,181.4L139.8,181L139.9,180.6L139.9,180.3L139.7,179.8L139.5,179.5L139.5,178.7L139.5,177.7L139.1,177.2L138.8,176.8L138.3,176.4L137.9,175.7L138.1,174.8L138.2,174.2L137.5,173L138.8,173.5L139,173.3L139.5,173L140.1,172.4L140.6,171.5L140.8,170.5L140.9,169.6L141.2,168.8L141.5,168.1L142.1,167.5L142.7,167L143.4,166.5L143.8,166.6L144.4,167.3L145.9,168.7L147.1,169.7L147.6,170.3L148,170.3L148.6,169.3L149.2,168.4L149.5,168.2L150.3,168.1L151,168L151.6,168.1L152.8,168.2L153.3,168.4L153.8,168.5L155.2,168.6L156.6,168.3L158,168.1L158.9,167.9L159,167.5L158.9,167L159.1,166.6L159.4,166.2L159.7,166.2L159.8,167.4L160.1,167.5L161,167.6L162.4,167.6L164,167.6L165.5,167.6L167.1,167.6L168.6,167.6L170.1,167.6L171.7,167.6L173.2,167.6L174.8,167.6L176.3,167.6L177.9,167.6L179.4,167.6L181,167.6L182.5,167.6L184,167.6L185.6,167.6L187.1,167.6L188.7,167.6L189.2,165.3L189.6,163.2L189.9,161.4L188.7,160.1L187.8,159.1L187.6,157.2L187.4,155.3L187.2,153.3L187,151.3L186.8,149.4L186.6,147.4L186.4,145.4L186.1,143.4L185.9,141.4L185.7,139.4L185.5,137.4L185.3,135.5L185,133.5L184.9,131.4L184.6,129.4L184.4,127.4L184.2,125.4L184,123.4L183.8,121.4L183.5,119.4L183.3,117.4L183.1,115.3L182.9,113.3L182.7,111.3L182.5,109.2L182.3,107.2L182,105.1L181.8,103.1L181.6,101L181.4,99L181.2,96.9L181,94.8L180.7,92.8L180.5,90.9L182.9,90.9L185.3,90.9L187.8,90.9L191.3,90.9L194,90.9L196.3,92.4L198.4,94L200.8,95.7L203.3,97.5L205.8,99.3L208.3,101.1L210.7,102.8L213.2,104.6L215.7,106.4L218.2,108.1L220.7,109.9L223.1,111.6L225.6,113.4L228.1,115.1L230.6,116.9L233,118.6L235.5,120.4L238,122.1L239.1,122.9L239.2,123.2L239.3,123.9L239.3,124.6L239.3,125.2L239.6,125.6L240.2,126L242.6,127.3L242.8,127.6L242.9,128.1L243.2,128.7L243.7,129.1L244.3,129.4L245,129.6L247.2,129.8L247.7,130.1L248.7,131.3L249.2,131.5L250.6,131.9L251.7,132L252.1,132.1L253.1,132.5L254.1,133L254.7,133.5L254.7,133.6L254.7,134.1L254.7,135.3L254.9,136L255.1,136.5L255.1,136.8L254.8,137.1L254.6,137.3L254.5,137.7L254.2,138.1L253.9,138.6L254.1,139L254.5,139.2L255.1,139.7L255.6,139.9L255.9,139.9L256.2,139.9L256.5,139.9L258.3,139.5L260,139.1L262.4,138.7L262.4,140.1L262.4,142.2L262.4,144.5L262.5,146.7L262.5,149.1L262.5,151.1L262.5,153.5L262.5,155.8L262.3,156L262.2,157.3L262.1,159L261.6,160.8L260.8,162.1L260.5,163.3L260.3,164.1L260,164.4L259.9,164.9L259.8,165.6L259.5,166L259.3,166.2L258.5,166.4L257.1,167.7L257,168.7L255.3,168.4L253.6,168.1L253.4,168.1L253.2,168.3L253.2,168.8L250.8,168.9L248.8,169L246.3,169.1L244.5,169.1L242.3,169.2L240.3,169.3L238.9,170.5L237.7,171.6L237.6,171.6L235.9,171.8L233.7,171.6L232.6,171.6L232.2,171.8L232.1,172.2L230.5,171.6L228.7,171L227.4,171.4L227.2,171.3L227,171L226.4,170.9L225.4,170.9L224.7,171.1L223.6,172L222.7,172.7L222.5,172.9L221.3,173.3L219.2,174.4L217.9,175.2L217.6,175.3L217.1,175.5L216.2,175.5L215.5,175.7L214.9,177.8L214.4,178L211.9,177.2L211.3,177.3L210.9,177.5L209.4,178.7L208.7,179.7L208.3,181L208.4,181.4L208.4,181.8L208.1,182L207.8,182.1L207.4,182.1L206.2,181.8L205.9,182L205.7,182.6L205.7,184L205.4,184.9L204.7,185.2L204.2,185.6L203.8,185.7L203.4,185.6L201.3,184.2L200.6,184L199.8,184.1L199,184.7L198.7,185.1L198.2,185.5L197.7,186.2L197.8,186.7L198.2,187.3L198.5,188L198.4,188.7L196.5,189.6L196.7,190L197,190.3L197,191L196.9,192.2L196.5,192.7L196,193.1L195.7,193.6L195.4,193.9L194.9,194.2L194.1,194.6L192.8,194.9L191.8,195.1L191.4,195.3L190.9,195.7L190.4,196.2L190.3,196.7L190.4,197.3L190.6,197.8L190.8,198.1L190.9,198.5L190.7,199.7L190.3,201L190,201.6L189.4,201.9L188.9,202.2L189,203.1L189.2,204.3L189,205.3L189,205.9L188.8,206.5L188.6,207L188.4,206.9L187.4,206.9L186.2,207.3L185.8,207.5L185.8,207.9L185.5,208.1L185.1,208.4L184.8,208.8L184.1,208.7L183.5,208.5L183.2,208.2L183.2,208.1L183.4,207.8L183.6,207.4L183.6,207.2L183.4,206.6L183.2,206L183.3,205.7L183.1,204.7L183.1,204.7L182.3,204.9L182,205L181.8,205.1L181.8,205.3L182,205.8L181.8,206L181.4,205.9L180.8,205.7L180.1,205.2L179.9,205.4L179.8,205.8L179.8,206.3L180,207.2L179.8,207.6L179.3,207.5L178.7,207.5L178.2,207.6L177.9,207.6L177.6,207.9L177.5,208.3L177.7,208.7L177.7,208.9L177.6,209.1L177.3,209.1L177.2,209.1L176.7,208.7L176.1,208.5L174.7,208.3L174.6,207.6L174.3,207.6L174,207.3L173.7,206.9L173.4,206.9L173.2,207L172.5,207L171.8,207.6L171.3,208.4L170.8,208.8L170.2,209L170,209L170.1,208.5L170,208.1L169.8,207.8L168.2,206.9L167.9,206.5L167.6,205.5L167.4,204.5L167.5,203.9L167.6,203.4L167.5,202.9L167.4,202.6L166.8,202.3L166.3,202.2L165.6,202.6L165.3,202.7L165,202.6L164.9,202.5L164.9,202.3L165.6,201.2L166,200.7L166.4,200.4L166.7,200.2L166.9,199.9L166.9,199.7L166.8,199.6L166.4,199.4L165.6,198.9L165.2,198.8L164.9,198.6L164.5,197.8L164.4,197.6L164,197.6L163.7,197.4L163.7,196.3L163.7,195.4L163,194L162.7,193.1L162.3,192.2L162,191.7L161.4,191.4L160.7,191.1L160.1,191L159.6,191.1L159.4,191.2L159.4,191.4L159.8,192L159.8,192.3L159.8,192.6L159.6,192.9L159.3,192.9L158.6,193.1L157.9,193.4L157.4,193.7L156.9,194.5L156.6,194.6L156.1,194.5L154.7,193.9L153.5,193.5L152.7,193.2L152.2,193.4L151.9,193.5L151.2,193.8L150.3,194.9L150.1,195.3L149.9,195.4L149.7,195.6L149.4,195.6L149.2,195.5L149.1,195.4L148.7,194.6L148.1,193.7L147.7,193.3L147.2,193.2L146.7,193.5L146.2,194.1L145.6,194.6L145.2,194.8L144.9,194.7L144.1,194L143.5,193.5L143.4,193.3L143.6,192.9L143.8,192.4L144,191.9Z" fill="#b8e653" stroke="#0c0e06" stroke-width="1"/></svg>
