<svg xmlns="http://www.w3.org/2000/svg" viewBox="0 0 300 300"><path fill="#e8e8ea" d="M34.1,236.7L34.2,235.5L33.1,234.7L33.1,234.3L33.2,233.1L33.7,230.8L33.6,229.9L34.1,228.1L33.3,227.3L33.2,226.7L32.4,225.7L31.6,224.4L31.3,223.3L31,222.4L30.2,221.2L29.6,221L28.2,220.8L28,221.2L27.5,221.8L27.1,222L26.3,221.2L26.1,220.6L26.1,219.9L25.1,218.9L23.6,216.9L23.7,215.3L24.7,214.4L25,213.7L25,213L24.6,212.1L24.1,211.3L24.3,209.8L24.1,207.6L23.3,206.5L22.7,205.7L21.7,204.8L20.9,203.5L21.2,201.7L21.5,200.4L20,197.8L22.8,198.8L23.2,198.5L24.1,197.9L25.4,196.5L26.5,194.8L26.9,192.6L27.1,190.7L27.6,189.1L28.2,187.8L29.5,186.3L30.8,185.3L32.2,184.3L33,184.5L34.4,185.9L37.5,188.8L40.1,191L41,192.2L41.8,192.2L43.1,190.1L44.4,188.2L44.9,187.8L46.7,187.6L48.2,187.5L49.4,187.6L51.8,187.9L52.9,188.2L53.9,188.4L56.8,188.6L59.8,188.1L62.6,187.6L64.6,187.2L64.7,186.3L64.6,185.3L64.9,184.5L65.6,183.8L66.1,183.6L66.4,186.1L67,186.5L68.8,186.6L71.9,186.6L75.1,186.6L78.3,186.6L81.5,186.6L84.7,186.6L87.9,186.6L91.1,186.6L94.4,186.6L97.5,186.6L100.8,186.6L104,186.6L107.2,186.6L110.4,186.6L113.6,186.6L116.8,186.6L120,186.6L123.3,186.6L126.5,186.6L127.4,181.8L128.3,177.4L129,173.7L126.6,171.1L124.7,169L124.3,165.1L123.8,161L123.4,156.9L123,152.8L122.5,148.6L122.1,144.5L121.6,140.4L121.2,136.3L120.7,132.2L120.2,128L119.8,123.9L119.3,119.7L118.9,115.6L118.5,111.4L118,107.2L117.6,103.1L117.1,98.9L116.7,94.7L116.2,90.5L115.8,86.3L115.3,82.1L114.9,77.9L114.4,73.6L114,69.4L113.6,65.2L113.1,60.9L112.7,56.7L112.2,52.4L111.7,48.1L111.3,43.9L110.8,39.5L110.4,35.3L109.9,31L109.5,27L114.4,27L119.5,27L124.6,27L131.9,27L137.4,27L142.2,30.3L146.6,33.4L151.8,37.1L156.9,40.8L162.1,44.5L167.2,48.2L172.3,51.9L177.5,55.6L182.6,59.2L187.8,62.9L193,66.5L198.1,70.2L203.3,73.8L208.4,77.5L213.6,81.1L218.7,84.7L223.9,88.4L229.1,92L231.4,93.6L231.5,94.3L231.8,95.6L231.7,97.1L231.7,98.4L232.3,99.3L233.6,100.2L238.7,102.8L239.1,103.3L239.3,104.4L239.9,105.8L241,106.6L242.2,107.2L243.7,107.6L248.3,108L249.2,108.6L251.2,111.1L252.3,111.5L255.3,112.3L257.5,112.6L258.5,112.9L260.4,113.5L262.6,114.6L263.7,115.7L263.7,116L263.7,116.8L263.7,119.5L264.1,120.9L264.6,122L264.5,122.6L264,123.1L263.6,123.6L263.3,124.4L262.7,125.3L262.2,126.3L262.4,127.1L263.3,127.6L264.6,128.6L265.7,129L266.2,129L266.9,129L267.5,128.9L271.3,128.1L274.9,127.4L279.9,126.4L279.9,129.4L279.9,133.7L279.9,138.6L279.9,143.1L279.9,148.2L279.9,152.3L280,157.2L280,162L279.5,162.5L279.3,165.3L279.2,168.8L278.2,172.5L276.5,175.2L275.9,177.8L275.5,179.2L274.8,180L274.7,181L274.3,182.4L273.8,183.2L273.4,183.7L271.7,184.2L268.7,186.8L268.5,188.9L265.1,188.3L261.5,187.7L261,187.8L260.7,188L260.6,189.1L255.7,189.3L251.4,189.5L246.2,189.6L242.6,189.8L238,190L233.8,190.2L231,192.6L228.4,194.9L228.3,195L224.6,195.4L220.2,195L217.8,195L216.9,195.3L216.8,196.1L213.5,194.9L209.6,193.7L207,194.5L206.5,194.2L206.2,193.7L204.9,193.4L202.8,193.6L201.3,193.9L199,195.7L197.3,197.3L196.8,197.6L194.4,198.6L189.8,200.8L187.2,202.4L186.7,202.7L185.5,203.1L183.7,203.1L182.2,203.5L180.9,207.8L180,208.2L174.7,206.5L173.6,206.7L172.6,207.3L169.6,209.7L168.1,211.7L167.3,214.4L167.4,215.2L167.4,216.1L166.9,216.6L166.2,216.8L165.5,216.8L163,216.2L162.2,216.5L161.8,217.8L161.9,220.7L161.3,222.6L159.9,223.2L158.7,224L157.8,224.2L157,224L152.7,221.1L151.2,220.6L149.5,221L148,222.2L147.3,223L146.3,223.9L145.2,225.2L145.5,226.3L146.3,227.5L146.8,229.1L146.8,230.5L142.8,232.4L143.1,233.1L143.7,233.9L143.7,235.3L143.6,237.8L142.8,238.7L141.8,239.6L141.1,240.8L140.5,241.3L139.3,242L137.8,242.7L135.1,243.4L132.9,243.8L132.1,244.2L131,245L130.1,246L129.9,247.1L130.1,248.3L130.4,249.4L130.8,250.1L131,250.9L130.7,253.3L129.9,256L129.1,257.2L128,257.9L126.9,258.7L127.2,260.4L127.4,263L127.1,265L127.1,266.3L126.7,267.6L126.4,268.5L125.9,268.3L123.7,268.4L121.3,269.1L120.5,269.7L120.4,270.4L119.8,270.9L119.1,271.5L118.3,272.2L117,272.1L115.8,271.6L115.1,271.1L115.1,270.9L115.5,270.2L115.8,269.4L115.9,268.9L115.4,267.7L115.1,266.4L115.3,265.8L114.9,263.8L114.8,263.7L113.1,264.2L112.5,264.4L112.2,264.6L112.1,264.9L112.5,266.2L112.2,266.4L111.3,266.4L110,265.9L108.6,264.8L108.2,265.2L108.1,266.1L108,267.1L108.3,269.1L108,269.7L107,269.6L105.7,269.6L104.7,269.8L103.9,269.9L103.5,270.5L103.2,271.3L103.7,272.2L103.6,272.5L103.3,272.8L102.9,273L102.5,273L101.5,272.1L100.2,271.7L97.4,271.2L97.1,269.9L96.6,269.9L95.9,269.2L95.3,268.3L94.7,268.3L94.3,268.6L92.7,268.5L91.3,269.9L90.3,271.6L89.2,272.4L88,272.7L87.6,272.7L87.8,271.7L87.6,270.9L87.3,270.2L83.8,268.3L83.2,267.6L82.7,265.4L82.3,263.3L82.3,262.1L82.6,261L82.5,260.1L82.1,259.5L81,258.8L79.9,258.5L78.5,259.4L77.9,259.5L77.2,259.5L76.9,259.2L77,258.7L78.5,256.5L79.2,255.5L80.1,254.8L80.7,254.4L81.1,253.9L81.1,253.4L81,253.1L80,252.7L78.4,251.7L77.6,251.5L77,251L76.2,249.4L75.9,249.1L75.1,248.9L74.5,248.5L74.5,246.4L74.5,244.5L73,241.5L72.4,239.6L71.7,237.7L71,236.8L69.8,236L68.3,235.5L66.9,235.4L65.9,235.5L65.4,235.8L65.4,236.1L66.3,237.4L66.4,238L66.3,238.7L66,239.1L65.3,239.2L64,239.6L62.4,240.3L61.3,240.9L60.4,242.6L59.8,242.8L58.8,242.6L55.8,241.4L53.3,240.4L51.6,239.8L50.5,240.2L50,240.4L48.6,241L46.6,243.4L46.2,244.2L45.8,244.5L45.3,244.9L44.8,244.9L44.4,244.6L44.2,244.4L43.2,242.7L42.1,240.8L41.3,240L40.1,239.9L39.2,240.5L38.1,241.7L36.9,242.9L36.1,243.2L35.4,243L33.7,241.6L32.4,240.6L32.2,240.1L32.7,239.3L33.1,238.1L33.6,237.2Z"/></svg>
