<svg xmlns="http://www.w3.org/2000/svg" viewBox="0 0 300 300"><path fill="#e8e8ea" d="M195.7,139.1L194.1,138.2L193.4,137.7L192.6,137.6L191.7,138.1L191.1,138.7L190.3,138.9L189.3,139L187.9,138.7L186.9,138.4L186.8,138.6L187.3,139.9L187.5,140.9L187.3,141.4L186.8,141.9L186.1,142.2L185.3,142.4L184.6,142.4L183.5,141.9L182.6,141.9L181.8,142.1L181.4,142.5L181.1,143L180.7,145.5L180.3,146.3L179.7,146.7L179.2,146.8L178.5,146.6L177.7,146.8L174.2,147.7L173.7,147.8L172.6,147.9L171.5,147.9L170.8,147.9L169.1,146.9L168.3,146.8L167.9,147.1L167.5,148.4L166.5,149.2L165.2,151.1L164.9,153.8L165,155.7L163.9,157.6L163.8,158.5L164.4,162.8L164.3,163.3L164.1,163.5L163.3,163.7L162.1,164.1L161.2,164.5L160.8,164.6L159.7,164.3L159.4,164.3L159.4,164.6L160.4,166.5L161.3,167.4L162.3,167.3L162.8,167.4L162.7,167.9L163.1,169.1L164,170.9L164.2,172.4L163.7,173.8L163.8,174.3L164.1,174.6L164.9,175.9L166.7,178L168.5,180.2L169.9,182L171,183.3L173.4,185.7L173.8,186.8L173.9,189L174.6,190.3L175.1,191.2L175.5,192L176.4,194.5L176.7,194.9L178.7,193.3L179.1,193.7L179.4,194.3L179.4,195L179.1,195.8L178.5,196.6L175.5,198.4L175.2,199.9L175,202.3L174.9,205.1L175.1,207.3L175,207.8L174.7,208L173.6,207.9L172,209L171.4,209.1L170.7,209.5L170.2,210L170,210.8L170.3,213.1L170.9,215.3L172,217L172.9,218.2L174.2,220L175.2,221.6L177.2,223.2L180,225.8L181,227.2L182,228.9L182.6,230.3L182.9,232.2L183.1,233.3L183.2,236.9L182.6,237.7L182.3,238.6L182.5,239.6L183.1,240.5L183.1,241.6L183.7,243.6L184.8,244.7L185.8,245.5L186.2,246.1L186.1,247.2L186.4,248.2L186.5,249.4L187,251L187.7,252.3L189,256.5L188.9,256.9L188.4,257.8L187.6,258.5L187.2,258.8L186.7,259.6L185.6,261.8L183.4,265.6L181.2,268.1L179.4,269.9L178,271L177.6,271.6L177.6,272.1L177.9,273L177.8,274.7L177.5,275.8L177.1,276.9L176.9,277.9L176.3,278.1L175.1,280L174.5,279L174.2,278L174.6,275.7L173.8,271.4L174.3,270.8L174.7,270.5L175.6,268.9L176.6,267.2L176.7,265.2L177.5,263.8L177.3,262.6L177.3,261.2L177.5,260L177.4,259.1L178.1,258.1L179.2,257.3L178.7,257.1L178.3,256.5L176.8,257.4L176,257.1L175.9,256.2L176.1,255.3L176.2,254.8L176.7,254.1L176.7,252.9L176.4,251.8L176.8,250.5L176,250.5L175.6,250.3L175.8,249.5L176.6,248.8L175.9,247.6L176.4,246.3L176.4,244.6L176,243.1L176,242.1L175.5,240.2L175.2,237.8L174.1,236.1L173.2,233.5L170.9,230.1L170.9,228.6L170.8,227.3L170.3,226.7L169.6,231.2L169.1,230.3L168.9,227.8L168.6,226.6L168.9,224.2L167.6,221.9L167.3,220.2L166.4,217.5L166.7,217L167.9,217.5L166.8,216L165.9,216.4L165.1,214.7L165,210.3L164.2,208.6L164.7,206.9L163.8,200.8L162.1,198.8L162.5,197.1L162.9,195.6L162.8,192.8L163.2,191.9L164,191.3L163.2,191.5L162.6,191.7L161.1,191.9L159.4,191.9L158.8,189.9L158,188.9L157.2,186.8L156.8,184.5L157.1,184L155.8,183L155.4,182.5L154,180.9L152.4,179.8L152.8,180.6L153.3,181.1L152.4,182.5L153.2,184.9L152.5,186.4L151.9,188.4L151.4,189.3L149.5,191.3L147.9,192L146.9,192.2L146,191.9L144.9,190.9L144.7,190L144.5,188.6L144.1,188.3L143.7,188.5L144.4,190.4L144.4,191.3L145.5,193L145.1,193.5L143,194.4L142.3,194.2L141.8,194.4L141.7,195.2L141.4,195.6L138.1,196.8L137.4,198.1L137,199.4L135.3,201.3L133.1,202.9L132.6,202.8L132,202.4L132.1,200.7L132.8,199.3L132.6,197.8L132.4,198.6L131,200.8L130.3,201.5L129.1,201.3L127.2,201.6L126.6,199.4L126.6,198.6L126.4,197.9L126.7,197.2L126.6,196.6L126.2,197.7L126,198.6L125.3,199.5L123.5,200.4L123.5,199.2L123.4,198.2L123.8,197.3L123.7,195.8L124.3,193.6L124.3,192.9L124.1,192.1L123.8,193.3L123.6,194.5L123.2,194.9L122.6,195.1L121.4,196.5L120.6,197.8L118.7,199L117.8,198.9L117.6,197.4L118.4,192L119.1,191.2L119.5,190.3L120.1,187.1L120.8,185.9L121.1,183.5L121.4,183L122.3,181.1L122.6,177.4L122.2,175.6L121.4,173.9L120.5,168.7L118.3,164.4L118.1,163L117.1,161.3L118.1,161.2L116,159.7L115.7,159L115.3,155.5L115.4,153.5L115.1,153.8L114.8,155L114,155.5L114.4,157.6L114.3,158.1L113.9,158.9L112.2,158.1L110.9,157.2L109.5,154.9L108.1,152.4L108.6,152L109.2,151.9L111.2,153.8L112.5,154.2L113.3,153.7L114.3,152.9L114.8,151.4L114.3,150.8L113.3,150.5L112.7,150.1L111.7,149L111.7,148.5L111.4,147.8L110.4,147.3L109.7,146.7L110.3,145.6L110.9,144.8L109.3,144.8L107.4,143.4L107,143L106.4,142.7L104.9,142.5L103.7,143L104.2,145L104.1,145.6L103.3,145.5L101.6,142.5L102.1,141.7L102.9,141L102.5,140.9L101.8,140.9L102.5,138.2L102,137.8L101.9,138.7L101.5,139.5L100.1,141.4L99.3,141L98.9,140.6L99.5,139.6L99.9,139.3L100.1,138.8L99.6,137.7L98.8,136.9L98.1,135.6L97.8,135.6L98.1,137.1L98,139.4L96.4,136.9L93.4,133.4L92.7,132.4L92.5,131.4L92.2,130.4L91.9,129.4L91.9,128.6L91.2,127.8L90.9,126.6L90.8,125.3L91.2,124.4L92.1,123.4L92.8,123.2L93.3,123.6L94.6,124.3L95.5,124.9L95.9,125.7L96.3,125.6L96.7,125.1L96.6,124.5L96.2,122.8L96.1,120.8L96.1,116.1L96,115.5L96.7,115.1L97,114.5L97.3,113.7L97.5,113.4L97.9,113.3L98.6,113.7L99.7,115.1L100.4,115.4L101.1,115.2L101.9,113.2L102.2,112.6L102.5,112.3L103.2,112.3L103.6,112L103.8,111.1L103.8,110.1L103,107.4L102.8,106.2L102.6,105L103.1,103.7L103.8,102.3L103.6,101L103.8,100.5L104.3,100.4L104.9,100.7L105.7,100.5L106.2,99.7L106.4,99L106.8,96.1L107,93.3L107.1,91.1L106.5,89.8L105.7,86.2L105.9,85.6L106.3,85.5L107.6,86.7L108.1,86.9L109,86.8L109.9,86.4L110.6,86.4L111.6,86.9L112.9,87.4L114.9,87.9L115.8,88.4L116.5,88.3L117.1,86.9L117.7,84.9L118.7,81.9L119.8,79.7L120.1,79.1L121.3,77.3L122.5,75.4L123.6,73L124.2,71.3L124.1,70.6L123.7,70L122.9,69.6L122.3,69.2L122.1,68.9L122.1,68.5L122.4,67.4L123,66L123.6,65.3L125.2,64.4L126.2,63.3L127.3,61.8L127.9,60.8L128.2,58.7L128.5,58.2L129.2,57.6L129.8,56.8L129.7,56.4L129.4,56.1L128.9,54.6L128.7,52.3L128.8,50.4L129.2,49.7L129.7,48.6L130.7,47.9L132.1,47.5L134.1,46.2L137.8,43.4L139.1,42.4L140,42L140.8,40.7L142,39.4L143.7,38.8L144.8,38.5L150,37.6L150.9,37.7L151.8,38.2L152.8,40L153.8,40.7L154.9,41.1L155.8,40.9L155.8,40.2L153.1,36.1L152.9,35L152.8,33.9L153.1,33.1L153.9,32.2L155.1,31.3L156.5,30.2L157.4,29.4L158.5,29.1L158.9,28.7L159,28L158.9,27.3L158.4,26.5L158.5,25.4L158.7,24.5L159.2,23.9L160.2,22.4L160.7,21.4L161.1,20.9L161.5,20.1L162.3,20L163.1,20.2L163.6,20.7L164.1,21.6L164.6,22.4L165.2,22.4L165.9,22.3L166.1,22.4L166.8,23.1L167.9,24.6L168.5,25L168.9,25.6L169.2,26.9L169.4,28.2L170.8,32.8L171.3,33.7L171.6,34.5L172.3,34.6L172.8,33.9L173,33.1L173.6,32.9L174.3,33L175.6,33.7L176.2,34.1L176.6,36.4L176.7,39L176.6,39.8L177.1,42L177.3,44.4L177.4,45.8L177.4,47.1L177.3,48.8L177,51.1L176.5,53L176.7,54.6L176.4,55.3L175.2,55.7L175.1,56.3L175.5,57.3L176.3,58.6L176.3,59.4L175.9,59.9L175,60L173.8,60.5L172.9,62.1L172,63.4L171.6,63.7L169.9,63.3L169.5,63.7L168.9,66L168.5,66.9L167.8,67.8L167.1,68.2L166.6,68.6L165.2,68.3L164.6,69.7L163.9,71.5L163.8,72.5L164.2,73.9L164,74.3L163.3,74.6L162.1,75.3L161.4,77.4L161.4,79.4L161.9,80.1L162.7,80.4L163.2,81L163.3,82L163.8,83.2L163.6,84.6L162,86.7L161.9,87.8L162.8,88.2L163.5,88L164.4,87.5L165.5,86.7L167.9,85.6L170.4,84.9L172.5,84.8L174.2,84.9L175.1,85.1L175.4,85.5L177.7,84.9L178.2,84.8L178.6,84.8L178.6,85.2L176.9,87.1L176.6,87.9L176.7,88.8L177.4,89.7L178,90.3L178.6,92L178.2,93.5L178.5,94L179,94.6L179.3,95.5L179.3,96.5L179,98.2L181.6,99.1L183.7,99.5L185.4,99.6L186.4,100L187,100.3L187.4,100.9L187.5,101.5L187,102L185.9,103.4L185.3,105.4L185.4,106.9L185.3,108.1L184.1,109.9L183.5,111.2L183.1,112.5L183.1,113L183.4,113.4L183.9,113.7L184.8,113.8L186,113.7L188.7,114L191.7,114.5L193,114.8L193.4,115.4L193.2,116.6L193.1,117.8L193.3,118.7L193.8,119.5L194.6,119.7L195.3,120.1L195.4,120.7L195.2,121.5L195.6,122.2L196,122.6L196.9,122.9L198.7,122.3L199.9,122.6L201.1,122.9L202,122.8L203,122.3L205.1,120.1L207.5,119L208.3,118.7L208.8,118.9L209,119L208.9,119.4L209.2,121.2L209.1,121.4L208.3,122.8L206.3,124.3L204.9,125L204,125L203.3,125.9L202.8,127.6L202.1,128.6L201.5,128.9L201.1,129.5L200.9,130.5L201.3,131.1L202.2,131.1L202.3,131.4L201.5,131.9L200.6,132.1L199.4,131.9L198.4,132.3L197.3,133.2L196.5,135.2L195.8,138.3Z"/></svg>
