<svg xmlns="http://www.w3.org/2000/svg" viewBox="0 0 400 300"><path d="M23.3,0L21.4,2.8L16.1,2.5L14.4,6.1L19.1,8L20.5,14.1L16.9,22.2L12.1,20.5L8.6,20.4L8.7,15.5L0.3,12.1L0,11.9L0,0Z" fill="#2c2c34" stroke="#474751" stroke-width="0.8"/><path d="M322.9,300L322.8,299.8L322.2,300L313.9,300L313.9,300L313.1,298.8L308.5,298.4L305.3,296.4L297.8,298.6L295.5,295.6L291.3,295.9L286.1,295.2L285.1,286.7L282,284.9L278.9,279.5L278,273.9L278.8,268L282.5,263.8L283.6,268.1L288,271.6L292,270.3L296.1,270.8L299.8,267.6L302.8,267L308.8,268.8L314,267.5L317.3,258.6L319.7,256.4L321.9,249.2L329.2,249.2L334.7,250.3L334.7,250.3L331.1,256L335.8,262L334.7,264.9L341.8,270.8L334.3,271.6L332.2,275.9L332.4,281.6L326.3,286L326.2,292.3L324.2,300L322.9,300ZM400,298.2L398.3,298.1L399.8,294.6L400,294.6L400,298.2ZM389.4,300L387.4,299.5L386.2,296.7L392.6,296.4L394.2,298.5L392.5,300L389.4,300ZM400,274.3L399.7,274.3L398.8,278.1L400,279.7L400,282.1L400,282.1L399.6,282.3L397,278.2L395.2,270.1L396.4,265.1L398.5,262.7L398.5,262.7L399,266.2L400,266.4L400,274.3ZM354.6,300L353.9,299.4L354.4,293.2L350.1,295.2L350.5,300L345.2,300L345.2,300L345,298.8L342.3,298.7L340.3,294.3L343,290.2L343.9,285.1L347.1,275.6L348.4,273L353.8,268.2L358.8,270.1L366.8,271L366.8,271L374.1,270.7L380.4,266.1L381.4,267.5L376.4,273.8L371.6,275L365.5,273.8L354.9,274.1L349.3,275L348.4,279.8L354.1,285.5L357.5,282.6L369.4,280.5L368.9,283.4L366.1,282.5L363.3,286.2L357.7,288.6L363.8,296.8L362.6,299L363.4,300L354.6,300ZM235.2,300L234.9,299.5L230.1,294.3L226.9,289.6L222.1,280.7L216.5,275.4L214.6,269.9L212.3,265L206.6,261L203.3,255.5L198.5,252L191.9,244.9L191.3,241.7L195.4,242L205.2,243.2L210.8,249.4L215.7,253.7L219.2,256.4L225.2,263.2L231.7,263.3L237,267.7L240.7,273L245.5,275.9L243,281.1L246.6,283.3L248.9,283.4L248.9,283.4L250,287.9L252.2,291.4L256.9,292L260,296L259.2,300L235.2,300Z" fill="#2c2c34" stroke="#474751" stroke-width="0.8"/><path d="M237.6,198.6L236.1,190.7L240.2,185.3L248.4,184L254.3,185L259.6,187.5L262.4,183L268.1,185.4L269.5,189.8L268.8,197.6L258.1,202.6L260.9,206.5L254.2,207L248.7,209.6L243.4,208.6L240.8,205.3Z" fill="#2c2c34" stroke="#474751" stroke-width="0.8"/><path d="M254.3,185L248.4,184L240.2,185.3L236.1,190.7L237.6,198.6L231.9,195.6L226.5,195.7L227.4,190.6L221.8,190.6L221.3,197.8L217.9,207.3L215.8,213L216.2,217.6L220.4,217.8L223,223.7L224.1,229.2L227.6,232.9L231.5,233.6L234.8,237L232.7,239.6L228.5,240.4L228,237.1L222.8,234.3L221.7,235.4L219.2,233L218.1,229.8L214.8,226.2L211.7,223.1L210.6,226.9L209.4,223.3L210.1,219.3L212,213.2L215.1,206.5L218.6,200.5L216.1,194.6L216.2,191.5L215.4,187.9L211.2,182.7L209.7,179.4L211.9,178.2L214.2,172.4L211.6,168.1L207.6,163.2L204.5,157.3L207.2,156.1L210.1,148.9L214.6,148.6L218.3,145.6L221.9,144.1L224.7,146.1L225,150.2L229.3,150.5L227.8,157.6L227.9,163.6L234.6,159.6L236.5,160.8L240.2,160.6L241.5,158.3L246.3,158.7L251.1,164.1L251.5,170.7L256.7,176.4L256.4,182Z" fill="#2c2c34" stroke="#474751" stroke-width="0.8"/><path d="M268.1,185.4L262.4,183L259.6,187.5L254.3,185L256.4,182L256.7,176.4L251.5,170.7L251.1,164.1L246.3,158.7L241.5,158.3L240.2,160.6L236.5,160.8L234.6,159.6L227.9,163.6L227.8,157.6L229.3,150.5L225,150.2L224.7,146.1L221.9,144.1L223.3,141.6L228.7,137.1L229.2,138.7L232.6,138.9L231.7,131.1L235,130.1L238.7,135.5L241.5,141.7L249.3,141.8L251.8,147.7L247.7,149.4L245.9,151.8L253.5,155.9L258.8,163.8L262.8,169.6L267.6,174.2L269.2,178.9Z" fill="#2c2c34" stroke="#474751" stroke-width="0.8"/><path d="M248.7,209.6L254.2,207L260.9,206.5L258.1,202.6L268.8,197.6L269.5,189.8L268.1,185.4L269.2,178.9L267.6,174.2L262.8,169.6L258.8,163.8L253.5,155.9L245.9,151.8L247.7,149.4L251.8,147.7L249.3,141.8L241.5,141.7L238.7,135.5L235,130.1L238.4,128.4L243.4,128.4L249.6,127.7L255,124L258.1,126.6L263.9,127.8L262.9,131.8L265.9,134.6L272.3,136.4L263.8,142.2L258.5,148.6L257.1,153.2L262,160.3L267.9,169L273.7,173.1L277.6,178.4L280.5,190.5L279.6,201.9L274.3,206.2L267,210.4L261.8,215.7L253.9,221.7L251.6,217.6L253.4,213.2Z" fill="#2c2c34" stroke="#474751" stroke-width="0.8"/><path d="M397.2,0L396,1L395.8,4.6L395.1,5.5L397.6,6.8L400,9.2L400,12.4L400,12.4L397.6,12.9L393.1,13.3L390.6,16.9L387.8,16.6L387.4,17.3L384.3,15.8L383.5,17.3L381.7,18L381.4,16.5L379.8,15.7L378.1,14.5L379.8,10.9L381.3,9.9L380.8,8.5L382.4,4L382,2.7L378.2,1.8L375.8,0L397.2,0Z" fill="#2c2c34" stroke="#474751" stroke-width="0.8"/><path d="M400,40L395.1,43.1L389.4,43.7L388.6,39.5L389.8,33.7L387,25.5L391.7,24.2L387.4,17.3L387.4,17.3L387.8,16.6L390.6,16.9L393.1,13.3L397.6,12.9L400,12.4L400,40Z" fill="#2c2c34" stroke="#474751" stroke-width="0.8"/><path d="M204.2,89.3L204.7,92.1L202.5,93.4L203,97.8L198.4,96.5L190.2,101.4L190.4,105.5L186.9,111.4L186.6,114.8L183.8,120.5L178.8,118.9L178.5,126.1L177.1,128.5L177.8,131.4L174.7,133L171.3,122.1L169.6,122.1L168.5,126.5L165,122.9L167,119L169.8,118.6L172.8,112.7L169.1,111.5L163.2,111.6L157.2,110.6L156.6,105.7L153.6,105.4L148.6,102.3L146.3,107.1L150.9,110.8L146.9,113.4L145.5,116L149.4,117.9L148.3,122.1L150.5,127.2L151.5,132.9L150.6,135.4L146.3,135.3L138.5,136.7L138.8,141.9L135.5,145.9L126.3,150.4L119.2,158.3L114.4,162.5L108.1,166.9L108.1,169.9L104.9,171.6L99.2,173.9L96.3,174.3L94.3,179.3L95.7,187.8L96,193.2L93.3,199.4L93.3,210.4L90,210.7L87.1,215.6L89,217.8L83.2,219.6L81.1,224L78.6,225.8L72.5,219.8L69.6,210.8L67.2,204.3L65,201.2L61.6,195L60,186.8L58.9,182.7L53.1,173.7L50.5,160.8L48.6,152.2L48.6,144.1L47.4,137.7L38.1,141.8L33.7,141L25.4,132.7L28.4,130.2L26.6,127.5L19.1,121.6L23.3,117L37.3,117L36,111L32.5,107.4L31.8,102L27.6,98.8L34.6,91.3L42,91.9L48.6,84.3L52.6,76.9L58.8,69.5L58.7,64.2L64.1,59.9L58.9,56.1L56.8,51L54.5,44.3L57.6,41L67.2,42.9L74.3,41.7L80.5,35.2L87.3,44.3L86.6,50.5L89.2,54.4L89,58.2L84.4,57.2L86.2,65.5L92.4,70.2L101.2,75.4L97.2,78.7L94.7,85.5L100.9,88.2L106.9,91.8L115.2,95.8L123.9,96.7L127.5,100.3L132.4,101L140.1,102.7L145.4,102.5L146.1,99.7L145.3,95.2L145.7,92.1L149.6,90.6L150.2,96.2L150.3,97.7L156.1,100.4L160.1,99.3L165.4,99.7L170.6,99.5L171,95.2L168.5,92.9L173.6,92L179.3,86.6L186.7,82L192,83.8L196.5,80.7L199.5,85.2L197.4,88.3Z" fill="#2c2c34" stroke="#474751" stroke-width="0.8"/><path d="M174.7,133L174.5,137.9L172.3,136.9L172.7,142.4L170.9,138.8L170.5,135.3L169.3,132L166.7,128L160.8,127.8L161.4,130.6L159.4,134.4L156.7,133L155.8,134.3L154,133.5L151.5,132.9L150.5,127.2L148.3,122.1L149.4,117.9L145.5,116L146.9,113.4L150.9,110.8L146.3,107.1L148.6,102.3L153.6,105.4L156.6,105.7L157.2,110.6L163.2,111.6L169.1,111.5L172.8,112.7L169.8,118.6L167,119L165,122.9L168.5,126.5L169.6,122.1L171.3,122.1Z" fill="#2c2c34" stroke="#474751" stroke-width="0.8"/><path d="M168.5,92.9L171,95.2L170.6,99.5L165.4,99.7L160.1,99.3L156.1,100.4L150.3,97.7L150.2,96.2L154.4,90.9L157.8,89.1L162.3,90.8L165.7,90.9Z" fill="#2c2c34" stroke="#474751" stroke-width="0.8"/><path d="M145.7,92.1L145.3,95.2L146.1,99.7L145.4,102.5L140.1,102.7L132.4,101L127.5,100.3L123.9,96.7L115.2,95.8L106.9,91.8L100.9,88.2L94.7,85.5L97.2,78.7L101.2,75.4L103.9,73.6L109,75.9L115.4,80.6L119,81.7L121.1,85.2L126,86.6L131.2,89.8L138.3,91.4Z" fill="#2c2c34" stroke="#474751" stroke-width="0.8"/><path d="M0,80.3L7.5,77.5L7.7,71.3L11.2,67.1L16,67.1L16.7,65L21.5,64L23.9,64.7L26.3,62.6L26,58.1L28.7,53.6L32.7,51.6L30.2,46.6L36.3,46.8L38,44.1L37.8,41.1L40.9,37.8L40.2,34L38.7,30.7L42.4,27.2L49.2,25.6L56.5,24.6L59.7,23.2L63.4,22.3L68.1,26L70,32L80.5,35.2L80.5,35.2L74.3,41.7L67.2,42.9L57.6,41L54.5,44.3L56.8,51L58.9,56.1L64.1,59.9L58.7,64.2L58.8,69.5L52.6,76.9L48.6,84.3L42,91.9L34.6,91.3L27.6,98.8L31.8,102L32.5,107.4L36,111L37.3,117L23.3,117L19.1,121.6L14.5,119.9L12.6,114.9L7.6,109.5L0,110.4L0,80.3Z" fill="#2c2c34" stroke="#474751" stroke-width="0.8"/><path d="M0,21.7L2.7,20.9L3.7,18.1L6.7,20.2L8.6,20.4L8.6,20.4L12.1,20.5L16.9,22.2L18.9,23.1L23.4,20.6L25.6,22.1L27.6,18.5L31.4,18.6L32.4,17.5L33.1,14.2L35.8,11.4L39.2,13.2L38.6,15.7L40.5,16.1L39.9,22.8L42.4,25.4L44.6,23.7L47.4,23L51.4,19.4L55.8,20L62.3,20L63.4,22.3L59.7,23.2L56.5,24.6L49.2,25.6L42.4,27.2L38.7,30.7L40.2,34L40.9,37.8L37.8,41.1L38,44.1L36.3,46.8L30.2,46.6L32.7,51.6L28.7,53.6L26,58.1L26.3,62.6L23.9,64.7L21.5,64L16.7,65L16,67.1L11.2,67.1L7.7,71.3L7.5,77.5L0,80.3L0,21.7Z" fill="#2c2c34" stroke="#474751" stroke-width="0.8"/><path d="M27.6,0L27.3,2.9L34.2,2.3L42,4.9L54,3.7L55.6,11.2L57.7,10.4L61.6,12.3L61.3,15.4L62.3,20L55.8,20L51.4,19.4L47.4,23L44.6,23.7L42.4,25.4L39.9,22.8L40.5,16.1L38.6,15.7L39.2,13.2L35.8,11.4L33.1,14.2L32.4,17.5L31.4,18.6L27.6,18.5L25.6,22.1L23.4,20.6L18.9,23.1L16.9,22.2L16.9,22.2L20.5,14.1L19.1,8L14.4,6.1L16.1,2.5L21.4,2.8L23.3,0L27.6,0Z" fill="#2c2c34" stroke="#474751" stroke-width="0.8"/><path d="M55,0L55.8,1.8L54,3.7L42,4.9L34.2,2.3L27.3,2.9L27.6,0L55,0Z" fill="#2c2c34" stroke="#474751" stroke-width="0.8"/><path d="M0,11.9L0.3,12.1L8.7,15.5L8.6,20.4L6.7,20.2L3.7,18.1L2.7,20.9L0,21.7L0,11.9Z" fill="#2c2c34" stroke="#474751" stroke-width="0.8"/><path d="M105.5,228.6L104.6,235.3L101.9,237.1L96.4,238.6L93.4,233.5L92.3,224.3L95.1,213.9L99.5,217.4L102.5,222Z" fill="#2c2c34" stroke="#474751" stroke-width="0.8"/><path d="M281.3,159L276.1,156.9L276,151.1L279.1,148.1L286,146.2L289.7,146.4L291.1,148.9L288.3,151.9L286.8,155.8ZM373.7,0L366.4,2L361.7,5.8L354.9,8.1L358.2,4.3L356.9,1.1L357.9,0L373.7,0ZM345.8,0L342,5.1L335.8,5.6L332.5,9.4L335.9,14.8L341.1,16.2L341.3,19.8L346.3,22.1L353.4,16.4L359,19.5L363.1,19.7L364.2,23.9L355.2,26.1L352.2,30.4L346,34.3L342.8,39.7L349.6,44L352.1,51.5L356,58.4L360.3,64.2L360.2,69.7L356.2,71.7L357.7,75.6L361.5,77.9L360.5,83.9L358.9,89.6L355.3,90.2L350.7,98L345.5,107.3L339.6,115.7L330.9,122.1L322.1,127.9L314.9,128.7L311,131.8L308.8,129.5L305.3,132.9L296.4,136.4L289.7,137.4L287.5,144.6L284,145L282.3,140.1L283.8,137.4L275.3,135.2L272.3,136.4L265.9,134.6L262.9,131.8L263.9,127.8L258.1,126.6L255,124L249.6,127.7L243.4,128.4L238.4,128.4L235,130.1L231.7,131.1L232.6,138.9L229.2,138.7L228.7,137.1L228.5,134.3L223.8,136.3L221.1,135L216.4,132.5L218.2,126.8L214.2,125.4L212.7,119L206,120.2L206.7,111.9L212.7,106.1L213,100.2L212.8,94.8L210,93L207.9,88.8L204.2,89.3L197.4,88.3L199.5,85.2L196.5,80.7L192,83.8L186.7,82L179.3,86.6L173.6,92L168.5,92.9L165.7,90.9L162.3,90.8L157.8,89.1L154.4,90.9L150.2,96.2L149.6,90.6L145.7,92.1L138.3,91.4L131.2,89.8L126,86.6L121.1,85.2L119,81.7L115.4,80.6L109,75.9L103.9,73.6L101.2,75.4L92.4,70.2L86.2,65.5L84.4,57.2L89,58.2L89.2,54.4L86.6,50.5L87.3,44.3L80.5,35.2L70,32L68.1,26L63.4,22.3L62.3,20L61.3,15.4L61.6,12.3L57.7,10.4L55.6,11.2L54,3.7L55.8,1.8L55,0L345.8,0Z" fill="#2c2c34" stroke="#474751" stroke-width="0.8"/><path d="M359.5,116.7L355.6,127.9L352.9,133.5L349.6,127.7L348.9,122.6L352.6,115.7L357.7,110.4L360.6,112.5Z" fill="#2c2c34" stroke="#474751" stroke-width="0.8"/><path d="M353.5,195.2L350.2,190.2L355.7,190.5L357.9,192.8L356.2,198.5ZM364.6,212.8L366.2,211L366.9,207L370.4,206.6L369.4,211L374.1,204.8L373.5,210.9L371.2,213.1L369.2,217.1L367.2,219L363.3,214.6ZM388.7,222.9L389.3,227.2L389.7,230.8L387.5,236.6L385.2,230.1L382.2,233.4L384.3,238.1L382.5,241.1L375,237.3L373.2,232.7L375.1,229.7L371.1,226.6L369.1,229.3L366.1,229.1L361.4,232.6L360.4,230.8L362.9,225.4L366.9,223.6L370.3,221.1L372.6,224L377.4,222.3L378.4,219.4L382.9,219.3L382.5,214.3L387.7,217.3L388.2,220.6ZM338.7,217.1L330.2,223.2L333.4,218.7L337.9,214.8L341.7,210.3L345.1,203.9L346.2,209.2L342,212.7ZM363,158.8L362,161.6L364.1,166.4L362.5,171.9L358.7,174.1L357.7,179.4L359.2,184.6L362.5,185.3L365.3,184.5L373.3,188.2L372.6,191.7L374.7,193.3L374.1,196.3L369.1,193.1L366.8,189.7L365.1,192.1L361.1,188.2L355.3,189.1L352.2,187.7L352.5,185L354.5,183.3L352.6,181.8L351.8,184.2L348.6,180.4L347.7,177.5L347.4,171.2L350,173.4L350.7,163L352.7,156.9L356.6,157L360.5,158.9L362.4,157.1ZM361.1,203.6L360.1,200.5L363.9,202.5L368,202.5L367.9,205.2L364.9,207.9L360.9,209.9L360.7,206.9ZM383.1,198.7L384.9,206L380,204.2L380.1,206.4L381.7,210.4L378.7,211.9L378.4,207.3L376.5,207L375.5,203.1L379.2,203.6L379.1,201.1L375.3,196.2L381.4,196.3Z" fill="#2c2c34" stroke="#474751" stroke-width="0.8"/><path d="M221.7,235.4L222.8,234.3L228,237.1L228.5,240.4L232.7,239.6L234.8,237L236.2,237.6L240,241.4L242.6,245.7L243,250L242.3,252.9L243,255.1L243.4,258.8L245.7,260.6L248.2,266.2L248,268.3L243.5,268.8L237.5,264.1L230,259L229.3,255.8L225.6,251.5L224.7,246.2L222.4,242.8L223.1,238.1ZM334.7,250.3L329.2,249.2L321.9,249.2L319.7,256.4L317.3,258.6L314,267.5L308.8,268.8L302.8,267L299.8,267.6L296.1,270.8L292,270.3L288,271.6L283.6,268.1L282.5,263.8L287.2,266L292.1,264.8L293.4,259.4L296.1,258.2L303.7,256.8L308.3,251.8L311.4,247.8L314.3,251.1L315.6,248.9L318.6,249.1L319,245L319.3,241.9L324.2,237.5L327.4,232.5L329.9,232.4L333.2,235.7L333.5,238.5L337.7,240.2L343,242.2L342.5,244.7L338.3,245L339.4,248.1Z" fill="#2c2c34" stroke="#474751" stroke-width="0.8"/><path d="M319.3,241.9L319,245L318.6,249.1L315.6,248.9L314.3,251.1L311.4,247.8L313.9,245.4Z" fill="#2c2c34" stroke="#474751" stroke-width="0.8"/><path d="M222,144.7L221.2,144.3L220.9,144.1L220.5,144L220.1,144.3L219.7,144.6L219.4,144.7L218.9,144.7L218.2,144.6L217.8,144.4L217.7,144.5L217.9,145.1L218,145.6L217.9,145.9L217.7,146.1L217.4,146.3L217,146.4L216.6,146.3L216.1,146.1L215.7,146.1L215.3,146.2L215.1,146.4L215,146.6L214.8,147.8L214.6,148.2L214.3,148.4L214,148.4L213.7,148.4L213.3,148.4L211.6,148.9L211.4,149L210.8,149L210.3,149L210,149L209.2,148.5L208.8,148.4L208.6,148.6L208.4,149.2L207.9,149.6L207.3,150.5L207.2,151.8L207.2,152.8L206.7,153.7L206.6,154.1L206.9,156.2L206.9,156.4L206.8,156.5L206.4,156.6L205.8,156.8L205.4,157L205.2,157L204.7,156.9L204.5,156.9L204.5,157L205,157.9L205.5,158.3L205.9,158.3L206.1,158.4L206.1,158.6L206.3,159.2L206.7,160.1L206.8,160.8L206.6,161.4L206.6,161.7L206.8,161.8L207.2,162.4L208,163.4L208.9,164.5L209.6,165.4L210.1,166L211.3,167.1L211.5,167.7L211.5,168.8L211.8,169.4L212.1,169.8L212.2,170.2L212.7,171.4L212.9,171.6L213.8,170.8L214,171L214.1,171.3L214.1,171.6L214,172L213.7,172.4L212.2,173.3L212.1,174L212,175.1L212,176.5L212.1,177.5L212,177.8L211.9,177.9L211.4,177.8L210.6,178.4L210.3,178.4L210,178.6L209.7,178.8L209.6,179.2L209.8,180.4L210,181.4L210.6,182.2L211,182.8L211.6,183.6L212.1,184.4L213.1,185.2L214.4,186.4L214.9,187.1L215.4,187.9L215.7,188.6L215.8,189.5L215.9,190L215.9,191.8L215.7,192.2L215.5,192.6L215.6,193.1L215.9,193.5L215.9,194.1L216.2,195L216.7,195.5L217.2,195.9L217.4,196.2L217.3,196.7L217.5,197.2L217.6,197.8L217.8,198.5L218.1,199.2L218.7,201.2L218.7,201.4L218.5,201.8L218.1,202.2L217.9,202.3L217.6,202.7L217.1,203.7L216,205.6L215,206.8L214.1,207.6L213.5,208.2L213.3,208.5L213.3,208.7L213.4,209.1L213.4,209.9L213.2,210.5L213,211L213,211.5L212.7,211.6L212.1,212.5L211.8,212L211.6,211.5L211.8,210.5L211.4,208.4L211.7,208.1L211.9,207.9L212.3,207.1L212.8,206.4L212.8,205.4L213.2,204.7L213.1,204.1L213.1,203.4L213.2,202.9L213.2,202.4L213.5,202L214,201.6L213.8,201.5L213.6,201.2L212.9,201.6L212.5,201.5L212.4,201.1L212.5,200.6L212.6,200.4L212.9,200.1L212.8,199.5L212.7,199L212.9,198.3L212.5,198.3L212.3,198.2L212.4,197.8L212.8,197.5L212.4,196.9L212.7,196.3L212.7,195.5L212.5,194.8L212.5,194.3L212.3,193.4L212.1,192.2L211.6,191.4L211.1,190.1L210,188.5L210,187.8L210,187.2L209.8,186.9L209.4,189.1L209.2,188.6L209.1,187.4L208.9,186.8L209.1,185.7L208.5,184.6L208.3,183.7L207.9,182.5L208,182.2L208.6,182.5L208.1,181.7L207.6,181.9L207.3,181.1L207.2,179L206.8,178.2L207.1,177.4L206.6,174.4L205.8,173.5L206,172.7L206.2,171.9L206.2,170.6L206.3,170.2L206.7,169.8L206.4,170L206.1,170L205.3,170.1L204.5,170.1L204.2,169.2L203.8,168.7L203.5,167.7L203.3,166.6L203.4,166.3L202.8,165.9L202.6,165.6L201.9,164.9L201.2,164.3L201.4,164.7L201.6,165L201.2,165.6L201.5,166.8L201.2,167.5L200.9,168.4L200.7,168.9L199.7,169.9L199,170.2L198.5,170.3L198.1,170.2L197.6,169.7L197.5,169.2L197.4,168.5L197.2,168.4L197,168.5L197.3,169.4L197.3,169.9L197.8,170.7L197.6,170.9L196.6,171.3L196.3,171.3L196.1,171.4L196,171.7L195.9,171.9L194.3,172.5L194,173.1L193.7,173.8L192.9,174.7L191.9,175.4L191.6,175.4L191.3,175.2L191.4,174.4L191.7,173.7L191.6,173L191.6,173.4L190.9,174.4L190.5,174.8L189.9,174.7L189.1,174.8L188.7,173.7L188.7,173.4L188.7,173L188.8,172.7L188.7,172.4L188.5,172.9L188.5,173.4L188.1,173.8L187.3,174.2L187.3,173.7L187.2,173.2L187.4,172.7L187.4,172L187.6,171L187.6,170.6L187.6,170.2L187.4,170.8L187.3,171.4L187.1,171.6L186.8,171.7L186.2,172.4L185.9,173L185,173.5L184.5,173.5L184.4,172.8L184.8,170.2L185.2,169.8L185.3,169.4L185.6,167.9L186,167.3L186.1,166.1L186.2,165.9L186.7,164.9L186.8,163.2L186.6,162.3L186.2,161.5L185.8,159L184.8,156.9L184.7,156.3L184.2,155.4L184.7,155.4L183.7,154.6L183.5,154.3L183.3,152.6L183.4,151.7L183.2,151.8L183.1,152.4L182.7,152.7L182.9,153.7L182.8,153.9L182.6,154.3L181.8,153.9L181.2,153.4L180.5,152.4L179.9,151.1L180.1,151L180.4,150.9L181.4,151.8L182,152L182.4,151.8L182.8,151.4L183.1,150.7L182.8,150.4L182.4,150.2L182.1,150L181.6,149.5L181.6,149.3L181.4,148.9L181,148.7L180.6,148.4L180.9,147.9L181.2,147.5L180.4,147.5L179.5,146.8L179.3,146.6L179,146.5L178.3,146.4L177.7,146.6L178,147.6L178,147.9L177.6,147.8L176.7,146.4L177,146L177.3,145.7L177.2,145.6L176.8,145.6L177.2,144.3L176.9,144.1L176.9,144.5L176.7,144.9L176,145.9L175.6,145.7L175.4,145.5L175.7,145L175.9,144.9L176,144.6L175.8,144.1L175.4,143.7L175,143.1L174.9,143.1L175,143.8L175,144.9L174.2,143.7L172.8,142L172.4,141.5L172.4,141L172.2,140.6L172.1,140.1L172.1,139.7L171.7,139.3L171.6,138.7L171.5,138.1L171.7,137.7L172.1,137.2L172.5,137.1L172.7,137.3L173.4,137.6L173.8,137.9L174,138.3L174.2,138.3L174.4,138L174.3,137.7L174.2,136.9L174.1,136L174.1,133.7L174,133.4L174.4,133.2L174.5,132.9L174.7,132.6L174.8,132.4L175,132.4L175.3,132.6L175.8,133.2L176.1,133.4L176.5,133.3L176.9,132.3L177,132L177.2,131.9L177.5,131.9L177.7,131.7L177.8,131.3L177.8,130.8L177.4,129.5L177.3,128.9L177.2,128.4L177.4,127.7L177.8,127.1L177.7,126.4L177.8,126.2L178,126.2L178.3,126.3L178.7,126.2L179,125.8L179,125.5L179.2,124.1L179.3,122.8L179.4,121.7L179.1,121.1L178.7,119.3L178.8,119L179,119L179.6,119.6L179.9,119.7L180.3,119.6L180.7,119.4L181.1,119.4L181.5,119.7L182.2,119.9L183.1,120.2L183.6,120.4L183.9,120.4L184.2,119.7L184.5,118.7L184.9,117.2L185.5,116.2L185.6,115.9L186.2,115L186.8,114.1L187.3,113L187.6,112.2L187.6,111.8L187.4,111.5L187,111.4L186.7,111.2L186.6,111L186.6,110.8L186.8,110.3L187,109.6L187.3,109.3L188.1,108.9L188.6,108.3L189.1,107.6L189.4,107.1L189.5,106.1L189.7,105.9L190,105.6L190.3,105.2L190.3,105L190.1,104.8L189.9,104.1L189.7,103L189.8,102.1L190,101.8L190.3,101.2L190.7,100.9L191.4,100.7L192.4,100.1L194.1,98.7L194.8,98.3L195.2,98.1L195.6,97.5L196.2,96.8L197,96.5L197.5,96.4L200,96L200.4,96L200.9,96.3L201.4,97.1L201.8,97.4L202.4,97.7L202.8,97.6L202.8,97.2L201.5,95.2L201.4,94.7L201.3,94.2L201.5,93.8L201.9,93.4L202.4,93L203.1,92.4L203.6,92L204.1,91.9L204.3,91.7L204.3,91.4L204.3,91L204.1,90.6L204.1,90.1L204.2,89.7L204.4,89.4L204.9,88.7L205.2,88.2L205.3,87.9L205.5,87.5L205.9,87.5L206.3,87.6L206.5,87.8L206.8,88.3L207,88.7L207.3,88.7L207.6,88.6L207.8,88.7L208.1,89L208.6,89.7L208.9,89.9L209.1,90.2L209.2,90.8L209.3,91.5L210,93.6L210.2,94.1L210.4,94.5L210.7,94.5L211,94.2L211.1,93.8L211.4,93.7L211.7,93.7L212.3,94.1L212.6,94.3L212.8,95.4L212.8,96.6L212.8,97L213,98.1L213.1,99.3L213.2,99.9L213.2,100.5L213.1,101.3L213,102.4L212.7,103.4L212.8,104.1L212.7,104.5L212.1,104.7L212.1,105L212.2,105.4L212.6,106.1L212.7,106.4L212.4,106.7L212,106.7L211.4,107L211,107.7L210.6,108.4L210.4,108.5L209.6,108.3L209.4,108.5L209.1,109.6L208.9,110.1L208.5,110.5L208.2,110.7L208,110.8L207.3,110.7L207,111.4L206.7,112.3L206.6,112.7L206.8,113.4L206.7,113.6L206.4,113.8L205.8,114.1L205.5,115.1L205.5,116.1L205.7,116.4L206.1,116.5L206.4,116.8L206.4,117.3L206.6,117.9L206.5,118.6L205.7,119.6L205.7,120.1L206.1,120.3L206.5,120.2L206.9,120L207.4,119.6L208.6,119L209.8,118.7L210.8,118.7L211.6,118.7L212.1,118.8L212.2,119L213.3,118.7L213.6,118.7L213.8,118.7L213.8,118.9L212.9,119.7L212.8,120.1L212.8,120.6L213.2,121L213.5,121.3L213.8,122.1L213.5,122.8L213.7,123.1L213.9,123.4L214.1,123.8L214.1,124.3L214,125.1L215.2,125.5L216.2,125.7L217,125.7L217.5,125.9L217.8,126.1L218,126.4L218,126.7L217.8,126.9L217.3,127.6L217,128.6L217,129.3L217,129.9L216.4,130.7L216.1,131.4L215.9,132L215.9,132.2L216.1,132.4L216.3,132.5L216.7,132.6L217.3,132.5L218.6,132.7L220.1,132.9L220.7,133.1L220.9,133.4L220.8,134L220.7,134.5L220.8,134.9L221,135.3L221.4,135.5L221.8,135.6L221.8,135.9L221.8,136.3L221.9,136.6L222.1,136.8L222.6,137L223.4,136.7L224,136.8L224.6,137L225,136.9L225.5,136.7L226.5,135.6L227.6,135.1L228,135L228.3,135L228.4,135.1L228.3,135.3L228.5,136.2L228.4,136.2L228,136.9L227.1,137.6L226.4,138L226,138L225.6,138.4L225.4,139.2L225.1,139.7L224.8,139.9L224.6,140.2L224.5,140.6L224.7,140.9L225.1,140.9L225.1,141.1L224.8,141.3L224.3,141.4L223.8,141.3L223.3,141.5L222.8,141.9L222.3,142.9L222,144.4ZM209.8,206.6L210.3,207.7L210.3,207.9L210.2,208L210.1,207.9L209.9,207.3L209.5,206.9L209,207L209.4,206.5L209.5,206.4ZM209.6,213.1L209.3,213.5L209.2,213.5L209.4,212.9L209.9,212.4L210.3,212.4L210.3,212.7L210,213ZM209.9,203.2L209.9,203.3L209.8,203.3L209.7,203.2L209.8,202.6L210,202.1L210.3,201.4L210.4,201.2L210.4,201.6L210.3,202.4L210.2,202.9ZM211.8,200.4L211.5,200.4L211.4,199.4L211.4,199.2L211.8,199.8L212.4,200.1L212.2,200.3ZM212,201.4L211.8,202.8L211.4,202.6L211.2,202.6L211,201.8L211,201.6L210.9,201.1L211.8,201ZM211.1,195.9L211.3,196.1L211.5,196.1L211.4,196.7L210.9,197.5L210.6,197.6L210.5,197.6L210.6,196.5L210.4,195.8L210.5,195.4L211,195.6ZM209.3,198.8L209.3,198.8L209.2,198.8L208.9,198.7L208.7,198.3L208.8,198L208.9,197.9L209.2,197.9L209.2,198L209.3,198.1L209.2,198.3L209.2,198.5ZM186.1,174L185.7,174.6L185.5,173.6L186.2,173.1L186.5,172.6L186.9,172.2L187,172.7L186.7,173.5ZM205.8,171.9L205.5,172L205.2,171.6L205.1,170.6L205.4,170.3L205.6,170.3L205.8,170.4L205.9,170.6L205.9,170.8L205.9,171ZM181.1,155.8L181,155.8L180.4,155.2L179.8,154.5L180.6,154.4L181.5,154.5L181.5,154.9L181.3,155.5ZM179.8,147.6L180,148.5L179.6,148.2L179.4,147.7L179.3,147.2ZM181.3,149.9L182,150.4L182.3,150.4L182.7,150.7L182.8,150.9L182.7,151.2L182.5,151.4L181.9,151.6L181.5,151.4L181.4,150.8L180.9,150.5L180.8,150.3L181.1,150ZM211.9,206.5L211.8,206.5L211.6,206.5L211.5,206.4L211.8,205.7ZM208.9,201.8L209,202.1L208.6,201.8L208.5,200.7L208.9,201.4L209,201.5ZM208.9,197.2L208.9,197.5L208.5,198L208.2,197.7L208.1,197.5L208.4,197.2L208.8,197.3L208.9,197.2ZM210.5,192.6L210.4,193.7L210.1,193.2L210.1,192.6L210.1,192L210.2,192L210.2,192L210.4,192.3ZM188.2,174.8L188.1,175L187.8,174.8L187.7,174.8L188.3,174L188.4,174.3ZM176.8,147.4L176.9,148L176.6,147.8L176.2,146.9L176.2,146.3L176.5,146.6Z" fill="#b8e653" stroke="#0c0e06" stroke-width="1"/></svg>
