<svg xmlns="http://www.w3.org/2000/svg" viewBox="0 0 400 300"><path d="M0,159.8L2.6,160.4L3.3,155L2.6,151.5L0,151.7L0,122.6L0,122.6L8.4,126.8L13,129.3L17.1,126.7L23.3,126.5L28.3,129.7L29.4,127.9L34.9,128.2L35.8,125.2L29.5,120.9L33.3,117.9L32.5,116.1L36.3,114.4L33.5,110L35.2,107.7L49.8,105.4L51.7,103.8L61.4,101.3L64.9,98.5L71.9,99.9L73.1,106.9L77.2,105.3L82.2,107.5L81.8,111.1L85.6,110.8L95.3,104.5L93.9,106.6L98.9,111.7L107.5,127.8L109.6,124.5L115,128.1L120.6,126.5L122.7,127.6L124.6,131.2L127.3,132.3L128.9,134.9L134,134.1L136,137.8L136,137.8L133.1,141.7L129.8,142.2L129.6,148.1L127.5,150.7L119.8,148.8L117,158.9L115,160.1L107.3,162.3L110.8,171.7L108.1,173.1L108.4,176.1L106,175.3L104.1,173.4L98.3,172.9L91.9,172.7L90.5,173.3L84.9,171.1L82.7,172.2L82.1,175.3L75.7,173.5L73.1,174.2L72.3,176.5L70,177.5L64.9,181.1L63.2,184.8L61.8,184.9L60.7,182.4L55.8,182.3L55,178L53.1,178L53.4,172.7L48.7,168.8L42,169.2L37.5,170L33.8,165.1L30.6,163L24.6,159.1L23.8,158.6L13.8,161.9L14,181.5L12,181.8L9.3,177.7L6.6,176.2L2.2,177.3L0.5,179.1L0.3,177.8L1.2,175.6L0.5,173.8L0,173.6L0,159.8Z" fill="#2c2c34" stroke="#474751" stroke-width="0.8"/><path d="M14,181.5L13.8,161.9L23.8,158.6L24.6,159.1L30.6,163L33.8,165.1L37.5,170L42,169.2L48.7,168.8L53.4,172.7L53.1,178L55,178L55.8,182.3L60.7,182.4L61.8,184.9L63.2,184.8L64.9,181.1L70,177.5L72.3,176.5L73.4,177.1L70.2,180.4L73,182.4L75.8,181.1L80.4,183.8L75.4,187.5L72.5,187L70.9,187.1L70.3,185.7L71.1,183.3L65.9,184.5L64.7,187.8L62.8,190.6L59.6,190.4L58.6,192.6L61.4,193.8L62.3,197.5L60.1,202.4L57.2,201.4L55,201.4L55.1,198.4L49.9,196.3L45.9,193.8L43.3,191.5L38.9,188L37,182.7L35.7,181.7L31.5,182L30,180.9L29.6,176.8L24.3,174L21.1,177L17.7,178.8L18.4,181.5Z" fill="#2c2c34" stroke="#474751" stroke-width="0.8"/><path d="M352,109.7L353.3,116L353.2,122.2L354.8,128.5L358.7,139.2L353,137.2L350.6,145.7L354.4,151.6L354.3,155.5L351.3,152.1L348.8,156.5L348.1,151.8L348.5,146.2L348,139.9L348.9,135.4L349.1,127.2L346.8,121.1L347.2,112.3L350.8,109.3L349.2,106.3L351,105.3ZM79,0L73.5,10.2L78,11.6L79.5,8.1L83.8,5.6L84.8,0.7L85.3,0L400,0L400,61.1L395.9,66.7L399.1,71.4L390.5,73.4L384.4,74.1L384.7,68.7L378.7,67.5L373.9,71.3L362,69.9L349.2,72.2L336.6,86.5L321.7,102.9L327.8,103.7L329.7,107.9L333.5,109.4L336,106.1L340.3,106.5L345.9,113.7L346,119.2L343,125.5L342.6,132.8L340.9,142.3L335,150.7L333.7,154.6L328.4,161.1L323.2,167.4L320.7,170.5L315.5,173.7L313.1,173.7L310.6,171.1L305.4,175L304.8,176.8L304.8,176.8L304.3,175.9L304.2,173.2L306.2,173L306.8,166.7L305.8,162L309.1,160.1L313.8,161.1L316.4,155.6L317.8,149.4L319.3,147.3L321.3,142.1L314.9,143.8L311.5,146.1L305.6,146.1L304,140.6L299.4,136.4L292.7,134.5L291.2,128.5L289.9,124.7L288.4,122.1L286,115.6L282.6,113.3L276.8,111.3L271.6,111.5L266.8,112.7L263.6,115.9L265.7,117.4L265.8,120.9L263.6,122.9L260.1,129.5L260.1,132.2L254.6,136L250,133.7L245.4,134.2L243.3,132.2L241,131.6L235.3,135.8L230.2,136.8L226.6,138.3L221.7,137.3L218.1,137.4L215.7,134.3L211.9,131.4L208,130.6L203.1,131.4L199.4,132.5L193.9,130L193.2,125.3L188.6,123.7L185.1,123L180.7,120.4L176.7,126.9L178.3,130.5L174.5,134.7L168.9,133.2L165,133L162.4,130.1L158.4,130L155,128.2L149,131L141.6,136.2L137.5,137.3L136,137.8L134,134.1L128.9,134.9L127.3,132.3L124.6,131.2L122.7,127.6L120.6,126.5L115,128.1L109.6,124.5L107.5,127.8L98.9,111.7L93.9,106.6L95.3,104.5L85.6,110.8L81.8,111.1L82.2,107.5L77.2,105.3L73.1,106.9L71.9,99.9L64.9,98.5L61.4,101.3L51.7,103.8L49.8,105.4L35.2,107.7L33.5,110L36.3,114.4L32.5,116.1L33.3,117.9L29.5,120.9L35.8,125.2L34.9,128.2L29.4,127.9L28.3,129.7L23.3,126.5L17.1,126.7L13,129.3L8.4,126.8L0,122.6L0,0Z" fill="#2c2c34" stroke="#474751" stroke-width="0.8"/><path d="M0,261.4L0.8,261.3L4,261.4L6.4,261.5L9,258.6L11.9,255.8L14.4,253.2L15.1,254.7L15.6,258.1L13.7,258.1L13.3,260.9L14,261.5L12.3,262.3L12.3,264L11.1,265.8L11,267.5L10.2,268.4L0,266.5L0,261.4Z" fill="#2c2c34" stroke="#474751" stroke-width="0.8"/><path d="M0,282.4L10.2,278.8L12.8,270.5L11,267.5L11,267.5L11.1,265.8L12.3,264L12.3,262.3L14,261.5L13.3,260.9L13.7,258.1L15.6,258.1L17.4,261L19.6,262.5L22.4,263.1L24.7,263.9L26.5,266.3L27.5,267.7L28.9,268.2L28.9,269.2L27.5,271.7L26.9,272.8L25.2,274.2L23.8,277L22,276.8L21.2,277.8L20.6,279.9L21.1,282.6L20.7,283.1L18.9,283.1L16.5,284.7L16.1,286.7L15.2,287.5L12.8,287.5L11.3,288.5L11.3,290.2L9.4,291.3L7.3,290.9L4.7,292.3L2.9,292.5L1.6,289.7L0,286.1L0,282.4ZM15.1,254.7L14.4,253.2L15.5,251.7L16,252.1L15.6,253.9Z" fill="#2c2c34" stroke="#474751" stroke-width="0.8"/><path d="M178.7,300L178.1,298.7L179.5,297.9L180.9,294.4L179.3,291.7L176.8,288.8L175,285.2L176.6,284.4L178.4,280L181.1,279.8L183.4,278L185.6,277.1L187.3,278.3L187.5,280.8L190.1,281L189.2,285.3L189.3,289L193.4,286.6L194.5,287.3L196.8,287.2L197.6,285.7L200.5,286L203.5,289.3L203.7,293.3L206.9,296.9L206.7,300L178.7,300Z" fill="#2c2c34" stroke="#474751" stroke-width="0.8"/><path d="M206.7,300L206.9,296.9L203.7,293.3L203.5,289.3L200.5,286L197.6,285.7L196.8,287.2L194.5,287.3L193.4,286.6L189.3,289L189.2,285.3L190.1,281L187.5,280.8L187.3,278.3L185.6,277.1L186.4,275.5L189.7,272.8L190.1,273.8L192.2,273.9L191.6,269.1L193.6,268.5L195.9,271.8L197.6,275.6L202.4,275.6L203.9,279.3L201.4,280.3L200.3,281.8L205,284.3L208.2,289.1L210.6,292.7L213.6,295.5L214.6,298.4L214.3,300L206.7,300Z" fill="#2c2c34" stroke="#474751" stroke-width="0.8"/><path d="M176.6,300L176.5,299.8L175.8,294.7L174.1,291.4L171.6,293.4L167.2,296.3L165,295.9L162.6,295L163.9,290L163.1,286.1L160,281.4L160.5,279.9L158.2,279.4L155.5,276L155.2,272.7L156.6,273.3L156.7,270.3L158.6,269.3L158.2,267.5L159.1,266.1L159.2,261.7L162.2,262.6L164,259.1L164.2,257L166.3,253.4L166.2,250.9L171.2,247.9L174,248.7L173.7,246L175,245.2L174.8,243.6L177,243.2L178.3,245.8L180,246.9L180.1,250.2L180,253.8L176.3,257.4L175.8,262.4L179.9,261.7L180.9,265.6L183.3,266.5L182.2,270L185.1,271.5L186.8,272.3L189.6,271.1L189.7,272.8L186.4,275.5L185.6,277.1L185.6,277.1L183.4,278L181.1,279.8L178.4,280L176.6,284.4L175,285.2L176.8,288.8L179.3,291.7L180.9,294.4L179.5,297.9L178.1,298.7L178.7,300L176.6,300Z" fill="#2c2c34" stroke="#474751" stroke-width="0.8"/><path d="M214.3,300L214.6,298.4L213.6,295.5L210.6,292.7L208.2,289.1L205,284.3L200.3,281.8L201.4,280.3L203.9,279.3L202.4,275.6L197.6,275.6L195.9,271.8L193.6,268.5L195.7,267.5L198.8,267.5L202.6,267L205.9,264.8L207.7,266.3L211.3,267.1L210.7,269.5L212.5,271.2L216.4,272.3L211.3,275.9L208,279.8L207.2,282.7L210.1,287L213.8,292.3L217.3,294.8L219.7,298.1L220.1,300L214.3,300Z" fill="#2c2c34" stroke="#474751" stroke-width="0.8"/><path d="M304.8,176.8L304.8,176.8L304.8,176.8ZM304.3,175.9L304.8,176.8L303.3,176.5L301.6,178.2L300.5,180L300.6,183.7L298.6,184.9L297.9,185.8L296.5,187.3L293.9,188.1L292.2,189.5L292.1,191.7L291.6,192.2L293.2,193L295.4,195.2L294.8,196.4L293.1,196.7L290.4,197L288.9,199.2L287.1,199L286.9,199.5L285,198.5L284.5,199.5L283.4,199.9L283.3,198.9L282.3,198.5L281.2,197.7L282.3,195.5L283.2,194.9L282.8,194L283.8,191.3L283.6,190.5L281.3,190L279.5,188.6L282.7,185.3L286.9,182.6L289.6,178.9L291.4,180.5L294.8,180.7L294.2,178L300.2,175.7L301.8,172.7Z" fill="#2c2c34" stroke="#474751" stroke-width="0.8"/><path d="M286.9,199.5L287.1,199L288.9,199.2L290.4,197L293.1,196.7L294.8,196.4L295.4,195.2L298.7,201L299.7,204.2L299.7,209.7L298.2,212.4L294.7,213.3L291.6,215.2L288.1,215.6L287.7,213.1L288.4,209.5L286.7,204.5L289.6,203.7Z" fill="#2c2c34" stroke="#474751" stroke-width="0.8"/><path d="M85.3,300L82.3,295.2L80.7,287.3L79.5,282.1L79.5,277L78.8,273.2L73.1,275.6L70.4,275.1L65.3,270.1L67.1,268.6L66,266.9L61.4,263.3L64,260.5L72.6,260.5L71.8,256.8L69.6,254.6L69.2,251.3L66.6,249.3L70.9,244.8L75.4,245.1L79.5,240.5L81.9,235.9L85.7,231.4L85.7,228.2L89,225.5L85.8,223.2L84.5,220.1L83.1,216L85,213.9L90.9,215.1L95.3,214.4L99,210.4L103.2,216L102.8,219.8L104.3,222.2L104.2,224.5L101.4,223.9L102.5,229L106.3,231.8L111.7,235L109.3,237L107.7,241.2L111.5,242.9L115.2,245L120.2,247.5L125.6,248.1L127.8,250.3L130.8,250.7L135.5,251.7L138.7,251.6L139.2,249.9L138.7,247.1L139,245.2L141.3,244.3L141.7,247.8L141.8,248.7L145.3,250.3L147.7,249.6L151,249.9L154.2,249.8L154.5,247.1L152.9,245.7L156,245.2L159.5,241.9L164,239L167.3,240.1L170.1,238.3L171.9,241L170.6,242.9L174.8,243.6L174.8,243.6L175,245.2L173.7,246L174,248.7L171.2,247.9L166.2,250.9L166.3,253.4L164.2,257L164,259.1L162.2,262.6L159.2,261.7L159.1,266.1L158.2,267.5L158.6,269.3L156.7,270.3L154.6,263.6L153.6,263.6L152.9,266.3L150.8,264.1L152,261.7L153.7,261.5L155.5,257.8L153.3,257.1L149.7,257.2L146,256.6L145.6,253.6L143.8,253.4L140.7,251.5L139.3,254.4L142.1,256.7L139.7,258.3L138.8,259.9L141.2,261L140.6,263.6L141.9,266.8L142.5,270.2L142,271.8L139.3,271.7L134.5,272.6L134.7,275.7L132.7,278.2L127.1,280.9L122.7,285.8L119.8,288.4L115.9,291L115.9,292.9L114,293.9L110.5,295.3L108.7,295.5L107.5,298.6L107.7,300L85.3,300Z" fill="#2c2c34" stroke="#474751" stroke-width="0.8"/><path d="M156.7,270.3L156.6,273.3L155.2,272.7L155.5,276L154.4,273.8L154.2,271.7L153.4,269.7L151.8,267.2L148.2,267.1L148.6,268.8L147.3,271.1L145.7,270.3L145.1,271.1L144,270.6L142.5,270.2L141.9,266.8L140.6,263.6L141.2,261L138.8,259.9L139.7,258.3L142.1,256.7L139.3,254.4L140.7,251.5L143.8,253.4L145.6,253.6L146,256.6L149.7,257.2L153.3,257.1L155.5,257.8L153.7,261.5L152,261.7L150.8,264.1L152.9,266.3L153.6,263.6L154.6,263.6Z" fill="#2c2c34" stroke="#474751" stroke-width="0.8"/><path d="M152.9,245.7L154.5,247.1L154.2,249.8L151,249.9L147.7,249.6L145.3,250.3L141.8,248.7L141.7,247.8L144.2,244.5L146.3,243.4L149.1,244.4L151.2,244.5Z" fill="#2c2c34" stroke="#474751" stroke-width="0.8"/><path d="M139,245.2L138.7,247.1L139.2,249.9L138.7,251.6L135.5,251.7L130.8,250.7L127.8,250.3L125.6,248.1L120.2,247.5L115.2,245L111.5,242.9L107.7,241.2L109.3,237L111.7,235L113.3,233.9L116.5,235.3L120.4,238.2L122.6,238.9L123.9,241L126.9,241.9L130,243.8L134.4,244.8Z" fill="#2c2c34" stroke="#474751" stroke-width="0.8"/><path d="M99,210.4L95.3,214.4L90.9,215.1L85,213.9L83.1,216L84.5,220.1L85.8,223.2L89,225.5L85.7,228.2L85.7,231.4L81.9,235.9L79.5,240.5L75.4,245.1L70.9,244.8L66.6,249.3L69.2,251.3L69.6,254.6L71.8,256.8L72.6,260.5L64,260.5L61.4,263.3L58.6,262.2L57.4,259.2L54.4,255.9L47.3,256.7L41,256.8L35.5,257.4L36.9,252.4L42.5,250.1L42.2,248.1L40.4,247.4L40.3,243.6L36.5,241.6L35,238.9L33.1,236.6L39.6,238.9L43.5,238.2L45.8,238.8L46.6,237.8L49.3,238.2L54.3,236.3L54.5,232.5L56.6,229.9L59.5,229.9L60,228.6L62.9,228.1L64.4,228.5L65.9,227.2L65.7,224.4L67.3,221.6L69.8,220.5L68.3,217.4L72,217.5L73,215.8L72.9,214L74.8,212L74.4,209.7L73.4,207.6L75.7,205.5L79.9,204.5L84.3,203.9L86.3,203L88.6,202.5L91.5,204.8L92.6,208.5Z" fill="#2c2c34" stroke="#474751" stroke-width="0.8"/><path d="M55,201.4L57.2,201.4L60.1,202.4L61.3,203L64.1,201.5L65.4,202.4L66.7,200.2L69,200.3L69.6,199.6L70,197.6L71.7,195.8L73.8,197L73.3,198.5L74.5,198.7L74.2,202.8L75.7,204.4L77.1,203.4L78.8,202.9L81.2,200.7L83.9,201.1L87.9,201.1L88.6,202.5L86.3,203L84.3,203.9L79.9,204.5L75.7,205.5L73.4,207.6L74.4,209.7L74.8,212L72.9,214L73,215.8L72,217.5L68.3,217.4L69.8,220.5L67.3,221.6L65.7,224.4L65.9,227.2L64.4,228.5L62.9,228.1L60,228.6L59.5,229.9L56.6,229.9L54.5,232.5L54.3,236.3L49.3,238.2L46.6,237.8L45.8,238.8L43.5,238.2L39.6,238.9L33.1,236.6L36.6,232.5L36.3,229.6L33.3,228.8L33,225.9L31.7,222.2L33.4,219.7L31.7,219L32.8,215.6L34.4,209.7L38.3,211.5L41.3,210.8L42.1,208.7L45.1,207.9L47.3,206.5L48.1,202.6L51.4,201.7L52,199.9L53.8,201.2Z" fill="#2c2c34" stroke="#474751" stroke-width="0.8"/><path d="M60.1,202.4L62.3,197.5L61.4,193.8L58.6,192.6L59.6,190.4L62.8,190.6L64.7,187.8L65.9,184.5L71.1,183.3L70.3,185.7L70.9,187.1L72.5,187L71.1,188.6L66.8,187.7L66.4,190.6L70.7,190.2L75.5,191.9L82.8,191.1L83.8,195.7L85.1,195.2L87.4,196.4L87.3,198.3L87.9,201.1L83.9,201.1L81.2,200.7L78.8,202.9L77.1,203.4L75.7,204.4L74.2,202.8L74.5,198.7L73.3,198.5L73.8,197L71.7,195.8L70,197.6L69.6,199.6L69,200.3L66.7,200.2L65.4,202.4L64.1,201.5L61.3,203Z" fill="#2c2c34" stroke="#474751" stroke-width="0.8"/><path d="M72.3,176.5L73.1,174.2L75.7,173.5L82.1,175.3L82.7,172.2L84.9,171.1L90.5,173.3L91.9,172.7L98.3,172.9L104.1,173.4L106,175.3L108.4,176.1L107.9,177.3L101.7,180.1L100.4,182.2L95.4,182.8L93.9,186.1L89.8,185.4L87.1,186.4L83.4,188.8L83.9,190L82.8,191.1L75.5,191.9L70.7,190.2L66.4,190.6L66.8,187.7L71.1,188.6L72.5,187L75.4,187.5L80.4,183.8L75.8,181.1L73,182.4L70.2,180.4L73.4,177.1Z" fill="#2c2c34" stroke="#474751" stroke-width="0.8"/><path d="M0.5,179.1L2.2,177.3L6.6,176.2L9.3,177.7L12,181.8L14,181.5L18.4,181.5L17.7,178.8L21.1,177L24.3,174L29.6,176.8L30,180.9L31.5,182L35.7,181.7L37,182.7L38.9,188L43.3,191.5L45.9,193.8L49.9,196.3L55.1,198.4L55,201.4L53.8,201.2L52,199.9L51.4,201.7L48.1,202.6L47.3,206.5L45.1,207.9L42.1,208.7L41.3,210.8L38.3,211.5L34.4,209.7L34,205.6L31.1,205.4L26.7,201.1L23.6,200.6L19.3,198.1L16.5,197.6L14.8,198.6L12.2,198.4L9.4,201.2L6,202.2L5.3,198.7L5.9,193.5L2.8,191.8L3.8,188.4L1.3,188.1L2.1,183.8L5.8,185L9.2,183.4L6.4,180.3L5.3,177.3L2.1,178.6L1.7,182.4Z" fill="#2c2c34" stroke="#474751" stroke-width="0.8"/><path d="M0,204.5L5.7,203.3L6,202.2L9.4,201.2L12.2,198.4L14.8,198.6L16.5,197.6L19.3,198.1L23.6,200.6L26.7,201.1L31.1,205.4L34,205.6L34.4,209.7L32.8,215.6L31.7,219L33.4,219.7L31.7,222.2L33,225.9L33.3,228.8L36.3,229.6L36.6,232.5L33.1,236.6L35,238.9L36.5,241.6L40.3,243.6L40.4,247.4L42.2,248.1L42.5,250.1L36.9,252.4L35.5,257.4L28.2,256.1L23.9,255.1L19.5,254.6L17.9,249.2L16,248.5L13,249.2L9.1,251.3L4.4,249.9L0.4,246.5L0,246.4L0,204.5Z" fill="#2c2c34" stroke="#474751" stroke-width="0.8"/><path d="M222,286.2L218.8,284.9L218.7,281.4L220.6,279.5L224.9,278.4L227.1,278.5L227.9,280L226.2,281.9L225.3,284.2ZM108.4,176.1L108.1,173.1L110.8,171.7L107.3,162.3L115,160.1L117,158.9L119.8,148.8L127.5,150.7L129.6,148.1L129.8,142.2L133.1,141.7L136,137.8L137.5,137.3L138.6,141.4L141.8,144.5L147.4,146.7L150.1,151.3L148.6,157.9L150,160.3L154.6,161.2L159.8,162L164.5,165.4L166.9,166L168.7,171L171,174.1L175.2,174L183.3,175.2L188.4,174.4L192.3,175.2L198,178.4L202.7,178.4L204.5,180L209,177.2L215.3,175.4L221.1,175.2L225.6,173.3L228.4,170.5L231.1,168.7L230.5,166.9L229.3,164.8L231.3,161.3L233.5,161.8L237.5,162.9L241.4,160L247.3,157.8L250.1,154.1L252.9,152.5L258.5,151.8L261.6,152.4L262,150.4L258.5,146.4L255.4,144.5L252.4,146.7L248.5,145.8L246.4,146.5L245.3,144.1L248.1,138.2L250,133.7L254.6,136L260.1,132.2L260.1,129.5L263.6,122.9L265.8,120.9L265.7,117.4L263.6,115.9L266.8,112.7L271.6,111.5L276.8,111.3L282.6,113.3L286,115.6L288.4,122.1L289.9,124.7L291.2,128.5L292.7,134.5L299.4,136.4L304,140.6L305.6,146.1L311.5,146.1L314.9,143.8L321.3,142.1L319.3,147.3L317.8,149.4L316.4,155.6L313.8,161.1L309.1,160.1L305.8,162L306.8,166.7L306.2,173L304.2,173.2L304.3,175.9L301.8,172.7L300.2,175.7L294.2,178L294.8,180.7L291.4,180.5L289.6,178.9L286.9,182.6L282.7,185.3L279.5,188.6L274,190.1L271.2,192.4L267,193.8L269.1,191.5L268.3,189.5L271.3,186.1L269.3,183.4L265.9,185.2L261.5,188.8L259.1,192L255.3,192.3L253.3,194.6L255.4,197.9L258.5,198.8L258.7,201L261.7,202.4L266.1,198.9L269.6,200.8L272.1,200.9L272.7,203.5L267.2,204.8L265.4,207.4L261.6,209.8L259.6,213.2L263.8,215.8L265.3,220.4L267.7,224.6L270.3,228.2L270.3,231.5L267.8,232.8L268.7,235.2L271,236.6L270.4,240.2L269.4,243.7L267.3,244.1L264.4,248.9L261.3,254.5L257.7,259.7L252.3,263.6L246.9,267.2L242.5,267.7L240.2,269.5L238.8,268.2L236.6,270.2L231.2,272.3L227.1,273L225.8,277.4L223.6,277.6L222.6,274.6L223.5,273L218.3,271.7L216.4,272.3L212.5,271.2L210.7,269.5L211.3,267.1L207.7,266.3L205.9,264.8L202.6,267L198.8,267.5L195.7,267.5L193.6,268.5L191.6,269.1L192.2,273.9L190.1,273.8L189.7,272.8L189.6,271.1L186.8,272.3L185.1,271.5L182.2,270L183.3,266.5L180.9,265.6L179.9,261.7L175.8,262.4L176.3,257.4L180,253.8L180.1,250.2L180,246.9L178.3,245.8L177,243.2L174.8,243.6L170.6,242.9L171.9,241L170.1,238.3L167.3,240.1L164,239L159.5,241.9L156,245.2L152.9,245.7L151.2,244.5L149.1,244.4L146.3,243.4L144.2,244.5L141.7,247.8L141.3,244.3L139,245.2L134.4,244.8L130,243.8L126.9,241.9L123.9,241L122.6,238.9L120.4,238.2L116.5,235.3L113.3,233.9L111.7,235L106.3,231.8L102.5,229L101.4,223.9L104.2,224.5L104.3,222.2L102.8,219.8L103.2,216L99,210.4L92.6,208.5L91.5,204.8L88.6,202.5L87.9,201.1L87.3,198.3L87.4,196.4L85.1,195.2L83.8,195.7L82.8,191.1L83.9,190L83.4,188.8L87.1,186.4L89.8,185.4L93.9,186.1L95.4,182.8L100.4,182.2L101.7,180.1L107.9,177.3Z" fill="#2c2c34" stroke="#474751" stroke-width="0.8"/><path d="M269.8,260.3L267.5,267.1L265.8,270.6L263.8,267L263.3,263.9L265.6,259.7L268.7,256.5L270.5,257.7Z" fill="#2c2c34" stroke="#474751" stroke-width="0.8"/><path d="M263.8,300L263.2,299.3L262.6,297.5L262.4,293.7L264,295L264.4,288.6L265.7,284.9L268,284.9L270.4,286.1L271.6,285.1L272,286.1L272,286.1L271.3,287.8L272.7,290.7L271.7,294.1L269.4,295.4L268.8,298.7L269.1,300L263.8,300Z" fill="#2c2c34" stroke="#474751" stroke-width="0.8"/><path d="M348,192.4L344.4,197.4L344.4,202.5L343,206.3L343.7,208.7L341.6,212.1L336.7,214.3L329.8,214.6L324.3,220L321.7,218.2L321.5,214.7L314.8,215.7L310.2,217.9L305.6,218L309.6,221.4L306.9,229.3L304.4,231.2L302.6,229.4L303.5,225.3L301.1,223.9L299.5,220.8L303.2,219.3L305.2,216.4L309.1,213.9L311.9,210.7L319.7,209.3L323.8,210.2L327.9,201.7L330.5,204L336.2,199.1L338.4,197.2L340.9,191.1L340.2,185.4L341.8,182.1L346,181.2L348.1,188.3ZM358.6,167.5L361.3,165.2L362.2,171.3L356.4,172.7L353,178L346.9,174.4L344.8,180.1L340.5,180.2L339.9,175L341.9,170.9L346,170.6L347.1,163.1L348.3,158.8L352.9,164.5L355.8,166.4ZM311,220L313.1,217.2L315.4,217.7L317,215.8L319.8,216.8L320.3,218.4L318.1,221.2L316.5,219.7L314.5,220.8L313.5,223.5L311,222.2Z" fill="#2c2c34" stroke="#474751" stroke-width="0.8"/><path d="M0,286.1L1.6,289.7L2.9,292.5L0.1,293.6L0,293.7L0,286.1Z" fill="#2c2c34" stroke="#474751" stroke-width="0.8"/><path d="M0,266.5L10.2,268.4L11,267.5L12.8,270.5L10.2,278.8L0,282.4L0,266.5Z" fill="#2c2c34" stroke="#474751" stroke-width="0.8"/><path d="M137.8,138.1L137.8,138.1L138.3,138.1L138.5,137.9L138.6,137.7L139,137.5L139,137.3L139,136.8L139.2,136.3L139.8,136.2L140,136.2L140.3,136.2L140.6,136.2L141,136.1L141.2,136.3L141.4,136.4L141.7,136.4L141.9,136.2L141.9,135.9L142,135.8L142.2,136L142.3,136.2L142.4,136.2L142.8,136.1L143.1,135.9L143.2,135.5L143.3,135.3L143.6,135.4L143.9,135.4L144.2,135.1L144.6,134.9L144.9,134.8L145,134.6L144.9,134.1L144.9,133.6L145.3,133.4L145.8,133.3L146.2,133.2L146.3,132.6L146.5,132.5L146.7,132.4L147.2,132.3L147.5,132.1L147.7,132L148.3,131.8L148.8,131.7L149.1,131.5L149.2,131.2L149.5,131.1L149.8,130.8L150.2,130.5L150.4,130.5L151.1,130.3L151.3,130.2L151.5,130.2L151.8,130.2L151.9,129.9L152.2,129.6L152.5,129.6L152.6,129.3L152.9,129L153.3,128.8L153.9,128.8L154.5,128.8L154.8,128.8L155.1,128.3L155.1,128.1L155.2,127.9L155.4,127.8L155.7,128.2L155.9,128.4L156.3,128.6L156.5,128.9L156.7,128.9L156.9,128.7L157.1,128.3L157.4,128.2L157.7,128.3L157.8,128.5L157.8,128.7L158,129.1L158.3,129.4L158.8,129.4L159,129.3L159.4,129.3L159.9,129.4L160.4,129.5L160.5,129.5L161,129.5L161.8,129.6L162.1,129.6L162.8,129.7L162.9,129.9L163.1,130.6L163.2,131.2L163.2,131.7L163.4,132L163.6,132L163.8,132.2L164,132.5L164.2,132.9L164.5,132.9L164.6,132.8L165,132.8L165.4,132.8L165.8,133L165.9,133.3L166.1,133.4L166.4,133.4L167,133.4L167.2,133.4L167.4,133.6L167.7,133.6L167.9,133.4L168.5,133.3L168.8,133L169,133L169.2,133.1L169.4,133.3L169.6,133.2L169.7,133.1L169.9,133.1L170,133.2L170.5,133.3L170.8,133.7L171.1,133.7L171.4,133.6L171.6,133.5L171.7,133.7L171.9,133.8L172.1,133.7L172.4,133.6L173.4,133.8L173.7,134.1L173.9,134.2L174,134.5L174.3,134.7L174.9,134.6L175.1,134.4L175.6,134L175.8,133.6L176,133.5L176.3,133.4L176.5,133.4L176.8,133.4L177.1,133.1L177.4,133L177.8,132.6L177.8,132.4L178,132L178.2,131.7L178.4,131.2L178.4,130.5L178.5,130.1L178.5,129.8L178.2,129.7L177.9,129.6L177.7,129.4L177.5,129.1L177.4,128.8L177.2,128.4L177.2,128.1L177.2,127.8L177.1,127.6L176.8,127.3L176.7,127L176.7,126.6L177,125.9L177.1,125.6L177.1,125.4L177.1,125.2L177.2,124.8L177.3,124.6L177.5,124.1L177.8,123.9L178.1,123.9L178.2,123.8L178.3,123.3L178.4,123L178.6,122.7L178.7,122.5L179.9,121.9L180.3,121.3L180.5,121L180.7,120.3L180.9,120L181.1,120.1L181.4,120.5L181.6,120.5L181.9,120.7L182.8,121.2L183.3,121.3L183.6,121.4L184.1,121.5L184.3,121.8L184.8,122.2L185.3,122.4L186,122.4L187,122.4L187.2,122.5L187.9,122.8L188.7,123.2L189.4,123.5L189.9,123.8L190.2,124L190.5,124.1L190.8,124L191.3,124L192.2,124.3L192.8,124.6L193.4,124.7L193.5,125L193.5,125.3L193.5,125.6L193.5,126.3L193.7,126.6L193.7,127.1L193.8,127.5L193.8,128L193.8,128.2L194,128.4L194.2,128.7L194.1,129L194,129.2L194.1,129.5L194.2,129.7L194.5,129.8L194.8,129.9L195,130.3L195.6,130.7L195.9,130.8L196.3,131L197,131.2L197.4,131.3L197.7,131.4L198,131.8L198.4,131.9L198.7,132.1L199.3,132.2L199.6,132.1L199.9,132L200.1,132L200.5,132.1L201,132.1L201.4,132L201.7,131.8L202.1,131.4L202.5,131.2L203,131.1L203.4,131L204.5,130.7L205,130.7L205.3,130.4L205.6,130.3L206.1,130.2L206.7,130.4L207.3,130.5L208,130.6L208.5,130.8L208.8,131L209.3,131.2L209.9,131.1L210.7,131.1L211.2,131.2L211.8,131.6L212.1,131.9L212.5,132.5L212.9,132.9L213.3,133.1L213.7,133.1L214.8,133.2L215.4,133.3L215.9,133.4L216.1,133.5L216,134L216,134.6L216,134.9L216.1,135.1L216.3,135.2L216.4,135.5L216.6,135.7L217.1,135.9L217.8,136.7L218.3,137L218.6,137.1L219.1,137L219.8,137L221.1,137.1L221.9,137.3L222.2,137.4L223,137.6L224,137.8L224.8,138L225.3,137.8L225.7,137.7L226.1,137.9L226.5,138.2L226.8,138.2L227.2,138.1L228.7,137.2L229.2,136.9L229.6,137L229.9,136.9L230.1,136.8L230.8,136.7L231.2,136.6L231.5,136.6L232.1,136.5L233.3,136L233.7,135.9L234.5,136L234.9,135.9L235.4,135.6L235.9,135.4L236.1,134.9L236.3,134.3L236.9,133.8L237.4,133.4L237.9,133L238.5,132.7L239.1,132.4L239.8,131.8L240.4,131.5L240.7,131.4L241.1,131.5L241.7,131.6L242.2,131.6L242.5,131.6L243,131.9L243.5,132.2L243.8,132.7L244.5,133.4L244.9,133.6L245.1,133.7L245.7,133.7L246.3,133.8L246.6,133.6L247.1,133.3L247.9,133L248.2,133L248.7,133.2L249.5,133.5L249.8,133.8L250,134.1L249.6,135L248.9,136.6L248.3,138L248,138.8L247.7,139.4L247.5,140L247.4,140.3L247.2,140.9L246.7,141.5L246.5,142.2L246.6,142.9L246.5,143.5L245.9,143.8L245.5,144.1L245.6,145.2L245.9,145.6L246.2,146.1L246.6,146.4L247,146.7L247.3,146.6L247.6,146.1L248.3,145.7L248.6,145.7L248.8,145.8L249.3,145.8L249.9,145.7L250.3,145.7L250.9,145.8L251.1,145.9L251.5,146L252,146.4L252.4,146.8L252.6,146.9L252.7,146.8L253,146.4L253.4,146L253.9,145.4L254.2,145L254.5,144.9L255,144.9L255.3,144.8L255.7,144.7L256.1,144.9L257.1,145L257.3,145.2L257.8,145.9L258.1,146.3L258.5,146.5L258.8,146.6L259.1,146.7L259.3,146.9L259.4,147.1L259.5,147.5L259.6,147.6L259.9,147.8L260.1,147.9L260.2,148.2L260.3,148.3L260.5,148.5L261.1,149.2L261.3,149.4L261.8,149.8L262,150.1L262,150.5L262.1,150.8L262.4,151.2L262.5,151.5L262.4,151.8L262.5,152.2L262.4,152.5L261.9,152.8L261.8,152.9L261.4,152.9L260.8,152.8L260.3,152.9L259.6,152.7L259.1,152.4L258.8,152.2L258.4,152L258.2,152.1L257.9,152.4L257.6,152.4L257.4,152.4L256.7,152.3L256.3,152.3L255.7,152.5L255.4,152.6L254.8,152.8L254.4,153.3L254.1,153.4L253.9,153.4L253.7,153.2L253.4,153L252.9,153L252.8,153.1L252.8,153.3L252.6,153.9L252.6,154.1L252.5,154.3L252.3,154.3L251.8,154.3L251.2,154.3L250.7,154.1L250.4,154.2L250,154.5L249.8,154.5L249.5,154.7L249.4,155.1L249.1,155.4L248.7,155.8L248.4,156.5L248.2,156.9L248.2,157.2L248.3,157.4L248.1,157.8L247.8,158.1L247.5,158.1L247.1,158.4L246.5,158.9L246.1,159.3L245.6,159.4L245.2,159.5L244.3,159.7L244.1,159.7L243.1,159.8L242.4,159.5L242.1,159.6L241.7,159.7L241.6,159.8L241.5,160.1L241.5,160.4L241.2,160.7L240.7,161.2L240.2,161.6L239.9,162L239.7,162.2L239.3,162.3L239.1,162.4L238.6,162.8L238.2,163.2L238,163.2L237.7,163.2L237.5,163.1L236.9,163L236.5,163L235.9,162.9L234.6,162.5L234.1,162.3L233.7,161.8L233.4,161.5L232.9,161.5L232.2,161.5L231.9,161.4L231.4,161.5L230.8,162L230.6,162.4L230.3,162.8L230,163.6L229.9,164.2L229.8,164.5L229.5,165L229.5,165.3L229.6,165.6L229.8,165.8L229.9,166.3L230.3,166.7L230.6,167.1L231.2,167.7L231.3,168L231.5,168.3L231.6,168.6L231.5,168.9L231.3,169L230.9,169.1L230.7,169.3L230.4,169.7L230,170L229.9,170L229.7,170.1L228.6,170.6L228.3,170.7L227.9,170.8L227.6,171.3L227.3,171.6L226.9,172.1L226.8,172.3L226.5,172.7L226,173.2L225.8,173.5L225.7,173.7L225.6,173.9L225.1,174L224.8,174.2L224.3,174.5L223.5,174.8L222.9,175L222.4,175.3L221.9,175.5L221.5,175.6L220.7,175.6L219.6,175.7L218.9,175.8L218.4,175.7L217.5,175.6L216.9,175.6L216.5,175.7L215.5,175.8L215.3,175.8L213.5,176.1L212.7,176.3L212,176.3L211.5,176.4L211.2,176.6L210.7,176.7L210.5,176.8L209.7,177.2L208,178L206.8,178.6L206.6,178.7L205.8,179.1L205.4,179.3L205,179.7L204.8,179.9L204.5,180L204,179.8L203.7,179.8L202.6,179.7L202.6,178.6L201.9,178.7L200.7,179L199.6,179.2L198.6,178.7L197.8,178.3L197.1,177.9L196.1,177.7L195.2,177.5L193.5,177.1L192.8,176.8L192.5,176.4L191.8,175.5L191.6,175.3L191.3,175.2L191,175.1L190.3,175.1L189.4,175L188.2,174.8L187.2,174.7L185.5,174.4L185.1,174.4L184.2,174.6L183.1,175L181.1,174.7L180.2,174.6L178.3,174.3L176.3,174.1L174.3,173.8L172.8,173.9L172,174L171.1,174.1L171,174L170.9,173.5L170.8,173L170.3,172.6L169.9,172.1L169.3,171.6L169.1,171.2L169,170.6L168.4,169.1L168,168.1L167.9,167.9L167.8,167.5L167.5,167.4L167.1,167.3L167,167.1L167,166.7L167.1,166.2L167.1,165.9L167.1,165.8L165.9,165.9L165.2,165.7L164.6,165.4L163.8,164.7L163.3,164.5L162.6,163.8L161.7,163.6L161.3,163.4L160.9,162.8L160.5,162.4L159.9,162.2L159.1,161.9L157.6,161.7L157.1,161.7L156.3,161.8L155.7,161.8L154.7,161.7L154.2,161.5L153.5,161.5L153,161.5L152.4,161.4L152.2,161.3L151.9,161.2L151.4,161.2L151,161.1L150.7,160.8L150.4,160.7L150,160.7L149.8,160.8L149.7,160.8L149.6,160.4L149.2,159.8L149.2,159.5L149,159.2L148.9,159L148.9,158.6L149,157.8L149.4,157.1L149.6,157L149.7,156.7L150,156.4L150.2,156.1L150.2,155.7L150,155.3L149.8,154.8L149.8,154.5L150.1,154.1L150.3,153.3L150.3,153.1L150.2,153L150.2,152.6L150.1,152.1L149.8,151.3L149.7,150.9L149.4,150.7L149.1,150.6L148.8,150.1L148.4,149.4L148.2,149L148.1,148.8L148.1,148.3L147.9,147.8L147.8,147.5L147.6,147.2L147.6,146.9L147.5,146.8L147,146.6L146.7,146.4L146.5,146L146.5,145.8L146.4,145.6L146.1,145.6L145.9,145.8L145.6,145.9L145.4,145.9L145.2,145.8L145.1,145.6L144.9,145.4L144.6,144.9L144.3,144.7L143.7,144.8L143.2,145L142.8,145L142.6,144.9L142.3,144.6L142.1,144.4L141.8,144.3L141.2,143.9L140.7,143.6L140.7,143.1L140.5,142.7L140.1,142.5L139.7,142.2L139.1,141.9L138.7,141.8L138.4,141.7L138.4,141.5L138.4,141.4L138.6,141.2L138.7,141L138.7,140.8L138.6,140.6L138.3,140.4L137.9,140.3L137.8,140L137.5,139.7L137.6,139.5L137.8,139.4L138,139.2L138,139L137.9,138.8L137.8,138.6L137.8,138.4Z" fill="#b8e653" stroke="#0c0e06" stroke-width="1"/></svg>
