<svg xmlns="http://www.w3.org/2000/svg" viewBox="0 0 300 300"><path fill="#e8e8ea" d="M20.6,125.2L20.6,125.2L21.6,125.2L22,124.9L22.3,124.5L23,124L23.2,123.5L23.2,122.5L23.6,121.6L24.8,121.3L25.3,121.2L25.7,121.3L26.5,121.2L27.2,121.2L27.6,121.4L28.1,121.7L28.8,121.6L29.1,121.2L29.1,120.7L29.4,120.5L29.7,120.9L29.9,121.2L30.2,121.3L31.1,121L31.6,120.6L31.8,119.8L32.1,119.4L32.6,119.6L33.4,119.6L34,119L34.8,118.5L35.5,118.3L35.6,117.9L35.3,117L35.4,116L36.2,115.4L37.3,115.3L38.1,115L38.3,113.9L38.7,113.6L39.1,113.4L40.1,113.3L40.8,112.8L41.2,112.6L42.4,112.1L43.5,111.9L44,111.5L44.4,110.9L45,110.7L45.7,110.2L46.5,109.5L46.8,109.4L48.2,109L48.8,108.9L49.1,108.8L49.7,108.8L50,108.1L50.6,107.6L51.2,107.5L51.5,107L52,106.3L52.8,106L54.1,105.9L55.3,106L56,105.9L56.6,104.9L56.7,104.5L56.8,104L57.3,103.8L57.9,104.6L58.4,105L59.1,105.6L59.5,106L59.9,106.1L60.4,105.7L60.7,104.9L61.4,104.7L62,104.9L62.2,105.3L62.3,105.7L62.6,106.5L63.3,107.1L64.3,107.1L64.7,107L65.6,107L66.6,107.2L67.6,107.3L67.9,107.4L69,107.4L70.5,107.6L71.2,107.5L72.6,107.7L72.9,108.3L73.2,109.6L73.4,110.9L73.5,112L73.9,112.5L74.3,112.7L74.6,113.1L75.2,113.6L75.6,114.5L76.1,114.4L76.4,114.2L77.2,114.1L78.1,114.2L78.8,114.6L79,115.2L79.6,115.6L80,115.5L81.4,115.5L81.8,115.5L82.3,115.8L82.9,115.9L83.3,115.5L84.4,115.2L85.1,114.6L85.6,114.6L86,114.9L86.3,115.3L86.7,115.1L86.9,114.8L87.3,114.8L87.7,115L88.6,115.3L89.3,116L89.9,116L90.5,115.9L90.9,115.8L91.2,116.1L91.6,116.3L92,116L92.5,115.9L94.8,116.2L95.2,116.9L95.7,117.2L96,117.7L96.6,118.1L97.8,118L98.2,117.6L99.2,116.7L99.6,115.9L100.1,115.6L100.7,115.4L101.2,115.5L101.8,115.4L102.4,114.8L103,114.6L103.8,113.8L103.9,113.4L104.3,112.5L104.6,111.9L105,110.9L105.2,109.4L105.3,108.6L105.2,108L104.7,107.7L104.1,107.6L103.6,107.1L103.2,106.6L103,105.8L102.6,105L102.6,104.4L102.6,103.9L102.3,103.5L101.8,102.8L101.5,102.2L101.6,101.4L102.2,99.9L102.3,99.2L102.3,98.8L102.3,98.4L102.5,97.5L102.8,97.2L103.3,96.2L103.8,95.8L104.4,95.8L104.7,95.5L104.9,94.5L105.2,93.8L105.4,93.3L105.8,92.7L108.1,91.7L109.1,90.3L109.4,89.6L109.8,88.1L110.2,87.5L110.7,87.7L111.3,88.6L111.8,88.6L112.5,89.1L114.3,90.1L115.3,90.4L116,90.4L116.8,90.7L117.4,91.3L118.5,92.2L119.4,92.5L121,92.6L122.9,92.6L123.5,92.8L124.9,93.5L126.4,94.2L127.9,94.9L129,95.4L129.7,95.9L130.3,96.2L131,95.9L131.8,96L133.8,96.6L135.1,97.1L136.2,97.5L136.6,98L136.6,98.7L136.4,99.3L136.5,100.7L136.9,101.4L137,102.4L137.1,103.3L137,104.2L137.2,104.7L137.5,105L137.8,105.6L137.7,106.3L137.6,106.7L137.6,107.4L138,107.9L138.6,108L139.1,108.1L139.7,108.9L140.8,109.9L141.5,110.1L142.2,110.6L143.7,110.9L144.7,111.1L145.3,111.4L145.8,112.2L146.8,112.4L147.4,112.7L148.5,113L149.2,112.8L149.9,112.5L150.3,112.6L151.1,112.8L152.1,112.8L152.9,112.6L153.6,112L154.3,111.3L155.2,110.9L156.3,110.7L157,110.4L159.3,109.9L160.3,109.8L161.1,109.3L161.7,108.9L162.6,108.8L163.9,109.2L165.1,109.5L166.6,109.6L167.6,110.1L168.3,110.6L169.4,110.9L170.6,110.7L172.3,110.6L173.4,110.8L174.5,111.6L175.2,112.3L176.1,113.7L176.9,114.3L177.6,114.9L178.5,114.9L180.8,115L182.1,115.3L183.1,115.4L183.4,115.7L183.3,116.7L183.3,118L183.3,118.6L183.5,119.1L183.9,119.2L184.1,119.8L184.6,120.2L185.5,120.7L187.1,122.3L188,123L188.8,123.2L189.7,123L191.2,123L193.8,123.1L195.6,123.5L196.2,123.9L197.9,124.2L199.9,124.7L201.6,125.1L202.6,124.5L203.4,124.5L204.3,124.9L205.1,125.5L205.7,125.4L206.7,125.1L209.7,123.4L210.8,122.8L211.5,123L212.2,122.7L212.7,122.5L214,122.3L214.8,122.2L215.6,122.1L216.8,121.9L219.2,120.8L220.2,120.6L221.8,120.9L222.7,120.7L223.5,120.1L224.7,119.6L225,118.6L225.6,117.3L226.8,116.3L227.8,115.5L228.9,114.7L230.2,114L231.4,113.5L232.9,112.2L234.1,111.5L234.7,111.3L235.4,111.5L236.8,111.7L237.8,111.6L238.3,111.8L239.4,112.4L240.4,113L241.2,114L242.6,115.4L243.4,115.8L243.9,116L245.2,116.2L246.2,116.2L246.8,115.9L247.9,115.3L249.6,114.6L250.3,114.6L251.3,115L253,115.7L253.6,116.3L254,117L253.2,118.7L251.7,122.2L250.5,125.1L249.8,126.7L249.3,128L248.8,129.2L248.7,129.9L248.1,131L247,132.4L246.8,133.9L246.8,135.2L246.8,136.4L245.6,137.1L244.6,137.8L244.9,140.1L245.4,140.9L246.1,141.8L247,142.5L247.7,143.2L248.4,142.9L249.1,141.9L250.4,141.1L251.1,141.1L251.5,141.3L252.6,141.3L253.7,141L254.6,141L255.8,141.2L256.2,141.4L257.2,141.7L258.2,142.5L258.9,143.4L259.4,143.6L259.7,143.3L260.3,142.5L261.1,141.8L262,140.5L262.8,139.6L263.4,139.4L264.5,139.4L265,139.2L265.9,139.1L266.6,139.4L268.7,139.6L269.3,140.1L270.2,141.5L270.8,142.3L271.8,142.7L272.4,143L272.9,143.2L273.4,143.6L273.5,144L273.7,144.7L274.1,145.1L274.6,145.5L275.1,145.7L275.2,146.3L275.4,146.5L275.8,146.8L277,148.3L277.6,148.7L278.5,149.6L278.9,150.3L278.9,151L279.1,151.6L279.7,152.5L280,153.1L279.9,153.8L280,154.5L279.8,155.3L278.8,155.8L278.5,156L277.8,156.1L276.6,155.8L275.4,155.9L274.1,155.6L273,155L272.4,154.5L271.5,154.2L271,154.4L270.5,155L269.9,154.9L269.3,155L267.9,154.9L267.2,154.7L265.9,155.2L265.2,155.3L263.9,155.9L263.1,156.8L262.6,157.1L262,157L261.6,156.7L261,156.2L260.1,156.3L259.9,156.4L259.7,156.8L259.4,158L259.4,158.5L259.3,158.9L258.8,159L257.8,159L256.4,158.9L255.4,158.6L254.9,158.7L254.1,159.4L253.5,159.5L253,159.7L252.7,160.7L252.1,161.3L251.4,162L250.6,163.5L250.2,164.4L250.3,164.9L250.4,165.5L250.1,166.1L249.4,166.8L248.8,166.9L248,167.5L246.8,168.5L245.9,169.4L244.7,169.6L244,169.8L242.2,170.1L241.7,170.2L239.7,170.3L238.3,169.8L237.5,169.9L236.8,170.2L236.5,170.5L236.4,171L236.2,171.5L235.7,172.3L234.6,173.4L233.7,174.1L233,175L232.6,175.3L231.8,175.7L231.3,175.8L230.3,176.6L229.5,177.4L229,177.6L228.3,177.4L227.9,177.3L226.7,177L225.8,177L224.6,176.8L221.9,176L221,175.6L220.2,174.5L219.5,174L218.5,173.9L217.1,173.9L216.4,173.7L215.3,173.9L214.1,175L213.6,175.8L213.1,176.6L212.5,178.4L212.2,179.6L212,180.2L211.4,181.3L211.3,181.8L211.5,182.4L212,182.9L212.3,183.8L212.9,184.8L213.6,185.5L214.8,186.7L215.2,187.4L215.6,188.1L215.7,188.8L215.6,189.2L215.1,189.6L214.3,189.8L213.9,190.2L213.3,190.9L212.5,191.6L212.1,191.7L211.7,191.9L209.6,192.8L208.8,193L208.1,193.4L207.3,194.3L206.8,195L206,195.9L205.7,196.3L205,197.2L204.2,198.3L203.7,198.9L203.4,199.2L203.2,199.6L202.3,200L201.6,200.3L200.4,200.9L198.8,201.5L197.5,202.1L196.7,202.5L195.5,203.1L194.6,203.3L193,203.3L190.9,203.4L189.4,203.6L188.2,203.4L186.5,203.3L185.2,203.2L184.3,203.4L182.2,203.7L181.8,203.7L178.1,204.3L176.5,204.6L174.9,204.7L173.9,205L173.2,205.2L172.3,205.6L171.8,205.8L170.2,206.6L166.6,208.2L164.1,209.5L163.7,209.7L162.1,210.6L161.1,211L160.5,211.8L160,212.3L159.4,212.5L158.4,212L157.7,212L155.5,211.8L155.5,209.4L153.9,209.8L151.4,210.3L149.1,210.8L147,209.7L145.4,208.8L144,208L141.8,207.5L139.9,207.1L136.6,206.4L135.1,205.8L134.3,204.9L133,203L132.5,202.6L131.9,202.4L131.2,202.2L129.7,202.2L127.9,202.1L125.4,201.7L123.3,201.4L119.8,200.8L119,200.7L117.2,201.2L114.8,201.9L110.6,201.4L108.7,201.1L104.9,200.6L100.7,200.1L96.5,199.5L93.5,199.8L91.8,200L89.9,200.2L89.6,199.9L89.5,198.8L89.2,197.9L88.1,197L87.4,196.1L86.1,194.9L85.6,194.1L85.5,192.9L84.2,189.8L83.5,187.6L83.3,187.2L82.9,186.5L82.5,186.2L81.6,185.9L81.3,185.5L81.3,184.8L81.5,183.8L81.7,183L81.5,182.9L79.1,183.1L77.6,182.6L76.4,182L74.6,180.7L73.6,180.1L72.2,178.7L70.3,178.4L69.5,177.8L68.6,176.6L67.8,175.8L66.7,175.3L64.9,174.8L61.8,174.4L60.8,174.2L59.1,174.5L57.9,174.6L55.8,174.2L54.7,173.9L53.2,173.9L52.3,173.9L51.1,173.8L50.5,173.5L49.9,173.2L48.9,173.3L48.1,173L47.5,172.4L46.8,172.2L46,172.2L45.6,172.4L45.4,172.4L45.2,171.6L44.4,170.4L44.3,169.8L43.9,169.2L43.6,168.6L43.7,167.8L44,166.2L44.7,164.8L45.2,164.5L45.4,164L46,163.3L46.4,162.7L46.3,161.9L45.9,161.1L45.6,160L45.7,159.3L46.1,158.6L46.6,156.9L46.6,156.5L46.4,156.2L46.3,155.4L46.2,154.3L45.6,152.8L45.3,151.9L44.7,151.5L44,151.3L43.5,150.2L42.7,148.8L42.3,148L42.1,147.5L42,146.5L41.7,145.4L41.3,144.7L41.1,144.3L40.9,143.5L40.8,143.3L39.8,143L39.1,142.5L38.8,141.8L38.7,141.2L38.5,140.9L37.9,140.8L37.5,141.3L36.9,141.5L36.5,141.5L36,141.2L35.8,140.9L35.3,140.5L34.7,139.3L34.1,139.1L32.8,139.1L31.8,139.6L31.1,139.6L30.6,139.4L29.9,138.8L29.5,138.3L28.9,138.2L27.6,137.3L26.8,136.7L26.7,135.6L26.3,134.7L25.4,134.5L24.6,133.7L23.4,133.2L22.6,132.9L21.9,132.7L21.8,132.3L21.9,132.1L22.2,131.6L22.5,131.2L22.6,130.8L22.3,130.5L21.6,130.1L20.7,129.8L20.6,129.2L20,128.7L20.1,128.2L20.5,127.9L21,127.6L21,127.2L20.8,126.8L20.6,126.2L20.7,125.8Z"/></svg>
