<svg xmlns="http://www.w3.org/2000/svg" viewBox="0 0 400 300"><path d="M221.1,83.6L221.1,84.3L220.9,86.3L220.9,102.1L190.5,101.5L190.8,127.7L182.1,128.6L179.8,133.8L181.6,148.2L145.2,148.1L143.2,151.5L143.6,147.3L143.8,147.3L164.7,146.5L165.8,142.9L169.6,138.4L172.6,124.5L185.5,113.5L189.9,100.5L192.8,99.8L195.8,91.7L203.6,90.6L207,91.9L211.2,91.9L214.2,89.6L219.9,89.2L219.7,83.6Z" fill="#2c2c34" stroke="#474751" stroke-width="0.8"/><path d="M146.4,223.5L142.6,216.1L138,212.6L142.1,210.8L146.5,204.1L148.8,199.1L152,196L156.6,196.8L161.1,194.7L166.3,194.6L170.7,197.5L176.8,200L182.5,207.1L188.6,213.7L189,219.7L190.8,225.1L194.3,227.8L195.1,231.5L194.7,234.5L193.4,235L188.3,234.3L187.6,235.3L185.6,235.5L178.9,233.2L174.4,233.1L157.3,232.7L154.8,233.8L151.7,233.5L146.8,235L145.2,227.7L153.7,227.9L155.9,226.6L157.6,226.5L161,224.3L165,226.3L169.1,226.5L173.1,224.4L171.2,221.6L168.1,223.2L165.3,223.2L161.6,220.8L158.6,221L156.5,223.2Z" fill="#2c2c34" stroke="#474751" stroke-width="0.8"/><path d="M194.7,234.5L195.1,231.5L194.3,227.8L190.8,225.1L189,219.7L188.6,213.7L191.7,212L193.3,206.3L196.2,206.1L202.7,208.8L208,206.9L211.5,207.5L212.9,205.4L250.1,205.2L252.2,198.5L250.6,197.3L246.1,155L241.7,111.6L255.9,111.4L287.2,133.5L318.5,155.3L320.7,160L326.5,162.8L330.8,164.4L330.9,170.7L341.2,169.7L341.2,192.2L336.1,198.6L335.3,204.6L327.1,206.1L314.4,206.9L311,210.4L305,210.7L299.1,210.8L296.8,208.9L291.6,210.3L283,214.3L281.2,217.3L274,221.6L272.7,224L268.9,226L264.4,224.7L261.8,227L260.5,233.5L253.1,241.4L253.3,244.6L250.8,248.6L251.4,254.1L247.6,255.5L245.4,256.7L244,252.6L241.3,253.7L239.7,253.5L238,256.3L230.8,256.2L228.2,254.8L227,255.6L224.2,252.9L224.7,250.1L223.5,249L221.5,249.9L221.9,246.9L223.8,244.4L220,240.5L218.9,237.8L216.8,235.8L215,235.5L212.8,236.8L209.8,238.1L207.2,240.2L203.2,239.4L200.7,237L199.1,236.7L196.7,237.9L195.2,238Z" fill="#2c2c34" stroke="#474751" stroke-width="0.8"/><path d="M326.5,292.7L318.9,293.8L316.6,287.3L317,265.8L315.1,263.9L314.8,259.2L311.6,255.9L308.7,253.2L309.9,248.2L313.1,247.1L315,243L319.5,242.1L321.5,239.3L324.7,236.5L328,236.4L335.1,241.9L334.7,245.1L336.8,250.7L335,254.5L335.9,257L331.4,262.8L328.6,265.7L326.8,271.6L327.1,277.6Z" fill="#2c2c34" stroke="#474751" stroke-width="0.8"/><path d="M400,226.8L395.4,226.5L389.9,230.6L385.2,230.8L374,225.9L369.6,228.2L364.8,228.1L361.4,224.5L352,220.9L342.1,222L339.7,224.1L338.4,229.6L335.7,233.4L335.1,241.9L328,236.4L324.7,236.5L321.5,239.3L321.7,232.7L311.1,230.6L310.8,226L305.5,219.7L304.3,215.4L305,210.7L311,210.4L314.4,206.9L327.1,206.1L335.3,204.6L336.1,198.6L341.2,192.2L341.2,169.7L354.3,165.3L381.1,145.8L400,134.5L400,226.8Z" fill="#2c2c34" stroke="#474751" stroke-width="0.8"/><path d="M400,286L399,285.2L395.4,285.4L389.9,290.8L387.2,290.9L382.8,299.9L382.8,300L348.9,300L348.9,300L348.3,298.7L341.7,292.6L334.7,292.7L326.5,292.7L326.5,292.7L327.1,277.6L326.8,271.6L328.6,265.7L331.4,262.8L335.9,257L335,254.5L336.8,250.7L334.7,245.1L335.1,241.9L335.7,233.4L338.4,229.6L339.7,224.1L342.1,222L352,220.9L361.4,224.5L364.8,228.1L369.6,228.2L374,225.9L385.2,230.8L389.9,230.6L395.4,226.5L400,226.8L400,286Z" fill="#2c2c34" stroke="#474751" stroke-width="0.8"/><path d="M382.8,300L382.8,299.9L387.2,290.9L389.9,290.8L395.4,285.4L399,285.2L400,286L400,300Z" fill="#2c2c34" stroke="#474751" stroke-width="0.8"/><path d="M309.9,248.2L308.7,253.2L311.6,255.9L314.8,259.2L315.1,263.9L317,265.8L316.6,287.3L318.9,293.8L311.4,295.7L309.3,292.5L306.8,286.5L306.1,281.9L308.1,273.5L305.8,270L304.9,262.6L305,255.8L301.1,250.9L301.8,248Z" fill="#2c2c34" stroke="#474751" stroke-width="0.8"/><path d="M275.1,300L271.4,292.7L273.9,282.2L277.8,274.3L275.3,261L274,253.9L274.3,248.5L290.4,248.1L294.5,248.8L297.5,247.2L301.8,248L301.8,248L301.1,250.9L305,255.8L304.9,262.6L305.8,270L308.1,273.5L306.1,281.9L306.8,286.5L309.3,292.5L311.4,295.7L300,300L275.1,300Z" fill="#2c2c34" stroke="#474751" stroke-width="0.8"/><path d="M231.5,300L231.3,297.8L227.4,293.9L224.4,293.3L221.7,290.7L223.7,286.6L222.8,282L223.2,279.3L224.7,279.3L225.3,275.2L224.5,273.4L225.4,272.1L228.9,271L226.6,263.5L224.4,259.6L225.2,256.4L227,255.6L227,255.6L228.2,254.8L230.8,256.2L238,256.3L239.7,253.5L241.3,253.7L244,252.6L245.4,256.7L247.6,255.5L251.4,254.1L255.6,256.2L257.2,259.3L261.4,261.3L264.6,258.9L269,258.5L275.3,261L277.8,274.3L273.9,282.2L271.4,292.7L275.1,300L231.5,300Z" fill="#2c2c34" stroke="#474751" stroke-width="0.8"/><path d="M174.4,233.1L178.9,233.2L185.6,235.5L187.6,235.3L188.3,234.3L193.4,235L194.7,234.5L195.2,238L196.7,237.9L199.1,236.7L200.7,237L203.2,239.4L207.2,240.2L209.8,238.1L212.8,236.8L215,235.5L216.8,235.8L218.9,237.8L220,240.5L223.8,244.4L221.9,246.9L221.5,249.9L223.5,249L224.7,250.1L224.2,252.9L227,255.6L225.2,256.4L224.4,259.6L226.6,263.5L228.9,271L225.4,272.1L224.5,273.4L225.3,275.2L224.7,279.3L223.2,279.3L220.6,279.1L218.7,282.9L216.1,282.8L214.3,280.8L214.9,277.1L211,271.3L208.6,272.4L206.6,272.6L204,273.1L204.1,269.7L202.7,267.2L203,264.5L201,260.5L198.4,257.2L190.9,257.1L188.8,258.9L186.2,259.1L184.6,261.2L183.6,263.8L178.6,267.9L174.5,262.4L170.9,258.7L168.6,257.4L166.3,255.6L165.2,251.4L163.8,249.3L161.1,247.8L165.3,243.2L168.1,243.3L170.5,241.7L172.5,241.7L174,240.5L173.2,237.3L174.2,236.3Z" fill="#2c2c34" stroke="#474751" stroke-width="0.8"/><path d="M146.8,235L151.7,233.5L154.8,233.8L157.3,232.7L174.4,233.1L174.2,236.3L173.2,237.3L174,240.5L172.5,241.7L170.5,241.7L168.1,243.3L165.3,243.2L161.1,247.8L156.2,243.8L152.3,243.2L150.2,240.5L150.2,239.1L147.4,237.1Z" fill="#2c2c34" stroke="#474751" stroke-width="0.8"/><path d="M210.9,300L209.6,298.9L201.6,293.8L195.4,287.7L197.6,284.8L198.1,282L202.3,277L206.6,272.6L208.6,272.4L211,271.3L214.9,277.1L214.3,280.8L216.1,282.8L218.7,282.9L220.6,279.1L223.2,279.3L223.2,279.3L222.8,282L223.7,286.6L221.7,290.7L224.4,293.3L227.4,293.9L231.3,297.8L231.5,300L210.9,300Z" fill="#2c2c34" stroke="#474751" stroke-width="0.8"/><path d="M178.6,267.9L183.6,263.8L184.6,261.2L186.2,259.1L188.8,258.9L190.9,257.1L198.4,257.2L201,260.5L203,264.5L202.7,267.2L204.1,269.7L204,273.1L206.6,272.6L202.3,277L198.1,282L197.6,284.8L195.4,287.7L192.9,287L186.2,283.3L181.4,278.3L179.8,274.8Z" fill="#2c2c34" stroke="#474751" stroke-width="0.8"/><path d="M251.4,254.1L250.8,248.6L253.3,244.6L253.1,241.4L260.5,233.5L261.8,227L264.4,224.7L268.9,226L272.7,224L274,221.6L281.2,217.3L283,214.3L291.6,210.3L296.8,208.9L299.1,210.8L305,210.7L304.3,215.4L305.5,219.7L310.8,226L311.1,230.6L321.7,232.7L321.5,239.3L319.5,242.1L315,243L313.1,247.1L309.9,248.2L301.8,248L297.5,247.2L294.5,248.8L290.4,248.1L274.3,248.5L274,253.9L275.3,261L269,258.5L264.6,258.9L261.4,261.3L257.2,259.3L255.6,256.2Z" fill="#2c2c34" stroke="#474751" stroke-width="0.8"/><path d="M146.4,223.5L156.5,223.2L158.6,221L161.6,220.8L165.3,223.2L168.1,223.2L171.2,221.6L173.1,224.4L169.1,226.5L165,226.3L161,224.3L157.6,226.5L155.9,226.6L153.7,227.9L145.2,227.7Z" fill="#2c2c34" stroke="#474751" stroke-width="0.8"/><path d="M400,7.4L395.7,11.3L397.5,17.4L400,17.5L400,39.9L400,39.9L393.9,43.9L394.9,48.4L394.1,53L389.5,55.5L389.5,55.5L385.6,36L379.9,31.6L379.8,28.9L372.2,22.3L371.4,13.9L377.1,7.6L378.9,0L400,0Z" fill="#2c2c34" stroke="#474751" stroke-width="0.8"/><path d="M378.9,0L377.1,7.6L371.4,13.9L372.2,22.3L379.8,28.9L379.9,31.6L385.6,36L389.5,55.5L392.5,64.9L393,69.9L391.4,78.5L392.1,83.3L390.9,89L391.7,95.5L388,99.9L393.5,107.4L393.9,111.8L397.2,117.5L400,116.3L400,134.5L400,134.5L381.1,145.8L354.3,165.3L341.2,169.7L330.9,170.7L330.8,164.4L326.5,162.8L320.7,160L318.5,155.3L287.2,133.5L255.9,111.4L220.9,86.3L220.9,86.3L221.1,84.3L221.1,83.6L221,71.1L236,63.3L245.3,61.7L252.9,58.8L256.5,53.4L267.3,49.1L267.7,41.1L273.1,40.1L277.3,36.1L289.4,34.3L291.1,30L288.7,27.6L285.5,15.9L284.9,9.1L281.4,1.8L284,0L378.9,0Z" fill="#2c2c34" stroke="#474751" stroke-width="0.8"/><path d="M270.8,0L277.4,1.7L281.4,1.8L281.4,1.8L284.9,9.1L285.5,15.9L288.7,27.6L291.1,30L289.4,34.3L277.3,36.1L273.1,40.1L267.7,41.1L267.3,49.1L256.5,53.4L252.9,58.8L245.3,61.7L236,63.3L221,71.1L221.1,83.6L219.7,83.6L219.9,89.2L214.2,89.6L211.2,91.9L207,91.9L203.6,90.6L195.8,91.7L192.8,99.8L189.9,100.5L185.5,113.5L172.6,124.5L169.6,138.4L165.8,142.9L164.7,146.5L143.8,147.3L143.6,147.3L144,142.6L147.6,139.9L150.6,134.7L150,131.3L153.2,124.1L158.4,117.7L161.5,116L164,110.1L164.2,104.6L167.5,98.2L173.7,94.4L179.6,83.8L179.8,83.6L184.4,79.6L193.1,78.5L200.4,71.2L205,68.4L212.8,59.5L210.5,46.1L214,36.7L215.2,30.9L221.2,23.5L230.5,18.4L237.4,13.8L243.6,2.1L244.5,0L270.8,0Z" fill="#2c2c34" stroke="#474751" stroke-width="0.8"/><path d="M400,116.3L397.2,117.5L393.9,111.8L393.5,107.4L388,99.9L391.7,95.5L390.9,89L392.1,83.3L391.4,78.5L393,69.9L392.5,64.9L389.5,55.5L394.1,53L394.9,48.4L393.9,43.9L400,39.9L400,116.3Z" fill="#2c2c34" stroke="#474751" stroke-width="0.8"/><path d="M149.6,164.3L149,165.2L148.8,164.9L148.7,164.2L149.2,163.3L149.4,162.9L149.9,162.7ZM187.6,211.9L187.4,211.8L186.4,211.1L185.9,210.3L185.1,209.7L184.1,209.3L183.4,208.8L183,208.2L182.6,207.9L182.2,207.7L182.2,207.5L182.3,207.3L182.2,206.8L181.6,205.7L181,205.2L180.5,205.3L180.2,205.1L180,204.9L179.9,204.5L179.6,204.2L179,204.1L178.5,203.3L178.2,201.8L177.7,200.7L177.1,199.9L176.7,199.5L176.4,199.5L176.3,199.3L176.2,199.1L175.7,199L175.1,199.3L174.5,199.2L174.3,198.8L173.9,198.7L173.4,199.1L172.8,199L172.2,198.5L171.9,197.9L171.9,197.4L170.8,196.4L168.8,194.8L166.7,194.1L164.3,194.2L163,194.1L162.7,193.9L162.4,193.9L162.1,194.2L161.8,194.2L161.5,194.1L161.3,194.2L161.2,194.6L160.4,194.8L158.8,194.8L157.5,195L156.6,195.5L155.2,195.7L153.4,195.7L152.4,195.5L152,195.2L151.5,195.1L150.9,195.3L150.3,196.1L149.8,197.5L149.3,198.2L149,198.4L148.6,199.5L148.4,201.2L148.1,202L148.1,197.7L148.6,196L148.8,194.6L149.9,191.4L151.1,188.9L152.3,185.4L152.8,182.1L152.6,178.8L152.3,175.9L151.7,174L151.1,171.2L150.2,169.7L148.7,168.4L148.3,167.7L148.7,167.4L149.6,167.2L150.2,166.2L149,166.6L150.4,163.5L150.9,161.4L150.8,160L151.1,159.1L150,157.3L149.1,154.9L148.6,154.5L148.1,154.4L148.1,154.9L147.8,155.4L147.3,155.1L146.3,153.4L144.9,150.6L144.4,150.3L144,150.7L143.8,151.1L143.3,153.4L143.2,152.5L143.4,151.4L143.7,150.1L144.1,148.2L145.3,148.2L147.4,148.2L149.6,148.2L151.7,148.2L153.8,148.2L155.9,148.2L158.1,148.2L160.2,148.2L162.3,148.2L164.5,148.2L166.6,148.2L168.7,148.2L170.8,148.2L173,148.2L175.1,148.2L177.2,148.1L179.4,148.1L180.8,148.1L180.7,146.8L180.6,145.8L180.5,144.3L180.4,142.9L180.4,141.5L180.3,140.2L180.2,138.9L180.1,137.7L180,136.5L179.9,135.9L179.5,134.6L179.4,133.9L179.5,133.3L179.8,132.6L180.6,131.4L181.9,130.5L183.3,129.5L184.4,128.7L185,128.5L186.7,128.2L188.1,127.6L189.4,127.1L190,126.7L190,125.6L190,124.4L190,123L190,121.6L190,120.2L190,118.9L190,117.5L190,116.1L190,114.7L190,113.3L190,111.9L190,110.5L190,109.1L190,107.7L190,106.3L190,104.9L190,103.5L190,102.1L190,100.9L191.4,100.9L193.2,100.9L194.9,100.9L196.6,100.9L198.3,100.9L200.1,100.9L201.8,100.9L203.5,100.9L205.2,100.9L207,100.9L208.7,100.9L210.5,100.9L212.2,100.9L213.9,100.9L215.6,100.9L217.4,100.9L219.1,100.9L221,100.9L221,99.7L221,98L221,95.7L221,93.4L221,91.3L221,89.2L220.9,87.5L222.7,88.6L224.5,89.8L226.2,91L227.9,92.1L229.7,93.3L231.4,94.4L233.2,95.6L234.9,96.7L236.7,97.8L238.4,99L240.2,100.1L241.9,101.3L243.7,102.4L245.4,103.6L247.1,104.7L248.9,105.8L250.3,106.8L252.6,108.3L254.7,109.7L256.8,111.2L253.6,111.2L249.2,111.2L246.2,111.2L243.2,111.2L240.4,111.2L240.6,113.5L240.9,116.1L241.1,118.6L241.4,121.1L241.7,123.6L241.9,126.2L242.2,128.7L242.5,131.2L242.7,133.7L243,136.2L243.2,138.7L243.5,141.2L243.8,143.7L244,146.1L244.3,148.6L244.6,151.1L244.8,153.6L245.1,156L245.4,158.5L245.6,161L245.9,163.4L246.1,165.9L246.4,168.3L246.7,170.7L246.9,173.2L247.2,175.6L247.5,178.1L247.7,180.5L248,182.9L248.3,185.3L248.5,187.8L248.8,190.2L249,192.6L249.3,194.9L250.4,196.1L251.8,197.7L251.4,199.9L250.9,202.4L250.4,205.3L248.4,205.3L246.5,205.3L244.6,205.3L242.8,205.3L240.9,205.3L239,205.3L237.1,205.3L235.2,205.3L233.3,205.3L231.4,205.3L229.5,205.3L227.6,205.3L225.7,205.3L223.8,205.3L221.9,205.3L220,205.3L218.1,205.3L216.4,205.3L215.3,205.2L214.9,205L214.8,203.5L214.4,203.6L214.1,204.1L213.9,204.5L213.9,205.1L213.9,205.6L212.7,205.8L211,206.2L209.3,206.5L207.6,206.4L206.9,206.2L206.3,206L204.9,205.8L204.2,205.8L203.3,205.9L202.3,206L201.9,206.2L201.2,207.3L200.4,208.6L199.9,208.6L199.4,207.9L197.9,206.6L196.1,204.9L195.3,204L194.8,203.9L193.9,204.5L193.2,205.1L192.4,206L192,206.7L191.8,207.7L191.6,208.8L191.4,210.1L190.7,211.1L190,211.9L189.4,212.3L189.2,212.5Z" fill="#b8e653" stroke="#0c0e06" stroke-width="1"/></svg>
