<svg xmlns="http://www.w3.org/2000/svg" viewBox="0 0 300 300"><path fill="#e8e8ea" d="M124.1,278.7L123.7,278.5L121.7,277.1L120.7,275.4L119.1,274.1L116.9,273.3L115.4,272.3L114.7,271.2L113.9,270.4L113,270L113,269.7L113.2,269.1L113,268.1L111.6,265.8L110.4,264.8L109.3,265L108.7,264.7L108.4,264.2L108.2,263.4L107.5,262.8L106.3,262.5L105.3,260.9L104.6,257.8L103.6,255.4L102.4,253.7L101.5,253L100.9,252.9L100.7,252.6L100.5,252.2L99.5,252L98.2,252.5L97,252.3L96.5,251.5L95.7,251.4L94.6,252.1L93.5,251.9L92.3,250.8L91.6,249.7L91.5,248.6L89.3,246.5L85.2,243.2L80.6,241.7L75.8,241.9L73.1,241.7L72.4,241.2L71.8,241.3L71.3,241.8L70.6,242L69.9,241.6L69.5,241.9L69.3,242.7L67.6,243.1L64.3,243.2L61.7,243.7L59.7,244.7L56.8,245.1L53.1,245L51,244.6L50.2,244L49.1,243.9L47.8,244.2L46.5,245.8L45.5,248.7L44.6,250.3L43.9,250.8L43.1,252.9L42.7,256.5L42,258.1L42,249.1L43.1,245.7L43.4,242.8L45.7,236.2L48.3,230.9L50.8,223.7L51.8,216.8L51.5,210L50.7,203.9L49.4,199.9L48.3,194.1L46.5,191L43.2,188.3L42.4,186.7L43.2,186.2L45.2,185.7L46.5,183.6L43.8,184.5L46.9,178L47.8,173.6L47.7,170.7L48.3,169L45.9,165.1L44.1,160.2L43.1,159.4L42.1,159.1L42.1,160.2L41.5,161.2L40.3,160.6L38.3,157L35.5,151.3L34.4,150.7L33.6,151.5L33.1,152.2L32.1,157L31.9,155.1L32.3,152.9L33,150.1L33.7,146.2L36.2,146.2L40.6,146.2L45.1,146.2L49.5,146.2L54,146.2L58.3,146.2L62.8,146.2L67.2,146.2L71.6,146.2L76.1,146.2L80.5,146.2L84.9,146.2L89.3,146.2L93.8,146.2L98.2,146.2L102.6,146.1L107.1,146.1L110,146.1L109.8,143.4L109.6,141.2L109.5,138.2L109.3,135.3L109.1,132.4L108.9,129.6L108.8,126.9L108.6,124.3L108.4,122L108.2,120.6L107.3,117.9L107.1,116.6L107.3,115.2L108,113.8L109.7,111.4L112.3,109.5L115.3,107.4L117.6,105.7L118.8,105.3L122.4,104.7L125.2,103.5L128,102.3L129.2,101.6L129.3,99.3L129.3,96.8L129.3,93.9L129.3,91L129.3,88.1L129.3,85.2L129.3,82.3L129.3,79.5L129.3,76.6L129.3,73.7L129.3,70.8L129.3,67.9L129.3,65L129.3,62.1L129.3,59.2L129.3,56.3L129.3,53.3L129.3,50.4L129.3,47.9L132.1,47.9L135.8,47.9L139.4,47.9L142.9,47.9L146.5,47.9L150.1,47.9L153.8,47.9L157.4,47.9L160.9,47.9L164.5,47.9L168.1,47.9L171.8,47.9L175.3,47.9L178.9,47.9L182.5,47.9L186.1,47.9L189.7,47.9L193.6,47.9L193.6,45.4L193.6,41.9L193.6,37.1L193.6,32.2L193.6,27.9L193.6,23.6L193.6,20L197.3,22.4L200.9,24.8L204.5,27.2L208.1,29.6L211.8,32L215.4,34.4L219,36.8L222.6,39.1L226.3,41.5L229.9,43.9L233.5,46.3L237.1,48.6L240.8,51L244.4,53.4L248.1,55.7L251.7,58.1L254.7,60.1L259.4,63.3L263.8,66.2L268.1,69.2L261.4,69.2L252.4,69.2L246.2,69.2L239.9,69.2L233.9,69.3L234.4,74.1L235,79.4L235.5,84.7L236.1,89.9L236.7,95.2L237.2,100.4L237.8,105.6L238.3,110.8L238.9,116.1L239.4,121.3L239.9,126.5L240.5,131.6L241,136.8L241.6,142L242.1,147.1L242.7,152.3L243.3,157.4L243.8,162.6L244.4,167.7L244.9,172.8L245.4,177.9L246,183L246.5,188.1L247.1,193.2L247.6,198.3L248.2,203.3L248.7,208.4L249.3,213.4L249.9,218.4L250.4,223.5L251,228.5L251.5,233.6L252,238.6L252.6,243.4L254.9,246L257.8,249.2L256.9,253.7L255.9,259.1L254.8,265L250.8,265L246.8,265L242.8,265L239,265L235,265L231,265L227.1,265L223.2,265L219.2,265L215.3,265L211.4,265L207.4,265L203.5,265L199.5,265L195.6,265L191.7,265L187.7,265L184.1,265L181.8,264.8L181,264.4L180.7,261.4L180,261.5L179.3,262.4L178.8,263.4L179,264.7L178.8,265.7L176.3,266.2L172.9,266.9L169.3,267.4L165.7,267.2L164.5,267L163.1,266.6L160.2,266.2L158.7,266.1L156.9,266.2L154.7,266.4L154,267L152.4,269.3L150.9,271.9L149.9,271.9L148.7,270.4L145.6,267.7L141.8,264.2L140.1,262.4L139.2,262.2L137.4,263.4L135.8,264.7L134.2,266.4L133.5,268L132.9,270L132.6,272.3L132.1,275L130.8,277.2L129.2,278.8L128,279.6L127.6,280Z"/></svg>
