<svg xmlns="http://www.w3.org/2000/svg" viewBox="0 0 400 300"><path d="M76.1,300L68.4,261.6L53.3,250L53,243L33.1,225.6L31,203.5L46,186.9L51.7,162.3L47.9,133.6L52.9,117.9L79.4,105.5L96.6,109.2L95.8,124.7L116.6,113.5L118.3,119.3L106.1,134.3L105.9,148.3L114.4,155.8L111.2,181.6L95.1,196.6L99.8,212.6L112.3,213.1L118.5,227.1L127.8,231.6L126.4,254L114.5,262.3L107,271.5L90.2,282.5L92.8,294.3L91.8,300L76.1,300Z" fill="#2c2c34" stroke="#474751" stroke-width="0.8"/><path d="M0,113L0.1,112.9L26.2,112.6L36.2,119.7L52.9,117.9L47.9,133.6L51.7,162.3L46,186.9L31,203.5L33.1,225.6L53,243L53.3,250L68.4,261.6L76.1,300L0,300Z" fill="#2c2c34" stroke="#474751" stroke-width="0.8"/><path d="M400,14.4L400,14.4L400,14.4L400,134.2L400,134.2L396.6,134.3L376.6,121L367.4,96.5L363.1,75.8L353.6,61.5L341,43.5L339.5,34.5L350.8,19L352.2,8.6L360.2,4L360.4,0L400,0Z" fill="#2c2c34" stroke="#474751" stroke-width="0.8"/><path d="M360.4,0L360.2,4L352.2,8.6L350.8,19L339.5,34.5L335.2,32.3L334.8,25.3L321.3,14.5L319.2,0L360.4,0Z" fill="#2c2c34" stroke="#474751" stroke-width="0.8"/><path d="M282.1,0L296.1,11.2L298.6,17.2L294.1,28.6L280.5,13.7L259.2,8.4L249,29.1L266.6,40.8L263.7,57.3L253.5,59.2L240.5,85.9L230.3,88.3L230.4,78.8L235.4,62L240.7,55.3L231.2,37.1L223.7,21L213.6,17L206.4,3.2L197.8,0L282.1,0ZM207.8,81L226.3,78.3L217.5,102.7L221.1,112.2L216,127.8L197.3,116.4L184.9,113.1L150.9,97.4L154.2,81.5L182.8,84.4ZM82.6,0L86.7,6.6L83.3,48.7L72.2,46.7L62.3,57.2L53,48.8L52.1,10.5L48.9,0L82.6,0Z" fill="#2c2c34" stroke="#474751" stroke-width="0.8"/><path d="M91.8,300L92.8,294.3L90.2,282.5L107,271.5L114.5,262.3L126.4,254L127.8,231.6L156.5,241.7L166.8,239.2L187.2,244L219.6,256.9L231,282.5L253,288.1L287.3,300L91.8,300ZM331.4,300L337.1,293.7L331.4,271.8L339,257.7L356.6,244.1L373.5,240.2L400,245L400,300Z" fill="#2c2c34" stroke="#474751" stroke-width="0.8"/><path d="M203,151.1L202.1,152.1L199.9,152.1L197.7,150.5L197.7,147.3L200.1,148L202.3,150.1ZM196.8,145.8L195.4,146.3L193.9,145.4L193.5,144.8L195.6,144.4L196.6,144.8L197,145.6Z" fill="#b8e653" stroke="#0c0e06" stroke-width="1"/></svg>
