<svg xmlns="http://www.w3.org/2000/svg" viewBox="0 0 400 300"><path d="M342.3,0L331.5,18.3L338.9,26.5L316.7,33.5L308.5,50.3L298.6,57.4L275.5,34.3L264.4,0L342.3,0Z" fill="#2c2c34" stroke="#474751" stroke-width="0.8"/><path d="M400,85.1L398.7,93.9L388.5,100.9L367.2,106.5L355.6,87L351.3,51.6L362.4,11.4L379.3,25.2L390.6,42.6L400,63L400,85.1Z" fill="#2c2c34" stroke="#474751" stroke-width="0.8"/><path d="M197.9,173.6L197.4,173.7L197,173.3L197.1,172.7L197.6,172.2L198.2,172.2L198.5,172.6L198.3,173.2ZM200.2,150.8L199.8,151L199.4,150.9L199.2,150.7L199.5,150.2L199.8,149.7L200,149.1L200.4,148.8L200.6,148.9L200.6,149.2L200.5,149.7L200.4,150.3Z" fill="#b8e653" stroke="#0c0e06" stroke-width="1"/></svg>
