<svg xmlns="http://www.w3.org/2000/svg" viewBox="0 0 300 300"><path fill="#e8e8ea" d="M114.6,174.2L112.9,171.8L111.5,172.4L109.5,174.1L108.4,174.6L107.8,174.5L107.5,174.1L107,173L105.5,169.9L103.7,167.6L101.9,166.8L100.4,165.7L101,164.7L101.7,164L101.5,163.3L100.6,162.2L97.3,160.6L97.3,160L100.2,158.6L101.9,157L103.2,155.5L104.8,152.1L106,148.8L107,147.7L107.3,145.5L107.1,143L107.7,139.8L108.1,136.8L107.1,135.6L106.3,133.6L107.2,130.2L108.8,127.8L116.1,125.3L121.1,123.1L122.2,122.1L123.8,120.2L124.8,118.3L124.2,117.7L120.2,117.7L119.2,117L116.3,110.5L117.9,102.9L118.1,100L117.9,96.4L117.5,93.7L116.3,92.5L115.5,91.2L115.7,87.2L116.9,86.8L119.3,81.6L120.5,78.6L119.1,76.2L117.7,72.7L117,70.5L116.6,69.7L117.6,68.4L119.3,67.1L121.2,66.7L123.2,66.1L129.6,59.7L129.7,58.4L128.5,56.3L126.2,53.1L125.6,51.7L125.3,47.9L124.4,46.7L120.9,44.1L118.3,41.4L119.1,38.5L119.6,35.5L118.2,33.8L116.3,32.1L115,29.6L114.4,27.7L112.9,26.9L111.5,26.9L110.4,28.1L109.3,27.9L107.9,27.5L107.5,25.9L107.3,24.1L106.4,23L105.6,21.3L105.5,20.4L106,20.2L107.2,20L112.3,23.3L115.5,23.5L118.9,24.1L121.8,27.1L123.3,27.5L125.3,27.1L130.9,26.7L133.1,27.2L135.9,28.9L137.1,29.1L138.9,29.2L139.2,28.7L139.5,27.7L139.1,25.6L139.5,24.5L140.6,23.3L143.6,24.7L151.2,31.2L151.5,32L156.3,38.4L157.8,41.1L157.8,42.5L159.4,48.1L159.7,50.7L159.4,52.7L159.5,54.3L160.1,56.6L159.8,57.5L161.6,60.9L162.4,63.7L162.5,66.4L162.1,69.1L160.5,73L160.3,74.5L160.6,76L161.6,77.6L163.2,79.2L164.5,81.3L165.4,83.6L166.1,84.7L166.9,84.7L168.5,85L169.8,86.4L171.4,88.8L171.8,91.4L172.1,92.6L167.7,92.5L162.3,92.9L161,94L160.5,96.3L158.9,101.1L157.9,102.9L155.8,106.1L153,110.7L152.4,112.2L152.5,113.7L154.2,119.9L155.9,126.4L156.5,129L157.8,137.7L158.5,143.8L158.5,147.4L159.1,152.2L160.8,154.9L162.4,156.5L168.5,157.5L170.4,158.7L173.8,161.7L181.5,170.3L185.7,175.8L189.4,180.6L196,189.5L201.1,196.4L201.7,202.9L202.7,203.9L200.9,208.7L199.7,216.5L200.5,221.7L200.2,230.6L199.2,240L198.1,243.5L196.7,244.7L193,245.7L185.1,246.9L183.9,248L183,249.8L181.4,254.2L179.5,258.7L178.9,260.6L179.2,261L180.9,263.2L182.7,269L182.9,278.9L182.3,279.6L180.1,280L177.5,279.9L176.4,279.3L175.6,278.2L174.9,276.1L176.5,274.7L177.1,272.1L176.1,269.9L173.9,269.4L171.2,267.4L165.6,260.8L160.8,256.2L158.1,252.3L155.1,250.8L154.4,249.8L153.7,248.3L153.7,245.9L153.9,244.2L153,242.3L150.2,239.3L148.9,237.6L148.8,235.7L149.9,233.7L152.4,231.4L154.3,226.7L155,223.7L158.4,217.6L158.9,212.3L159,208.1L158.8,204.9L157.8,198.4L157.2,193.9L153,188.1L151.6,187.5L147.6,188.1L144.1,188.9L142.4,190.1L139.7,190.2L133,191.2L130.8,191.6L129.6,192.7L128.9,192.9L124.5,188.4L120.8,183.6L116.1,175.2Z"/></svg>
