<svg xmlns="http://www.w3.org/2000/svg" viewBox="0 0 400 300"><path d="M259,0L277.3,12.8L270.1,32.2L271,41.2L281,47L281.5,51.1L277.2,60.6L278.1,65.5L277.1,73L282.6,83L289.1,98.7L294.8,102.2L282.3,111.5L265.1,117.7L255.7,117.4L250.1,122.2L239.2,122.7L235,124.7L216.2,120.2L204.3,121.5L200,99.7L194.6,92.3L191.5,87.9L176,84.9L167.2,80.1L157.1,77.4L150.9,74.8L144.3,70.7L135.8,50.7L126.7,41.9L123.6,32.7L125.1,24.5L122.3,10L128.8,9.2L134.5,3.5L137.1,0L259,0Z" fill="#2c2c34" stroke="#474751" stroke-width="0.8"/><path d="M121.8,0L122.3,10L122.3,10L125.1,24.5L123.6,32.7L126.7,41.9L135.8,50.7L144.3,70.7L138.1,69.1L117,71.8L112.8,73.7L108.3,83.8L111.8,90.9L109.1,109.8L107.1,125.8L111.4,128.7L122.4,135L126.7,132L128,149.4L116,149.3L109.5,140.4L103.7,133.5L91.6,131.3L88.1,122.9L78.5,128L65.9,125.7L60.7,118.4L50.7,116.9L43.3,117.4L42.5,112.4L37,112L29.9,111L20.1,113.4L13.3,113L9.4,114.5L10.3,95.5L5,89.6L3.8,79.8L6.2,70.2L3,64.1L2.7,54.1L0,54.1L0,0Z" fill="#2c2c34" stroke="#474751" stroke-width="0.8"/><path d="M285.8,0L283.6,7.6L277.3,12.8L277.3,12.8L259,0L285.8,0Z" fill="#2c2c34" stroke="#474751" stroke-width="0.8"/><path d="M115.4,300L123.8,295.3L130.2,295.5L137.7,298.4L143.1,296.3L151.4,298L152.1,300L115.4,300Z" fill="#2c2c34" stroke="#474751" stroke-width="0.8"/><path d="M151.4,298L143.1,296.3L137.7,298.4L130.2,295.5L123.8,295.3L113.8,287.6L101.6,285.1L97,274.4L97,268.4L90.2,266.6L72.4,248.3L67.5,238.7L64.3,235.7L58.3,222.5L75.8,224.3L80.9,226.2L86.3,225.8L95,215.1L108.6,201.6L114.3,200.4L116.1,194.7L125.1,188.2L137,185.9L138,192L151.1,191.7L158.4,195.1L161.8,199.2L169.3,200.4L177.5,205.7L177.5,226.5L174.4,238L173.7,250.4L176.3,255.3L174.5,265.2L172.1,266.7L168,278.8Z" fill="#2c2c34" stroke="#474751" stroke-width="0.8"/><path d="M0,230.5L1.6,230.5L25.8,224.7L31.8,231.5L41.8,225L46.6,225L55.4,221.2L58.3,222.5L64.3,235.7L67.5,238.7L72.4,248.3L90.2,266.6L97,268.4L97,274.4L101.6,285.1L113.8,287.6L123.8,295.3L123.8,295.3L115.4,300L0,300Z" fill="#2c2c34" stroke="#474751" stroke-width="0.8"/><path d="M0,225L26.1,219L39,215.2L49.1,216.2L55.3,219.9L55.4,221.2L46.6,225L41.8,225L31.8,231.5L25.8,224.7L1.6,230.5L0,230.5L0,225Z" fill="#2c2c34" stroke="#474751" stroke-width="0.8"/><path d="M144.3,70.7L150.9,74.8L157.1,77.4L167.2,80.1L176,84.9L183.5,92L187.5,105.5L184.8,109.9L181.6,122.9L184.6,136.2L179.7,141.8L174.9,156.8L183.2,161L135.5,174.3L137,185.9L125.1,188.2L116.1,194.7L114.3,200.4L108.6,201.6L95,215.1L86.3,225.8L80.9,226.2L75.8,224.3L58.3,222.5L55.4,221.2L55.3,219.9L49.1,216.2L39,215.2L26.1,219L15.8,208.7L5.2,195.3L5.9,143.6L38.7,143.8L37.3,138.3L39.6,132.2L36.9,124.7L38.7,116.9L37,112L42.5,112.4L43.3,117.4L50.7,116.9L60.7,118.4L65.9,125.7L78.5,128L88.1,122.9L91.6,131.3L103.7,133.5L109.5,140.4L116,149.3L128,149.4L126.7,132L122.4,135L111.4,128.7L107.1,125.8L109.1,109.8L111.8,90.9L108.3,83.8L112.8,73.7L117,71.8L138.1,69.1Z" fill="#2c2c34" stroke="#474751" stroke-width="0.8"/><path d="M152.1,300L151.4,298L168,278.8L172.1,266.7L174.5,265.2L176.3,255.3L173.7,250.4L174.4,238L177.5,226.5L177.5,205.7L169.3,200.4L161.8,199.2L158.4,195.1L151.1,191.7L138,192L137,185.9L135.5,174.3L183.2,161L192.2,168.8L196.6,167.3L202.8,171.4L203.7,177.9L200.4,185.4L201.6,197L211.8,207.1L216.6,195.7L223.4,192.3L222,171.3L215.5,159.6L209.8,154.4L204.3,154.6L200,133.7L204.3,121.5L204.3,121.5L216.2,120.2L235,124.7L239.2,122.7L250.1,122.2L255.7,117.4L265.1,117.7L282.3,111.5L294.8,102.2L297.3,109.4L296.7,125.3L298.6,139.5L299.3,164.7L302,172.7L297.3,184.3L291.2,195.6L281.2,205.8L266.8,212L249.1,220L231.4,237.8L225.4,240.8L214.4,252.6L207.9,256.5L206.6,268.4L214.1,281.1L217.1,291L217.3,296.1L220.1,295.3L220,300L152.1,300Z" fill="#2c2c34" stroke="#474751" stroke-width="0.8"/><path d="M0,54.1L2.7,54.1L3,64.1L6.2,70.2L3.8,79.8L5,89.6L10.3,95.5L9.4,114.5L13.3,113L20.1,113.4L29.9,111L37,112L38.7,116.9L36.9,124.7L39.6,132.2L37.3,138.3L38.7,143.8L5.9,143.6L5.2,195.3L15.8,208.7L26.1,219L0,225L0,54.1Z" fill="#2c2c34" stroke="#474751" stroke-width="0.8"/><path d="M137.1,0L134.5,3.5L128.8,9.2L122.3,10L121.8,0L137.1,0Z" fill="#2c2c34" stroke="#474751" stroke-width="0.8"/><path d="M341.6,300L341,294.7L343.8,282.5L351,279.6L351.1,274L358.6,261.3L360,250.6L356.3,242.8L353.4,232.3L352.1,217.1L357.6,207.9L359.7,197.5L367.5,196.9L376.3,193.5L382.1,190.6L389,190.4L398,181.1L400,179.5L400,300Z" fill="#2c2c34" stroke="#474751" stroke-width="0.8"/><path d="M206.9,131L206.3,131.1L206,130.8L206,129.9L206.3,129.3L206.8,129.2L207.2,129.4L207.4,129.7L207.4,130.1L207.3,130.6ZM205.6,129.4L205.3,130.2L204.7,130.2L204,129.5L204.3,128.9L204.8,128.7L205.3,128.9ZM183,161.7L182.2,160.5L181.5,160.8L180.5,161.6L180,161.8L179.7,161.8L179.5,161.6L179.3,161.1L178.6,159.5L177.7,158.5L176.9,158.1L176.2,157.6L176.4,157.1L176.8,156.7L176.7,156.4L176.3,155.9L174.7,155.1L174.7,154.8L176,154.2L176.9,153.4L177.5,152.6L178.2,151L178.9,149.4L179.3,148.9L179.5,147.8L179.4,146.6L179.7,145.1L179.8,143.6L179.4,143.1L179,142.1L179.4,140.5L180.2,139.3L183.7,138.1L186.1,137L186.6,136.6L187.4,135.7L187.9,134.8L187.6,134.5L185.7,134.5L185.2,134.1L183.8,131L184.6,127.4L184.6,126L184.6,124.2L184.4,122.9L183.8,122.4L183.4,121.7L183.5,119.8L184.1,119.6L185.3,117.1L185.8,115.7L185.1,114.5L184.5,112.8L184.1,111.8L184,111.4L184.4,110.8L185.3,110.1L186.2,110L187.1,109.7L190.2,106.6L190.2,106L189.7,104.9L188.5,103.4L188.3,102.8L188.1,100.9L187.7,100.3L186,99.1L184.8,97.8L185.1,96.4L185.4,94.9L184.7,94.1L183.8,93.3L183.2,92.1L182.9,91.2L182.2,90.8L181.5,90.8L181,91.4L180.5,91.3L179.8,91.1L179.5,90.3L179.5,89.5L179,88.9L178.6,88.1L178.6,87.7L178.9,87.6L179.4,87.5L181.9,89.1L183.4,89.2L185,89.5L186.5,90.9L187.2,91.1L188.1,90.9L190.8,90.7L191.9,91L193.2,91.8L193.8,91.9L194.7,91.9L194.8,91.7L194.9,91.2L194.8,90.2L194.9,89.7L195.5,89.1L196.9,89.8L200.6,92.9L200.7,93.3L203,96.3L203.8,97.6L203.8,98.3L204.5,101L204.7,102.3L204.5,103.2L204.6,104L204.8,105.1L204.7,105.5L205.6,107.1L206,108.5L206,109.8L205.8,111.1L205.1,113L205,113.7L205.1,114.4L205.6,115.2L206.4,116L207,117L207.4,118.1L207.7,118.6L208.1,118.6L208.9,118.8L209.5,119.4L210.3,120.6L210.5,121.8L210.6,122.4L208.5,122.3L205.9,122.6L205.3,123.1L205.1,124.2L204.3,126.5L203.8,127.4L202.8,128.9L201.4,131.1L201.2,131.8L201.2,132.6L202,135.5L202.9,138.7L203.1,139.9L203.8,144.1L204.1,147L204.1,148.7L204.4,151.1L205.2,152.3L206,153.1L208.9,153.6L209.8,154.2L211.5,155.6L215.1,159.7L217.2,162.4L218.9,164.7L222.1,169L224.6,172.3L224.9,175.4L225.3,175.9L224.5,178.2L223.9,182L224.3,184.5L224.1,188.8L223.7,193.3L223.1,194.9L222.4,195.5L220.7,196L216.9,196.6L216.3,197.1L215.9,198L215.1,200.1L214.2,202.2L213.9,203.2L214.1,203.4L214.9,204.4L215.7,207.2L215.8,212L215.5,212.3L214.5,212.5L213.2,212.4L212.7,212.2L212.3,211.6L212,210.6L212.8,209.9L213,208.7L212.5,207.6L211.5,207.4L210.2,206.4L207.5,203.3L205.2,201L203.9,199.2L202.5,198.5L202.1,198L201.8,197.2L201.8,196.1L201.9,195.3L201.4,194.4L200.1,192.9L199.5,192.1L199.4,191.2L200,190.3L201.2,189.2L202.1,186.9L202.4,185.4L204,182.5L204.3,180L204.3,177.9L204.2,176.4L203.8,173.3L203.5,171.1L201.4,168.3L200.8,168L198.8,168.3L197.1,168.7L196.4,169.3L195.1,169.3L191.8,169.8L190.8,170L190.2,170.5L189.8,170.6L187.8,168.5L185.9,166.1L183.7,162.1Z" fill="#b8e653" stroke="#0c0e06" stroke-width="1"/></svg>
