<svg xmlns="http://www.w3.org/2000/svg" viewBox="0 0 400 300"><path d="M285.6,0L290.8,5.3L293.9,3.2L295,0L389.4,0L389.4,0L387.5,1.6L384.6,3.9L377.8,6.3L372.6,11.6L365.6,12.7L356.8,11.3L350.7,11.2L346.4,11.7L343,16.3L337.7,19.1L331.8,27.3L327,32.9L330.5,31.9L337.1,23.9L345.8,18.7L351.9,18L355.6,21.1L351.7,25.3L353,31.9L354.3,36.4L359.7,39.3L366.5,38.5L370.6,31.8L370.9,36.1L373.6,38.3L368.5,42.1L359.3,45.6L355.3,47.9L350.7,52L347.5,51.6L347.4,46.8L354.5,42L347.9,42.2L343.4,42.9L340.7,39.6L340.7,31.4L338.8,29.7L336.1,30.7L334.7,29.1L331.6,33.7L330.3,38.3L328.9,41L327.1,41.9L325.8,42.2L325.4,43.6L317.8,43.6L311.5,43.7L309.7,44.7L305.3,48.9L304.8,49.3L303.5,51.6L299.7,51.6L295.7,51.6L293.8,52.5L294.5,53.6L294.8,55.3L294.8,55.9L289.4,58.7L285.1,59.5L280.3,62.5L279.3,62.5L277.9,61.6L277.5,60.8L277.5,60.3L278.5,58.3L280.4,55.2L281.6,51.9L280.8,46.9L279.9,41.6L275.6,38.9L276.1,37.8L275.5,37.1L274.4,37.1L273.5,36.2L273.3,34.8L272.5,35.4L271.4,35.2L271.7,34.6L270.7,34L270.3,32.4L267.1,30.5L263.8,28.5L259.8,26.1L255.9,23.9L252.2,25.6L250.9,25.7L245.8,24.1L242.5,24.9L238.5,22.9L234.3,22L231.4,21.6L230.1,20.5L229.4,17.1L228,17.1L228,19.5L219.5,19.5L205.4,19.5L191.4,19.5L179,19.5L166.6,19.5L154.5,19.5L141.9,19.5L137.9,19.5L125.7,19.5L114,19.5L114,19.5L113.4,19.5L105.5,13.3L102.5,10.5L95.1,7.8L92.8,2L93,0L285.6,0ZM400,34L399.4,34.1L396.7,33L397.6,28L396.5,27.2L391.7,32.5L389.2,32.3L392.1,29.5L388.2,28L383.8,28.3L375.8,28.2L375.1,26.3L377.7,24.2L375.9,22.5L379.4,18.7L383.6,8.5L386.2,4.8L389.8,2.5L391.7,2.8L390.9,4.6L390.9,4.6L388.7,8.7L385.9,14.4L388.6,12.2L391.4,13.6L389.9,15.8L393.6,17.5L395.5,16L399.6,17.9L398.3,22.5L400,21.9L400,34ZM111.2,22.6L109.2,23.4L102.4,20.6L101.2,18.4L97.5,16.2L96.7,14.4L92.5,13.2L90.9,9.7L91.3,8.2L95.6,9.6L98.1,10.6L102,11.3L103.4,13.5L105.4,16.5L109.5,19.1ZM354.1,14L355.6,13.4L361,15L365.2,17.7L365.3,18.8L363.3,19L358,17ZM356.2,31.6L357.7,34.5L360.7,35.3L364.5,35.2L362.4,37.6L360.9,38L355.7,35.5L354.7,33.5Z" fill="#2c2c34" stroke="#474751" stroke-width="0.8"/><path d="M114,19.5L125.7,19.5L137.9,19.5L141.9,19.5L154.5,19.5L166.6,19.5L179,19.5L191.4,19.5L205.4,19.5L219.5,19.5L228,19.5L228,17.1L229.4,17.1L230.1,20.5L231.4,21.6L234.3,22L238.5,22.9L242.5,24.9L245.8,24.1L250.9,25.7L252.2,25.6L255.9,23.9L259.8,26.1L263.8,28.5L267.1,30.5L270.3,32.4L270.7,34L271.7,34.6L271.4,35.2L272.5,35.4L273.3,34.8L273.5,36.2L274.4,37.1L275.5,37.1L276.1,37.8L275.6,38.9L279.9,41.6L280.8,46.9L281.6,51.9L280.4,55.2L278.5,58.3L277.5,60.3L277.5,60.8L277.9,61.6L279.3,62.5L280.3,62.5L285.1,59.5L289.4,58.7L294.8,55.9L294.8,55.3L294.5,53.6L293.8,52.5L295.7,51.6L299.7,51.6L303.5,51.6L304.8,49.3L305.3,48.9L309.7,44.7L311.5,43.7L317.8,43.6L325.4,43.6L325.8,42.2L327.1,41.9L328.9,41L330.3,38.3L331.6,33.7L334.7,29.1L336.1,30.7L338.8,29.7L340.7,31.4L340.7,39.6L343.4,42.9L344.1,44.8L339.7,47.6L335.4,49.6L331.1,51.3L328.9,54.6L328.2,55.9L328.2,58.9L329.5,61.8L331.2,61.9L330.8,59.9L332,61.1L331.7,62.7L328.9,63.6L327,63.5L323.9,64.5L322.1,64.7L319.7,65L316.3,66.6L322.3,65.6L323.6,66.6L317.8,68.2L315.2,68.2L315.3,67.6L314,69.1L315.3,69.3L314.4,73.2L311.4,77.3L311.1,75.9L310.2,75.6L308.8,74.3L309.7,77.2L310.7,78.1L310.8,80.1L309.4,82.1L307.1,86.3L306.7,86.1L308,82.6L305.9,80.6L305.4,76.2L304.6,78.5L305.5,81.8L302.8,81L305.6,82.7L305.8,87.6L307,87.9L307.4,89.7L308,94.8L305.4,98.6L301.1,100L298.4,103L296.3,103.3L294.3,105.1L293.7,106.8L289.2,109.9L286.8,112.2L284.9,115.1L284.2,118.5L285,121.9L286.4,125.9L288.2,129.2L288.2,131.3L290.2,136.6L290,139.7L289.9,141.5L288.8,144.3L287.6,144.9L285.6,144.3L284.9,142.3L283.4,141.3L281.2,137.3L279.3,133.8L278.6,132L279.5,128.9L278.3,126.3L275.1,122.3L273.5,121.6L269.3,123.8L268.6,123.5L266.6,121.3L264,120.1L259.4,120.7L255.7,120.2L252.6,120.5L250.9,121.3L251.6,122.5L251.6,124.4L252.4,125.4L251.6,126L250.1,125.3L248.6,126.2L245.6,126.1L242.5,123.6L238.9,124.1L235.9,123L233.4,123.4L229.9,124.5L226.2,128L222.1,130L219.8,132.2L218.9,134.3L218.8,137.5L219,139.7L219.8,141.3L218.2,141.4L215.3,140.4L212.1,139L210.9,136.8L210,133.6L207.6,130.9L206.2,128.2L204.1,125L201.2,123.1L197.8,123.2L195.2,126.9L191.8,125.5L189.7,124.1L188.7,121.4L187.3,118.9L184.8,116.8L182.7,115.3L181.2,113.6L174.1,113.6L174.1,115.6L170.8,115.6L162.6,115.6L153.2,112.2L147,109.9L147.4,108.9L142.2,109.4L137.5,109.8L136.8,107.3L134.2,104.5L132.2,103.9L131.8,102.5L129.5,102.2L128,100.9L124.2,100.4L123.1,99.6L122.6,96.8L118.6,91.7L115.2,84.6L115.3,83.4L113.5,81.6L110.3,77.2L109.8,72.9L107.6,69.9L108.5,65.4L108.3,60.7L107,56.4L108.6,51.1L109.1,45.9L109.6,40.6L108.9,32.6L107.6,27.4L106.4,24.6L106.9,23.4L112.8,25.5L115,31.2L116,29.6L115.4,24.6Z" fill="#2c2c34" stroke="#474751" stroke-width="0.8"/><path d="M324.5,168.8L324.9,171.2L324.6,172.8L323.6,173.6L324.6,174.9L324.5,176.1L321.8,175.3L319.9,175.6L317.4,175.3L315.4,176.1L313.2,174.8L313.6,173.4L317.4,174L320.5,174.3L322,173.4L320.1,171.5L320.1,169.8L317.5,169.1L318.4,167.9L321,168.1Z" fill="#2c2c34" stroke="#474751" stroke-width="0.8"/><path d="M324.5,176.1L324.6,174.9L323.6,173.6L324.6,172.8L324.9,171.2L324.5,168.8L325,168L328.2,168.1L330.7,169.2L331.8,169.1L332.5,170.6L334.8,170.5L334.6,171.8L336.5,172L338.5,173.6L337,175.4L335,174.4L333.1,174.6L331.8,174.4L331,175.2L329.4,175.5L328.8,174.4L327.4,175L325.8,178L324.7,177.3Z" fill="#2c2c34" stroke="#474751" stroke-width="0.8"/><path d="M294.6,137L296.5,136.7L299.3,136.8L299.4,138L294.9,138.8ZM299.5,135.9L302.7,138L302,141.2L301.3,140.7L301.3,138.3L299.5,136.4ZM297.8,144.3L299.1,144.5L300.5,148.2L300.5,150.9L299.5,151.1L298.5,148.5L297,147.2Z" fill="#2c2c34" stroke="#474751" stroke-width="0.8"/><path d="M351,300L350.5,299.6L350.8,296.8L350.3,295.2L350.8,292L345.4,292.7L343.2,294.3L339.6,296L338.7,297.3L336.6,297.4L333.5,297L331.2,297.7L329.3,297.2L329.6,290.9L326.2,293.3L322.6,293.2L321,291L318.3,290.8L319.2,289L316.9,286.4L315.2,282.7L316.2,281.9L316.2,280.2L318.7,279L318.3,276.7L319.4,275.3L319.7,273.4L324.4,270.6L327.7,269.8L328.3,269.1L332,269.3L333.9,258L334,256.2L333.3,253.9L331.5,252.4L331.5,249.4L333.8,248.7L334.7,249.1L334.8,247.6L332.4,247.1L332.3,244.6L340.3,244.7L341.7,243.2L342.8,244.5L343.7,247L344.4,246.5L346.7,248.6L349.9,248.4L350.7,247.1L353.8,246.1L355.5,245.5L355.9,243.7L358.9,242.6L358.7,241.7L355.2,241.3L354.6,238.7L354.8,236L352.9,234.9L353.7,234.5L356.7,235.1L360,236.1L361.2,235.1L364.2,234.5L368.8,232.9L370.3,231.3L369.7,230.2L371.9,230L372.8,231L372.3,232.8L373.7,233.4L374.6,235.3L373.5,236.8L372.9,240.3L373.9,242.4L374.2,244.3L376.7,246.2L378.8,246.4L379.2,245.6L380.5,245.4L382.4,244.7L383.7,243.6L386,243.9L387,243.8L389.2,244.1L389.6,243.3L388.9,242.5L389.3,241.3L391,241.7L392.9,241.2L395.3,242.1L397.1,242.9L398.4,241.8L399.3,242L399.8,243.2L400,243.1L400,300Z" fill="#2c2c34" stroke="#474751" stroke-width="0.8"/><path d="M335.1,300L333.5,297L333.5,297L336.6,297.4L338.7,297.3L339.6,296L343.2,294.3L345.4,292.7L350.8,292L350.3,295.2L350.8,296.8L350.5,299.6L351,300L335.1,300Z" fill="#2c2c34" stroke="#474751" stroke-width="0.8"/><path d="M301.1,300L298.2,294.6L294.4,286.3L292.7,284.4L291.4,281.3L288.2,278.6L285.2,276.9L286.6,275.1L284.6,271.2L285.9,268.3L289.1,265.7L289.6,267.4L288.5,268.4L288.6,269.9L290.3,269.5L291.9,270L293.7,272.1L296,270.4L296.8,267.6L299.3,264L304.2,262.4L308.7,258.1L310,255.4L309.4,252.2L310.5,251.9L313.3,253.8L314.6,255.8L316.5,256.8L318.9,261.1L322,261.7L324.3,260.6L325.8,261.3L328.2,260.9L331.4,262.8L328.7,267L330,267.1L332,269.3L332,269.3L328.3,269.1L327.7,269.8L324.4,270.6L319.7,273.4L319.4,275.3L318.3,276.7L318.7,279L316.2,280.2L316.2,281.9L315.2,282.7L316.9,286.4L319.2,289L318.3,290.8L321,291L322.6,293.2L326.2,293.3L329.6,290.9L329.3,297.2L331.2,297.7L333.5,297L335.1,300L301.1,300Z" fill="#2c2c34" stroke="#474751" stroke-width="0.8"/><path d="M344.4,246.5L343.7,247L342.8,244.5L341.7,243.2L340.3,244.7L332.3,244.6L332.4,247.1L334.8,247.6L334.7,249.1L333.8,248.7L331.5,249.4L331.5,252.4L333.3,253.9L334,256.2L333.9,258L332,269.3L330,267.1L328.7,267L331.4,262.8L328.2,260.9L325.8,261.3L324.3,260.6L322,261.7L318.9,261.1L316.5,256.8L314.6,255.8L313.3,253.8L310.5,251.9L309.4,252.2L307.7,251.3L305.7,249.9L304.5,250.6L301,250L300,248.2L299.2,248.3L295.1,245.9L294.6,244.7L296.1,244.4L295.9,242.3L296.9,240.8L298.9,240.5L300.6,237.9L302.2,235.8L300.7,234.8L301.5,232.4L300.6,228.6L301.4,227.5L300.8,224L299.1,221.8L299.7,219.8L301,220.1L301.7,218.8L300.8,216.4L301.3,215.8L303.4,215.9L306.5,213L308.2,212.6L308.2,211.2L309,207.6L311.4,205.7L314,205.6L314.3,204.7L317.5,205.1L320.7,203L322.4,202L324.3,200L325.8,200.3L326.9,201.4L326.1,202.8L323.4,203.5L322.4,205.6L320.8,206.8L319.6,208.3L319.1,211.3L318,213.8L320.1,214.1L320.6,216L321.5,216.9L321.8,218.6L321.4,220.1L321.5,221L322.5,221.3L323.5,222.8L328.8,222.4L331.2,222.9L334.1,226.5L335.7,226L338.7,226.2L341.1,225.8L342.5,226.5L341.8,228.7L340.9,230.1L340.5,233.1L341.4,235.8L342.5,237L342.7,238L340.6,240L342.1,240.9L343.2,242.4Z" fill="#2c2c34" stroke="#474751" stroke-width="0.8"/><path d="M301.3,215.8L300.8,216.4L301.7,218.8L301,220.1L299.7,219.8L299.1,221.8L297.7,220.6L296.9,218.4L297.9,217.2L296.8,217L296.1,215.6L294,214.4L292.2,214.7L291.4,216.1L289.7,217.2L288.8,217.3L288.4,218.2L290.4,220.5L289.3,221L288.7,221.6L286.7,221.8L286,219.3L285.5,220L284.1,219.8L283.3,218.1L281.6,217.8L280.5,217.4L278.8,217.4L278.7,218.3L278.2,217.6L278.4,216.8L278.7,216L278.6,215.2L279.2,214.7L278.3,214.1L278.3,212.4L279.9,212L281.4,213.5L281.3,214.4L282.9,214.6L283.3,214.3L284.5,215.3L286.5,215L288.3,213.9L290.7,213.1L292.1,211.9L294.4,212.1L294.3,212.5L296.6,212.7L298.4,213.4L299.7,214.6Z" fill="#2c2c34" stroke="#474751" stroke-width="0.8"/><path d="M279.9,212L278.3,212.4L278.3,214.1L279.2,214.7L278.6,215.2L278.7,216L278.4,216.8L278.2,217.6L275.9,216.7L275.1,215.8L275.6,215.1L275.4,214.2L274.3,213.2L272.7,212.4L271.3,211.8L271,210.6L269.9,209.9L270.2,211.1L269.3,212.1L268.4,210.9L267.1,210.5L266.5,209.7L266.5,208.4L267.1,207.1L265.9,206.5L266.9,205.7L267.5,205.1L270.2,206.2L271.1,205.7L272.5,206.1L273.1,206.9L274.4,207.2L275.3,206.3L276.4,208.6L278,210.3Z" fill="#2c2c34" stroke="#474751" stroke-width="0.8"/><path d="M275.3,206.3L274.4,207.2L273.1,206.9L272.5,206.1L271.1,205.7L270.2,206.2L267.5,205.1L266.9,205.7L265.5,204.4L263.5,202.7L262.6,201.2L260.9,199.9L258.8,198L259.3,197.4L260,198L260.3,197.7L261.5,197.5L262.1,196.5L262.7,196.5L262.6,194.4L263.5,194.3L264.4,194.4L265.3,193.2L266.5,194.1L266.9,193.6L267.7,193.1L269.1,191.9L269.2,191L269.6,191L270.1,190L270.6,189.9L271.2,190.6L272.1,190.8L273,190.2L274,190.2L275.5,189.6L276,189.1L277.4,189.2L277.1,189.6L276.9,190.5L277.3,192.1L276.3,193.5L275.9,195.2L275.8,197.1L276,198.2L276.1,200.1L275.5,200.5L275.1,202.3L275.4,203.4L274.5,204.5L274.7,205.6Z" fill="#2c2c34" stroke="#474751" stroke-width="0.8"/><path d="M277.4,189.2L276,189.1L275.5,189.6L274,190.2L273,190.2L272.1,190.8L271.2,190.6L270.6,189.9L270.1,190L269.6,191L269.2,191L269.1,191.9L267.7,193.1L266.9,193.6L266.5,194.1L265.3,193.2L264.4,194.4L263.5,194.3L262.6,194.4L262.7,196.5L262.1,196.5L261.5,197.5L260.3,197.7L259.6,196.4L258.3,196L258.6,194.3L258,193.8L257.2,193.5L255.4,194L255.2,193.5L254,192.8L253.1,191.9L251.9,191.6L252.7,190.5L252.4,189.7L252.7,188.9L254.6,187.7L256.5,186L257,186.2L257.9,185.4L259,185.4L259.4,185.7L260.1,185.5L262,185.9L263.9,185.8L265.2,185.3L265.7,184.8L267,185.1L268,185.4L269.1,185.3L269.9,184.9L271.8,185.5L272.4,185.6L273.7,186.4L274.8,187.3L276.3,188Z" fill="#2c2c34" stroke="#474751" stroke-width="0.8"/><path d="M251.9,191.6L253.1,191.9L254,192.8L255.2,193.5L255.4,194L257.2,193.5L258,193.8L258.6,194.3L258.3,196L257.8,197L255.5,196.9L254,196.5L252.3,195.7L250,195.4L248.8,194.5L249,193.9L250.4,192.8L251.1,192.4L250.9,191.9Z" fill="#2c2c34" stroke="#474751" stroke-width="0.8"/><path d="M240,191.1L240.1,189.9L240.6,188.9L240,188.1L242,184.6L247.3,184.6L247.4,183.1L246.7,182.8L246.3,181.9L244.8,180.9L243.2,179.5L245.1,179.5L245.1,177L248.9,177L252.7,177.1L252.7,180.5L252.4,185.3L253.6,185.3L255,186.1L255.3,185.5L256.5,186L254.6,187.7L252.7,188.9L252.4,189.7L252.7,190.5L251.9,191.6L250.9,191.9L251.1,192.4L250.4,192.8L249,193.9L248.8,194.5L246.7,193.8L244.1,193.7L242.3,192.9Z" fill="#2c2c34" stroke="#474751" stroke-width="0.8"/><path d="M252.7,177.1L252.7,176.4L253.2,176.2L254,176.8L255.4,174.1L256.2,174.1L256.2,174.7L257,174.7L256.9,175.9L256.3,177.8L256.6,178.5L256.2,180L256.5,180.4L256,182.6L255.2,183.7L254.4,183.9L253.6,185.3L252.4,185.3L252.7,180.5Z" fill="#2c2c34" stroke="#474751" stroke-width="0.8"/><path d="M369.7,230.2L370.3,231.3L368.8,232.9L364.2,234.5L361.2,235.1L360,236.1L356.7,235.1L353.7,234.5L352.9,234.9L354.8,236L354.6,238.7L355.2,241.3L358.7,241.7L358.9,242.6L355.9,243.7L355.5,245.5L353.8,246.1L350.7,247.1L349.9,248.4L346.7,248.6L344.4,246.5L343.2,242.4L342.1,240.9L340.6,240L342.7,238L342.5,237L341.4,235.8L340.5,233.1L340.9,230.1L341.8,228.7L342.5,226.5L341.1,225.8L338.7,226.2L335.7,226L334.1,226.5L331.2,222.9L328.8,222.4L323.5,222.8L322.5,221.3L321.5,221L321.4,220.1L321.8,218.6L321.5,216.9L320.6,216L320.1,214.1L318,213.8L319.1,211.3L319.6,208.3L320.8,206.8L322.4,205.6L323.4,203.5L326.1,202.8L326,203.8L323.5,204.3L324.9,206.2L324.9,208.4L323,210.8L324.6,214.1L326.4,213.8L327.3,210.8L326,209.3L325.8,206.2L330.9,204.5L330.4,202.5L331.8,201.2L333.3,204.1L336.2,204.2L338.8,206.5L339,207.9L342.7,208L347.1,207.5L349.5,209.4L352.6,209.9L354.9,208.6L355,207.5L360.1,207.3L365,207.2L361.5,208.5L362.9,210.5L366.2,210.8L369.3,212.8L370,216.2L372.1,216.1L373.7,217L370.5,219.5L370.1,221L371.5,222.5L370.5,223.3L368,224L368.1,225.9L366.9,227Z" fill="#2c2c34" stroke="#474751" stroke-width="0.8"/><path d="M387,243.8L386,243.9L383.7,243.6L382.4,244.7L380.5,245.4L379.2,245.6L378.8,246.4L376.7,246.2L374.2,244.3L373.9,242.4L372.9,240.3L373.5,236.8L374.6,235.3L373.7,233.4L372.3,232.8L372.8,231L371.9,230L369.7,230.2L366.9,227L368.1,225.9L368,224L370.5,223.3L371.5,222.5L370.1,221L370.5,219.5L373.7,217L376.5,218.6L379,221.3L379.1,223.4L380.7,223.5L382.9,225.5L384.5,227L383.8,230.7L381.3,231.8L381.6,232.8L380.8,234.9L382.6,237.9L383.9,237.9L384.5,240.2Z" fill="#2c2c34" stroke="#474751" stroke-width="0.8"/><path d="M395.3,242.1L392.9,241.2L391,241.7L389.3,241.3L388.9,242.5L389.6,243.3L389.2,244.1L387,243.8L384.5,240.2L383.9,237.9L382.6,237.9L380.8,234.9L381.6,232.8L381.3,231.8L383.8,230.7L384.5,227L389.4,227.8L389.9,227.1L393.2,226.8L397.6,227.9L395.5,231.4L395.8,234.3L397.4,236.7L396.7,238.5L396.4,240.4Z" fill="#2c2c34" stroke="#474751" stroke-width="0.8"/><path d="M400,243.1L399.8,243.2L399.3,242L398.4,241.8L397.1,242.9L395.3,242.1L396.4,240.4L396.7,238.5L397.4,236.7L395.8,234.3L395.5,231.4L397.6,227.9L399,228.3L400,228.6L400,243.1Z" fill="#2c2c34" stroke="#474751" stroke-width="0.8"/><path d="M309.4,252.2L310,255.4L308.7,258.1L304.2,262.4L299.3,264L296.8,267.6L296,270.4L293.7,272.1L291.9,270L290.3,269.5L288.6,269.9L288.5,268.4L289.6,267.4L289.1,265.7L291.3,262.6L290.4,260.8L288.9,262.7L286.4,260.9L287.2,259.7L286.5,256L288,255.4L288.8,252.8L290.3,250.1L290,248.5L292.3,247.6L295.1,245.9L299.2,248.3L300,248.2L301,250L304.5,250.6L305.7,249.9L307.7,251.3Z" fill="#2c2c34" stroke="#474751" stroke-width="0.8"/><path d="M346.9,174L349,174.4L349.7,175.3L348.7,176.4L345.6,176.3L343.2,176.5L342.9,174.6L343.5,174Z" fill="#2c2c34" stroke="#474751" stroke-width="0.8"/><path d="M300.4,174.1L303.2,174.5L305.4,175.6L306,176.7L303.1,176.8L301.9,177.5L299.6,176.8L297.2,175.3L297.7,174.3L299.5,174Z" fill="#2c2c34" stroke="#474751" stroke-width="0.8"/><path d="M281,153.4L284.6,153.7L287.9,153.8L291.7,155.3L293.4,156.9L297.2,156.4L298.7,157.5L302.1,160.2L304.7,162.2L306.1,162.2L308.5,163.1L308.2,164.3L311.3,164.5L314.4,166.3L313.9,167.3L311.1,167.9L308.4,168.1L305.5,167.7L299.6,168.2L302.4,165.7L300.7,164.6L298.1,164.3L296.6,163L295.7,160.5L293.3,160.7L289.5,159.5L288.3,158.6L282.9,157.9L281.5,157L283,155.9L279,155.7L276,158L274.3,158L273.7,159.1L271.7,159.6L269.9,159.2L272.1,157.8L273,156.2L274.8,155.2L276.9,154.3L280.1,153.9Z" fill="#2c2c34" stroke="#474751" stroke-width="0.8"/><path d="M365.8,207.1L368.2,206.5L369.1,206.7L368.9,209.8L365.5,210.2L364.7,209.9L365.9,208.7Z" fill="#2c2c34" stroke="#474751" stroke-width="0.8"/><path d="M137.5,109.8L138.7,109.7L139.9,109.6L141,109.5L142.2,109.4L143.4,109.3L144.6,109.2L145.8,109.1L146.9,109L147.4,108.9L147.1,109.7L146.9,109.9L148.9,110.7L150.8,111.4L152.8,112.1L154.8,112.8L156.7,113.5L158.7,114.3L160.6,115L162.6,115.7L164,115.7L165.5,115.7L166.9,115.7L168.4,115.7L169.8,115.7L171.3,115.7L172.8,115.7L174.2,115.7L174.2,115.1L174.2,114.6L174.2,114L174.2,113.5L175.1,113.5L176,113.5L176.9,113.5L177.8,113.5L178.7,113.5L179.6,113.5L180.6,113.5L181.5,113.5L181.5,113.5L181.5,113.6L181.9,114L182.3,114.6L182.7,115.1L183.2,115.3L184.1,116.1L185.3,117.3L186.3,118.2L187,118.6L187.5,118.9L187.8,119.2L188.1,119.9L188.8,121.4L188.8,122.1L189,122.7L189.5,123.6L189.9,124L190.3,124.2L190.7,124.5L191.1,124.9L191.6,125.2L192.2,125.4L192.9,125.8L193.9,126.4L194.6,126.8L195,126.8L195.3,126.6L195.6,126.1L195.9,125.9L196.1,125.7L196.2,125.5L196.2,125.3L196.4,124.7L196.8,123.7L197.3,123.2L197.8,123.1L198.2,122.9L198.4,122.7L198.7,122.6L199.1,122.9L199.8,123L200.8,123.1L201.4,123L201.6,122.9L201.7,122.9L201.7,123.1L201.8,123.1L202.1,123.1L202.4,123.2L202.7,123.8L203.8,124.6L203.9,124.9L204.2,125.3L204.9,125.9L205.3,126.4L205.4,126.9L205.8,127.6L206.4,128.6L206.7,129.1L206.6,129.2L206.7,129.4L206.8,129.9L207.1,130.3L207.6,130.6L208,131.2L208.5,132.1L209,132.7L209.7,133.1L210.1,133.5L210.2,133.9L210.2,134.2L210.1,134.5L210.1,134.8L210.3,135L210.3,135.3L210.3,135.7L210.3,135.8L210.3,135.9L210.9,136.6L211.2,137.2L211.4,138.1L211.4,138.1L211.7,138.6L212.1,138.9L212.7,138.9L213.1,139.1L213.4,139.4L213.8,139.6L214.3,139.7L214.7,139.8L215.1,140.2L215.9,140.4L217.1,140.5L218,140.8L218.6,141.2L218.8,141.3L218.9,141.3L218.9,141.2L219,141.1L219.2,141L219.8,140.9L219.7,141.8L219.5,142.6L218.6,144.2L218.3,145.2L217.6,148L217.4,149.9L217.4,150.7L217.3,150.8L217.4,151L217.2,152.9L217.3,154.5L217.3,154.8L217,155.3L216.9,155.9L216.9,156.2L216.9,156.5L217.2,157.5L217.2,158.3L218,159.6L218.4,160L218.9,160.4L219.1,160.7L219,161.2L218.8,161.5L218.7,161.9L218.6,161.6L218.6,161.1L218.8,160.8L218.8,160.6L218.5,160.4L218,159.8L217.3,158.6L217.8,160.5L217.9,160.8L218.1,160.9L218.3,161L218.3,161.2L218.3,161.4L218.9,162.7L219.6,164L219.6,164.4L219.9,164.8L221.6,166.7L222.6,168.1L223,169.4L223.2,169.8L223.3,170.4L224,171L224.2,171.5L224.6,171.7L224.9,172.4L225.4,172.8L225.3,172.8L224.8,172.6L224.8,172.7L225.2,173L226,173.3L226.2,173.3L225.9,173.1L225.7,172.9L225.8,172.9L226.3,173.1L227.9,173.2L228.6,173.8L229.5,174L229.9,174.7L230.5,175.5L230.9,175.5L231.1,175.5L232,175.4L233.3,174.9L233.7,174.7L234.6,174.4L235.9,174.3L236.3,174.4L237.3,174.2L237.8,174L238,173.8L238.1,173.6L239,173.4L239.2,173.3L240.1,173.3L240.6,173.2L241.1,173.1L241.5,173.5L241.5,173.6L241.2,173.8L241.3,174L241.8,174.2L242.6,174.3L242.9,174.3L243.3,173.9L244,173.5L244,173.1L243.8,172.9L243.6,172.9L243.6,172.8L243.7,172.4L243.7,172.3L243.3,172.6L243.2,172.6L243.2,172.5L243.3,172.4L244.5,171.7L244.9,171.5L245.3,171.2L246.2,170.4L246.4,168.7L246.5,168.4L247.1,167.9L247.2,167.8L247.2,167.4L247.2,166.6L247.2,165.9L247.2,165.1L247.3,164.4L247.4,164.2L247.8,163.1L248.5,162.6L249.7,162L250,161.9L253.8,161.3L254.4,161.2L255,160.8L255.5,160.6L256.4,160.6L256.7,160.6L256.7,160.5L256.7,160.5L256.9,160.4L257.4,160.5L258.4,160.7L258.7,160.8L259.6,161.1L260.5,161.2L260.7,161.1L260.8,161L260.9,160.9L260.8,160.7L260.7,160.7L260.5,160.8L260.4,160.8L260,160.7L260.1,160.6L260.4,160.6L260.7,160.6L261,160.4L261.4,160.5L261.9,161.1L262.3,161.3L262.3,162.1L262.4,162.3L262.5,162.5L262.3,163.1L262.1,163.7L261.9,164.1L261.3,164.8L260.7,165.3L259.8,166.5L259.6,167.1L259.7,167.5L259.8,168L259.7,168.1L259.7,168.3L259.5,168.3L259.2,168.5L258.7,169.1L258.7,169.3L258.9,169.5L259.2,169.4L259.5,169.4L259.6,169.4L259.8,169.4L259.8,169.7L259.6,170L259.5,170.1L259.2,170.1L259,170.2L258.9,170.4L258.9,170.8L259,170.8L259.3,170.5L259.5,170.5L259.5,170.7L259.1,171.7L258.9,172.8L258.5,173.4L258.4,174.3L258.3,174.7L258.1,175.1L257.9,175.1L257.6,174.3L257.3,174.2L257.2,174L257.4,173.1L257.3,172.6L257.1,172.6L256.9,172.9L256.6,173.1L256.6,173.5L256.3,174L256.2,174.2L255.9,174.2L255.5,174.2L255.3,174.3L255,175L254.4,175.9L254.1,176.4L253.9,176.6L253.8,176.6L253.6,176.5L253.1,176.3L252.8,176.4L252.7,176.7L252.7,177.1L251.8,177.1L250.3,177.1L248.5,177.1L246.7,177.1L245.1,177L245.1,177.9L245.1,178.6L245.1,179.5L244.3,179.5L243.4,179.5L243.5,179.6L243.8,179.7L244.2,180.1L244.6,180.7L245.2,181.1L245.9,181.5L246.3,181.8L246.5,182.2L246.6,182.4L246.6,182.7L246.8,182.9L247.3,183L247.5,183.2L247.5,183.4L247.4,183.7L247.3,184.2L247.4,184.6L247.1,184.6L246.3,184.6L245.2,184.6L244.1,184.6L243.3,184.6L242.1,184.6L241.7,185.2L241.2,186.1L240.6,187L240.2,187.8L240.1,188L240.1,188.1L240.7,188.8L240.6,189L240.4,189.1L240.3,189.3L240.3,189.6L240.2,189.9L240.2,190.2L240.3,190.5L240.2,190.7L240.1,191L240,191.1L239.9,191L238.8,189.8L237.6,188.5L237.2,188.1L236.8,187.8L236.2,187.2L234.6,185.9L233.8,185.3L233.1,184.6L232.4,184.2L231.8,184L231.5,183.8L231.2,183.6L231.1,183.6L231,183.9L231.2,184L231.5,184.1L231.7,184.1L231.9,184.2L232.6,184.6L232.7,184.8L230.8,184.1L230,184L229.9,183.9L230.3,183.5L230.2,183.4L230.1,183.4L229.6,183.6L229.5,183.6L229.5,183.5L229.5,183.3L229.2,183.1L229,183.1L228.9,183.2L228.5,183.5L228.5,183.7L229.3,183.8L229.5,183.9L229.5,184L228.8,184L228.1,184.1L226.7,185L225.4,185.3L223.6,186.2L222.8,186.2L222.4,186.4L221.2,186L219.6,185.3L217.3,185L215.7,184L214.1,183.6L213.1,182.6L212.5,182.5L212.1,182.4L210.7,182L209.3,181.8L207.9,180.9L207,180.6L206.3,180.3L204.6,179.7L203.9,179.4L203.3,178.9L202.3,178.4L201.9,177.9L201.4,177.8L200.8,176.9L200.4,176.6L200.1,176.4L199.8,176.4L198.9,176.4L197.6,176.1L196.9,176L195.6,175.4L193.9,174.8L193.3,174.2L192.8,173.5L191.9,172.7L191.4,172.3L190.4,171.9L189.9,171.5L189.1,171.2L187.7,170.6L187.3,170L187,169.5L186.3,168.8L185.5,167.6L185.3,167.2L185.1,166.5L184.9,166.2L184.7,165.9L184.8,165.6L185.2,165.4L185.9,165.3L186.4,165L186.4,164.8L186.4,164.6L186.1,164.2L185.7,164.1L185.4,164.1L185.3,164L185.6,163.8L185.8,163.5L186.2,163L186.5,162.6L186.5,162L186.5,161.5L186.6,161L185.7,160.4L185.6,160.2L185.3,159.5L184.8,158.8L184.8,157.3L184.2,155.9L183.6,155.3L183.2,155L182.4,154L181.7,153.4L181,152.3L180.3,151.5L179.5,150.3L178.9,149.7L176.1,147.6L176.2,147.6L177,148.1L177.2,148.1L177.2,147.9L177.1,147.6L176.9,147.5L176.7,147.6L176.4,147.5L176.3,147.4L175.9,147.3L175.3,147L175.1,146.6L175,146.2L174.2,145.4L173.9,144.9L174.1,144.9L174.3,145.1L174.5,145.2L174.8,145.2L174.9,145.1L174.9,144.9L174.7,144.8L173.6,144.4L173.2,144L172.2,143.5L172,143.3L171.8,142.8L171.6,142.8L171.4,142.9L170.9,143.1L170.7,142.9L170.7,142.7L171.1,142.6L171.4,142.1L171.4,141.9L171.2,142.1L170.9,142.3L170.6,142.4L170.2,142.5L169.9,142.5L169.7,142.4L169.4,141.9L169.2,140.5L169.5,140.1L169.9,139.6L170.2,139.3L170.3,139.5L170.5,139.5L170.4,139.3L170.1,139.1L170,138.8L170,138.6L169.8,138.2L169,137.4L168.2,137.5L167.9,137.5L167.6,137.1L167.3,136.6L167.2,136.2L167.2,136L167.1,135.7L165.7,135.3L165.3,135L164.9,134.6L164.7,134.3L164.6,134L164.4,133.6L164.3,133.1L164.5,132.4L164.7,132.1L163.7,131.8L163.4,131.8L163.1,132L162.8,131.8L162.2,131.6L161.6,130.9L160.8,129.6L159.9,129.2L159.7,128.8L159.3,128.4L159,127.9L159,127.7L158.9,127.6L158.4,127.2L158,126.7L157.8,126.2L157.7,125.5L157.4,125.2L157.1,125.1L157,124.8L157,124.6L156.9,124.2L156.3,123.4L155.9,122.6L155.7,122.4L155.6,122.1L155.5,121.4L155.2,120.6L154.7,119.6L154.3,118.9L154,118.2L154.1,117.5L154.1,117.1L154,117L154.1,116.9L154.2,116.9L154.3,116.8L154.3,116.4L154.2,116.2L153.7,116.1L153.6,116L152.5,115.8L151.9,115.6L151.9,115L151.6,114.7L151.4,114.6L150.6,114.2L150.5,114.4L150.4,114.7L150.1,114.8L149.8,114.8L149.3,114.6L148.1,113.7L147.9,113.6L147.5,113.5L147.3,113.4L146.5,112.9L146.7,113.1L146.9,113.4L147.1,114.1L146.9,114.6L146.8,116.5L146.9,116.9L147.3,117.4L147.5,118.4L147.6,119.1L147.8,119.6L147.7,120.9L147.8,121.3L148.1,121.9L148.7,122.5L148.9,122.8L149.6,123.3L150.1,123.9L151.1,124.7L151.4,125L152.3,126.3L152.3,126.6L152.4,127.1L152.9,127L153.2,127.3L153.1,127.5L153.2,127.6L153.4,127.6L153.7,127.7L154.1,129.1L154.4,129.2L154.7,129.3L155,129.5L155.1,129.8L155,130.1L155.3,130.5L155.3,131L155.5,131.5L155.5,131.9L155.6,132.3L156.3,133L157.3,133.7L157.5,134.5L157.8,135.2L158.2,135.4L158.6,135.7L158.6,136L158.6,136.2L159.1,136.8L159.2,137.6L159.6,138.1L159.8,138.1L159.9,138L159.5,137.5L159.4,137.2L159.4,136.7L159.5,136.6L160.4,137.4L160.5,138L160.8,138.4L160.8,138.8L161,139.1L161.1,139.5L161.4,140.1L161.4,141L161.5,141.6L162.1,142.6L162.6,142.8L162.7,143.3L163.2,144.6L163.7,145.3L164,145.8L164.1,146.2L163.9,146.7L163.8,147.1L164.1,148.2L164.6,148.8L165.1,148.9L165.2,149L165.2,149.2L165.3,149.3L165.5,149.1L165.6,148.9L165.5,148.6L165.5,148.4L165.6,148.2L165.8,148.2L166.8,149L166.9,149.3L167.3,149.6L167.6,150L167.8,150.4L168.1,150.7L168.2,151.3L168.9,151.6L169.2,152.1L169.3,152.4L169.1,153.3L168.9,153.5L168.4,153.9L168,154.3L167.6,154.6L167.2,154.8L166.8,154.7L166.5,154.2L166.1,152.7L165.8,152.4L165.7,151.9L165.4,151.5L164.3,151L163.7,150.3L163.2,149.9L162.6,149.3L161,148.3L160.4,147.8L159.9,147.3L159.6,147.3L159.4,147.3L159.4,147.2L159.3,146.9L159.2,146.7L158.3,146L158.1,145.5L158.1,145.1L158.3,143.8L158.4,143L158.3,142.6L158.2,142.6L158.2,142.4L158.1,141.8L157.9,141.1L157.1,139.7L156.5,139.4L155.9,139.2L154.4,138L154,137.4L153.9,137L153.9,136.3L153.7,136.7L153.4,137L152.8,137L152,137.4L151.6,137L151.4,136.7L151,136.2L150.6,136.2L150.4,136.1L149.9,135.6L149.6,135.4L149,135.3L148.5,135.1L148.4,134.8L148.3,134.3L148.2,134.1L147.4,133.6L146.9,133L146.3,132.7L146.1,132.4L146.1,132.2L147,132.2L148,132.4L148.5,132.4L148.9,132.2L149.2,132L149.2,132.2L149.1,132.5L149.4,132.8L149.8,133L150.1,132.9L149.8,132.7L149.7,132.2L149.7,132.1L149.7,131.8L149.3,131.9L149.3,131.7L149.6,131.4L150,130.4L150.2,129.4L149.8,128.6L149.1,128L147.7,126.3L146.8,125.4L146.5,125.1L146.3,124.9L145.6,124.7L145,124.2L143.9,123.5L143.5,123.2L143.2,122.3L142.9,122.2L143,121.6L142.9,120.6L142.7,120.3L142.2,120.1L142,119.3L142,118.7L141.9,118.2L140.9,117.4L140.9,117L140.9,116.6L140.8,116.3L140.3,115.5L139.6,114.8L139.4,114.5L139.4,113.9L139.2,113.7L139.3,113.7L139.5,113.7L139.6,113.6L139.6,113.1L138.7,112.4L138.4,111.4L137.9,110.9L137.8,110.7ZM261.8,166.2L261.6,166.3L261.5,165.9L261.7,165.4L261.9,165.1L262.3,165.1L262.5,165L262.6,165.1L262.4,165.5ZM181.3,160.4L181.1,160.8L180.8,160.7L180.7,160.4L180.7,160.1L180.9,160L181.1,160.2L181.2,160.3ZM163.1,173L162.8,173.1L162.5,172.9L162.6,172.7L162.8,172.5L163,172.8ZM164.5,145.2L164.6,145.7L164.4,145.7L164.2,145.4L164,145L164,144.9L164,144.8L164.4,145.1ZM153.9,126.5L153.8,126.6L153.4,126.3L152.5,125.3L152.1,124.8L152.1,124.6L152.1,124L152.4,124.1L152.8,124.5L153,124.8L153,125.2L153.7,125.3L153.8,126.1ZM145.6,131.1L145.5,131.3L144.8,131L145.2,130.4L145.1,129.8L145.3,129.7L145.5,129.9L145.7,130.6ZM157.8,126.7L157.5,127.8L157.2,127.8L156.5,127.5L156.4,127.2L156.7,126L156.9,125.8L157.5,125.6L157.5,125.8L157.6,126.2ZM132.9,127L132.7,127.2L132.3,126.2L132.3,126L132.4,125.9L132.6,125.9L132.6,126.1L132.8,126.4L132.9,126.5ZM262.8,162.1L262.8,162.3L262.8,162.3L262.6,162.1L262.6,161.9L262.6,161.9L262.7,162ZM242.3,173.3L241.8,173.4L241.7,173.3L242.7,172.9L242.8,172.9L242.9,173L242.4,173.2ZM167.7,149.1L167.6,149.1L167.4,148.9L167.3,148.3L167.3,148.2L167.7,148.9L167.7,149ZM147.5,113.8L147.4,113.9L147.1,113.6L147.2,113.4L147.2,113.4L147.5,113.6L147.6,113.7ZM162.3,140.6L162.4,140.8L162.3,140.8L162.2,140.7L161.9,141.4L161.8,141.4L162,140.5L162.2,140.4L162.4,140.3ZM159.9,148L159.8,148.2L158.6,147.4L158.9,147.3L159.2,147.3ZM158.4,147.3L158.3,147.4L157.9,146.8L157.9,146.5L157.8,146.3L157.4,146.2L157.7,145.5L158,143.9L158.1,144.2L157.8,145.8L157.8,146L157.9,146.2L158.1,146.5L158.1,146.8L158.3,147.1Z" fill="#b8e653" stroke="#0c0e06" stroke-width="1"/></svg>
