<svg xmlns="http://www.w3.org/2000/svg" viewBox="0 0 300 300"><path fill="#e8e8ea" d="M20,66.4L22.5,66.2L24.9,66L27.4,65.8L29.8,65.6L32.3,65.3L34.7,65.1L37.2,64.9L39.6,64.7L40.6,64.6L40,66.1L39.6,66.7L43.7,68.2L47.8,69.7L51.8,71.2L55.9,72.7L60,74.2L64,75.6L68.1,77.1L72.1,78.6L75.2,78.6L78.2,78.6L81.2,78.6L84.3,78.6L87.3,78.6L90.3,78.6L93.3,78.6L96.3,78.6L96.3,77.4L96.4,76.3L96.4,75.2L96.4,74L98.3,74.1L100.1,74.1L102,74.1L103.9,74.1L105.8,74.1L107.7,74.1L109.5,74.1L111.4,74.1L111.5,74.2L111.6,74.2L112.4,75.1L113.1,76.4L114,77.4L115.1,77.9L116.9,79.4L119.5,82.1L121.5,83.8L123.1,84.6L124.1,85.4L124.6,86L125.3,87.4L126.6,90.5L126.6,91.9L127.1,93.2L128.1,95L129,96L129.8,96.3L130.6,96.9L131.5,97.9L132.5,98.5L133.7,98.8L135.3,99.6L137.4,101L138.8,101.6L139.6,101.7L140.3,101.2L140.8,100.3L141.4,99.8L142,99.5L142.2,99.1L142.1,98.6L142.4,97.3L143.3,95.3L144.3,94.3L145.5,94.1L146.3,93.7L146.6,93.1L147.3,93.1L148.2,93.5L149.7,93.8L151.7,94L152.9,93.9L153.3,93.7L153.5,93.7L153.5,93.9L153.8,94L154.4,94L154.9,94.4L155.6,95.4L157.8,97.1L158,97.7L158.8,98.6L160.2,99.9L161.1,101L161.3,101.9L162,103.4L163.3,105.4L163.9,106.5L163.7,106.7L163.8,107.2L164.2,108.2L164.8,109L165.8,109.7L166.7,110.9L167.7,112.7L168.8,114L170.2,114.9L170.9,115.8L171.1,116.5L171.1,117.2L170.9,117.8L171,118.3L171.4,118.8L171.5,119.4L171.4,120.3L171.4,120.5L171.5,120.7L172.7,122.2L173.3,123.3L173.8,125.2L173.8,125.2L174.4,126.4L175.2,126.8L176.4,127L177.3,127.4L177.9,128L178.7,128.3L179.7,128.5L180.6,128.9L181.5,129.6L183.1,130L185.6,130.2L187.4,130.8L188.6,131.7L189.2,131.8L189.3,131.9L189.4,131.7L189.5,131.5L190,131.2L191.2,131L191,133L190.5,134.6L188.8,137.9L188.1,140L186.7,145.9L186.3,149.7L186.2,151.5L186,151.8L186.2,152L185.9,156L186,159.4L185.9,159.9L185.4,160.9L185.1,162.4L185.2,163L185.2,163.4L185.7,165.6L185.9,167.2L187.4,169.9L188.3,170.9L189.3,171.7L189.7,172.2L189.5,173.3L189.1,173.9L188.9,174.8L188.7,174.1L188.8,173.1L189.1,172.5L189.1,172.1L188.5,171.7L187.3,170.3L186,167.9L186.9,171.8L187.3,172.4L187.6,172.7L188,172.9L188.1,173.4L188.1,173.7L189.3,176.4L190.7,179.2L190.8,179.9L191.4,180.9L194.9,184.8L197.1,187.7L197.8,190.4L198.3,191.3L198.5,192.5L199.9,193.8L200.4,194.6L201.1,195.1L201.7,196.5L202.9,197.3L202.6,197.4L201.6,196.9L201.6,197.2L202.5,197.8L204.2,198.4L204.6,198.4L203.9,198.1L203.4,197.7L203.6,197.6L204.7,198.1L208,198.3L209.4,199.5L211.3,200L212.3,201.5L213.4,203L214.2,203.1L214.8,203.1L216.5,202.8L219.2,201.9L220.1,201.4L221.9,200.7L224.7,200.6L225.6,200.8L227.6,200.4L228.7,199.9L229,199.4L229.2,199.1L231.1,198.6L231.5,198.5L233.4,198.4L234.4,198.2L235.4,198.1L236.2,198.8L236.2,199.2L235.7,199.5L236,199.8L236.9,200.4L238.7,200.6L239.2,200.5L240,199.7L241.5,199L241.4,198.1L241.1,197.6L240.7,197.6L240.7,197.3L240.9,196.7L240.9,196.5L240,197.1L239.8,197.1L239.9,196.8L240.1,196.6L242.6,195.2L243.3,194.7L244.2,194.2L246,192.4L246.4,188.9L246.8,188.3L248,187.3L248.1,187L248.2,186.3L248.2,184.4L248.3,183L248.2,181.4L248.4,180L248.6,179.6L249.4,177.3L250.8,176.2L253.3,175L253.9,174.8L262,173.5L263.1,173.2L264.5,172.4L265.5,172.1L267.4,172.1L267.9,172L268,171.9L268,171.8L268.4,171.7L269.4,171.8L271.4,172.3L272.2,172.4L274,173L275.9,173.2L276.2,173.1L276.5,173L276.6,172.6L276.5,172.3L276.3,172.3L275.9,172.5L275.5,172.5L274.8,172.3L274.9,172.1L275.7,172.1L276.2,172L276.9,171.6L277.7,171.9L278.8,173.1L279.6,173.5L279.6,175.2L279.8,175.5L280,176L279.6,177.3L279.2,178.4L278.7,179.3L277.6,180.7L276.2,181.8L274.5,184.4L274,185.6L274.1,186.5L274.4,187.4L274.3,187.7L274.1,188.1L273.7,188.1L273,188.5L272.2,189.8L272.1,190.2L272.5,190.6L273,190.4L273.7,190.4L274,190.3L274.4,190.3L274.3,191L273.9,191.5L273.7,191.7L273.2,191.8L272.7,192.1L272.4,192.4L272.4,193.2L272.7,193.3L273.3,192.7L273.7,192.7L273.8,193L273,195.2L272.5,197.4L271.8,198.7L271.5,200.6L271.2,201.4L270.8,202.2L270.5,202.1L269.9,200.6L269.1,200.2L269,199.9L269.4,198L269.2,197L268.9,197.1L268.4,197.6L267.8,198.1L267.8,198.8L267.1,200L267,200.3L266.3,200.3L265.5,200.3L265,200.6L264.5,202L263.1,204L262.6,204.9L262.1,205.2L261.8,205.4L261.4,205.1L260.5,204.6L259.8,204.9L259.5,205.5L259.6,206.3L257.7,206.3L254.7,206.3L250.8,206.3L247,206.3L243.9,206.2L243.9,208L243.9,209.6L243.9,211.3L242.1,211.3L240.3,211.3L240.4,211.5L241.1,211.8L241.9,212.6L242.8,213.8L244,214.8L245.4,215.5L246.3,216.2L246.7,216.9L246.9,217.5L246.9,218L247.4,218.3L248.3,218.6L248.8,219L248.8,219.4L248.5,220.2L248.4,221.1L248.5,221.9L247.9,221.9L246.3,221.9L244,221.9L241.8,221.9L240.1,221.9L237.5,221.9L236.8,223.1L235.6,225.2L234.5,227L233.6,228.6L233.5,229L233.5,229.3L234.6,230.7L234.4,231.2L234,231.4L233.9,231.7L233.9,232.3L233.6,233L233.7,233.5L233.9,234.1L233.6,234.7L233.4,235.2L233.2,235.4L233,235.2L230.7,232.8L228.3,230.2L227.4,229.3L226.5,228.7L225.2,227.4L222,224.7L220.4,223.5L218.8,222L217.4,221.2L216,220.7L215.4,220.4L214.9,220L214.6,220L214.4,220.5L214.9,220.8L215.5,221L216,221L216.4,221.2L217.9,222L218.1,222.4L214.1,220.8L212.4,220.7L212.3,220.5L213.1,219.7L212.8,219.4L212.5,219.4L211.7,219.9L211.3,220L211.3,219.6L211.3,219.3L210.7,218.8L210.4,218.8L210.1,219.1L209.3,219.8L209.4,220L210.9,220.3L211.4,220.5L211.3,220.6L210,220.6L208.4,220.9L205.6,222.7L202.9,223.5L199.2,225.3L197.5,225.3L196.6,225.6L194.1,224.9L190.8,223.3L186,222.8L182.7,220.7L179.4,219.8L177.3,217.8L176.1,217.7L175.3,217.3L172.3,216.6L169.4,216.1L166.5,214.3L164.6,213.7L163,213L159.5,211.8L158.1,211.1L156.9,210.1L154.8,209L154,208.1L153,207.7L151.6,206L150.9,205.3L150.3,205L149.6,204.8L147.7,205L144.9,204.2L143.6,204L140.9,202.9L137.2,201.7L136,200.2L135,198.9L133.2,197.1L132.1,196.4L130.1,195.5L129,194.7L127.3,194.2L124.4,192.8L123.5,191.5L123,190.5L121.4,189.2L119.8,186.7L119.3,185.8L119,184.4L118.6,183.6L118.1,183L118.4,182.5L119.2,181.9L120.6,181.8L121.7,181.2L121.8,180.7L121.7,180.4L121.1,179.6L120.3,179.4L119.7,179.4L119.5,179.1L120,178.8L120.5,178L121.3,177.1L121.8,176.2L122,175.1L121.9,173.8L122.1,172.8L120.2,171.6L120,171.2L119.4,169.8L118.3,168.2L118.4,165.1L117.1,162.3L115.8,160.9L115.1,160.5L113.3,158.3L111.9,157L110.5,154.7L109.1,153.2L107.3,150.6L106,149.4L100.2,145.1L100.5,145.1L102.2,146.1L102.5,146.1L102.6,145.5L102.4,144.9L102.1,144.8L101.6,144.9L101,144.8L100.7,144.6L99.8,144.5L98.6,143.7L98.1,143L98.1,142.2L96.4,140.3L95.8,139.3L96.1,139.4L96.5,139.8L97,139.9L97.5,139.9L97.9,139.8L97.8,139.5L97.4,139.2L95,138.3L94.2,137.6L92.2,136.5L91.8,136.1L91.4,135L91,135L90.6,135.3L89.4,135.6L89.1,135.2L89,134.9L89.9,134.5L90.6,133.5L90.6,133.2L90.2,133.6L89.6,134L88.9,134.3L87.9,134.5L87.4,134.3L87,134.1L86.3,133.2L86,130.3L86.6,129.3L87.3,128.3L87.9,127.7L88.3,128.2L88.6,128.2L88.4,127.7L87.8,127.2L87.6,126.8L87.5,126.3L87.3,125.5L85.5,123.8L83.8,124L83.2,123.9L82.5,123.3L82,122.2L81.7,121.3L81.7,120.8L81.5,120.3L78.7,119.5L77.8,118.8L77,118L76.6,117.2L76.3,116.7L76,115.8L75.8,114.8L76.1,113.4L76.5,112.7L74.5,112.2L73.8,112.2L73.2,112.5L72.6,112.1L71.5,111.7L70.1,110.3L68.4,107.7L66.7,106.8L66.1,105.9L65.4,105.1L64.7,104.1L64.6,103.6L64.4,103.4L63.5,102.7L62.6,101.5L62.3,100.5L62,99L61.4,98.5L60.7,98.2L60.5,97.5L60.6,97.1L60.4,96.4L59,94.6L58.3,93.1L58,92.6L57.6,92L57.4,90.6L56.9,88.8L55.8,86.8L54.9,85.3L54.4,83.9L54.6,82.5L54.5,81.6L54.4,81.4L54.4,81.1L54.8,81.3L55,81L55,80.1L54.7,79.8L53.8,79.5L53.4,79.3L51.2,78.9L50,78.4L49.9,77.2L49.4,76.6L48.9,76.3L47.3,75.6L47,75.9L46.8,76.6L46.1,76.7L45.5,76.8L44.5,76.3L42.1,74.5L41.6,74.2L40.8,74.1L40.4,73.8L38.8,72.8L39.1,73.3L39.6,73.8L40,75.4L39.5,76.5L39.2,80.3L39.6,81.1L40.3,82.3L40.8,84.2L40.9,85.6L41.4,86.8L41.2,89.4L41.4,90.3L42.1,91.6L43.3,92.8L43.6,93.5L45.3,94.4L46.3,95.7L48.3,97.3L48.9,98L50.7,100.6L50.7,101.4L51.1,102.4L52.1,102.2L52.6,102.9L52.5,103.2L52.6,103.5L53.1,103.4L53.6,103.6L54.6,106.4L55.1,106.8L55.7,107L56.5,107.3L56.5,108L56.5,108.6L57.1,109.4L57,110.5L57.5,111.4L57.4,112.4L57.6,113.1L59.2,114.7L61.1,116L61.5,117.7L62.3,119.3L63.1,119.6L63.9,120.3L63.8,121L63.8,121.4L64.9,122.6L65.1,124.1L66,125.2L66.3,125.2L66.5,125.1L65.8,124.1L65.5,123.4L65.5,122.3L65.7,122.2L67.6,123.9L67.8,125.1L68.5,125.8L68.5,126.7L68.9,127.3L69,128.1L69.6,129.4L69.7,131.3L70,132.6L71.2,134.7L72.2,135.1L72.4,136.1L73.4,138.7L74.6,140.2L75.2,141.4L75.3,142.1L74.8,143.2L74.8,144L75.4,146.3L76.4,147.5L77.4,147.8L77.6,148L77.5,148.3L77.9,148.6L78.3,148.2L78.5,147.7L78.3,147.1L78.3,146.6L78.5,146.3L78.8,146.3L80.9,147.9L81.2,148.5L82,149.2L82.7,150.1L83,150.8L83.6,151.4L83.8,152.7L85.2,153.3L86,154.4L86.1,155.1L85.7,156.9L85.4,157.4L84.2,158.1L83.4,159L82.6,159.6L81.7,159.9L81,159.9L80.3,158.8L79.5,155.7L79,155L78.6,154L78,153.2L75.7,152L74.5,150.7L73.4,149.8L72.2,148.5L68.9,146.4L67.5,145.4L66.7,144.3L66.1,144.3L65.6,144.4L65.5,144.1L65.4,143.6L65.2,143.2L63.3,141.6L62.9,140.7L62.8,139.7L63.3,137L63.4,135.5L63.3,134.7L63.1,134.6L63,134.1L62.9,132.8L62.4,131.5L60.7,128.6L59.4,128L58.3,127.6L55.2,125L54.4,123.8L54.1,123L54,121.6L53.6,122.4L53,123.1L51.7,123L50.2,123.7L49.4,123.1L48.9,122.3L48.2,121.4L47.4,121.2L46.8,121.2L45.9,120L45.1,119.7L44,119.5L43,119L42.7,118.3L42.5,117.4L42.2,116.9L40.7,115.9L39.5,114.7L38.3,113.9L37.9,113.3L37.9,112.9L39.7,113L41.9,113.5L43,113.4L43.6,112.9L44.2,112.6L44.3,113L44.2,113.6L44.8,114.1L45.6,114.6L46.2,114.5L45.7,114L45.3,113L45.4,112.7L45.4,112.2L44.6,112.3L44.5,112L45.2,111.3L46,109.2L46.4,107.3L45.6,105.5L44.1,104.3L41.1,100.7L39.3,98.9L38.8,98.2L38.3,97.9L36.8,97.5L35.6,96.4L33.4,95L32.5,94.2L31.8,92.4L31.3,92.2L31.5,91L31.3,88.8L30.9,88.2L29.7,87.7L29.4,86.2L29.4,84.8L29.1,83.8L27.1,82.2L27,81.4L27,80.6L26.8,79.8L25.7,78.2L24.4,76.9L24,76.2L23.9,74.9L23.5,74.5L23.7,74.4L24.1,74.4L24.3,74.3L24.3,73.3L22.4,71.9L21.9,69.8L20.8,68.7L20.6,68.3Z"/></svg>
