<svg xmlns="http://www.w3.org/2000/svg" viewBox="0 0 400 300"><path d="M244.7,147.3L237.4,159L246.8,171.2L244.6,177.1L259,189L243.8,190.5L239.5,199.2L240.1,210.9L227.7,219.7L227.4,232.5L222.4,252.2L220.5,247.6L205.9,253.4L200.8,245.5L191.7,244.8L185.2,240.7L170,245.3L165.3,239.1L156.9,239.8L146.3,238.3L144.3,221L137.9,217.5L131.7,206.5L130,195.2L131.4,183.3L139.1,174.8L141.2,183.4L150,190.6L158.3,188L166.5,188.9L174,182.4L180.2,181.3L192.3,184.9L202.8,182.2L209.4,164.3L214.3,159.8L218.8,145.2L233.5,145.2ZM400,244.8L389.6,243.8L382.3,244.6L373.4,244.2L376.4,237.1L392.4,236.6L392.4,236.6L400,238.6L400,244.8ZM360.3,249.3L351.4,247L348.9,241.4L361.9,240.8L365.1,245ZM373.9,172.6L374.8,179.6L382.4,180.8L383.6,186L382.9,197.2L376.3,196L374.3,203.8L379.6,210.6L376,212.1L370.8,204L367,187.6L369.6,177.3ZM309.5,189.3L324.3,188.8L337,179.4L339.2,182.3L328.9,195.1L319.3,197.5L306.9,195L285.5,195.7L274.3,197.5L272.4,207.2L283.9,218.7L290.9,212.8L314.8,208.5L313.8,214.4L308.2,212.5L302.6,220.1L291.3,225L303.4,241.5L301.1,246L312.6,260.8L312.6,269.3L305.7,273.1L300.7,268.6L306.9,258L294.2,263L291,259.4L292.7,254.4L283.5,246.9L284.4,234.3L275.8,238.2L276.9,253.3L277.4,271.7L269.3,273.6L263.8,269.8L267.5,257.9L265.5,245.5L260,245.4L256.1,236.6L261.4,228.2L263.2,218L269.7,198.6L272.4,193.3L283.3,183.7L293.4,187.5ZM133.6,300L126.6,299L123.5,300L118.3,300L118.3,300L97.9,295.3L95.6,289.8L83.8,288.8L92.7,276.5L108.3,277.2L118.6,282.3L123.9,283.3L123.9,283.3L125.7,287.9L150.4,289.2L153.2,283.8L177,290L181.7,298.4L194.4,300L133.6,300ZM0,151L3.9,154.4L11,159.8L23.1,173.6L36.2,173.8L47,182.6L54.5,193.4L64.2,199.2L59.1,209.7L66.4,214.2L71.1,214.5L71.1,214.5L73.2,223.5L77.7,230.6L87.2,231.8L93.4,239.9L90.2,255.9L89.7,275.9L75.4,276.2L64.6,265.4L48.1,254.8L42.6,247L32.9,236.6L26.5,226.9L16.7,208.9L5.4,198.2L1.7,187.2L0,183.6L0,151Z" fill="#2c2c34" stroke="#474751" stroke-width="0.8"/><path d="M48.1,42.8L45.1,26.9L53.3,15.8L69.9,13.3L82,15.2L92.6,20.4L98.4,11.3L109.8,16.1L112.8,25L111.2,40.8L89.6,50.9L95.2,58.8L81.7,59.8L70.6,65.1L59.8,63.1L54.6,56.3Z" fill="#2c2c34" stroke="#474751" stroke-width="0.8"/><path d="M0,64.3L2.6,58.9L9.6,46.6L4.6,34.6L4.8,28.5L3.3,21.1L0,17.1L0,0L86.6,0L86.1,9.2L82,15.2L82,15.2L69.9,13.3L53.3,15.8L45.1,26.9L48.1,42.8L36.6,36.7L25.6,37L27.5,26.6L16.2,26.7L15.1,41.2L8.2,60.3L4,71.9L4.9,81.3L13.3,81.7L18.5,93.6L20.8,104.8L28,112.2L35.8,113.7L42.4,120.4L38.2,125.8L29.8,127.3L28.7,120.7L18.2,115L16,117.3L10.9,112.3L8.8,105.9L1.9,98.6L0,96.7L0,64.3Z" fill="#2c2c34" stroke="#474751" stroke-width="0.8"/><path d="M111.1,0L112.1,2.9L109.8,16.1L109.8,16.1L98.4,11.3L92.6,20.4L82,15.2L86.1,9.2L86.6,0L111.1,0Z" fill="#2c2c34" stroke="#474751" stroke-width="0.8"/><path d="M0,17.1L3.3,21.1L4.8,28.5L4.6,34.6L9.6,46.6L2.6,58.9L0,64.3L0,17.1Z" fill="#2c2c34" stroke="#474751" stroke-width="0.8"/><path d="M127.6,0L129,1.9L134.9,26.4L133.2,49.6L122.4,58.2L107.7,66.6L97.2,77.5L81.2,89.6L76.5,81.3L80.1,72.5L70.6,65.1L70.6,65.1L81.7,59.8L95.2,58.8L89.6,50.9L111.2,40.8L112.8,25L109.8,16.1L112.1,2.9L111.1,0L127.6,0Z" fill="#2c2c34" stroke="#474751" stroke-width="0.8"/><path d="M282.6,35.9L276.1,25.9L287.1,26.4L291.6,31.1L288.1,42.5ZM305.2,71.6L308.4,68L309.8,59.9L316.9,59.1L314.8,67.9L324.3,55.3L323.1,67.7L318.5,72.1L314.5,80.3L310.4,84.1L302.5,75.1ZM353.9,92L355.2,100.7L355.9,107.9L351.6,119.8L346.8,106.6L340.8,113.2L344.9,122.7L341.3,128.7L326.2,121.2L322.5,111.9L326.4,105.7L318.3,99.6L314.3,105L308.2,104.4L298.7,111.7L296.6,107.9L301.6,97L309.7,93.3L316.7,88.4L321.3,94.3L331.1,90.7L333.1,84.9L342.2,84.6L341.5,74.5L351.9,80.7L352.9,87.2ZM252.7,80.3L235.6,92.7L241.9,83.5L251.2,75.5L258.9,66.5L265.6,53.5L267.9,64.2L259.4,71.4ZM292,0L291.3,3.9L294.1,14.5L300.9,15.9L306.6,14.4L322.7,21.7L321.4,28.9L325.6,32.1L324.3,38.1L314.3,31.7L309.5,24.8L306.3,29.6L298.1,21.7L286.4,23.6L280,20.7L280.6,15.3L284.7,11.9L280.8,8.8L279.2,13.6L272.8,5.9L270.9,0.2L270.9,0L292,0ZM298.1,52.9L296.1,46.6L303.8,50.7L312,50.7L311.8,56.1L305.8,61.7L297.7,65.6L297.2,59.6ZM342.6,43.1L346.2,57.7L336.3,54.2L336.6,58.7L339.7,66.7L333.6,69.7L333.1,60.4L329.2,59.8L327.2,51.8L334.8,52.9L334.6,47.9L326.8,37.9L339.1,38.2Z" fill="#2c2c34" stroke="#474751" stroke-width="0.8"/><path d="M213.5,130.5L212.9,136.8L212.1,145L206,144.6L203.3,149L197.5,142.3L202.5,137.5Z" fill="#2c2c34" stroke="#474751" stroke-width="0.8"/><path d="M16.4,117.6L16.7,117L17,115L17.2,114.6L17.7,114.4L18.3,114.5L19.3,116.2L22.2,117.3L23,117.5L24.1,117.1L24.6,117.4L25.1,117.8L25.4,119L26.1,120.1L27.6,120L28.1,120.1L28.5,120.2L28.7,121.2L28.9,122.9L28.7,123.9L27.7,125.3L27.5,126.3L28.1,126.9L28.8,127.5L29.2,128L29.7,127.9L30.2,127.6L30.7,126.8L31.1,126L32.9,125.2L34.9,124.5L35.2,124.6L35.5,124.9L36.1,126L36.5,126.2L37,126.3L37.9,126.2L39,125.6L39.6,124.5L39.8,123.6L41.3,122.1L41.5,120.9L41.9,120.2L44.1,120.7L45,121.1L47.5,125.1L50.8,127.9L52.1,128.9L53.2,129.5L54.7,131L56,132.8L58.8,138.1L59.3,140.5L59.5,144.1L58.9,149.4L58.1,152.1L58.3,153.4L59.3,155.3L59,157.1L59.2,158.6L59.1,162.9L59.7,164.1L60.4,164.9L63.9,167.4L64.2,168.3L65.9,171.5L69.1,178.4L70,181.5L69.9,182.4L69.5,182.7L68.6,183L67.8,182.4L67.5,182L67.6,181.4L67.3,180.9L66.5,180.3L66.1,179.7L66.2,180.6L66.2,181.9L65.2,182L63.9,181.6L62.4,181.9L60.5,183.4L59.6,183.5L58.9,182.2L58.6,181.3L58,180.7L52.1,177.5L50,176.7L47.7,174.3L42.5,171.7L39.2,169.1L37.8,167.5L34.4,166.1L33,164.4L32.3,164.1L31.6,163.5L32.3,161.9L32,160.2L31.6,158.7L29.2,155.9L28.1,153.9L25.8,152L24.9,150.9L24.1,149.6L24.6,149.1L25.1,148.8L24.7,147.9L23.4,146.2L22.8,144.3L22.8,140.7L21,135.7L19.4,128.6L19.7,126.2L19.3,123.5L18.3,121L16.9,119.1ZM240.8,146.9L240.2,146.9L239.1,146.6L236.9,145.3L234.7,144.8L231.4,144.7L229.5,144.5L228.7,144.7L228.1,144.7L227.6,144.5L227.1,144.3L225.9,145.2L225.3,144.9L224.6,144.5L223.5,144.4L222.3,144.5L220.8,145.4L219.2,144.6L218.7,144.6L218.4,144.8L217.7,145.8L216.4,146.6L215.7,148.1L215.3,149.4L215,149.9L214.9,152.6L214.7,153.8L215,155.5L214.9,156.2L214.3,157.3L214.2,157.6L214,159.3L214.1,159.8L214,160.3L213.5,161.5L212.6,161.9L211.7,162.1L210.8,161.7L210.1,162.3L209.2,163.3L208.8,164L208.8,164.7L208.9,165.1L208.7,165.6L208.7,166L208.7,166.7L209.3,167L210,167.6L209.9,168.1L209.6,168.5L208.8,169.1L207.3,170.3L205.6,171.4L204.9,171.6L204.7,172.1L204.6,172.8L205,174.2L205.3,174.6L205.5,175.1L205.3,175.7L205.1,176.2L204.4,176.5L203.8,176.8L203.6,177.2L203.3,178.9L202.9,179.8L202.1,181.1L201.8,181.7L201.4,181.9L199.8,181.3L198.3,181.7L196.4,181.9L194.8,181.9L193.6,182.1L192.7,182.8L191.7,183.7L190.7,184.4L190,184.7L188.6,183.8L187.8,183.8L186.6,183.5L183.6,182.5L182.8,182.2L182.1,182.1L181.8,181.8L182,181.3L181.8,180.7L181.2,180.4L175.3,180.5L173.5,181.1L172.3,181.5L171.5,182.1L171.3,183.4L170.8,184.6L170.1,185.9L168.1,186.3L166.6,187.6L166.1,187.7L165.2,187.5L164.1,187.4L163.3,187.8L162.5,187.8L159.9,187.1L157.6,187.1L156.2,187.4L155.5,187.5L151.3,189.3L149.9,189.5L149.3,189.2L148.6,188.5L147.4,187.8L144.9,185.3L143.9,184.7L143.3,184.1L142.7,183.4L141.8,182.6L141.1,182.1L140,181L139,179.8L138.7,177.7L137.9,177.3L137.6,176.8L137.5,176.2L138.7,174.5L139.5,176.3L139.8,176.7L141.7,177.9L143.2,178.5L144.9,178.7L146.6,178.8L147.3,178.7L147.9,178.5L148.6,178.7L152.1,180.7L153.5,181L154.9,180.9L155.5,181.1L157.5,182.5L158.1,182.7L159.2,182.6L157.9,181.9L157,181.5L156.7,180.5L156.8,179.6L157.7,178.9L158.2,178.2L158.5,176.1L158.8,175L159.5,174L159.7,173.1L159,172.3L158.8,171L158.9,170L159.4,169.2L160.1,169.7L160.8,170.2L161.5,170.1L162,170L162.1,169.4L161.9,168.4L162,166.7L162.9,165.3L164.3,164.3L165.6,163.9L170.6,163.1L178.6,161.1L180.9,160.3L181.8,159.9L182.5,159.3L183.8,157.6L186.1,154.8L187.7,152.5L191.1,149.1L193.8,146L194.2,145.4L194.6,143.7L194.7,142.9L194.6,142.1L195,141.7L195.5,141.5L195.7,141.5L196,141.8L197,142.3L197.7,143L198.2,143.8L198.5,144.5L198.5,145.2L199,145.7L200.2,145.8L200.6,146.5L201.4,147.7L202.2,148.5L202.6,148.8L203.2,148.6L204.1,147.9L204.8,146.9L205.2,145.7L204.9,145.5L205.5,144.5L205.6,144.1L205.3,143.6L205,143.1L204.8,142L204.6,140.5L204.4,139.9L204.9,139.4L205.9,138.8L206.9,138.1L208,137.5L208.1,138.5L208,140.2L208.3,141.6L209,144.1L209.9,144.4L210.8,144.6L211.4,144.6L211.8,144.4L211.8,144.2L211.2,143.2L211.1,140.9L210.6,139.4L209.8,137.9L209.5,137.5L212.5,137.1L213.1,136.6L214.3,135.6L214.8,135L215.1,133.7L213.6,133L213.1,132L213,130.9L214.8,128.9L215.4,128.4L215.7,129.1L216.5,129.3L217.2,129.3L217.9,129.3L218.9,128.3L219.5,126.9L221.3,124.8L221.9,123.3L222.3,121.7L226.9,116.6L227.4,115.8L230.2,110.7L230.5,110.5L231.2,111L231.4,112.6L231.3,113.3L230.9,114.4L230.6,115.5L230.9,115.5L232.2,114.8L233.6,113L234.4,111.5L235,110.8L236.3,111.2L236.6,111.4L236.5,112.5L236.6,113.2L237.1,114.6L238.3,115.4L239.8,115.9L241.2,116.7L241.7,117.2L242,117.8L242.3,118.8L242.3,119.8L241.3,120.8L241.7,122.4L241.6,123.3L241.3,124.1L239.8,124.8L243.9,124.1L244.9,123.7L246.3,122.6L247,123.5L247.7,125.1L247.1,125.5L245.4,126.1L245.3,126.3L245.9,127.1L246.6,127L248.1,126.5L249.4,125.6L250.1,125.6L250.7,125.8L252.1,126.4L252.8,126.8L253.4,127.4L253.8,128.6L255.4,129L258.5,130.7L259.1,130.8L259.7,130.9L261.3,130.7L261.9,130.9L262.4,131.5L262.5,132.3L262.5,133.1L262.3,133.7L261.9,134.2L260.7,134.9L257.9,135.9L254.9,136.7L253.3,136.6L251.1,136L250.3,136.1L249.5,136.4L248.6,138.4L250.4,140.5L253.4,142.6L253.8,143.2L253.8,143.8L253.2,144.2L252.6,144.4L250.9,144.8L249.1,145L247.7,145.4L246.3,145.9L244.9,145.7L242.9,144.8L242.3,144.7L241.7,145.2L241.1,146.5ZM69.2,165.4L68.5,165.6L68.2,165.5L68,165L68.5,163.8L68.7,163.6L69.2,164.9ZM18.6,132.4L18.3,132.8L17.4,132.6L17.5,130.5L18.1,130.2L18.9,130.6L19.3,130.9ZM13,117.3L13.8,118.7L13.4,119.3L13.2,119.5L12.6,119.3L12.1,119.8L11.6,119.9L11.1,119L10.5,118.6L10.4,117.9L11.2,117.8L11.7,118L12.6,117.6ZM235.2,108.2L234.4,108.9L234.1,108.1L234.2,107L235.3,106L236.8,105.8L237,106.6L236.8,107.5L236.5,108ZM31.8,162.1L31.2,162.4L31.2,162L31.3,161.6L31.7,161.1L32,161.4ZM161.3,169.5L160.9,169.7L160.3,169.2L160.1,165.3L160.5,165L160.8,165L161.1,165.7L161.1,167.4L161.1,169ZM244.7,146.7L242.9,147L241.7,146.9L241.9,146.5L241.9,145.9L242.5,145.7L243.2,145.9Z" fill="#b8e653" stroke="#0c0e06" stroke-width="1"/></svg>
