<svg xmlns="http://www.w3.org/2000/svg" viewBox="0 0 300 300"><path fill="#e8e8ea" d="M234.8,143.6L233.7,143.5L231.4,143L226.8,140.1L222.1,139.1L215.2,139L211.3,138.7L209.8,139.1L208.4,139.1L207.4,138.5L206.4,138.2L203.8,139.9L202.5,139.4L201.2,138.7L199,138.4L196.3,138.7L193.2,140.4L189.9,138.8L189,138.8L188.3,139.2L186.9,141.4L184.1,143L182.7,146L181.9,148.8L181.2,149.8L180.9,155.3L180.5,158L181.2,161.5L181.1,163L179.8,165.3L179.6,165.8L179.1,169.4L179.3,170.3L179.2,171.5L178.1,174L176.2,174.7L174.2,175.1L172.5,174.2L171,175.6L169.1,177.8L168.3,179.2L168.3,180.6L168.5,181.4L168.1,182.4L168,183.3L168.1,184.7L169.4,185.3L170.8,186.5L170.7,187.7L170,188.5L168.3,189.7L165.1,192.3L161.5,194.5L160.2,195L159.7,196L159.5,197.4L160.3,200.3L161,201.2L161.5,202.2L161,203.4L160.6,204.5L159.2,205.2L158,205.7L157.5,206.6L156.8,210.1L156.1,211.9L154.3,214.7L153.8,215.9L152.9,216.4L149.5,215.1L146.5,215.8L142.6,216.4L139.2,216.3L136.6,216.8L134.8,218.3L132.8,220.1L130.7,221.5L129.1,222.1L126.2,220.2L124.7,220.3L122.1,219.7L115.8,217.5L114.3,216.9L112.7,216.8L112.2,216.2L112.5,215.1L112.2,213.8L110.9,213.3L98.5,213.5L94.9,214.7L92.5,215.6L90.7,216.7L90.2,219.4L89.2,221.9L87.8,224.6L83.7,225.4L80.6,228.1L79.6,228.5L77.5,228L75.2,227.8L73.6,228.6L72,228.6L66.7,227.3L61.8,227.1L58.9,227.7L57.3,228L48.8,231.7L45.8,232.1L44.6,231.6L43,230L40.7,228.6L35.4,223.4L33.4,222.2L32,220.9L30.8,219.4L29,217.8L27.4,216.7L25.2,214.4L23.1,212L22.6,207.7L20.9,206.9L20.2,205.8L20,204.5L22.4,200.9L24.1,204.7L24.8,205.5L28.7,208L31.8,209.2L35.3,209.8L38.9,209.9L40.3,209.7L41.7,209.2L43,209.7L50.3,213.8L53.2,214.5L56.2,214.2L57.4,214.6L61.7,217.7L62.9,218.1L65,217.8L62.3,216.4L60.6,215.4L59.8,213.5L60.2,211.5L62,210.1L63.1,208.7L63.6,204.3L64.4,202.1L65.7,200L66.2,198L64.6,196.4L64.3,193.7L64.6,191.6L65.5,190L67,191L68.4,191.9L69.8,191.8L70.9,191.5L71.1,190.4L70.8,188.4L70.9,184.7L72.7,181.8L75.7,179.8L78.5,178.8L88.9,177.2L105.4,173.1L110.4,171.4L112.2,170.6L113.6,169.4L116.2,165.7L121,159.9L124.4,155.1L131.5,148.1L137.2,141.6L138,140.4L138.8,136.9L138.9,135.2L138.7,133.5L139.5,132.7L140.7,132.3L141,132.3L141.7,133L143.7,134.1L145.2,135.4L146.2,137.1L146.9,138.7L146.9,140L147.9,141.1L150.4,141.3L151.2,142.7L152.9,145.1L154.5,146.8L155.5,147.5L156.7,147.2L158.6,145.6L159.9,143.6L160.9,141L160.1,140.6L161.5,138.7L161.6,137.6L161.1,136.7L160.3,135.7L160,133.4L159.5,130.3L159.1,128.9L160.2,127.9L162.3,126.7L164.4,125.2L166.6,124L166.7,126.1L166.6,129.6L167.3,132.6L168.8,137.7L170.5,138.4L172.5,138.8L173.7,138.7L174.4,138.4L174.6,138L173.4,135.9L173.1,131.2L172,128L170.4,124.9L169.7,124L176,123.2L177.3,122.2L179.8,120L180.8,118.8L181.5,116.1L178.4,114.5L177.2,112.5L177.1,110.3L180.8,106.1L182,105.2L182.6,106.6L184.3,107L185.7,107L187.2,106.9L189.4,104.9L190.5,101.9L194.3,97.7L195.6,94.4L196.4,91L205.9,80.5L207.1,78.8L212.7,68.2L213.4,67.9L215,68.9L215.3,72.3L215.1,73.7L214.3,75.9L213.7,78.2L214.4,78.2L217.1,76.7L219.9,73.1L221.5,69.8L222.8,68.4L225.5,69.2L226.1,69.8L225.9,72.1L226.2,73.4L227.3,76.3L229.6,78L232.8,79.1L235.7,80.7L236.7,81.7L237.3,83L238,85.1L238,87.2L235.8,89.2L236.8,92.5L236.6,94.4L235.9,96.1L232.8,97.6L241.2,96.1L243.3,95.2L246.2,93L247.8,95L249.2,98.2L248.1,99L244.4,100.2L244.2,100.7L245.5,102.4L247,102.2L250,101.1L252.8,99.3L254.1,99.3L255.6,99.7L258.3,100.8L259.9,101.8L261.1,103L262,105.5L265.2,106.3L271.7,109.8L272.9,110.2L274.2,110.2L277.6,109.8L278.8,110.3L279.7,111.5L280,113.1L279.9,114.8L279.5,116L278.7,117.1L276.3,118.6L270.5,120.7L264.1,122.3L260.9,122.2L256.3,120.9L254.7,121L253.1,121.7L251,126L254.8,130.2L261.1,134.7L262,135.8L261.8,137.2L260.8,138L259.4,138.4L255.8,139.2L252.2,139.7L249.3,140.5L246.3,141.5L243.3,141.1L239.2,139.1L238,139L236.8,140L235.5,142.8Z"/></svg>
