<svg xmlns="http://www.w3.org/2000/svg" viewBox="0 0 300 300"><path fill="#e8e8ea" d="M86.5,206.6L88.6,204.9L90.7,202.6L93.2,199.8L95.5,197.4L97.4,195.2L100.1,192.3L102.7,189.4L103.3,189L103.6,188.8L102.5,186.2L104.3,183.2L104.4,181.3L104.3,179.4L104.5,178.6L105.1,177.8L107.2,176.3L108.8,173.8L110.2,171.5L112,167.8L112.2,166.9L112.2,166L111.7,164.8L110.5,162.8L109.6,161L108.8,158.3L109.6,156L109.9,154.6L109.9,153.8L109.5,153.1L108.6,152.5L107.9,152.2L107.6,151.2L107.6,150.1L108,149.4L110,148.4L110.4,147.9L110.6,147.3L110.7,146.4L111.3,144.2L112,142L112.1,141.3L111.8,140.7L111.6,139.5L111.5,137.7L111.4,132.7L111.8,127.6L111.7,124.6L110.4,121.3L110.3,118.9L111.2,117.2L111.4,116.2L110.7,116.1L109.3,116L108.2,115.7L106.7,114.3L103.9,113.1L100.8,112.1L96.3,111.8L92.5,108.4L89.6,107.9L88.6,107.5L85.7,105.5L81.3,105.3L76.7,105.1L73.8,105L73.3,104.8L73.2,102L73.2,99.5L72.9,97.4L72.5,95L71.8,94.1L71,92.4L70.6,90.6L70.5,89.7L70.7,89.4L73.9,88.2L75.3,87.5L77.3,86.8L80.9,85.8L84.2,84.9L87.1,84L90.3,83L91.5,82.4L93.1,81.8L96.9,80.5L98,80.1L100.2,79.4L101.2,79.1L105.4,77.7L110.2,76L111.9,75.4L115.1,74.3L115.8,74.8L117.9,78.6L119.7,80.8L121.6,82.9L122,82.8L122.5,82.3L123.5,82.1L126.6,81.6L127.8,81.6L128.6,81.1L130.2,80.7L132,80.4L132.7,80.7L134.6,83.4L134.9,85.4L135.3,88.4L135.4,89.8L135.4,91.8L135.2,94.2L133.6,97L133.3,98.4L132.4,100.5L131.3,101.6L130.7,102.5L130.8,103.4L131.4,104.1L132.7,105.5L133.1,106.4L133,107.1L133,108.2L133.3,108.9L133.7,109.4L135,110.1L136.2,111.8L138.4,114L141,117L142.3,117.9L143.2,118.1L143.7,119.1L143.5,120.3L142.7,121L143,121.9L143.4,122.4L143.9,122.7L145.1,122.7L146.1,122.6L146.4,122.2L146.3,117.7L145.5,115.1L144.7,114L144.5,113.8L144.8,113L145.7,110.9L146.4,108.9L146.9,108.1L147.4,107.6L151,107.1L152.7,106.6L153.3,106L153.9,104.5L154.3,100.1L154.4,96.1L154.1,93.7L154.6,90.1L155.4,87.9L155,87.5L154.7,84.5L152.3,81.3L149.3,77.2L147.7,75L145.7,72.5L142.2,68.6L140.7,67.2L139.8,66.7L137,66.2L136.2,65.5L135.5,64.3L135.2,62.1L135.2,60.4L134.9,57.6L134.3,53.6L134,52.5L133.2,49.5L132.5,46.6L132.4,46L132.7,45.3L134,43.2L134.9,41.7L135.4,40.9L136.1,38.7L136.3,37.6L136.9,37.1L139.4,36.9L141.4,37L144.8,36.9L148.3,37.1L148.8,37.1L149.6,37.4L150.5,37.4L151.5,37L152.6,36.3L153.8,35.1L155.7,35.1L158.2,36.3L159.6,37.5L159.9,38.4L161.6,38.9L164.7,39.1L167.1,38.6L168.6,37.5L170.1,36.9L171.6,36.8L172.9,37.2L173.7,38L175.2,38.6L177.5,39L180.1,38.5L182.8,37L184.4,35.5L184.8,33.9L185.2,33L185.7,32.7L187.2,32.5L189.6,32.4L191.6,32.9L194.3,34.5L196,33.4L198.8,31.7L201.7,30.7L204.4,30.7L206.7,30L208.5,28.7L210.3,27.8L212.3,27.5L214.1,26.8L216.6,25.4L219.3,23.4L222,21.3L223.7,20L224.6,21.6L226,23L225.1,23.8L224.1,24.6L225.7,25.6L224.6,27.1L224.4,28.1L224.7,28.5L225,29.2L224.2,30.9L223.1,32.2L222.8,33.2L223.8,35L223.3,38.2L224.2,41L224.4,42.5L224.8,43.5L224.3,45.3L224.4,48.2L224.7,49.4L224.1,51L225,51.5L225.5,53.2L225.4,55L225.1,56.1L223.5,57.3L223.3,57.8L223.4,58.5L225.3,58.5L225.4,59.6L225.3,60.5L225.4,62.2L225.1,63.3L225.5,64.5L225,65.8L225.2,66.9L225.2,68.3L225.7,71.8L225.7,76L225.8,76.7L226.5,77.2L227.5,77.4L227.5,78.6L226.4,80.2L226.3,81.1L226.5,82.4L227.7,80.6L228.4,80.6L229.1,81.3L229,82.4L229.2,82.9L229.1,83.9L229.5,85.2L229.3,86.4L228.4,87.1L227.3,88.5L227.1,89.8L227.2,90.6L226.4,90.8L226.1,91.4L226.6,92.6L226.5,93.6L225.2,96.9L221.5,101.4L219.9,103L218.5,104.8L218.5,105.5L218.3,106.1L216.6,108.6L214.8,109L213.7,109.7L214.5,111.9L213.3,112.4L211.2,114.1L205.5,117.5L204.6,118.2L203.1,120.3L201.2,120.8L200.2,121.4L198.2,121.6L197.6,121.4L196.9,121.5L196.4,121.9L192.6,123.4L189.1,124.5L188.2,125L187.6,125.7L184.5,126.9L179.6,129.7L175.6,132.3L172.7,135L171.9,135.4L171,136.3L170.8,137.6L170.4,138.4L168.3,141.2L165.1,144.5L164.5,145.5L163.2,147.3L163.1,148.5L161.9,148.9L160.9,147.7L160.5,150L159.7,150.1L158.9,149.7L156.7,150.8L154.8,152.1L151.8,154.7L147.5,160L141.2,165L140.4,165.2L139.8,165.2L137.9,163.4L136.8,163.3L137.7,164.3L138.4,165.2L138.2,166.9L138.3,169.5L137.5,174.5L137.6,175.6L138.5,177L140.2,178.7L141.8,180.9L143.8,187.1L143.9,190.4L146,194.5L146.1,196.2L147,200.7L146.9,204.3L146.7,206.5L147.8,207.4L148.1,206.6L148,205.2L148.3,202.9L148.8,202L149.4,202.1L149.6,203.2L150,204.1L150.1,205L150.1,206.2L149.4,210.7L149.6,212.6L150.6,215.7L149.4,219.3L147.7,227.8L147.6,229.3L148,229.9L149,230.1L149.3,229.1L149.9,229.1L150.1,229.7L149.4,233.7L148.6,235.4L145.8,239.6L144.4,241.5L141.9,243.3L136.2,246.1L124.6,250.1L120,252.1L117.3,253.3L111.5,257.1L109,259.7L108,262.6L106.9,264L106,265.7L106.8,267.1L107.7,268.2L108.7,269L109.2,269.6L109.9,270.1L110.6,267.8L110.9,267L111.5,267L111.1,269.8L110.4,279.5L110.4,279.8L108.8,279.8L106,279.9L104.3,279.9L102.4,280L100.2,279.5L98.9,279.6L98.8,274.3L98.3,273.1L97.9,271.4L97.8,270.3L98.1,269.2L98.2,267.4L98.1,265.9L96.7,265.1L96.4,264.9L96.1,263.7L96,261.8L96.9,259.5L96.9,255L97,253.4L96.9,250.2L96.9,246.4L96.9,243.1L96.9,240.2L96.7,238.8L96.4,238L95.8,236.4L95,233.2L94.2,230.8L93.1,229.2L92.7,228.4L92.3,227.3L91.2,225.3L90.4,224.1L90.1,223.2L90.1,220.8L89.2,216.5L88.5,213.4L87.4,210.1L86.7,207.8L86.6,207.4ZM136.7,43.6L136.4,43.2L135.9,43L135.4,43.2L135.2,43.7L135.8,44.4L136.4,44.4ZM137.9,45.1L138.2,44.8L138.4,44.3L138.4,43.9L138.1,43.6L137.7,43.5L137.3,43.6L137,44.1L137,45L137.3,45.2Z"/></svg>
