<svg xmlns="http://www.w3.org/2000/svg" viewBox="0 0 400 300"><path d="M188.3,18.7L189.5,19.5L215.6,34.1L216.1,38.3L226.4,45.5L223.1,54.4L223.5,58.5L228.1,61.1L228.3,63L226.3,67.4L226.8,69.6L226.3,73.1L228.8,77.6L231.8,84.8L234.4,86.4L228.7,90.7L220.8,93.5L216.5,93.4L213.9,95.6L208.9,95.8L207.1,96.7L198.4,94.6L193,95.2L191,85.3L188.5,81.9L187.1,79.9L180.1,78.5L176,76.3L171.4,75.1L168.5,73.9L165.5,72L161.6,62.9L157.5,58.8L156.1,54.6L156.8,50.9L155.5,44.2L158.4,43.9L161,41.3L163.8,37.5L165.6,36L165.6,33.7L164,32L163.6,29.2L165.7,28.3L166.1,24L163.2,20L165.8,19.1L173.6,19.2Z" fill="#2c2c34" stroke="#474751" stroke-width="0.8"/><path d="M164.2,0L163.6,0.4L160.8,4.2L159.3,7.5L158.9,13.3L157.2,16L157.2,21.5L155.1,23.5L154.9,27.8L153.9,28.3L153.2,32.3L155,35.5L155.5,44.2L155.5,44.2L156.8,50.9L156.1,54.6L157.5,58.8L161.6,62.9L165.5,72L162.7,71.3L153,72.5L151.1,73.4L149.1,78L150.7,81.2L149.4,89.9L148.5,97.2L150.5,98.5L155.5,101.4L157.5,100.1L158,108L152.6,108L149.6,103.9L146.9,100.8L141.4,99.7L139.8,95.9L135.4,98.2L129.7,97.2L127.3,93.9L122.7,93.2L119.3,93.4L118.9,91.1L116.4,90.9L113.2,90.5L108.7,91.6L105.6,91.4L103.8,92L104.2,83.3L101.8,80.6L101.2,76.2L102.3,71.8L100.9,69L100.7,64.4L92,64.5L92.6,61.9L88.9,61.9L88.6,63.1L84.1,63.4L82.3,67.6L81.2,69.5L77.2,68.4L74.9,69.5L70.1,70L67.4,66.2L65.7,63.9L63.7,59.6L61.9,54.2L40.7,54.1L38.1,54.9L36.1,54.8L33.1,55.8L32.1,53.5L33.9,52.8L34.1,49.6L35.3,47.8L37.9,46.2L39.8,47L42.3,44.2L46.2,44.3L46.6,46.3L49.3,47.6L53.6,43.1L57.7,39.6L59.6,37.3L59.3,31.3L62.5,24.3L65.7,20.6L70.5,17.2L71.3,14.9L71.5,12.2L72.7,9.8L72.3,5.7L73.1,0L164.2,0Z" fill="#2c2c34" stroke="#474751" stroke-width="0.8"/><path d="M267.8,0L261.4,4.3L254.7,9.7L246.8,18.4L245.2,22.2L243.5,23.9L243.5,23.9L239.3,18L239.2,0L267.8,0Z" fill="#2c2c34" stroke="#474751" stroke-width="0.8"/><path d="M239.2,0L239.3,18L243.5,23.9L238.5,26.8L236.7,29.8L234,30.3L233,35.4L230.7,38.3L229.3,43.1L226.4,45.5L226.4,45.5L216.1,38.3L215.6,34.1L189.5,19.5L188.3,18.7L188.2,11L190.3,8.1L193.8,3.4L195.5,0L239.2,0Z" fill="#2c2c34" stroke="#474751" stroke-width="0.8"/><path d="M62,226.4L65.5,222.4L68.3,224.6L69.5,228.1L72.7,228.7L77.3,230.3L81.1,229.7L87.5,225.5L87.5,195.8L89.5,197L93.8,204.5L93.1,209.4L94.7,212.2L99.8,211.4L103.4,207.8L106.9,205.4L108.6,201.6L112.1,199.7L115.1,200.7L118.6,202.9L124.4,203.3L129,201.5L129.8,199L131,195.2L135,194.6L137.1,191.6L139.5,186.4L146,180.5L156.1,174.8L159.1,174.9L162.5,176.2L165,175.3L168.8,176L172.2,187L174.1,192.6L172.8,201.5L173.4,204.3L169.8,202.9L167.7,203.4L167.1,205.8L165.1,208.8L165.1,211.5L169.4,215.9L173.7,215.1L175.1,211.5L180.6,211.5L178.8,217.4L177.9,224.2L176.1,227.9L171.1,232L169.7,233.2L166.7,237.4L164.7,241.7L160.6,247.7L152.5,256.4L147.4,261.5L142,265.4L134.5,268.8L130.8,269.2L129.9,271.6L125.5,270.3L121.9,272L114.1,270.3L109.8,271.4L106.8,270.9L99.4,274.3L93.2,275.7L88.8,279L85.5,279.2L82.5,276.1L80.1,276L77,272.1L76.6,273.3L75.7,270.9L75.7,265.9L73.4,260.2L75.7,258.6L75.5,252.1L70.8,244.2L67.2,237.2L67.2,237.1ZM152.9,229.5L149.7,227L146.4,228.7L142.5,231.9L138.6,237.1L144,243.5L146.6,242.7L147.9,240.1L151.9,238.7L153.2,236L155.4,232Z" fill="#2c2c34" stroke="#474751" stroke-width="0.8"/><path d="M152.9,229.5L155.4,232L153.2,236L151.9,238.7L147.9,240.1L146.6,242.7L144,243.5L138.6,237.1L142.5,231.9L146.4,228.7L149.7,227Z" fill="#2c2c34" stroke="#474751" stroke-width="0.8"/><path d="M168.8,176L165,175.3L162.5,176.2L159.1,174.9L156.1,174.8L151.5,171.3L146,170.1L143.9,165.2L143.9,162.5L140.8,161.7L132.6,153.3L130.4,148.9L128.9,147.5L126.1,141.5L134.2,142.3L136.5,143.2L139,143L143,138.1L149.2,131.9L151.8,131.3L152.6,128.7L156.8,125.8L162.2,124.7L162.7,127.5L168.7,127.4L172,129L173.5,130.8L176.9,131.4L180.7,133.8L180.7,143.3L179.3,148.5L179,154.2L180.2,156.5L179.4,161L178.3,161.7L176.4,167.2Z" fill="#2c2c34" stroke="#474751" stroke-width="0.8"/><path d="M156.1,174.8L146,180.5L139.5,186.4L137.1,191.6L135,194.6L131,195.2L129.8,199L129,201.5L124.4,203.3L118.6,202.9L115.1,200.7L112.1,199.7L108.6,201.6L106.9,205.4L103.4,207.8L99.8,211.4L94.7,212.2L93.1,209.4L93.8,204.5L89.5,197L87.5,195.8L87.5,172.9L94.6,172.6L94.8,145.4L100.2,145.1L111.3,142.5L114,145.6L118.6,142.6L120.8,142.6L124.9,140.9L126.1,141.5L128.9,147.5L130.4,148.9L132.6,153.3L140.8,161.7L143.9,162.5L143.9,165.2L146,170.1L151.5,171.3Z" fill="#2c2c34" stroke="#474751" stroke-width="0.8"/><path d="M87.5,195.8L87.5,225.5L81.1,229.7L77.3,230.3L72.7,228.7L69.5,228.1L68.3,224.6L65.5,222.4L62,226.4L56.7,220.3L53.9,214.3L52.3,206.5L50.5,200.7L48.1,188.5L47.9,179.2L47,174.9L44.2,171.8L40.5,165.4L36.7,156.2L35.1,151.4L29.3,144L28.9,138.2L32.3,136.8L36.6,135.5L41.3,135.7L45.6,139.1L46.7,138.6L75.8,138.2L80.8,141.9L98.2,142.9L111.4,139.9L117.3,138.1L122,138.6L124.8,140.3L124.9,140.9L120.8,142.6L118.6,142.6L114,145.6L111.3,142.5L100.2,145.1L94.8,145.4L94.6,172.6L87.5,172.9Z" fill="#2c2c34" stroke="#474751" stroke-width="0.8"/><path d="M73.1,0L72.3,5.7L72.7,9.8L71.5,12.2L71.3,14.9L70.5,17.2L65.7,20.6L62.5,24.3L59.3,31.3L59.6,37.3L57.7,39.6L53.6,43.1L49.3,47.6L46.6,46.3L46.2,44.3L42.3,44.2L39.8,47L37.9,46.2L35.2,43.8L33,45L30.2,48.1L24.2,40.5L29.7,36.5L27,31.7L29.5,29.9L34.3,29L34.9,25.8L38.7,29.3L45.1,29.6L47.3,26.2L48.2,21.4L47.4,15.8L44,11.5L47.1,3.2L45.3,1.8L40,2.4L38.7,0L73.1,0Z" fill="#2c2c34" stroke="#474751" stroke-width="0.8"/><path d="M38.7,0L40,2.4L45.3,1.8L47.1,3.2L44,11.5L47.4,15.8L48.2,21.4L47.3,26.2L45.1,29.6L38.7,29.3L34.9,25.8L34.3,29L29.5,29.9L27,31.7L29.7,36.5L24.2,40.5L16.9,33.2L12.1,27.2L7.7,19.8L8,17.4L9.5,15.1L11.3,9.9L12.7,4.6L15.2,4.1L25.6,4.2L25.6,0L38.7,0Z" fill="#2c2c34" stroke="#474751" stroke-width="0.8"/><path d="M25.6,0L25.6,4.2L15.2,4.1L12.7,4.6L11.4,3.5L12.4,0L25.6,0Z" fill="#2c2c34" stroke="#474751" stroke-width="0.8"/><path d="M165.5,72L168.5,73.9L171.4,75.1L176,76.3L180.1,78.5L183.4,81.8L185.3,87.9L184.1,89.9L182.6,95.9L184,102L181.7,104.5L179.5,111.4L183.3,113.3L161.5,119.4L162.2,124.7L156.8,125.8L152.6,128.7L151.8,131.3L149.2,131.9L143,138.1L139,143L136.5,143.2L134.2,142.3L126.1,141.5L124.9,140.9L124.8,140.3L122,138.6L117.3,138.1L111.4,139.9L106.7,135.1L101.9,129L102.2,105.4L117.2,105.5L116.6,102.9L117.6,100.2L116.4,96.7L117.2,93.2L116.4,90.9L118.9,91.1L119.3,93.4L122.7,93.2L127.3,93.9L129.7,97.2L135.4,98.2L139.8,95.9L141.4,99.7L146.9,100.8L149.6,103.9L152.6,108L158,108L157.5,100.1L155.5,101.4L150.5,98.5L148.5,97.2L149.4,89.9L150.7,81.2L149.1,78L151.1,73.4L153,72.5L162.7,71.3Z" fill="#2c2c34" stroke="#474751" stroke-width="0.8"/><path d="M180.1,78.5L187.1,79.9L188.5,81.9L191,85.3L193,95.2L191,100.8L193,110.4L195.5,110.3L198.1,112.7L201.1,118.1L201.7,127.7L198.6,129.2L196.4,134.4L191.7,129.8L191.2,124.5L192.7,121.1L192.3,118.1L189.5,116.2L187.5,116.9L183.3,113.3L179.5,111.4L181.7,104.5L184,102L182.6,95.9L184.1,89.9L185.3,87.9L183.4,81.8Z" fill="#2c2c34" stroke="#474751" stroke-width="0.8"/><path d="M175.1,211.5L173.7,215.1L169.4,215.9L165.1,211.5L165.1,208.8L167.1,205.8L167.7,203.4L169.8,202.9L173.4,204.3L174.5,207.9Z" fill="#2c2c34" stroke="#474751" stroke-width="0.8"/><path d="M37.9,46.2L35.3,47.8L34.1,49.6L33.9,52.8L32.1,53.5L30.2,48.1L33,45L35.2,43.8ZM33.1,55.8L36.1,54.8L38.1,54.9L40.7,54.1L61.9,54.2L63.7,59.6L65.7,63.9L67.4,66.2L70.1,70L74.9,69.5L77.2,68.4L81.2,69.5L82.3,67.6L84.1,63.4L88.6,63.1L88.9,61.9L92.6,61.9L92,64.5L100.7,64.4L100.9,69L102.3,71.8L101.2,76.2L101.8,80.6L104.2,83.3L103.8,92L105.6,91.4L108.7,91.6L113.2,90.5L116.4,90.9L117.2,93.2L116.4,96.7L117.6,100.2L116.6,102.9L117.2,105.5L102.2,105.4L101.9,129L106.7,135.1L111.4,139.9L98.2,142.9L80.8,141.9L75.8,138.2L46.7,138.6L45.6,139.1L41.3,135.7L36.6,135.5L32.3,136.8L28.9,138.2L28.2,133.5L29.2,126.9L31.7,120.1L32,116.9L34.4,110.2L36.1,107.1L40.2,102.3L42.5,99L43.3,93.6L42.9,89.4L40.7,86.8L38.8,82.4L37.1,78L37.5,76.5L39.7,73.6L37.5,66.6L36,61.8L32.4,57.2Z" fill="#2c2c34" stroke="#474751" stroke-width="0.8"/><path d="M163.6,29.2L164,32L165.6,33.7L165.6,36L163.8,37.5L161,41.3L158.4,43.9L155.5,44.2L155,35.5L153.2,32.3L157.6,32.8L159.8,28.7Z" fill="#2c2c34" stroke="#474751" stroke-width="0.8"/><path d="M300.8,102.2L302.7,105.4L304.5,110.2L305.6,119.2L307.5,122.6L306.8,126.2L305.5,128.4L303.1,124L301.7,126.2L303.1,131.8L302.4,135L300.4,136.7L300,143.1L297.2,151.9L293.6,162.5L289.2,177.1L286.4,188L283.2,197.1L277.3,199L271,202.4L266.9,200.4L261.2,197.5L259.2,193.3L258.7,186.4L256.2,180.1L255.5,174.5L256.8,168.9L260.1,167.6L260.2,165L263.6,159.2L264.2,154.4L262.6,150.7L261.2,146L260.6,139L263.1,134.8L264.1,130L267.7,129.8L271.7,128.2L274.4,126.9L277.5,126.8L281.6,122.5L287.5,117.9L289.7,114.2L288.7,111L291.8,111.9L295.7,106.8L295.9,102.3L298.3,99.1Z" fill="#2c2c34" stroke="#474751" stroke-width="0.8"/><path d="M195.5,0L193.8,3.4L190.3,8.1L188.2,11L188.3,18.7L188.3,18.7L173.6,19.2L165.8,19.1L163.2,20L158.9,22.2L157.2,21.5L157.2,16L158.9,13.3L159.3,7.5L160.8,4.2L163.6,0.4L164.2,0L195.5,0Z" fill="#2c2c34" stroke="#474751" stroke-width="0.8"/><path d="M163.2,20L166.1,24L165.7,28.3L163.6,29.2L159.8,28.7L157.6,32.8L153.2,32.3L153.9,28.3L154.9,27.8L155.1,23.5L157.2,21.5L158.9,22.2Z" fill="#2c2c34" stroke="#474751" stroke-width="0.8"/><path d="M169.5,177.2L170.5,176.4L171.5,175.3L172.7,174L173.8,172.8L174.7,171.7L176,170.3L177.3,168.9L177.6,168.8L177.7,168.6L177.2,167.4L178,166L178.1,165L178,164.1L178.1,163.7L178.4,163.4L179.4,162.6L180.2,161.4L180.9,160.3L181.7,158.5L181.8,158.1L181.8,157.7L181.6,157.1L181,156.1L180.6,155.3L180.2,154L180.6,152.9L180.7,152.2L180.7,151.8L180.5,151.5L180.1,151.2L179.7,151.1L179.6,150.6L179.6,150L179.8,149.7L180.8,149.2L181,149L181.1,148.7L181.1,148.3L181.4,147.2L181.7,146.2L181.8,145.8L181.6,145.5L181.5,144.9L181.5,144.1L181.5,141.7L181.7,139.2L181.6,137.8L181,136.2L180.9,135L181.3,134.2L181.4,133.8L181.1,133.7L180.4,133.6L179.9,133.5L179.2,132.8L177.9,132.3L176.4,131.8L174.2,131.6L172.4,130L170.9,129.8L170.5,129.6L169.1,128.6L167,128.5L164.8,128.4L163.4,128.4L163.1,128.2L163.1,126.9L163.1,125.7L162.9,124.7L162.7,123.6L162.4,123.1L162,122.3L161.8,121.4L161.8,121L161.9,120.9L163.4,120.3L164.1,120L165.1,119.6L166.8,119.1L168.4,118.7L169.8,118.3L171.3,117.8L171.9,117.5L172.6,117.2L174.5,116.6L175,116.4L176,116.1L176.6,115.9L178.6,115.2L180.9,114.4L181.7,114.2L183.2,113.6L183.5,113.8L184.6,115.7L185.4,116.7L186.4,117.7L186.5,117.7L186.8,117.5L187.3,117.4L188.8,117.1L189.3,117.1L189.7,116.9L190.5,116.7L191.4,116.6L191.7,116.7L192.6,118L192.7,119L192.9,120.4L193,121.1L193,122L192.9,123.2L192.1,124.5L192,125.2L191.5,126.2L191,126.7L190.7,127.1L190.8,127.6L191.1,127.9L191.7,128.6L191.9,129L191.8,129.4L191.8,129.9L192,130.3L192.1,130.5L192.8,130.8L193.4,131.7L194.4,132.7L195.7,134.1L196.3,134.6L196.8,134.7L197,135.2L196.9,135.7L196.5,136L196.6,136.5L196.8,136.8L197.1,136.9L197.6,136.9L198.1,136.8L198.3,136.6L198.2,134.5L197.8,133.2L197.5,132.7L197.4,132.6L197.5,132.2L197.9,131.2L198.3,130.3L198.5,129.9L198.7,129.6L200.5,129.4L201.3,129.1L201.6,128.9L201.9,128.1L202.1,126L202.1,124.1L202,122.9L202.2,121.2L202.6,120.2L202.4,119.9L202.3,118.5L201.1,117L199.7,115L198.9,114L197.9,112.8L196.3,110.9L195.5,110.2L195.1,109.9L193.7,109.7L193.4,109.4L193,108.8L192.9,107.7L192.9,106.9L192.7,105.6L192.5,103.7L192.3,103.1L191.9,101.7L191.6,100.3L191.5,100L191.7,99.6L192.3,98.6L192.8,97.9L193,97.5L193.3,96.5L193.4,96L193.7,95.7L194.9,95.6L195.9,95.7L197.5,95.6L199.2,95.7L199.4,95.7L199.8,95.9L200.2,95.8L200.7,95.7L201.2,95.3L201.8,94.7L202.7,94.8L203.9,95.4L204.6,95.9L204.8,96.3L205.6,96.6L207.1,96.7L208.2,96.4L208.9,95.9L209.6,95.6L210.4,95.6L211,95.8L211.4,96.2L212.1,96.5L213.2,96.6L214.5,96.4L215.8,95.7L216.5,95L216.7,94.2L216.9,93.7L217.2,93.6L217.9,93.5L219,93.5L220,93.7L221.3,94.5L222.1,94L223.5,93.1L224.8,92.6L226.2,92.6L227.2,92.3L228.1,91.7L229,91.3L229.9,91.1L230.8,90.8L232,90.1L233.3,89.1L234.6,88.1L235.5,87.5L235.8,88.3L236.5,88.9L236.1,89.3L235.6,89.7L236.4,90.2L235.8,90.9L235.8,91.4L235.9,91.6L236.1,91.9L235.7,92.7L235.1,93.4L235,93.9L235.5,94.7L235.2,96.2L235.7,97.6L235.8,98.3L235.9,98.8L235.7,99.6L235.8,101.1L235.9,101.7L235.6,102.4L236.1,102.6L236.3,103.4L236.2,104.4L236.1,104.8L235.4,105.4L235.2,105.7L235.3,106L236.2,106L236.3,106.6L236.2,107L236.2,107.8L236.1,108.3L236.3,108.9L236.1,109.5L236.2,110.1L236.2,110.7L236.4,112.4L236.4,114.4L236.5,114.8L236.8,115L237.3,115.1L237.3,115.7L236.7,116.4L236.7,116.9L236.8,117.5L237.3,116.6L237.7,116.7L238,117L238,117.5L238.1,117.8L238,118.2L238.2,118.9L238.1,119.4L237.7,119.8L237.2,120.4L237.1,121L237.1,121.4L236.8,121.6L236.6,121.8L236.8,122.4L236.8,122.9L236.2,124.5L234.4,126.7L233.6,127.4L232.9,128.3L232.9,128.6L232.8,128.9L232,130.1L231.1,130.3L230.6,130.6L231,131.7L230.4,131.9L229.4,132.8L226.7,134.4L226.2,134.7L225.5,135.7L224.6,136L224.1,136.2L223.2,136.3L222.9,136.3L222.6,136.3L222.3,136.5L220.5,137.2L218.8,137.7L218.4,138L218.1,138.3L216.6,138.9L214.2,140.2L212.3,141.5L210.9,142.8L210.6,143L210.1,143.4L210,144.1L209.8,144.4L208.8,145.8L207.2,147.4L207,147.8L206.3,148.7L206.3,149.3L205.7,149.5L205.2,148.9L205.1,150L204.7,150.1L204.3,149.8L203.2,150.4L202.3,151L200.9,152.3L198.8,154.8L195.8,157.2L195.4,157.3L195.1,157.3L194.2,156.5L193.6,156.4L194.1,156.9L194.4,157.3L194.3,158.1L194.4,159.4L194,161.8L194.1,162.3L194.5,163L195.3,163.8L196.1,164.9L197,167.9L197.1,169.4L198.1,171.4L198.1,172.2L198.5,174.4L198.5,176.1L198.4,177.2L198.9,177.6L199.1,177.2L199.1,176.5L199.2,175.5L199.4,175L199.7,175L199.8,175.6L200,176L200.1,176.4L200.1,177L199.7,179.2L199.8,180.1L200.3,181.6L199.7,183.3L198.9,187.4L198.8,188.1L199,188.4L199.5,188.5L199.7,188L199.9,188L200.1,188.3L199.7,190.2L199.3,191.1L198,193.1L197.3,194L196.1,194.8L193.4,196.2L187.8,198.1L185.6,199.1L184.3,199.7L181.5,201.5L180.3,202.7L179.8,204.1L179.3,204.8L178.8,205.6L179.2,206.3L179.7,206.9L180.1,207.2L180.4,207.5L180.7,207.7L181,206.6L181.2,206.3L181.5,206.2L181.3,207.6L181,212.2L181,212.4L180.2,212.4L178.8,212.4L178,212.5L177.1,212.5L176,212.3L175.4,212.3L175.4,209.7L175.2,209.2L175,208.4L174.9,207.8L175,207.3L175.1,206.5L175,205.7L174.4,205.3L174.2,205.2L174.1,204.7L174,203.8L174.5,202.6L174.5,200.5L174.5,199.7L174.5,198.2L174.5,196.4L174.5,194.7L174.5,193.3L174.4,192.7L174.3,192.3L173.9,191.6L173.6,190L173.2,188.9L172.6,188.1L172.4,187.7L172.3,187.1L171.7,186.2L171.3,185.6L171.2,185.2L171.2,184L170.8,182L170.4,180.5L169.9,178.9L169.6,177.8L169.5,177.6ZM193.6,98.9L193.5,98.7L193.2,98.5L193,98.6L192.9,98.9L193.2,99.3L193.5,99.3ZM194.2,99.6L194.3,99.4L194.4,99.2L194.4,99L194.3,98.9L194.1,98.8L193.9,98.8L193.8,99.1L193.7,99.5L193.9,99.6Z" fill="#b8e653" stroke="#0c0e06" stroke-width="1"/></svg>
