<svg xmlns="http://www.w3.org/2000/svg" viewBox="0 0 400 300"><path d="M392.1,0L391.2,2.2L391.7,5L391.1,9.5L394.3,15.3L398.1,24.6L400,25.7L400,27.7L400,27.7L394.1,32.1L384.1,35.7L378.5,35.6L375.2,38.4L368.8,38.6L366.4,39.8L355.3,37.2L348.3,37.9L345.8,25.1L342.6,20.8L340.8,18.2L331.7,16.4L326.5,13.6L320.6,12.1L316.9,10.5L313.1,8.1L309.6,0L392.1,0Z" fill="#2c2c34" stroke="#474751" stroke-width="0.8"/><path d="M309.6,0L313.1,8.1L309.5,7.2L297.1,8.7L294.6,9.9L291.9,15.8L294,20L292.4,31.1L291.2,40.5L293.7,42.2L300.2,45.9L302.7,44.2L303.5,54.4L296.4,54.3L292.6,49.1L289.2,45L282.1,43.7L280.1,38.8L274.4,41.8L267.1,40.4L264,36.2L258.1,35.3L253.8,35.5L253.3,32.6L250.1,32.3L245.8,31.8L240.1,33.2L236.1,33L233.9,33.8L234.3,22.7L231.3,19.2L230.6,13.4L231.9,7.8L230.1,4.2L229.9,0L309.6,0ZM207.3,0L206.3,2.5L204.9,4.8L199.8,3.5L196.7,4.8L190.6,5.6L187.1,0.7L186.6,0L207.3,0Z" fill="#2c2c34" stroke="#474751" stroke-width="0.8"/><path d="M180.2,206.3L184.6,201.2L188.3,204L189.8,208.5L194,209.3L199.8,211.3L204.7,210.5L213,205.1L213,167L215.5,168.5L221,178.2L220.1,184.5L222.2,188.1L228.8,187.1L233.4,182.5L237.8,179.4L240,174.5L244.5,172.1L248.4,173.3L252.8,176.2L260.3,176.7L266.3,174.3L267.2,171.1L268.8,166.3L273.8,165.4L276.6,161.6L279.7,154.9L288,147.4L301,140L304.8,140.2L309.2,141.9L312.4,140.7L317.3,141.7L321.7,155.8L324.1,162.9L322.5,174.3L323.2,178L318.6,176.1L315.9,176.8L315,179.8L312.5,183.7L312.6,187.2L318.1,192.9L323.5,191.7L325.4,187.1L332.4,187.2L330.1,194.8L329,203.5L326.6,208.2L320.3,213.5L318.5,215.1L314.6,220.5L312,225.9L306.8,233.7L296.3,244.8L289.8,251.4L282.8,256.4L273.2,260.7L268.5,261.3L267.3,264.4L261.7,262.7L257.1,264.8L247.1,262.7L241.5,264.1L237.7,263.5L228.2,267.9L220.3,269.6L214.6,273.9L210.4,274.1L206.5,270.2L203.4,269.9L199.4,265L199,266.5L197.7,263.5L197.8,257L194.8,249.6L197.8,247.6L197.5,239.3L191.5,229.2L186.9,220.1L186.8,220.1ZM296.8,210.3L292.8,207.1L288.5,209.2L283.5,213.4L278.6,220.1L285.5,228.3L288.8,227.2L290.5,223.8L295.6,222.2L297.2,218.7L300,213.5Z" fill="#2c2c34" stroke="#474751" stroke-width="0.8"/><path d="M296.8,210.3L300,213.5L297.2,218.7L295.6,222.2L290.5,223.8L288.8,227.2L285.5,228.3L278.6,220.1L283.5,213.4L288.5,209.2L292.8,207.1Z" fill="#2c2c34" stroke="#474751" stroke-width="0.8"/><path d="M317.3,141.7L312.4,140.7L309.2,141.9L304.8,140.2L301,140L295.1,135.6L288,134L285.3,127.8L285.3,124.3L281.3,123.2L270.8,112.4L268,106.8L266.1,105.1L262.5,97.3L272.9,98.3L275.9,99.5L279,99.2L284.1,93L292.1,85L295.4,84.3L296.5,80.9L301.8,77.1L308.8,75.8L309.4,79.4L317.1,79.2L321.4,81.2L323.4,83.6L327.7,84.3L332.6,87.4L332.6,99.6L330.8,106.4L330.4,113.7L331.9,116.6L330.8,122.4L329.4,123.2L327,130.4Z" fill="#2c2c34" stroke="#474751" stroke-width="0.8"/><path d="M301,140L288,147.4L279.7,154.9L276.6,161.6L273.8,165.4L268.8,166.3L267.2,171.1L266.3,174.3L260.3,176.7L252.8,176.2L248.4,173.3L244.5,172.1L240,174.5L237.8,179.4L233.4,182.5L228.8,187.1L222.2,188.1L220.1,184.5L221,178.2L215.5,168.5L213,167L213,137.6L222.1,137.3L222.4,102.3L229.2,102L243.5,98.6L247,102.6L252.9,98.8L255.7,98.7L260.9,96.6L262.5,97.3L266.1,105.1L268,106.8L270.8,112.4L281.3,123.2L285.3,124.3L285.3,127.8L288,134L295.1,135.6Z" fill="#2c2c34" stroke="#474751" stroke-width="0.8"/><path d="M313.1,8.1L316.9,10.5L320.6,12.1L326.5,13.6L331.7,16.4L336.1,20.6L338.4,28.6L336.9,31.1L335,38.8L336.8,46.6L333.9,49.9L331.1,58.7L336,61.1L307.9,69L308.8,75.8L301.8,77.1L296.5,80.9L295.4,84.3L292.1,85L284.1,93L279,99.2L275.9,99.5L272.9,98.3L262.5,97.3L260.9,96.6L260.8,95.7L257.2,93.6L251.2,93L243.6,95.2L237.6,89.2L231.4,81.3L231.8,51L251,51.1L250.2,47.8L251.6,44.3L250,39.8L251,35.3L250.1,32.3L253.3,32.6L253.8,35.5L258.1,35.3L264,36.2L267.1,40.4L274.4,41.8L280.1,38.8L282.1,43.7L289.2,45L292.6,49.1L296.4,54.3L303.5,54.4L302.7,44.2L300.2,45.9L293.7,42.2L291.2,40.5L292.4,31.1L294,20L291.9,15.8L294.6,9.9L297.1,8.7L309.5,7.2Z" fill="#2c2c34" stroke="#474751" stroke-width="0.8"/><path d="M331.7,16.4L340.8,18.2L342.6,20.8L345.8,25.1L348.3,37.9L345.8,45.1L348.3,57.4L351.6,57.3L354.9,60.4L358.8,67.2L359.5,79.5L355.6,81.6L352.7,88.2L346.7,82.3L346,75.5L348,71.1L347.5,67.3L343.8,64.8L341.2,65.7L336,61.1L331.1,58.7L333.9,49.9L336.8,46.6L335,38.8L336.9,31.1L338.4,28.6L336.1,20.6Z" fill="#2c2c34" stroke="#474751" stroke-width="0.8"/><path d="M400,80.4L399.4,81.5L393.5,87.5L385.1,91.1L374.7,95.8L364.3,106.3L360.7,108L354.3,115L350.4,117.2L349.7,124.3L354.1,131.7L355.9,137.6L356,140.5L357.6,140L357.4,149.8L355.9,154.5L358,156.2L356.7,160.4L352.8,164.1L345.2,167.5L334.1,173L330,176.8L330.8,181.1L333.2,181.8L332.4,187.2L325.4,187.1L324.6,182.6L323.2,178L322.5,174.3L324.1,162.9L321.7,155.8L317.3,141.7L327,130.4L329.4,123.2L330.8,122.4L331.9,116.6L330.4,113.7L330.8,106.4L332.6,99.6L332.6,87.4L327.7,84.3L323.4,83.6L321.4,81.2L317.1,79.2L309.4,79.4L308.8,75.8L307.9,69L336,61.1L341.2,65.7L343.8,64.8L347.5,67.3L348,71.1L346,75.5L346.7,82.3L352.7,88.2L355.6,81.6L359.5,79.5L358.8,67.2L354.9,60.4L351.6,57.3L348.3,57.4L345.8,45.1L348.3,37.9L348.3,37.9L355.3,37.2L366.4,39.8L368.8,38.6L375.2,38.4L378.5,35.6L384.1,35.7L394.1,32.1L400,27.7L400,80.4Z" fill="#2c2c34" stroke="#474751" stroke-width="0.8"/><path d="M325.4,187.1L323.5,191.7L318.1,192.9L312.6,187.2L312.5,183.7L315,179.8L315.9,176.8L318.6,176.1L323.2,178L324.6,182.6Z" fill="#2c2c34" stroke="#474751" stroke-width="0.8"/><path d="M186.6,0L187.1,0.7L190.6,5.6L196.7,4.8L199.8,3.5L204.9,4.8L206.3,2.5L207.3,0L229.9,0L229.9,0L230.1,4.2L231.9,7.8L230.6,13.4L231.3,19.2L234.3,22.7L233.9,33.8L236.1,33L240.1,33.2L245.8,31.8L250.1,32.3L251,35.3L250,39.8L251.6,44.3L250.2,47.8L251,51.1L231.8,51L231.4,81.3L237.6,89.2L243.6,95.2L226.7,99.2L204.3,97.8L197.9,93.1L160.5,93.6L159.1,94.2L153.6,89.9L147.6,89.6L142.1,91.2L137.6,93.1L136.8,87L138,78.6L141.2,69.8L141.7,65.7L144.7,57.1L146.9,53.2L152.2,47L155.2,42.8L156.1,35.8L155.6,30.5L152.9,27.1L150.4,21.5L148.2,15.8L148.7,13.9L151.5,10.2L148.7,1.2L148.3,0L186.6,0Z" fill="#2c2c34" stroke="#474751" stroke-width="0.8"/><path d="M245.2,96.4L247.1,95.9L249,95.6L251.2,95.2L253,94.9L253.4,94.8L257.6,95.2L259.5,95.4L260.1,95.6L260.9,96.3L262.5,97.8L262.1,97.8L259.3,98.1L258.2,98.5L255.8,100.3L255.3,100.1L254.7,99.7L254.2,99.6L253.1,100.1L252.1,100.6L250.9,101.3L249.9,102.1L249.6,102.5L248.1,104L247.6,104.2L247.2,104.3L247,104.2L246.8,103.6L245.9,102.1L244.4,100.1L244,99.9L243.7,99.8L242.6,99.9L239.4,100.5L236.6,101L232.5,101.8L228.1,102.4L225.3,102.8L222.9,102.9L222.9,104.9L222.9,108.9L222.9,112.9L222.9,116.9L222.9,120.9L223,124.9L223,128.9L223,133L223,137L223,138.8L222.9,139.1L221.6,139.1L218.4,139.1L215.8,139.1L213.7,139.1L213.7,141.6L213.7,144.4L213.7,147.3L213.7,150.2L213.7,153L213.7,155.9L213.7,158.8L213.7,161.7L213.7,164.6L213.8,166.8L213.8,167.1L213.8,171.4L213.8,175.9L213.8,180.5L213.8,185L213.8,189.6L213.8,194.3L213.8,198.9L213.8,203.6L213.8,205L212.8,205L210.9,205.6L209.7,206.3L209.2,207.2L208.5,207.8L207.6,208L207.2,208.5L207.3,209.2L207,209.8L206.2,210.2L204.9,210.1L203.2,209.4L201,209.3L198.4,209.6L196.4,209.4L195.3,208.8L194,208.5L192.7,208.4L191.9,208.1L190.4,207.6L190.1,206.8L189.9,206.2L189.4,205.6L189.4,205L189.7,204.6L189.8,204L189.5,203.1L189.1,202.7L188.5,202.7L188.2,202.4L188,201.7L187.6,201.2L186.8,200.6L185.6,201L185.1,201.6L184.8,202.6L184.5,203.1L184.4,203.9L184.3,204.4L184,205L183.7,205.3L183.4,205.2L182.8,205.4L181.5,206.3L181.1,206.8L180.1,205.9L177.1,202.7L176,201.9L174.4,200L170.9,193.9L170.4,192.8L169.8,189.9L169,187.7L168.9,186.5L169.3,185.8L169.1,184.8L168.7,184L167.5,182.9L167.1,179.1L166.3,176.8L166.5,174.8L166.1,173L166.1,171.9L166.3,169.7L165.7,167.2L164.4,164.8L163.2,161.3L163,159.7L163.1,155.6L162.9,153.9L162.9,152L162.5,149.9L162.3,148.8L162.6,147.9L162.8,148.2L163.1,148.4L163.4,147.2L163.4,146.2L162.8,143.6L161.5,141L158.3,136.8L157.5,135.2L157.1,133.9L153.5,128.4L152,124.5L150.9,121.2L149.7,119.6L144.3,108.9L143.1,107.1L141,105.1L140.5,104.4L139.6,102.5L138,99.9L137.6,97.4L137.5,94.7L137.7,92.6L139.2,92.3L140.2,91.8L141.2,91.8L142.1,92.2L143,92.2L143.4,92.2L145.1,92.2L146.1,91.7L147.3,91.2L148,90.8L149,90.3L150.3,89.8L151,89.9L151.9,90.1L153.1,90.2L153.7,90.5L154.5,91.5L155.7,92.4L156.6,92.9L157.7,93.6L158,93.9L158.4,94.1L158.7,94.1L160.6,94L162.4,93.9L164.3,93.9L167.8,93.9L171.3,93.9L174.9,93.9L178.4,93.9L181.9,93.9L185.5,93.9L189,93.9L192.5,93.9L194,93.9L196.5,94L199.2,94L199.4,94.1L199.7,94.3L200,94.4L200.9,95.7L202.1,97L203.1,97.6L204.3,97.9L205.4,98.1L206.5,98L208.2,98.1L210.6,98.6L213.1,98.7L215.7,98.5L217.6,98.7L218.6,99.4L219.7,99.8L220.8,100L222.3,99.9L224.2,99.4L225.8,99.5L226.6,99.8L227,99.8L229.8,99.3L232.1,98.9L235.4,98.3L238.2,97.7L242.3,96.9Z" fill="#b8e653" stroke="#0c0e06" stroke-width="1"/></svg>
