<svg xmlns="http://www.w3.org/2000/svg" viewBox="0 0 300 300"><path fill="#e8e8ea" d="M243.9,38.4L248.1,37.6L251.9,36.8L256.5,36L260.2,35.4L261.1,35.2L269.9,35.9L273.7,36.5L275,36.9L276.8,38.3L280,41.5L279.2,41.4L273.3,42.1L271,42.9L266,46.7L264.9,46.2L263.8,45.5L262.7,45.2L260.5,46.2L258.3,47.2L255.9,48.8L253.9,50.3L253.2,51.1L250.1,54.2L249,54.8L248.1,55L247.8,54.8L247.4,53.5L245.4,50.3L242.3,46.2L241.4,45.8L240.8,45.7L238.5,45.9L231.9,47L226.2,48L217.6,49.7L208.4,51L202.6,51.9L197.7,52.1L197.7,56.2L197.7,64.5L197.7,72.8L197.7,81.1L197.7,89.4L197.8,97.8L197.8,106.1L197.8,114.5L197.8,123L197.8,126.6L197.7,127.4L194.8,127.4L188.3,127.4L182.9,127.4L178.6,127.4L178.6,132.5L178.6,138.4L178.6,144.4L178.6,150.3L178.6,156.3L178.6,162.3L178.6,168.4L178.6,174.4L178.6,180.4L178.7,185L178.7,185.5L178.7,194.4L178.7,203.9L178.7,213.4L178.7,222.9L178.7,232.4L178.7,242.1L178.7,251.7L178.7,261.4L178.7,264.5L176.7,264.4L172.7,265.6L170.2,267.2L169,269L167.6,270.2L165.8,270.6L165,271.6L165.2,273.2L164.6,274.3L162.9,275.1L160.3,274.9L156.7,273.6L152.1,273.3L146.6,274L142.6,273.7L140.1,272.4L137.5,271.6L134.8,271.4L133.2,270.8L130,269.9L129.4,268.2L129,266.9L128.1,265.6L128,264.5L128.7,263.7L128.8,262.3L128.3,260.5L127.4,259.6L126.1,259.6L125.4,259L125,257.5L124.2,256.4L122.5,255.3L120.1,256.1L119,257.4L118.4,259.4L117.8,260.4L117.5,262.1L117.3,263.2L116.7,264.5L116.1,265L115.4,264.8L114.2,265.3L111.5,267.1L110.8,268.1L108.6,266.3L102.3,259.7L100.1,257.9L96.8,253.9L89.5,241.3L88.5,238.9L87.1,232.9L85.5,228.4L85.3,225.8L86.1,224.4L85.7,222.4L84.8,220.7L82.4,218.3L81.7,210.6L80,205.7L80.4,201.6L79.6,197.9L79.5,195.5L79.9,190.9L78.6,185.8L75.9,180.7L73.4,173.4L73.1,170.2L73.3,161.6L72.9,158.2L72.9,154.1L71.9,149.8L71.5,147.5L72.2,145.7L72.6,146.3L73.3,146.6L73.8,144.1L73.9,142L72.7,136.7L70,131.4L63.3,122.6L61.6,119.3L60.7,116.5L53.3,105.1L50.1,97L47.8,90L45.4,86.8L34.2,64.4L31.7,60.9L27.2,56.6L26.2,55.2L24.4,51.1L21.1,45.7L20.3,40.7L20,34.9L20.4,30.6L23.5,30.1L25.7,28.9L27.6,28.8L29.5,29.7L31.5,29.8L32.3,29.7L35.9,29.8L38,28.7L40.5,27.7L41.8,26.8L43.9,25.8L46.5,24.9L48,25L49.9,25.3L52.4,25.7L53.7,26.3L55.4,28.4L57.9,30.2L59.8,31.3L62,32.8L62.6,33.3L63.6,33.7L64.1,33.8L68.1,33.5L71.8,33.3L75.7,33.3L83,33.3L90.4,33.3L97.7,33.3L105,33.4L112.4,33.4L119.8,33.4L127.1,33.4L134.4,33.4L137.5,33.4L142.7,33.5L148.2,33.6L148.8,33.7L149.4,34.1L150,34.4L151.9,37L154.4,39.7L156.5,40.9L159,41.7L161.2,42L163.4,41.8L167,42.1L172.1,43L177.3,43.3L182.7,42.9L186.5,43.4L188.7,44.7L191,45.6L193.3,46L196.4,45.8L200.4,44.8L203.7,44.9L205.3,45.7L206.2,45.7L212,44.6L216.7,43.7L223.7,42.4L229.4,41.2L237.9,39.6Z"/></svg>
