<svg xmlns="http://www.w3.org/2000/svg" viewBox="0 0 300 300"><path fill="#e8e8ea" d="M241.2,218.4L238.2,218.4L236.6,218.9L234.4,220.6L232,221.3L229.1,222.7L227.3,223.9L225.6,224.8L223.2,227L222.4,228.7L220,229L216.7,228.8L214.6,227L209.7,225.3L206.5,224.6L205.1,224.3L197.7,224L189.7,224.7L185.6,225.6L184.9,225.7L182.6,226.8L180.7,228L175.6,233.5L168.7,233.3L164.7,232.7L161.3,231.9L156.4,229.3L150.5,225.4L148.2,224.8L146.2,224.6L145.5,224.6L138.4,228.5L137,228.4L135.3,228.8L134.2,229.8L133.4,230.3L132.6,230.4L131.4,230.2L130.4,229.6L129.3,228.5L126.3,224.1L125.7,223.4L124.5,222.1L122.4,220.1L120.9,219.1L120.1,218.9L119,219.1L113.4,217.4L107.7,215.5L106.4,215.8L105.5,216.2L103.6,217.5L101.2,217.7L98.3,217.6L96.7,217.4L94,217.9L92.3,218.4L90.1,219.4L87.1,221.8L86.3,222.1L85.6,222.6L84.6,229.4L83.7,231.4L82.3,234.1L79.4,236.7L77.3,238.2L77.3,240.3L77.1,243.8L77.1,246.1L77.2,247.7L76.9,248.4L76.8,249.1L76.9,250L77.3,250.5L77.6,251.2L77.4,251.7L76.5,252.3L75.4,250.7L74.1,249.6L72.6,249.2L71.6,248.4L71.1,247.3L69.1,245.2L64.7,241L64.2,240.9L63.5,240.7L62.2,241.2L61.4,241.9L60.9,242.2L60,242.2L57.9,242.7L56.3,243.4L56.2,244L57,247.2L56.6,248.9L55.8,248.1L53.4,244.9L51.7,242.5L51.4,242L51.2,241.1L51.3,240.8L52,240.5L53.6,240.2L53.9,240L53.9,239.3L53.7,238.1L52.8,236.4L51.9,235.3L51.5,235.1L50.5,235.1L49.5,235.2L47.6,236.6L46.8,236.8L44.8,236.7L43,236.5L42,235.8L38.8,233.1L35.3,230.3L33.9,229.9L33.6,229.6L33.3,227.4L33.4,224.8L33.6,224.1L35,224.6L36.6,224.7L37.1,224.3L35.8,223.3L34,222.4L33.4,221L32.9,220.5L32.1,220L31.1,219.7L30.2,219.3L29.6,218.9L28.6,218.7L27.5,218.4L25.9,216.1L24.4,213.9L23.4,212.1L23.1,211L23.6,209.2L23.1,208.5L21.4,206.7L20,204.9L20.4,202.3L20.7,200.1L20.7,198.7L20.9,197.9L21.1,197L22,196.7L24.4,196.7L29.1,197.2L32.9,196.7L33.1,196.6L35.8,194.2L38.7,191.7L43.1,191.5L47.9,191.2L51.7,191.1L57.1,190.9L61.6,190.8L66.7,190.6L66.9,189.4L67.2,189.1L67.7,189.1L71.4,189.7L75,190.3L75.2,188.2L78.4,185.4L80.1,184.9L80.5,184.4L81.1,183.5L81.4,182.1L81.6,181.1L82.3,180.2L82.7,178.7L83.4,176L85.1,173.2L86.1,169.3L86.3,165.6L86.5,162.8L87,162.2L87,157.2L86.9,152.1L86.9,147.8L86.9,142.5L86.9,137.8L86.9,132.7L86.9,128.1L86.9,125L90.4,124.3L94.2,123.6L99.6,122.5L105.5,121.3L111.9,120L113.4,119.2L118.2,114.8L120.4,112.8L124.7,108.8L128.1,105.7L132.3,101.8L136.8,97.9L140.4,94.8L146.1,91.2L154.6,85.8L163.1,80.4L171.7,75L180.1,69.6L188.7,64.1L197.2,58.7L205.7,53.2L214.2,47.7L222.8,49.8L231,51.8L239.1,53.8L241.1,54.9L245.4,58.8L251,63.7L251.2,63.8L251.4,63.8L256.8,60.9L263.8,57.1L265.6,67.4L267,76.2L267.1,81.8L267.1,83.3L267.7,84.3L269,85.3L274.1,93.3L273,94.7L273.8,97.2L275.1,98.3L279.4,103.1L280,104L279.8,104.8L276.7,110.4L276.2,111.8L275.6,118.9L275.2,124L274.6,130.8L274,139.1L273.4,146L272.7,155.1L271.9,163.7L267.6,168.4L260,176.8L253.8,183.6L250.6,188.1L244.5,196.9L241.8,202.7L239.7,205.6L238.6,206.9L239.5,211.1Z"/></svg>
