<svg xmlns="http://www.w3.org/2000/svg" viewBox="0 0 400 300"><path d="M67.6,64.5L67.7,65.1L67.5,66.8L67.5,80.3L41.5,79.8L41.8,102.1L34.3,102.8L32.4,107.3L33.9,119.6L2.9,119.5L1.2,122.4L1.6,118.8L1.7,118.8L19.5,118.1L20.4,115L23.7,111.2L26.3,99.3L37.3,90L41,78.9L43.5,78.3L46.1,71.4L52.7,70.5L55.6,71.6L59.2,71.6L61.7,69.6L66.6,69.3L66.4,64.5Z" fill="#2c2c34" stroke="#474751" stroke-width="0.8"/><path d="M272.4,300L274.8,298.2L275.7,295.7L275.9,292.8L277.2,290.1L276.8,285.6L277.8,278.6L279.4,273.6L281.7,269.4L282.2,264.6L282.9,259.1L286,255L290.2,252.5L296.7,255.2L301.8,258.1L307.6,258.9L313.5,260.4L315.8,255.7L316.9,255L320.5,255.8L329.3,251.9L332.4,253.6L335,253.3L336.2,251.4L339.1,250.7L345.1,251.5L350.2,251.7L352.8,250.9L357.6,257.4L361.1,258.4L363.2,257.1L366.9,257.6L371.3,255.9L373.2,259.3L380.1,264.6L379.7,273.8L382.8,274.9L380.3,277.7L377.2,279.8L374.2,283.9L372.5,287.6L372.1,294L370.3,297L370.2,300L272.4,300Z" fill="#2c2c34" stroke="#474751" stroke-width="0.8"/><path d="M400,207.9L398.9,207L398,201.2L398.9,195.3L395.2,194.7L394.7,196.5L389.9,196.9L391.9,199.3L392.5,204.1L388.2,208.6L384.3,214.4L380.2,215.2L373.5,210.5L370.5,212.1L369.7,214.5L365.6,216L365.4,217.7L357.5,217.7L356.4,216L350.7,215.7L347.9,217.1L345.7,216.4L341.6,211.7L340.2,209.5L334.5,210.6L332.4,214.4L330.3,221.5L327.6,223L325.2,223.9L330.6,227L330.6,227L324.5,223.5L321.8,221.2L321.3,218.7L322.6,215.4L322.5,212.1L318,207.1L317.1,203.6L317.2,201.7L314.3,199.3L314.2,194.6L312.5,191.5L309.7,191.9L310.5,189L312.6,185.6L311.7,182.2L314.3,179.7L312.7,177.8L314.7,172.8L318.4,166.7L325.2,167.3L324.8,134.3L324.9,130.8L334,130.8L334,113.9L365.8,113.9L396.5,113.9L400,113.9L400,207.9Z" fill="#2c2c34" stroke="#474751" stroke-width="0.8"/><path d="M324.8,134.3L325.2,167.3L318.4,166.7L314.7,172.8L312.7,177.8L314.3,179.7L311.7,182.2L312.6,185.6L310.5,189L309.7,191.9L312.5,191.5L314.2,194.6L314.3,199.3L317.2,201.7L317.1,203.6L312.1,205L308.1,208.3L302.3,217L294.9,220.7L287.2,220.3L285,221L285.8,223.8L281.7,226.6L278.3,229.7L268.4,232.8L266.4,231L265.1,230.8L263.6,232.9L257.1,233.5L258.3,231.3L255.8,225.8L254.7,222.5L251.3,221.1L246.6,216.4L248.3,212.7L251.9,213.5L254.2,212.9L258.6,213L254.3,205.7L254.6,200.3L254,194.9L250.9,189.8L251.7,185.9L246.6,185.7L246.6,180.5L243.3,177.5L246.8,166.7L256.8,158.9L257.3,148.1L260.3,131.2L262,127.5L258.7,124.6L258.6,121.9L255.6,119.7L253.7,106.5L261.7,101.8L293.2,118.2Z" fill="#2c2c34" stroke="#474751" stroke-width="0.8"/><path d="M0,173.1L0.3,173L4.1,167.2L6,163L8.7,160.3L12.6,161L16.5,159.2L20.9,159.2L24.7,161.6L29.9,163.8L34.7,169.8L39.9,175.4L40.3,180.5L41.8,185.2L44.8,187.5L45.5,190.6L45.1,193.1L44,193.6L39.7,192.9L39.1,193.8L37.3,194L31.6,192L27.8,192L13.2,191.6L11.1,192.5L8.5,192.3L4.3,193.6L3,187.4L10.2,187.6L12.1,186.4L13.5,186.3L16.4,184.5L19.8,186.2L23.3,186.3L26.7,184.5L25.1,182.2L22.5,183.5L20,183.5L16.9,181.5L14.4,181.6L12.6,183.5L4,183.8L4,183.8L0.7,177.4L0,176.9L0,173.1Z" fill="#2c2c34" stroke="#474751" stroke-width="0.8"/><path d="M45.1,193.1L45.5,190.6L44.8,187.5L41.8,185.2L40.3,180.5L39.9,175.4L42.6,173.9L43.9,169.1L46.4,168.9L51.9,171.2L56.4,169.6L59.5,170.1L60.7,168.3L92.4,168.2L94.2,162.4L92.8,161.4L89,125.4L85.2,88.3L97.3,88.2L123.9,107.1L150.6,125.7L152.5,129.6L157.4,132L161.1,133.4L161.2,138.7L170,137.9L170,157.1L165.7,162.6L165,167.6L157.9,168.9L147.2,169.6L144.3,172.6L139.2,172.9L134.1,172.9L132.1,171.3L127.8,172.5L120.4,175.9L118.9,178.5L112.7,182.1L111.6,184.2L108.3,185.9L104.5,184.8L102.4,186.8L101.2,192.3L94.9,199L95.1,201.8L92.9,205.2L93.4,209.8L90.2,211L88.3,212.1L87.1,208.6L84.8,209.5L83.5,209.4L82,211.7L75.9,211.6L73.7,210.4L72.7,211.2L70.3,208.9L70.7,206.5L69.7,205.5L68,206.3L68.3,203.7L69.9,201.6L66.7,198.2L65.8,196L64,194.2L62.4,194L60.5,195.1L58,196.2L55.8,198L52.4,197.3L50.2,195.3L48.9,195L46.8,196.1L45.6,196.1Z" fill="#2c2c34" stroke="#474751" stroke-width="0.8"/><path d="M1.2,122.4L2.9,119.5L33.9,119.6L32.4,107.3L34.3,102.8L41.8,102.1L41.5,79.8L67.5,80.3L67.5,66.8L97.3,88.2L85.2,88.3L89,125.4L92.8,161.4L94.2,162.4L92.4,168.2L60.7,168.3L59.5,170.1L56.4,169.6L51.9,171.2L46.4,168.9L43.9,169.1L42.6,173.9L39.9,175.4L34.7,169.8L29.9,163.8L24.7,161.6L20.9,159.2L16.5,159.2L12.6,161L8.7,160.3L6,163L5.3,158.5L7.5,154.5L8.5,146.6L7.6,138.4L6.6,134.2L7.4,130L5.4,126Z" fill="#2c2c34" stroke="#474751" stroke-width="0.8"/><path d="M157.5,242.7L151,243.7L149,238.2L149.4,219.8L147.8,218.2L147.5,214.2L144.7,211.4L142.3,209L143.3,204.8L146,203.9L147.6,200.4L151.5,199.6L153.3,197.2L155.9,194.8L158.7,194.8L164.8,199.5L164.5,202.1L166.2,206.9L164.7,210.2L165.5,212.3L161.7,217.3L159.2,219.8L157.7,224.8L157.9,229.9Z" fill="#2c2c34" stroke="#474751" stroke-width="0.8"/><path d="M157.5,242.7L157.9,229.9L157.7,224.8L159.2,219.8L161.7,217.3L165.5,212.3L164.7,210.2L166.2,206.9L164.5,202.1L164.8,199.5L165.3,192.2L167.6,189L168.7,184.3L170.8,182.5L179.3,181.6L187.2,184.6L190.2,187.7L194.2,187.8L197.9,185.8L207.5,190L211.5,189.8L216.2,186.4L220.9,186.6L223.1,185.5L227.4,185.9L233.5,188.3L239.7,183.8L241.6,184.1L246.9,193L248.4,192.8L251.5,196L250.7,197.5L250.3,200.2L243.6,206.4L241.5,211.5L240.4,215.7L238.7,217.5L237.1,223.1L232.9,226.4L231.7,230.4L229.9,233.7L229.1,237L223.7,239.7L219.2,236.4L216.2,236.5L211.5,241.2L209.2,241.3L205.5,248.9L203.5,254.6L195.2,257.4L192.2,257L189.2,258.8L182.9,258.6L178.6,253.6L176,247.9L170.4,242.6L164.5,242.7Z" fill="#2c2c34" stroke="#474751" stroke-width="0.8"/><path d="M250.9,189.8L254,194.9L254.6,200.3L254.3,205.7L258.6,213L254.2,212.9L251.9,213.5L248.3,212.7L246.6,216.4L251.3,221.1L254.7,222.5L255.8,225.8L258.3,231.3L257.1,233.5L253.1,241.5L251.2,243L250.6,249.1L251.4,252.5L250.7,254.9L254.5,259L255.2,261.9L258.1,265.9L261.7,268.5L262,272.1L262.9,274.4L262.3,278.7L256,276.8L249.6,274.7L239.7,274.4L238.7,274L234,275L229.2,273.9L225.4,274.4L212.5,274.3L213.7,268L210.6,262.8L207,261.4L205.4,257.9L203.3,256.7L203.5,254.6L205.5,248.9L209.2,241.3L211.5,241.2L216.2,236.5L219.2,236.4L223.7,239.7L229.1,237L229.9,233.7L231.7,230.4L232.9,226.4L237.1,223.1L238.7,217.5L240.4,215.7L241.5,211.5L243.6,206.4L250.3,200.2L250.7,197.5L251.5,196L248.4,192.8L248.7,190.2Z" fill="#2c2c34" stroke="#474751" stroke-width="0.8"/><path d="M143.3,204.8L142.3,209L144.7,211.4L147.5,214.2L147.8,218.2L149.4,219.8L149,238.2L151,243.7L144.6,245.4L142.8,242.6L140.7,237.5L140.1,233.5L141.8,226.4L139.9,223.4L139.1,217.1L139.1,211.3L135.8,207.1L136.4,204.6Z" fill="#2c2c34" stroke="#474751" stroke-width="0.8"/><path d="M136.4,204.6L135.8,207.1L139.1,211.3L139.1,217.1L139.9,223.4L141.8,226.4L140.1,233.5L140.7,237.5L142.8,242.6L144.6,245.4L132.2,250L127.8,252.7L120.7,255L113.6,252.8L114,249.6L110.5,242.8L112.6,233.8L115.9,227.1L113.8,215.7L112.8,209.7L113,205.1L126.7,204.7L130.2,205.3L132.7,204Z" fill="#2c2c34" stroke="#474751" stroke-width="0.8"/><path d="M72.7,211.2L73.7,210.4L75.9,211.6L82,211.7L83.5,209.4L84.8,209.5L87.1,208.6L88.3,212.1L90.2,211L93.4,209.8L97,211.6L98.4,214.3L102,216L104.7,213.9L108.4,213.6L113.8,215.7L115.9,227.1L112.6,233.8L110.5,242.8L114,249.6L113.6,252.8L110,252.9L104.5,251.3L99.4,251.4L90.1,252.8L84.6,255.1L76.7,258L75.2,257.8L75.8,251.2L76.6,250.2L76.3,247.1L73,243.8L70.5,243.3L68.2,241.1L69.9,237.5L69.1,233.7L69.4,231.4L70.7,231.4L71.2,227.9L70.5,226.3L71.3,225.2L74.2,224.3L72.3,217.8L70.5,214.5L71.1,211.8Z" fill="#2c2c34" stroke="#474751" stroke-width="0.8"/><path d="M27.8,192L31.6,192L37.3,194L39.1,193.8L39.7,192.9L44,193.6L45.1,193.1L45.6,196.1L46.8,196.1L48.9,195L50.2,195.3L52.4,197.3L55.8,198L58,196.2L60.5,195.1L62.4,194L64,194.2L65.8,196L66.7,198.2L69.9,201.6L68.3,203.7L68,206.3L69.7,205.5L70.7,206.5L70.3,208.9L72.7,211.2L71.1,211.8L70.5,214.5L72.3,217.8L74.2,224.3L71.3,225.2L70.5,226.3L71.2,227.9L70.7,231.4L69.4,231.4L67.2,231.2L65.6,234.4L63.4,234.3L61.8,232.6L62.3,229.4L59,224.5L57,225.4L55.3,225.6L53.1,226.1L53.2,223.1L51.9,221L52.2,218.7L50.5,215.3L48.2,212.5L41.9,212.4L40.1,214L37.9,214.1L36.5,215.9L35.6,218.1L31.4,221.6L27.9,216.9L24.9,213.7L22.8,212.7L20.9,211.1L20,207.5L18.8,205.8L16.5,204.5L20,200.5L22.4,200.7L24.5,199.3L26.2,199.3L27.5,198.2L26.8,195.6L27.7,194.7Z" fill="#2c2c34" stroke="#474751" stroke-width="0.8"/><path d="M4.3,193.6L8.5,192.3L11.1,192.5L13.2,191.6L27.8,192L27.7,194.7L26.8,195.6L27.5,198.2L26.2,199.3L24.5,199.3L22.4,200.7L20,200.5L16.5,204.5L12.3,201.1L8.9,200.5L7.1,198.3L7.2,197L4.8,195.3Z" fill="#2c2c34" stroke="#474751" stroke-width="0.8"/><path d="M69.4,231.4L69.1,233.7L69.9,237.5L68.2,241.1L70.5,243.3L73,243.8L76.3,247.1L76.6,250.2L75.8,251.2L75.2,257.8L73.1,257.9L65,254.1L57.8,248L51,243.7L45.7,238.5L47.6,236L48,233.7L51.6,229.3L55.3,225.6L57,225.4L59,224.5L62.3,229.4L61.8,232.6L63.4,234.3L65.6,234.4L67.2,231.2Z" fill="#2c2c34" stroke="#474751" stroke-width="0.8"/><path d="M31.4,221.6L35.6,218.1L36.5,215.9L37.9,214.1L40.1,214L41.9,212.4L48.2,212.5L50.5,215.3L52.2,218.7L51.9,221L53.2,223.1L53.1,226.1L55.3,225.6L51.6,229.3L48,233.7L47.6,236L45.7,238.5L43.6,237.9L37.9,234.7L33.8,230.5L32.4,227.5Z" fill="#2c2c34" stroke="#474751" stroke-width="0.8"/><path d="M93.4,209.8L92.9,205.2L95.1,201.8L94.9,199L101.2,192.3L102.4,186.8L104.5,184.8L108.3,185.9L111.6,184.2L112.7,182.1L118.9,178.5L120.4,175.9L127.8,172.5L132.1,171.3L134.1,172.9L139.2,172.9L138.6,176.8L139.6,180.6L144.1,185.9L144.3,189.8L153.4,191.6L153.3,197.2L151.5,199.6L147.6,200.4L146,203.9L143.3,204.8L136.4,204.6L132.7,204L130.2,205.3L126.7,204.7L113,205.1L112.8,209.7L113.8,215.7L108.4,213.6L104.7,213.9L102,216L98.4,214.3L97,211.6Z" fill="#2c2c34" stroke="#474751" stroke-width="0.8"/><path d="M352.8,250.9L350.2,251.7L345.1,251.5L339.1,250.7L336.2,251.4L335,253.3L332.4,253.6L329.3,251.9L320.5,255.8L316.9,255L315.8,255.7L313.5,260.4L307.6,258.9L301.8,258.1L296.7,255.2L290.2,252.5L286,255L282.9,259.1L282.2,264.6L277.1,264.2L271.8,262.8L267,267L262.9,274.4L262,272.1L261.7,268.5L258.1,265.9L255.2,261.9L254.5,259L250.7,254.9L251.4,252.5L250.6,249.1L251.2,243L253.1,241.5L257.1,233.5L263.6,232.9L265.1,230.8L266.4,231L268.4,232.8L278.3,229.7L281.7,226.6L285.8,223.8L285,221L287.2,220.3L294.9,220.7L302.3,217L308.1,208.3L312.1,205L317.1,203.6L318,207.1L322.5,212.1L322.6,215.4L321.3,218.7L321.8,221.2L324.5,223.5L330.6,227L334.9,230.2L335,232.8L340.3,237L343.6,240.4L345.6,245.2L351.5,248.4Z" fill="#2c2c34" stroke="#474751" stroke-width="0.8"/><path d="M249.9,300L249.5,296.7L245.7,292L249.1,282.9L247.2,281.3L241.3,281.9L239.1,277.9L239.7,274.4L249.6,274.7L256,276.8L262.3,278.7L262.9,274.4L267,267L271.8,262.8L277.1,264.2L282.2,264.6L282.2,264.6L281.7,269.4L279.4,273.6L277.8,278.6L276.8,285.6L277.2,290.1L275.9,292.8L275.7,295.7L274.8,298.2L272.4,300L249.9,300Z" fill="#2c2c34" stroke="#474751" stroke-width="0.8"/><path d="M205.9,300L206.1,298.5L207.8,296L209.7,290.2L211.3,284.4L214,283.9L225.5,284L225.4,274.4L225.4,274.4L229.2,273.9L234,275L238.7,274L239.7,274.4L239.1,277.9L241.3,281.9L247.2,281.3L249.1,282.9L245.7,292L249.5,296.7L249.9,300L205.9,300Z" fill="#2c2c34" stroke="#474751" stroke-width="0.8"/><path d="M212.5,274.3L225.4,274.4L225.5,284L214,283.9L211.3,284.4L209.8,283.2Z" fill="#2c2c34" stroke="#474751" stroke-width="0.8"/><path d="M4,183.8L12.6,183.5L14.4,181.6L16.9,181.5L20,183.5L22.5,183.5L25.1,182.2L26.7,184.5L23.3,186.3L19.8,186.2L16.4,184.5L13.5,186.3L12.1,186.4L10.2,187.6L3,187.4Z" fill="#2c2c34" stroke="#474751" stroke-width="0.8"/><path d="M219.6,0L216.5,2.9L218,8.1L222.1,8.2L224.1,12.7L227.1,14.2L226.6,21.4L222.8,24.1L220.3,27.1L214.9,30.7L215.8,34.5L215.1,38.4L211.2,40.5L211.2,40.5L207.8,23.9L203,20.2L202.9,17.9L196.4,12.3L195.7,5.1L200.4,0L219.6,0Z" fill="#2c2c34" stroke="#474751" stroke-width="0.8"/><path d="M200.4,0L195.7,5.1L196.4,12.3L202.9,17.9L203,20.2L207.8,23.9L211.2,40.5L213.8,48.6L214.2,52.8L212.8,60.2L213.4,64.2L212.4,69.1L213.1,74.7L209.9,78.4L214.6,84.8L214.9,88.5L217.7,93.4L221.4,91.8L227.7,95.8L231.1,101.2L204,117.6L181.1,134.2L170,137.9L161.2,138.7L161.1,133.4L157.4,132L152.5,129.6L150.6,125.7L123.9,107.1L97.3,88.2L67.5,66.8L67.5,66.8L67.7,65.1L67.6,64.5L67.6,53.9L80.4,47.2L88.3,45.8L94.7,43.3L97.8,38.8L107,35.1L107.3,28.3L111.9,27.5L115.5,24L125.9,22.4L127.3,18.8L125.2,16.8L122.5,6.8L122,1L121.5,0L200.4,0Z" fill="#2c2c34" stroke="#474751" stroke-width="0.8"/><path d="M398.3,0L397.1,0.6L395.4,0L398.3,0Z" fill="#2c2c34" stroke="#474751" stroke-width="0.8"/><path d="M121.5,0L122,1L122.5,6.8L125.2,16.8L127.3,18.8L125.9,22.4L115.5,24L111.9,27.5L107.3,28.3L107,35.1L97.8,38.8L94.7,43.3L88.3,45.8L80.4,47.2L67.6,53.9L67.6,64.5L66.4,64.5L66.6,69.3L61.7,69.6L59.2,71.6L55.6,71.6L52.7,70.5L46.1,71.4L43.5,78.3L41,78.9L37.3,90L26.3,99.3L23.7,111.2L20.4,115L19.5,118.1L1.7,118.8L1.6,118.8L1.9,114.8L5,112.5L7.5,108.1L7,105.1L9.8,99.1L14.2,93.5L16.8,92.2L18.9,87.1L19.1,82.4L22,77L27.2,73.7L32.3,64.7L32.4,64.6L36.4,61.1L43.7,60.1L50,54L53.9,51.6L60.5,44L58.6,32.5L61.6,24.6L62.6,19.6L67.7,13.2L75.6,8.9L81.5,5L84.2,0L121.5,0Z" fill="#2c2c34" stroke="#474751" stroke-width="0.8"/><path d="M400,113.9L396.5,113.9L365.8,113.9L334,113.9L334,82L334,50.3L331.6,43L333.6,37.3L332.4,33.4L335.3,28.9L345.8,28.8L353.4,31.2L361.3,33.9L364.9,35.4L371,32.4L374.3,29.8L381.3,29L386.9,30.2L389,34.8L390.9,31.8L397.2,34L400,34.2L400,59.6L400,59.6L398.4,57.7L392.7,44.7L391.9,45.5L395.2,55.1L400,64.1L400,113.9Z" fill="#2c2c34" stroke="#474751" stroke-width="0.8"/><path d="M334,113.9L334,130.8L324.9,130.8L324.8,134.3L293.2,118.2L261.7,101.8L253.7,106.5L248.1,109.7L243.6,105L231.1,101.2L227.7,95.8L221.4,91.8L217.7,93.4L214.9,88.5L214.6,84.8L209.9,78.4L213.1,74.7L212.4,69.1L213.4,64.2L212.8,60.2L214.2,52.8L213.8,48.6L211.2,40.5L215.1,38.4L215.8,34.5L214.9,30.7L220.3,27.1L222.8,24.1L226.6,21.4L227.1,14.2L236.4,17.5L239.7,16.7L246.3,18.2L256.8,22.4L260.5,30.7L267.6,32.5L278.8,36.4L287.2,40.9L291.1,38.5L294.9,34.3L293,27.2L295.5,22.7L301.2,18.3L306.6,17L317.3,18.9L320,23.1L323,23.1L325.5,24.7L333.4,25.8L335.3,28.9L332.4,33.4L333.6,37.3L331.6,43L334,50.3L334,82Z" fill="#2c2c34" stroke="#474751" stroke-width="0.8"/><path d="M400,230.9L396.9,230.6L399.6,226L400,226L400,230.9Z" fill="#2c2c34" stroke="#474751" stroke-width="0.8"/><path d="M370.2,300L370.3,297L372.1,294L372.5,287.6L374.2,283.9L377.2,279.8L380.3,277.7L382.8,274.9L379.7,273.8L380.1,264.6L383.4,262.4L388.4,264.2L394.8,262.3L400,262.3L400,300Z" fill="#2c2c34" stroke="#474751" stroke-width="0.8"/><path d="M400,226L399.6,226L396.9,230.6L400,230.9L400,262.3L400,262.3L394.8,262.3L388.4,264.2L383.4,262.4L380.1,264.6L380.1,264.6L373.2,259.3L371.3,255.9L366.9,257.6L363.2,257.1L361.1,258.4L357.6,257.4L352.8,250.9L351.5,248.4L345.6,245.2L343.6,240.4L340.3,237L335,232.8L334.9,230.2L330.6,227L325.2,223.9L327.6,223L330.3,221.5L332.4,214.4L334.5,210.6L340.2,209.5L341.6,211.7L345.7,216.4L347.9,217.1L350.7,215.7L356.4,216L357.5,217.7L365.4,217.7L365.6,216L369.7,214.5L370.5,212.1L373.5,210.5L380.2,215.2L384.3,214.4L388.2,208.6L392.5,204.1L391.9,199.3L389.9,196.9L394.7,196.5L395.2,194.7L398.9,195.3L398,201.2L398.9,207L400,207.9L400,226Z" fill="#2c2c34" stroke="#474751" stroke-width="0.8"/><path d="M243.8,182.9L242.4,182.9L241.6,183.1L240.6,184L239.4,184.3L238,185L237.2,185.5L236.3,186L235.2,187L234.8,187.8L233.6,188L232.1,187.9L231.1,187L228.7,186.2L227.2,185.8L226.5,185.7L222.9,185.6L219.1,185.9L217.1,186.3L216.8,186.4L215.7,186.9L214.8,187.5L212.3,190.1L209,190.1L207.1,189.8L205.4,189.4L203.1,188.1L200.2,186.2L199.1,186L198.2,185.8L197.8,185.9L194.4,187.7L193.7,187.7L193,187.9L192.4,188.4L192,188.6L191.6,188.6L191.1,188.5L190.6,188.3L190,187.7L188.6,185.6L188.3,185.3L187.7,184.7L186.7,183.7L186,183.2L185.6,183.1L185.1,183.2L182.4,182.4L179.7,181.5L179.1,181.6L178.6,181.8L177.7,182.5L176.5,182.6L175.2,182.5L174.4,182.4L173.1,182.7L172.3,182.9L171.2,183.3L169.8,184.5L169.4,184.7L169,184.9L168.5,188.2L168.1,189.1L167.4,190.4L166,191.7L165,192.4L165,193.4L165,195.1L165,196.2L165,197L164.8,197.3L164.8,197.6L164.8,198.1L165.1,198.3L165.2,198.6L165.1,198.9L164.6,199.2L164.2,198.4L163.5,197.9L162.8,197.7L162.3,197.3L162.1,196.8L161.1,195.8L159,193.7L158.7,193.7L158.4,193.6L157.8,193.8L157.4,194.2L157.2,194.3L156.8,194.3L155.7,194.6L154.9,194.9L154.9,195.2L155.3,196.7L155.1,197.5L154.7,197.1L153.6,195.6L152.7,194.5L152.6,194.2L152.5,193.8L152.6,193.6L152.9,193.5L153.6,193.4L153.8,193.3L153.8,192.9L153.7,192.4L153.3,191.6L152.9,191L152.6,190.9L152.2,190.9L151.7,191L150.8,191.6L150.4,191.7L149.4,191.7L148.6,191.6L148.1,191.2L146.6,189.9L144.9,188.6L144.2,188.4L144,188.3L143.9,187.2L143.9,186L144,185.6L144.7,185.8L145.5,185.9L145.7,185.7L145.1,185.3L144.3,184.8L143.9,184.1L143.7,183.9L143.3,183.6L142.9,183.5L142.4,183.3L142.1,183.1L141.6,183L141.1,182.9L140.3,181.8L139.6,180.7L139.2,179.9L139,179.3L139.2,178.5L139,178.1L138.2,177.2L137.5,176.4L137.7,175.1L137.8,174.1L137.8,173.4L137.9,173L138,172.6L138.5,172.5L139.6,172.5L141.9,172.7L143.7,172.4L143.8,172.4L145.1,171.3L146.5,170.1L148.6,170L150.9,169.8L152.7,169.8L155.4,169.7L157.5,169.6L159.9,169.5L160,169L160.2,168.8L160.4,168.8L162.2,169.1L163.9,169.4L164,168.3L165.6,167L166.4,166.8L166.6,166.5L166.9,166.1L167,165.4L167.1,164.9L167.4,164.5L167.7,163.8L168,162.5L168.8,161.1L169.3,159.3L169.4,157.5L169.5,156.1L169.7,155.9L169.7,153.5L169.7,151L169.7,148.9L169.7,146.4L169.7,144.1L169.7,141.7L169.7,139.5L169.7,138L171.4,137.7L173.2,137.3L175.8,136.8L178.6,136.2L181.7,135.6L182.4,135.2L184.7,133.1L185.7,132.1L187.9,130.2L189.4,128.7L191.5,126.8L193.7,125L195.4,123.4L198.1,121.7L202.2,119.1L206.3,116.5L210.4,113.9L214.5,111.3L218.6,108.7L222.7,106.1L226.8,103.5L230.9,100.8L235,101.8L238.9,102.8L242.8,103.8L243.8,104.3L245.9,106.1L248.5,108.5L248.7,108.6L248.8,108.6L251.4,107.2L254.7,105.3L255.6,110.3L256.2,114.5L256.3,117.2L256.3,117.9L256.6,118.4L257.2,118.9L259.7,122.8L259.1,123.4L259.5,124.6L260.2,125.1L262.2,127.4L262.5,127.9L262.4,128.3L260.9,131L260.7,131.6L260.4,135L260.2,137.5L259.9,140.8L259.6,144.7L259.3,148.1L259,152.4L258.6,156.6L256.5,158.9L252.9,162.9L249.9,166.1L248.4,168.3L245.4,172.6L244.1,175.3L243.1,176.7L242.6,177.4L243,179.4Z" fill="#b8e653" stroke="#0c0e06" stroke-width="1"/></svg>
