<svg xmlns="http://www.w3.org/2000/svg" viewBox="0 0 300 300"><path fill="#e8e8ea" d="M257.7,47.9L261.2,52.7L264.9,57.9L267.7,61.9L269.8,72.3L270,74.3L270.2,75.1L270.4,76L270.6,77.4L272.2,78L275.4,78.3L277.6,79.3L279,81L279.1,81.3L279.8,82.6L280,83.5L279.8,86.2L279.3,89.7L278.5,92L279,95L278.8,96.3L278.5,97.2L277.1,98.3L275.2,99.3L270.8,102.2L269.4,102.6L267.5,102.7L265.9,103.5L263.9,105L259.8,111L256.2,116.9L254.9,121.8L253.6,126.5L250.4,129.5L250,131.2L249.8,132.1L249.7,134.4L249.4,138.1L248.9,139.9L248.3,140.5L245,141.6L243,143L241.8,145.7L241.4,148.6L240.7,152L240.3,154.9L239.8,156.4L238.7,158L237,159.7L235.5,160.7L231.6,161.3L229.5,165.1L227.9,168.2L227.8,169.4L226.2,175.6L223.3,180.4L223.1,182.1L223.1,183.4L219.6,187.5L218.6,188.8L217.7,190.4L218.6,191.9L219.6,193.3L219.7,193.8L218.2,195.1L215.3,197.4L213.6,198.8L213.2,199.5L213,203L212.5,203.9L211.4,205.2L209.8,206.6L208,207.7L206.2,208.4L204.4,208.7L203.3,208.2L202.7,207.2L201.7,203L201.1,202.1L200,201.3L197.6,198.9L195.3,196.6L192.4,195L191.8,195.1L191.3,195.5L190.5,197.9L189.7,198.7L188.2,199.1L185.6,199.1L183.7,198.7L183.3,198.3L182.9,197.3L182.3,196.4L180.1,198.1L176.5,200.7L175.3,201.1L174.4,201.6L173.2,204L171.8,206.6L169.9,208L168.1,209.1L167,210.1L165.6,211.3L162.7,214.2L158.7,218.1L157.4,220.1L156,223L155.2,226.4L154.4,230L153.1,235.8L151.2,239.1L149.6,241.7L148.4,243.8L147.8,245.5L147.5,245.4L146.9,246.2L145.1,245.7L144.2,244.2L143.1,244L141.2,241.8L140.8,242.1L142.8,247.6L142,249.8L136.3,249.8L131.3,250.6L127.9,250.5L126.2,249.7L125.4,247.7L125.2,247.9L125,249L123.9,249.8L120.1,250L118.4,248.6L117,247L115.6,246.4L115.8,247L117.5,248.6L117.3,250.8L114.2,253.3L112.3,253.4L111,252.3L110.4,250.6L110.1,247.9L109.3,246.2L108.8,246.2L109.2,247.8L109.4,249L109.4,251.7L110.8,253.8L108.6,254.5L107.7,254.5L105.9,254.5L105.6,253.8L105.2,252L104.7,251.6L104.2,254.5L103,254.7L102.2,254.7L98.6,255.3L97.8,255.2L97.7,254.7L98.1,253.9L98,252.5L96.8,253.6L96.6,255.6L95.9,255.9L93.8,255.6L91.5,254.6L90.1,253.5L87.7,252L83.2,247.8L82.4,246L81.1,243.7L80.1,241.3L78.7,237.3L79.1,237L80.2,237.4L80.7,236.8L78.8,236.3L78.4,235.9L78.3,234.5L78.4,232.8L79.9,232.2L81.3,231.9L81.9,230.8L82.3,229.8L78.8,231.4L75.4,229.6L74.7,228.5L75,227.6L76.7,227.5L78.9,227.6L80.3,226.8L79.5,226.5L78,226.5L77.5,226L77.5,224.7L77,224.9L76.4,226.1L74.1,227L72.8,226.1L72.7,224.2L72.4,223.4L71.3,222.7L67.3,217.7L62.4,213.5L57.9,210.6L51.4,209.3L37.4,209.3L36.6,208.9L37.5,208.3L38.7,207.8L43.2,205.5L42.4,205.2L37.8,206.6L36.1,206.8L34.1,209.6L21.9,210L20.4,210.2L20.5,208.9L21,205.2L21.4,203.8L21.9,202.7L21.4,201.4L20.9,199.6L20.7,196.8L21.3,195.9L21.5,194.9L21.4,193.2L21.4,187.7L21.7,187.1L22.1,186.6L22.1,185.9L21.4,184.5L20.7,182.8L20.7,180.5L20.5,178.2L20,177.2L20.3,173.3L20.5,168.4L20.3,166.2L20.8,164.7L21,160.9L21,157.2L21.9,151.3L24.6,151L27.8,150.5L29.2,148.2L30,145.3L29.8,142.4L30.4,141.5L31.7,139.9L34,137.7L33.9,135.2L34.5,134.4L35.6,133.9L37.2,133.6L39,132.3L39.9,130.2L40.9,126.8L39.4,124.3L39.4,123.8L40,122.5L40.9,121.2L41.6,120.9L43.4,121.2L43.6,121L43.9,120.7L45,116.9L44.8,115.8L43.3,113.3L43,111.5L42.8,108.8L42.4,106.4L41.9,105.5L41.1,104.7L40.7,104.2L37.4,99.4L37.5,97.1L38.9,94.1L39.8,92.7L41,91.9L41.2,91.2L40.9,90.4L40.3,89.8L40.1,88.5L40.3,87.6L40.8,86.6L40.6,84.5L40.6,81.5L40.9,76.9L40.9,74.1L43.6,72.1L47.4,68.6L49.4,65.1L50.5,62.4L51.8,53.4L52.8,52.8L53.9,52.4L57.8,49.1L60.8,47.9L63,47.2L66.5,46.6L68.7,46.9L72.5,47L75.7,46.7L78.2,44.9L79.4,44.4L81.1,44.1L88.6,46.5L96.1,48.8L97.5,48.6L98.6,48.9L100.5,50.1L103.3,52.8L105,54.5L105.8,55.5L109.7,61.2L111.1,62.7L112.5,63.4L114,63.7L115.2,63.6L116.2,63L117.7,61.7L119.9,61.1L121.7,61.2L131.1,56.1L132,56L134.7,56.4L137.7,57.1L145.6,62.3L152,65.7L156.5,66.8L161.8,67.6L170.9,67.9L177.7,60.6L180.2,59L183.3,57.6L184.2,57.4L189.5,56.3L200.1,55.3L209.9,55.7L211.9,56L216.1,57L222.5,59.3L225.4,61.6L229.7,62L232.8,61.5L233.9,59.3L237,56.3L239.3,55.1L241.7,53.6L245.6,51.7L248.7,50.8L251.6,48.6L253.8,47.9Z"/></svg>
