<svg xmlns="http://www.w3.org/2000/svg" viewBox="0 0 400 300"><path d="M240.4,300L241.6,298.1L245.4,295.8L248.1,296.9L251.7,292.9L257.5,293L258.1,296L262,297.8L268.2,291.3L274.3,286.1L276.9,282.8L276.6,274.1L281.1,264L285.9,258.6L292.8,253.5L294,250.2L294.3,246.4L296,242.7L295.4,236.8L296.7,227.5L298.8,221L301.9,215.4L302.5,209L303.5,201.7L307.5,196.4L313.1,193L321.8,196.6L328.4,200.4L336.1,201.5L343.9,203.5L347,197.2L348.5,196.4L353.2,197.4L364.9,192.2L369,194.4L372.4,194.1L374,191.6L377.9,190.6L385.8,191.8L392.5,192L395.9,190.9L400,196.5L400,300Z" fill="#2c2c34" stroke="#474751" stroke-width="0.8"/><path d="M400,144.7L393.2,144.4L389.4,146.2L386.5,145.3L381.1,139.1L379.3,136.2L371.8,137.6L368.9,142.5L366.2,152L362.6,154L359.4,155.2L366.5,159.3L366.5,159.3L358.6,154.7L354.9,151.6L354.3,148.3L356,143.9L355.9,139.6L349.9,132.9L348.7,128.4L348.8,125.8L345,122.6L344.9,116.4L342.7,112.3L339,112.9L340.1,109L342.8,104.5L341.6,100L345,96.7L342.8,94.2L345.6,87.5L350.4,79.5L359.4,80.3L358.9,36.7L359,32L371.1,32L371.1,9.6L400,9.6L400,144.7Z" fill="#2c2c34" stroke="#474751" stroke-width="0.8"/><path d="M287.8,0L317.1,15.3L358.9,36.7L358.9,36.7L359.4,80.3L350.4,79.5L345.6,87.5L342.8,94.2L345,96.7L341.6,100L342.8,104.5L340.1,109L339,112.9L342.7,112.3L344.9,116.4L345,122.6L348.8,125.8L348.7,128.4L342.1,130.2L336.8,134.5L329.2,146.1L319.4,151L309.2,150.4L306.3,151.3L307.3,155.1L301.9,158.8L297.4,162.9L284.2,166.9L281.6,164.5L279.9,164.3L278,167L269.3,167.8L270.9,165L267.7,157.7L266.2,153.3L261.6,151.5L255.5,145.3L257.7,140.3L262.5,141.4L265.4,140.6L271.3,140.7L265.6,131.1L266,124L265.3,116.9L261.1,110L262.2,104.9L255.5,104.7L255.5,97.8L251.1,93.8L255.6,79.5L269,69.2L269.5,54.9L273.6,32.5L275.8,27.7L271.5,23.8L271.3,20.3L267.4,17.4L264.9,0L287.8,0Z" fill="#2c2c34" stroke="#474751" stroke-width="0.8"/><path d="M0,84.7L3.8,83.3L7.8,84L9.4,81.6L51.4,81.5L53.7,73.8L51.9,72.5L46.9,24.8L44.3,0L92.3,0L92.3,0L93.1,0.6L128.5,25.2L130.9,30.4L137.5,33.6L142.3,35.4L142.4,42.5L154,41.4L154.1,66.7L148.4,74L147.4,80.7L138.1,82.5L123.9,83.4L120,87.2L113.3,87.7L106.6,87.7L104,85.6L98.2,87.2L88.4,91.7L86.4,95L78.3,99.9L76.9,102.7L72.5,104.8L67.4,103.4L64.6,106L63,113.4L54.7,122.3L55,125.9L52.1,130.4L52.8,136.6L48.5,138.2L46,139.5L44.4,134.9L41.4,136.2L39.6,136L37.7,139.1L29.6,139L26.7,137.4L25.3,138.3L22.1,135.3L22.7,132.1L21.4,130.9L19.1,131.9L19.5,128.4L21.7,125.7L17.4,121.2L16.2,118.2L13.8,115.9L11.7,115.6L9.2,117.1L5.8,118.6L3,120.9L0,120.3L0,84.7Z" fill="#2c2c34" stroke="#474751" stroke-width="0.8"/><path d="M44.3,0L46.9,24.8L51.9,72.5L53.7,73.8L51.4,81.5L9.4,81.6L7.8,84L3.8,83.3L0,84.7L0,0Z" fill="#2c2c34" stroke="#474751" stroke-width="0.8"/><path d="M137.5,180.1L128.9,181.3L126.3,174.1L126.8,149.8L124.7,147.6L124.3,142.4L120.7,138.7L117.5,135.5L118.8,129.9L122.4,128.7L124.5,124L129.6,123L131.9,119.8L135.4,116.7L139.2,116.7L147.2,122.8L146.8,126.4L149.1,132.7L147.1,137L148.2,139.9L143.1,146.4L139.8,149.7L137.9,156.4L138.1,163.1Z" fill="#2c2c34" stroke="#474751" stroke-width="0.8"/><path d="M264.9,0L267.4,17.4L271.3,20.3L271.5,23.8L275.8,27.7L273.6,32.5L269.5,54.9L269,69.2L255.6,79.5L251.1,93.8L255.5,97.8L255.5,104.7L262.2,104.9L261.1,110L258.2,110.6L257.8,114L255.9,114.3L248.8,102.5L246.3,102.1L238.2,108.1L230.1,104.9L224.4,104.3L221.4,105.8L215.2,105.5L209.1,110.1L203.8,110.3L191.1,104.8L186.1,107.4L180.8,107.2L176.8,103.2L166.3,99.2L155.1,100.4L152.4,102.8L150.9,109L147.9,113.3L147.2,122.8L139.2,116.7L135.4,116.7L131.9,119.8L132.1,112.5L120.1,110.1L119.8,104.9L113.9,97.8L112.5,92.9L113.3,87.7L120,87.2L123.9,83.4L138.1,82.5L147.4,80.7L148.4,74L154.1,66.7L154,41.4L168.8,36.4L199.1,14.5L223.2,0L253.6,0L253.6,0L257.4,4L264.5,0L264.9,0Z" fill="#2c2c34" stroke="#474751" stroke-width="0.8"/><path d="M261.1,110L265.3,116.9L266,124L265.6,131.1L271.3,140.7L265.4,140.6L262.5,141.4L257.7,140.3L255.5,145.3L261.6,151.5L266.2,153.3L267.7,157.7L270.9,165L269.3,167.8L264,178.5L261.5,180.4L260.7,188.6L261.8,193L260.9,196.1L265.9,201.6L266.8,205.4L270.6,210.8L275.4,214.2L275.9,219L277,222L276.2,227.7L267.9,225.2L259.4,222.4L246.3,222L244.9,221.4L238.8,222.8L232.4,221.4L227.4,222.1L210.4,221.8L211.9,213.6L207.8,206.6L203,204.8L200.9,200.1L198.2,198.6L198.4,195.7L201,188.3L206,178.1L209.1,178L215.3,171.9L219.2,171.7L225.1,176L232.3,172.5L233.3,168.1L235.7,163.8L237.3,158.5L242.9,154.1L245,146.7L247.2,144.3L248.7,138.8L251.5,132L260.3,123.8L260.8,120.2L262,118.3L257.8,114L258.2,110.6Z" fill="#2c2c34" stroke="#474751" stroke-width="0.8"/><path d="M118.8,129.9L117.5,135.5L120.7,138.7L124.3,142.4L124.7,147.6L126.8,149.8L126.3,174.1L128.9,181.3L120.5,183.6L118.1,179.9L115.3,173.2L114.5,167.9L116.8,158.4L114.2,154.6L113.2,146.2L113.2,138.5L108.9,133L109.6,129.7Z" fill="#2c2c34" stroke="#474751" stroke-width="0.8"/><path d="M109.6,129.7L108.9,133L113.2,138.5L113.2,146.2L114.2,154.6L116.8,158.4L114.5,167.9L115.3,173.2L118.1,179.9L120.5,183.6L104,189.7L98.2,193.3L88.8,196.4L79.5,193.4L80,189.2L75.4,180.2L78.1,168.3L82.6,159.4L79.8,144.3L78.3,136.3L78.6,130.3L96.8,129.8L101.4,130.6L104.8,128.8Z" fill="#2c2c34" stroke="#474751" stroke-width="0.8"/><path d="M25.3,138.3L26.7,137.4L29.6,139L37.7,139.1L39.6,136L41.4,136.2L44.4,134.9L46,139.5L48.5,138.2L52.8,136.6L57.5,138.9L59.3,142.4L64.1,144.7L67.7,142L72.6,141.6L79.8,144.3L82.6,159.4L78.1,168.3L75.4,180.2L80,189.2L79.5,193.4L74.7,193.5L67.4,191.4L60.7,191.6L48.3,193.4L41,196.4L30.7,200.3L28.6,200L29.5,191.4L30.4,190L30.1,185.9L25.7,181.5L22.4,180.8L19.3,177.9L21.6,173.2L20.5,168.1L21,165L22.7,165L23.3,160.4L22.5,158.4L23.5,156.9L27.4,155.6L24.8,147.2L22.4,142.8L23.2,139.2Z" fill="#2c2c34" stroke="#474751" stroke-width="0.8"/><path d="M0,120.3L3,120.9L5.8,118.6L9.2,117.1L11.7,115.6L13.8,115.9L16.2,118.2L17.4,121.2L21.7,125.7L19.5,128.4L19.1,131.9L21.4,130.9L22.7,132.1L22.1,135.3L25.3,138.3L23.2,139.2L22.4,142.8L24.8,147.2L27.4,155.6L23.5,156.9L22.5,158.4L23.3,160.4L22.7,165L21,165L18.1,164.8L15.9,169L13,169L10.9,166.7L11.6,162.5L7.3,156L4.5,157.2L2.3,157.4L0,157.9L0,120.3Z" fill="#2c2c34" stroke="#474751" stroke-width="0.8"/><path d="M0,159.8L2.3,157.4L4.5,157.2L7.3,156L11.6,162.5L10.9,166.7L13,169L15.9,169L18.1,164.8L21,165L21,165L20.5,168.1L21.6,173.2L19.3,177.9L22.4,180.8L25.7,181.5L30.1,185.9L30.4,190L29.5,191.4L28.6,200L25.9,200.1L15.1,195.1L5.6,187.1L0,183.5L0,159.8Z" fill="#2c2c34" stroke="#474751" stroke-width="0.8"/><path d="M0,157.9L2.3,157.4L0,159.8L0,157.9Z" fill="#2c2c34" stroke="#474751" stroke-width="0.8"/><path d="M52.8,136.6L52.1,130.4L55,125.9L54.7,122.3L63,113.4L64.6,106L67.4,103.4L72.5,104.8L76.9,102.7L78.3,99.9L86.4,95L88.4,91.7L98.2,87.2L104,85.6L106.6,87.7L113.3,87.7L112.5,92.9L113.9,97.8L119.8,104.9L120.1,110.1L132.1,112.5L131.9,119.8L129.6,123L124.5,124L122.4,128.7L118.8,129.9L109.6,129.7L104.8,128.8L101.4,130.6L96.8,129.8L78.6,130.3L78.3,136.3L79.8,144.3L72.6,141.6L67.7,142L64.1,144.7L59.3,142.4L57.5,138.9Z" fill="#2c2c34" stroke="#474751" stroke-width="0.8"/><path d="M395.9,190.9L392.5,192L385.8,191.8L377.9,190.6L374,191.6L372.4,194.1L369,194.4L364.9,192.2L353.2,197.4L348.5,196.4L347,197.2L343.9,203.5L336.1,201.5L328.4,200.4L321.8,196.6L313.1,193L307.5,196.4L303.5,201.7L302.5,209L295.8,208.5L288.7,206.7L282.5,212.3L277,222L275.9,219L275.4,214.2L270.6,210.8L266.8,205.4L265.9,201.6L260.9,196.1L261.8,193L260.7,188.6L261.5,180.4L264,178.5L269.3,167.8L278,167L279.9,164.3L281.6,164.5L284.2,166.9L297.4,162.9L301.9,158.8L307.3,155.1L306.3,151.3L309.2,150.4L319.4,151L329.2,146.1L336.8,134.5L342.1,130.2L348.7,128.4L349.9,132.9L355.9,139.6L356,143.9L354.3,148.3L354.9,151.6L358.6,154.7L366.5,159.3L372.3,163.6L372.4,167L379.4,172.5L383.8,177.1L386.4,183.4L394.2,187.6Z" fill="#2c2c34" stroke="#474751" stroke-width="0.8"/><path d="M302.5,209L301.9,215.4L298.8,221L296.7,227.5L295.4,236.8L296,242.7L294.3,246.4L294,250.2L292.8,253.5L285.9,258.6L281.1,264L276.6,274.1L276.9,282.8L274.3,286.1L268.2,291.3L262,297.8L258.1,296L257.5,293L251.7,292.9L248.1,296.9L245.4,295.8L241.5,292.2L238.3,294L234.1,298.6L225.5,287.4L233.5,281.6L229.5,274.7L233.1,272.1L240.2,270.8L241,266.2L246.6,271.2L255.8,271.6L259,266.7L260.4,259.7L259.2,251.5L254.3,245.3L258.8,233.2L256.2,231.1L248.4,232L245.5,226.6L246.3,222L259.4,222.4L267.9,225.2L276.2,227.7L277,222L282.5,212.3L288.7,206.7L295.8,208.5Z" fill="#2c2c34" stroke="#474751" stroke-width="0.8"/><path d="M227.4,222.1L232.4,221.4L238.8,222.8L244.9,221.4L246.3,222L245.5,226.6L248.4,232L256.2,231.1L258.8,233.2L254.3,245.3L259.2,251.5L260.4,259.7L259,266.7L255.8,271.6L246.6,271.2L241,266.2L240.2,270.8L233.1,272.1L229.5,274.7L233.5,281.6L225.5,287.4L214.8,276.8L207.8,268.2L201.5,257.4L201.8,253.9L204.1,250.6L206.6,242.9L208.7,235.2L212.3,234.6L227.5,234.7Z" fill="#2c2c34" stroke="#474751" stroke-width="0.8"/><path d="M210.4,221.8L227.4,222.1L227.5,234.7L212.3,234.6L208.7,235.2L206.8,233.6Z" fill="#2c2c34" stroke="#474751" stroke-width="0.8"/><path d="M234.6,300L234.1,298.6L238.3,294L241.5,292.2L245.4,295.8L245.4,295.8L241.6,298.1L240.4,300L234.6,300Z" fill="#2c2c34" stroke="#474751" stroke-width="0.8"/><path d="M223.2,0L199.1,14.5L168.8,36.4L154,41.4L142.4,42.5L142.3,35.4L137.5,33.6L130.9,30.4L128.5,25.2L93.1,0.6L92.3,0L223.2,0Z" fill="#2c2c34" stroke="#474751" stroke-width="0.8"/><path d="M400,9.6L371.1,9.6L371.1,0L400,0Z" fill="#2c2c34" stroke="#474751" stroke-width="0.8"/><path d="M264.5,0L257.4,4L253.6,0L264.5,0ZM371.1,0L371.1,9.6L371.1,9.6L371.1,32L359,32L358.9,36.7L317.1,15.3L287.8,0L371.1,0Z" fill="#2c2c34" stroke="#474751" stroke-width="0.8"/><path d="M400,196.5L395.9,190.9L394.2,187.6L386.4,183.4L383.8,177.1L379.4,172.5L372.4,167L372.3,163.6L366.5,159.3L359.4,155.2L362.6,154L366.2,152L368.9,142.5L371.8,137.6L379.3,136.2L381.1,139.1L386.5,145.3L389.4,146.2L393.2,144.4L400,144.7L400,196.5Z" fill="#2c2c34" stroke="#474751" stroke-width="0.8"/><path d="M185.8,199.4L184.8,199.8L184.1,199.7L185,198.3L185.5,198.6L186.1,198.7ZM251.8,100.9L253.5,103.2L255.2,105.7L256.6,107.6L257.6,112.6L257.7,113.6L257.8,114L257.9,114.4L258,115.1L258.8,115.4L260.3,115.5L261.4,116L262,116.8L262,117L262.4,117.6L262.5,118L262.4,119.4L262.2,121L261.8,122.1L262,123.6L261.9,124.2L261.8,124.6L261.1,125.1L260.2,125.6L258.1,127L257.4,127.2L256.5,127.3L255.7,127.6L254.8,128.4L252.8,131.2L251,134.1L250.4,136.4L249.8,138.7L248.3,140.1L248.1,141L248,141.4L248,142.5L247.8,144.3L247.5,145.2L247.3,145.4L245.7,146L244.7,146.6L244.1,147.9L244,149.3L243.6,150.9L243.4,152.3L243.2,153.1L242.6,153.8L241.8,154.7L241.1,155.1L239.2,155.4L238.2,157.3L237.4,158.7L237.4,159.3L236.6,162.3L235.3,164.6L235.1,165.4L235.1,166.1L233.4,168.1L233,168.6L232.5,169.4L233,170.2L233.4,170.8L233.5,171.1L232.8,171.7L231.4,172.8L230.6,173.5L230.4,173.8L230.3,175.5L230.1,175.9L229.5,176.5L228.7,177.2L227.9,177.7L227,178.1L226.1,178.2L225.6,178L225.3,177.5L224.9,175.5L224.6,175L224,174.6L222.9,173.5L221.8,172.4L220.4,171.6L220.1,171.7L219.9,171.9L219.5,173L219.1,173.4L218.4,173.6L217.1,173.6L216.2,173.4L216,173.2L215.8,172.7L215.5,172.3L214.5,173.1L212.7,174.4L212.2,174.6L211.7,174.8L211.2,176L210.5,177.2L209.6,177.9L208.7,178.4L208.2,178.9L207.5,179.5L206.1,180.9L204.2,182.7L203.6,183.7L202.9,185.1L202.5,186.7L202.1,188.5L201.5,191.3L200.6,192.8L199.8,194.1L199.2,195.1L198.9,195.9L198.8,195.9L198.5,196.2L197.6,196L197.2,195.3L196.7,195.2L195.8,194.1L195.6,194.3L196.6,196.9L196.2,198L193.4,198L191,198.3L189.4,198.3L188.6,197.9L188.2,197L188.1,197.1L188,197.6L187.5,198L185.6,198.1L184.8,197.4L184.2,196.7L183.4,196.3L183.6,196.6L184.4,197.4L184.3,198.4L182.8,199.7L181.9,199.7L181.3,199.2L181,198.3L180.8,197.1L180.4,196.2L180.2,196.2L180.4,197L180.5,197.6L180.5,198.9L181.2,199.9L180.1,200.2L179.7,200.2L178.8,200.3L178.7,199.9L178.5,199.1L178.2,198.8L178,200.3L177.4,200.4L177,200.3L175.3,200.6L174.9,200.6L174.8,200.3L175.1,199.9L175,199.3L174.4,199.8L174.3,200.8L174,200.9L173,200.8L171.9,200.3L171.2,199.8L170.1,199.1L167.9,197L167.5,196.1L166.9,195L166.4,193.9L165.7,192L165.9,191.8L166.4,192L166.7,191.7L165.8,191.5L165.6,191.3L165.5,190.6L165.6,189.8L166.3,189.5L167,189.4L167.3,188.9L167.5,188.4L165.8,189.1L164.1,188.3L163.8,187.7L164,187.3L164.7,187.3L165.8,187.3L166.5,186.9L166.1,186.8L165.4,186.8L165.1,186.5L165.1,185.9L164.9,186L164.6,186.6L163.5,187L162.9,186.6L162.8,185.7L162.7,185.3L162.1,185L160.3,182.5L157.9,180.5L155.7,179.1L152.6,178.5L145.9,178.5L145.5,178.3L145.9,178L146.5,177.8L148.7,176.7L148.3,176.5L146.1,177.2L145.3,177.3L144.3,178.7L138.4,178.9L137.7,178.9L137.7,178.3L138,176.5L138.2,175.9L138.4,175.3L138.2,174.7L138,173.8L137.8,172.5L138.1,172.1L138.2,171.6L138.2,170.8L138.2,168.1L138.3,167.8L138.5,167.6L138.5,167.2L138.2,166.6L137.8,165.8L137.8,164.7L137.7,163.6L137.5,163.1L137.7,161.2L137.8,158.8L137.7,157.8L137.9,157.1L138,155.2L138,153.4L138.4,150.6L139.7,150.5L141.2,150.3L141.9,149.2L142.3,147.7L142.2,146.4L142.5,145.9L143.1,145.1L144.2,144.1L144.2,142.9L144.5,142.5L145,142.2L145.8,142.1L146.6,141.5L147.1,140.5L147.5,138.8L146.8,137.7L146.8,137.4L147.1,136.8L147.5,136.2L147.9,136L148.7,136.1L148.8,136.1L149,135.9L149.5,134.1L149.4,133.6L148.7,132.3L148.6,131.5L148.5,130.2L148.3,129L148.1,128.6L147.6,128.2L147.4,128L145.9,125.7L145.9,124.5L146.6,123.1L147,122.5L147.6,122.1L147.7,121.7L147.6,121.3L147.3,121L147.2,120.4L147.3,120L147.5,119.5L147.4,118.5L147.4,117L147.5,114.9L147.5,113.5L148.8,112.5L150.7,110.9L151.6,109.2L152.2,107.9L152.8,103.6L153.3,103.3L153.8,103.1L155.7,101.5L157.1,100.9L158.2,100.6L159.8,100.3L160.9,100.4L162.7,100.5L164.3,100.3L165.5,99.5L166.1,99.2L166.9,99.1L170.5,100.2L174.1,101.3L174.8,101.2L175.3,101.4L176.2,102L177.6,103.3L178.4,104.1L178.7,104.6L180.6,107.3L181.3,108L182,108.4L182.7,108.5L183.2,108.5L183.7,108.2L184.5,107.5L185.5,107.3L186.4,107.3L190.9,104.8L191.4,104.8L192.6,105L194.1,105.3L197.9,107.8L201,109.5L203.1,110L205.7,110.4L210,110.5L213.3,107L214.5,106.3L216,105.6L216.4,105.5L219,104.9L224.1,104.5L228.8,104.7L229.8,104.8L231.8,105.3L234.9,106.4L236.2,107.5L238.3,107.7L239.8,107.5L240.3,106.4L241.8,105L242.9,104.4L244.1,103.6L246,102.7L247.5,102.3L248.9,101.3L249.9,100.9Z" fill="#b8e653" stroke="#0c0e06" stroke-width="1"/></svg>
