<svg xmlns="http://www.w3.org/2000/svg" viewBox="0 0 400 300"><path d="M0,7.2L10.5,5.8L28.8,1.1L32.8,0L135.3,0L135.3,0L131.5,12.6L125.3,6L120.1,6.4L115.5,6.8L106.8,22.3L102.3,19.3L99.4,20.4L99.6,24.2L77,23.9L54.2,24L54.1,38.4L43.1,38.4L52.2,47L61.2,52.9L63.9,58.4L67.9,60L67.3,68.6L35.9,68.7L24.2,89.4L27.6,94.1L24.8,100L24.2,107.4L0,83.5L0,7.2Z" fill="#2c2c34" stroke="#474751" stroke-width="0.8"/><path d="M382.6,300L374.7,289.5L377.9,277.6L385.7,279.4L390.3,272L384.7,257.5L387.7,253.9L400,254.6L400,300Z" fill="#2c2c34" stroke="#474751" stroke-width="0.8"/><path d="M387.7,253.9L384.7,257.5L390.3,272L385.7,279.4L377.9,277.6L374.7,289.5L366.5,282.4L361.4,269.1L367.3,262.5L361.2,260.9L356.6,252.7L344.5,245.8L333.7,247.4L328.8,256L319,262.2L313.6,263L311.2,268.2L322.8,281.6L316.2,284.7L312.7,288.4L301.3,289.6L297,274.9L293.9,279.1L285.8,277.6L280.9,267.7L270.8,266.1L264.5,263.2L254,263.2L253.3,268.6L250.5,264.9L251.7,260L253.8,255L252.9,250.5L256.5,247.5L251.4,243.9L251.3,233.9L260.7,231.7L269.5,240.6L269,245.8L278.8,246.9L281,244.9L287.8,251L299.8,249.2L310.2,242.9L325,238L333.4,230.6L346.8,232L346,234.4L359.6,235.3L370.5,239.6L378.4,247Z" fill="#2c2c34" stroke="#474751" stroke-width="0.8"/><path d="M260.7,231.7L251.3,233.9L251.4,243.9L256.5,247.5L252.9,250.5L253.8,255L251.7,260L250.5,264.9L237.2,259.4L232.3,254.2L235.1,249.9L234.2,244.5L227.4,238.5L217.8,233.6L209.4,230.5L207.8,223.2L201.3,218.8L202.9,226L198.1,231.9L192.5,225L184.6,222.6L181.3,217.6L181.5,210L184.6,202.2L177.8,198.7L183.4,193.9L187.1,190.7L203.2,197.2L208.7,194L216.6,196.1L220.6,201.2L227.8,202.9L233.6,197.6L239.8,211.1L249.3,221.1Z" fill="#2c2c34" stroke="#474751" stroke-width="0.8"/><path d="M246,95.8L237.7,95.3L234.3,98.8L225.8,102.1L219.6,102.1L214.3,105.3L209.3,104.2L205.2,100.3L202.7,101.1L199.5,107.1L197.1,106.9L196.8,112L188.2,119L183.7,122L181.2,125.1L174,120L168.7,126.7L163.6,126.6L157.9,127.2L158.4,139.5L154.8,139.7L151.7,145.5L144.2,146.5L139.9,138.7L132.6,136.5L134.2,126.4L130.9,123.7L125.9,121.9L115.1,124.9L114.3,121.5L106.9,117.5L101.6,112.4L94.4,110.3L99.5,103.9L97.5,98.9L99.3,94.1L110.8,87L122,77.3L124.5,78.3L129.9,73.8L136.9,73.5L139.1,75.5L142.9,74.3L154.3,76.6L165.5,75.9L173.5,73.1L176.3,70.3L184.1,71.6L189.9,73.3L196.3,72.7L201.2,70.5L212.3,74L216.2,74.6L223.7,79.3L230.7,85L239.6,88.9Z" fill="#2c2c34" stroke="#474751" stroke-width="0.8"/><path d="M94.4,110.3L101.6,112.4L106.9,117.5L114.3,121.5L115.1,124.9L125.9,121.9L130.9,123.7L134.2,126.4L132.6,136.5L129.8,142.4L115.7,142L106.9,139.6L96.8,134.6L83.2,133L76.3,127.6L77,124L85.4,117.6L90,114.8L88.7,111.9Z" fill="#2c2c34" stroke="#474751" stroke-width="0.8"/><path d="M24.2,107.4L24.8,100L27.6,94.1L24.2,89.4L35.9,68.7L67.3,68.6L67.9,60L63.9,58.4L61.2,52.9L52.2,47L43.1,38.4L54.1,38.4L54.2,24L77,23.9L99.6,24.2L99.4,44.5L97.5,73.3L104.8,73.3L112.7,77.9L114.8,74.1L122,77.3L110.8,87L99.3,94.1L97.5,98.9L99.5,103.9L94.4,110.3L88.7,111.9L90,114.8L85.4,117.6L77,124L76.3,127.6L63.8,123.3L48.5,122.8L37.3,117.8Z" fill="#2c2c34" stroke="#474751" stroke-width="0.8"/><path d="M99.6,24.2L99.4,20.4L102.3,19.3L106.8,22.3L115.5,6.8L120.1,6.4L120.2,10.2L124.9,10.3L124.5,17.3L120.5,28.4L122.6,32.4L120.1,41.6L121.6,44L118.8,56.9L114,63.6L109.6,64.4L104.8,73.3L97.5,73.3L99.4,44.5Z" fill="#2c2c34" stroke="#474751" stroke-width="0.8"/><path d="M400,22.6L398.6,22.7L391.3,27L377.5,22.8L363.5,13.5L366.5,7.6L376.7,5.8L382.4,6.7L382.4,6.7L398.8,9L400,9.5L400,22.6Z" fill="#2c2c34" stroke="#474751" stroke-width="0.8"/><path d="M245.8,95.9L245.1,96.9L244.4,97.5L242.8,100.5L242.2,100.8L242.2,98.5L241.3,98.2L240.1,99L239.5,100.1L240.5,101.7L241.4,101.7L242.3,102.1L245.1,112.4L244.4,114.3L242.8,117.1L241.2,119.5L239.6,121.1L237.6,127.5L235.8,138.1L237.1,147.5L236.4,156.2L237,158.3L237.1,160.9L235.8,161.3L235.1,161.3L234.3,159.6L234.4,158.3L235.2,156.6L235.6,154.5L235.1,153.3L234.3,155.8L233,157L232.1,157.3L231.2,158.6L232.1,161L233.4,162.7L233.7,164L233.3,165.5L233,170.5L232.6,170.4L232.1,169.7L230.9,169.7L230.7,171.7L230.8,172.8L229.8,173.7L229.4,174.6L230.3,175.2L231.2,175.6L232.4,175.5L233.4,178L233.7,180.1L231.4,182L230.6,183.5L229.4,185.4L228.7,187.3L228.4,188.6L229.3,192.8L230.9,195.8L232.2,197.7L234,198.2L233.5,200.1L232.2,201.4L229.8,202.5L227.2,202.6L222.9,201.7L221.1,201.5L220.4,201L220.2,200L218.9,198.5L216.7,196.6L215.4,196.7L213.3,196.3L209.7,195L208.1,194.8L205.7,196L203,197.4L196.4,195.1L191.8,193.4L187.6,191.9L186.5,191.4L185.6,191.5L184.8,192.3L183.9,193.7L183.6,194L183.1,194.4L182.6,194.5L182.6,193.9L180.5,191.1L177.3,187.8L164.9,177.7L160.3,171.6L157.9,167.2L155.5,164.9L148.8,160.3L147.3,158.4L140.6,152.2L135.6,148.5L135.5,147L137.7,145L138.6,145.1L139.8,146.5L141.5,148.1L142.4,148.1L143.6,147.4L143.6,146.6L150.5,146.3L151.6,145.9L152.9,144.8L153.6,143.2L153.7,141.6L153.9,140.5L155,139.4L157,139.1L158.5,139L158.9,138.2L158.5,135.9L157.7,130.2L157.5,128.6L157.8,127.4L158.4,126.9L161.4,126.7L167.1,127.2L168.3,126.8L170.6,123.5L172.7,121.1L174.2,120L175.4,119.7L176.7,121.9L181.5,124.9L182.3,124.7L182.9,124.5L183,124.1L183,122.7L184.1,121.4L186.7,120.3L189.1,118.2L191.7,115.3L193.9,113.6L195.7,113.1L196.4,112.3L196,111.3L196.1,109.7L196.9,107.7L197.9,106.6L199.3,106.3L199.8,105.7L199.6,104.7L199.8,103.7L201.2,102L204.2,100.5L205.9,101.1L207.4,103L209.4,104.3L212.1,105L214.1,104.8L215.6,103.5L216.9,103.2L218.1,103.7L218.7,103.4L218.8,102.3L219.4,102.1L220.5,102.7L221.6,102.8L222.5,102.6L222.8,102L223,101.5L223.6,101.2L225.9,101.5L228.4,100.9L231.3,99.4L233.2,98.7L234.2,98.9L235.2,98.1L236.5,96.3L239.5,95.5Z" fill="#b8e653" stroke="#0c0e06" stroke-width="1"/></svg>
