<svg xmlns="http://www.w3.org/2000/svg" viewBox="0 0 300 300"><path fill="#e8e8ea" d="M280,24.6L278.5,26.8L276.7,28.2L272.9,35.4L271.7,36L271.5,30.7L269.4,30L266.7,31.9L265.3,34.5L267.6,38.2L269.6,38.2L271.9,39.1L278.3,63.5L276.9,67.8L272.9,74.5L269.2,80.3L265.5,83.9L260.7,99.2L256.6,124L259.5,146.3L258,166.8L259.3,171.7L259.7,177.8L256.6,178.8L254.9,178.7L253,174.9L253.2,171.7L255.1,167.8L255.9,162.7L254.9,159.9L253,165.9L249.9,168.5L247.8,169.5L245.8,172.4L247.8,178.1L250.7,182.2L251.6,185.1L250.5,188.6L249.9,200.6L248.9,200.3L247.8,198.7L244.9,198.5L244.5,203.4L244.7,206L242.2,208.2L241.4,210.2L243.5,211.6L245.8,212.6L248.5,212.4L251,218.3L251.6,223.1L246.2,227.6L244.3,231.3L241.4,235.6L239.7,240L239.1,243.2L241.2,253.2L244.9,260.2L248,264.7L252.2,265.7L251.2,270.4L248,273.4L242.4,275.9L236.2,276.3L226,274L221.9,273.7L220.2,272.5L219.6,270.1L216.7,266.7L211.5,262.1L208.4,262.4L203.4,261.4L194.9,258.2L191.2,257.8L185.6,260.5L179.2,264L163.6,258.5L152.6,254.6L142.8,251.1L140.1,249.7L138.1,250L136.2,251.9L134.1,255.1L133.3,256.1L132.3,257L131,257.2L131,255.6L126,249.1L118.6,241.4L89.3,217.5L78.5,203.2L72.7,192.8L67.1,187.4L51.3,176.4L47.8,172L32,157.4L20.2,148.6L20,145L25,140.4L27.3,140.6L30,143.9L34.1,147.6L36.2,147.7L39.1,146L39.1,144.2L55.3,143.5L58,142.5L60.9,139.8L62.5,136L62.7,132.4L63.4,129.7L65.9,127.2L70.6,126.4L74.2,126.1L75.2,124.4L74.2,118.8L72.3,105.4L71.9,101.5L72.5,98.8L74,97.7L81,97.1L94.5,98.3L97.2,97.3L102.6,89.7L107.6,84L111.1,81.5L114,80.7L117.1,85.8L128.5,92.9L130.4,92.5L131.6,92.1L131.8,91L131.8,87.7L134.5,84.8L140.6,82.1L146.4,77.2L152.4,70.4L157.6,66.4L161.9,65.1L163.6,63.3L162.6,60.8L162.8,57.2L164.6,52.4L167.1,49.7L170.4,49L171.7,47.6L171.1,45.3L171.7,42.9L174.8,38.9L181.9,35.5L186,36.7L189.5,41.3L194.3,44.4L200.5,46L205.3,45.4L208.8,42.5L211.9,41.7L214.6,42.8L216.1,42.2L216.3,39.7L217.7,39.2L220.4,40.5L222.9,40.9L225,40.2L225.8,39L226.3,37.9L227.7,36.9L233.1,37.9L239.1,36.4L246,32.8L250.3,31.1L252.6,31.5L255.1,29.7L258.2,25.5L265.3,23.7Z"/></svg>
