<svg xmlns="http://www.w3.org/2000/svg" viewBox="0 0 300 300"><path fill="#e8e8ea" d="M189.6,280L183.6,279.8L178.1,279.7L175.1,279.2L171.9,277.7L170.4,274.8L168.7,271.4L169.1,269.1L174.5,263L175.3,261.2L174.7,260.4L175.3,257.6L179.4,248.5L179.8,244.7L178.1,242.1L175.3,240.6L166.8,237.8L162.7,234L161,230.6L159.1,229.6L156.3,230.7L149.3,232L143.5,230.2L136.6,223.8L135.2,218L134.3,213.7L132.6,212.1L130.2,214.4L127.5,218L121.7,218.4L120.2,217.5L119.8,215.5L119.6,213.7L117.9,211.4L116.4,210.1L109.1,216.7L106.3,216.5L102.9,214.1L101.2,211.6L97.6,213.1L94.1,216L95.4,221.8L93.5,222.8L89.4,222.3L84.7,220L79.6,218.5L71.7,214.6L60.8,217.9L53.1,213.9L46.9,213.6L42.9,210.4L38.8,205.3L41.8,201.8L44.6,200.6L56.1,200L64.7,202.1L79.8,213.4L83.7,213.2L87.7,211.9L85.6,208.8L81.8,207.3L76.2,204.3L71.7,200L82.2,198.7L80.7,196.5L79.4,192.7L68.3,179.5L70.2,175.9L73,168.2L76.4,161.8L79.2,160.2L83.9,155.6L93.7,142.2L100.1,131.3L104.8,118.5L111.7,82.5L113.8,76.3L117,69.5L121.3,70.9L124,72.8L134.3,67.6L152,54.3L157.2,42.6L162.3,37.3L182.6,26.6L193.7,23.5L211,22.6L223.6,20.7L238.5,20L244.3,26.6L247.5,31.4L252.9,34L261.2,35.9L260.5,45.3L260.8,63.9L260.1,67.1L256.3,75L252.4,88.8L251.4,98L250.3,99.8L234.5,99.7L232.3,101.4L231.9,103.2L232.8,105.6L232.3,108L231.1,109.8L231.7,112.9L234.5,116.3L239.4,118.5L244.7,118.6L247.5,118.3L249.4,120.7L251.6,124.4L251.4,129.3L250.5,135.5L248.2,141.4L240.9,148.1L237.5,150.5L234.5,151.8L233,153.5L232.3,155.8L232.6,157.8L237.7,163.2L237.5,164.4L236,167.2L234.1,169.9L220.8,175.4L215.3,174.9L212.3,177.5L211.2,178.2L207.8,175.5L199.9,172.7L197.1,173.7L195.4,175.4L190.5,177.2L187.1,180.2L187.1,184L193.3,194L195.4,196L195.4,199.8L198.4,204.5L201.6,210.3L201.8,213.9L201.6,217.7L199.9,223L194.5,235.3L194.5,237.8L195,239.6L196.9,240.1L198.2,241.1L197.7,242.7L187.7,251.3L186.4,252.7L182.4,252.2L181.7,253.7L182.1,256L183.9,258.1L187.5,259.1L190.5,261.2L193,265.5ZM84.7,220L83.9,223.6L81.8,227.6L73.8,233.2L65.5,237L61.5,236.5L58.5,234.5L57,232.5L52.5,230.6L46.5,229.6L42.7,231.7L40.1,233.7L37.7,233.4L36,231.7L34.5,229.1L32.8,220.8L37.3,219.3L47.1,218.7L54.6,221.7L64.4,223L72.1,219L78.1,222.5Z"/></svg>
