<svg xmlns="http://www.w3.org/2000/svg" viewBox="0 0 400 300"><path d="M0,284.2L22.8,289.5L15.1,247.1L38.2,263.3L95,233.8L102.4,202.3L123.8,194.5L127.3,208.1L138.7,208.8L150,224.2L167.1,242.2L179.7,239.3L201,256.5L206.5,259.8L213.5,259L213.5,259L225.1,268.8L260.2,275.7L248.4,300L0,300Z" fill="#2c2c34" stroke="#474751" stroke-width="0.8"/><path d="M400,20.7L378.6,22.2L374.4,0L400,0Z" fill="#2c2c34" stroke="#474751" stroke-width="0.8"/><path d="M382,300L385.9,297.9L394.6,280.9L400,284.5L400,300Z" fill="#2c2c34" stroke="#474751" stroke-width="0.8"/><path d="M400,205.6L388.2,210.6L379.2,220.2L361.4,228.5L365.7,239.9L368.4,255.8L380.8,264.9L394.6,280.9L385.9,297.9L382,300L248.4,300L248.4,300L260.2,275.7L225.1,268.8L213.5,259L214.9,242.4L210,233.8L212.8,207.8L208.7,166.9L223.4,166.9L229.5,152L235.6,115L231.1,101.2L235.9,92.5L256.3,90.3L260.9,99.3L277.4,79L271.9,63.3L270.7,39.3L289.2,44.9L304.8,38.4L305.2,54.8L329.9,64.6L329.6,79.4L354.5,71.6L368.3,60.1L395.8,76.6L400,81.4L400,205.6Z" fill="#2c2c34" stroke="#474751" stroke-width="0.8"/><path d="M210,233.8L214.9,242.4L213.5,259L206.5,259.8L201,256.5L203.7,235.3Z" fill="#2c2c34" stroke="#474751" stroke-width="0.8"/><path d="M212.8,207.8L210,233.8L203.7,235.3L201,256.5L179.7,239.3L167.1,242.2L150,224.2L138.7,208.8L127.3,208.1L123.8,194.5L143.3,186.8L161.3,189.9L183.9,181.7L199.4,198.8Z" fill="#2c2c34" stroke="#474751" stroke-width="0.8"/><path d="M308,0L298.2,17.5L304.8,38.4L304.8,38.4L289.2,44.9L270.7,39.3L260.8,15.5L260.5,0L308,0ZM368.3,0L372.4,11.5L357.8,46.2L332.2,22.1L328.8,4.1L339.1,0L368.3,0Z" fill="#2c2c34" stroke="#474751" stroke-width="0.8"/><path d="M12,0L13.3,3.1L35.1,53.6L51.9,60.4L66.9,107.6L73.8,123.7L103.5,131.4L100.5,157.1L88,168.7L97.8,189L75.8,209.4L43.1,209L1.5,219.6L0,218.6L0,0Z" fill="#2c2c34" stroke="#474751" stroke-width="0.8"/><path d="M400,284.5L394.6,280.9L380.8,264.9L368.4,255.8L365.7,239.9L361.4,228.5L379.2,220.2L388.2,210.6L400,205.6L400,284.5Z" fill="#2c2c34" stroke="#474751" stroke-width="0.8"/><path d="M208.8,209.9L206.3,209.8L204,209.8L202.8,209.6L201.5,209L200.9,207.8L200.2,206.4L200.3,205.4L202.5,202.9L202.9,202.2L202.6,201.9L202.9,200.7L204.6,196.9L204.7,195.4L204,194.3L202.9,193.7L199.4,192.5L197.7,191L197,189.6L196.2,189.1L195.1,189.6L192.2,190.2L189.8,189.4L187,186.8L186.4,184.4L186,182.6L185.3,181.9L184.3,182.9L183.2,184.4L180.8,184.5L180.2,184.2L180,183.4L179.9,182.6L179.2,181.7L178.6,181.1L175.6,183.8L174.5,183.8L173.1,182.8L172.4,181.7L170.9,182.4L169.5,183.6L170,186L169.2,186.4L167.5,186.2L165.6,185.2L163.5,184.6L160.2,183L155.7,184.3L152.6,182.7L150,182.6L148.4,181.3L146.7,179.1L147.9,177.7L149.1,177.2L153.8,177L157.3,177.9L163.6,182.5L165.2,182.4L166.8,181.9L165.9,180.6L164.4,180L162.1,178.7L160.2,177L164.5,176.4L163.9,175.5L163.4,174L158.8,168.5L159.6,167L160.8,163.9L162.2,161.3L163.3,160.6L165.2,158.7L169.3,153.2L171.9,148.7L173.9,143.4L176.7,128.6L177.6,126.1L178.9,123.2L180.6,123.8L181.8,124.6L186,122.5L193.3,117L195.4,112.2L197.5,110L205.9,105.6L210.5,104.3L217.6,103.9L222.8,103.1L228.9,102.8L231.3,105.6L232.6,107.5L234.8,108.6L238.3,109.4L238,113.3L238.1,120.9L237.8,122.3L236.2,125.5L234.6,131.2L234.2,135L233.8,135.7L227.3,135.7L226.4,136.4L226.2,137.1L226.6,138.1L226.4,139.1L225.8,139.8L226.1,141.1L227.3,142.5L229.3,143.4L231.5,143.5L232.6,143.3L233.4,144.3L234.3,145.8L234.2,147.8L233.9,150.4L232.9,152.8L229.9,155.6L228.5,156.6L227.3,157.1L226.6,157.8L226.4,158.8L226.5,159.6L228.6,161.8L228.5,162.3L227.9,163.5L227.1,164.6L221.6,166.8L219.3,166.6L218.1,167.7L217.7,168L216.3,166.9L213,165.7L211.9,166.1L211.2,166.8L209.1,167.6L207.7,168.8L207.7,170.4L210.3,174.5L211.2,175.3L211.2,176.9L212.4,178.8L213.7,181.2L213.8,182.7L213.7,184.3L213,186.4L210.8,191.5L210.8,192.5L211,193.3L211.8,193.5L212.3,193.9L212.1,194.6L208,198.1L207.5,198.7L205.8,198.5L205.5,199.1L205.7,200L206.4,200.9L207.9,201.3L209.1,202.2L210.2,203.9ZM165.6,185.2L165.2,186.7L164.4,188.3L161.1,190.6L157.7,192.2L156,192L154.8,191.2L154.2,190.4L152.3,189.6L149.8,189.1L148.3,190L147.2,190.8L146.2,190.7L145.5,190L144.9,188.9L144.2,185.5L146.1,184.9L150.1,184.7L153.2,185.9L157.2,186.4L160.4,184.8L162.9,186.2ZM217.1,100L213.7,101.4L212.8,101.1L213.1,100.7L216.1,99.9ZM207.3,102.1L202.4,102.8L200.8,102.3L200.5,101.9L201.8,101.6L206,101.5L207.2,101.9ZM187.2,108.3L182.7,111.3L182.3,110.9L185.2,108.3ZM192.5,105.1L190.2,105.5L189.2,104.9L194.7,103.3L198.1,102.8L198.8,103ZM181.8,118L179.3,120.9L177.8,120.1L177.5,119.4L178.2,117.2L181.8,113.4ZM158.8,171.4L161.3,173.5L161.7,174.2L161.9,174.9L158.9,175.7L155.7,173.1L153.5,173.8L152.7,172.5L152.7,171.7L154.9,171.1ZM226.9,97.1L224.7,97.2L225.3,96.1L227.4,95.3L228.6,95.3Z" fill="#b8e653" stroke="#0c0e06" stroke-width="1"/></svg>
