<svg xmlns="http://www.w3.org/2000/svg" viewBox="0 0 300 300"><path fill="#e8e8ea" d="M172.5,70.4L171.4,70.5L168.2,70.8L169.6,72.8L170.1,73.6L170.2,74.8L169.9,77L169.3,78.9L168.5,80.4L167,81.9L169.3,83.3L167.7,85.3L167,86.1L166.2,85.9L164.7,85.3L161.1,83.6L159.3,83L157.8,82.8L157,82.8L153.7,81.4L153.1,81.6L151.9,82.2L151.8,83.5L151.9,87L152,89.6L151.6,91.1L151.2,92.1L149.8,94.9L146.9,93L144.9,91.8L143.6,93.4L140.4,96.4L138.7,102.3L138.6,102.5L137.6,104L136.4,104.7L135.4,105L134.9,106.8L136.2,109.2L136.8,110.5L137.5,112.6L137.3,113.9L137.2,114.8L135.8,116.5L132.9,120.9L130.1,125.5L129,126.8L129.5,130.6L128.6,131.7L126.7,133L125.8,133.5L124.8,133.7L121.6,134.2L122.2,138.3L122.4,140.1L122.4,141.2L122.1,142.2L121.7,144.2L121.1,151.1L120.7,151.8L120,153.7L118.1,158.2L116.5,161.1L114.2,165.3L116,166.6L117.8,167.6L118.1,169.1L118.3,171.5L118.3,173.2L117.6,174.7L117.1,175.7L116.8,176.2L114.3,175.7L111.2,175.1L110.4,175.1L108.6,175.5L107,176.5L106.1,177.3L105.9,177.6L104.8,179.5L102.9,182.7L101.8,184.2L102.2,186.1L100.4,189.8L101.5,193.6L101.6,193.7L102.2,195.2L101.6,196.2L101.3,196.7L101.4,198.4L101.6,200.4L101.4,201.5L101.3,202.7L102.9,208.3L102.9,209.5L102.8,210.4L102.3,213.8L101.7,218.3L102.8,219.5L104.4,220.9L105.4,221.5L106.7,223.1L107.7,224.8L107.6,225.9L107.3,227L106.9,227.9L106.5,229L106.3,229.9L106.1,230.1L104.3,230.2L103.3,230.5L102.9,230.8L103,232.7L104.1,236.2L105,238.7L105.3,240.3L105,241.9L104.7,242.7L104.7,243.9L104.4,246.1L103.7,247.2L102.8,248.4L101.8,249.3L101,249.6L100.3,249.7L99.8,250.1L99.4,251.5L99,252.9L97.7,254.6L97.7,255.2L98.2,257.3L98.7,259.6L98.3,261.8L98,264L97.4,265.5L96.6,266.1L96,265.8L95.3,263.7L95.2,263.3L95.1,262.6L93.1,262L92.8,262L92,261.7L91.6,261.6L90.6,261.3L89.9,259.5L89,258L88.9,257.4L88.9,254.5L88.7,253.2L88.6,251.8L88.1,252.9L88.4,254.7L87.8,255.5L87,255.8L87.1,256.9L87.4,257.1L87.5,258.2L87.3,259.8L85.7,263.3L85.4,263.7L85.2,264.2L84.3,263.9L83.3,264.9L82.4,265L82,263.9L80.6,262.4L79.9,262.5L80.5,263.2L81.1,264.2L80.8,264.8L80.5,265.2L79.9,265.4L77.9,266.7L78.6,267.5L78,268.4L77.3,268.6L76.9,269L76.8,269.6L74.7,271.3L71.3,275.6L69.5,276.8L68.3,278.1L67.2,278L65.9,279.1L62.5,280L60.2,279.6L58.6,279.9L57.8,279.2L57.6,278.7L57.7,278.4L57.9,278.1L57.6,277.9L56.9,277.9L56.7,278.2L56.6,279L56.3,279.3L55.1,278.8L54.8,278.4L55.3,277.6L56,276.8L55.9,276.6L55.7,276.2L55.4,276.1L54.3,276.2L53.5,276.1L50.7,274.4L50,273.5L47.8,272L46.7,270.5L46.2,268.8L46.2,267.2L46.5,264.8L47,264.1L49,265L51.1,266.4L51.4,266.4L52,265.2L53.3,264.3L52.9,264.1L51.1,265.1L50.4,264.5L49.3,263.3L49.3,262.7L49.8,262.1L49.9,261.3L49.7,260.5L49.8,259.5L50.6,258.3L51.9,257.2L52.8,256.1L53.7,255.4L53.6,255.2L52.6,255.6L51.5,256.3L50.4,257.6L48.9,258.6L47.9,258.9L47.4,259.3L46.6,259.6L45.8,261L44.9,261.6L43.3,261.7L43,260.7L43.4,256.9L43.9,255.1L44.4,253.8L45.2,253.6L45.8,252.6L46.3,252.6L46.7,253.1L48.3,253.5L49.1,252.3L50.2,252.1L52,250.9L52,250.7L50.7,250.9L49.9,251L48.8,251.3L48.2,251.1L48,250.1L48.4,249.3L50.2,247.3L50.8,246.5L51.1,245.6L51.1,245.1L51.4,244L53.1,241.9L54.5,241L55,241.8L54.6,244.3L54.6,245.3L55.7,241.7L56.2,240.8L56.8,240.2L58.2,239.8L58.5,239.2L57,239.4L53.1,240.8L51.5,242L51.1,243L49.9,244.4L49.4,245.3L49.2,246.7L48.6,247.4L47.7,247.7L46.5,249.4L46,250.8L44.8,251.8L44.1,252.7L43.8,253L43.4,253.8L43.1,253.9L42.8,253.4L42.7,252.3L42.8,250.6L43.4,249.4L43.7,248.2L43.3,247.1L43.6,246.4L44.1,246.4L45,246.7L46,246.7L47.6,245.8L47.4,245.3L46.7,245.2L45.3,245.3L44.3,244.4L43.4,242.7L43,240.4L43.3,239.7L46.4,237.3L47.3,236.2L46.8,236.1L45.6,237.5L43.9,238.3L42.8,237.1L42.3,235.9L41.9,233.3L42.1,232L41.9,230.2L42.7,229.6L43.5,229.9L44.3,230.1L46.1,229.9L50.1,228.9L52.6,229.5L53.7,229.4L55.3,228.5L56.7,228.4L57.8,229.1L58.3,229.9L58.4,231L58.9,231.7L59.2,231.5L59,230.6L58.9,229.3L63.1,227.8L63.6,227.2L61.9,227L61.5,225.7L62.4,223.6L62.3,223.3L61.3,224.4L60.9,226L61.1,227.2L60.9,227.8L60,228L58.1,228.1L56.9,227.6L55.7,227.3L55.3,226.9L55.4,226L55.2,225.9L54.8,226.6L54.3,228.2L53.4,228.6L50.9,228L47.3,228.3L45.6,229.1L44.6,229L42.7,227.6L42,226.5L41.8,224.3L41.9,223.3L43.3,222.9L44,223L44.7,222.5L44.1,222.1L43.3,221.4L42.7,220.1L41.8,219.7L41.2,218.5L41.1,216.7L41.3,215.5L41.7,215.1L42.8,215.4L45.8,215.2L48.5,216.4L50.4,217.1L54.1,216.8L56.3,215.7L55.9,215.4L53.5,216L51.3,216L47.4,214.7L45.8,214.3L44.1,214.5L43.2,214.1L42.7,212.9L43,210.5L43.9,210L44.3,210.6L44.9,210.7L45.4,209.7L45.9,209.1L46.3,207.8L47.9,206.6L48.5,206.5L49.5,205.9L50.1,206.1L50.4,206.6L50.9,207.1L52,207L55.1,206.1L55.4,205.8L56,205L54,205.3L52.4,205.9L51.4,206L51.2,205.3L51.6,204.7L52.2,204L52.5,202.9L53.2,202.4L53.9,202.4L55.4,202.2L56.4,201.9L58.2,202.1L61,202.5L62.7,203.6L63.3,203.5L64,203.2L64.4,202.8L63,202.4L62.9,201.7L63.1,201.3L65.3,200.4L67.7,200.2L67.3,199.5L62,200.5L60.6,199.8L59.5,199.8L58.8,200.2L56.7,200.7L56.4,200.4L56.7,199.1L58,197L58.1,196.5L58.6,196L61.8,194.8L63.4,193.4L64.1,193.2L64.7,193.3L65.8,193.2L67.8,193.6L68.7,195.3L69.5,195.9L72.2,198.1L72,197.4L69.8,194.5L68.9,193.7L68.3,192.3L68.5,190.9L69.2,189.9L71.8,189.5L72.2,188.9L72.3,188L71.9,187.4L70.9,187.4L70.2,187L70,186L70.3,185.3L71.8,184.1L72.6,183.6L74,183.2L76.4,184.2L76.6,184.7L75.9,186L76,186.6L76.6,186.7L78,184.7L79.6,184.4L80.3,183.9L81.1,183.6L82.3,185.5L82.7,186.1L83.1,186.3L83.5,187.9L83.8,188L84.3,187.2L85.2,186.8L86.5,186.5L88.6,186.9L89.5,186.6L90,186.7L89.6,185.3L89.3,184.9L89.7,183.6L90.2,183.1L91.6,182.2L93,181.8L93.9,181L95.1,180.2L94.9,179.6L94.6,178.9L93.8,178.8L93.5,178.4L94.5,177.5L95.8,176.4L95.6,176L94.6,175.6L93.8,175.9L92.6,176.7L91.3,178L91.7,178.4L92.4,179.4L91.5,180.9L86.5,184.6L84.1,185.7L83,185.6L82.7,184.5L82.3,183.8L81.7,182.2L80.8,182.2L80.3,182.6L80,182.1L80.4,180.4L81.2,179.1L82.5,178.1L83.1,176.9L83.7,174.9L85.6,173.1L88.4,168.5L90.6,167L91.4,165.4L92.8,164.7L93.9,163.4L94.8,163.3L96.4,162.1L97.3,160.7L96.7,160.7L95.3,161.6L94.5,161.9L94.5,160.4L94.9,158.9L96.1,157.6L101.7,153.5L102.3,154.2L102.9,155.4L104.6,155.1L106.6,152.8L108,150.3L107.2,150.8L106.4,151.8L104.7,153.2L103.9,153.4L103.4,153.3L103.2,152.3L102.6,152L102,152.2L101.5,151.5L101.4,149.9L102.1,147.4L102.7,145.7L103.3,144.5L105.6,140.9L106.1,138.9L107.2,137.9L108.6,138.1L109,137.8L108.5,136.5L107,135.5L106.9,134.9L112,133.2L114.4,133.2L115.1,132.4L116.4,131.8L117.4,130.8L116.9,130.3L114.4,131.3L112.9,131.7L112.2,131.7L111.7,132L109.7,132.2L109.3,128L109.6,125.7L110.3,125.8L110.5,123.6L111.3,122.3L112.5,122L113.1,121.5L113.9,120.3L115.3,120.6L116.8,120.3L116.4,119.8L114.6,119.1L114.2,117.9L114.8,117.3L115.5,116.8L116.1,116.7L117.3,114.4L118,113.4L118.8,113.6L119.9,112.5L121.1,112.9L122.1,112.2L123.6,111.8L128.9,111.6L129.1,110.7L128,110.4L124,110.2L122,110.2L121.1,110.5L120.8,110.1L120.9,109.5L121.6,108.6L121.9,107.6L123.4,105.2L125.2,103.5L126.5,103.9L127.9,105.5L128.9,105.7L129.3,106.2L130.1,108.4L130.4,108.4L130.3,106.4L131.2,104.7L131,104.2L129.5,104.8L128.4,104.2L127.5,102.9L127.3,101.7L127.8,100.6L128.3,100L128,99.3L125.8,101.1L124.3,101.6L123.6,101.3L124,99.7L123.8,98.4L125.9,95.1L126.6,94.7L127.7,95L128.8,95.9L129.7,95.7L130.7,95.3L130.5,94.4L128.4,94L127.9,93.3L128.1,92.6L129.5,91.8L131,90.4L132.6,90L133.9,89L134.1,89.2L134.4,89.6L134.8,93.5L136,96.6L136.4,96.7L136,94.1L136.4,93.3L136.9,92.7L137.1,92.1L136.5,91.8L136,90.9L135.3,87.8L135.5,87L137.1,85.4L139,85L141,86.1L141.8,86.1L143,85.8L145,84.9L146.2,84.5L146.8,84.5L146.9,84L146.4,83.7L146.2,83.4L145.7,83.2L143.9,83.7L138.7,83.6L138.2,83L138.1,82.1L138.7,80.7L139.3,79.9L141.2,78.6L143.3,78.4L145.4,75.9L146.3,74.1L146.7,71.3L148.1,68.9L151.4,67.6L151.5,67.1L151.2,65.8L151.2,63.7L152.1,61.1L152.7,60.2L153,60.1L153.7,60.9L154.6,62.7L155.9,63.7L157.7,63.9L158.2,63.4L156.8,62.4L155.8,61.1L155.7,59.7L156.2,59L156.9,59.1L157.9,58.9L158.8,58L159,57.4L159,56.5L159.2,55.6L160.5,53.5L164.6,52.1L164.9,52.7L164.7,56.8L164.3,59.4L164.3,61.3L165.1,59.4L166.1,54.2L166.9,51.7L167.8,50.3L168.5,49.9L169.1,49.2L170,48.7L170.2,49.3L170.5,50.6L170,55.3L170.1,56.7L169.6,58.6L167.6,62.9L167.7,63.5L168.2,63.3L168.9,62.6L171.3,58.5L173.4,59L173.5,58.7L172.8,57.5L172,56.3L171.7,54.9L171.8,51.1L172.5,49.5L174.3,49.7L175.4,49.5L175.9,50.2L177,50.1L177.7,47.3L179.2,47.1L180.6,48.9L182.1,50.2L183.4,51.9L183.8,51.4L183.1,47.3L182.3,45.8L180.7,45L179,43.1L178.5,42.3L178.6,41.7L180.1,41.1L182.2,41.7L183.9,40.2L184.4,40.6L185.8,39.8L186.7,40.9L187.2,40.6L187.5,39.1L189.7,38.2L191.1,39L191.9,39.9L192.2,41.6L192.7,44.9L193.8,46.7L194.5,47.6L195.3,47.8L195.7,46.9L195,45.8L194.7,44.8L195.1,42.3L195.5,41.3L197.9,37.6L199.9,35.6L201,35.4L203.1,30.9L203.7,30.2L204.2,29.9L204.1,28.9L203,28.2L202.9,26.8L204.4,25.1L206.2,22.3L207.1,22.1L207.7,22.9L209.4,24.2L210.5,25.7L211.3,26.4L211.8,26.2L212.2,25.1L212.7,24.6L213.8,24.9L214.5,25.6L215,25.7L215.5,26.1L215.6,27L214.6,28L213,30.7L211.4,33.7L210.8,35.3L210.3,39.4L209,42L208.9,43.9L209.4,44.7L210.8,44.1L212.6,41.6L213,39L217.3,31.9L219.4,27.9L221.6,24.6L222.9,23.9L223.6,26.1L223.1,29L222.1,30.8L222.8,31.6L222.7,33.8L222.5,35L222.3,36.2L222.3,37.3L223,37L225.7,34.7L226.4,32.3L227,30.5L227.3,28.9L228.4,27.4L230.3,27.4L230.4,26.8L228,24.7L227.8,23.7L228.6,22.5L230.8,20L231.9,20.3L232.6,20.9L235.3,21.3L237.4,23L237.4,25.7L236.9,26.9L236.4,27.5L233.7,29.6L233.3,30.5L234.1,30.9L235.9,29.9L236.4,30.8L235.9,33.1L235.7,36.5L235.5,38.5L235.5,40.3L235.8,41.3L236.5,37.4L236.7,36.5L237.8,35L238.2,32L239.2,28.5L240.4,26.4L241.1,25.8L243.3,25.9L244.3,26.7L245.2,28.4L245.8,29.1L247.8,29.9L248.6,30.8L248.7,31.3L249.2,31.5L250.5,30.2L251.4,29.9L252.9,32L252.6,33.5L252.6,34L254.4,33.9L255.8,34.4L258.6,37.5L258.9,38.9L258.8,40.7L254.8,42.6L253.1,44.4L250.2,45L240.7,43.8L240.9,45.2L247.5,48L247.9,48.8L247.7,50.5L247.7,51.9L247.8,52.8L248.3,53.6L249.1,54L250.8,53.8L251.6,54.3L252.2,53.6L252.4,51.3L252.9,50.8L253.8,51.4L254.2,53.9L254.5,54.2L254.9,52.4L255.8,52.5L256.8,52.4L258.1,52.7L258.6,55.8L258.6,57L258.4,58L258.1,58.6L257.5,58.8L256,58.7L254,57.5L252.8,56.3L252.4,56.3L252.2,56.4L252.5,57.5L252.4,58.5L252.2,59.5L252,60.3L251.6,61.1L250.8,62.1L249.5,62.8L245.8,64.3L245.5,64.9L244.3,69L243.9,69.6L243.5,70.1L242.2,70.8L241.6,69.9L241.1,68.5L241.2,67.1L242.7,64.5L244.1,62.7L244.5,62L245.3,60.1L243.7,55.4L240.9,54L237.6,51.7L236.4,50.5L234.5,48.1L233.2,45.9L232,45.8L230.7,46.4L228.7,48.4L227.5,49.4L226.9,49.7L226.7,49.7L225.2,49.2L223.6,49L222.3,49.2L221.8,49.5L220,52.7L218.7,54.3L218,54.9L217.5,55.8L217.1,57.4L216.2,62.7L215.5,64.6L215.3,65.9L215.5,69.5L215.3,71.5L214.5,73.2L213.9,73.9L213.1,74.1L212,74.5L211.1,75.4L210.5,76.7L209.8,79.6L208.6,80.7L207.4,80.4L206.6,79.3L204.8,78.5L203.5,78L202,76.9L200.7,76L199.5,75.8L198.8,76.9L198.3,77.9L196.2,78.8L195,79.4L193.5,79.6L192.9,78.8L190.8,78.3L188.2,77.8L187.4,77.8L187.2,76.5L186.5,74.6L184.7,71.5L183.9,70.3L182.5,67.7L180.8,64.9L180.6,64.9L179.5,64.8L177.9,64.9L176.8,65.5L176.2,66.3L176.1,66.9L176.7,69.4L176.5,70L176.2,70.3L174.7,69.6L172.9,69.7Z"/></svg>
