<svg xmlns="http://www.w3.org/2000/svg" viewBox="0 0 400 300"><path d="M372.2,300L370,298.6L363.8,294.5L363.1,294L352.7,297.4L352.7,300L334,300L334,300L334.2,296L337.6,295L341.1,295.9L341.8,290.3L341.1,286.7L337.1,286.9L333.7,285.5L329,288.1L325.3,289.3L323.2,288.4L323.6,285.3L321.1,281.4L318.1,281.5L314.7,277.5L317,272.8L315.8,271.6L319,264.7L323.2,268.4L323.7,263.8L332,256.8L338.2,256.6L347.1,261.1L351.9,263.7L356.1,261L362.5,260.9L367.6,264.2L368.8,262.3L374.5,262.5L375.5,259.5L368.9,255.1L372.8,251.9L372.1,250.1L375.9,248.3L373,243.7L374.9,241.4L389.9,239L391.9,237.3L400,235.2L400,300ZM330.1,300L330.1,299.6L333.2,300L330.1,300Z" fill="#2c2c34" stroke="#474751" stroke-width="0.8"/><path d="M352.7,300L352.7,297.4L363.1,294L363.8,294.5L370,298.6L372.2,300L352.7,300Z" fill="#2c2c34" stroke="#474751" stroke-width="0.8"/><path d="M219.3,239.2L211.9,239.3L206.9,238.5L207.9,235.5L213.4,233.2L217.6,234.4L219.4,235.5L218.9,237.4ZM400,14.6L387.7,21.7L375.4,29.3L363,43.9L357,58L350.7,71.1L351.5,81.9L359.2,92.1L356.8,93.1L343.7,91.5L342.6,86.1L335.3,82.7L334.7,75.8L338.8,73L338.7,65.7L346.7,53.8L343,52L343,52L352.6,39.1L351.5,32.1L360.5,23.7L373.8,13.1L387.2,9.9L394,3.5L400,1.7L400,14.6ZM400,235.2L391.9,237.3L389.9,239L374.9,241.4L373,243.7L375.9,248.3L372.1,250.1L372.8,251.9L368.9,255.1L375.5,259.5L374.5,262.5L368.8,262.3L367.6,264.2L362.5,260.9L356.1,261L351.9,263.7L347.1,261.1L338.2,256.6L332,256.8L323.7,263.8L323.2,268.4L319,264.7L315.8,271.6L317,272.8L314.7,277.5L318.1,281.5L321.1,281.4L323.6,285.3L323.2,288.4L325.3,289.3L323.4,292.7L319.5,293.7L315.6,299.6L315.8,300L280.3,300L280.3,300L278.8,299.3L275.3,296L278.2,295.1L281.6,290.2L279.3,287.9L285.3,285.5L285.2,284.2L281.5,285.2L281.7,282.6L283.7,280.9L287.6,280.4L288.3,278.4L287.4,275.1L289,271.9L289,270.1L283,268L280.7,268.1L278.2,265.2L275.1,266.2L270,263.9L270.1,262.7L268.7,259.9L265.5,259.6L265.1,257.6L266.2,256.3L263.6,252.6L259.4,253.2L258.2,252.9L257.2,254.4L255.7,254.1L254.7,249.9L253.7,247.7L254.5,247.1L257.8,247.3L259.3,245.8L258.2,244L255.5,242.9L255.7,241.6L254.1,240.4L251.5,235.8L252.4,234L252,230.6L248.1,228.9L246,229.8L245.4,228L241.2,226.2L239.9,221.9L239.5,218.3L237.6,216.6L239.3,214.2L238.1,207.1L241,202.6L240.4,201.2L245,196.8L240.7,193L249.3,182.3L253.1,177.4L254.6,172.9L248.6,166.8L250.3,160.9L246.7,153.9L249.4,145.6L244.7,134.2L248.4,126.3L242.2,119.2L242.8,111.4L246.1,110.4L252.9,105.8L257.1,101.8L263.7,108.8L274.7,111.4L289.9,123.8L292.9,128.9L293.2,135.8L288.8,141.1L282.2,143.7L264.2,136.1L261.3,137.4L267.8,144.7L268.1,149.2L268.4,158.9L273.5,161.7L276.7,164.1L277.2,159.7L274.8,155.6L277.3,152L287.1,157.9L290.4,155.6L287.7,148.6L297.1,139L300.8,139.5L304.6,143L306.9,136.1L303.6,130L305.5,123.7L302.6,116.9L313.8,120.4L316.1,126.4L311,127.7L311,133.5L314.2,137L320.4,134.8L321.4,128.2L329.8,123.1L343.8,113.8L346.9,114.3L342.9,121L347.9,122.1L350.8,118.4L358.3,118.1L364.3,113.5L368.8,120.1L373.4,112.8L369.2,106.2L371.3,102.4L383.2,105.9L388.7,109.5L400,119.3L400,235.2ZM400,107.7L396.9,107L398.3,101.5L396.1,92.2L396,88.3L400,82.1L400,107.7ZM262.2,300L261.9,299.8L262.8,297.2L258.4,295.5L259.1,294.4L262.9,292.5L262.3,291.8L262.3,291.8L263.4,290.4L266.2,291.6L267.5,291.8L268,293L268.6,293.1L268.7,293.6L270.6,295L274.7,294.7L274,296.7L269.6,297.7L265.7,300L262.2,300Z" fill="#2c2c34" stroke="#474751" stroke-width="0.8"/><path d="M53.5,0L53.7,0.4L47.4,1.1L40.8,6.7L48.2,15.7L49.1,29.5L44.8,31L50,44.1L41.1,45.1L45.8,51.1L44.5,56.1L38.8,58.3L33.2,58.3L38.2,67.6L38.3,73.5L30.3,68.1L28.3,71.6L33.7,74.9L39,82.8L40.5,92.8L33.3,95.1L30.2,90.4L25.2,83.2L26.6,91.7L22,98L32.5,98.5L38.1,99.1L27.3,109.2L16.4,118L4.6,121.8L0.2,121.8L0,122L0,0Z" fill="#2c2c34" stroke="#474751" stroke-width="0.8"/><path d="M122.5,300L123.1,291.5L119,285.4L116,282.4L109.9,280.1L109.5,275.7L114.7,274.4L121.4,275.9L120.1,269L123.9,271.6L133.3,266.8L134.5,261.6L138,260.3L138.6,262.6L140.5,262.7L142.3,265.2L145.1,268.2L147.2,267.7L150.7,270.5L151.6,271.1L152.8,270.9L152.8,270.9L154.7,272.5L160.5,273.7L158.4,277.8L157.9,282.1L156.8,283.1L155,282.6L155.1,284.1L152.2,287.4L152.1,290L154,289.1L155.4,291.7L155.3,293.3L156.4,295.5L155,297.2L155.7,300L122.5,300Z" fill="#2c2c34" stroke="#474751" stroke-width="0.8"/><path d="M172.2,206.1L174,201.6L177.3,196.1L178.7,186.4L176.1,182.2L175.9,170.6L178.5,162.1L182.5,162.3L183.9,158.6L182.4,155.4L188.6,141.8L192.7,130.5L195.3,123L199.2,123L200.2,117L207.8,118.7L208.4,111.4L210.9,111L216.3,116.4L222.5,123.8L222.6,139.8L224,143.6L217.1,146.4L213.2,153.2L213.8,158.9L207.4,166.3L199.6,174L196.7,186L199.6,191.9L203.4,196.4L199.7,205.3L195.6,207.1L194,219.8L191.7,226.7L186.9,226L184.6,231.6L179.9,232L178.6,225.2L175.3,216.9Z" fill="#2c2c34" stroke="#474751" stroke-width="0.8"/><path d="M241.2,226.2L245.4,228L246,229.8L248.1,228.9L252,230.6L252.4,234L251.5,235.8L254.1,240.4L255.7,241.6L255.5,242.9L258.2,244L259.3,245.8L257.8,247.3L254.5,247.1L253.7,247.7L254.7,249.9L255.7,254.1L252.2,254.5L251,256L250.7,259.2L249.1,258.6L245.5,258.9L244.4,257.4L242.9,258.5L241.4,257.6L238.3,257.5L233.8,255.9L229.7,255.4L226.6,255.5L224.4,257.3L222.5,257.5L222.4,254.7L221.2,251.6L223.6,250.3L223.6,247.6L222.5,245L222.3,242L226.2,242.1L230.6,239.5L231.5,235.6L234.8,233.3L234.4,230.2L236.8,229Z" fill="#2c2c34" stroke="#474751" stroke-width="0.8"/><path d="M255.7,254.1L257.2,254.4L258.2,252.9L259.4,253.2L263.6,252.6L266.2,256.3L265.1,257.6L265.5,259.6L268.7,259.9L270.1,262.7L270,263.9L275.1,266.2L278.2,265.2L280.7,268.1L283,268L289,270.1L289,271.9L287.4,275.1L288.3,278.4L287.6,280.4L283.7,280.9L281.7,282.6L281.5,285.2L278.3,285.7L275.7,287.6L271.9,287.9L268.4,290L268.6,293.1L268,293L267.5,291.8L266.2,291.6L263.4,290.4L262.3,291.8L261.8,291.2L255.5,289.7L255.2,287.5L251.5,288.2L250,291.4L246.9,295.7L245.1,294.7L243.2,295.6L241.4,294.6L242.4,294L243.1,292L244.2,290.1L243.9,289.1L244.8,288.6L245.2,289.4L247.5,289.6L248.6,289.2L247.8,288.6L248.1,287.7L246.7,286.2L246.1,283.7L244.7,282.8L245,280.7L243.2,279.1L241.5,278.9L238.5,277L235.9,277.6L234.9,278.5L233.2,278.5L232.2,279.9L229.2,280.5L227.9,281.4L226,280L223.4,279.9L220.9,279.3L219.2,280.6L218.9,278.9L216.7,277.3L217.5,274.8L218.6,273.2L219.5,273.6L218.4,270.8L222.1,265.6L224.1,264.9L224.5,263.1L222.5,257.5L224.4,257.3L226.6,255.5L229.7,255.4L233.8,255.9L238.3,257.5L241.4,257.6L242.9,258.5L244.4,257.4L245.5,258.9L249.1,258.6L250.7,259.2L251,256L252.2,254.5Z" fill="#2c2c34" stroke="#474751" stroke-width="0.8"/><path d="M222.3,242L222.5,245L223.6,247.6L223.6,250.3L221.2,251.6L222.4,254.7L222.5,257.5L224.5,263.1L224.1,264.9L222.1,265.6L218.4,270.8L219.5,273.6L218.6,273.2L214.8,270.9L211.9,271.8L210,271.1L207.6,272.4L205.6,270.2L203.9,271.1L203.7,270.7L201.8,267.7L198.9,267.3L198.5,265.3L195.7,264.6L195.1,266.2L192.9,264.9L193.2,263.2L190.2,262.6L188.3,260.6L186.6,256.5L186.9,254.2L185.9,250.7L184.5,248.3L185.6,246.5L184.7,243.1L187.4,241.1L193.7,237.9L198.7,235.6L202.8,236.7L203.1,238.4L206.9,238.5L211.9,239.3L219.3,239.2L221.3,239.9Z" fill="#2c2c34" stroke="#474751" stroke-width="0.8"/><path d="M196.2,279.1L195.9,281.5L193.6,281.6L194.4,282.9L193,286.7L192.3,287.7L188.7,287.8L186.7,289.1L183.4,288.7L177.7,287.2L176.8,285.1L172.8,286.1L172.3,287.3L169.9,286.4L167.8,286.3L166,285.2L166.6,283.7L166.5,282.7L167.7,282.4L169.7,284L170.3,282.4L173.8,282.7L176.7,281.6L178.6,281.8L179.9,283L180.3,282L179.7,278.1L181.1,277.3L182.6,274.5L185.5,276.5L187.8,274L189.2,273.5L192.3,275.4L194.2,275.1L196.1,276.2L195.8,277Z" fill="#2c2c34" stroke="#474751" stroke-width="0.8"/><path d="M216.7,277.3L218.9,278.9L219.2,280.6L216.7,281.8L214.8,285.8L212.4,289.8L209.2,290.9L206.7,290.6L203.6,292.2L202.1,293L198.8,291.9L195.8,289.4L194.5,288.7L193.7,286.7L193,286.7L194.4,282.9L193.6,281.6L195.9,281.5L196.2,279.1L198.2,280.6L199.7,281.3L203.1,280.6L203.4,279.4L205,279.2L206.9,278.2L207.4,278.6L209.3,277.9L210.2,276.4L211.5,276.1L215.8,277.9Z" fill="#2c2c34" stroke="#474751" stroke-width="0.8"/><path d="M234.9,278.5L235.9,277.6L238.5,277L241.5,278.9L243.2,279.1L245,280.7L244.7,282.8L246.1,283.7L246.7,286.2L248.1,287.7L247.8,288.6L248.6,289.2L247.5,289.6L245.2,289.4L244.8,288.6L243.9,289.1L244.2,290.1L243.1,292L242.4,294L241.4,294.6L240.7,291.9L241.1,289.5L241,286.9L238.7,283.4L237.4,280.9L236.1,279.1Z" fill="#2c2c34" stroke="#474751" stroke-width="0.8"/><path d="M218.9,300L219.2,299.8L218.2,299L217.2,300L216.5,300L216.5,300L214.6,298.7L214.3,296.3L211.8,295L211.4,293.2L209.2,290.9L212.4,289.8L214.8,285.8L216.7,281.8L219.2,280.6L220.9,279.3L223.4,279.9L226,280L227.9,281.4L229.2,280.5L232.2,279.9L233.2,278.5L234.9,278.5L236.1,279.1L237.4,280.9L238.7,283.4L241,286.9L241.1,289.5L240.7,291.9L241.4,294.6L241.4,294.6L243.2,295.6L245.1,294.7L246.9,295.7L247,297.2L245,298.4L243.8,297.8L243.5,300L218.9,300Z" fill="#2c2c34" stroke="#474751" stroke-width="0.8"/><path d="M234.4,230.2L234.8,233.3L231.5,235.6L230.6,239.5L226.2,242.1L222.3,242L221.3,239.9L219.3,239.2L218.9,237.4L219.4,235.5L217.6,234.4L213.4,233.2L212.5,227.2L217.1,225L223.9,225.5L227.8,224.7L228.4,226.2L230.5,226.7Z" fill="#2c2c34" stroke="#474751" stroke-width="0.8"/><path d="M237.6,216.6L239.5,218.3L239.9,221.9L241.2,226.2L236.8,229L234.4,230.2L230.5,226.7L228.4,226.2L227.8,224.7L223.9,225.5L217.1,225L212.5,227.2L212.7,221.7L214.7,217.1L218.4,214.5L221.6,220.1L224.9,219.9L225.6,214.2L229.1,212.9L230.8,213.8L234.3,216.6Z" fill="#2c2c34" stroke="#474751" stroke-width="0.8"/><path d="M240.4,201.2L241,202.6L238.1,207.1L239.3,214.2L237.6,216.6L234.3,216.6L230.8,213.8L229.1,212.9L225.6,214.2L226.1,209.7L224.6,210.7L222.1,208L221.7,203.5L226.8,201.3L231.9,200.2L236.2,201.5Z" fill="#2c2c34" stroke="#474751" stroke-width="0.8"/><path d="M184.7,243.1L185.6,246.5L184.5,248.3L185.9,250.7L186.9,254.2L186.6,256.5L188.3,260.6L186.5,261.2L185.4,260.5L184.4,261.7L181.5,263L180,264.5L177.1,265.9L177.8,267.8L178.2,270.4L180.3,271.9L182.6,274.5L181.1,277.3L179.7,278.1L180.3,282L179.9,283L178.6,281.8L176.7,281.6L173.8,282.7L170.3,282.4L169.7,284L167.7,282.4L166.5,282.7L162.2,280.9L161.3,282.1L157.9,282.1L158.4,277.8L160.5,273.7L154.7,272.5L152.8,270.9L153,268.2L152.2,266.8L152.7,262.5L152,255.8L154.4,255.8L155.4,253.3L156.4,247.2L155.7,245L156.5,243.5L159.8,243.2L160.6,244.7L163.3,241.3L162.4,238.7L162.2,234.8L165.2,235.7L167.8,234.6L167.9,237.3L171.9,238.9L171.9,241.4L176,240.1L178.2,238.2L182.8,240.9Z" fill="#2c2c34" stroke="#474751" stroke-width="0.8"/><path d="M188.8,300L187.9,298.8L187.8,296.9L185.2,296L184,298.5L182.8,296.6L182.9,294.6L183,294.5L185.8,294.7L186.6,293.7L187.9,294.7L189.5,294.8L189.5,293.2L190.9,292.6L191.3,290.2L194.5,288.7L194.5,288.7L195.8,289.4L198.8,291.9L202.1,293L203.6,292.2L204.6,294.4L205.9,296L204.3,298.2L202.5,296.9L199.7,297L196.2,296L194.4,296.2L193.5,297.3L192.1,296L191.2,298.4L192.4,300L188.8,300Z" fill="#2c2c34" stroke="#474751" stroke-width="0.8"/><path d="M166.5,282.7L166.6,283.7L166,285.2L167.8,286.3L169.9,286.4L169.6,288.8L167.8,289.8L164.8,289.1L163.9,291.4L162,291.6L161.3,290.7L159.1,292.6L157.1,292.9L155.4,291.7L154,289.1L152.1,290L152.2,287.4L155.1,284.1L155,282.6L156.8,283.1L157.9,282.1L161.3,282.1L162.2,280.9Z" fill="#2c2c34" stroke="#474751" stroke-width="0.8"/><path d="M152.2,266.8L153,268.2L152.8,270.9L151.6,271.1L150.7,270.5L151.2,267Z" fill="#2c2c34" stroke="#474751" stroke-width="0.8"/><path d="M152.7,262.5L152.2,266.8L151.2,267L150.7,270.5L147.2,267.7L145.1,268.2L142.3,265.2L140.5,262.7L138.6,262.6L138,260.3L141.2,259L144.2,259.6L147.9,258.2L150.4,261Z" fill="#2c2c34" stroke="#474751" stroke-width="0.8"/><path d="M155.7,245L156.4,247.2L155.4,253.3L154.4,255.8L152,255.8L152.7,262.5L150.4,261L147.9,258.2L144.2,259.6L141.2,259L143.3,257.3L146.8,247.6L152.3,244.8Z" fill="#2c2c34" stroke="#474751" stroke-width="0.8"/><path d="M103,242.3L103.7,247.2L100.6,253.1L93.5,257L87.8,256L91.1,249.1L89,242.3L94.4,236.9L97.5,233.6L98.3,237.3L97.5,241L100,240.9Z" fill="#2c2c34" stroke="#474751" stroke-width="0.8"/><path d="M155.7,300L155,297.2L156.4,295.5L155.3,293.3L155.4,291.7L157.1,292.9L159.1,292.6L161.3,290.7L162,291.6L163.9,291.4L164.8,289.1L167.8,289.8L169.6,288.8L169.9,286.4L169.9,286.4L172.3,287.3L172.8,286.1L176.8,285.1L177.7,287.2L183.4,288.7L183,291.5L183.9,294L180.7,293.1L177.5,295.2L177.7,298L177.2,299.6L177.4,300L155.7,300Z" fill="#2c2c34" stroke="#474751" stroke-width="0.8"/><path d="M167.8,234.6L165.2,235.7L162.2,234.8L160.5,230.9L160.4,223.5L161.1,221.5L162.3,219.3L165.8,218.9L167.2,216.8L170.4,214.7L170.3,218.5L169.1,220.9L169.6,223L171.8,224.1L170.8,226.8L169.6,226.1L166.7,231.2ZM177.6,226.6L178.9,230.2L176.5,235.9L172.3,232L171.7,229Z" fill="#2c2c34" stroke="#474751" stroke-width="0.8"/><path d="M103,242.3L100,240.9L97.5,241L98.3,237.3L97.5,233.6L100.8,233.3L105.2,237.6ZM115.5,245.5L115.5,245.5L116.1,241.6L113.4,237.3L113.3,237.2L108.4,236L107.5,234.1L108.9,230.9L107.6,229L105.5,232.3L105.2,225.4L103.2,221.7L104.6,214L107.8,207.8L111,208.4L115.8,207.8L111.5,216L115.6,215L120,215L119,221.1L115.4,227.6L119.5,228.1L119.8,228.8L123.4,237.1L126.2,238.3L128.7,246L129.8,248.7L134.7,249.9L134.2,254.2L132.1,256.1L133.7,259.4L130.1,262.8L124.7,262.7L117.9,264.4L116,263.2L113.4,266.1L109.7,265.4L106.8,267.8L104.7,266.6L110.6,259.9L114.2,258.5L114.2,258.5L107.9,257.5L106.7,254.9L110.9,252.8L108.7,249.3L109.5,244.9Z" fill="#2c2c34" stroke="#474751" stroke-width="0.8"/><path d="M69.6,139.2L68.7,145.6L73.2,152.2L68,159.4L56.4,165.7L52.9,167.3L47.6,166L36.4,163.1L40.4,159L31.6,154.4L38.7,152.6L38.6,149.8L30.1,147.5L32.8,141.1L38.9,139.6L45.2,146.3L51.3,141L56.4,143.8L62.9,138.5Z" fill="#2c2c34" stroke="#474751" stroke-width="0.8"/><path d="M183.4,288.7L186.7,289.1L188.7,287.8L192.3,287.7L193,286.7L193.7,286.7L194.5,288.7L191.3,290.2L190.9,292.6L189.5,293.2L189.5,294.8L187.9,294.7L186.6,293.7L185.8,294.7L183,294.5L183.9,294L183,291.5Z" fill="#2c2c34" stroke="#474751" stroke-width="0.8"/><path d="M242.8,111.4L242.2,119.2L248.4,126.3L244.7,134.2L249.4,145.6L246.7,153.9L250.3,160.9L248.6,166.8L254.6,172.9L253.1,177.4L249.3,182.3L240.7,193L233.4,193.6L226.4,196.6L219.8,198.3L217.5,193.9L213.6,191.2L214.5,183L212.6,175.2L214.5,170.1L218.1,164.4L227.3,154.3L230,152.3L229.6,148.3L224,143.6L222.6,139.8L222.5,123.8L216.3,116.4L210.9,111L213.3,108L217.8,113.9L223,113.4L227.3,116.1L231.2,111.1L233.1,102.7L239.4,98.7L244.5,103.4Z" fill="#2c2c34" stroke="#474751" stroke-width="0.8"/><path d="M218.6,273.2L217.5,274.8L216.7,277.3L215.8,277.9L211.5,276.1L210.2,276.4L209.3,277.9L207.4,278.6L206.9,278.2L205,279.2L203.4,279.4L203.1,280.6L199.7,281.3L198.2,280.6L196.2,279.1L195.8,277L196.1,276.2L196.7,274.9L198.4,275L199.8,274.4L199.9,273.8L200.7,273.5L200.9,272.1L201.9,271.8L202.5,270.7L203.7,270.7L203.9,271.1L205.6,270.2L207.6,272.4L210,271.1L211.9,271.8L214.8,270.9Z" fill="#2c2c34" stroke="#474751" stroke-width="0.8"/><path d="M188.3,260.6L190.2,262.6L193.2,263.2L192.9,264.9L195.1,266.2L195.7,264.6L198.5,265.3L198.9,267.3L201.8,267.7L203.7,270.7L202.5,270.7L201.9,271.8L200.9,272.1L200.7,273.5L199.9,273.8L199.8,274.4L198.4,275L196.7,274.9L196.1,276.2L194.2,275.1L192.3,275.4L189.2,273.5L187.8,274L185.5,276.5L182.6,274.5L180.3,271.9L178.2,270.4L177.8,267.8L177.1,265.9L180,264.5L181.5,263L184.4,261.7L185.4,260.5L186.5,261.2Z" fill="#2c2c34" stroke="#474751" stroke-width="0.8"/><path d="M192.4,300L191.2,298.4L192.1,296L193.5,297.3L194.4,296.2L196.2,296L199.7,297L202.5,296.9L204.3,298.2L205.8,298.1L205,300L192.4,300Z" fill="#2c2c34" stroke="#474751" stroke-width="0.8"/><path d="M217.2,300L218.2,299L219.2,299.8L218.9,300L217.2,300ZM205,300L205.8,298.1L204.3,298.2L205.9,296L204.6,294.4L203.6,292.2L203.6,292.2L206.7,290.6L209.2,290.9L211.4,293.2L211.8,295L214.3,296.3L214.6,298.7L216.5,300L205,300Z" fill="#2c2c34" stroke="#474751" stroke-width="0.8"/><path d="M210.8,111.8L210.3,111.8L208.8,111.9L209.4,112.9L209.7,113.3L209.7,113.8L209.6,114.9L209.3,115.8L208.9,116.5L208.2,117.2L209.3,118L208.5,118.9L208.2,119.3L207.8,119.2L207.1,118.9L205.3,118.1L204.5,117.8L203.8,117.7L203.4,117.7L201.8,117L201.5,117.1L200.9,117.4L200.8,118L200.9,119.7L201,121L200.8,121.7L200.6,122.2L199.9,123.5L198.5,122.6L197.5,122L196.9,122.8L195.4,124.2L194.6,127.1L194.5,127.2L194.1,127.9L193.5,128.2L193,128.4L192.7,129.2L193.4,130.4L193.7,131L194,132L193.9,132.7L193.8,133.1L193.2,133.9L191.8,136L190.4,138.2L189.9,138.8L190.2,140.7L189.7,141.2L188.8,141.8L188.4,142.1L187.9,142.2L186.4,142.4L186.6,144.4L186.7,145.2L186.7,145.7L186.6,146.2L186.4,147.2L186.1,150.5L185.9,150.9L185.6,151.8L184.6,153.9L183.9,155.3L182.8,157.4L183.7,158L184.5,158.5L184.7,159.2L184.8,160.3L184.8,161.1L184.4,161.9L184.2,162.4L184,162.6L182.9,162.4L181.4,162.1L181,162.1L180.1,162.3L179.3,162.7L178.9,163.1L178.8,163.3L178.3,164.2L177.4,165.7L176.8,166.4L177,167.4L176.1,169.2L176.7,171L176.7,171L177,171.8L176.7,172.2L176.6,172.5L176.6,173.3L176.7,174.2L176.6,174.7L176.6,175.3L177.4,178L177.4,178.6L177.3,179L177.1,180.7L176.8,182.8L177.3,183.4L178.1,184.1L178.5,184.4L179.2,185.2L179.7,185.9L179.6,186.5L179.5,187L179.3,187.4L179.1,188L179,188.4L178.9,188.5L178,188.5L177.6,188.7L177.3,188.9L177.4,189.8L177.9,191.4L178.4,192.6L178.5,193.4L178.4,194.2L178.2,194.6L178.2,195.1L178.1,196.2L177.8,196.7L177.3,197.3L176.8,197.7L176.4,197.9L176.1,197.9L175.9,198.1L175.7,198.8L175.5,199.5L174.9,200.3L174.9,200.6L175.1,201.6L175.3,202.7L175.1,203.7L175,204.8L174.7,205.5L174.3,205.8L174,205.7L173.7,204.7L173.7,204.5L173.6,204.2L172.7,203.9L172.5,203.9L172.1,203.7L171.9,203.6L171.5,203.5L171.1,202.7L170.7,201.9L170.6,201.6L170.6,200.2L170.5,199.6L170.5,198.9L170.3,199.5L170.4,200.3L170.1,200.7L169.7,200.9L169.7,201.4L169.9,201.5L169.9,202L169.8,202.8L169.1,204.5L168.9,204.7L168.8,204.9L168.4,204.7L167.9,205.2L167.5,205.3L167.3,204.8L166.6,204L166.3,204.1L166.6,204.4L166.9,204.9L166.7,205.2L166.6,205.4L166.3,205.5L165.3,206.1L165.7,206.5L165.4,206.9L165,207L164.9,207.2L164.8,207.5L163.8,208.3L162.2,210.4L161.3,211L160.7,211.6L160.2,211.5L159.6,212.1L157.9,212.5L156.8,212.3L156.1,212.5L155.7,212.1L155.6,211.9L155.6,211.7L155.7,211.6L155.6,211.5L155.3,211.5L155.1,211.7L155.1,212L155,212.1L154.4,211.9L154.3,211.7L154.5,211.3L154.8,211L154.7,210.9L154.7,210.7L154.5,210.6L154,210.7L153.6,210.6L152.2,209.8L151.9,209.4L150.9,208.7L150.4,207.9L150.1,207.1L150.1,206.3L150.2,205.2L150.5,204.9L151.4,205.3L152.4,206L152.6,205.9L152.9,205.4L153.5,205L153.3,204.8L152.4,205.3L152.1,205.1L151.6,204.5L151.6,204.2L151.8,203.9L151.9,203.5L151.8,203.1L151.8,202.6L152.2,202.1L152.8,201.5L153.3,201L153.7,200.7L153.6,200.6L153.2,200.8L152.7,201.1L152.1,201.7L151.4,202.2L150.9,202.4L150.7,202.5L150.3,202.7L149.9,203.4L149.5,203.7L148.7,203.7L148.5,203.2L148.8,201.4L149,200.5L149.2,199.9L149.6,199.8L149.9,199.3L150.1,199.3L150.3,199.6L151.1,199.8L151.5,199.2L152,199.1L152.9,198.5L152.9,198.4L152.3,198.5L151.9,198.5L151.4,198.7L151.1,198.6L150.9,198.1L151.2,197.7L152,196.8L152.3,196.4L152.5,196L152.4,195.7L152.6,195.2L153.4,194.2L154.1,193.7L154.3,194.1L154.1,195.3L154.1,195.8L154.7,194.1L154.9,193.7L155.2,193.4L155.8,193.2L156,192.9L155.3,193L153.4,193.7L152.6,194.3L152.4,194.7L151.9,195.4L151.6,195.8L151.5,196.5L151.2,196.8L150.8,197L150.2,197.8L150,198.5L149.4,199L149.1,199.4L149,199.5L148.8,199.9L148.6,199.9L148.5,199.7L148.4,199.2L148.5,198.4L148.8,197.8L148.9,197.2L148.7,196.7L148.8,196.3L149.1,196.3L149.5,196.5L150,196.5L150.8,196.1L150.7,195.8L150.3,195.8L149.7,195.8L149.2,195.4L148.7,194.6L148.6,193.4L148.7,193.1L150.2,192L150.6,191.5L150.4,191.4L149.8,192L149,192.4L148.5,191.9L148.2,191.3L148,190.1L148.1,189.4L148,188.6L148.4,188.3L148.8,188.4L149.2,188.5L150,188.4L152,187.9L153.2,188.2L153.7,188.2L154.5,187.7L155.2,187.7L155.7,188L155.9,188.4L156,188.9L156.2,189.3L156.4,189.2L156.2,188.8L156.2,188.1L158.2,187.4L158.5,187.1L157.7,187L157.4,186.4L157.9,185.4L157.8,185.3L157.4,185.8L157.2,186.5L157.2,187.1L157.2,187.4L156.7,187.5L155.8,187.6L155.2,187.3L154.7,187.2L154.5,187L154.5,186.6L154.4,186.5L154.2,186.8L154,187.6L153.6,187.8L152.4,187.5L150.6,187.7L149.8,188L149.3,188L148.4,187.3L148.1,186.8L148,185.7L148,185.3L148.7,185.1L149,185.1L149.4,184.8L149.1,184.7L148.7,184.3L148.4,183.7L148,183.5L147.7,182.9L147.6,182.1L147.7,181.5L147.9,181.3L148.5,181.4L149.9,181.3L151.2,181.9L152.1,182.3L153.9,182.1L155,181.6L154.8,181.4L153.6,181.7L152.6,181.7L150.7,181.1L149.9,180.9L149.1,181L148.7,180.8L148.4,180.2L148.6,179.1L149,178.8L149.2,179.1L149.4,179.2L149.7,178.7L150,178.4L150.2,177.8L150.9,177.2L151.2,177.2L151.7,176.9L152,177L152.1,177.2L152.4,177.5L152.9,177.4L154.4,177L154.5,176.8L154.8,176.4L153.9,176.6L153.1,176.9L152.6,176.9L152.5,176.6L152.7,176.3L153,176L153.1,175.4L153.4,175.2L153.8,175.2L154.5,175.1L155,174.9L155.9,175L157.2,175.2L158,175.8L158.3,175.7L158.7,175.6L158.8,175.4L158.2,175.2L158.1,174.9L158.2,174.6L159.3,174.2L160.4,174.1L160.2,173.8L157.7,174.3L157,173.9L156.5,173.9L156.1,174.1L155.2,174.4L155,174.2L155.2,173.6L155.8,172.6L155.8,172.4L156.1,172.1L157.6,171.6L158.3,170.9L158.7,170.8L159,170.8L159.5,170.8L160.5,171L160.9,171.8L161.3,172.1L162.6,173.1L162.5,172.8L161.4,171.4L161,171L160.7,170.3L160.8,169.7L161.2,169.2L162.4,169L162.6,168.7L162.6,168.3L162.5,168L162,168L161.6,167.8L161.5,167.3L161.7,167L162.4,166.4L162.8,166.2L163.5,166L164.6,166.4L164.7,166.7L164.4,167.3L164.4,167.6L164.7,167.7L165.4,166.7L166.2,166.5L166.5,166.3L166.9,166.2L167.4,167.1L167.7,167.4L167.8,167.5L168,168.2L168.2,168.3L168.4,167.9L168.9,167.7L169.5,167.6L170.5,167.8L170.9,167.6L171.2,167.6L171,167L170.8,166.8L171,166.2L171.2,165.9L171.9,165.5L172.6,165.3L173,164.9L173.6,164.5L173.5,164.2L173.4,163.9L173,163.9L172.8,163.7L173.3,163.2L174,162.7L173.8,162.5L173.4,162.3L173,162.5L172.4,162.9L171.8,163.5L172,163.7L172.3,164.2L171.9,164.8L169.5,166.6L168.3,167.2L167.8,167.1L167.7,166.6L167.4,166.2L167.2,165.5L166.7,165.5L166.5,165.7L166.4,165.4L166.6,164.6L166.9,164L167.6,163.5L167.9,162.9L168.1,162L169.1,161.1L170.4,158.9L171.5,158.2L171.8,157.4L172.5,157L173,156.4L173.5,156.4L174.2,155.8L174.7,155.2L174.4,155.1L173.7,155.6L173.3,155.7L173.3,155L173.5,154.3L174.1,153.6L176.8,151.7L177.1,152L177.4,152.6L178.2,152.5L179.1,151.4L179.8,150.2L179.4,150.4L179,150.9L178.2,151.6L177.8,151.7L177.6,151.6L177.5,151.1L177.2,151L176.9,151.1L176.7,150.7L176.6,149.9L177,148.7L177.2,148L177.5,147.3L178.7,145.6L178.9,144.7L179.4,144.2L180.1,144.3L180.3,144.1L180.1,143.5L179.3,143L179.3,142.7L181.7,141.9L182.9,141.9L183.2,141.5L183.8,141.3L184.3,140.8L184.1,140.5L182.9,141L182.2,141.2L181.8,141.2L181.6,141.4L180.6,141.4L180.4,139.4L180.6,138.3L180.9,138.4L181,137.3L181.4,136.7L182,136.5L182.3,136.3L182.7,135.7L183.3,135.9L184,135.7L183.8,135.5L183,135.1L182.8,134.6L183.1,134.3L183.4,134L183.7,134L184.3,132.9L184.6,132.4L185,132.5L185.6,132L186.1,132.2L186.6,131.8L187.3,131.6L189.9,131.5L190,131.1L189.4,131L187.5,130.8L186.5,130.9L186.1,131L186,130.8L186,130.5L186.3,130.1L186.5,129.6L187.2,128.5L188.1,127.7L188.7,127.9L189.4,128.6L189.8,128.7L190.1,128.9L190.4,130L190.6,130L190.5,129L191,128.2L190.9,128L190.2,128.3L189.6,128L189.2,127.4L189.1,126.8L189.3,126.2L189.6,126L189.4,125.6L188.4,126.5L187.6,126.7L187.3,126.6L187.5,125.8L187.4,125.2L188.4,123.6L188.7,123.4L189.3,123.5L189.8,124L190.2,123.9L190.7,123.7L190.6,123.3L189.6,123.1L189.4,122.7L189.5,122.4L190.2,122L190.8,121.4L191.6,121.2L192.3,120.7L192.4,120.8L192.5,121L192.7,122.8L193.3,124.3L193.5,124.4L193.3,123.1L193.5,122.7L193.7,122.5L193.8,122.1L193.5,122L193.3,121.6L192.9,120.1L193,119.7L193.8,118.9L194.7,118.7L195.7,119.3L196,119.3L196.6,119.1L197.6,118.7L198.2,118.5L198.5,118.5L198.5,118.3L198.3,118.1L198.2,118L198,117.9L197.1,118.1L194.6,118.1L194.3,117.8L194.3,117.3L194.6,116.7L194.8,116.3L195.8,115.7L196.8,115.6L197.8,114.4L198.2,113.5L198.4,112.1L199.1,111L200.7,110.4L200.7,110.1L200.6,109.5L200.6,108.5L201,107.2L201.3,106.8L201.4,106.8L201.8,107.2L202.2,108L202.9,108.5L203.7,108.6L203.9,108.4L203.3,107.9L202.8,107.2L202.7,106.6L203,106.2L203.3,106.3L203.8,106.2L204.2,105.8L204.3,105.5L204.3,105.1L204.4,104.6L205.1,103.6L207,103L207.2,103.2L207.1,105.2L206.9,106.4L206.9,107.4L207.2,106.4L207.7,103.9L208.1,102.7L208.6,102L208.9,101.9L209.2,101.5L209.6,101.3L209.7,101.6L209.9,102.2L209.6,104.4L209.7,105.1L209.4,106.1L208.5,108.1L208.5,108.4L208.7,108.3L209.1,108L210.3,106L211.3,106.2L211.3,106.1L211,105.5L210.6,104.9L210.4,104.3L210.5,102.4L210.8,101.7L211.7,101.8L212.2,101.7L212.5,102L213,102L213.3,100.6L214.1,100.5L214.7,101.4L215.4,102L216.1,102.9L216.2,102.6L215.9,100.6L215.5,99.9L214.8,99.5L213.9,98.6L213.7,98.2L213.8,97.9L214.5,97.6L215.5,98L216.3,97.2L216.6,97.4L217.2,97L217.6,97.5L217.9,97.4L218,96.7L219.1,96.2L219.8,96.7L220.1,97.1L220.3,97.9L220.5,99.5L221.1,100.3L221.4,100.8L221.8,100.9L222,100.4L221.6,99.9L221.5,99.4L221.7,98.2L221.9,97.7L223,95.9L224,95L224.5,94.9L225.5,92.8L225.8,92.4L226.1,92.3L226,91.8L225.5,91.4L225.4,90.8L226.2,90L227,88.6L227.5,88.5L227.7,88.9L228.6,89.5L229.1,90.2L229.5,90.6L229.7,90.5L229.9,90L230.1,89.7L230.7,89.9L231,90.2L231.3,90.2L231.5,90.4L231.5,90.9L231.1,91.4L230.3,92.7L229.5,94.1L229.2,94.9L229,96.8L228.4,98.1L228.3,99L228.6,99.4L229.3,99.1L230.1,97.9L230.3,96.7L232.4,93.2L233.3,91.3L234.4,89.7L235.1,89.4L235.4,90.4L235.1,91.8L234.7,92.7L235,93.1L234.9,94.1L234.8,94.7L234.8,95.3L234.8,95.8L235.1,95.7L236.4,94.6L236.7,93.4L237,92.5L237.2,91.8L237.7,91L238.6,91L238.7,90.8L237.5,89.8L237.4,89.3L237.8,88.7L238.8,87.5L239.4,87.6L239.7,87.9L241,88.1L242,88.9L242,90.2L241.8,90.8L241.6,91.1L240.3,92.1L240,92.6L240.5,92.7L241.3,92.3L241.6,92.7L241.3,93.8L241.2,95.4L241.1,96.4L241.1,97.3L241.2,97.7L241.6,95.9L241.7,95.4L242.2,94.7L242.4,93.3L242.9,91.6L243.5,90.6L243.8,90.3L244.9,90.3L245.4,90.7L245.8,91.6L246.1,91.9L247,92.3L247.4,92.7L247.4,93L247.7,93L248.3,92.4L248.8,92.3L249.5,93.2L249.3,94L249.4,94.2L250.2,94.2L250.9,94.4L252.2,95.9L252.4,96.6L252.3,97.4L250.4,98.3L249.6,99.2L248.2,99.5L243.6,99L243.7,99.6L246.9,100.9L247.1,101.3L247,102.1L247,102.8L247,103.3L247.3,103.7L247.7,103.9L248.5,103.8L248.8,104L249.1,103.6L249.2,102.5L249.5,102.3L249.9,102.6L250.1,103.8L250.2,103.9L250.4,103.1L250.9,103.1L251.4,103.1L252,103.2L252.2,104.7L252.2,105.3L252.1,105.8L252,106L251.7,106.1L251,106.1L250,105.5L249.4,104.9L249.2,104.9L249.1,105L249.3,105.6L249.2,106L249.1,106.5L249,106.9L248.8,107.3L248.5,107.7L247.8,108.1L246,108.8L245.9,109.1L245.3,111.1L245.2,111.4L245,111.6L244.3,111.9L244,111.5L243.8,110.8L243.9,110.2L244.6,108.9L245.2,108L245.4,107.7L245.8,106.8L245,104.5L243.7,103.8L242.1,102.8L241.5,102.2L240.6,101L240,99.9L239.4,99.9L238.8,100.2L237.8,101.2L237.3,101.6L237,101.8L236.9,101.8L236.2,101.5L235.4,101.5L234.8,101.5L234.5,101.7L233.7,103.2L233,104L232.7,104.3L232.5,104.7L232.3,105.5L231.8,108L231.5,109L231.4,109.6L231.5,111.3L231.4,112.3L231,113.1L230.7,113.4L230.3,113.5L229.8,113.7L229.4,114.2L229.1,114.8L228.7,116.2L228.2,116.7L227.6,116.5L227.2,116L226.3,115.6L225.7,115.4L225,114.8L224.4,114.4L223.8,114.3L223.5,114.9L223.2,115.4L222.2,115.8L221.7,116.1L220.9,116.1L220.6,115.8L219.6,115.5L218.4,115.3L218,115.3L217.9,114.7L217.5,113.8L216.7,112.2L216.3,111.7L215.6,110.4L214.8,109.1L214.7,109.1L214.2,109L213.4,109.1L212.9,109.4L212.6,109.8L212.5,110L212.8,111.2L212.7,111.6L212.6,111.7L211.9,111.4L211,111.4ZM147.8,188.2L147.5,188.3L147.2,188.2L147.3,187.4L147.5,187.3L147.7,187.2L147.9,187.7ZM148.3,194.6L148.4,195.5L148,195.5L147.8,195.1L147.8,194.8L147.8,194.3L147.7,193.7L147.8,193.4L148,193.4L148.2,193.9ZM248.3,103.1L247.6,103.4L247.5,103.1L247.6,102.7L247.8,101.8L248.1,101.8L248.5,102.2L248.7,102.6ZM176,147.4L175.8,147.7L175.2,147.6L175.2,147.3L175.3,146.8L175.6,146.6L176,146.6L176.2,146.9ZM162,165.8L161.5,165.8L161.2,165.6L161.9,165.2L162.9,164.8L163,164.6L163.1,164.5L163.3,164.8L163.3,165.2L163.2,165.5ZM160.5,168.8L160.1,168.8L159.6,168.6L159.3,168.3L159.3,168.1L159.8,167.7L160.4,167.6L160.6,167.9L160.6,168.5ZM222.1,90.9L222,91.3L221.9,91.7L221.6,92L220.6,93.6L220.1,93.8L219.9,94.1L219.7,94.2L219,94L218.8,94.3L218.6,94.5L218.1,94.6L217.8,94.5L217,94L216.6,93.4L216.3,92.8L217,92.8L217.3,92.7L217.7,92.8L218,92.3L218.6,92.3L219.8,92L220.2,92.2L221.2,90.9L221.5,90.9L221.9,90.6ZM230.8,86.9L231.8,87.3L232.2,87.3L232.7,88.2L233,88.1L233,88.7L232.4,88.9L231.6,89.1L231.5,89.2L230.7,89.1L230.3,88.4L229.7,88.2L229.7,88L230.1,87.4ZM222.8,94.1L222.9,94.7L222.9,95.2L222.6,95.8L221.7,96.7L221.7,96.9L221.5,97.2L221,97.3L220.8,97.2L220.8,96.4L220.7,96.2L220.4,96.5L220,96.1L220,95.7L220.1,95.4L220.5,94.9L221,94.5L221.4,94.7L222.6,93.3L222.7,93.6ZM224.4,93.9L223.7,94.4L223.2,94L223,93.6L223,92.6L223.1,92L223.5,91.7L223.7,92L223.8,92.1L224.2,92.3L224.7,92.9ZM183.7,120.3L183.9,120.5L184.5,120.4L184.7,120.5L184.6,120.8L184.3,121.1L183.7,121.3L183.5,121.8L183.3,122L182.8,122L182.5,122.1L182.2,122.6L181.9,122.2L181.8,122.5L181.7,122.9L181.6,123L181.1,123.2L181,122.2L181.2,121.8L181.4,121.4L181.6,121.3L181.9,121.4L182.3,120.4L182.9,120.2L183.3,120.1ZM180.1,124.5L179.5,125L179.7,124L180,123L180.4,122.4L180.7,122.6L180.6,123.1L180.6,123.6L180.5,123.8ZM189,112.8L189.6,113.9L189.8,114.6L189.6,115.8L189.1,116.4L188.3,116.5L187.8,116.5L187.4,116.2L187.4,115.9L187.2,115.8L186.6,116.2L186.3,116.2L185.8,115.9L185.7,115.4L186.2,114.7L186.4,114.2L187,114.2L187.1,114.4L187.4,114.5L187.6,113.9L187.5,113.4L187.7,113.1L188.4,113.3L188.4,112.2L188.6,112.1L188.7,112.1L188.9,112.4ZM207.4,98.1L207.6,98.3L207.8,98.2L207.9,98.3L208.3,98.9L208.6,99.2L208.7,99.5L208.3,99.8L207.9,99.9L207.4,99.8L207.3,99.4L207.1,98.7L206.8,98.1L206.7,97.5L207,97.4ZM211.4,99.6L211.2,99.9L210.9,100L210.7,99.8L210.5,99.7L210.2,99.8L209.9,99.3L209.9,98.9L210.3,98.3L210.9,98L211.5,98.1L211.6,98.3ZM205.3,99.9L205.7,100.5L206,100.5L206.1,100.2L206.3,100.1L206.7,100.5L206.7,101L206.1,101.8L205.6,102.8L205.1,103L204.8,102.9L204.3,103.5L203.9,104.1L203.5,104.9L203.5,105.3L203.4,105.6L201.9,105.9L201.4,106.1L200.8,105.8L200.5,105.3L200.6,105L201.2,104.9L201.2,104.4L201.3,104.2L201.5,104L201.7,103.4L201.9,103.2L202.3,103.4L202.6,102.9L202.8,102.9L203,103.2L203.1,102.7L203,102.3L203,102L203.6,101.2L203.8,100.6L204.2,100.2L204.5,100.2L204.6,99.7L204.5,99.1L204.5,98.7L204.8,97.8L205.1,97.7L205.3,98.6ZM178.2,144.7L177.9,144.7L177.9,144.3L178.1,143.9L178.3,143.7L178.7,143.6L179.1,143.6L179.3,143.8L179,144.1ZM177.8,143.3L177.5,143.4L177.5,142.9L177.8,142.5L177.9,142.2L178,141.9L178.3,141.6L178.6,142L178.6,142.5L178.5,143ZM173,154.7L172.8,154.9L172.4,154.7L171.5,154.9L171.1,154.6L171.4,154.1L172.2,153.6L172.7,153.6L173.1,154.3ZM198.3,105.4L198.7,106L199,105.8L199.4,105.8L199.7,106L200,106.4L200.3,106.4L200.5,107L200.6,107.7L200.3,108.2L200,108.5L199.9,109.1L200.1,109.9L199.4,110.2L198.5,110.4L198.2,110L197.5,110.7L196.9,111.9L196.6,112L196.5,111.6L196.1,111.4L195.5,111.4L195.5,111.1L195.6,110.9L196.1,110.6L196.2,110L196.1,108.9L196.2,108.4L196.2,108.1L196.6,107.6L197.7,107.8L197.8,107.4L197.7,107.2L197.2,106.7L197.3,106.4L197.7,106.2L198.1,106.1L198.2,105.7L198.2,105.5ZM191.3,117L191.3,117.1L191.9,116L192.5,115.7L192.5,115.4L192.7,115L192.7,114.4L192.8,113.9L193.1,113.8L193.3,113.6L193.5,113.5L193.9,113.9L194.1,114.4L194.4,115.3L194.3,116.2L193.6,117L193,117.3L192.4,118.1L192.1,118.8L191.9,118.9L191.7,118.9L191.6,118.7L191.3,118.7L190.9,119.3L190,119.8L189.6,119.6L189.6,119L189.3,119.1L189,119.8L188.6,120L188.4,120.1L187.9,119.8L186.7,121L185.6,121.2L185.2,121.1L185.2,120.4L185.9,119.4L186.5,118.8L188.6,118.4L189.9,116.4L190.2,114.3L190.5,113.6L190.3,113.1L190,113.1L190,112.4L190.1,111.7L190.8,110.7L191.2,110.2L191.8,109L192.1,108.7L192.4,108.7L192.7,109.1L192.7,109.7L192.2,110.9L191.5,111.9L191.6,112.6L191.8,113.2L191.9,114.2L191.9,115.1L191.4,116.4ZM91.9,90.6L91.6,90.7L91.3,90.4L91.9,89.7L93.7,88.3L94.4,86.9L95.8,86.4L95.8,87.2L95.8,88.1L94.5,88.9L93.2,89.4ZM205.2,42.7L204.7,43.3L203.9,42.4L203.5,41.3L203.7,40.8L205,40.8L205.3,41.4L205.4,41.7ZM197,0L197.2,0.6L196.8,2L196.1,3.4L196.2,4L196.4,5.1L196.5,6.1L196,7L195,7.5L194.1,7L193.6,6.4L193.2,5.4L192.7,4.7L192.2,4.3L190.4,2.1L189.4,0L197,0Z" fill="#b8e653" stroke="#0c0e06" stroke-width="1"/></svg>
