<svg xmlns="http://www.w3.org/2000/svg" viewBox="0 0 300 300"><path fill="#e8e8ea" d="M278.3,169L279.5,170L279.8,171.6L279.5,173.4L278.2,177.2L277,180L275.5,185.7L274.2,195.6L274.6,197.3L278.4,203L279.8,207.3L280,210.3L278.4,215.3L276.5,220.9L275.6,222.1L274.6,222.6L270,220.7L266.7,220.9L263,222L259.1,221.8L256,221.2L252,223.4L248,222.1L245.6,220.8L243.9,216.9L243.2,216.4L235.1,220.5L233.1,220.7L228.1,218.5L223.9,216.4L222.4,215.7L218.4,214.9L214.8,214.4L210.9,213L206,214.8L204.1,214.6L202.2,213.4L201.3,210.8L201.1,208.3L199.3,206.6L196.8,206.2L193.2,207.7L188,209.8L186.3,209.4L184.8,208.8L184.2,208.3L183.4,206L182.6,205.4L181.4,205.3L179.3,204.8L176.6,203.1L168.5,199L167.5,197.2L167.5,193.1L167.1,191.4L166.1,189.7L161.9,187.9L153.9,185L149.5,182.7L147.3,183.8L143.2,184.8L141.1,186.8L138.4,186.1L132.2,184L128.8,183.6L126.7,184.4L126.3,185.6L123.7,187.1L121.3,186L116.6,184.4L112.3,183.6L106,181.7L105.3,178.9L104.1,176.1L102.6,175.7L96.9,176.2L91.7,173.1L86,169.2L83.6,167.9L82.1,167.4L80.7,167.9L79.1,168.9L77.7,169.1L74.7,167.4L70.8,165L65.9,162.1L60.4,157.9L58.1,155.6L57,153.8L55.8,152.1L50.9,149.4L47,147.2L42.4,144.6L41.6,144.1L39.8,142.6L37.2,140.6L34.9,140.1L34.2,141.1L33.7,142.3L31.8,142L28.8,140L25.5,138L23.1,136L20.6,134L20,132.6L21,128.1L22.5,124.1L23.8,123.3L25.8,120.7L26.6,116.1L26.5,112.2L28.5,106.8L31.2,101L35.9,94.7L38,92.6L40.3,91.2L44.6,86.6L45.5,85.8L47.5,84.6L49.3,84.3L50.7,84.9L52.2,87.3L53.9,89.6L56,89.5L58.5,87.6L63.7,78.5L71,76.6L77.8,77.6L83.8,78.9L85.7,81.9L86.8,85.1L87.5,86.7L89.5,88.6L98,93.2L103,97.3L109.8,102.7L115,105.1L119.5,105.3L122,107.4L125.8,111.7L129.2,116.6L133.2,121.1L136,120.9L139.8,119.5L144.5,117.5L147.3,118.5L149.8,119.8L150.6,122.1L152.1,126.5L153.9,131L156.5,132.6L159.8,135L161.5,136.9L167.4,140.2L168.3,141.6L169.4,142.6L170.9,143.2L172.1,143.9L173.9,144.1L180.9,142.1L182.6,142.3L183.8,142.7L183.8,143.5L182.5,146.6L181.4,150.8L182.5,152.8L185.4,153.7L191.7,154.2L200.4,154.2L202.9,156.3L205.6,159.4L208.1,164.6L209.1,166.9L210.5,167.5L212.7,166.7L213.1,164.5L213.2,161.2L215,160.1L216.3,161L217.7,163.5L221.1,165.8L223.8,166.9L226.2,166.5L227.3,165.6L228.4,161.2L230.4,160.6L232.8,160.9L233.7,161.7L234.8,163.5L237.6,164.3L240.6,165.5L243.4,166.9L247.2,170.1L252.1,170.8L257.6,170.7L260.5,170.8L262.7,171L264.7,170.8L270.3,168.4L272.6,168.2L275.5,168.6Z"/></svg>
