<svg xmlns="http://www.w3.org/2000/svg" viewBox="0 0 400 300"><path d="M346.1,300L347.3,296.5L338.2,294.3L327.3,281L326.3,267.7L331.7,270.2L332,258.3L339.6,254.3L338,247.3L341.5,241.6L342.1,224.1L354.1,228L361,214.1L361.8,205.8L370.2,191.4L369.8,181.6L389.7,169.7L400,172.6L400,300ZM400,166.4L399.5,162.1L400,161.8L400,166.4Z" fill="#2c2c34" stroke="#474751" stroke-width="0.8"/><path d="M400,161.8L399.5,162.1L400,166.4L400,172.6L400,172.6L389.7,169.7L369.8,181.6L370.2,191.4L361.8,205.8L361,214.1L354.1,228L342.1,224.1L341.5,241.6L338,247.3L339.6,254.3L332,258.3L323.9,231.8L319.6,231.8L317.1,242.5L308.7,233.8L313.4,224.3L320.3,223.3L327.4,209L318.5,206L304.3,206.3L289.6,203.9L288.2,192.1L280.9,191.2L268.7,183.8L263.2,195.4L274.3,204.5L264.7,210.8L261.3,217L270.8,221.5L268.2,231.7L273.5,244.3L275.9,258L273.7,264.1L263.2,263.9L244.2,267.3L245.1,279.8L236.9,289.5L215.7,300L26.1,300L26.1,300L26.1,285.1L23.1,269.7L0.7,279.5L0,279.4L0,157.7L0,157.7L10,158.4L26.1,140L35.7,122.1L50.7,104.1L50.5,91.3L63.6,80.7L51.2,71.7L45.8,59.2L40.4,43L48,34.9L71.3,39.5L88.5,36.7L103.4,20.9L119.9,42.9L118.4,58.1L124.5,67.5L124,76.8L112.9,74.4L117.2,94.4L132.4,105.8L153.8,118.4L144,126.4L138.1,143L153,149.6L167.5,158.2L187.6,167.9L208.7,170.2L217.6,179L229.5,180.6L248.1,184.6L260.9,184.3L262.7,177.5L260.7,166.5L261.8,159L271.3,155.4L272.5,169.1L272.9,172.5L286.9,179.1L296.6,176.4L309.5,177.5L322.1,177.1L323.3,166.4L317,160.8L329.4,158.7L343.4,145.7L361.2,134.5L374.1,138.8L385.1,131.3L392.3,142.3L387.1,149.7L400,151.7L400,161.8Z" fill="#2c2c34" stroke="#474751" stroke-width="0.8"/><path d="M332,258.3L331.7,270.2L326.3,267.7L327.3,281L322.9,272.4L322,263.9L319.1,255.9L312.7,246.2L298.5,245.6L299.8,252.4L295,261.7L288.5,258.3L286.2,261.3L281.9,259.5L275.9,258L273.5,244.3L268.2,231.7L270.8,221.5L261.3,217L264.7,210.8L274.3,204.5L263.2,195.4L268.7,183.8L280.9,191.2L288.2,192.1L289.6,203.9L304.3,206.3L318.5,206L327.4,209L320.3,223.3L313.4,224.3L308.7,233.8L317.1,242.5L319.6,231.8L323.9,231.8Z" fill="#2c2c34" stroke="#474751" stroke-width="0.8"/><path d="M317,160.8L323.3,166.4L322.1,177.1L309.5,177.5L296.6,176.4L286.9,179.1L272.9,172.5L272.5,169.1L282.8,156.1L291.1,151.7L302.1,155.7L310.2,156.2Z" fill="#2c2c34" stroke="#474751" stroke-width="0.8"/><path d="M0,43L0.4,42.4L0,38L0,34.9L0,34.9L7.5,27.3L5.7,17.9L2,9.9L11.1,1.5L17.3,0L73.9,0L73.9,0L78,13.2L103.4,20.9L103.4,20.9L88.5,36.7L71.3,39.5L48,34.9L40.4,43L45.8,59.2L51.2,71.7L63.6,80.7L50.5,91.3L50.7,104.1L35.7,122.1L26.1,140L10,158.4L0,157.7L0,43Z" fill="#2c2c34" stroke="#474751" stroke-width="0.8"/><path d="M17.3,0L11.1,1.5L2,9.9L5.7,17.9L7.5,27.3L0,34.9L0,0ZM0,38L0.4,42.4L0,43L0,38Z" fill="#2c2c34" stroke="#474751" stroke-width="0.8"/><path d="M400,151.7L387.1,149.7L392.3,142.3L385.1,131.3L374.1,138.8L361.2,134.5L343.4,145.7L329.4,158.7L317,160.8L310.2,156.2L302.1,155.7L291.1,151.7L282.8,156.1L272.5,169.1L271.3,155.4L261.8,159L243.9,157.3L226.4,153.3L214,145.6L202,142.2L196.8,133.7L188.1,131.2L172.6,119.6L160.2,114.1L153.8,118.4L132.4,105.8L117.2,94.4L112.9,74.4L124,76.8L124.5,67.5L118.4,58.1L119.9,42.9L103.4,20.9L78,13.2L73.9,0L400,0Z" fill="#2c2c34" stroke="#474751" stroke-width="0.8"/><path d="M261.7,159.1L262.3,159.6L262.4,160.4L262.3,161.3L261.6,163.1L261.1,164.4L260.3,167.2L259.7,171.9L259.9,172.8L261.7,175.5L262.4,177.6L262.5,179L261.7,181.4L260.8,184.1L260.4,184.7L259.9,184.9L257.7,184L256.1,184.1L254.3,184.6L252.5,184.5L251,184.2L249,185.3L247.1,184.7L246,184L245.1,182.1L244.8,181.9L240.9,183.9L240,184L237.5,183L235.5,181.9L234.8,181.6L232.9,181.2L231.2,181L229.3,180.3L226.9,181.2L226,181.1L225.1,180.5L224.7,179.2L224.6,178L223.7,177.2L222.5,177L220.8,177.7L218.3,178.7L217.4,178.6L216.7,178.3L216.5,178L216.1,176.9L215.7,176.6L215.1,176.6L214.1,176.3L212.8,175.5L208.9,173.5L208.4,172.7L208.4,170.7L208.2,169.9L207.7,169.1L205.7,168.2L201.9,166.8L199.8,165.7L198.7,166.2L196.8,166.7L195.7,167.7L194.4,167.4L191.4,166.4L189.8,166.2L188.8,166.5L188.6,167.1L187.4,167.8L186.2,167.3L183.9,166.5L181.9,166.1L178.8,165.2L178.5,163.9L177.9,162.5L177.2,162.3L174.5,162.6L172,161.1L169.2,159.2L168.1,158.6L167.3,158.4L166.7,158.6L165.9,159.1L165.2,159.2L163.8,158.4L161.9,157.2L159.6,155.8L156.9,153.8L155.8,152.7L155.3,151.8L154.7,151L152.4,149.7L150.5,148.7L148.3,147.4L147.9,147.2L147,146.4L145.8,145.5L144.7,145.2L144.3,145.7L144.1,146.3L143.2,146.2L141.7,145.2L140.2,144.2L139,143.3L137.8,142.3L137.5,141.6L138,139.4L138.7,137.6L139.3,137.2L140.3,135.9L140.7,133.7L140.6,131.8L141.6,129.2L142.9,126.4L145.2,123.4L146.2,122.4L147.3,121.7L149.3,119.5L149.8,119.1L150.7,118.6L151.6,118.4L152.3,118.7L153,119.9L153.8,121L154.8,120.9L156,120L158.5,115.6L162,114.7L165.3,115.2L168.2,115.8L169.1,117.3L169.6,118.8L170,119.6L170.9,120.5L175,122.7L177.4,124.6L180.7,127.3L183.2,128.4L185.3,128.5L186.5,129.5L188.4,131.6L190,133.9L191.9,136.1L193.3,136L195.1,135.3L197.4,134.4L198.7,134.9L199.9,135.5L200.3,136.6L201,138.7L201.9,140.9L203.1,141.6L204.7,142.8L205.5,143.7L208.4,145.3L208.8,146L209.3,146.4L210.1,146.7L210.6,147.1L211.5,147.2L214.8,146.2L215.7,146.3L216.2,146.5L216.2,146.9L215.6,148.4L215.1,150.4L215.6,151.3L217,151.8L220.1,152L224.2,152L225.4,153L226.7,154.5L227.9,157L228.4,158.1L229.1,158.4L230.2,158L230.3,157L230.4,155.4L231.3,154.9L231.9,155.3L232.5,156.5L234.2,157.6L235.5,158.1L236.6,157.9L237.1,157.5L237.7,155.4L238.6,155.1L239.8,155.2L240.3,155.6L240.8,156.5L242.1,156.9L243.6,157.4L244.9,158.1L246.7,159.7L249.1,160L251.7,159.9L253.1,160L254.2,160.1L255.1,160L257.8,158.9L258.9,158.8L260.3,158.9Z" fill="#b8e653" stroke="#0c0e06" stroke-width="1"/></svg>
