<svg xmlns="http://www.w3.org/2000/svg" viewBox="0 0 400 300"><path d="M239.7,102.9L241.4,103L242.9,101.5L244.6,100.4L246.2,99.4L248.8,97.2L249.5,96.9L251.2,96.4L251.9,95.9L252.7,95.8L252,97.1L251.1,97.6L250.9,98L251.4,98.8L250.7,99.8L250.7,101.2L249.7,102.7L251.2,102.1L251.7,101.1L251.4,100.5L252.1,99.4L253,98.8L252.7,98L252.7,97.3L253.9,97.5L254.5,97.5L254.9,97.3L255.8,97.1L256,97.9L257.1,97.8L256.7,98.7L255.8,99.9L255.6,100.5L254.2,101.7L253.2,102.1L254.7,102.3L256.9,100.8L258.1,99.5L258.1,101.1L257.1,102.6L256.2,103.5L255.2,103.8L254.2,104.6L253.7,105.8L253.8,106.7L254,107.3L255.1,108.4L253.9,110.6L255.2,110.3L255.9,110.7L256.9,111.9L256.3,113.4L255.8,114.1L253.4,117.2L252.3,118.7L251,119.7L251.1,121.3L250.3,122.5L246.6,126.5L246,127.4L243.1,133.9L241.2,136.6L240.1,137.5L239,138.3L236.3,139.6L235.1,141.1L233.8,142.3L232.4,142.6L232.5,143.1L233.4,143.4L234.1,144.2L233.5,145.1L232.5,145.7L231.5,145.9L231,146.5L233.4,146.1L234.1,146.5L234.3,147.5L234.5,148.5L235.1,149.7L237.2,150.4L239,150.8L239.4,151.3L239.7,153.2L239.4,154.2L238.9,154.8L238.3,155L236.8,155.1L235.3,154.7L234.3,153.6L231.4,153.9L230.6,154.2L230.2,154L231.8,152.7L231,152.1L230.3,151.8L229.5,152.2L229.1,152.8L228.9,153.9L228.4,154.5L227.6,154.7L226.5,153.8L225.4,152.6L223.8,151.3L224,152.1L225.2,154L225.9,155.3L224.4,156.3L222.9,157.1L221.6,157.5L220.4,158.2L219,159.4L218.2,159.8L216.1,159.8L215,160.2L214.6,161.7L213.8,162.6L212,162.8L212.7,163.1L213.1,163.6L211.9,168.1L211.6,170L211.4,173.2L210.7,176.2L208.5,176.2L208.8,176.7L210.4,177.6L210.1,178.9L208.3,181.2L207.6,182.6L206.8,185.8L205.8,188.9L204.1,192.4L204.1,193L204.7,193.9L205.4,194.6L205.4,195.8L205.2,196.3L204.4,196.5L203.7,196.9L199.9,197.8L198.7,198.9L197.7,200.8L196.5,202.5L192.6,206.2L190.2,209.3L189.8,210.2L189.1,210.8L184.1,212.3L180.5,212.5L178.5,212.1L176.6,211.4L175.6,211.1L173.6,211.6L172.7,212.1L171.1,211.6L169.9,212L169.6,211.6L169.1,210.7L169.3,209.5L169,208.6L168.2,208L167.7,207.3L167.1,206.8L165.4,206.6L162.8,206.9L162,206.9L160.2,203.9L159.6,203.2L157.5,202.2L156.8,202.3L155.7,203.9L155,204.2L151,204.4L147.1,203.9L145.6,203.3L145.3,201.9L148.3,198.1L147.4,198.7L145.6,200.2L144.4,199.9L145.5,198.3L145.6,197.6L145.4,196.7L143.8,198.1L142.1,198.3L141.9,197L142,195.5L142.4,195.1L147.1,194.3L148.9,193.8L149.6,193L146.8,192.7L146.6,191.6L147,190.7L149.4,189.2L147.7,189.6L145.6,189.4L145.8,187.8L146.3,186.6L148.4,186.6L147.7,185.7L147.7,184.5L148.2,184.5L150.3,186.1L151.8,186.6L151.2,185.4L151.3,184.7L151.7,184.4L153,184.1L152.6,183.9L151.4,183.6L150,182.7L149.9,181.7L149.9,180.6L151.4,179.1L152.3,180L153.4,179.7L152.6,179.1L152.1,178L152.4,177.3L155.6,174.5L156.4,177.2L156.6,176.3L156.7,175.4L156.3,174.7L156.4,173.9L156.7,173.3L158,172.7L159.9,170.6L161.2,169.6L162.2,170.3L162.9,171.1L162.8,170.3L162.3,169.6L162.2,167.7L164.6,164.8L167.2,162L169.7,159.1L171,158L173.9,156.8L175.7,157.3L176.2,157.2L178.9,155.1L180,154.6L181,155.3L181.6,155.6L181,153.7L181.5,152.8L183.8,151.3L186.6,149.7L188.8,149L190.3,148L191.3,147.9L191.1,147.1L191.3,146.3L192.2,146.4L192.4,146.1L191.7,145.7L194,144.1L195.3,142.4L196,142.1L196.6,141.6L197.3,140.4L198.2,140L199,140.2L199.6,140.8L199.3,139.8L198.2,139.2L199.4,138.4L200.5,137.8L201.6,138.3L202.8,138.9L201.6,137.9L201.5,137.3L202.8,136.5L203.6,136.3L204.6,137.7L204.5,136.6L204.7,135.6L206.2,134L208.1,131.4L208.6,132.3L208.8,133.4L208.6,134.8L209.1,134.3L209.2,133.1L208.9,131L211.3,127L211.7,126.6L212.3,126.4L213.1,126.2L212.8,125.7L212.2,125.1L212.8,123.1L213.3,120.9L213.8,118.7L214.7,116.5L215.6,113L216.4,112.3L218.4,112L219.3,111.5L220.7,110.3L222.4,108L223.4,106.1L224.6,101.4L225.3,96.4L227.3,92.7L230.1,90.1L232.7,88L233.7,87.6L235.4,87.5L237.1,88.1L234,88.5L233.7,89.8L233.6,90.9L233.9,92L234.5,93L236,93.9L237.8,94.4L238.6,96.5L238.7,99L239,101.1ZM251.4,94.8L249.4,95.9L249.5,95.1L249.9,93.4L250.8,92.5L251.2,92.5L252.1,91.8L252.1,93.3ZM145.8,191.8L145.7,192.8L145.6,193.3L145.1,193.3L144.3,193.2L143.6,192.7L143,192.9L142.7,192.7L143.2,191.5L144.9,190.9L145.6,191.4ZM149.2,181.8L149.9,184.3L148.6,183.8L148,183.1L149,181.8ZM166.4,217.5L166.4,218.4L164.9,218L164.9,219L166.2,219.5L166.6,220.2L167.9,220L168.1,221.1L167.9,222L167,222.7L164.5,223L162.9,224.4L161.5,224.1L161.1,224.3L159.5,225.7L157.7,226.2L157.3,226.1L157.5,224.8L158.8,223.5L158.8,222.4L159.2,221.4L160.5,220.8L160.5,219.5L161.3,218.4L160.8,216.1L161.1,214L163.6,213.9ZM275.4,8.3L275.5,9.3L274.4,9L274,8.2L272.7,7.5L272.5,7.2L272.4,5.7L273,4.9L273.1,4.6L273.5,4.5L274,5.3L275,6.5ZM258.9,0L259.7,1.1L260.8,3.3L261.6,4.7L264.5,8.9L264.1,10.4L264.1,11.4L263.8,12.2L264.8,14.4L264.1,15.1L263.7,17.4L263.3,17.8L263.3,18.6L264.5,18.8L265.2,19.2L265.8,19.9L266.2,19.1L266.7,18.8L268.1,19.9L271,21L271.8,21.4L272.2,22.3L272.5,24.5L273.1,25.4L274.2,25.6L275.4,25.3L275.8,24.5L275.5,22.4L274.7,19.1L274.7,18L274.8,16.9L274.6,15.8L274.1,14.8L273.7,14.1L273.1,13.4L273.3,12.4L274.2,11.9L274.7,12.8L275.2,13.8L277.4,16.9L278.8,16.7L278.9,18L279.8,19.3L280.4,20.8L281,25.4L282,29.6L283.9,31.5L284.1,32.4L282.9,31.9L282.6,32.2L282.7,32.7L283.7,33.5L285,33.9L285.7,33.9L286.5,34.1L291.2,37L293.5,38.1L299.3,39.9L300.9,40L301.8,39.9L303.6,39.3L305.1,38.2L306.4,36.5L307.6,34.6L308.8,33.7L310.3,33L311,32.3L311.7,31.8L315.6,32L316.9,33L318.6,33.8L319.5,34.4L319.2,35.6L318.2,37.4L317.4,39.4L316.7,43.9L316.3,48.5L315.6,50.5L314.3,52L312.9,53.1L311.3,53.7L310.6,56.3L310.3,59.4L310.4,60.1L310.9,60.7L311.1,61.7L310.3,63.5L309.8,63.2L309.1,61.7L308.5,61.1L306.6,60.6L304.6,60.3L302.9,60.5L301.2,61.1L298.8,62.5L298,63.2L297.3,64L296.2,65.9L295.9,68.3L296,69.5L296.4,70.5L298.5,71.8L296.4,76.3L294.6,81.1L293.5,82.4L292.3,83.7L291.2,86.6L289.2,89L287.8,90.9L286.8,92.9L285.9,95L283.9,98L283.1,100L281.9,101.6L279.8,103.7L277.5,105.5L274,108L273,108.8L272,109.4L270.7,108.7L270.4,107.9L270.1,106.2L269.8,105.6L268.2,105.1L266,105.9L265.7,105.7L265.6,105.3L265.6,102.9L265.9,102.2L265.4,101.8L264.9,101.9L264.8,102.6L265.1,103.1L263.9,103.8L262.5,103.8L262.2,103.5L262.1,103.1L262.4,102.3L262.8,101.7L265.2,98.6L267.7,94.4L269.8,90.1L270.4,87.8L271.2,83.6L270.5,81.9L269.7,80.3L267.6,77.1L264.7,75.4L262.8,75.1L261,74.5L259.4,73L257.9,71.2L254.9,69.8L251.7,68.6L249.9,67L249.5,66.1L249.2,65L249.2,64L249.5,62.9L249.8,62.2L250.4,61.6L253.7,59.6L257.3,58.4L257.9,58.4L258.6,58.2L259.5,57.5L261,56L261.5,54.9L261.8,51.5L262.3,48.1L263.2,44.4L264.6,42L265.1,40.6L264.5,38.2L265,37.3L265.7,36.8L266.3,36.5L265.1,34.2L263.8,30.9L263.4,29.9L263.6,28.8L264,27.8L263.1,27.6L262.6,26.6L261.3,23.4L261.7,22.8L262.4,23.2L263.5,25.5L263.7,24.3L264.5,23.6L265.4,23.2L266.3,23.1L264.2,20.5L263.5,20.6L262.5,21L261.5,21.3L260.6,21.1L259.7,20.5L259.2,19.4L258.7,17.3L258.3,16.5L255.5,12.2L256.3,12.1L258.6,14.2L259,13.6L259.4,12.6L259.2,11.5L258.7,10.6L257.9,10.1L257.9,9.1L258.5,8.2L258.4,7.6L257.2,6.3L256.6,6.2L256.4,6.8L256.7,7.7L256.4,7.8L253.2,5.5L252.2,3.6L251.4,1.6L251.3,2.4L251.4,3.6L252.7,5.9L254.8,8.5L255.2,9.2L254.8,10.1L254.1,10.4L253.5,9.8L252.6,7.5L251.9,6.4L247.5,0L258.9,0ZM136.3,300L136.3,299.6L138.2,299.4L138.6,299.7L138.7,300L136.3,300ZM397.4,152.1L396.9,152.6L396,152.6L394.4,154.7L394.5,153.1L394,152.5L392.6,152.6L392.4,153L393.3,153.4L393.5,153.6L392.6,154.5L393.5,156.5L394.3,156.4L395.1,157.9L395.1,158.4L393.3,159L392.4,159.8L391.6,159.7L391.2,159.6L390.7,158.1L390.7,157.5L391.7,156.4L392.3,155.4L391.8,154.4L390.7,153.7L388.1,154L387.5,153.8L388.8,152.4L390.2,152.6L391.7,151.6ZM397.4,164L396.8,164.2L396.8,163L396.6,162.2L397.7,162L398.2,162.9Z" fill="#b8e653" stroke="#0c0e06" stroke-width="1"/></svg>
