<svg xmlns="http://www.w3.org/2000/svg" viewBox="0 0 300 300"><path fill="#e8e8ea" d="M232.5,52L236,52.2L239.2,49.2L242.7,46.8L246.2,44.8L251.6,40.2L252.9,39.5L256.5,38.6L258,37.5L259.7,37.3L258.1,40L256.2,40.9L255.9,41.9L257,43.5L255.4,45.7L255.4,48.4L253.4,51.7L256.5,50.4L257.6,48.3L257,47.1L258.3,44.7L260.3,43.5L259.5,41.8L259.5,40.4L262.1,40.9L263.3,40.9L264.3,40.3L266.1,40L266.5,41.6L268.8,41.4L267.9,43.4L266.2,45.7L265.7,47.1L262.7,49.5L260.8,50.5L263.8,50.7L268.3,47.6L270.9,44.9L270.8,48.3L268.7,51.4L266.8,53.4L264.7,53.9L262.7,55.6L261.8,58.1L261.9,59.9L262.4,61.2L264.5,63.5L262.2,68L264.8,67.4L266.3,68.3L268.3,70.8L267,73.8L266.2,75.4L261,81.7L258.8,84.9L256.1,86.9L256.2,90.3L254.7,92.7L247,101.2L245.6,103L239.6,116.4L235.7,122.1L233.5,124.1L231.2,125.7L225.6,128.3L223,131.4L220.3,134L217.4,134.6L217.5,135.7L219.4,136.3L220.8,138L219.7,139.9L217.6,141.1L215.5,141.4L214.4,142.7L219.5,141.8L220.9,142.8L221.3,144.9L221.8,146.8L223,149.3L227.3,150.8L231.2,151.6L232,152.7L232.5,156.7L231.9,158.7L231,160L229.6,160.5L226.6,160.7L223.4,159.8L221.3,157.4L215.3,158.2L213.7,158.7L212.9,158.3L216.2,155.7L214.4,154.3L213,153.7L211.4,154.6L210.5,155.9L210.1,158.1L209,159.4L207.4,159.7L205,157.9L202.7,155.3L199.4,152.7L199.9,154.3L202.5,158.3L203.8,160.9L200.7,163.1L197.7,164.7L194.9,165.7L192.5,167.1L189.5,169.5L187.8,170.3L183.5,170.4L181.2,171.1L180.4,174.3L178.8,176.3L175,176.6L176.4,177.2L177.2,178.3L174.7,187.6L174.2,191.6L173.7,198.3L172.2,204.5L167.7,204.5L168.3,205.6L171.7,207.3L171.1,210.1L167.3,214.9L165.8,217.7L164.2,224.6L162,230.9L158.5,238.1L158.5,239.4L159.7,241.3L161.1,242.9L161.3,245.2L160.8,246.4L159.2,246.7L157.7,247.5L149.9,249.4L147.2,251.7L145.1,255.7L142.7,259.2L134.6,266.9L129.7,273.3L128.7,275.1L127.4,276.5L116.9,279.5L109.4,280L105.3,279.2L101.4,277.7L99.3,277.1L95.1,278.1L93.3,279.1L90,278.1L87.5,278.9L86.7,278.1L85.7,276.2L86.2,273.7L85.6,271.9L83.9,270.6L82.8,269.1L81.5,268.1L78.1,267.6L72.7,268.3L70.9,268.3L67.2,262.1L65.9,260.6L61.6,258.6L60.1,258.9L57.8,262.2L56.3,262.7L48.2,263.1L39.9,262L36.8,260.8L36.3,257.9L42.6,250.1L40.7,251.2L36.8,254.3L34.4,253.9L36.7,250.4L36.9,248.9L36.5,247.1L33.2,250.1L29.5,250.4L29.1,247.8L29.4,244.6L30.2,243.8L40,242.1L43.7,241L45.2,239.4L39.2,238.8L38.9,236.5L39.7,234.6L44.8,231.5L41.1,232.3L36.9,232L37.3,228.7L38.3,226.1L42.7,226.1L41.2,224.3L41.1,221.8L42.3,221.7L46.6,225L49.8,226.2L48.5,223.7L48.7,222.1L49.5,221.4L52.1,220.9L51.4,220.5L49,219.9L46.1,218L45.8,216L45.9,213.7L49,210.5L50.8,212.4L53,211.9L51.4,210.4L50.4,208.2L51,206.7L57.7,200.9L59.3,206.5L59.8,204.6L59.9,202.8L59.1,201.3L59.2,199.8L60,198.4L62.7,197.1L66.5,192.8L69.2,190.9L71.5,192.1L72.9,193.8L72.7,192.1L71.7,190.7L71.3,186.8L76.3,180.7L81.7,174.9L87,168.8L89.8,166.7L95.7,164.2L99.5,165.2L100.5,165L106.1,160.7L108.4,159.5L110.5,161.1L111.8,161.7L110.5,157.7L111.6,155.9L116.2,152.7L122.2,149.4L126.6,148L129.9,145.8L131.9,145.7L131.6,144L131.9,142.4L133.7,142.5L134.2,141.9L132.7,141L137.5,137.8L140.2,134.3L141.6,133.5L142.8,132.4L144.4,130L146.2,129.2L147.9,129.5L149.1,130.8L148.5,128.7L146.2,127.6L148.7,125.9L151.1,124.7L153.4,125.6L155.7,127L153.4,124.8L153.1,123.5L155.8,122L157.4,121.5L159.5,124.4L159.3,122.1L159.7,120.1L162.8,116.8L166.8,111.4L168,113.2L168.2,115.5L168,118.3L168.9,117.3L169.1,114.8L168.5,110.4L173.5,102.3L174.4,101.4L175.5,100.8L177.2,100.6L176.7,99.4L175.4,98.1L176.7,94L177.6,89.4L178.7,84.9L180.6,80.4L182.5,73.1L184.1,71.6L188.3,71.1L190,70L193.1,67.4L196.7,62.6L198.6,58.7L201.2,48.8L202.6,38.5L206.7,30.9L212.7,25.3L218,21.1L220.1,20.3L223.7,20L227.2,21.2L220.7,22.2L220.1,24.7L219.8,27.1L220.6,29.5L221.8,31.4L224.9,33.3L228.5,34.4L230.2,38.7L230.5,43.8L231.1,48.2ZM237.2,-195.4L237.7,-193.7L239.4,-194.8L240.6,-196.8L242.7,-198.7L242.3,-195.6L243.4,-194.9L250.2,-192.7L251.6,-190.9L253,-190.4L253.8,-191.4L254.8,-191.9L257.2,-190.8L262.7,-187.6L263.2,-186.5L263,-184.8L263.2,-183.1L264,-181.7L265.8,-181.4L268.3,-183.4L269.4,-183.7L271,-180.7L271.7,-179.1L271.3,-179.2L272.5,-177.5L273.8,-175.9L276.2,-171.1L275.9,-169.4L275.2,-167.9L277.4,-163.4L276,-163.1L271.6,-163.9L271.7,-162.9L274.2,-159.7L276.4,-155.1L278.1,-152.2L284.1,-143.5L283.3,-140.4L283.4,-138.4L282.6,-136.7L284.7,-132L283.4,-130.6L282.5,-125.8L281.6,-125L281.7,-123.3L284.1,-122.8L285.6,-122.1L286.9,-120.7L287.7,-122.3L288.8,-122.8L291.6,-120.5L297.7,-118.3L299.4,-117.4L300.3,-115.6L300.8,-111.1L302,-109.2L304.3,-108.8L306.9,-109.4L307.6,-111.1L307.1,-115.4L305.3,-122.3L305.3,-124.6L305.5,-126.8L305.2,-129L304.2,-131.2L303.3,-132.8L302,-134.1L302.5,-136.3L304.3,-137.2L305.4,-135.4L306.4,-133.3L311.1,-126.9L313.9,-127.3L314.2,-124.7L316,-121.9L317.1,-118.8L318.5,-109.3L320.5,-100.4L324.4,-96.4L324.9,-94.5L322.5,-95.5L321.8,-94.9L322,-94L324.2,-92.3L326.7,-91.5L328.3,-91.6L329.8,-91L339.7,-85.1L344.5,-82.8L356.5,-79.1L359.9,-78.8L361.8,-78.9L365.4,-80.2L368.6,-82.5L371.4,-86L373.8,-90L376.4,-91.9L379.3,-93.4L380.9,-94.8L382.4,-95.8L390.5,-95.3L393.2,-93.3L396.8,-91.7L398.5,-90.5L398,-88L395.9,-84.2L394.2,-80.1L392.8,-70.7L391.8,-61.2L390.4,-57L387.7,-53.8L384.8,-51.5L381.4,-50.3L380.1,-44.9L379.5,-38.5L379.6,-36.9L380.7,-35.7L381.1,-33.7L379.3,-29.9L378.4,-30.5L376.9,-33.7L375.6,-35L371.6,-36L367.5,-36.5L364,-36.1L360.6,-34.8L355.4,-32L353.9,-30.6L352.4,-28.9L350.1,-24.9L349.6,-20L349.7,-17.4L350.4,-15.4L354.9,-12.7L350.6,-3.3L346.7,6.7L344.5,9.5L342,12.1L339.6,18L335.4,23.2L332.7,27.1L330.5,31.3L328.6,35.6L324.5,41.8L322.8,45.9L320.3,49.3L315.9,53.6L311.3,57.4L303.9,62.6L301.9,64.3L299.7,65.6L297.1,64.1L296.5,62.4L295.8,58.9L295.3,57.6L291.9,56.6L287.3,58.3L286.6,57.9L286.4,57.1L286.4,51.9L287.1,50.5L286.1,49.7L285,50L284.7,51.3L285.4,52.4L282.8,53.9L280.1,53.9L279.3,53.4L279.1,52.4L279.7,50.9L280.6,49.5L285.6,43L290.8,34.4L295.2,25.3L296.4,20.6L298,11.9L296.7,8.3L295,4.9L290.5,-1.6L284.5,-5.3L280.6,-5.8L277,-7.1L273.6,-10.3L270.4,-13.9L264.2,-16.9L257.6,-19.2L253.8,-22.5L252.9,-24.5L252.4,-26.8L252.4,-28.9L252.9,-31.1L253.6,-32.7L254.8,-33.9L261.8,-38.1L269.1,-40.5L270.5,-40.5L271.8,-40.9L273.7,-42.3L277,-45.6L277.9,-47.8L278.5,-54.9L279.6,-61.9L281.5,-69.7L284.4,-74.7L285.4,-77.6L284.1,-82.6L285.2,-84.4L286.6,-85.5L288,-86.1L285.5,-90.8L282.6,-97.8L281.9,-99.9L282.4,-102L283.2,-104.1L281.3,-104.7L280.2,-106.7L277.5,-113.4L278.3,-114.5L279.8,-113.7L282,-108.9L282.5,-111.4L284.3,-112.9L286,-113.7L288,-113.9L283.6,-119.3L282,-119.1L280.1,-118.3L278,-117.7L276,-118.2L274.1,-119.4L273.2,-121.7L272,-126.1L271.2,-127.6L265.4,-136.6L267.2,-136.9L271.9,-132.4L272.8,-133.8L273.6,-135.9L273.2,-138.2L272.1,-139.9L270.5,-141L270.4,-143L271.7,-144.9L271.6,-146.2L268.9,-148.8L267.8,-149.1L267.3,-147.9L268,-146L267.4,-145.8L260.6,-150.7L258.7,-154.5L257,-158.7L256.8,-157L257,-154.6L259.7,-149.7L264,-144.3L264.7,-142.9L264.1,-141L262.5,-140.4L261.3,-141.6L259.3,-146.3L257.9,-148.6L241.6,-172.6L243.7,-175.7L246.9,-178.4L247.6,-179.6L248.2,-181L246.7,-181.2L245.5,-180.5L244.1,-179.4L242.9,-177.9L241.2,-174.9L240.5,-174.1L238.6,-176.3L237.8,-177.6L237.8,-179.2L237.4,-180.2L235.9,-180.5L233.8,-183.7L232.5,-185.2L234.7,-188.3L234.8,-192.3L232.5,-196.5L229.9,-200.4L224.7,-206.6L219.9,-213.2L225.1,-214.1L230.3,-214.2L227.9,-210.3L229,-208L230.6,-206.1L234.2,-200.2L234.5,-198.4L236.3,-196.7Z"/></svg>
