<svg xmlns="http://www.w3.org/2000/svg" viewBox="0 0 400 300"><path d="M102.3,300L102.3,294.3L102.4,288.4L102.5,288.2L107,287.9L113.4,285.8L120.8,284.3L127.5,279.4L132.8,279.4L133.1,283.3L131.8,291.7L131.9,299.1L131.4,300L102.3,300Z" fill="#2c2c34" stroke="#474751" stroke-width="0.8"/><path d="M139.4,98.8L141.8,98.1L142.4,102.3L153.3,99.9L164.9,100.3L173.4,100.7L183,90.3L193.4,80.4L202.3,70.8L204.9,76.1L206.8,88.3L199.7,88.4L198.5,98.4L201,100.6L194.7,103.6L194.6,109.9L190.5,116.2L190.2,122.3L187.4,125.5L145.3,117.9L139.9,102.4Z" fill="#2c2c34" stroke="#474751" stroke-width="0.8"/><path d="M128.6,91L127.7,79.7L131.4,71.6L135.3,69.9L139.5,74.8L139.8,83.8L136.7,92.9L132.8,94Z" fill="#2c2c34" stroke="#474751" stroke-width="0.8"/><path d="M88.9,8.6L91.8,15.7L90.5,19.4L95,31.4L85.1,31.9L81.7,24.2L69.2,22.7L79.4,7.2Z" fill="#2c2c34" stroke="#474751" stroke-width="0.8"/><path d="M89.4,0L89.4,0.8L97.1,9.4L88.9,8.6L79.4,7.2L69.2,22.7L43.1,21.4L17.1,0L89.4,0Z" fill="#2c2c34" stroke="#474751" stroke-width="0.8"/><path d="M400,146L385.7,131.7L392.4,126.2L388.3,120.2L371.8,107.3L381.2,97.1L400,97.1L400,146ZM400,65.6L399.8,64L390.6,56.9L400,46.9L400,65.6Z" fill="#2c2c34" stroke="#474751" stroke-width="0.8"/><path d="M400,46.9L390.6,56.9L399.8,64L400,65.6L400,97.1L400,97.1L381.2,97.1L371.8,107.3L361.6,103.4L357.4,92.4L346.6,80.6L320.8,83.5L298,83.8L278.3,86L283.6,67.9L303.8,59.8L302.6,52.6L295.9,50L295.5,36.1L282.1,29.1L276.5,19.4L269.6,11L293,19.2L307,16.8L315.4,18.8L318.2,15.3L328,16.7L346.2,10L346.6,0L400,0Z" fill="#2c2c34" stroke="#474751" stroke-width="0.8"/><path d="M346.6,0L346.2,10L328,16.7L318.2,15.3L315.4,18.8L307,16.8L293,19.2L269.6,11L279,0L346.6,0Z" fill="#2c2c34" stroke="#474751" stroke-width="0.8"/><path d="M279,0L269.6,11L276.5,19.4L282.1,29.1L295.5,36.1L295.9,50L302.6,52.6L303.8,59.8L283.6,67.9L278.3,86L251.9,81.3L236.6,77.7L220.9,75.7L214.9,56.5L208.2,53.7L197.4,56.6L183.3,64.2L166.2,59L152,46.9L138.5,42.4L129.2,27.2L118.8,5.8L111.3,8.4L102.4,3L97.1,9.4L97.1,9.4L89.4,0.8L89.4,0L279,0Z" fill="#2c2c34" stroke="#474751" stroke-width="0.8"/><path d="M0,250.6L1.4,252.1L9,260.4L13.4,265.4L20.3,269.7L16.1,273.2L10.1,272L5.3,267.3L0,259.5L0,250.6Z" fill="#2c2c34" stroke="#474751" stroke-width="0.8"/><path d="M145.3,177.9L156.2,202.2L160.8,212.5L150.7,216.4L147.9,222.9L147.6,227.8L133.7,234L111.3,240.7L98.7,250.9L92.6,251.7L88.4,250.9L80.1,256.9L71.2,259.6L59.5,260.4L55.9,261.2L52.9,265L49.2,266.1L47,269.7L40.1,269.4L35.6,271.3L25.9,270.6L22.3,262.2L22.7,254.3L20.4,250.1L17.7,239.4L13.6,233.4L16.5,232.7L15,226.1L16.7,223.3L16.1,216.9L22.2,212.2L20.8,206.1L24.5,198.9L30.3,202.7L34.1,201.3L50.2,201L52.8,202.5L66.3,204L71.7,203.2L75.2,208.1L81.8,205.6L91.8,190.2L104.9,183.6Z" fill="#2c2c34" stroke="#474751" stroke-width="0.8"/><path d="M17.1,0L43.1,21.4L69.2,22.7L81.7,24.2L85.1,31.9L95,31.4L100.5,45.1L107.4,48.8L109.8,54.3L119.4,60.9L120.2,67.3L118.8,72.5L120.6,77.8L124.6,82.1L126.5,87.2L128.6,91L132.8,94L136.7,92.9L139.4,98.8L139.9,102.4L145.3,117.9L187.4,125.5L190.2,122.3L196.6,133L187.3,163L145.3,177.9L104.9,183.6L91.8,190.2L81.8,205.6L75.2,208.1L71.7,203.2L66.3,204L52.8,202.5L50.2,201L34.1,201.3L30.3,202.7L24.5,198.9L20.8,206.1L22.2,212.2L16.1,216.9L14.2,210.7L10,206.3L8.9,200.4L1.7,195.1L0,192.3L0,0Z" fill="#2c2c34" stroke="#474751" stroke-width="0.8"/><path d="M0,259.5L5.3,267.3L10.1,272L5.2,278.3L0.4,285L1.5,289L1.7,293.3L9.5,293.5L12.9,292.5L16,295.1L13.1,300L0,300Z" fill="#2c2c34" stroke="#474751" stroke-width="0.8"/><path d="M10.1,272L16.1,273.2L20.3,269.7L23.6,274.1L23.2,280.1L15.2,283.5L21.2,287.4L16,295.1L12.9,292.5L9.5,293.5L1.7,293.3L1.5,289L0.4,285L5.2,278.3Z" fill="#2c2c34" stroke="#474751" stroke-width="0.8"/><path d="M13.1,300L16,295.1L21.2,287.4L25.8,290.1L28.5,296L32.8,300L13.1,300ZM49,300L55,298.3L70.2,296.7L82.6,292.2L89.5,291.3L94.5,288.7L102.5,288.2L102.5,288.2L102.4,288.4L102.3,294.3L102.3,300L49,300Z" fill="#2c2c34" stroke="#474751" stroke-width="0.8"/><path d="M239.4,159.8L238.6,160L238.3,159.9L238.3,158L240.3,155.6L241.7,152.9L242.6,155.3L241,156.7L240.1,159.1ZM160.4,212.5L159.6,210.6L158.8,208.6L157.9,206.7L157.1,204.8L156.5,203.4L155.4,203L154.8,201.5L154.2,200.1L153.6,198.6L153,197.1L152.4,195.6L151.8,194.2L151.2,192.7L150.5,191.2L149.9,189.8L149.3,188.3L148.6,186.8L148,185.4L147.4,183.9L146.8,182.4L146.2,180.9L145.6,179.4L145,178L146.9,177.3L149.3,176.4L151.7,175.6L154.1,174.7L156.6,173.9L159,173L161.3,172.2L163.8,171.3L166.2,170.5L168.6,169.6L171,168.8L173.4,167.9L175.8,167.1L178.2,166.2L180.7,165.3L183.1,164.5L185.5,163.6L187,163.1L187.6,161.1L188.1,159.4L188.6,157.8L189.1,156.2L189.6,154.5L190.1,152.8L190.6,151.2L191.1,149.5L191.7,147.9L192.2,146.2L192.7,144.5L193.2,142.9L193.7,141.2L194.2,139.5L194.8,137.9L195.3,136.2L195.8,134.5L196.2,133L195.4,131.5L194.2,129.5L192.9,127.5L191.8,125.5L190.9,124.1L189.9,122.4L190,120.1L190,119L190.1,117.3L191,115L192.2,111.9L193.1,110L193.8,108.2L194.4,106.8L194.7,105.4L194.5,104.3L194.2,104L193.8,103.5L194.9,102.7L197.1,102.2L198.2,102.3L199.8,102L201.1,101.6L201.2,101.2L200.8,100.4L200.3,99.3L198.5,99.2L197.9,98.9L198.6,97.2L198.5,96.7L198.3,96.1L198.1,95.1L198.2,93.7L198.5,92.8L198.6,92.1L198.4,90.6L198.4,89.2L198.8,88.6L199.5,87.9L200.1,87.6L200.8,87.7L201.3,87.9L201.5,88.6L201.4,89.1L201,89.2L200.9,89.4L201.4,90.3L202.2,91.2L202.7,91.1L203.5,90.3L204.2,89.8L205,89.2L205.7,88.3L206.2,87.6L206.7,87.5L208.1,91.6L210.3,95.4L212.1,97.5L214,100.3L217,102.9L218.4,103.8L223.8,105.6L226.9,106.3L231,106.9L233.9,108.3L234.8,108.4L236.3,108L237.4,108L240.1,110L240.9,111.8L242.1,112.8L243.1,114.3L243.8,115.9L246,118.3L247.7,121L249.3,123L250.8,124.3L253,124.8L254.8,125.3L255,126.7L254.8,128.4L254.5,129.7L252.8,132.2L252.4,133.8L250.6,136.3L248.5,140.6L247.6,141.5L244.3,143.7L241.8,146.4L239,151L236.8,155.5L235.9,157L234.2,157.3L233,157.1L232.3,156.7L232.6,155.5L232.8,154.1L231.7,154.2L230.7,154.5L228.6,157.9L227.4,159.4L227.1,161.3L226.5,163.7L225.7,165.9L225.3,167.8L225.3,168.9L225.9,171.5L226,174.2L226.4,175.7L226.7,177.7L225.6,178.2L224.7,178.5L221.3,178.7L217.8,179.3L214.7,180.5L212.8,181.6L210.5,184L209,190.2L206.6,192.9L205.1,193.4L201.2,193.6L195.9,194.3L194,195L190.8,198.8L190.6,200L191.2,200.8L191.4,201.8L191.1,202.7L189.7,205.1L188.2,206.8L184.1,207.9L182.6,207.2L181.2,206.9L178.5,206.9L174.2,207.3L172.6,208.6L170.1,209.5L167.8,210.9L163.4,211.4ZM205.5,77.1L205.2,77.5L204.8,77.5L203.9,77.2L203.3,76.5L203.4,75.6L203.5,74L203.7,72.5L203.6,70.9L202.9,70.6L202.4,70.7L203.6,68.4L204.1,68.1L204.5,68.2L205.6,68L206.1,66.8L206.6,66.1L207.1,66.2L207.3,66.6L207.1,68.4L207.1,70L206.5,74.7L205.9,75.5L205.6,76.2ZM205.2,83.6L204.7,84L204.2,83.9L204.3,83.1L204.6,82.5L205.2,82.5L205.3,82.9Z" fill="#b8e653" stroke="#0c0e06" stroke-width="1"/></svg>
