<svg xmlns="http://www.w3.org/2000/svg" viewBox="0 0 300 300"><path fill="#e8e8ea" d="M67.7,280L66,276L64.2,272L62.5,268L60.7,264L59.4,261.1L57.3,260.2L56.1,257.2L54.8,254.1L53.5,251L52.2,248L50.9,244.9L49.7,241.9L48.4,238.8L47,235.8L45.8,232.7L44.5,229.7L43.2,226.6L41.9,223.5L40.6,220.4L39.3,217.4L38,214.3L36.8,211.2L35.5,208.2L39.6,206.7L44.6,204.9L49.6,203.2L54.6,201.4L59.6,199.6L64.7,197.9L69.6,196.1L74.6,194.3L79.7,192.6L84.7,190.8L89.7,189L94.7,187.2L99.7,185.5L104.7,183.6L109.8,181.9L114.8,180.1L119.7,178.3L122.9,177.2L124.1,173.1L125.2,169.7L126.2,166.3L127.4,162.8L128.4,159.3L129.5,155.9L130.5,152.5L131.6,149L132.6,145.5L133.8,142.1L134.8,138.7L135.9,135.2L136.9,131.7L138,128.2L139.1,124.7L140.2,121.3L141.2,117.8L142.2,114.7L140.4,111.6L137.9,107.5L135.3,103.1L132.8,99L131.1,96.1L129,92.5L129.2,87.9L129.2,85.6L129.4,82.1L131.4,77.1L133.8,70.9L135.6,66.7L137.2,63.1L138.3,60.1L139,57.2L138.6,55L137.9,54.3L137.2,53.2L139.5,51.6L143.9,50.6L146.3,50.9L149.5,50.1L152.3,49.4L152.5,48.4L151.7,46.8L150.6,44.5L146.8,44.3L145.6,43.6L147,40.2L146.9,39.2L146.5,37.9L146,35.7L146.2,32.9L146.9,31L147,29.5L146.6,26.4L146.7,23.6L147.5,22.2L148.9,20.9L150.3,20.3L151.6,20.3L152.7,20.8L153.2,22.3L152.9,23.3L152,23.5L151.8,23.9L152.9,25.9L154.6,27.7L155.7,27.4L157.2,25.9L158.7,24.7L160.4,23.6L161.8,21.6L163,20.2L164,20L166.9,28.5L171.3,36.4L175.2,40.7L179.2,46.6L185.4,52L188.2,53.8L199.6,57.7L205.9,59L214.5,60.4L220.4,63.3L222.4,63.5L225.5,62.7L227.8,62.7L233.4,66.8L235.1,70.6L237.5,72.6L239.6,75.7L241,79L245.7,84.1L249.2,89.7L252.6,93.9L255.7,96.5L260.3,97.5L264.1,98.6L264.5,101.4L264.1,105.1L263.3,107.8L259.9,113L259,116.2L255.2,121.5L250.9,130.4L249,132.4L242,137L237,142.5L231,152L226.5,161.4L224.7,164.5L221.1,165.1L218.7,164.9L217.1,163.9L217.7,161.4L218.1,158.5L215.9,158.8L213.9,159.4L209.4,166.5L206.9,169.5L206.4,173.5L205.1,178.5L203.4,183.2L202.6,187.1L202.6,189.3L204,194.7L204.1,200.2L204.8,203.6L205.4,207.5L203.3,208.7L201.5,209.3L194.3,209.8L187,211L180.6,213.3L176.7,215.6L171.8,220.7L168.7,233.7L163.8,239.1L160.5,240.3L152.6,240.7L141.5,242.2L137.5,243.6L131,251.4L130.4,253.9L131.7,255.7L132.1,257.7L131.6,259.5L128.5,264.5L125.4,268.1L116.9,270.4L113.8,269.1L110.9,268.4L105.4,268.3L96.3,269.2L93.1,271.8L87.8,273.7L83,276.6L73.9,277.7Z"/></svg>
