<svg xmlns="http://www.w3.org/2000/svg" viewBox="0 0 400 300"><path d="M226.3,300L224.1,294.8L232,293.2L231.1,282.4L236.1,274.6L246.8,273.2L255.8,259.7L264,248.4L256.1,243.3L260.1,230.8L255.3,211.1L259.9,205.5L256.5,187.2L247.8,175.7L250.6,165.2L257.5,166.8L261.5,160.3L256.6,147.5L259.2,144.4L270.2,145L286.4,129.9L295.2,127.6L295.4,120.4L299.3,102L311.6,91.8L325.1,91.4L326.8,86.9L343.6,88.7L360.5,77.7L368.9,72.8L379.2,62.2L386.8,63.5L392.4,69.3L388.3,76.7L374.5,80.4L369,91.3L360.8,97.5L354.5,105.7L351.9,121.2L346,133.9L357.1,135.4L359.8,145.3L364.6,150.1L366.2,158.8L363.6,166.9L364.4,171.4L369.7,173.2L374.8,180.7L400,178.8L400,300Z" fill="#2c2c34" stroke="#474751" stroke-width="0.8"/><path d="M147.8,124.9L139.5,126.8L139.6,135.6L144.1,138.8L140.9,141.4L141.7,145.3L139.9,149.7L138.8,154L127.2,149.2L122.8,144.7L125.3,140.9L124.5,136.1L118.5,130.9L110.1,126.6L102.8,123.8L101.3,117.5L95.7,113.6L97,119.9L92.8,125.1L87.9,119.1L81,116.9L78.1,112.5L78.2,105.9L81,99L75,95.9L79.9,91.7L83.1,88.9L97.3,94.7L102.1,91.8L109,93.7L112.6,98.2L118.9,99.6L124,95L129.4,106.8L137.7,115.6Z" fill="#2c2c34" stroke="#474751" stroke-width="0.8"/><path d="M124,95L118.9,99.6L112.6,98.2L109,93.7L102.1,91.8L97.3,94.7L83.1,88.9L79.9,91.7L72.5,84.8L62.5,76L57.7,68.6L48.7,61.7L37.9,51.8L40.3,48.4L43.8,51.7L45.5,50.2L52.1,49.2L54.8,44.2L58,44L57.5,33.2L62.5,32.7L67,32.8L71.6,26.9L78,31.4L80.2,28.6L84.1,26L91.6,19.9L91.9,15.4L94,15.5L96.8,10.3L99.1,9.6L102.7,13L107,14L111.7,11.2L117.1,11.2L124.6,8.3L127.5,5.2L134.9,5.7L133,7.8L131.9,12.8L134.2,20.9L129.2,28.4L126.9,37.3L126.2,47L127.4,52.7L127.9,62.6L124.6,64.7L122.6,74.1L124.1,79.9L119.7,85.5L120.7,91.4Z" fill="#2c2c34" stroke="#474751" stroke-width="0.8"/><path d="M129.6,0L134.9,5.7L134.9,5.7L127.5,5.2L124.6,8.3L117.1,11.2L111.7,11.2L107,14L102.7,13L99.1,9.6L96.8,10.3L94,15.5L91.9,15.4L91.6,19.9L84.1,26L80.2,28.6L78,31.4L71.6,26.9L67,32.8L62.5,32.7L57.5,33.2L58,44L54.8,44.2L52.1,49.2L45.5,50.2L41.8,43.3L35.3,41.4L36.7,32.5L33.8,30.1L29.4,28.5L20,31.2L19.2,28.2L12.7,24.6L8.1,20.2L1.8,18.4L6.2,12.7L4.5,8.4L6.1,4.1L12.8,0L129.6,0Z" fill="#2c2c34" stroke="#474751" stroke-width="0.8"/><path d="M0,18.8L1.8,18.4L1.8,18.4L8.1,20.2L12.7,24.6L19.2,28.2L20,31.2L29.4,28.5L33.8,30.1L36.7,32.5L35.3,41.4L32.9,46.5L20.5,46.2L12.7,44.1L3.9,39.7L0,39.3L0,18.8Z" fill="#2c2c34" stroke="#474751" stroke-width="0.8"/><path d="M12.8,0L6.1,4.1L4.5,8.4L6.2,12.7L1.8,18.4L0,18.8L0,0Z" fill="#2c2c34" stroke="#474751" stroke-width="0.8"/><path d="M400,178.8L374.8,180.7L369.7,173.2L364.4,171.4L363.6,166.9L366.2,158.8L364.6,150.1L359.8,145.3L357.1,135.4L346,133.9L351.9,121.2L354.5,105.7L360.8,97.5L369,91.3L374.5,80.4L388.3,76.7L387.7,81.8L375.1,84.4L382.1,94.3L381.9,105.7L372.4,118.4L380.5,135.6L389.7,134.2L394.5,118.5L387.9,110.9L386.8,94.4L400,89.9L400,178.8Z" fill="#2c2c34" stroke="#474751" stroke-width="0.8"/><path d="M258.7,144.6L258.3,144.9L257.1,146.6L256.5,148.1L258,149.6L258.5,151.3L259.3,153.1L260.6,154.8L262.2,158.2L262.5,159.5L262.1,160.4L260.6,160.9L259.3,162.4L258.9,164.3L259.2,165.3L255.2,168.3L254.2,168.8L253.5,168.3L252.6,166.8L251.6,165.6L251,165.2L250.7,165.1L250.4,165.4L250.2,166.1L250.8,168.9L250.3,170.1L249,171L247.4,175.6L246.8,175L241.7,168.8L237.2,161.1L236.2,157.6L237.4,157.4L238.5,157.5L239.1,156.9L239.8,155.9L239.3,153.5L241.4,151.8L242.3,150.5L242.8,150.7L244.3,152.7L246.3,153.9L248.8,155.6L250.5,156L248.4,154.2L245.1,151.9L244,150.3L243.1,148.1L241.8,149.1L241.2,149.9L240.5,150.3L239.9,149.8L239.8,149.1L237.8,148.9L237.3,148.3L236.7,148L236.9,149.3L237.3,150.1L237.2,151.2L236.5,151.2L235.9,150.2L235.2,149.2L234.2,145.3L232,143.4L230.9,142.8L230.1,142.6L228.8,141.3L227.1,140.6L224.8,138.7L222,137.3L218.6,136.8L214.4,137.1L212.9,137.9L212,138.9L211.5,139.3L209.1,140.5L208.1,142.1L207.6,143.5L206.4,145.1L207.8,146L199.7,151.3L198.1,152.1L194.5,152.7L193.6,153.2L192.5,154.3L192.4,155.9L192.5,157.2L193.6,158.3L194.6,158.9L196.8,162.1L200.8,166.1L201.5,167.6L202.1,169.7L201,170.7L200,171.1L196.3,171.3L194.9,172.2L194.4,173.5L193,174.6L188.1,175.7L184.3,175.8L183.1,174.5L182.7,171.1L180.2,165.1L179.6,161.1L179,161.6L177.6,162.1L177.1,163.1L176.7,166.1L176.3,167.1L175.2,167L173,165.9L170.2,164.9L166.5,158.6L166.1,157.4L165.4,155.9L162.5,155.3L160,154.2L157.4,154.1L156.1,154.7L154.7,153.9L154.5,152.2L151.7,153L148.1,152.7L144.9,151.9L142.8,152.3L140.9,153.6L141.2,156.8L140.7,157.4L140.6,156.1L139.9,154.6L139.1,153.3L137.6,152.1L137.5,151.6L138.1,150.9L141.1,149.1L141.4,148.3L141.4,146.7L141.1,145.1L139.8,142.9L140.6,141.4L142.1,140.3L143.6,139.4L143.9,139L143.6,138.3L142.7,137.4L140.6,136L139.4,135.9L139.3,131.8L139.4,127.4L139.7,127L140.4,126.8L141.1,126.1L141.4,124.8L142.3,124.4L144,125.3L145.7,126.2L146.4,125.9L146.9,125.5L147.3,125.1L147.4,124.7L148.8,125.9L151.6,127.9L151.7,128.9L151.5,129.9L152.2,132.7L153.6,133.1L155.1,132.5L155.5,133.1L155.2,133.6L154.5,134.1L154.3,136.5L156.6,137.7L157.8,138.6L161.7,138.2L163.2,138.4L164.2,138.2L163.1,136.2L161.7,134.8L161.7,134.2L162.9,134.7L163.8,135.6L165.7,136.8L169.2,141L173.3,142L176.6,141.9L179.6,141.3L184.4,139.7L187.9,136.7L190.7,135.4L199.7,132.7L202.9,129.7L204.2,129.4L205.5,129L208.3,126.8L209.8,125.1L211.5,124.2L216.3,124.8L219.3,125.7L221.4,125.6L223.5,126.1L224.4,127.4L225.3,127.9L230.3,127.8L234.5,128.4L243.5,132.1L248.9,135.7L251.8,139.6ZM226.1,153L225.6,153.9L224.6,151.8L224.7,151.3L224.7,149.5L225.7,149L226.4,148.9L226.9,149.2L227.3,151.4L227,152.4ZM168,173.3L166.8,173.4L164.4,172.5L162.7,170.7L162.5,170.2L162.6,169.6L163.5,167.7L164.8,167.1L165.3,167.1L166.5,169.2L165.7,170L166.1,171.3L167.8,172.3ZM154.5,129L154.3,130L152.6,128.1L153.6,127.8L153.9,127.9ZM222.4,153.4L221.5,154.3L221.1,153.4L221.8,152.5L222,152.5Z" fill="#b8e653" stroke="#0c0e06" stroke-width="1"/></svg>
