<svg xmlns="http://www.w3.org/2000/svg" viewBox="0 0 300 300"><path fill="#e8e8ea" d="M272.1,138.8L271.3,139.5L268.8,143L267.5,146.1L270.7,149.3L271.6,152.7L273.4,156.4L276.1,160.1L279.4,167L280,169.8L279.2,171.6L276.1,172.7L273.4,175.9L272.6,179.8L273.1,181.8L264.7,188L262.7,189.1L261.2,188.1L259.4,185L257.4,182.4L256.1,181.6L255.4,181.5L254.8,182.1L254.5,183.4L255.6,189.4L254.6,191.7L251.9,193.6L248.7,203.2L247.4,201.9L236.6,189.1L227.3,173L225.4,165.8L227.8,165.3L230.1,165.5L231.3,164.4L232.8,162.3L231.7,157.3L236.2,153.6L237.9,151.1L239,151.4L242.1,155.7L246.3,158.1L251.6,161.7L254.9,162.5L250.8,158.8L243.7,153.9L241.6,150.6L239.7,146.1L237,148.1L235.7,149.7L234.2,150.7L232.9,149.5L232.8,148.1L228.6,147.8L227.5,146.4L226.4,145.7L226.8,148.6L227.6,150.3L227.3,152.4L225.9,152.5L224.8,150.4L223.3,148.4L221.2,140.2L216.6,136.3L214.3,135.1L212.6,134.5L209.8,132L206.3,130.5L201.6,126.5L195.7,123.6L188.6,122.5L180,123.2L176.9,124.7L175,126.9L174,127.8L168.9,130.1L166.9,133.5L165.8,136.4L163.2,139.7L166.1,141.7L149.4,152.8L146.1,154.3L138.5,155.5L136.8,156.7L134.5,158.9L134.2,162.2L134.5,165.1L136.8,167.3L138.7,168.6L143.3,175.2L151.7,183.5L153.1,186.6L154.4,191L152,193.1L150.1,194L142.2,194.4L139.5,196.2L138.4,198.9L135.5,201.2L125.2,203.4L117.3,203.6L114.8,201L114.1,193.8L108.8,181.5L107.5,173L106.2,174.1L103.3,175.1L102.4,177.2L101.6,183.4L100.6,185.5L98.4,185.4L93.9,183.1L87.9,181.1L80.2,167.8L79.4,165.3L78,162.3L72,161.1L66.9,158.8L61.4,158.5L58.7,159.7L55.8,158.1L55.3,154.5L49.5,156.1L42,155.6L35.4,154L30.9,154.8L27.1,157.4L27.7,164.1L26.6,165.3L26.4,162.6L25,159.5L23.4,156.9L20.2,154.3L20,153.3L21.3,151.9L27.4,148.1L28,146.4L28.2,143.1L27.5,139.9L24.8,135.2L26.4,132.2L29.5,129.8L32.7,128L33.3,127.2L32.7,125.6L30.8,123.9L26.4,120.9L23.9,120.7L23.7,112.2L23.9,103.1L24.5,102.2L26.1,101.7L27.4,100.3L28.2,97.6L30,96.6L33.5,98.7L37,100.6L38.5,99.9L39.6,99.1L40.4,98.1L40.6,97.4L43.4,99.8L49.2,104L49.5,106.1L49.1,108.2L50.7,114L53.6,114.8L56.6,113.7L57.4,114.8L56.8,115.8L55.3,117L54.8,122L59.8,124.3L62.2,126.4L70.4,125.4L73.5,125.9L75.6,125.4L73.3,121.4L70.3,118.4L70.4,117.1L72.8,118.1L74.6,120L78.6,122.5L86,131.2L94.5,133.3L101.3,133L107.5,131.9L117.6,128.5L124.9,122.4L130.6,119.7L149.3,113.9L156,107.9L158.8,107.1L161.5,106.3L167.3,101.8L170.5,98.1L173.8,96.4L183.8,97.7L190.1,99.4L194.6,99.2L198.9,100.3L200.7,102.9L202.6,104L213,103.8L221.7,105L240.5,112.7L251.7,120.3L257.7,128.4Z"/></svg>
