<svg xmlns="http://www.w3.org/2000/svg" viewBox="0 0 300 300"><path fill="#e8e8ea" d="M220.5,78.6L220.4,79.5L219.9,79.9L219.2,80L218.1,79.3L217.4,79.5L216.6,79.5L215.5,78.8L215.2,78L214.3,77.4L212.6,77.7L211.1,77.7L209.9,77.5L208.8,77.7L207.9,78.5L207.2,79.5L206.4,80.2L204,80.7L202.7,80.7L201.6,81.2L199.9,81.4L198.7,81.9L196.7,82.1L194.2,82.4L192.8,83L192.3,83.3L190.9,84.3L188.4,85.8L187.1,86.3L185.5,87.9L183.6,89.4L182.3,90.2L180.5,90.6L179.6,91L179.4,91.5L179.5,92.1L179.2,93.6L178.6,96.3L178.5,97.6L178.4,98.2L177.1,100.4L175.8,102.4L175.2,103.7L174.8,104.7L175.2,105.5L175.7,107L176.2,108.2L176.3,109L176.2,109.9L175.6,110.7L174.7,111.2L173.6,111.4L171.1,112.9L168.4,115L167.5,116.1L167.2,117L166.8,118.5L167,119.3L167.5,119.8L168,121.1L168,121.7L167.6,122.1L166.8,122.2L166.2,122.3L165.6,122.6L165.1,122.5L164.6,122.7L164.6,123.3L164.8,123.9L164.7,124.5L164.4,124.9L164.1,125.2L164.4,125.6L164.9,126L165.6,126.6L166.6,127.8L167.4,128L168,128.4L168.1,129L167.9,129.7L167.3,130L167.2,130.6L168,131.3L168.5,131.8L169.1,132.5L169.5,133.5L169.5,134.2L170.1,135L170.4,135.7L170.4,136.3L171.3,137L172,137.5L172.5,137.9L173.1,138.2L173.2,138.7L173.1,139.5L173.9,140.7L175.3,141.6L176.4,143L177.1,143.9L178.4,145.5L178.5,147.3L176.8,149.3L175.2,151.4L177.9,151.3L180.7,151.4L183.6,152L185.6,152.5L186.7,152.8L187.6,153.4L188,154.5L188.3,155.3L188.4,156.5L189.6,157.5L189.5,158.5L189.5,159.8L190.1,159.8L193.6,159.8L197.5,159.8L201.3,159.6L202.7,159.2L204.4,157.6L205.4,157.2L206.4,156.4L207.6,155L208.6,154.4L209.4,153.7L210.6,152.9L211.1,152.3L211.5,152.1L212.4,151.8L212,152.5L211.7,153.3L211.6,154.4L212.1,155.6L211.7,156.4L211.1,157.2L211.1,159.3L211.1,162.3L211.1,164.9L211,168L211,171.7L211,174.1L211.7,173.6L212.5,173.2L213.7,174.3L214.5,174.8L215.2,174.9L215.9,174.8L216.9,174.6L219,173.7L220.5,172.9L222.2,173L224.5,173.3L225.8,173.2L227.6,176.3L228.8,178.6L230.3,181.2L231.5,183.3L233.3,186.4L234.8,189.1L236.4,192L238.3,195.3L237.7,196.2L237.2,196.9L237.3,198L236.5,198.6L235.8,199L234.8,199.9L234.2,200.8L234.2,201.9L234.3,208L234.2,209.6L233.7,211L233.2,211.7L232.9,212.3L233.6,213.7L234.3,216.5L234.8,217L235.4,218.2L235.7,219.3L235.6,219.7L234.3,220.2L233.9,220.7L233.7,222.3L233.2,222.8L232.3,223.6L231.7,224.5L231.2,225.1L230.7,225.4L230.4,226.5L230.1,227.6L228.9,228.3L228.7,229.6L228.7,230.7L229.3,231.8L231.3,234.1L231.5,234.7L230.4,236.1L229.7,237L228.1,240L228,240.5L228.4,241.9L230.9,247.9L231.3,248.4L232.1,249L233.3,248.9L235.1,249.5L236,250.3L236.1,250.7L235.9,250.9L234.9,251.4L233.8,252L233.5,252.6L233.4,253.6L233.6,255.1L233.2,255.5L232.1,256.1L231.2,256.9L230.2,258.3L228.6,260.3L228,260.9L227.8,261.6L226.9,261.8L225.2,263.2L224.9,263.9L225.2,264.6L226,265.2L226.6,266L226.8,267L226.8,267.7L225.7,268.7L224.4,269.8L222.7,270L222,270.6L222.2,271.8L222.7,273.4L222.7,274.8L222.2,276.3L221,278L219.1,279.1L217.4,279.7L216,279.7L214.7,279.8L214.1,280L213.1,279L208.5,275.7L206.8,273.9L205.2,273.1L201.3,270.3L200.9,269.4L200.5,266.5L199.9,265.6L198.6,264.6L195.2,263.2L193.9,262.5L192.5,261.2L190.5,260.3L188.3,258.5L187,257L185.5,256L181,254.7L178.7,253.3L174.4,251.4L172.5,250.1L167.9,248.7L166.6,248L162.1,244.5L158.9,243.3L156.4,241.4L148.7,237.2L147.5,235.9L146.3,233.8L144.6,232.6L142.7,229.8L139.8,228.1L137.1,226L136.1,224L134.3,221.4L133.8,220.1L132.2,218.8L132.1,216.1L131,214.9L131.8,214.3L132.6,214L133.7,209.9L133.1,207.8L130.3,204L129.2,202.3L128.4,199.9L127.3,198.6L125.6,195.7L124.6,193.2L122.3,191.3L121.7,190.6L121.4,189.7L120.1,189L120.1,187.1L119.2,183.4L117.9,181.5L113.4,178L113.3,176.7L113,174.2L112,171.6L107,163.4L105.7,161L104.4,157L103.3,154.8L102.1,150.8L100.2,147.8L99,145.2L97.7,141.9L97.6,140.2L95.4,137.2L94.2,134.4L92.1,132.1L89.9,130.4L89,129.1L86.1,123.3L85.7,121.5L83.7,118.3L81.7,116L80.5,114.1L78.8,112.5L69,107.3L65.6,105.1L64.4,104.1L63.9,102.5L64.1,101.6L65.1,100.7L66.5,101.4L67.4,101.1L68,100L68.1,98.2L67.2,96L64.1,91.7L64.3,90.7L64.9,89.7L63.7,87.6L62.4,86L61.7,84.7L62.5,79.8L63.2,78.6L67.9,73.6L69.2,71.6L71.3,70.2L73.4,68.3L75.8,66.7L76.2,67L76.6,67.3L76.6,67.8L76.7,68.2L76.9,68.6L77,69.4L77.3,69.9L77.3,70.5L77.3,71.3L77.2,71.7L77.3,72.3L77.9,73.6L77.7,74L77.1,74.3L76.6,74.6L76.1,75.4L75.4,75.3L74.3,75L73.5,75.4L73.3,76.3L73.5,77L73.6,77.6L74,78.2L75.4,78.2L74.2,80L73.6,80.8L73.7,81.3L74.5,81.8L75,81.8L76.3,81.2L77.1,80.2L77.6,79.7L78.4,79.5L79.5,79.9L80.9,80.8L82.6,81.5L83.2,82L84.4,81.9L85.4,81.7L86.3,82.3L87.1,82.9L87.3,84.7L88,86L88.7,87.1L89.7,88.3L90.6,88.7L91.7,88.7L93.3,89.2L93.9,88.9L94.4,88L94.7,87.5L95.5,87.3L95.5,86.8L95.4,86.1L95.6,85.3L96.3,84.6L97.9,83.6L98.7,83.2L98.9,82.6L99.2,81.7L99,81.2L98.7,80.7L98.8,79.9L99.2,78.8L99.8,77.5L100.4,75.9L100.6,75.1L101.2,74.6L101.4,73.9L101.7,73.1L102.4,72.2L102.4,71.2L102.7,70.8L102.7,69.6L103.5,67.4L103.5,66.9L103.8,66.7L104.3,66.9L104.8,67.4L104.9,67.9L105.1,68.2L105.6,68.1L106.1,67.8L106,67.4L105.7,66.9L105.6,66.7L105.7,66.2L106.5,65.3L107.3,64.2L109.1,62L110.3,61.1L113.1,60.1L115.2,59.4L117.2,58.7L120,57.6L123.9,56.2L126.7,55.2L129.2,53.4L131.2,52L132.9,50.8L135,49.2L137.8,45.9L139.8,43.6L141.2,41.9L142.2,40.8L143,37.8L143.9,34.4L144.3,32.9L144.5,32.3L144.9,32.6L145.3,32.9L145.8,32.9L146.4,32.9L146.7,32.7L146.2,29.3L146.3,28.6L146.5,27.7L146.5,27.2L145.6,26.5L144.2,25.1L143.7,23.9L143.3,22.9L142.4,22.2L141.4,21.6L141.4,21.1L142,21.1L143.5,21.6L144.6,21.5L145.4,21.4L146.2,20.9L147,20L147.6,20L148.2,20.1L149.4,21.1L150.1,21.6L151,22.1L151.7,22.2L152.5,22.3L152.9,22.2L153.2,22.8L153.6,23.6L154.5,24.1L155.5,24.6L156.4,25.4L156.9,26L157.6,26.7L158.3,27.5L158.9,29.1L159.2,30.1L159.5,30.7L159.4,31.3L160.2,32.4L160.7,33L161.6,33.4L163.4,33.8L164.3,34.8L165.1,35.1L166,36.1L166.8,36.4L167.8,36.4L168.8,36.9L169.5,37.8L170.1,39L170.8,39.7L171.2,40.9L170.8,42.3L171.2,43.1L172,43.7L173.2,44.3L174.4,44.2L175,44.4L175.3,45L175.6,45.7L176.1,47.4L176.3,48.5L175.8,49.5L175.7,50.3L175.9,51.2L177.1,51.7L178.2,52.1L178.9,52.8L179.6,53.1L180.7,53L182.1,52.8L182.8,52.4L183.3,52.3L183.9,52.5L185.1,52.9L186.5,53.3L187.8,53.1L189,52.9L190.2,52.7L191.3,51.9L192.3,51.9L193,51.4L193.9,50.5L194.8,49.7L195.5,49.5L196.6,49.9L198.2,50.5L199.1,51.2L199.8,51.5L200.5,52L201.8,52L203.3,51.7L204.4,50.8L205.6,50.5L206.4,50.3L207.2,50.4L210.1,52.1L210.9,53L211.9,53.2L212.8,53.7L214.1,54.2L214.9,54.7L215.8,55.1L216.5,55.8L217.6,56.3L218.6,56.6L219,57.2L219,57.6L218.9,57.8L217.9,59.4L215.9,62.5L214.1,65.4L211.3,69.8L209.7,72.3L210.1,72.4L212.6,73.5L213.2,73.5L214.1,73.2L214.7,72.8L215.2,72.7L215.8,73.1L216.6,73.7L217.2,75.2L217.6,76L218.6,76.6L219.7,77.6Z"/></svg>
