<svg xmlns="http://www.w3.org/2000/svg" viewBox="0 0 400 300"><path d="M234.1,300L233.5,293.6L236,286.6L240.3,279.5L245.1,274.8L243.1,271.8L244.5,269.4L244.3,257L251.6,253.4L253.9,245.8L253.1,244L258.6,237.4L267.4,239.2L271.4,244.4L274,238.6L281.6,238.9L282.7,240.4L295.1,252.3L300.6,253.5L308.7,258.9L315.7,261.8L316.6,265.1L310,276.5L316.8,278.5L324.3,279.7L329.6,278.5L335.7,272.7L336.8,266.1L340.2,264.7L343.5,269L343.4,274.9L337.7,279.1L333.2,282.2L325.6,289.6L316.8,300L234.1,300Z" fill="#2c2c34" stroke="#474751" stroke-width="0.8"/><path d="M224.2,300L224.5,299.2L223.6,289.7L227.6,280.4L228.8,265.8L230.9,250.5L233,234.3L232.5,222.5L231.1,212.5L234.6,210.7L236.4,207.1L236.4,207.1L239.7,211.9L240.6,217L244.1,220L242,226.9L245.6,235L248.2,245L253.1,244L253.9,245.8L251.6,253.4L244.3,257L244.5,269.4L243.1,271.8L245.1,274.8L240.3,279.5L236,286.6L233.5,293.6L234.1,300L224.2,300Z" fill="#2c2c34" stroke="#474751" stroke-width="0.8"/><path d="M317.3,300L321,299.3L321.8,300L317.3,300Z" fill="#2c2c34" stroke="#474751" stroke-width="0.8"/><path d="M321.8,300L321,299.3L317.3,300L316.8,300L316.8,300L325.6,289.6L333.2,282.2L337.7,279.1L343.4,274.9L343.5,269L340.2,264.7L336.8,266.1L338.1,261.8L339,257.4L339,253.4L336.6,252L334.1,253.2L331.6,252.9L330.8,250.1L330.2,243.4L328.9,241.2L324.4,239.3L321.7,240.7L314.6,239.3L315,229.5L313,225.5L315.1,224L314.5,220L316.4,216.9L317.5,211.3L315.9,206.9L312.3,204.9L311.6,202.2L312.6,198.1L299.7,197.8L297.1,189.7L299.1,189.6L299,186.6L297.7,184.6L297.4,180.6L293.5,178.5L289.2,178.6L286.5,176.6L281.9,175.2L279.3,172.7L271.8,171.5L264.5,165.4L265,160.8L264.2,158.2L264.9,153.1L256.1,154.2L252.6,156.8L246.7,159.5L245.2,161.6L241.8,161.8L236.8,161.2L233,162.4L230,161.6L230.4,151.2L224.9,155.2L219,155L216.4,151.4L212,151L213.4,148.1L209.7,144L206.9,137.9L208.6,136.6L208.6,133.8L212.7,131.8L212,128.2L213.7,125.8L214.2,122.7L221.9,118.1L227.4,116.8L228.3,115.8L234.4,116.1L237.4,97.7L237.5,94.8L236.5,90.9L233.5,88.5L233.5,83.6L237.3,82.5L238.7,83.2L238.9,80.6L235,79.9L234.9,75.7L247.9,75.9L250.2,73.6L252,75.7L253.3,79.6L254.6,78.8L258.3,82.4L263.5,81.9L264.8,79.9L269.8,78.3L272.6,77.2L273.3,74.4L278.1,72.5L277.8,71L272.1,70.5L271.2,66.2L271.4,61.7L268.4,60L269.7,59.4L274.7,60.2L280,61.9L281.9,60.3L286.8,59.3L294.2,56.7L296.7,54.2L295.8,52.3L299.3,52L300.9,53.5L300,56.5L302.3,57.5L303.8,60.6L302,63L300.9,68.7L302.6,72.1L303.1,75.2L307.2,78.4L310.6,78.7L311.3,77.4L313.4,77.1L316.5,75.9L318.6,74.1L322.3,74.7L324,74.5L327.6,75L328.2,73.7L327.1,72.3L327.8,70.4L330.5,71L333.7,70.3L337.5,71.7L340.4,73.1L342.5,71.3L344,71.6L344.9,73.4L348.1,73L350.7,70.4L352.8,65.5L356.7,59.3L359,59L360.7,62.7L364.4,74.5L368,75.6L368.2,80.2L363.2,85.7L365.3,87.8L377.1,88.8L377.4,95.5L382.5,91.1L390.9,93.5L400,96.9L400,251.1L400,251.1L399.1,251.7L391.5,253.9L383.6,259.7L378,267.1L377,272.7L378.1,276.8L376.9,284.5L375.3,288.2L370.6,292.5L366.5,300L321.8,300Z" fill="#2c2c34" stroke="#474751" stroke-width="0.8"/><path d="M236.8,161.2L241.8,161.8L245.2,161.6L246.7,159.5L252.6,156.8L256.1,154.2L264.9,153.1L264.2,158.2L265,160.8L264.5,165.4L271.8,171.5L279.3,172.7L281.9,175.2L286.5,176.6L289.2,178.6L293.5,178.5L297.4,180.6L297.7,184.6L299,186.6L299.1,189.6L297.1,189.7L299.7,197.8L312.6,198.1L311.6,202.2L312.3,204.9L315.9,206.9L317.5,211.3L316.4,216.9L314.5,220L315.1,224L313,225.5L312.9,223.3L306.7,219.7L300.5,219.6L288.8,221.6L285.6,227.9L285.4,231.8L282.7,240.4L281.6,238.9L274,238.6L271.4,244.4L267.4,239.2L258.6,237.4L253.1,244L248.2,245L245.6,235L242,226.9L244.1,220L240.6,217L239.7,211.9L236.4,207.1L240.6,199.5L237.7,193.7L239.3,191.3L238.1,188.7L240.7,185.3L240.8,179.4L241.1,174.5L242.6,172.2Z" fill="#2c2c34" stroke="#474751" stroke-width="0.8"/><path d="M254.6,78.8L253.3,79.6L252,75.7L250.2,73.6L247.9,75.9L234.9,75.7L235,79.9L238.9,80.6L238.7,83.2L237.3,82.5L233.5,83.6L233.5,88.5L236.5,90.9L237.5,94.8L237.4,97.7L234.4,116.1L231,112.5L229,112.4L233.3,105.5L228.2,102.4L224.2,103L221.7,101.8L218,103.6L213,102.7L209.1,95.7L206,94L203.8,90.8L199.4,87.6L197.6,88.2L194.7,86.7L191.4,84.4L189.5,85.5L183.8,84.6L182.2,81.7L180.9,81.8L174.2,78L173.3,75.9L175.8,75.4L175.5,72L177.1,69.6L180.4,69.1L183.2,64.9L185.8,61.4L183.3,59.8L184.6,55.9L183.1,49.7L184.5,47.9L183.5,42.2L180.7,38.6L181.6,35.3L183.8,35.8L185,33.8L183.5,29.8L184.3,28.8L187.8,29L192.8,24.3L195.6,23.6L195.6,21.3L196.9,15.5L200.7,12.4L204.9,12.2L205.5,10.8L210.7,11.4L216,7.9L218.6,6.4L221.9,3.1L224.2,3.5L226,5.3L224.7,7.6L220.4,8.8L218.7,12.2L216.1,14.2L214.1,16.7L213.3,21.6L211.5,25.5L214.9,26L215.8,29.1L217.3,30.6L217.8,33.3L217,35.9L217.2,37.3L218.9,37.8L220.5,40.2L229.1,39.5L233,40.4L237.7,46.2L240.4,45.5L245.3,45.9L249.1,45.1L251.5,46.2L250.3,49.9L248.8,52.1L248.2,57L249.6,61.4L251.5,63.4L251.7,64.9L248.3,68.3L250.8,69.8L252.5,72.1Z" fill="#2c2c34" stroke="#474751" stroke-width="0.8"/><path d="M184.3,28.8L183.5,29.8L185,33.8L183.8,35.8L181.6,35.3L180.7,38.6L178.5,36.7L177.1,33L178.7,31.2L177,30.7L175.8,28.5L172.4,26.6L169.5,27L168.1,29.4L165.4,31.1L164,31.3L163.3,32.7L166.5,36.4L164.7,37.3L163.7,38.3L160.6,38.6L159.4,34.6L158.5,35.7L156.3,35.3L155,32.6L152.2,32.2L150.5,31.4L147.6,31.4L147.4,32.9L146.6,31.8L147,30.5L147.5,29.1L147.3,27.9L148.3,27.1L146.9,26.1L146.8,23.3L149.4,22.7L151.9,25.2L151.7,26.6L154.4,26.9L155,26.4L156.9,28L160.2,27.5L163,25.8L167.1,24.4L169.4,22.4L173.1,22.8L172.8,23.5L176.6,23.7L179.6,24.9L181.8,26.9Z" fill="#2c2c34" stroke="#474751" stroke-width="0.8"/><path d="M149.4,22.7L146.8,23.3L146.9,26.1L148.3,27.1L147.3,27.9L147.5,29.1L147,30.5L146.6,31.8L143,30.3L141.6,28.9L142.4,27.7L142.1,26.2L140.3,24.6L137.6,23.3L135.3,22.4L134.9,20.4L133.1,19.2L133.6,21.2L132.2,22.8L130.7,20.9L128.5,20.2L127.6,18.8L127.7,16.8L128.5,14.6L126.7,13.7L128.2,12.3L129.2,11.5L133.6,13.3L135.2,12.4L137.3,13L138.4,14.4L140.4,14.8L142,13.4L143.7,17.1L146.3,19.8Z" fill="#2c2c34" stroke="#474751" stroke-width="0.8"/><path d="M143,0L143.1,0.1L143.2,3.2L142.2,3.9L141.6,6.8L142,8.6L140.7,10.4L141,12.2L142,13.4L142,13.4L140.4,14.8L138.4,14.4L137.3,13L135.2,12.4L133.6,13.3L129.2,11.5L128.2,12.3L125.9,10.2L122.7,7.4L121.3,5.1L118.4,3L115.2,0L143,0Z" fill="#2c2c34" stroke="#474751" stroke-width="0.8"/><path d="M295.8,52.3L296.7,54.2L294.2,56.7L286.8,59.3L281.9,60.3L280,61.9L274.7,60.2L269.7,59.4L268.4,60L271.4,61.7L271.2,66.2L272.1,70.5L277.8,71L278.1,72.5L273.3,74.4L272.6,77.2L269.8,78.3L264.8,79.9L263.5,81.9L258.3,82.4L254.6,78.8L252.5,72.1L250.8,69.8L248.3,68.3L251.7,64.9L251.5,63.4L249.6,61.4L248.2,57L248.8,52.1L250.3,49.9L251.5,46.2L249.1,45.1L245.3,45.9L240.4,45.5L237.7,46.2L233,40.4L229.1,39.5L220.5,40.2L218.9,37.8L217.2,37.3L217,35.9L217.8,33.3L217.3,30.6L215.8,29.1L214.9,26L211.5,25.5L213.3,21.6L214.1,16.7L216.1,14.2L218.7,12.2L220.4,8.8L224.7,7.6L224.5,9.2L220.6,10L222.8,13.2L222.7,16.7L219.7,20.7L222.3,26.1L225.2,25.6L226.6,20.7L224.6,18.3L224.2,13.2L232.6,10.4L231.7,7.1L234,5L236.4,9.8L241.1,9.9L245.5,13.7L245.8,16L251.8,16.1L259,15.3L262.8,18.4L267.9,19.3L271.7,17.1L271.8,15.4L280.1,15L288.1,14.9L282.4,16.9L284.7,20.1L290.1,20.6L295.2,24L296.3,29.4L299.7,29.3L302.4,30.9L297.1,34.9L296.5,37.3L298.8,39.8L297.1,41.1L293,42.2L293.1,45.3L291.3,47.2Z" fill="#2c2c34" stroke="#474751" stroke-width="0.8"/><path d="M324,74.5L322.3,74.7L318.6,74.1L316.5,75.9L313.4,77.1L311.3,77.4L310.6,78.7L307.2,78.4L303.1,75.2L302.6,72.1L300.9,68.7L302,63L303.8,60.6L302.3,57.5L300,56.5L300.9,53.5L299.3,52L295.8,52.3L291.3,47.2L293.1,45.3L293,42.2L297.1,41.1L298.8,39.8L296.5,37.3L297.1,34.9L302.4,30.9L306.8,33.4L310.9,37.8L311.1,41.3L313.6,41.4L317.2,44.7L319.9,47.1L318.8,53.1L314.7,54.9L315.1,56.5L313.9,59.9L316.8,64.8L319,64.8L319.9,68.6Z" fill="#2c2c34" stroke="#474751" stroke-width="0.8"/><path d="M337.5,71.7L333.7,70.3L330.5,71L327.8,70.4L327.1,72.3L328.2,73.7L327.6,75L324,74.5L319.9,68.6L319,64.8L316.8,64.8L313.9,59.9L315.1,56.5L314.7,54.9L318.8,53.1L319.9,47.1L327.9,48.4L328.7,47.2L334.1,46.7L341.3,48.5L337.8,54.3L338.3,58.9L341,62.9L339.8,65.8L339.2,68.9Z" fill="#2c2c34" stroke="#474751" stroke-width="0.8"/><path d="M356.7,59.3L352.8,65.5L350.7,70.4L348.1,73L344.9,73.4L344,71.6L342.5,71.3L340.4,73.1L337.5,71.7L339.2,68.9L339.8,65.8L341,62.9L338.3,58.9L337.8,54.3L341.3,48.5L343.6,49.3L348.5,50.9L355.6,56.6Z" fill="#2c2c34" stroke="#474751" stroke-width="0.8"/><path d="M197.6,88.2L198.5,93.3L196.4,97.7L189.1,104.7L181,107.4L176.9,113.2L175.6,117.8L171.9,120.5L169.1,117.1L166.3,116.4L163.6,117L163.4,114.5L165.3,112.9L164.5,110.1L168.1,105.1L166.6,102.1L164.1,105.3L160,102.3L161.4,100.4L160.3,94.3L162.6,93.3L163.9,89.1L166.4,84.8L165.9,82.1L169.6,80.6L174.2,78L180.9,81.8L182.2,81.7L183.8,84.6L189.5,85.5L191.4,84.4L194.7,86.7Z" fill="#2c2c34" stroke="#474751" stroke-width="0.8"/><path d="M313,225.5L315,229.5L314.6,239.3L321.7,240.7L324.4,239.3L328.9,241.2L330.2,243.4L330.8,250.1L331.6,252.9L334.1,253.2L336.6,252L339,253.4L339,257.4L338.1,261.8L336.8,266.1L335.7,272.7L329.6,278.5L324.3,279.7L316.8,278.5L310,276.5L316.6,265.1L315.7,261.8L308.7,258.9L300.6,253.5L295.1,252.3L282.7,240.4L285.4,231.8L285.6,227.9L288.8,221.6L300.5,219.6L306.7,219.7L312.9,223.3Z" fill="#2c2c34" stroke="#474751" stroke-width="0.8"/><path d="M289.5,14.6L293.3,13.7L294.7,13.9L294.5,19L288.9,19.8L287.7,19.2L289.6,17.3Z" fill="#2c2c34" stroke="#474751" stroke-width="0.8"/><path d="M233.9,115.7L233.8,116.1L233.6,116.3L233.3,116.3L232.8,116L232.4,116.1L232,116.1L231.5,115.8L231.3,115.4L230.9,115.1L230.1,115.2L229.4,115.2L228.8,115.2L228.3,115.3L227.8,115.6L227.5,116.1L227.1,116.4L225.9,116.7L225.3,116.7L224.8,116.9L224,117L223.4,117.3L222.4,117.4L221.3,117.5L220.6,117.8L220.3,118L219.7,118.4L218.5,119.1L217.9,119.4L217.1,120.2L216.1,120.9L215.5,121.3L214.6,121.5L214.3,121.6L214.1,121.9L214.2,122.2L214.1,122.9L213.8,124.2L213.7,124.8L213.7,125.1L213,126.1L212.4,127.1L212.1,127.8L211.9,128.2L212.1,128.6L212.4,129.3L212.6,129.9L212.7,130.3L212.6,130.7L212.3,131.1L211.9,131.4L211.3,131.4L210.1,132.2L208.8,133.2L208.4,133.7L208.3,134.1L208.1,134.9L208.2,135.2L208.4,135.5L208.6,136.1L208.7,136.4L208.5,136.6L208.1,136.6L207.8,136.7L207.5,136.8L207.3,136.8L207,136.9L207,137.1L207.1,137.4L207.1,137.7L206.9,137.9L206.8,138.1L206.9,138.3L207.2,138.5L207.5,138.8L208,139.3L208.4,139.4L208.7,139.6L208.7,139.9L208.6,140.2L208.3,140.4L208.3,140.7L208.7,141L208.9,141.2L209.2,141.6L209.4,142.1L209.4,142.4L209.7,142.8L209.8,143.1L209.8,143.4L210.2,143.8L210.6,144L210.8,144.2L211.1,144.3L211.1,144.6L211.1,144.9L211.5,145.5L212.2,146L212.7,146.6L213,147.1L213.7,147.8L213.7,148.7L212.9,149.7L212.1,150.7L213.4,150.6L214.8,150.7L216.2,150.9L217.1,151.2L217.7,151.3L218.1,151.7L218.3,152.2L218.4,152.6L218.5,153.1L219.1,153.6L219,154.1L219,154.7L219.3,154.7L221,154.7L222.9,154.7L224.6,154.6L225.3,154.4L226.1,153.7L226.6,153.4L227.1,153.1L227.7,152.4L228.2,152.1L228.6,151.8L229.1,151.4L229.4,151.1L229.5,151L230,150.9L229.8,151.2L229.7,151.6L229.6,152.1L229.8,152.7L229.6,153.1L229.4,153.5L229.4,154.5L229.4,155.9L229.4,157.1L229.3,158.7L229.3,160.4L229.3,161.6L229.6,161.3L230.1,161.1L230.6,161.7L231,161.9L231.3,162L231.7,161.9L232.2,161.8L233.2,161.4L233.9,161L234.7,161L235.8,161.2L236.5,161.2L237.3,162.7L237.9,163.7L238.6,165L239.2,166L240,167.5L240.8,168.8L241.6,170.2L242.4,171.8L242.2,172.2L241.9,172.5L242,173.1L241.6,173.4L241.2,173.5L240.8,174L240.5,174.4L240.5,175L240.5,177.9L240.5,178.7L240.2,179.3L240,179.7L239.8,179.9L240.2,180.6L240.5,182L240.8,182.2L241.1,182.8L241.2,183.3L241.1,183.5L240.5,183.8L240.3,184L240.3,184.7L240,185L239.6,185.4L239.3,185.8L239,186.1L238.8,186.3L238.7,186.8L238.5,187.3L237.9,187.6L237.8,188.3L237.8,188.8L238.1,189.3L239.1,190.4L239.2,190.7L238.6,191.4L238.3,191.8L237.5,193.3L237.5,193.5L237.7,194.2L238.9,197.1L239.1,197.3L239.5,197.6L240,197.5L240.9,197.9L241.4,198.2L241.4,198.4L241.3,198.5L240.8,198.7L240.3,199.1L240.1,199.3L240.1,199.8L240.2,200.5L240,200.7L239.5,201L239,201.4L238.6,202L237.8,203L237.5,203.3L237.4,203.6L237,203.8L236.1,204.4L236,204.8L236.1,205.1L236.6,205.4L236.8,205.8L236.9,206.3L236.9,206.6L236.4,207.1L235.8,207.6L234.9,207.7L234.6,208L234.7,208.5L235,209.4L235,210L234.7,210.7L234.1,211.5L233.2,212.1L232.4,212.4L231.7,212.4L231.1,212.4L230.8,212.5L230.3,212L228.1,210.4L227.3,209.6L226.6,209.2L224.7,207.8L224.5,207.4L224.3,206L224,205.6L223.4,205.1L221.7,204.4L221.1,204.1L220.4,203.5L219.5,203L218.4,202.2L217.8,201.4L217.1,201L214.9,200.3L213.8,199.7L211.7,198.7L210.8,198.1L208.6,197.4L208,197.1L205.8,195.4L204.3,194.9L203.1,193.9L199.4,191.9L198.8,191.3L198.2,190.3L197.4,189.7L196.5,188.4L195.1,187.6L193.8,186.5L193.3,185.6L192.5,184.3L192.2,183.7L191.4,183.1L191.4,181.8L190.8,181.2L191.2,180.9L191.6,180.8L192.1,178.8L191.9,177.8L190.5,176L190,175.1L189.6,174L189.1,173.4L188.3,172L187.8,170.8L186.7,169.9L186.4,169.5L186.2,169.1L185.6,168.8L185.6,167.8L185.2,166L184.6,165.1L182.4,163.5L182.4,162.8L182.2,161.6L181.7,160.4L179.3,156.5L178.7,155.3L178.1,153.4L177.6,152.3L177,150.4L176.1,148.9L175.5,147.7L174.9,146.1L174.8,145.3L173.7,143.8L173.2,142.5L172.1,141.4L171.1,140.6L170.7,140L169.3,137.2L169.1,136.3L168.1,134.8L167.2,133.7L166.6,132.8L165.8,132L161.1,129.5L159.4,128.4L158.9,127.9L158.6,127.2L158.7,126.7L159.2,126.3L159.9,126.6L160.3,126.5L160.6,125.9L160.6,125.1L160.2,124L158.7,122L158.8,121.5L159.1,121L158.5,120L157.9,119.2L157.6,118.6L157.9,116.3L158.3,115.7L160.5,113.3L161.2,112.3L162.1,111.7L163.2,110.7L164.3,110L164.5,110.1L164.7,110.2L164.7,110.5L164.8,110.7L164.9,110.9L164.9,111.2L165,111.5L165.1,111.8L165.1,112.1L165,112.3L165.1,112.7L165.3,113.3L165.2,113.5L165,113.6L164.7,113.7L164.5,114.1L164.1,114.1L163.6,113.9L163.2,114.2L163.1,114.6L163.2,114.9L163.3,115.2L163.5,115.5L164.1,115.5L163.5,116.4L163.3,116.7L163.3,117L163.7,117.2L164,117.2L164.6,116.9L165,116.4L165.2,116.2L165.6,116.1L166.1,116.3L166.8,116.7L167.6,117.1L167.9,117.3L168.5,117.2L169,117.2L169.4,117.5L169.8,117.7L169.9,118.6L170.2,119.2L170.5,119.7L171,120.3L171.4,120.5L172,120.5L172.7,120.8L173,120.6L173.3,120.2L173.4,120L173.8,119.9L173.8,119.6L173.7,119.3L173.9,118.9L174.2,118.6L175,118.1L175.3,117.9L175.4,117.6L175.6,117.2L175.5,116.9L175.4,116.7L175.4,116.3L175.6,115.8L175.9,115.1L176.2,114.4L176.3,114L176.5,113.8L176.6,113.4L176.8,113L177.1,112.6L177.1,112.1L177.3,111.9L177.3,111.4L177.6,110.3L177.6,110L177.8,110L178,110L178.3,110.3L178.3,110.5L178.4,110.7L178.6,110.6L178.9,110.5L178.9,110.3L178.7,110.1L178.6,109.9L178.7,109.7L179.1,109.3L179.5,108.8L180.4,107.7L180.9,107.2L182.2,106.8L183.3,106.4L184.2,106.1L185.6,105.6L187.5,104.9L188.8,104.4L190,103.5L191,102.9L191.8,102.3L192.8,101.5L194.1,99.9L195.1,98.8L195.8,98L196.3,97.5L196.6,96.1L197.1,94.4L197.3,93.7L197.3,93.4L197.5,93.5L197.8,93.7L198,93.7L198.3,93.7L198.4,93.6L198.2,92L198.2,91.6L198.3,91.2L198.3,90.9L197.9,90.6L197.2,90L197,89.4L196.8,88.9L196.3,88.6L195.8,88.3L195.9,88L196.2,88L196.9,88.3L197.4,88.2L197.8,88.2L198.2,87.9L198.6,87.5L198.8,87.5L199.2,87.6L199.7,88L200,88.3L200.5,88.5L200.8,88.6L201.2,88.6L201.4,88.6L201.5,88.9L201.7,89.2L202.2,89.5L202.7,89.7L203.1,90.1L203.3,90.4L203.7,90.7L204,91.1L204.3,91.9L204.4,92.4L204.6,92.7L204.5,92.9L204.9,93.5L205.1,93.7L205.6,93.9L206.4,94.1L206.9,94.6L207.3,94.8L207.7,95.3L208.1,95.4L208.6,95.4L209,95.6L209.4,96.1L209.6,96.6L210,96.9L210.2,97.5L210,98.2L210.2,98.6L210.6,98.9L211.2,99.2L211.7,99.1L212,99.2L212.2,99.5L212.3,99.9L212.5,100.7L212.7,101.2L212.4,101.7L212.3,102L212.5,102.5L213,102.7L213.6,102.9L213.9,103.3L214.3,103.4L214.8,103.4L215.4,103.3L215.8,103.1L216,103L216.3,103.1L216.9,103.3L217.6,103.5L218.2,103.4L218.7,103.3L219.3,103.2L219.9,102.8L220.3,102.8L220.7,102.6L221.1,102.2L221.5,101.8L221.9,101.7L222.4,101.9L223.2,102.2L223.6,102.5L223.9,102.6L224.3,102.9L224.9,102.9L225.6,102.8L226.2,102.3L226.7,102.2L227.1,102L227.5,102.1L228.9,102.9L229.3,103.4L229.8,103.5L230.2,103.7L230.8,103.9L231.2,104.2L231.6,104.4L232,104.7L232.5,104.9L233,105.1L233.2,105.4L233.2,105.6L233.1,105.7L232.6,106.5L231.7,108L230.8,109.3L229.5,111.4L228.7,112.6L228.9,112.7L230.1,113.2L230.4,113.2L230.8,113.1L231.1,112.9L231.4,112.8L231.6,113L232,113.3L232.3,114.1L232.5,114.4L233,114.7L233.5,115.2Z" fill="#b8e653" stroke="#0c0e06" stroke-width="1"/></svg>
