<svg xmlns="http://www.w3.org/2000/svg" viewBox="0 0 400 300"><path d="M139.2,99.2L139.4,140.1L139.6,181.2L128.5,170.8L115.8,168.3L112.7,171.9L96.8,172.3L102.1,162L110,158.5L106.8,144.8L100.7,134.2L76.5,123.6L66.2,122.5L47.4,110.9L43.7,117L38.9,118.1L36,113.5L36,108.1L26.4,101.9L39.9,97.4L48.8,97.6L47.8,94.3L29.4,94.3L24.5,86.8L13.3,84.5L8,78.3L24.9,75.3L31.3,71.2L51.4,76.3L53.4,81L56.9,101.3L69.8,108.8L80.3,95.5L94.6,87.9L105.8,87.9L116.5,92.3L125.8,96.8ZM54.2,153.1L53,143.6L55.2,139.1L57.8,134.8L60.7,138.5L60.7,144.5ZM0,103.4L7.4,105.3L12,114.9L1.4,109.7L0,109.6L0,103.4Z" fill="#2c2c34" stroke="#474751" stroke-width="0.8"/><path d="M400,202.8L398.3,202.8L393.5,195L400,197.7L400,202.8ZM398,187.3L396.2,189.7L386.9,178.7L384.3,171.1L388.5,171.1L393,181.2ZM387.7,190.8L382.8,191.1L375.2,189.8L372.5,187.8L373.3,182.8L381.6,184.8L385.7,187.4ZM372.5,167.3L375.5,171.3L376,173.9L366.2,168.5L359.3,163.9L354.7,159.7L356.5,158.5L362.3,161.5ZM341.2,154.7L346.2,158.8L343.7,159.5L338.2,156.7L333.1,151.5L333.7,149.4Z" fill="#2c2c34" stroke="#474751" stroke-width="0.8"/><path d="M0,238.9L0.1,238.7L5.8,235.3L3.8,232.1L9.3,224.8L16.8,220.3L23.2,221.8L33.8,219.4L33.5,212.8L24.4,208.6L31,206.8L39.3,209.9L46,215.2L56.5,218.4L60.1,217.1L67.8,221.1L75.1,217.4L79.9,218.5L82.8,216.1L88.5,222.4L85.2,229.3L80.5,234.5L76.1,234.9L77.6,240L73.9,246.5L69.5,252.8L70.4,256.5L80.3,263.7L90,267.8L96.4,272.3L105.5,280.1L109,280L115.5,283.4L117.4,287.4L129.4,291.9L137.6,287.4L140.1,280.4L142.6,274.6L144.2,267.4L148,257.1L146.2,250.8L147.1,247.1L145.7,239.7L147.4,230L149.8,227.4L147.8,223.1L150.8,216.3L153.2,209.3L153.5,205.7L158.2,200.9L161.7,207.1L162.6,215.1L165.7,216.7L166.2,222.1L170.8,228.6L171.7,235.9L171.3,240.5L175.8,250.7L183.8,245.8L188,251.3L194,256.3L192.7,262.1L195.4,273.2L197.3,279.7L200.4,281.3L203.8,292.5L202.6,299.4L202.8,300L0,300Z" fill="#2c2c34" stroke="#474751" stroke-width="0.8"/><path d="M289,126.2L288.1,127.1L287.5,126.3L286.7,125.5L286.2,124.7L285.4,123L285.4,122.1L285.6,121.2L285.6,120.2L285.3,118.3L284.4,116.6L281.3,112.5L280.4,111.5L279.3,110.5L278.6,110.3L277.2,110L276.6,109.8L275.4,109.2L274.3,108.4L271.6,106.1L270.2,105.4L269.4,104.6L265.2,102L264,101.4L262.5,101.4L261.2,100.9L262.2,100.6L262.4,99.7L262.2,98.8L264.3,100.3L266.6,101.5L267.2,102.5L268.3,102.6L270.3,103.4L271.7,104.2L273,105.1L274.5,106.3L277.3,107.3L277.7,107.7L279.1,109.3L281,110.7L281.7,111.5L289.6,118L291,119.9L291.1,121.1L290.8,121.6L289.9,122.7L290,123.9L289.7,125.1ZM275.8,120.4L276.5,120.7L278.4,119.4L279.4,120.3L280.6,120.7L282,121L281.4,122.9L281.6,123.7L281.9,124.6L281.9,125.9L281.3,127L280.1,128.7L279.6,129L279,129.2L277.1,129.3L276.7,130.2L276.8,131.1L277.9,132.4L278.7,133.7L277.9,135L276.5,135.9L275.2,136.4L273.1,136.1L270.8,136.2L270.4,136.7L270.4,137.5L270.1,138.1L269.7,138.6L268.5,139.8L267.2,140.8L265.5,141.8L264.9,142L263.4,142.2L262,142.7L261.4,143.3L260.7,143.7L259.2,144.2L257.8,145.1L257.2,145.3L254.3,145.5L250,145.5L248.7,145.6L247.5,145.5L246.8,145.1L245.4,143.4L244.1,142.8L242.8,142.8L240.9,143.4L240.6,143.3L237,140.8L235.8,140.2L234.7,139.7L233.2,139.4L231.9,138.9L231,137.7L231.1,136.1L232.2,135.2L233.9,135.6L234.5,135.6L235.1,135.4L235.9,135.5L236.6,135.7L239.3,135.3L240.9,135.8L242.4,136.5L243.8,136.6L245.3,136.5L247.2,135.7L247.9,135.8L249.7,135.8L251.4,134.9L252,131L252.4,129.7L253,129.4L253.4,129.5L254,130.1L253.2,131L252.9,131.6L252.8,133.1L253.2,134.7L254.2,135.8L255.6,136L256.9,135.2L258.4,135L259.7,135.8L261.1,135.7L261.7,135.2L262.4,135L263.1,134.9L263.8,134.6L264.7,133.3L265.2,131.8L266.1,130.7L268.4,128.8L269.1,128.5L269.9,128.4L271.6,128.5L272.8,127.8L272.9,126.3L272.7,124.7L271.3,121L271.2,120.5L271.4,119.8L271.8,119.2L273.2,119.2L274.6,119.4L275.2,120ZM138.9,181.2L138.9,181L138.9,178.5L138.9,175.9L138.9,173.3L138.9,170.7L138.9,168.2L138.9,165.6L138.9,163L138.9,160.5L138.9,157.9L138.9,155.3L138.9,153.2L138.2,152.4L137.5,151.1L137.6,149.5L138.5,147.5L138.9,146.2L138.9,145.1L138.9,142.5L138.9,140L138.9,137.4L138.9,134.9L138.9,132.3L138.9,129.7L138.9,127.2L138.9,124.6L138.9,122.1L138.9,119.5L138.9,117L138.9,114.4L138.9,111.9L138.9,109.3L138.9,106.8L138.9,104.2L138.9,101.7L138.9,100.2L138.9,99.3L138.9,99.3L139.3,99.3L140.5,99.3L141.5,99.5L147.8,102.2L149.7,103.3L150.3,103.6L150.9,103.6L151.6,103.7L154.4,105.2L158.6,106.7L163.1,108.2L164.4,108.5L165.8,108.6L169,109.1L170.6,109.6L173,111.3L174.2,111.9L175.4,112.9L176.9,114L177.6,114.2L178.3,114.4L179.9,114.4L181.4,114.2L182.1,114.3L182.7,114.5L183.3,114.9L183.6,115.6L184.6,116.6L186,117.1L187.3,118L188.5,119.1L189.4,120.1L190.4,121.1L191.9,121.5L193.5,121.5L198.9,127L199.1,127.9L199.2,131.5L198.6,134.3L200,135.2L201.8,135.5L204.4,136.1L206.8,137L214.7,140.8L215.8,141.1L217.4,141.3L219,141.2L219.6,141.4L220.8,142.1L221.4,142.5L222.5,143.8L223.4,145.1L223.8,145.5L224.3,145.8L224.6,146.5L225,148.8L224.9,150.2L224.5,150.7L223.2,150.9L218.7,151.2L215.8,150.9L213.7,152.3L213.7,152.9L213.8,153.5L215.6,156.5L216.7,159.2L217.6,160.3L218.9,161.2L220.1,162.2L221.1,163.4L223.4,165.5L224.6,166.3L226,166.7L228.4,168.4L228.7,169.1L229.4,171.3L229.7,172.9L229.7,173.5L229.9,174.1L232,175.4L232.5,175.8L233.4,178.9L234.1,180.4L235.3,180.9L236.7,180.8L240.6,179.9L241.1,179.9L241.8,180.1L242.4,180.6L242.6,182L242,183.5L241.9,184.9L242.6,186L244.6,186.9L245.3,187.2L248.8,187.5L250.2,187.7L251.5,188.1L252,188.4L251.6,189.1L251,189.4L250.2,189.5L248.8,189.9L248.9,190.7L249.6,191.6L250.3,192.6L250.8,192.9L251.5,193.2L252.9,193.5L254.4,194L255.4,194.5L256.4,194.8L258.6,195L260.2,195.7L262.5,195.4L260.5,196.4L259.8,196.7L257.5,196.3L257,196.7L258,197.8L259.4,198.6L260,199L259.6,199.5L257.9,200.5L257.2,200.6L255.9,200.7L253.6,200.3L252,199.7L251.6,199L251.2,198.5L249.8,197.5L248.8,196.9L247.5,196.7L246.1,196.7L243.8,196.1L238.5,195.6L237.3,195.4L235.7,194.5L235,194.4L234.2,194.7L232.2,194.8L231.6,194.8L230.2,194L228.7,193.8L228.1,194L227.4,194L225.5,193.5L223.9,193.3L222.7,192.6L222,191.9L221.2,191.3L220.5,189.7L219.4,188.3L218,187.1L215.1,185.1L214.5,184.6L213.4,182.8L213.4,181.6L213.8,180.5L213.2,180.9L212.5,180.8L210.5,180L209.7,179.1L208.3,176.5L207.5,175.2L205.5,172.8L204.9,171.4L204.1,170.2L203.6,169.7L203.2,169.2L202.7,168.5L202.2,168L199.4,166.9L198.9,166.6L198.4,166.4L196.3,166.3L195.1,166.2L192.9,165.3L191.7,165L190.3,164.9L189,164.6L188.3,164.2L187.8,163.7L187.6,162.4L186.4,162.5L185.3,162.3L184.2,161.9L183.1,161.6L182.4,162L182.2,163L181.8,163L181.2,162.8L180.8,163L180.1,163.4L179.6,164.1L178.6,164L176.4,163.3L175.5,162.9L174.7,162.2L174,161.4L173.3,160.7L172.4,160.2L173.5,161.4L176,166.4L175.4,166.4L174.8,166.3L175.4,167.3L174.7,167.4L174,167.4L172.6,167L171.2,166.9L170.7,167.1L171,167.4L171.5,168.5L171.9,169.6L169.9,170.1L167.8,170.4L165.4,171L163.1,171L161.8,170.7L160.6,170.5L159.4,170.7L158.3,171.1L157.3,171.1L156.7,170.3L156.4,169.7L156.1,169.2L155.2,169.3L154.3,169.5L155.8,169.6L156.2,170.2L156.6,171L157.6,171.7L158.9,171.3L161.7,171.4L164.4,172.7L165,172.8L165.6,173.1L167,174.3L168.1,175.4L169,176.7L169.1,177.2L169.1,178.5L168.8,179.2L167.1,180.2L165.2,180.9L162.5,182.3L159.8,183.9L158.4,183.5L157.1,182.7L156.7,182.5L155.4,182L154.6,181.9L151.5,182.2L148.3,182.4L147,182.4L145.7,182.1L144.3,181.6L142.9,181.8L141.9,182.4L140.9,182.5ZM227.1,139.7L226.6,139.7L226.4,139.2L225.2,138.7L224.1,137.1L224.1,135.8L224.2,135.4L224.9,135.4L227.5,136.9L227.8,137.4L227.6,138.9ZM202,125.8L201.2,126.2L200.6,125.9L200.3,125.1L200.5,124.3L201.3,123.7L201.7,123.5L202.3,123.9L202.4,124.7ZM285.3,105.8L285,106.9L284.2,106.3L283.7,105.4L284,104.9L284.9,104.7ZM278.1,103.5L278,104.1L277.6,104.1L276.5,102.9L276.3,102.5L276.6,102.2L277.8,103.1ZM248.9,86L248.9,86.5L248,86.2L247.7,86.3L246.2,85L246.2,84.2L246.6,83.5L247.3,83.6L248.4,84.5ZM265.4,192.6L265.9,192.6L266.8,191.7L267.6,191.4L268.1,191.9L267.3,194.9L266.6,194.4L263.9,193.6L263.8,192.4L263.1,192L262.6,190.8L261.7,189.5L261.6,188.7L262.1,189.1L262.6,189.9L265,191.6L264.9,192.2ZM256.2,186L256,186.3L255.3,186.1L253.2,184.3L253.5,183L254.5,182.3L255.9,183.1L256.3,184.1L256.5,184.7ZM265.7,176.3L265.9,177.2L264.9,176.3L265.4,175.2L265.5,174.6L265.4,174.2L264.4,173.7L264.9,172.7L265.5,172.4L265.8,172.3L265.8,173.6L266.1,174.2ZM305.4,209.7L305.3,210.4L304.8,210.2L303.5,210.6L302.7,210.5L302.3,209.9L302.2,209.6L303.4,209.8L303.2,209.1L304.9,209.5ZM171.6,173.1L171,173.2L168.8,172.3L168.3,171.7L170.8,171.8L171.5,172L171.7,172.9ZM216.5,134.7L215.8,134.7L214.6,133.6L214.4,133.1L214.5,132.5L216,131.6L216.9,132.4L217.1,134ZM215.1,91.1L219.3,91.9L219.6,91.9L219.6,91.6L219.6,91.6L219.9,91.8L219.8,92.4L219.1,92.5L218.5,92.4L218.1,92.8L216.9,93.9L216.1,93.7L215.1,94L213.4,94L211.1,93.5L210.5,93.9L209.7,93.8L209,94.3L208.6,94.2L208.4,93.6L208.5,93.2L209.4,92.9L209.2,91.8L210,91.3L211.3,91.4L212.5,91ZM257.3,99.9L254.8,100.1L253.9,99.9L253.1,99.2L252.4,98.1L251.7,97.8L251.4,97.6L253.1,96.7L254.7,96.4L257.2,97.5L257.5,98.1L257.5,98.4L257.5,99.6ZM258.5,184.1L260.2,185.1L261.2,184.8L261.7,185L262.9,186.2L262.9,187.1L263.1,187.8L263,188.2L262.4,188.6L262.5,188.1L262,188L260.3,188L259.1,187.7L257.3,187.6L258,186.8L258.2,186.5L257.3,185.2L257.3,184.6L257.3,184.3L258.1,184.1ZM284.8,179.2L285.5,179.4L287,179.3L287.5,180L288.2,180.3L288.8,180.6L289.4,181.1L289.4,181.4L289.2,181.6L288.9,181.8L289,182.4L288.5,182.3L287.7,182.6L286.4,182L285.9,181.8L285.8,181.3L284.9,180.4L283.3,179.8L284.1,179.3ZM296.1,211.2L298.2,211.9L298.9,212.6L298.1,213L296.3,213.2L295.9,212.7L294.1,212.3L293.9,211.4L293,211.7L293.5,211.1L292.3,210.5L292,209.6L292,209.3L293.2,209.7ZM171.6,175.1L171.8,175.6L170,174.9L168.3,173.6L167.4,173.2L166.8,172.4L167.9,173L169.8,173.6ZM225.3,95.2L224.9,95.8L223.9,95.8L223.5,95.6L224.2,95.4L224.5,94.9L224.8,94.7ZM276.3,102L276.1,102L276,101L276.2,100.5L276.9,100.9L277,101.8ZM263.1,199.6L262.9,200.6L261.9,200.3L261.7,200.1L261.9,199.4L262.8,199.4ZM297.6,117.9L297.6,118.2L296.8,117.9L297.4,117.3L297.7,117.2ZM326.4,150.5L326.1,151.7L325.9,151.8L325.6,151.4L324.5,151.8L324,152.3L323.4,152.7L322.2,152.6L320.9,152.3L319.8,151.7L318.7,150.9L317.7,149.7L317.1,148.5L317.4,147L317,145.7L315,144.8L314.5,144.5L313.7,143.2L312.8,142.6L311.7,141.5L311.4,141L310.9,139.5L310.8,138.6L311.2,136.1L311,134.8L311.6,135L312.2,135.5L312.8,135.8L314.4,136L315.6,137.1L316.8,139L316.9,139.7L317.3,140.1L318.5,141L319.1,141.5L320.3,143.6L320.9,144.1L321.7,144.3L322.4,144.6L323.6,145.6L324.7,146.6L325.5,147.7L326,148.9ZM310,134.7L309.8,134.8L309.2,133.2L309.1,132L309,131.2L308.7,130.6L309.5,129.7L309.9,129.4L310.4,129.9L310.5,131L311,132L310.7,134.1Z" fill="#b8e653" stroke="#0c0e06" stroke-width="1"/></svg>
