<svg xmlns="http://www.w3.org/2000/svg" viewBox="0 0 300 300"><path fill="#e8e8ea" d="M307.7,88.5L309.1,89L313,86.3L315.1,88.2L317.7,89.1L320.5,89.6L319.4,93.5L319.7,95.3L320.4,97.2L320.3,99.8L319.1,102.2L316.6,105.6L315.5,106.3L314.3,106.7L310.3,107L309.5,108.8L309.8,110.7L312,113.3L313.6,116.2L312,118.8L309.1,120.7L306.4,121.6L302,121.1L297.3,121.3L296.4,122.3L296.4,124L295.7,125.2L294.9,126.4L292.6,128.8L289.8,130.9L286.3,132.9L285.1,133.4L281.8,133.7L278.9,134.9L277.7,136L276.3,136.9L273.2,137.9L270.2,139.9L269,140.2L262.8,140.6L253.9,140.7L251.3,140.9L248.8,140.6L247.4,139.8L244.4,136.2L241.8,135.1L238.9,135.1L235.1,136.3L234.4,136.1L226.9,130.8L224.5,129.5L222.1,128.6L219.1,127.9L216.3,126.8L214.6,124.3L214.8,121.1L217,119.2L220.5,120.1L221.8,120.1L223.1,119.6L224.6,119.8L226.2,120.2L231.8,119.5L235,120.5L238.2,121.8L241.2,122.1L244.2,121.8L248.2,120.3L249.5,120.5L253.5,120.5L256.8,118.5L258.2,110.5L259,107.8L260.2,107.1L261.1,107.3L262.3,108.7L260.7,110.4L259.9,111.7L259.8,114.9L260.6,118.1L262.7,120.5L265.7,120.8L268.4,119.2L271.4,118.9L274.2,120.5L277,120.2L278.3,119.2L279.8,118.7L281.3,118.5L282.6,117.9L284.5,115.2L285.7,112.2L287.5,109.8L292.4,105.8L293.8,105.3L295.4,105L298.8,105.2L301.4,103.8L301.6,100.6L301.2,97.3L298.3,89.8L298.1,88.5L298.5,87.2L299.3,86L302.2,86L305.2,86.4L306.4,87.5ZM22.9,214.9L22.9,214.5L22.9,209.2L22.9,203.8L22.9,198.5L22.9,193.1L22.9,187.8L22.9,182.5L22.9,177.1L22.9,171.8L22.9,166.5L22.9,161.1L22.9,156.7L21.4,155L20,152.4L20.3,149L22.1,144.8L22.9,142.1L22.9,139.8L22.9,134.5L22.9,129.2L22.9,123.8L22.9,118.5L22.9,113.2L22.9,107.9L22.9,102.6L22.9,97.2L22.9,91.9L22.9,86.6L22.9,81.3L22.9,76L22.9,70.7L22.9,65.4L22.8,60.1L22.8,54.8L22.8,49.5L22.8,46.3L22.8,44.6L22.8,44.5L23.7,44.5L26.3,44.5L28.3,44.9L41.5,50.6L45.3,52.9L46.6,53.4L47.9,53.4L49.2,53.7L55.1,56.8L63.9,60L73.1,63L76,63.6L79,63.9L85.4,64.9L88.9,65.9L93.9,69.6L96.4,70.7L98.7,72.8L102,75.1L103.4,75.6L104.8,75.9L108.1,76L111.4,75.6L112.8,75.8L114.1,76.2L115.3,76.9L115.9,78.4L117.9,80.6L120.9,81.5L123.6,83.4L126.1,85.6L127.9,87.9L129.9,89.9L133.1,90.7L136.4,90.8L147.7,102.2L148.2,104L148.3,111.5L147.1,117.3L149.9,119.2L153.7,119.8L159.1,121.1L164.2,123L180.6,130.9L182.9,131.6L186.2,131.8L189.6,131.7L190.8,132.1L193.2,133.6L194.5,134.5L196.8,137.1L198.7,139.8L199.6,140.6L200.6,141.2L201.2,142.7L202,147.4L201.7,150.3L200.9,151.4L198.3,151.9L189,152.4L182.9,151.9L178.6,154.8L178.4,156.1L178.8,157.4L182.5,163.6L184.7,169.1L186.6,171.4L189.3,173.2L191.7,175.4L194,177.9L198.6,182.2L201.2,183.8L204.1,184.8L209,188.2L209.7,189.7L211.2,194.4L211.8,197.5L211.9,198.9L212.2,200L216.5,202.9L217.6,203.8L219.5,210.2L221,213.1L223.5,214.2L226.4,214.1L234.4,212.2L235.5,212.2L237,212.6L238.3,213.7L238.7,216.6L237.4,219.6L237.1,222.5L238.7,224.9L242.7,226.8L244.2,227.3L251.5,227.9L254.3,228.4L257.1,229.2L258.2,229.9L257.4,231.2L256,231.9L254.3,232.1L251.6,233.1L251.7,234.7L253.2,236.5L254.6,238.5L255.7,239.3L257,239.8L260.1,240.5L263.2,241.5L265.3,242.5L267.3,243.2L271.8,243.7L275.2,245L280,244.4L275.9,246.6L274.5,247.1L269.5,246.3L268.6,247.2L270.6,249.4L273.6,251L274.8,251.9L273.9,252.9L270.4,255.1L268.9,255.3L266.2,255.5L261.5,254.6L258.3,253.4L257.4,251.9L256.5,251L253.6,248.7L251.4,247.5L248.8,247.1L246,247.2L241,245.9L230.1,244.9L227.6,244.4L224.3,242.6L222.8,242.3L221.1,242.9L217,243.2L215.8,243.1L212.8,241.6L209.7,241L208.4,241.5L207.1,241.6L203,240.5L199.8,240L197.1,238.5L195.7,237.1L194.1,235.9L192.6,232.6L190.4,229.6L187.5,227.1L181.4,223L180.2,222L177.8,218.3L177.9,215.8L178.8,213.4L177.5,214.2L176,214.1L171.8,212.4L170.2,210.5L167.3,205.2L165.6,202.4L161.4,197.4L160.2,194.5L158.5,192L157.4,191L156.6,189.9L155.7,188.4L154.6,187.5L148.8,185.2L147.8,184.6L146.6,184.2L142.3,184L139.9,183.6L135.2,181.8L132.8,181.3L129.8,181L127,180.3L125.6,179.6L124.7,178.5L124.1,175.8L121.8,176.1L119.4,175.6L117.2,174.7L114.9,174.1L113.4,174.9L112.9,177L112.1,177.1L110.8,176.7L110.2,176.9L108.7,177.9L107.5,179.3L105.4,179.1L101,177.7L99,176.9L97.3,175.4L95.9,173.6L94.4,172.3L92.6,171.3L94.9,173.6L100.1,184L98.8,184.2L97.5,183.9L98.7,185.9L97.3,186.2L95.9,186.2L92.9,185.3L90,185.1L89.1,185.5L89.7,186.2L90.8,188.4L91.6,190.7L87.3,191.8L83,192.4L78.1,193.7L73.1,193.7L70.6,193L68,192.6L65.6,193L63.2,193.9L61.2,193.8L59.9,192.1L59.4,190.9L58.6,189.9L56.7,190L55,190.6L58.1,190.7L59,192.1L59.7,193.7L61.9,195.2L64.6,194.3L70.3,194.5L76,197.1L77.3,197.4L78.5,197.9L81.4,200.5L83.6,202.8L85.4,205.5L85.8,206.6L85.7,209.4L85.1,210.7L81.5,212.7L77.6,214.2L71.9,217.1L66.4,220.5L63.5,219.8L60.9,218L59.9,217.6L57.2,216.6L55.5,216.3L49.1,217L42.5,217.4L39.7,217.3L37.1,216.8L34.1,215.7L31.2,216.2L29.2,217.4L27,217.6Z"/></svg>
