<svg xmlns="http://www.w3.org/2000/svg" viewBox="0 0 400 300"><path d="M69.1,0L57,1.3L44.8,10.9L37.9,3.9L26.7,14.6L0,24.9L0,0Z" fill="#2c2c34" stroke="#474751" stroke-width="0.8"/><path d="M183.9,0L176,16.3L166.6,0L183.9,0Z" fill="#2c2c34" stroke="#474751" stroke-width="0.8"/><path d="M183.1,87.5L186.1,88.6L192.9,92.5L195.3,93.5L197.9,94.2L199.9,94.4L201.8,93.5L202.5,92.6L203.9,90.2L205.3,89.9L206.3,90.8L206.9,92L207.3,93.7L206.8,95.5L205.4,97.1L204.5,99.1L204,105.5L204,107.4L204.5,109.3L205.7,112.2L206.3,113L208.2,114.1L208.7,114.9L208.8,116.3L209.1,117.6L210.3,118L211.3,118.7L210.9,120L210.3,121.5L209.4,125L205.5,133L205.3,134.7L203.7,138.2L200.5,138.8L196.7,140.4L194.7,141.7L192.9,143.4L192.2,145.6L192.8,146.6L193.2,147.7L193.2,148.8L192.6,149.8L190.8,152.1L190.1,154.1L189.3,154.9L188.9,156L189,157.2L189.7,158.2L191.9,162.7L194.2,167L194.7,167.5L194.9,168.1L193.5,169.2L193.6,171.3L193.9,173.4L196,178.4L196.3,179.8L197,180.9L198,181.9L199.2,182.8L202.5,184.3L203.8,184.6L205.2,184.6L205.5,183.6L206.7,183.3L206.4,182.3L205,180.9L205,180.2L205.7,179.6L206.6,179.3L208.6,177.8L210.7,176.6L213.4,176.7L216.1,177.4L218,178.1L219.6,179.4L221.2,181.6L222.3,184L222.2,185.2L222,186.4L222,187.6L222.9,188.3L225.5,188.4L226.8,186.6L227,184.5L226,183.7L226.5,182.7L227.3,181.9L228.4,182.6L229.5,183.9L233.5,185.3L234.5,185.3L235.3,185.6L237.1,186.6L237.9,187.3L236.9,188.9L232.9,189.3L231.8,190.5L233,192.9L234.8,194.8L236.1,196.4L237.1,198.2L237.1,199.8L236.5,201.4L238.2,201.3L239.9,201.6L242.2,203L242.9,203.1L243.6,202.9L243.5,207.9L241.9,212.5L240,211.9L238.4,210L238.6,207.7L239.7,205.4L239.1,204.9L238.1,205.1L236.9,205.6L235.5,205.8L233.3,205.5L228.9,203L227,202.8L226.6,201.7L226.8,199.3L225,196.4L224.7,195.5L224.1,194.6L218.8,191.6L218.2,191L216.5,188.6L212.8,185.1L211.8,184.8L210.6,184.6L210.3,185.5L210.8,186.9L211,188.1L210.9,189.3L211.1,190.3L212.9,192.2L213.1,193.1L214.3,195.6L214.4,198.5L212.9,199.7L211.2,198.4L211.1,197.3L210.9,196.2L209.1,193.6L208.5,193L205.1,190.4L202.4,187.6L196.5,184.5L195.9,184.3L194.8,184.6L193.9,184.9L191,186.5L190,187.5L189.9,189.1L187.9,190.4L185.1,190.6L183,189.8L181.2,188.2L179.7,188.1L177.9,185.6L175.7,185.2L173.8,187.2L173.5,183.3L173.5,179.4L174,178.2L174.9,177.2L179.6,173.1L180.1,171.7L179.9,170L178.8,168.5L177.2,167.6L175.3,167.3L173.9,166.5L172.8,165.1L172,167.5L172.7,171L172.9,173.3L172.2,174.2L171,174.2L169.9,173.9L169.1,173.1L168.4,170.7L166.8,169.2L166.2,166.9L165.4,166.6L163.9,166.8L162.8,165.7L162.1,163.1L161.9,160.3L161.3,157.9L160.4,155.7L159.9,153.8L159,145.4L158.9,144.6L158.4,144L157.3,143L156.6,141.8L156.4,140.9L156.6,136.7L157,135.7L157.8,135.3L158.9,136.1L159.8,137.1L160.9,137.6L161.9,138.2L163.7,140.7L164.4,141L166.6,140.9L167.9,140.7L168.5,139.8L168.9,138.7L169,137.4L167.7,133.7L167.2,131.1L167.2,128.6L167.6,126.2L169.3,122.2L169.5,119.4L169.4,115.6L169.7,113.4L169.6,112.1L168.6,110.1L168.3,108L171.2,97L172.2,94.9L172.8,92.7L173.1,89.8L175.3,89L177.4,87.8L178.5,87.9L179.6,88.2L182.1,87.5ZM107.7,296.1L105.8,297.5L106.1,295.7L106.6,294L108.4,290.5L109.8,289.5L112,286.7L113.3,285.4L116.3,282.8L119.1,279.9L120,279.7L121,279.7L121.9,279.3L123.7,277.8L128.2,272.6L132,268.8L135.9,263.9L137.7,262.5L138.2,261.9L141.7,257.4L142.9,256.8L144.1,256.3L145,255.7L145.7,254.9L147,253L147.5,250.7L147.2,249.4L146.5,247.5L147.4,244.9L148,243.7L150.5,238.4L151.3,237.3L152.3,238L152.4,238.9L151.9,241.2L151.9,242.3L152.5,243.4L151.8,245.3L153.6,250.3L154.9,253.4L155,254.5L153.1,256.3L152,256.9L149.7,257.4L148.6,258L147,259.5L145.9,261.5L145.6,262.6L145.1,263.4L140.2,264.7L138,265.6L136.9,266.3L136.4,267.4L136.8,269.3L132.7,276.3L131.4,278.1L130.1,279.6L128.3,280.7L126,281.4L124,282.7L122.8,285.1L121.2,287.3L119.2,288.8L117,290.2L115,291.3L112.9,292L112.2,292.9L111.8,294.1L110.8,294.6L109.7,294.9ZM210.9,231.9L213.1,232.9L215.4,232L217.7,232.3L219.5,233.6L218.9,234.5L218.8,235.4L222.9,233.4L224,233.5L224,235.4L223.7,237L223.2,238.6L222.4,240.4L221.2,242L219.7,243.2L217.8,243.9L216.9,244.6L216.7,245.6L216.7,246.8L216.3,247.9L214.4,248.4L211.4,250.6L204.9,252L203.1,252.9L202,254.2L200.8,255.3L200,255.6L199.7,255.1L199.7,254.6L200.6,251.7L200.4,250.4L200,249.3L200.3,247L201.4,244.8L202,242.4L202.2,237.7L203,231.3L203,230.6L202.3,229.7L199.8,229L198.8,228.3L199.3,227L200.3,226.1L201.5,226.2L202.7,227L206.8,228.7L208.9,230.1ZM223.5,283.5L222.2,283.7L220.7,283.6L219.8,282.6L218.2,278.3L216.4,277.3L214.2,276.5L213.1,275.8L212.1,275L209.1,270.8L208.9,268.2L209.4,266.7L210.4,265.4L211.4,265L213.9,265L215.1,264.8L218,262.8L218.2,262.1L218.2,258.8L217.9,256.6L217.2,254.4L218,253.4L219,252.4L220,250.5L220.2,249.1L220.2,247.7L220.5,246.6L221.4,246.2L225.2,244.6L226,244.5L231.1,245.9L232.1,248.1L232.1,248.8L231.3,251.2L230.7,252.8L229,255.3L227.7,258L226.8,262.1L226.2,263.4L224.6,265.9L224.1,267.3L224.1,270.3L223.8,271.5L223.8,272.6L227,277.6L227.3,278.4L227.3,279.3L226.7,280.4L225.4,282.3L224.7,283ZM252.2,237.4L253.6,238.1L255.2,237.8L257.1,236.2L259.3,236.8L260.6,239.2L261.2,240.1L261.6,241.6L261.4,245.3L260.9,248.7L261.3,249.4L262.4,250L263.2,250.8L263.9,251.7L264.4,252.8L264.6,255.4L265.9,257.5L266,258.4L265.7,259.3L263.6,259.1L263.4,259.8L263.5,260.8L262.8,260.2L261.6,258.1L260.4,257.2L260.8,260.6L261.1,262.3L261.2,263.9L259.3,262.7L256.9,261.9L256.3,261.2L256.5,259.1L256.5,258L255.5,255.7L256.6,250.8L256.6,249.8L256.4,248.8L255.5,246.8L254,245.1L253,245.1L250.7,246.3L249.6,245.9L249,241.3L248,236.8L247.4,235.7L246.9,234.5L247.3,233.5L248.2,233.9L249.5,235.1L251,235.8L251.7,236.3ZM265.4,213.3L266.9,215L267.2,216.2L267,217.5L267.7,218.1L268.8,218.3L270.2,218.9L271.3,220.2L270.7,221.3L270.9,222.9L269.7,225L269.9,228.7L270.5,229.9L270.6,231L270.4,232.3L270.7,233.3L272.5,236.7L272.8,237.8L272.2,238.7L272.1,239.5L273.2,239.6L274.7,241L275.5,242.9L275.3,243.3L274.1,241.9L273.2,241.7L269.2,242.1L266.9,241.5L265.3,241.4L263.8,238.9L262.4,238.5L261.3,237.4L259.6,234.6L259,233L260.3,231.4L260.6,230.1L260.6,228.8L259.3,229L258.3,228.6L257.1,227.1L256.6,226.2L255.7,225.4L254.3,223.6L252.1,222.9L251.3,222.4L249.6,221L248.5,219.1L247.2,215.8L246.6,212.5L252,213.3L257.5,213.2L263.6,212.4ZM175.2,193.9L176.2,194.1L179.4,193.4L180.7,193.7L181.6,194.9L182.6,195.3L183.5,195.9L185.1,194.8L186.7,196L188.1,198.3L189.9,199.8L191.4,201L191.8,201.9L190.8,203.3L190.5,205.1L190.7,207L191.8,211L191.4,212.1L190.2,213.7L189.3,215.4L189.4,216.1L189,216.7L188.9,217.9L188.1,217.7L187.5,217.9L186.9,218.4L185.8,219.6L184.1,219.3L183.4,218.9L183.2,217.9L182.7,217.2L182.1,216.7L180.3,215L179.6,213.6L179.5,212.2L179,210.9L178.2,209.7L177,208.8L176.6,208L176.5,206.9L176.4,204.3L174.7,201L174.1,200.2L172.6,199.4L171.3,198.4L170.7,197.3L170.2,195.6L169.9,195.4L168.9,195.5L167.9,195.2L168.2,194L169.2,193.1L170.5,193L174.2,193.5ZM220.9,300L221,299.1L220.8,297.7L221.2,296.9L221.9,296.2L222.7,295.2L223.8,294.5L226.7,294L227.7,293.4L228.4,292.5L229.5,290.7L230.8,291.2L232.1,291.9L234.4,292.4L236.4,293.9L237.8,296.2L238,297.3L238.3,300L220.9,300ZM244.9,300L245.2,299.4L246.4,297.1L247.2,294.7L247.9,293.6L248.8,292.8L249.7,292.7L253.1,294.4L255.3,293.6L255.9,291L256.4,287.3L256.8,286.3L258.1,285.3L259.6,285.6L261.6,287L263.5,287.4L264.1,286.3L264.9,284.2L265.6,284.2L268.2,284.9L270.6,284.5L271.3,281.9L270.8,279.2L268.9,271.3L270,269.5L271,269.5L273.5,271.6L278.1,274.4L279.7,276.2L280.7,278.3L280.7,278.3L282.3,279.5L284.4,279.2L284.3,282.2L284.7,283.2L286.6,285.7L286.9,287.9L285.8,289.9L284.9,290.9L283.3,292.3L283.3,292.9L284,293.6L286.2,294L287.9,295.1L288.1,298.3L289.2,300L244.9,300ZM228.3,275.7L227.5,276.2L227.2,274.9L227.4,273.1L228.9,266.8L228.5,265.3L231.1,261.8L232.7,258.5L235,255L235.3,253.2L237.4,249.8L239.4,245.1L239.3,243.5L239.8,242.7L240.1,241.6L240.1,240.6L241.5,238.8L241.9,240L241.5,242.2L241.6,243.3L241.8,243.8L241.8,245.9L241.3,249.1L241.8,252.8L240.9,256.5L239.8,258.2L238.3,259.4L236.6,260.1L234.8,262L233.7,264.2L233.5,266.2L230.7,272.9ZM199.4,81.6L198.2,83.2L197.5,82.7L198.2,81.3L198.2,80.8L198.7,79.6L199.8,79.2L200.8,80.3ZM191.4,71.8L191.7,73.7L190.4,73.7L188.7,72.5L188.5,71.9L188.6,71.4L188.9,71ZM200.2,50.6L199.8,50.8L199.2,50.7L199.8,48.7L200.8,48.1L201.6,48.4ZM198.5,41.7L197.6,43.4L196.8,43.4L197,42.5L198,40.5L198.3,40.5ZM159.5,254.8L157.1,255.4L156.5,253.4L158.2,251.6L160.2,252.4L161.4,253.1L160.8,253.7ZM163.1,220.6L164.2,221L165,220.7L165.7,219.6L166.4,221.2L167.9,222.5L167.4,223.8L166,224L164.7,223.7L163.1,224.2L161.4,223.9L160.4,222.6L159.1,220.4L158.5,220L158.6,219.1L159,218.5L158.8,218.4L158.9,217.9L159.1,217.7L159.5,217.6L160.4,218.5L162.7,220ZM161.9,230.1L160.4,230.8L160.1,230.3L159.9,229.4L159.9,228.6L158.4,225L159.5,224.4L160.3,224.9L161.1,225.4L161.9,225.8L162.6,226.9L162.4,227.7L162.6,228.5ZM213.9,255L213.4,255.3L212.9,255.3L211.7,256L211.3,254.6L211.6,252.3L213.4,250.6L213.9,250L214.4,249.6L214.9,249.6L215.5,250.3L215.7,251.4L214.5,254.5ZM252.6,268.9L252.4,269.6L250.8,269.6L250.2,269.7L248.8,271.6L248,272.1L243.2,272.7L239.5,272.2L238.2,271.2L237.4,269.4L237.1,268.3L238.1,267.1L238.9,266.2L241.9,264.6L242.7,263.4L244.2,261.9L247.5,261.4L247.7,261.8L248.2,262L248.8,262L250.5,263.3L252.3,264.1L251.8,267.1L252.3,268ZM281.8,269.3L281.5,269.4L280.4,267.9L280.5,266.1L282,263.4L283.1,265.8L283.1,266.8L283,267.3L284,268.6L283.3,269.3ZM274.4,266.3L274,266.9L273.6,265.7L272.4,264.6L271.3,262.8L270.5,262.2L271,260.7L271.1,258.4L272.2,257.3L272.7,256.9L273.5,255.8L274,255.7L274.3,256.7L273.5,259.6L274.7,263.2L274.2,265.3L274.5,265.8ZM166.6,188.3L166.6,189.7L163.2,187.7L163.1,187L163.2,186.5L163.6,186.1L165.4,186.9ZM199.2,192.6L200.5,192.7L200.9,192.5L203.3,194.2L203.1,195.1L203.4,196.2L202,198.2L201.8,198.9L201,199.5L198.5,197.9L197.6,197L197.3,195L198.3,192.1ZM202.8,216.9L201.3,221.9L200.2,220.2L200.6,219.1L199.7,218.2L199.5,217.3L199.8,216.2L200.8,215.2L201,211.9L203,210.8L203.8,210.8L203.5,211.6L203.6,213.1ZM214,217.8L213,218.2L210.9,216.3L209.7,215.3L209.4,214.8L210.4,214.1L213,214.1L214.4,215.4L214.6,216.3ZM226.5,206.7L228.2,209.8L226.3,207.7L224.2,206.2L222,203.8L220.3,203L219.9,202.5L220,201.5L221.2,201.3L221.7,201.4L225,205.6ZM236.3,214.8L236.4,216.6L235.6,215.9L233.2,212.4L232.6,211.2L233.2,210.3L235,211.6ZM235.1,218.2L238.9,220.6L241.6,224.7L241.9,227.9L241.7,229.1L240.4,227.7L237.7,225.8L235.8,225.4L235.3,225L235.5,224L234.3,223L234.1,222.6L233.1,222.2L231.4,220.1L230.3,219.6L229.2,220.1L226.7,223.3L224,225.6L224,224.7L225,221.9L225.8,217.4L226.2,216L225.6,214L225.5,212.2L227.5,213L230,213.8L232,215L232.3,215.8ZM247.8,190.8L247.2,192.1L246.6,191.6L245.7,191.7L244.2,192.8L241.9,191.3L241.5,190.1L243.2,187.5L243.2,183.6L243.8,182.7L244.4,182L245.2,181.6L246.9,184.3L247.5,184.6L249,185.9L248.7,188.3L248.8,189.8ZM204.5,182.2L204.4,183L200.1,180L199.9,179.5L199.9,179L200.2,178.5ZM201.6,162.6L202,163.3L201.6,163.2L201.3,163.4L200.4,164.9L201.4,167.6L200.8,169.6L199.6,169.7L199.2,169.5L199.4,168.5L199.7,168.1L199.5,166.8L198.7,166L198.2,164.4L197.4,163.4L197.8,161.9L200.4,161.7ZM247,252.3L246.5,252.4L247.5,250.3L248.2,250.6L248.4,250.8L248.4,251.8ZM266.2,264.9L266.4,266L263.9,263.3L263.3,261.5L264.1,261.5L265.3,262.2ZM252.9,234.4L250.4,234.5L249.3,233.6L248,230.8L249.5,230.3L251,230.4L252,231.4L253.1,233.2ZM256.8,281.9L256.3,283.1L254,282.1L253.5,281.2L253.8,280.2L254.8,279.9L255.4,279.9L256.5,281ZM186.1,77.7L186,79.1L185,78.3L184.8,77.3L184.9,76.5L185.3,75.6L185.9,76.4ZM158.4,233.7L158.9,234.8L158.3,236.4L157.8,236.8L157.2,236.1L155.8,235.6L155.7,234.7L156.4,234.7L157.7,233.9ZM235.9,238.6L237.1,241.3L235.5,241.3L234.9,239.3L235.6,238.7ZM207.1,213.3L206.6,213.9L206.2,213.8L205.9,212.7L206.5,212L206.7,212ZM280,272.8L279.6,273.3L279,272.2L279.5,269.9L279.9,269.5L280.4,271ZM257.8,232.3L257.4,233.3L256.8,233.1L256.3,232.6L255.5,231L255.3,229.8L256.5,230.5L257.1,231.6ZM107,300L106.9,299.8L107.1,298.6L108.1,298.7L108.5,299.1L108.5,300L107,300ZM234.8,280L234.9,282.1L233.1,282.7L231.6,282.1L230.7,280.9L230.7,280.4L231.5,280.5L233.3,279.4L233.9,279.1Z" fill="#b8e653" stroke="#0c0e06" stroke-width="1"/></svg>
