<svg xmlns="http://www.w3.org/2000/svg" viewBox="0 0 300 300"><path fill="#e8e8ea" d="M114.8,20L121.2,22.3L135.2,30.5L140.2,32.5L145.6,34L149.8,34.4L153.7,32.6L155.1,30.7L158.1,25.6L161.1,25L163,26.8L164.4,29.3L165.1,32.9L164.2,36.7L161.2,40L159.5,44.1L158.3,57.4L158.3,61.4L159.3,65.3L161.8,71.4L163.2,73.1L167.1,75.3L168.1,76.9L168.3,79.9L168.8,82.5L171.4,83.5L173.5,84.8L172.7,87.7L171.4,90.6L169.6,97.9L161.4,114.6L161,118.2L157.7,125.4L151,126.6L143.2,130L139.1,132.7L135.3,136.3L133.8,140.9L135,143L135.8,145.2L135.8,147.6L134.6,149.6L130.9,154.5L129.4,158.5L127.7,160.3L126.8,162.4L127.1,164.9L128.6,167.1L133.1,176.4L138,185.4L139.1,186.4L139.3,187.6L136.5,190L136.7,194.3L137.4,198.6L141.7,209.1L142.3,211.9L143.8,214.2L145.9,216.4L148.4,218.2L155.3,221.3L158,222L160.8,222.1L161.4,220L163.9,219.2L163.3,217.2L160.4,214.4L160.4,212.8L161.8,211.6L163.8,211L168,207.8L172.3,205.3L177.9,205.5L183.4,206.9L187.5,208.4L190.7,211.1L194,215.7L196.4,220.8L196.3,223.2L195.8,225.7L195.8,228.1L197.6,229.8L203,229.8L205.6,226.1L206.1,221.8L204.2,220.1L205,218.1L206.7,216.4L209.1,217.8L211.3,220.5L219.6,223.4L221.7,223.5L223.4,224L227.1,226.1L228.9,227.6L226.8,230.9L218.5,231.7L216.1,234.2L218.6,239.2L222.5,243.3L225,246.6L227.2,250.2L227.2,253.5L225.9,256.9L229.5,256.7L232.9,257.4L237.7,260.3L239.2,260.6L240.7,260.1L240.5,270.5L237.2,280L233.2,278.8L229.8,274.8L230.4,269.9L232.6,265.2L231.4,264.2L229.2,264.6L226.7,265.6L223.8,266L219.4,265.4L210.1,260.3L206.2,259.7L205.3,257.5L205.6,252.5L201.9,246.6L201.3,244.5L200.1,242.8L189.1,236.5L187.8,235.4L184.3,230.3L176.6,223L174.5,222.3L172.1,222.1L171.4,223.9L172.4,226.7L172.9,229.2L172.7,231.8L173,233.7L176.7,237.7L177.2,239.7L179.7,244.8L180,250.9L176.9,253.4L173.3,250.6L173.2,248.3L172.6,246.2L168.8,240.7L167.7,239.5L160.5,234L155,228.1L142.8,221.8L141.4,221.4L139.2,221.9L137.3,222.7L131.3,225.8L129.2,228L129.1,231.4L124.9,234L119.1,234.4L114.6,232.7L110.9,229.4L107.8,229.2L104,224L99.4,223.3L95.5,227.4L94.8,219.3L94.8,211.1L95.8,208.7L97.8,206.7L107.5,198L108.7,195.2L108.2,191.5L106,188.5L102.5,186.7L98.5,185.9L95.7,184.2L93.5,181.4L91.8,186.4L93.3,193.7L93.6,198.5L92.3,200.3L89.7,200.3L87.4,199.8L85.7,198L84.4,193.1L80.9,189.9L79.6,185.2L78.1,184.5L75,184.9L72.6,182.8L71.1,177.2L70.8,171.4L69.5,166.5L67.5,161.8L66.5,157.9L64.7,140.4L64.4,138.8L63.5,137.4L61.3,135.4L59.6,133L59.3,131L59.8,122.4L60.5,120.3L62.2,119.4L64.6,121L66.3,123.1L68.6,124.1L70.7,125.4L74.4,130.6L75.9,131.3L80.5,131.2L83.2,130.6L84.5,128.7L85.3,126.5L85.4,123.8L82.7,116.1L81.8,110.6L81.8,105.6L82.6,100.5L86.2,92.1L86.6,86.3L86.3,78.5L86.9,73.9L86.8,71.2L84.7,67.1L84.1,62.6L90.2,39.8L92.1,35.4L93.5,30.8L94.1,24.7L98.7,23L103,20.5L105.2,20.8L107.5,21.4L112.8,20.1ZM-42,453.8L-45.8,456.8L-45.4,453.1L-44.3,449.5L-40.5,442.3L-37.6,440.1L-33,434.4L-30.3,431.6L-24.1,426.2L-18.3,420.2L-16.3,419.8L-14.3,419.7L-12.5,419L-8.7,415.8L0.6,405.1L8.5,397L16.6,386.9L20.5,383.9L21.5,382.8L28.8,373.5L31.2,372.2L33.7,371.1L35.5,369.9L37.1,368.3L39.7,364.2L40.9,359.4L40.1,356.7L38.6,352.8L40.6,347.4L41.9,344.9L47.1,333.9L48.6,331.6L50.7,333L51,335L50,339.7L50,342L51.2,344.4L49.7,348.2L53.4,358.6L56.2,365.1L56.4,367.3L52.5,371.2L50.3,372.4L45.3,373.5L43.1,374.6L39.7,377.8L37.4,381.9L36.8,384.1L35.8,385.8L25.7,388.7L21.1,390.5L18.8,391.9L17.8,394.1L18.5,398.1L10,412.6L7.3,416.3L4.5,419.6L0.9,421.9L-4,423.3L-8,426.1L-10.7,431L-14,435.5L-18.1,438.8L-22.6,441.7L-26.8,443.8L-31.2,445.3L-32.6,447.3L-33.5,449.7L-35.6,450.8L-37.8,451.4ZM172.6,320.3L177.3,322.5L182.1,320.6L186.7,321.1L190.6,323.9L189.3,325.7L189.1,327.7L197.6,323.4L200,323.6L199.8,327.6L199.4,331L198.3,334.2L196.6,338L194,341.4L190.9,343.8L187,345.3L185.2,346.7L184.6,348.8L184.8,351.3L183.9,353.7L179.9,354.7L173.6,359.2L160.2,362.1L156.5,364.1L154.1,366.7L151.6,369.1L150.1,369.7L149.5,368.6L149.3,367.6L151.3,361.5L150.8,358.9L149.9,356.5L150.5,351.7L152.9,347.2L154.1,342.2L154.5,332.5L156.3,319.2L156.2,317.5L154.8,315.7L149.6,314.2L147.5,312.9L148.6,310.2L150.5,308.4L153.2,308.4L155.6,310.1L164.1,313.7L168.5,316.6ZM258.5,331.8L261.5,333.2L264.8,332.7L268.8,329.4L273.3,330.5L276,335.5L277.3,337.3L278.1,340.6L277.8,348.3L276.7,355.3L277.6,356.7L279.7,358L281.5,359.6L283,361.6L284,363.8L284.3,369.2L287,373.7L287.3,375.4L286.7,377.3L282.4,376.9L281.9,378.4L282.1,380.4L280.6,379.2L278.1,374.8L275.7,372.9L276.4,380L277.2,383.5L277.3,387L273.3,384.3L268.4,382.7L267,381.3L267.6,376.8L267.5,374.6L265.4,369.9L267.8,359.7L267.8,357.5L267.3,355.5L265.4,351.3L262.3,347.9L260.3,347.9L255.6,350.3L253.2,349.5L251.8,339.9L249.9,330.6L248.6,328.3L247.5,325.8L248.4,323.7L250.3,324.5L252.9,327L256,328.4L257.5,329.6ZM286.1,281.7L289.1,285.2L289.7,287.7L289.4,290.4L290.7,291.6L293.1,292L296.1,293.4L298.3,296L297,298.3L297.4,301.7L295,306L295.3,313.7L296.7,316.2L296.8,318.6L296.5,321.2L297.1,323.3L300.7,330.3L301.4,332.7L300.2,334.5L300,336.2L302.2,336.4L305.3,339.3L307.1,343.2L306.7,344.2L304.1,341.1L302.2,340.7L294,341.5L289.1,340.3L285.8,340.1L282.7,335L279.8,334.1L277.6,331.8L273.9,326.1L272.7,322.7L275.4,319.3L276.1,316.6L276,314L273.4,314.4L271.3,313.5L268.8,310.3L267.8,308.4L265.8,306.8L262.9,303.2L258.4,301.7L256.7,300.7L253.2,297.6L250.8,293.7L248.3,286.9L246.9,279.9L258.2,281.8L269.6,281.4L282.4,279.8ZM98.4,241.3L100.5,241.7L107.2,240.3L109.8,241L111.6,243.4L113.9,244.2L115.7,245.4L119.1,243.3L122.4,245.7L125.3,250.4L128.9,253.6L132.2,256.1L132.9,257.9L130.9,260.8L130.3,264.5L130.6,268.6L132.9,277L132.2,279.3L129.5,282.5L127.7,286.1L127.9,287.6L127.1,288.8L127,291.3L125.3,290.8L124,291.2L122.7,292.4L120.4,294.8L117,294.1L115.5,293.3L115.1,291.2L114,289.7L112.7,288.8L109.1,285.2L107.5,282.4L107.3,279.4L106.4,276.7L104.6,274.3L102.3,272.3L101.4,270.6L101.1,268.4L100.9,262.9L97.3,256.1L96.1,254.4L93,252.8L90.3,250.6L89.1,248.5L88.1,244.9L87.4,244.4L85.3,244.6L83.3,244.1L83.8,241.5L85.9,239.7L88.7,239.4L96.3,240.5ZM208.8,411.5L207.1,412.6L206.5,409.8L207,406.1L210.1,393L209.4,389.7L214.7,382.4L218,375.7L222.8,368.4L223.5,364.7L227.8,357.6L231.9,347.8L231.7,344.5L232.8,342.9L233.4,340.5L233.4,338.4L236.3,334.7L237.2,337.1L236.3,341.8L236.5,344L236.9,345L236.9,349.4L235.9,356.1L236.9,363.8L235,371.6L232.8,375.1L229.6,377.6L226.1,379.1L222.3,383L220.1,387.5L219.6,391.6L213.8,405.6ZM223.1,291.8L231,296.9L236.5,305.4L237.1,312L236.6,314.5L234.1,311.7L228.4,307.7L224.6,306.8L223.4,306.1L223.8,303.9L221.3,301.9L221,301.1L218.8,300.2L215.3,295.7L212.9,294.9L210.7,295.8L205.5,302.5L200,307.2L199.8,305.4L202.1,299.6L203.6,290.2L204.5,287.3L203.3,283.1L203.1,279.3L207.3,281.1L212.5,282.8L216.5,285.2L217.1,286.8Z"/></svg>
