<svg xmlns="http://www.w3.org/2000/svg" viewBox="0 0 300 300"><path fill="#e8e8ea" d="M275.4,53.4L276.2,55.2L277.3,57.8L278,59.6L278.8,61.6L279.2,62.5L280,64.3L279.7,65.2L279.2,66.6L277.5,67.6L275.7,68.4L275.3,68.8L275.1,69.4L274.3,70.6L272.7,71.6L271.3,71.5L270.5,71.2L265.9,72.9L263.8,72.8L262.2,74L260.9,75L258.5,76.1L256.8,76.1L254.4,75.4L251.4,74.2L250.1,73.5L249,73.5L246.3,73.3L243.7,72.7L240.6,72L239.1,71.6L235.9,71L233.9,71.9L232,72.6L230.4,73.2L229.2,75.6L228.7,76.5L228.1,77.7L227.8,78.5L228,79.6L229.9,80.3L230.6,81.3L230.7,82.2L230.1,83.1L229.5,83.8L229.5,84.4L229.8,85L230.3,85.5L232.9,85.8L234.4,85.8L235,86.1L235.1,86.9L234.5,88L232.4,89L231.1,90L230.7,91.3L230.7,92.3L231.1,93L232.2,93.7L233.2,94.6L233.5,95.4L233.3,96.4L233,97.7L231.9,99.3L231,100.5L230.9,100.9L231.1,101.5L231.8,102.4L233.1,103.7L234.7,104.7L235.6,105L235.9,105.3L236.3,106.5L236.4,107.8L236,108.7L236.7,109.5L238.8,109.5L240.5,109.8L241.2,109.5L241.7,109.7L241.4,112.6L241.7,114.3L242.1,114.8L243.7,115.5L246.9,115.4L248.8,116.2L250.9,117.1L252,118.1L252.5,118.8L252.3,120L251.2,121.5L249.3,122.1L248.2,122.4L242.9,125.1L241.2,126.2L240,127.6L239.5,128.6L239.3,129.6L240.4,133.1L240.6,134.2L239.6,138.1L239.4,139.5L239.7,140.5L240.8,140.8L241.1,141.7L241.2,142.3L239.2,143.7L237.2,144.9L236.5,144.9L234.5,147.2L231.2,151.9L229.5,153.5L229.4,154.2L229.2,155L229.9,156.3L230,157.4L229.2,158.6L228,159.8L225.6,160.9L222.5,162.1L221.2,162.8L220.1,165.8L219.2,168.8L218.7,169.9L217.1,173.3L214.2,178.4L213.5,179.5L209,181.9L204.5,184.5L203.7,185.5L202.7,187.9L201.9,190.6L201.1,191.9L198.2,195L197.2,197.4L196.9,198.9L194.5,199.8L191.6,200.6L187.6,200.9L185.9,201.3L181,203.4L179.7,203.5L178.8,203.1L178,202.4L177.3,201.2L177,199.4L176,198.5L174.7,197.8L173.4,197.8L172,198.6L170.8,199.4L170,200.2L169.2,201L167.7,203.8L165.2,207.8L162.5,210.7L161.5,211.6L160.9,212.2L160,213.2L159.5,214.1L158.8,217.2L158.4,219.8L158.6,220.4L159,221L160.5,221.7L162.6,223L165.5,223.8L167.8,223.9L168.8,224.5L169.3,225.2L169.4,225.8L169.3,228L169.1,230.4L168.1,233L168.2,234.4L168.5,235.9L171.1,239.5L172.1,239.8L174.1,239.9L175,239.9L176,239.5L176.8,239.8L177.3,240.2L177.4,240.9L177.4,244.5L178.2,246.2L179.7,248.4L181,250.9L182.2,254L183.3,256.3L183.7,257.5L183,258.2L182.6,258.8L182.5,259.6L182.6,260.5L182.5,261.1L183,261.9L183.7,262.1L183.7,262.6L182.7,263.3L181.8,263.3L181.1,263.6L179.8,265.1L179.2,265.3L178.4,265.5L177.5,265.3L176.2,264.8L175.8,263.8L176,262.9L175.7,262.3L174.8,262.4L171.5,263.4L168.5,264.6L168,265.4L167.3,266.3L165.8,266.7L163.8,266.7L162.4,266.6L161,265.7L159.8,264.9L158,264.8L154.6,264.9L152.8,264.9L151.7,264.6L150.6,264.9L149.2,264.5L148.7,265L148.1,265L147.6,264.2L147.3,264.1L147,264.3L146.7,264.5L146.5,265L146.4,270.3L144.2,270.3L142.7,270.2L140.9,270.5L139.4,270.9L138.6,271.4L137.5,272.2L137.2,273.2L136.7,274L135.9,272.8L135.4,272.3L134.9,272.7L134.1,272.7L132.6,271.4L131.9,272.7L129.5,273L129.2,272L129.2,271.1L127.8,271.7L126.8,270.7L126.4,269.3L126.1,269L125.6,268.5L124.6,268.1L123.7,266.6L123.7,265L123.4,263.2L121.5,256.3L120.4,255.7L114,254.5L113.7,253.3L114.1,250L114,248L111.9,245.3L111.3,243.4L109.6,241.8L108,241.4L106.2,241.6L105.4,242.2L104.8,243.3L108.5,243L109.3,243.4L110.3,244.1L109.2,244.1L108,243.8L106.5,243.8L100.9,244.6L97.6,245.7L93.2,245.4L87.7,246.5L83.1,246.6L81.2,248.8L80.2,248.4L79.4,247.8L73.1,246.1L72.7,245.4L71.6,244.9L70.5,245.8L69.6,246L66.2,245.2L63.5,245.8L62.6,246.8L62.5,248.3L59.2,248L57.4,247.5L54.9,248L49.2,247.3L47.8,247.5L45.7,248.5L44.8,249.3L43.6,249.6L42.6,248.5L41.8,248L41,248.4L40,249.3L37.1,249.7L34.4,249.6L31.6,248.7L32,248.4L32.4,247L32.8,241.7L33.3,239.8L33.2,238.7L33.3,238.4L34.4,237.4L34.6,237.1L35.1,234.3L35.5,231.3L36.1,230.2L36.5,229.9L40,228.6L40.6,227.7L42.4,227.9L42.6,227.7L42.8,226.6L43.6,225.5L44.8,224.6L45.6,224.2L48.8,223.6L50.6,222.8L51.2,222.7L56.1,222.9L57.1,222.6L57.3,222.3L57.6,219.3L58.5,218.8L58.6,218.5L58.3,216.3L58.5,214.9L59.5,214.1L59.4,213.6L58.8,212.6L57.8,211.9L57.3,211.8L53.3,212.4L51.6,212.2L50.8,211.8L50.7,211.5L50.8,210.9L50.8,209.9L51.4,208.3L51.6,207.4L51.1,201.9L50.4,198.2L50.8,194.6L50.7,193.8L50.6,193.7L50.1,193.7L47.6,194L45.5,191.6L44.3,190.7L40.7,189.5L39.1,189.3L36.8,188.3L34.7,186.1L32.5,183.8L31.7,182.4L30.7,179.9L28,175.1L28,173.9L27.6,173.2L25,170L23.1,167.8L20,164.2L26.1,166.2L30.9,167.7L38.6,170.2L44.5,172.2L46.2,172.5L63.7,170.8L70.2,172.1L72.3,172.8L72.6,172.4L73.4,171.5L74.9,170.7L76.9,170L79,169.6L82,169.6L83.9,169.6L85.4,169.8L88.2,169.7L89.6,169.4L94.3,168L97.4,167.1L102.1,165.7L105.6,164.6L106.5,164.1L107.3,163L107.8,162.1L106.7,160.7L106.6,159.5L107.3,158L107.7,155.6L107.6,152.2L107.3,150.3L108.3,146.6L109.1,144.6L110.7,143.6L111.8,143L112.3,142.6L112.8,142.1L114.5,139.3L116,138L117.5,137.2L119.2,137.3L120.7,138.4L123.4,138.9L126,138.5L128.3,137.7L129.4,137.1L130.6,136.5L130.5,135.8L129.2,135.2L128.3,134.4L128.1,133.4L128.9,132.8L130.7,132.6L135.1,130.2L136.9,128.6L137.4,127.9L138.3,127.8L140,128.5L141.9,128.8L143.2,128L144.4,127.9L145.6,128.7L146.2,129.6L147.4,130.8L148.8,131L150.5,130.4L152.2,129.1L153.9,127.2L155.4,125.3L155,119.4L154.7,115.9L155.5,114.1L156.6,112.9L157.4,111.2L157.3,109.6L158.1,108.3L158.9,104.7L160,103.9L162.1,103.3L165.7,102.9L168.4,101.3L171.1,99.6L171.5,98L170.4,96.4L169.1,93.2L167.8,91.3L164.8,87.8L165.1,85.7L166.8,84.9L171,86.3L172.1,86.6L173.6,86.8L177.4,86.8L180.5,86.2L183.8,84.9L184.4,83.5L184.4,81.9L184.4,80.6L184.5,78.7L183.3,77.5L182.6,76.4L182.4,75.6L183.2,75.1L184,74.2L184.8,72.6L186.6,70.7L187.7,69L188.7,68.2L190.3,67L191.2,65.4L191.7,64.4L192.6,63.4L192.9,62.8L192.7,62.2L192.2,61.5L191.7,60.7L191.7,60L192.1,59.1L192.6,58.4L192.4,57.4L192.1,55.6L191.3,54.7L190.7,52.3L189.8,50L189.3,49.1L188.5,47.9L186.5,46.7L185.9,45.9L186.7,44.3L187.9,43.3L190.4,40.9L191.7,39.2L192.9,38L194.5,38.2L195.3,38.1L196.1,37L197.7,36.1L200.5,34.1L201.5,32.7L203,32.1L204.2,31.9L205.9,31.4L207.5,30.7L209,30.1L211.3,30L214.9,29.7L216.9,29.4L221.6,29.1L226.8,29L227.4,29L229.6,29.7L231.1,30.3L231.7,30.2L234.2,28.8L238,27L239.7,26.3L240.7,26L242.2,26L243.4,26.5L244.6,27.2L245.3,27.7L246.3,27.4L248,27L249.4,27.3L252.7,28.5L253.1,29.1L253.9,32L254.5,32.2L256.3,31.6L257.8,31.9L259.5,32.9L260.6,33.8L261.3,34.7L262.1,36.3L262.4,37.6L262.7,39.1L262.7,43.3L262.1,44L261.6,44.9L261.8,45.7L262.3,46.3L263.3,46.8L264.3,47L264.8,47.7L265.5,50.1L266,50.4L267.2,50.4L269.4,49.9L271.2,49.1L272,48.9L272.2,51.2L273.3,52.1L274.8,53Z"/></svg>
