<svg xmlns="http://www.w3.org/2000/svg" viewBox="0 0 400 300"><path d="M305,0L304.2,2.9L300.3,5.3L285,9.7L291.9,28.4L286.7,31.1L287.3,37.1L282.5,35.5L278.6,31.8L267.2,30.7L254.4,30.4L251.6,31.5L240.6,27.1L236.2,29.3L235,35.5L222.4,31.9L217.3,33.4L215.5,38L211.1,39.9L200.9,47.1L197.6,54.4L194.7,54.5L192.6,49.6L182.8,49.3L181.2,40.9L177.5,40.8L178,30.3L168.8,22.5L155.6,23.4L146.5,24.9L139.2,15.3L132.9,11.2L120.9,3.3L119.5,2.4L99.6,8.9L99.9,47.9L96,48.4L90.5,40.3L85.3,37.3L76.6,39.5L73.2,43L72.8,40.4L74.6,36.1L73.2,32.5L64.2,28.9L60.8,19.3L56.5,16.6L56.2,13.1L63.7,14.1L64,6.1L70.6,4.3L77.3,6L78.1,0L305,0Z" fill="#2c2c34" stroke="#474751" stroke-width="0.8"/><path d="M99.9,47.9L99.6,8.9L119.5,2.4L120.9,3.3L132.9,11.2L139.2,15.3L146.5,24.9L155.6,23.4L168.8,22.5L178,30.3L177.5,40.8L181.2,40.9L182.8,49.3L192.6,49.6L194.7,54.5L197.6,54.4L200.9,47.1L211.1,39.9L215.5,38L217.9,39L211.4,45.7L217,49.6L222.5,47L231.7,52.4L221.8,59.7L215.9,58.7L212.8,59L211.7,56.1L213.3,51.4L203,53.8L200.5,60.3L196.8,65.8L190.4,65.4L188.4,69.8L194.1,72.1L195.7,79.5L191.4,89.3L185.6,87.3L181.3,87.2L181.5,81.3L171.2,77.1L163.2,72.2L158.1,67.6L149.3,60.6L145.5,50.2L142.9,48.3L134.6,48.8L131.6,46.7L130.8,38.4L120.4,32.9L113.9,39L107.3,42.5L108.6,47.7Z" fill="#2c2c34" stroke="#474751" stroke-width="0.8"/><path d="M43.3,0L36,1.8L28.3,13.1L35.3,23.3L34.5,30.4L43,42.7L38.4,46.9L37,49.5L33.6,48.8L28.3,42.5L26.2,42.2L21.3,39.8L18.9,35.5L11.8,33.3L7.1,34.9L5.7,33L0,30.2L0,0Z" fill="#2c2c34" stroke="#474751" stroke-width="0.8"/><path d="M66.1,205.5L67.4,205L67.7,207.4L73.8,206L80.1,206.2L84.8,206.5L90.1,200.8L95.8,195.3L100.7,190L102.2,193L103.2,199.7L99.3,199.7L98.6,205.2L100,206.4L96.5,208.1L96.5,211.5L94.2,215L94,218.4L92.5,220.2L69.3,215.9L66.4,207.4Z" fill="#2c2c34" stroke="#474751" stroke-width="0.8"/><path d="M60.1,201.1L59.6,194.9L61.7,190.5L63.8,189.5L66.1,192.2L66.3,197.2L64.6,202.2L62.5,202.8Z" fill="#2c2c34" stroke="#474751" stroke-width="0.8"/><path d="M38.3,155.8L39.9,159.7L39.2,161.7L41.7,168.4L36.2,168.6L34.3,164.4L27.4,163.5L33.1,155Z" fill="#2c2c34" stroke="#474751" stroke-width="0.8"/><path d="M0,87.3L7.2,88.3L9.9,90.7L13.6,89.1L18.6,100.5L23.6,103.4L24.2,108.9L20.3,112.2L18.5,119.5L23.9,128.3L33.3,133.3L37.3,140.2L36,146.7L38.5,146.7L38.6,151.5L42.8,156.2L38.3,155.8L33.1,155L27.4,163.5L13.1,162.8L0,152.1L0,87.3Z" fill="#2c2c34" stroke="#474751" stroke-width="0.8"/><path d="M94,218.4L94.2,215L96.5,211.5L96.5,208.1L100,206.4L98.6,205.2L99.3,199.7L103.2,199.7L106.7,205.5L111,208.5L116.6,209.7L121.2,211.2L124.7,216L126.8,218.8L129.5,219.8L129.5,221.7L126.7,226.7L125.5,229L122.2,231.6L119.3,237.3L115.8,236.8L114.2,238.8L113,243L114,248.4L113.2,249.4L109.7,249.4L104.8,252.5L104.1,256.4L102.3,258.1L97.5,258.1L94.5,260.1L94.5,263.4L90.8,265.6L86.6,264.9L81.4,267.6L77.9,268L75.3,262.4L69.3,249L92.4,240.8L97.6,224.3ZM102.2,193L100.7,190L102.9,187.1L103.9,187.8L103.2,191.4Z" fill="#2c2c34" stroke="#474751" stroke-width="0.8"/><path d="M400,274.9L399.5,274.8L394.7,273L397.4,263L395.7,255.4L389.7,246L390.6,243L386.1,242L380.6,235.3L380.1,228.6L382.8,229.9L383,223.9L386.8,222L386,218.4L387.7,215.6L388,206.9L394.1,208.8L397.5,201.8L397.9,197.7L400,194.1L400,274.9Z" fill="#2c2c34" stroke="#474751" stroke-width="0.8"/><path d="M400,16.2L398.6,15.8L389.2,9.1L378.8,7.6L369.7,5.7L366.9,0.9L367.1,0L400,0Z" fill="#2c2c34" stroke="#474751" stroke-width="0.8"/><path d="M400,194.1L397.9,197.7L397.5,201.8L394.1,208.8L388,206.9L387.7,215.6L386,218.4L386.8,222L383,223.9L378.9,210.7L376.8,210.7L375.5,216.1L371.3,211.7L373.7,206.9L377.1,206.4L380.7,199.3L376.3,197.8L369.1,197.9L361.8,196.7L361.1,190.8L357.4,190.4L351.3,186.7L348.6,192.5L354.1,197L349.3,200.2L347.6,203.3L352.3,205.6L351,210.6L353.7,217L354.9,223.8L353.8,226.9L348.6,226.8L339,228.5L339.5,234.7L335.4,239.6L324.3,245.1L315.6,254.7L309.8,259.8L302.2,265.1L302.1,268.8L298.3,270.8L291.3,273.6L287.8,274.1L285.4,280.2L287,290.5L287.5,297.1L286.2,300L246.1,300L246.1,300L245.6,299.2L243.7,289.3L242.4,284.3L235.4,273.3L232.2,257.7L229.9,247.3L229.9,237.4L228.4,229.6L217.2,234.6L211.7,233.6L201.7,223.6L205.4,220.5L203.1,217.3L194.1,210.1L199.2,204.5L216.2,204.5L214.6,197.2L210.3,192.9L209.4,186.3L204.4,182.4L212.9,173.3L221.9,174L229.9,164.8L234.7,155.8L242.2,146.8L242.1,140.4L248.7,135.1L242.5,130.6L239.8,124.3L237,116.2L240.8,112.2L252.5,114.5L261.1,113.1L268.6,105.1L276.9,116.2L276.1,123.7L279.2,128.5L278.9,133.1L273.4,131.9L275.5,141.9L283.1,147.7L293.8,153.9L288.9,158L285.9,166.2L293.4,169.6L300.7,173.8L310.7,178.7L321.3,179.8L325.8,184.3L331.7,185.1L341,187.1L347.4,186.9L348.3,183.5L347.3,178L347.9,174.3L352.6,172.4L353.2,179.3L353.4,181L360.4,184.3L365.3,183L371.8,183.5L378.1,183.3L378.6,178L375.5,175.2L381.7,174.1L388.7,167.6L397.6,162L400,162.8L400,194.1Z" fill="#2c2c34" stroke="#474751" stroke-width="0.8"/><path d="M383,223.9L382.8,229.9L380.1,228.6L380.6,235.3L378.4,231L378,226.8L376.5,222.8L373.3,217.9L366.2,217.6L366.9,221L364.5,225.6L361.2,224L360.1,225.5L357.9,224.6L354.9,223.8L353.7,217L351,210.6L352.3,205.6L347.6,203.3L349.3,200.2L354.1,197L348.6,192.5L351.3,186.7L357.4,190.4L361.1,190.8L361.8,196.7L369.1,197.9L376.3,197.8L380.7,199.3L377.1,206.4L373.7,206.9L371.3,211.7L375.5,216.1L376.8,210.7L378.9,210.7Z" fill="#2c2c34" stroke="#474751" stroke-width="0.8"/><path d="M375.5,175.2L378.6,178L378.1,183.3L371.8,183.5L365.3,183L360.4,184.3L353.4,181L353.2,179.3L358.3,172.8L362.5,170.6L368,172.6L372.1,172.8Z" fill="#2c2c34" stroke="#474751" stroke-width="0.8"/><path d="M347.9,174.3L347.3,178L348.3,183.5L347.4,186.9L341,187.1L331.7,185.1L325.8,184.3L321.3,179.8L310.7,178.7L300.7,173.8L293.4,169.6L285.9,166.2L288.9,158L293.8,153.9L297,151.8L303.2,154.5L311,160.3L315.3,161.6L317.9,165.8L323.9,167.6L330.2,171.4L338.9,173.4Z" fill="#2c2c34" stroke="#474751" stroke-width="0.8"/><path d="M181.3,87.2L185.6,87.3L191.4,89.3L193.8,90.5L199.3,87.4L201.9,89.3L204.4,84.8L209,85L210.2,83.6L211,79.7L214.4,76.2L218.5,78.5L217.7,81.5L220,81.9L219.3,90.1L222.4,93.3L225,91.2L228.5,90.3L233.3,85.9L238.6,86.7L246.5,86.7L247.9,89.4L243.4,90.5L239.5,92.3L230.7,93.4L222.4,95.4L217.9,99.6L219.7,103.7L220.6,108.4L216.7,112.3L217,115.9L214.9,119.3L207.6,119L210.6,125.1L205.7,127.4L202.4,133L202.9,138.5L199.9,141L197,140.2L191.1,141.3L190.3,143.9L184.5,143.9L180.2,148.9L180,156.6L169.9,160.3L164.5,159.5L163,161.4L158.4,160.3L150.7,161.6L137.8,157.1L144.7,149L144.1,143.2L138.3,141.7L137.7,135.9L135.1,128.6L138.4,123.5L135.1,122.2L137.2,115.4L140.3,103.7L148.2,107.3L154,106L155.6,101.7L161.7,100.3L166.1,97.3L167.6,89.7L174.1,87.8L175.3,84.3L179,86.9Z" fill="#2c2c34" stroke="#474751" stroke-width="0.8"/><path d="M191.4,89.3L195.7,79.5L194.1,72.1L188.4,69.8L190.4,65.4L196.8,65.8L200.5,60.3L203,53.8L213.3,51.4L211.7,56.1L212.8,59L215.9,58.7L213.1,61.8L204.7,60.1L204,65.9L212.4,65.1L221.9,68.4L236.5,66.9L238.4,76L241,75.1L245.6,77.3L245.4,81.1L246.5,86.7L238.6,86.7L233.3,85.9L228.5,90.3L225,91.2L222.4,93.3L219.3,90.1L220,81.9L217.7,81.5L218.5,78.5L214.4,76.2L211,79.7L210.2,83.6L209,85L204.4,84.8L201.9,89.3L199.3,87.4L193.8,90.5Z" fill="#2c2c34" stroke="#474751" stroke-width="0.8"/><path d="M215.5,38L217.3,33.4L222.4,31.9L235,35.5L236.2,29.3L240.6,27.1L251.6,31.5L254.4,30.4L267.2,30.7L278.6,31.8L282.5,35.5L287.3,37.1L286.2,39.4L274,45.1L271.3,49.1L261.4,50.3L258.5,56.9L250.3,55.5L245,57.5L237.6,62.2L238.7,64.6L236.5,66.9L221.9,68.4L212.4,65.1L204,65.9L204.7,60.1L213.1,61.8L215.9,58.7L221.8,59.7L231.7,52.4L222.5,47L217,49.6L211.4,45.7L217.9,39Z" fill="#2c2c34" stroke="#474751" stroke-width="0.8"/><path d="M73.2,43L76.6,39.5L85.3,37.3L90.5,40.3L96,48.4L99.9,47.9L108.6,47.7L107.3,42.5L113.9,39L120.4,32.9L130.8,38.4L131.6,46.7L134.6,48.8L142.9,48.3L145.5,50.2L149.3,60.6L158.1,67.6L163.2,72.2L171.2,77.1L181.5,81.3L181.3,87.2L179,86.9L175.3,84.3L174.1,87.8L167.6,89.7L166.1,97.3L161.7,100.3L155.6,101.7L154,106L148.2,107.3L140.3,103.7L139.7,95.6L133.9,95.3L125.1,86.7L119,85.7L110.4,80.7L104.9,79.8L101.5,81.6L96.4,81.4L90.9,86.9L84.1,88.8L82.7,81.9L83.8,71.6L77.8,68.3L79.8,61.4L74.7,60.8L76.4,52.3L83.6,54.8L90.4,51.5L84.8,45.4L82.6,39.4L76.4,42.1L75.6,49.6Z" fill="#2c2c34" stroke="#474751" stroke-width="0.8"/><path d="M42.8,156.2L38.6,151.5L38.5,146.7L36,146.7L37.3,140.2L33.3,133.3L23.9,128.3L18.5,119.5L20.3,112.2L24.2,108.9L23.6,103.4L18.6,100.5L13.6,89.1L9.3,81.3L10.9,78.3L8.4,66.9L13.7,64L14.9,67.8L18.9,72.4L24.1,73.7L26.9,73.4L36,66.1L38.9,65.4L41.2,68.3L38.5,73.2L43.3,78.4L45.3,77.9L47.7,85.1L55,87.1L60.4,92L71.3,93.6L83.4,91.1L84.1,88.8L90.9,86.9L96.4,81.4L101.5,81.6L104.9,79.8L110.4,80.7L119,85.7L125.1,86.7L133.9,95.3L139.7,95.6L140.3,103.7L137.2,115.4L135.1,122.2L138.4,123.5L135.1,128.6L137.7,135.9L138.3,141.7L144.1,143.2L144.7,149L137.8,157.1L141.6,161.7L144.7,167.1L152,170.9L152.2,178.6L155.9,180L156.6,184L145.5,188.4L142.6,198.4L128,195.8L119.6,193.8L110.9,192.7L107.7,182.2L104,180.6L98,182.2L90.2,186.4L80.8,183.5L73,176.8L65.6,174.4L60.5,166.1L54.8,154.2L50.6,155.7L45.7,152.7Z" fill="#2c2c34" stroke="#474751" stroke-width="0.8"/><path d="M26.9,73.4L24.1,73.7L21,68L21,66.4L17.6,66.5L15.3,63.8L13.7,64L10.7,61.1L4.9,58.6L5.7,53.7L4.4,50.1L15.1,48.5L16.7,51.2L19.6,52.9L18.1,55.5L22.2,59L20,62.2L23.3,64.9L26.7,66.5Z" fill="#2c2c34" stroke="#474751" stroke-width="0.8"/><path d="M0,47.1L4.4,50.1L5.7,53.7L4.9,58.6L10.7,61.1L13.7,64L8.4,66.9L10.9,78.3L9.3,81.3L13.6,89.1L13.6,89.1L9.9,90.7L7.2,88.3L0,87.3L0,47.1Z" fill="#2c2c34" stroke="#474751" stroke-width="0.8"/><path d="M367.1,0L366.9,0.9L369.7,5.7L378.8,7.6L389.2,9.1L398.6,15.8L400,16.2L400,162.8L400,162.8L397.6,162L388.7,167.6L381.7,174.1L375.5,175.2L372.1,172.8L368,172.6L362.5,170.6L358.3,172.8L353.2,179.3L352.6,172.4L347.9,174.3L338.9,173.4L330.2,171.4L323.9,167.6L317.9,165.8L315.3,161.6L311,160.3L303.2,154.5L297,151.8L293.8,153.9L283.1,147.7L275.5,141.9L273.4,131.9L278.9,133.1L279.2,128.5L276.1,123.7L276.9,116.2L268.6,105.1L255.9,101.3L253.6,94L247.9,89.4L246.5,86.7L245.4,81.1L245.6,77.3L241,75.1L238.4,76L236.5,66.9L238.7,64.6L237.6,62.2L245,57.5L250.3,55.5L258.5,56.9L261.4,50.3L271.3,49.1L274,45.1L286.2,39.4L287.3,37.1L287.3,37.1L286.7,31.1L291.9,28.4L285,9.7L300.3,5.3L304.2,2.9L305,0L367.1,0Z" fill="#2c2c34" stroke="#474751" stroke-width="0.8"/><path d="M26.2,42.2L28.3,42.5L33.6,48.8L37,49.5L38.4,46.9L43,42.7L47,48.1L50.9,55.4L54.5,55.9L56.9,58.6L50.6,59.4L49.2,67.2L47.9,70.7L45.1,73L45.3,77.9L43.3,78.4L38.5,73.2L41.2,68.3L38.9,65.4L36,66.1L26.9,73.4L26.7,66.5L23.3,64.9L20,62.2L22.2,59L18.1,55.5L19.6,52.9L16.7,51.2L15.1,48.5L17,46.8L22.7,49.7L26.9,50.4L27.9,49.2L24.2,43.6ZM24.1,73.7L18.9,72.4L14.9,67.8L13.7,64L15.3,63.8L17.6,66.5L21,66.4L21,68Z" fill="#2c2c34" stroke="#474751" stroke-width="0.8"/><path d="M0,30.2L5.7,33L7.1,34.9L11.8,33.3L18.9,35.5L21.3,39.8L26.2,42.2L24.2,43.6L27.9,49.2L26.9,50.4L22.7,49.7L17,46.8L15.1,48.5L4.4,50.1L0,47.1L0,30.2Z" fill="#2c2c34" stroke="#474751" stroke-width="0.8"/><path d="M0,299.2L0.5,299.5L0,300L0,299.2Z" fill="#2c2c34" stroke="#474751" stroke-width="0.8"/><path d="M3.6,300L1.6,295.4L1.8,291.1L0.6,288.7L0,286.5L0,269.1L0,269.1L1.6,267.9L0.8,264.5L2.8,260.5L6,262.6L8.1,261.9L17,261.7L18.4,262.5L25.9,263.3L28.8,262.9L30.7,265.6L34.4,264.3L39.9,255.8L47.1,252.1L69.3,249L69.3,249L75.3,262.4L77.9,268L72.3,270.2L70.8,273.8L70.6,276.5L62.9,279.9L50.6,283.6L43.7,289.2L40.3,289.6L38,289.2L33.5,292.5L28.5,294L22.1,294.4L20.1,294.9L18.4,296.9L16.4,297.5L15.2,299.5L11.4,299.4L9.9,300L3.6,300Z" fill="#2c2c34" stroke="#474751" stroke-width="0.8"/><path d="M0,152.1L13.1,162.8L27.4,163.5L34.3,164.4L36.2,168.6L41.7,168.4L44.7,175.9L48.5,177.9L49.8,180.9L55.1,184.6L55.5,188.1L54.8,191L55.7,193.9L58,196.3L59,199.1L60.1,201.1L62.5,202.8L64.6,202.2L66.1,205.5L66.4,207.4L69.3,215.9L92.5,220.2L94,218.4L97.6,224.3L92.4,240.8L69.3,249L47.1,252.1L39.9,255.8L34.4,264.3L30.7,265.6L28.8,262.9L25.9,263.3L18.4,262.5L17,261.7L8.1,261.9L6,262.6L2.8,260.5L0.8,264.5L1.6,267.9L0,269.1L0,152.1Z" fill="#2c2c34" stroke="#474751" stroke-width="0.8"/><path d="M0,300L0.5,299.5L0.9,300L0,300Z" fill="#2c2c34" stroke="#474751" stroke-width="0.8"/><path d="M260.3,103.6L260.7,104.4L261.2,105.7L261.6,106.5L261.9,107.5L262.1,108L262.5,108.8L262.4,109.2L262.1,109.9L261.3,110.4L260.4,110.8L260.3,110.9L260.2,111.2L259.8,111.8L259,112.3L258.3,112.2L257.9,112.1L255.7,112.9L254.7,112.9L253.9,113.4L253.3,113.9L252.2,114.5L251.4,114.5L250.2,114.2L248.7,113.6L248.1,113.2L247.6,113.2L246.3,113.1L245.1,112.8L243.6,112.5L242.8,112.3L241.3,112L240.3,112.4L239.4,112.8L238.7,113.1L238.1,114.2L237.8,114.6L237.5,115.2L237.4,115.6L237.5,116.1L238.4,116.5L238.8,117L238.8,117.4L238.5,117.8L238.2,118.2L238.2,118.5L238.4,118.8L238.6,119L239.8,119.1L240.6,119.1L240.9,119.3L240.9,119.7L240.6,120.2L239.6,120.7L239,121.1L238.8,121.8L238.8,122.2L239,122.6L239.5,122.9L240,123.4L240.1,123.7L240.1,124.2L239.9,124.9L239.4,125.6L238.9,126.2L238.9,126.4L239,126.7L239.3,127.1L240,127.7L240.7,128.2L241.2,128.4L241.3,128.5L241.5,129.1L241.5,129.7L241.3,130.2L241.7,130.5L242.7,130.5L243.5,130.7L243.9,130.5L244.1,130.6L244,132L244.1,132.8L244.3,133.1L245.1,133.4L246.6,133.3L247.5,133.7L248.5,134.2L249,134.7L249.3,135L249.2,135.6L248.6,136.3L247.8,136.6L247.2,136.8L244.7,138L243.9,138.6L243.3,139.2L243,139.7L242.9,140.2L243.5,141.9L243.6,142.4L243.1,144.3L243,144.9L243.1,145.4L243.7,145.6L243.8,146L243.9,146.3L242.9,147L241.9,147.6L241.6,147.6L240.6,148.7L239,150.9L238.2,151.7L238.2,152L238.1,152.4L238.4,153L238.5,153.6L238.1,154.1L237.5,154.7L236.3,155.3L234.9,155.8L234.2,156.1L233.7,157.6L233.3,159L233,159.5L232.3,161.2L230.9,163.6L230.5,164.2L228.4,165.3L226.2,166.6L225.8,167.1L225.4,168.2L224.9,169.5L224.5,170.2L223.2,171.6L222.7,172.8L222.5,173.5L221.4,173.9L220,174.3L218.1,174.5L217.3,174.7L214.9,175.7L214.3,175.7L213.8,175.6L213.5,175.2L213.1,174.6L213,173.7L212.5,173.3L211.9,173L211.2,173L210.6,173.4L210,173.8L209.6,174.1L209.2,174.5L208.5,175.9L207.3,177.8L206,179.2L205.5,179.6L205.2,179.9L204.8,180.4L204.6,180.8L204.2,182.3L204.1,183.6L204.1,183.9L204.3,184.1L205.1,184.5L206.1,185.1L207.4,185.5L208.6,185.5L209,185.8L209.3,186.2L209.3,186.5L209.3,187.5L209.2,188.7L208.7,189.9L208.7,190.6L208.9,191.3L210.2,193L210.6,193.2L211.6,193.2L212,193.2L212.5,193L212.9,193.1L213.1,193.4L213.2,193.7L213.2,195.4L213.6,196.2L214.3,197.3L214.9,198.5L215.5,200L216,201.1L216.2,201.7L215.9,202L215.7,202.3L215.6,202.7L215.7,203.1L215.6,203.4L215.9,203.8L216.2,203.9L216.2,204.1L215.7,204.5L215.3,204.5L215,204.6L214.3,205.3L214,205.5L213.7,205.5L213.2,205.5L212.6,205.2L212.4,204.7L212.5,204.3L212.4,204L211.9,204L210.4,204.5L208.9,205.1L208.6,205.5L208.3,205.9L207.6,206.1L206.6,206.1L205.9,206.1L205.3,205.6L204.7,205.2L203.8,205.2L202.2,205.3L201.3,205.3L200.8,205.1L200.3,205.2L199.6,205.1L199.4,205.3L199.1,205.3L198.9,204.9L198.7,204.9L198.6,204.9L198.4,205.1L198.3,205.3L198.3,207.8L197.2,207.8L196.5,207.8L195.6,207.9L194.9,208.1L194.5,208.4L194,208.7L193.9,209.2L193.6,209.6L193.2,209.1L193,208.8L192.7,209L192.3,209L191.6,208.4L191.3,209L190.1,209.1L190,208.6L190,208.2L189.3,208.5L188.9,208L188.7,207.4L188.5,207.2L188.3,207L187.8,206.8L187.4,206.1L187.3,205.3L187.2,204.4L186.3,201.1L185.8,200.8L182.7,200.2L182.5,199.7L182.8,198.1L182.7,197.1L181.7,195.8L181.4,194.9L180.6,194.1L179.8,193.9L179,194L178.5,194.3L178.3,194.8L180,194.7L180.4,194.9L180.9,195.3L180.4,195.2L179.8,195.1L179.1,195.1L176.4,195.5L174.8,196L172.7,195.9L170,196.4L167.8,196.4L166.9,197.5L166.4,197.3L166,197L163,196.2L162.8,195.9L162.3,195.6L161.8,196.1L161.4,196.1L159.7,195.8L158.4,196L158,196.5L157.9,197.3L156.4,197.1L155.5,196.9L154.3,197.1L151.5,196.8L150.9,196.9L149.9,197.4L149.4,197.8L148.9,197.9L148.4,197.4L148,197.1L147.6,197.3L147.1,197.7L145.7,197.9L144.4,197.9L143.1,197.5L143.2,197.3L143.5,196.6L143.7,194.1L143.9,193.1L143.8,192.6L143.9,192.5L144.4,192L144.5,191.9L144.7,190.5L145,189.1L145.2,188.6L145.4,188.4L147.1,187.8L147.4,187.3L148.3,187.4L148.4,187.3L148.4,186.8L148.8,186.3L149.4,185.8L149.8,185.7L151.3,185.4L152.2,185L152.5,185L154.9,185.1L155.4,184.9L155.4,184.8L155.6,183.3L156,183.1L156.1,182.9L155.9,181.9L156,181.2L156.5,180.8L156.5,180.6L156.1,180.1L155.7,179.8L155.4,179.7L153.5,180L152.7,179.9L152.3,179.7L152.2,179.6L152.3,179.3L152.3,178.8L152.6,178L152.7,177.6L152.5,174.9L152.1,173.2L152.3,171.4L152.3,171.1L152.2,171L152,171L150.8,171.1L149.8,170L149.2,169.6L147.4,169L146.7,168.9L145.6,168.4L144.6,167.3L143.5,166.2L143.1,165.6L142.6,164.4L141.3,162.1L141.3,161.5L141.2,161.1L139.9,159.6L139,158.5L137.5,156.8L140.4,157.8L142.7,158.5L146.4,159.7L149.3,160.7L150.1,160.8L158.5,160L161.6,160.6L162.6,161L162.8,160.8L163.2,160.3L163.9,159.9L164.9,159.6L165.9,159.4L167.3,159.4L168.2,159.4L168.9,159.5L170.3,159.5L171,159.3L173.2,158.7L174.7,158.2L177,157.5L178.6,157L179.1,156.8L179.5,156.3L179.7,155.8L179.2,155.2L179.1,154.6L179.5,153.8L179.6,152.7L179.6,151.1L179.5,150.1L180,148.4L180.3,147.4L181.1,146.9L181.6,146.6L181.9,146.4L182.1,146.2L182.9,144.9L183.7,144.2L184.4,143.8L185.2,143.9L185.9,144.4L187.2,144.6L188.5,144.5L189.6,144.1L190.1,143.8L190.7,143.5L190.6,143.2L190,142.9L189.6,142.5L189.4,142L189.8,141.7L190.7,141.7L192.8,140.5L193.7,139.7L193.9,139.4L194.4,139.3L195.2,139.7L196.1,139.8L196.7,139.4L197.3,139.4L197.9,139.7L198.2,140.2L198.8,140.8L199.4,140.9L200.2,140.6L201.1,139.9L201.9,139L202.6,138.1L202.4,135.3L202.3,133.6L202.7,132.7L203.2,132.2L203.6,131.3L203.5,130.6L203.9,129.9L204.3,128.2L204.8,127.8L205.8,127.5L207.5,127.4L208.8,126.6L210.1,125.8L210.3,125L209.8,124.2L209.2,122.7L208.6,121.8L207.1,120.1L207.3,119.1L208.1,118.7L210.1,119.4L210.6,119.5L211.3,119.6L213.2,119.6L214.7,119.3L216.2,118.7L216.5,118L216.5,117.3L216.5,116.6L216.6,115.7L216,115.1L215.7,114.6L215.6,114.2L216,114L216.4,113.6L216.7,112.8L217.6,111.9L218.1,111L218.6,110.7L219.4,110.1L219.8,109.3L220,108.9L220.5,108.4L220.6,108.1L220.5,107.8L220.3,107.5L220,107.1L220,106.7L220.2,106.3L220.5,106L220.4,105.5L220.2,104.6L219.9,104.2L219.6,103L219.1,101.9L218.9,101.5L218.5,100.9L217.5,100.3L217.3,99.9L217.6,99.2L218.2,98.7L219.4,97.5L220,96.7L220.6,96.2L221.4,96.2L221.8,96.2L222.2,95.7L222.9,95.2L224.3,94.3L224.8,93.6L225.5,93.3L226.1,93.2L226.9,93L227.7,92.6L228.3,92.4L229.5,92.3L231.2,92.2L232.2,92L234.4,91.9L236.9,91.8L237.2,91.8L238.3,92.2L239,92.4L239.3,92.4L240.5,91.7L242.3,90.9L243.1,90.5L243.6,90.4L244.3,90.4L244.9,90.6L245.5,90.9L245.8,91.2L246.3,91L247.1,90.9L247.8,91L249.4,91.6L249.6,91.9L250,93.3L250.2,93.4L251.1,93.1L251.8,93.2L252.6,93.7L253.2,94.1L253.5,94.6L253.9,95.4L254,96L254.2,96.7L254.2,98.7L253.9,99.1L253.7,99.5L253.7,99.9L254,100.2L254.5,100.4L254.9,100.5L255.2,100.8L255.5,102L255.8,102.1L256.3,102.1L257.4,101.9L258.3,101.5L258.7,101.4L258.8,102.5L259.3,102.9L260,103.4Z" fill="#b8e653" stroke="#0c0e06" stroke-width="1"/></svg>
