<svg xmlns="http://www.w3.org/2000/svg" viewBox="0 0 300 300"><path fill="#e8e8ea" d="M267,171.3L268.4,174.2L268.9,176.4L268.4,178.2L268.6,180L269.8,181.9L273.7,187.6L275.7,193.2L276.9,195.3L279.8,198.1L280,199.3L278.9,200.3L277.9,200.4L277.2,200.7L276.7,201.7L277.5,202.8L278.5,204.3L279.7,208.6L279.6,212.2L278.7,213.1L277.4,215.2L276.6,217.1L269.8,218.5L268.2,220.5L264.4,224.5L261.9,226.7L258.1,230.9L252.1,237.9L250,240.9L248.4,243.3L243.6,249.7L242.1,252.4L242.4,254.7L244,259.9L244.3,262.2L244,264.4L243.5,266.3L243.6,267.2L245,268.5L247.3,270.8L247.3,271.4L247.1,272.4L246.2,273.2L243.4,272.4L240.3,270.9L239.2,271.1L237.5,270.8L230.5,267.8L225.7,265.6L225.2,264.2L224.4,262L222.3,260.3L217.7,258.8L215.7,257.5L208.2,256.9L204.9,256.8L202.7,257.3L201.2,257.3L199.1,260.4L197.7,261.3L195.6,261.4L193.9,260.8L192,259.2L189.1,258.3L186.9,258.8L185.4,258.4L184,258.3L183.5,258.6L182.5,258.6L180.9,259.4L179.2,260.5L177.3,261.3L175.9,263.2L174.5,266.7L170.9,265.1L169.7,265.8L167.9,266.3L166.7,265.8L166.9,264.6L167.5,263.2L167.5,261.3L167.1,259.1L166,258.4L164.3,258.1L163.4,257.7L163.3,257L162.4,256.1L160.9,253.8L159.4,251L158.5,250.1L157.1,251.5L154.8,253L153.5,253.5L150.9,258L146.1,258.1L145.8,256.1L145.4,254.1L142.6,253.5L142.5,252.4L142,249.4L136.4,243.6L135.7,241.2L136,240.3L135.6,238.7L134.4,237.8L130,236.7L128.8,237.3L127.8,236.7L126.2,235.3L123.5,234.1L123.2,233.5L122.2,232.5L121.6,232.4L121.3,233L120.5,233.9L117.7,235L116.6,234.5L115.5,233.6L114.3,231.5L112.6,229.8L111.2,229.1L110.4,228.2L110.2,227.4L113.4,226L114,224.5L113.6,221.7L113.2,221.4L112,222.3L109.3,223.1L106.9,223.5L105.7,223.5L98.8,218.5L94.3,216.9L91.7,216.5L91.4,217L92.6,219.8L94.7,223.3L94.6,224.2L92.2,225.6L90.7,226.2L89.1,227.4L87.7,229.1L86.5,229.8L85.4,229.7L84.4,228.9L81.5,223.7L77.9,219.8L77.5,218.9L76.4,218.7L74.8,217.8L74.2,216.5L75.1,215.3L76.1,214.1L78.1,213.4L78.6,212.8L79,211.8L79.7,210.4L79.5,210L78.2,208.5L76.1,207.1L70.5,208.1L69,208.9L68.1,207.9L67.5,206.4L66,206.2L64.1,204.9L61.8,203.6L59.5,203.2L54.8,201.4L53,201.3L52,200.6L50.9,199.2L49.9,197.7L49.5,194.5L46,193.2L42.5,192.2L42.3,192.7L42.4,195.8L42.2,197.6L40,198.6L37.7,198.7L37.9,198.1L40.5,192.5L41.8,188.9L43.2,182.4L41.5,177.2L41,174.8L40.3,173.6L35.6,171.1L35.2,170.2L36,166.7L35.6,165.2L34.5,163.7L32.9,160.7L32.3,158.1L34.3,155L34.7,152.8L35.6,149.7L36.1,148L36.2,147.5L35,146.3L34.7,144.6L35,142.2L34.4,140.3L32.7,139.2L31.6,137.7L31.1,135.7L31.5,132.6L32.8,128.5L30,123.5L23.3,117.6L20,113.5L20.3,111.1L21.7,109L24.3,107L26.3,103.6L27.3,99.5L27.4,98.8L27.5,95.8L24.4,83.9L23.9,80.9L23.6,77.3L23.4,76.3L29.4,78.8L31.8,80.3L31.5,78.7L31.1,77.3L31.4,75.2L31.2,72.2L25.8,70.6L22.3,70.1L21.8,67.9L22.2,66.5L23.2,67.4L26.7,67.7L35.3,63.5L50.2,58.1L66.2,53L69.9,52.5L73.7,51.4L75,49.6L76.4,48.2L78.5,44.9L83.3,39.6L91.9,37.7L95.1,35.2L101.6,31.7L116.8,27.8L123.1,26.9L129.3,26.8L134.8,29.9L140.7,33.7L141.8,36.1L138.6,34.6L134,31.2L132.3,31L136.3,41.5L138.3,45.1L142.7,47.9L146.4,48.8L157.6,47.1L161.6,45L162.7,43.9L163.7,44.4L171.1,45L178.5,45.6L190.4,46.2L202.8,46.9L215.6,47.6L229.5,48.3L244.3,48.8L245.1,48.5L246.6,46.7L248.5,46.9L250.6,48L251.7,48.9L252,49.8L252.3,50.8L253.5,51L255.7,51.8L258.6,53.7L260.9,55.4L263,58L263.8,60.9L263.8,64.1L263.7,66.2L263.9,67L266.9,82L271.8,96.4L273.6,103.3L274.4,107L274.9,112.3L275.1,116L275.1,118.1L274.7,120.9L273.2,122.7L263.8,127.5L261.9,129L259.2,132.8L256.5,136.6L256,138L255.8,138.8L256.4,140.1L259.7,142.1L263.2,143.8L264.3,145.1L266.8,146.6L267.7,148L268.3,149.3L268.2,152.1L267.1,156.1L267.5,159L266.4,161L265.5,163.2L265.3,167Z"/></svg>
