<svg xmlns="http://www.w3.org/2000/svg" viewBox="0 0 400 300"><path d="M245.3,101.8L222.3,102.1L206.8,99.7L209.7,90.2L227,83.1L240.1,86.9L245.6,90.4L244.3,96.3ZM400,167.8L399.3,166.5L389.3,165.5L388.3,159.3L391.4,155.2L383.4,143.6L370.4,145.6L366.6,144.6L363.5,149.2L358.8,148.4L355.7,135.2L352.7,128.3L355.2,126.4L365.3,127.1L370.1,122.5L366.5,116.9L358.1,113.2L358.8,109.4L353.7,105.5L345.9,91.3L348.6,85.5L347.4,75.1L335.1,69.8L328.5,72.5L326.7,67L313.5,61.3L309.5,47.9L308.4,36.8L302.4,31.4L307.8,24L304,1.8L305.2,0L400,0ZM400,285.4L385,294.4L378.1,290.8L380.8,282.5L367.1,277.3L369.4,273.9L381.3,267.9L379.4,265.8L379.4,265.8L382.7,261.3L391.7,265.2L395.7,265.9L397.3,269.5L399.2,270L399.3,271.5L400,272.1L400,285.4Z" fill="#2c2c34" stroke="#474751" stroke-width="0.8"/><path d="M75.8,0L65.5,11.7L48.8,17.2L31.4,5.1L30.6,0L75.8,0Z" fill="#2c2c34" stroke="#474751" stroke-width="0.8"/><path d="M0,175.5L5.4,182.9L14.2,192.1L20.6,190.6L31.6,199.4L34.4,201.1L38,200.7L38,200.7L43.9,205.7L61.9,209.3L55.6,222.2L54,235.6L50.6,238.8L44.9,237.1L45.3,241.8L36.1,252.1L35.9,260.3L41.9,257.5L46.2,265.4L45.7,270.5L49.4,277.2L45,282.7L48.3,296.3L55.1,298.5L54.8,300L0,300Z" fill="#2c2c34" stroke="#474751" stroke-width="0.8"/><path d="M175.7,0L171.3,1.9L166.6,41.5L159.5,62.8L144.3,60.6L137.1,78.3L122.7,79.3L118.6,58.2L108.2,32.2L99.1,0L175.7,0Z" fill="#2c2c34" stroke="#474751" stroke-width="0.8"/><path d="M313.5,61.3L326.7,67L328.5,72.5L335.1,69.8L347.4,75.1L348.6,85.5L345.9,91.3L353.7,105.5L358.8,109.4L358.1,113.2L366.5,116.9L370.1,122.5L365.3,127.1L355.2,126.4L352.7,128.3L355.7,135.2L358.8,148.4L348,149.6L344.1,154.1L343.3,164.2L338.3,162.3L327.1,163.2L323.8,158.5L319.1,162.1L314.3,159.1L304.5,158.7L290.5,153.9L277.8,152.3L268.1,152.8L261.3,158.2L255.3,159L255,150L251.2,140.5L258.7,136.3L258.8,128L255.3,120L254.7,110.7L266.8,110.8L280.5,102.8L283.3,90.6L293.6,83.6L292.5,73.7L300.1,69.9Z" fill="#2c2c34" stroke="#474751" stroke-width="0.8"/><path d="M400,259.4L398.6,260.3L399.2,270L397.3,269.5L395.7,265.9L391.7,265.2L382.7,261.3L379.4,265.8L377.7,263.8L358.2,259.2L357.4,252.4L345.8,254.7L341.1,264.7L331.4,277.9L325.7,274.9L319.8,277.7L314.2,274.5L317.4,272.5L319.6,266.3L323,260.6L322.1,257.3L324.8,255.9L326,258.4L333.4,258.9L336.7,257.6L334.4,255.7L335.2,253L330.8,248.4L329,240.7L324.5,237.6L325.4,231.3L319.7,226.3L314.6,225.6L305.4,219.7L297,221.6L294,224.4L288.7,224.4L285.6,228.8L276.3,230.5L272.1,233.4L266.2,228.9L258.2,228.8L250.5,226.7L245,230.7L244.2,225.7L237.2,220.6L239.7,212.9L243.1,207.9L245.9,209.1L242.7,200.4L254,184.3L260.2,182L261.6,176.4L255.3,159L261.3,158.2L268.1,152.8L277.8,152.3L290.5,153.9L304.5,158.7L314.3,159.1L319.1,162.1L323.8,158.5L327.1,163.2L338.3,162.3L343.3,164.2L344.1,154.1L348,149.6L358.8,148.4L358.8,148.4L363.5,149.2L366.6,144.6L370.4,145.6L383.4,143.6L391.4,155.2L388.3,159.3L389.3,165.5L399.3,166.5L400,167.8L400,259.4Z" fill="#2c2c34" stroke="#474751" stroke-width="0.8"/><path d="M173.2,226.2L172.3,233.8L165.2,233.9L167.6,237.9L163.5,249.8L161.1,252.9L150.1,253.3L143.8,257.4L133.5,256L115.5,251.3L112.7,245L100.4,248.1L98.9,251.6L91.3,249L84.9,248.5L79.3,245.2L81.2,240.6L80.7,237.4L84.5,236.3L90.8,241.5L92.6,236.6L103.6,237.4L112.6,234L118.6,234.6L122.5,238.4L123.7,235.3L121.9,223.1L126.4,220.7L130.8,212L140.1,218.1L147.2,210.3L151.6,208.9L161.3,214.7L167.2,213.7L173,217.3L172,219.7Z" fill="#2c2c34" stroke="#474751" stroke-width="0.8"/><path d="M237.2,220.6L244.2,225.7L245,230.7L237.4,234.6L231.5,247.2L223.9,259.6L213.8,263L206,262.2L196.4,266.9L191.7,269.6L181.4,266.1L172,258.4L168,256.1L165.6,250L163.5,249.8L167.6,237.9L165.2,233.9L172.3,233.8L173.2,226.2L179.6,231L184.2,233L194.7,230.7L195.7,227L200.7,226.4L206.8,223.5L208.2,224.7L214.1,222.3L217,217.9L221.1,216.7L234.5,222.5Z" fill="#2c2c34" stroke="#474751" stroke-width="0.8"/><path d="M294,224.4L297,221.6L305.4,219.7L314.6,225.6L319.7,226.3L325.4,231.3L324.5,237.6L329,240.7L330.8,248.4L335.2,253L334.4,255.7L336.7,257.6L333.4,258.9L326,258.4L324.8,255.9L322.1,257.3L323,260.6L319.6,266.3L317.4,272.5L314.2,274.5L312,266.3L313.3,258.5L312.9,250.5L305.7,239.6L301.7,231.7L297.8,226.2Z" fill="#2c2c34" stroke="#474751" stroke-width="0.8"/><path d="M305.2,300L301.8,297.6L293.3,300L246.1,300L246.1,300L244.4,296.6L242.1,293.5L245,290.6L241.9,288.4L238,292.4L230.7,287.2L229.7,279.9L222,275.7L220.6,270L213.8,263L223.9,259.6L231.5,247.2L237.4,234.6L245,230.7L250.5,226.7L258.2,228.8L266.2,228.9L272.1,233.4L276.3,230.5L285.6,228.8L288.7,224.4L294,224.4L297.8,226.2L301.7,231.7L305.7,239.6L312.9,250.5L313.3,258.5L312,266.3L314.2,274.5L314.2,274.5L319.8,277.7L325.7,274.9L331.4,277.9L331.7,282.5L325.6,286.3L321.8,284.7L319.3,300L305.2,300Z" fill="#2c2c34" stroke="#474751" stroke-width="0.8"/><path d="M292.5,73.7L293.6,83.6L283.3,90.6L280.5,102.8L266.8,110.8L254.7,110.7L251.7,104.1L245.3,101.8L244.3,96.3L245.6,90.4L240.1,86.9L227,83.1L224.3,64.4L238.6,57.5L259.7,59L272,56.7L273.7,61.4L280.4,62.9Z" fill="#2c2c34" stroke="#474751" stroke-width="0.8"/><path d="M302.4,31.4L308.4,36.8L309.5,47.9L313.5,61.3L300.1,69.9L292.5,73.7L280.4,62.9L273.7,61.4L272,56.7L259.7,59L238.6,57.5L224.3,64.4L224.7,47.4L230.9,32.9L242.7,24.9L252.7,42.3L262.7,41.8L265.1,24L275.8,19.8L281.3,22.7L292,31.4Z" fill="#2c2c34" stroke="#474751" stroke-width="0.8"/><path d="M305.2,0L304,1.8L307.8,24L302.4,31.4L292,31.4L281.3,22.7L275.8,19.8L265.1,24L266.6,10L262,13L254,4.5L253.7,0L305.2,0Z" fill="#2c2c34" stroke="#474751" stroke-width="0.8"/><path d="M137.4,114L140.3,124.7L136.8,130.3L141.4,137.7L144.5,148.6L143.5,155.6L148.6,168.5L143,170.6L139.8,168.3L136.6,172.1L127.6,175.9L122.9,180.8L113.8,185.1L116,190.9L117.4,199.1L123.7,203.7L130.8,212L126.4,220.7L121.9,223.1L123.7,235.3L122.5,238.4L118.6,234.6L112.6,234L103.6,237.4L92.6,236.6L90.8,241.5L84.5,236.3L80.7,237.4L67.3,231.7L64.7,235.7L54,235.6L55.6,222.2L61.9,209.3L43.9,205.7L38,200.7L38.7,192.2L36.2,187.8L37.6,174.5L35.5,153.5L43,153.5L46.2,145.8L49.3,126.9L47,119.8L49.4,115.3L59.9,114.2L62.3,118.8L70.7,108.4L67.9,100.3L67.3,88.1L76.8,90.9L84.8,87.6L85,96L97.7,101L97.5,108.6L110.3,104.6L117.3,98.7L131.5,107.2Z" fill="#2c2c34" stroke="#474751" stroke-width="0.8"/><path d="M293.3,300L301.8,297.6L305.2,300L293.3,300ZM241.7,300L244.4,296.6L244.4,296.6L246.1,300L241.7,300Z" fill="#2c2c34" stroke="#474751" stroke-width="0.8"/><path d="M153.5,300L150.6,296.5L153.2,295.1L147.4,287.8L147.2,281.8L139.1,279L135.3,286.6L131.6,280.7L131.9,274.5L132.3,274.2L141.1,274.8L143.4,271.8L147.6,274.8L152.5,275.1L152.5,270.1L156.9,268.3L158.1,261L168,256.1L168,256.1L172,258.4L181.4,266.1L191.7,269.6L196.4,266.9L199.4,273.9L203.5,279L198.6,285.6L192.9,281.7L184.3,281.9L173.5,279L167.6,279.4L164.9,283.1L160.5,279L157.8,286.3L163.9,294.6L166.7,300L166.7,300L153.5,300Z" fill="#2c2c34" stroke="#474751" stroke-width="0.8"/><path d="M80.7,237.4L81.2,240.6L79.3,245.2L84.9,248.5L91.3,249L90.3,256.5L84.8,259.6L75.5,257.3L72.8,264.6L66.9,265.2L64.7,262.3L57.7,268.4L51.6,269.3L46.2,265.4L41.9,257.5L35.9,260.3L36.1,252.1L45.3,241.8L44.9,237.1L50.6,238.8L54,235.6L64.7,235.7L67.3,231.7Z" fill="#2c2c34" stroke="#474751" stroke-width="0.8"/><path d="M36.2,187.8L38.7,192.2L38,200.7L34.4,201.1L31.6,199.4L32.9,188.5Z" fill="#2c2c34" stroke="#474751" stroke-width="0.8"/><path d="M0,164.5L2,163.7L11.2,165.3L22.8,161.1L30.7,169.8L37.6,174.5L37.6,174.5L36.2,187.8L32.9,188.5L31.6,199.4L20.6,190.6L14.2,192.1L5.4,182.9L0,175.5L0,164.5Z" fill="#2c2c34" stroke="#474751" stroke-width="0.8"/><path d="M47,119.8L49.3,126.9L46.2,145.8L43,153.5L35.5,153.5L37.6,174.5L30.7,169.8L22.8,161.1L11.2,165.3L2,163.7L8.4,158.2L19.4,128L36.6,119.2Z" fill="#2c2c34" stroke="#474751" stroke-width="0.8"/><path d="M81.9,300L71.9,294.3L66.1,296.7L63.1,300L54.8,300L54.8,300L55.1,298.5L48.3,296.3L45,282.7L49.4,277.2L45.7,270.5L46.2,265.4L51.6,269.3L57.7,268.4L64.7,262.3L66.9,265.2L72.8,264.6L75.5,257.3L84.8,259.6L90.3,256.5L91.3,249L91.3,249L98.9,251.6L100.4,248.1L112.7,245L115.5,251.3L133.5,256L132.1,265L135.1,272.6L125.1,270L114.9,276.4L115.6,285.2L114.1,290.2L118.2,299.1L119.4,300L81.9,300Z" fill="#2c2c34" stroke="#474751" stroke-width="0.8"/><path d="M84.8,87.6L76.8,90.9L67.3,88.1L62.2,75.8L61.9,52.9L63.9,46.8L67.5,39.9L78.5,38.5L83,32.1L93,25.4L92.6,37.4L88.9,44.9L90.4,51.3L97.2,54.8L94.1,63.3L90.4,60.8L81.4,76.9ZM115.5,62.6L119.5,73.8L112,91.6L98.8,79.3L97.1,70Z" fill="#2c2c34" stroke="#474751" stroke-width="0.8"/><path d="M133.5,256L143.8,257.4L150.1,253.3L161.1,252.9L163.5,249.8L165.6,250L168,256.1L158.1,261L156.9,268.3L152.5,270.1L152.5,275.1L147.6,274.8L143.4,271.8L141.1,274.8L132.3,274.2L135.1,272.6L132.1,265Z" fill="#2c2c34" stroke="#474751" stroke-width="0.8"/><path d="M243.1,207.9L239.7,212.9L237.2,220.6L234.5,222.5L221.1,216.7L217,217.9L214.1,222.3L208.2,224.7L206.8,223.5L200.7,226.4L195.7,227L194.7,230.7L184.2,233L179.6,231L173.2,226.2L172,219.7L173,217.3L174.8,213.1L180.3,213.4L184.6,211.4L184.9,209.7L187.3,208.8L188.2,204.4L191,203.6L193,200.1L196.7,200.1L197.4,201.3L202.5,198.6L208.9,205.5L216.3,201.3L222.2,203.3L231.2,200.6Z" fill="#2c2c34" stroke="#474751" stroke-width="0.8"/><path d="M148.6,168.5L154.6,174.9L163.9,176.6L163.2,182L170,186.1L171.8,181L180.4,183.2L181.6,189.3L191,190.5L196.7,200.1L193,200.1L191,203.6L188.2,204.4L187.3,208.8L184.9,209.7L184.6,211.4L180.3,213.4L174.8,213.1L173,217.3L167.2,213.7L161.3,214.7L151.6,208.9L147.2,210.3L140.1,218.1L130.8,212L123.7,203.7L117.4,199.1L116,190.9L113.8,185.1L122.9,180.8L127.6,175.9L136.6,172.1L139.8,168.3L143,170.6Z" fill="#2c2c34" stroke="#474751" stroke-width="0.8"/><path d="M166.7,300L166.7,300L163.9,294.6L157.8,286.3L160.5,279L164.9,283.1L167.6,279.4L173.5,279L184.3,281.9L192.9,281.7L198.6,285.6L203.1,285.6L200,293.3L206,300L166.7,300Z" fill="#2c2c34" stroke="#474751" stroke-width="0.8"/><path d="M206,300L200,293.3L203.1,285.6L198.6,285.6L203.5,279L199.4,273.9L196.4,266.9L196.4,266.9L206,262.2L213.8,263L220.6,270L222,275.7L229.7,279.9L230.7,287.2L238,292.4L241.9,288.4L245,290.6L242.1,293.5L244.4,296.6L241.7,300L206,300Z" fill="#2c2c34" stroke="#474751" stroke-width="0.8"/><path d="M256.2,160.2L256.9,161.6L257.2,162.7L256.9,163.5L257,164.4L257.6,165.3L259.5,168.1L260.4,170.8L261,171.8L262.4,173.1L262.5,173.7L262,174.2L261.5,174.2L261.1,174.4L260.9,174.9L261.3,175.4L261.8,176.1L262.4,178.2L262.3,179.9L261.9,180.4L261.2,181.3L260.9,182.3L257.6,182.9L256.8,183.9L255,185.8L253.8,186.9L252,188.9L249.1,192.3L248.1,193.7L247.3,194.8L245,197.9L244.3,199.2L244.4,200.3L245.2,202.8L245.3,204L245.2,205L245,205.9L245,206.3L245.7,207L246.8,208.1L246.8,208.4L246.7,208.8L246.3,209.2L244.9,208.8L243.4,208.1L242.9,208.2L242.1,208.1L238.7,206.7L236.4,205.6L236.2,204.9L235.8,203.9L234.8,203L232.5,202.3L231.6,201.7L228,201.4L226.4,201.4L225.3,201.6L224.6,201.6L223.6,203.1L222.9,203.5L221.9,203.6L221.1,203.3L220.2,202.5L218.8,202.1L217.8,202.3L217,202.1L216.4,202.1L216.1,202.2L215.6,202.2L214.9,202.6L214.1,203.1L213.1,203.5L212.4,204.4L211.8,206.1L210,205.4L209.5,205.7L208.6,205.9L208,205.7L208.1,205.1L208.4,204.4L208.4,203.5L208.2,202.5L207.7,202.1L206.9,202L206.4,201.8L206.4,201.5L206,201L205.3,199.9L204.5,198.5L204.1,198.1L203.4,198.8L202.3,199.5L201.7,199.8L200.4,201.9L198.1,202L198,201L197.8,200L196.5,199.8L196.4,199.2L196.1,197.8L193.5,195L193.1,193.8L193.3,193.4L193.1,192.7L192.5,192.2L190.4,191.7L189.8,192L189.3,191.7L188.6,191L187.3,190.5L187.1,190.2L186.6,189.7L186.4,189.6L186.2,189.9L185.8,190.3L184.5,190.9L183.9,190.6L183.4,190.2L182.8,189.2L182,188.4L181.3,188L180.9,187.6L180.9,187.2L182.4,186.5L182.7,185.8L182.5,184.5L182.3,184.3L181.7,184.8L180.4,185.1L179.3,185.3L178.7,185.3L175.4,182.9L173.2,182.2L172,182L171.8,182.2L172.4,183.6L173.4,185.2L173.4,185.7L172.2,186.4L171.5,186.7L170.7,187.2L170,188L169.5,188.4L168.9,188.3L168.4,187.9L167,185.4L165.3,183.6L165.2,183.1L164.6,183L163.8,182.6L163.6,182L164,181.4L164.5,180.8L165.4,180.5L165.7,180.2L165.9,179.7L166.2,179.1L166.1,178.8L165.5,178.1L164.5,177.4L161.8,178L161,178.3L160.6,177.9L160.3,177.1L159.6,177L158.7,176.4L157.6,175.8L156.5,175.6L154.2,174.7L153.4,174.7L152.9,174.3L152.3,173.7L151.9,172.9L151.7,171.4L150,170.8L148.3,170.3L148.2,170.6L148.3,172L148.2,172.9L147.1,173.3L146,173.4L146.1,173.1L147.4,170.4L148,168.7L148.6,165.6L147.8,163.1L147.6,161.9L147.2,161.3L145,160.1L144.8,159.7L145.2,158L145,157.3L144.4,156.6L143.7,155.1L143.4,153.9L144.4,152.4L144.6,151.3L145,149.9L145.3,149L145.3,148.8L144.7,148.2L144.6,147.4L144.7,146.2L144.4,145.4L143.6,144.8L143.1,144.1L142.8,143.1L143,141.7L143.6,139.7L142.3,137.3L139.1,134.4L137.5,132.4L137.6,131.3L138.3,130.3L139.6,129.3L140.5,127.7L141,125.7L141.1,125.4L141.1,124L139.6,118.2L139.4,116.8L139.2,115L139.1,114.6L142,115.8L143.2,116.5L143,115.7L142.8,115L143,114L142.9,112.6L140.3,111.8L138.6,111.6L138.4,110.5L138.5,109.9L139,110.3L140.7,110.4L144.9,108.4L152,105.8L159.7,103.4L161.5,103.1L163.3,102.6L163.9,101.7L164.6,101.1L165.6,99.5L167.9,96.9L172.1,96L173.6,94.8L176.7,93.1L184.1,91.2L187.1,90.8L190.1,90.8L192.7,92.3L195.5,94.1L196.1,95.2L194.5,94.5L192.3,92.9L191.5,92.8L193.4,97.8L194.4,99.6L196.5,100.9L198.3,101.3L203.6,100.6L205.6,99.5L206.1,99L206.6,99.2L210.1,99.5L213.7,99.8L219.4,100.1L225.4,100.4L231.6,100.8L238.2,101.1L245.3,101.3L245.7,101.2L246.4,100.3L247.3,100.4L248.4,101L248.9,101.4L249.1,101.8L249.2,102.3L249.8,102.4L250.8,102.8L252.2,103.7L253.3,104.5L254.3,105.8L254.7,107.1L254.7,108.7L254.7,109.7L254.7,110.1L256.2,117.3L258.6,124.2L259.4,127.6L259.8,129.3L260.1,131.9L260.2,133.7L260.2,134.7L260,136L259.3,136.9L254.7,139.2L253.8,139.9L252.5,141.7L251.2,143.6L251,144.2L250.9,144.6L251.1,145.2L252.8,146.2L254.4,147L255,147.6L256.1,148.4L256.6,149L256.9,149.6L256.8,151L256.3,152.9L256.5,154.3L256,155.3L255.5,156.3L255.4,158.2Z" fill="#b8e653" stroke="#0c0e06" stroke-width="1"/></svg>
