<svg xmlns="http://www.w3.org/2000/svg" viewBox="0 0 400 300"><path d="M211.6,128L207.3,137.1L198.5,133.1L193.4,152.3L199.4,155.5L193.2,159.5L192.1,167L203.7,163.2L204.3,174.3L192.1,219.5L189.7,212.2L176,170.9L183.1,161.5L181.4,159.8L187.9,146.4L192.8,124.5L196.4,117.2L197.1,116.9L205.2,116.9L207.4,111.8L214,111.4L214.4,123.3L211.1,127.8Z" fill="#2c2c34" stroke="#474751" stroke-width="0.8"/><path d="M214,111.4L207.4,111.8L205.2,116.9L197.1,116.9L205.8,93L217.9,72.2L218.4,71.1L229.3,72.7L233.3,84.2L220,95.4Z" fill="#2c2c34" stroke="#474751" stroke-width="0.8"/><path d="M207.3,137.1L211.6,128L238.8,139.4L286.6,108.4L296.5,143.8L291.8,148.2L242.9,162.6L267.3,191.1L259.2,195.9L255.1,205.4L236.5,209.3L230.7,219.4L220.1,228.1L192.8,223.6L192.1,219.5L204.3,174.3L203.7,163.2L207.3,154.8Z" fill="#2c2c34" stroke="#474751" stroke-width="0.8"/><path d="M400,202.8L362.3,171.7L325.9,151.6L296.5,143.8L296.5,143.8L286.6,108.4L340.7,77.8L349.9,41.7L347.7,19.7L361,12.2L369,0L400,0Z" fill="#2c2c34" stroke="#474751" stroke-width="0.8"/><path d="M369,0L361,12.2L347.7,19.7L349.9,41.7L340.7,77.8L286.6,108.4L238.8,139.4L211.6,128L211.6,128L211.1,127.8L214.4,123.3L214,111.4L220,95.4L233.3,84.2L229.3,72.7L218.4,71.1L216.1,48.3L222,35.9L228.6,29.3L235.2,22.7L236.5,5.7L244.5,11.7L271.4,3.1L284.3,8.9L304.5,8.8L326.1,0L369,0Z" fill="#2c2c34" stroke="#474751" stroke-width="0.8"/><path d="M326.1,0L304.5,8.8L284.3,8.9L271.4,3.1L244.5,11.7L236.5,5.7L235.2,22.7L228.6,29.3L222,35.9L213.1,22.2L222.3,10.8L207.4,13.4L186.9,6.4L170.1,23.9L133.1,27.3L113.3,11L86.9,10L81.3,22.6L64.4,26.1L40.8,10L14.2,10.6L9.2,0L326.1,0Z" fill="#2c2c34" stroke="#474751" stroke-width="0.8"/><path d="M224.1,300L209.6,278.6L197.2,259.6L184.9,259.8L188.8,244.5L189.9,234.8L192.8,223.6L192.8,223.6L220.1,228.1L230.7,219.4L236.5,209.3L255.1,205.4L259.2,195.9L267.3,191.1L242.9,162.6L291.8,148.2L296.5,143.8L325.9,151.6L362.3,171.7L400,202.8L400,300Z" fill="#2c2c34" stroke="#474751" stroke-width="0.8"/><path d="M138.6,56.4L140.2,56.2L143.8,49L161.4,49.4L183.6,40.4L167.1,53.2L168.9,58.8L166.3,57.7L161.6,60L157.9,59.4L156.7,60.5L156.2,57.5L154.5,55.7L149.7,55.4L143.1,57.9Z" fill="#2c2c34" stroke="#474751" stroke-width="0.8"/><path d="M138.6,56.4L143.1,57.9L149.7,55.4L154.5,55.7L156.2,57.5L156.7,60.5L157.9,59.4L161.6,60L166.3,57.7L168.9,58.8L169.6,61.2L144.5,73.3L132.6,69.4L127,57.5Z" fill="#2c2c34" stroke="#474751" stroke-width="0.8"/><path d="M0,164.8L9.7,168L33.9,176.4L45.2,180.8L64.1,171.8L74.1,163.6L95.6,161.2L113.1,164.9L119.7,179L125.4,169.7L144.9,176.5L164,178.1L176,170.9L189.7,212.2L192.1,219.5L185.2,230.8L179.9,251.8L173.3,266.3L167.6,271.1L159.4,262.2L148.4,249.8L131,209.7L128.5,212.2L138.6,241.8L153.6,269.7L166.7,300L0,300Z" fill="#2c2c34" stroke="#474751" stroke-width="0.8"/><path d="M181.1,160.4L182.3,161.6L182.4,162.1L178.1,166.8L178.1,168.8L175.5,171.2L174.7,168.8L174.4,167.9L178.9,163.3ZM207.4,137L208,141.6L207,145.5L206.9,148.9L207.6,155.2L206.1,157.9L205.3,161L205,163.4L203.9,163.3L200.7,165.1L196.4,166.7L191.7,167.1L191,166.6L190.8,165.8L192.2,161.8L192.8,159.9L194.8,157.8L197.7,156.1L198.9,155.7L198.8,154.9L197.1,153.8L195.2,153.2L193.5,153.8L193,153.6L192.8,153.1L193.5,152.3L193.7,151L193.5,148.7L193.3,146L192.8,143.9L193.9,140.3L194.2,138.7L195.6,135.2L198.6,133L201.4,133.7L202.8,133.8L203.4,134.2L203.7,135.5L205.8,136.9Z" fill="#b8e653" stroke="#0c0e06" stroke-width="1"/></svg>
