<svg xmlns="http://www.w3.org/2000/svg" viewBox="0 0 300 300"><path fill="#e8e8ea" d="M10.8,228.8L19.5,238.3L20.2,241.7L-12.7,277.3L-12.7,292.9L-32.1,311L-38.2,292.9L-40.9,286.1L-6,251.2ZM211.4,50.7L215.4,85.5L208,115.3L207.4,141.3L212.7,189.3L201.3,209.8L195.3,233.7L192.6,252L184.5,251.2L159.7,264.5L127.5,276.6L91.3,280L85.9,276.2L84.6,270.1L95.3,239.4L99.4,225L114.8,209.4L136.9,196.1L146.3,192.7L145.6,187L132.2,178.2L118.1,173.7L105.4,178.2L101.4,176.7L100,172.9L104.7,167.2L106.7,156.9L104.7,139.7L103.4,118.8L100,102.7L108.1,75.9L110.8,63.3L120.8,36.5L144.3,20L165.1,25L175.8,26.1L180.5,29.2L183.2,38.8L198.6,49.5Z"/></svg>
