<svg xmlns="http://www.w3.org/2000/svg" viewBox="0 0 400 300"><path d="M400,79.5L381.5,82.3L360.3,70.8L353.5,76.2L319,64.6L311.5,54.6L321.2,39.1L323.9,0L400,0Z" fill="#2c2c34" stroke="#474751" stroke-width="0.8"/><path d="M319.2,300L314.7,283.6L313.5,269.8L306.5,255.1L324.5,242.6L344.8,238.6L356.6,229L374.7,221.9L400,218.6L400,300Z" fill="#2c2c34" stroke="#474751" stroke-width="0.8"/><path d="M400,97.7L386.5,110.4L362.4,115.6L360.8,124L349.2,137.6L342,157.5L349.3,171.3L338.5,182L334.4,197.5L320.2,202.2L306.9,220.2L283.1,220.6L265.2,220.2L253.5,228.4L246.3,237.2L237.1,235.3L230.2,227.4L224.9,214L207.4,210.3L207.4,210.3L205.8,202.5L212.8,193.6L215.3,187.2L208.8,180.1L214,164.3L206.6,149.7L214.7,147.7L215.4,136.1L218.4,132.6L218.6,113.2L227.4,106.5L222.1,93.9L211.1,93L208,96.2L196.9,96.2L192.2,83.9L184.5,87.5L177.7,94L178.7,75.9L171,64.8L197.5,46.2L220.5,50.9L245.7,50.7L265.7,55.1L281.2,53.8L311.5,54.6L319,64.6L353.5,76.2L360.3,70.8L381.5,82.3L400,79.5L400,97.7Z" fill="#2c2c34" stroke="#474751" stroke-width="0.8"/><path d="M183.9,300L184.8,298.9L203.6,288.6L217.5,279.3L230.1,255.7L235.9,241.5L249.8,241.6L261.1,251.4L278.9,249.8L298.3,254.9L306.5,255.1L306.5,255.1L313.5,269.8L314.7,283.6L319.2,300L183.9,300Z" fill="#2c2c34" stroke="#474751" stroke-width="0.8"/><path d="M182.5,92.5L184.3,90.7L186.1,89.6L187,89.2L191.1,88.1L192.1,87.5L193.1,87.6L193.3,88.1L193.9,89.2L194.5,90L194.7,90.5L193.1,92.8L192.9,93.6L193.7,95.1L193.9,95.5L194.3,95.7L195.3,95.6L197.3,94.7L198.6,93.9L199.1,94.2L202.9,93.8L203.8,94.1L204.4,94.6L206.3,95.1L208.3,95.2L210.8,94.4L212,93.6L212.2,92.8L212.2,92.1L212.6,91.7L213.1,91.4L214,91.8L215.3,92.2L218.4,92.3L219,91.9L220.1,92L221.4,92.6L223,92.4L223.8,93.2L224.2,94.1L224.2,96.3L224.2,98.4L224.5,99.2L225.5,99.4L227.3,99.4L228.8,100L230.1,101L230.5,102L230.7,102.7L230.1,103.1L229.2,104.7L227.1,106.7L224,108.4L221.7,110.7L220.1,113.3L218.1,114.5L217.5,115.1L217.2,115.8L218.6,119L219,121.5L219.3,124.6L219,125.4L219,128.8L218.6,129.8L218.7,130.6L219.3,131.4L219.5,132.2L218.5,133.3L216.8,134.5L215.6,135.6L215.3,136.6L215.3,137.2L217.4,139.3L217.8,140.1L217.6,142.2L216.3,145.6L215.2,147.7L215,147.9L213.6,148.5L207.4,148.5L205.8,149L206,149.4L207.5,152L209.1,153.4L209.6,153.7L210.1,156.8L212.6,161.7L215.1,162.4L215.9,163.6L215.7,165.3L215,167.3L213.5,169.2L211.8,170.5L210.6,171.9L210.5,173.4L210.1,175.4L209.6,177L209.5,178.1L213.9,184.7L216.3,184.3L216.7,184.5L216.2,186.1L215.5,187.9L214.5,188.3L212.4,188.8L210.4,191.2L208.8,194.1L207.6,195.5L206.4,198.8L206.6,200.3L207.1,202.5L208.2,208.4L206.6,208.7L200.2,212.5L198.2,212.5L194.5,210.8L188,210.3L185.9,209.8L183.2,210.9L181.2,210.8L179.5,212.3L178.4,211.8L179.7,208.7L181.8,202.5L181.8,198.7L182.2,195.3L181.7,192L180.6,190L182,184.6L181.9,181.8L180.6,178.3L184.6,178.9L183.3,177.4L182.1,176.6L181,176.8L179.9,176.7L176.6,178.1L174.9,178.5L174.3,178.3L174.5,176.1L173.7,173.3L175,172.5L176.6,172.3L178,171.1L178.8,169.7L178.3,167.3L179.5,165L182.2,163.1L180.8,163.4L179.2,164.6L176.6,169L175.8,171.2L173.6,171.9L171.6,172.3L170.7,172L169.5,171.5L169.3,169.9L169.5,168.6L170.3,166L170.6,162.3L171.8,159L171.6,158.1L171.3,156.8L172.4,155.5L173.7,154.7L175.5,151.8L178.3,145.1L181.4,137.8L181.2,136.9L180.5,136.3L180.8,134.3L182.6,125.8L183.4,124.7L184.3,122.1L184.5,118.1L184.8,115.3L184.7,113.9L184.5,112.2L183.2,108.9L182,102L181.9,99.7L182.9,98.6L181.2,98.4L180.5,96.9L180.6,95.2Z" fill="#b8e653" stroke="#0c0e06" stroke-width="1"/></svg>
