<svg xmlns="http://www.w3.org/2000/svg" viewBox="0 0 300 300"><path fill="#e8e8ea" d="M113.6,30.3L117.4,26.8L121.1,24.4L123,23.6L131.5,21.2L133.6,20L135.7,20.2L136.1,21.3L137.2,23.6L138.6,25.1L138.9,26.2L135.7,31L135.2,32.7L136.9,35.8L137.2,36.7L138.1,37L140.3,37L144.4,34.9L147.1,33.3L148,33.9L156,33L157.9,33.8L159.1,34.7L163.1,35.8L167.3,36L172.5,34.3L174.9,32.7L175.3,30.9L175.4,29.6L176.1,28.7L177.3,28.2L179.2,29L181.9,29.8L188.2,30L189.5,29.1L191.7,29.4L194.5,30.7L197.9,30.2L199.6,31.8L200.3,33.8L200.4,38.2L200.3,42.7L200.9,44.4L203.1,44.8L206.8,44.8L210,45.9L212.5,48L213.4,50.2L213.8,51.6L212.5,52.5L210.7,55.7L206.3,59.9L200,63.6L195.1,68.2L191.7,73.7L187.7,76.1L186.4,77.3L185.8,78.9L188.6,85.6L189.5,90.8L190.2,97.1L189.6,98.9L189.5,106L188.8,108L188.9,109.6L190,111.4L190.5,113.1L188.5,115.3L185,117.8L182.5,120L181.8,122L181.9,123.4L186.2,127.7L187.1,129.5L186.5,133.8L184,140.9L181.6,145.2L181.2,145.6L178.4,146.8L165.3,146.9L162.1,147.8L162.5,148.7L165.6,154.2L168.8,157.1L169.9,157.8L171.1,164.2L176.3,174.4L181.3,175.8L183.2,178.3L182.7,181.9L181.2,185.9L178.1,189.9L174.4,192.7L172.1,195.5L171.9,198.8L171.1,202.8L169.9,206.1L169.7,208.4L178.9,222.1L184,221.4L184.7,221.8L183.7,225L182.2,228.8L180.2,229.6L175.9,230.7L171.6,235.7L168.3,241.6L165.7,244.5L163.3,251.6L163.6,254.5L164.8,259.2L167.1,271.5L163.8,272L150.4,280L146.3,280L138.6,276.5L125.1,275.3L120.6,274.3L115.2,276.6L110.9,276.5L107.4,279.5L105,278.6L107.9,272.1L112.2,259.2L112.1,251.2L113.1,244.3L111.9,237.4L109.7,233.1L112.6,221.9L112.3,216.2L109.7,208.9L118,210L115.3,207.1L112.8,205.4L110.4,205.7L108.3,205.6L101.3,208.5L97.7,209.3L96.6,208.8L97,204.3L95.2,198.4L98,196.9L101.4,196.4L104.2,193.9L105.9,191L104.9,186.1L107.4,181.3L113.1,177.3L110.1,177.9L106.7,180.4L101.4,189.5L99.7,194.1L95.1,195.6L91,196.3L89,195.8L86.5,194.7L86.2,191.3L86.5,188.6L88.2,183.2L88.7,175.5L91.3,168.7L91,166.9L90.3,164.2L92.5,161.5L95.2,159.8L99.1,153.8L104.8,139.7L111.4,124.7L110.8,122.8L109.4,121.5L110,117.4L113.9,99.6L115.4,97.3L117.3,92L117.7,83.6L118.4,77.8L118.2,74.8L117.7,71.3L115.2,64.6L112.6,50.2L112.3,45.4L114.5,43L110.9,42.7L109.4,39.5L109.7,36Z"/></svg>
