<svg xmlns="http://www.w3.org/2000/svg" viewBox="0 0 400 300"><path d="M38.5,300L32.5,273.2L41,256.6L39.7,241.1L44.7,226.7L53.7,212L63.5,202.3L59.4,196.2L62.3,191.2L61.8,165.7L76.9,158.2L81.7,142.5L80,138.7L91.5,125.2L109.7,128.8L117.8,139.7L123.2,127.6L139,128.2L141.3,131.4L166.7,156L178.1,158.3L195,169.5L209.3,175.5L211.3,182.3L197.6,205.8L211.6,210L227.2,212.4L238.1,209.9L250.7,198L253,184.4L259.8,181.4L266.8,190.3L266.5,202.7L254.8,211.3L245.5,217.7L229.9,232.9L211.4,254.7L211.4,254.7L207.9,267.6L204.2,284.3L204.4,300L38.5,300Z" fill="#2c2c34" stroke="#474751" stroke-width="0.8"/><path d="M17.7,300L20,290.4L16.8,266L20.9,252.7L19.2,233.1L27.4,213.9L29.8,183.9L34.3,152.2L38.6,118.6L37.6,94.4L34.7,73.8L41.9,70L45.6,62.6L45.6,62.6L52.3,72.5L54.2,83L61.5,89.2L57.1,103.5L64.6,120.2L70,140.8L80,138.7L81.7,142.5L76.9,158.2L61.8,165.7L62.3,191.2L59.4,196.2L63.5,202.3L53.7,212L44.7,226.7L39.7,241.1L41,256.6L32.5,273.2L38.5,300L17.7,300Z" fill="#2c2c34" stroke="#474751" stroke-width="0.8"/><path d="M204.4,300L204.2,284.3L207.9,267.6L211.4,254.7L211.4,254.7L220.4,253L234.3,265.4L239.4,264.9L253.7,275.3L264.6,284.3L272.6,295.5L269.1,300L204.4,300Z" fill="#2c2c34" stroke="#474751" stroke-width="0.8"/><path d="M269.1,300L272.6,295.5L264.6,284.3L253.7,275.3L239.4,264.9L234.3,265.4L220.4,253L211.4,254.7L229.9,232.9L245.5,217.7L254.8,211.3L266.5,202.7L266.8,190.3L259.8,181.4L253,184.4L255.7,175.5L257.5,166.5L257.5,158.1L252.6,155.4L247.4,157.8L242.2,157.2L240.6,151.3L239.3,137.5L236.7,133L227.4,129L221.7,131.9L207.1,129L208,108.8L203.9,100.6L208.2,97.6L206.9,89.2L210.7,82.7L213.1,71.2L209.9,62.2L202.3,58.1L200.8,52.4L202.9,44L176.3,43.4L170.9,26.7L175,26.4L174.8,20.2L172.1,16.1L171.5,7.8L163.5,3.6L154.7,3.7L149.6,0L400,0L400,145.7L391.2,148L381.5,154.7L366,159.2L349.6,171.3L337.9,186.5L335.9,198L338.2,206.6L335.6,222.4L332.5,230.1L322.8,238.8L307.4,267L295.2,279.9L285.8,287.6L280.8,300L269.1,300Z" fill="#2c2c34" stroke="#474751" stroke-width="0.8"/><path d="M149.6,0L154.7,3.7L163.5,3.6L171.5,7.8L172.1,16.1L174.8,20.2L175,26.4L170.9,26.7L176.3,43.4L202.9,44L200.8,52.4L202.3,58.1L209.9,62.2L213.1,71.2L210.7,82.7L206.9,89.2L208.2,97.6L203.9,100.6L203.7,96.1L190.7,88.5L177.9,88.3L153.7,92.6L147.1,105.6L146.7,113.6L141.3,131.4L139,128.2L123.2,127.6L117.8,139.7L109.7,128.8L91.5,125.2L80,138.7L70,140.8L64.6,120.2L57.1,103.5L61.5,89.2L54.2,83L52.3,72.5L45.6,62.6L54.3,46.9L48.4,34.8L51.5,30L49.1,24.6L54.4,17.5L54.7,5.3L55.1,0L149.6,0Z" fill="#2c2c34" stroke="#474751" stroke-width="0.8"/><path d="M55.1,0L54.7,5.3L54.4,17.5L49.1,24.6L51.5,30L48.4,34.8L54.3,46.9L45.6,62.6L41.9,70L34.7,73.8L20.8,65.4L19.6,59.4L0,49.1L0,0Z" fill="#2c2c34" stroke="#474751" stroke-width="0.8"/><path d="M204,100.4L204.3,101.5L204.5,102.3L204.9,102.9L205.4,103.7L205.8,104.2L206.2,104.9L206.1,105.7L206.3,106.8L206.5,107.7L206.7,108L207.4,108.2L207.7,109.1L207.5,109.5L207.6,110L207.8,110.5L207.6,110.9L207.7,111.3L208.1,111.6L208.6,112.8L208.6,114.8L208.1,115.9L207.8,116.7L207.7,117.3L208,118.1L207.5,119L207,120.2L207.1,120.9L207.2,121.7L207.2,122.5L207.4,123.2L207.2,124L207,124.7L206.9,125.5L207.1,126.4L206.7,127.2L206.5,127.8L206.4,128.4L206.8,129.3L207.9,129.7L208.7,129.8L209.5,129.3L210.1,129.2L211.2,129.6L212.1,130.4L213.4,130.5L214.6,130.6L215.4,130.9L216.7,130.6L218.1,130.9L219.6,131.4L220.9,131.7L222.2,131.7L223.2,131.6L224.2,131.2L225.1,131.2L225.9,130.4L226.3,129.7L226.7,129.2L227.7,128.8L228.4,129.1L229,130.4L230.1,131.1L230.5,131.7L231.3,131.9L233,131.9L234,131.9L235.2,132.3L236,132.3L236.7,133L237.3,133.8L237.4,135.4L238,136.6L238.8,137L239.2,137.8L239.1,138.8L238.7,139.8L238.7,141L239.1,142L239.1,143.1L239.4,144.1L240,145L240.2,146.5L240.1,147.5L240.4,148.1L240.6,149L240.3,149.7L240.2,150.6L240.3,151.5L240.6,152.1L241.4,153.1L241.6,154.7L241.6,155.8L242,157.1L242.7,157.7L243.8,157.9L245.1,158.1L246.6,157.8L248,157.4L248.8,157.1L250.3,156.1L251.6,155.6L252.3,155.2L253,155L254.3,155.6L255.5,156.3L256.5,157.4L258.2,158.5L257.9,158.8L257.2,159.7L257.3,160.9L257.7,162.5L257.3,165.8L255.9,171L255.4,174L255.6,174.9L255.1,176.4L253.2,179.7L253.1,181.9L252.9,188.5L252.2,193.2L251.2,196.6L250.2,198.5L249.3,198.7L248.7,199.3L248.3,200.1L247.6,200.9L246.5,201.5L246,202.1L245.9,202.8L244.9,203.2L243,203.5L241.8,204L241.5,204.9L240.9,205.7L239.9,206.2L239.5,207.1L239.5,208.4L239,209.4L237.8,210.3L236.8,210.4L235.8,209.5L234.6,208.9L233,208.7L231.7,208.9L230.6,209.6L229.6,210.7L228.8,212.3L227.9,212.5L226.8,211.5L225.5,211.2L224,211.6L222.7,211.4L221.8,210.7L220.4,210.7L218.5,211.2L214.6,210.6L208.8,208.8L203.9,208.1L197.8,208.8L197.3,206.9L197.6,205.9L198.6,205.2L199.2,204.3L199.5,203.4L200.1,202.7L201.3,202.2L201.7,201.7L201.6,201.1L201.8,200.7L202.4,200.3L202.8,199.7L202.9,198.9L203.1,198.4L203.5,198.1L203.6,197.6L203.4,195.8L203.4,194.3L203.7,193.1L204.1,192.5L204.3,192.3L204.6,191.9L204.7,191.2L205.1,190.5L207,189.2L207.7,188.5L207.8,187.8L208.1,187L209.2,185.1L209.6,184.2L209.6,183.7L210,183.3L211.4,182.2L212.1,181.2L212.2,180.3L211.9,179.2L211.1,178.1L208.7,175.1L206.8,173.8L204.3,172.7L202.7,172.3L201.9,172.7L201.1,172.4L200.3,171.4L199,170.6L196.1,169.8L189.7,166.4L187.2,164.7L186.3,163.7L183.9,161.9L180,159.2L176.9,158L174.8,158L171.5,157.2L166.8,155.6L164.2,154.1L163.5,152.6L161.7,151.1L159,149.6L157.6,148.6L157.5,148.1L156.7,147.5L155.2,146.7L153.5,145.4L151.7,143.6L149.8,140.7L147.8,136.9L145.6,134.3L143.2,132.9L142.1,132L142.1,131.6L141.8,131.2L142.1,130.4L142.9,127.5L144.1,123.3L145.4,118.9L146.9,113.8L146.9,110.1L146.9,106.3L149.1,103.2L150.6,100.9L151.9,98.8L153.2,95.2L154.1,92.8L157.5,92.2L163.3,90.9L166.1,90.3L172.2,89L178.4,87.7L184.9,87.6L191.1,87.5L195.9,90.5L199.6,92.8L203.7,95.3L204,95.8L204.3,98Z" fill="#b8e653" stroke="#0c0e06" stroke-width="1"/></svg>
