<svg xmlns="http://www.w3.org/2000/svg" viewBox="0 0 300 300"><path fill="#e8e8ea" d="M158.3,46.9L158.9,49.1L159.3,50.8L160.2,52.1L161.2,53.7L162.1,54.6L162.8,56.1L162.6,57.9L163,60.1L163.4,62.1L164,62.5L165.3,63.1L166,64.8L165.5,65.7L165.7,66.7L166.2,67.7L165.7,68.7L165.9,69.4L166.9,70.1L167.8,72.6L167.9,76.7L166.9,79L166.1,80.8L165.9,81.9L166.6,83.6L165.6,85.5L164.5,87.9L164.7,89.5L164.9,91.1L165,92.7L165.3,94.3L164.9,95.9L164.5,97.3L164.4,99L164.8,100.8L164,102.6L163.4,103.8L163.3,105L164.2,107L166.3,107.8L168,108L169.7,107L170.9,106.7L173.2,107.6L175.3,109.3L178,109.5L180.4,109.7L182.1,110.3L184.8,109.7L187.6,110.3L190.8,111.2L193.5,112L196.1,111.9L198.2,111.7L200.3,110.8L202.3,110.9L203.8,109.3L204.6,107.8L205.5,106.8L207.6,106L209.1,106.5L210.3,109.2L212.5,110.7L213.5,111.9L215,112.3L218.5,112.5L220.7,112.3L223.2,113.2L224.9,113.2L226.3,114.6L227.7,116.3L227.8,119.5L229,122L230.7,123L231.5,124.5L231.3,126.7L230.5,128.9L230.6,131.3L231.4,133.4L231.4,135.6L232,137.8L233.2,139.6L233.6,142.6L233.4,144.8L234.1,146.1L234.4,147.9L233.9,149.3L233.7,151.2L233.8,153L234.4,154.5L236.1,156.4L236.6,159.7L236.6,162L237.3,164.7L238.8,165.9L241.1,166.4L243.8,166.8L247,166.2L249.9,165.5L251.4,164.7L254.7,162.7L257.4,161.6L258.8,160.9L260.2,160.3L263,161.6L265.4,163.2L267.5,165.3L271.2,167.7L270.5,168.3L269,170.3L269.1,172.6L270.1,175.9L269.2,182.9L266.3,193.7L265.1,200L265.6,201.8L264.5,204.9L260.6,211.7L260.5,216.3L259.9,230.1L258.6,239.8L256.4,247L254.3,250.8L252.6,251.3L251.2,252.4L250.4,254.3L248.9,255.8L246.8,257L245.6,258.4L245.4,259.9L243.3,260.7L239.4,261.2L237,262.4L236.4,264.3L235,265.8L233.1,266.9L232.1,268.8L232.2,271.4L231.1,273.6L228.7,275.5L226.5,275.5L224.6,273.8L222,272.6L218.5,272.1L215.8,272.5L213.6,274L211.6,276.3L209.8,279.5L208,280L205.8,277.9L203.1,277.2L199.9,278.1L197.3,277.8L195.4,276.3L192.5,276.2L188.4,277.3L180.5,276L168.3,272.3L158,270.9L145.5,272.2L144.3,268.4L145.1,266.3L147,264.8L148.4,263L148.9,261L150.3,259.5L152.6,258.5L153.6,257.4L153.3,256.4L153.7,255.5L155,254.6L155.8,253.3L156,251.6L156.5,250.8L157.3,250.1L157.4,248.9L157,245.2L157,242.1L157.6,239.7L158.5,238.3L159,237.9L159.5,237.1L159.7,235.6L160.5,234.3L164.5,231.6L166,230.1L166.1,228.7L166.8,226.9L169.1,222.9L169.9,221L170,220.2L170.8,219.2L173.6,217L175.3,214.9L175.5,213L174.8,210.8L173.1,208.3L168,202.3L164.1,199.5L159,197.2L155.6,196.5L154,197.2L152.3,196.6L150.7,194.5L147.9,192.9L142,191.1L128.7,184L123.3,180.6L121.5,178.5L116.5,174.7L108.3,169.2L102,166.5L97.6,166.7L90.7,165.1L81,161.7L75.4,158.5L74,155.4L70.4,152.3L64.8,149.2L61.8,147.1L61.6,146.1L60,144.8L56.8,143.2L53.3,140.5L49.6,136.6L45.7,130.7L41.4,122.7L36.8,117.3L32,114.5L29.6,112.6L29.6,111.7L28.8,110.9L29.5,109.3L31.2,103.3L33.8,94.4L36.4,85.3L39.6,74.6L39.6,67.1L39.6,59.1L44.1,52.6L47.2,48L50,43.5L52.7,36L54.6,31L61.6,29.8L73.7,27.2L79.6,25.9L92.3,23.1L105,20.3L118.5,20.2L131.5,20L141.5,26.2L149.2,31L157.7,36.3L158.3,37.4L158.9,41.8Z"/></svg>
