<svg xmlns="http://www.w3.org/2000/svg" viewBox="0 0 400 300"><path d="M209.7,178.5L214,177.2L214.9,184.6L234,180.3L254.3,181L269,181.8L285.7,163.7L304,146.4L319.4,129.6L324,138.9L327.4,160.2L314.9,160.4L312.8,177.8L317.2,181.6L306.2,186.9L306.1,197.8L298.9,208.8L298.3,219.5L293.4,225.1L219.9,211.7L210.6,184.7Z" fill="#2c2c34" stroke="#474751" stroke-width="0.8"/><path d="M121.6,21.1L126.7,33.5L124.5,40L132.3,61L115.1,61.7L109,48.4L87.2,45.7L105.2,18.8Z" fill="#2c2c34" stroke="#474751" stroke-width="0.8"/><path d="M122.4,0L122.6,7.6L136,22.5L121.6,21.1L105.2,18.8L87.2,45.7L41.8,43.5L0,9L0,0Z" fill="#2c2c34" stroke="#474751" stroke-width="0.8"/><path d="M400,249.1L397.9,253.1L387.6,261.5L378.5,279.3L367.4,278L362.3,284.2L358.4,297.4L358.9,300L266.5,300L266.5,300L293.2,290.5L309.5,238.2L298.3,219.5L298.3,219.5L298.9,208.8L306.1,197.8L306.2,186.9L317.2,181.6L312.8,177.8L314.9,160.4L327.4,160.2L338.3,178.6L352,188.3L369.8,191.8L384.4,196.7L395.4,211.9L400,218.1L400,249.1ZM324,138.9L319.4,129.6L326.5,120.4L329.6,122.7L327.3,134Z" fill="#2c2c34" stroke="#474751" stroke-width="0.8"/><path d="M400,146.6L379.3,141.7L351.8,138.2L341.4,104.8L329.7,99.9L310.9,104.8L286.3,118.1L256.5,109L231.7,87.9L208.2,80L191.9,53.7L173.9,16.2L160.7,20.8L145.2,11.4L136,22.5L136,22.5L122.6,7.6L122.4,0L400,0Z" fill="#2c2c34" stroke="#474751" stroke-width="0.8"/><path d="M0,9L41.8,43.5L87.2,45.7L109,48.4L115.1,61.7L132.3,61L141.9,84.9L154,91.2L158.1,100.8L174.8,112.4L176.2,123.6L173.9,132.7L176.9,141.8L184,149.4L187.2,158.2L190.8,164.8L198.2,170.2L205,168.3L209.7,178.5L210.6,184.7L219.9,211.7L293.4,225.1L298.3,219.5L309.5,238.2L293.2,290.5L266.5,300L0,300Z" fill="#2c2c34" stroke="#474751" stroke-width="0.8"/><path d="M202,168.8L199.8,169.4L197.8,169.9L196,169.9L194.7,169.7L193.7,169.1L192,166.9L190.7,163.9L191.4,162.3L191.7,161.2L190,153.4L189.5,147.4L189.7,146.2L190.7,144.8L192.3,141.7L193.1,138.6L195.6,131.7L198.1,129L201.9,127L205,130.9L208.8,133.8L209.5,137.1L208.3,139.8L207.4,144L208,146L208.2,147.7L209.2,150.6L210.2,154.2L210.4,156.8L209.8,159.2L208.5,161.2L206,167.2L205.2,167.8Z" fill="#b8e653" stroke="#0c0e06" stroke-width="1"/></svg>
