<svg xmlns="http://www.w3.org/2000/svg" viewBox="0 0 400 300"><path d="M400,196L399.5,195.8L397.9,198L381,182.5L366,175.5L354.6,164.6L364.2,161.5L375.1,145.7L367.7,138.1L387.2,130.2L386.8,126L375,129.1L375.4,120.5L382.2,115L395,113.6L397.1,107L394.2,96L399.5,85.4L399.4,79.4L379.9,72.8L372.2,73L364,63.3L353.9,66.6L337.1,59.3L337.4,55.2L332.7,46.2L322.2,45.1L321.1,38.6L324.4,34.2L315.9,22.1L302.2,24.2L298.3,23.1L294.9,28L290,27.1L286.7,13.2L283.6,6L286.2,3.9L296.8,4.7L301.8,0L400,0ZM311.8,150.8L315.2,146.1L324.6,150.2L328.9,150.9L330.6,154.7L332.6,155.3L332.7,156.9L339.1,161.4L352.6,160.3L350,167L335.6,170.3L317.7,181L310.3,177.2L313.2,168.5L298.8,163L301.2,159.4L313.8,153.1Z" fill="#2c2c34" stroke="#474751" stroke-width="0.8"/><path d="M301.8,0L296.8,4.7L286.2,3.9L283.6,6L286.7,13.2L290,27.1L278.6,28.4L274.6,33.1L273.7,43.8L268.4,41.8L256.6,42.8L253.1,37.8L248.1,41.5L243.1,38.4L232.8,38L218,32.9L204.7,31.2L194.5,31.7L187.2,37.5L180.9,38.3L180.6,28.8L176.6,18.8L184.5,14.3L184.6,5.6L182.1,0L301.8,0Z" fill="#2c2c34" stroke="#474751" stroke-width="0.8"/><path d="M290,27.1L294.9,28L298.3,23.1L302.2,24.2L315.9,22.1L324.4,34.2L321.1,38.6L322.2,45.1L332.7,46.2L337.4,55.2L337.1,59.3L353.9,66.6L364,63.3L372.2,73L379.9,72.8L399.4,79.4L399.5,85.4L394.2,96L397.1,107L395,113.6L382.2,115L375.4,120.5L375,129.1L364.4,130.7L355.6,136.9L343.3,137.9L331.9,145.1L332.6,155.3L330.6,154.7L328.9,150.9L324.6,150.2L315.2,146.1L311.8,150.8L310,148.8L289.4,143.9L288.5,136.8L276.3,139.1L271.4,149.7L261.2,163.6L255.2,160.4L248.9,163.4L243.1,160L246.4,157.9L248.7,151.4L252.3,145.4L251.4,141.9L254.1,140.4L255.4,143L263.2,143.6L266.7,142.2L264.3,140.2L265.2,137.4L260.6,132.5L258.6,124.4L253.8,121.2L254.8,114.5L248.9,109.2L243.4,108.5L233.7,102.3L224.9,104.2L221.8,107.2L216.1,107.2L212.9,111.8L203.1,113.7L198.6,116.7L192.5,111.9L184,111.8L175.8,109.6L170.1,113.9L169.2,108.6L161.8,103.2L164.5,95.1L168.1,89.9L171,91.1L167.6,82L179.6,64.9L186.1,62.5L187.5,56.7L180.9,38.3L187.2,37.5L194.5,31.7L204.7,31.2L218,32.9L232.8,38L243.1,38.4L248.1,41.5L253.1,37.8L256.6,42.8L268.4,41.8L273.7,43.8L274.6,33.1L278.6,28.4Z" fill="#2c2c34" stroke="#474751" stroke-width="0.8"/><path d="M182.1,0L184.6,5.6L184.5,14.3L176.6,18.8L180.6,28.8L180.9,38.3L187.5,56.7L186.1,62.5L179.6,64.9L167.6,82L171,91.1L168.1,89.9L155.6,82.1L146.1,85L139.8,82.9L132,87.2L125.3,80L119.9,82.8L119.1,81.6L113.1,71.5L103.3,70.3L102,63.8L92.9,61.5L91,66.8L83.8,62.6L84.6,56.8L74.8,55L68.5,48.3L63.1,34.7L64.1,27.3L60.9,15.8L56.1,8L59.7,2.1L59.1,0L182.1,0Z" fill="#2c2c34" stroke="#474751" stroke-width="0.8"/><path d="M0,120L0.9,119.8L7.6,125.2L9.4,120.1L21.1,120.9L30.5,117.4L36.8,118L41,122L42.2,118.7L40.3,105.8L45.1,103.3L49.7,94.1L59.5,100.5L67,92.3L71.6,90.8L81.9,96.9L88.1,95.9L94.2,99.7L93.1,102.2L94.4,109.1L94.4,109.1L93.4,117.1L86,117.2L88.5,121.5L84.2,134L81.6,137.2L70.1,137.7L63.4,142L52.5,140.6L33.6,135.6L30.7,128.9L17.6,132.2L16.1,135.9L8.1,133.2L1.3,132.6L0,131.9L0,120Z" fill="#2c2c34" stroke="#474751" stroke-width="0.8"/><path d="M161.8,103.2L169.2,108.6L170.1,113.9L162,118L155.8,131.2L147.8,144.3L137.2,147.9L129,147L118.9,152L113.9,154.9L103,151.2L93.1,143L89,140.7L86.4,134.2L84.2,134L88.5,121.5L86,117.2L93.4,117.1L94.4,109.1L101.1,114.2L106,116.3L117.1,113.9L118.1,109.9L123.4,109.3L129.8,106.3L131.3,107.5L137.5,105L140.6,100.4L144.9,99.1L159,105.2Z" fill="#2c2c34" stroke="#474751" stroke-width="0.8"/><path d="M221.8,107.2L224.9,104.2L233.7,102.3L243.4,108.5L248.9,109.2L254.8,114.5L253.8,121.2L258.6,124.4L260.6,132.5L265.2,137.4L264.3,140.2L266.7,142.2L263.2,143.6L255.4,143L254.1,140.4L251.4,141.9L252.3,145.4L248.7,151.4L246.4,157.9L243.1,160L240.7,151.3L242.1,143.2L241.7,134.8L234.1,123.2L229.8,115L225.7,109.1Z" fill="#2c2c34" stroke="#474751" stroke-width="0.8"/><path d="M59.1,0L59.7,2.1L56.1,8L60.9,15.8L64.1,27.3L63.1,34.7L68.5,48.3L62.6,50.5L59.1,48L55.8,52.1L46.3,56.1L41.4,61.3L31.8,65.8L34.1,71.9L35.6,80.5L42.3,85.4L49.7,94.1L45.1,103.3L40.3,105.8L42.2,118.7L41,122L36.8,118L30.5,117.4L21.1,120.9L9.4,120.1L7.6,125.2L0.9,119.8L0,120L0,0Z" fill="#2c2c34" stroke="#474751" stroke-width="0.8"/><path d="M169.4,183.3L173.2,190.9L178.3,189.5L188.5,192.4L207.9,193.3L214.4,188.7L230,184.4L239.6,191.1L247.3,193L240.5,200.6L235.7,213.4L239.9,223.6L228.6,221.2L215.1,226.8L215,235.6L203,237.3L193.7,231.2L183.1,236L173.3,235.5L172.4,223.8L165.7,218.1L167.9,215.5L166.5,213.4L168.7,207.7L173.7,202L167.3,194.2L166.2,187.5Z" fill="#2c2c34" stroke="#474751" stroke-width="0.8"/><path d="M151.9,300L151.4,298.7L149.1,287.6L144,279.8L137.2,270.1L136.3,265.2L142.4,256.9L143.2,251.2L147.5,248.7L147.8,244.2L156.4,242.6L161.5,238.8L168.6,239.1L170.8,236.1L173.3,235.5L173.3,235.5L183.1,236L193.7,231.2L203,237.3L215,235.6L215.1,226.8L221.5,231.5L217.4,242.5L214.3,244.5L206.3,244L199.4,242.3L183.4,246.9L192.5,256.6L185.8,259.4L178.5,259.5L171.5,250.5L169,254.3L172,264.6L178.6,272.7L173.6,276.4L181,284.2L187.5,289.1L187.7,298.5L175.4,294.1L178.1,300L151.9,300Z" fill="#2c2c34" stroke="#474751" stroke-width="0.8"/><path d="M228.1,300L227.4,298.6L217.8,289.3L224.2,276.1L215.8,268L230.5,251.5L250.8,250.8L256.4,237.6L281.5,239.9L297.4,228.5L312.8,223.4L334.6,223.1L357.7,235.5L376.7,242.3L392,239.6L400,240.7L400,300ZM215.1,226.8L228.6,221.2L239.9,223.6L241.5,230.5L253,236.1L250.6,240.4L234.9,241.4L229.3,246.8L218.3,256.2L214.1,248.1L214.3,244.5L217.4,242.5L221.5,231.5Z" fill="#2c2c34" stroke="#474751" stroke-width="0.8"/><path d="M147.8,244.2L147.5,248.7L143.2,251.2L142.4,256.9L136.3,265.2L134,264L133.8,260.2L126.5,254.4L125.3,246.2L126.4,234.2L128.2,228.7L126,225.9L125.1,220.3L130.8,211.5L131.7,214.8L135.3,213.3L138.1,218.1L141.2,219.9L142.1,226.3L140.4,232.3L142.3,239.9Z" fill="#2c2c34" stroke="#474751" stroke-width="0.8"/><path d="M89,140.7L93.1,143L103,151.2L113.9,154.9L118.9,152L122,159.3L126.3,164.7L121.2,171.7L115.2,167.6L106.1,167.9L94.7,164.7L88.5,165.2L85.7,169.1L81,164.7L78.2,172.5L84.6,181.2L87.5,186.9L93.6,193.7L98.6,197.8L103.6,205.3L115.3,212.2L113.8,215.2L101.4,208.6L93.8,202.1L81.7,196.6L70.6,183.2L73.3,181.8L67.2,174L67,167.7L58.5,164.7L54.4,172.8L50.5,166.6L50.8,160L51.3,159.8L60.5,160.4L62.9,157.2L67.4,160.3L72.6,160.6L72.6,155.4L77.2,153.4L78.4,145.8Z" fill="#2c2c34" stroke="#474751" stroke-width="0.8"/><path d="M0,131.9L1.3,132.6L8.1,133.2L7,141.1L1.2,144.3L0,144L0,131.9Z" fill="#2c2c34" stroke="#474751" stroke-width="0.8"/><path d="M0,144L1.2,144.3L7,141.1L8.1,133.2L8.1,133.2L16.1,135.9L17.6,132.2L30.7,128.9L33.6,135.6L52.5,140.6L51.1,150L54.2,158L43.7,155.3L33,162L33.7,171.3L32.1,176.6L36.4,186L48.8,195.2L55.5,210.2L70.2,224.6L80.5,224.5L83.7,228.4L80,231.9L91.9,238.3L101.6,243.5L112.9,252.6L114.3,255.9L111.8,262L104.5,254L92.9,251.1L87.4,262.3L96.9,268.6L95.4,277.5L89.9,278.6L82.8,293L77.3,294.3L77.4,289.2L80.1,280.1L82.9,276.5L77.8,266.6L73.7,257.9L68.3,255.8L64.4,248.3L55.9,245.1L50.2,238.1L40.4,237L30,229L18,217.4L9,207.1L4.9,189.1L0,187.5L0,144ZM36,300L34.4,299.2L36.2,290.6L51.6,292.2L65.1,290.3L65.1,290.3L75.2,288.9L71.2,300L36,300Z" fill="#2c2c34" stroke="#474751" stroke-width="0.8"/><path d="M400,200.4L397.9,198L397.9,198L399.5,195.8L400,196L400,200.4Z" fill="#2c2c34" stroke="#474751" stroke-width="0.8"/><path d="M52.5,140.6L63.4,142L70.1,137.7L81.6,137.2L84.2,134L86.4,134.2L89,140.7L78.4,145.8L77.2,153.4L72.6,155.4L72.6,160.6L67.4,160.3L62.9,157.2L60.5,160.4L51.3,159.8L54.2,158L51.1,150Z" fill="#2c2c34" stroke="#474751" stroke-width="0.8"/><path d="M168.1,89.9L164.5,95.1L161.8,103.2L159,105.2L144.9,99.1L140.6,100.4L137.5,105L131.3,107.5L129.8,106.3L123.4,109.3L118.1,109.9L117.1,113.9L106,116.3L101.1,114.2L94.4,109.1L93.1,102.2L94.2,99.7L96,95.3L101.9,95.6L106.4,93.6L106.7,91.7L109.3,90.7L110.2,86.1L113.2,85.3L115.2,81.6L119.1,81.6L119.9,82.8L125.3,80L132,87.2L139.8,82.9L146.1,85L155.6,82.1Z" fill="#2c2c34" stroke="#474751" stroke-width="0.8"/><path d="M68.5,48.3L74.8,55L84.6,56.8L83.8,62.6L91,66.8L92.9,61.5L102,63.8L103.3,70.3L113.1,71.5L119.1,81.6L115.2,81.6L113.2,85.3L110.2,86.1L109.3,90.7L106.7,91.7L106.4,93.6L101.9,95.6L96,95.3L94.2,99.7L88.1,95.9L81.9,96.9L71.6,90.8L67,92.3L59.5,100.5L49.7,94.1L42.3,85.4L35.6,80.5L34.1,71.9L31.8,65.8L41.4,61.3L46.3,56.1L55.8,52.1L59.1,48L62.6,50.5Z" fill="#2c2c34" stroke="#474751" stroke-width="0.8"/><path d="M115.3,212.2L103.6,205.3L98.6,197.8L93.6,193.7L87.5,186.9L84.6,181.2L78.2,172.5L81,164.7L85.7,169.1L88.5,165.2L94.7,164.7L106.1,167.9L115.2,167.6L121.2,171.7L125.9,171.7L122.7,179.8L129,186.9L127.1,195.5L124,196.4L121.5,198L117.2,202.2Z" fill="#2c2c34" stroke="#474751" stroke-width="0.8"/><path d="M165.7,218.1L172.4,223.8L173.3,235.5L170.8,236.1L168.6,239.1L161.5,238.8L156.4,242.6L147.8,244.2L142.3,239.9L140.4,232.3L142.1,226.3L143.8,226.5L144.4,222.8L152.2,220.1L155.1,219.4L159.7,218.3Z" fill="#2c2c34" stroke="#474751" stroke-width="0.8"/><path d="M118.9,152L129,147L137.2,147.9L144.4,155.3L145.9,161.3L153.9,165.7L155,173.4L162.7,178.8L166.8,174.7L170.1,177L167,180.1L169.4,183.3L166.2,187.5L167.3,194.2L173.7,202L168.7,207.7L166.5,213.4L167.9,215.5L165.7,218.1L159.7,218.3L155.1,219.4L154.7,218.1L156.3,215.9L157.8,211.6L155.9,211.7L153.3,208.3L151.1,207.5L149.4,204.6L147,203.5L145.1,200.9L142.7,201.9L140.9,207.9L137.7,209.2L138.8,207.7L133.7,203.9L129.4,202L127.5,199.5L124,196.4L127.1,195.5L129,186.9L122.7,179.8L125.9,171.7L121.2,171.7L126.3,164.7L122,159.3Z" fill="#2c2c34" stroke="#474751" stroke-width="0.8"/><path d="M135.3,213.3L131.7,214.8L130.8,211.5L125.1,220.3L126,225.9L123.2,224.6L119.5,218.8L113.8,215.2L115.3,212.2L117.2,202.2L121.5,198L124,196.4L127.5,199.5L129.4,202L133.7,203.9L138.8,207.7L137.7,209.2Z" fill="#2c2c34" stroke="#474751" stroke-width="0.8"/><path d="M142.1,226.3L141.2,219.9L138.1,218.1L135.3,213.3L137.7,209.2L140.9,207.9L142.7,201.9L145.1,200.9L147,203.5L149.4,204.6L151.1,207.5L153.3,208.3L155.9,211.7L157.8,211.6L156.3,215.9L154.7,218.1L155.1,219.4L152.2,220.1L144.4,222.8L143.8,226.5Z" fill="#2c2c34" stroke="#474751" stroke-width="0.8"/><path d="M242.8,160.7L244.1,162.6L246,163.6L250,164.8L250.4,164.6L250.4,164.4L250.1,164.1L250.1,163.8L250.3,163.3L250.9,163.3L251.8,163.7L253.6,163.1L256.1,161.6L258.5,161.3L260.7,162.2L261.8,163.3L262.5,164.3L262.3,165.5L262.1,166.3L261.5,169.5L261.2,170.7L260.6,172.1L253.8,173.6L254.2,172.9L254.1,171.5L253.8,170.5L254.4,169.6L252.9,169.3L252.3,169.8L251.8,170.7L252.2,172.7L251.5,173.8L251.2,174.4L251.1,175.9L250.7,176.5L250.6,177.2L251.7,177.1L251.2,178.3L249.2,180.7L248.5,182.2L248.7,187.9L247.8,191.3L247.7,192.4L245.6,192.4L244.9,192.3L242.9,191.8L240.6,190.9L239.3,189.2L238.4,187.9L236.5,188.5L236.2,188.3L235.6,187.7L234.2,187.3L232.4,187.3L228.4,185L227.9,184.6L224.7,185L220,186.1L216.4,187.5L212.7,190L211.2,191.9L209.4,192.9L206.9,193.7L202.4,193.4L197.8,192.4L192.8,191.4L190.1,192L186.5,191.6L181,190.3L176.9,189.9L172.9,190.7L172.2,190.1L172,189.5L172.2,188.6L172.8,187.9L173.7,187.3L174.3,186.8L174.3,186.2L173.2,185.3L171,184L170,183.3L169.8,183.1L169.7,182.4L169.3,181.8L168.4,181.4L167.7,180.7L167.3,179.6L167.4,178.6L168,177.7L168.9,177.3L170,177.4L170.5,177.1L170.3,176.5L169.2,175.6L167.3,174.6L165.4,175.2L163.4,177.3L161.9,177.7L161.1,176.2L159.5,175.3L157.3,175.1L155.9,174.5L155.4,173.7L154.4,173.1L152.3,172.4L152.2,171.7L152.6,171.6L153.4,171.5L154.4,171.3L154.6,171L154.6,170.7L153.8,170.2L153,169.9L152.5,169.6L152.2,169.3L152.2,169L152.4,168.7L152.8,168.7L153.1,168.5L153.2,167.7L153.7,167.1L154,166.8L154,166.4L153.7,165.9L153.2,165.5L152.6,165.3L150.5,164.6L149.5,163.7L148.9,163.6L147.8,163.1L146.8,162.3L145.8,161.1L144.8,160.3L144.5,160.1L144.5,159.8L144.7,159.4L144.7,159.1L144.4,157.9L144.6,156.7L144.5,155.6L144.5,155L144.3,154.9L144.2,155L143.9,155.3L143.7,155.3L142.9,154.5L142,152.8L141.4,152.2L140.1,151.4L139.1,150.8L138.3,149.3L137.5,148.2L138,147.8L141,147.1L142.4,147.8L143.1,147.5L143.7,147L144,146.6L144.1,146.1L144.3,145.6L145.4,145.3L148.1,145.7L149.1,144.9L149.5,144.5L149.8,143.6L150.1,142.8L151,142.4L151,141.7L150.9,141L151.4,139.3L151.8,138.7L152.3,138.4L153,137.9L154.1,136.8L153.8,135.9L154,135.2L155.2,133.5L156.1,131.8L156.1,131L156.3,130.2L157,129.5L157.9,128.4L159,125.2L159.4,124.6L160.1,124L160.7,123.4L160.7,121.3L161.2,120.7L162.2,120L163.2,118.8L164,117.5L164.6,116.9L165.4,116.8L166.3,116.2L167.2,116L168.2,116.3L168.8,116.1L169.7,115.5L172,113.1L172.3,112.6L172.8,112.2L174.7,111.4L175.2,110.6L175.8,109.8L176.6,109.9L179.3,111.7L182.2,111.6L182.8,111.7L183,111.7L183.3,111.9L187.2,112.8L187.8,112.7L187.9,112.6L189.5,113.4L190.8,113.3L192.2,112.8L193.6,112.6L194.8,112.9L195.7,114L198.2,116.2L198.9,117.1L200.1,117L201.3,116.6L202.6,115L206.5,113.3L209.4,112.9L212.3,112.2L215.7,111.7L216.7,110.3L217.2,109.3L217.6,107.5L219.4,107L221.1,106.6L221.8,106.4L223,106.3L223.9,106.5L225.5,107.4L226.5,108.5L226.9,109.4L227.8,110.6L228.8,112.3L229.8,114.7L230,115.8L230.5,117.1L231.2,118.6L232.7,120.3L232.9,120.7L233.6,121.9L234.9,124.5L236,125.5L236.9,126.7L237.3,127.8L238.1,128.9L239.6,130.3L240.9,131.5L242,135.1L242.7,136.8L243.1,138L242.9,140.6L243.2,141.7L242.6,143.7L241.5,147.7L241.3,150.8L241.5,152.5L241.5,153.6L241.8,154.3L242.1,155.7L242.1,157L241.7,157.3L241.2,157.6L241,157.9L241.4,158.4L242.1,159.5Z" fill="#b8e653" stroke="#0c0e06" stroke-width="1"/></svg>
