<svg xmlns="http://www.w3.org/2000/svg" viewBox="0 0 300 300"><path fill="#e8e8ea" d="M239,172.2L241.8,176.3L245.6,178.4L254.1,180.7L254.8,180.4L254.9,180L254.3,179.4L254.2,178.7L254.6,177.7L255.8,177.7L257.7,178.5L261.4,177.3L266.7,174.1L271.7,173.4L276.2,175.3L278.5,177.6L280,179.7L279.5,182.2L279.2,183.9L278,190.5L277.2,193L275.9,195.9L261.9,199.2L262.8,197.6L262.5,194.8L261.9,192.7L263.2,190.8L260.1,190.1L258.7,191.1L257.6,193L258.5,197.1L257.1,199.5L256.5,200.8L256.4,203.9L255.5,205.2L255.3,206.6L257.6,206.3L256.6,208.9L252.3,214L250.8,217L251.2,228.9L249.3,236L249.2,238.1L244.8,238.2L243.4,238L239.3,237L234.5,235.1L231.7,231.4L230,228.8L226,230L225.2,229.6L224.1,228.4L221.1,227.5L217.4,227.5L209,222.7L208.1,221.9L201.5,222.7L191.7,225.1L184.2,228.1L176.4,233.2L173.2,237.2L169.5,239.3L164.4,240.8L155.1,240.2L145.5,238.2L135.1,236.1L129.5,237.3L121.9,236.5L110.5,233.9L102,233.1L93.6,234.6L92.2,233.5L91.8,232.2L92.2,230.3L93.4,228.8L95.4,227.7L96.4,226.5L96.5,225.3L94.3,223.4L89.6,220.8L87.6,219.2L87.3,218.8L87.1,217.4L86.2,216.2L84.3,215.4L82.9,213.8L81.9,211.6L82.1,209.5L83.5,207.6L85.4,206.7L87.5,207L88.5,206.4L88.1,205.1L86,203.3L82,201.2L78,202.3L73.8,206.8L70.8,207.5L69.1,204.5L65.8,202.7L61.1,202.2L58.3,201L57.3,199.3L55.2,198L50.8,196.5L50.7,195.1L51.4,194.9L53,194.7L55.1,194.4L55.5,193.6L55.5,193L53.8,192L52.1,191.4L51.3,190.8L50.7,190.1L50.6,189.5L51.1,188.9L51.7,188.9L52.4,188.5L52.7,186.8L53.7,185.5L54.3,185L54.3,184.1L53.6,183.1L52.7,182.3L51.4,181.8L47.1,180.4L44.9,178.4L43.6,178.4L41.5,177.3L39.3,175.5L37.3,173.1L35.2,171.5L34.6,170.9L34.6,170.3L34.9,169.6L34.9,168.9L34.4,166.5L34.7,163.9L34.6,161.6L34.6,160.5L34.2,160.1L33.8,160.5L33.4,161L32.9,161L31.3,159.3L29.3,155.8L28,154.6L25.4,152.9L23.3,151.6L21.7,148.6L20,146.3L21.1,145.3L27.3,144L30.2,145.3L31.6,144.8L32.9,143.7L33.5,142.9L33.6,141.9L34.2,140.8L36.4,140.3L42,141L44.2,139.4L45,138.5L45.5,136.6L46.1,135L48.1,134.2L48.1,132.8L47.8,131.3L49,127.8L49.7,126.5L50.8,125.9L52.1,124.9L54.5,122.6L53.9,120.6L54.4,119.2L56.9,115.6L58.8,112.2L58.8,110.4L59.1,108.9L60.6,107.3L62.4,105.1L64.7,98.4L65.6,97.2L67.1,96L68.2,94.7L68.3,90.3L69.4,89L71.4,87.5L73.4,85.2L75.1,82.5L76.3,81.1L78,80.9L79.8,79.7L81.8,79.4L83.8,79.9L85.1,79.6L87,78.2L91.7,73.2L92.4,72.2L93.4,71.5L97.3,69.8L98.3,68L99.6,66.4L101.4,66.6L107,70.4L113.1,70.2L114.2,70.3L114.5,70.4L115.2,70.8L123.3,72.7L124.5,72.5L124.9,72.3L128.1,73.9L131,73.7L133.7,72.5L136.6,72.2L139.2,72.8L141.1,75.1L146.3,79.8L147.8,81.6L150.1,81.3L152.7,80.4L155.4,77.3L163.5,73.7L169.6,72.8L175.7,71.3L182.7,70.3L184.7,67.4L185.9,65.3L186.6,61.6L190.4,60.5L194,59.8L195.2,59.3L197.8,59.2L199.8,59.5L203,61.3L205.1,63.6L206,65.5L207.9,68L209.9,71.7L212.1,76.5L212.5,78.9L213.3,81.6L214.9,84.7L218,88.3L218.5,89L219.9,91.5L222.5,97L224.8,99.1L226.8,101.5L227.7,103.9L229.2,106.1L232.4,109L235.1,111.5L237.3,119L238.8,122.5L239.7,125.1L239.3,130.4L239.8,132.7L238.7,136.8L236.4,145.1L235.9,151.6L236.3,155.2L236.3,157.5L236.9,158.9L237.5,161.9L237.6,164.5L236.8,165.3L235.6,165.9L235.2,166.4L236.2,167.6L237.6,169.8Z"/></svg>
