<svg xmlns="http://www.w3.org/2000/svg" viewBox="0 0 300 300"><path fill="#e8e8ea" d="M235.1,150.1L233.4,151.2L231.5,153L230.3,156L230.2,160.8L224,164.6L221.6,165.4L220.6,167.8L219.1,174.8L219.2,180.2L220.1,182.8L220.4,185.1L222.5,187.7L224.2,191.9L225.4,197.4L228.1,201.6L234.8,205.8L238.2,208.2L240.6,211.7L242.5,214.7L248.1,219L247.6,222L246.4,224.9L245.2,226.2L242.5,230L239.7,232.1L235.3,238.7L228.3,239.1L226.6,239.6L223.9,241.4L222.7,244.7L223.9,247.3L223.7,250L222.5,255.1L224.2,260.7L226.6,263.3L226.9,264.7L226.6,267.3L222.8,272.5L221.8,274.4L218.1,275.4L216.9,275L215,273.1L213.1,272.7L208.7,274.8L204.2,276L200.6,275L197.2,274.9L194.8,275.8L192.9,276.1L189.4,278.4L183.7,280L181,279.7L180,277.6L178.9,274.5L179.5,273.1L183.2,270.8L183.7,268.4L189,257.4L190,253.8L190,252.5L188.7,251.8L185.8,251.8L172.8,247.3L173.5,242.1L169.7,239.3L165.6,236.8L164.9,234L160.3,228.4L157.1,225.2L152.8,223.7L149.1,221.3L147,219.9L146,217.3L146,215.8L144.8,214.2L143.1,214.4L140.2,216.4L136.4,218.2L135.7,219.6L137.1,222.8L138.1,224.7L137.6,226.6L136.4,229L129.4,234.2L128.6,236L129.9,239L129.1,240.4L123.3,242.3L123.4,240.8L122.9,238.2L119.7,235.4L114.9,233.2L104.1,225.9L100.2,224.9L96.5,224.1L91.3,220.5L88.6,219.9L85.5,217.4L79,208.9L73.6,204.2L69.8,201.9L68.8,199.6L68.5,197.3L68.6,196.5L71.5,193.1L73.8,192.6L76.5,192.5L78.4,194.2L80.9,194.6L82.3,192.4L83,189.3L82.6,185.3L76.7,176L71.7,169.5L71,168.1L72.2,166.8L73.9,166.3L75.8,166.7L80.8,167.2L85.5,166.6L87.1,165L87.1,163L85.4,160.9L79.9,155.6L75.5,150.9L70.5,147.2L66.6,145.8L65.6,144L65,141.9L65.6,138.4L65.7,133.7L66.6,130.9L70,125.4L73.2,119.5L75.3,114L76.3,108.7L76,107.2L74.3,106.2L70.7,105L65.7,106.1L61.5,107.9L59.7,108L59.2,105.7L59.9,104.7L61.3,104.8L62.3,105.2L63.5,104.2L64.2,101.1L62.5,90.1L65.6,89L65.7,87.5L65.9,86.1L69.1,88L73.8,88L77.9,87.6L78.5,86.6L78.4,85L77.5,83.8L76.1,82.7L75.1,81.2L72.4,80.6L63.8,76.7L59.7,72.4L59.7,67.9L60.9,65.4L62.5,64.6L62.1,63.7L57.2,61.6L55.5,58.8L57,55L54.5,47.5L51.9,42.8L54.5,40.8L54.8,37.9L55,36.3L56,36.3L60.3,34.4L61.6,32.8L62.7,30.9L63.5,30.5L66.4,32.5L69.3,32.7L72.6,31.4L75.1,29.6L78,28.2L79.4,27.2L81.1,25.6L84.7,21L88.6,20L93.7,21.2L99.5,21.7L103.8,20.6L114.6,21.9L116.8,23L118.3,24.2L121.2,28.2L124,33.3L127.7,35.7L132.2,38.5L134.4,40.5L137.8,46.7L140.5,49.6L141.4,49.5L142.2,48.7L142.9,48.1L143.6,48.7L143.6,50.6L143.8,54.6L143.3,59L144.1,63.2L144.1,64.4L143.6,65.6L143.6,66.7L144.6,67.7L148.2,70.4L151.6,74.7L155.4,77.7L159.1,79.6L161.4,79.7L165.1,83.1L172.5,85.5L174.8,86.4L176.4,87.8L177.6,89.4L177.6,91L176.6,91.9L174.8,94.2L174.3,97.1L173.1,97.8L171.9,97.8L171.1,98.7L171.3,99.9L172.3,101.1L173.8,102.1L176.7,103.2L179.6,104.8L179.6,105.9L178.9,107.2L175.4,107.8L172.6,108L171.3,108.5L171.4,110.9L179.1,113.4L182.7,115.7L184.4,118.7L189.4,120.7L197.4,121.6L203,124.7L206.1,129.9L211.2,128.7L218.4,120.9L225.4,118.9L232.2,122.6L236,125.7L236.7,128L235,129L231.2,128.5L228,130L225.6,133.4L225.2,137L226.9,140.8L229.3,143.4L232.6,144.9L234.1,146.9L234.4,149.4Z"/></svg>
