<svg xmlns="http://www.w3.org/2000/svg" viewBox="0 0 400 300"><path d="M400,113.8L398.3,116.1L388,110.6L377.2,115.8L367,109.8L372.8,106.3L376.8,95L383,84.6L381.4,78.7L386.2,76L388.4,80.6L400,81.4L400,113.8ZM400,65.3L397.2,62.3L394,48.3L385.7,42.8L387.3,31.3L377.1,22.2L367.6,20.9L350.9,10.2L335.7,13.6L330.3,18.6L320.6,18.6L314.9,26.7L298.1,29.9L290.3,35.1L279.7,26.8L265.1,26.7L250.9,22.9L241.1,30.2L239.5,21.1L226.8,11.7L230.6,0L400,0Z" fill="#2c2c34" stroke="#474751" stroke-width="0.8"/><path d="M0,36.3L0,36.3L11,37.3L18.1,44.2L20.2,38.5L17,16.3L25.2,11.9L31.2,0L39.2,0L39.2,0L50.1,7.2L56.6,0L87.1,0L87.1,0L88.7,1L94.7,0L100.7,0L100.7,0L110,5.7L108.1,10.1L110.4,22L110.4,22L108.7,35.9L95.9,36L100.2,43.3L92.7,64.9L88.3,70.5L68.4,71.3L56.9,78.8L38.1,76.3L5.4,67.7L0.3,56.1L0,56.2L0,36.3Z" fill="#2c2c34" stroke="#474751" stroke-width="0.8"/><path d="M226.8,11.7L239.5,21.1L241.1,30.2L227.1,37.3L216.4,60.1L202.6,82.7L184.3,88.9L170.1,87.4L152.6,96L144,101L125.2,94.7L108.2,80.6L100.9,76.5L96.5,65.2L92.7,64.9L100.2,43.3L95.9,36L108.7,35.9L110.4,22L122,30.7L130.4,34.4L149.5,30.2L151.4,23.4L160.5,22.4L171.6,17.1L174,19.3L184.7,15L190.1,6.9L197.6,4.8L222,15.3Z" fill="#2c2c34" stroke="#474751" stroke-width="0.8"/><path d="M400,81.4L388.4,80.6L386.2,76L381.4,78.7L383,84.6L376.8,95L372.8,106.3L367,109.8L362.9,94.9L365.4,80.8L364.7,66.3L351.5,46.3L344.2,32.1L337.1,22L330.3,18.6L330.3,18.6L335.7,13.6L350.9,10.2L367.6,20.9L377.1,22.2L387.3,31.3L385.7,42.8L394,48.3L397.2,62.3L400,65.3L400,81.4Z" fill="#2c2c34" stroke="#474751" stroke-width="0.8"/><path d="M367,109.8L377.2,115.8L388,110.6L398.3,116.1L398.8,124.4L387.7,131.4L380.8,128.4L374.4,166.8L361,163.5L344.5,152L317.6,159.4L306.3,167.4L272.8,165.8L255.3,160.9L246.4,163.2L239.9,150.1L235.7,144.6L241,139.2L235.3,135.2L228.2,142.4L214.9,133.1L213.1,119.7L199.2,112.1L196.7,101.8L184.3,88.9L202.6,82.7L216.4,60.1L227.1,37.3L241.1,30.2L250.9,22.9L265.1,26.7L279.7,26.8L290.3,35.1L298.1,29.9L314.9,26.7L320.6,18.6L330.3,18.6L337.1,22L344.2,32.1L351.5,46.3L364.7,66.3L365.4,80.8L362.9,94.9Z" fill="#2c2c34" stroke="#474751" stroke-width="0.8"/><path d="M31.2,0L25.2,11.9L17,16.3L20.2,38.5L18.1,44.2L11,37.3L0,36.3L0,36.3L0,0Z" fill="#2c2c34" stroke="#474751" stroke-width="0.8"/><path d="M239.9,150.1L246.4,163.2L255.3,160.9L272.8,165.8L306.3,167.4L317.6,159.4L344.5,152L361,163.5L374.4,166.8L362.6,179.9L354.3,202.1L361.6,219.7L342,215.6L318.8,225.3L318.5,240.4L297.8,243.3L281.7,232.7L263.5,241.1L246.6,240.2L245,220L233.5,210.1L237.3,205.7L234.9,202.1L238.7,192.2L247.3,182.4L236.2,168.9L234.3,157.3Z" fill="#2c2c34" stroke="#474751" stroke-width="0.8"/><path d="M184.2,300L184.2,299.9L182.7,291.5L193.3,277.1L194.6,267.4L202.1,263.1L202.5,255.2L217.4,252.5L226.1,245.9L238.5,246.5L242.2,241.2L246.6,240.2L246.6,240.2L263.5,241.1L281.7,232.7L297.8,243.3L318.5,240.4L318.8,225.3L329.8,233.4L322.8,252.3L317.4,255.7L303.5,254.9L291.6,252L264,259.9L279.8,276.7L268.2,281.5L255.5,281.6L243.5,266.2L239.2,272.8L244.3,290.5L252.1,300L184.2,300Z" fill="#2c2c34" stroke="#474751" stroke-width="0.8"/><path d="M323.8,300L320,296.3L345.3,267.8L380.4,266.7L390,243.8L400,244.7L400,300ZM318.8,225.3L342,215.6L361.6,219.7L364.3,231.5L384.3,241.3L380.1,248.7L353,250.4L343.3,259.7L324.3,275.9L317.1,261.9L317.4,255.7L322.8,252.3L329.8,233.4Z" fill="#2c2c34" stroke="#474751" stroke-width="0.8"/><path d="M202.5,255.2L202.1,263.1L194.6,267.4L193.3,277.1L182.7,291.5L178.8,289.5L178.4,283L165.7,272.9L163.8,258.7L165.6,238L168.8,228.5L164.9,223.7L163.4,213.9L173.3,198.7L174.8,204.5L180.9,201.8L185.8,210.1L191.2,213.3L192.7,224.4L189.9,234.8L193.1,247.8Z" fill="#2c2c34" stroke="#474751" stroke-width="0.8"/><path d="M100.9,76.5L108.2,80.6L125.2,94.7L144,101L152.6,96L158.1,108.7L165.4,118L156.6,130.1L146.3,123L130.5,123.4L110.9,118L100.2,118.8L95.3,125.5L87.2,118L82.3,131.4L93.5,146.4L98.5,156.3L108.9,168.1L117.6,175L126.2,188.1L146.4,199.9L143.9,205.2L122.5,193.7L109.2,182.5L88.4,173.1L69.3,149.9L73.9,147.5L63.4,134L63,123.1L48.3,118L41.3,132L34.6,121.2L35.1,109.9L35.9,109.4L51.8,110.5L56,105L63.8,110.4L72.7,111L72.6,101.9L80.6,98.5L82.8,85.3Z" fill="#2c2c34" stroke="#474751" stroke-width="0.8"/><path d="M0,56.2L0.3,56.1L5.4,67.7L38.1,76.3L35.5,92.5L41,106.4L22.9,101.7L4.3,113.3L5.5,129.3L2.8,138.4L10.2,154.7L31.7,170.6L43.1,196.5L68.5,221.3L86.3,221.2L91.9,227.9L85.5,234L106,245L122.7,254.1L142.2,269.8L144.6,275.4L140.4,286L127.7,272.1L107.8,267.2L98.3,286.5L114.7,297.4L114.3,300L84.8,300L84.8,300L81.7,293.9L74.7,279L65.2,275.2L58.5,262.3L43.8,256.9L34,244.7L17,242.7L0,229.6L0,56.2Z" fill="#2c2c34" stroke="#474751" stroke-width="0.8"/><path d="M38.1,76.3L56.9,78.8L68.4,71.3L88.3,70.5L92.7,64.9L96.5,65.2L100.9,76.5L82.8,85.3L80.6,98.5L72.6,101.9L72.7,111L63.8,110.4L56,105L51.8,110.5L35.9,109.4L41,106.4L35.5,92.5Z" fill="#2c2c34" stroke="#474751" stroke-width="0.8"/><path d="M230.6,0L226.8,11.7L222,15.3L197.6,4.8L190.1,6.9L184.7,15L174,19.3L171.6,17.1L160.5,22.4L151.4,23.4L149.5,30.2L130.4,34.4L122,30.7L110.4,22L108.1,10.1L110,5.7L112.4,0L230.6,0Z" fill="#2c2c34" stroke="#474751" stroke-width="0.8"/><path d="M112.4,0L110,5.7L100.7,0L112.4,0ZM94.7,0L88.7,1L87.1,0L94.7,0ZM56.6,0L50.1,7.2L39.2,0L56.6,0Z" fill="#2c2c34" stroke="#474751" stroke-width="0.8"/><path d="M146.4,199.9L126.2,188.1L117.6,175L108.9,168.1L98.5,156.3L93.5,146.4L82.3,131.4L87.2,118L95.3,125.5L100.2,118.8L110.9,118L130.5,123.4L146.3,123L156.6,130.1L164.8,130L159.2,144.1L170.2,156.3L166.8,171.2L161.5,172.7L157.2,175.5L149.8,182.8Z" fill="#2c2c34" stroke="#474751" stroke-width="0.8"/><path d="M233.5,210.1L245,220L246.6,240.2L242.2,241.2L238.5,246.5L226.1,245.9L217.4,252.5L202.5,255.2L193.1,247.8L189.9,234.8L192.7,224.4L195.6,224.6L196.7,218.4L210.1,213.6L215.2,212.4L223,210.6Z" fill="#2c2c34" stroke="#474751" stroke-width="0.8"/><path d="M180.9,201.8L174.8,204.5L173.3,198.7L163.4,213.9L164.9,223.7L160.1,221.3L153.7,211.3L143.9,205.2L146.4,199.9L149.8,182.8L157.2,175.5L161.5,172.7L167.5,178L170.8,182.4L178.3,185.7L187,192.2L185.2,194.9Z" fill="#2c2c34" stroke="#474751" stroke-width="0.8"/><path d="M192.7,224.4L191.2,213.3L185.8,210.1L180.9,201.8L185.2,194.9L190.6,192.6L193.7,182.3L197.8,180.5L201.1,185L205.4,186.9L208.3,191.8L212.1,193.3L216.5,199.1L219.7,198.9L217.2,206.4L214.5,210.1L215.2,212.4L210.1,213.6L196.7,218.4L195.6,224.6Z" fill="#2c2c34" stroke="#474751" stroke-width="0.8"/><path d="M240.9,150L240.1,150.6L239.2,151.4L238.6,152.9L238.5,155.2L235.6,157L234.4,157.4L233.9,158.5L233.2,161.9L233.3,164.5L233.7,165.8L233.9,166.9L234.9,168.1L235.7,170.2L236.2,172.8L237.6,174.8L240.8,176.8L242.4,178L243.6,179.7L244.5,181.1L247.2,183.2L246.9,184.6L246.3,186L245.8,186.7L244.5,188.4L243.1,189.5L241,192.7L237.6,192.8L236.8,193.1L235.5,194L234.9,195.5L235.5,196.8L235.4,198.1L234.9,200.5L235.7,203.2L236.8,204.5L237,205.2L236.8,206.4L235,208.9L234.5,209.8L232.7,210.3L232.1,210.1L231.2,209.2L230.3,209L228.2,210L226.1,210.6L224.3,210.1L222.7,210L221.6,210.5L220.6,210.6L218.9,211.8L216.2,212.5L214.9,212.3L214.4,211.3L213.9,209.9L214.2,209.2L216,208.1L216.2,206.9L218.8,201.6L219.3,199.9L219.3,199.3L218.6,198.9L217.2,198.9L211,196.8L211.3,194.3L209.5,192.9L207.5,191.7L207.2,190.4L205,187.7L203.4,186.2L201.4,185.4L199.5,184.3L198.6,183.6L198.1,182.4L198.1,181.6L197.5,180.9L196.7,181L195.3,181.9L193.5,182.8L193.1,183.5L193.8,185L194.3,185.9L194,186.8L193.5,188L190.1,190.5L189.7,191.4L190.4,192.8L189.9,193.5L187.2,194.4L187.2,193.6L187,192.4L185.4,191L183.1,190L178,186.5L176.1,186L174.3,185.6L171.8,183.9L170.5,183.6L169,182.4L165.9,178.3L163.3,176.1L161.5,175L161,173.8L160.8,172.7L160.9,172.4L162.3,170.7L163.3,170.5L164.7,170.4L165.6,171.3L166.8,171.4L167.4,170.4L167.8,168.9L167.6,167L164.7,162.5L162.4,159.4L162,158.7L162.6,158.1L163.4,157.8L164.3,158L166.7,158.3L169,158L169.7,157.2L169.7,156.2L168.9,155.2L166.3,152.7L164.2,150.4L161.8,148.7L159.9,148L159.4,147.1L159.2,146.1L159.4,144.4L159.5,142.2L159.9,140.8L161.5,138.2L163.1,135.3L164.1,132.7L164.6,130.2L164.4,129.4L163.6,128.9L161.9,128.4L159.5,128.9L157.4,129.8L156.6,129.8L156.4,128.7L156.7,128.2L157.3,128.3L157.8,128.5L158.4,128L158.7,126.5L157.9,121.2L159.4,120.7L159.5,120L159.6,119.3L161.1,120.2L163.3,120.2L165.3,120L165.6,119.5L165.6,118.7L165.1,118.2L164.5,117.7L164,116.9L162.7,116.7L158.6,114.7L156.6,112.7L156.6,110.5L157.2,109.3L157.9,108.9L157.8,108.5L155.4,107.5L154.6,106.2L155.3,104.3L154.1,100.7L152.8,98.4L154.1,97.5L154.2,96.1L154.3,95.3L154.8,95.3L156.9,94.4L157.5,93.7L158,92.8L158.4,92.5L159.8,93.5L161.2,93.6L162.8,93L164,92.1L165.4,91.4L166.1,91L166.9,90.2L168.6,88L170.5,87.5L172.9,88.1L175.7,88.3L177.8,87.8L183,88.4L184,88.9L184.8,89.5L186.2,91.4L187.5,93.9L189.3,95L191.4,96.4L192.5,97.4L194.1,100.3L195.4,101.7L195.9,101.7L196.3,101.3L196.6,101L196.9,101.3L196.9,102.2L197,104.1L196.8,106.3L197.2,108.2L197.2,108.9L196.9,109.4L196.9,109.9L197.4,110.5L199.1,111.7L200.8,113.8L202.6,115.2L204.4,116.1L205.5,116.2L207.3,117.8L210.8,119L211.9,119.4L212.7,120.1L213.3,120.9L213.3,121.7L212.8,122L211.9,123.2L211.7,124.6L211.1,124.9L210.6,124.9L210.1,125.4L210.2,125.9L210.7,126.5L211.5,127L212.8,127.5L214.2,128.3L214.2,128.8L213.9,129.4L212.2,129.7L210.9,129.8L210.2,130L210.3,131.2L214,132.4L215.7,133.5L216.5,135L218.9,135.9L222.8,136.3L225.5,137.9L227,140.4L229.4,139.7L232.9,136L236.2,135.1L239.5,136.9L241.3,138.3L241.7,139.4L240.8,139.9L239,139.7L237.5,140.4L236.3,142L236.2,143.7L237,145.6L238.1,146.8L239.7,147.6L240.4,148.5L240.6,149.7Z" fill="#b8e653" stroke="#0c0e06" stroke-width="1"/></svg>
