<svg xmlns="http://www.w3.org/2000/svg" viewBox="0 0 300 300"><path fill="#e8e8ea" d="M20,142.8L20,142.8L20.1,142.9L20.3,142.9L20.4,142.9L20.4,142.9L20.5,143.1L20.5,143.1L20.8,143.2L20.9,143.4L21.1,143.6L21,143.5L20.9,143.4L20.9,143.6L20.9,143.7L21.1,143.7L21.3,143.8L21.4,143.9L21.4,144L21.4,144.1L21.4,144.2L21.5,144.2L21.6,144.1L21.5,144L21.2,143.7L21.2,143.6L21.3,143.7L21.7,144L21.8,144.2L21.7,144.2L21.7,144.3L21.7,144.3L21.8,144.3L21.9,144.3L22,144.3L22,144.4L22.2,144.5L23.4,145.3L23.4,145.5L23.4,145.6L23.4,145.6L23.4,145.8L23.3,145.9L23.5,145.9L23.5,145.9L23.6,145.8L23.6,145.8L23.7,145.9L23.7,146L23.7,146.1L23.7,146.2L23.7,146.4L23.7,146.6L23.7,146.7L23.8,146.8L23.8,147L23.7,147.1L23.7,147.3L23.7,147.3L23.8,147.3L23.9,147.4L24,147.5L24,147.5L24,147.7L24,147.8L24,147.8L24.1,147.8L24.1,147.7L24.2,147.6L24.3,147.6L24.3,147.7L24.3,148L24.3,148L24.3,148L24.4,147.9L24.4,147.9L24.5,147.8L24.5,147.6L24.4,147.5L24.4,147.5L24.3,147.5L24.2,147.4L24.2,147.3L24.2,147.2L24.3,147.2L24.3,147L24.3,146.9L24.3,146.8L24.3,146.7L24.2,146.6L24.1,146.6L24.1,146.5L24,146.5L24,146.5L23.9,146.5L23.9,146.4L24,146.4L24.4,146.4L24.6,146.3L24.6,146.4L24.7,146.4L24.9,146.5L24.9,146.5L24.9,146.5L24.8,146.7L24.8,146.8L24.8,146.9L24.9,146.9L24.9,146.9L24.9,146.8L24.9,146.7L24.9,146.6L25,146.6L25,146.7L25.1,146.7L25.3,146.8L25.4,146.7L25.4,146.7L25.4,146.7L25.1,146.5L25,146.5L25.3,146.6L25.5,146.6L25.6,146.7L25.8,146.7L25.9,146.7L26.1,146.9L26.2,147.2L26.4,147.4L26.6,147.5L26.8,147.8L26.9,147.8L26.9,147.9L26.8,147.9L26.8,148L26.9,147.9L27,147.9L27,147.9L27,147.9L27.1,148L27.1,148.1L27,148.1L27.3,148.1L27.4,148.2L27.4,148.3L27.3,148.4L27.3,148.4L27.3,148.4L27.2,148.4L27.1,148.4L26.9,148.5L26.8,148.7L26.8,148.7L26.8,148.9L26.8,149L26.7,149.1L26.6,149.1L26.5,149L26.4,149L26.3,148.9L26.2,148.8L26.2,148.8L26.2,148.8L26.2,148.9L26.3,149L26.4,149.1L26.5,149.2L26.4,149.3L26.4,149.3L26.3,149.3L26.2,149.3L26.2,149.2L25.9,149.3L25.8,149.3L25.8,149.3L25.8,149.2L25.7,149.2L25.6,149.2L25.6,149.2L25.5,149.1L25.5,149L25.3,149L25.3,149L25.2,149L25.4,149.1L25.5,149.3L25.5,149.3L25.5,149.4L25.6,149.4L25.6,149.4L25.6,149.4L25.6,149.6L25.6,149.7L25.3,149.7L25.4,149.8L25.4,149.8L25.5,149.8L25.6,149.8L25.6,149.9L25.6,150.1L25.6,150.2L25.5,150.2L25.4,150.3L25.2,150.4L25.1,150.4L25.1,150.4L25,150.4L25,150.5L25.1,150.4L25.1,150.5L25.2,150.5L25.2,150.6L25.1,150.6L25.1,150.7L25.1,150.7L25.1,150.8L25.2,150.8L25.2,150.8L25.3,150.9L25.4,150.9L25.5,151L25.5,151.1L25.5,151.1L25.5,151.2L25.3,151.2L25.2,151.2L25.2,151.1L25.2,151L25.1,151L25.1,151L25.1,151.2L25.1,151.3L25,151.4L24.9,151.4L24.9,151.4L24.8,151.3L24.8,151.2L24.8,151.1L24.8,151L24.8,150.9L24.8,151L24.7,151.1L24.6,151.2L24.6,151.3L24.5,151.2L24.4,151.2L24.3,151.1L24.2,150.9L24.1,150.8L23.9,150.6L23.7,150.5L23.6,150.5L23.5,150.5L23.4,150.5L23.3,150.5L23.3,150.5L23.3,150.4L23.2,150.4L23.1,150.3L23,150.1L23,150.1L23,150L23,149.8L22.9,149.6L22.8,149.4L22.5,149.2L22.2,149.1L22.1,149.1L22,149.1L21.8,149.3L21.7,149.3L21.2,149.3L21.1,149.3L21.1,149.2L21.1,149.1L21.1,149L21.1,148.9L21.1,148.9L21,148.9L21,148.8L20.9,148.7L20.8,148.5L20.8,148.4L20.8,148.4L20.9,148.4L20.9,148.4L20.9,148.2L21,148.1L21,148.1L21.1,147.9L21.1,147.7L21,147.8L20.9,148L20.9,148.1L20.8,148.1L20.8,148.1L20.7,148.1L20.6,148L20.6,147.8L20.6,147.8L20.6,147.8L20.6,147.9L20.5,147.9L20.5,147.9L20.5,148L20.5,148.1L20.4,148.2L20.3,148.2L20.2,148.1L20.2,148.2L20.2,148.4L20.2,148.6L20.2,148.8L20.3,148.9L20.4,149L20.5,149.1L20.5,149.2L20.5,149.3L20.4,149.4L20.3,149.5L20.3,149.7L20.2,149.8L20,150L20,150L20,142.8ZM280,150L279.9,150.1L279.7,150.3L279.6,150.5L279.4,150.5L279.1,150.8L278.9,150.8L278.8,150.7L278.4,150.6L278.3,150.5L278.1,150.3L278,150.2L278,150.1L277.7,150L277.6,150.1L277.4,150L277.4,150.1L277.4,150.1L277.6,150.2L277.8,150.1L277.9,150.2L277.9,150.3L278,150.4L277.9,150.5L277.9,150.5L277.7,150.4L277.5,150.4L277.4,150.4L277.2,150.2L277,150.4L276.7,150.5L276.5,150.5L276.1,150.7L276.2,150.7L276.5,150.6L276.6,150.6L276.9,150.5L277,150.5L277.1,150.4L277.2,150.3L277.2,150.4L277.3,150.4L277.3,150.5L277.4,150.7L277.3,150.7L277.3,150.8L277.2,150.9L277.5,150.7L277.6,150.8L277.7,150.8L277.9,150.6L278.1,150.5L278.1,150.6L278.2,150.6L278.1,150.9L278.1,151.1L278.3,151.3L278.5,151.5L278.6,151.5L278.7,151.5L278.7,151.3L278.7,151.2L278.8,151.3L278.8,151.4L278.9,151.6L278.9,151.7L278.9,151.8L278.9,151.9L279,151.9L279.1,152.1L279.1,152.4L279,152.4L279,152.4L278.9,152.5L278.9,152.5L279,152.6L279.1,152.6L279,152.8L279,152.8L279.1,152.8L279.1,152.8L279.1,152.6L279.1,152.6L279.2,152.8L279.2,152.9L279.3,153L279.5,153.2L279.6,153.2L279.6,153.3L279.5,153.4L279.5,153.4L279.5,153.6L279.6,153.6L279.6,153.7L279.7,153.8L279.7,154L279.6,154.1L279.5,154.2L279.4,154.3L279.4,154.4L279.4,154.5L279.3,154.5L279.3,154.5L278.6,154.2L278.3,154.1L278.1,154.1L278,154.1L278,154L278.1,154L278.1,153.9L278.1,153.8L278.1,153.8L278,153.9L278,153.9L277.9,153.8L277.9,153.8L277.8,153.9L277.8,153.9L277.8,154L277.8,154.1L278,154.1L277.9,154.2L277.8,154.2L277.6,154.2L277.4,154.4L277.3,154.5L276.8,154.7L276.7,154.8L276.7,154.8L276.6,154.9L276.5,155L276.2,155.1L276.2,155.1L276.1,155.2L276,155.3L275.9,155.3L275.8,155.3L275.5,155.5L275.4,155.5L275.2,155.7L275,155.9L275,155.9L274.8,155.8L274.8,155.9L274.8,156L274.9,156.1L274.8,156.1L274.8,156.1L274.8,156.1L274.7,156.1L274.7,156.2L274.6,156.3L274.6,156.3L274.5,156.3L274.5,156.4L274.5,156.4L274.4,156.5L274.3,156.7L274.2,156.7L274.2,156.7L274.1,156.8L274,156.8L273.9,156.9L273.5,157.2L273.4,157.3L273.2,157.4L273.2,157.4L273.2,157.5L273.1,157.6L273.1,157.9L273.1,158L273,158.1L272.9,158L272.8,157.9L272.7,157.9L272.7,157.8L272.7,157.7L272.7,157.6L272.6,157.6L272.5,157.4L272.3,157.2L272.2,157.1L271.9,157.2L271.8,157.2L271.7,157.1L271.4,157.2L271.2,157.3L271.1,157.3L270.8,157.4L270.6,157.6L270.2,158.1L270.1,158.2L270.1,158.2L270,158.2L270,158.1L270,158L270,157.9L270.1,157.7L270.1,157.5L270.1,157.4L270.1,157.3L270,157.3L269.8,157.5L269.6,157.7L269.5,157.7L269.4,157.8L269.3,157.8L269.2,157.9L269.2,158.1L269.2,158.2L269.1,158.2L269.1,158.2L269,158.2L268.9,158L268.8,157.9L268.8,157.9L268.7,157.9L268.6,158L268.5,158.2L268.5,158L268.5,158L268.4,158L268.3,157.9L268.3,158L268.2,158L268.1,158.1L268.1,158.2L268,158.2L268,158.3L268,158.4L267.9,158.7L267.9,159L267.8,159.2L267.7,159.2L267.7,159.2L267.7,159.3L267.7,159.4L267.7,159.4L267.7,159.5L267.6,159.5L267.5,159.7L267.3,159.8L267.1,160.2L267,160.4L267,160.7L267,160.8L267,160.9L267.1,161L267.1,161L267.3,161.1L267.3,161.2L267.3,161.2L267.3,161.1L267.4,160.9L267.5,160.9L267.5,160.9L267.8,161L267.9,161.1L267.9,161.2L267.9,161.3L267.8,161.4L267.7,161.5L267.6,161.7L267.6,161.8L267.6,161.8L267.6,162L267.6,162.1L267.6,162.3L267.6,162.4L267.6,162.5L267.7,162.5L267.8,162.5L267.8,162.5L267.9,162.6L267.9,162.7L267.9,162.9L268,163.2L267.9,163.2L267.9,163.3L267.8,163.4L267.7,163.4L267.6,163.4L267.5,163.2L267.5,163L267.6,162.9L267.7,162.9L267.7,162.8L267.7,162.8L267.6,162.8L267.5,162.8L267.4,162.9L267.4,162.9L267.4,163.1L267.3,163.2L267.2,163.2L267.1,163.3L267.1,163.3L266.9,163.7L266.8,163.9L266.8,164.1L266.8,164.3L266.8,164.5L266.9,164.6L267,164.7L267.1,164.9L267.1,165.1L267,165.1L266.8,165.3L266.7,165.3L266.5,165.3L266.4,165.2L266.2,165.3L266.1,165.3L265.9,165.5L265.8,165.6L265.6,165.8L265.6,165.8L265.5,166L265.4,166.2L265.5,166.4L265.5,166.4L265.5,166.5L265.5,166.7L265.5,166.7L265.6,166.9L265.6,167L265.5,167L265.4,166.9L265.3,166.9L264.9,167.1L264.8,167.1L264.6,167.3L264.6,167.3L264.6,167.2L264.5,167.1L264.5,167.2L264.4,167.2L264.5,167.3L264.6,167.3L264.5,167.6L264.5,167.6L264.5,167.8L264.5,167.9L264.4,168L264.4,168.3L264.2,168.6L264,168.8L263.8,168.9L263.8,169L263.7,169.1L263.5,169.3L263.3,169.5L263.2,169.6L263.2,169.5L263.2,169.4L263.2,169.3L263.1,169.2L263,169.1L263,169L263,168.5L262.9,168L262.9,167.8L262.8,167.6L262.8,167.5L262.7,167.4L262.7,167.2L262.6,166.3L262.6,166.1L262.5,165.3L262.4,164.9L262.4,164.5L262.3,164.3L262.4,163.7L262.5,163.4L262.7,162.6L262.7,162.5L262.7,162.4L263,162.1L263.2,162L263.3,161.8L263.4,161.5L263.4,161.4L263.4,161.3L263.3,161.2L263.2,161.2L263.3,161.1L263.3,161.1L263.4,161L263.5,161.1L263.7,161.1L263.9,160.8L264.1,160.8L264.3,160.8L264.3,160.8L264.3,160.7L264.4,160.6L264.6,160.4L264.9,160.2L265,160.1L265.1,160L265.2,159.9L265.3,159.7L265.4,159.3L265.8,158.9L266,158.7L266.1,158.6L266.2,158.5L266.4,158.2L266.6,158L266.8,157.8L266.9,157.7L267,157.4L267,157.3L267.2,157.2L267.5,157L267.7,156.9L268,156.8L268.1,156.8L268.1,156.7L268.2,156.7L268.1,156.5L268.1,156.4L268.2,156.4L268.4,156.2L268.4,156L268.4,156L268.4,155.9L268.3,155.8L268.3,155.7L268.4,155.6L268.5,155.5L268.5,155.2L268.5,155L268.6,154.6L268.7,154.5L268.9,154.3L268.9,154.3L269.1,154.4L269.3,154.4L269.3,154.4L269.3,154.4L269.3,154.3L269.4,154.3L269.5,154.3L269.5,154.3L269.2,154.2L269,154.1L268.9,154L268.7,153.9L268.6,153.9L268,154.2L267.9,154.2L267.9,154.3L267.9,154.4L267.9,154.5L267.9,154.5L267.8,154.6L267.8,154.8L267.8,154.9L267.7,155.2L267.7,155.3L267.9,155.4L267.9,155.5L267.9,155.6L267.8,155.6L267.8,155.7L267.8,155.7L267.7,155.7L267.7,155.6L267.6,155.5L267.5,155.5L267.5,155.5L267.5,155.6L267.4,155.6L267.4,155.5L267.3,155.5L267.1,155.7L266.3,156.6L266.2,156.7L266.1,156.9L265.9,156.9L265.8,157L265.8,157L265.7,157.1L265.7,157L265.7,156.9L265.7,156.8L265.8,156.5L265.8,156.5L265.7,156.5L265.6,156.5L265.5,156.6L265.4,156.6L265.4,156.5L265.5,156.3L265.5,156.2L265.5,156.1L265.5,156.1L265.7,155.7L265.7,155.6L265.8,155.3L265.8,155.3L265.8,155.2L265.7,155.2L265.7,155.2L265.4,155.4L265.2,155.5L265.2,155.4L265.1,155.3L265,155.2L265,155.1L264.9,155.1L264.7,155.3L264.5,155.3L264.4,155.3L264.2,155.4L264.2,155.4L264,155.3L263.7,155.3L263.7,155.4L263.5,155.5L263.3,155.7L263.2,155.7L263.2,155.8L263.1,156.1L263,156.2L262.9,156.3L262.7,156.5L262.6,156.9L262.5,157L262.3,157.2L261.9,157.5L261.6,157.9L261.5,158.2L261.5,158.2L261.4,158.2L261.4,158.4L261.4,158.5L261.4,158.6L261.3,158.7L261.4,158.7L261.4,158.8L261.5,158.8L261.6,158.7L261.9,158.8L262.1,158.9L262.1,159.1L262.1,159.2L262,159.2L261.8,159.2L261.7,159.2L261.6,159.1L261.5,159.2L261.4,159.3L261.2,159.3L261.1,159.3L261,159.1L260.8,159.1L260.7,159.3L260.6,159.3L260.6,159.3L260.4,159.5L260.4,159.5L260.2,159.5L260.1,159.4L260,159.4L259.9,159.4L259.8,159.6L259.6,159.6L259.3,159.6L259.1,159.3L259.4,159.2L259.6,159.2L259.8,159.2L260,159.1L259.9,159L259.9,159L259.7,159L259.6,159L259.4,158.7L259.3,158.6L259.2,158.6L259.1,158.6L259,158.6L259,158.7L259,158.8L258.9,158.8L258.9,158.8L258.8,158.7L258.7,158.7L258.7,158.7L258.8,158.6L258.7,158.6L258.6,158.5L258.5,158.5L258.1,158.3L257.9,158.4L257.8,158.4L257.7,158.5L257.7,158.6L257.7,158.7L257.8,158.7L257.7,158.8L257.6,158.8L257.5,158.7L257.4,158.8L257.4,158.9L257.5,158.9L257.6,158.9L257.5,159L257.4,159.1L257.2,159.1L257.1,158.8L256.8,158.9L256.7,159L256.5,159.1L256.2,158.9L256,158.9L255.8,158.8L255.8,158.8L255.6,159.1L255.5,159.2L255.4,159.2L255.3,159L255.3,158.9L255.1,158.8L254.3,158.9L254.1,158.9L253.9,158.8L253.7,158.9L253.4,158.9L253,159.1L252.8,159.2L252.6,159.4L252.4,159.8L252.3,159.9L252.1,160.1L251.8,160.2L251.7,160.4L251.6,160.5L251.5,161L251.4,161.1L251.1,161.2L251,161.4L251,161.5L250.8,161.5L250.8,161.7L250.7,161.7L250.5,161.8L250.4,162L250.1,162.2L249.8,162.6L249.8,162.7L249.8,162.8L249.7,162.9L249.4,163.3L249.4,163.3L249.2,163.5L249.1,163.6L249,163.7L248.8,163.9L248.6,164L248.5,164.1L248.4,164.3L248,164.5L247.9,164.6L247.7,164.8L247.7,164.9L247.7,164.9L247.7,165.1L247.7,165.1L247.8,165.1L248.1,165.3L248.4,165.2L248.6,165.2L248.7,165.2L248.8,165.2L248.8,165.3L248.8,165.4L248.8,165.5L248.8,165.9L248.7,166.1L248.7,166.2L248.8,166.3L248.9,166.2L249,166.2L249.1,166.2L249.1,166L249.1,165.9L249,165.8L249,165.8L249.2,165.6L249.3,165.6L249.4,165.6L249.3,165.8L249.3,165.8L249.2,165.8L249.2,165.9L249.3,166L249.4,166L249.5,166L249.5,166.1L249.4,166.1L249.3,166.3L249.2,166.4L249.1,166.5L249.1,166.5L249.2,166.5L249.5,166.5L249.6,166.5L249.9,166.3L249.9,166.1L250,166L250,166L250.1,166L250.1,166.2L250,166.4L249.9,166.5L249.8,166.6L249.9,166.6L250,166.5L250,166.5L250.1,166.3L250.2,166.1L250.2,165.9L250.2,165.8L250.2,165.7L250.1,165.6L250.2,165.6L250.5,165.7L250.6,165.7L250.9,165.6L251,165.7L251,165.7L251.2,165.9L251.3,166L251.4,166.2L251.6,166.5L251.8,166.6L251.8,166.7L252,166.8L252.1,166.8L252.1,167L252.1,167.1L252,167.2L251.8,167.1L251.7,167.1L251.7,167.2L251.9,167.3L252,167.4L252,167.6L252,167.7L251.9,167.9L252,168L252.1,168.1L252.1,168.1L252.2,168.2L252.1,168.3L252.1,168.5L252,168.5L251.9,168.7L251.8,168.8L251.7,169.1L251.6,169.3L251.6,169.5L251.6,169.6L251.5,169.8L251.5,170.1L251.5,170.5L251.5,170.6L251.6,170.6L251.6,170.6L251.5,170.6L251.4,170.8L251.4,170.9L251.5,170.9L251.5,171.1L251.4,171.4L251.4,171.5L251.4,171.5L251.4,171.6L251.3,171.7L251.3,171.7L251.4,171.8L251.4,171.8L251.3,172L251.2,172.3L251.2,172.4L251.1,172.5L250.9,172.7L250.9,172.8L250.8,172.9L250.7,173L250.5,173.3L250.4,173.5L250.1,173.9L250.1,174L250,174.1L249.9,174.2L249.9,174.4L249.8,174.5L249.7,174.7L249.5,175.1L249.4,175.2L249.3,175.4L249.1,175.6L248.8,175.9L248.8,176L248.7,176.1L248.6,176.2L248.4,176.4L248.4,176.5L248.3,176.6L248.2,176.6L248.1,176.7L247.9,177.1L247.9,177.1L247.8,177.2L247.7,177.4L247.6,177.5L247.4,177.6L247.3,177.8L246.9,178L246.8,178.1L246.6,178.2L246.5,178.2L246.3,178.3L246.2,178.3L246.1,178.3L246.1,178.2L246,178.2L246,178.2L245.8,178.2L245.8,178.2L245.7,178.1L245.6,178.2L245.6,177.8L245.6,177.7L245.5,177.8L245.4,177.9L245.3,177.9L245.2,177.9L245.3,177.9L245.3,177.8L245.3,177.7L245.3,177.7L245.2,177.8L245.1,177.8L245,178L244.9,178.2L244.8,178.3L244.8,178.3L244.7,178.4L244.6,178.4L244.6,178.4L244.4,178.4L244.4,178.4L244.5,178.5L244.4,178.7L244.4,178.7L244.4,178.7L244.4,178.7L244.4,178.7L244.3,178.6L244.3,178.6L244.3,178.5L244.3,178.5L244.3,178.4L244.3,178.4L244.2,178.3L244.2,178.3L244.2,178.3L244.2,178.3L244.2,178.3L244.3,178.2L244.4,178.2L244.5,178.2L244.5,178.2L244.6,178.2L244.6,178.2L244.7,178.1L244.7,178.1L244.7,178L244.7,178L244.7,177.9L244.7,177.9L244.8,177.8L244.8,177.7L244.8,177.7L244.8,177.6L244.8,177.6L244.8,177.6L244.7,177.5L244.7,177.5L244.7,177.4L244.7,177.3L244.8,177L244.8,177L244.7,176.6L244.7,176.4L244.7,176.4L244.6,176.3L244.6,176.2L244.6,176.2L244.6,176.1L244.7,176.1L244.8,176.1L244.8,176.1L244.9,176L245,176L245,175.9L245.1,175.9L245.1,175.8L245.1,175.8L245.2,175.7L245.2,175.7L245.3,175.8L245.3,175.8L245.4,175.8L245.5,175.8L245.6,175.9L245.7,175.9L245.8,175.9L245.9,175.9L245.9,176L246,176L246,176L246.1,176L246.1,175.9L246.1,175.8L246.1,175.7L246.2,175.5L246.2,175.5L246.3,175.5L246.3,175.4L246.4,175.4L246.4,175.4L246.4,175.3L246.4,175.3L246.4,175.2L246.4,175.1L246.5,175.1L246.5,175.1L246.5,175L246.6,175L246.6,174.9L246.6,174.9L246.6,174.8L246.7,174.8L246.7,174.7L246.7,174.7L246.7,174.7L246.7,174.6L246.7,174.6L246.7,174.5L246.7,174.4L246.8,174.3L246.8,174.1L246.8,174.1L246.8,174L246.8,174L246.9,173.9L246.9,173.8L246.9,173.7L246.9,173.7L246.9,173.6L246.9,173.6L247,173.6L247,173.5L247,173.5L247.1,173.5L247.1,173.5L247.2,173.4L247.2,173.4L247.3,173.3L247.3,173.2L247.3,173.2L247.3,173.1L247.2,173L247.2,172.9L247.2,172.9L247.2,172.8L247.2,172.8L247.3,172.7L247.3,172.7L247.3,172.6L247.2,172.5L247.1,172.5L247,172.5L247,172.5L246.9,172.5L246.7,172.6L246.5,172.7L246.5,172.7L246.4,172.8L246.3,172.8L246.2,172.8L246.1,172.8L246,172.9L245.9,172.9L245.8,172.9L245.8,173L245.7,173.1L245.7,173.2L245.6,173.2L245.4,173.2L245.2,173.2L245,173.2L244.9,173.2L244.8,173.2L244.7,173.2L244.6,173.2L244.6,173.2L244.6,173.1L244.6,173.1L244.5,173L244.4,172.9L244.4,172.7L244.5,172.6L244.5,172.5L244.4,172.5L244.4,172.4L244.4,172.4L244.3,172.3L244.3,172.2L244.3,172.1L244.3,172L244.3,171.9L244.1,171.9L244,171.9L243.9,171.8L243.7,171.6L243.7,171.5L243.6,171.5L243.6,171.4L243.5,171.4L243.5,171.4L243.4,171.4L243.4,171.4L243.4,171.4L243.3,171.4L243.3,171.4L243.3,171.4L243.2,171.4L243.2,171.3L243.1,171.3L243,171.3L243,171.2L243,171.2L243,171.2L243,171.1L242.8,171.1L242.6,171.2L242.4,171.2L242.3,171.1L242.2,171L242.2,171L242.2,170.9L242.1,170.9L242.1,170.8L242.1,170.7L242.1,170.6L242.1,170.4L242,170.3L242,170.3L242,170.2L242,170.2L241.9,170.2L241.9,170.1L242,170.1L242,170L241.9,169.9L241.9,169.7L241.7,169.6L241.7,169.4L241.7,169.3L241.6,169.3L241.6,169.2L241.6,169.2L241.6,169.1L241.6,169.1L241.6,169L241.6,169L241.6,168.9L241.5,168.9L241.5,168.8L241.5,168.7L241.5,168.6L241.4,168.5L241.3,168.3L241.3,168.2L241.3,168.2L241.3,168.1L241.3,168L241.2,168L241.2,168L241.2,168L241.2,167.9L241.2,167.9L241.1,167.8L241.1,167.8L241.1,167.7L241,167.7L241,167.7L241,167.6L241,167.6L241,167.6L241,167.5L241,167.5L241,167.5L241,167.4L240.9,167.4L240.8,167.3L240.8,167.3L240.8,167.3L240.8,167.3L240.8,167.2L240.7,167.1L240.7,167.1L240.7,167.1L240.6,167.1L240.4,167L240.3,167L240.3,167L240.2,167L240.2,167L240.1,167L240,166.9L239.9,166.9L239.8,166.9L239.8,166.8L239.7,166.8L239.7,166.8L239.6,166.7L239.4,166.6L239.3,166.5L239.2,166.6L239.2,166.6L239.2,166.6L239.1,166.6L239.1,166.5L238.9,166.5L238.8,166.6L238.6,166.6L238.5,166.6L238.4,166.6L238.4,166.6L238.2,166.7L237.9,166.7L237.7,166.8L237.4,166.9L237.2,167L237,167.2L236.8,167.4L236.7,167.5L236.7,167.5L236.7,167.6L236.8,167.7L236.9,167.6L237,167.7L237.1,167.7L237.2,167.8L237.1,167.9L237.1,168L237.2,168.1L237.2,168.3L237.2,168.4L237,168.6L236.8,168.7L236.7,168.9L236.6,169.1L236.5,169.2L236.5,169.3L236.5,169.4L236.4,169.5L236.4,169.6L236.3,169.7L236.3,169.8L236.3,169.9L236.2,170L236.1,170L236.1,170.1L236.1,170.2L236.1,170.2L236.1,170.3L236.2,170.3L236.2,170.4L236.2,170.5L236.1,170.6L236.1,170.7L235.9,170.7L235.8,170.7L235.5,170.9L235.4,171L235.1,171.2L235.1,171.2L235,171.2L234.8,171.1L234.7,171.1L234.5,171L234.4,171L234.3,170.9L234.2,170.8L234.2,170.8L234,170.7L233.9,170.7L233.9,170.7L233.7,170.7L233.6,170.8L233.6,170.8L233.5,170.8L233.4,170.8L233.3,170.8L233.3,170.7L233.1,170.6L233.1,170.5L233,170.5L232.9,170.4L232.8,170.4L232.7,170.4L232.6,170.4L232.5,170.4L232.5,170.4L232.4,170.5L232.2,170.6L232.1,170.6L232,170.7L231.9,170.7L231.8,170.8L231.7,170.9L231.7,171L231.7,171.1L231.5,171.2L231.5,171.2L231.4,171.2L231.2,171.2L231.2,171.2L230.9,171.3L230.8,171.3L230.8,171.3L230.7,171.4L230.6,171.4L230.5,171.4L230.5,171.4L230.4,171.4L230.3,171.5L230,171.6L230,171.6L229.9,171.6L229.8,171.6L229.8,171.6L229.7,171.6L229.6,171.6L229.4,171.6L229.3,171.5L229.1,171.5L229.1,171.5L228.9,171.4L228.7,171.4L228.5,171.4L228.4,171.4L228.4,171.4L228.3,171.4L228.2,171.2L228.1,171.2L228,171.1L228,171.1L228,171.1L228,171L228,171L228,170.9L228,170.8L227.9,170.7L227.8,170.7L227.7,170.7L227.5,170.7L227.4,170.7L227.4,170.6L227.3,170.6L227.2,170.5L227.2,170.4L227.1,170.3L227,170.3L226.8,170.3L226.7,170.3L226.6,170.3L226.6,170.3L226.5,170.2L226.3,170.2L226.2,170.2L226.1,170.1L226,170.2L226,170.2L225.9,170.2L225.8,170.2L225.6,170.3L225.5,170.3L225.4,170.3L225.4,170.4L225.3,170.4L225.2,170.5L225.2,170.5L225.1,170.5L225,170.5L225,170.5L224.9,170.5L224.8,170.5L224.7,170.5L224.7,170.5L224.6,170.5L224.6,170.4L224.5,170.4L224.4,170.3L224.3,170.3L224.2,170.3L224.2,170.2L224.1,170.2L224,170.1L224,170.1L223.9,170.1L223.9,170L223.9,170L223.9,169.9L223.9,169.9L223.9,169.8L223.8,169.8L223.8,169.7L223.8,169.7L223.8,169.6L223.8,169.5L223.8,169.4L223.8,169.3L223.8,169.2L223.8,169.2L223.7,169.1L223.7,169.1L223.5,169.1L223.4,169L223.3,169L223.2,169L223.2,169L223.1,169L223,168.9L222.9,168.8L222.7,168.8L222.6,168.7L222.6,168.7L222.4,168.7L222.2,168.7L222.2,168.7L222.1,168.6L222,168.5L221.9,168.5L221.9,168.5L221.8,168.5L221.6,168.4L221.6,168.3L221.5,168.3L221.5,168.3L221.4,168.2L221.4,168.3L221.4,168.4L221.3,168.5L221.2,168.6L221,168.7L221,168.8L221,168.8L220.9,168.9L220.9,169L220.9,169L220.9,169L220.8,169L220.8,169.1L220.7,169.1L220.7,169.2L220.7,169.3L220.7,169.3L220.7,169.4L220.7,169.5L220.7,169.6L220.7,169.6L220.7,169.7L220.7,169.7L220.8,169.8L220.8,169.8L220.8,169.9L220.8,170L220.8,170L220.9,170L220.9,170.1L221,170.1L221,170.1L221,170.2L221,170.3L220.9,170.4L220.9,170.5L220.9,170.6L220.9,170.6L220.8,170.7L220.7,170.7L220.7,170.7L220.6,170.7L220.6,170.7L220.5,170.8L220.5,170.8L220.4,170.9L220.4,170.9L220.3,171L220.2,171L220.2,170.9L220.1,170.9L220.1,170.9L220,170.8L219.8,170.8L219.8,170.8L219.8,170.8L219.7,170.8L219.7,170.8L219.7,170.8L219.6,170.8L219.6,170.8L219.5,170.7L219.4,170.7L219.4,170.7L219.3,170.7L219.3,170.7L219.3,170.7L219.3,170.7L219.2,170.7L219.2,170.7L219.1,170.7L219,170.7L219,170.8L218.9,170.8L218.9,170.7L218.9,170.7L218.7,170.7L218.7,170.8L218.6,170.7L218.6,170.7L218.6,170.6L218.5,170.6L218.4,170.6L218.4,170.6L218.3,170.7L218.3,170.6L218.2,170.5L218.2,170.5L218.2,170.5L218.1,170.4L218.1,170.3L218.1,170.2L218.1,170.1L218.1,170.1L217.9,170L217.9,170L217.7,170L217.6,170L217.6,170L217.5,170L217.4,170L217.4,170L217.3,170L217.2,170L217.2,169.9L217.1,169.9L217.1,169.8L217.1,169.8L217.1,169.8L217,169.8L217,169.9L216.9,169.9L216.9,169.9L216.9,169.9L216.8,169.8L216.8,169.8L216.7,169.7L216.7,169.7L216.6,169.8L216.6,169.8L216.6,169.9L216.5,169.9L216.4,169.9L216.3,169.9L216.2,169.9L216.2,170L216.2,170L216.1,170L216,170.1L216,170.2L216,170.2L215.9,170.2L215.9,170.2L215.8,170.2L215.7,170.2L215.7,170.3L215.6,170.3L215.6,170.3L215.5,170.4L215.5,170.4L215.4,170.4L215.3,170.5L215.2,170.5L215.2,170.5L215.1,170.6L215,170.6L215,170.6L215,170.7L214.9,170.7L214.8,170.7L214.7,170.8L214.7,170.9L214.8,171L214.8,171L214.7,171L214.6,171.1L214.6,171.1L214.5,171.1L214.5,171.1L214.4,171.1L214.4,171.2L214.4,171.2L214.3,171.3L214.3,171.3L214.2,171.2L214.2,171.2L214.2,171.2L214.2,171.3L214.2,171.3L214.1,171.3L214,171.3L214,171.3L213.9,171.3L213.9,171.3L213.8,171.3L213.8,171.3L213.7,171.3L213.7,171.4L213.7,171.5L213.6,171.5L213.6,171.6L213.5,171.6L213.5,171.6L213.4,171.6L213.4,171.6L213.4,171.6L213.3,171.6L213.3,171.6L213.2,171.7L213.2,171.7L213.1,171.7L213.1,171.7L213,171.6L213,171.6L212.9,171.5L212.9,171.5L212.8,171.5L212.8,171.4L212.7,171.3L212.6,171.2L212.6,171.2L212.6,171.1L212.6,171.1L212.6,171L212.6,171L212.6,170.9L212.6,170.9L212.5,171L212.4,171.1L212.3,171.1L212.3,171.2L212.2,171.2L212.2,171.2L212.1,171.2L212.1,171.2L212.1,171.2L212,171.2L211.7,171.1L211.7,171.1L211.6,171.1L211.6,171.1L211.5,171.1L211.5,171L211.4,170.9L211.4,170.8L211.4,170.7L211.4,170.7L211.4,170.6L211.3,170.6L211.3,170.6L211.1,170.5L211,170.4L211,170.4L210.9,170.4L210.9,170.4L210.8,170.2L210.8,170.1L210.7,170L210.7,169.9L210.6,169.8L210.6,169.8L210.5,169.7L210.4,169.6L210.2,169.6L210.1,169.6L210.1,169.6L210,169.6L210,169.7L209.9,169.7L209.8,169.7L209.7,169.7L209.7,169.7L209.7,169.8L209.6,169.9L209.5,169.8L209.4,169.9L209.3,169.9L209.2,169.8L209,169.8L209,169.8L208.8,169.8L208.8,169.8L208.8,169.7L208.8,169.7L208.8,169.6L208.8,169.6L208.7,169.6L208.6,169.6L208.6,169.6L208.6,169.5L208.6,169.5L208.6,169.4L208.6,169.3L208.5,169.3L208.5,169.3L208.5,169.3L208.4,169.2L208.4,169.2L208.3,169.2L208.2,169.2L208.2,169.3L208.2,169.3L208.1,169.3L208.1,169.3L208.1,169.4L208.1,169.4L208.1,169.5L208.1,169.6L208,169.6L208,169.6L207.9,169.6L207.9,169.7L207.8,169.7L207.8,169.8L207.8,169.8L207.8,169.8L207.7,169.6L207.6,169.4L207.5,169.1L207.4,169L207.2,168.5L207.1,168.3L206.9,168L206.7,167.6L206.5,167.3L206.4,167.1L206.2,166.9L206.2,166.8L206.1,166.7L206,166.6L205.7,166.4L205.5,166.2L205.3,166.1L205.3,166L205.2,166L205.2,165.9L205.2,165.8L205.2,165.8L205.4,165.8L205.4,165.8L205.5,165.6L205.5,165.4L205.4,165.4L205.3,165.5L205.3,165.6L205.2,165.6L205.1,165.6L205,165.7L204.8,165.8L204.7,165.8L204.6,165.9L204.5,165.9L204.5,165.9L204.5,166L204.4,166L204.3,166.1L204.2,166.2L204.2,166.2L204.1,166.2L204,166.2L203.9,166.3L203.8,166.4L203.8,166.5L203.8,166.5L203.7,166.6L203.7,166.6L203.6,166.6L203.6,166.5L203.5,166.5L203.3,166.4L203.3,166.5L203.2,166.5L203.1,166.6L203,166.7L203,166.7L203,166.6L203,166.5L202.9,166.5L202.9,166.3L203,166.2L203.1,166.1L203.2,166.1L203.2,166L203.2,165.9L203.2,165.9L203.2,165.9L203.1,165.9L203.1,166L203,166L202.9,166L202.9,166L202.8,166L202.7,165.9L202.5,165.8L202.4,165.8L202.4,165.8L202.4,165.9L202.4,165.9L202.4,166L202.4,166L202.4,166L202.3,166.1L202.3,166L202.3,165.9L202.3,165.8L202.2,165.8L202.2,165.6L202.1,165.6L202.1,165.6L202,165.7L202,165.7L201.9,165.7L201.8,165.8L201.5,165.8L201.3,165.7L201.3,165.7L201.4,165.5L201.4,165.4L201.4,165.3L201.4,165.2L201.4,165.1L201.3,164.8L201.2,164.6L201.1,164.4L201.1,164.4L200.9,164.4L200.9,164.4L200.8,164.5L200.8,164.5L200.7,164.5L200.6,164.5L200.5,164.5L200.5,164.4L200.4,164.4L200.2,164.3L200,164.3L199.8,164.2L199.7,164.3L199.6,164.4L199.5,164.5L199.4,164.5L199.3,164.5L199.3,164.5L199.3,164.6L199.3,164.7L199.3,164.7L199.2,164.8L199.2,164.8L199.1,164.8L199,164.8L198.9,164.9L198.7,164.9L198.6,165L198.5,165L198.2,165.1L198.1,165.1L197.8,165.2L197.6,165.2L197.6,165.1L197.5,165.2L197.3,165.2L197.3,165.3L197.2,165.3L197.2,165.3L197.1,165.3L197.1,165.4L197.1,165.5L197,165.6L196.9,165.5L196.9,165.5L196.8,165.5L196.7,165.6L196.6,165.5L196.6,165.5L196.4,165.6L196.3,165.6L196.2,165.6L196.2,165.7L196.1,165.7L196,165.7L196,165.7L195.9,165.7L195.8,165.8L195.7,165.8L195.6,165.8L195.6,165.8L195.6,165.9L195.2,165.9L195.2,165.9L195.1,166L194.8,166L194.8,166L194.8,166L194.7,166L194.5,166L194.3,165.9L194.2,166L194.2,166L194.1,166.1L194.1,166.2L194.1,166.3L194.1,166.3L194,166.4L194,166.4L194.1,166.5L194.2,166.5L194.3,166.5L194.4,166.5L194.4,166.5L194.4,166.5L194.4,166.6L194.4,166.6L194.4,166.6L194.3,166.6L194.3,166.6L194.2,166.7L194.2,166.7L194.2,166.8L194.2,166.9L194.3,166.9L194.4,166.9L194.5,166.9L194.5,166.9L194.6,167L194.8,167.1L194.8,167.1L194.8,167.2L194.8,167.2L194.8,167.3L194.7,167.3L194.6,167.2L194.4,167.2L194.3,167.2L194.2,167.2L194.1,167.2L194.1,167.3L194,167.4L194,167.4L193.9,167.5L193.9,167.6L193.9,167.7L194,167.9L194.1,168L194,168.1L193.9,168.1L193.8,168.2L193.7,168.2L193.6,168.2L193.5,168.4L193.4,168.4L193.4,168.5L193.4,168.5L193.5,168.6L193.6,168.6L193.6,168.7L193.7,168.8L193.8,168.8L194,168.9L194.1,168.9L194.1,169L194.3,169L194.4,169.1L194.5,169.2L194.5,169.3L194.4,169.4L194.4,169.6L194.3,169.7L194.2,169.8L194,169.9L193.8,169.9L193.7,169.9L193.6,169.9L193.5,169.9L193.5,169.8L193.4,169.7L193.4,169.7L193.3,169.7L193.3,169.8L193.3,169.9L193.2,170L193.2,170.1L193,170.1L193,170.1L193,170L193,170L192.9,170L192.7,169.9L192.7,169.9L192.6,169.9L192.5,169.9L192.5,169.8L192.4,169.7L192.3,169.6L192.1,169.5L192,169.5L192,169.5L191.9,169.5L191.8,169.4L191.8,169.4L191.7,169.5L191.7,169.6L191.6,169.6L191.6,169.7L191.5,169.7L191.4,169.6L191.3,169.5L191.2,169.5L191.1,169.5L191,169.5L190.9,169.6L190.9,169.5L190.8,169.5L190.7,169.6L190.5,169.7L190.5,169.8L190.5,169.9L190.4,169.9L190.3,170L190.2,170L190.1,170L190,169.9L189.9,169.8L189.7,169.7L189.6,169.6L189.5,169.5L189.5,169.5L189.4,169.6L189.4,169.6L189.4,169.6L189.4,169.7L189.5,169.8L189.5,169.9L189.5,170L189.4,170.1L189.4,170.1L189.4,170.1L189.3,170L189.3,169.9L189.3,169.8L189.2,169.6L189.1,169.6L189.1,169.5L189,169.4L189,169.4L188.8,169.3L188.8,169.3L188.7,169.1L188.6,169L188.5,169L188.5,169L188.4,169L188.3,169L188.2,169L188.1,169L188.1,169L188.1,169L188,169L188,169L188,169L187.9,169L187.9,168.9L187.8,168.8L187.7,168.7L187.6,168.8L187.4,168.9L187.3,169L187.2,169L187.1,169L187.1,169L187.1,169L187,168.9L187,168.9L187,168.8L186.8,168.8L186.7,168.7L186.7,168.7L186.7,168.8L186.6,168.9L186.5,169L186.4,169.1L186.3,169.2L186.3,169.2L186.2,169.3L186.1,169.3L186,169.4L185.9,169.4L185.7,169.4L185.7,169.5L185.7,169.6L185.6,169.7L185.4,169.9L185.3,170L185.3,170L185.2,170L185.1,170L185.1,170L185.1,170.1L185.2,170.3L185.2,170.4L185.2,170.5L185.3,170.6L185.3,170.7L185.3,170.7L185.2,170.8L185.1,170.8L185,170.9L184.9,170.8L184.8,170.8L184.8,170.7L184.7,170.6L184.6,170.4L184.5,170.3L184.4,170.2L184.3,170.2L184.3,170.3L184.2,170.3L184.2,170.4L184.2,170.4L184.2,170.5L184.2,170.6L184.1,170.7L184,170.7L183.9,170.8L183.9,171L183.8,171.2L183.8,171.4L183.8,171.5L183.9,171.5L184,171.6L184,171.6L184,171.7L183.9,171.8L183.8,171.8L183.7,172L183.7,172.3L183.7,172.4L183.8,172.5L183.9,172.6L184,172.6L184,172.7L184,172.9L184,172.9L184,173L184.1,173.1L184.2,173.2L184.2,173.1L184.3,173.1L184.4,173.1L184.6,173.1L184.7,173.2L184.8,173.2L184.9,173.3L185,173.5L185.1,173.6L185.1,173.7L185.2,173.8L185.3,174L185.4,174.2L185.4,174.2L185.3,174.3L185.2,174.3L185.2,174.2L185.1,174.2L185.1,174.2L185.1,174.2L185,174.2L185,174.3L185,174.3L185.1,174.4L185.1,174.4L185.1,174.4L185.2,174.5L185.4,174.5L185.5,174.6L185.6,174.7L185.6,174.7L185.5,174.7L185.5,174.8L185.4,174.8L185.3,174.9L185.2,174.9L185.2,174.9L185.2,175L185.2,175L185.2,175.1L185.2,175.1L185.2,175.1L185.1,175.1L185.1,175.1L185.1,175.1L185,175.1L184.9,175.2L184.8,175.3L184.7,175.3L184.5,175.4L184.5,175.3L184.5,175.3L184.4,175.4L184.4,175.4L184.4,175.4L184.3,175.3L184.3,175.3L184.3,175.3L184.3,175.4L184.3,175.5L184.3,175.5L184.3,175.6L184.3,175.6L184.2,175.6L184.2,175.7L184.2,175.8L184.2,175.9L184.1,176L184.1,176.1L184,176.1L184,176.2L184,176.2L183.9,176.2L183.9,176.2L183.9,176.3L183.8,176.3L183.8,176.4L183.7,176.5L183.7,176.5L183.7,176.6L183.8,176.6L183.9,176.7L184,176.7L184,176.8L184.1,176.9L184.2,176.9L184.2,177.1L184.3,177.3L184.3,177.5L184.4,177.2L184.4,177.2L184.4,177.2L184.4,177.4L184.3,177.5L184.3,177.7L184.3,177.8L184.3,177.8L184.3,178L184.3,178L184.3,178.1L184.4,178.1L184.5,178.2L184.5,178.4L184.5,178.4L184.5,178.4L184.7,178.7L184.8,178.8L184.9,178.9L184.9,179.1L185,179.1L185,179.1L185.1,179.2L185,179.2L185,179.3L184.9,179.4L184.9,179.5L184.8,179.5L184.7,179.5L184.6,179.7L184.6,179.8L184.5,179.8L184.4,179.8L184.3,179.8L184.2,179.7L184.1,179.7L184.1,179.5L184,179.5L184,179.5L184,179.4L183.9,179.4L183.9,179.3L183.8,179.3L183.8,179.2L183.7,179.2L183.7,179.2L183.6,179.2L183.6,179.2L183.6,179.1L183.5,179.1L183.5,179.1L183.4,179.1L183.4,179L183.3,179L183.3,179L183.2,179L183.2,179L183.1,178.9L183,178.9L183,178.8L183,178.8L183,178.7L183,178.6L183,178.5L183,178.5L182.9,178.5L182.7,178.5L182.7,178.4L182.6,178.4L182.6,178.3L182.5,178.3L182.4,178.3L182.4,178.3L182.3,178.4L182.3,178.3L182.2,178.3L182.2,178.3L182.1,178.3L182,178.3L181.9,178.4L181.9,178.4L181.8,178.4L181.7,178.5L181.7,178.5L181.6,178.4L181.6,178.4L181.6,178.4L181.6,178.3L181.6,178.3L181.6,178.3L181.5,178.2L181.5,178.2L181.3,178.1L181.1,178.1L181.1,178L181,177.9L181,177.9L180.9,177.9L180.8,177.9L180.7,177.9L180.6,177.8L180.5,177.8L180.4,177.8L180.4,177.8L180.4,177.9L180,177.8L179.9,177.8L179.9,177.7L179.7,177.7L179.6,177.6L179.5,177.6L179.4,177.5L179.3,177.5L179.1,177.5L179,177.5L179,177.5L178.9,177.6L178.9,177.6L178.8,177.6L178.5,177.3L178.4,177.1L178,176.8L177.9,176.7L177.7,176.7L177.6,176.6L177.3,176.3L177.2,176.4L177.1,176.4L177.1,176.3L177,176.3L177,176.2L176.9,176.1L176.9,176.1L176.7,176L176.5,175.9L176.5,175.9L176.4,175.8L176.6,175.8L176.7,175.7L176.6,175.7L176.6,175.7L176.5,175.7L176.6,175.6L176.6,175.6L176.7,175.6L176.8,175.7L176.9,175.8L176.9,175.7L177.2,175.6L177.2,175.6L177.2,175.5L177.2,175.5L177.2,175.5L177.2,175.5L177.2,175.4L177.3,175.2L177.4,175L177.5,175L177.5,175L177.5,175L177.5,175.1L177.5,175L177.6,174.9L177.7,174.9L177.7,174.9L177.8,174.9L177.7,174.7L177.5,174.6L177.4,174.6L177.4,174.6L177.3,174.4L177.3,174.3L177.3,174.3L177.4,174.4L177.6,174.3L177.6,174.3L177.7,174.3L177.8,174.3L177.8,174.2L177.8,174.1L177.9,174.1L178,174.1L178.3,173.9L178.4,173.9L178.4,173.9L178.4,173.8L178.3,173.7L178.3,173.7L178.2,173.7L178.1,173.8L177.9,173.8L177.8,173.8L177.9,173.7L178,173.7L178,173.7L177.9,173.7L177.8,173.8L177.6,173.9L177.6,173.8L177.6,173.8L177.6,173.7L177.6,173.7L177.6,173.7L177.6,173.7L177.6,173.6L177.6,173.6L177.6,173.6L177.6,173.6L177.6,173.6L177.6,173.5L177.6,173.4L177.7,173.4L177.7,173.3L177.8,173.3L177.9,173.2L178,173.2L178,173.1L178.1,173L178.2,173L178.3,173.1L178.4,173.1L178.6,173.1L178.7,173L178.7,173L178.7,172.9L178.8,172.8L178.8,172.7L178.9,172.6L178.9,172.6L178.8,172.6L178.8,172.6L178.8,172.6L178.8,172.5L178.8,172.5L178.8,172.4L178.8,172.4L178.8,172.3L178.7,172.3L178.6,172.2L178.7,172.2L178.7,172.1L178.7,172L178.7,172L178.8,172L178.9,172L178.9,172L178.9,172L178.8,171.9L178.7,171.9L178.7,171.8L178.7,171.8L178.7,171.8L178.8,171.7L178.9,171.6L178.9,171.6L179,171.5L179,171.5L179,171.4L178.9,171.3L178.9,171.2L179,171.2L178.9,171.2L178.9,171.1L178.9,171.1L178.8,171.2L178.7,171.2L178.6,171.1L178.5,171L178.4,171L178.4,171L178.3,170.9L178.3,170.9L178.3,170.8L178.3,170.9L178.2,170.9L178.1,170.9L178,170.8L177.9,170.7L177.8,170.7L177.8,170.7L177.6,170.6L177.6,170.6L177.6,170.7L177.6,170.7L177.6,170.7L177.5,170.8L177.5,170.8L177.4,170.7L177.2,170.6L177.2,170.4L177.1,170.4L177.1,170.3L177,170.2L177,170.2L176.9,170.2L176.8,170.3L176.8,170.3L176.7,170.3L176.5,170.4L176.5,170.4L176.4,170.4L176.4,170.4L176.4,170.4L176.3,170.3L176.2,170.4L176.2,170.3L176.1,170.3L176.1,170.2L176,170.2L175.9,170.2L175.9,170.2L175.8,170.3L175.7,170.3L175.7,170.2L175.6,170.2L175.6,170.1L175.6,170L175.6,170L175.6,169.9L175.6,169.9L175.6,169.8L175.6,169.8L175.5,169.7L175.5,169.6L175.5,169.6L175.5,169.5L175.5,169.5L175.5,169.5L175.4,169.5L175.4,169.5L175.4,169.4L175.3,169.3L175.3,169.3L175.3,169.3L175.2,169.3L175.1,169.4L175.1,169.3L175,169.3L174.9,169.3L174.7,169.3L174.7,169.3L174.7,169.2L174.8,169.2L174.8,169.2L174.7,169.1L174.7,169.1L174.7,169L174.7,168.9L174.7,168.8L174.6,168.8L174.6,168.8L174.7,168.7L174.8,168.7L174.8,168.7L174.8,168.6L174.6,168.4L174.6,168.2L174.5,168.1L174.4,168L174.4,168L174.3,168L174.2,168L174,168L173.9,168L173.8,168.1L173.7,168.1L173.6,168.1L173.5,168L173.4,168L173.4,168L173.4,168.1L173.3,168.3L173.3,168.3L173.2,168.3L173.1,168.3L173.1,168.3L173,168.3L173,168.3L172.9,168.3L172.9,168.2L172.9,168.1L172.9,168.1L172.8,168L172.8,168L172.8,167.9L172.8,167.8L172.8,167.7L172.8,167.6L172.8,167.6L172.8,167.5L172.8,167.5L172.8,167.4L172.7,167.4L172.6,167.3L172.6,167.2L172.6,167.2L172.6,167.1L172.7,167L172.7,167L172.7,167L172.8,167L172.9,167L172.9,167L172.9,167L173,167.1L173.2,167.1L173.2,167.1L173.3,167L173.4,166.9L173.5,166.9L173.5,166.8L173.6,166.8L173.6,166.8L173.6,166.8L173.6,166.7L173.6,166.7L173.5,166.5L173.4,166.5L173.4,166.5L173.4,166.4L173.4,166.4L173.3,166.3L173.1,166.2L173,166.2L172.9,166.2L173,166.2L173,166.1L173,166L173,165.9L173,165.9L172.8,165.8L172.7,165.7L172.6,165.6L172.6,165.5L172.5,165.4L172.4,165.4L172.4,165.3L172.5,165.2L172.5,165.2L172.5,165.2L172.4,165.1L172.2,165L172.2,165L172.2,164.9L172.3,164.8L172.3,164.8L172.4,164.7L172.4,164.6L172.4,164.6L172.3,164.5L172.3,164.4L172.3,164.4L172.3,164.3L172.3,164.3L172.3,164.2L172.3,164.1L172.3,164L172.3,164L172.3,164L172.2,164L172.2,164L172.1,163.9L172.1,163.9L172.1,163.9L172,163.8L172,163.7L171.8,163.7L171.7,163.7L171.6,163.7L171.6,163.7L171.5,163.7L171.5,163.8L171.4,163.8L171.4,163.8L171.3,163.9L171.2,163.8L171.2,163.7L171.2,163.7L171.2,163.6L171.2,163.6L171.2,163.5L171.2,163.5L171,163.4L171,163.4L170.9,163.5L170.8,163.5L170.8,163.5L170.7,163.5L170.7,163.4L170.6,163.3L170.5,163.3L170.5,163.4L170.5,163.4L170.4,163.4L170.3,163.3L170.3,163.2L170.4,163.1L170.4,163.1L170.3,163L170.3,162.8L170.3,162.8L170.2,162.7L170.2,162.6L170.2,162.5L170.1,162.5L170.1,162.4L170.1,162.4L170.1,162.3L170,162.4L170,162.4L170,162.2L170,162.1L170.1,162L170.1,161.9L170.1,161.9L170.1,161.8L170.1,161.8L170.1,161.7L170,161.7L169.9,161.6L169.9,161.5L169.8,161.5L169.8,161.5L169.8,161.4L169.8,161.3L169.8,161.3L169.9,161.2L169.9,161.1L169.9,161.1L170,161L170.1,161L170.1,161L170.1,161L170,160.9L170,160.9L170,160.8L169.9,160.6L169.9,160.5L169.9,160.4L169.9,160.4L169.9,160.3L169.9,160.2L169.8,159.8L169.8,159.7L169.8,159.7L169.9,159.6L169.9,159.5L170,159.4L170.1,159.2L170.1,159L170.2,159L170.2,159L170.3,159L170.3,158.9L170.3,158.9L170.3,158.9L170.3,158.9L170.3,158.8L170.2,158.7L170.3,158.6L170.3,158.5L170.2,158.4L170.3,158.3L170.3,158.3L170.4,158.4L170.5,158.4L170.5,158.4L170.5,158.3L170.6,158.2L170.7,158.3L170.8,158.3L170.8,158.3L170.9,158.3L170.9,158.2L171,158.1L171,158.1L171.1,158L171.4,158.1L171.8,158.2L171.8,158.1L171.8,158.1L171.7,158L171.6,158L171.6,157.8L171.5,157.7L171.4,157.7L171.2,157.8L171,157.7L170.8,157.5L170.7,157.5L170.6,157.3L170.6,157.2L170.7,157.3L170.7,157.2L170.7,157.1L170.6,157.1L170.6,157L170.4,157.2L170.1,157.2L170.3,156.9L170.5,156.7L170.6,156.7L170.6,156.6L170.7,156.5L170.8,156.5L170.9,156.3L171.1,156.1L171.3,155.9L171.4,155.8L171.4,155.7L171.6,155.5L171.7,155.4L171.9,155.1L172,154.9L172.1,154.8L172.3,154.5L172.5,154.3L172.6,154.1L172.7,154L172.7,153.8L172.8,153.6L172.8,153.6L172.8,153.5L172.7,153.5L172.6,153.4L172.6,153.2L172.5,153.1L172.4,153L172.1,152.8L172,152.7L171.7,152.4L171.7,152.3L171.7,152.3L171.8,152.2L172,151.9L172,151.8L172,151.7L172,151.6L172,151.5L172,151.5L171.9,151.4L171.7,151.2L171.7,151.1L171.7,151L171.7,150.9L171.8,150.8L171.8,150.7L171.7,150.6L171.7,150.6L171.5,150.5L171.5,150.4L171.4,150.3L171.4,150.2L171.4,150.2L171.4,150.1L171.5,150L171.5,150L171.5,149.9L171.5,149.8L171.5,149.8L171.4,149.8L171.4,149.8L171.4,149.7L171.4,149.7L171.5,149.6L171.5,149.3L171.5,149.2L171.5,149.1L171.5,149.1L171.6,149L171.7,149L171.7,149L171.7,148.9L171.7,148.8L171.6,148.4L171.6,148.3L171.5,148.1L171.5,148L171.4,147.9L171.4,147.8L171.3,147.6L171.3,147.5L171.2,147.3L171.2,147.2L171,146.9L171,146.8L171,146.7L171,146.7L171.1,146.4L171.2,146.2L171.4,146L171.5,145.8L171.6,145.6L171.7,145.4L171.7,145.3L171.5,145.2L171.3,144.9L171.2,144.6L171,144.5L170.7,144.4L170.6,144L170.6,143.8L170.6,143.7L170.8,143.2L170.8,143.1L170.8,143.1L170.8,143L170.7,143L170.5,143L170.5,142.9L170.6,142.9L170.7,142.8L170.9,142.7L170.9,142.7L171,142.7L171.1,142.6L171.1,142.6L171.2,142.2L171.2,142.1L171.5,142L171.7,142L171.7,141.9L171.8,141.8L171.8,141.7L171.8,141.6L171.8,141.6L171.8,141.5L171.8,141.5L171.8,141.5L171.9,141.6L172.1,141.7L172.2,141.7L172.3,141.7L172.3,141.6L172.3,141.5L172.3,141.4L172.3,141.1L172.4,141.2L172.7,141.3L172.8,141.3L172.9,141.3L173,141.1L173,141L173.1,141.1L173.1,141L173.1,140.9L173.1,140.8L173.4,141L173.5,141.1L173.8,141.2L173.8,141.3L173.8,141.4L173.8,141.5L173.8,141.5L173.7,141.5L173.2,141.4L173.2,141.5L173.2,141.5L173.4,141.6L173.4,141.8L173.6,141.8L173.8,141.8L173.8,141.8L173.8,141.8L173.8,142L173.8,142L174,141.9L174.1,141.8L174.2,141.9L174.2,142L174.1,142.1L174.1,142.2L174.1,142.4L174,142.5L173.9,142.6L174.1,142.6L174.1,142.5L174.3,142.2L174.3,142.1L174.7,142.1L174.8,142.1L175.2,142.3L175.3,142.3L175.4,142.3L175.4,142.2L175.5,142.2L175.9,142.4L176.4,142.7L177.3,143.4L177.7,143.9L177.8,144L177.9,144.1L178,144.1L178,144.1L178.6,144.6L178.8,144.6L178.7,144.5L178.7,144.4L178.8,144.4L178.8,144.5L178.9,144.7L179,144.8L179.2,145L179.3,145.1L179.4,145.2L179.4,145.2L179.6,145.3L179.7,145.8L179.7,145.9L179.7,146.1L179.8,146.2L179.9,146.2L179.9,146.4L179.8,146.8L179.7,146.9L179.3,147.6L179,147.9L178.4,148.2L177.9,148.3L177.7,148.3L177.4,148.3L177.2,148.2L176.9,148L176.7,147.9L176.6,147.9L176.3,147.9L175.6,147.7L175.5,147.7L175.2,147.3L175,147.4L174.9,147.4L174.8,147.3L174.9,147.3L174.9,147.3L174.7,147.2L174.5,147.2L174.4,147.1L174.3,147L174.2,147L174.2,147L173.9,146.9L173.8,146.8L173.7,146.6L173.8,146.5L173.8,146.5L173.4,146.3L173,146.3L173.1,146.4L173.3,146.4L173.4,146.5L173.5,146.6L173.4,146.8L173.6,146.9L173.7,147.1L173.7,147.1L173.8,147.2L174,147.2L174,147.3L174,147.4L174,147.5L174.1,147.6L174.2,147.6L174.3,147.6L174.3,147.7L174.2,147.8L174.1,147.8L174.1,147.9L174.2,147.8L174.6,148L174.8,148.2L175.1,148.5L175.1,148.7L175.1,148.7L175.1,148.8L175.1,148.9L175.1,149L175,149.3L174.9,149.4L174.9,149.5L174.9,149.7L175,149.9L175.1,150.2L175.2,150.3L175.2,150.5L175.2,150.6L175.2,150.6L175.2,150.7L175.2,150.9L175.3,151.1L175.5,151.2L175.6,151.3L175.7,151.2L175.9,151.3L176.1,151.5L176.2,151.8L176.3,151.8L176.5,151.9L176.7,152L177,152.1L177,152.2L177.2,152L177.4,151.9L177.5,151.8L177.5,151.7L177.4,151.5L177.4,151.3L177.3,151.2L177.3,151.2L177,151.2L176.9,151.2L176.9,151.2L176.8,151L176.6,150.7L176.5,150.6L176.4,150.5L176.4,150.4L176.4,150.3L176.5,150.3L176.6,150.2L176.6,149.9L176.8,149.8L176.8,149.8L177.1,150L177.5,150.4L177.5,150.4L177.6,150.4L177.7,150.4L177.8,150.5L177.8,150.5L177.9,150.5L178.2,150.7L178.6,150.9L178.7,150.9L178.8,150.7L178.8,150.7L178.9,150.6L179,150.5L179.2,150.6L179.2,150.5L179.2,150.3L179.1,150.2L179,150.1L178.8,149.7L178.7,149.6L178.7,149.4L178.7,149.2L178.8,149.1L179.1,148.9L179.3,148.7L179.4,148.5L179.4,148.4L179.7,148.4L180,148.2L180.2,148L180.4,147.6L180.5,147.5L180.6,147.5L180.7,147.6L180.8,147.7L180.9,147.7L181.1,147.7L181.2,147.7L181.5,147.8L181.5,147.9L181.5,148L181.5,148.1L181.4,148.2L181.5,148.2L181.6,148.1L181.7,148.2L181.7,148.2L181.8,148.3L181.9,148.4L181.9,148.3L181.9,148.2L181.8,148L181.9,147.7L182,147.6L182.1,147.2L182.1,147L182.1,146.7L182.1,146.6L182,146.4L181.8,146.3L181.7,146.3L181.6,146.1L181.6,146L181.7,145.8L181.8,145.4L181.9,144.7L181.9,144.6L181.9,144.5L181.9,144.4L181.9,144.2L181.9,144.1L181.3,143.5L181.3,143.5L181.3,143.4L181.4,143.4L181.4,143.4L181.8,143.7L181.9,143.7L182.6,143.6L182.9,143.7L183.1,143.8L183.3,144.2L183.5,144.5L183.7,144.8L183.7,145L183.5,145.1L183.3,145.1L182.9,145.2L182.8,145.3L182.5,145.7L182.4,145.8L182.5,146L182.6,146.1L182.9,146.3L183,146.6L183.1,146.8L183.2,146.9L183.3,146.9L183.4,146.9L183.5,146.9L183.6,147L183.6,146.9L183.7,146.9L184.3,146.7L184.4,146.7L184.5,146.5L184.5,146.1L184.6,145.9L184.6,145.8L184.6,145.6L184.6,145.5L184.9,145.4L185.1,145.3L185.3,145.3L185.3,145.2L185.2,145.1L185.2,145L185.2,144.9L185.3,145L185.4,145L185.5,145L186.1,144.6L186.3,144.4L186.4,144.3L186.6,144.1L186.7,144L186.9,144L187.1,143.9L187.3,143.8L187.6,143.7L187.6,143.7L187.7,143.7L187.8,143.8L187.7,143.9L187.7,144L187.7,144L187.8,144.1L187.8,144L187.9,144L188,143.9L188.1,143.8L188,143.7L188,143.6L187.9,143.5L187.8,143.5L188.1,143.3L188.6,142.9L188.9,142.8L189.1,142.7L189.4,142.8L189.3,142.8L188.9,142.9L188.9,142.9L188.9,143L188.9,143L189,143.1L189,143.1L188.9,143.2L188.9,143.3L188.8,143.5L188.9,143.7L189,143.9L188.9,144L188.8,143.9L188.7,144L188.5,144.1L188.5,144.1L188.5,144.2L188.6,144.2L188.7,144.2L188.9,144.3L189,144.3L189.1,144.2L189.2,144.2L189.3,144.2L189.3,144.2L189.4,144.2L189.5,144.4L189.6,144.3L189.7,144L189.8,143.8L190,143.6L190.2,143.6L190.4,143.5L190.5,143.5L190.6,143.5L190.9,143.5L191.1,143.6L191.3,143.6L191.5,143.5L192,143L192.1,143.1L192.1,142.9L192.6,142.7L192.7,142.7L192.7,142.8L192.7,143L192.8,143.1L192.9,143.3L192.8,143.3L192.8,143.4L192.7,143.5L192.7,143.9L192.8,143.9L193,144L193.1,144L193.2,144L193.2,144L193.3,143.9L193.3,143.8L193.3,143.7L193.2,143.5L193.3,143.3L193.5,143.4L193.7,143.3L193.8,143.2L193.9,143L194,142.8L194,142.5L193.8,142.5L193.6,141.8L193.5,141.5L193.5,141.4L193.7,141.3L193.9,141.1L194,141L194.1,141L194.6,141.2L195.2,141.2L195.8,141.4L196.4,141.7L196.7,141.9L196.9,142.1L196.9,142.3L197,142.2L197.2,142.3L197.3,142.4L197.5,142.5L197.5,142.6L197.7,142.7L197.9,142.8L198,142.9L198.2,143L198.4,143L198.5,143.2L198.9,143.6L198.9,143.7L199.2,143.9L199.4,144.1L199.5,144L199.7,143.6L199.9,143.1L199.9,142.9L199.8,142.8L199.7,142.9L199.6,142.9L199.5,142.8L199.4,142.6L199.2,142.3L199.2,141.9L199.1,141.8L198.9,141.7L198.8,141.6L198.4,141.3L198.4,141.4L198.3,141.5L198.3,141.6L198.3,141.5L198.2,141.4L198.2,141.2L198.3,141L198.3,140.7L198.4,140.7L198.5,140.6L198.6,140.5L198.5,140.3L198.5,140.2L198.5,140.1L198.6,139.6L198.6,139.1L198.5,139L198.5,138.9L198.3,139L198.2,138.9L198.2,138.8L198.1,138.7L198.2,138.6L198.3,138.4L198.2,138.4L198.1,138.3L198.2,138.2L198.3,137.9L198.6,137.7L198.8,137.6L199.1,137.3L199.3,137L199.5,136.6L199.6,136.2L199.7,135.3L199.9,134.7L200.1,134L200.3,133.9L200.3,133.9L200.3,134L200.3,134L200.3,134.1L200.4,134.1L200.5,134.1L200.7,134.1L201,134.1L201.6,134.1L201.7,134.1L202,134.3L202.1,134.3L202.3,134.4L202.5,134.5L202.6,134.6L202.6,135.1L202.5,135.4L202.5,136.1L202.4,136.2L202.3,136.7L202.2,137L202.1,137.2L201.9,137.3L201.9,137.4L201.9,137.5L202.1,137.8L202.4,138.2L202.5,138.6L202.5,138.9L202.5,139.7L202.5,139.8L202.4,140L202.3,140.1L202.4,140.3L202.4,141.1L202.4,141.8L202.4,142L202.4,142.4L202.4,142.6L202.4,142.8L202.5,143L202.6,143.1L202.9,143.3L203.1,143.6L203.1,143.7L203.1,143.8L203.1,143.9L202.9,144.2L202.8,144.4L202.8,144.6L202.8,144.8L202.8,145L202.8,145.2L202.7,145.3L202.4,145.5L201.9,146.6L201.8,146.7L201.5,146.7L201.6,146.8L201.7,147.1L201.7,147.2L201.5,147.2L201.3,147.3L201.2,147.4L201.1,147.5L201,147.4L200.8,147.3L200.9,147.3L200.9,147.2L201,147.2L201.1,147.1L201,147.1L201,147.1L200.9,147.2L200.8,147.2L200.6,147.1L200.5,146.9L200.5,146.9L200.4,147L200,146.9L199.9,147L199.8,147L199.9,147L199.9,147.1L199.9,147.3L200,147.4L200.1,147.5L200.3,147.6L200.5,147.7L200.8,147.8L201.4,147.8L201.5,147.8L201.7,147.8L201.9,148L202,148L202.2,147.8L202.3,147.5L202.3,147.4L203,147L203.1,146.9L203.3,146.6L203.4,146.5L203.4,146L203.5,145.8L203.9,145.3L204,145.2L204,144.9L204,144.8L204,144.6L203.9,144.3L203.8,144.1L203.7,143.9L203.8,143.4L203.9,143.3L204.3,143L204.6,143L205,142.8L205.1,142.8L205.2,142.8L205.3,143L205.4,143.2L205.7,143.6L205.8,143.8L205.8,144.1L205.8,144.8L205.7,145.2L205.8,145.2L205.9,145.3L206,145.4L206.1,145.5L206.2,145.5L206.3,145.6L206.8,145.5L207,145.5L207,145.5L206.9,145.4L206.7,145.4L206.5,145.3L206,145.2L206,144.9L206,144.7L206.1,144.4L206.2,144.3L206.2,144.3L206.3,144.2L206.3,144L206.3,143.8L206.2,143.5L206.1,142.9L205.9,142.9L205.8,142.8L205.4,142.5L204.9,142.3L204.6,142.2L204.5,142.3L204.2,142.5L204,142.6L203.7,142.5L203.4,142.5L203.3,142.5L203.3,142.4L203.4,141.9L203.3,141.7L203.2,141.5L203.1,141.3L203.1,141.1L203.3,140.3L203.4,140.1L203.6,139.7L203.7,139.5L203.7,139.3L203.3,138.4L203.1,138L203.1,137.9L203,137.8L202.8,137.7L202.8,137.5L203.2,136.6L203.4,136.4L203.7,136.3L203.8,136.3L204,136.1L204.2,135.9L204.2,135.8L204.2,135.6L204.2,135.3L204.2,134.9L204.2,134.8L204.1,134.6L204,134.3L204.1,134.2L204.1,134.2L204.3,134.2L204.4,134.3L204.5,134.6L204.6,134.9L204.6,135L204.6,135.2L204.6,135.3L204.7,135.4L204.7,135.6L204.7,135.7L204.6,135.7L204.6,135.8L204.5,136.3L204.4,136.3L204.3,136.7L204.5,137.1L204.5,137.3L204.5,137.4L204.4,137.6L204.4,137.7L204.4,137.8L204.7,137.9L205,138L205.4,138.1L205.6,138.2L205.6,138.1L206,138.2L206.4,138.6L206.6,138.7L206.7,138.7L207,138.7L207.1,138.6L207.1,138.5L207,138.5L206.9,138.6L206.9,138.6L206.8,138.5L206.7,138.5L206.6,138.3L206.5,137.9L206.3,137.8L206.1,137.9L206,137.8L205.7,137.6L205.5,137.5L205.2,137.3L205.1,137.2L205,137L205,136.6L204.9,136.5L205,136.4L205.2,136.2L205.5,136.2L205.7,136.2L206,136.6L206.2,136.6L206.5,136.5L206.5,136.4L206.4,136.1L206.3,136L206.2,136L206,136.1L205.9,136L205.9,135.9L206,135.8L206.1,135.8L206.1,135.7L206.3,135.5L206.5,135.4L206.7,135.3L207.4,135.3L207.7,135.7L208.1,135.9L208.3,136L208.3,136L208.4,136.1L208.4,136.3L208.9,136.8L209,136.9L209.3,136.9L209.6,136.8L209.8,136.8L209.9,136.8L210,136.9L210.1,137L210.1,137.2L210,137.3L209.9,137.5L209.9,137.6L209.6,137.9L209.5,137.9L209.4,138.3L209.4,138.4L209.4,138.5L209.5,138.8L209.5,139L209.4,139.2L209.3,139.4L209.4,139.6L209.4,139.8L209.4,139.8L209.4,139.7L209.4,139.5L209.6,139.2L209.7,138.8L209.8,138.7L209.8,138.6L210,138.8L210,138.9L210,139.2L210,139.4L209.9,139.8L209.8,140.1L209.7,140.2L209.8,140.4L209.8,140.5L209.9,140.5L210,140.5L210,140.5L210,140.4L210,140.2L210,140.1L210.2,140L210.3,140L210.4,139.8L210.4,139.7L210.5,139.5L210.4,139.2L210.4,139L210.2,138.6L210.1,138.3L210.1,137.9L210.3,137.5L210.3,137.4L210.3,137.3L210.4,137.2L210.3,137.1L210.3,137L210.2,136.7L210.1,136.5L209.8,136.5L209.7,136.4L209.5,136.1L209.4,136L209.4,135.8L209.4,135.7L209.3,135.6L209.1,135.5L208.9,135.4L208.7,135.4L208.6,135.3L208.4,135.1L208.4,135L208.3,134.7L208.3,134.6L208.3,134.4L208.3,134.2L208.4,134L208.3,133.8L208.2,133.7L208.1,133.6L208.1,133.5L208.1,133.3L208.1,133.1L208.1,133L208.1,132.8L208.2,132.7L208.2,132.6L208.2,132.4L208.8,132.2L209.1,132.2L210.3,132.2L210.4,132.1L211,132L211.2,131.9L211.4,132L211.5,132L211.7,132L211.8,131.8L212.1,131.7L212.5,131.6L212.8,131.6L212.8,131.7L212.9,131.8L212.6,132L212.4,132.3L212.2,132.4L212,132.6L212,132.7L212,132.8L212,132.9L212,133L212.2,133.2L212.3,133.4L212.5,133.5L212.6,133.6L212.6,133.5L212.2,133.1L212.1,133L212,132.9L212.1,132.7L212.1,132.6L212.2,132.5L212.2,132.5L212.4,132.4L212.9,132.3L213,132.1L213.1,131.9L213.2,131.8L213.2,131.7L213.1,131.7L213,131.6L212.6,130.8L212.5,130.7L212.2,130.6L212.1,130.5L212.2,130.2L212.4,130.1L212.5,130.1L212.6,130.2L212.8,130.4L213,130.3L212.9,130.2L212.8,130.1L212.6,129.9L212.4,129.7L212.2,129.6L212,129.6L212,129.3L212.2,129.4L212.2,129.3L212.3,129.1L212.6,129.5L212.7,129.4L212.9,129.2L213.1,128.8L213.2,128.6L213,128.5L212.9,128.4L212.8,128.4L212.8,128.3L212.8,128.1L213,128.1L213.3,128.2L213.9,127.8L214.1,127.6L214.5,127.3L214.7,127.3L215.1,126.9L215.7,126.8L216.1,126.7L216.3,126.5L216.7,126.5L216.9,126.4L217.6,126.2L217.9,126L218,125.8L217.7,125.9L217.6,125.8L217.5,125.9L217.5,126L217.3,125.8L217.3,125.9L217.2,126L217.2,126L217.1,126L217.1,125.8L217.1,125.5L217.2,125.6L217.4,125.4L217.4,125.4L217.6,125.6L217.8,125.4L218,125.3L218.2,125.4L218.3,125.4L218.3,125.3L218.6,125.4L218.9,125.3L219,125.3L219.3,125.4L219.4,125.5L219.3,125.7L219.1,126L219.1,126.1L219.3,125.9L219.7,125.7L219.8,125.7L219.7,125.9L219.7,126L220,125.9L220.2,125.7L220.3,125.6L220.4,125.8L220.5,125.6L220.5,125.5L220.7,125.5L220.8,125.3L220.9,125.2L221,125.2L221.3,125L221.3,125L221.5,125.1L221.6,125.2L221.9,125.4L221.9,125.5L222,125.5L222.1,125.6L222,125.8L221.9,126.2L221.8,126.3L221.9,126.3L221.9,126.3L222,126.1L222.1,125.9L222.1,125.3L221.9,125L221.8,124.9L221.6,124.6L221.5,124.4L221.4,124.3L221.4,124.2L221.9,124.3L222.2,124.2L222.5,124.3L222.8,124.1L223,124.3L223.2,124.3L223.4,124.4L223.4,124.2L223.1,124.1L222.9,124.1L222.9,124L223,123.8L223,123.6L223,123.3L222.9,123.2L222.9,122.9L222.9,122.6L223.1,122.5L223.2,122.3L223.3,122L224.1,121L224.5,120.6L224.6,120.5L224.8,120.5L225.1,120.2L225.2,120.2L225.7,120.5L225.8,120.7L226.1,120.8L226.3,120.9L226.5,121L226.5,121.2L226.6,121.3L226.4,121.5L226.1,121.9L225.8,122.1L225.3,122.2L225.3,122.3L226.1,122.3L226.3,122.3L226.3,122.6L226.4,122.6L226.7,122.5L226.8,122.5L227.1,122.6L227.1,122.5L227.2,122.5L227.5,122.6L227.6,122.9L227.4,123.2L227.2,123.5L227,124L226.9,123.9L226.8,123.9L226.9,124.2L227,124.1L227.2,124.3L227.4,124.1L227.7,124.2L227.8,124.1L227.9,124L228,123.7L228,123.5L228.1,123.5L228.3,123.5L228.5,123.5L229,123.4L229.4,123.5L229.8,123.4L230.2,123.5L230.5,123.6L230.6,123.8L230.7,123.9L230.8,124L231,124.3L230.9,124.4L230.8,124.6L231,124.4L231.1,124.4L231.2,124.5L231.3,124.6L231.4,125.1L231.4,125.2L231.5,125.3L231.4,125.5L231.4,125.6L231.5,125.5L231.6,125.4L231.7,125.3L231.7,125.2L231.7,125.1L231.6,125L231.7,124.9L231.8,125L231.9,125.2L231.9,125.4L232,126L232.2,125.9L232.2,126.1L232.2,126.6L232.1,126.9L232,127L232,127L232,126.8L231.9,126.7L231.9,126.7L231.7,126.6L231.3,126.2L231.2,126.2L231.2,126.2L231.2,126.2L231.4,126.5L231.6,127L231.7,126.8L231.8,126.9L231.9,127.1L232,127.2L232.1,127.3L232.1,127.8L231.6,128.6L231,129L230.8,129.3L230.4,129.5L230.1,129.8L229.7,130.1L229.6,130.3L229.3,130.5L229.3,130.5L229.4,130.6L229.3,130.8L229.3,130.9L229.1,131.1L228.8,131.2L228.1,132.1L227.8,132.3L227.5,132.3L227.4,132.4L227.1,132.9L227,133L226.7,133.1L226.3,133.9L226.1,134.2L225.9,134.4L226.1,134.4L226.3,134.3L226.6,134L226.7,133.8L226.7,133.7L226.8,133.6L226.9,133.5L227.4,133.4L227.5,133.4L227.8,133.4L228,133.3L228.1,133.2L228.2,133.2L228.3,133.1L228.4,133.1L228.8,132.9L228.8,132.9L229,132.6L229.2,132.7L229.3,132.7L229.8,132.3L230,132.1L230.1,132L230,131.9L230,131.9L229.7,132L229.5,132.1L229.3,132L229.2,132L229.2,131.8L229.3,131.6L229.3,131.5L229.5,131.3L229.6,131.3L230.1,131.4L230.2,131.5L230.3,131.2L230.4,131.2L230.6,131.2L230.5,131.3L230.3,131.4L230.4,131.6L230.5,131.8L230.7,132L231,132.1L231.2,132.1L231.5,132L231.5,131.9L231.6,131.7L231.5,131.4L231.6,131.4L231.6,131.5L231.7,131.7L231.8,132.1L231.9,132.2L231.9,132.4L231.7,132.7L231.8,132.9L232,133L232,133.5L232,133.7L231.9,134L231.8,134.1L231.7,134.3L231.7,134.4L231.7,134.5L231.8,134.7L232.1,134.7L232.1,134.7L232.1,134.6L231.9,134.6L231.8,134.5L231.8,134.3L231.8,134.1L231.9,134L232,133.7L232,133.5L232,133.3L232.1,133.2L232.2,133.1L232.2,133L232.3,133L232.2,132.9L232.1,132.9L232,132.8L232,132.6L232.2,132.5L232.4,132.4L232.9,132.3L233.3,132.1L234.1,132.1L234.7,132.3L235.5,132.4L235.9,132.5L235.9,132.5L235.9,132.6L235.8,132.7L235.6,132.7L235.5,132.9L235.5,133.2L235.9,133.6L236.3,133.7L236.5,133.9L236.6,133.9L237.1,133.9L237.4,134L237.6,133.9L237.9,133.9L238,133.9L238.1,134.1L238.3,134.1L238.5,134.1L238.6,134.1L238.7,134.1L238.6,134L238.5,133.9L238.5,133.8L238.6,133.8L238.8,133.9L238.9,134L239.1,133.8L239.1,133.6L239.2,133.5L239.2,133.4L239.2,133.4L239.3,133.4L239.2,133.2L239.1,133L239.1,132.8L239.1,132.8L239.1,132.5L239.1,132.2L239.2,132.2L239.4,132.3L239.5,132.1L239.6,132L239.8,131.9L239.9,132L240.1,132.1L240.7,132.5L240.7,132.7L240.9,132.7L240.9,132.6L241.1,132.6L241.2,132.5L241.2,132.5L241.2,132.6L241.2,132.7L241.2,132.8L241.2,132.9L241.2,132.9L241.4,133L241.6,132.8L241.7,132.5L241.7,132.5L242.3,132.6L242.4,132.7L242.4,132.8L242.5,132.9L242.5,133L242.6,133L242.6,133.1L242.6,133.2L242.9,133.2L243,133.3L243.1,133.4L243.1,133.5L243.1,133.6L243.2,133.6L243.2,133.6L243.2,133.7L243.1,133.9L243,134L242.9,134.1L242.9,134.1L243.2,134.2L243.3,134.4L243.3,134.6L243.3,134.6L243,134.9L242.9,134.9L242.8,135L242.7,135L242.8,135.1L243.3,135.1L243.4,135.2L243.5,135.5L243.5,135.9L243.4,136L243.1,136.1L242.8,135.7L242.6,135.5L242.3,135.2L242.2,135.3L242.3,135.5L242.5,135.7L242.7,136L243.1,136.8L243.2,136.8L243.3,136.7L243.3,136.5L243.3,136.4L243.3,136.4L243.4,136.6L243.5,136.9L243.3,136.8L243.1,136.9L243.1,137L243.1,137.2L243.3,137.2L243.3,137.4L243.4,137.6L243.7,138.3L243.9,138.4L244.1,138.6L244.3,138.8L244.4,138.8L244.4,138.6L244.5,138.7L244.5,139L244.6,139.1L244.7,139.1L244.8,139L244.9,138.9L245,138.7L245.2,138.3L245.3,138.1L245.4,138L245.3,137.9L245.3,137.7L245.4,137.4L245.5,137.1L245.6,136.9L245.7,136.5L245.8,136.4L245.9,136.6L245.9,136.7L245.9,136.8L245.9,136.8L246.2,137.2L246.4,137.4L246.6,137.6L246.9,137.7L247.3,137.7L247.4,137.5L247.5,137.4L247.8,137.3L247.9,137.2L248.1,137.1L248.3,137.1L248.5,137.2L249,137.6L249.2,137.7L249.2,137.9L249.4,138.1L249.5,138.2L249.6,138.2L249.7,138.2L249.6,138.2L249.6,138.1L249.6,138L249.7,137.9L249.7,137.9L249.7,137.8L249.9,137.8L249.7,137.7L249.7,137.7L249.6,137.7L249.6,137.6L249.7,137.5L249.7,137.3L249.8,137.3L249.8,137.2L249.9,137.2L250,137.3L250.2,137.1L250.2,137.1L250.4,137.3L250.5,137.5L250.6,137.5L250.8,137.4L251.1,137.4L251.1,137.3L250.9,136.9L250.9,136.5L250.8,136.4L250.6,136.4L250.9,136.3L251,135.9L251.1,135.9L251.2,135.8L251.2,135.8L250.8,135.7L250.8,135.8L250.7,135.9L250.5,135.9L250.5,135.6L250.5,135.5L250.7,135.1L250.8,135.1L251.4,135.1L251.6,135L251.9,134.9L251.8,134.8L251.8,134.5L251.6,134.2L251.6,134.2L251.6,134.1L251.7,134.1L252.1,134.2L252.2,134.4L252.6,134.5L253.7,134.6L253.8,134.6L254.2,134.7L254.4,134.8L254.9,134.9L255.1,135L255.2,135.1L255.5,135.1L255.6,135.2L255.6,135.4L255.1,135.4L254.9,135.3L254.6,135.3L254.6,135.3L254.4,135.5L254.3,135.6L254.1,135.6L254.2,135.8L254.3,135.8L254.8,135.6L255.9,135.5L256,135.6L256,135.7L255.9,136L255.7,136.2L255.5,136.4L255.4,136.4L255.6,135.9L255.5,135.9L255.5,135.9L255.3,135.7L255.3,135.7L255.2,135.8L255.2,135.8L255.2,136.1L255.3,136.2L255.3,136.4L255,136.5L254.9,136.5L254.8,136.4L254.8,136.4L254.8,136.5L254.8,136.6L254.8,136.6L254.7,136.7L254.7,136.8L254.8,136.9L254.9,137L255.3,136.8L255.5,136.7L255.7,136.4L256.1,135.8L256.3,135.6L256.4,135.5L256.5,135.4L257.2,135.5L257.6,135.7L258,135.9L258.2,136L258.3,136.3L258.3,136.4L258.3,136.5L258.2,136.6L257.8,136.7L257.6,136.7L257.6,136.8L257.6,136.8L257.6,136.9L257.6,137L257.8,137L258,137L258.2,137.2L258.3,137.2L258.4,137.4L258.4,137.4L258.8,137.4L258.8,137.4L258.8,137.5L258.7,137.7L258.6,137.8L258.4,138L258.5,137.9L258.9,137.7L259,137.7L259.2,137.7L259.5,137.9L259.6,138L259.8,138.5L259.8,138.5L259.6,138.6L260.1,138.9L260.4,138.9L260.8,138.8L261.1,138.8L261.5,138.6L262,138.5L262.4,138.4L262.6,138.3L263.2,138.3L263.7,138.4L264.1,138.4L264.6,138.7L265.1,139L265.4,139.3L265.4,139.4L265.5,139.6L265.5,139.8L265.6,140L265.5,140.2L265.5,140.4L265.4,140.5L265.4,140.7L265.4,141L265.4,141.1L265.6,141.3L266.1,141.4L266.2,141.5L266.2,141.8L266.3,142.1L266.3,142.6L266.4,142.7L266.5,142.8L266.5,142.9L266.4,143.4L266.3,143.5L266.2,143.7L266.4,143.6L266.4,143.4L266.5,143.1L266.6,143.1L266.7,142.9L266.7,142.6L266.6,142.3L266.6,142.1L266.7,142L267,141.6L267.1,141.5L267.3,141.4L267.7,141.4L267.9,141.3L268.1,141.3L268.2,141.3L268.4,141.2L268.6,141.3L268.8,141.5L269.7,141.6L269.9,141.6L270.5,141.7L270.5,141.7L270.7,141.6L271.1,141.2L271.2,141.3L271.3,141.3L271.4,141.5L271.4,141.6L271.5,141.8L271.6,142.2L271.6,142.3L271.8,142.3L272,142.4L272.3,142.6L272.4,142.9L272.5,143.2L272.8,143.2L273.2,143.1L273.5,142.7L273.5,142.5L273.4,142.2L273.3,142L273.2,141.6L272.9,141.5L272.9,141.4L273,141.2L273.1,141L273.2,140.8L273.1,140.5L273.4,140.5L273.7,140.5L274.2,140.7L274.6,140.8L274.8,140.9L275,141L275.1,141.1L275.2,140.9L275.3,140.8L275.5,140.9L275.6,141L275.9,140.9L276.2,141L276.6,141L276.9,140.9L277.1,140.9L277.2,141L277.4,141.2L277.8,141.4L278.1,141.5L278.5,141.7L278.9,141.8L279.2,142L279.2,142L279.2,142.1L279.2,142.2L279.5,142.2L279.9,142.7L280,142.8L280,150Z"/></svg>
