<svg xmlns="http://www.w3.org/2000/svg" viewBox="0 0 400 300"><path d="M217.5,300L206.8,274.8L192.7,261L187.8,246.8L190.2,234L185.8,211.4L195.9,210.3L204.8,201.4L214.3,188.6L220.4,183.5L220.1,175.5L214.8,170L213.4,160.3L220.5,157.3L221.9,142.9L212.2,129.1L220.8,126.2L247.5,126.5L297.3,124.6L297.3,124.6L301.5,127.3L390,177.1L391.7,191.3L400,197L400,300Z" fill="#2c2c34" stroke="#474751" stroke-width="0.8"/><path d="M2.6,300L0.3,295.5L0,285.8L0,0L5.5,0L16.4,2.8L17.8,0L201.8,0L201.8,0L222.3,15.6L220.9,44.2L230.7,47.5L222.8,56.2L213.4,62.7L204.1,75.4L198.9,86.7L197.6,106.4L191.9,115.7L191.7,134.1L184.7,141L183.8,155.5L180.4,157.4L178.1,170.8L184.3,181.9L185.8,211.4L185.8,211.4L190.2,234L187.8,246.8L192.7,261L206.8,274.8L217.5,300L2.6,300Z" fill="#2c2c34" stroke="#474751" stroke-width="0.8"/><path d="M400,197L391.7,191.3L390,177.1L301.5,127.3L297.3,124.6L297.1,98.7L304.1,88.8L316.2,72.6L325,54.8L314.2,26.7L311.4,14.4L301.6,0L380.6,0L380.6,0L400,13.1L400,197Z" fill="#2c2c34" stroke="#474751" stroke-width="0.8"/><path d="M17.8,0L16.4,2.8L5.5,0L17.8,0Z" fill="#2c2c34" stroke="#474751" stroke-width="0.8"/><path d="M0,285.8L0.3,295.5L2.6,300L0,300Z" fill="#2c2c34" stroke="#474751" stroke-width="0.8"/><path d="M213.4,160.3L214.8,170L220.1,175.5L220.4,183.5L214.3,188.6L204.8,201.4L195.9,210.3L185.8,211.4L184.3,181.9L178.1,170.8L193,172.7L200.5,158.8Z" fill="#2c2c34" stroke="#474751" stroke-width="0.8"/><path d="M400,13.1L380.6,0L400,0Z" fill="#2c2c34" stroke="#474751" stroke-width="0.8"/><path d="M301.6,0L311.4,14.4L314.2,26.7L325,54.8L316.2,72.6L304.1,88.8L297.1,98.7L297.3,124.6L297.3,124.6L247.5,126.5L220.8,126.2L212.2,129.1L197.6,136.6L191.7,134.1L191.9,115.7L197.6,106.4L198.9,86.7L204.1,75.4L213.4,62.7L222.8,56.2L230.7,47.5L220.9,44.2L222.3,15.6L232.4,8.9L247.9,14.4L267.6,8.6L284.8,8.7L296.3,0L301.6,0Z" fill="#2c2c34" stroke="#474751" stroke-width="0.8"/><path d="M296.3,0L284.8,8.7L267.6,8.6L247.9,14.4L232.4,8.9L222.3,15.6L222.3,15.6L201.8,0L296.3,0Z" fill="#2c2c34" stroke="#474751" stroke-width="0.8"/><path d="M191.6,135.3L192.4,135.2L197.7,134L198.2,134.4L199.1,136.9L199.5,137.2L200.2,137.3L201.7,136.7L204.4,134.8L205.6,133.6L207,132L208.8,130.1L209.8,128.6L210.8,127.6L212,127.3L213.4,127.4L214.4,127.4L213.6,127.8L213.4,129L214.4,130.9L217.4,134.8L219.3,135.5L220.5,137L221.8,139.6L222.2,142.8L221.7,146.6L221.9,149.5L223.1,151.3L223.4,153.7L222.8,156.7L222.2,158.5L221.4,159.1L220.6,159.3L219.4,159.1L218,159.4L216.5,159.9L215.5,160L214.9,159.9L213.8,159.4L211.9,157.9L208.6,158.8L207.7,158.7L206.5,159.5L205.4,160.4L204.8,160.4L204.2,160.3L201.3,158.5L200.2,158.5L199.8,163.6L199.3,166.5L198.7,167.8L196.7,169L194.6,169.7L193.4,169.6L188.9,170L187,170L186.1,169.6L184.7,166.7L182.4,165.4L180,164.8L179.1,165L178.2,166.5L177.9,167.8L175.6,166.9L175,165.8L174.9,163.8L174,161.2L174.5,160L175.4,159.3L177.3,157.9L180.2,156L180.8,155L181.1,153.4L181,149.9L180.7,146.8L181,145.7L182.4,143.4L184,141L186.1,138.5L187.4,138.2L189,137.2L190.6,135.8Z" fill="#b8e653" stroke="#0c0e06" stroke-width="1"/></svg>
