<svg xmlns="http://www.w3.org/2000/svg" viewBox="0 0 300 300"><path fill="#e8e8ea" d="M112.7,79.4L116.9,79.2L144.7,72.7L147.5,74.7L152.1,87.7L154.4,89.5L158.1,89.9L166,87L180.4,77L186.4,70.7L193.8,62.2L203.1,52.4L208.6,44.1L213.7,39L220.2,37.6L227.6,37.9L232.7,38.1L228.6,40.1L227.6,46.3L232.7,56.2L248.5,76.7L258.7,80.5L265.2,88.6L271.7,102L274,118.8L271.2,138.9L272.6,154.1L278.6,163.9L280,176.7L277.2,192.4L274,201.7L269.8,204.9L265.6,206.2L259.1,205.1L251.7,206.4L243.9,209.4L238.8,209.8L235.5,209.1L229.5,206.7L219.8,198.6L202.1,203.1L197.5,202.9L191,206.9L185.5,211.6L182.2,211.8L179,211.1L163.7,201.7L158.1,202L155.8,228.8L153.5,243.8L150.2,250.5L139.6,257L128.4,260.6L122.4,260.4L98.3,262.4L88.6,262.4L83.5,260.1L76.5,244.9L64,238.2L51.5,235.1L46.9,236L42.2,243.8L40.4,251L28.3,246L25.1,240L24.6,229.7L20,215.8L22.8,209.8L27.4,206L37.1,198.6L52.4,188.3L55.7,183.4L57.5,175.1L56.6,156.3L55.2,140.2L57.1,134.4L64,122.1L72.8,109.4L84,96.2L90.4,94.9L98.8,89.7L107.6,82.1Z"/></svg>
