<svg xmlns="http://www.w3.org/2000/svg" viewBox="0 0 300 300"><path fill="#e8e8ea" d="M234.7,223.2L231.8,223.7L229,224.1L225.8,224.5L222,225.1L219,225.5L214.6,226.1L210.7,226.6L207.1,227.2L203.4,227.7L200.3,228.1L198.4,228.7L196.2,229.8L192.8,231.5L189.4,233.3L187.7,234.2L185.8,236.5L184.9,237.7L183.1,239.8L181.8,241.5L180.3,243.4L179.7,245.1L178.6,247.7L177.7,248.4L176.3,249.3L174.9,249.9L172.8,249.8L171.7,248.2L170.4,246.5L169.8,245.8L169.2,245.7L167.1,245.9L164.6,246.2L161.7,245.9L158.2,245.6L155,245.3L153.4,245.1L151.3,243.9L150.8,243.7L150.2,243.7L147.8,243.6L145.3,243.6L142.8,244L140.4,243.8L138,244L137.1,244.5L136.2,244.4L135.5,244.8L135,245L134.4,244.7L133.6,244.8L132.5,244.5L131.7,243.7L131.1,243.1L130.4,242.7L129.6,242.5L128.9,242.5L128,242.9L127.4,243.3L126,244.6L126,245L126.6,245.7L126.4,246.1L125.6,246.6L125.4,247.7L125.2,248.4L125.1,249.9L125.5,251.2L126,251.6L126,252.2L125.7,253.2L125,253.5L124.4,254.5L124.1,255L123.5,255.5L121.2,257.3L121.1,256.3L120.3,254.8L120.3,253.7L119.9,252.6L119.3,251.8L118.2,250.9L118,249.7L117.2,248.6L116.1,247.6L115.4,245.9L115,243.6L112,240.5L108.2,237.7L107.1,236.1L105.2,232.9L104.3,230.3L101.8,227.4L101.7,226.3L101.3,224.9L100.7,223.3L100.4,222.1L97.9,216.8L97.1,215.9L96.4,214.7L96.2,213.8L96,213.3L94.2,212.4L92.5,210.1L87.6,206.6L85.1,206.2L83.2,204.9L81.8,203.2L80.3,200.3L77.6,197.2L75.4,192.8L76.1,191.1L76.1,190L75.3,188L74.6,186.6L74,185.2L74.5,183.1L74.6,180.9L75.1,179.6L75.4,178.3L75,175.7L74.2,174.2L74.3,173.3L73.5,172.8L72.8,171.8L73.5,171.8L72.2,170.3L71.7,169.5L71.2,167.6L70.6,166.1L68.6,162.7L67.6,160.6L65.4,157.9L63.1,155.9L61.6,155L60.9,154.2L59.6,154.2L58.3,153L57.4,153L56.2,152.8L54.8,150.5L53.7,148.4L51.7,145.6L52.2,144.8L52.8,143.6L52.5,142.1L52.2,141.1L51.3,139.1L48.5,134.3L47.7,133.6L46.5,132.8L45.8,130.7L45.5,128.9L43.5,128L40.2,121.2L38.3,118.8L37.5,117.2L35.3,114.6L34.2,112L31.9,109.6L30,105.4L27,101.2L25.7,100.4L22.6,100.1L21.3,99.8L20.1,100.7L20,99.6L20.8,97.9L22,94.5L22.3,91.5L24.1,82.6L26.8,83L28.9,83.4L32.1,84L35.4,84.5L37.3,84.9L37.9,84.7L40.6,82.6L43,80.6L44.4,78.1L45.8,75.8L46.4,75.3L48.6,74.8L52,74.1L55.3,73.4L55.5,73.2L56.3,71.3L57.3,68.9L57.5,68.6L57.8,68.4L60.2,67L61.6,66.2L59.5,63.8L57.6,61.5L55.4,58.9L53.6,56.9L50.8,53.9L49,51.9L52.1,51L55.6,50L59,48.9L63.2,47.7L66.5,46.7L71.4,45.3L73.7,44.6L74.2,44.4L76,42.7L78.8,43.2L82.9,43.9L86.9,44.6L91.1,45.4L92.5,46.1L96.6,48.5L99.2,50.1L102.3,52L106.2,54.2L108.8,55.8L112.2,57.9L114.9,60.2L118.3,63.1L121.9,66.3L124.9,68.8L129.1,72.2L133.3,75.5L137.3,78.8L140.5,81.4L144.6,84.7L144.9,84.8L149,85.2L154.6,85.7L160.2,86.2L165.2,86.7L167.4,86.2L169.7,86.5L172.9,86.9L174.8,87.2L178.5,87.7L179.6,89.9L180,91.4L180.4,92.8L181.4,94.2L183.9,94.1L186.1,94.1L188.8,94.1L191,94L191.7,95.4L192,96.7L193.3,99.8L195.1,102.2L195.5,103.1L195.8,104.4L195.5,104.9L195.4,105.5L196.7,106.8L199,108L199.8,108.2L200.8,108.8L200,109.5L201.4,111.3L202.9,113.1L204.5,113.5L206.8,116.2L210.1,118L212.1,120.3L211.9,120.3L211.3,120.1L210.6,119.8L210.4,120.1L210.4,121L210.6,122.1L211.6,123.1L212.6,123.8L212.9,125.2L212.2,128L211.9,128L211.4,127.8L210.9,127.7L210.6,127.9L211.3,130L211.8,131.5L212.6,132.8L213.2,134.6L213.7,135.4L215.9,137.3L216.5,138.9L217.1,141.9L218.5,143.6L219.2,144.9L220.2,146L220.8,147.5L221.7,148.6L222.2,148.9L222.9,149L223.8,149L224.8,148.8L225.9,148.5L226.8,149L227.7,149L227.8,149.5L227.2,150.2L226.4,152.1L227.5,152.4L228.5,152.5L229.2,152.8L229.6,152.8L229.6,153.2L229.7,155L230,155.6L230.4,156.2L231.1,157.1L231.7,158L232.5,158.9L233.1,159.8L233.8,160.7L234.5,161.6L235.2,162.4L235.8,163.3L236.5,164.2L237.2,165.1L237.9,166L238.6,166.8L239.3,167.7L239.9,168.6L240.6,169.5L241.3,170.4L241.8,171.1L242.9,171.2L243.2,171.3L244.2,171.4L245.6,171.6L247.5,171.8L249.7,172.1L252.2,172.5L254.9,172.8L257.7,173.2L260.4,173.6L263,173.9L265.5,174.2L267.8,174.5L269.7,174.8L271.1,175L272.1,175.1L272.4,175.1L273.4,175.3L273.5,175.2L274.4,174.2L275.3,175.7L276,176.9L277.1,178.7L278.2,180.5L279.2,182.2L280,183.6L279.6,184.9L279.2,186.4L278.7,187.8L278.2,189.3L277.8,190.8L277.3,192.3L276.9,193.7L276.4,195.2L275.9,196.7L275.5,198.1L275.1,199.6L274.6,201.1L274.2,202.5L273.7,204L273.2,205.5L272.8,206.9L272.3,208.4L271.8,210.1L270.5,210.6L268.4,211.3L266.2,212.1L264.1,212.8L262,213.6L259.8,214.4L257.7,215.1L255.6,215.9L253.5,216.6L251.3,217.4L249.2,218.1L247.1,218.9L245,219.6L242.8,220.4L240.7,221.1L238.6,221.9L236.5,222.6Z"/></svg>
