<svg xmlns="http://www.w3.org/2000/svg" viewBox="0 0 400 300"><path d="M400,17.5L393.4,16.9L383.5,16.7L381.4,17.6L372.9,14.1L369.5,15.8L368.6,20.6L358.8,17.8L354.9,19L353.6,22.5L350.2,24L342.3,29.5L339.7,35.2L337.5,35.2L335.9,31.5L328.3,31.2L327.1,24.7L324.2,24.7L324.7,16.6L317.6,10.6L307.4,11.3L300.4,12.5L294.7,5L289.9,1.9L287,0L400,0ZM264.4,0L264.2,0.1L264.4,30.1L261.4,30.5L257.2,24.3L253.2,22L246.5,23.7L243.8,26.4L243.5,24.4L245,21.1L243.8,18.3L236.9,15.5L234.3,8.1L231,6L230.8,3.3L236.6,4.1L236.7,0L264.4,0Z" fill="#2c2c34" stroke="#474751" stroke-width="0.8"/><path d="M287,0L289.9,1.9L294.7,5L300.4,12.5L307.4,11.3L317.6,10.6L324.7,16.6L324.2,24.7L327.1,24.7L328.3,31.2L335.9,31.5L337.5,35.2L339.7,35.2L342.3,29.5L350.2,24L353.6,22.5L355.4,23.3L350.4,28.5L354.8,31.4L359,29.5L366,33.6L358.4,39.3L353.9,38.5L351.5,38.7L350.6,36.5L351.8,32.9L343.9,34.7L342,39.7L339.2,44L334.2,43.6L332.7,47L337,48.8L338.3,54.5L335,62.1L330.5,60.5L327.2,60.5L327.3,55.9L319.4,52.6L313.2,48.9L309.3,45.3L302.5,40L299.6,31.9L297.6,30.5L291.2,30.8L288.9,29.2L288.3,22.8L280.3,18.6L275.3,23.3L270.2,26L271.1,30L264.4,30.1L264.4,30.1L264.2,0.1L264.4,0L287,0Z" fill="#2c2c34" stroke="#474751" stroke-width="0.8"/><path d="M37,300L37.7,298.6L37.4,295.2L38.1,289.9L39.3,286.2L41.1,283L41.4,279.4L41.9,275.3L44.2,272.3L47.4,270.3L52.3,272.4L56.1,274.6L60.5,275.1L64.9,276.3L66.7,272.7L67.5,272.2L70.2,272.8L76.8,269.9L79.2,271.1L81.1,270.9L82,269.5L84.2,269L88.7,269.6L92.5,269.8L94.4,269.1L98.1,274L100.7,274.8L102.3,273.8L105.1,274.2L108.4,272.9L109.8,275.4L115,279.4L114.7,286.4L117,287.2L115.1,289.3L112.8,290.9L110.6,294L109.3,296.7L109.1,300L37,300Z" fill="#2c2c34" stroke="#474751" stroke-width="0.8"/><path d="M175.4,300L175.3,283.7L180.5,277L182.2,275.1L186,275L191.3,270.8L199,270.5L215.8,252.5L220,247.5L222.6,243.8L222.6,240.7L222.6,234.6L222.7,232.1L222.7,232L224.6,231.9L227.4,231L230.5,230.4L233.3,228.3L235.6,228.3L235.7,229.9L235.2,233.5L235.2,236.6L233.9,238.8L232.3,245.4L229.4,252.1L225.7,259.7L220.6,268.5L215.5,275.2L208.5,283.3L202.6,288.1L193.7,294L188.2,298.5L186.9,300L175.4,300Z" fill="#2c2c34" stroke="#474751" stroke-width="0.8"/><path d="M133.2,300L133.2,299.6L134.9,297.2L137.8,293.3L140,288.9L137.4,282.1L136.7,279.1L133.9,275L137.5,271.4L141.5,267.5L144.6,268.5L144.6,271.8L146.7,273.8L150.8,273.8L158.3,278.9L160.2,278.9L161.6,278.8L162.9,279.5L166.9,279.9L168.6,277.4L174.1,274.9L176.5,277L180.5,277L175.3,283.7L175.4,300L133.2,300Z" fill="#2c2c34" stroke="#474751" stroke-width="0.8"/><path d="M77.8,251.2L73.2,248.6L71.2,246.8L70.8,245L71.7,242.4L71.7,240L68.3,236.2L67.6,233.6L67.7,232.1L65.5,230.4L65.5,226.8L64.2,224.5L62.1,224.8L62.7,222.6L64.3,220L63.6,217.5L65.5,215.6L64.3,214.2L65.9,210.4L68.6,205.9L73.7,206.3L73.4,181.5L73.5,178.9L80.3,178.9L80.3,166.1L104.2,166.1L127.3,166.1L150.9,166.1L152.8,172.4L151.5,173.6L152.4,180.1L154.5,187.6L156.8,189.2L160.1,191.5L157,195L152.7,196.1L150.8,198L150.2,202.1L147.6,211.2L148.3,213.6L147.3,218.9L144.9,224.9L141.3,227.9L138.8,232.5L138.2,235L135.4,236.7L133.6,243L133.7,248.4L133.6,243.8L132.8,243.6L132.9,240.6L132.2,238.6L129.1,236.2L128.4,231.8L129.1,227.3L126.4,226.9L126,228.3L122.4,228.6L123.8,230.3L124.3,234L121.1,237.3L118.1,241.7L115,242.3L110,238.8L107.8,240L107.2,241.8L104.1,242.9L103.9,244.2L98,244.2L97.2,242.9L92.9,242.7L90.8,243.7L89.1,243.2L86,239.7L85,238L80.7,238.9L79.1,241.7L77.6,247.1L75.5,248.2L73.7,248.8Z" fill="#2c2c34" stroke="#474751" stroke-width="0.8"/><path d="M73.4,181.5L73.7,206.3L68.6,205.9L65.9,210.4L64.3,214.2L65.5,215.6L63.6,217.5L64.3,220L62.7,222.6L62.1,224.8L64.2,224.5L65.5,226.8L65.5,230.4L67.7,232.1L67.6,233.6L63.9,234.6L60.9,237.1L56.6,243.7L51,246.5L45.2,246.1L43.5,246.7L44.1,248.8L41,250.9L38.5,253.2L31,255.5L29.5,254.1L28.6,254L27.4,255.6L22.5,256L23.5,254.4L21.6,250.3L20.8,247.8L18.2,246.8L14.7,243.2L15.9,240.4L18.7,241L20.3,240.6L23.7,240.6L20.4,235.1L20.6,231.1L20.2,227.1L17.9,223.2L18.5,220.3L14.7,220.2L14.7,216.2L12.2,214L14.8,205.8L22.3,200L22.7,191.9L25,179.1L26.2,176.4L23.8,174.2L23.7,172.2L21.4,170.6L20,160.6L26,157.1L49.7,169.4Z" fill="#2c2c34" stroke="#474751" stroke-width="0.8"/><path d="M211.5,0L209.2,3.3L214.6,11.2L214.1,16.7L220.5,26.2L217,29.4L216,31.4L213.4,30.8L209.3,26L207.6,25.7L203.9,23.9L202,20.6L196.5,18.9L192.9,20.2L191.8,18.7L183.8,14.8L175,13.5L170,12.1L169.2,13L161.7,6.1L154.9,2.9L151.8,0L211.5,0ZM143.6,0L141.2,0.5L133.1,5.4L129.8,3.7L131.1,0L143.6,0Z" fill="#2c2c34" stroke="#474751" stroke-width="0.8"/><path d="M0,158.5L3,156.7L12.4,159.5L15.8,163L20,160.6L20,160.6L21.4,170.6L23.7,172.2L23.8,174.2L26.2,176.4L25,179.1L22.7,191.9L22.3,200L14.8,205.8L12.2,214L14.7,216.2L14.7,220.2L18.5,220.3L17.9,223.2L16.2,223.5L16,225.5L14.9,225.6L10.9,218.9L9.5,218.7L4.8,222.1L0.2,220.3L0,220.3L0,158.5Z" fill="#2c2c34" stroke="#474751" stroke-width="0.8"/><path d="M0,220.3L0.2,220.3L4.8,222.1L9.5,218.7L10.9,218.9L14.9,225.6L16,225.5L18.4,227.9L17.7,229L17.4,231L12.4,235.7L10.8,239.6L10,242.7L8.7,244L7.5,248.3L4.3,250.7L3.4,253.8L2.1,256.2L1.5,258.7L0,259.4L0,220.3Z" fill="#2c2c34" stroke="#474751" stroke-width="0.8"/><path d="M0,259.4L1.5,258.7L2.1,256.2L3.4,253.8L4.3,250.7L7.5,248.3L8.7,244L10,242.7L10.8,239.6L12.4,235.7L17.4,231L17.7,229L18.4,227.9L16,225.5L16.2,223.5L17.9,223.2L17.9,223.2L20.2,227.1L20.6,231.1L20.4,235.1L23.7,240.6L20.3,240.6L18.7,241L15.9,240.4L14.7,243.2L18.2,246.8L20.8,247.8L21.6,250.3L23.5,254.4L22.5,256L19.5,262.1L18.1,263.2L17.7,267.8L18.3,270.3L17.8,272.1L20.6,275.2L21.1,277.4L23.3,280.4L26,282.4L26.3,285.1L26.9,286.8L26.5,290L21.7,288.6L16.9,287L9.4,286.8L8.7,286.5L5.2,287.2L1.6,286.4L0,286.7L0,259.4Z" fill="#2c2c34" stroke="#474751" stroke-width="0.8"/><path d="M94.4,269.1L92.5,269.8L88.7,269.6L84.2,269L82,269.5L81.1,270.9L79.2,271.1L76.8,269.9L70.2,272.8L67.5,272.2L66.7,272.7L64.9,276.3L60.5,275.1L56.1,274.6L52.3,272.4L47.4,270.3L44.2,272.3L41.9,275.3L41.4,279.4L37.6,279.1L33.6,278.1L30,281.3L26.9,286.8L26.3,285.1L26,282.4L23.3,280.4L21.1,277.4L20.6,275.2L17.8,272.1L18.3,270.3L17.7,267.8L18.1,263.2L19.5,262.1L22.5,256L27.4,255.6L28.6,254L29.5,254.1L31,255.5L38.5,253.2L41,250.9L44.1,248.8L43.5,246.7L45.2,246.1L51,246.5L56.6,243.7L60.9,237.1L63.9,234.6L67.6,233.6L68.3,236.2L71.7,240L71.7,242.4L70.8,245L71.2,246.8L73.2,248.6L77.8,251.2L81,253.6L81.1,255.6L85.1,258.7L87.5,261.3L89,264.9L93.5,267.2Z" fill="#2c2c34" stroke="#474751" stroke-width="0.8"/><path d="M14,300L16.6,293.2L15.1,292L10.7,292.5L9,289.4L9.4,286.8L16.9,287L21.7,288.6L26.5,290L26.9,286.8L30,281.3L33.6,278.1L37.6,279.1L41.4,279.4L41.4,279.4L41.1,283L39.3,286.2L38.1,289.9L37.4,295.2L37.7,298.6L37,300L14,300Z" fill="#2c2c34" stroke="#474751" stroke-width="0.8"/><path d="M0,286.7L1.6,286.4L5.2,287.2L8.7,286.5L9.4,286.8L9,289.4L10.7,292.5L15.1,292L16.6,293.2L14,300L0,300Z" fill="#2c2c34" stroke="#474751" stroke-width="0.8"/><path d="M144.1,94.3L143,96.5L140.9,95.5L139.6,100.2L141.1,101L139.6,102L139.3,103.8L142.1,102.9L142.3,105.6L139.3,116.6L138.7,114.8L135.4,104.7L137.1,102.4L136.7,102L138.3,98.8L139.5,93.5L140.4,91.7L140.5,91.6L142.5,91.6L143.1,90.4L144.7,90.3L144.8,93.2L143.9,94.2Z" fill="#2c2c34" stroke="#474751" stroke-width="0.8"/><path d="M144.7,90.3L143.1,90.4L142.5,91.6L140.5,91.6L142.7,85.8L145.6,80.7L145.7,80.5L148.4,80.8L149.4,83.7L146.1,86.4Z" fill="#2c2c34" stroke="#474751" stroke-width="0.8"/><path d="M142.1,102.9L139.3,103.8L139.6,102L141.1,101L139.6,100.2L140.9,95.5L143,96.5L143,100.8Z" fill="#2c2c34" stroke="#474751" stroke-width="0.8"/><path d="M0,91.3L0,91.3Z" fill="#2c2c34" stroke="#474751" stroke-width="0.8"/><path d="M0,152.3L0.4,152.6L3,156.7L0,158.5L0,152.3Z" fill="#2c2c34" stroke="#474751" stroke-width="0.8"/><path d="M143,96.5L144.1,94.3L150.7,97.1L162.3,89.5L164.7,98.2L163.6,99.2L151.7,102.7L157.6,109.7L155.7,110.8L154.7,113.1L150.1,114.1L148.7,116.5L146.1,118.6L139.5,117.6L139.3,116.6L142.3,105.6L142.1,102.9L143,100.8Z" fill="#2c2c34" stroke="#474751" stroke-width="0.8"/><path d="M238.4,151.6L239.4,151.3L239.6,153.1L244.3,152.1L249.2,152.2L252.8,152.4L256.9,148L261.3,143.8L265.1,139.7L266.2,142L267,147.2L264,147.2L263.5,151.5L264.5,152.4L261.8,153.7L261.8,156.3L260.1,159L259.9,161.6L258.7,163L240.9,159.7L238.6,153.1Z" fill="#2c2c34" stroke="#474751" stroke-width="0.8"/><path d="M233.8,148.3L233.4,143.5L235,140.1L236.6,139.3L238.4,141.4L238.5,145.3L237.2,149.1L235.6,149.6Z" fill="#2c2c34" stroke="#474751" stroke-width="0.8"/><path d="M216.9,113.3L218.2,116.4L217.6,117.9L219.5,123L215.3,123.2L213.9,120L208.6,119.3L212.9,112.8Z" fill="#2c2c34" stroke="#474751" stroke-width="0.8"/><path d="M164.7,98.2L162.3,89.5L175.5,82.1L177.7,73.3L177.2,67.9L180.4,66.1L183.5,61.5L186,60.3L193,61.3L195,63.2L197.9,61.9L201.7,70.8L205.6,72.9L206.1,77.2L203.1,79.7L201.7,85.3L205.8,92.1L213.1,96L216.2,101.3L215.2,106.4L217.1,106.4L217.2,110L220.4,113.7L216.9,113.3L212.9,112.8L208.6,119.3L197.5,118.8L180.7,104.9L171.9,100.1Z" fill="#2c2c34" stroke="#474751" stroke-width="0.8"/><path d="M259.9,161.6L260.1,159L261.8,156.3L261.8,153.7L264.5,152.4L263.5,151.5L264,147.2L267,147.2L269.7,151.7L273,154L277.3,154.9L280.9,156L283.5,159.8L285.1,161.9L287.3,162.7L287.3,164.2L285.1,168L284.2,169.8L281.7,171.8L279.4,176.2L276.7,175.8L275.5,177.3L274.6,180.6L275.3,184.8L274.7,185.5L272,185.5L268.3,187.9L267.7,190.9L266.3,192.2L262.6,192.2L260.3,193.8L260.3,196.3L257.4,198L254.2,197.4L250.2,199.5L247.5,199.9L245.5,195.5L240.9,185.2L258.7,178.9L262.7,166.1ZM266.2,142L265.1,139.7L266.8,137.5L267.5,138.1L267,140.8Z" fill="#2c2c34" stroke="#474751" stroke-width="0.8"/><path d="M400,246L397.1,247L395.1,251L392.7,252.8L387.1,247.2L384.3,238.7L382,232.6L380,229.7L376.8,223.9L375.3,216.2L374.3,212.4L368.9,204L366.4,191.9L364.6,183.9L364.7,176.2L363.5,170.3L354.9,174.1L350.7,173.3L342.9,165.6L345.8,163.2L344,160.7L337,155.2L341,150.9L354.1,150.9L352.9,145.3L349.6,141.9L348.9,136.8L345,133.9L351.5,126.8L358.5,127.3L364.7,120.2L368.4,113.3L374.2,106.4L374.1,101.4L379.1,97.4L374.3,93.9L372.3,89.1L370.2,82.8L373.1,79.7L382.1,81.5L388.7,80.4L394.5,74.3L400,81.7L400,95.3L400,95.3L398.2,94.9L399.8,102.7L400,102.8L400,246Z" fill="#2c2c34" stroke="#474751" stroke-width="0.8"/><path d="M394.5,74.3L388.7,80.4L382.1,81.5L373.1,79.7L370.2,82.8L372.3,89.1L374.3,93.9L379.1,97.4L374.1,101.4L374.2,106.4L368.4,113.3L364.7,120.2L358.5,127.3L351.5,126.8L345,133.9L348.9,136.8L349.6,141.9L352.9,145.3L354.1,150.9L341,150.9L337,155.2L332.7,153.6L330.9,148.9L326.3,143.9L315.3,145.1L305.7,145.3L297.3,146.2L299.6,138.5L308.1,135.1L307.6,132L304.8,130.9L304.6,125L299,122L296.6,117.9L293.6,114.3L303.6,117.8L309.5,116.8L313.1,117.7L314.3,116.2L318.4,116.8L326.2,113.9L326.4,108.1L329.7,104.1L334.1,104.2L334.8,102.2L339.3,101.3L341.5,101.9L343.8,100L343.5,95.8L346,91.5L349.8,89.7L347.5,85L353.1,85.2L354.8,82.6L354.5,79.8L357.5,76.8L356.8,73.1L355.4,70L358.9,66.8L365.2,65.3L372.1,64.4L375.1,63L378.6,62.2L382.9,65.7L384.7,71.3Z" fill="#2c2c34" stroke="#474751" stroke-width="0.8"/><path d="M327.2,60.5L330.5,60.5L335,62.1L336.8,63L341.1,60.6L343.1,62.1L345,58.6L348.6,58.8L349.5,57.7L350.1,54.6L352.7,52L355.9,53.7L355.2,56.1L357,56.4L356.5,62.7L358.8,65.1L360.9,63.6L363.5,62.8L367.3,59.5L371.4,60L377.5,60.1L378.6,62.2L375.1,63L372.1,64.4L365.2,65.3L358.9,66.8L355.4,70L356.8,73.1L357.5,76.8L354.5,79.8L354.8,82.6L353.1,85.2L347.5,85L349.8,89.7L346,91.5L343.5,95.8L343.8,100L341.5,101.9L339.3,101.3L334.8,102.2L334.1,104.2L329.7,104.1L326.4,108.1L326.2,113.9L318.4,116.8L314.3,116.2L313.1,117.7L309.5,116.8L303.6,117.8L293.6,114.3L299,108.1L298.5,103.6L294,102.4L293.6,98L291.6,92.4L294.2,88.5L291.6,87.4L293.2,82.2L295.6,73.2L301.7,75.9L306.2,75L307.4,71.6L312.1,70.5L315.5,68.3L316.6,62.4L321.6,60.9L322.6,58.2L325.4,60.2Z" fill="#2c2c34" stroke="#474751" stroke-width="0.8"/><path d="M335,62.1L338.3,54.5L337,48.8L332.7,47L334.2,43.6L339.2,44L342,39.7L343.9,34.7L351.8,32.9L350.6,36.5L351.5,38.7L353.9,38.5L351.7,40.9L345.2,39.6L344.7,44.1L351.1,43.5L358.5,46L369.7,44.8L371.2,51.9L373.2,51.1L376.8,52.8L376.6,55.8L377.5,60.1L371.4,60L367.3,59.5L363.5,62.8L360.9,63.6L358.8,65.1L356.5,62.7L357,56.4L355.2,56.1L355.9,53.7L352.7,52L350.1,54.6L349.5,57.7L348.6,58.8L345,58.6L343.1,62.1L341.1,60.6L336.8,63Z" fill="#2c2c34" stroke="#474751" stroke-width="0.8"/><path d="M400,27.4L398.7,28L396.6,31.1L388.9,32L386.7,37.1L380.4,36L376.3,37.5L370.6,41.2L371.4,43L369.7,44.8L358.5,46L351.1,43.5L344.7,44.1L345.2,39.6L351.7,40.9L353.9,38.5L358.4,39.3L366,33.6L359,29.5L354.8,31.4L350.4,28.5L355.4,23.3L353.6,22.5L353.6,22.5L354.9,19L358.8,17.8L368.6,20.6L369.5,15.8L372.9,14.1L381.4,17.6L383.5,16.7L393.4,16.9L400,17.5L400,27.4Z" fill="#2c2c34" stroke="#474751" stroke-width="0.8"/><path d="M243.8,26.4L246.5,23.7L253.2,22L257.2,24.3L261.4,30.5L264.4,30.1L271.1,30L270.2,26L275.3,23.3L280.3,18.6L288.3,22.8L288.9,29.2L291.2,30.8L297.6,30.5L299.6,31.9L302.5,40L309.3,45.3L313.2,48.9L319.4,52.6L327.3,55.9L327.2,60.5L325.4,60.2L322.6,58.2L321.6,60.9L316.6,62.4L315.5,68.3L312.1,70.5L307.4,71.6L306.2,75L301.7,75.9L295.6,73.2L295.1,67L290.7,66.7L283.9,60.1L279.1,59.3L272.5,55.5L268.3,54.8L265.7,56.2L261.7,56L257.5,60.3L252.3,61.7L251.2,56.4L252,48.5L247.4,45.9L248.9,40.6L245,40.1L246.3,33.6L251.9,35.5L257.1,33L252.8,28.2L251.1,23.6L246.3,25.7L245.7,31.5Z" fill="#2c2c34" stroke="#474751" stroke-width="0.8"/><path d="M220.4,113.7L217.2,110L217.1,106.4L215.2,106.4L216.2,101.3L213.1,96L205.8,92.1L201.7,85.3L203.1,79.7L206.1,77.2L205.6,72.9L201.7,70.8L197.9,61.9L194.6,55.9L195.8,53.6L193.9,44.8L198,42.6L199,45.5L202,49.1L206,50.1L208.2,49.9L215.2,44.2L217.4,43.6L219.2,45.9L217.1,49.7L220.8,53.6L222.3,53.3L224.2,58.8L229.8,60.4L234,64.1L242.4,65.4L251.7,63.5L252.3,61.7L257.5,60.3L261.7,56L265.7,56.2L268.3,54.8L272.5,55.5L279.1,59.3L283.9,60.1L290.7,66.7L295.1,67L295.6,73.2L293.2,82.2L291.6,87.4L294.2,88.5L291.6,92.4L293.6,98L294,102.4L298.5,103.6L299,108.1L293.6,114.3L296.6,117.9L299,122L304.6,125L304.8,130.9L307.6,132L308.1,135.1L299.6,138.5L297.3,146.2L286.1,144.2L279.6,142.7L272.9,141.8L270.4,133.7L267.6,132.5L263,133.7L257,136.9L249.7,134.7L243.7,129.6L238,127.7L234,121.2L229.6,112.1L226.5,113.3L222.7,111Z" fill="#2c2c34" stroke="#474751" stroke-width="0.8"/><path d="M144.1,94.3L143.9,94.2L144.8,93.2L144.7,90.3L146.1,86.4L149.4,83.7L148.4,80.8L145.7,80.5L145.2,74.9L146.6,71.9L148.2,70.3L149.8,68.7L150.1,64.6L152.1,66L158.6,63.9L161.8,65.3L166.7,65.3L173.5,62.5L176.7,62.6L183.5,61.5L180.4,66.1L177.2,67.9L177.7,73.3L175.5,82.1L162.3,89.5L150.7,97.1Z" fill="#2c2c34" stroke="#474751" stroke-width="0.8"/><path d="M208.2,49.9L206,50.1L203.6,45.6L203.6,44.5L201,44.5L199.3,42.4L198,42.6L195.7,40.4L191.2,38.4L191.8,34.6L190.8,31.8L199.1,30.6L200.3,32.7L202.6,34.1L201.4,36L204.5,38.7L202.9,41.2L205.4,43.3L208,44.5Z" fill="#2c2c34" stroke="#474751" stroke-width="0.8"/><path d="M107.4,0L104.9,1.6L103.1,0.8L101.5,10.8L98,9.9L93.7,6.9L86.7,8.8L83.7,10.9L75,10.5L70.4,9.2L68.1,9.8L66.4,6.4L65.3,5L66.7,3.6L65.2,2.5L63.4,4.4L59.9,2L59.6,0L107.4,0Z" fill="#2c2c34" stroke="#474751" stroke-width="0.8"/><path d="M66.4,6.4L68.1,9.8L70.4,9.2L75,10.5L83.7,10.9L86.7,8.8L93.7,6.9L98,9.9L101.5,10.8L98.4,14.2L96.2,20L98.1,24.6L93,23.5L87,26L86.9,30L81.5,30.7L77.3,28L72.6,30.1L68.2,29.9L67.7,24.6L64.7,22.1L65.7,20.9L65.1,20L66.1,17.4L68.3,14.8L65.5,11.3L64.9,8.3Z" fill="#2c2c34" stroke="#474751" stroke-width="0.8"/><path d="M88,75.7L87.2,77.9L78.7,78.5L78.7,77.3L71.5,75.9L72.6,72.8L75.9,75.2L80.5,74.8L84.9,75.3L84.8,76.6ZM68.2,29.9L72.6,30.1L77.3,28L81.5,30.7L86.9,30L87,26L89.9,28.1L88,33.1L86.6,34L83,33.7L79.9,33L72.7,35L76.8,39.4L73.8,40.7L70.5,40.7L67.3,36.7L66.2,38.4L67.6,43L70.5,46.6L68.3,48.3L71.6,51.8L74.5,54L74.6,58.3L69.1,56.3L70.9,60.1L67.1,60.9L69.3,67.5L65.4,67.6L60.5,64.4L58.3,58.4L57.3,53.4L54.9,49.9L51.9,45.5L51.5,43.3L54.3,39.5L54.6,37L56.6,35.9L56.7,33.8L60.6,33.1L62.8,31.4L66,31.6L67,30.2Z" fill="#2c2c34" stroke="#474751" stroke-width="0.8"/><path d="M197.9,61.9L195,63.2L193,61.3L186,60.3L183.5,61.5L176.7,62.6L173.5,62.5L166.7,65.3L161.8,65.3L158.6,63.9L152.1,66L150.1,64.6L149.8,68.7L148.2,70.3L146.6,71.9L144.4,68.6L146.7,65.8L143.1,66.4L138.1,64.7L134,69L125,69.8L120.2,65.8L113.7,65.6L112.4,68.6L108.3,69.5L102.5,65.6L96,65.7L92.5,58.3L88.2,54.1L91.1,48.2L87.3,44.5L93.9,37.1L103,36.8L105.5,30.8L116.9,31.9L124,26.7L131,24.5L140.8,24.3L151.2,29.9L159.7,33L166.6,31.8L171.7,32.5L178.7,28.3L185.1,28L190.8,31.8L191.8,34.6L191.2,38.4L195.7,40.4L198,42.6L193.9,44.8L195.8,53.6L194.6,55.9ZM87,26L93,23.5L98.1,24.6L98.8,27.6L104,30.2L103,32.1L95.9,32.6L93.4,35L88.4,39.2L86.5,35.6L86.6,34L88,33.1L89.9,28.1Z" fill="#2c2c34" stroke="#474751" stroke-width="0.8"/><path d="M56.7,33.8L56.6,35.9L54.6,37L54.3,39.5L51.5,43.3L50.5,42.8L50.4,41.1L47.1,38.4L46.6,34.7L47,29.3L47.9,26.9L46.9,25.6L46.5,23.1L49,19.1L49.4,20.6L51,19.9L52.3,22.1L53.7,22.9L54.1,25.8L53.4,28.5L54.2,31.9Z" fill="#2c2c34" stroke="#474751" stroke-width="0.8"/><path d="M45.6,0L44.7,1.2L42.9,0L45.6,0ZM28.7,0L28.7,0L28.7,0L28.7,0ZM25.9,0L25.3,1.6L28.2,5.5L29.5,8L32.3,11.1L34.5,12.9L36.8,16.3L42,19.4L41.4,20.8L35.8,17.8L32.3,14.9L26.9,12.4L21.9,6.4L23.1,5.7L20.4,2.2L20.3,0L25.9,0ZM15.5,0L14.6,1.7L13.6,0L15.5,0Z" fill="#2c2c34" stroke="#474751" stroke-width="0.8"/><path d="M400,102.8L399.8,102.7L398.2,94.9L400,95.3L400,102.8ZM400,81.7L394.5,74.3L384.7,71.3L382.9,65.7L378.6,62.2L377.5,60.1L376.6,55.8L376.8,52.8L373.2,51.1L371.2,51.9L369.7,44.8L371.4,43L370.6,41.2L376.3,37.5L380.4,36L386.7,37.1L388.9,32L396.6,31.1L398.7,28L400,27.4L400,81.7Z" fill="#2c2c34" stroke="#474751" stroke-width="0.8"/><path d="M5.2,0L5.3,1L4.6,3.4L6.5,7.6L12.1,11.8L15.1,18.5L21.7,25L26.4,25L27.8,26.7L26.2,28.3L31.5,31.2L35.9,33.5L40.9,37.6L41.6,39.1L40.5,41.9L37.2,38.2L32,36.9L29.5,42L33.8,44.8L33.1,48.8L30.6,49.3L27.4,55.8L24.9,56.4L25,54.1L26.2,50L27.5,48.4L25.2,43.9L23.3,40L20.9,39L19.1,35.7L15.3,34.3L12.7,31.1L8.3,30.6L3.7,27L0,23.5L0,0ZM19.5,54.6L24,54L21.8,59.9L22.7,62.2L21.5,66L16.9,63.2L13.9,62.4L5.6,58.6L6.4,54.7L13.4,55.4Z" fill="#2c2c34" stroke="#474751" stroke-width="0.8"/><path d="M207.6,25.7L209.3,26L213.4,30.8L216,31.4L217,29.4L220.5,26.2L223.7,30.3L226.7,35.9L229.5,36.3L231.3,38.4L226.4,39L225.4,45L224.3,47.7L222.2,49.5L222.3,53.3L220.8,53.6L217.1,49.7L219.2,45.9L217.4,43.6L215.2,44.2L208.2,49.9L208,44.5L205.4,43.3L202.9,41.2L204.5,38.7L201.4,36L202.6,34.1L200.3,32.7L199.1,30.6L200.5,29.3L205,31.6L208.2,32.1L209,31.1L206.1,26.9ZM206,50.1L202,49.1L199,45.5L198,42.6L199.3,42.4L201,44.5L203.6,44.5L203.6,45.6Z" fill="#2c2c34" stroke="#474751" stroke-width="0.8"/><path d="M169.2,13L170,12.1L175,13.5L183.8,14.8L191.8,18.7L192.9,20.2L196.5,18.9L202,20.6L203.9,23.9L207.6,25.7L206.1,26.9L209,31.1L208.2,32.1L205,31.6L200.5,29.3L199.1,30.6L190.8,31.8L185.1,28L178.7,28.3L179.6,24.9L178.1,19.5L174.7,16.5L171.4,15.5Z" fill="#2c2c34" stroke="#474751" stroke-width="0.8"/><path d="M148.3,213.6L147.6,211.2L150.2,202.1L150.8,198L152.7,196.1L157,195L160.1,191.5L163.5,198.7L165.2,204.4L168.4,207.4L176.5,213.2L179.8,216.7L183,220.2L184.9,222.3L187.8,224.1L186,225.6L183.5,225.1L181.5,223.1L179,219.6L176.4,217.6L174.9,215.5L169.7,213L165.6,212.9L164.1,211.7L160.7,213.1L157.1,210.3L155.2,214.9Z" fill="#2c2c34" stroke="#474751" stroke-width="0.8"/><path d="M240.9,185.2L245.5,195.5L247.5,199.9L243.2,201.5L242,204.3L241.9,206.4L235.9,209L226.4,211.9L221.1,216.2L218.5,216.5L216.7,216.2L213.2,218.7L209.4,219.9L204.5,220.2L203,220.5L201.6,222.2L200.1,222.6L199.2,224.1L196.2,224L194.3,224.8L190.2,224.5L188.7,221L188.8,217.6L187.9,215.8L186.7,211.3L185,208.7L186.2,208.4L185.6,205.6L186.3,204.4L186,201.7L188.6,199.8L188,197.1L189.6,194.1L192.1,195.7L193.7,195.1L200.5,195L201.6,195.6L207.4,196.2L209.6,195.9L211.1,198L213.9,197L218.2,190.4L223.7,187.6Z" fill="#2c2c34" stroke="#474751" stroke-width="0.8"/><path d="M126.3,76.9L126.7,76.8L127.6,75.1L131.8,75.2L137.3,73L133.2,76.1L133.7,77.5L133,77.2L131.9,77.8L131,77.6L130.7,77.9L130.6,77.2L130.2,76.7L129,76.6L127.4,77.3Z" fill="#2c2c34" stroke="#474751" stroke-width="0.8"/><path d="M126.3,76.9L127.4,77.3L129,76.6L130.2,76.7L130.6,77.2L130.7,77.9L131,77.6L131.9,77.8L133,77.2L133.7,77.5L133.9,78.1L127.8,81L124.9,80.1L123.5,77.1Z" fill="#2c2c34" stroke="#474751" stroke-width="0.8"/><path d="M150.9,166.1L127.3,166.1L104.2,166.1L80.3,166.1L80.3,142.2L80.3,118.4L78.6,112.9L80.1,108.6L79.2,105.6L81.3,102.3L89.2,102.2L94.9,104L100.8,106.1L103.6,107.2L108.2,105L110.6,103L115.9,102.4L120.1,103.3L121.7,106.7L123.1,104.4L127.8,106.1L132.5,106.5L135.4,104.7L138.7,114.8L139.3,116.6L137.7,119.3L136.4,124.4L134.8,127.9L133.4,129.1L131.4,126.9L128.7,123.9L124.5,114.2L123.8,114.8L126.3,122L130,128.8L134.5,139.2L136.6,142.8L138.6,146.5L143.9,153.7L142.7,154.8L142.9,159L149.8,164.8Z" fill="#2c2c34" stroke="#474751" stroke-width="0.8"/><path d="M0,91.3L0,91.3L7,93.7L9.5,93.1L14.4,94.3L22.3,97.4L25.1,103.6L30.5,105L38.8,107.9L45.2,111.3L48.1,109.5L50.9,106.4L49.5,101L51.4,97.6L55.7,94.3L59.8,93.3L67.8,94.8L69.8,97.9L72.1,98L74,99.2L79.9,100L81.3,102.3L79.2,105.6L80.1,108.6L78.6,112.9L80.3,118.4L80.3,142.2L80.3,166.1L80.3,166.1L80.3,178.9L73.5,178.9L73.4,181.5L49.7,169.4L26,157.1L20,160.6L15.8,163L12.4,159.5L3,156.7L0.4,152.6L0,152.3L0,91.3Z" fill="#2c2c34" stroke="#474751" stroke-width="0.8"/><path d="M215.8,252.5L199,270.5L191.3,270.8L186,275L182.2,275.1L180.5,277L176.5,277L174.1,274.9L168.6,277.4L166.9,279.9L162.9,279.5L161.6,278.8L160.2,278.9L158.3,278.9L150.8,273.8L146.7,273.8L144.6,271.8L144.6,268.5L141.5,267.5L138,261L135.3,259.6L134.3,257.2L131.3,254.3L127.6,253.9L129.6,250.4L132.8,250.3L133.7,248.4L133.6,243L135.4,236.7L138.2,235L138.8,232.5L141.3,227.9L144.9,224.9L147.3,218.9L148.3,213.6L155.2,214.9L157.1,210.3L160.7,213.1L164.1,211.7L165.6,212.9L169.7,213L174.9,215.5L176.4,217.6L179,219.6L181.5,223.1L183.5,225.1L181.4,227.8L179.4,230.6L179.9,232.3L179.9,234.2L183.3,234.3L184.7,233.8L186,234.9L184.7,237.1L186.9,240.4L189.1,243.3L191.4,245.4L210.8,252.6Z" fill="#2c2c34" stroke="#474751" stroke-width="0.8"/><path d="M183.5,225.1L186,225.6L187.8,224.1L189.2,226L189,228.6L185.7,230L188.2,231.7L186,234.9L184.7,233.8L183.3,234.3L179.9,234.2L179.9,232.3L179.4,230.6L181.4,227.8Z" fill="#2c2c34" stroke="#474751" stroke-width="0.8"/><path d="M222.7,232L222.7,232.1L222.6,234.6L222.6,240.7L222.6,243.8L220,247.5L215.8,252.5L210.8,252.6L191.4,245.4L189.1,243.3L186.9,240.4L184.7,237.1L186,234.9L188.2,231.7L190.2,232.8L191.3,235.3L194,237.8L196.9,237.9L202.5,236.3L209,235.6L214.3,233.7L217.2,233.3L219.3,232.2Z" fill="#2c2c34" stroke="#474751" stroke-width="0.8"/><path d="M109.1,300L109.3,296.7L110.6,294L112.8,290.9L115.1,289.3L117,287.2L114.7,286.4L115,279.4L117.5,277.8L121.2,279.1L126,277.7L130.2,277.7L133.9,275L136.7,279.1L137.4,282.1L140,288.9L137.8,293.3L134.9,297.2L133.2,299.6L133.2,300L109.1,300Z" fill="#2c2c34" stroke="#474751" stroke-width="0.8"/><path d="M28.7,0L28.7,0L28.7,0L42.9,0L42.9,0L44.7,1.2L46.8,1.2L45.4,4.9L48.2,8.1L47.3,11.9L46,12.3L44.8,13L42.9,14.9L42,19.4L42,19.4L36.8,16.3L34.5,12.9L32.3,11.1L29.5,8L28.2,5.5L25.3,1.6L25.9,0L28.7,0Z" fill="#2c2c34" stroke="#474751" stroke-width="0.8"/><path d="M64.7,22.1L67.7,24.6L68.2,29.9L67,30.2L66,31.6L62.8,31.4L60.6,33.1L56.7,33.8L54.2,31.9L53.4,28.5L54.1,25.8L54.9,25.9L55.1,24.2L58.6,23L60,22.7L62,22.2Z" fill="#2c2c34" stroke="#474751" stroke-width="0.8"/><path d="M59.6,0L59.9,2L63.4,4.4L65.2,2.5L66.7,3.6L65.3,5L66.4,6.4L64.9,8.3L65.5,11.3L68.3,14.8L66.1,17.4L65.1,20L65.7,20.9L64.7,22.1L62,22.2L60,22.7L59.8,22.1L60.5,21.1L61.2,19.1L60.3,19.2L59.2,17.7L58.2,17.3L57.4,16L56.3,15.5L55.4,14.4L54.4,14.8L53.6,17.5L52.1,18.1L52.6,17.4L50.3,15.7L48.4,14.8L47.5,13.7L46,12.3L47.3,11.9L48.2,8.1L45.4,4.9L46.8,1.2L44.7,1.2L45.6,0L59.6,0Z" fill="#2c2c34" stroke="#474751" stroke-width="0.8"/><path d="M51,19.9L49.4,20.6L49,19.1L46.5,23.1L46.9,25.6L45.6,25L43.9,22.4L41.4,20.8L42,19.4L42.9,14.9L44.8,13L46,12.3L47.5,13.7L48.4,14.8L50.3,15.7L52.6,17.4L52.1,18.1Z" fill="#2c2c34" stroke="#474751" stroke-width="0.8"/><path d="M54.1,25.8L53.7,22.9L52.3,22.1L51,19.9L52.1,18.1L53.6,17.5L54.4,14.8L55.4,14.4L56.3,15.5L57.4,16L58.2,17.3L59.2,17.7L60.3,19.2L61.2,19.1L60.5,21.1L59.8,22.1L60,22.7L58.6,23L55.1,24.2L54.9,25.9Z" fill="#2c2c34" stroke="#474751" stroke-width="0.8"/><path d="M115,279.4L109.8,275.4L108.4,272.9L105.1,274.2L102.3,273.8L100.7,274.8L98.1,274L94.4,269.1L93.5,267.2L89,264.9L87.5,261.3L85.1,258.7L81.1,255.6L81,253.6L77.8,251.2L73.7,248.8L75.5,248.2L77.6,247.1L79.1,241.7L80.7,238.9L85,238L86,239.7L89.1,243.2L90.8,243.7L92.9,242.7L97.2,242.9L98,244.2L103.9,244.2L104.1,242.9L107.2,241.8L107.8,240L110,238.8L115,242.3L118.1,241.7L121.1,237.3L124.3,234L123.8,230.3L122.4,228.6L126,228.3L126.4,226.9L129.1,227.3L128.4,231.8L129.1,236.2L132.2,238.6L132.9,240.6L132.8,243.6L133.6,243.8L133.7,248.4L132.8,250.3L129.6,250.4L127.6,253.9L131.3,254.3L134.3,257.2L135.3,259.6L138,261L141.5,267.5L137.5,271.4L133.9,275L130.2,277.7L126,277.7L121.2,279.1L117.5,277.8Z" fill="#2c2c34" stroke="#474751" stroke-width="0.8"/><path d="M151.1,144.2L150.9,144.2L150.5,143.7L150.3,143.4L150,143.2L148.9,142.7L148.7,142.4L148.9,142.2L149,142.4L149.2,142.6L150.2,143L151.2,143.9L151.4,144ZM181.3,199.5L181.8,199.5L181.6,199.3L181.6,199.2L181.8,198.9L182.4,199.5L182.4,200.2L182.3,200.4L182.2,200.2L182,200.1L182,199.9L181.8,199.7L181.2,199.8L180.8,199.7L180.2,199.1L180.1,198.6L180.3,198.6L180.6,198.4L180.7,198L180.6,197.7L180.9,197.7L181.1,198.1L181.1,198.9L181.2,199.1L181.1,199.2ZM240.7,185.2L239.3,185.4L238,185.6L236.5,185.8L234.6,186.1L233.2,186.3L231.1,186.6L229.2,186.8L227.4,187.1L225.7,187.4L224.2,187.6L223.3,187.8L222.2,188.4L220.6,189.2L218.9,190L218.1,190.5L217.2,191.6L216.8,192.2L215.9,193.2L215.3,194L214.6,194.9L214.3,195.7L213.8,197L213.3,197.3L212.6,197.7L212,198L211,198L210.4,197.2L209.8,196.4L209.5,196L209.2,196L208.2,196.1L207,196.3L205.6,196.1L204,196L202.4,195.8L201.6,195.7L200.6,195.2L200.4,195.1L200.1,195L198.9,195L197.7,195L196.5,195.2L195.4,195.1L194.2,195.2L193.8,195.4L193.3,195.4L193,195.6L192.8,195.7L192.5,195.5L192.1,195.6L191.6,195.4L191.2,195.1L190.9,194.8L190.6,194.6L190.2,194.5L189.8,194.5L189.4,194.7L189.1,194.9L188.5,195.5L188.5,195.7L188.8,196L188.7,196.2L188.3,196.4L188.2,197L188.1,197.3L188,198.1L188.2,198.6L188.4,198.9L188.5,199.1L188.3,199.6L188,199.8L187.7,200.3L187.5,200.5L187.3,200.7L186.2,201.6L186.1,201.1L185.7,200.4L185.7,199.8L185.6,199.3L185.3,198.9L184.7,198.5L184.6,197.9L184.2,197.4L183.7,196.9L183.4,196.1L183.2,195L181.7,193.5L179.9,192.2L179.4,191.4L178.5,189.9L178,188.6L176.8,187.2L176.8,186.7L176.6,186L176.3,185.3L176.2,184.7L174.9,182.1L174.6,181.7L174.2,181.1L174.1,180.7L174,180.4L173.2,180L172.4,178.9L170,177.2L168.8,177L167.9,176.4L167.2,175.6L166.5,174.2L165.2,172.7L164.1,170.6L164.5,169.8L164.4,169.2L164.1,168.3L163.7,167.6L163.5,166.9L163.7,165.9L163.8,164.8L164,164.3L164.1,163.6L163.9,162.3L163.6,161.7L163.6,161.2L163.2,161L162.9,160.5L163.2,160.5L162.6,159.8L162.4,159.4L162.1,158.5L161.8,157.7L160.9,156.1L160.4,155.1L159.3,153.8L158.2,152.8L157.5,152.4L157.1,152L156.6,152L155.9,151.4L155.5,151.4L154.9,151.3L154.2,150.2L153.7,149.2L152.7,147.9L153,147.5L153.3,146.9L153.1,146.2L153,145.7L152.6,144.8L151.2,142.5L150.8,142.1L150.3,141.7L149.9,140.7L149.7,139.8L148.8,139.4L147.2,136.2L146.3,135L145.9,134.3L144.8,133L144.3,131.7L143.2,130.6L142.3,128.5L140.9,126.5L140.2,126.2L138.8,126L138.1,125.9L137.5,126.3L137.5,125.8L137.9,125L138.5,123.3L138.6,121.9L139.5,117.6L140.8,117.8L141.8,118L143.3,118.3L144.9,118.5L145.8,118.7L146.1,118.6L147.4,117.6L148.6,116.6L149.3,115.5L149.9,114.3L150.2,114.1L151.2,113.9L152.9,113.5L154.5,113.2L154.6,113.1L155,112.2L155.4,111L155.5,110.9L155.7,110.8L156.8,110.1L157.5,109.7L156.5,108.6L155.6,107.4L154.5,106.2L153.6,105.2L152.3,103.8L151.4,102.8L153,102.4L154.6,101.9L156.3,101.4L158.3,100.8L159.8,100.4L162.2,99.7L163.3,99.3L163.5,99.2L164.4,98.4L165.8,98.6L167.7,99L169.7,99.3L171.7,99.7L172.4,100L174.3,101.2L175.6,102L177.1,102.9L178.9,104L180.2,104.7L181.8,105.7L183.1,106.8L184.7,108.2L186.5,109.8L187.9,110.9L190,112.6L192,114.2L193.9,115.8L195.4,117L197.4,118.6L197.6,118.7L199.5,118.9L202.2,119.1L204.9,119.3L207.3,119.6L208.3,119.3L209.5,119.5L211,119.7L211.9,119.8L213.7,120.1L214.2,121.1L214.4,121.8L214.6,122.5L215.1,123.2L216.3,123.1L217.4,123.1L218.7,123.1L219.7,123.1L220,123.7L220.2,124.4L220.8,125.9L221.7,127L221.9,127.5L222,128.1L221.9,128.3L221.8,128.6L222.5,129.2L223.5,129.8L224,129.9L224.4,130.2L224.1,130.5L224.7,131.4L225.4,132.2L226.2,132.4L227.3,133.8L228.9,134.6L229.9,135.7L229.8,135.7L229.5,135.6L229.1,135.5L229,135.6L229,136.1L229.1,136.6L229.6,137.1L230.1,137.4L230.2,138.1L229.9,139.4L229.8,139.4L229.5,139.3L229.3,139.3L229.2,139.4L229.5,140.4L229.7,141.1L230.1,141.7L230.4,142.6L230.6,143L231.7,143.9L232,144.7L232.3,146.1L232.9,146.9L233.3,147.5L233.8,148.1L234.1,148.8L234.5,149.3L234.7,149.5L235,149.5L235.5,149.5L236,149.4L236.5,149.3L236.9,149.5L237.4,149.5L237.4,149.8L237.1,150.1L236.8,151L237.3,151.1L237.7,151.2L238.1,151.4L238.3,151.4L238.3,151.5L238.3,152.4L238.4,152.7L238.7,153L239,153.4L239.3,153.9L239.6,154.3L240,154.7L240.3,155.1L240.6,155.6L240.9,156L241.3,156.4L241.6,156.8L241.9,157.3L242.3,157.7L242.6,158.1L242.9,158.5L243.2,158.9L243.6,159.4L243.9,159.8L244.2,160.1L244.6,160.2L244.8,160.2L245.3,160.3L246,160.4L246.9,160.5L247.9,160.6L249.1,160.8L250.4,161L251.8,161.1L253.1,161.3L254.3,161.5L255.5,161.7L256.6,161.8L257.5,161.9L258.2,162L258.7,162.1L258.8,162.1L259.3,162.2L259.4,162.1L259.8,161.6L260.2,162.3L260.6,162.9L261.1,163.8L261.6,164.7L262.1,165.5L262.5,166.1L262.3,166.8L262.1,167.5L261.9,168.2L261.6,168.9L261.4,169.6L261.2,170.3L261,171L260.8,171.7L260.6,172.4L260.3,173.1L260.1,173.9L259.9,174.5L259.7,175.3L259.5,176L259.2,176.7L259,177.4L258.8,178.1L258.6,178.9L257.9,179.1L256.9,179.5L255.9,179.9L254.9,180.2L253.8,180.6L252.8,180.9L251.8,181.3L250.8,181.7L249.7,182L248.7,182.4L247.7,182.8L246.7,183.1L245.7,183.5L244.6,183.8L243.6,184.2L242.6,184.6L241.6,184.9ZM149.3,142L149.2,142.1L149,141.9L149,141.3L149.2,141.1L149.2,141.5L149.3,141.9Z" fill="#b8e653" stroke="#0c0e06" stroke-width="1"/></svg>
