<svg xmlns="http://www.w3.org/2000/svg" viewBox="0 0 300 300"><path fill="#e8e8ea" d="M140.4,19L152.7,22L158.9,21.6L172.8,33.3L192,50.6L184.3,59.3L168.9,54.8L163.5,56.6L162,55.5L158.9,46.8L141.9,38.2L127.2,37.4L124.9,27.2ZM50.9,79.3L97.9,113.9L118.8,110.9L180.5,111.7L216.7,136.6L238.3,147.9L250.7,170.2L265.3,175.4L274.6,186.8L280,207.5L276.1,210.9L257.6,218.5L243.7,221.9L207.5,214.3L173.5,198.5L104.9,196.6L73.2,192L62.4,185.6L52.4,177.7L36.2,158.5L23.1,135.4L21.5,122.2L20,96.6L23.9,87.5L37,78.1ZM265.3,-128.6L318.6,-64.2L316.3,-52.6L309.3,-45.4L307,-23.6L313.2,-15.3L327.8,-11.5L352.5,11.8L362.6,40.1L363.3,48.7L374.1,61.5L374.1,88.7L397.3,126.4L399.6,144.5L397.3,152.8L388,147.9L359.5,105.3L327.8,86.8L324,78.9L291.6,54L270,12.2L246.8,-62.4L257.6,-80L231.4,-116.2L232.2,-125.6L243.7,-123.3L251.5,-124L255.3,-128.2Z"/></svg>
