<svg xmlns="http://www.w3.org/2000/svg" viewBox="0 0 300 300"><path fill="#e8e8ea" d="M209.8,246.6L209.8,246.6L206.9,246.6L206.9,246.5L206.8,246.5L206.8,246.4L206.7,246.3L206.6,245.9L206.6,245.2L206.7,244L207,242.6L208,240.5L208,240.4L208.1,240.3L208.1,240.2L207.9,239.8L207.8,239.5L207.8,239L207.9,238L207.9,237.7L207.9,237.3L207.8,237L207.2,235.2L206.9,235L200.2,229.5L199,227.9L198.9,227.8L198.7,227.8L195.3,226.5L195.1,226.4L195.2,226.2L195.2,225.9L195.7,225.2L195.7,225L195.8,224.7L194.2,213L194.2,212.8L194.3,212.6L194.4,212.5L194.6,212.3L194.8,212L195,211.6L195,211.4L195.2,209.3L195.2,207.5L196.1,204.4L196.2,203.1L188.8,203L188.8,203.1L188.8,203.2L188.8,203.3L188.8,203.4L188.8,203.6L188.7,203.9L188.7,204.1L188.7,204.4L188.8,205.1L189,205.6L189,205.8L189,206L189,206.4L178.7,206.4L182.8,211.1L182.8,211.1L183,211.4L183,211.6L183,213.2L182.8,215.8L182.8,217.4L183.1,218.5L184.2,220.6L184.1,221L183.9,221.5L176.6,227.7L176.4,228L175.4,230.6L174.4,232.1L174,232.5L172.3,234.6L165.6,241.3L164.5,241.7L161.2,241.9L159.4,241.9L159.3,242L159,242.1L158.8,242.3L158.5,242.4L158.4,242.3L158.1,242.2L154,238.4L146.7,233.7L146,234.2L141.9,236.2L141,236.7L140.5,237.1L140.5,239.3L139.8,240.5L138.5,241.7L134.9,242.5L133,243.2L131.2,244.3L130.8,244.5L130.1,245.2L128.6,246.6L128.5,247.7L128.8,248.7L116.4,248.7L115.6,247.9L113.9,244.4L113.8,244.4L112.6,244.6L101.3,244.2L99.7,244.6L96.5,246L94.9,246.2L93.2,245.6L87.3,238.7L86,237.8L85.5,237.4L84.7,236.2L83.4,235.4L83,234.9L82.9,234.2L82.9,232.7L82.5,231.7L81.6,231.5L73.6,233.1L72.5,232.9L70.8,233.2L70.2,233.5L69.5,234.4L69.4,235.4L69.4,236.3L69.2,237.2L68.6,238.3L66.3,240.6L65.8,241.7L66,244.2L65.8,245.5L65.5,246.1L64.5,247.1L64.1,247.7L63.9,248.5L63.9,250.2L63.7,251L62.5,253L62.2,253.7L62.1,255.2L61.9,255.6L58.3,256.7L57,257.5L56.2,258.6L56,259.1L54.4,258.7L52.5,258.4L48.7,258L47.2,257.5L46.5,256.7L46.8,254.7L46.4,254.3L45.8,253.9L45.4,253.1L45.4,252L47.4,249.7L47.8,248.5L48.2,244.2L48.4,242.7L48.2,240.9L46.7,237.7L45.3,235.4L43,232L42.1,230.9L37.6,226.3L37.1,225.6L36,223.6L36.6,221.9L37.2,219.3L37.3,218.1L37,216.9L35.8,216L34.8,215.9L34.4,215.4L33.5,214.7L32.7,214.2L31.9,213.2L31.3,211.8L31.7,206.7L31.4,206L30.3,205.8L30,205.5L30.1,204.5L29.4,201.6L28.8,199.2L29.1,197.9L28.1,196.1L26.3,195.3L24.6,195.5L22.7,195.9L21.6,195.8L20.8,195.5L20.3,194.8L20,194L20.3,192.8L21.3,190.7L22.6,188.9L25.1,187.3L25.9,186.4L26.2,185.4L26.3,184.3L26.1,183.2L25.9,182.1L25.1,180.7L24.4,179L24.4,177.9L24.7,177.1L25.4,176.2L26.7,175.1L27.1,174.9L28,174.3L28.7,173.9L30.6,172.7L31,172.2L30.9,171.5L30.4,171L29.6,170.2L29.5,169.3L29.3,167.7L28.9,166.7L28.6,166L29.1,165.4L29.9,164.6L30.9,164.2L32.5,163.7L33.1,163.2L33.3,162.1L33.2,161.1L33.8,160.4L34.6,158.8L35.1,158L36.1,157.2L37.2,156.1L37.6,154.9L37.7,153.7L37.2,150.2L38.3,148.7L39.9,147.5L42,147.5L45.3,147.3L47.6,146.8L49.2,146.8L52.8,147.5L53.1,147.3L53.2,147.2L53.4,146.2L53.4,143.8L53.4,136.6L53.4,129.4L53.4,122.2L53.4,114.9L53.4,107.7L53.4,100.4L53.4,93.1L53.4,85.8L53.4,83.7L53.4,81.7L53.4,79.6L53.4,77.6L57.2,77.6L61,77.6L64.8,77.6L68.7,77.6L68.7,77.5L68.7,77.5L68.8,77.5L68.9,77.5L68.9,69.2L68.9,61L68.9,52.7L68.9,44.4L74.8,44.4L80.7,44.4L86.6,44.4L92.6,44.4L98.5,44.4L104.4,44.4L110.3,44.4L116.2,44.4L122.1,44.4L128.1,44.4L134,44.4L139.9,44.4L145.8,44.4L151.7,44.4L157.6,44.4L163.6,44.4L165.4,44.4L166.2,44.3L167.7,41.2L168.3,40.9L169.3,41.1L169.7,41.8L169.4,42.9L168.9,44.4L171.8,44.4L176.8,44.4L181.9,44.4L187,44.4L192.1,44.4L197.2,44.4L202.3,44.4L207.3,44.4L212.4,44.4L217.5,44.4L222.6,44.4L227.7,44.4L232.8,44.4L237.8,44.4L242.9,44.4L248,44.4L253.1,44.4L253.3,48.2L254,51.2L256.4,55.6L258.4,57.9L259.1,59.2L259.1,59.8L259.1,60.3L258.5,59.7L257.4,59.2L257.2,61.3L257.5,62.7L257.7,65.4L258.6,68.3L258,71L258.1,75.5L259.1,80.9L258.9,84.4L260.7,92.4L262.4,96.9L263.3,98L264.4,98.5L266.4,98.9L269.3,101.2L271.7,103.6L272.6,104.8L273.7,106.2L274.5,105.9L275,105.6L275.7,106.7L279.4,109.1L280,110.2L278.7,111.3L277.1,113.1L276.7,113.9L276.5,114.3L276.4,114.9L275.9,115.4L275,116.2L274.7,116.5L274.5,117L274,117.4L273.4,117.4L272.9,117.6L272.1,118L271,117.8L269.8,118.1L269.3,118.5L268.5,118.9L267.5,119L267.2,119.1L266.3,119.7L265.3,120.6L264,121.1L263.5,121.3L263,121.9L262.1,124.7L261.4,125.5L260.4,125.6L258.9,125.6L257.7,125.8L256,125.5L255.2,125.6L255,126.2L254.7,128.7L254.7,129.8L254.1,131L253.3,132.6L253.6,135.3L253.7,137.9L252.4,141.9L252.2,142.8L250.8,145.9L250.1,147.1L248.4,152.9L247.7,154.7L246.2,156.6L246.5,159.7L246.9,163L247.2,166L247.7,170.6L246.5,174.9L246.5,177.3L245.6,180.7L245,182.3L244.4,183.3L243.8,184.2L242.9,186.4L242.1,189.2L241.7,192.1L241.7,193.8L241.5,194.5L241.2,195L239.4,195.3L236.8,195.7L235.4,196.1L234.5,196.7L233.3,198L231.1,201.8L229.9,204.1L228,207.2L225.8,209.5L225.4,210.5L225,212.5L224.2,215.7L223.5,218L223.6,219.8L222.9,223L223.1,224.5L222.3,225.3L221.3,226.2L220.5,226.4L219,225.4L217.9,224.5L217.5,224.2L216.5,224.8L215.3,225.7L213.9,227.8L212.9,229.8L213.5,234.2L213.4,235.1L213.1,236.1L211.5,239.4L211.1,240.4L210.5,242.4L209.8,245.8Z"/></svg>
