<svg xmlns="http://www.w3.org/2000/svg" viewBox="0 0 400 300"><path d="M197,300L199.2,297.7L202.1,293.8L204,292.3L203.9,289.8L202.3,288.1L201.9,285.2L204,284.3L204.5,279.9L201.5,275.7L204.1,274.8L212.3,274.9L227.5,274.3L227.5,274.3L228.7,275.1L255.7,290.3L256.2,294.6L263.9,300L197,300Z" fill="#2c2c34" stroke="#474751" stroke-width="0.8"/><path d="M87.6,300L88,299.6L92.3,296L94.2,293.6L93.9,287.4L97.1,280.2L100.6,276.4L105.5,272.8L106.3,270.4L106.5,267.7L107.7,265.1L107.3,260.9L108.2,254.2L109.7,249.6L111.9,245.6L112.4,241.1L113,235.9L115.9,232.1L119.9,229.7L126.1,232.2L130.8,235L136.3,235.7L141.8,237.2L144,232.7L145.1,232.1L148.5,232.9L156.8,229.1L159.7,230.7L162.1,230.5L163.2,228.7L166,228L171.6,228.8L176.4,229L178.8,228.2L183.3,234.4L186.7,235.3L188.7,234L192.1,234.5L196.3,232.9L198,236.1L204.6,241.1L204.2,249.8L207.1,250.8L204.7,253.5L201.9,255.4L199,259.3L197.5,262.8L197.1,268.8L195.3,271.6L195.3,277.2L193.1,279.3L192.8,283.7L191.8,284.3L191.1,288.4L193,291.8L193.4,300L87.6,300Z" fill="#2c2c34" stroke="#474751" stroke-width="0.8"/><path d="M284.7,279.8L280.3,273.6L280.2,246.5L286.7,238L288.7,235.7L293.5,235.5L300.1,230.2L309.8,229.9L330.9,207.4L336.1,201.1L339.4,196.5L339.4,192.6L339.4,184.9L339.5,181.8L339.5,181.7L341.9,181.5L345.3,180.4L349.3,179.6L352.8,177L355.6,177L355.8,179.1L355.1,183.5L355.1,187.5L353.6,190.2L351.5,198.4L347.9,206.8L343.3,216.4L336.9,227.4L330.5,235.8L321.8,245.9L314.3,252L303.2,259.4L296.2,265L288.1,274.1L286.4,278Z" fill="#2c2c34" stroke="#474751" stroke-width="0.8"/><path d="M263.9,300L256.2,294.6L255.7,290.3L228.7,275.1L227.5,274.3L227.4,266.4L229.5,263.4L233.2,258.5L235.9,253L232.6,244.5L231.7,240.7L228.2,235.5L232.8,231.1L237.8,226.1L241.7,227.4L241.7,231.6L244.3,234.1L249.4,234.1L258.9,240.4L261.2,240.5L263,240.3L264.6,241.1L269.6,241.7L271.8,238.6L278.6,235.5L281.6,238L286.7,238L280.2,246.5L280.3,273.6L284.7,279.8L279.4,282.7L277.6,285.8L274.8,286.4L273.8,291.6L271.4,294.7L269.9,299.6L269.5,300L263.9,300Z" fill="#2c2c34" stroke="#474751" stroke-width="0.8"/><path d="M152.5,118.5L152.9,149.5L146.4,149L143,154.6L141.1,159.4L142.6,161.2L140.2,163.5L141,166.7L139.1,169.9L138.3,172.7L141,172.3L142.5,175.2L142.6,179.6L145.3,181.9L145.2,183.7L140.5,185L136.7,188.1L131.4,196.3L124.4,199.8L117.1,199.4L115.1,200L115.8,202.7L111.9,205.3L108.8,208.3L99.4,211.1L97.5,209.4L96.3,209.3L94.9,211.2L88.8,211.8L89.9,209.8L87.6,204.6L86.5,201.4L83.3,200.2L78.9,195.8L80.5,192.2L83.9,193L86,192.4L90.1,192.5L86.1,185.6L86.4,180.6L85.9,175.5L82.9,170.6L83.7,167L78.9,166.9L78.9,161.9L75.8,159.1L79,148.9L88.5,141.6L88.9,131.5L91.8,115.5L93.4,112.1L90.3,109.3L90.2,106.8L87.4,104.7L85.6,92.2L93.1,87.8L122.8,103.2Z" fill="#2c2c34" stroke="#474751" stroke-width="0.8"/><path d="M0,122.5L6.7,121.8L6.8,139.9L2.7,145L2,149.8L0,150.2L0,122.5Z" fill="#2c2c34" stroke="#474751" stroke-width="0.8"/><path d="M0,178.3L1.9,179.8L1.6,182.3L3.2,186.8L1.8,189.9L2.6,191.9L0,195.2L0,178.3Z" fill="#2c2c34" stroke="#474751" stroke-width="0.8"/><path d="M0,150.2L2,149.8L2.7,145L6.8,139.9L6.7,121.8L17.2,118.3L38.8,102.7L64.3,87.3L76.1,90.8L80.3,95.2L85.6,92.2L85.6,92.2L87.4,104.7L90.2,106.8L90.3,109.3L93.4,112.1L91.8,115.5L88.9,131.5L88.5,141.6L79,148.9L75.8,159.1L78.9,161.9L78.9,166.9L83.7,167L82.9,170.6L80.8,171.1L80.6,173.5L79.2,173.7L74.1,165.3L72.4,165L66.6,169.3L60.8,167L56.8,166.6L54.6,167.7L50.3,167.4L45.9,170.7L42.1,170.9L33.1,166.9L29.6,168.8L25.7,168.7L23,165.8L15.5,162.9L7.5,163.8L5.6,165.5L4.5,169.9L2.4,173L1.9,179.8L0,178.3L0,150.2Z" fill="#2c2c34" stroke="#474751" stroke-width="0.8"/><path d="M0,195.2L2.6,191.9L1.8,189.9L3.2,186.8L1.6,182.3L1.9,179.8L2.4,173L4.5,169.9L5.6,165.5L7.5,163.8L15.5,162.9L23,165.8L25.7,168.7L29.6,168.8L33.1,166.9L42.1,170.9L45.9,170.7L50.3,167.4L54.6,167.7L56.8,166.6L60.8,167L66.6,169.3L72.4,165L74.1,165.3L79.2,173.7L80.6,173.5L83.5,176.5L82.7,177.9L82.3,180.4L76,186.3L74.1,191.1L73,195.1L71.4,196.8L69.9,202L66,205.1L64.8,208.9L63.1,212L62.4,215.1L57.3,217.6L53.1,214.5L50.3,214.7L45.9,219L43.7,219.1L40.2,226.4L38.3,231.6L30.5,234.3L27.7,233.9L24.8,235.6L18.9,235.4L14.9,230.8L12.4,225.4L7.2,220.4L1.6,220.5L0,220.5L0,195.2Z" fill="#2c2c34" stroke="#474751" stroke-width="0.8"/><path d="M82.9,170.6L85.9,175.5L86.4,180.6L86.1,185.6L90.1,192.5L86,192.4L83.9,193L80.5,192.2L78.9,195.8L83.3,200.2L86.5,201.4L87.6,204.6L89.9,209.8L88.8,211.8L85,219.4L83.2,220.7L82.6,226.6L83.4,229.7L82.8,231.9L86.3,235.8L86.9,238.5L89.7,242.4L93.1,244.8L93.4,248.2L94.2,250.3L93.7,254.4L87.8,252.6L81.7,250.6L72.3,250.3L71.4,249.9L67,250.9L62.5,249.9L58.9,250.4L46.8,250.2L47.9,244.3L45,239.4L41.6,238.1L40.1,234.8L38.2,233.7L38.3,231.6L40.2,226.4L43.7,219.1L45.9,219L50.3,214.7L53.1,214.5L57.3,217.6L62.4,215.1L63.1,212L64.8,208.9L66,205.1L69.9,202L71.4,196.8L73,195.1L74.1,191.1L76,186.3L82.3,180.4L82.7,177.9L83.5,176.5L80.6,173.5L80.8,171.1Z" fill="#2c2c34" stroke="#474751" stroke-width="0.8"/><path d="M178.8,228.2L176.4,229L171.6,228.8L166,228L163.2,228.7L162.1,230.5L159.7,230.7L156.8,229.1L148.5,232.9L145.1,232.1L144,232.7L141.8,237.2L136.3,235.7L130.8,235L126.1,232.2L119.9,229.7L115.9,232.1L113,235.9L112.4,241.1L107.6,240.7L102.6,239.4L98.1,243.4L94.2,250.3L93.4,248.2L93.1,244.8L89.7,242.4L86.9,238.5L86.3,235.8L82.8,231.9L83.4,229.7L82.6,226.6L83.2,220.7L85,219.4L88.8,211.8L94.9,211.2L96.3,209.3L97.5,209.4L99.4,211.1L108.8,208.3L111.9,205.3L115.8,202.7L115.1,200L117.1,199.4L124.4,199.8L131.4,196.3L136.7,188.1L140.5,185L145.2,183.7L146.1,187L150.4,191.7L150.4,194.8L149.2,197.9L149.7,200.3L152.2,202.4L157.9,205.7L162,208.8L162.1,211.2L167.1,215.1L170.2,218.4L172.1,222.9L177.6,225.8Z" fill="#2c2c34" stroke="#474751" stroke-width="0.8"/><path d="M60,300L57.6,296.9L63.3,292.8L60.4,287.8L63,286L68,285L68.6,281.7L72.6,285.3L79.2,285.6L81.4,282.1L82.4,277.2L81.6,271.3L78.1,266.9L81.3,258.3L79.4,256.8L73.9,257.4L71.8,253.6L72.3,250.3L81.7,250.6L87.8,252.6L93.7,254.4L94.2,250.3L98.1,243.4L102.6,239.4L107.6,240.7L112.4,241.1L112.4,241.1L111.9,245.6L109.7,249.6L108.2,254.2L107.3,260.9L107.7,265.1L106.5,267.7L106.3,270.4L105.5,272.8L100.6,276.4L97.1,280.2L93.9,287.4L94.2,293.6L92.3,296L88,299.6L87.6,300L60,300Z" fill="#2c2c34" stroke="#474751" stroke-width="0.8"/><path d="M58.9,250.4L62.5,249.9L67,250.9L71.4,249.9L72.3,250.3L71.8,253.6L73.9,257.4L79.4,256.8L81.3,258.3L78.1,266.9L81.6,271.3L82.4,277.2L81.4,282.1L79.2,285.6L72.6,285.3L68.6,281.7L68,285L63,286L60.4,287.8L63.3,292.8L57.6,296.9L49.9,289.4L45,283.2L40.5,275.5L40.7,273L42.3,270.6L44.1,265.2L45.6,259.7L48.2,259.3L59,259.3Z" fill="#2c2c34" stroke="#474751" stroke-width="0.8"/><path d="M46.8,250.2L58.9,250.4L59,259.3L48.2,259.3L45.6,259.7L44.2,258.6Z" fill="#2c2c34" stroke="#474751" stroke-width="0.8"/><path d="M193.4,300L193,291.8L191.1,288.4L195.7,289L197.9,284.7L201.9,285.2L201.9,285.2L202.3,288.1L203.9,289.8L204,292.3L202.1,293.8L199.2,297.7L197,300L193.4,300Z" fill="#2c2c34" stroke="#474751" stroke-width="0.8"/><path d="M241,9.2L239.7,12L237,10.7L235.4,16.6L237.3,17.6L235.4,18.8L235.1,21.1L238.6,19.9L238.8,23.3L235,37.1L234.3,34.9L230.2,22.3L232.3,19.4L231.8,18.9L233.8,14.8L235.3,8.1L236.4,5.9L236.6,5.8L239.1,5.8L239.7,4.3L241.7,4.1L241.9,7.8L240.8,9.1Z" fill="#2c2c34" stroke="#474751" stroke-width="0.8"/><path d="M243.3,0L241.7,4.1L241.7,4.1L239.7,4.3L239.1,5.8L236.6,5.8L238.7,0L243.3,0Z" fill="#2c2c34" stroke="#474751" stroke-width="0.8"/><path d="M238.6,19.9L235.1,21.1L235.4,18.8L237.3,17.6L235.4,16.6L237,10.7L239.7,12L239.7,17.4Z" fill="#2c2c34" stroke="#474751" stroke-width="0.8"/><path d="M55.9,0L57.7,4L60.5,5.4L60.1,12.2L56.5,14.7L54.2,17.5L49,20.9L49.9,24.5L49.2,28.2L45.6,30.2L45.6,30.2L42.4,14.5L37.8,11L37.7,8.8L31.6,3.5L31.3,0L55.9,0Z" fill="#2c2c34" stroke="#474751" stroke-width="0.8"/><path d="M31.3,0L31.6,3.5L37.7,8.8L37.8,11L42.4,14.5L45.6,30.2L48,37.8L48.4,41.7L47.1,48.6L47.6,52.5L46.7,57.1L47.3,62.3L44.4,65.8L48.8,71.8L49,75.3L51.7,79.9L55.2,78.4L61.1,82.2L64.3,87.3L38.8,102.7L17.2,118.3L6.7,121.8L0,122.5L0,0Z" fill="#2c2c34" stroke="#474751" stroke-width="0.8"/><path d="M239.7,12L241,9.2L249.3,12.7L263.9,3.2L266.9,14L265.4,15.3L250.5,19.7L258,28.4L255.5,29.9L254.3,32.8L248.6,34L246.8,37.1L243.6,39.7L235.3,38.3L235,37.1L238.8,23.3L238.6,19.9L239.7,17.4Z" fill="#2c2c34" stroke="#474751" stroke-width="0.8"/><path d="M359.1,81L360.4,80.6L360.7,82.8L366.5,81.6L372.7,81.8L377.2,82L382.3,76.5L387.8,71.2L392.6,66.1L394,68.9L395,75.4L391.2,75.5L390.6,80.8L391.9,81.9L388.5,83.5L388.5,86.9L386.3,90.2L386.1,93.5L384.6,95.2L362.2,91.1L359.4,82.9Z" fill="#2c2c34" stroke="#474751" stroke-width="0.8"/><path d="M353.4,76.8L352.9,70.9L354.9,66.5L356.9,65.6L359.2,68.2L359.3,73L357.7,77.9L355.6,78.5Z" fill="#2c2c34" stroke="#474751" stroke-width="0.8"/><path d="M332.3,33L333.8,36.8L333.2,38.8L335.5,45.2L330.3,45.4L328.4,41.4L321.8,40.5L327.3,32.3Z" fill="#2c2c34" stroke="#474751" stroke-width="0.8"/><path d="M314.4,0L318.4,6.5L327.5,11.3L331.3,18L330.1,24.3L332.5,24.3L332.6,28.9L336.7,33.4L332.3,33L327.3,32.3L321.8,40.5L307.9,39.9L286.9,22.5L275.9,16.4L266.9,14L266.9,14L263.9,3.2L269.6,0L314.4,0Z" fill="#2c2c34" stroke="#474751" stroke-width="0.8"/><path d="M400,124.2L396.6,126.4L395.8,130.2L394.2,131.9L389.5,131.8L386.6,133.8L386.6,136.9L383,139.1L378.9,138.4L373.9,141L370.5,141.4L368.1,136L362.2,123L384.6,115.1L389.5,99.2L386.1,93.5L386.1,93.5L386.3,90.2L388.5,86.9L388.5,83.5L391.9,81.9L390.6,80.8L391.2,75.5L395,75.4L398.3,81L400,82.2L400,124.2ZM394,68.9L392.6,66.1L394.7,63.3L395.7,64L395,67.4Z" fill="#2c2c34" stroke="#474751" stroke-width="0.8"/><path d="M400,60.9L399.3,58.5L395.7,57L390,58.5L382.5,62.6L373.4,59.8L365.8,53.4L358.7,51L353.7,43L348.2,31.5L344.2,32.9L339.5,30.1L336.7,33.4L336.7,33.4L332.6,28.9L332.5,24.3L330.1,24.3L331.3,18L327.5,11.3L318.4,6.5L314.4,0L400,0Z" fill="#2c2c34" stroke="#474751" stroke-width="0.8"/><path d="M269.6,0L263.9,3.2L249.3,12.7L241,9.2L241,9.2L240.8,9.1L241.9,7.8L241.7,4.1L243.3,0L269.6,0Z" fill="#2c2c34" stroke="#474751" stroke-width="0.8"/><path d="M246.3,158.7L245.5,155.6L248.7,144.2L249.4,139L251.8,136.7L257.2,135.4L261,130.9L265.3,140L267.4,147.1L271.5,150.8L281.6,158.1L285.8,162.5L289.8,166.9L292.2,169.6L295.8,171.9L293.6,173.7L290.4,173.1L287.8,170.6L284.8,166.1L281.5,163.6L279.6,161L273.1,157.9L267.9,157.8L266.1,156.2L261.8,158L257.3,154.5L254.9,160.3Z" fill="#2c2c34" stroke="#474751" stroke-width="0.8"/><path d="M362.2,123L368.1,136L370.5,141.4L365.1,143.5L363.7,147L363.5,149.6L356.1,152.8L344.2,156.4L337.5,161.9L334.2,162.3L332,161.8L327.6,165L322.9,166.5L316.6,166.9L314.8,167.3L313.1,169.4L311.2,169.9L310,171.9L306.3,171.7L304,172.7L298.8,172.3L296.9,167.9L297.1,163.7L295.9,161.4L294.4,155.7L292.3,152.6L293.8,152.2L293,148.7L293.9,147.2L293.6,143.8L296.8,141.3L296.1,138L298.1,134.2L301.1,136.2L303.1,135.5L311.7,135.3L313.1,136.1L320.3,136.9L323.1,136.5L325,139.1L328.5,137.8L333.8,129.6L340.8,126.1Z" fill="#2c2c34" stroke="#474751" stroke-width="0.8"/><path d="M235.3,38.3L243.6,39.7L246.8,37.1L248.6,34L254.3,32.8L255.5,29.9L258,28.4L250.5,19.7L265.4,15.3L266.9,14L275.9,16.4L286.9,22.5L307.9,39.9L321.8,40.5L328.4,41.4L330.3,45.4L335.5,45.2L338.5,52.5L342.1,54.4L343.4,57.3L348.5,60.8L348.9,64.3L348.2,67L349.1,69.8L351.3,72.1L352.3,74.8L353.4,76.8L355.6,78.5L357.7,77.9L359.1,81L359.4,82.9L362.2,91.1L384.6,95.2L386.1,93.5L389.5,99.2L384.6,115.1L362.2,123L340.8,126.1L333.8,129.6L328.5,137.8L325,139.1L323.1,136.5L320.3,136.9L313.1,136.1L311.7,135.3L303.1,135.5L301.1,136.2L298.1,134.2L296.1,138L296.8,141.3L293.6,143.8L292.6,140.5L290.4,138.1L289.8,135L285.9,132.2L282,125.6L279.8,119.2L274.7,113.8L271.4,112.5L266.4,104.9L265.6,99.3L265.9,94.5L261.6,85.5L258.2,82.4L254.1,80.7L251.7,76L252.1,74.1L250,69.9L247.8,68L244.9,61.8L240.4,55.1L236.6,49.3L232.9,49.4L234.1,44.7L234.4,41.7Z" fill="#2c2c34" stroke="#474751" stroke-width="0.8"/><path d="M249.5,99.2L220,99.2L191.1,99.2L161.1,99.2L161.1,69.2L161.1,39.3L158.9,32.4L160.8,27.1L159.7,23.4L162.4,19.2L172.3,19.1L179.5,21.4L186.8,24L190.3,25.3L196,22.5L199.1,20L205.7,19.3L211,20.4L213,24.7L214.7,21.9L220.7,24L226.5,24.5L230.2,22.3L234.3,34.9L235,37.1L233,40.5L231.3,46.9L229.3,51.3L227.6,52.8L225.1,50.1L221.7,46.3L216.4,34.1L215.7,34.9L218.7,43.9L223.3,52.4L229,65.4L231.7,69.9L234.1,74.5L240.8,83.6L239.3,85L239.5,90.3L248.2,97.5Z" fill="#2c2c34" stroke="#474751" stroke-width="0.8"/><path d="M161.1,99.2L161.1,115.1L152.6,115.1L152.5,118.5L122.8,103.2L93.1,87.8L85.6,92.2L80.3,95.2L76.1,90.8L64.3,87.3L61.1,82.2L55.2,78.4L51.7,79.9L49,75.3L48.8,71.8L44.4,65.8L47.3,62.3L46.7,57.1L47.6,52.5L47.1,48.6L48.4,41.7L48,37.8L45.6,30.2L49.2,28.2L49.9,24.5L49,20.9L54.2,17.5L56.5,14.7L60.1,12.2L60.5,5.4L69.3,8.4L72.4,7.7L78.6,9.2L88.5,13.1L92,20.9L98.7,22.6L109.2,26.2L117.1,30.5L120.7,28.3L124.3,24.3L122.6,17.6L124.9,13.3L130.3,9.2L135.4,8L145.5,9.8L148,13.8L150.8,13.8L153.2,15.3L160.6,16.3L162.4,19.2L159.7,23.4L160.8,27.1L158.9,32.4L161.1,39.3L161.1,69.2Z" fill="#2c2c34" stroke="#474751" stroke-width="0.8"/><path d="M330.9,207.4L309.8,229.9L300.1,230.2L293.5,235.5L288.7,235.7L286.7,238L281.6,238L278.6,235.5L271.8,238.6L269.6,241.7L264.6,241.1L263,240.3L261.2,240.5L258.9,240.4L249.4,234.1L244.3,234.1L241.7,231.6L241.7,227.4L237.8,226.1L233.4,218L230,216.3L228.7,213.3L225,209.6L220.4,209.1L222.9,204.8L226.9,204.6L228,202.3L227.9,195.5L230.1,187.6L233.6,185.5L234.4,182.4L237.6,176.6L242.1,172.8L245.1,165.3L246.3,158.7L254.9,160.3L257.3,154.5L261.8,158L266.1,156.2L267.9,157.8L273.1,157.9L279.6,161L281.5,163.6L284.8,166.1L287.8,170.6L290.4,173.1L287.8,176.4L285.2,180L285.8,182.1L285.9,184.4L290.1,184.5L291.9,184L293.5,185.3L291.9,188L294.7,192.2L297.4,195.8L300.3,198.5L324.6,207.5Z" fill="#2c2c34" stroke="#474751" stroke-width="0.8"/><path d="M290.4,173.1L293.6,173.7L295.8,171.9L297.6,174.2L297.3,177.4L293.1,179.2L296.3,181.3L293.5,185.3L291.9,184L290.1,184.5L285.9,184.4L285.8,182.1L285.2,180L287.8,176.4Z" fill="#2c2c34" stroke="#474751" stroke-width="0.8"/><path d="M339.5,181.7L339.5,181.8L339.4,184.9L339.4,192.6L339.4,196.5L336.1,201.1L330.9,207.4L324.6,207.5L300.3,198.5L297.4,195.8L294.7,192.2L291.9,188L293.5,185.3L296.3,181.3L298.7,182.7L300.2,185.8L303.5,189L307.2,189L314.2,187.1L322.3,186.2L328.9,183.8L332.6,183.3L335.3,181.9Z" fill="#2c2c34" stroke="#474751" stroke-width="0.8"/><path d="M227.5,274.3L212.3,274.9L204.1,274.8L201.5,275.7L197.1,278L195.3,277.2L195.3,271.6L197.1,268.8L197.5,262.8L199,259.3L201.9,255.4L204.7,253.5L207.1,250.8L204.2,249.8L204.6,241.1L207.7,239L212.4,240.7L218.4,239L223.6,239L228.2,235.5L231.7,240.7L232.6,244.5L235.9,253L233.2,258.5L229.5,263.4L227.4,266.4Z" fill="#2c2c34" stroke="#474751" stroke-width="0.8"/><path d="M201.5,275.7L204.5,279.9L204,284.3L201.9,285.2L197.9,284.7L195.7,289L191.1,288.4L191.8,284.3L192.8,283.7L193.1,279.3L195.3,277.2L197.1,278Z" fill="#2c2c34" stroke="#474751" stroke-width="0.8"/><path d="M204.6,241.1L198,236.1L196.3,232.9L192.1,234.5L188.7,234L186.7,235.3L183.3,234.4L178.8,228.2L177.6,225.8L172.1,222.9L170.2,218.4L167.1,215.1L162.1,211.2L162,208.8L157.9,205.7L152.9,202.8L155.1,202L157.7,200.5L159.6,193.8L161.7,190.3L167,189.2L168.3,191.3L172.1,195.7L174.2,196.4L176.9,195.1L182.3,195.4L183.3,196.9L190.7,196.9L190.9,195.4L194.8,193.9L195.5,191.7L198.4,190.2L204.6,194.6L208.5,193.8L212.2,188.3L216.2,184.2L215.6,179.6L213.8,177.4L218.3,177L218.8,175.3L222.3,175.8L221.4,181.4L222.3,186.9L226.1,189.9L227,192.5L226.9,196.3L227.9,196.4L228,202.3L226.9,204.6L222.9,204.8L220.4,209.1L225,209.6L228.7,213.3L230,216.3L233.4,218L237.8,226.1L232.8,231.1L228.2,235.5L223.6,239L218.4,239L212.4,240.7L207.7,239Z" fill="#2c2c34" stroke="#474751" stroke-width="0.8"/><path d="M228.8,196.4L228.7,196.4L227.4,196.4L227.3,196.4L227.3,196.4L227.3,196.4L227.3,196.3L227.2,196.1L227.2,195.8L227.2,195.2L227.4,194.5L227.9,193.5L227.9,193.5L227.9,193.4L227.9,193.4L227.9,193.2L227.8,193L227.8,192.8L227.9,192.3L227.9,192.2L227.9,192L227.8,191.8L227.5,191L227.4,190.9L224.2,188.2L223.6,187.5L223.5,187.4L223.4,187.4L221.8,186.8L221.7,186.7L221.7,186.6L221.7,186.5L222,186.2L222,186.1L222,185.9L221.3,180.3L221.3,180.2L221.3,180.1L221.3,180.1L221.4,179.9L221.5,179.8L221.6,179.6L221.6,179.5L221.7,178.5L221.7,177.6L222.2,176.2L222.2,175.5L218.7,175.5L218.6,175.5L218.6,175.6L218.6,175.6L218.6,175.7L218.6,175.7L218.6,175.9L218.6,176L218.6,176.1L218.7,176.5L218.8,176.7L218.8,176.8L218.8,176.9L218.8,177.1L213.8,177.1L215.8,179.4L215.8,179.4L215.8,179.5L215.8,179.6L215.9,180.4L215.8,181.6L215.8,182.4L215.9,182.9L216.4,183.9L216.4,184.1L216.3,184.4L212.8,187.3L212.7,187.5L212.2,188.7L211.7,189.5L211.5,189.7L210.7,190.7L207.5,193.9L207,194.1L205.4,194.2L204.5,194.2L204.5,194.2L204.3,194.3L204.2,194.4L204.1,194.4L204,194.4L203.9,194.3L201.9,192.5L198.4,190.3L198.1,190.5L196.1,191.4L195.7,191.7L195.4,191.9L195.4,193L195.1,193.5L194.5,194.1L192.7,194.5L191.8,194.8L190.9,195.3L190.8,195.4L190.4,195.8L189.7,196.5L189.7,197L189.8,197.5L183.9,197.4L183.5,197.1L182.6,195.4L182.6,195.4L182,195.5L176.6,195.3L175.8,195.5L174.3,196.1L173.5,196.3L172.7,195.9L169.9,192.6L169.2,192.2L169,192L168.6,191.4L168,191.1L167.8,190.8L167.7,190.5L167.7,189.7L167.5,189.3L167.1,189.2L163.3,190L162.7,189.9L161.9,190L161.6,190.1L161.3,190.6L161.3,191L161.3,191.5L161.2,191.9L160.9,192.4L159.8,193.6L159.5,194.1L159.6,195.3L159.5,195.9L159.4,196.2L158.9,196.7L158.7,197L158.6,197.4L158.6,198.2L158.5,198.6L157.9,199.5L157.8,199.9L157.7,200.6L157.7,200.8L155.9,201.3L155.3,201.7L154.9,202.2L154.8,202.4L154,202.2L153.1,202.1L151.3,201.9L150.6,201.7L150.3,201.3L150.4,200.3L150.2,200.1L149.9,200L149.7,199.5L149.7,199L150.7,197.9L150.9,197.3L151,195.3L151.1,194.6L151.1,193.7L150.3,192.1L149.6,191L148.6,189.4L148.1,188.9L146,186.7L145.7,186.3L145.2,185.4L145.5,184.6L145.8,183.3L145.8,182.8L145.7,182.2L145.1,181.7L144.6,181.7L144.4,181.5L144,181.1L143.6,180.9L143.2,180.4L142.9,179.7L143.1,177.3L143,176.9L142.5,176.8L142.3,176.7L142.4,176.2L142,174.8L141.7,173.7L141.9,173L141.4,172.1L140.5,171.8L139.7,171.9L138.8,172.1L138.3,172L137.9,171.9L137.6,171.5L137.5,171.2L137.6,170.6L138.1,169.5L138.7,168.7L140,167.9L140.3,167.5L140.5,167L140.5,166.5L140.4,165.9L140.3,165.4L139.9,164.8L139.6,164L139.6,163.4L139.8,163L140.1,162.6L140.7,162.1L140.9,162L141.3,161.7L141.7,161.5L142.6,160.9L142.8,160.7L142.7,160.3L142.5,160.1L142.1,159.7L142.1,159.3L142,158.5L141.8,158L141.7,157.7L141.9,157.4L142.3,157L142.8,156.8L143.5,156.6L143.8,156.3L143.9,155.8L143.9,155.3L144.1,155L144.5,154.2L144.8,153.9L145.2,153.5L145.8,152.9L146,152.4L146,151.8L145.8,150.1L146.3,149.4L147,148.8L148.1,148.8L149.7,148.7L150.7,148.4L151.5,148.5L153.3,148.8L153.4,148.7L153.5,148.6L153.6,148.2L153.6,147L153.6,143.6L153.6,140.1L153.6,136.6L153.6,133.1L153.6,129.7L153.6,126.2L153.6,122.7L153.6,119.1L153.6,118.1L153.6,117.2L153.6,116.2L153.6,115.2L155.4,115.2L157.2,115.2L159.1,115.2L160.9,115.2L160.9,115.2L160.9,115.1L161,115.1L161,115.1L161,111.2L161,107.2L161,103.2L161,99.2L163.9,99.2L166.7,99.2L169.5,99.2L172.4,99.2L175.2,99.2L178.1,99.2L180.9,99.2L183.8,99.2L186.6,99.2L189.5,99.2L192.3,99.2L195.1,99.2L198,99.2L200.8,99.2L203.7,99.2L206.5,99.2L207.4,99.2L207.8,99.2L208.5,97.7L208.8,97.6L209.3,97.6L209.5,98L209.3,98.5L209.1,99.2L210.5,99.2L212.9,99.2L215.3,99.2L217.8,99.2L220.2,99.2L222.7,99.2L225.1,99.2L227.6,99.2L230,99.2L232.4,99.2L234.9,99.2L237.4,99.2L239.8,99.2L242.2,99.2L244.7,99.2L247.1,99.2L249.6,99.2L249.7,101L250,102.5L251.1,104.6L252.1,105.7L252.4,106.3L252.5,106.6L252.4,106.9L252.2,106.6L251.6,106.4L251.6,107.3L251.7,108L251.8,109.3L252.2,110.7L251.9,112L252,114.2L252.5,116.8L252.4,118.4L253.2,122.3L254,124.5L254.5,125L255,125.3L256,125.5L257.4,126.5L258.5,127.7L258.9,128.3L259.5,128.9L259.8,128.8L260.1,128.7L260.4,129.2L262.2,130.3L262.5,130.9L261.9,131.4L261.1,132.3L260.9,132.6L260.8,132.8L260.8,133.1L260.5,133.4L260.1,133.7L260,133.9L259.8,134.1L259.6,134.3L259.3,134.3L259.1,134.4L258.7,134.6L258.2,134.5L257.6,134.7L257.4,134.9L257,135L256.5,135.1L256.4,135.1L255.9,135.4L255.4,135.8L254.8,136.1L254.6,136.2L254.3,136.5L253.9,137.9L253.6,138.2L253.1,138.3L252.4,138.3L251.8,138.4L251,138.2L250.6,138.3L250.5,138.6L250.3,139.8L250.4,140.3L250,140.9L249.7,141.6L249.8,142.9L249.9,144.2L249.2,146.1L249.1,146.5L248.5,148L248.1,148.6L247.3,151.4L246.9,152.3L246.3,153.2L246.4,154.7L246.6,156.2L246.7,157.7L247,159.9L246.4,162L246.4,163.1L246,164.8L245.7,165.5L245.4,166L245.1,166.5L244.6,167.5L244.3,168.8L244.1,170.2L244.1,171L244,171.4L243.9,171.6L243,171.8L241.7,172L241.1,172.1L240.6,172.4L240.1,173.1L239,174.9L238.4,176L237.5,177.5L236.5,178.6L236.3,179.1L236.1,180.1L235.7,181.6L235.3,182.7L235.4,183.6L235.1,185.1L235.1,185.8L234.7,186.2L234.3,186.6L233.9,186.7L233.2,186.3L232.7,185.8L232.4,185.7L232,186L231.4,186.4L230.7,187.4L230.2,188.4L230.5,190.5L230.5,190.9L230.4,191.4L229.5,193L229.4,193.5L229.1,194.4L228.8,196Z" fill="#b8e653" stroke="#0c0e06" stroke-width="1"/></svg>
