<svg xmlns="http://www.w3.org/2000/svg" viewBox="0 0 400 300"><path d="M400,290L397.3,287.7L390.1,288.2L385.2,289L381.2,283.8L377.8,281.6L371.3,277.3L370.6,276.8L359.8,280.3L360,300L356.7,300L356.7,300L354.9,297.3L352.1,295.8L347.4,296.9L345.5,298.8L345.3,297.4L346.3,295.1L345.5,293.1L340.7,291.2L338.8,286L336.5,284.5L336.3,282.6L340.4,283.2L340.6,278.9L344.1,277.9L347.8,278.8L348.5,272.9L347.8,269.2L343.6,269.5L340,268L335.2,270.7L331.3,271.9L329.2,271L329.6,267.8L327,263.7L323.8,263.9L320.3,259.6L322.7,254.8L321.5,253.5L324.8,246.4L329.1,250.2L329.7,245.4L338.3,238.2L344.8,238L354,242.6L358.9,245.3L363.4,242.5L370,242.4L375.3,245.8L376.5,243.9L382.4,244.1L383.4,241L376.7,236.4L380.7,233L379.9,231.2L383.9,229.4L380.9,224.6L382.8,222.2L398.4,219.7L400,218.3L400,290Z" fill="#2c2c34" stroke="#474751" stroke-width="0.8"/><path d="M360,300L359.8,280.3L370.6,276.8L371.3,277.3L377.8,281.6L381.2,283.8L385.2,289L390.1,288.2L397.3,287.7L400,290L400,300L377.1,300L376.7,296.3L371.1,293.3L367.6,296.6L364,298.6L364.4,300L360,300Z" fill="#2c2c34" stroke="#474751" stroke-width="0.8"/><path d="M221.2,219.9L213.5,220L208.4,219.2L209.3,216L215.1,213.6L219.5,214.9L221.3,216.1L220.9,218.1ZM386.4,0L383.4,1.9L370.5,17L364.2,31.6L357.7,45.3L358.5,56.5L366.5,67L364.1,68.2L350.4,66.5L349.3,60.8L341.8,57.3L341.1,50.1L345.4,47.2L345.3,39.6L353.5,27.3L349.7,25.5L349.7,25.5L359.7,12L358.6,4.8L363.7,0L386.4,0ZM400,218.3L398.4,219.7L382.8,222.2L380.9,224.6L383.9,229.4L379.9,231.2L380.7,233L376.7,236.4L383.4,241L382.4,244.1L376.5,243.9L375.3,245.8L370,242.4L363.4,242.5L358.9,245.3L354,242.6L344.8,238L338.3,238.2L329.7,245.4L329.1,250.2L324.8,246.4L321.5,253.5L322.7,254.8L320.3,259.6L323.8,263.9L327,263.7L329.6,267.8L329.2,271L331.3,271.9L329.4,275.5L325.4,276.5L321.2,282.6L325,288.1L324.6,292L329.2,298.7L327.7,300L322.5,300L322.5,300L321.2,298.5L320.1,298.4L317.4,297.1L316.2,294.7L312.3,293.6L309.7,294.4L309,293.4L303.3,290.7L297.2,289.7L293.6,288.7L293.1,289.4L287.8,284.5L283,282.3L279.4,278.9L282.5,277.9L285.9,272.9L283.6,270.5L289.8,268L289.6,266.7L285.9,267.7L286,264.9L288.2,263.2L292.2,262.7L292.9,260.7L292,257.2L293.7,253.8L293.6,252L287.4,249.9L285,249.9L282.4,246.9L279.2,247.9L273.9,245.6L274,244.3L272.5,241.4L269.2,241.1L268.9,239L269.9,237.7L267.2,233.8L262.9,234.5L261.6,234.1L260.6,235.7L259,235.4L258,231L257,228.7L257.8,228.1L261.2,228.3L262.8,226.8L261.6,224.9L258.8,223.7L259,222.4L257.3,221.1L254.7,216.4L255.6,214.4L255.2,211L251.1,209.2L248.9,210.1L248.3,208.3L243.9,206.4L242.6,201.9L242.2,198.2L240.2,196.4L242,194L240.8,186.6L243.8,181.9L243.1,180.5L247.9,175.9L243.5,171.9L252.4,160.8L256.3,155.7L257.9,151L251.7,144.7L253.4,138.5L249.7,131.3L252.5,122.7L247.6,110.8L251.5,102.7L245.1,95.2L245.7,87.2L249.1,86.1L256.2,81.3L260.5,77.1L267.3,84.4L278.8,87.2L294.5,100.1L297.7,105.3L298,112.4L293.4,118L286.6,120.7L267.9,112.8L264.9,114.1L271.7,121.7L271.9,126.4L272.2,136.5L277.6,139.4L280.8,141.9L281.4,137.3L278.9,133.1L281.5,129.3L291.6,135.5L295.1,133.1L292.3,125.8L302.1,115.8L305.9,116.4L309.8,120L312.2,112.8L308.8,106.4L310.8,99.9L307.7,92.9L319.4,96.5L321.8,102.8L316.5,104.1L316.5,110.1L319.8,113.8L326.3,111.5L327.3,104.6L336,99.3L350.6,89.6L353.7,90.1L349.6,97.1L354.8,98.2L357.8,94.4L365.6,94.1L371.8,89.3L376.6,96.2L381.3,88.6L376.9,81.8L379.1,77.8L391.4,81.5L397.2,85.2L400,87.6L400,218.3ZM265.9,274.5L267,273L270,274.3L271.3,274.6L271.9,275.7L272.5,275.9L272.5,276.4L274.6,277.9L278.8,277.5L278,279.6L273.4,280.7L267.8,284.1L265.5,282.9L266.4,280.1L261.8,278.4L262.6,277.2L266.5,275.2Z" fill="#2c2c34" stroke="#474751" stroke-width="0.8"/><path d="M256.2,81.3L249.1,86.1L245.7,87.2L247.4,78.8L242.1,74L235.6,78.1L233.6,86.8L229.6,92L225.1,89.2L219.7,89.8L215,83.6L212.5,86.7L209.9,87.2L209.3,94.7L201.4,92.9L200.3,99.2L196.3,99.2L193.6,107L189.4,118.7L182.9,132.9L184.4,136.2L183,140L178.8,139.8L176.1,148.7L176.4,160.6L179,165.1L177.7,175.1L174.2,180.8L172.4,185.5L169.5,180.5L161.3,189.8L155.7,191.7L150,187.6L148.5,178.9L147.1,159.1L151,153.3L162,145.6L170.3,135.8L177.9,121.9L187.9,101.4L194.9,93L206.4,78.2L215.6,72.9L222.4,73.5L228.8,63.1L236.4,63.7L243.9,61.1L257,70.4L251.6,73.7Z" fill="#2c2c34" stroke="#474751" stroke-width="0.8"/><path d="M44.3,0L44.5,2.1L40,3.6L45.4,17.2L36.1,18.3L41,24.5L39.6,29.7L33.7,32L27.9,32L33.1,41.7L33.2,47.8L24.9,42.1L22.8,45.8L28.4,49.2L33.9,57.4L35.5,67.8L28,70.2L24.8,65.3L19.7,57.9L21.1,66.6L16.2,73.2L27.2,73.7L33,74.4L21.8,84.9L10.5,94L0,97.4L0,0Z" fill="#2c2c34" stroke="#474751" stroke-width="0.8"/><path d="M152.1,252.8L154.1,254.5L160.1,255.7L158,260L157.5,264.5L156.3,265.5L154.4,265L154.6,266.5L151.5,270L151.4,272.7L153.4,271.8L154.9,274.4L154.7,276.1L155.9,278.3L154.5,280.1L155.6,284.7L157.8,285.4L157.3,287.9L153.6,291.2L145.3,289.6L139.3,291.5L138.8,294.9L133.9,295.6L129.2,293.1L127.7,294.3L120,291.7L118.4,289.5L120.5,286L121.3,274.3L117,267.9L113.9,264.8L107.6,262.4L107.1,257.8L112.5,256.4L119.5,258.1L118.2,250.8L122.2,253.6L131.9,248.5L133.2,243.2L136.8,241.8L137.4,244.1L139.3,244.3L141.3,246.9L144.2,250L146.3,249.5L150,252.4L150.9,253ZM163.1,300L162.9,299.9L162,296.1L162.8,294L162.8,294L165.5,291.9L166.2,296.7L165.2,300L163.1,300Z" fill="#2c2c34" stroke="#474751" stroke-width="0.8"/><path d="M364.4,300L364,298.6L367.6,296.6L371.1,293.3L376.7,296.3L377.1,300L364.4,300ZM351.8,300L350.6,296.9L347.2,298.3L347.1,300L345.9,300L345.9,300L345.5,298.8L345.5,298.8L347.4,296.9L352.1,295.8L354.9,297.3L356.7,300L351.8,300Z" fill="#2c2c34" stroke="#474751" stroke-width="0.8"/><path d="M243.9,206.4L248.3,208.3L248.9,210.1L251.1,209.2L255.2,211L255.6,214.4L254.7,216.4L257.3,221.1L259,222.4L258.8,223.7L261.6,224.9L262.8,226.8L261.2,228.3L257.8,228.1L257,228.7L258,231L259,235.4L255.4,235.8L254.1,237.3L253.9,240.7L252.2,240L248.5,240.4L247.4,238.8L245.8,240L244.2,239L240.9,238.8L236.3,237.2L232.1,236.7L228.8,236.9L226.5,238.7L224.5,238.9L224.4,235.9L223.2,232.8L225.7,231.4L225.7,228.6L224.5,226L224.4,222.8L228.4,222.9L232.9,220.2L233.9,216.1L237.3,213.8L236.9,210.5L239.5,209.3Z" fill="#2c2c34" stroke="#474751" stroke-width="0.8"/><path d="M259,235.4L260.6,235.7L261.6,234.1L262.9,234.5L267.2,233.8L269.9,237.7L268.9,239L269.2,241.1L272.5,241.4L274,244.3L273.9,245.6L279.2,247.9L282.4,246.9L285,249.9L287.4,249.9L293.6,252L293.7,253.8L292,257.2L292.9,260.7L292.2,262.7L288.2,263.2L286,264.9L285.9,267.7L282.6,268.2L279.8,270.1L275.9,270.4L272.3,272.7L272.5,275.9L271.9,275.7L271.3,274.6L270,274.3L267,273L265.9,274.5L265.3,273.9L258.8,272.3L258.6,270.1L254.7,270.8L253.1,274.1L249.9,278.6L248,277.6L246,278.5L244.2,277.4L245.2,276.8L246,274.7L247.1,272.8L246.8,271.7L247.7,271.2L248.1,272.1L250.6,272.2L251.7,271.8L250.9,271.2L251.2,270.3L249.7,268.7L249.1,266.2L247.6,265.1L247.9,263L246,261.4L244.3,261.1L241.2,259.2L238.4,259.8L237.5,260.7L235.7,260.7L234.6,262.2L231.6,262.8L230.1,263.7L228.2,262.2L225.5,262.2L222.9,261.5L221.1,262.8L220.8,261.2L218.5,259.5L219.3,256.9L220.5,255.3L221.4,255.6L220.3,252.7L224.1,247.4L226.2,246.6L226.6,244.8L224.5,238.9L226.5,238.7L228.8,236.9L232.1,236.7L236.3,237.2L240.9,238.8L244.2,239L245.8,240L247.4,238.8L248.5,240.4L252.2,240L253.9,240.7L254.1,237.3L255.4,235.8Z" fill="#2c2c34" stroke="#474751" stroke-width="0.8"/><path d="M224.4,222.8L224.5,226L225.7,228.6L225.7,231.4L223.2,232.8L224.4,235.9L224.5,238.9L226.6,244.8L226.2,246.6L224.1,247.4L220.3,252.7L221.4,255.6L220.5,255.3L216.5,252.8L213.5,253.7L211.6,253L209.1,254.4L207,252.1L205.3,253L205,252.6L203.1,249.4L200,249.1L199.6,247L196.7,246.3L196.1,248L193.8,246.6L194.1,244.8L191,244.2L189,242.1L187.3,237.8L187.6,235.5L186.6,231.8L185.1,229.4L186.2,227.5L185.3,223.9L188.1,221.9L194.6,218.6L199.9,216.1L204.1,217.3L204.4,219.1L208.4,219.2L213.5,220L221.2,219.9L223.4,220.7Z" fill="#2c2c34" stroke="#474751" stroke-width="0.8"/><path d="M197.2,261.3L196.9,263.9L194.5,263.9L195.3,265.2L194,269.2L193.2,270.2L189.5,270.4L187.4,271.7L184,271.3L178,269.7L177,267.6L172.9,268.6L172.4,269.8L169.9,268.9L167.8,268.8L165.9,267.7L166.5,266.1L166.4,265.1L167.6,264.7L169.7,266.4L170.3,264.8L174,265.1L177,263.9L179,264.1L180.3,265.4L180.7,264.4L180.1,260.3L181.6,259.5L183.1,256.6L186.2,258.6L188.5,256L190,255.6L193.2,257.5L195.2,257.2L197.1,258.4L196.8,259.2Z" fill="#2c2c34" stroke="#474751" stroke-width="0.8"/><path d="M218.5,259.5L220.8,261.2L221.1,262.8L218.6,264.1L216.6,268.3L214.1,272.4L210.7,273.6L208.1,273.3L204.9,274.9L203.4,275.8L199.9,274.6L196.8,272.1L195.5,271.3L194.7,269.2L194,269.2L195.3,265.2L194.5,263.9L196.9,263.9L197.2,261.3L199.3,262.9L200.9,263.6L204.4,262.8L204.7,261.6L206.4,261.4L208.4,260.4L208.8,260.8L210.8,260L211.8,258.6L213.2,258.2L217.6,260.1Z" fill="#2c2c34" stroke="#474751" stroke-width="0.8"/><path d="M237.5,260.7L238.4,259.8L241.2,259.2L244.3,261.1L246,261.4L247.9,263L247.6,265.1L249.1,266.2L249.7,268.7L251.2,270.3L250.9,271.2L251.7,271.8L250.6,272.2L248.1,272.1L247.7,271.2L246.8,271.7L247.1,272.8L246,274.7L245.2,276.8L244.2,277.4L243.4,274.7L243.9,272.1L243.7,269.4L241.3,265.8L240,263.2L238.7,261.3Z" fill="#2c2c34" stroke="#474751" stroke-width="0.8"/><path d="M244.2,277.4L246,278.5L248,277.6L249.9,278.6L250,280.1L248,281.4L246.7,280.8L245.5,287.9L243.1,287.2L240.1,285.1L235.1,286.5L233.1,288L226.9,287.7L223.7,286.8L222.1,287.2L220.9,284.8L220.1,283.8L221.1,282.8L220.1,282.1L218.8,283.4L216.3,281.7L216,279.2L213.5,277.8L213,275.9L210.7,273.6L214.1,272.4L216.6,268.3L218.6,264.1L221.1,262.8L222.9,261.5L225.5,262.2L228.2,262.2L230.1,263.7L231.6,262.8L234.6,262.2L235.7,260.7L237.5,260.7L238.7,261.3L240,263.2L241.3,265.8L243.7,269.4L243.9,272.1L243.4,274.7Z" fill="#2c2c34" stroke="#474751" stroke-width="0.8"/><path d="M236.9,210.5L237.3,213.8L233.9,216.1L232.9,220.2L228.4,222.9L224.4,222.8L223.4,220.7L221.2,219.9L220.9,218.1L221.3,216.1L219.5,214.9L215.1,213.6L214.2,207.4L219,205.1L226,205.6L230.1,204.9L230.7,206.4L232.9,206.9Z" fill="#2c2c34" stroke="#474751" stroke-width="0.8"/><path d="M240.2,196.4L242.2,198.2L242.6,201.9L243.9,206.4L239.5,209.3L236.9,210.5L232.9,206.9L230.7,206.4L230.1,204.9L226,205.6L219,205.1L214.2,207.4L214.4,201.7L216.4,196.9L220.3,194.3L223.7,200L227,199.9L227.8,193.9L231.4,192.6L233.2,193.5L236.8,196.4Z" fill="#2c2c34" stroke="#474751" stroke-width="0.8"/><path d="M243.1,180.5L243.8,181.9L240.8,186.6L242,194L240.2,196.4L236.8,196.4L233.2,193.5L231.4,192.6L227.8,193.9L228.3,189.3L226.8,190.3L224.1,187.5L223.8,182.8L229,180.5L234.3,179.3L238.8,180.7Z" fill="#2c2c34" stroke="#474751" stroke-width="0.8"/><path d="M185.3,223.9L186.2,227.5L185.1,229.4L186.6,231.8L187.6,235.5L187.3,237.8L189,242.1L187.1,242.8L186,242L185,243.3L182,244.6L180.4,246.2L177.4,247.6L178.1,249.6L178.6,252.3L180.7,253.8L183.1,256.6L181.6,259.5L180.1,260.3L180.7,264.4L180.3,265.4L179,264.1L177,263.9L174,265.1L170.3,264.8L169.7,266.4L167.6,264.7L166.4,265.1L161.9,263.2L161,264.5L157.5,264.5L158,260L160.1,255.7L154.1,254.5L152.1,252.8L152.4,250L151.5,248.5L152,244.1L151.3,237.1L153.8,237.1L154.9,234.6L155.9,228.2L155.1,225.9L156,224.4L159.4,224L160.2,225.6L163,222.1L162.1,219.4L161.9,215.3L165.1,216.3L167.7,215.2L167.8,217.9L172,219.6L172,222.2L176.2,220.8L178.6,218.9L183.3,221.7Z" fill="#2c2c34" stroke="#474751" stroke-width="0.8"/><path d="M228.7,300L228.6,299.9L228.4,300L222,300L222,300L221.8,297.6L219.7,295.8L220.4,295L220,294.3L220.7,292.5L222.3,290.7L220.2,288.2L219.9,286.1L220.9,284.8L220.9,284.8L222.1,287.2L223.7,286.8L226.9,287.7L233.1,288L235.1,286.5L240.1,285.1L243.1,287.2L245.5,287.9L243.4,290.2L241.9,294.3L243.2,297.5L239.6,296.8L235.3,298.5L235.3,300L228.7,300Z" fill="#2c2c34" stroke="#474751" stroke-width="0.8"/><path d="M228.4,300L228.6,299.9L228.7,300L228.4,300ZM235.3,300L235.3,298.5L237.3,300L235.3,300Z" fill="#2c2c34" stroke="#474751" stroke-width="0.8"/><path d="M260.1,300L261.4,299.1L266.2,297.5L273.1,297.4L278,300L260.1,300ZM302.8,300L304.2,299.9L304.4,300L302.8,300ZM237.3,300L235.3,298.5L235.3,298.5L239.6,296.8L243.2,297.5L243.7,299.7L244.3,300L237.3,300Z" fill="#2c2c34" stroke="#474751" stroke-width="0.8"/><path d="M207.6,300L207.9,299.1L207.2,298.3L206.9,296.5L208.7,293.7L209,294.8L210.1,294.3L211,295.8L212,296.4L212.3,298.4L211.8,300L207.6,300Z" fill="#2c2c34" stroke="#474751" stroke-width="0.8"/><path d="M195.5,271.3L196.8,272.1L199.9,274.6L203.4,275.8L204.9,274.9L205.9,277.2L207.3,278.9L205.7,281.1L203.8,279.8L200.9,279.9L197.3,278.9L195.3,279.1L194.4,280.3L192.9,278.9L192.1,281.4L194.1,284.1L195,285.9L196.9,288.1L198.5,289.4L200.1,291.8L203.8,293.9L203.3,294.9L199.4,292.8L197,290.7L193.2,289L189.7,284.8L190.5,284.3L188.6,281.8L188.5,279.9L185.8,278.9L184.6,281.5L183.3,279.5L183.4,277.4L183.6,277.3L186.5,277.5L187.2,276.5L188.7,277.5L190.3,277.6L190.3,276L191.7,275.3L192.1,272.9Z" fill="#2c2c34" stroke="#474751" stroke-width="0.8"/><path d="M166.4,265.1L166.5,266.1L165.9,267.7L167.8,268.8L169.9,268.9L169.6,271.4L167.7,272.5L164.6,271.7L163.7,274.1L161.8,274.3L161,273.4L158.7,275.4L156.7,275.7L154.9,274.4L153.4,271.8L151.4,272.7L151.5,270L154.6,266.5L154.4,265L156.3,265.5L157.5,264.5L161,264.5L161.9,263.2Z" fill="#2c2c34" stroke="#474751" stroke-width="0.8"/><path d="M151.5,248.5L152.4,250L152.1,252.8L150.9,253L150,252.4L150.5,248.8Z" fill="#2c2c34" stroke="#474751" stroke-width="0.8"/><path d="M152,244.1L151.5,248.5L150.5,248.8L150,252.4L146.3,249.5L144.2,250L141.3,246.9L139.3,244.3L137.4,244.1L136.8,241.8L140.1,240.5L143.2,241L147.1,239.6L149.7,242.6Z" fill="#2c2c34" stroke="#474751" stroke-width="0.8"/><path d="M155.1,225.9L155.9,228.2L154.9,234.6L153.8,237.1L151.3,237.1L152,244.1L149.7,242.6L147.1,239.6L143.2,241L140.1,240.5L142.3,238.7L146,228.6L151.7,225.7Z" fill="#2c2c34" stroke="#474751" stroke-width="0.8"/><path d="M88.8,300L88.6,298.2L88.6,298.2L90.1,296.8L91.8,296L92.9,298.7L95.3,298.7L96,298L98.5,298.2L99.2,300L88.8,300Z" fill="#2c2c34" stroke="#474751" stroke-width="0.8"/><path d="M99.2,300L98.5,298.2L96,298L95.3,298.7L92.9,298.7L91.8,296L90.1,296.8L88.6,298.2L88.8,294.2L87.1,291.8L93,287.6L98.1,288.7L103.7,288.6L108.2,289.6L111.6,289.3L118.4,289.5L120,291.7L127.7,294.3L129.2,293.1L133.9,295.6L138.8,294.9L139,298.2L137.1,300L99.2,300Z" fill="#2c2c34" stroke="#474751" stroke-width="0.8"/><path d="M100.4,223.2L101.1,228.2L98,234.3L90.6,238.3L84.6,237.3L88,230.2L85.8,223.1L91.5,217.5L94.7,214.1L95.5,218L94.7,221.8L97.3,221.7Z" fill="#2c2c34" stroke="#474751" stroke-width="0.8"/><path d="M177.8,300L176.8,299.2L173,295.6L170.2,292.3L168.9,286.6L166.8,286L163.4,284L161.5,284.8L159.1,287.5L157.3,287.9L157.8,285.4L155.6,284.7L154.5,280.1L155.9,278.3L154.7,276.1L154.9,274.4L156.7,275.7L158.7,275.4L161,273.4L161.8,274.3L163.7,274.1L164.6,271.7L167.7,272.5L169.6,271.4L169.9,268.9L169.9,268.9L172.4,269.8L172.9,268.6L177,267.6L178,269.7L184,271.3L183.5,274.3L184.5,276.8L181.2,275.9L177.8,278L178,281L177.5,282.7L178.9,285.6L182.8,288.5L184.9,293.3L189.5,297.8L192.8,297.8L193.8,299L192.8,300L177.8,300Z" fill="#2c2c34" stroke="#474751" stroke-width="0.8"/><path d="M167.7,215.2L165.1,216.3L161.9,215.3L160.2,211.2L160.1,203.6L160.8,201.5L162,199.3L165.6,198.8L167.1,196.6L170.5,194.4L170.3,198.4L169.1,200.9L169.6,203.1L171.9,204.2L170.8,207L169.6,206.2L166.6,211.6ZM178,206.8L179.3,210.6L176.8,216.5L172.4,212.4L171.8,209.3Z" fill="#2c2c34" stroke="#474751" stroke-width="0.8"/><path d="M100.4,223.2L97.3,221.7L94.7,221.8L95.5,218L94.7,214.1L98.2,213.8L102.7,218.3ZM113.4,226.4L113.4,226.4L114,222.3L111.2,217.9L111.1,217.8L106.1,216.6L105.1,214.6L106.6,211.3L105.2,209.3L103,212.8L102.7,205.6L100.6,201.7L102.1,193.8L105.4,187.3L108.7,187.9L113.8,187.3L109.3,195.8L113.5,194.8L118.1,194.8L117,201.1L113.3,207.9L117.6,208.3L117.9,209.1L121.7,217.8L124.5,218.9L127.1,227L128.3,229.7L133.3,231L132.8,235.4L130.7,237.4L132.4,240.9L128.6,244.4L123,244.3L115.9,246.1L114,244.8L111.2,247.9L107.3,247.1L104.4,249.6L102.2,248.3L108.3,241.4L112,240L112,240L105.5,238.8L104.3,236.2L108.7,234.1L106.4,230.3L107.2,225.8Z" fill="#2c2c34" stroke="#474751" stroke-width="0.8"/><path d="M65.7,116L64.8,122.7L69.5,129.5L64.1,137L52,143.5L48.4,145.2L42.9,143.8L31.3,140.8L35.4,136.6L26.3,131.8L33.7,129.9L33.5,127L24.7,124.7L27.6,118L33.9,116.5L40.4,123.4L46.7,117.9L52,120.8L58.8,115.2Z" fill="#2c2c34" stroke="#474751" stroke-width="0.8"/><path d="M327.7,300L329.2,298.7L330.2,300L327.7,300ZM319.6,300L319,299.1L320.1,298.4L320.1,298.4L321.2,298.5L322.5,300L319.6,300Z" fill="#2c2c34" stroke="#474751" stroke-width="0.8"/><path d="M304.4,300L304.2,299.9L302.8,300L299.8,300L299.8,300L300.4,297.8L299.4,293.9L297,291.8L294.7,291.2L293.1,289.4L293.1,289.4L293.6,288.7L297.2,289.7L303.3,290.7L309,293.4L309.7,294.4L312.3,293.6L316.2,294.7L317.4,297.1L320.1,298.4L319,299.1L319.6,300L304.4,300Z" fill="#2c2c34" stroke="#474751" stroke-width="0.8"/><path d="M184,271.3L187.4,271.7L189.5,270.4L193.2,270.2L194,269.2L194.7,269.2L195.5,271.3L192.1,272.9L191.7,275.3L190.3,276L190.3,277.6L188.7,277.5L187.2,276.5L186.5,277.5L183.6,277.3L184.5,276.8L183.5,274.3Z" fill="#2c2c34" stroke="#474751" stroke-width="0.8"/><path d="M245.7,87.2L245.1,95.2L251.5,102.7L247.6,110.8L252.5,122.7L249.7,131.3L253.4,138.5L251.7,144.7L257.9,151L256.3,155.7L252.4,160.8L243.5,171.9L235.9,172.5L228.6,175.6L221.8,177.4L219.4,172.8L215.3,170L216.3,161.5L214.2,153.4L216.2,148.1L220,142.2L229.6,131.7L232.3,129.7L231.9,125.4L226.1,120.6L224.7,116.6L224.6,100L218.1,92.3L212.5,86.7L215,83.6L219.7,89.8L225.1,89.2L229.6,92L233.6,86.8L235.6,78.1L242.1,74L247.4,78.8Z" fill="#2c2c34" stroke="#474751" stroke-width="0.8"/><path d="M220.5,255.3L219.3,256.9L218.5,259.5L217.6,260.1L213.2,258.2L211.8,258.6L210.8,260L208.8,260.8L208.4,260.4L206.4,261.4L204.7,261.6L204.4,262.8L200.9,263.6L199.3,262.9L197.2,261.3L196.8,259.2L197.1,258.4L197.7,257L199.6,257.1L201,256.4L201.1,255.8L201.9,255.5L202.2,254.1L203.1,253.8L203.8,252.6L205,252.6L205.3,253L207,252.1L209.1,254.4L211.6,253L213.5,253.7L216.5,252.8Z" fill="#2c2c34" stroke="#474751" stroke-width="0.8"/><path d="M189,242.1L191,244.2L194.1,244.8L193.8,246.6L196.1,248L196.7,246.3L199.6,247L200,249.1L203.1,249.4L205,252.6L203.8,252.6L203.1,253.8L202.2,254.1L201.9,255.5L201.1,255.8L201,256.4L199.6,257.1L197.7,257L197.1,258.4L195.2,257.2L193.2,257.5L190,255.6L188.5,256L186.2,258.6L183.1,256.6L180.7,253.8L178.6,252.3L178.1,249.6L177.4,247.6L180.4,246.2L182,244.6L185,243.3L186,242L187.1,242.8Z" fill="#2c2c34" stroke="#474751" stroke-width="0.8"/><path d="M203.8,293.9L200.1,291.8L198.5,289.4L196.9,288.1L195,285.9L194.1,284.1L192.1,281.4L192.9,278.9L194.4,280.3L195.3,279.1L197.3,278.9L200.9,279.9L203.8,279.8L205.7,281.1L207.2,281.1L206.1,283.7L208.1,285.9L207.5,288.7L206.5,288.9L205.8,289.4L204.4,290.8Z" fill="#2c2c34" stroke="#474751" stroke-width="0.8"/><path d="M211.8,300L212.3,298.4L212.8,298.4L213,297.3L215.5,296.4L216.4,296.2L217.8,295.9L219.7,295.8L219.7,295.8L221.8,297.6L222,300L211.8,300Z" fill="#2c2c34" stroke="#474751" stroke-width="0.8"/><path d="M204.9,274.9L208.1,273.3L210.7,273.6L213,275.9L213.5,277.8L216,279.2L216.3,281.7L218.8,283.4L220.1,282.1L221.1,282.8L220.1,283.8L220.9,284.8L219.9,286.1L220.2,288.2L222.3,290.7L220.7,292.5L220,294.3L220.4,295L219.7,295.8L217.8,295.9L216.4,296.2L216.3,295.8L216.8,295.1L217.2,293.7L216.6,293.8L215.8,292.7L215.1,292.4L214.6,291.5L213.8,291.2L213.2,290.4L212.5,290.7L211.9,292.6L210.9,293L211.2,292.5L209.6,291.3L208.3,290.7L207.7,289.9L206.5,288.9L207.5,288.7L208.1,285.9L206.1,283.7L207.2,281.1L205.7,281.1L207.3,278.9L205.9,277.2Z" fill="#2c2c34" stroke="#474751" stroke-width="0.8"/><path d="M210.1,294.3L209,294.8L208.7,293.7L206.9,296.5L207.2,298.3L206.3,297.8L205.1,296L203.3,294.9L203.8,293.9L204.4,290.8L205.8,289.4L206.5,288.9L207.7,289.9L208.3,290.7L209.6,291.3L211.2,292.5L210.9,293Z" fill="#2c2c34" stroke="#474751" stroke-width="0.8"/><path d="M212.3,298.4L212,296.4L211,295.8L210.1,294.3L210.9,293L211.9,292.6L212.5,290.7L213.2,290.4L213.8,291.2L214.6,291.5L215.1,292.4L215.8,292.7L216.6,293.8L217.2,293.7L216.8,295.1L216.3,295.8L216.4,296.2L215.5,296.4L213,297.3L212.8,298.4Z" fill="#2c2c34" stroke="#474751" stroke-width="0.8"/><path d="M205.9,193.6L205.6,193.8L205.4,194.3L205.1,194.4L204.9,194.6L204.8,196.4L205.3,197L205,197.1L204.7,197.3L204.6,197.6L204.4,198.2L203.7,198.6L203.5,198.8L203.1,199.4L202.9,200.3L202.5,200.6L202.1,200.7L202.3,200L202.7,199.5L202.3,199.1L202.1,198.5L201.9,198L202.1,197.5L202,196.6L202,195.8L202.3,195.4L202.6,195L203.1,194.2L203.7,193.7L204.5,193.4L204.8,193.6L205,193.1L205.2,193L205.4,193.1ZM195.3,205.5L195.1,205.9L194.9,205.8L194.8,205.3L194.7,204L194.8,203.4L195.7,201L196.1,200.8L196.7,199.4L196.9,198.8L197.1,198.2L197.3,197.6L197.4,197.4L197.6,197.5L197.8,197.6L197.5,197.9L197.5,198.3L197.5,198.5L196.8,200.2L196.6,201.3L196.4,201.6ZM173.9,184L174.2,185.1L174.5,185.2L174.9,184.9L175.2,184.2L175.4,183L175.6,182L175.3,180.8L175.1,179.8L175.1,179.5L175.7,178.6L175.9,177.9L176.1,177.2L176.4,177L176.7,177L177.1,176.8L177.6,176.4L178.1,175.8L178.4,175.2L178.6,174.1L178.6,173.5L178.7,173.1L178.9,172.3L178.7,171.5L178.3,170.3L177.7,168.5L177.6,167.6L177.9,167.4L178.4,167.3L179.3,167.2L179.4,167.1L179.4,166.7L179.6,166.1L179.9,165.7L180,165.1L180.1,164.6L179.6,163.8L178.9,162.9L178.4,162.6L177.6,161.9L177.1,161.3L177.4,159.1L177.6,157.4L177.7,157L177.7,156.3L176.9,153.6L176.9,152.9L177,152.4L176.9,151.4L176.9,150.6L177,150.3L177.3,149.8L177,149.1L177,149L176.4,147.1L177.3,145.3L177.1,144.3L177.7,143.6L178.6,142L179.2,141L179.3,140.9L179.7,140.5L180.5,140L181.4,139.8L181.8,139.8L183.4,140.1L184.6,140.3L184.8,140.1L185,139.6L185.4,138.8L185.4,138L185.3,136.8L185.1,136L184.2,135.5L183.3,134.9L184.4,132.8L185.2,131.3L186.2,129.1L186.5,128.2L186.8,127.8L187.1,124.3L187.2,123.3L187.4,122.8L187.4,122.3L187.3,121.4L187,119.4L188.6,119.1L189.1,119L189.6,118.7L190.5,118.1L191,117.5L190.7,115.6L191.3,115L192.6,112.7L194.1,110.5L194.8,109.6L194.9,109.2L194.9,108.6L194.6,107.5L194.3,106.9L193.6,105.6L193.9,104.8L194.4,104.6L195,104.3L195.5,103.5L195.6,103.4L196.4,100.5L198,99L198.6,98.2L199.6,98.8L201.1,99.7L201.8,98.3L202,97.8L202.2,97.1L202.1,95.8L202.1,94L202.1,93.4L202.7,93.1L203,93L204.7,93.7L205.1,93.7L205.9,93.8L206.7,94.1L208.5,94.9L209.3,95.2L209.7,95.3L210,94.9L210.8,93.9L209.7,93.2L210.4,92.5L210.8,91.7L211.1,90.8L211.3,89.7L211.2,89.1L211,88.7L210.3,87.7L211.9,87.5L212.4,87.5L213.6,88.2L213.6,88.3L213.6,88.7L213.6,89L214.8,89.9L215.1,90.4L215.7,91.1L215.9,91.5L216.6,92L217,92.4L217.5,92.8L218.2,93.4L219,93.9L219.7,94.1L221.4,94.9L221.7,95.2L222.2,95.8L222.7,96.4L223.1,97.8L223.7,97.9L223.8,98.3L224.3,99.1L225,99.8L225,100.1L224.4,100.7L224.4,101.6L224.4,102.7L224.6,103.6L224.6,103.8L224.4,104.1L224.3,104.6L224.2,105.1L224.2,105.3L224.3,105.4L224.6,105.4L225.1,105.5L225.4,105.7L225.6,106.7L225.5,106.9L225.1,107.4L224.9,107.7L224.9,108.3L225,108.8L225.2,109.5L225.5,110.2L226,110.9L226.3,111.5L226.4,111.9L226.5,112.2L226.3,112.6L226.1,113.3L226,114.2L226,114.7L225.5,115.5L225.3,115.7L225.2,116.1L225.1,116.8L225.2,117.6L225.3,118.1L225.4,118.5L225.5,118.7L226.1,119.2L226.5,120.1L226.7,120.8L227.2,122.7L226.1,122.9L225.2,122.5L224.8,122.7L224.1,122.7L223.3,122.9L223,123.3L222.8,123.4L222,122.9L221.3,122L220.8,122.7L220.4,122.8L220.1,122.2L219.8,122.1L219.7,122.3L219.6,122.8L219.4,123.3L219.3,123.5L219.3,124.6L219.2,124.8L218.5,124.7L218.6,124.9L218.7,125.1L218.8,125.3L218.5,125.5L217.8,125.5L217.8,125.7L218,126.1L217.8,126.4L217.7,126.6L216.8,126.8L216.3,126.7L216.2,126.9L216.2,127.2L216.3,127.5L216.5,127.6L216.5,127.8L216.5,128.2L216.3,128.2L215.9,127.6L215.7,127.6L215.8,128L216.1,128.3L216.3,128.7L216.4,129.2L216.4,129.5L215.8,130.7L215.2,131.4L214.8,132L214.6,132.7L214.8,133L215.1,133.5L215.4,134.4L215.6,135.2L216.2,136L216,136.5L215.9,136.8L215.1,137.6L214.1,138.8L213,141.7L212.6,142.1L211.7,142.6L211.4,143.1L210.7,143.7L209.4,144.1L208.9,144.8L208.7,145.5L208.4,145.6L208.1,145.3L207.7,145.1L207.7,145.6L207.7,145.9L207.1,145.4L206.8,145.9L206.6,146.6L205.8,147.6L204.9,147.5L204.8,147.6L205,147.8L205,147.9L204.9,148L204.6,148L204.2,148.2L204,148.2L203.9,148.7L203.7,149.3L203.2,149.5L202.9,149.5L202.8,149.9L203.6,149.9L203.5,150.2L203.5,150.5L203.4,150.8L202.5,151.2L202.4,151.5L202.2,151.8L201.8,151.8L201.8,151.5L201.8,151.3L201.3,151.4L201.1,150.9L201,151L201,151.4L201.2,151.8L201.3,152.4L201.2,152.8L201.1,152.9L201.2,153.1L201.5,153.2L201.6,153.5L201.2,153.7L200.8,154.4L200.3,154.4L200,154.8L199.7,154.8L199.4,154.5L199,154.3L198.9,154.7L198.8,155L199.1,155.9L199.5,156.5L199.9,156.8L199.6,157L199.4,157.4L199.2,158.7L199,159.2L198.9,160.1L198.9,160.8L199,161.2L199.2,161.7L198.7,161.6L198.1,161.3L198.2,161.9L197.8,162.6L197.9,163.2L198,163.6L197.9,164.3L198,164.5L198.1,164.9L198,165.2L198,165.5L198.1,166.4L198.2,167.7L198.1,168L198.4,169.2L198.4,169.7L198.3,170.2L198.8,170.7L199.2,170.7L199.6,170.7L199.8,170.8L199.9,171.2L200,171.6L200.4,171.6L200.9,171.2L201.3,171.1L201.5,171.8L202.1,172.7L202.5,173.1L203.1,173.3L203.8,174L203.7,174.8L204,175.1L204.7,175.4L205,175.9L205.1,176.3L205.4,176.6L205.6,177.5L205.5,178.1L205.2,178.3L204.5,179L204.1,179.4L203.9,179.7L203.1,180.3L202.9,180.4L202.6,180.8L202.4,180.9L202.1,180.8L201.3,181.4L201.4,181.7L202,181.8L202.3,181.6L202.6,181.3L202.9,181.3L203.1,181.3L203.4,181.1L203.6,181L203.8,181.1L204,181.7L203.5,182L203.2,182L203,182.9L202.8,183.3L202.7,183.4L201.9,183.8L201.3,184.3L200.7,184.7L200.5,184.6L200.1,185L199.2,185.5L198.7,186.1L197.7,186.7L197.2,187.1L195.8,187.1L194.4,187L194,187.3L194.4,187.3L194.7,187.5L195.1,187.4L196,187.6L196.4,187.7L197,188.4L196.6,188.7L195.8,188.9L196.1,189.9L196.3,190.6L196,191.1L196,193L195.6,193L195.4,193.8L195.6,194.2L195.5,195.1L195.6,195.7L195.8,196.2L195.7,196.8L195.1,198.1L195.1,198.6L195.2,199L195.3,199.6L195,200.6L194.8,201.6L194.6,202.3L194,203.2L193.7,203.9L193.1,206L192.8,206.4L192.4,206.7L192,206.4L191.5,206.3L191.1,206.3L190.3,206.5L189.1,206.4L188,206.4L187.7,206.7L187.9,207.4L187.5,207.5L187.1,207.3L186.7,207.6L186.4,207.8L185.8,208.5L185.7,208.9L185.6,209.7L185.9,210.4L186.2,211.2L185.5,212.1L185.1,212.2L184,211.9L181.9,212.5L180.1,212L180.3,211.5L180.3,211.1L180.4,210.5L180.5,209.9L180.5,209.5L180.3,209.1L179.9,208.5L178.9,206.6L178.6,205.8L178.4,205.5L178.5,205.5L179.4,205.9L179.6,205.8L179.7,205.7L179.5,205.1L179.3,204.8L179.1,204.4L179.6,204.2L180,204.3L180.2,203.8L180.1,203L179.7,202.8L179.4,202.7L178.8,201.4L178.2,200.8L177,198.4L176.6,196.6L176.2,196.8L176.1,196.1L175.9,195.4L175.9,194.8L175.3,194.5L175.3,194.2L175.2,192.5L174.5,192.3L174.1,191.4L174,189.6L173.6,189.3L173.3,189.4L173.3,189L173.4,188.5L173.2,186.9L173.1,185.4L172.9,185L172.8,184.4L172.9,184L173,183.7L173.5,183.6ZM206.3,192.9L206.2,193.4L206,193.4L205.8,193L206.2,192.5L206.8,192.5L207,192.6ZM203.2,184.1L203,184.2L202.9,184.1L203,183.8L203.1,183.6L203.4,183.5L203.5,183.5ZM203.9,180.5L203.8,180.8L203.7,180.4L203.8,180.4L203.8,180L204.1,179.9L204.4,180L204.4,180L204.1,180.3Z" fill="#b8e653" stroke="#0c0e06" stroke-width="1"/></svg>
