<svg xmlns="http://www.w3.org/2000/svg" viewBox="0 0 300 300"><path fill="#e8e8ea" d="M95.6,220.8L96.3,222.9L97,223.2L97.8,222.7L98.4,221.1L98.8,218.7L99.2,216.5L98.7,214.1L98.2,212L98.1,211.3L99.5,209.5L99.9,208.1L100.3,206.7L100.8,206.2L101.6,206.1L102.4,205.8L103.5,204.9L104.4,203.6L105.2,202.4L105.4,200.1L105.4,199L105.7,198.1L106,196.4L105.7,194.7L104.8,192.2L103.7,188.6L103.5,186.6L104,186.2L105,185.9L106.9,185.8L107.1,185.6L107.2,184.7L107.7,183.5L108.1,182.7L108.4,181.4L108.6,180.3L107.5,178.6L106.1,176.9L105.2,176.3L103.5,174.8L102.3,173.6L103,168.9L103.5,165.4L103.6,164.5L103.6,163.2L101.9,157.4L102,156.1L102.2,155L102,153L101.9,151.2L102.2,150.6L102.8,149.6L102.2,148.1L102.1,147.9L100.9,144L102.8,140.2L102.4,138.1L103.6,136.6L105.6,133.3L106.7,131.3L106.9,131L107.8,130.2L109.5,129.2L111.4,128.7L112.2,128.7L115.4,129.4L117.9,129.9L118.3,129.4L118.8,128.3L119.5,126.7L119.6,125L119.3,122.5L119,120.9L117.2,119.9L115.2,118.5L117.6,114.2L119.3,111.1L121.3,106.5L122,104.6L122.5,103.8L123.1,96.6L123.5,94.5L123.8,93.5L123.8,92.3L123.6,90.5L123,86.3L126.3,85.8L127.3,85.5L128.3,85L130.2,83.7L131.2,82.5L130.7,78.5L131.8,77.1L134.7,72.4L137.7,67.8L139.2,66L139.3,65.2L139.4,63.8L138.8,61.7L138.1,60.3L136.8,57.7L137.4,55.9L138.3,55.6L139.6,54.9L140.6,53.3L140.8,53.1L142.5,47L145.8,43.9L147.2,42.2L149.3,43.5L152.3,45.4L153.7,42.5L154.1,41.5L154.6,39.9L154.4,37.2L154.3,33.6L154.5,32.2L155.7,31.5L156.3,31.4L159.7,32.9L160.6,32.8L162.2,33L164,33.7L167.7,35.4L169.3,36.1L170.2,36.3L170.9,35.5L172.5,33.4L170.1,31.9L171.7,30.3L172.5,28.7L173.2,26.8L173.4,24.5L173.3,23.3L172.8,22.5L171.4,20.4L174.7,20.1L175.8,20L178.2,21.4L178.3,21.7L178.3,22.4L178.4,23.2L180.7,25L181.3,26L182.8,27.5L183.1,28.3L184.4,29.3L185.4,30.3L186.5,31.1L187.8,32.4L189.5,33.4L190.9,33.7L194.6,35.5L195.2,36L196.2,37.2L197.3,38.6L198,41.4L199.2,41.6L199.5,42.5L200.6,44.2L202,45.6L201.9,46.1L200.8,47.5L200.7,49.3L200.8,51.6L201.2,53.4L201.1,54L200.8,54.6L200.5,55.7L200.4,56.5L200.4,57L200.5,57.2L201.1,57.2L202.2,57.4L202.8,57.8L203.2,59.9L203.1,60.3L202.2,61.3L201.9,62L201.9,63.2L202,64.4L202.3,65.8L203,67.2L204,68.7L204.6,70L204.9,70.9L205,71.5L204.6,72.2L204.2,73.8L204.1,75.5L204,76.6L203.1,78.2L202.5,78.7L202.4,79.5L202.3,80.9L202.5,82.5L202.5,83.6L202.7,84.4L203,85L204.3,85.9L205.1,87.8L205.6,89.3L206.5,93.2L204.2,93.7L202.4,92.7L201.6,93.2L200.1,93.2L198.4,93.6L197.8,94.4L197.4,94.7L195.8,93.6L194.3,91.8L193.2,93.2L192.4,93.4L191.8,92.2L191.3,92L190.9,92.4L190.7,93.5L190.3,94.4L190.2,94.9L190.1,97.1L190,97.6L188.5,97.3L188.6,97.9L188.9,98.2L189.1,98.5L188.5,99L187.1,98.9L186.9,99.5L187.3,100.2L187,100.9L186.7,101.2L185,101.7L184,101.6L183.7,102L183.6,102.6L183.8,103.1L184.3,103.5L184.4,103.8L184.4,104.6L184,104.7L183,103.4L182.7,103.4L182.9,104.2L183.5,105L183.8,105.7L184.1,106.7L184.1,107.4L182.8,109.8L181.6,111.2L180.8,112.5L180.3,113.9L180.9,114.6L181.5,115.6L182,117.6L182.5,119.3L183.6,120.9L183.4,121.9L183.1,122.6L181.3,124.2L179.2,126.7L177,132.8L176.3,133.6L174.3,134.6L173.6,135.7L172.2,136.8L169.7,137.8L168.5,139.3L168,140.7L167.4,140.8L166.8,140.2L166.1,139.8L166,140.8L166,141.5L164.8,140.4L164.2,141.4L163.8,143L162,145.1L160.1,144.7L159.9,145.1L160.4,145.3L160.5,145.7L160.1,145.8L159.6,145.8L158.8,146.2L158.3,146.2L158.1,147.2L157.6,148.4L156.6,148.9L156,149L155.7,149.7L157.4,149.9L157.3,150.4L157.2,151L157.1,151.6L155.2,152.5L154.9,153.2L154.5,153.6L153.7,153.6L153.7,153.2L153.8,152.8L152.6,152.8L152.2,151.8L152,152.1L152.1,152.9L152.5,153.7L152.8,155L152.5,155.8L152.2,156.1L152.4,156.5L153.1,156.7L153.4,157.2L152.6,157.7L151.6,159.1L150.6,159.1L150,160L149.3,160L148.8,159.5L147.9,159L147.6,159.8L147.6,160.5L148.1,162.2L149,163.5L149.9,164.1L149.2,164.5L148.8,165.4L148.2,168L147.9,169.1L147.6,170.9L147.8,172.5L148,173.2L148.4,174.3L147.3,174.1L146,173.5L146.2,174.8L145.5,176.3L145.6,177.5L145.8,178.4L145.5,179.8L145.9,180.2L146.1,181L145.8,181.7L145.9,182.2L146,184L146.2,186.9L146.1,187.5L146.8,190L146.6,190.9L146.5,192L147.5,193.1L148.3,193.1L149.2,193L149.5,193.3L149.8,194L150.1,194.9L150.8,194.9L151.9,194.1L152.6,193.9L153.1,195.4L154.5,197.2L155.2,198L156.5,198.4L157.9,199.9L157.7,201.6L158.2,202.2L159.9,202.9L160.4,203.8L160.7,204.7L161.1,205.3L161.6,207.3L161.5,208.5L160.8,208.9L159.3,210.2L158.6,211.2L158.1,211.8L156.5,213.1L156,213.3L155.4,214L154.9,214.3L154.5,214.1L152.7,215.3L152.9,215.8L154.2,216L154.9,215.8L155.4,215.2L156,215L156.5,215.2L157,214.7L157.5,214.5L157.9,214.7L158.4,215.9L157.4,216.5L156.6,216.5L156.3,218.4L155.8,219.2L155.5,219.6L153.9,220.3L152.8,221.4L151.5,222.2L151,222L150.2,222.8L148.3,223.8L147.4,225.1L145.2,226.3L144.2,227.2L141.2,227.3L138.4,227.1L137.5,227.5L138.4,227.6L139,228.1L139.8,227.9L141.6,228.1L142.5,228.4L143.7,229.9L142.8,230.5L141.3,230.9L141.9,233.1L142.4,234.5L141.7,235.4L141.7,239.4L140.9,239.4L140.5,241.1L140.8,241.9L140.7,243.9L140.9,245.1L141.3,246.2L141.1,247.3L139.8,250L139.8,251.2L140.1,251.9L140.3,253.1L139.6,255.3L139.2,257.3L138.7,258.8L137.5,260.7L137,262.1L135.6,266.5L135,267.3L134.2,268L133.3,267.4L132.4,267L131.4,267.1L129.8,267.6L127.4,267.2L125.1,267.4L124.5,267.8L124.8,269.4L124,269.6L123.2,269.2L122.4,269.7L121.8,270.3L120.6,271.7L120.2,272.5L120.1,274.1L120.7,275.6L121.3,277.2L119.8,279.2L119,279.3L116.6,278.8L112.4,280L108.6,279L109.1,277.9L109.1,277.1L109.3,275.9L109.4,274.7L109.4,273.8L109.1,272.9L108.2,271.8L106.1,267.8L105.5,266.1L105,265.4L105.3,265.4L107.1,266.3L107.5,266.2L107.9,265.8L107.4,264.5L106.9,263.9L106.6,263.1L107.7,262.8L108.4,262.9L108.9,261.9L108.6,260.3L107.8,259.8L107.2,259.6L105.9,257L104.6,255.7L102.2,250.6L101.4,247L100.6,247.4L100.2,245.8L99.9,244.3L99.9,243.3L98.6,242.6L98.6,241.9L98.3,238.5L97,238L96.1,236.1L96,232.4L95.1,231.8L94.4,232L94.4,231L94.6,230.2L94.2,226.8L94.1,223.7L93.7,222.7L93.5,221.6L93.7,220.6L93.9,220.1L94.8,219.9Z"/></svg>
