<svg xmlns="http://www.w3.org/2000/svg" viewBox="0 0 400 300"><path d="M400,266.1L392.7,256.4L376.7,257.8L356.6,254.9L352.8,222.1L340.6,215.3L328.8,194.4L325.5,173.1L328.3,150.4L342.8,134.2L347,150.5L363.7,164.3L379.4,159.3L395,161.1L400,156.8L400,266.1ZM191.1,300L169.9,286.4L159.4,271.6L141,251.7L128.8,233.3L110.2,199.1L88.7,178.7L81.6,157.7L72.5,138.6L50.5,123.3L37.8,102.3L19.4,88.6L0,68.1L0,49.6L0,49.6L7.4,50.1L45.2,54.9L66.9,78.8L85.8,95.4L99.3,105.6L122.4,131.9L147.3,132.3L167.8,149L181.9,169.5L200.5,180.7L190.7,200.6L204.7,209.1L213.5,209.7L213.5,209.7L217.7,226.8L226.2,240.4L244.1,242.6L256,258L249.9,288.5L249.6,300L191.1,300Z" fill="#2c2c34" stroke="#474751" stroke-width="0.8"/><path d="M117.8,0L118,1.2L131.6,15.3L146.4,18.1L159.1,30.9L151.1,41L135,43.9L133,31.3L113.1,20.5L108.8,24.9L99.2,15.5L95,3.3L92,0L117.8,0Z" fill="#2c2c34" stroke="#474751" stroke-width="0.8"/><path d="M108.8,24.9L113.1,20.5L133,31.3L135,43.9L151.1,41L159.1,30.9L164.7,33.2L179.1,48L189.3,64.4L190.7,81L188.2,92.1L190.6,100.5L192.3,115L200.9,121.7L210.5,143.4L210.1,151.6L192.8,153.3L169.6,135.1L140.7,115.7L137.9,103.3L123.7,86.9L120.4,66.6L111.6,53.2L114.2,35.3ZM400,156.8L395,161.1L379.4,159.3L363.7,164.3L347,150.5L342.8,134.2L360.8,142.5L379.6,138L384.5,117.3L395,112.7L400,111.7L400,156.8Z" fill="#2c2c34" stroke="#474751" stroke-width="0.8"/><path d="M203.8,150.7L200.1,152.3L195.9,150.8L197.3,148.4L200.1,147.9L202.3,148.6L203.5,149.2L204.4,149.9Z" fill="#b8e653" stroke="#0c0e06" stroke-width="1"/></svg>
