<svg xmlns="http://www.w3.org/2000/svg" viewBox="0 0 300 300"><path fill="#e8e8ea" d="M280,108.1L272.8,105.2L263.9,104L262.4,105.4L258.8,107.1L257,110L258.2,121.5L256.1,123.4L246,122.3L242.7,123.6L237.3,131.5L231.6,134.9L224.8,137.1L219.4,140.1L212.8,142.6L207.2,144L204.8,147.5L203.6,151.3L203.9,155L209.6,162.3L210.4,170L209.9,179.5L208.4,184.4L206.3,187.8L191.9,192.1L177.3,199.9L177,201.6L183.6,208.6L183.9,210.2L178.5,214.1L177.9,218.1L178.5,222.6L181.5,227.1L182.4,231.4L174.3,234.3L163.6,233.3L150.7,227.5L146,228.3L141.8,231.4L137.3,230L132.2,226.5L125.4,219.1L121.8,214.3L120.6,209.6L118.5,208.8L115.8,210.2L113.4,216.2L106.9,226.7L102.1,229.6L94.9,228.9L84.8,229.1L78.5,230.2L70.7,226.3L69,227.1L69,229.6L66,233.5L61.5,235.9L39.4,230.2L36.4,225.5L41.5,223.2L48.4,217L52.8,217.8L58.5,216.4L61.2,213.9L57.3,206.1L48.4,196.4L43.6,192.9L37,190.4L35.8,187.8L39.4,172.7L38.2,170.4L30.7,171.2L29,169.5L28.4,166.9L29,163.3L34,157.3L39.7,152.1L41.2,149.2L40.9,146.9L33.7,144.4L29.3,142.1L26,141.3L23.6,142.6L21.8,141.1L20,136.7L21.8,130.1L28.1,123.8L35.2,118.4L41.5,114.2L44.8,112.5L46.6,105.6L50.1,106.3L57.6,106.7L65.7,108.4L73.1,110.2L79.7,112.7L93.7,115.2L106.3,116.7L110.1,118.2L113.1,118L117,120.1L119.4,118.6L120.9,115.9L127.8,112.5L134.3,108.1L138.5,102.7L141.2,98.3L145.4,95.4L150.1,94.3L154.3,92.9L172.2,90.8L190.7,92.4L199.7,89.5L206.9,84.1L217.3,82.6L217.9,82.6L233.7,86.6L234.9,84.3L235.5,83.2L235.2,71.7L240.3,66.4L245.1,64.1L260.9,64.9L263,68.5L263.6,74L265.1,81.3L267.8,83.4L269.3,86.4L269,91.4L271.9,95.2L279.1,105.4Z"/></svg>
