<svg xmlns="http://www.w3.org/2000/svg" viewBox="0 0 400 300"><path d="M0,37.1L1,38L36.2,44.9L23.9,70.2L20.8,96.2L14.1,102.4L3,99.1L3.8,108.3L0,112.5L0,37.1ZM0,144.2L5.5,154.4L4.6,164.3L11.8,177.4L3.2,188L9.6,214.6L22.9,218.9L20,233.6L0,250.8L0,144.2ZM51.8,300L47.1,281.6L52.1,269.3L52.1,269.3L67.8,256.6L71.9,285L67.1,300L51.8,300Z" fill="#2c2c34" stroke="#474751" stroke-width="0.8"/><path d="M400,81.8L393.3,86.7L391.6,76.9L378,66.9L382.8,52L389.6,42.3L394.9,44.5L388.6,27.7L400,11.5L400,81.8Z" fill="#2c2c34" stroke="#474751" stroke-width="0.8"/><path d="M400,11.5L388.6,27.7L394.9,44.5L389.6,42.3L366.4,27.9L348.8,33.3L337.2,29.4L322.7,37.5L310.4,24.1L300.4,29.3L299,27L287.8,8.4L269.6,6L268.4,0L400,0Z" fill="#2c2c34" stroke="#474751" stroke-width="0.8"/><path d="M253.2,77.9L251.4,92.8L237.7,92.9L242.3,100.8L234.2,123.9L229.6,129.9L208.2,130.8L195.9,138.8L175.7,136.1L140.7,126.9L135.3,114.5L111.2,120.7L108.4,127.5L93.5,122.4L81,121.5L70,114.9L73.7,106.1L72.8,99.7L80.1,97.7L92.5,107.7L96,98.2L117.5,99.7L135,93.2L146.7,94.3L154.4,101.7L156.6,95.6L153.1,71.8L161.9,67.2L170.5,50.1L188.7,62L202.5,46.9L211.1,44.1L230,55.4L241.5,53.5L252.8,60.5L250.8,65.2Z" fill="#2c2c34" stroke="#474751" stroke-width="0.8"/><path d="M378,66.9L391.6,76.9L393.3,86.7L378.3,94.3L366.8,118.8L352,143L332.4,149.6L317.2,148L298.5,157.3L289.3,162.6L269.2,155.8L250.9,140.7L243.1,136.3L238.4,124.2L234.2,123.9L242.3,100.8L237.7,92.9L251.4,92.8L253.2,77.9L265.6,87.2L274.7,91.2L295.2,86.7L297.1,79.5L306.9,78.3L318.8,72.6L321.4,75L332.8,70.4L338.7,61.7L346.7,59.5L372.8,70.7Z" fill="#2c2c34" stroke="#474751" stroke-width="0.8"/><path d="M400,228.9L399,229.2L392,215.2L387.5,209.2L393.2,203.5L387.1,199.2L379.5,206.9L365.2,196.9L363.3,182.7L348.4,174.5L345.7,163.4L332.4,149.6L352,143L366.8,118.8L378.3,94.3L393.3,86.7L400,81.8L400,228.9Z" fill="#2c2c34" stroke="#474751" stroke-width="0.8"/><path d="M138.2,0L141.7,9.1L144.3,25.1L156.7,34.1L170.5,50.1L161.9,67.2L153.1,71.8L156.6,95.6L154.4,101.7L146.7,94.3L135,93.2L117.5,99.7L96,98.2L92.5,107.7L80.1,97.7L72.8,99.7L46.6,88.6L41.6,96.5L20.8,96.2L23.9,70.2L36.2,44.9L1,38L0,37.1L0,0Z" fill="#2c2c34" stroke="#474751" stroke-width="0.8"/><path d="M398.2,300L397.4,290.1L385.2,279.5L389.2,274.8L386.6,270.9L390.7,260.3L400,249.8L388.1,235.3L386,222.9L392,215.2L392,215.2L399,229.2L400,228.9L400,300Z" fill="#2c2c34" stroke="#474751" stroke-width="0.8"/><path d="M315.5,300L315.8,299.2L311.6,294.1L310.1,283.6L320.6,267.3L322.2,273.5L328.8,270.6L334,279.5L339.8,282.9L341.5,294.8L340,300L315.5,300Z" fill="#2c2c34" stroke="#474751" stroke-width="0.8"/><path d="M243.1,136.3L250.9,140.7L269.2,155.8L289.3,162.6L298.5,157.3L304.3,170.8L312.2,180.8L302.8,193.8L291.7,186.1L274.8,186.6L253.8,180.8L242.3,181.6L237.1,188.8L228.3,180.8L223.2,195.2L235.1,211.3L240.5,221.8L251.7,234.5L261,241.9L270.2,255.9L291.9,268.6L289.1,274.2L266.2,261.9L252,249.9L229.7,239.9L209.2,215L214.1,212.4L202.9,198L202.5,186.3L186.7,180.8L179.3,195.8L172,184.2L172.6,172.1L173.5,171.6L190.5,172.8L195,166.9L203.3,172.6L212.9,173.3L212.8,163.5L221.3,159.9L223.7,145.7Z" fill="#2c2c34" stroke="#474751" stroke-width="0.8"/><path d="M0,112.5L3.8,108.3L3,99.1L14.1,102.4L20.8,96.2L41.6,96.5L46.6,88.6L72.8,99.7L72.8,99.7L73.7,106.1L70,114.9L81,121.5L93.5,122.4L91.6,137L80.8,143L62.7,138.5L57.4,152.8L45.8,153.9L41.6,148.3L27.9,160.2L16.1,161.9L5.5,154.4L0,144.2L0,112.5Z" fill="#2c2c34" stroke="#474751" stroke-width="0.8"/><path d="M134.5,300L134.1,299.7L111.8,278.3L95.2,259.2L87.6,225.9L75.5,222L55.6,210.7L44.3,215.4L30.2,231.1L20,233.6L22.9,218.9L9.6,214.6L3.2,188L11.8,177.4L4.6,164.3L5.5,154.4L16.1,161.9L27.9,160.2L41.6,148.3L45.8,153.9L57.4,152.8L62.7,138.5L80.8,143L91.6,137L93.5,122.4L93.5,122.4L108.4,127.5L111.2,120.7L135.3,114.5L140.7,126.9L175.7,136.1L173,153.5L178.9,168.4L159.5,163.3L139.6,175.7L140.9,192.9L137.9,202.7L145.9,220.1L168.9,237.2L181.2,264.9L208.4,291.5L227.5,291.3L233.4,298.5L231.9,300L134.5,300Z" fill="#2c2c34" stroke="#474751" stroke-width="0.8"/><path d="M389.6,42.3L382.8,52L378,66.9L372.8,70.7L346.7,59.5L338.7,61.7L332.8,70.4L321.4,75L318.8,72.6L306.9,78.3L297.1,79.5L295.2,86.7L274.7,91.2L265.6,87.2L253.2,77.9L250.8,65.2L252.8,60.5L256.2,52.3L267,53L275.4,49.1L276,45.7L280.8,43.9L282.4,35.4L288,33.8L291.8,27L299,27L300.4,29.3L310.4,24.1L322.7,37.5L337.2,29.4L348.8,33.3L366.4,27.9Z" fill="#2c2c34" stroke="#474751" stroke-width="0.8"/><path d="M268.4,0L269.6,6L287.8,8.4L299,27L291.8,27L288,33.8L282.4,35.4L280.8,43.9L276,45.7L275.4,49.1L267,53L256.2,52.3L252.8,60.5L241.5,53.5L230,55.4L211.1,44.1L202.5,46.9L188.7,62L170.5,50.1L156.7,34.1L144.3,25.1L141.7,9.1L138.2,0L268.4,0Z" fill="#2c2c34" stroke="#474751" stroke-width="0.8"/><path d="M291.9,268.6L270.2,255.9L261,241.9L251.7,234.5L240.5,221.8L235.1,211.3L223.2,195.2L228.3,180.8L237.1,188.8L242.3,181.6L253.8,180.8L274.8,186.6L291.7,186.1L302.8,193.8L311.6,193.7L305.5,208.8L317.3,221.9L313.7,237.8L308,239.3L303.4,242.4L295.5,250.2Z" fill="#2c2c34" stroke="#474751" stroke-width="0.8"/><path d="M340,300L341.5,294.8L344.5,295.1L345.7,288.3L360.1,283.3L365.6,282L373.9,280L385.2,279.5L385.2,279.5L397.4,290.1L398.2,300L340,300Z" fill="#2c2c34" stroke="#474751" stroke-width="0.8"/><path d="M298.5,157.3L317.2,148L332.4,149.6L345.7,163.4L348.4,174.5L363.3,182.7L365.2,196.9L379.5,206.9L387.1,199.2L393.2,203.5L387.5,209.2L392,215.2L386,222.9L388.1,235.3L400,249.8L390.7,260.3L386.6,270.9L389.2,274.8L385.2,279.5L373.9,280L365.6,282L364.8,279.5L367.7,275.5L370.4,267.4L367,267.7L362.2,261.5L358.2,259.9L355,254.6L350.4,252.5L346.9,247.8L342.5,249.6L339.2,260.7L333.4,263.2L335.3,260.3L326,253.3L318,249.8L314.5,245.1L308,239.3L313.7,237.8L317.3,221.9L305.5,208.8L311.6,193.7L302.8,193.8L312.2,180.8L304.3,170.8Z" fill="#2c2c34" stroke="#474751" stroke-width="0.8"/><path d="M328.8,270.6L322.2,273.5L320.6,267.3L310.1,283.6L311.6,294.1L306.5,291.5L299.7,280.8L289.1,274.2L291.9,268.6L295.5,250.2L303.4,242.4L308,239.3L314.5,245.1L318,249.8L326,253.3L335.3,260.3L333.4,263.2Z" fill="#2c2c34" stroke="#474751" stroke-width="0.8"/><path d="M341.5,294.8L339.8,282.9L334,279.5L328.8,270.6L333.4,263.2L339.2,260.7L342.5,249.6L346.9,247.8L350.4,252.5L355,254.6L358.2,259.9L362.2,261.5L367,267.7L370.4,267.4L367.7,275.5L364.8,279.5L365.6,282L360.1,283.3L345.7,288.3L344.5,295.1Z" fill="#2c2c34" stroke="#474751" stroke-width="0.8"/><path d="M241.9,136.4L239.8,135.6L237.1,135.2L236.7,135.6L235.6,136.1L235.1,137L235.5,140.4L234.9,140.9L231.9,140.6L230.9,141L229.3,143.3L227.6,144.3L225.6,145L224,145.8L222.1,146.6L220.4,147L219.7,148.1L219.4,149.2L219.5,150.3L221.1,152.4L221.4,154.7L221.2,157.5L220.8,158.9L220.2,159.9L215.9,161.2L211.6,163.5L211.5,164L213.5,166L213.6,166.5L212,167.7L211.8,168.8L212,170.2L212.9,171.5L213.1,172.8L210.7,173.6L207.6,173.3L203.8,171.6L202.4,171.9L201.2,172.8L199.8,172.3L198.3,171.3L196.3,169.1L195.3,167.7L194.9,166.3L194.3,166.1L193.5,166.5L192.8,168.3L190.9,171.4L189.5,172.2L187.3,172L184.4,172.1L182.5,172.4L180.2,171.3L179.7,171.5L179.7,172.2L178.8,173.4L177.5,174.1L171,172.4L170.1,171L171.6,170.3L173.6,168.5L174.9,168.8L176.6,168.3L177.4,167.6L176.3,165.3L173.6,162.5L172.2,161.4L170.3,160.7L169.9,159.9L171,155.5L170.6,154.8L168.4,155L167.9,154.5L167.7,153.7L167.9,152.7L169.4,150.9L171.1,149.4L171.5,148.5L171.4,147.9L169.3,147.1L168,146.5L167,146.2L166.3,146.6L165.8,146.2L165.3,144.9L165.8,142.9L167.6,141.1L169.8,139.5L171.6,138.2L172.6,137.7L173.1,135.7L174.2,135.9L176.4,136L178.7,136.5L180.9,137.1L182.9,137.8L187,138.5L190.7,139L191.8,139.4L192.7,139.3L193.9,140L194.6,139.5L195,138.7L197,137.7L199,136.4L200.2,134.8L201,133.5L202.2,132.7L203.6,132.4L204.9,131.9L210.1,131.3L215.6,131.8L218.2,130.9L220.3,129.3L223.4,128.9L223.6,128.9L228.3,130.1L228.6,129.4L228.8,129.1L228.7,125.7L230.2,124.1L231.6,123.5L236.3,123.7L236.9,124.8L237.1,126.4L237.5,128.5L238.3,129.2L238.7,130L238.6,131.5L239.5,132.6L241.6,135.6Z" fill="#b8e653" stroke="#0c0e06" stroke-width="1"/></svg>
