<svg xmlns="http://www.w3.org/2000/svg" viewBox="0 0 400 300"><path d="M400,53.4L396.5,56L388.1,50.9L370.8,50.1L346.3,41.6L324,38.8L306.9,39.7L294.9,49.3L284.3,50.7L283.8,34.8L277.1,18.1L290.3,10.7L290.4,0L400,0Z" fill="#2c2c34" stroke="#474751" stroke-width="0.8"/><path d="M400,258.4L397.8,259.4L388,253.6L393.5,250.2L397.4,239.4L400,235L400,258.4ZM400,171L397.7,168.9L388.5,167.7L372.4,157.4L357.7,160.7L352.4,165.5L343.1,165.5L337.6,173.3L321.4,176.4L313.8,181.5L303.6,173.5L289.5,173.3L275.8,169.7L266.3,176.7L264.8,167.9L252.5,158.9L256.9,145.4L263,136.7L267.7,138.7L262.1,123.5L282.1,95.1L293,91L295.3,81.3L284.3,50.7L294.9,49.3L306.9,39.7L324,38.8L346.3,41.6L370.8,50.1L388.1,50.9L396.5,56L400,53.4L400,171Z" fill="#2c2c34" stroke="#474751" stroke-width="0.8"/><path d="M290.4,0L290.3,10.7L277.1,18.1L283.8,34.8L284.3,50.7L295.3,81.3L293,91L282.1,95.1L262.1,123.5L267.7,138.7L263,136.7L242,123.7L226.2,128.5L215.8,125L202.7,132.3L191.6,120.3L182.6,124.9L181.3,122.9L171.2,106.1L154.8,104L152.7,93.2L137.6,89.3L134.3,98.3L122.4,91.1L123.7,81.6L107.3,78.6L96.8,67.3L87.8,44.7L89.5,32.4L84,13.1L76,0.1L76.1,0L290.4,0Z" fill="#2c2c34" stroke="#474751" stroke-width="0.8"/><path d="M0,187.2L17.7,188.4L33.4,182.6L44,183.6L50.9,190.3L53,184.7L49.8,163.3L57.7,159.1L65.5,143.7L81.8,154.5L94.3,140.8L102,138.3L119.1,148.5L129.5,146.8L139.6,153.1L137.8,157.3L140,168.8L140,168.8L138.4,182.2L126,182.3L130.2,189.4L122.9,210.2L118.7,215.7L99.4,216.4L88.3,223.7L70.2,221.3L38.6,212.9L33.7,201.7L11.9,207.3L9.4,213.5L0,210.3L0,187.2Z" fill="#2c2c34" stroke="#474751" stroke-width="0.8"/><path d="M252.5,158.9L264.8,167.9L266.3,176.7L252.8,183.6L242.4,205.6L229.1,227.4L211.4,233.4L197.7,232L180.8,240.3L172.6,245.1L154.4,239L137.9,225.4L130.9,221.4L126.6,210.5L122.9,210.2L130.2,189.4L126,182.3L138.4,182.2L140,168.8L151.2,177.2L159.4,180.8L177.9,176.7L179.6,170.2L188.4,169.2L199.1,164L201.5,166.1L211.8,162L217.1,154.2L224.3,152.2L247.8,162.3Z" fill="#2c2c34" stroke="#474751" stroke-width="0.8"/><path d="M400,235L397.4,239.4L393.5,250.2L388,253.6L384,239.2L386.4,225.6L385.7,211.6L373,192.3L365.9,178.5L359.1,168.8L352.4,165.5L352.4,165.5L357.7,160.7L372.4,157.4L388.5,167.7L397.7,168.9L400,171L400,235Z" fill="#2c2c34" stroke="#474751" stroke-width="0.8"/><path d="M400,279.4L396.6,300L374.2,300L374.2,300L366.2,294.4L345.8,300L268.9,300L268.9,300L265.1,292.6L261.1,287.2L266.2,282L260.8,278.1L253.9,285.1L241,276.1L239.3,263.2L225.9,255.9L223.4,245.8L211.4,233.4L229.1,227.4L242.4,205.6L252.8,183.6L266.3,176.7L275.8,169.7L289.5,173.3L303.6,173.5L313.8,181.5L321.4,176.4L337.6,173.3L343.1,165.5L352.4,165.5L359.1,168.8L365.9,178.5L373,192.3L385.7,211.6L386.4,225.6L384,239.2L388,253.6L388,253.6L397.8,259.4L400,258.4L400,279.4Z" fill="#2c2c34" stroke="#474751" stroke-width="0.8"/><path d="M76.1,0L76,0.1L84,13.1L89.5,32.4L87.8,44.7L96.8,67.3L87,70.9L81.2,66.9L75.6,73.6L59.8,80.3L51.6,89L35.6,96.5L39.5,106.8L41.8,121.1L53,129.3L65.5,143.7L57.7,159.1L49.8,163.3L53,184.7L50.9,190.3L44,183.6L33.4,182.6L17.7,188.4L0,187.2L0,0Z" fill="#2c2c34" stroke="#474751" stroke-width="0.8"/><path d="M345.8,300L366.2,294.4L374.2,300L345.8,300ZM259.8,300L259.7,299.5L265.1,292.6L265.1,292.6L268.9,300L259.8,300Z" fill="#2c2c34" stroke="#474751" stroke-width="0.8"/><path d="M106.6,300L100.3,292.3L104.7,290L94.7,277L94.3,266.5L80.1,261.6L73.3,275L66.8,264.6L67.3,253.7L68.1,253.3L83.5,254.3L87.5,249L95,254.2L103.6,254.7L103.6,245.9L111.2,242.7L113.4,229.9L130.9,221.4L130.9,221.4L137.9,225.4L154.4,239L172.6,245.1L180.8,240.3L186.1,252.6L193.2,261.5L184.7,273.3L174.7,266.3L159.5,266.8L140.5,261.6L130.2,262.3L125.4,268.8L117.6,261.6L112.9,274.5L123.7,289L128.5,298.5L129.8,300L106.6,300Z" fill="#2c2c34" stroke="#474751" stroke-width="0.8"/><path d="M0,210.3L9.4,213.5L11.9,207.3L33.7,201.7L38.6,212.9L70.2,221.3L67.7,237L73,250.4L55.5,245.8L37.6,257L38.8,272.5L36.1,281.3L43.3,297L47.3,300L0,300Z" fill="#2c2c34" stroke="#474751" stroke-width="0.8"/><path d="M70.2,221.3L88.3,223.7L99.4,216.4L118.7,215.7L122.9,210.2L126.6,210.5L130.9,221.4L113.4,229.9L111.2,242.7L103.6,245.9L103.6,254.7L95,254.2L87.5,249L83.5,254.3L68.1,253.3L73,250.4L67.7,237Z" fill="#2c2c34" stroke="#474751" stroke-width="0.8"/><path d="M96.8,67.3L107.3,78.6L123.7,81.6L122.4,91.1L134.3,98.3L137.6,89.3L152.7,93.2L154.8,104L171.2,106.1L181.3,122.9L174.8,122.9L171.4,129L166.3,130.5L164.9,138.1L160.6,139.7L160,142.8L152.5,146.3L142.7,145.7L139.6,153.1L129.5,146.8L119.1,148.5L102,138.3L94.3,140.8L81.8,154.5L65.5,143.7L53,129.3L41.8,121.1L39.5,106.8L35.6,96.5L51.6,89L59.8,80.3L75.6,73.6L81.2,66.9L87,70.9Z" fill="#2c2c34" stroke="#474751" stroke-width="0.8"/><path d="M129.8,300L128.5,298.5L123.7,289L112.9,274.5L117.6,261.6L125.4,268.8L130.2,262.3L140.5,261.6L159.5,266.8L174.7,266.3L184.7,273.3L192.6,273.1L187.2,286.8L197.8,298.6L197.5,300L129.8,300Z" fill="#2c2c34" stroke="#474751" stroke-width="0.8"/><path d="M197.5,300L197.8,298.6L187.2,286.8L192.6,273.1L184.7,273.3L193.2,261.5L186.1,252.6L180.8,240.3L180.8,240.3L197.7,232L211.4,233.4L223.4,245.8L225.9,255.9L239.3,263.2L241,276.1L253.9,285.1L260.8,278.1L266.2,282L261.1,287.2L265.1,292.6L259.7,299.5L259.8,300L197.5,300Z" fill="#2c2c34" stroke="#474751" stroke-width="0.8"/><path d="M262.5,137.2L262.2,138.6L261.3,140.1L260.2,141.8L259.2,143.8L258,148.1L257.2,150.1L253.8,154L253.5,159.4L253.1,159.8L245.5,161.7L244.5,161.4L243.5,160.4L242.9,159.6L242.5,159L241.9,157.5L241,156.4L239.7,155.6L238.5,154.6L237,154.5L232.9,156L230.1,156.1L228.2,155.6L225.7,154.8L220.8,154.6L217.4,155.4L217.1,156.4L214,163.1L209.4,165.5L205.5,168L204.4,168.5L202.4,167.7L200.2,166.3L198.3,165.5L197,165.8L195.5,167.5L194.8,169.2L190.4,170.5L182.6,171.1L179.9,172.8L179.1,174.9L179,176.3L179.7,177.7L178.8,179.2L178.5,179.8L173,180.2L165.7,180.6L161.4,180.5L157.2,180.4L154.5,179.1L151.1,176.5L147.5,173.1L147.1,173L146.6,172.7L144.3,172.5L143.8,172.6L142.4,171.5L142,170.1L139.9,166.3L137.5,160.1L137.5,158.2L138.4,156.2L139.2,154.6L139.3,153.4L139.5,153L140.2,150.4L141.9,146.9L143.4,144.9L144.6,144.3L147,144.9L151.1,145.4L154.2,144.9L157.2,143.3L158.8,142L160.2,140.5L160.6,139.6L161.2,139.2L163.7,138.4L164.4,137.4L164.7,135.6L164.9,133.5L165.4,132L166.1,130.9L170.6,128.3L171,127.3L171.7,126.4L173,125.4L174.3,123.9L175.7,123L177.4,123.1L179.1,122.9L180.3,122.4L180.9,122.3L183.2,122.8L183.6,124.4L183.8,126.2L187.9,126.1L190.1,122.3L191.2,121.9L193.1,120.6L194.3,119.4L195.1,120.1L196.4,122.6L197.6,124.5L198.3,125.3L198.4,125.9L199.2,126.2L200.6,126.4L201.6,127L201.9,128.9L201.9,130.5L201.4,131.7L201.2,132.7L202.2,133.1L203.7,132.7L204.8,132.1L207.9,133.5L209,130.5L210.2,128.9L211.8,128.2L213.2,127.3L214.6,126.6L215.5,126.6L215.9,126.4L217.1,126.4L218.3,126.7L220.1,126.4L222.6,127.2L224.2,128.5L225.7,129L227.4,128.9L228.6,128.2L230.4,125.5L231.6,125.5L233.6,125.1L236.3,125.2L242.7,125.7L244.3,126.7L248.2,128L250,129.5L250.7,131.3L251.1,132.5L255.1,134.4L261.1,136.9Z" fill="#b8e653" stroke="#0c0e06" stroke-width="1"/></svg>
