<svg xmlns="http://www.w3.org/2000/svg" viewBox="0 0 300 300"><path fill="#e8e8ea" d="M280,123.3L279.3,126.2L277.5,129.5L275.2,133L273.2,137.1L270.6,146.1L268.9,150.3L261.9,158.3L261.4,169.6L260.4,170.5L244.7,174.3L242.6,173.7L240.4,171.5L239.3,169.9L238.4,168.8L237.1,165.7L235.3,163.4L232.7,161.6L230.2,159.5L227,159.4L218.5,162.4L212.5,162.7L208.7,161.7L203.5,159.9L193.2,159.7L186.1,161.2L185.5,163.4L179,177.2L169.6,182.3L161.4,187.4L159.1,188.5L154.9,186.8L150.3,183.9L146.5,182.2L143.7,182.9L140.6,186.4L139.3,189.9L130,192.6L113.9,194L108.3,197.4L106.4,201.7L106.3,204.8L107.8,207.5L106,210.7L105.3,212L93.9,212.7L78.7,213.7L69.7,213.5L61.1,213.2L55.3,210.5L48.2,205.2L40.8,198.2L40,197.9L39,197.2L34.2,196.7L33,197.1L30.2,194.8L29.4,191.8L24.9,184L20,170.9L20,167.1L21.8,162.9L23.6,159.5L23.8,157L24.1,156.3L25.6,150.9L29.1,143.6L32.4,139.4L34.8,138.1L39.8,139.3L48.4,140.4L54.8,139.4L60.9,136.2L64.2,133.4L67.2,130.3L68,128.4L69.3,127.6L74.4,125.9L75.9,123.8L76.6,120L77.1,115.8L78.1,112.6L79.4,110.3L88.8,104.8L89.6,102.8L91.1,100.9L93.9,98.8L96.5,95.8L99.4,93.9L103,94L106.4,93.7L109.1,92.6L110.2,92.4L115,93.4L115.9,96.9L116.3,100.5L124.8,100.3L129.4,92.4L131.7,91.5L135.6,88.8L138.1,86.3L139.8,87.9L142.4,92.9L145.1,97L146.5,98.6L146.7,99.8L148.4,100.5L151.3,101L153.3,102.2L154,106L154,109.4L153,111.9L152.5,114.1L154.6,114.9L157.8,114.1L159.9,112.8L166.3,115.6L168.6,109.4L171.1,106.1L174.6,104.7L177.6,102.7L180.4,101.4L182.2,101.4L183,100.9L185.5,101L188.1,101.6L191.9,100.9L197,102.5L200.3,105.3L203.5,106.3L207.1,106.1L209.6,104.6L213.2,99.1L215.8,99.1L219.8,98.2L225.6,98.3L238.8,99.4L242.2,101.6L250.3,104.3L253.9,107.4L255.4,111.1L256.2,113.7L264.7,117.6L277,122.7Z"/></svg>
