<svg xmlns="http://www.w3.org/2000/svg" viewBox="0 0 300 300"><path fill="#e8e8ea" d="M275.2,147.5L274.9,150L272.5,162.1L268.9,172.5L266.5,174.9L255.8,177.7L251.3,182.2L247.4,197L245,208.5L241.4,210.4L225.8,227L215.6,233.3L208.4,238.8L201.8,245.8L193.4,252.6L184.2,264.3L177.9,276.2L173.4,280L170.1,276.7L154.5,264.7L138.3,256.7L103.6,243.5L91.9,239.8L92.5,235L96.4,226.4L89.8,216.4L92.5,208.9L89.8,208.9L85,213.4L74.2,212.1L67.3,205.7L61.6,203.5L58.9,200.3L55.3,183.5L52.6,176L47.5,171.3L36.8,170.1L32.3,160L26.6,152.2L27.5,147.2L32.3,147.5L36.2,151L42.2,152.5L49.6,144L56.5,139.3L58,135.2L57.1,133L52.9,136.5L41.9,135.7L39.2,138.7L34.1,139.7L30.2,129.7L30.5,123.8L32,117.2L43.4,116.2L44.2,114.2L36.5,112.7L26.6,105.1L24.8,100L29.6,98.2L34.4,99L38.3,100.1L42.8,98.2L46.9,95.3L49.3,91.6L52.6,81.8L63.1,78.6L69.4,72.6L75.4,63.2L78.1,56.6L80.5,53.4L82.3,50.6L83.2,47.4L85.9,44.6L88.9,37.7L90.7,31.3L96.7,28.4L109.3,25.6L120.6,30.3L138.9,26.3L139.8,20.3L156.6,20.1L176.4,20.1L192.8,20L198.5,21.6L200.6,26L206,32.9L211.7,37.7L218.6,48.3L227,60.6L235.7,71.6L241.4,77.6L242,79.6L241.7,82.1L238.7,87.7L236.3,93.8L236.6,96L238.4,97.2L247.7,99.1L248.3,105.8L248.6,115.2L252.8,124L257.3,130.4L257,132.7L246.5,143.7L242.6,154.5L240.5,157.6L239.6,160L241.7,161.2L244.4,160.5L248.6,161.4L252.5,161.7L257.5,157.7L265.9,147.8L268.9,146.6Z"/></svg>
