<svg xmlns="http://www.w3.org/2000/svg" viewBox="0 0 400 300"><path d="M190.7,0L191.7,14.8L196.5,29.2L205.6,36.3L207.7,46L206.6,53.8L203.1,55.2L189.8,53.2L188,56L182.6,56.5L165,50.4L153.2,50.2L108.1,49.1L101.5,51.9L93.4,51.1L80.5,55.2L76.4,36L98.7,36.6L104.6,33L109,32.8L118,27L128.5,32.3L139.1,32.8L149.7,27.1L144.8,19.9L136.7,24.1L129.1,24L119.4,17.8L111.7,18.2L106.1,24.1L79.6,24.9L79.6,24.9L69.5,5.3L62.4,0L190.7,0Z" fill="#2c2c34" stroke="#474751" stroke-width="0.8"/><path d="M400,30.8L390.1,28L383.4,34.1L379.8,51.3L360.4,72L361,80.4L354.3,91L355.9,105.4L345.9,109.1L340.1,112.2L336.4,101.6L329.3,104.4L325.1,103.9L320.6,111.2L301.7,111L294.9,107.2L291.8,109.5L284.3,102.3L285.6,94.9L282.5,92L277.3,94.5L278.3,86.4L283.3,80L273.3,69.5L270.4,62.6L264.9,57.1L260.1,56.5L254.2,60L246.3,63.3L239.6,68.7L229.1,66.7L222.4,60.4L218.3,59.6L211.9,62.9L208,62.9L206.6,53.8L206.6,53.8L207.7,46L205.6,36.3L196.5,29.2L191.7,14.8L190.7,0L400,0Z" fill="#2c2c34" stroke="#474751" stroke-width="0.8"/><path d="M400,236.3L390,233.5L374.4,233.8L345.4,238L328.4,245.1L304.2,254.1L299.5,253.5L301.4,233.3L303.7,230.2L303,220.5L292.6,210.2L284.9,208.6L277.8,201.8L283,190.9L280.6,179L281.7,171.8L285.6,171.8L287.1,161.1L285.2,156.3L287.5,152.9L296.6,149.9L290.5,130.1L284.9,119.8L286.9,111.4L291.8,109.5L291.8,109.5L294.9,107.2L301.7,111L320.6,111.2L325.1,103.9L329.3,104.4L336.4,101.6L340.1,112.2L345.9,109.1L355.9,105.4L366.9,110.8L371.2,119L382.2,124.3L390.7,118L400,117.3L400,236.3Z" fill="#2c2c34" stroke="#474751" stroke-width="0.8"/><path d="M153.2,50.2L165,50.4L182.6,56.5L188,56L189.8,53.2L203.1,55.2L206.6,53.8L208,62.9L211.9,62.9L218.3,59.6L222.4,60.4L229.1,66.7L239.6,68.7L246.3,63.3L254.2,60L260.1,56.5L264.9,57.1L270.4,62.6L273.3,69.5L283.3,80L278.3,86.4L277.3,94.5L282.5,92L285.6,94.9L284.3,102.3L291.8,109.5L286.9,111.4L284.9,119.8L290.5,130.1L296.6,149.9L287.5,152.9L285.2,156.3L287.1,161.1L285.6,171.8L281.7,171.8L274.9,171.2L269.9,181.1L263,181L258.2,175.8L259.8,165.9L249.6,150.7L243.2,153.5L238,154.1L231.2,155.5L231.5,146.4L227.6,139.9L228.4,132.8L223.1,122.3L216.3,113.5L196.8,113.4L191,118.1L184.4,118.7L180.1,124.1L177.3,130.9L164.3,141.8L153.6,127.2L144.1,117.4L137.8,114.2L131.7,109.3L128.9,98.3L125.3,92.8L118.3,88.7L129.1,76.6L136.5,77.1L142.9,72.9L148.3,72.8L152.2,69.5L150,61.3L152.8,58.6Z" fill="#2c2c34" stroke="#474751" stroke-width="0.8"/><path d="M80.5,55.2L93.4,51.1L101.5,51.9L108.1,49.1L153.2,50.2L152.8,58.6L150,61.3L152.2,69.5L148.3,72.8L142.9,72.9L136.5,77.1L129.1,76.6L118.3,88.7L105.2,78.3L94.9,76.7L89.3,69.7L89.4,65.9L82,60.6Z" fill="#2c2c34" stroke="#474751" stroke-width="0.8"/><path d="M281.7,171.8L280.6,179L283,190.9L277.8,201.8L284.9,208.6L292.6,210.2L303,220.5L303.7,230.2L301.4,233.3L299.5,253.5L293.1,253.7L267.9,242L245.8,223.3L224.9,209.9L208.5,194L214.3,186.1L215.6,179L226.7,165.6L238,154.1L243.2,153.5L249.6,150.7L259.8,165.9L258.2,175.8L263,181L269.9,181.1L274.9,171.2Z" fill="#2c2c34" stroke="#474751" stroke-width="0.8"/><path d="M400,117.3L390.7,118L382.2,124.3L371.2,119L366.9,110.8L355.9,105.4L355.9,105.4L354.3,91L361,80.4L360.4,72L379.8,51.3L383.4,34.1L390.1,28L400,30.8L400,117.3Z" fill="#2c2c34" stroke="#474751" stroke-width="0.8"/><path d="M79.6,24.9L106.1,24.1L111.7,18.2L119.4,17.8L129.1,24L136.7,24.1L144.8,19.9L149.7,27.1L139.1,32.8L128.5,32.3L118,27L109,32.8L104.6,33L98.7,36.6L76.4,36Z" fill="#2c2c34" stroke="#474751" stroke-width="0.8"/><path d="M236.7,152.1L236.6,152.9L235.9,156.4L234.8,159.5L234.1,160.2L231,161L229.7,162.3L228.5,166.7L227.8,170.1L226.7,170.6L222.2,175.5L219.2,177.3L217.1,179L215.1,181L212.7,183L209.9,186.4L208.1,189.9L206.8,191.1L205.8,190.1L201.2,186.6L196.5,184.2L186.3,180.3L182.9,179.3L183,177.8L184.2,175.3L182.2,172.4L183,170.2L182.2,170.2L180.8,171.5L177.7,171.1L175.6,169.2L174,168.6L173.2,167.7L172.1,162.7L171.3,160.5L169.8,159.1L166.7,158.8L165.4,155.8L163.7,153.5L163.9,152.1L165.4,152.1L166.5,153.2L168.3,153.6L170.5,151.1L172.5,149.7L172.9,148.5L172.7,147.9L171.4,148.9L168.2,148.7L167.4,149.6L165.9,149.9L164.7,146.9L164.8,145.2L165.3,143.3L168.6,143L168.9,142.4L166.6,141.9L163.7,139.7L163.2,138.2L164.6,137.7L166,137.9L167.1,138.2L168.4,137.7L169.7,136.8L170.4,135.7L171.3,132.9L174.4,131.9L176.3,130.2L178,127.4L178.8,125.5L179.5,124.5L180,123.7L180.3,122.8L181.1,121.9L182,119.9L182.5,118L184.3,117.2L188,116.3L191.3,117.7L196.7,116.6L196.9,114.8L201.9,114.8L207.7,114.8L212.5,114.7L214.2,115.2L214.8,116.5L216.4,118.5L218,119.9L220.1,123L222.5,126.6L225.1,129.9L226.7,131.6L226.9,132.2L226.8,133L226,134.6L225.3,136.4L225.3,137L225.9,137.4L228.6,137.9L228.8,139.9L228.9,142.7L230.1,145.2L231.4,147.1L231.3,147.8L228.2,151L227.1,154.2L226.5,155.1L226.2,155.8L226.8,156.2L227.6,156L228.9,156.2L230,156.3L231.5,155.1L234,152.2L234.8,151.9ZM181.9,178L181.5,178.7L180,177.1L171.5,174.7L173.9,173.4L179.7,173L181.4,173.8L182.2,174.4L182.5,175.6Z" fill="#b8e653" stroke="#0c0e06" stroke-width="1"/></svg>
