<svg xmlns="http://www.w3.org/2000/svg" viewBox="0 0 400 300"><path d="M80.5,0L78,21L71.3,27.2L60.2,23.9L61,33.1L43.1,53.2L42.7,69.3L54.4,63.7L62.7,79.2L61.8,89.1L69,102.2L60.5,112.8L66.8,139.4L80.1,143.7L77.3,158.4L55.1,177.4L6.9,168.3L0,170.4L0,0ZM109.3,194.1L125,181.4L129.2,209.8L121.1,235.1L110,228.5L104.3,206.4Z" fill="#2c2c34" stroke="#474751" stroke-width="0.8"/><path d="M309.9,0L310.4,2.7L310.4,2.7L308.6,17.6L294.9,17.7L299.5,25.6L291.4,48.7L286.8,54.7L265.4,55.6L253.1,63.6L233,60.9L197.9,51.7L192.5,39.3L168.4,45.5L165.6,52.3L150.7,47.2L138.2,46.3L127.2,39.7L130.9,30.9L130,24.5L137.3,22.5L149.7,32.5L153.2,23L174.7,24.5L192.2,18L203.9,19.1L211.6,26.5L213.9,20.4L210.8,0L309.9,0Z" fill="#2c2c34" stroke="#474751" stroke-width="0.8"/><path d="M400,70.9L389.6,74.4L374.4,72.8L355.7,82.1L346.5,87.4L326.4,80.6L308.1,65.5L300.3,61.1L295.6,49L291.4,48.7L299.5,25.6L294.9,17.7L308.6,17.6L310.4,2.7L322.9,12L331.9,16L352.4,11.6L354.3,4.3L364.1,3.1L370.7,0L400,0Z" fill="#2c2c34" stroke="#474751" stroke-width="0.8"/><path d="M400,85.2L389.6,74.4L400,70.9L400,85.2Z" fill="#2c2c34" stroke="#474751" stroke-width="0.8"/><path d="M210.8,0L213.9,20.4L211.6,26.5L203.9,19.1L192.2,18L174.7,24.5L153.2,23L149.7,32.5L137.3,22.5L130,24.5L103.8,13.4L98.8,21.3L78,21L80.5,0L210.8,0Z" fill="#2c2c34" stroke="#474751" stroke-width="0.8"/><path d="M389.4,300L387.9,291.5L399.3,276.1L400,270.8L400,300Z" fill="#2c2c34" stroke="#474751" stroke-width="0.8"/><path d="M400,270.8L399.3,276.1L387.9,291.5L383.7,289.3L383.3,282.3L369.7,271.6L367.6,256.3L369.6,234.2L373,224L368.9,218.9L367.3,208.4L377.8,192.1L379.4,198.3L386,195.4L391.2,204.3L397,207.7L398.7,219.6L395.6,230.7L399,244.7L400,245.5L400,270.8Z" fill="#2c2c34" stroke="#474751" stroke-width="0.8"/><path d="M300.3,61.1L308.1,65.5L326.4,80.6L346.5,87.4L355.7,82.1L361.6,95.6L369.4,105.6L360,118.6L348.9,110.9L332,111.4L311,105.6L299.5,106.4L294.3,113.6L285.6,105.6L280.4,120L292.3,136.1L297.7,146.6L308.9,159.3L318.2,166.7L327.4,180.7L349.1,193.4L346.3,199L323.4,186.7L309.2,174.7L286.9,164.7L266.4,139.8L271.3,137.2L260.1,122.8L259.7,111.1L243.9,105.6L236.5,120.6L229.3,109L229.8,96.9L230.7,96.4L247.7,97.6L252.2,91.7L260.5,97.4L270.1,98.1L270,88.3L278.5,84.7L280.9,70.5Z" fill="#2c2c34" stroke="#474751" stroke-width="0.8"/><path d="M130,24.5L130.9,30.9L127.2,39.7L138.2,46.3L150.7,47.2L148.8,61.8L138,67.8L119.9,63.3L114.6,77.6L103,78.7L98.8,73.1L85.1,85L73.3,86.7L62.7,79.2L54.4,63.7L42.7,69.3L43.1,53.2L61,33.1L60.2,23.9L71.3,27.2L78,21L98.8,21.3L103.8,13.4Z" fill="#2c2c34" stroke="#474751" stroke-width="0.8"/><path d="M282.7,300L279.7,294.1L272.2,278.1L262.1,274.1L254.9,260.2L239.1,254.4L228.6,241.3L210.4,239.3L191.3,224.5L169,203.1L152.4,184L144.8,150.7L132.7,146.8L112.8,135.5L101.5,140.2L87.4,155.9L77.3,158.4L80.1,143.7L66.8,139.4L60.5,112.8L69,102.2L61.8,89.1L62.7,79.2L73.3,86.7L85.1,85L98.8,73.1L103,78.7L114.6,77.6L119.9,63.3L138,67.8L148.8,61.8L150.7,47.2L150.7,47.2L165.6,52.3L168.4,45.5L192.5,39.3L197.9,51.7L233,60.9L230.2,78.3L236.1,93.2L216.7,88.1L196.8,100.5L198.1,117.7L195.1,127.5L203.1,144.9L226.1,162L238.4,189.7L265.6,216.3L284.7,216.1L290.7,223.4L283.8,229.9L305.7,241.7L323.6,251.4L344.6,268.2L347.1,274.2L342.6,285.6L329,270.7L307.7,265.4L297.5,286.1L315.1,297.9L314.7,300L282.7,300ZM101.4,300L100.6,267.5L94.9,249.1L108.4,250.7L108.4,250.7L120.6,240.7L135.2,263.6L132.3,300L101.4,300Z" fill="#2c2c34" stroke="#474751" stroke-width="0.8"/><path d="M233,60.9L253.1,63.6L265.4,55.6L286.8,54.7L291.4,48.7L295.6,49L300.3,61.1L280.9,70.5L278.5,84.7L270,88.3L270.1,98.1L260.5,97.4L252.2,91.7L247.7,97.6L230.7,96.4L236.1,93.2L230.2,78.3Z" fill="#2c2c34" stroke="#474751" stroke-width="0.8"/><path d="M370.7,0L364.1,3.1L354.3,4.3L352.4,11.6L331.9,16L322.9,12L310.4,2.7L309.9,0L370.7,0Z" fill="#2c2c34" stroke="#474751" stroke-width="0.8"/><path d="M349.1,193.4L327.4,180.7L318.2,166.7L308.9,159.3L297.7,146.6L292.3,136.1L280.4,120L285.6,105.6L294.3,113.6L299.5,106.4L311,105.6L332,111.4L348.9,110.9L360,118.6L368.8,118.5L362.7,133.6L374.5,146.7L370.9,162.6L365.2,164.2L360.6,167.2L352.7,175Z" fill="#2c2c34" stroke="#474751" stroke-width="0.8"/><path d="M400,245.5L399,244.7L395.6,230.7L398.7,219.6L400,219.7L400,245.5Z" fill="#2c2c34" stroke="#474751" stroke-width="0.8"/><path d="M400,174.3L399.7,174.5L396.4,185.5L390.6,188L392.5,185.1L383.2,178.1L375.2,174.6L371.7,169.9L365.2,164.2L370.9,162.6L374.5,146.7L362.7,133.6L368.8,118.5L360,118.6L369.4,105.6L361.6,95.6L355.7,82.1L355.7,82.1L374.4,72.8L389.6,74.4L400,85.2L400,174.3Z" fill="#2c2c34" stroke="#474751" stroke-width="0.8"/><path d="M386,195.4L379.4,198.3L377.8,192.1L367.3,208.4L368.9,218.9L363.8,216.3L356.9,205.6L346.3,199L349.1,193.4L352.7,175L360.6,167.2L365.2,164.2L371.7,169.9L375.2,174.6L383.2,178.1L392.5,185.1L390.6,188Z" fill="#2c2c34" stroke="#474751" stroke-width="0.8"/><path d="M400,219.7L398.7,219.6L398.7,219.6L397,207.7L391.2,204.3L386,195.4L390.6,188L396.4,185.5L399.7,174.5L400,174.3L400,219.7Z" fill="#2c2c34" stroke="#474751" stroke-width="0.8"/><path d="M200.7,151.4L199.2,151.6L198.5,150.2L199.5,148.6L201.1,148.4L201.4,149.6Z" fill="#b8e653" stroke="#0c0e06" stroke-width="1"/></svg>
