<svg xmlns="http://www.w3.org/2000/svg" viewBox="0 0 400 300"><path d="M230.5,0L231,4.4L151.5,4.3L147.1,11.5L148,2.4L148.3,2.4L194,0.6L194.2,0L230.5,0Z" fill="#2c2c34" stroke="#474751" stroke-width="0.8"/><path d="M400,195.3L387.6,208.4L388.2,215.5L382.6,224.2L383.9,236.2L375.6,239.3L370.8,241.9L367.7,233L361.8,235.4L358.3,235L354.6,241L338.9,240.8L333.2,237.7L330.6,239.6L324.4,233.7L325.5,227.5L322.9,225.1L318.6,227.1L319.4,220.4L323.6,215.1L315.2,206.4L312.8,200.6L308.3,196.1L304.3,195.5L299.4,198.5L292.8,201.2L287.2,205.7L278.5,204L272.9,198.8L269.5,198.1L264.2,200.8L261,200.9L259.8,193.3L259.8,193.3L260.7,186.8L259,178.7L251.4,172.8L247.4,160.9L246.5,147.8L253.3,144L256.7,131.6L263.2,131.1L277.3,137L288.8,132.8L296.7,134.2L299.7,129.6L381.2,129.2L385.7,114.4L382.2,111.8L372.4,19.3L370.4,0L400,0Z" fill="#2c2c34" stroke="#474751" stroke-width="0.8"/><path d="M370.4,0L372.4,19.3L382.2,111.8L385.7,114.4L381.2,129.2L299.7,129.6L296.7,134.2L288.8,132.8L277.3,137L263.2,131.1L256.7,131.6L253.3,144L246.5,147.8L233,133.4L220.7,117.9L207.3,112.3L197.6,106L186.2,106.3L176.3,110.9L166.2,109.1L159.2,115.8L157.5,104.4L163.2,94L165.7,73.9L163.5,52.7L161,42L163,31.2L157.8,20.9L147.1,11.5L147.1,11.5L151.5,4.3L231,4.4L230.5,0L370.4,0Z" fill="#2c2c34" stroke="#474751" stroke-width="0.8"/><path d="M321.8,300L321.3,297.4L322.3,291.4L325.5,291.4L326.7,282.5L325.1,278.5L327.1,275.7L334.6,273.2L329.6,256.7L324.9,248.2L326.6,241.2L330.6,239.6L330.6,239.6L333.2,237.7L338.9,240.8L354.6,241L358.3,235L361.8,235.4L367.7,233L370.8,241.9L375.6,239.3L383.9,236.2L393.1,240.7L396.6,247.5L400,249.1L400,300Z" fill="#2c2c34" stroke="#474751" stroke-width="0.8"/><path d="M215.4,190.3L225.2,190.5L239.8,195.6L244.3,195.1L245.8,192.8L256.9,194.4L259.8,193.3L261,200.9L264.2,200.8L269.5,198.1L272.9,198.8L278.5,204L287.2,205.7L292.8,201.2L299.4,198.5L304.3,195.5L308.3,196.1L312.8,200.6L315.2,206.4L323.6,215.1L319.4,220.4L318.6,227.1L322.9,225.1L325.5,227.5L324.4,233.7L330.6,239.6L326.6,241.2L324.9,248.2L329.6,256.7L334.6,273.2L327.1,275.7L325.1,278.5L326.7,282.5L325.5,291.4L322.3,291.4L316.6,290.9L312.4,299.2L306.7,299.1L302.7,294.7L304,286.5L295.6,273.9L290.2,276.2L285.9,276.7L280.3,277.9L280.5,270.3L277.3,264.9L277.9,259L273.5,250.3L267.8,242.9L251.6,242.9L246.8,246.8L241.3,247.3L237.8,251.7L235.4,257.4L224.6,266.5L215.7,254.3L207.8,246.2L202.6,243.6L197.6,239.4L195.2,230.3L192.2,225.8L186.4,222.4L195.4,212.3L201.5,212.6L206.8,209.2L211.3,209.1L214.5,206.4L212.8,199.5L215,197.3Z" fill="#2c2c34" stroke="#474751" stroke-width="0.8"/><path d="M154.9,194.5L165.7,191.1L172.4,191.8L177.9,189.4L215.4,190.3L215,197.3L212.8,199.5L214.5,206.4L211.3,209.1L206.8,209.2L201.5,212.6L195.4,212.3L186.4,222.4L175.5,213.7L166.9,212.3L162.3,206.5L162.4,203.3L156.2,198.9Z" fill="#2c2c34" stroke="#474751" stroke-width="0.8"/><path d="M266.8,300L267.3,297.4L276.5,286.3L285.9,276.7L290.2,276.2L295.6,273.9L304,286.5L302.7,294.7L306.7,299.1L312.4,299.2L316.6,290.9L322.3,291.4L322.3,291.4L321.3,297.4L321.8,300L266.8,300Z" fill="#2c2c34" stroke="#474751" stroke-width="0.8"/><path d="M241.1,300L230.7,289.2L227.1,281.7L224.6,266.5L224.6,266.5L235.4,257.4L237.8,251.7L241.3,247.3L246.8,246.8L251.6,242.9L267.8,242.9L273.5,250.3L277.9,259L277.3,264.9L280.5,270.3L280.3,277.9L285.9,276.7L276.5,286.3L267.3,297.4L266.8,300L241.1,300Z" fill="#2c2c34" stroke="#474751" stroke-width="0.8"/><path d="M400,249.1L396.6,247.5L393.1,240.7L383.9,236.2L383.9,236.2L382.6,224.2L388.2,215.5L387.6,208.4L400,195.3L400,249.1Z" fill="#2c2c34" stroke="#474751" stroke-width="0.8"/><path d="M154.2,169.2L176.3,168.6L180.9,163.7L187.3,163.4L195.4,168.5L201.6,168.6L208.4,165.1L212.5,171.1L203.7,175.8L194.8,175.4L186.1,171L178.6,175.9L174.9,176L170,179L151.5,178.5Z" fill="#2c2c34" stroke="#474751" stroke-width="0.8"/><path d="M194.2,0L194,0.6L148.3,2.4L148,2.4L148.2,0L194.2,0Z" fill="#2c2c34" stroke="#474751" stroke-width="0.8"/><path d="M244.2,143.8L246.1,147.2L245.8,148.8L245.3,151.2L246.4,152.9L247.7,154L248.5,155L249.6,156.5L249.7,159.3L249.6,161.3L250.2,162.2L250.7,163.4L250.7,164.3L250.3,165.2L249,166.3L248.8,168.4L250.8,171L252,172.4L252,173.2L252.4,174.1L253.4,175.1L253.9,174.8L254.5,174L254.8,173.4L256.6,173.7L257.4,174L258.4,175.6L258.8,176.7L259.1,178.1L260.2,179.9L261.3,181.1L261.4,181.9L262.4,182.9L261.8,185.2L261.8,186.3L261.3,189.4L261.1,190.9L261.1,191.4L262.5,192.5L262.4,194.1L261,193.8L258.6,193.6L253.9,194.4L252.2,194.1L249,194.2L246.8,194.7L244,195.7L241.8,195.4L240.6,194.6L239.1,194.7L237.3,194.3L235.4,193.5L233.8,193.1L231.9,191.7L231,191.4L230.4,191.8L229.9,192.3L229.4,192.6L228.3,192.3L228,191.3L228.3,190.4L228.4,189.7L227.9,189.3L226.8,189.2L225,189.2L222.1,188.9L221.4,188.7L214.8,188.5L208,188.4L202.2,188.4L194.9,188.4L189.8,188.4L185,188.3L181.3,190.2L177.3,192.3L172,193.4L165.7,193L163.8,193.3L161.7,194.2L160.2,194.8L158.1,195.2L155.3,194.9L154.2,195.1L153.5,194.2L152.7,192.7L153.2,191.5L154.9,190.8L157.4,189.9L158.8,190.4L159.5,190.4L159.7,189.8L159.4,189.5L157.5,188.7L156.5,187.6L155.7,188.2L155,189.6L154.4,189.9L153.5,190.3L153.1,189.4L152.9,188.5L153.2,187.9L153.1,184.1L153.3,182.1L153.2,180.3L154.3,179.2L155.5,178.4L159.9,178.4L164.1,178.3L168,178.4L172,178.4L172.5,174.9L173.7,174.6L175.6,174.2L179.2,173.8L183.1,173.4L184,172.7L184.7,171.5L185.1,170.5L185.9,170L187,170.4L188.5,170.9L190,171.8L191.7,172.6L192.9,173.1L195.6,174.3L200.4,176.1L204.3,176.7L209,175.5L212.4,174.7L212.8,173.2L212.3,171.7L209.8,170.3L206.3,170.5L205.2,170.8L203.6,171.3L202.7,171.5L201.1,171.2L199,170L197.7,168.8L195.9,168.3L193.7,167.7L190.3,165.3L188.5,164.8L186.8,164.7L183.5,165.2L180.3,166.5L178.6,169.4L175.5,169.4L168.7,169.3L162.4,169.2L157.2,169.4L156.7,167.3L155.5,165.6L153.5,164.1L153.1,162.8L153.7,161.6L155.6,160.6L156.1,159.9L155.1,160L153.6,160.7L152.6,160.7L152.5,158.8L150.8,156.4L148.9,152.3L146.7,150.7L145,147.3L143.1,146.1L141.3,145.5L139.8,145.6L139.3,147.1L137.5,144.9L140,144.2L145.3,141.4L151.5,133.6L157.1,124.3L157.8,122.1L158.5,120.4L158.9,116.7L159.7,114.4L160.5,113.9L161.4,112.2L162.5,109.2L163.8,107.5L165.2,107.1L166.4,107.3L167.2,107.9L169.5,108.3L173.3,108.4L176.3,108L178.5,106.9L181.2,106.4L184.7,106.4L186.5,105.9L186.7,105L187.2,104.8L187.9,105.1L188.6,105L189.1,104.4L189.8,104.3L190.5,104.9L193.3,105L198.4,104.8L203.2,106.4L207.6,109.9L209.8,112.1L209.9,113.3L210.6,114.4L212,115.6L213.1,115.8L214.2,115L215.1,115.2L215.7,116L216.9,116.2L218.3,115.7L219.3,115.8L219.5,116.4L219.7,116.7L220.4,116.8L221.3,117.5L222.6,119.3L223.6,121.8L224.4,125L225.4,126.8L226.7,127.1L227.5,127.7L227.6,128.5L228,129L228.6,129.3L229.7,129.2L231,130.3L232.4,132.6L232.7,133.7L232.4,134.3L232.5,134.7L233.4,135.1L234.3,135.8L235,137L236.5,138.1L238.9,139L240.6,140.3L241.7,142.1L243.8,143.6Z" fill="#b8e653" stroke="#0c0e06" stroke-width="1"/></svg>
