<svg xmlns="http://www.w3.org/2000/svg" viewBox="0 0 300 300"><path fill="#e8e8ea" d="M242,137.1L245.9,144.2L245.2,147.5L244.2,152.4L246.5,156L249.1,158.3L250.9,160.5L253.1,163.4L253.4,169.2L253.1,173.5L254.4,175.4L255.5,177.9L255.4,179.8L254.6,181.6L252,184L251.6,188.4L255.7,193.7L258.2,196.6L258.2,198.2L259,200.1L261,202.2L262.2,201.6L263.4,199.9L264,198.8L267.7,199.3L269.4,199.8L271.5,203.3L272.4,205.6L273,208.5L275.3,212.1L277.4,214.7L277.7,216.3L279.7,218.4L278.5,223.2L278.6,225.6L277.4,232L277.1,235.1L277.1,236.2L280,238.4L279.7,241.7L276.8,241.1L271.9,240.7L262,242.4L258.5,241.7L252,242L247.4,242.9L241.5,245L236.9,244.4L234.5,242.8L231.3,242.9L227.7,242L223.7,240.4L220.2,239.6L216.3,236.6L214.6,236.1L213.2,236.9L212.1,237.9L211.1,238.5L209,238L208.2,236L209,234L209.1,232.6L208,231.8L205.8,231.5L202,231.5L195.9,230.8L194.5,230.5L180.8,230L166.7,229.9L154.6,229.9L139.4,229.8L128.8,229.8L118.7,229.7L111.1,233.7L102.8,237.9L91.7,240.2L78.7,239.3L74.6,240L70.4,241.9L67.2,243.2L62.8,244.1L57.1,243.4L54.7,243.8L53.3,241.9L51.6,238.7L52.7,236.4L56.2,234.9L61.4,233L64.3,234L65.8,234L66.1,232.8L65.6,232.1L61.7,230.5L59.6,228.2L57.9,229.5L56.4,232.3L55.1,233L53.3,233.9L52.4,232L51.9,230.2L52.7,228.7L52.4,220.9L52.9,216.8L52.6,213.1L55,210.7L57.4,209.2L66.6,209L75.2,208.9L83.4,209L91.8,209.1L92.7,201.8L95.3,201.2L99.3,200.4L106.7,199.5L114.9,198.7L116.8,197.3L118.1,194.8L119,192.7L120.7,191.7L123,192.4L126,193.6L129.2,195.4L132.7,197L135.2,198L140.9,200.6L150.8,204.2L158.9,205.6L168.8,203L175.8,201.3L176.7,198.2L175.6,195.1L170.3,192.3L163.2,192.6L160.9,193.3L157.5,194.3L155.6,194.6L152.2,194L147.9,191.5L145.2,189.1L141.4,188L137,186.8L129.8,181.8L126,180.9L122.5,180.6L115.7,181.6L109,184.3L105.5,190.4L99,190.3L84.8,190.1L71.7,189.9L61.1,190.4L60,185.9L57.4,182.4L53.3,179.4L52.4,176.6L53.8,174.1L57.7,172.1L58.6,170.7L56.7,170.8L53.5,172.2L51.3,172.2L51.2,168.3L47.7,163.3L43.7,154.9L39.2,151.4L35.5,144.5L31.6,141.8L27.9,140.6L24.9,140.8L23.8,144L20,139.5L25.2,137.9L36.3,132.2L49.2,115.8L60.8,96.6L62.1,92L63.7,88.5L64.6,80.6L66.2,75.9L67.8,75L69.7,71.4L72,65.1L74.8,61.5L77.7,60.8L80.1,61.2L81.8,62.5L86.5,63.2L94.5,63.5L100.8,62.6L105.2,60.4L111,59.3L118.1,59.2L121.9,58.3L122.4,56.5L123.3,55.9L124.8,56.7L126.2,56.4L127.4,55.1L128.8,55L130.1,56.1L136.1,56.5L146.7,56L156.6,59.4L165.7,66.5L170.5,71.2L170.6,73.6L172.1,76L174.9,78.4L177.3,78.8L179.6,77.3L181.4,77.5L182.6,79.3L185.2,79.7L188.1,78.6L190.2,79L190.5,80L191,80.6L192.4,80.9L194.3,82.3L196.9,86.1L199.1,91.3L200.7,98L202.9,101.7L205.6,102.3L207.1,103.7L207.4,105.3L208.2,106.4L209.6,107L211.8,106.6L214.6,108.9L217.5,113.9L217.9,116.1L217.5,117.3L217.6,118.1L219.5,119L221.3,120.6L222.8,123L226,125.2L230.9,127L234.4,129.8L236.6,133.6L241.1,136.7Z"/></svg>
