<svg xmlns="http://www.w3.org/2000/svg" viewBox="0 0 300 300"><path fill="#e8e8ea" d="M62.3,280L62.4,278.5L62.1,277.7L60.3,275.3L57,271L54.4,267.8L51.8,264.4L51.8,261.7L51.8,253.8L51.8,237.9L51.7,221.9L51.6,206L51.6,198.1L51.6,194.8L51.8,194.3L54.8,191.4L58.7,187.5L63.9,180.1L66.7,176.1L69,172.8L69.6,171.8L71.6,169.8L75.4,168.6L77.9,168.4L86.1,166.9L87.3,166.2L88.1,165.5L88.7,164L90.3,161.7L92.4,160.2L96.4,158.2L100.2,156.5L101.1,156.2L105.7,155.1L106.8,154.7L108.7,154.4L109.4,154.4L115.9,154.7L120.9,155L126.1,155.3L126.7,155.1L130.3,151.1L136.1,144.8L139.7,140.8L145.4,134.5L149.8,130L154.7,125L159.4,120.4L165,115L168.6,111.5L174.1,106.1L179.4,101L184.1,96.5L186.8,92.2L189.6,88L192.6,83.5L196.1,78L199.4,72.9L202.1,68.7L202.1,66.5L202.1,61.9L202.1,58.7L202.1,49.8L202.1,44.5L202.1,39.3L202.1,34L204.5,33.8L210.6,32.4L215.5,30.3L224.3,28.8L231,25L232.2,23.1L234.2,20.8L237.2,20L244.7,22.7L245.9,22.9L245.4,24.6L245.2,26.3L243.7,29.2L242.7,32.5L243.4,37.5L243.7,45.6L243.5,46.7L243.1,47.9L242.9,48.8L242,49.1L241.7,49.6L242.3,49.8L244.6,49L244.6,48L244.8,47.5L246.7,48.6L248.1,49L248.4,50.1L248.4,50.7L246.2,50.4L245,49.9L241.8,50.8L239.8,51.7L239.2,53.3L238.7,59.6L238,63.7L237.8,69.1L235.2,72.7L234.2,75.2L230.4,80.3L228.2,84.6L227.6,86.7L224.2,92.6L219.4,97.1L217.7,102.9L216,106.5L214.1,109.8L209.9,115.7L207.8,119.7L205.1,126.7L204.3,131.2L196.7,144.1L188.9,154.3L184,163L175.2,173L163.3,185.9L147.6,201.2L143.4,204.4L126.3,213.8L115.2,221.7L109.6,227.1L103.6,231.8L98.9,236.2L84.6,251.3L83.1,252.7L81.7,254.1L79.9,256.6L78.7,257.6L75.3,261.9L73.2,264.2L70.7,266.4L69.8,267.9L69,269.7L68.2,270.7L66.1,275L64.2,277.8Z"/></svg>
