<svg xmlns="http://www.w3.org/2000/svg" viewBox="0 0 400 300"><path d="M94,300L92,289.8L88.9,285.5L87.1,283L78.2,281.3L73.1,278.5L67.3,277L63.6,275.4L59.9,273.1L54.9,261.5L49.7,256.4L47.9,251.1L48.8,246.4L47.1,238L50.9,237.6L54.2,234.3L57.7,229.5L60,227.6L59.9,224.7L57.9,222.6L57.4,219L60,217.9L60.5,212.5L56.9,207.4L60.1,206.3L70.1,206.4L88.6,205.7L88.6,205.7L90.1,206.7L123,225.2L123.7,230.5L136.7,239.6L132.5,250.8L133,256L138.8,259.4L139.1,261.7L136.6,267.3L137.1,270.1L136.6,274.4L139.7,280.2L143.5,289.3L146.8,291.3L139.6,296.6L130.3,300L94,300Z" fill="#2c2c34" stroke="#474751" stroke-width="0.8"/><path d="M7.2,300L5.8,299.8L2,300L1.5,300L1.5,300L1,297.1L0,297.1L0,151.7L0,151.7L2.4,150.7L6,152.6L8.9,152.3L10.3,150.1L13.7,149.3L20.5,150.3L26.3,150.5L29.3,149.5L34.8,157L38.9,158.1L41.3,156.6L45.5,157.2L50.6,155.3L52.7,159.2L60.7,165.2L60.2,175.9L63.8,177.1L60.9,180.3L57.4,182.7L53.9,187.5L52,191.7L51.5,199L49.4,202.4L49.3,209.3L46.7,211.8L46.4,217.2L45.1,217.9L44.3,222.9L46.6,227L47.1,238L47.1,238L48.8,246.4L47.9,251.1L49.7,256.4L54.9,261.5L59.9,273.1L56.3,272.2L44.1,273.7L41.6,274.8L39.1,280.7L41.1,284.7L39.5,295.6L39,300L7.2,300Z" fill="#2c2c34" stroke="#474751" stroke-width="0.8"/><path d="M136.7,239.6L123.7,230.5L123,225.2L90.1,206.7L88.6,205.7L88.5,196.1L91.1,192.4L95.6,186.4L98.9,179.8L94.9,169.4L93.8,164.8L89.5,158.5L95.1,153.1L101.2,147L106,148.6L106,153.7L109.1,156.7L115.4,156.7L126.9,164.4L129.7,164.5L131.9,164.3L133.9,165.3L139.9,166L142.6,162.2L150.9,158.4L154.6,161.5L160.8,161.5L152.8,171.8L152.9,204.9L158.3,212.4L152,216L149.7,219.8L146.3,220.5L145,226.9L142.1,230.5L140.4,236.6Z" fill="#2c2c34" stroke="#474751" stroke-width="0.8"/><path d="M0,11.7L7.8,11.7L7.8,0L117.9,0L117.9,0L118.4,1.8L116.4,3.6L117.7,13.6L121.1,25.1L124.5,27.4L129.5,31L124.9,36.4L118.2,38L115.3,40.9L114.5,47.2L110.5,61L111.5,64.8L110.1,72.8L106.4,82L100.9,86.6L97,93.7L96.1,97.4L91.8,100L89.1,109.7L89.2,118L89.1,110.8L87.9,110.6L88,106L86.9,102.9L82.3,99.2L81.2,92.5L82.3,85.7L78.1,85.1L77.4,87.1L72,87.6L74.2,90.3L74.9,95.9L70,100.9L65.4,107.6L60.7,108.5L53.1,103.2L49.7,105.1L48.7,107.8L44.1,109.5L43.8,111.4L34.7,111.4L33.5,109.5L26.9,109.2L23.7,110.8L21.2,110L16.5,104.6L14.9,102.1L8.4,103.3L5.9,107.6L3.5,115.8L0.4,117.5L0,117.7L0,11.7ZM0,119.9L3.8,122.1L3.8,122.1L0,119.9L0,119.9Z" fill="#2c2c34" stroke="#474751" stroke-width="0.8"/><path d="M0,119.9L3.8,122.1L8.8,125.8L8.9,128.8L15,133.6L18.8,137.5L21.1,143L27.9,146.6L29.3,149.5L29.3,149.5L26.3,150.5L20.5,150.3L13.7,149.3L10.3,150.1L8.9,152.3L6,152.6L2.4,150.7L0,151.7L0,119.9Z" fill="#2c2c34" stroke="#474751" stroke-width="0.8"/><path d="M0,297.1L1,297.1L1.5,300L0,300ZM2,300L5.8,299.8L7.2,300L2,300ZM39,300L39.5,295.6L41.1,284.7L39.1,280.7L41.6,274.8L44.1,273.7L56.3,272.2L59.9,273.1L59.9,273.1L63.6,275.4L67.3,277L73.1,278.5L78.2,281.3L82.5,285.4L84.8,293.2L83.3,295.7L82.2,300L39,300Z" fill="#2c2c34" stroke="#474751" stroke-width="0.8"/><path d="M82.2,300L83.3,295.7L84.8,293.2L82.5,285.4L78.2,281.3L78.2,281.3L87.1,283L88.9,285.5L92,289.8L94,300L82.2,300Z" fill="#2c2c34" stroke="#474751" stroke-width="0.8"/><path d="M130.3,300L139.6,296.6L146.8,291.3L148.3,295.4L148.1,300L130.3,300Z" fill="#2c2c34" stroke="#474751" stroke-width="0.8"/><path d="M57.4,219L57.9,222.6L59.9,224.7L60,227.6L57.7,229.5L54.2,234.3L50.9,237.6L47.1,238L46.6,227L44.3,222.9L49.8,223.6L52.6,218.4Z" fill="#2c2c34" stroke="#474751" stroke-width="0.8"/><path d="M316.3,0L315.2,0.9L311.8,7.6L307.7,7.1L305.8,9.4L304.3,14.3L305.4,20.7L304.6,21.9L300.4,21.8L294.7,25.4L293.8,30.1L291.8,32.1L286.1,32L282.6,34.4L282.6,38.3L278.2,40.9L273.2,40L267.1,43.2L263,43.8L260,37.1L252.9,21.4L280.1,11.7L283.8,0L316.3,0Z" fill="#2c2c34" stroke="#474751" stroke-width="0.8"/><path d="M111.5,64.8L110.5,61L114.5,47.2L115.3,40.9L118.2,38L124.9,36.4L129.5,31L134.8,42L137.3,50.7L142.2,55.2L154.6,64.1L159.7,69.4L164.6,74.8L167.4,78L171.9,80.9L169.2,83.1L165.3,82.3L162.2,79.3L158.5,73.8L154.4,70.8L152.1,67.6L144.2,63.9L137.9,63.7L135.7,61.8L130.4,64L124.9,59.7L122.1,66.7Z" fill="#2c2c34" stroke="#474751" stroke-width="0.8"/><path d="M252.9,21.4L260,37.1L263,43.8L256.4,46.3L254.6,50.5L254.4,53.7L245.4,57.7L230.9,62.1L222.7,68.7L218.7,69.2L216,68.7L210.7,72.5L204.9,74.3L197.3,74.8L195,75.3L193,77.8L190.6,78.5L189.2,80.9L184.7,80.6L181.8,81.9L175.6,81.4L173.2,76L173.5,70.9L172,68.1L170.2,61.2L167.6,57.3L169.4,56.9L168.5,52.6L169.6,50.7L169.2,46.6L173.1,43.6L172.2,39.6L174.6,34.9L178.4,37.4L180.8,36.6L191.3,36.3L192.9,37.3L201.7,38.2L205.2,37.8L207.5,40.9L211.7,39.3L218.2,29.3L226.7,25Z" fill="#2c2c34" stroke="#474751" stroke-width="0.8"/><path d="M283.8,0L280.1,11.7L252.9,21.4L226.7,25L218.2,29.3L211.7,39.3L207.5,40.9L205.2,37.8L201.7,38.2L192.9,37.3L191.3,36.3L180.8,36.6L178.4,37.4L174.6,34.9L172.2,39.6L173.1,43.6L169.2,46.6L168,42.6L165.3,39.7L164.5,35.9L159.9,32.5L155,24.5L152.4,16.7L146.2,10L142.1,8.5L136.6,0L283.8,0Z" fill="#2c2c34" stroke="#474751" stroke-width="0.8"/><path d="M7.8,0L7.8,11.7L0,11.7L0,0Z" fill="#2c2c34" stroke="#474751" stroke-width="0.8"/><path d="M214.6,124.2L189,151.6L177.2,152L169.1,158.5L163.3,158.6L160.8,161.5L154.6,161.5L150.9,158.4L142.6,162.2L139.9,166L133.9,165.3L131.9,164.3L129.7,164.5L126.9,164.4L115.4,156.7L109.1,156.7L106,153.7L106,148.6L101.2,147L95.9,137.1L91.7,135L90.1,131.3L85.5,126.9L80,126.2L83.1,121L87.9,120.8L89.2,118L89.1,109.7L91.8,100L96.1,97.4L97,93.7L100.9,86.6L106.4,82L110.1,72.8L111.5,64.8L122.1,66.7L124.9,59.7L130.4,64L135.7,61.8L137.9,63.7L144.2,63.9L152.1,67.6L154.4,70.8L158.5,73.8L162.2,79.3L165.3,82.3L162.1,86.4L159,90.8L159.7,93.3L159.9,96.1L164.9,96.3L167.1,95.6L169.1,97.3L167.2,100.6L170.5,105.6L173.9,110.1L177.3,113.4L207,124.3Z" fill="#2c2c34" stroke="#474751" stroke-width="0.8"/><path d="M165.3,82.3L169.2,83.1L171.9,80.9L174,83.7L173.8,87.6L168.6,89.8L172.5,92.3L169.1,97.3L167.1,95.6L164.9,96.3L159.9,96.1L159.7,93.3L159,90.8L162.1,86.4Z" fill="#2c2c34" stroke="#474751" stroke-width="0.8"/><path d="M225.2,92.8L225.1,93L225.1,96.8L225.1,106.1L225.1,110.9L221,116.6L214.6,124.2L207,124.3L177.3,113.4L173.9,110.1L170.5,105.6L167.2,100.6L169.1,97.3L172.5,92.3L175.5,94L177.2,97.9L181.3,101.7L185.8,101.8L194.4,99.4L204.2,98.3L212.3,95.4L216.8,94.8L220,93.1Z" fill="#2c2c34" stroke="#474751" stroke-width="0.8"/><path d="M88.6,205.7L70.1,206.4L60.1,206.3L56.9,207.4L51.5,210.2L49.3,209.3L49.4,202.4L51.5,199L52,191.7L53.9,187.5L57.4,182.7L60.9,180.3L63.8,177.1L60.2,175.9L60.7,165.2L64.5,162.7L70.2,164.8L77.5,162.7L83.9,162.7L89.5,158.5L93.8,164.8L94.9,169.4L98.9,179.8L95.6,186.4L91.1,192.4L88.5,196.1Z" fill="#2c2c34" stroke="#474751" stroke-width="0.8"/><path d="M56.9,207.4L60.5,212.5L60,217.9L57.4,219L52.6,218.4L49.8,223.6L44.3,222.9L45.1,217.9L46.4,217.2L46.7,211.8L49.3,209.3L51.5,210.2Z" fill="#2c2c34" stroke="#474751" stroke-width="0.8"/><path d="M0,117.7L0.4,117.5L3.5,115.8L5.9,107.6L8.4,103.3L14.9,102.1L16.5,104.6L21.2,110L23.7,110.8L26.9,109.2L33.5,109.5L34.7,111.4L43.8,111.4L44.1,109.5L48.7,107.8L49.7,105.1L53.1,103.2L60.7,108.5L65.4,107.6L70,100.9L74.9,95.9L74.2,90.3L72,87.6L77.4,87.1L78.1,85.1L82.3,85.7L81.2,92.5L82.3,99.2L86.9,102.9L88,106L87.9,110.6L89.1,110.8L89.2,118L87.9,120.8L83.1,121L80,126.2L85.5,126.9L90.1,131.3L91.7,135L95.9,137.1L101.2,147L95.1,153.1L89.5,158.5L83.9,162.7L77.5,162.7L70.2,164.8L64.5,162.7L60.7,165.2L60.7,165.2L52.7,159.2L50.6,155.3L45.5,157.2L41.3,156.6L38.9,158.1L34.8,157L29.3,149.5L27.9,146.6L21.1,143L18.8,137.5L15,133.6L8.9,128.8L8.8,125.8L3.8,122.1L0,119.9L0,117.7Z" fill="#2c2c34" stroke="#474751" stroke-width="0.8"/><path d="M157.8,212.5L157.9,211.8L157.7,211.4L156.9,210.3L155.3,208.2L154,206.6L152.8,205L152.8,203.7L152.8,199.9L152.8,192.2L152.7,184.6L152.7,176.9L152.7,173.1L152.7,171.5L152.8,171.3L154.2,169.9L156.1,168L158.6,164.5L159.9,162.6L161,161L161.3,160.5L162.3,159.5L164.1,158.9L165.3,158.8L169.3,158.1L169.9,157.8L170.2,157.5L170.6,156.7L171.3,155.6L172.3,154.9L174.2,153.9L176,153.1L176.5,153L178.7,152.5L179.2,152.3L180.2,152.1L180.5,152.1L183.6,152.3L186,152.4L188.5,152.6L188.8,152.5L190.5,150.5L193.3,147.5L195.1,145.6L197.8,142.6L199.9,140.4L202.3,138L204.5,135.8L207.2,133.2L208.9,131.5L211.6,128.9L214.1,126.4L216.4,124.3L217.7,122.2L219,120.2L220.5,118L222.2,115.4L223.8,112.9L225.1,110.9L225.1,109.9L225.1,107.6L225.1,106.1L225.1,101.8L225.1,99.3L225.1,96.8L225.1,94.2L226.2,94.1L229.2,93.5L231.5,92.4L235.7,91.7L239,89.9L239.5,89L240.5,87.9L241.9,87.5L245.5,88.8L246.1,88.9L245.9,89.7L245.8,90.5L245,91.9L244.5,93.5L244.9,95.9L245.1,99.8L245,100.4L244.7,100.9L244.6,101.4L244.3,101.5L244.1,101.8L244.4,101.8L245.5,101.4L245.5,101L245.6,100.7L246.5,101.3L247.2,101.5L247.3,102L247.3,102.3L246.2,102.1L245.7,101.9L244.1,102.3L243.2,102.8L242.9,103.5L242.7,106.6L242.3,108.5L242.2,111.1L241,112.8L240.5,114.1L238.6,116.5L237.6,118.6L237.3,119.6L235.7,122.4L233.4,124.6L232.6,127.4L231.7,129.1L230.8,130.7L228.8,133.5L227.8,135.4L226.5,138.8L226.1,140.9L222.5,147.1L218.7,152.1L216.3,156.2L212.1,161.1L206.4,167.3L198.9,174.6L196.8,176.1L188.6,180.7L183.3,184.5L180.6,187.1L177.7,189.3L175.4,191.5L168.6,198.7L167.8,199.4L167.2,200L166.3,201.2L165.7,201.7L164.1,203.8L163.1,204.9L161.9,205.9L161.4,206.7L161.1,207.6L160.7,208L159.7,210.1L158.8,211.4Z" fill="#b8e653" stroke="#0c0e06" stroke-width="1"/></svg>
