<svg xmlns="http://www.w3.org/2000/svg" viewBox="0 0 400 300"><path d="M0,205.5L0.4,204.2L17.8,197.2L16.5,192.1L0,190.4L0,151.8L0,151.8L5.1,152.7L24.6,158.8L31.6,153L49.2,149.2L76.5,140L85.4,130.7L82.2,123.8L94.9,122.7L100.6,128.3L97.4,139.1L105.8,142.8L111.4,154.2L104.6,162.8L100.7,183.6L107,196L108.7,207.4L123.8,218.8L135.8,220L138.5,215.2L146.2,214.2L157.3,209.9L165.2,203.4L178.8,205.4L184.7,204.6L197.9,206.6L200.1,201.6L196.1,196.7L198.6,189.6L208.4,191.8L219.9,189.3L233.9,194.5L244.6,199.5L252.1,192.9L257.6,193.9L260.9,200.8L272.6,199.1L282,189.8L289.5,171.7L303.9,149.4L312.3,148.2L318.4,161.8L332,204.5L345.1,208.6L345.7,225.4L327.4,245.6L335,252.9L378.2,256.7L379.1,281.3L397.6,265.2L400,265.9L400,300L0,300Z" fill="#2c2c34" stroke="#474751" stroke-width="0.8"/><path d="M0,190.4L16.5,192.1L17.8,197.2L0.4,204.2L0,205.5L0,190.4ZM37,0L41.8,6.7L61.3,8.6L79.8,20.8L83.8,40.6L96.4,40L106,45.8L86.7,60.3L84.6,69.3L92.9,78.5L86.8,83.1L71.8,87L72.2,98.4L65.6,105.1L82.2,123.8L82.2,123.8L85.4,130.7L76.5,140L49.2,149.2L31.6,153L24.6,158.8L5.1,152.7L0,151.8L0,0Z" fill="#2c2c34" stroke="#474751" stroke-width="0.8"/><path d="M184.7,204.6L178.8,205.4L165.2,203.4L157.3,209.9L146.2,214.2L138.5,215.2L135.8,220L123.8,218.8L108.7,207.4L107,196L100.7,183.6L104.6,162.8L111.4,154.2L105.8,142.8L97.4,139.1L100.6,128.3L94.9,122.7L82.2,123.8L65.6,105.1L72.2,98.4L71.8,87L86.8,83.1L92.9,78.5L84.6,69.3L86.7,60.3L106,45.8L122.1,54.9L137.2,71L137.9,83.6L147.1,84.2L160.2,96.2L169.8,104.8L165.9,126.9L151.1,133.3L152.4,139L147.9,151.7L158.7,169.5L166.5,169.5L169.8,183.3Z" fill="#2c2c34" stroke="#474751" stroke-width="0.8"/><path d="M303.9,149.4L289.5,171.7L282,189.8L272.6,199.1L260.9,200.8L257.6,193.9L252.1,192.9L244.6,199.5L233.9,194.5L240.2,184.2L242.3,173L246.6,162.5L237,148L235.1,131.2L247.7,110.1L256.1,112.8L274,118.6L299.9,139.3Z" fill="#2c2c34" stroke="#474751" stroke-width="0.8"/><path d="M77.4,0L77.3,2.7L56.8,5.4L52.4,3.2L55.8,0L77.4,0Z" fill="#2c2c34" stroke="#474751" stroke-width="0.8"/><path d="M242.9,119.9L240.9,121.6L238.7,124.1L235.7,128.3L235.9,129.7L235.2,130.8L235,132.7L235.2,134.8L235.9,136.2L236.3,138.9L235.8,141.3L235.9,142.7L236.6,144.9L237.1,147.3L237,148.2L237.7,149L238.4,149.8L238.1,151.9L240.5,155.6L241.9,157.3L243.9,158.8L244.7,160.4L245.9,162.3L246.6,162.5L246.9,163.3L246.6,164.7L246.5,166.7L245.2,169L242.1,173.3L241.7,174.3L242.5,177.8L242.1,180.7L241.9,182.1L240.4,184.7L236.9,190.8L234.9,192L233.7,193.7L232.9,193.7L232,193.9L231.6,194.1L230.6,194.1L229.7,193.3L229.5,192.4L229.1,191.3L228,191L225.9,191.4L225.3,191.1L224.1,190L223.1,188.7L222.8,187.5L222.1,187.6L220.6,188.7L219.5,189L218.7,188.7L217.7,188.7L215.3,189.9L213.9,190.2L212.9,191.3L206.2,191.9L204.5,192.2L200.5,190.1L199.4,189.5L198.9,189.4L198.5,189.5L198,190L197.3,192.5L196.8,193.2L195.7,193.8L194.7,194.8L194.5,195.8L196.1,196.3L197.4,198.2L198.8,199.8L200,201.2L199.8,202.7L199.6,204.9L198.7,205.6L197.4,206L192.3,204.9L188.4,204L186.8,203.8L186.1,203.6L185.1,202.7L184.1,202L182.5,201.7L180.6,201.2L179.3,199.3L177.8,196.6L177.4,195.4L176.2,194.2L175.1,192.5L174.8,190.9L173.9,189.6L173.5,189.1L172.9,187.2L172.7,186.5L172.4,186.4L172,185.9L171,183.9L170.8,183.3L170.5,183.2L169.4,181.7L168.7,181.3L168.3,180.5L168.4,178.5L167.9,177.6L167.8,175.7L167.8,175L167.3,174.2L166.6,173.7L166.5,172.3L166.4,169L166,168.4L163,168.5L162.8,168.8L161.4,169L160,169L158.7,168.6L157.7,168L157.4,167.3L157.6,165L155.8,163.3L153.1,161.1L152.3,158.4L151.2,156.7L148.2,153.1L147.6,150.7L147.6,149L148.8,147.4L150.3,144.6L150.8,142.1L151.3,140.8L152,139.1L152.7,136.8L152.2,135.4L151.3,134.1L151.1,133.1L151.9,131.6L152.8,130.6L153.8,130.4L155,129.8L156.1,128.9L157.6,128.7L159.5,128.6L163.4,128.6L165.3,128.2L165.9,127.5L165.8,126.1L166.9,124.8L167.9,124.3L168.3,123.9L168.4,123.4L168.1,123L167.7,122.7L166.6,122.6L165.7,120.4L166.3,119.5L167.2,117.8L167.3,116.8L168.7,115.2L169,115.7L170,112.9L170.1,110.6L170.8,108.3L172.1,105.6L174.2,104.3L186.5,105.7L192.1,106.9L199.4,109.2L200.4,111.5L200.4,109.2L200.1,106.8L202.1,105.1L206.5,104.5L213.1,105.3L218.7,104.3L226.4,104.4L238.1,106.3L243.2,107.7L245.4,108.9L245.8,111L245.6,113.7L244.7,116.4Z" fill="#b8e653" stroke="#0c0e06" stroke-width="1"/></svg>
