<svg xmlns="http://www.w3.org/2000/svg" viewBox="0 0 300 300"><path fill="#e8e8ea" d="M266.6,59.8L261.5,64.3L255.8,70.6L248.2,81.5L248.6,84.9L246.8,87.7L246.4,92.6L247.1,98.1L248.9,101.7L249.8,108.5L248.4,114.7L248.9,118.2L250.4,123.9L251.8,129.9L251.6,132.4L253.4,134.3L255.2,136.3L254.5,141.6L260.6,151.2L264.2,155.4L269.3,159.5L271.3,163.5L274.3,168.3L276.1,168.8L277,170.8L276.1,174.5L275.8,179.6L272.5,185.5L264.6,196.4L263.7,199L265.7,208L264.6,215.4L264.2,219L260.3,225.5L251.3,241.3L246.2,244.2L243,248.7L241,248.7L238.7,249.2L237.8,249.7L235.1,249.7L232.9,247.7L232.4,245.3L231.3,242.6L228.6,241.7L223.2,242.7L221.6,242L218.5,239.1L216,235.8L215.3,232.8L213.5,233.1L209.5,235.8L206.8,236.5L204.8,235.7L202.3,235.9L196,238.9L192.4,239.6L189.9,242.6L172.8,244L168.3,244.7L158.2,239.5L155.5,237.9L154.2,237.6L153,237.9L151.9,239.1L150.1,245.6L148.8,247.3L146.1,248.9L143.4,251.5L142.9,254L147,255.4L150.3,260.2L153.9,264.2L156.9,267.7L156.4,271.6L156,277.2L153.7,279.1L150.3,280L137.3,277.3L127.4,274.9L123.1,274.4L121.3,273.8L118.8,271.8L116.4,269.8L112.3,269.1L107.4,267.8L104,263L100.2,256L99.1,252.9L96.1,249.8L93.2,245.5L92.5,241.6L90.3,238.1L89.2,236.9L87.6,232L87.1,230.3L86.5,230.1L85.3,228.5L82.9,223.4L82.4,222.1L81.5,221.7L78.8,218L76.8,216.8L75.9,215L76.1,209.9L75,207.4L74.5,202.7L74.5,200.9L73.4,198.7L71.6,197.4L71.4,193.9L70.9,185.5L70,184L62.4,184.1L61.7,185L58.3,185.4L54.7,185.5L51.4,184.5L48.7,182.9L48,181.1L48.4,175.2L43.9,170.8L37,165.3L35,158.4L32.3,154L24.6,144.9L23,138.7L23,134.2L26,130.2L29.8,123.1L31.1,116.6L32.5,113.2L34.3,108.9L36.1,103.1L34.7,99.6L32.5,96.2L31.8,93.7L34.1,89.8L36.3,87.2L38.8,86.8L41.9,85.2L44.6,82.9L48.4,82.3L53.4,82.1L63.3,82.1L68.2,81.1L69.8,79.3L69.6,75.7L72.3,72.5L74.8,71.1L75.9,70.1L76.1,68.9L75.4,67.8L74.3,67.1L71.6,66.9L69.1,61.3L70.7,58.9L73,54.4L73.4,51.9L76.8,47.9L77.7,49.2L80.2,41.9L80.6,36.1L82.4,30.3L85.6,23.4L91,20L122.4,23.5L136.8,26.8L155.3,32.4L158,38.4L158,32.4L157.1,26.3L162.3,22L173.5,20.4L190.4,22.5L204.8,20L224.3,20.3L254.3,25.2L267.5,28.6L273.1,31.7L274,37.1L273.6,44.1L271.3,50.9Z"/></svg>
