<svg xmlns="http://www.w3.org/2000/svg" viewBox="0 0 300 300"><path fill="#e8e8ea" d="M249.8,236L244.3,241.6L240.3,245.6L239.6,246.2L238.4,246.9L234.5,247L230.6,246.5L226.9,244L223.2,245.9L220.8,246.5L219.4,246.8L216.1,247.1L211.5,248.1L209.3,249.4L208.2,250.4L207.3,252.3L206.8,252.5L205.9,252.2L204.8,251.5L202.2,250.4L201,248L199.8,246.6L198.9,245.9L194.9,248.2L193.1,248.8L191.5,248.7L188.6,247.4L185.4,246.3L183.8,246.3L181.4,247.7L178.6,249.8L177.1,251.9L176.5,253.2L176,252.2L175.5,251.2L174.5,250L173.2,249.6L172,249.8L170.6,250L169.9,249.3L169.8,247.7L169.4,246.2L168.7,245.1L166.7,243.9L161.4,241.7L157.4,237.1L155.3,234.9L153.8,233.6L151.7,229.9L149.3,227.5L146.3,226.3L144.4,226.9L142.5,229.5L138.7,232L137,232.1L134.8,230.8L132,229.8L127.1,229.4L125,230.5L122.4,232.5L120.1,233.6L118.6,233.8L117.4,233.3L115.9,233L114.6,233L111.9,231.3L110.6,230L109.6,228.8L108.1,227.9L106.4,227.2L105.1,226.1L104.5,224.7L103.5,223L102.2,221.4L98.2,218.5L96.9,216.9L96.1,215.2L94.5,213.4L92.7,211L92.1,207.4L92,204.6L91.7,203.2L91,201.9L90,200.8L88.7,199.5L85.3,197.7L81.9,195.6L80.3,194.3L77.2,193.9L75.3,192.6L73.8,190L73.1,187.8L71.6,186.2L70.9,185L70.5,183.6L71.8,179.3L70,177.8L67.3,175.9L65.4,173.8L64.2,171.8L60.7,169.2L53.2,165.3L48.9,162.9L46.4,160.7L44.4,158.5L44.2,157.6L45.5,155.4L45.8,153.7L44.7,151.7L40.1,148L36.5,143.9L33.8,142.7L27.2,141.5L25.3,141.1L23.4,140.3L21.4,138.4L20.8,136.3L21.7,132.8L21.1,131.7L20,131.5L20.3,130.7L21.5,129L23.5,127.9L29,126.2L29.3,125.5L29.4,123.4L29.8,122.3L31.7,119.3L32,118.1L32,115.5L32.3,114.3L32.9,113.5L34.3,111.9L34.8,111L35.1,109L34.9,105.2L35.7,103.6L39.1,100.1L40,98.5L40.3,97.1L40.3,95.7L40.5,94.2L41.5,92.9L42.4,92.4L44.9,92L46.6,92.3L58.6,89.8L60,90.2L60.7,91.6L60.6,93.9L60.8,95L61.4,95.8L63.3,96.9L64.6,98.7L65.4,99.4L67.3,100.6L76.2,111.1L78.8,112.1L81.2,111.7L86,109.5L88.4,109L105.4,109.6L107.3,109.3L107.4,109.3L110,114.6L111.2,115.8L129.8,115.8L129.5,114.3L129.7,112.7L131.9,110.5L133,109.5L133.5,109.1L136.3,107.5L139.1,106.5L144.5,105.3L146.5,103.4L147.6,101.7L147.6,98.3L148.4,97.7L149.6,96.9L155.9,93.9L156.9,93.2L168,100.3L174.1,105.9L174.5,106.2L174.8,106.3L175.1,106.1L175.5,105.8L175.9,105.7L176.1,105.6L178.8,105.5L183.8,105.3L185.5,104.6L195.5,94.6L198.1,91.4L198.8,90.7L200.2,88.4L201.7,84.5L202.1,84.1L213.1,74.7L213.4,73.9L213.5,73.3L211.9,70.2L211.5,68.6L211.5,66.1L211.7,62.2L211.7,59.8L211.7,59.5L211.5,59.1L211.4,59L205.3,52L220.8,51.9L220.8,51.4L220.8,51.1L220.8,50.8L220.5,49.9L220.3,48.9L220.3,48.5L220.3,48.2L220.4,47.7L220.4,47.4L220.4,47.2L220.4,47.1L220.4,47L220.5,46.8L231.6,47L231.5,48.9L230.2,53.6L230.2,56.3L229.8,59.5L229.8,59.8L229.5,60.4L229.2,60.9L228.9,61.2L228.8,61.3L228.7,61.6L228.7,61.9L231,79.6L230.9,80.1L230.8,80.3L230.2,81.5L230.1,81.8L230,82.1L230.3,82.3L235.4,84.2L235.6,84.3L235.9,84.5L237.7,86.7L247.8,95.1L248.2,95.5L249.2,98.1L249.4,98.5L249.4,99.2L249.4,99.7L249.1,101.2L249.2,101.9L249.4,102.4L249.5,103L249.5,103.1L249.4,103.2L249.4,103.5L247.9,106.5L247.4,108.7L247.3,110.5L247.3,111.5L247.5,112.2L247.6,112.4L247.7,112.5L247.8,112.5L247.8,112.6L252.1,112.6L252.2,112.6L252.1,113.6L252.3,118.3L252.5,122.5L252.7,129.4L252.7,131.2L252.6,133.4L252.1,134.3L250.8,135.6L249.3,136.7L245.3,137L242,137L239.8,136.7L236.6,136.6L233.5,136.8L232.4,137.8L230.8,141.2L228.5,146.2L227.3,148.3L227,149.5L227.3,150.3L228.9,151.3L232.3,152.8L236.1,153.7L239,154L241,154.5L242.5,154.9L248.1,158.8L249.9,160.5L250.9,162.1L251,163.7L251.9,165.4L255.1,168.7L256.9,170.7L261.7,173.2L263.5,175.9L265.3,177.3L267,178.8L267.9,180.9L270,187.2L271.3,190.5L272.8,193.2L273.4,197.6L274.4,199.6L275.6,201.9L277.6,204.1L279.7,205.8L280,206.2L275.7,210.5L270.9,215.2L265.4,220.7L259.2,226.7L254.5,231.4Z"/></svg>
