<svg xmlns="http://www.w3.org/2000/svg" viewBox="0 0 400 300"><path d="M197.9,300L197.9,299.9L195.9,289.5L200.5,289L204.6,284.9L209,279L211.8,276.6L211.6,273L209.2,270.4L208.6,266L211.8,264.6L212.4,258L208,251.6L212,250.3L224.3,250.4L247.2,249.5L247.2,249.5L249.1,250.8L289.8,273.7L290.6,280.2L306.7,291.5L303.6,300L197.9,300Z" fill="#2c2c34" stroke="#474751" stroke-width="0.8"/><path d="M6.1,300L6.2,297.9L8,295L12.1,292.7L15.1,293.8L18.9,289.5L25.1,289.6L25.8,292.8L30,294.8L36.6,287.7L43.1,282.2L46,278.6L45.6,269.4L50.5,258.4L55.6,252.6L63,247.2L64.3,243.6L64.6,239.5L66.4,235.6L65.9,229.2L67.3,219.3L69.5,212.3L72.8,206.2L73.5,199.4L74.5,191.6L78.9,185.9L84.9,182.2L94.2,186.1L101.3,190.2L109.5,191.3L117.9,193.5L121.3,186.7L122.8,185.8L128,187L140.5,181.4L144.9,183.7L148.5,183.4L150.2,180.7L154.4,179.7L162.9,180.9L170.1,181.1L173.8,179.9L180.6,189.3L185.6,190.6L188.6,188.7L193.8,189.5L200.1,187.1L202.8,191.9L212.6,199.4L212,212.5L216.5,214.1L212.9,218.1L208.6,221.1L204.3,226.9L201.9,232.1L201.3,241.2L198.6,245.5L198.6,253.9L195.3,257.1L194.9,263.8L193.4,264.6L192.3,270.8L195.2,275.9L195.9,289.5L195.9,289.5L197.9,299.9L197.9,300L6.1,300Z" fill="#2c2c34" stroke="#474751" stroke-width="0.8"/><path d="M400,194.5L389.5,206.7L378.2,215.9L361.4,227L351,235.6L338.7,249.2L336.1,255.1L333.5,257.8L333.5,257.8L326.8,248.5L326.7,207.5L336.6,194.8L339.6,191.2L346.8,191L356.8,183.1L371.5,182.6L400,152.1L400,194.5Z" fill="#2c2c34" stroke="#474751" stroke-width="0.8"/><path d="M306.7,291.5L290.6,280.2L289.8,273.7L249.1,250.8L247.2,249.5L247,237.6L250.3,233.1L255.8,225.6L259.9,217.4L254.9,204.5L253.6,198.9L248.3,191L255.2,184.3L262.8,176.9L268.7,178.8L268.7,185.1L272.5,188.8L280.3,188.8L294.6,198.4L298.1,198.5L300.7,198.2L303.2,199.5L310.7,200.4L314.1,195.7L324.3,191L328.9,194.8L336.6,194.8L326.7,207.5L326.8,248.5L333.5,257.8L325.6,262.3L322.9,267L318.7,267.8L317,275.7L313.4,280.3L311.3,287.8Z" fill="#2c2c34" stroke="#474751" stroke-width="0.8"/><path d="M281.7,0L283.3,11.6L287.4,25.8L291.7,28.8L297.8,33.1L292.1,39.9L283.9,41.8L280.3,45.4L279.2,53.2L274.4,70.4L275.6,75L273.8,85L269.2,96.3L262.4,102L257.6,110.8L256.5,115.5L251.1,118.7L247.8,130.6L248,140.9L247.9,132L246.3,131.8L246.5,126.1L245.1,122.2L239.4,117.7L238,109.4L239.4,100.9L234.1,100.1L233.4,102.7L226.6,103.3L229.3,106.6L230.2,113.5L224.1,119.8L218.5,128L212.7,129.2L203.3,122.5L199,124.9L197.8,128.2L192,130.4L191.7,132.7L180.5,132.7L178.9,130.4L170.8,130L166.8,132L163.7,131L157.9,124.3L156,121.2L147.9,122.7L144.8,128L141.9,138.2L138,140.4L134.6,141.6L142.2,146L142.2,146L133.7,141.1L129.8,137.8L129,134.2L130.9,129.5L130.8,124.8L124.3,117.7L123.1,112.8L123.2,110L119.1,106.7L119,100L116.6,95.5L112.7,96.2L113.8,92L116.7,87.2L115.4,82.4L119.1,78.8L116.8,76.1L119.7,68.9L124.9,60.4L134.6,61.2L134,14.4L134.1,9.3L147.1,9.3L147.1,0L281.7,0Z" fill="#2c2c34" stroke="#474751" stroke-width="0.8"/><path d="M106,0L134,14.4L134,14.4L134.6,61.2L124.9,60.4L119.7,68.9L116.8,76.1L119.1,78.8L115.4,82.4L116.7,87.2L113.8,92L112.7,96.2L116.6,95.5L119,100L119.1,106.7L123.2,110L123.1,112.8L116,114.8L110.3,119.4L102.1,131.9L91.6,137.1L80.7,136.4L77.5,137.5L78.7,141.5L72.8,145.5L68,149.9L53.9,154.2L51.1,151.6L49.2,151.4L47.1,154.3L37.8,155.2L39.6,152.1L36.1,144.3L34.5,139.6L29.6,137.7L22.9,131L25.4,125.6L30.5,126.8L33.7,126L39.9,126.1L33.8,115.7L34.2,108.1L33.5,100.5L29,93.1L30.1,87.6L22.9,87.4L22.9,79.9L18.3,75.6L23.1,60.3L37.5,49.3L38.1,34L42.4,9.8L44.8,4.7L40.1,0.6L40.1,0L106,0Z" fill="#2c2c34" stroke="#474751" stroke-width="0.8"/><path d="M40.1,0L40.1,0.6L44.8,4.7L42.4,9.8L38.1,34L37.5,49.3L23.1,60.3L18.3,75.6L22.9,79.9L22.9,87.4L30.1,87.6L29,93.1L25.9,93.7L25.5,97.4L23.4,97.7L15.8,85L13.1,84.6L4.4,91L0,89.3L0,0Z" fill="#2c2c34" stroke="#474751" stroke-width="0.8"/><path d="M0,89.3L4.4,91L13.1,84.6L15.8,85L23.4,97.7L25.5,97.4L29.9,102L28.7,104.1L28.1,107.9L18.7,116.7L15.7,124L14.1,130L11.7,132.5L9.4,140.5L3.4,145.2L1.7,150.9L0,153.9L0,89.3Z" fill="#2c2c34" stroke="#474751" stroke-width="0.8"/><path d="M0,153.9L1.7,150.9L3.4,145.2L9.4,140.5L11.7,132.5L14.1,130L15.7,124L18.7,116.7L28.1,107.9L28.7,104.1L29.9,102L25.5,97.4L25.9,93.7L29,93.1L29,93.1L33.5,100.5L34.2,108.1L33.8,115.7L39.9,126.1L33.7,126L30.5,126.8L25.4,125.6L22.9,131L29.6,137.7L34.5,139.6L36.1,144.3L39.6,152.1L37.8,155.2L32.2,166.7L29.5,168.7L28.6,177.5L29.7,182.2L28.8,185.6L34.1,191.5L35.1,195.5L39.2,201.3L44.4,205L44.9,210.1L46,213.4L45.2,219.4L36.3,216.8L27.2,213.8L13.1,213.4L11.7,212.8L5,214.2L0,213.1L0,153.9Z" fill="#2c2c34" stroke="#474751" stroke-width="0.8"/><path d="M173.8,179.9L170.1,181.1L162.9,180.9L154.4,179.7L150.2,180.7L148.5,183.4L144.9,183.7L140.5,181.4L128,187L122.8,185.8L121.3,186.7L117.9,193.5L109.5,191.3L101.3,190.2L94.2,186.1L84.9,182.2L78.9,185.9L74.5,191.6L73.5,199.4L66.3,198.8L58.7,196.9L52,202.9L46,213.4L44.9,210.1L44.4,205L39.2,201.3L35.1,195.5L34.1,191.5L28.8,185.6L29.7,182.2L28.6,177.5L29.5,168.7L32.2,166.7L37.8,155.2L47.1,154.3L49.2,151.4L51.1,151.6L53.9,154.2L68,149.9L72.8,145.5L78.7,141.5L77.5,137.5L80.7,136.4L91.6,137.1L102.1,131.9L110.3,119.4L116,114.8L123.1,112.8L124.3,117.7L130.8,124.8L130.9,129.5L129,134.2L129.8,137.8L133.7,141.1L142.2,146L148.4,150.6L148.5,154.3L156,160.2L160.7,165.1L163.6,171.9L172,176.4Z" fill="#2c2c34" stroke="#474751" stroke-width="0.8"/><path d="M0,266.9L6.5,265.7L7.4,260.8L13.4,266.2L23.3,266.6L26.8,261.3L28.2,253.8L27,245.1L21.7,238.4L26.5,225.4L23.8,223.2L15.4,224.1L12.2,218.3L13.1,213.4L27.2,213.8L36.3,216.8L45.2,219.4L46,213.4L52,202.9L58.7,196.9L66.3,198.8L73.5,199.4L73.5,199.4L72.8,206.2L69.5,212.3L67.3,219.3L65.9,229.2L66.4,235.6L64.6,239.5L64.3,243.6L63,247.2L55.6,252.6L50.5,258.4L45.6,269.4L46,278.6L43.1,282.2L36.6,287.7L30,294.8L25.8,292.8L25.1,289.6L18.9,289.5L15.1,293.8L12.1,292.7L7.9,288.8L4.5,290.7L0,295.6L0,266.9Z" fill="#2c2c34" stroke="#474751" stroke-width="0.8"/><path d="M0,213.1L5,214.2L11.7,212.8L13.1,213.4L12.2,218.3L15.4,224.1L23.8,223.2L26.5,225.4L21.7,238.4L27,245.1L28.2,253.8L26.8,261.3L23.3,266.6L13.4,266.2L7.4,260.8L6.5,265.7L0,266.9L0,213.1Z" fill="#2c2c34" stroke="#474751" stroke-width="0.8"/><path d="M1.6,300L0,295.6L0,295.6L0,295.6L4.5,290.7L7.9,288.8L12.1,292.7L12.1,292.7L8,295L6.2,297.9L6.1,300L1.6,300Z" fill="#2c2c34" stroke="#474751" stroke-width="0.8"/><path d="M208.6,266L209.2,270.4L211.6,273L211.8,276.6L209,279L204.6,284.9L200.5,289L195.9,289.5L195.2,275.9L192.3,270.8L199.2,271.7L202.6,265.3Z" fill="#2c2c34" stroke="#474751" stroke-width="0.8"/><path d="M275.6,75L274.4,70.4L279.2,53.2L280.3,45.4L283.9,41.8L292.1,39.9L297.8,33.1L304.3,46.8L307.5,57.5L313.6,63.2L328.9,74.2L335.2,80.8L341.3,87.5L344.8,91.4L350.3,94.9L347,97.7L342.1,96.7L338.3,93L333.7,86.2L328.7,82.5L325.8,78.5L316,73.9L308.3,73.7L305.6,71.3L299,74L292.2,68.8L288.6,77.4Z" fill="#2c2c34" stroke="#474751" stroke-width="0.8"/><path d="M400,83.4L398.3,84.6L391.2,86.9L381.8,87.4L378.9,88.1L376.5,91.2L373.5,92L371.8,94.9L366.2,94.7L362.6,96.2L354.8,95.6L351.9,88.9L352.3,82.6L350.4,79.2L348.2,70.6L345,65.8L347.2,65.2L346.1,59.9L347.4,57.6L347,52.6L351.8,48.8L350.7,43.9L353.7,38.1L358.3,41.1L361.4,40.1L374.3,39.8L376.4,41L387.3,42.2L391.5,41.6L394.4,45.5L399.6,43.5L400,43L400,83.4Z" fill="#2c2c34" stroke="#474751" stroke-width="0.8"/><path d="M400,43L399.6,43.5L394.4,45.5L391.5,41.6L387.3,42.2L376.4,41L374.3,39.8L361.4,40.1L358.3,41.1L353.7,38.1L350.7,43.9L351.8,48.8L347,52.6L345.5,47.6L342.1,44L341.2,39.3L335.4,35.1L329.4,25.2L326.2,15.5L318.5,7.3L313.4,5.3L310,0L400,0Z" fill="#2c2c34" stroke="#474751" stroke-width="0.8"/><path d="M147.1,0L147.1,9.3L134.1,9.3L134,14.4L106,0L147.1,0Z" fill="#2c2c34" stroke="#474751" stroke-width="0.8"/><path d="M400,152.1L371.5,182.6L356.8,183.1L346.8,191L339.6,191.2L336.6,194.8L328.9,194.8L324.3,191L314.1,195.7L310.7,200.4L303.2,199.5L300.7,198.2L298.1,198.5L294.6,198.4L280.3,188.8L272.5,188.8L268.7,185.1L268.7,178.8L262.8,176.9L256.2,164.6L251,161.9L249.1,157.4L243.4,151.9L236.5,151.1L240.3,144.6L246.3,144.3L248,140.9L247.8,130.6L251.1,118.7L256.5,115.5L257.6,110.8L262.4,102L269.2,96.3L273.8,85L275.6,75L288.6,77.4L292.2,68.8L299,74L305.6,71.3L308.3,73.7L316,73.9L325.8,78.5L328.7,82.5L333.7,86.2L338.3,93L342.1,96.7L338.2,101.8L334.4,107.2L335.3,110.4L335.4,113.9L341.7,114L344.4,113.2L346.9,115.3L344.4,119.3L348.6,125.6L352.7,131.1L357,135.2L393.8,148.7L400,148.6L400,152.1Z" fill="#2c2c34" stroke="#474751" stroke-width="0.8"/><path d="M342.1,96.7L347,97.7L350.3,94.9L353,98.5L352.6,103.3L346.2,106L351,109.1L346.9,115.3L344.4,113.2L341.7,114L335.4,113.9L335.3,110.4L334.4,107.2L338.2,101.8Z" fill="#2c2c34" stroke="#474751" stroke-width="0.8"/><path d="M400,148.6L393.8,148.7L357,135.2L352.7,131.1L348.6,125.6L344.4,119.3L346.9,115.3L351,109.1L354.7,111.3L356.9,116L362,120.8L367.6,120.8L378.2,117.9L390.4,116.5L400,113.1L400,148.6Z" fill="#2c2c34" stroke="#474751" stroke-width="0.8"/><path d="M247.2,249.5L224.3,250.4L212,250.3L208,251.6L201.3,255.1L198.6,253.9L198.6,245.5L201.3,241.2L201.9,232.1L204.3,226.9L208.6,221.1L212.9,218.1L216.5,214.1L212,212.5L212.6,199.4L217.3,196.3L224.4,198.8L233.5,196.2L241.4,196.2L248.3,191L253.6,198.9L254.9,204.5L259.9,217.4L255.8,225.6L250.3,233.1L247,237.6Z" fill="#2c2c34" stroke="#474751" stroke-width="0.8"/><path d="M208,251.6L212.4,258L211.8,264.6L208.6,266L202.6,265.3L199.2,271.7L192.3,270.8L193.4,264.6L194.9,263.8L195.3,257.1L198.6,253.9L201.3,255.1Z" fill="#2c2c34" stroke="#474751" stroke-width="0.8"/><path d="M248,191.4L245.3,194L243.4,196L243.1,196.3L242.5,196.6L240.6,196.6L238.7,196.4L237,195.2L235.2,196.1L234.1,196.4L233.4,196.5L231.8,196.7L229.6,197.2L228.5,197.8L228,198.3L227.5,199.2L227.3,199.3L226.9,199.2L226.3,198.8L225.1,198.3L224.5,197.1L223.9,196.4L223.5,196.1L221.6,197.2L220.7,197.5L219.9,197.5L218.6,196.8L217,196.3L216.2,196.3L215.1,197L213.7,198L213.1,199L212.7,199.6L212.5,199.1L212.2,198.7L211.8,198.1L211.1,197.9L210.6,198L209.9,198.1L209.6,197.8L209.5,197L209.3,196.3L209,195.7L208,195.2L205.5,194.1L203.5,191.9L202.5,190.8L201.8,190.2L200.8,188.4L199.7,187.2L198.2,186.7L197.3,187L196.4,188.2L194.6,189.4L193.7,189.5L192.7,188.8L191.4,188.4L189,188.2L188,188.7L186.7,189.6L185.6,190.2L184.9,190.3L184.3,190L183.6,189.9L183,189.9L181.7,189.1L181,188.5L180.6,187.9L179.9,187.5L179,187.1L178.4,186.6L178.1,185.9L177.6,185.1L177,184.3L175.1,183L174.5,182.1L174.1,181.3L173.3,180.5L172.5,179.3L172.2,177.6L172.1,176.2L172,175.6L171.6,175L171.2,174.4L170.5,173.8L168.9,172.9L167.3,171.9L166.5,171.3L165,171.1L164.1,170.5L163.4,169.2L163,168.2L162.3,167.4L162,166.8L161.8,166.1L162.4,164.1L161.5,163.4L160.2,162.4L159.3,161.4L158.7,160.5L157.1,159.2L153.4,157.4L151.4,156.2L150.2,155.1L149.2,154.1L149.1,153.7L149.8,152.6L149.9,151.8L149.4,150.8L147.2,149L145.4,147.1L144.1,146.5L141,145.9L140,145.7L139.1,145.3L138.2,144.4L137.9,143.4L138.3,141.7L138,141.2L137.5,141.1L137.7,140.7L138.2,139.9L139.2,139.4L141.8,138.6L142,138.2L142,137.2L142.2,136.7L143.1,135.2L143.2,134.7L143.3,133.4L143.4,132.8L143.7,132.4L144.4,131.7L144.6,131.3L144.7,130.3L144.7,128.5L145,127.7L146.7,126L147.1,125.2L147.3,124.6L147.3,123.9L147.3,123.2L147.8,122.5L148.3,122.3L149.5,122.1L150.3,122.2L156.1,121.1L156.7,121.2L157,121.9L157,123L157.1,123.6L157.4,123.9L158.3,124.5L158.9,125.3L159.3,125.7L160.2,126.3L164.5,131.3L165.7,131.8L166.9,131.6L169.2,130.5L170.4,130.3L178.6,130.6L179.5,130.4L179.5,130.4L180.8,133L181.4,133.5L190.3,133.6L190.1,132.8L190.2,132.1L191.3,131L191.8,130.5L192,130.3L193.4,129.6L194.8,129.1L197.3,128.5L198.3,127.6L198.8,126.8L198.8,125.1L199.2,124.9L199.8,124.5L202.8,123L203.3,122.7L208.6,126.1L211.6,128.8L211.8,128.9L211.9,129L212.1,128.9L212.2,128.8L212.4,128.7L212.6,128.6L213.9,128.6L216.2,128.5L217.1,128.2L221.9,123.4L223.1,121.8L223.5,121.5L224.1,120.4L224.9,118.5L225,118.3L230.3,113.8L230.5,113.4L230.5,113.1L229.8,111.6L229.6,110.8L229.6,109.6L229.7,107.8L229.6,106.6L229.6,106.5L229.6,106.3L229.5,106.2L226.6,102.9L234.1,102.9L234.1,102.6L234.1,102.4L234.1,102.3L233.9,101.9L233.8,101.4L233.8,101.2L233.8,101.1L233.9,100.8L233.9,100.7L233.9,100.6L233.9,100.5L233.9,100.5L233.9,100.4L239.2,100.5L239.2,101.4L238.5,103.7L238.5,105L238.4,106.5L238.3,106.6L238.2,106.9L238.1,107.1L237.9,107.3L237.9,107.4L237.8,107.5L237.8,107.7L238.9,116.2L238.9,116.4L238.9,116.5L238.5,117L238.5,117.2L238.5,117.3L238.6,117.4L241.1,118.4L241.2,118.4L241.3,118.5L242.2,119.6L247,123.6L247.2,123.8L247.7,125.1L247.8,125.3L247.8,125.6L247.8,125.8L247.6,126.5L247.7,126.9L247.8,127.1L247.9,127.4L247.9,127.5L247.8,127.5L247.8,127.6L247.1,129.1L246.8,130.1L246.8,131L246.8,131.5L246.9,131.8L246.9,131.9L247,132L247,132L247,132L249.1,132L249.1,132L249.1,132.5L249.2,134.8L249.3,136.8L249.4,140.1L249.4,140.9L249.3,142L249.1,142.4L248.5,143.1L247.7,143.6L245.8,143.7L244.3,143.7L243.2,143.6L241.6,143.5L240.2,143.7L239.6,144.1L238.9,145.8L237.7,148.2L237.2,149.2L237,149.8L237.2,150.1L237.9,150.6L239.6,151.4L241.4,151.8L242.8,151.9L243.8,152.1L244.5,152.4L247.2,154.2L248,155.1L248.5,155.8L248.6,156.6L249,157.4L250.5,159L251.4,159.9L253.7,161.1L254.6,162.5L255.4,163.1L256.2,163.8L256.7,164.9L257.7,167.9L258.3,169.5L259,170.8L259.3,172.9L259.8,173.8L260.4,175L261.3,176L262.3,176.8L262.5,177L260.4,179.1L258.1,181.3L255.5,184L252.5,186.9L250.2,189.1Z" fill="#b8e653" stroke="#0c0e06" stroke-width="1"/></svg>
