<svg xmlns="http://www.w3.org/2000/svg" viewBox="0 0 400 300"><path d="M400,299.5L365.4,299.4L363.6,300L337.3,300L337.3,300L336.2,297.5L342.5,295L343.3,284.2L347.2,277.9L356.1,272.8L362.5,275.3L370.9,265.9L384.2,266.1L385.7,273.1L394.9,277.4L400,272L400,299.5Z" fill="#2c2c34" stroke="#474751" stroke-width="0.8"/><path d="M104.4,0L104.3,2.6L104.3,2.6L84.2,5.4L82.3,0L104.4,0Z" fill="#2c2c34" stroke="#474751" stroke-width="0.8"/><path d="M263.2,0L252.6,21.7L246.3,39.1L220.9,47.9L211.7,46.6L202.2,52.1L182.7,51.6L169.6,36.2L161.6,18.5L144.3,2.3L125.9,2.6L104.3,2.6L104.3,2.6L104.4,0L263.2,0Z" fill="#2c2c34" stroke="#474751" stroke-width="0.8"/><path d="M398.2,0L393.7,3.4L391.9,22.4L394.4,32.7L392.3,40L400,48.5L400,105L400,105L388.9,101.4L358.1,100.4L355,99.1L340.6,102.2L325.8,99L314.1,100.5L274.4,100L277.9,80.7L268.4,64.5L257.2,60.4L252.3,49.4L246,45.9L246.3,39.1L252.6,21.7L263.2,0L398.2,0Z" fill="#2c2c34" stroke="#474751" stroke-width="0.8"/><path d="M82.3,0L84.2,5.4L64.5,10.7L59,2.1L58.2,0L82.3,0Z" fill="#2c2c34" stroke="#474751" stroke-width="0.8"/><path d="M58.2,0L59,2.1L64.5,10.7L26.1,25.1L12.6,33.5L0,37.5L0,0Z" fill="#2c2c34" stroke="#474751" stroke-width="0.8"/><path d="M400,48.5L392.3,40L394.4,32.7L391.9,22.4L393.7,3.4L398.2,0L400,0Z" fill="#2c2c34" stroke="#474751" stroke-width="0.8"/><path d="M400,272L394.9,277.4L385.7,273.1L384.2,266.1L370.9,265.9L362.5,275.3L356.1,272.8L347,264.4L339.6,268.5L329.7,279.1L309.7,253.1L328.3,239.6L319.1,223.4L327.4,217.3L343.9,214.3L345.9,203.5L358.9,215.2L380.5,216.2L387.9,204.7L391.1,188.4L388.4,169.3L376.9,154.9L387.4,126.6L381.3,121.7L363.1,123.7L356.3,111.1L358.1,100.4L388.9,101.4L400,105L400,272Z" fill="#2c2c34" stroke="#474751" stroke-width="0.8"/><path d="M314.1,100.5L325.8,99L340.6,102.2L355,99.1L358.1,100.4L356.3,111.1L363.1,123.7L381.3,121.7L387.4,126.6L376.9,154.9L388.4,169.3L391.1,188.4L387.9,204.7L380.5,216.2L358.9,215.2L345.9,203.5L343.9,214.3L327.4,217.3L319.1,223.4L328.3,239.6L309.7,253.1L284.6,228.4L268.4,208.2L253.5,183L254.3,174.9L259.7,167.1L265.6,149.3L270.5,131.2L278.8,129.7L314.3,130Z" fill="#2c2c34" stroke="#474751" stroke-width="0.8"/><path d="M274.4,100L314.1,100.5L314.3,130L278.8,129.7L270.5,131.2L265.9,127.4Z" fill="#2c2c34" stroke="#474751" stroke-width="0.8"/><path d="M356.1,272.8L347.2,277.9L343.3,284.2L342.5,295L336.2,297.5L329.7,279.1L339.6,268.5L347,264.4ZM363.6,300L365.4,299.4L400,299.5L400,300Z" fill="#2c2c34" stroke="#474751" stroke-width="0.8"/><path d="M220,117.5L219,118.1L218,117.6L217.7,116.6L219.1,114.8L219.8,114.3L220.3,114.7L220.6,115.2L220.7,116ZM201.3,152.9L198.8,154.7L197.9,154.2L197.3,153L196.6,150.2L196.9,149L198,147.5L200.5,146L202,145.9L203.5,147.9L203.5,149.9Z" fill="#b8e653" stroke="#0c0e06" stroke-width="1"/></svg>
