<svg xmlns="http://www.w3.org/2000/svg" viewBox="0 0 300 300"><path fill="#e8e8ea" d="M101.1,80.7L103.8,81.3L121.8,86.9L127.3,86L134.3,90.4L137.5,94.1L140.2,99L154.7,109.1L157,113.4L168,119.3L172.3,123.7L176.6,125.7L185.6,127.4L193.5,129.8L194.2,131.3L195,138.1L196.6,143.8L200.5,144.2L204.8,141.4L219.3,133.9L232.6,128.8L240.5,131.9L245.2,138.1L250.2,140.9L260.8,139.1L270.6,139.7L278.4,145.1L280,148.4L275.3,166.7L273.7,174.5L273,181.1L275.7,182.6L278.4,185.4L277.7,188.9L269.4,194.7L266.7,196.2L268.6,207.5L262.4,214.3L256.9,219.1L246.7,220.5L229.5,220.9L203.6,215.4L184.8,207.9L174.7,207.9L177.8,210.4L186,212L196.6,217.2L193.5,218.7L154.7,207.7L110.1,185.9L83.4,182.4L52.9,176.6L34.9,162.8L21.2,157L20,151.7L20.4,145.9L26.3,138.1L38,127.6L45.5,122.4L49,121.2L54.1,121.8L58.8,118.9L63.1,111.5L67.4,107L78.3,102.1L81.1,100.4L79.9,96.3L77.6,88.5L78,83.6L81.5,81.5L85.8,81.1L94.8,79.1L98.7,79.5Z"/></svg>
