<svg xmlns="http://www.w3.org/2000/svg" viewBox="0 0 400 300"><path d="M15.7,0L18.7,7.7L28.3,20.4L54.2,27.3L64.2,38L85.7,30.8L104.4,28.2L122.7,23.6L138,19.2L153.5,8.6L156.9,0L231.3,0L231.3,0L235.1,3.8L231.4,14.9L225.3,35.1L219.1,28.4L214,28.9L209.3,29.2L200.6,44.8L196.1,41.7L193.2,42.9L193.4,46.7L170.8,46.4L148,46.4L147.9,60.9L136.9,60.9L146,69.5L155,75.3L157.8,80.9L161.7,82.4L161.1,91.1L129.7,91.2L118,111.8L121.4,116.6L118.6,122.5L118,129.8L90.4,102.6L77.7,94.4L57.8,87.7L44.1,89.6L24.5,99.2L12.2,101.7L0,96.9L0,0Z" fill="#2c2c34" stroke="#474751" stroke-width="0.8"/><path d="M391.6,300L390.9,297.3L388.9,300L379.6,300L379.6,300L374.7,290.2L364.6,288.5L358.3,285.7L347.8,285.7L347.1,291L344.3,287.3L345.6,282.4L347.6,277.4L346.7,272.9L350.3,270L345.2,266.3L345.1,256.4L354.5,254.1L363.3,263L362.8,268.3L372.6,269.4L374.9,267.4L381.6,273.4L393.6,271.7L400,267.8L400,300Z" fill="#2c2c34" stroke="#474751" stroke-width="0.8"/><path d="M354.5,254.1L345.1,256.4L345.2,266.3L350.3,270L346.7,272.9L347.6,277.4L345.6,282.4L344.3,287.3L331,281.8L326.1,276.7L328.9,272.4L328,266.9L321.2,261L311.6,256.1L303.2,252.9L301.6,245.7L295.2,241.2L296.7,248.5L291.9,254.4L286.3,247.5L278.4,245.1L275.1,240L275.3,232.5L278.4,224.6L271.6,221.1L277.2,216.3L280.9,213.1L297,219.7L302.5,216.5L310.4,218.6L314.4,223.7L321.6,225.3L327.4,220L333.6,233.6L343.1,243.6Z" fill="#2c2c34" stroke="#474751" stroke-width="0.8"/><path d="M327.4,220L321.6,225.3L314.4,223.7L310.4,218.6L302.5,216.5L297,219.7L280.9,213.1L277.2,216.3L268.8,208.5L257.3,198.4L252,190L241.7,182.2L229.4,170.8L232.1,167L236.1,170.7L238,169L245.5,167.9L248.6,162.2L252.2,162L251.7,149.6L257.4,149L262.5,149.2L267.8,142.5L275,147.6L277.6,144.4L282,141.5L290.6,134.5L290.9,129.3L293.3,129.5L296.5,123.5L299,122.8L303.2,126.6L308.1,127.8L313.5,124.5L319.6,124.5L328.1,121.2L331.5,117.8L339.8,118.3L337.7,120.7L336.5,126.4L339.1,135.6L333.4,144.2L330.8,154.3L330,165.4L331.3,171.9L331.9,183.1L328.1,185.6L325.9,196.3L327.5,202.9L322.6,209.3L323.7,216Z" fill="#2c2c34" stroke="#474751" stroke-width="0.8"/><path d="M339.8,118.3L331.5,117.8L328.1,121.2L319.6,124.5L313.5,124.5L308.1,127.8L303.2,126.6L299,122.8L296.5,123.5L293.3,129.5L290.9,129.3L290.6,134.5L282,141.5L277.6,144.4L275,147.6L267.8,142.5L262.5,149.2L257.4,149L251.7,149.6L252.2,162L248.6,162.2L245.5,167.9L238,169L233.8,161.1L226.4,158.9L228,148.9L224.7,146.1L219.7,144.3L208.9,147.3L208.1,144L200.7,139.9L195.4,134.9L188.2,132.7L193.3,126.3L191.4,121.4L193.1,116.5L204.6,109.4L215.8,99.8L218.4,100.8L223.7,96.3L230.7,95.9L233,98L236.7,96.8L248.1,99L259.4,98.4L267.3,95.6L270.1,92.7L277.9,94L283.7,95.8L290.1,95.2L295,93L306.2,96.5L310,97.1L317.5,101.8L324.5,107.4L333.4,111.4Z" fill="#2c2c34" stroke="#474751" stroke-width="0.8"/><path d="M118,129.8L118.6,122.5L121.4,116.6L118,111.8L129.7,91.2L161.1,91.1L161.7,82.4L157.8,80.9L155,75.3L146,69.5L136.9,60.9L147.9,60.9L148,46.4L170.8,46.4L193.4,46.7L193.2,67L191.3,95.7L198.6,95.7L206.5,100.3L208.6,96.5L215.8,99.8L204.6,109.4L193.1,116.5L191.4,121.4L193.3,126.3L188.2,132.7L182.5,134.3L183.8,137.3L179.2,140.1L170.9,146.4L170.1,150.1L157.6,145.7L142.3,145.2L131.1,140.3Z" fill="#2c2c34" stroke="#474751" stroke-width="0.8"/><path d="M193.4,46.7L193.2,42.9L196.1,41.7L200.6,44.8L209.3,29.2L214,28.9L214.1,32.7L218.7,32.8L218.3,39.8L214.3,50.9L216.4,54.8L213.9,64L215.5,66.4L212.6,79.4L207.8,86.1L203.4,86.9L198.6,95.7L191.3,95.7L193.2,67Z" fill="#2c2c34" stroke="#474751" stroke-width="0.8"/><path d="M188,133L188.6,133.1L192.7,134.4L193.9,134.1L195.5,135.1L196.2,136L196.8,137.1L200.1,139.3L200.6,140.3L203.1,141.6L204,142.6L205,143.1L207,143.5L208.8,144L208.9,144.3L209.1,145.9L209.5,147.1L210.4,147.2L211.3,146.6L214.6,144.9L217.6,143.8L219.3,144.5L220.4,145.9L221.5,146.5L223.9,146.1L226.1,146.2L227.9,147.4L228.2,148.2L227.2,152.3L226.8,154L226.6,155.5L227.2,155.9L227.9,156.5L227.7,157.3L225.8,158.6L225.2,158.9L225.7,161.4L224.3,163L223,164.1L220.7,164.4L216.9,164.4L211.1,163.2L206.8,161.5L204.6,161.5L205.3,162.1L207.1,162.4L209.5,163.6L208.8,164L200.1,161.5L190,156.6L184.1,155.8L177.2,154.5L173.1,151.4L170.1,150.1L169.8,148.9L169.9,147.6L171.2,145.9L173.9,143.5L175.5,142.3L176.3,142.1L177.5,142.2L178.5,141.5L179.5,139.9L180.4,138.9L182.9,137.8L183.5,137.4L183.3,136.5L182.7,134.7L182.8,133.6L183.6,133.1L184.6,133L186.6,132.6L187.5,132.7Z" fill="#b8e653" stroke="#0c0e06" stroke-width="1"/></svg>
