<svg xmlns="http://www.w3.org/2000/svg" viewBox="0 0 400 300"><path d="M136.7,198.7L133.3,205.8L126.5,202.7L122.6,217.6L127.3,220.1L122.4,223.2L121.6,229L130.5,226L131,234.6L121.5,269.7L119.7,264.1L109.1,232L114.6,224.7L113.3,223.4L118.3,213L122.1,196L124.9,190.3L125.4,190.1L131.8,190.1L133.5,186.2L138.6,185.9L138.9,195.1L136.3,198.6Z" fill="#2c2c34" stroke="#474751" stroke-width="0.8"/><path d="M138.6,185.9L133.5,186.2L131.8,190.1L125.4,190.1L132.2,171.6L141.6,155.4L141.9,154.6L150.5,155.8L153.5,164.8L143.2,173.4Z" fill="#2c2c34" stroke="#474751" stroke-width="0.8"/><path d="M130.5,226L121.6,229L122.4,223.2L127.3,220.1L122.6,217.6L126.5,202.7L133.3,205.8L133.3,219.5Z" fill="#2c2c34" stroke="#474751" stroke-width="0.8"/><path d="M133.3,205.8L136.7,198.7L157.8,207.6L194.9,183.6L202.5,211L198.9,214.4L161,225.6L179.9,247.7L173.6,251.4L170.5,258.7L156,261.8L151.5,269.6L143.3,276.3L122.1,272.9L121.5,269.7L131,234.6L130.5,226L133.3,219.5Z" fill="#2c2c34" stroke="#474751" stroke-width="0.8"/><path d="M368.9,259.4L372.9,269L371.2,274L377.3,290.3L363.9,290.9L359.2,280.6L342.3,278.5L356.2,257.6Z" fill="#2c2c34" stroke="#474751" stroke-width="0.8"/><path d="M202.5,211L194.9,183.6L236.8,159.8L244,131.8L242.2,114.7L252.6,108.9L262.3,94.1L270.4,90.4L292.5,93.5L299.1,99.5L308.2,95.5L320.5,123.7L332.9,130.7L334.3,144.2L324.9,152.2L320.4,170.1L333.6,191.8L356.8,204.1L366.6,221.1L363.4,237.2L369.5,237.2L369.7,248.9L380.1,260.5L368.9,259.4L356.2,257.6L342.3,278.5L307.1,276.8L253.6,232.7L225.4,217.1Z" fill="#2c2c34" stroke="#474751" stroke-width="0.8"/><path d="M400,258.9L399.3,259.2L387.2,251.9L380.1,260.5L380.1,260.5L369.7,248.9L369.5,237.2L363.4,237.2L366.6,221.1L356.8,204.1L333.6,191.8L320.4,170.1L324.9,152.2L334.3,144.2L332.9,130.7L320.5,123.7L308.2,95.5L297.8,76.4L301.6,68.9L295.7,41L308.6,34L311.6,43.2L321.2,54.5L334.2,57.7L341.1,57L363.4,39L370.5,37.2L376.1,44.4L369.6,56.5L381.4,69.1L386.1,68L392.1,85.7L400,87.9L400,258.9Z" fill="#2c2c34" stroke="#474751" stroke-width="0.8"/><path d="M314.6,0L315.9,2.3L323.2,6.7L319.3,13L329.4,21.5L324.1,29.4L332.2,36.1L340.6,40.1L341.1,57L341.1,57L334.2,57.7L326.5,43.6L326.6,39.8L318.2,39.9L312.6,33.3L308.6,34L301.2,26.8L287.1,20.6L288.9,8.5L285.8,0L314.6,0Z" fill="#2c2c34" stroke="#474751" stroke-width="0.8"/><path d="M0,15.7L5.9,15.5L12.4,0L177.4,0L177.4,0L186.5,3.3L205,0L213,0L213,0L224.8,1.6L227.6,0L285.8,0L285.8,0L288.9,8.5L287.1,20.6L301.2,26.8L308.6,34L295.7,41L301.6,68.9L297.8,76.4L308.2,95.5L308.2,95.5L299.1,99.5L292.5,93.5L270.4,90.4L262.3,94.1L240.7,97.8L230.6,97.4L208.7,106.3L193.1,106.4L183.1,101.9L162.2,108.5L156,103.9L155,117L149.9,122.2L144.8,127.3L137.8,116.7L145,107.8L133.5,109.9L117.6,104.4L104.5,118L75.8,120.6L60.5,108L40,107.2L35.6,117L22.5,119.7L4.2,107.2L0,107.3L0,15.7ZM5.9,0L5.6,0.6L0,0.9L0,0Z" fill="#2c2c34" stroke="#474751" stroke-width="0.8"/><path d="M393.2,0L400,12.6L400,22.4L400,22.4L399.2,22.5L395.8,41.7L392.5,50.2L385.7,55.9L386.1,68L381.4,69.1L369.6,56.5L376.1,44.4L370.5,37.2L363.4,39L341.1,57L340.6,40.1L332.2,36.1L324.1,29.4L329.4,21.5L319.3,13L323.2,6.7L315.9,2.3L314.6,0L338.6,0L338.6,0L341,0.4L341.3,0L393.2,0ZM334.2,57.7L321.2,54.5L311.6,43.2L308.6,34L312.6,33.3L318.2,39.9L326.6,39.8L326.5,43.6Z" fill="#2c2c34" stroke="#474751" stroke-width="0.8"/><path d="M341.3,0L341,0.4L338.6,0L341.3,0Z" fill="#2c2c34" stroke="#474751" stroke-width="0.8"/><path d="M116.2,300L119,289.1L119.8,281.6L122.1,272.9L122.1,272.9L143.3,276.3L151.5,269.6L156,261.8L170.5,258.7L173.6,251.4L179.9,247.7L161,225.6L198.9,214.4L202.5,211L225.4,217.1L253.6,232.7L307.1,276.8L342.3,278.5L359.2,280.6L363.9,290.9L377.3,290.3L381.2,300L116.2,300Z" fill="#2c2c34" stroke="#474751" stroke-width="0.8"/><path d="M80,143.2L81.3,143.1L84.1,137.4L97.7,137.8L115,130.8L102.2,140.7L103.6,145.1L101.5,144.2L97.9,146L95.1,145.5L94.1,146.4L93.8,144.1L92.4,142.6L88.7,142.4L83.6,144.4Z" fill="#2c2c34" stroke="#474751" stroke-width="0.8"/><path d="M80,143.2L83.6,144.4L88.7,142.4L92.4,142.6L93.8,144.1L94.1,146.4L95.1,145.5L97.9,146L101.5,144.2L103.6,145.1L104.1,146.9L84.7,156.3L75.4,153.3L71,144Z" fill="#2c2c34" stroke="#474751" stroke-width="0.8"/><path d="M0,236.7L7.7,239.7L22.3,232.7L30,226.3L46.8,224.5L60.3,227.3L65.4,238.3L69.8,231.1L85,236.3L99.8,237.6L109.1,232L119.7,264.1L121.5,269.7L116.2,278.5L112.1,294.8L109.7,300L93.7,300L93.7,300L87.7,293.2L74.2,262.1L72.2,264.1L80,287L87.1,300L0,300Z" fill="#2c2c34" stroke="#474751" stroke-width="0.8"/><path d="M140,125.1L141.3,125.3L144.4,127.1L144.9,127L145.8,124.6L146.7,123.8L148.6,123.1L149.1,119.1L149.9,118.4L151,118L152.6,117.9L154,117.6L154.1,116.9L152.2,112.4L152.3,111.2L153.3,106.6L153.9,104.8L154.4,104.3L156.7,104.5L159.8,105.3L160.6,106.6L162.2,107.8L164.5,107.7L167.1,107.9L169.2,108L170.9,107.2L174.6,105.6L176.4,105.1L178.1,104.4L183.5,101.9L185.7,102.1L187.2,102.4L188.3,102.8L190.9,104.6L192.9,106.3L194.4,106.8L197.1,106.8L200.9,107.1L205.6,107.1L208.3,106.6L211.8,105.8L218.1,103.7L226.3,99.4L231.2,97.3L233.2,97L236,97L238.7,97.5L241.8,97.9L243.2,97.9L246.5,97.5L250.8,96.5L253.6,95.8L256.8,94.7L258.9,92.7L259.5,92.5L260.4,92.8L260.8,93L261.6,94.1L262.5,97L262.5,97.3L262.3,98.1L260.2,100.5L257.2,103.7L255.2,105.7L251.7,109.1L249.1,109.8L244.6,111.1L243.5,112.2L242.3,114.1L241.7,116.7L241.5,118.4L241.3,121.4L242.4,124.6L243.4,127.6L243.5,129.6L243.5,131.5L242.5,133.6L241.4,136.5L240.8,139.7L240.5,145.8L240.5,150.9L240.4,151.8L238.6,155.4L236.5,159.6L235.5,160.5L230.8,161.8L225.8,164.9L220.1,168.3L214.9,171.4L209.6,174.7L203.9,178.1L199.9,180.5L194.5,183.7L189.6,186.8L184.7,189.9L180.9,192.3L175.2,196L171.9,198.2L166.9,201.4L162.6,204.2L157.5,207.5L151.1,206.5L149,205.9L147.3,204.4L146.1,203.5L143.1,202.7L141.1,199.7L140,198.6L137.9,198.1L138.2,197.1L139.3,195.2L140.3,193.3L139.8,192.2L139.5,191.3L139.5,190.1L140.2,189.1L139.8,187.8L139.3,186.5L138.9,185.9L138.9,184.7L139.1,183.8L139.5,182.3L140.4,181.6L140.6,180.8L141.3,180L142.4,179.4L142.6,178.9L142.5,178.6L141.5,178L140.8,177L141.4,175.5L141.7,175.1L142.3,174.4L143.7,173.3L144.8,173.1L145.8,173.1L147.3,173.2L148.6,173.4L148.9,173.1L148.8,172.7L147.3,171.8L147.3,171.1L147.6,170.4L148.7,169.2L150,168.3L150.6,168.1L152.1,166.4L153.1,164.4L151.6,159.5L150.6,158.7L149.1,158.1L148.2,157.9L148.1,157.6L149.3,156.4L150.2,155.4L149.2,154.3L147.6,153.8L147,154.9L144.8,155L141.5,155L140,149.8L139.8,147.6L139.9,145L140.9,141.2L140.4,139.5L140.4,138.3L140.1,136.7L137.5,133.2L138.9,126.7Z" fill="#b8e653" stroke="#0c0e06" stroke-width="1"/></svg>
