<svg xmlns="http://www.w3.org/2000/svg" viewBox="0 0 300 300"><path fill="#e8e8ea" d="M25.1,98.2L27.9,98.5L34.3,102.3L35.3,102.2L37.2,97.2L39.2,95.5L43,94L44.1,85.7L45.8,84.2L48.1,83.4L51.5,83.2L54.3,82.7L54.6,81.2L50.5,71.8L50.8,69.3L52.8,59.8L54.1,56L55.2,54.8L59.9,55.3L66.4,57L68.1,59.7L71.4,62.2L76.1,62L81.6,62.5L85.9,62.7L89.4,60.9L97.1,57.7L100.9,56.6L104.4,55.2L115.7,50L120.2,50.3L123.3,51.1L125.6,51.8L131,55.5L135.2,59.1L138.4,60.2L143.9,60.1L151.8,60.8L161.6,60.7L167.3,59.8L174.6,58L187.6,53.6L204.8,44.7L214.9,40.3L219.1,39.8L224.8,39.7L230.5,40.9L236.9,41.7L239.8,41.6L246.6,40.7L255.7,38.8L261.4,37.4L268.2,34.9L272.5,30.8L273.8,30.4L275.6,31.1L276.5,31.4L278.2,33.8L280,39.7L280,40.4L279.6,42.1L275.2,47L269.1,53.6L264.8,57.8L257.4,64.9L252,66.4L242.8,69L240.4,71.5L238,75.4L236.7,80.8L236.3,84.2L236,90.6L238.3,97.1L240.3,103.4L240.5,107.6L240.4,111.6L238.4,116L236.1,121.9L234.9,128.7L234.3,141.2L234.3,151.9L234,153.6L230.3,161.1L225.9,169.9L223.8,171.9L214.1,174.6L203.6,181L191.7,188.1L181.1,194.6L169.9,201.4L158.1,208.4L149.7,213.4L138.6,220.2L128.4,226.5L118.2,233L110.3,237.9L98.5,245.6L91.5,250.2L81.2,256.9L72.2,262.7L61.6,269.6L48.2,267.6L44,266.4L40.4,263.1L37.9,261.3L31.6,259.5L27.5,253.3L25.1,251.1L20.9,250.1L21.4,247.9L23.7,244.1L25.8,240L24.7,237.7L24.3,235.9L24.1,233.5L25.5,231.3L24.8,228.6L23.7,225.9L22.8,224.6L22.8,222.1L23.4,220.2L24.1,217.3L26,215.7L26.4,214.1L27.9,212.4L30.2,211.1L30.6,210.1L30.4,209.5L28.2,208.3L27,206.2L28.1,203.1L28.8,202.2L30.1,200.7L32.9,198.4L35.2,198L37.2,198L40.4,198.2L43,198.6L43.7,198L43.6,197.3L40.4,195.4L40.3,193.9L41,192.4L43.3,189.9L46,188L47.2,187.7L50.4,184L52.4,179.9L49.2,169.8L47.2,168.2L44.1,166.8L42.3,166.5L42.1,165.9L44.6,163.4L46.4,161.1L44.4,159L41,158L39.7,160.2L35.2,160.4L28.4,160.4L25.3,149.6L24.8,145.1L25,139.6L27.1,131.8L26.1,128.1L26,125.6L25.4,122.3L20,115L23,101.5Z"/></svg>
