<svg xmlns="http://www.w3.org/2000/svg" viewBox="0 0 400 300"><path d="M138.8,216.2L128.2,207.6L116.8,213.3L103.5,224.3L90.5,242L108.8,263.8L117.5,261L122,251.9L135.7,247.5L139.8,238.3L147.3,224.6ZM0,115.2L0.4,115L10.7,118.2L22.4,125.9L42.3,127.2L57.9,120.9L60.4,112.4L64.6,99.5L78,97.4L85.3,87.3L93.4,69.5L115.4,49.6L149.9,30.2L159.9,30.5L171.6,35L179.9,31.8L192.9,34.4L204.6,71.8L211,90.8L206.7,120.8L208.7,130.5L196.4,125.6L189.3,127.5L187,135.4L180.4,145.6L180.5,155.1L195.1,169.9L209.5,167L214.4,154.8L233,155L226.8,175L224,198L217.7,210.6L200.9,224.6L196.2,228.7L185.8,243L179,257.5L165.1,277.9L144.5,300L0,300Z" fill="#2c2c34" stroke="#474751" stroke-width="0.8"/><path d="M138.8,216.2L147.3,224.6L139.8,238.3L135.7,247.5L122,251.9L117.5,261L108.8,263.8L90.5,242L103.5,224.3L116.8,213.3L128.2,207.6Z" fill="#2c2c34" stroke="#474751" stroke-width="0.8"/><path d="M220.2,0L218.6,4.6L192.9,34.4L192.9,34.4L179.9,31.8L171.6,35L159.9,30.5L149.9,30.2L134.4,18.3L115.4,14.3L109.2,0L220.2,0Z" fill="#2c2c34" stroke="#474751" stroke-width="0.8"/><path d="M109.2,0L115.4,14.3L134.4,18.3L149.9,30.2L149.9,30.2L115.4,49.6L93.4,69.5L85.3,87.3L78,97.4L64.6,99.5L60.4,112.4L57.9,120.9L42.3,127.2L22.4,125.9L10.7,118.2L0.4,115L0,115.2L0,0Z" fill="#2c2c34" stroke="#474751" stroke-width="0.8"/><path d="M285.5,0L290.3,8.2L295.1,23.6L295.4,31.5L299.7,30.2L299,56.1L295.1,68.5L300.8,73L297.2,84.1L287,93.7L266.8,102.8L237.4,117.4L226.7,127.4L228.8,138.8L235.1,140.7L233,155L214.4,154.8L212.3,142.7L208.7,130.5L206.7,120.8L211,90.8L204.6,71.8L192.9,34.4L218.6,4.6L220.2,0L285.5,0Z" fill="#2c2c34" stroke="#474751" stroke-width="0.8"/><path d="M211.4,133.7L211.9,134L214.1,135.3L214.3,137.8L214.1,140.6L213.7,142.4L213.9,144.2L214.6,147L215.3,149L215.5,157.7L214.7,157.3L213.3,157L212.6,157.1L211.8,161L211.3,166.9L211.7,170.5L206.4,170.6L199.7,170.2L195,168.7L189.8,165.2L186.7,159.8L185.4,156.4L183.5,156.2L183.2,155.7L183,151.5L183.1,147.2L183.4,146L186.9,140.7L189.1,137.5L190.4,134.3L193.3,130.5L196.5,128.1L197.6,127.8L198.4,127.9L203.8,131.2L209.6,134.3L210.8,133.9Z" fill="#b8e653" stroke="#0c0e06" stroke-width="1"/></svg>
