<svg xmlns="http://www.w3.org/2000/svg" viewBox="0 0 400 300"><path d="M285.3,300L285.7,299.6L288.6,295.7L290.5,294.1L290.4,291.7L288.8,290L288.3,287L290.5,286L290.9,281.6L288,277.4L290.6,276.5L298.8,276.6L314.2,276L314.2,276L315.4,276.8L342.7,292.1L343.2,296.5L348.2,300L285.3,300Z" fill="#2c2c34" stroke="#474751" stroke-width="0.8"/><path d="M175.2,300L177.7,297.8L179.7,295.4L179.4,289.2L182.7,281.9L186.1,278.1L191,274.4L191.9,272L192.1,269.3L193.3,266.7L192.9,262.4L193.9,255.8L195.3,251.1L197.6,247L198,242.5L198.7,237.2L201.6,233.4L205.7,231L211.9,233.5L216.6,236.3L222.1,237.1L227.7,238.5L230,234L231,233.4L234.4,234.2L242.8,230.4L245.8,232L248.2,231.8L249.3,229.9L252.1,229.3L257.8,230.1L262.6,230.3L265.1,229.5L269.6,235.7L273,236.6L275,235.3L278.5,235.8L282.7,234.2L284.5,237.4L291.1,242.5L290.6,251.3L293.6,252.3L291.2,255L288.3,256.9L285.5,260.9L283.9,264.4L283.5,270.4L281.7,273.3L281.7,278.9L279.5,281L279.2,285.5L278.2,286.1L277.5,290.2L279.4,293.6L279.7,300L175.2,300Z" fill="#2c2c34" stroke="#474751" stroke-width="0.8"/><path d="M400,254.7L390.6,260.9L383.6,266.7L375.3,275.8L373.6,279.7L371.9,281.5L371.9,281.5L367.4,275.3L367.4,247.9L373.9,239.4L376,237L380.8,236.9L387.5,231.5L397.3,231.2L400,228.3L400,254.7Z" fill="#2c2c34" stroke="#474751" stroke-width="0.8"/><path d="M348.2,300L343.2,296.5L342.7,292.1L315.4,276.8L314.2,276L314.1,268L316.2,265L319.9,260L322.7,254.5L319.4,245.9L318.5,242.1L314.9,236.9L319.5,232.4L324.6,227.4L328.6,228.7L328.6,232.9L331.1,235.4L336.3,235.4L345.9,241.8L348.2,241.9L350,241.7L351.7,242.5L356.7,243.1L358.9,240L365.8,236.8L368.8,239.4L373.9,239.4L367.4,247.9L367.4,275.3L371.9,281.5L366.6,284.5L364.8,287.6L362,288.2L360.9,293.5L358.5,296.5L357.5,300L348.2,300Z" fill="#2c2c34" stroke="#474751" stroke-width="0.8"/><path d="M244,206.8L238.3,203.5L235.7,201.3L235.2,198.9L236.4,195.7L236.4,192.6L232,187.8L231.2,184.6L231.3,182.7L228.5,180.5L228.4,176L226.9,173L224.2,173.5L225,170.6L226.9,167.4L226.1,164.2L228.5,161.8L227,160L229,155.2L232.4,149.5L238.9,150L238.5,118.7L238.6,115.4L247.2,115.4L247.2,99.3L277.5,99.3L306.6,99.3L336.4,99.3L338.9,107.2L337.2,108.7L338.3,116.9L341.1,126.4L343.9,128.4L348,131.3L344.2,135.8L338.7,137.1L336.3,139.5L335.6,144.7L332.3,156.2L333.2,159.3L331.9,165.9L328.9,173.5L324.4,177.4L321.1,183.2L320.4,186.3L316.8,188.5L314.6,196.5L314.7,203.3L314.6,197.4L313.6,197.2L313.7,193.4L312.8,190.8L308.9,187.8L308,182.3L308.9,176.6L305.4,176.1L304.9,177.8L300.4,178.2L302.2,180.4L302.8,185L298.7,189.2L295,194.7L291.1,195.5L284.8,191.1L282,192.7L281.2,194.9L277.3,196.3L277.1,197.9L269.6,197.9L268.5,196.3L263.1,196.1L260.4,197.4L258.3,196.7L254.5,192.3L253.2,190.2L247.8,191.2L245.7,194.7L243.8,201.6L241.2,203L238.9,203.8Z" fill="#2c2c34" stroke="#474751" stroke-width="0.8"/><path d="M0,151L17.7,150.9L19.4,145.4L18.1,144.5L14.5,110.2L10.8,75L22.3,74.9L47.7,92.8L73,110.5L74.8,114.2L79.5,116.5L83,117.8L83.1,122.9L91.4,122.1L91.4,140.3L87.3,145.6L86.7,150.4L80,151.6L69.7,152.3L67,155L62.2,155.4L57.4,155.4L55.5,153.9L51.3,155L44.3,158.2L42.9,160.6L37,164.1L36,166.1L32.9,167.7L29.2,166.7L27.2,168.5L26.1,173.8L20.1,180.2L20.3,182.8L18.2,186L18.7,190.5L15.6,191.6L13.9,192.6L12.7,189.3L10.5,190.2L9.2,190L7.9,192.2L2,192.2L0,191L0,151Z" fill="#2c2c34" stroke="#474751" stroke-width="0.8"/><path d="M0,58.9L22.3,74.9L10.8,75L14.5,110.2L18.1,144.5L19.4,145.4L17.7,150.9L0,151L0,58.9Z" fill="#2c2c34" stroke="#474751" stroke-width="0.8"/><path d="M79.6,221.7L73.4,222.6L71.5,217.4L71.9,199.9L70.3,198.4L70,194.6L67.4,192L65.1,189.7L66.1,185.7L68.7,184.8L70.2,181.5L73.9,180.7L75.5,178.5L78.1,176.2L80.8,176.2L86.5,180.6L86.2,183.2L87.9,187.7L86.4,190.8L87.2,192.8L83.5,197.5L81.2,199.9L79.8,204.7L80,209.5Z" fill="#2c2c34" stroke="#474751" stroke-width="0.8"/><path d="M171,92.3L172.8,104.9L175.6,107L175.7,109.5L178.9,112.3L177.2,115.7L174.3,131.8L173.9,142.1L164.4,149.5L161.1,159.7L164.2,162.6L164.2,167.6L169,167.7L168.3,171.4L166.2,171.8L165.9,174.3L164.5,174.4L159.4,166L157.7,165.7L151.8,170L146,167.7L141.9,167.3L139.8,168.4L135.4,168.2L130.9,171.4L127.1,171.6L118,167.6L114.4,169.5L110.6,169.4L107.8,166.5L100.2,163.6L92.2,164.5L90.2,166.2L89.2,170.6L87,173.7L86.5,180.6L80.8,176.2L78.1,176.2L75.5,178.5L75.7,173.2L67,171.4L66.8,167.7L62.6,162.6L61.6,159.1L62.2,155.4L67,155L69.7,152.3L80,151.6L86.7,150.4L87.3,145.6L91.4,140.3L91.4,122.1L102,118.6L123.8,102.8L149.5,87.3L161.4,90.8L165.6,95.3Z" fill="#2c2c34" stroke="#474751" stroke-width="0.8"/><path d="M79.6,221.7L80,209.5L79.8,204.7L81.2,199.9L83.5,197.5L87.2,192.8L86.4,190.8L87.9,187.7L86.2,183.2L86.5,180.6L87,173.7L89.2,170.6L90.2,166.2L92.2,164.5L100.2,163.6L107.8,166.5L110.6,169.4L114.4,169.5L118,167.6L127.1,171.6L130.9,171.4L135.4,168.2L139.8,168.4L141.9,167.3L146,167.7L151.8,170L157.7,165.7L159.4,166L164.5,174.4L165.9,174.3L168.9,177.3L168.1,178.7L167.7,181.3L161.4,187.2L159.4,192.1L158.3,196L156.7,197.7L155.2,203.1L151.2,206.2L150,210L148.3,213.1L147.6,216.3L142.4,218.8L138.2,215.7L135.4,215.8L130.9,220.2L128.7,220.3L125.2,227.6L123.2,232.9L115.4,235.7L112.6,235.3L109.7,236.9L103.7,236.8L99.6,232.1L97.2,226.6L91.9,221.6L86.2,221.7Z" fill="#2c2c34" stroke="#474751" stroke-width="0.8"/><path d="M168.3,171.4L171.3,176.3L171.8,181.4L171.5,186.5L175.6,193.4L171.4,193.4L169.3,193.9L165.9,193.1L164.2,196.7L168.7,201.2L171.9,202.5L173,205.6L175.4,210.9L174.2,212.9L170.4,220.6L168.6,222L168,227.8L168.8,231L168.2,233.2L171.7,237.2L172.3,239.9L175.1,243.8L178.6,246.2L178.9,249.6L179.7,251.8L179.1,255.9L173.2,254.1L167.1,252.1L157.6,251.8L156.7,251.4L152.2,252.4L147.7,251.4L144.1,251.8L131.9,251.7L133,245.7L130,240.8L126.6,239.5L125.1,236.1L123.1,235L123.2,232.9L125.2,227.6L128.7,220.3L130.9,220.2L135.4,215.8L138.2,215.7L142.4,218.8L147.6,216.3L148.3,213.1L150,210L151.2,206.2L155.2,203.1L156.7,197.7L158.3,196L159.4,192.1L161.4,187.2L167.7,181.3L168.1,178.7L168.9,177.3L165.9,174.3L166.2,171.8Z" fill="#2c2c34" stroke="#474751" stroke-width="0.8"/><path d="M66.1,185.7L65.1,189.7L67.4,192L70,194.6L70.3,198.4L71.9,199.9L71.5,217.4L73.4,222.6L67.3,224.2L65.6,221.6L63.6,216.8L63,213L64.7,206.2L62.8,203.4L62.1,197.4L62.1,191.8L59,187.9L59.5,185.5Z" fill="#2c2c34" stroke="#474751" stroke-width="0.8"/><path d="M59.5,185.5L59,187.9L62.1,191.8L62.1,197.4L62.8,203.4L64.7,206.2L63,213L63.6,216.8L65.6,221.6L67.3,224.2L55.5,228.6L51.3,231.2L44.6,233.4L37.9,231.3L38.2,228.3L34.9,221.8L36.9,213.2L40.1,206.9L38.1,196L37.1,190.3L37.2,185.9L50.3,185.6L53.6,186.1L56.1,184.9Z" fill="#2c2c34" stroke="#474751" stroke-width="0.8"/><path d="M0,191L2,192.2L7.9,192.2L9.2,190L10.5,190.2L12.7,189.3L13.9,192.6L15.6,191.6L18.7,190.5L22.1,192.1L23.4,194.7L26.8,196.3L29.4,194.3L32.9,194.1L38.1,196L40.1,206.9L36.9,213.2L34.9,221.8L38.2,228.3L37.9,231.3L34.5,231.3L29.2,229.9L24.4,230L15.5,231.3L10.3,233.4L2.8,236.2L1.4,236L2,229.8L2.7,228.9L2.5,225.9L0,223.5L0,204.3L0,204.3L0.5,204.2L0,202.6L0,191Z" fill="#2c2c34" stroke="#474751" stroke-width="0.8"/><path d="M0,202.6L0.5,204.2L0,204.3L0,202.6Z" fill="#2c2c34" stroke="#474751" stroke-width="0.8"/><path d="M0,223.5L2.5,225.9L2.7,228.9L2,229.8L1.4,236L0,236.1L0,223.5Z" fill="#2c2c34" stroke="#474751" stroke-width="0.8"/><path d="M18.7,190.5L18.2,186L20.3,182.8L20.1,180.2L26.1,173.8L27.2,168.5L29.2,166.7L32.9,167.7L36,166.1L37,164.1L42.9,160.6L44.3,158.2L51.3,155L55.5,153.9L57.4,155.4L62.2,155.4L61.6,159.1L62.6,162.6L66.8,167.7L67,171.4L75.7,173.2L75.5,178.5L73.9,180.7L70.2,181.5L68.7,184.8L66.1,185.7L59.5,185.5L56.1,184.9L53.6,186.1L50.3,185.6L37.2,185.9L37.1,190.3L38.1,196L32.9,194.1L29.4,194.3L26.8,196.3L23.4,194.7L22.1,192.1Z" fill="#2c2c34" stroke="#474751" stroke-width="0.8"/><path d="M265.1,229.5L262.6,230.3L257.8,230.1L252.1,229.3L249.3,229.9L248.2,231.8L245.8,232L242.8,230.4L234.4,234.2L231,233.4L230,234L227.7,238.5L222.1,237.1L216.6,236.3L211.9,233.5L205.7,231L201.6,233.4L198.7,237.2L198,242.5L193.2,242.1L188.1,240.8L183.6,244.8L179.7,251.8L178.9,249.6L178.6,246.2L175.1,243.8L172.3,239.9L171.7,237.2L168.2,233.2L168.8,231L168,227.8L168.6,222L170.4,220.6L174.2,212.9L180.4,212.3L181.8,210.4L183,210.5L184.9,212.3L194.4,209.3L197.6,206.4L201.5,203.7L200.7,201.1L202.8,200.4L210.1,200.8L217.2,197.3L222.6,189L226.4,185.9L231.2,184.6L232,187.8L236.4,192.6L236.4,195.7L235.2,198.9L235.7,201.3L238.3,203.5L244,206.8L248.1,209.9L248.2,212.3L253.2,216.3L256.4,219.5L258.3,224.1L263.9,227.1Z" fill="#2c2c34" stroke="#474751" stroke-width="0.8"/><path d="M143.7,300L142.7,298.8L148.5,294.6L145.6,289.6L148.2,287.8L153.2,286.8L153.9,283.5L157.9,287.1L164.5,287.4L166.8,283.9L167.8,278.9L166.9,273L163.4,268.6L166.6,259.8L164.8,258.4L159.2,259L157.1,255.1L157.6,251.8L167.1,252.1L173.2,254.1L179.1,255.9L179.7,251.8L183.6,244.8L188.1,240.8L193.2,242.1L198,242.5L198,242.5L197.6,247L195.3,251.1L193.9,255.8L192.9,262.4L193.3,266.7L192.1,269.3L191.9,272L191,274.4L186.1,278.1L182.7,281.9L179.4,289.2L179.7,295.4L177.7,297.8L175.2,300L143.7,300Z" fill="#2c2c34" stroke="#474751" stroke-width="0.8"/><path d="M144.1,251.8L147.7,251.4L152.2,252.4L156.7,251.4L157.6,251.8L157.1,255.1L159.2,259L164.8,258.4L166.6,259.8L163.4,268.6L166.9,273L167.8,278.9L166.8,283.9L164.5,287.4L157.9,287.1L153.9,283.5L153.2,286.8L148.2,287.8L145.6,289.6L148.5,294.6L142.7,298.8L135,291.2L130,285L125.5,277.2L125.7,274.7L127.4,272.3L129.2,266.8L130.7,261.3L133.2,260.8L144.2,260.9Z" fill="#2c2c34" stroke="#474751" stroke-width="0.8"/><path d="M131.9,251.7L144.1,251.8L144.2,260.9L133.2,260.8L130.7,261.3L129.3,260.1Z" fill="#2c2c34" stroke="#474751" stroke-width="0.8"/><path d="M279.7,300L279.4,293.6L277.5,290.2L282.1,290.8L284.4,286.5L288.3,287L288.3,287L288.8,290L290.4,291.7L290.5,294.1L288.6,295.7L285.7,299.6L285.3,300L279.7,300Z" fill="#2c2c34" stroke="#474751" stroke-width="0.8"/><path d="M327.8,8.5L326.5,11.3L323.8,10L322.2,15.9L324.1,16.9L322.2,18.1L321.8,20.5L325.4,19.3L325.6,22.7L321.8,36.6L321.1,34.4L316.9,21.6L319.1,18.8L318.5,18.2L320.5,14.1L322.1,7.4L323.1,5.1L323.4,5L325.9,5.1L326.5,3.5L328.6,3.4L328.7,7L327.7,8.4Z" fill="#2c2c34" stroke="#474751" stroke-width="0.8"/><path d="M329.8,0L328.6,3.4L328.6,3.4L326.5,3.5L325.9,5.1L323.4,5L325.2,0L329.8,0Z" fill="#2c2c34" stroke="#474751" stroke-width="0.8"/><path d="M325.4,19.3L321.8,20.5L322.2,18.1L324.1,16.9L322.2,15.9L323.8,10L326.5,11.3L326.5,16.7Z" fill="#2c2c34" stroke="#474751" stroke-width="0.8"/><path d="M141.4,0L142.8,3.2L145.7,4.6L145.3,11.5L141.6,14L139.3,16.9L134.1,20.3L134.9,23.9L134.3,27.6L130.6,29.6L130.6,29.6L127.4,13.8L122.8,10.3L122.7,8.1L116.6,2.8L116.3,0L141.4,0Z" fill="#2c2c34" stroke="#474751" stroke-width="0.8"/><path d="M0,39.2L6.3,35.9L13.8,34.6L19.9,32.3L22.8,27.9L31.6,24.5L31.9,18L36.3,17.2L39.7,13.9L49.5,12.4L50.9,9L48.9,7.1L47,0L116.3,0L116.3,0L116.6,2.8L122.7,8.1L122.8,10.3L127.4,13.8L130.6,29.6L133,37.3L133.4,41.3L132.1,48.3L132.7,52.1L131.7,56.8L132.4,62.1L129.4,65.6L133.8,71.7L134.1,75.2L136.8,79.8L140.3,78.3L146.2,82.1L149.5,87.3L123.8,102.8L102,118.6L91.4,122.1L83.1,122.9L83,117.8L79.5,116.5L74.8,114.2L73,110.5L47.7,92.8L22.3,74.9L0,58.9L0,39.2Z" fill="#2c2c34" stroke="#474751" stroke-width="0.8"/><path d="M326.5,11.3L327.8,8.5L336.2,12L350.9,2.4L353.9,13.3L352.5,14.7L337.5,19.1L344.9,27.9L342.5,29.4L341.2,32.3L335.5,33.5L333.7,36.6L330.4,39.2L322.1,37.9L321.8,36.6L325.6,22.7L325.4,19.3L326.5,16.7Z" fill="#2c2c34" stroke="#474751" stroke-width="0.8"/><path d="M400,39.6L395.4,39.4L374.2,21.9L363,15.7L353.9,13.3L353.9,13.3L350.9,2.4L355.2,0L400,0Z" fill="#2c2c34" stroke="#474751" stroke-width="0.8"/><path d="M355.2,0L350.9,2.4L336.2,12L327.8,8.5L327.8,8.5L327.7,8.4L328.7,7L328.6,3.4L329.8,0L355.2,0Z" fill="#2c2c34" stroke="#474751" stroke-width="0.8"/><path d="M333.2,159.3L332.3,156.2L335.6,144.7L336.3,139.5L338.7,137.1L344.2,135.8L348,131.3L352.4,140.4L354.5,147.6L358.6,151.4L368.8,158.8L373,163.2L377.1,167.6L379.4,170.3L383.1,172.6L380.9,174.5L377.7,173.8L375.1,171.3L372,166.8L368.7,164.3L366.7,161.6L360.2,158.5L355,158.4L353.2,156.8L348.8,158.6L344.2,155.1L341.9,160.9Z" fill="#2c2c34" stroke="#474751" stroke-width="0.8"/><path d="M400,170.3L398.6,170.6L397.5,172.6L393.8,172.4L391.4,173.5L386.2,173.1L384.2,168.6L384.4,164.4L383.2,162.1L381.7,156.3L379.6,153.1L381.1,152.8L380.3,149.2L381.2,147.7L380.9,144.3L384.2,141.8L383.4,138.5L385.4,134.6L388.5,136.6L390.5,135.9L399.2,135.7L400,136.2L400,170.3Z" fill="#2c2c34" stroke="#474751" stroke-width="0.8"/><path d="M400,136.2L399.2,135.7L390.5,135.9L388.5,136.6L385.4,134.6L383.4,138.5L384.2,141.8L380.9,144.3L379.9,140.9L377.6,138.6L377,135.4L373.2,132.6L369.2,126L367,119.5L361.8,114L358.5,112.7L353.5,105L352.6,99.4L353,94.6L348.7,85.5L345.1,82.3L341.1,80.6L338.6,75.9L339,74L336.9,69.7L334.7,67.8L331.8,61.6L327.2,54.8L323.4,48.9L319.6,49L320.8,44.3L321.1,41.3L322.1,37.9L322.1,37.9L330.4,39.2L333.7,36.6L335.5,33.5L341.2,32.3L342.5,29.4L344.9,27.9L337.5,19.1L352.5,14.7L353.9,13.3L363,15.7L374.2,21.9L395.4,39.4L400,39.6L400,136.2Z" fill="#2c2c34" stroke="#474751" stroke-width="0.8"/><path d="M47,0L48.9,7.1L50.9,9L49.5,12.4L39.7,13.9L36.3,17.2L31.9,18L31.6,24.5L22.8,27.9L19.9,32.3L13.8,34.6L6.3,35.9L0,39.2L0,0.6L0,0.6L1,0L47,0Z" fill="#2c2c34" stroke="#474751" stroke-width="0.8"/><path d="M336.4,99.3L306.6,99.3L277.5,99.3L247.2,99.3L247.2,69L247.2,38.9L245,31.9L246.9,26.5L245.8,22.8L248.5,18.6L258.5,18.4L265.7,20.8L273.2,23.4L276.7,24.7L282.4,21.9L285.5,19.4L292.2,18.7L297.5,19.8L299.5,24.2L301.3,21.3L307.3,23.4L313.2,23.9L316.9,21.6L321.1,34.4L321.8,36.6L319.7,40.1L318.1,46.6L316.1,51L314.3,52.5L311.8,49.7L308.4,45.9L303,33.6L302.3,34.4L305.4,43.5L310,52L315.7,65.2L318.4,69.7L320.9,74.4L327.6,83.6L326.1,85L326.4,90.3L335.1,97.6Z" fill="#2c2c34" stroke="#474751" stroke-width="0.8"/><path d="M247.2,99.3L247.2,115.4L238.6,115.4L238.5,118.7L208.5,103.4L178.5,87.8L171,92.3L165.6,95.3L161.4,90.8L149.5,87.3L146.2,82.1L140.3,78.3L136.8,79.8L134.1,75.2L133.8,71.7L129.4,65.6L132.4,62.1L131.7,56.8L132.7,52.1L132.1,48.3L133.4,41.3L133,37.3L130.6,29.6L134.3,27.6L134.9,23.9L134.1,20.3L139.3,16.9L141.6,14L145.3,11.5L145.7,4.6L154.5,7.7L157.7,6.9L164,8.4L173.9,12.4L177.4,20.3L184.2,22L194.8,25.7L202.8,30L206.5,27.7L210.1,23.7L208.3,17L210.7,12.6L216.1,8.5L221.3,7.3L231.4,9.1L234,13.1L236.8,13.1L239.2,14.6L246.6,15.7L248.5,18.6L245.8,22.8L246.9,26.5L245,31.9L247.2,38.9L247.2,69Z" fill="#2c2c34" stroke="#474751" stroke-width="0.8"/><path d="M400,228.3L397.3,231.2L387.5,231.5L380.8,236.9L376,237L373.9,239.4L368.8,239.4L365.8,236.8L358.9,240L356.7,243.1L351.7,242.5L350,241.7L348.2,241.9L345.9,241.8L336.3,235.4L331.1,235.4L328.6,232.9L328.6,228.7L324.6,227.4L320.2,219.2L316.8,217.4L315.5,214.4L311.6,210.7L307,210.2L309.6,205.8L313.6,205.6L314.7,203.3L314.6,196.5L316.8,188.5L320.4,186.3L321.1,183.2L324.4,177.4L328.9,173.5L331.9,165.9L333.2,159.3L341.9,160.9L344.2,155.1L348.8,158.6L353.2,156.8L355,158.4L360.2,158.5L366.7,161.6L368.7,164.3L372,166.8L375.1,171.3L377.7,173.8L375,177.2L372.5,180.8L373.1,182.9L373.2,185.3L377.4,185.4L379.2,184.9L380.9,186.2L379.2,188.9L382,193.1L384.8,196.8L387.6,199.5L400,204.1L400,228.3Z" fill="#2c2c34" stroke="#474751" stroke-width="0.8"/><path d="M377.7,173.8L380.9,174.5L383.1,172.6L384.9,175L384.7,178.2L380.4,180L383.6,182.1L380.9,186.2L379.2,184.9L377.4,185.4L373.2,185.3L373.1,182.9L372.5,180.8L375,177.2Z" fill="#2c2c34" stroke="#474751" stroke-width="0.8"/><path d="M400,204.1L387.6,199.5L384.8,196.8L382,193.1L379.2,188.9L380.9,186.2L383.6,182.1L386.1,183.5L387.5,186.7L390.9,189.9L394.7,189.9L400,188.5L400,204.1Z" fill="#2c2c34" stroke="#474751" stroke-width="0.8"/><path d="M314.2,276L298.8,276.6L290.6,276.5L288,277.4L283.5,279.7L281.7,278.9L281.7,273.3L283.5,270.4L283.9,264.4L285.5,260.9L288.3,256.9L291.2,255L293.6,252.3L290.6,251.3L291.1,242.5L294.2,240.4L299,242.1L305,240.3L310.3,240.3L314.9,236.9L318.5,242.1L319.4,245.9L322.7,254.5L319.9,260L316.2,265L314.1,268Z" fill="#2c2c34" stroke="#474751" stroke-width="0.8"/><path d="M288,277.4L290.9,281.6L290.5,286L288.3,287L284.4,286.5L282.1,290.8L277.5,290.2L278.2,286.1L279.2,285.5L279.5,281L281.7,278.9L283.5,279.7Z" fill="#2c2c34" stroke="#474751" stroke-width="0.8"/><path d="M291.1,242.5L284.5,237.4L282.7,234.2L278.5,235.8L275,235.3L273,236.6L269.6,235.7L265.1,229.5L263.9,227.1L258.3,224.1L256.4,219.5L253.2,216.3L248.2,212.3L248.1,209.9L244,206.8L238.9,203.8L241.2,203L243.8,201.6L245.7,194.7L247.8,191.2L253.2,190.2L254.5,192.3L258.3,196.7L260.4,197.4L263.1,196.1L268.5,196.3L269.6,197.9L277.1,197.9L277.3,196.3L281.2,194.9L282,192.7L284.8,191.1L291.1,195.5L295,194.7L298.7,189.2L302.8,185L302.2,180.4L300.4,178.2L304.9,177.8L305.4,176.1L308.9,176.6L308,182.3L308.9,187.8L312.8,190.8L313.7,193.4L313.6,197.2L314.6,197.4L314.7,203.3L313.6,205.6L309.6,205.8L307,210.2L311.6,210.7L315.5,214.4L316.8,217.4L320.2,219.2L324.6,227.4L319.5,232.4L314.9,236.9L310.3,240.3L305,240.3L299,242.1L294.2,240.4Z" fill="#2c2c34" stroke="#474751" stroke-width="0.8"/><path d="M239.6,119.4L239.6,123L239.6,126.5L239.6,130L239.6,133.5L239.6,137.1L239.6,140.6L239.6,144.1L239.6,147.6L239.6,148.7L239.5,149.2L239.5,149.2L239.3,149.3L237.5,149L236.7,149L235.7,149.2L234,149.4L233,149.3L232.3,149.9L231.7,150.6L232,152.4L231.9,152.9L231.7,153.5L231.2,154L230.7,154.5L230.4,154.8L230.1,155.6L229.8,155.9L229.8,156.4L229.7,157L229.4,157.2L228.7,157.4L228.2,157.6L227.8,158L227.6,158.3L227.7,158.6L227.9,159.1L228,159.9L228.1,160.4L228.4,160.7L228.7,161L228.7,161.3L228.5,161.6L227.6,162.1L227.2,162.3L226.8,162.6L226.7,162.7L226,163.3L225.7,163.7L225.5,164.1L225.5,164.6L225.8,165.5L226.2,166.1L226.4,166.6L226.4,167.2L226.4,167.7L226.2,168.2L225.9,168.6L224.6,169.4L224,170.3L223.5,171.3L223.4,171.9L223.5,172.3L223.8,172.6L224.2,172.8L224.7,172.8L225.6,172.6L226.4,172.5L227.3,172.9L227.8,173.8L227.6,174.4L228,175.6L228.3,177L228.2,177.5L228.4,177.6L228.9,177.7L229.1,178.1L228.9,180.5L229.1,181.2L229.5,181.7L229.9,182L230.4,182.3L230.6,182.5L231.1,182.6L231.6,183L231.8,183.6L231.7,184.2L231.4,185.4L231.1,186.3L230.8,186.2L230.2,186L229.4,185.8L228.4,185.7L227.5,186L226.5,186.5L226.1,186.8L225.9,187L225.4,187L225,187L224.8,187.3L224.4,187.7L223,188.4L222.7,188.6L222.5,188.9L222.5,189.2L222.6,189.8L222.6,190.5L222.3,191.1L221.9,191.5L221.5,191.6L221.1,191.7L220.9,192L220.2,193.3L219.8,193.5L219.2,193.5L217.2,195.5L217,196.1L216.4,196.9L215.5,197.8L214.7,198.3L214.6,198.5L214.4,198.6L213.9,198.8L212.2,200L210.2,199.9L209.3,200.4L208.4,200.6L207.2,200.8L206.8,200.7L205.1,200.8L203.2,200.8L202.5,201L201.8,201.4L201.3,201.8L201.2,201.9L201.3,202L201.3,202.2L202.6,203.1L202.9,203.5L202.6,204L202.5,204L202.4,204.1L202.2,204.4L201.4,205.5L200.2,206.7L199.6,207L199.4,207.2L199.1,208.1L198.9,208.2L198.1,208.3L196.4,208.4L194.2,208.6L192.8,208.7L192,208.7L190.8,209.2L190.4,209.4L190.1,209.4L189,209.9L188,210.8L187.7,210.9L186.3,211.3L185.7,211.9L185.5,211.9L184.6,211.2L184,210.5L183.7,209.8L183.7,209.6L183.5,209.6L183.1,209.9L182.6,210.2L182.4,210.9L181,211.4L179.8,211.8L179.3,212.3L178.4,212.5L177.4,212.4L176.5,212.2L175.7,212.1L176.1,211.5L176.2,211.1L176.3,210.5L176.2,210.1L175.7,209.9L175.4,209.6L174.7,207.9L174,206.1L172.9,204.3L171.8,203.2L171,202.5L170.8,202.4L170.4,202.2L170.1,201.9L168.6,200.7L167.1,199.4L166.7,198.8L165.9,197.8L165,196.9L164.6,196.4L164.4,195.7L165,194.9L165.6,194.1L166.4,193.5L167.4,193.4L169,193.7L170.9,193.8L172.6,193.6L173.1,193.4L173.5,193.5L174.5,193.6L176.1,193.6L177,193.3L176.1,192.6L175.1,191.6L174.2,190.6L173.6,189.6L173.1,188.3L172.6,186.8L172.3,184.8L172.3,183.7L172.5,182.8L173,181.5L172.7,180.7L172.7,180.1L172.7,179.2L172.5,178.7L171.9,177.2L171.8,177L171.2,175.9L170.9,174.1L170.3,172.9L169.2,172.4L168.7,171.7L168.5,170.5L168,170.1L166.4,169.7L165,169.7L164.1,168.3L162.8,166.5L161.6,164.8L160.8,161.5L160.4,159.6L160.9,159L161.9,157.7L163.1,155.1L165.9,151L167.3,149L170.2,145.8L173.7,142L175.6,139.9L176,135.9L176.3,131.8L176.6,128.6L176.9,124.9L177.1,121.7L177.3,119.4L177.6,116.1L177.8,115.5L179.2,113L179.3,112.6L179.1,112.2L177.1,110L176.5,109.5L176.1,108.4L176.6,107.7L174.3,104L173.7,103.6L173.5,103.1L173.4,102.5L173.4,99.9L172.8,95.9L171.9,91.2L174.7,89.8L176.8,88.8L179.5,87.5L182,88.8L185.6,90.8L189.2,92.7L192.8,94.6L196.4,96.6L200,98.5L203.6,100.4L207.2,102.3L210.8,104.2L214.4,106.1L218,108L221.6,109.9L225.2,111.8L228.8,113.7L232.4,115.6L236,117.5Z" fill="#b8e653" stroke="#0c0e06" stroke-width="1"/></svg>
