<svg xmlns="http://www.w3.org/2000/svg" viewBox="0 0 300 300"><path fill="#e8e8ea" d="M232.3,86.4L232.3,93.8L232.3,101.1L232.3,108.4L232.3,115.8L232.3,123.1L232.3,130.4L232.3,137.7L232.3,144.9L232.3,147.3L232.2,148.3L232.1,148.4L231.8,148.6L228.1,147.9L226.4,147.9L224.2,148.4L220.8,148.7L218.7,148.6L217.1,149.8L216,151.4L216.5,154.9L216.4,156.1L216,157.3L214.9,158.4L213.9,159.3L213.3,160L212.5,161.6L212,162.4L212,163.4L211.9,164.5L211.2,165L209.7,165.4L208.6,165.9L207.9,166.7L207.3,167.3L207.6,168L208,169L208.3,170.6L208.4,171.5L209.2,172.3L209.6,172.9L209.8,173.5L209.3,174.1L207.4,175.2L206.7,175.7L205.8,176.2L205.4,176.5L204.1,177.6L203.4,178.5L203,179.3L203,180.5L203.7,182.1L204.5,183.6L204.8,184.6L205,185.8L204.9,186.9L204.5,187.9L203.8,188.8L201.2,190.4L199.9,192.2L198.9,194.4L198.6,195.6L198.9,196.4L199.5,197L200.3,197.4L201.4,197.5L203.2,197.1L205,196.9L206.8,197.6L207.9,199.5L207.5,200.8L208.1,203.2L208.8,206.1L208.8,207.1L209,207.5L210.2,207.7L210.4,208.4L210.1,213.5L210.6,214.9L211.4,216L212.2,216.5L213.1,217.2L213.6,217.6L214.6,217.8L215.8,218.7L216.1,219.9L216,221.1L215.3,223.7L214.8,225.4L214.2,225.3L212.8,224.9L211.1,224.5L209.1,224.2L207.1,224.9L205,225.9L204.4,226.6L203.8,226.9L202.9,226.9L202.1,227L201.6,227.7L200.8,228.4L197.8,229.9L197.2,230.4L196.8,230.9L196.8,231.5L197.1,232.7L197.1,234.3L196.4,235.5L195.6,236.3L194.7,236.6L194,236.8L193.5,237.3L191.9,240L191.3,240.6L189.8,240.5L185.9,244.6L185.5,245.9L184,247.6L182.2,249.5L180.6,250.4L180.4,250.8L179.9,251.1L178.9,251.6L175.4,253.9L171.2,253.8L169.4,254.7L167.6,255.2L164.9,255.6L164.1,255.5L160.7,255.7L156.8,255.7L155.2,256L153.8,256.9L152.7,257.7L152.5,257.9L152.7,258.3L152.7,258.5L155.5,260.4L156.1,261.4L155.5,262.3L155.1,262.4L155.1,262.5L154.6,263.2L153,265.3L150.5,267.9L149.3,268.6L148.7,269.1L148.1,270.8L147.6,271L145.9,271.2L142.6,271.4L137.9,271.9L135.1,272.1L133.3,272L130.9,273.2L130,273.5L129.5,273.6L127,274.7L125,276.4L124.3,276.8L121.5,277.5L120.3,278.7L119.8,278.8L118,277.2L116.7,275.8L116.2,274.3L116.1,273.9L115.7,273.9L114.8,274.6L113.9,275.3L113.5,276.7L110.5,277.7L108,278.5L106.9,279.5L105.1,280L102.9,279.8L101.1,279.4L99.4,279.2L100.2,278L100.6,277L100.6,275.9L100.5,275.1L99.5,274.7L98.8,274.1L97.4,270.4L95.9,266.6L93.7,262.9L91.4,260.6L89.7,259.1L89.2,258.9L88.4,258.5L87.8,258L84.7,255.5L81.5,252.7L80.7,251.4L79.1,249.5L77.3,247.5L76.4,246.6L75.9,245L77.2,243.5L78.5,241.6L80.1,240.4L82.2,240.3L85.6,240.8L89.4,241L93,240.6L94,240.3L95,240.4L96.9,240.8L100.4,240.7L102.2,240L100.2,238.7L98.2,236.6L96.3,234.4L95.1,232.4L94,229.8L93,226.6L92.4,222.3L92.5,220L92.8,218.3L93.8,215.5L93.2,213.9L93.3,212.6L93.2,210.7L92.9,209.7L91.5,206.5L91.2,206.1L90.1,203.9L89.6,200.2L88.2,197.7L86,196.5L84.8,195.1L84.4,192.5L83.5,191.8L80.1,191L77.3,191L75.3,188.1L72.6,184.3L70.1,180.9L68.6,174L67.7,170L68.7,168.8L70.7,166L73.3,160.5L79.1,152.1L82.1,147.8L88,141.4L95.2,133.4L99.3,129L100,120.8L100.7,112.1L101.3,105.5L101.9,97.7L102.4,91.2L102.8,86.4L103.4,79.6L103.9,78.3L106.8,72.9L107,72.2L106.4,71.3L102.4,66.8L101.1,65.8L100.4,63.4L101.4,62.1L96.5,54.4L95.3,53.5L94.8,52.5L94.7,51.1L94.6,45.8L93.3,37.4L91.6,27.6L97.4,24.8L101.7,22.7L107.3,20L112.5,22.8L119.9,26.8L127.5,30.8L135,34.8L142.5,38.8L149.9,42.8L157.4,46.8L164.9,50.8L172.4,54.8L179.9,58.8L187.4,62.7L194.9,66.7L202.3,70.6L209.8,74.6L217.3,78.5L224.9,82.4Z"/></svg>
