<svg xmlns="http://www.w3.org/2000/svg" viewBox="0 0 300 300"><path fill="#e8e8ea" d="M153,26.4L151.6,32L149,38.9L147.1,41.1L146,57.9L146.8,59.4L147.5,59.7L156,65.5L167,72.9L174.9,78.2L175.7,79.9L175.7,91L175.9,100.5L177.5,105.9L177.7,111.2L179.7,115.1L187.1,122.8L188.7,127.3L188.9,141.7L189.1,152.7L190,167.6L190,180L190,195.7L190,214.1L190,233.3L185.2,233.5L187.8,239.5L188.2,244.8L188.9,246.6L187.6,249.2L188.7,253.2L190.8,254.6L196.1,262.7L197.8,269.4L189.3,271.7L189.8,273.4L174,277.1L167.6,280L167.6,277.1L165.2,276.6L162.4,275.6L160.6,274.1L158.2,270.7L157.3,268.1L153.6,267.7L149,264.7L144.6,261.3L143.1,257.9L143.5,256.3L142.9,254.7L141.3,254.1L137.4,246.4L135,243.3L133.7,240.8L134.3,238.8L133.7,236.2L134.5,234.2L136.5,232.9L137.2,231.4L137.4,228.1L138.7,221.5L139.4,214.9L137.2,213.1L134.5,212.5L133,210.7L132.4,207.6L132.4,204.9L137.9,195.6L136.8,174L137.6,170.7L140,168.5L142.2,165.9L142,163.3L138.5,156.8L131.7,151.9L128.2,147.8L126.4,144.2L126,142.4L130,139.5L131.9,137.6L132.2,135.3L130.4,131.2L130.8,123.9L132.4,118.5L133.9,111.4L133.9,109.2L129.9,105L127.6,104.4L126,104.7L121.8,107.5L120.3,107.8L119.4,106.9L118.8,105.9L120.3,104.2L119.7,102.1L121,100.3L123.6,99.5L124.5,98.6L120.8,97.7L120.5,96.5L120.6,95.2L121.8,95.1L122.9,95.2L123.4,94.3L124,88.2L124.5,86.2L124.9,81.9L125.4,65.8L126.4,64.1L126.4,62.9L124,62.1L118.1,57.8L114.6,54.4L111.4,51L108.9,48.7L103.9,45.3L102.6,43L102.2,40.9L103.9,36.5L106.3,31.8L107.4,25L106.7,23.2L103.4,20L115.1,22.4L131.7,26.5L132.1,27.2L132.1,28.4L135,28.4L139.8,27Z"/></svg>
