<svg xmlns="http://www.w3.org/2000/svg" viewBox="0 0 400 300"><path d="M127.2,0L122.9,7.2L103.9,18.5L100.6,25L90.4,30.1L78.6,26.7L71.9,32.8L68.3,50L48.8,70.7L49.5,79.2L42.8,89.7L44.4,104.2L34.3,107.9L28.6,111L24.8,100.3L17.8,103.2L13.6,102.7L9.1,109.9L0,109.8L0,0Z" fill="#2c2c34" stroke="#474751" stroke-width="0.8"/><path d="M242.2,205.7L222.1,208.6L216,191.6L217.1,135L212.2,129.9L211.2,117.7L202.8,109L195.3,101.7L198.4,88.6L206.8,85.8L211.8,74.9L223.7,72.5L229.1,65.1L237.3,57.8L246.1,57.7L264.7,72.1L263.7,80.4L269.2,95.1L264.5,105.1L267,111.8L255.1,127.2L247.6,134.8L243,150.3L243.6,166Z" fill="#2c2c34" stroke="#474751" stroke-width="0.8"/><path d="M400,42.7L396.8,42.9L367.1,29.9L355.6,36.1L343.1,35.7L333.9,26.2L309.4,16.8L283.2,19.8L276.9,25.2L273.4,39.7L266.4,49.8L264.7,72.1L246.1,57.7L237.3,57.8L229.1,65.1L229.6,47.9L201.5,42.3L200.7,30.1L187,13.7L183.7,2.2L184,0L400,0Z" fill="#2c2c34" stroke="#474751" stroke-width="0.8"/><path d="M400,205.3L390.4,224.9L384.2,242.2L358.7,251.1L349.5,249.8L340.1,255.3L320.6,254.7L307.5,239.4L299.5,221.6L282.1,205.5L263.7,205.8L242.2,205.7L242.2,205.7L243.6,166L243,150.3L247.6,134.8L255.1,127.2L267,111.8L264.5,105.1L269.2,95.1L263.7,80.4L264.7,72.1L266.4,49.8L273.4,39.7L276.9,25.2L283.2,19.8L309.4,16.8L333.9,26.2L343.1,35.7L355.6,36.1L367.1,29.9L396.8,42.9L400,42.7L400,205.3Z" fill="#2c2c34" stroke="#474751" stroke-width="0.8"/><path d="M400,265.3L395.1,263.5L390.2,252.5L383.8,249L384.2,242.2L390.4,224.9L400,205.3L400,265.3Z" fill="#2c2c34" stroke="#474751" stroke-width="0.8"/><path d="M177,88L175.3,95.8L185.5,108.6L185.4,126.6L187.7,146.1L193.8,155.1L188.4,177.3L190.4,189.6L196.9,205.2L202.3,213.8L164,228.2L150.4,236.6L128.5,243.7L106.6,236.8L107.8,227.1L97.1,205.9L103.6,178.1L113.9,157.4L107.3,122.2L104,103.6L104.6,89.4L147,88.3L157.8,90.1L165.8,86.1Z" fill="#2c2c34" stroke="#474751" stroke-width="0.8"/><path d="M0,109.8L9.1,109.9L13.6,102.7L17.8,103.2L24.8,100.3L28.6,111L34.3,107.9L44.4,104.2L55.4,109.6L59.7,117.8L70.7,123L79.2,116.8L90.6,115.8L107.3,122.2L113.9,157.4L103.6,178.1L97.1,205.9L107.8,227.1L106.6,236.8L95.6,237L78.5,232.2L62.8,232.5L33.9,236.8L16.9,243.9L0,250.1L0,109.8Z" fill="#2c2c34" stroke="#474751" stroke-width="0.8"/><path d="M184,0L183.7,2.2L187,13.7L200.7,30.1L201.5,42.3L229.6,47.9L229.1,65.1L223.7,72.5L211.8,74.9L206.8,85.8L198.4,88.6L177,88L165.8,86.1L157.8,90.1L147,88.3L104.6,89.4L104,103.6L107.3,122.2L90.6,115.8L79.2,116.8L70.7,123L59.7,117.8L55.4,109.6L44.4,104.2L44.4,104.2L42.8,89.7L49.5,79.2L48.8,70.7L68.3,50L71.9,32.8L78.6,26.7L90.4,30.1L100.6,25L103.9,18.5L122.9,7.2L127.2,0L184,0Z" fill="#2c2c34" stroke="#474751" stroke-width="0.8"/><path d="M198.5,88.7L197.8,91.4L196.5,94.7L195.7,95.7L195.1,103.8L195.5,104.5L195.8,104.6L199.9,107.4L205.2,110.9L208.9,113.5L209.3,114.3L209.3,119.6L209.4,124.1L210.2,126.7L210.3,129.2L211.2,131.1L214.8,134.8L215.5,136.9L215.6,143.8L215.7,149L216.2,156.2L216.2,162.1L216.2,169.6L216.2,178.4L216.2,187.6L213.9,187.7L215.1,190.5L215.3,193.1L215.6,193.9L215,195.2L215.5,197.1L216.5,197.8L219.1,201.6L219.9,204.8L215.8,205.9L216.1,206.8L208.5,208.5L205.4,209.9L205.4,208.5L204.3,208.3L203,207.8L202.1,207.1L200.9,205.5L200.5,204.2L198.7,204L196.5,202.6L194.4,200.9L193.7,199.3L193.9,198.6L193.6,197.8L192.8,197.5L191,193.9L189.9,192.4L189.2,191.2L189.5,190.2L189.2,189L189.6,188L190.6,187.4L190.9,186.7L191,185.1L191.6,181.9L192,178.8L190.9,177.9L189.6,177.7L188.9,176.8L188.6,175.3L188.6,174L191.3,169.6L190.7,159.3L191.1,157.7L192.2,156.6L193.3,155.4L193.2,154.1L191.5,151L188.3,148.7L186.6,146.7L185.7,145L185.5,144.1L187.5,142.7L188.4,141.8L188.5,140.8L187.7,138.8L187.8,135.3L188.6,132.7L189.3,129.3L189.3,128.3L187.4,126.2L186.3,126L185.5,126.1L183.5,127.4L182.8,127.6L182.4,127.2L182.1,126.7L182.8,125.9L182.6,124.9L183.2,124L184.4,123.6L184.8,123.2L183.1,122.8L182.9,122.2L183,121.6L183.5,121.5L184.1,121.6L184.3,121.1L184.6,118.2L184.8,117.2L185,115.2L185.3,107.5L185.7,106.7L185.7,106.1L184.6,105.7L181.8,103.7L180.1,102.1L178.6,100.4L177.4,99.4L175,97.7L174.4,96.6L174.2,95.6L175,93.5L176.1,91.2L176.7,88L176.3,87.1L174.7,85.6L180.4,86.8L188.3,88.7L188.4,89.1L188.4,89.6L189.9,89.6L192.1,89Z" fill="#b8e653" stroke="#0c0e06" stroke-width="1"/></svg>
