<svg xmlns="http://www.w3.org/2000/svg" viewBox="0 0 400 300"><path d="M334.4,224.9L329.8,232.3L335.8,240.1L334.4,243.9L343.6,251.4L333.9,252.4L331.1,258L331.5,265.5L323.6,271.1L323.4,279.3L320.2,291.8L319,288.9L309.7,292.6L306.4,287.6L300.6,287.1L296.4,284.5L286.7,287.4L283.7,283.5L278.3,283.9L271.6,283L270.3,271.9L266.2,269.7L262.2,262.6L261.1,255.5L262.1,247.8L266.9,242.4L268.3,247.9L274,252.5L279.2,250.8L284.5,251.4L289.3,247.3L293.2,246.6L301,248.9L307.6,247.1L311.9,235.7L315,232.8L317.9,223.5L327.3,223.5ZM371.5,300L374.1,295.6L366.1,298.7L364,296.5L365.1,293.3L359.2,288.5L359.8,280.4L354.3,282.9L355,292.5L355.2,300L347.6,300L347.6,300L349,295.5L347.7,287.6L344.2,287.5L341.7,281.9L345.1,276.5L346.3,270L350.4,257.6L352.1,254.2L359.1,248.1L365.5,250.5L375.9,251.7L375.9,251.7L385.3,251.3L393.4,245.4L394.8,247.2L388.2,255.4L382.1,256.9L374.2,255.3L360.5,255.7L353.3,256.9L352.2,263.1L359.5,270.4L363.9,266.7L379.2,263.9L378.6,267.7L375,266.5L371.4,271.3L364.2,274.5L372,285L370.5,287.9L377.8,297.4L377.8,300L371.5,300ZM218.9,300L208.8,293.5L205.3,288.6L199.1,281.9L195,275.7L188.8,264.2L181.6,257.4L179.2,250.3L176.1,243.9L168.7,238.7L164.4,231.7L158.3,227.1L149.7,218L149,213.8L154.2,214.1L167,215.7L174.2,223.8L180.6,229.4L185.1,232.8L192.9,241.6L201.2,241.7L208.1,247.4L212.9,254.3L219.1,258L215.8,264.7L220.5,267.6L223.5,267.8L223.5,267.8L224.9,273.5L227.8,278.1L233.8,278.8L237.8,284L235.7,294.2L235.6,300L218.9,300Z" fill="#2c2c34" stroke="#474751" stroke-width="0.8"/><path d="M208.8,158L206.9,147.9L212.1,140.8L222.8,139.2L230.5,140.4L237.2,143.8L241,137.9L248.2,141L250.1,146.7L249.1,156.8L235.3,163.2L238.9,168.3L230.3,168.9L223.2,172.3L216.3,171.1L213,166.7Z" fill="#2c2c34" stroke="#474751" stroke-width="0.8"/><path d="M248.2,141L241,137.9L237.2,143.8L230.5,140.4L233.1,136.6L233.5,129.4L226.9,122L226.3,113.5L220.1,106.5L213.9,105.9L212.2,108.9L207.4,109.2L205,107.6L196.3,112.8L196.1,105.1L198.1,95.9L192.6,95.5L192.1,90.3L188.6,87.6L190.3,84.3L197.3,78.6L198,80.7L202.4,80.9L201.2,70.8L205.4,69.5L210.2,76.5L213.9,84.5L224,84.6L227.2,92.2L222,94.5L219.6,97.6L229.4,102.8L236.3,113L241.4,120.6L247.6,126.5L249.7,132.6Z" fill="#2c2c34" stroke="#474751" stroke-width="0.8"/><path d="M188.6,87.6L183.9,89.6L179.1,93.4L173.3,93.8L169.5,103.2L166.1,104.7L170,112.3L175.3,118.6L178.6,124.2L175.6,131.7L172.8,133.2L174.7,137.5L180.2,144.2L181.1,148.9L181,152.8L184.2,160.5L179.7,168.3L175.7,176.9L174.9,170.7L177.5,164.3L174.7,159.3L175.4,150.2L172,145.8L169.4,135.7L167.9,124.9L164.3,117.8L158.9,122.1L149.6,128.2L145,127.4L139.9,125.4L142.7,114.8L141,106.7L134.6,96.7L135.6,93.6L130.8,92.5L125,85.3L124.4,78.3L127.3,79.6L127.5,73.3L131.5,71.2L130.6,67.4L132.5,64.4L132.8,55.1L139.2,57.1L142.9,49.7L143.3,45.3L147.8,37.7L147.6,32.4L158.2,26.1L164.1,27.7L163.4,22L166.3,20.3L165.7,16.8L170.5,16.1L173.2,21.6L176.8,23.8L177,30.9L176.7,38.4L168.9,46L168,56.7L176.6,55.2L178.6,63.5L183.8,65.2L181.4,72.6L187.5,75.9L191,77.5L197,75L197.3,78.6L190.3,84.3Z" fill="#2c2c34" stroke="#474751" stroke-width="0.8"/><path d="M223.2,172.3L230.3,168.9L238.9,168.3L235.3,163.2L249.1,156.8L250.1,146.7L248.2,141L249.7,132.6L247.6,126.5L241.4,120.6L236.3,113L229.4,102.8L219.6,97.6L222,94.5L227.2,92.2L224,84.6L213.9,84.5L210.2,76.5L205.4,69.5L209.8,67.3L216.4,67.4L224.4,66.3L231.4,61.6L235.3,64.9L242.8,66.6L241.5,71.7L245.4,75.3L253.7,77.6L242.7,85.1L235.9,93.4L234.1,99.4L240.4,108.5L248.1,119.8L255.5,125.1L260.5,131.9L264.3,147.6L263.2,162.4L256.3,167.9L246.9,173.3L240.2,180.2L230,188L227,182.7L229.3,177Z" fill="#2c2c34" stroke="#474751" stroke-width="0.8"/><path d="M31,0L27.3,3L24.1,11.8L32.1,15.4L39.8,19.9L50.5,25.1L61.8,26.3L66.5,31L72.9,31.9L82.7,34L89.6,33.9L90.5,30.2L89.5,24.4L90.1,20.4L95.1,18.4L95.8,25.7L96,27.6L103.4,31.1L108.6,29.6L115.5,30.3L122.2,30L122.8,24.3L119.5,21.4L126.1,20.2L133.5,13.3L143,7.3L149.9,9.6L155.8,5.6L159.6,11.5L156.8,15.4L165.7,16.8L165.7,16.8L166.3,20.3L163.4,22L164.1,27.7L158.2,26.1L147.6,32.4L147.8,37.7L143.3,45.3L142.9,49.7L139.2,57.1L132.8,55.1L132.5,64.4L130.6,67.4L131.5,71.2L127.5,73.3L123.1,59.1L120.9,59.2L119.5,64.9L115,60.2L117.6,55.1L121.2,54.6L125,47L120.3,45.4L112.7,45.6L104.9,44.3L104.1,38L100.2,37.5L93.7,33.6L90.8,39.8L96.7,44.6L91.6,48L89.8,51.3L94.8,53.7L93.4,59.1L96.3,65.8L97.6,73.1L96.4,76.4L90.8,76.3L80.7,78.1L81.2,84.7L76.8,89.9L65,95.8L55.8,106L49.6,111.4L41.4,117.1L41.4,121L37.3,123.1L29.9,126.2L26.1,126.6L23.6,133.1L25.3,144.1L25.8,151.1L22.3,159.1L22.2,173.4L18,173.8L14.3,180.1L16.7,182.9L9.3,185.2L6.5,190.9L3.2,193.2L0,190L0,0Z" fill="#2c2c34" stroke="#474751" stroke-width="0.8"/><path d="M127.5,73.3L127.3,79.6L124.4,78.3L125,85.3L122.6,80.8L122.1,76.3L120.6,72L117.2,66.8L109.6,66.5L110.3,70.1L107.8,75.1L104.3,73.3L103.1,74.9L100.7,73.9L97.6,73.1L96.3,65.8L93.4,59.1L94.8,53.7L89.8,51.3L91.6,48L96.7,44.6L90.8,39.8L93.7,33.6L100.2,37.5L104.1,38L104.9,44.3L112.7,45.6L120.3,45.4L125,47L121.2,54.6L117.6,55.1L115,60.2L119.5,64.9L120.9,59.2L123.1,59.1Z" fill="#2c2c34" stroke="#474751" stroke-width="0.8"/><path d="M119.5,21.4L122.8,24.3L122.2,30L115.5,30.3L108.6,29.6L103.4,31.1L96,27.6L95.8,25.7L101.2,18.8L105.7,16.5L111.5,18.6L115.9,18.9Z" fill="#2c2c34" stroke="#474751" stroke-width="0.8"/><path d="M43.4,0L50.8,5.5L55.4,6.9L58.2,11.4L64.6,13.2L71.2,17.3L80.5,19.5L90.1,20.4L90.1,20.4L89.5,24.4L90.5,30.2L89.6,33.9L82.7,34L72.9,31.9L66.5,31L61.8,26.3L50.5,25.1L39.8,19.9L32.1,15.4L24.1,11.8L27.3,3L31,0L43.4,0Z" fill="#2c2c34" stroke="#474751" stroke-width="0.8"/><path d="M38.1,196.9L36.8,205.5L33.4,207.9L26.3,209.8L22.4,203.2L20.9,191.3L24.6,177.8L30.3,182.4L34.1,188.3Z" fill="#2c2c34" stroke="#474751" stroke-width="0.8"/><path d="M265.4,106.9L258.7,104.2L258.4,96.7L262.5,92.8L271.5,90.3L276.2,90.5L278,93.9L274.4,97.7L272.5,102.7ZM365.6,0L369,2.1L367.7,9.7L365.6,17.1L361.1,18L355.1,28L348.4,40L340.8,50.9L329.5,59.1L318.1,66.7L308.8,67.7L303.8,71.6L301,68.8L296.3,73.2L284.9,77.6L276.2,78.9L273.4,88.2L268.8,88.7L266.7,82.4L268.6,79L257.6,76.2L253.7,77.6L245.4,75.3L241.5,71.7L242.8,66.6L235.3,64.9L231.4,61.6L224.4,66.3L216.4,67.4L209.8,67.3L205.4,69.5L201.2,70.8L202.4,80.9L198,80.7L197.3,78.6L197,75L191,77.5L187.5,75.9L181.4,72.6L183.8,65.2L178.6,63.5L176.6,55.2L168,56.7L168.9,46L176.7,38.4L177,30.9L176.8,23.8L173.2,21.6L170.5,16.1L165.7,16.8L156.8,15.4L159.6,11.5L155.8,5.6L149.9,9.6L143,7.3L133.5,13.3L126.1,20.2L119.5,21.4L115.9,18.9L111.5,18.6L105.7,16.5L101.2,18.8L95.8,25.7L95.1,18.4L90.1,20.4L80.5,19.5L71.2,17.3L64.6,13.2L58.2,11.4L55.4,6.9L50.8,5.5L43.4,0L365.6,0Z" fill="#2c2c34" stroke="#474751" stroke-width="0.8"/><path d="M366.4,52.2L361.5,66.6L358,73.9L353.6,66.4L352.7,59.8L357.5,50.9L364.1,44.1L367.9,46.8Z" fill="#2c2c34" stroke="#474751" stroke-width="0.8"/><path d="M358.7,153.7L354.5,147.3L361.5,147.6L364.4,150.6L362.2,157.9ZM373.1,176.5L375.1,174.2L376,169L380.5,168.5L379.2,174.1L385.3,166L384.5,174L381.6,176.8L379,182L376.4,184.5L371.4,178.7ZM400,199.7L399.7,198.8L395.8,203L398.5,209.1L396.1,213L386.5,208.2L384.2,202.2L386.7,198.3L381.5,194.3L378.9,197.8L375,197.5L368.9,202.1L367.6,199.7L370.8,192.7L376,190.3L380.4,187.2L383.3,191L389.6,188.7L390.9,185L396.7,184.8L396.3,178.3L400,180.6L400,199.7ZM339.5,182L328.6,189.9L332.7,184.1L338.6,179L343.5,173.2L347.8,164.9L349.3,171.7L343.9,176.3ZM371,106.6L369.7,110.2L372.5,116.4L370.3,123.5L365.5,126.3L364.2,133.2L366,140L370.4,140.9L374,139.9L384.3,144.6L383.5,149.2L386.1,151.2L385.3,155.1L378.9,151L375.9,146.5L373.8,149.6L368.5,144.6L361.1,145.8L357,144L357.4,140.5L360,138.3L357.5,136.3L356.4,139.4L352.4,134.5L351.2,130.8L350.9,122.6L354.2,125.5L355,112L357.7,104.2L362.7,104.2L367.7,106.7L370.2,104.4ZM368.6,164.5L367.3,160.5L372.2,163.1L377.4,163.1L377.3,166.6L373.5,170.1L368.3,172.7L368,168.8ZM397,158.2L399.3,167.6L393,165.4L393.1,168.2L395.1,173.3L391.2,175.2L390.9,169.3L388.4,168.9L387.2,163.8L392,164.5L391.9,161.3L386.9,154.9L394.7,155.1Z" fill="#2c2c34" stroke="#474751" stroke-width="0.8"/><path d="M188.3,205.7L189.7,204.2L196.5,207.8L197.1,212.1L202.5,211.1L205.2,207.7L207.1,208.5L211.9,213.4L215.4,219L215.8,224.5L215,228.2L215.8,231.1L216.4,235.9L219.3,238.2L222.5,245.5L222.3,248.2L216.5,248.8L208.7,242.7L199,236.2L198.1,232L193.3,226.5L192.2,219.7L189.2,215.2L190.1,209.2ZM334.4,224.9L327.3,223.5L317.9,223.5L315,232.8L311.9,235.7L307.6,247.1L301,248.9L293.2,246.6L289.3,247.3L284.5,251.4L279.2,250.8L274,252.5L268.3,247.9L266.9,242.4L273,245.2L279.3,243.7L281,236.7L284.5,235.2L294.3,233.4L300.2,226.9L304.2,221.7L308,225.9L309.7,223.1L313.6,223.4L314.1,218.1L314.5,214.1L320.8,208.3L324.9,201.9L328.2,201.8L332.5,206L332.9,209.6L338.3,211.9L345.1,214.4L344.5,217.6L339,218L340.5,222.1Z" fill="#2c2c34" stroke="#474751" stroke-width="0.8"/><path d="M314.5,214.1L314.1,218.1L313.6,223.4L309.7,223.1L308,225.9L304.2,221.7L307.5,218.6Z" fill="#2c2c34" stroke="#474751" stroke-width="0.8"/><path d="M209,162.3L208.9,163.2L208.4,162.8L208.5,162.4L208.7,162.2ZM207.5,159.7L207.6,159.9L207.2,159.8L207,159.8L206.5,159.8L206.3,158.6L206.3,158.3L206.7,158.4L207.2,159L207.4,159.4ZM174.6,193.8L174.5,194.4L174.1,194.4L173.8,194.8L173.6,194.8L173.3,193.6L173.7,191.8L173.8,191.6L174.1,192L174.8,192.3L174.5,193.3ZM188.6,88.4L188.6,89L188.8,89.1L189,88.8L189.4,88.2L189.8,87.9L190.2,87.8L190.7,88.2L191.2,89.1L191.7,89.6L191.9,89.7L192,90.1L192.1,90.4L191.8,91.3L191.5,92.2L190.9,93.3L191.1,94.3L191.8,95.1L192.8,95.6L193.7,95.4L194.2,95.2L194.7,94.8L195.1,94.7L195.5,94.6L197.1,94.9L197.6,95.2L197.6,95.7L197.5,97.1L197.7,98.1L198.1,99.1L198.2,100.1L197.6,101.7L197.2,103.2L196.7,104L196.3,104.4L196.2,104.8L196.2,105.1L196.6,105.5L197,106.1L197,106.7L197,107.4L196.7,108.3L195.8,110.3L195.1,112.2L195.5,112.5L196.2,112.8L196.7,113.1L197.2,112.9L198.3,111.8L199.2,111L200.4,110.2L200.4,110.1L201.5,109.5L201.9,109L202.2,108.3L202.5,108L203,108.2L203.6,107.9L204.3,107.1L204.9,106.8L205.3,106.8L205.9,107.3L206.9,108.2L207.8,108.7L208.6,108.9L209,109.2L208.9,109.7L209.1,110L209.5,110.2L209.6,110.1L209.6,109.9L209.9,109.5L210.7,109.1L211.4,108.8L212.2,108.7L212.7,108.3L213,107.4L213.5,106.7L213.9,106.3L214.4,106.2L214.5,105.9L214.3,105.6L214.3,105.4L214.6,105L215.3,104.9L216.3,105L217.4,105.3L218.7,105.8L219.6,106L220,105.8L220.9,106.7L222.1,108.7L223.1,110.2L224,111.2L224.9,112L225.8,112.5L226.5,113.2L227.2,114.6L226.7,116.5L226.6,118.2L226.6,120.2L227.2,121.8L228.3,122.8L228.9,123.7L229.1,124.4L229.9,125L231.4,125.4L232,125.9L231.7,126.2L231.7,126.7L232,127.2L232.5,127.6L233.3,128L233.8,128.3L233.9,128.7L233.9,129.3L233.7,130.1L233.4,130.8L232.9,131.2L232.8,131.6L232.7,132.1L232.7,133.2L233,133.9L233.2,134.9L233,135.6L232.8,137.2L232.7,137.8L232.6,138.3L232.1,138.8L231.5,139.2L230.7,139.6L230.2,139.8L230.1,139.9L229.7,140.4L229.3,140.8L228.9,140.8L228.7,140.6L228.5,140.3L228.4,139.7L227.7,139.3L226.8,139.1L225.2,139.5L223.8,139.6L222.3,139.4L220.9,139.7L220.3,139.7L219.6,139.7L219,139.7L218.3,139.6L217.2,139.2L216.7,139.2L215.8,139.6L214.8,139.8L213.9,139.9L212.5,140.6L211.5,141.6L211.2,142.3L210.7,143L210,144.1L209.1,145.2L208.5,145.6L208.7,145.9L208.5,146.3L207.6,146.4L206.8,146.5L206.7,146.6L206.7,148.8L207,149.6L207.5,150.5L207.8,151.1L208.1,152.6L208.1,154L209.2,154.8L209.8,155.5L210.2,156L210.1,156.4L209.8,157.5L210.1,158.9L211.6,161.9L211.7,162.1L211.5,162.1L211.3,161.5L210.5,160.5L210.3,159.5L209.4,158.4L208.9,157.9L208.7,158.3L208.5,158.7L207.6,158.1L206.9,157.5L206.2,156.3L206.1,156.6L205.9,156.8L205.1,155.9L204.3,155.1L203.6,154.9L203.1,154.6L202.7,154.2L201.8,153.8L199.5,154.4L196.6,153.9L195.4,154.4L195,154.1L194.7,153.6L195,152.7L195,150.9L195.4,149.6L195.2,148.6L195.4,148.2L195.5,147.6L195.1,147.3L193,146.8L192.6,146.4L192,146.9L189.5,147.1L188.6,147.5L187.8,148.2L187.5,149.2L188,149.8L188.4,150.8L187.5,153.1L187.3,153.8L187.7,156.6L187.5,158.2L187.1,159.2L186.3,160.1L186,161.7L185.4,162.4L184.5,164.1L184,166.2L183.6,167.1L183.4,168.9L181.7,171.6L181.4,173.1L180.8,173.7L181,174.1L181,174.9L180.8,176.9L180.7,178.6L181,179.4L181.8,181.2L181.6,181.7L181.5,182.5L182.1,182.8L182.7,182.9L185.3,182L186.3,182.3L186.6,183L186.8,183.7L187.3,187.4L187.5,188.1L188.1,188.7L188.7,189.4L188.9,189.3L188.9,189L188.9,188.7L189.5,189.4L189.9,190.7L191.3,197.6L191.8,198.5L192.1,199.4L191.2,198.9L191,197.4L190.7,196.8L190.4,196.7L190,196.7L189.9,196.4L190.3,195.9L190.2,195.3L189.7,194.8L188.9,195.2L188.9,196.3L189.3,197.1L190.7,198.9L191.1,199.7L191.6,199.9L192.4,199.8L193.4,200.6L194.1,201.3L196,202.4L197.1,202.3L198.3,202L199.1,202.1L199.9,202.4L200.9,203.3L202.4,205.6L204.9,207.5L204.6,208L204.5,208.7L203.5,209.7L203.4,210.2L203,211L202.3,211.3L201.7,211.4L201.4,211.3L201.2,211.2L200.8,210.5L200.6,210.3L200.4,210.3L199.1,210.7L197.9,211.2L197.7,211.7L197.4,212.2L197,212.5L196.7,212.5L196.5,212.2L196,211.8L195.7,211.4L195.8,210.8L196.5,209.9L196.5,209.2L196.5,208.1L196.3,207.5L196.1,207.5L195.7,207.4L194.8,207.5L194.3,206.8L194.1,206L193.8,205.7L193.5,205.5L192.8,205.8L192.3,205.6L190.5,205L189.8,203.9L189.4,203.8L189.1,204L188.9,204.2L188.7,205.5L188.6,205.9L186.6,203.3L185.1,202.3L185.3,200.4L184.9,200L184.4,200L184,199.4L184.3,198.3L183.7,198.5L183,198.5L182.4,198.2L181.9,196.6L181.6,196.1L180.9,195.3L180,195.3L179.8,194.9L179.8,193.9L179.2,193.3L178.4,192.8L177.7,192.5L177,190.8L176.4,190.4L175.9,190.1L175.3,190.3L175.1,190.9L174.6,191.5L174.2,191.4L173.7,191.1L173.2,189.4L173,188.5L173.2,186.6L173.9,184.9L174.3,182.3L174.8,180.6L175.2,180L175.8,177.7L177,174.7L177.1,174.1L177.3,173.4L177.5,172.7L177.6,171.7L177.4,171.1L177.4,170.8L177.7,170.4L178.5,169.8L179.6,168.7L181,167.1L182.4,164.7L183,163.4L183.3,162.9L183.6,162.7L184.1,162.2L184.4,161.7L184.5,161.4L183.7,158.9L183.2,158L182.9,157L182.8,156.3L182.7,155.6L182.7,155L182.5,154.6L181.9,154.1L181.2,153.4L180.8,152.2L180.8,151.5L180.4,150.9L180.3,150.3L180.5,149.7L180.8,149.2L180.8,147L180.7,146.3L180.5,145.2L180.1,144.3L179.5,143.2L178.9,142.3L177.1,140.8L175.9,139.7L175.3,138.7L174.5,137.7L173.9,136.9L173.2,135.9L172.9,134.5L172.7,133L172.8,132.5L173.1,132.2L173.5,132L173.9,131.9L174.9,131.2L175.6,131.3L175.8,131.1L175.8,130.8L175.7,129.5L175.8,127.7L175.9,126.3L176.1,125.3L177.9,124.2L178.3,123.7L178.5,123.2L178.5,122.7L178.3,122.4L178.1,122.2L176.9,123.1L176.6,122.9L176.1,121.3L175.8,120.9L175.5,120.3L175.1,119.5L175.1,118.1L174.8,117.4L173.3,115.9L172.6,115.1L171.7,114L170.6,112.6L169.5,111.3L169,110.5L168.8,110.3L168.7,110L169.1,109.1L168.9,108.3L168.3,107.1L168.1,106.4L168.2,106.1L167.9,106L167.3,106L166.7,105.5L166.1,104.3L166.1,104.1L166.2,104.1L167,104.3L167.2,104.3L167.7,104L168.5,103.7L169,103.6L169.1,103.5L169.2,103.2L168.8,100.5L168.8,100L169.6,98.8L169.5,97.6L169.7,95.9L170.5,94.8L171.1,94.2L171.3,93.4L171.6,93.2L172.1,93.3L173.2,93.9L173.6,93.9L174.3,93.9L174.9,93.9L175.3,93.8L177.4,93.2L177.9,93.1L178.4,93.2L178.7,93.2L179.1,92.9L179.3,92.4L179.6,90.9L179.7,90.6L180,90.3L180.5,90.2L181,90.2L181.7,90.5L182.2,90.5L182.7,90.4L183.1,90.2L183.4,89.9L183.5,89.6L183.4,88.9L183.1,88.1L183.2,88L183.8,88.2L184.7,88.4L185.3,88.4L185.8,88.2L186.2,87.9L186.7,87.5L187.2,87.6L187.6,87.9ZM188.2,178.9L188.1,179L187.8,178.7L187.6,178.4L187.5,178.1L188,178.1L188.2,178.4ZM188.2,179.8L188.2,180.3L188.1,180.8L187.3,181.2L187.1,180.7L187.1,180L187.2,179.8L188,179.9ZM184.8,205.2L184.7,205.2L184.4,204.6L184.8,203.6L185.2,204.8ZM176.1,193.5L176,193.7L175.6,192.1L176.1,192.5ZM173.7,184.2L173.3,184.3L173.3,183.9L173.4,183.6L173.7,183.5L173.8,184ZM180,196.3L180.3,197.3L180,197.1L179.7,196.7L179.7,196.1L179.8,196Z" fill="#b8e653" stroke="#0c0e06" stroke-width="1"/></svg>
