<svg xmlns="http://www.w3.org/2000/svg" viewBox="0 0 300 300"><path fill="#e8e8ea" d="M126.3,22L126.2,23L126.6,23.3L127.2,22.8L128,21.6L128.8,20.9L129.7,20.7L130.6,21.6L131.6,23.4L132.7,24.4L133.1,24.5L133.5,25.3L133.5,26.1L133,27.8L132.2,29.8L131,32.2L131.4,34.2L133,35.8L134.9,36.8L137,36.5L138,36.1L138.9,35.3L139.7,34.9L140.7,34.8L144,35.4L145,35.9L145.1,37L144.7,39.9L145.2,42L146.1,44.2L146.2,46.3L145.1,49.6L144.2,52.7L143.1,54.2L142.4,55.2L142.1,55.9L142.2,56.5L142.9,57.5L143.7,58.7L143.9,59.9L143.8,61.3L143.2,63.2L141.3,67.5L139.7,71.3L140.6,72.1L142.1,72.6L143.1,73.2L144.2,72.8L146.4,70.6L148.4,68.9L150.8,67.2L150.9,67.1L153.1,65.8L154,64.7L154.5,63.2L155.3,62.7L156.3,63L157.5,62.4L159,60.8L160.1,60.1L160.9,60.2L162.4,61.2L164.4,63L166.2,64.1L167.8,64.5L168.6,65.2L168.6,66.2L168.9,66.9L169.7,67.1L170,67L169.9,66.5L170.7,65.8L172.2,64.8L173.7,64.3L175.3,64.1L176.4,63.3L177.1,61.4L178,59.9L178.9,59.2L179.9,58.8L180.2,58.4L179.7,57.7L179.8,57.2L180.4,56.5L181.7,56.2L183.8,56.3L186.2,57L189,58.2L190.8,58.6L191.7,58.1L193.4,60L195.9,64L198.1,67.2L199.9,69.3L201.8,70.9L203.7,72L205.2,73.5L206.5,76.4L205.5,80.4L205.3,83.8L205.4,88.1L206.6,91.3L208.8,93.5L210.1,95.3L210.4,96.7L212.2,97.9L215.3,98.9L216.6,99.8L216,100.6L216,101.5L216.5,102.6L217.5,103.5L219.2,104.2L220.3,104.9L220.6,105.7L220.5,106.9L220.1,108.7L219.4,110L218.4,110.9L218.2,111.6L218,112.8L218,115L218.7,116.6L219,118.5L218.5,120.1L218.2,123.3L218.1,124.5L217.7,125.6L216.8,126.6L215.5,127.6L213.8,128.5L212.8,128.8L212.5,129L211.8,130L210.9,130.9L210.2,130.9L209.7,130.4L209.3,129.8L209.1,128.5L207.5,127.8L205.8,127.4L202.4,128.1L199.6,128.4L196.4,128L193.5,128.5L192.2,128.6L190.8,128.5L189.5,128.5L188.1,128.3L185.7,127.5L184.8,127.6L182.8,128.3L180.8,128.7L178.9,129.1L176,130.5L173.9,132.5L173.3,134L172.3,135.4L170.8,137.7L169,139.9L167.7,140.9L168.1,141.5L167.7,142.2L165.7,142.5L164.1,142.7L163.8,143L164,147.4L164.6,149.1L165.6,151.1L166.3,152.2L166.8,155.5L166.9,158.3L169.1,160L170.4,161.4L171.3,162.5L171,163.3L170.5,165.5L171,168.4L174.1,174.7L174.3,175.1L174,175.2L173.5,174L171.9,171.9L171.4,169.8L169.6,167.4L168.6,166.4L168.2,167.2L167.6,168.1L165.8,166.9L164.3,165.6L162.8,163.1L162.7,163.7L162.3,164.2L160.7,162.3L159,160.7L157.4,160.1L156.5,159.6L155.6,158.8L153.7,157.9L148.9,159.2L142.9,158.2L140.5,159.1L139.5,158.5L139,157.5L139.5,155.7L139.7,151.9L140.4,149.2L140,147.2L140.4,146.2L140.7,144.9L139.7,144.4L135.4,143.4L134.5,142.5L133.4,143.5L128.2,144L126.3,144.8L124.5,146.3L124.1,148.2L125.1,149.5L125.8,151.7L123.9,156.5L123.6,157.9L124.4,163.8L124.1,167L123.1,169.2L121.5,171.1L120.8,174.4L119.6,175.9L117.8,179.3L116.7,183.7L115.9,185.7L115.4,189.3L112,194.9L111.2,198L110,199.2L110.4,200.2L110.5,201.7L110,205.9L109.9,209.4L110.4,211.3L112.1,214.9L111.7,216L111.5,217.5L112.9,218.2L113.9,218.4L119.5,216.7L121.4,217.1L122.2,218.7L122.6,220.1L123.6,227.8L124.1,229.2L125.2,230.6L126.5,232L126.9,231.7L126.9,231.2L127,230.6L128.2,232L129,234.7L132,249L132.8,250.8L133.5,252.7L131.7,251.7L131.2,248.6L130.8,247.3L130.1,247.1L129.1,247.1L129,246.5L129.8,245.5L129.7,244.3L128.6,243.3L126.9,244.1L127,246.3L127.7,248L130.6,251.8L131.5,253.4L132.6,253.8L134.3,253.6L136.2,255.2L137.8,256.7L141.6,259L144,258.7L146.5,258.2L148.2,258.3L149.8,258.9L151.8,260.8L155,265.6L160.1,269.6L159.6,270.6L159.3,272.1L157.3,274.1L157,275.3L156.2,276.8L154.8,277.6L153.6,277.7L152.9,277.6L152.4,277.3L151.6,275.9L151.2,275.5L150.8,275.4L148.2,276.3L145.7,277.4L145.3,278.4L144.6,279.5L143.9,279.9L143.2,280L142.7,279.3L141.8,278.5L141,277.7L141.2,276.4L142.6,274.5L142.8,273.2L142.6,270.9L142.3,269.6L141.8,269.6L141.1,269.4L139.2,269.6L138.2,268.1L137.8,266.5L137.2,265.9L136.5,265.5L135,266.1L133.9,265.8L130.1,264.3L128.7,262L127.9,262L127.3,262.2L127,262.8L126.6,265.4L126.3,266.2L122,260.9L119.1,258.7L119.4,254.8L118.6,254L117.5,253.9L116.6,252.8L117.4,250.5L116.2,250.9L114.6,250.8L113.3,250.2L112.3,246.9L111.6,245.9L110.3,244.2L108.5,244.2L107.9,243.4L108,241.3L106.7,240L105,238.9L103.6,238.3L102.1,234.9L100.9,234.1L100,233.4L98.6,233.9L98.2,235.1L97.3,236.3L96.3,236.1L95.3,235.5L94.2,232.1L93.9,230L94.2,226.1L95.7,222.6L96.5,217.1L97.7,213.6L98.5,212.4L99.7,207.6L102.1,201.5L102.4,200.2L102.8,198.7L103.2,197.3L103.3,195.1L103,194L103,193.3L103.5,192.5L105.2,191.1L107.6,188.8L110.4,185.6L113.3,180.6L114.7,177.8L115.3,176.7L115.9,176.4L116.9,175.4L117.6,174.4L117.7,173.8L116.1,168.4L115.1,166.7L114.5,164.6L114.3,163.1L113.9,161.7L114.1,160.4L113.5,159.6L112.3,158.6L110.9,157.1L110.1,154.6L110.1,153.2L109.3,152L109,150.7L109.5,149.5L110.2,148.4L110.1,143.8L109.9,142.4L109.5,139.9L108.6,138.1L107.4,135.9L106,134.1L102.4,130.8L99.8,128.6L98.5,126.6L96.9,124.3L95.8,122.7L94.3,120.6L93.6,117.7L93.1,114.7L93.4,113.7L94.1,113L95,112.5L95.7,112.4L97.8,111L99.3,111.1L99.6,110.8L99.7,110.1L99.5,107.4L99.6,103.7L99.9,100.7L100.2,98.7L104.1,96.4L104.9,95.3L105.2,94.3L105.2,93.3L104.9,92.6L104.4,92.1L101.9,94.1L101.4,93.7L100.2,90.4L99.7,89.4L99,88.2L98.2,86.5L98.1,83.6L97.6,82.2L94.5,79.1L93.1,77.5L91.2,75.1L88.9,72.2L86.6,69.6L85.4,67.9L85.1,67.5L85,66.9L85.6,65L85.3,63.2L84.2,60.7L83.7,59.2L83.8,58.6L83.2,58.4L81.9,58.5L80.7,57.4L79.5,55L79.4,54.5L79.8,54.6L81.3,55L81.8,54.9L82.9,54.3L84.5,53.7L85.4,53.6L85.8,53.3L85.9,52.7L85.1,47.1L85.2,45.9L86.7,43.5L86.6,41.1L87,37.5L88.6,35.1L89.9,34L90.4,32.3L90.9,31.9L92,32.1L94.2,33.4L95.1,33.4L96.5,33.4L97.9,33.3L98.5,33.2L103.1,31.9L104.1,31.7L105.1,31.9L105.7,31.8L106.5,31.3L107,30.2L107.5,27L107.8,26.4L108.4,25.9L109.4,25.6L110.5,25.6L112,26.3L112.9,26.3L114,26L114.9,25.6L115.4,25L115.8,24.3L115.5,23L114.8,21.3L115,21.1L116.2,21.5L118.1,21.9L119.4,21.8L120.4,21.5L121.2,20.7L122.4,20L123.4,20.2L124.3,20.8Z"/></svg>
