<svg xmlns="http://www.w3.org/2000/svg" viewBox="0 0 300 300"><path fill="#e8e8ea" d="M33.6,223.1L34.9,220.1L35.5,209.9L37.1,206.3L42,200L44.7,195.1L47.6,191.2L49.6,189.8L51.6,186.7L53.1,183.2L53.6,180.9L53.5,179.1L52.9,178L50.1,175.6L46.5,171.8L44.6,168L43.6,163L43.3,159.6L46.6,150.1L46.1,148.5L45.2,147L43.3,146.1L40.4,145.7L37.6,146.1L34,146.1L31.4,145.6L30.8,145L30.6,140.7L30,139.7L28.9,138.9L21.7,136.9L20.2,136L20,135L22.5,125.3L23.6,124.5L24.7,122.9L26.4,121.3L32.3,118.5L38.7,119.7L44.3,121L49.9,121.7L51.8,122.1L55.1,122.5L57.2,122.2L58.7,121.1L61.3,117.9L62.2,113.2L63.1,109.1L64.7,108.7L66.3,109.1L67.1,108.3L67.5,107.2L67.7,106.2L68.4,106L69.5,107.1L70.2,106.8L70.8,106L70.6,105.2L69.3,103.8L68.1,101.4L68.2,100.6L68.7,99.8L72.2,99.1L73.7,98.9L74.2,98.1L74.1,96.8L72.8,96L68,96.5L63.1,96.4L62.5,95.6L62.8,94.7L63.5,94L73.6,92.3L78.9,92.9L82.8,93.8L84.3,93.4L82.5,89.4L85.1,89L85.3,87.6L82,77.2L83.9,76.2L85.7,74.1L85.5,70.2L87.1,68.3L89,67L91.8,68.3L96.3,72.2L97.6,73L99,73.1L101.1,72L108.8,68.1L113.3,65.9L118.4,62.8L119.3,61.5L121.1,56.8L122,56.5L123.4,56.9L128,61.9L130.6,65.1L130.6,66.2L129.9,67L130,67.8L133.7,69.5L133.7,70.3L132.9,71.8L132.5,72.7L132,73L127,77.3L121.4,82.2L121.3,82.8L121,84L121.1,85.2L121.9,86.2L124.3,86.9L126.5,87.8L127.6,90.3L128.8,92.7L130.5,93.2L138.8,91.8L140.7,91.5L140.8,92.4L140.4,93.8L133.4,96.2L130.2,98.4L129.5,102.1L128.7,103.1L127.2,104L125.9,104.2L123.7,99.9L121.3,99L117.8,97.5L111.1,94.4L107.6,93.1L100.8,95.1L92.9,97.8L91.7,99.4L90.8,101.1L91,102.4L91.4,104.1L91.1,105.5L89.6,106L87.3,104.3L85.4,103.4L84.5,105.6L83.4,109.6L82.9,112.5L84.6,116.5L85.2,122.7L88.3,122.3L90.7,122.3L95.2,120.5L97.5,120.5L101,121.3L107.2,121.4L112,121.1L113.3,121.3L114.3,120.1L115.7,120.5L116.9,121.9L121.8,120.2L125.4,120L127.7,120.5L129,121L131.3,125L133.1,127.5L135.4,128.4L142.3,127.6L144.3,124.1L146,123.2L148.9,122.9L151.2,122.3L153.1,120.8L155.7,119.6L157.8,119.3L158.9,120.2L159.4,121.4L159,123L158.9,124.7L160.4,125.8L164.6,126L166.6,127.1L166.7,129L166.4,132.1L168.2,133.4L169,133.5L175.3,130.2L177,130.2L178.4,132L180.5,134.1L183.3,136.4L184,136.1L185.2,133.5L187.6,130.8L191.9,129.9L194.5,129.1L197,128.7L204.8,129.8L207.3,129.9L212.7,129.7L216.9,129.2L220.2,127.5L222,126.3L224.8,125.5L228.3,125.6L230.2,126L230.4,128.2L229.9,132.5L229.4,135.5L232.2,140.9L234,143.4L235.7,145.3L236,146.7L235.7,147.9L233.5,149L232.7,150.3L232.3,151.7L233,153.2L234.3,158.3L235.9,162.2L238.2,164.2L241.6,165.4L243.4,165.1L244.7,162.2L246.9,159.9L248.8,160.1L251.8,160L259.8,162.5L267.5,166.4L269.6,168.5L270.5,170.9L268.3,176.5L268.4,179.9L268.9,183.7L270.7,186.5L272.3,191.3L272.7,195.2L273.4,196.4L273.9,197.8L273,201.4L272.4,205.1L273.1,206.2L275.5,208.1L279.3,211.4L280,214.1L278.7,215.9L276.3,218L273.3,219.8L272.3,220.6L271.8,220.2L270.4,218.3L267,215.3L264.6,213.8L260,214.3L257.3,213.7L254.2,212.7L251.2,212.9L249.3,214.6L248.1,216.5L245.1,217.1L240.8,218.4L234.1,220.6L231,220.3L230,219.3L230.7,218.1L233,216.5L233.6,214.6L233.1,212.7L231.1,212.2L230.2,211.9L229.3,211.6L225.2,210.5L221.8,210.9L216.1,213.2L205.5,219.1L201,223.1L197.6,229.1L187.6,231.1L180.7,234.5L173.6,240.1L168.9,243.1L166.6,243.5L164.3,243L162,241.5L159.9,236.8L158,229.7L156.6,225L157.3,218.9L158.2,212L159,205L160.4,196.8L161.6,193.9L161.6,192L160.6,191L158.4,191L155.2,192.1L152.8,192.3L151.4,191.6L151.6,187.8L153.3,180.9L150.7,175.1L143.9,170.3L138.1,168.7L133.3,170.2L129.3,173.9L126,179.9L122.7,185L119.2,188.8L116.6,190.6L115.8,191.4L115.3,193L117.2,198.1L117.1,202.3L114.9,205.9L112.7,207.5L110.1,207.3L108.2,206.5L106.6,205.1L102.7,204.7L96.1,205.3L91.7,207L89.3,209.9L88.6,213.6L89.5,218.1L89,221.6L87,224.1L85.3,225.4L84.1,225.8L81.2,223.7L76.9,219.2L73.9,216.7L72.2,216.3L71.3,216.5L70.4,217.1L69.8,217.6L69.3,219L67.8,219.5L65.9,219.1L64.1,219.5L63,220.9L60,222.6L54.7,224.6L51.7,226.6L51.2,228.8L50.5,229.8L48.8,229.5L44,232.4L40.4,231.5L36.1,227.6L33.9,224.4Z"/></svg>
