<svg xmlns="http://www.w3.org/2000/svg" viewBox="0 0 400 300"><path d="M382.1,0L380.6,5.4L372.3,10.5L340.5,19.6L354.9,58.5L343.9,64.2L345.2,76.7L335.3,73.5L327.2,65.6L303.3,63.3L276.6,62.7L270.8,65.1L247.9,55.9L238.8,60.4L236.3,73.4L209.8,65.8L199.2,69L195.6,78.5L186.4,82.5L165.1,97.6L158.1,112.8L152.1,112.9L147.7,102.9L127.2,102.2L123.9,84.5L116.1,84.4L117.3,62.5L98.1,46.4L70.5,48.1L51.6,51.3L36.2,31.2L23.1,22.6L0,7.5L0,0Z" fill="#2c2c34" stroke="#474751" stroke-width="0.8"/><path d="M0,7.5L23.1,22.6L36.2,31.2L51.6,51.3L70.5,48.1L98.1,46.4L117.3,62.5L116.1,84.4L123.9,84.5L127.2,102.2L147.7,102.9L152.1,112.9L158.1,112.8L165.1,97.6L186.4,82.5L195.6,78.5L200.4,80.7L186.9,94.6L198.7,102.7L210.2,97.4L229.3,108.6L208.7,123.8L196.4,121.8L189.8,122.3L187.5,116.5L190.8,106.6L169.4,111.5L164.2,125.1L156.6,136.7L143.1,135.7L138.9,144.9L150.8,149.8L154.2,165.1L145.2,185.7L133,181.4L124.1,181.3L124.5,168.9L103.2,160.1L86.3,150L75.8,140.3L57.4,125.8L49.5,104L44.1,100.1L26.7,101L20.6,96.7L18.8,79.4L0,69.4L0,7.5Z" fill="#2c2c34" stroke="#474751" stroke-width="0.8"/><path d="M251.2,300L251,292.1L264.7,281.2L251.7,271.7L246.2,258.7L240.4,241.8L248.4,233.3L272.8,238.1L290.7,235.2L306.2,218.7L323.5,241.7L321.9,257.5L328.3,267.3L327.8,277.1L316.2,274.5L320.7,295.5L326.7,300L251.2,300Z" fill="#2c2c34" stroke="#474751" stroke-width="0.8"/><path d="M130.4,300L130.8,299.4L142.8,299.5L144.6,294.2L156.9,291.7L162.9,293.5L169.1,288.2L168.3,276.7L175.1,265.2L185.3,260.3L179,247.5L194.3,248.1L198.7,241.1L198,233.6L206.1,225.4L204.2,215.6L200.4,207.2L209.8,198.4L227.1,194.2L245.6,191.9L253.8,188.2L263.1,185.9L275,195.3L279.8,210.7L306.2,218.7L306.2,218.7L290.7,235.2L272.8,238.1L248.4,233.3L240.4,241.8L246.2,258.7L251.7,271.7L264.7,281.2L251,292.1L251.2,300L130.4,300Z" fill="#2c2c34" stroke="#474751" stroke-width="0.8"/><path d="M46.8,300L46.6,298L34.4,294.8L33.1,282.8L27.9,267.6L34.7,257.1L27.7,254.2L32.1,240.1L38.7,215.6L55.1,223.1L67.2,220.4L70.6,211.5L83.3,208.5L92.4,202.4L95.6,186.4L109.1,182.5L111.7,175.2L119.3,180.7L124.1,181.3L124.1,181.3L133,181.4L145.2,185.7L150.1,188.1L161.8,181.7L167.2,185.6L172.4,176.3L182,176.7L184.5,173.8L186.2,165.5L193.1,158.4L201.8,163L200.1,169.3L204.9,170.3L203.4,187.3L209.8,193.9L215.4,189.6L222.5,187.7L232.6,178.6L243.7,180.1L260.2,180.1L263.1,185.9L253.8,188.2L245.6,191.9L227.1,194.2L209.8,198.4L200.4,207.2L204.2,215.6L206.1,225.4L198,233.6L198.7,241.1L194.3,248.1L179,247.5L185.3,260.3L175.1,265.2L168.3,276.7L169.1,288.2L162.9,293.5L156.9,291.7L144.6,294.2L142.8,299.5L130.8,299.4L130.4,300L46.8,300Z" fill="#2c2c34" stroke="#474751" stroke-width="0.8"/><path d="M195.6,78.5L199.2,69L209.8,65.8L236.3,73.4L238.8,60.4L247.9,55.9L270.8,65.1L276.6,62.7L303.3,63.3L327.2,65.6L335.3,73.5L345.2,76.7L343,81.6L317.6,93.3L311.9,101.8L291.2,104.3L285.1,117.9L268.1,115.1L257,119.2L241.6,129.1L243.8,134L239.3,138.8L208.8,142L188.9,135.2L171.5,136.8L173,124.8L190.6,128.3L196.4,121.8L208.7,123.8L229.3,108.6L210.2,97.4L198.7,102.7L186.9,94.6L200.4,80.7Z" fill="#2c2c34" stroke="#474751" stroke-width="0.8"/><path d="M0,69.4L18.8,79.4L20.6,96.7L26.7,101L44.1,100.1L49.5,104L57.4,125.8L75.8,140.3L86.3,150L103.2,160.1L124.5,168.9L124.1,181.3L119.3,180.7L111.7,175.2L109.1,182.5L95.6,186.4L92.4,202.4L83.3,208.5L70.6,211.5L67.2,220.4L55.1,223.1L38.7,215.6L37.3,198.8L25.3,198.1L6.9,180.3L0,179.1L0,69.4Z" fill="#2c2c34" stroke="#474751" stroke-width="0.8"/><path d="M0,179.1L6.9,180.3L25.3,198.1L37.3,198.8L38.7,215.6L32.1,240.1L27.7,254.2L34.7,257.1L27.9,267.6L33.1,282.8L34.4,294.8L46.6,298L46.8,300L0,300Z" fill="#2c2c34" stroke="#474751" stroke-width="0.8"/><path d="M326.7,300L320.7,295.5L316.2,274.5L327.8,277.1L328.3,267.3L321.9,257.5L323.5,241.7L306.2,218.7L279.8,210.7L275,195.3L263.1,185.9L260.2,180.1L257.8,168.5L258.4,160.6L248.6,155.9L243.3,158L239.3,138.8L243.8,134L241.6,129.1L257,119.2L268.1,115.1L285.1,117.9L291.2,104.3L311.9,101.8L317.6,93.3L343,81.6L345.2,76.7L345.2,76.7L343.9,64.2L354.9,58.5L340.5,19.6L372.3,10.5L380.6,5.4L382.1,0L400,0L400,300Z" fill="#2c2c34" stroke="#474751" stroke-width="0.8"/><path d="M144,185.2L144.7,183.7L145,178.8L145.7,177.1L148.1,174L149.4,171.7L150.8,169.8L151.7,169.2L152.7,167.7L153.4,166L153.7,164.9L153.6,164L153.3,163.5L152,162.3L150.2,160.5L149.3,158.6L148.9,156.3L148.7,154.6L150.3,150L150.1,149.3L149.6,148.6L148.7,148.1L147.3,147.9L146,148.1L144.2,148.1L143,147.9L142.7,147.6L142.6,145.5L142.3,145L141.8,144.6L138.3,143.7L137.6,143.3L137.5,142.8L138.7,138.1L139.2,137.8L139.8,137L140.6,136.2L143.4,134.9L146.5,135.4L149.2,136.1L151.9,136.4L152.8,136.6L154.4,136.8L155.4,136.6L156.1,136.1L157.4,134.6L157.8,132.3L158.2,130.3L159,130.1L159.7,130.4L160.1,130L160.3,129.4L160.4,128.9L160.8,128.8L161.3,129.4L161.7,129.2L161.9,128.9L161.8,128.5L161.2,127.8L160.6,126.6L160.7,126.3L160.9,125.9L162.6,125.5L163.3,125.4L163.6,125L163.5,124.4L162.9,124L160.6,124.3L158.2,124.2L157.9,123.8L158.1,123.4L158.4,123.1L163.3,122.3L165.8,122.5L167.7,123L168.4,122.8L167.6,120.9L168.8,120.7L168.9,120L167.3,115L168.2,114.5L169.1,113.5L169,111.6L169.8,110.7L170.7,110.1L172,110.7L174.2,112.6L174.8,113L175.5,113L176.5,112.5L180.2,110.6L182.3,109.6L184.8,108.1L185.2,107.5L186.1,105.2L186.6,105L187.2,105.3L189.4,107.7L190.7,109.2L190.7,109.7L190.3,110.1L190.4,110.5L192.2,111.3L192.2,111.7L191.8,112.4L191.6,112.8L191.4,113L188.9,115.1L186.3,117.4L186.2,117.7L186,118.3L186.1,118.8L186.5,119.3L187.7,119.7L188.7,120.1L189.2,121.3L189.8,122.4L190.6,122.7L194.6,122L195.5,121.9L195.6,122.3L195.4,123L192,124.2L190.5,125.2L190.2,127L189.7,127.5L189.1,127.9L188.4,128L187.4,125.9L186.2,125.5L184.5,124.7L181.3,123.3L179.6,122.7L176.4,123.6L172.5,124.9L172,125.7L171.6,126.5L171.6,127.1L171.8,127.9L171.7,128.6L171,128.8L169.9,128L169,127.6L168.5,128.6L168,130.6L167.7,132L168.5,133.9L168.8,136.9L170.3,136.7L171.5,136.7L173.6,135.8L174.7,135.8L176.4,136.2L179.4,136.3L181.8,136.1L182.3,136.2L182.9,135.6L183.5,135.8L184.1,136.5L186.4,135.7L188.2,135.6L189.3,135.8L189.9,136.1L191,138L191.9,139.2L193,139.6L196.3,139.2L197.3,137.5L198.1,137.1L199.5,137L200.6,136.7L201.5,135.9L202.7,135.4L203.8,135.2L204.3,135.7L204.5,136.3L204.3,137L204.3,137.8L205,138.4L207,138.5L208,139L208.1,139.9L207.9,141.4L208.7,142L209.2,142.1L212.2,140.5L213,140.5L213.7,141.3L214.7,142.4L216,143.5L216.3,143.3L216.9,142.1L218.1,140.8L220.2,140.4L221.4,140L222.6,139.8L226.4,140.3L227.6,140.4L230.1,140.2L232.1,140L233.8,139.2L234.6,138.6L236,138.2L237.7,138.3L238.6,138.4L238.6,139.5L238.4,141.6L238.2,143L239.5,145.6L240.4,146.8L241.2,147.7L241.4,148.4L241.2,149L240.1,149.5L239.7,150.2L239.6,150.8L239.9,151.5L240.5,154L241.3,155.9L242.4,156.8L244,157.4L244.9,157.3L245.5,155.8L246.6,154.8L247.5,154.8L248.9,154.8L252.8,156L256.5,157.9L257.5,158.9L257.9,160.1L256.9,162.7L256.9,164.4L257.2,166.2L258,167.6L258.8,169.9L259,171.7L259.3,172.3L259.5,173L259.1,174.7L258.9,176.5L259.2,177L260.4,177.9L262.2,179.5L262.5,180.8L261.9,181.7L260.7,182.7L259.3,183.6L258.8,184L258.6,183.7L257.9,182.8L256.2,181.4L255.1,180.7L252.9,180.9L251.6,180.6L250.1,180.2L248.7,180.2L247.7,181.1L247.2,182L245.7,182.2L243.7,182.9L240.4,184L238.9,183.8L238.5,183.3L238.8,182.7L239.9,182L240.2,181L240,180.2L239,179.9L238.6,179.8L238.1,179.6L236.1,179.1L234.5,179.3L231.8,180.4L226.7,183.2L224.5,185.2L222.9,188L218.1,189L214.8,190.6L211.4,193.3L209.1,194.8L208,195L206.9,194.7L205.8,194L204.8,191.7L203.8,188.3L203.2,186.1L203.5,183.1L203.9,179.8L204.3,176.4L205,172.5L205.6,171.1L205.6,170.2L205.1,169.7L204.1,169.7L202.5,170.3L201.3,170.4L200.7,170L200.8,168.2L201.6,164.9L200.3,162.1L197,159.8L194.3,159L191.9,159.7L190,161.5L188.5,164.4L186.9,166.8L185.2,168.7L184,169.5L183.6,169.9L183.3,170.7L184.2,173.1L184.2,175.2L183.1,176.9L182,177.6L180.8,177.6L179.9,177.2L179.1,176.5L177.2,176.3L174.1,176.6L172,177.4L170.8,178.8L170.5,180.6L170.9,182.7L170.7,184.4L169.7,185.6L168.9,186.3L168.3,186.4L166.9,185.4L164.8,183.3L163.4,182.1L162.6,181.9L162.2,182L161.7,182.2L161.4,182.5L161.2,183.2L160.5,183.4L159.6,183.2L158.7,183.4L158.2,184.1L156.7,184.9L154.2,185.9L152.7,186.8L152.5,187.9L152.2,188.4L151.3,188.2L149,189.6L147.3,189.2L145.3,187.3L144.2,185.8ZM190.6,107.1L190.2,107.2L189.3,106.1L189,105.4L189.3,105.3L190.1,105.7L190.6,106.6ZM191.4,130.6L190,131.4L189.1,131.3L188.5,130.5L188,129.8L187.9,129.4L188.1,129.4L189.2,129.7L190.8,130L191.4,130.2Z" fill="#b8e653" stroke="#0c0e06" stroke-width="1"/></svg>
