<svg xmlns="http://www.w3.org/2000/svg" viewBox="0 0 300 300"><path fill="#e8e8ea" d="M36.5,216.1L33,201.7L29,195.4L25.9,191.9L24.7,187.5L24.7,183.1L26.7,181L40.1,180.4L45.6,173.1L45.6,164.1L42.8,161.2L40.1,159.8L26.3,166.6L22.4,165.2L20,162.9L20.8,153.1L32.2,143.9L42,127L48.7,120.5L64.4,114.2L70.7,112.4L117.2,103.2L128.2,102.6L157.3,102.8L196.6,100.9L206.1,99.6L218.6,95.6L230.8,90.6L237.1,86.5L244.2,83.9L254,87.3L271.3,90L275.7,92.5L280,95.7L260.3,113.4L238.3,128L224.9,132.4L211.2,135.3L200.5,140.8L191.5,149.7L180.1,154.7L167.5,156.4L156.5,159.1L146.3,164.3L132.5,173.1L127,174L121.1,173.9L109.7,177.1L73.9,190L52.3,204ZM-76,197.1L-58.3,187.7L-31.5,180.4L-32.3,185.8L-35.1,194.2L-39,198.1L-45.3,205.2L-49.2,206.7L-65.4,205.2L-67.3,206.1L-70.1,205.6L-74.4,201Z"/></svg>
