<svg xmlns="http://www.w3.org/2000/svg" viewBox="0 0 400 300"><path d="M400,27.1L389.1,20.4L381.9,32.3L372.5,34.4L367,25.5L366.9,14.8L348.2,2.8L356.7,0L400,0ZM176.7,152L179.1,156.9L179.6,164.4L163.7,182.9L142.7,188.4L139.8,185.4L142,177L152.5,161.9ZM284.3,2.4L311.1,9.5L320,28.2L299.4,18.1L279,16.1L265.2,17.7L248.3,16.8L254,3.4ZM223.2,26.6L206.3,22.1L201.6,11.6L226.3,10.4L232.4,18.4ZM106.5,0L115.2,11.8L110.8,20.2L132.7,48.5L132.5,64.6L119.5,71.8L109.9,63.2L121.7,43.1L97.7,52.6L91.6,45.8L94.8,36.3L77.2,22L78.9,0L106.5,0ZM74.9,0L62.7,5.5L64.8,34.1L65.8,69.2L50.3,72.7L39.8,65.5L46.8,43L43,19.3L32.7,19.2L25.1,2.4L26.6,0L74.9,0ZM62.4,185.9L30,168.5L52.8,163.6L65.7,171.2L74.2,178.7L72.7,185.4ZM88,143.2L104.3,141.4L126.2,132.3L122.6,146L85.9,153.1L53.4,150L53.4,141L72.7,135.8ZM0,137.6L3.9,132.3L12.7,138.9L12.7,138.9L27.8,136.9L33.9,147.4L5.7,152.4L0,153.5L0,137.6Z" fill="#2c2c34" stroke="#474751" stroke-width="0.8"/><path d="M179.5,300L181.5,296.6L193.8,292.3L194.2,285.2L204.9,288.2L205.4,281.9L216.1,278.2L227.9,274.8L245.9,286.4L258.3,300L179.5,300ZM288.9,300L285.1,290L296.8,269.8L307.9,263.3L304.1,257L314.7,242.7L329.5,233.9L342,236.8L362.6,232.1L362.1,219.4L344.2,211.1L357.2,207.5L373.4,213.7L386.4,223.9L400,228.1L400,300Z" fill="#2c2c34" stroke="#474751" stroke-width="0.8"/><path d="M193.2,133.4L191.6,137.7L189.8,136.8L191.7,134.4L192.6,133.7ZM179.1,167.4L178.3,164.2L177.4,162.7L176.7,162L176.4,161L176.4,160L176.9,159.5L179.9,159.4L181.1,157.8L181.1,155.7L180.5,155.1L179.9,154.8L176.8,156.3L175.9,156L175.4,155.5L175.5,153.3L178.1,151.2L180.3,147.5L181.8,146L185.3,144.6L186.7,144.2L197.1,142.1L199.6,142L206.1,142.1L214.9,141.6L217,141.3L219.8,140.4L222.5,139.3L223.9,138.4L225.5,137.8L227.7,138.6L231.6,139.2L232.5,139.7L233.5,140.5L229.1,144.4L224.2,147.7L221.2,148.7L218.1,149.3L215.7,150.5L213.7,152.5L211.2,153.6L208.4,154L205.9,154.6L203.6,155.8L200.5,157.8L199.3,158L198,157.9L195.4,158.7L187.4,161.5L182.6,164.7ZM153.9,163.1L157.9,161L163.8,159.4L163.7,160.6L163.1,162.5L162.2,163.4L160.8,164.9L159.9,165.3L156.3,164.9L155.8,165.2L155.2,165L154.3,164Z" fill="#b8e653" stroke="#0c0e06" stroke-width="1"/></svg>
