<svg xmlns="http://www.w3.org/2000/svg" viewBox="0 0 400 300"><path d="M400,74.2L398,75.4L380.5,80.4L388.4,101.8L382.4,104.9L383.1,111.8L377.6,110L373.2,105.7L360.1,104.5L345.4,104.1L342.2,105.5L329.6,100.4L324.6,102.9L323.2,110L308.6,105.8L302.8,107.6L300.8,112.8L295.8,115L284.1,123.3L280.2,131.7L276.9,131.7L274.5,126.2L263.3,125.8L261.4,116.1L257.2,116L257.8,104L247.2,95.1L232.1,96.1L221.7,97.9L213.2,86.8L206,82.1L192.3,73.1L190.6,72L167.9,79.4L168.2,124.2L163.7,124.7L157.5,115.5L151.5,112.1L141.5,114.6L137.6,118.6L137.1,115.7L139.3,110.7L137.6,106.5L127.3,102.4L123.3,91.4L118.4,88.3L118.1,84.3L126.7,85.4L127.1,76.3L134.6,74.3L142.3,76.1L143.9,63.8L142.3,55.8L133.5,56.4L126,53.3L115.8,59L107.5,61.7L103,59.6L103.9,52.9L98.3,44.2L91.7,44.6L84.2,35.6L89.3,25.4L86.7,22.7L93.8,7.6L102.9,15.6L104,5.5L110.5,0L156.3,0L156.3,0L166,5.3L174.4,0L190.9,0L190.9,0L200.7,6.3L203.3,2.2L215.7,2.8L216.6,0L380.1,0L380.1,0L381.1,1.8L382.3,0L394.1,0L394.1,0L398,2.6L400,2L400,74.2Z" fill="#2c2c34" stroke="#474751" stroke-width="0.8"/><path d="M168.2,124.2L167.9,79.4L190.6,72L192.3,73.1L206,82.1L213.2,86.8L221.7,97.9L232.1,96.1L247.2,95.1L257.8,104L257.2,116L261.4,116.1L263.3,125.8L274.5,126.2L276.9,131.7L280.2,131.7L284.1,123.3L295.8,115L300.8,112.8L303.5,114L296,121.7L302.6,126.1L308.9,123.2L319.3,129.4L308,137.7L301.3,136.6L297.7,136.9L296.4,133.7L298.2,128.2L286.4,131L283.6,138.4L279.4,144.8L272,144.2L269.7,149.3L276.2,152L278.1,160.4L273.1,171.7L266.4,169.4L261.5,169.3L261.8,162.5L250,157.6L240.8,152.1L235,146.7L224.9,138.8L220.5,126.8L217.6,124.7L208,125.2L204.6,122.8L203.7,113.3L191.8,107L184.3,113.9L176.8,118.1L178.2,124Z" fill="#2c2c34" stroke="#474751" stroke-width="0.8"/><path d="M400,2L398,2.6L394.1,0L400,0ZM382.3,0L381.1,1.8L380.1,0L382.3,0ZM216.6,0L215.7,2.8L203.3,2.2L200.7,6.3L190.9,0L216.6,0ZM174.4,0L166,5.3L156.3,0L174.4,0ZM110.5,0L104,5.5L102.9,15.6L93.8,7.6L86.7,22.7L89.3,25.4L84.2,35.6L91.7,44.6L98.3,44.2L103.9,52.9L103,59.6L107.5,61.7L103.5,69.2L94.9,71.3L86.1,84.3L94.1,96L93.3,104.1L102.9,118.3L97.6,123L96.1,126L92.2,125.2L86.1,118L83.7,117.6L78.1,114.9L75.4,110L67.1,107.5L61.8,109.3L60.2,107.1L48.2,101.3L35.2,99.3L27.7,97.3L26.6,98.7L15.3,88.3L5.2,83.7L0,78.6L0,75.6L0,75.6L4,74.3L11.4,63.7L6.4,58.6L19.5,53.3L19.2,50.5L11.3,52.6L11.6,46.8L16.1,43.1L24.7,42.2L26.1,37.8L24.1,30.4L27.7,23.3L27.6,19.3L14.6,14.9L9.4,15L3.9,8.6L0,9.8L0,0Z" fill="#2c2c34" stroke="#474751" stroke-width="0.8"/><path d="M0,223.1L16.3,212.5L19.9,225.3L18.2,226.9L0.5,232.1L9.3,242.4L6.4,244.2L4.9,247.6L0,248.6L0,223.1Z" fill="#2c2c34" stroke="#474751" stroke-width="0.8"/><path d="M156.5,300L157,299.5L163.5,293.2L169.1,287.2L170.8,290.5L172,298.3L167.5,298.3L167.3,300L156.5,300Z" fill="#2c2c34" stroke="#474751" stroke-width="0.8"/><path d="M122.7,300L122.6,299.9L122.6,299.9L122,292.8L124.4,287.7L126.8,286.6L129.5,289.7L129.7,295.4L128.1,300L122.7,300Z" fill="#2c2c34" stroke="#474751" stroke-width="0.8"/><path d="M97.5,247.9L99.4,252.4L98.6,254.7L101.4,262.3L95.2,262.6L93,257.8L85.1,256.8L91.6,247.1Z" fill="#2c2c34" stroke="#474751" stroke-width="0.8"/><path d="M19.9,225.3L16.3,212.5L35.9,201.4L39.2,188.4L38.4,180.4L43.3,177.7L47.8,170.8L51.6,169L61.9,170.5L65,173.3L69.2,171.4L74.9,184.6L80.7,187.8L81.4,194.2L77,197.9L74.9,206.3L81,216.4L91.9,222.1L96.4,230L95,237.6L97.8,237.6L97.9,243L102.8,248.4L97.5,247.9L91.6,247.1L85.1,256.8L68.7,256L43.7,235.4L30.6,228.2Z" fill="#2c2c34" stroke="#474751" stroke-width="0.8"/><path d="M167.3,300L167.5,298.3L172,298.3L173.1,300L167.3,300ZM170.8,290.5L169.1,287.2L171.7,283.8L172.8,284.7L172,288.8Z" fill="#2c2c34" stroke="#474751" stroke-width="0.8"/><path d="M300.8,300L299.8,295.4L294.8,290.5L293.8,282.9L288,278.4L297.8,268L308.1,268.8L317.3,258.2L322.8,247.9L331.4,237.6L331.3,230.2L338.8,224.2L331.7,219L328.6,211.9L325.5,202.5L329.8,197.9L343.2,200.5L353.1,198.9L361.6,189.9L371.1,202.5L370.2,211.2L373.8,216.6L373.5,222L367.1,220.6L369.6,232.1L378.3,238.6L390.6,245.8L385,250.4L381.5,259.9L390.1,263.7L398.5,268.6L400,269.4L400,300Z" fill="#2c2c34" stroke="#474751" stroke-width="0.8"/><path d="M400,269.4L398.5,268.6L390.1,263.7L381.5,259.9L385,250.4L390.6,245.8L394.3,243.3L400,245.9L400,269.4Z" fill="#2c2c34" stroke="#474751" stroke-width="0.8"/><path d="M266.3,300L260.2,293.4L243.9,295.2L229.6,295.4L217.1,296.8L220.5,285.4L233.2,280.3L232.5,275.7L228.2,274.1L228,265.3L219.5,260.9L216,254.7L211.6,249.4L226.4,254.6L235.3,253.1L240.6,254.4L242.3,252.1L248.5,253L260,248.8L260.3,240.1L265.2,234.2L271.8,234.3L272.8,231.4L279.6,230L282.8,231L286.3,228L285.8,221.8L289.6,215.4L295.2,212.7L291.7,205.7L300.1,206L302.6,202.2L302.2,198.1L306.6,193.5L305.6,188.1L303.5,183.5L308.7,178.7L318.2,176.4L328.3,175.1L332.8,173.1L338,171.8L344.5,177L347.1,185.4L361.6,189.9L361.6,189.9L353.1,198.9L343.2,200.5L329.8,197.9L325.5,202.5L328.6,211.9L331.7,219L338.8,224.2L331.3,230.2L331.4,237.6L322.8,247.9L317.3,258.2L308.1,268.8L297.8,268L288,278.4L293.8,282.9L294.8,290.5L299.8,295.4L300.8,300L266.3,300Z" fill="#2c2c34" stroke="#474751" stroke-width="0.8"/><path d="M261.5,169.3L266.4,169.4L273.1,171.7L275.8,173.1L282.2,169.5L285.2,171.7L288.1,166.6L293.4,166.8L294.7,165.2L295.6,160.6L299.5,156.7L304.2,159.3L303.3,162.7L306,163.2L305.1,172.6L308.6,176.2L311.7,173.9L315.6,172.8L321.1,167.8L327.3,168.6L336.4,168.7L338,171.8L332.8,173.1L328.3,175.1L318.2,176.4L308.7,178.7L303.5,183.5L305.6,188.1L306.6,193.5L302.2,198.1L302.6,202.2L300.1,206L291.7,205.7L295.2,212.7L289.6,215.4L285.8,221.8L286.3,228L282.8,231L279.6,230L272.8,231.4L271.8,234.3L265.2,234.2L260.3,240.1L260,248.8L248.5,253L242.3,252.1L240.6,254.4L235.3,253.1L226.4,254.6L211.6,249.4L219.6,240.1L218.9,233.5L212.2,231.7L211.5,225.1L208.6,216.7L212.4,210.9L208.6,209.4L211,201.6L214.6,188.2L223.6,192.3L230.3,190.8L232.1,185.9L239.1,184.2L244.1,180.9L245.8,172.1L253.3,169.9L254.7,166L258.9,169Z" fill="#2c2c34" stroke="#474751" stroke-width="0.8"/><path d="M273.1,171.7L278.1,160.4L276.2,152L269.7,149.3L272,144.2L279.4,144.8L283.6,138.4L286.4,131L298.2,128.2L296.4,133.7L297.7,136.9L301.3,136.6L298.1,140.2L288.4,138.2L287.6,144.9L297.2,144L308.1,147.7L324.8,146L327.1,156.5L330,155.3L335.3,157.9L335,162.3L336.4,168.7L327.3,168.6L321.1,167.8L315.6,172.8L311.7,173.9L308.6,176.2L305.1,172.6L306,163.2L303.3,162.7L304.2,159.3L299.5,156.7L295.6,160.6L294.7,165.2L293.4,166.8L288.1,166.6L285.2,171.7L282.2,169.5L275.8,173.1Z" fill="#2c2c34" stroke="#474751" stroke-width="0.8"/><path d="M300.8,112.8L302.8,107.6L308.6,105.8L323.2,110L324.6,102.9L329.6,100.4L342.2,105.5L345.4,104.1L360.1,104.5L373.2,105.7L377.6,110L383.1,111.8L381.8,114.5L367.9,120.9L364.7,125.6L353.4,127L350.1,134.5L340.7,132.9L334.6,135.2L326.1,140.6L327.4,143.3L324.8,146L308.1,147.7L297.2,144L287.6,144.9L288.4,138.2L298.1,140.2L301.3,136.6L308,137.7L319.3,129.4L308.9,123.2L302.6,126.1L296,121.7L303.5,114Z" fill="#2c2c34" stroke="#474751" stroke-width="0.8"/><path d="M102.8,248.4L97.9,243L97.8,237.6L95,237.6L96.4,230L91.9,222.1L81,216.4L74.9,206.3L77,197.9L81.4,194.2L80.7,187.8L74.9,184.6L69.2,171.4L64.4,162.5L66.1,159L63.3,146L69.4,142.7L70.8,147.1L75.3,152.3L81.3,153.8L84.6,153.5L95,145.1L98.3,144.2L100.9,147.6L97.9,153.2L103.4,159.1L105.6,158.6L108.4,166.9L116.7,169.2L122.9,174.7L135.5,176.6L149.3,173.7L150.1,171.1L157.9,169L164.2,162.6L170.1,162.9L174,160.8L180.3,161.9L190.1,167.5L197.1,168.7L207.2,178.5L213.8,178.9L214.6,188.2L211,201.6L208.6,209.4L212.4,210.9L208.6,216.7L211.5,225.1L212.2,231.7L218.9,233.5L219.6,240.1L211.6,249.4L216,254.7L219.5,260.9L228,265.3L228.2,274.1L232.5,275.7L233.2,280.3L220.5,285.4L217.1,296.8L200.5,293.8L190.8,291.6L180.9,290.3L177.1,278.2L172.9,276.4L166.1,278.2L157.1,283L146.4,279.7L137.4,272.1L128.9,269.2L123,259.7L116.5,246.1L111.7,247.8L106.1,244.4Z" fill="#2c2c34" stroke="#474751" stroke-width="0.8"/><path d="M0,176.7L1.1,177.5L10.8,174.4L15.5,176.5L22.8,176.5L33,172.3L37.7,172.5L47.8,170.8L43.3,177.7L38.4,180.4L39.2,188.4L35.9,201.4L16.3,212.5L0,223.1L0,176.7Z" fill="#2c2c34" stroke="#474751" stroke-width="0.8"/><path d="M84.6,153.5L81.3,153.8L77.7,147.2L77.8,145.5L73.9,145.5L71.2,142.4L69.4,142.7L65.9,139.4L59.3,136.5L60.2,130.8L58.7,126.7L71,124.9L72.8,128L76.2,130L74.4,132.9L79.1,136.9L76.6,140.6L80.4,143.7L84.3,145.6Z" fill="#2c2c34" stroke="#474751" stroke-width="0.8"/><path d="M0,9.8L3.9,8.6L9.4,15L14.6,14.9L27.6,19.3L27.7,23.3L24.1,30.4L26.1,37.8L24.7,42.2L16.1,43.1L11.6,46.8L11.3,52.6L4.2,53.6L0,56.6L0,9.8Z" fill="#2c2c34" stroke="#474751" stroke-width="0.8"/><path d="M0,124L12.4,128.4L22.7,126.6L30.3,127.6L40.7,121.5L50.2,120.9L58.7,126.7L60.2,130.8L59.3,136.5L65.9,139.4L69.4,142.7L63.3,146L66.1,159L64.4,162.5L69.2,171.4L69.2,171.4L65,173.3L61.9,170.5L51.6,169L47.8,170.8L37.7,172.5L33,172.3L22.8,176.5L15.5,176.5L10.8,174.4L1.1,177.5L0,176.7L0,124Z" fill="#2c2c34" stroke="#474751" stroke-width="0.8"/><path d="M400,245.9L394.3,243.3L390.6,245.8L378.3,238.6L369.6,232.1L367.1,220.6L373.5,222L373.8,216.6L370.2,211.2L371.1,202.5L361.6,189.9L347.1,185.4L344.5,177L338,171.8L336.4,168.7L335,162.3L335.3,157.9L330,155.3L327.1,156.5L324.8,146L327.4,143.3L326.1,140.6L334.6,135.2L340.7,132.9L350.1,134.5L353.4,127L364.7,125.6L367.9,120.9L381.8,114.5L383.1,111.8L383.1,111.8L382.4,104.9L388.4,101.8L380.5,80.4L398,75.4L400,74.2L400,245.9Z" fill="#2c2c34" stroke="#474751" stroke-width="0.8"/><path d="M83.7,117.6L86.1,118L92.2,125.2L96.1,126L97.6,123L102.9,118.3L107.6,124.5L112.1,132.8L116.2,133.3L118.9,136.5L111.6,137.4L110.1,146.3L108.6,150.3L105.3,153L105.6,158.6L103.4,159.1L97.9,153.2L100.9,147.6L98.3,144.2L95,145.1L84.6,153.5L84.3,145.6L80.4,143.7L76.6,140.6L79.1,136.9L74.4,132.9L76.2,130L72.8,128L71,124.9L73.2,123L79.7,126.3L84.5,127L85.7,125.6L81.4,119.3ZM81.3,153.8L75.3,152.3L70.8,147.1L69.4,142.7L71.2,142.4L73.9,145.5L77.8,145.5L77.7,147.2Z" fill="#2c2c34" stroke="#474751" stroke-width="0.8"/><path d="M26.6,98.7L27.7,97.3L35.2,99.3L48.2,101.3L60.2,107.1L61.8,109.3L67.1,107.5L75.4,110L78.1,114.9L83.7,117.6L81.4,119.3L85.7,125.6L84.5,127L79.7,126.3L73.2,123L71,124.9L58.7,126.7L50.2,120.9L40.7,121.5L42.1,116.4L39.9,108.3L34.8,103.8L29.9,102.4Z" fill="#2c2c34" stroke="#474751" stroke-width="0.8"/><path d="M0,248.6L4.9,247.6L6.4,244.2L9.3,242.4L0.5,232.1L18.2,226.9L19.9,225.3L30.6,228.2L43.7,235.4L68.7,256L85.1,256.8L93,257.8L95.2,262.6L101.4,262.3L104.9,271L109.3,273.3L110.8,276.8L116.8,280.9L117.3,285L116.5,288.3L117.6,291.6L120.1,294.3L121.3,297.5L122.6,299.9L122.7,300L2.4,300L2.4,300L1.8,298.9L2.3,296.7L0,291.9L0,248.6Z" fill="#2c2c34" stroke="#474751" stroke-width="0.8"/><path d="M142.9,153.1L142.8,153.6L142.4,152L142.1,150.3L142.4,149.8L142.8,149.8L142.5,150.4ZM168.3,124L170.6,124.1L172.7,124.3L175.4,124.4L176.1,124.5L177,124.7L177.5,124.7L177.9,124.2L178.2,123.9L178.4,123.7L178.3,123.4L178,123.2L177.5,122.5L177.2,119.9L177,117.7L177.6,117L178.3,116.5L179.4,115L179.9,114.5L180.7,114.1L183.4,114L184.6,113.7L184.9,113.2L185.5,112L185.7,111L186.1,110.5L186.4,110.2L186.9,110.2L187.6,110.5L188.3,110.6L188.7,110.9L189.1,111.2L189.5,111.8L189.5,112.3L189.7,112.5L190,112.5L190.2,112.5L190.4,112.4L190.5,112.2L190.4,111.9L189.9,111.1L188.8,109.7L188,109.1L187.6,108.8L187.6,108.5L188,108L188.5,107.7L189.3,107.9L190.4,108L190.9,107.8L191.4,106.6L192.6,107.9L194,109.3L194.4,109.5L195.4,109.7L196.1,109.7L196.5,109.9L196.8,110.2L197.5,111.7L198.2,112.1L199,112.4L201.8,112.4L202.6,112.5L203.3,113.2L203.8,113.5L203.9,113.7L203.9,114L203.7,114.4L203.7,115.2L203.7,115.8L203.4,116L203.4,116.3L203.6,116.5L204.8,117.1L205.3,117.7L205.6,117.9L205.7,118.3L205.4,118.6L204.8,118.4L204.6,118.8L204.6,119.5L205,120.2L205.1,120.8L204.8,121.4L204.5,122.2L204.5,122.8L204.7,123.1L205.7,123.7L207.9,125.2L208.4,125.2L210.6,124.9L211.6,124.9L212.1,125.1L213.8,125.3L214.3,125.5L214.9,125.6L215.6,125.5L216.1,124.8L216.4,124.7L216.7,124.6L217.1,124.5L218.4,125L219.8,125.9L220.7,126.7L221.2,127.4L221.7,129L222.4,131.5L223.2,133.1L224.2,134L224.9,135.6L225.5,139L225.9,139.7L226.2,140.1L227.3,141L229.6,142.7L230.9,143.6L233,145.2L234.9,146.6L236.8,148.7L237.2,149L238.8,150.2L240.7,151.4L242,151.1L244,153L244.8,153.6L245.1,153.9L246.5,154.6L248.8,156.1L251.6,158.3L253.5,159.5L254,159.6L254.5,159.6L255.1,159.4L255.7,159.2L256.7,159.4L257.8,159.9L258.5,160.3L259.3,160.9L259.9,161.4L260.4,161.6L262,162.1L262.3,162.3L262.5,162.6L262.5,162.9L261.6,164.6L261.5,166.7L261.4,168.2L261.6,169.5L261.1,169.5L260,169.2L257.9,168.7L256.1,167.7L254.9,167L254.7,167.1L254.2,167.6L253.8,168.1L253.5,169.2L253,170.5L250.8,170.6L248.9,170.7L247.7,171.2L246.5,171.9L246.2,172.7L245.9,173.7L245.2,176.1L244.6,178.3L244.3,179.6L243.8,180.6L242.4,181.9L240.9,182.7L240.1,183.1L239.7,183.6L239.6,184.1L239.4,184.2L238.7,184.1L238,184.2L236.6,184.7L235,185.3L233.1,185.9L232,185.9L231.6,186L231.4,186.3L231.6,186.9L231.7,187.3L231.9,187.8L231.5,188.3L231.2,189L230.9,190.4L230.2,190.8L229.2,191.4L228,192.3L227.7,192.4L227,192.7L226.3,192.6L225.7,192.5L225,192.7L224.3,193.4L224,193.1L223.8,192.5L223.5,192.1L222.4,191.1L221.4,190.4L221,190.3L220.2,190.5L219.1,190.7L218.2,190.5L217.5,190.2L216.5,189.3L216.1,188.8L215.8,188.4L215.1,188.5L214.8,188L214.8,187.6L215,186.9L215,185.8L214.6,185L214.1,184.6L214.1,184.3L214.4,183.8L214.6,183.2L214.6,182.2L214.3,181.2L214.1,179.6L214.2,178L213.8,177.3L210.2,177.3L206.9,177.3L206.7,177.2L205.5,175.2L204.4,173.7L203.4,172.9L201.1,171.8L200,171.3L199.1,170.5L198.3,169.6L198.1,168.4L197.9,168L197.7,167.7L197.5,167.5L197.2,167.5L194.5,166.1L193.4,165.7L192.4,166L191.9,166.1L191.1,165.7L190,166.2L189.6,166.3L189,166.1L188.5,165.9L187.2,164.6L186,164.1L185.2,163.7L183.6,163.3L181.9,163L181.1,162.8L180.5,162.5L180.3,162.3L180.3,161.8L180.3,161.2L180.1,160.7L179.7,160.2L179.1,159.7L178.1,159.8L176.5,159.8L175.4,159.4L174.4,159.3L173.3,159.4L172.4,159.4L171.8,159.7L171.4,160L171.1,161.1L170.9,161.3L170.5,161.4L170,161.3L169,161.3L167.1,161.1L164.8,161.1L163,161.6L161.7,162.4L160.3,163.3L158.8,164.7L158.3,165.3L157.4,167.8L157,168.1L156.5,168.4L155.9,168.4L154.9,168.8L153.5,169.4L152.5,169.6L150.1,169.5L149.9,168.7L149.5,165.9L149.2,163L149.3,161.7L149.5,159L149.5,157.6L149.4,156.4L149.5,155.2L149.7,153.8L149.8,152.4L149.7,151.5L149.2,150.7L148.4,149.7L148.3,149.1L148.2,148.5L147.4,148.4L146.7,147.8L146.2,147.4L145,147L144.3,147L143.8,147.3L143.4,147.9L143.1,146.9L143.1,145.9L144.1,143.9L144.7,144.5L145.4,144.8L146.4,144.8L147.3,144.6L147.1,143.9L146.7,143.5L146.2,143.2L146,142.3L146,141.4L146.3,140.5L146,140.1L145.6,139.9L144.5,139.9L143.2,139.7L141.9,139.6L141.5,140.6L142.3,142L141.7,141.3L141.1,140.4L140.2,138.8L139.7,136.9L139.6,134.8L140.1,133.1L140.7,131.5L141,129.4L141.5,127.3L142,128.3L142.5,129.1L143.3,129.8L143.7,130L144.9,130.3L145.7,130.2L146.6,129.8L147.4,129.9L148.1,130.8L148.7,131.7L149.7,131.9L151.6,131.2L152.5,131.1L153.3,131.4L153.7,131.4L154.2,131.4L153.8,130.5L153.6,129.7L154.1,129.3L155.6,129.8L156.6,129.4L156.9,129.3L157.1,129.1L157.2,128.4L157.2,127.6L157,127L156.8,126.4L156.1,125.5L153.3,123.5L152.4,122.7L151.7,121.7L151.2,120.2L150.8,118.7L150.4,117.5L149.5,114.9L149.1,114.6L148.6,114.4L147.5,114.3L146.4,114.6L144.5,115L143.4,114.9L142.9,115.1L141.7,116.3L141.1,117.2L140.3,119.4L140.9,120.1L140.9,120.6L140.5,123.8L140.7,125.3L140.7,125.4L140.4,125.1L139.7,123.5L138.5,121.6L137.5,118.6L139.3,116.6L140.8,115.3L142.1,114.4L142.5,114.2L144.2,113.5L146.4,112.9L148,112.4L150.2,112L150.9,112L151.9,112L152.7,112.4L153.2,112.6L155,113.8L156.8,115.1L158.4,116.4L158.8,116.9L159.1,117.6L159.2,118.2L160.6,120.3L161.1,121.2L161.9,122.4L162.5,123L163.1,123.7L163.5,124.3L164,124.6L164.5,124.7L165.7,124.5L167.1,124.1L167.9,124Z" fill="#b8e653" stroke="#0c0e06" stroke-width="1"/></svg>
