<svg xmlns="http://www.w3.org/2000/svg" viewBox="0 0 300 300"><path fill="#e8e8ea" d="M84.1,95.9L88.9,96.2L93.3,96.5L98.7,96.8L100.3,97.1L102.3,97.3L103.2,97.4L104.1,96.3L104.6,95.7L105.1,95.2L105,94.7L104.3,94.3L103.2,92.8L102.6,87.4L102.3,82.8L103.5,81.3L105,80.3L107.1,77.1L108.2,76.2L109.9,75.4L115.5,75.2L117.9,74.5L118.6,73.5L119.9,70.9L120.3,68.8L121,67.9L121.8,67.1L122.6,67.2L124.3,67.8L125.6,68.1L126.5,68.6L127.3,69.3L128.1,70.6L128.2,71.5L128.6,72L129.2,72L129.7,72L130,71.8L130.2,71.4L130.1,70.8L129,69.2L126.6,66.1L125,64.9L124.2,64.3L124.1,63.6L125.1,62.7L126.1,62.1L127.8,62.5L130.1,62.7L131.1,62.3L132.1,59.8L134.7,62.4L137.4,65.3L138.4,65.8L140.3,66.1L141.9,66.2L142.6,66.5L143.4,67.2L144.8,70.4L146.2,71.2L148,71.8L153.7,71.7L155.5,71.9L156.9,73.4L157.8,74L158.2,74.5L158.1,75.2L157.7,76L157.7,77.6L157.6,78.8L157.2,79.4L157,79.9L157.4,80.4L160.1,81.5L160.9,82.8L161.6,83.3L161.8,84.1L161.3,84.6L160.1,84.3L159.5,85.2L159.5,86.6L160.3,88L160.6,89.3L160,90.5L159.3,92.2L159.3,93.4L159.7,94L161.8,95.3L166.4,98.4L167.6,98.5L172,97.8L174,97.7L175.2,98.2L178.7,98.6L179.8,99.1L180.9,99.2L182.5,99.1L183.6,97.7L184.2,97.3L184.6,97.1L185.6,97.1L188.3,98L191.2,99.8L193.1,101.5L194,103L195.2,106.4L196.6,111.5L198.3,114.9L200.3,116.7L201.8,120L203,127.1L203.8,128.6L204.6,129.3L206.8,131.4L211.5,134.8L214.3,136.8L218.6,140L222.6,142.9L226.6,147.4L227.3,148L230.8,150.4L234.6,152.9L237.4,152.4L241.5,156.2L243.1,157.6L243.8,158.1L246.8,159.6L251.5,162.7L257.4,167.2L261.3,169.8L262.4,170.1L263.4,170.1L264.6,169.5L265.8,169L267.9,169.6L270.2,170.7L271.7,171.4L273.3,172.6L274.6,173.6L275.6,174.2L279,175.1L279.6,175.7L280,176.3L280,176.9L278.1,180.3L277.9,184.7L277.8,187.9L278.1,190.5L277.2,190.5L274.9,190L270.5,188.9L266.6,186.8L264.1,185.4L263.7,185.6L262.6,186.5L261.9,187.7L261.3,190L260.3,192.7L255.6,192.8L251.7,193L249.1,194.1L246.7,195.5L246,197.2L245.5,199.3L244,204.3L242.7,208.8L242.1,211.7L241.1,213.7L238.3,216.3L235,218L233.4,218.8L232.6,219.9L232.5,220.9L231.9,221.1L230.5,221L229.1,221.1L226.1,222.2L222.8,223.4L218.8,224.6L216.6,224.6L215.6,224.9L215.2,225.5L215.6,226.7L216,227.6L216.4,228.7L215.4,229.6L214.8,231.2L214.3,234L212.9,234.8L210.7,236.1L208.1,237.9L207.6,238.3L206.1,238.8L204.7,238.6L203.4,238.3L202,238.8L200.5,240.2L199.9,239.7L199.5,238.4L198.8,237.5L196.5,235.4L194.6,234L193.7,233.9L191.9,234.3L189.7,234.6L187.9,234.3L186.5,233.7L184.2,231.7L183.4,230.6L182.8,229.8L181.3,230L180.9,229.1L180.8,228.1L181.3,226.8L181.1,224.4L180.3,222.7L179.3,221.9L179.4,221.4L179.9,220.2L180.4,219.2L180.4,217.1L179.7,214.8L179.4,211.5L179.6,208.3L178.7,206.7L171.1,206.7L164.4,206.9L164,206.5L161.4,202.4L159.2,199.4L157.2,197.6L152.3,195.3L150,194.4L148.1,192.7L146.4,190.8L146,188.3L145.7,187.4L145.2,186.7L144.7,186.4L144.1,186.5L138.5,183.5L136.3,182.7L134.2,183.3L133.2,183.5L131.4,182.6L129.3,183.7L128.4,183.8L127.2,183.5L126.1,183.1L123.3,180.4L120.9,179.3L119.2,178.6L116,177.6L112.5,177L110.7,176.6L109.4,175.9L109.1,175.6L109.1,174.6L109,173.3L108.5,172.3L107.7,171.2L106.4,170.3L104.4,170.4L101.2,170.3L98.7,169.5L96.8,169.3L94.5,169.5L92.6,169.5L91.3,170.1L90.5,170.9L89.9,173.1L89.5,173.5L88.7,173.6L87.6,173.5L85.4,173.5L81.6,173.1L76.8,173L73.1,174.2L70.3,175.8L67.5,177.6L64.2,180.5L63.3,181.8L61.4,186.9L60.6,187.7L59.5,188.3L58.3,188.3L56.2,189.1L53.2,190.3L51.3,190.9L46.2,190.6L45.8,189L44.9,183L44.4,177L44.5,174.2L45,168.6L45,165.8L44.8,163.3L45,160.8L45.4,157.9L45.6,155L45.3,153L44.3,151.4L42.6,149.4L42.4,148.2L42.3,146.9L40.7,146.7L39.2,145.3L38.1,144.6L35.5,143.8L34.2,143.7L33,144.3L32.2,145.5L31.6,143.6L31.6,141.6L33.6,137.3L34.9,138.6L36.5,139.1L38.5,139.2L40.4,138.8L40,137.4L39.1,136.6L38,135.9L37.6,134L37.7,132L38.3,130.2L37.7,129.4L36.8,128.9L34.6,129L31.9,128.5L29.1,128.3L28.4,130.5L29.9,133.4L28.7,132L27.4,130.1L25.7,126.7L24.6,122.7L24.4,118.4L25.4,114.8L26.6,111.4L27.3,107.1L28.3,102.9L29.3,104.8L30.4,106.5L32,108.1L32.8,108.4L35.4,109.1L37.1,108.8L38.9,107.9L40.6,108.2L42.1,110L43.4,111.9L45.3,112.3L49.3,110.9L51.3,110.6L52.9,111.2L53.8,111.4L54.6,111.3L53.9,109.5L53.6,107.8L54.6,106.9L57.7,107.9L59.8,107.2L60.3,106.9L60.8,106.5L61,105L60.9,103.5L60.7,102.1L60.1,100.8L58.6,99.1L52.9,94.9L51.1,93.2L49.5,91.1L48.4,88L47.6,84.9L46.9,82.5L44.9,77L44.1,76.3L43.2,76L40.8,75.8L38.4,76.3L34.6,77.2L32.3,76.9L31.3,77.5L28.7,79.8L27.6,81.8L25.9,86.4L27.2,87.8L27.2,88.8L26.2,95.4L26.8,98.7L26.6,98.9L26.1,98.2L24.6,94.8L22.1,90.8L20,84.6L23.7,80.6L27,77.7L29.5,76L30.3,75.6L33.9,74.1L38.5,72.8L41.9,71.9L46.4,71.1L47.8,70.9L49.9,70.9L51.7,71.7L52.7,72.3L56.4,74.8L60.2,77.3L63.4,80.1L64.3,81.2L64.8,82.6L65.2,83.9L67.9,88.2L69.1,90.1L70.7,92.6L72,93.8L73.2,95.3L74.1,96.5L75,97.1L76.2,97.4L78.6,97L81.5,96.2L83.3,95.9Z"/></svg>
