<svg xmlns="http://www.w3.org/2000/svg" viewBox="0 0 400 300"><path d="M199.4,0L195.8,11.2L189.2,7.3L187.3,0L199.4,0Z" fill="#2c2c34" stroke="#474751" stroke-width="0.8"/><path d="M0,204.1L7.3,201.2L7.9,188.5L16.3,187.1L23,180.7L42,177.8L44.7,171.1L40.9,167.4L35.8,148.9L34.9,138.2L29.5,126.8L43.5,117L59.3,113.9L68.5,106.4L82.5,100.9L107.3,97.7L131.4,96.2L138.7,98.9L152.5,91.7L168.1,91.6L174,95.8L184,94.7L181,104.1L183.3,121.2L179.9,135.9L170.9,145.8L172.2,159L184.1,169.4L184.3,173.6L193.3,180.5L199.5,211.2L204.2,226.1L205,233.8L202.4,247.4L203.5,254.9L201.6,263.9L202.9,274.2L197.1,281L205.7,292.8L206.3,299.7L206.5,300L0,300Z" fill="#2c2c34" stroke="#474751" stroke-width="0.8"/><path d="M400,12.2L396.1,12L395.1,0L400,0Z" fill="#2c2c34" stroke="#474751" stroke-width="0.8"/><path d="M400,36.3L394.1,28.7L391.3,32.9L394.6,44.3L400,50.8L400,54.5L400,54.5L396.4,57.2L400,61.1L400,77.4L400,77.4L398.4,76.8L400,80.3L400,86.8L400,86.8L393.5,88.2L399,104.2L389.3,104.5L377.4,96.6L371.9,81.9L369.3,69.6L363.6,61L356.1,50.3L355.2,44.9L362,35.7L362.8,29.5L367.6,26.7L367.8,21.6L377.4,19.9L383,15.7L390.9,16.1L393.3,12.7L396.1,12L396.1,12L400,12.2L400,36.3Z" fill="#2c2c34" stroke="#474751" stroke-width="0.8"/><path d="M361.3,0L361.6,1.9L359.8,8.6L361.8,16.9L367.8,21.6L367.8,21.6L367.6,26.7L362.8,29.5L362,35.7L355.2,44.9L352.7,43.6L352.4,39.4L344.3,33L343.1,23.9L344.3,10.7L346.3,4.6L343.8,1.5L343.6,0L361.3,0Z" fill="#2c2c34" stroke="#474751" stroke-width="0.8"/><path d="M105.4,0L105.5,1.2L91.7,14.2L73,18.3L71.7,24.8L62.7,35.4L57.1,50.9L62.7,61.6L54.3,69.9L51.2,81.9L40.1,85.6L29.8,99.7L11.3,99.9L0,99.7L0,0Z" fill="#2c2c34" stroke="#474751" stroke-width="0.8"/><path d="M293.6,0L297.1,4.2L293,8.1L306.1,15.1L316.8,21L329.3,31L330.8,34.6L328.1,41.4L320,32.5L307.3,29.3L301.2,41.7L311.7,48.7L310,58.5L303.9,59.6L296.1,75.6L290,77L290,71.3L293,61.3L296.2,57.3L290.5,46.4L286.1,36.9L280,34.5L275.7,26.2L266.3,22.7L260,14.9L249.2,13.7L237.8,4.9L232.7,0L293.6,0ZM276.5,72.7L287.6,71.1L282.4,85.6L284.5,91.3L281.5,100.6L270.3,93.8L262.9,91.8L242.6,82.5L244.5,73L261.6,74.7ZM188.2,20.5L195.5,14.5L204.3,28.2L202.2,53.4L195.6,52.2L189.7,58.4L184.1,53.5L183.6,30.6L180.2,19.5Z" fill="#2c2c34" stroke="#474751" stroke-width="0.8"/><path d="M0,123.4L8,122.7L23.1,126.6L29.5,126.8L29.5,126.8L34.9,138.2L35.8,148.9L40.9,167.4L44.7,171.1L42,177.8L23,180.7L16.3,187.1L7.9,188.5L7.3,201.2L0,204.1L0,123.4Z" fill="#2c2c34" stroke="#474751" stroke-width="0.8"/><path d="M206.5,300L206.3,299.7L205.7,292.8L197.1,281L202.9,274.2L201.6,263.9L203.5,254.9L202.4,247.4L205,233.8L204.2,226.1L199.5,211.2L206.6,207.3L207.9,200.1L206.3,193L216.3,186.4L220.9,180.9L227.9,176L228.8,162.6L245.9,168.6L252.1,167.1L264.3,170L283.6,177.7L290.4,193L303.5,196.3L324.1,203.5L339.6,211.9L346.8,207.5L353.8,199.7L350.4,186.6L354.9,178.2L365.4,170.1L375.5,167.7L395.2,171.3L400,178.7L400,300Z" fill="#2c2c34" stroke="#474751" stroke-width="0.8"/><path d="M395.1,0L396.1,12L393.3,12.7L390.9,16.1L383,15.7L377.4,19.9L367.8,21.6L361.8,16.9L359.8,8.6L361.6,1.9L363.4,2.1L363.8,0L395.1,0Z" fill="#2c2c34" stroke="#474751" stroke-width="0.8"/><path d="M343.6,0L343.8,1.5L340.8,0L343.6,0Z" fill="#2c2c34" stroke="#474751" stroke-width="0.8"/><path d="M363.8,0L363.4,2.1L361.6,1.9L361.6,1.9L361.3,0L363.8,0Z" fill="#2c2c34" stroke="#474751" stroke-width="0.8"/><path d="M229,161.8L229,162.3L228.5,165.6L228.4,166.8L228.3,168.8L228.3,171.2L229.4,173.3L229.5,174.2L229,175.2L226.8,176.4L224.1,177.9L221.7,179.4L219.1,180.9L218.3,182L217,182.7L215.9,183.5L215.8,184.3L215,185.7L214,186.9L211.5,187.4L211.1,187.7L209.9,189.4L209.4,190.1L208.7,191.5L209.6,195.2L210.6,198.9L210.8,200.4L210.8,201.7L210.2,203.1L208.9,205.1L207.9,206.6L206.1,209.2L205.5,209.8L204.3,210.6L201.8,211.6L200.1,212.5L199.2,208.5L198.4,205.1L197.7,202.3L196.6,197.3L195.7,193.1L194.8,188.8L194,185L193.1,181.1L192.8,180.5L190.2,178.7L187.8,177L185.4,175L182.7,172.9L182.3,170.3L180.9,166.3L179.5,164L179,163.5L176.1,162L174.4,161L173.9,160.4L173.6,158.7L172.4,155.4L171.1,152.5L170.6,150.5L170.5,147.9L170.8,146.1L171.4,145.3L174.2,143L175.5,140.3L177.1,139.2L178.5,138.5L179.7,137.6L180.7,136.1L181.5,134.5L181.6,132.9L181.9,130.2L182.4,128.3L183.6,126.2L183.1,124.5L182.5,122.6L182.7,119.4L182.5,118.1L182,116.9L181.5,115.4L181.5,114.2L182,111L182.3,108.5L183,105.2L182.7,104.3L182.3,103.7L180.9,102.9L180.9,102.5L181.2,102L183.2,100.4L184.3,98.1L185.2,97.6L186.7,96.8L186.6,95.9L186.3,94.9L189.9,93.8L193.3,90.9L194.5,90.2L202.5,87.5L203.5,87.7L204.7,88.1L204.4,89.1L203.9,89.9L204.6,91.3L205.5,90.4L205.3,89.8L205.3,89.1L206.9,89L208.4,89.1L209.9,90L209.8,93.1L211.9,96.2L211.3,97.7L213.1,98.6L214.6,97.5L215.4,95.9L218.2,95L221,92.7L222.4,92.4L222.7,94.3L223.5,96L222.5,96.6L221.2,98.4L218.7,103L216.4,104.3L214.7,106L214.2,107.3L214,108.7L214.4,111.3L215.7,113.9L217.1,115.5L218.5,116L221.7,118.5L221.6,119.9L222.1,121.7L222.3,123.8L223.4,125.5L221,129.2L219.7,131.9L217.1,135.5L214.9,137.9L210,141.4L208.8,142.6L208,143.8L207.6,145L207.8,146.5L209.4,150.2L211.5,152.3L213.7,153.5L217.4,153L217.3,154.4L217.6,156L219.1,156L220.2,155.7L221,154.1L222.9,155.2L223.9,158.6L225.4,159.6L225.6,160L225.1,160.3L224.6,160.7L225.1,161L226.6,161.4L227.5,161.1ZM225.7,134.2L223.4,135.5L223.9,134.3L225.4,133L225.7,133.3ZM221,152.4L220.6,152.5L220,153L219.5,153L218.5,152.5L218.1,152.5L217.6,152.1L217.8,150L217.9,149.5L220.5,149.4L221.9,150.6L222.1,150.9L222.2,151.3L221.5,152Z" fill="#b8e653" stroke="#0c0e06" stroke-width="1"/></svg>
