<svg xmlns="http://www.w3.org/2000/svg" viewBox="0 0 300 300"><path fill="#e8e8ea" d="M210.3,174.6L210.3,175.6L209.2,182.5L209,184.9L208.8,189.1L208.8,194.1L211.2,198.4L211.3,200.3L210.3,202.4L205.8,204.8L200.2,208L195.1,211.1L189.8,214.4L188.1,216.5L185.4,218.1L183.1,219.8L182.8,221.3L181.1,224.3L179.1,226.6L173.9,227.8L173.1,228.5L170.7,232L169.6,233.5L168.1,236.4L169.9,244L172.1,251.7L172.5,254.9L172.4,257.6L171.2,260.5L168.5,264.7L166.5,267.7L162.7,273.1L161.5,274.4L158.9,276L153.7,278.2L150.1,280L148.3,271.7L146.6,264.6L145.3,258.8L143,248.4L141.1,239.6L139.2,230.7L137.4,222.7L135.7,214.7L134.9,213.5L129.6,209.6L124.6,206.1L119.6,202.1L114,197.7L113.2,192.2L110.3,183.9L107.4,179.2L106.3,178L100.3,175L96.8,172.8L95.8,171.5L95.1,168.1L92.6,161.3L89.8,155.2L88.8,151L88.7,145.7L89.2,141.9L90.4,140.3L96.3,135.5L99.1,129.8L102.5,127.6L105.3,126L107.7,124.1L109.8,121.1L111.4,117.8L111.6,114.4L112.4,108.8L113.4,104.8L115.9,100.5L114.9,96.9L113.6,93L113.9,86.4L113.6,83.7L112.5,81.3L111.4,78.1L111.4,75.6L112.5,68.8L113.3,63.6L114.6,56.9L114,55L113.2,53.6L110.3,52.1L110.2,51.2L111,50.2L115.1,46.9L117.4,42.1L119.3,41L122.2,39.3L122.1,37.4L121.5,35.3L128.9,33L136.1,27L138.6,25.6L155.2,20L157.3,20.4L159.7,21.2L159.1,23.2L158.1,24.9L159.5,27.8L161.5,26L161,24.8L160.9,23.3L164.3,23.2L167.4,23.4L170.7,25.1L170.4,31.7L174.8,38.1L173.6,41.3L177.2,43.2L180.4,40.9L182,37.5L187.9,35.6L193.6,30.7L196.7,30.2L197.3,34.2L198.8,37.8L196.8,39L194,42.7L188.9,52.2L184.2,54.9L180.6,58.6L179.5,61.1L179.2,64.1L180.1,69.5L182.6,75L185.6,78.3L188.5,79.2L195.1,84.4L195,87.5L196,91.2L196.3,95.6L198.6,99.1L193.7,106.8L191,112.3L185.6,119.9L180.9,124.8L170.8,132.2L168.2,134.6L166.6,137.1L165.8,139.7L166.2,142.8L169.5,150.4L173.9,154.8L178.4,157.2L186.3,156.2L186.1,159.1L186.6,162.6L189.8,162.4L192,161.9L193.7,158.5L197.6,160.8L199.6,167.8L202.9,170L203.2,170.8L202.1,171.4L201.1,172.2L202.1,172.8L205.3,173.7L207.1,173.1Z"/></svg>
