<svg xmlns="http://www.w3.org/2000/svg" viewBox="0 0 300 300"><path fill="#e8e8ea" d="M234.1,104.5L235,104.8L236.7,105.3L237.8,105.9L238.4,106.1L239.8,104.9L242,104.9L243.8,105.1L244.8,105.3L245.9,105.6L247.4,105.9L247.9,105.4L248.8,103.7L249.1,103.5L249.3,103.3L250.4,103.2L251.4,103.3L251.8,103.6L252.3,104.9L253.5,105.4L255.6,107.5L256.8,108.4L257.1,108.7L256.7,109.1L256.9,109.7L257.6,110.4L258.6,110.6L259.8,110.5L260.4,110.8L260.8,111.2L260.9,111.7L260.9,112.1L261.1,112.9L262,113.9L263,114.6L263.5,115.3L264.4,117.8L264.8,119.2L264.7,120.5L264,121.8L262.7,123.5L263,124.2L263.3,125.1L263.2,125.8L264.2,128L264.6,129.3L264.3,129.6L264,130L265.8,131L267.8,131.9L268.7,132L271.1,131.6L272.7,131.6L274.2,132.4L276.4,134.3L278.8,136.9L279.3,137.7L279.5,138L280,138.6L279.5,138.6L278.7,138L276.8,136.5L275.8,137.2L275,138.3L274.1,142.7L273.3,143.2L272,143.2L270.4,143L269.3,143.3L269,143.5L269.1,144L269.5,144.7L269.7,145.6L269.8,146.4L270.3,147.1L271.1,147.7L271.2,148.4L271,149.3L270.9,150L270.7,150.4L271,151.5L271.9,152.7L272.4,153.2L272.2,155.6L272.5,156.7L272.8,158.2L272.7,160.6L272.8,161.2L273.1,161.4L273.9,161.5L274.6,161.7L274.9,162.1L274.9,162.4L273.9,163.5L273.8,164.3L273.5,165.5L273.2,166.1L272.4,167.4L271.8,168.6L271.6,169.7L271.8,170.1L273.3,170.3L274.2,171L276.4,172.5L276.8,173.1L276.2,174.1L276.2,174.4L276.5,174.9L276.7,175.8L276.6,176.7L276.6,177.9L277,178.2L278.6,179.3L279.7,180.5L279.7,180.9L279.2,181.8L279.3,182.8L279.3,183.1L278.8,182.7L278,182.5L277.1,182.5L276.5,182.8L275.5,183.6L274.2,184.5L273.2,185.4L272.6,185.9L272.1,185.8L271.7,185.3L271.5,184.6L271.5,182L271.3,181.2L270.8,180.6L270.2,180.3L269.6,180.1L268.8,180.1L267.8,180.9L266.4,181.6L264.2,181.6L262.7,181.4L261.9,181.3L259,180.1L258.4,180L257.3,179.5L256.1,179.1L253.9,179.9L252.9,179.7L251.6,179.1L251.2,179.2L249.7,181.2L247.2,183.3L245.9,183.6L245.2,181.6L244.6,180.7L244.3,180.6L243.7,180.4L243.2,180.5L241.7,181.9L239.3,182.8L237.3,183.3L234.1,184L231.7,184.3L230.7,184.3L228.4,184.1L226.4,183.6L224.4,183.7L222.9,183.8L219.4,185.4L213.3,188.6L208.7,190.1L206.2,190.7L204.2,191.1L200.7,191.1L197.9,190.8L196,190.9L194.9,190.5L193.4,189.2L191.5,187.9L190.7,187.7L189.6,187.4L188,187.3L184,189.1L182.8,189.6L181.4,190L178.7,191.1L177.5,191.7L176,191.7L174,191.5L172.4,191.6L171.2,190.7L170.6,189.7L168.3,189.1L166.7,189L166.3,189.4L165.8,190.7L165.1,194.1L165,195L166.5,198.3L166.4,198.8L165.4,199L164.2,199L163.4,199.3L162.8,199.9L162.4,202.8L161,203.3L160.3,203.9L159.7,205.7L159.3,205.7L157.1,204.4L156.1,204.2L156.9,202.8L156,200.1L154.9,197.5L155.9,195.8L158,193.8L160.2,191.4L160.2,190L160,188.9L159.4,188.1L158.2,187.1L156.2,188.2L154.8,189.4L153.9,189.6L152.8,190.3L152.3,191.6L151.1,192.5L149.1,192.9L146.1,191.9L142.9,190.3L141,189L139.5,188.7L138.1,189.3L133.9,192.4L130.1,197L129.1,197.7L125.5,199.7L123.1,200.3L122,200.2L117.3,201.1L114.9,201.2L113,202.2L109.4,201.1L107.2,199.7L105.9,198.2L103.8,195.1L102.3,193.6L98.9,192.3L93,189L91.4,188.6L87.4,188.2L83.2,187.9L82.3,189.1L82,193.8L81.2,195L80.9,197.5L80.4,198.2L79.6,198.6L78.3,197.9L77.4,197.5L75.4,198.5L71.3,199.9L69.9,200.1L65.2,198.4L63.4,197.2L62.3,196L61.9,193.8L61.2,192.6L61.1,191.8L60.9,190.9L59.9,190.5L58.9,191.2L57.8,191.2L56.4,190.7L53.2,188.9L50.7,188.8L49.2,191L48,191.7L46.7,191.9L46.6,191.3L47.6,189.9L43.7,190.1L41.7,191.2L40.1,191L38.9,190.5L39,189.9L40.3,189.7L41.3,189.2L45.5,188.9L46.5,188.5L47.6,186.9L49.6,185.6L49.8,185L48.3,185L41.8,185.4L37.4,185.2L36.9,185.8L36.2,186L36,184.2L36.7,183.3L37.7,183.4L40,182.7L39.8,181.2L38.1,180.2L37.8,179.6L36.6,179.5L35.6,178.8L35.4,177L34.6,175L33.5,174.1L33.6,173.5L35.7,172.9L36.1,170.1L35.8,168.4L34.8,168.3L31.8,166.9L30.9,167.1L29.9,165.6L28.1,164.5L27.3,164.9L26.7,165.4L25.9,165.2L24.6,164.3L23.3,163.7L22.7,163.1L23.4,161.5L24.4,161.5L24.6,160.2L23.8,158.1L23.9,157L24.8,156.7L25.8,156.9L26.8,158.2L27.1,159.4L26.9,160.6L27.6,161.8L28,162.1L28.3,160.9L28.8,160.6L29.4,161.2L30.6,161.4L33.9,160.7L34.5,160.1L32.1,160.1L31.3,159.5L30.3,158.2L29.7,156.9L29.6,156.4L29.3,155.5L29.6,155L31.3,154.3L32.7,152.3L32.1,151.8L31.4,151.5L30.7,151.7L30,151L29.9,150L30.5,149.3L30.5,148.2L28.6,145.6L28.1,145.1L28.5,144.2L30,142.8L31.3,141L31.1,140.4L30.1,140.2L25.4,141L23.5,141.6L20.3,141.9L20,141L20.1,140.1L20.9,138.5L20.8,134.6L21.2,132.5L23,131.9L25.3,128.7L28.9,125L32.7,125.1L34.2,124.1L36.5,124L36.9,124.8L37.2,125.5L39.2,126.5L42.7,126.3L43.5,125.9L44.3,125.4L42.7,123.6L43.2,123L44.7,123L46.3,123.4L46.4,123.8L45.9,124.4L45.4,125.4L45.9,125.6L50.4,125L55.2,125.5L56.7,125.2L60.4,125.2L61.1,124.6L60,123.8L58.9,123.5L58.1,123.1L57.4,122.6L59.7,120.8L61.1,120.5L67.4,119.4L72.1,118.9L72.1,118.4L71.4,118.4L65.4,117.5L63.9,116.8L61.9,115.2L61.5,114.7L61,113.9L61.3,112.2L61.6,110.8L62.4,110L64.8,109.8L73.1,111.3L79,110.4L85.5,112.5L91.6,112.1L92.9,111.1L94.5,108.1L103.2,103.1L106.2,100.5L109.5,99.1L115.1,97.5L119.8,95.4L121.2,95.2L132.4,96.2L140.2,96.3L143.7,94.3L145.8,95L145.6,95.7L145.2,96.3L145.4,97.5L146.6,99.3L147.8,100.5L151.4,102.3L156.4,100.8L157.2,101L158.3,101.4L160,106.2L161.4,107.8L163.2,109L164.6,109.2L165.7,108L166.5,107.5L168.3,107.3L171.3,109L172.4,110.6L177.4,111.9L182.1,112.6L184.1,114L190.6,115.4L193.1,115.2L197.2,113.7L205.1,112.1L210.4,114.4L211.9,114.6L213.1,114.5L214.9,115.1L216.8,114.7L222.6,112.1L224.5,110.5L226.4,110.1L228.1,109.2L232.7,106.2ZM46.6,96.1L46.3,98.2L47.1,100.5L49.2,103.8L51.2,105.4L59.6,109.5L61.1,109.8L60.8,111.4L60.3,112.9L59.7,113.9L57.3,114.5L50.5,112.7L48.8,112.5L47.6,112.9L45.4,114.2L42.9,113.8L39.5,114.5L38.5,117L36.1,119.8L32.2,122L29.4,123.2L25.2,127.5L23.2,130.1L22.5,130.5L21.5,130.9L21.8,129.7L22.3,128.6L22.2,127.8L22.2,126.6L23.6,125.2L24.9,124.2L28.7,122.4L29.7,120.9L26.7,120.9L23.7,121.3L21.8,121L20.2,121.2L19.6,119.8L19.2,119L19.7,118.8L20.2,118.6L21.2,117.2L22.1,116.2L23.3,114.9L23.6,114.1L23.6,113.4L23.3,112.9L23.2,112.2L23.2,111.4L23.3,109.6L26.1,107.7L27,107.5L27.3,106.6L27.1,104.6L26.7,102.9L26.2,102.8L25.5,102.3L25.1,101.8L24.4,101.2L23.1,100.8L23.1,100.3L23.2,99.7L23.7,99.2L25.8,98.7L26,98.4L26.3,97.4L26.7,96.5L27.2,96.1L28.1,96.2L29.8,96L30.9,95.7L32.1,95L32.7,94.4L35.2,94L35.9,93.7L36.6,94L37.6,95L39.1,96.5L40,97L40.6,96.8L41.7,96.2L42.8,96.2L43.7,96.3L44.1,95.9L44.8,95.8Z"/></svg>
