<svg xmlns="http://www.w3.org/2000/svg" viewBox="0 0 400 300"><path d="M400,110.9L396.6,108.1L385.1,108.8L377.3,110.1L370.9,101.8L365.5,98.2L355.1,91.4L353.9,90.6L336.7,96.2L336.9,130L333.5,130.4L328.8,123.4L324.3,120.9L316.7,122.7L313.8,125.7L313.4,123.6L315.1,119.8L313.8,116.6L306,113.5L303,105.3L299.3,102.9L299.1,99.8L305.6,100.7L305.9,93.8L311.6,92.3L317.4,93.7L318.6,84.4L317.4,78.4L310.7,78.9L305,76.5L297.3,80.8L291.1,82.8L287.7,81.2L288.4,76.2L284.1,69.6L279.2,69.9L273.5,63.1L277.4,55.4L275.4,53.4L280.7,42L287.6,48L288.4,40.4L302.2,28.8L312.6,28.5L327.3,35.9L335.3,40.2L342.3,35.8L352.9,35.5L361.5,41L363.4,37.9L372.8,38.3L374.5,33.3L363.6,25.9L370.1,20.6L368.8,17.6L375.2,14.8L370.4,7.1L373.4,3.2L393.8,0L400,0Z" fill="#2c2c34" stroke="#474751" stroke-width="0.8"/><path d="M400,155.8L398.7,155.2L391.7,151.1L387.3,147L379.7,141L376.4,132L374.2,130.3L367,130.8L364.4,128.9L363.7,121.8L354.7,117L349.1,122.3L343.4,125.4L344.5,129.8L336.9,130L336.9,130L336.7,96.2L353.9,90.6L355.1,91.4L365.5,98.2L370.9,101.8L377.3,110.1L385.1,108.8L396.6,108.1L400,110.9L400,155.8Z" fill="#2c2c34" stroke="#474751" stroke-width="0.8"/><path d="M122.4,300L122.4,300L122.5,297L130.2,297L130.2,282.7L157,282.7L182.9,282.7L209.4,282.7L211.6,289.7L210.1,291L211.1,298.3L211.5,300L122.4,300Z" fill="#2c2c34" stroke="#474751" stroke-width="0.8"/><path d="M67.5,300L68,297.3L69.5,294.2L66.7,291.8L66.6,289.5L64.1,287.7L62.4,276.5L69.2,272.5L95.8,286.3L122.4,300L122.4,300L122.4,300L67.5,300Z" fill="#2c2c34" stroke="#474751" stroke-width="0.8"/><path d="M393.8,0L373.4,3.2L370.4,7.1L375.2,14.8L368.8,17.6L370.1,20.6L363.6,25.9L374.5,33.3L372.8,38.3L363.4,37.9L361.5,41L352.9,35.5L342.3,35.8L335.3,40.2L327.3,35.9L312.6,28.5L302.2,28.8L288.4,40.4L287.6,48L280.7,42L275.4,53.4L277.4,55.4L273.5,63.1L279.2,69.9L284.1,69.6L288.4,76.2L287.7,81.2L291.1,82.8L288,88.5L281.6,90.1L275,99.8L281,108.7L280.4,114.9L287.6,125.5L283.7,129.1L282.5,131.4L279.6,130.8L275,125.3L273.1,125L268.9,123L266.9,119.3L260.6,117.4L256.6,118.8L255.4,117.1L246.3,112.7L236.5,111.2L230.8,109.7L230,110.8L221.5,102.9L213.9,99.4L208.1,93.9L213,92.3L218.5,84.3L214.8,80.5L224.6,76.5L224.5,74.4L218.5,75.9L218.7,71.6L222.1,68.8L228.6,68.1L229.6,64.8L228.2,59.2L230.9,53.8L230.8,50.8L220.9,47.5L217.1,47.6L212.9,42.7L207.8,44.4L199.3,40.7L199.5,38.6L197.1,34L191.8,33.5L191.2,30.2L192.9,28L188.6,21.9L181.7,22.9L179.7,22.4L178,24.8L175.5,24.4L173.9,17.4L172.3,13.7L173.6,12.7L179,13L181.6,10.6L179.6,7.6L175.1,5.6L175.5,3.6L172.8,1.5L172,0L393.8,0ZM186.5,86.9L188.3,84.5L193,86.6L195.2,87L196,88.9L197,89.2L197.1,90L200.3,92.3L207.2,91.7L205.9,95.1L198.5,96.7L189.5,102.2L185.8,100.3L187.3,95.9L179.9,93.1L181.1,91.3L187.5,88.1Z" fill="#2c2c34" stroke="#474751" stroke-width="0.8"/><path d="M0,50.6L1.2,51.6L2.7,52.5L4.6,52.3L4.6,52.3L7.7,54.9L17.4,56.8L14,63.7L13.1,70.8L11.3,72.5L8.3,71.6L8.5,74.1L3.6,79.6L3.5,84L6.7,82.5L9,86.7L8.7,89.4L10.7,93L8.3,95.9L10.1,103.2L13.7,104.4L12.9,108.4L6.9,113.6L0,112.3L0,50.6ZM21.7,118.1L26,114.6L27.1,122.4L24.9,129.3L21.9,127.5L20.3,121.5Z" fill="#2c2c34" stroke="#474751" stroke-width="0.8"/><path d="M0.7,300L1.2,299.8L20.5,285.8L43.4,272L54,275.2L57.7,279.1L62.4,276.5L62.4,276.5L64.1,287.7L66.6,289.5L66.7,291.8L69.5,294.2L68,297.3L67.5,300L0.7,300Z" fill="#2c2c34" stroke="#474751" stroke-width="0.8"/><path d="M201.8,202L200.6,204.5L198.2,203.4L196.8,208.7L198.5,209.5L196.7,210.6L196.5,212.7L199.6,211.6L199.8,214.7L196.4,227L195.8,225L192.1,213.7L194,211.2L193.5,210.7L195.3,207L196.6,201.1L197.6,199.1L197.8,199L200,199L200.6,197.6L202.4,197.5L202.5,200.7L201.6,202Z" fill="#2c2c34" stroke="#474751" stroke-width="0.8"/><path d="M202.4,197.5L200.6,197.6L200,199L197.8,199L200.2,192.5L203.5,186.8L203.6,186.5L206.6,186.9L207.7,190.1L204.1,193.1Z" fill="#2c2c34" stroke="#474751" stroke-width="0.8"/><path d="M199.6,211.6L196.5,212.7L196.7,210.6L198.5,209.5L196.8,208.7L198.2,203.4L200.6,204.5L200.6,209.3Z" fill="#2c2c34" stroke="#474751" stroke-width="0.8"/><path d="M26.6,220.8L23.7,206.8L19.6,203.6L19.6,201.7L14.1,197L13.5,190.9L17.6,186.4L19.2,179.7L18.1,171.8L19.5,167.5L26.8,164.2L31.5,165.2L31.2,169.4L36.9,166.3L37.4,167.9L34.1,172L34,175.8L36.3,177.9L35.5,184.9L31.1,189L32.3,193.4L35.8,193.6L37.4,197.4L40,198.6L39.6,204.7L36.4,207L34.3,209.5L29.7,212.5L30.4,215.7L29.9,219Z" fill="#2c2c34" stroke="#474751" stroke-width="0.8"/><path d="M0,168.8L5.1,166.2L12.2,166.1L15,168L19.5,167.5L18.1,171.8L19.2,179.7L17.6,186.4L13.5,190.9L14.1,197L19.6,201.7L19.6,203.6L23.7,206.8L26.6,220.8L28.7,227.6L29.1,231.2L27.9,237.4L28.4,240.8L27.6,244.9L28.1,249.6L25.5,252.7L29.4,258.2L29.7,261.3L32.1,265.4L35.2,264.1L40.5,267.5L43.4,272L20.5,285.8L1.2,299.8L0.7,300L0,300Z" fill="#2c2c34" stroke="#474751" stroke-width="0.8"/><path d="M200.6,204.5L201.8,202L209.2,205.1L222.3,196.7L225,206.3L223.7,207.5L210.3,211.5L217,219.3L214.8,220.6L213.7,223.2L208.6,224.2L207,227L204.1,229.4L196.6,228.1L196.4,227L199.8,214.7L199.6,211.6L200.6,209.3Z" fill="#2c2c34" stroke="#474751" stroke-width="0.8"/><path d="M307.6,266.4L308.8,266L309.1,268L314.3,266.9L319.8,267.1L323.9,267.3L328.4,262.3L333.4,257.6L337.6,253L338.9,255.6L339.8,261.4L336.4,261.4L335.8,266.2L337,267.2L334,268.7L334,271.6L332,274.7L331.9,277.6L330.5,279.1L310.4,275.5L307.9,268.1Z" fill="#2c2c34" stroke="#474751" stroke-width="0.8"/><path d="M302.5,262.7L302.1,257.3L303.9,253.4L305.7,252.6L307.7,254.9L307.8,259.3L306.4,263.6L304.5,264.1Z" fill="#2c2c34" stroke="#474751" stroke-width="0.8"/><path d="M283.6,223.4L285,226.8L284.4,228.5L286.5,234.3L281.8,234.5L280.1,230.8L274.2,230.1L279.1,222.7Z" fill="#2c2c34" stroke="#474751" stroke-width="0.8"/><path d="M225,206.3L222.3,196.7L237,188.3L239.6,178.4L238.9,172.4L242.6,170.4L246,165.2L248.9,163.9L256.7,164.9L259,167.1L262.2,165.7L266.5,175.6L270.9,178L271.4,182.8L268.1,185.6L266.5,191.9L271.1,199.6L279.3,203.9L282.7,209.9L281.6,215.6L283.8,215.6L283.8,219.7L287.5,223.8L283.6,223.4L279.1,222.7L274.2,230.1L261.8,229.5L242.9,214L233,208.5Z" fill="#2c2c34" stroke="#474751" stroke-width="0.8"/><path d="M322,300L330.5,297L334.9,282.7L331.9,277.6L331.9,277.6L332,274.7L334,271.6L334,268.7L337,267.2L335.8,266.2L336.4,261.4L339.8,261.4L342.8,266.4L346.5,269.1L351.4,270L355.4,271.3L358.4,275.5L360.2,277.9L362.6,278.8L362.6,280.5L360.1,284.7L359.1,286.8L356.3,289.1L353.8,293.9L350.7,293.6L349.3,295.3L348.3,298.9L348.5,300L322,300ZM338.9,255.6L337.6,253L339.6,250.5L340.4,251.1L339.8,254.2Z" fill="#2c2c34" stroke="#474751" stroke-width="0.8"/><path d="M400,258.4L394.1,259.1L383.2,259.2L373.8,260.3L376.4,251.7L386,247.8L385.4,244.4L382.2,243.1L382.1,236.5L375.7,233.2L373,228.5L369.7,224.5L380.9,228.4L387.5,227.3L391.5,228.3L392.9,226.6L397.5,227.3L400,226.4L400,258.4Z" fill="#2c2c34" stroke="#474751" stroke-width="0.8"/><path d="M400,226.4L397.5,227.3L392.9,226.6L391.5,228.3L387.5,227.3L380.9,228.4L369.7,224.5L375.7,217.5L375.2,212.5L370.1,211.2L369.6,206.2L367.4,199.8L370.3,195.5L367.4,194.3L369.2,188.4L371.9,178.3L378.8,181.4L383.8,180.3L385.2,176.6L390.4,175.3L394.2,172.8L395.5,166.2L400,164.9L400,226.4Z" fill="#2c2c34" stroke="#474751" stroke-width="0.8"/><path d="M400,164.9L395.5,166.2L394.2,172.8L390.4,175.3L385.2,176.6L383.8,180.3L378.8,181.4L371.9,178.3L371.3,171.3L366.4,171L358.7,163.6L353.4,162.7L346,158.4L341.3,157.6L338.4,159.2L333.9,159L329.1,163.8L323.3,165.4L322,159.5L323,150.6L317.8,147.6L319.5,141.7L315.1,141.2L316.6,133.8L322.8,136L328.7,133.1L323.9,127.8L321.9,122.7L316.6,125L315.9,131.5L313.8,125.7L313.8,125.7L316.7,122.7L324.3,120.9L328.8,123.4L333.5,130.4L336.9,130L344.5,129.8L343.4,125.4L349.1,122.3L354.7,117L363.7,121.8L364.4,128.9L367,130.8L374.2,130.3L376.4,132L379.7,141L387.3,147L391.7,151.1L398.7,155.2L400,155.8L400,164.9Z" fill="#2c2c34" stroke="#474751" stroke-width="0.8"/><path d="M287.5,223.8L283.8,219.7L283.8,215.6L281.6,215.6L282.7,209.9L279.3,203.9L271.1,199.6L266.5,191.9L268.1,185.6L271.4,182.8L270.9,178L266.5,175.6L262.2,165.7L258.5,158.9L259.9,156.3L257.8,146.4L262.3,144L263.4,147.3L266.8,151.2L271.3,152.4L273.8,152.1L281.6,145.8L284.1,145.1L286.1,147.7L283.8,151.9L288,156.4L289.6,156L291.7,162.2L298.1,164L302.7,168.1L312.2,169.6L322.6,167.4L323.3,165.4L329.1,163.8L333.9,159L338.4,159.2L341.3,157.6L346,158.4L353.4,162.7L358.7,163.6L366.4,171L371.3,171.3L371.9,178.3L369.2,188.4L367.4,194.3L370.3,195.5L367.4,199.8L369.6,206.2L370.1,211.2L375.2,212.5L375.7,217.5L369.7,224.5L373,228.5L375.7,233.2L382.1,236.5L382.2,243.1L385.4,244.4L386,247.8L376.4,251.7L373.8,260.3L361.3,258L354,256.3L346.5,255.4L343.6,246.2L340.4,244.9L335.3,246.3L328.6,249.9L320.4,247.4L313.7,241.6L307.3,239.5L302.8,232.3L297.9,222L294.3,223.3L290,220.7Z" fill="#2c2c34" stroke="#474751" stroke-width="0.8"/><path d="M201.8,202L201.6,202L202.5,200.7L202.4,197.5L204.1,193.1L207.7,190.1L206.6,186.9L203.6,186.5L203,180.2L204.6,176.9L206.4,175.1L208.2,173.2L208.6,168.6L210.8,170.2L218.1,167.9L221.6,169.5L227.1,169.5L234.8,166.3L238.4,166.5L246,165.2L242.6,170.4L238.9,172.4L239.6,178.4L237,188.3L222.3,196.7L209.2,205.1Z" fill="#2c2c34" stroke="#474751" stroke-width="0.8"/><path d="M273.8,152.1L271.3,152.4L268.6,147.4L268.7,146.1L265.7,146.1L263.7,143.8L262.3,144L259.7,141.5L254.7,139.3L255.4,135L254.3,131.9L263.5,130.5L264.9,132.8L267.5,134.4L266.1,136.6L269.7,139.6L267.8,142.4L270.6,144.7L273.6,146.1Z" fill="#2c2c34" stroke="#474751" stroke-width="0.8"/><path d="M172,0L172.8,1.5L175.5,3.6L175.1,5.6L179.6,7.6L181.6,10.6L179,13L173.6,12.7L172.3,13.7L173.9,17.4L175.5,24.4L169.8,25L167.7,27.4L167.3,32.8L164.6,31.8L158.6,32.3L156.8,29.8L154.3,31.7L151.8,30.1L146.6,29.9L139.1,27.3L132.4,26.5L127.2,26.7L123.6,29.6L120.4,30L120.2,25.2L118.2,20.2L122.2,17.9L122.2,13.5L120.4,9.3L120.1,4.3L126.5,4.4L133.8,0.1L133.8,0L172,0Z" fill="#2c2c34" stroke="#474751" stroke-width="0.8"/><path d="M175.5,24.4L178,24.8L179.7,22.4L181.7,22.9L188.6,21.9L192.9,28L191.2,30.2L191.8,33.5L197.1,34L199.5,38.6L199.3,40.7L207.8,44.4L212.9,42.7L217.1,47.6L220.9,47.5L230.8,50.8L230.9,53.8L228.2,59.2L229.6,64.8L228.6,68.1L222.1,68.8L218.7,71.6L218.5,75.9L213.1,76.7L208.7,79.9L202.4,80.4L196.7,84L197,89.2L196,88.9L195.2,87L193,86.6L188.3,84.5L186.5,86.9L185.6,85.9L175.2,83.4L174.8,79.8L168.6,81L166.1,86.3L160.9,93.4L157.9,91.8L154.8,93.3L151.8,91.5L153.5,90.5L154.6,87.2L156.5,84.2L156,82.4L157.4,81.7L158,83L162,83.3L163.7,82.6L162.5,81.6L163,80.1L160.6,77.7L159.7,73.5L157.2,71.9L157.7,68.6L154.7,65.9L151.9,65.5L147,62.4L142.6,63.4L141,64.9L138.2,64.9L136.5,67.2L131.6,68.2L129.3,69.7L126.2,67.3L121.9,67.2L117.8,66.1L114.9,68.3L114.5,65.6L110.7,62.8L112,58.8L113.9,56.1L115.3,56.7L113.6,52.1L119.7,43.5L123,42.3L123.7,39.3L120.4,30L123.6,29.6L127.2,26.7L132.4,26.5L139.1,27.3L146.6,29.9L151.8,30.1L154.3,31.7L156.8,29.8L158.6,32.3L164.6,31.8L167.3,32.8L167.7,27.4L169.8,25Z" fill="#2c2c34" stroke="#474751" stroke-width="0.8"/><path d="M116.3,0L118.5,0.8L120.1,4.3L120.1,4.3L120.4,9.3L122.2,13.5L122.2,17.9L118.2,20.2L120.2,25.2L120.4,30L123.7,39.3L123,42.3L119.7,43.5L113.6,52.1L115.3,56.7L113.9,56.1L107.6,52.2L102.7,53.6L99.6,52.6L95.6,54.8L92.3,51.1L89.5,52.5L89.1,51.9L86.1,46.8L81.1,46.2L80.5,42.9L75.9,41.8L74.9,44.5L71.3,42.3L71.7,39.4L66.7,38.5L63.5,35.1L60.8,28.2L61.3,24.5L59.7,18.7L57.3,14.7L59.1,11.8L57.6,6.1L62.1,2.7L67.5,0L116.3,0Z" fill="#2c2c34" stroke="#474751" stroke-width="0.8"/><path d="M76.6,65.8L76.1,69.9L72.4,69.9L73.7,72.1L71.5,78.4L70.2,80L64.3,80.3L61,82.5L55.5,81.7L45.9,79.2L44.4,75.8L37.8,77.5L37.1,79.4L33,78L29.6,77.7L26.6,75.9L27.6,73.5L27.4,71.8L29.3,71.2L32.7,74L33.7,71.4L39.6,71.8L44.3,70L47.5,70.3L49.6,72.3L50.3,70.7L49.3,64.2L51.7,62.9L54.1,58.2L59,61.5L62.8,57.4L65.1,56.6L70.3,59.7L73.5,59.2L76.5,61.1L76,62.4Z" fill="#2c2c34" stroke="#474751" stroke-width="0.8"/><path d="M110.7,62.8L114.5,65.6L114.9,68.3L110.8,70.3L107.7,77L103.6,83.6L98.3,85.4L94.1,85L89,87.5L86.5,89L81,87.1L76,83L73.9,81.8L72.6,78.5L71.5,78.4L73.7,72.1L72.4,69.9L76.1,69.9L76.6,65.8L80,68.4L82.5,69.5L88.1,68.3L88.6,66.3L91.3,66L94.6,64.4L95.3,65L98.4,63.8L100,61.4L102.2,60.8L109.3,63.9Z" fill="#2c2c34" stroke="#474751" stroke-width="0.8"/><path d="M141,64.9L142.6,63.4L147,62.4L151.9,65.5L154.7,65.9L157.7,68.6L157.2,71.9L159.7,73.5L160.6,77.7L163,80.1L162.5,81.6L163.7,82.6L162,83.3L158,83L157.4,81.7L156,82.4L156.5,84.2L154.6,87.2L153.5,90.5L151.8,91.5L150.6,87.2L151.3,83.1L151.1,78.8L147.2,73L145.1,68.8L143,65.8Z" fill="#2c2c34" stroke="#474751" stroke-width="0.8"/><path d="M151.8,91.5L154.8,93.3L157.9,91.8L160.9,93.4L161.1,95.8L157.8,97.9L155.8,97L153.9,108.2L150,107.3L145.2,103.9L137.3,106.1L134,108.4L124.2,107.9L119.1,106.5L116.5,107.2L114.5,103.3L113.3,101.7L114.9,100.2L113.2,99L111.1,101.1L107.2,98.4L106.7,94.5L102.7,92.2L101.9,89.2L98.3,85.4L103.6,83.6L107.7,77L110.8,70.3L114.9,68.3L117.8,66.1L121.9,67.2L126.2,67.3L129.3,69.7L131.6,68.2L136.5,67.2L138.2,64.9L141,64.9L143,65.8L145.1,68.8L147.2,73L151.1,78.8L151.3,83.1L150.6,87.2Z" fill="#2c2c34" stroke="#474751" stroke-width="0.8"/><path d="M133.8,0L133.8,0.1L126.5,4.4L120.1,4.3L118.5,0.8L116.3,0L133.8,0Z" fill="#2c2c34" stroke="#474751" stroke-width="0.8"/><path d="M36.4,0L36.3,3.2L43.1,1.1L44.4,0L50.3,0L50.3,0L54.4,2.4L57.6,6.1L57.6,6.1L59.1,11.8L57.3,14.7L59.7,18.7L61.3,24.5L60.8,28.2L63.5,35.1L60.6,36.2L58.8,35L57.1,37L52.3,39L49.8,41.7L45,43.9L46.2,47L46.9,51.4L50.3,53.9L54.1,58.2L51.7,62.9L49.3,64.2L50.3,70.7L49.6,72.3L47.5,70.3L44.3,70L39.6,71.8L33.7,71.4L32.7,74L29.3,71.2L27.4,71.8L20.2,68.8L18.8,70.9L13.1,70.8L14,63.7L17.4,56.8L7.7,54.9L4.6,52.3L5,47.7L3.6,45.4L4.4,38.3L3.3,27.1L7.3,27.1L9,23L10.6,12.9L9.4,9.1L10.7,6.8L16.3,6.2L17.5,8.6L22,3.1L21,0L36.4,0Z" fill="#2c2c34" stroke="#474751" stroke-width="0.8"/><path d="M114.5,103.3L116.5,107.2L119.1,106.5L124.2,107.9L134,108.4L137.3,106.1L145.2,103.9L150,107.3L153.9,108.2L150.5,112.1L148.1,118.6L150.2,123.7L144.4,122.5L137.6,125.3L137.6,129.8L131.5,130.6L126.8,127.5L121.5,130L116.5,129.7L116,123.8L112.7,120.9L113.8,119.6L113.1,118.6L114.2,115.7L116.7,112.8L113.5,108.8L112.9,105.5Z" fill="#2c2c34" stroke="#474751" stroke-width="0.8"/><path d="M138.8,181.1L138,183.6L128.3,184.2L128.4,182.9L120.3,181.3L121.5,177.8L125.2,180.6L130.4,180.1L135.3,180.7L135.2,182.1ZM116.5,129.7L121.5,130L126.8,127.5L131.5,130.6L137.6,129.8L137.6,125.3L140.9,127.7L138.8,133.3L137.2,134.3L133.2,134L129.7,133.2L121.6,135.5L126.2,140.4L122.8,141.8L119.1,141.8L115.6,137.3L114.4,139.3L115.8,144.5L119.2,148.5L116.7,150.4L120.4,154.3L123.7,156.8L123.8,161.6L117.6,159.3L119.6,163.7L115.3,164.5L117.9,171.9L113.4,172L108,168.4L105.5,161.7L104.3,156L101.7,152.1L98.3,147.2L97.8,144.7L100.9,140.5L101.3,137.7L103.5,136.4L103.6,134.1L108,133.3L110.5,131.4L114.1,131.6L115.2,130Z" fill="#2c2c34" stroke="#474751" stroke-width="0.8"/><path d="M103.6,134.1L103.5,136.4L101.3,137.7L100.9,140.5L97.8,144.7L96.7,144.1L96.5,142.2L92.8,139.3L92.3,135.1L92.8,129.1L93.7,126.3L92.6,124.9L92.2,122L95.1,117.6L95.5,119.3L97.3,118.5L98.7,120.9L100.3,121.8L100.8,125.1L99.9,128.1L100.8,132Z" fill="#2c2c34" stroke="#474751" stroke-width="0.8"/><path d="M73.9,81.8L76,83L81,87.1L86.5,89L89,87.5L90.6,91.2L92.7,93.9L90.2,97.5L87.1,95.4L82.5,95.5L76.8,94L73.7,94.2L72.2,96.1L69.8,94L68.4,97.9L71.7,102.3L73.2,105.2L76.2,108.6L78.8,110.6L81.3,114.5L87.2,117.9L86.5,119.5L80.2,116.1L76.3,112.8L70.2,110.1L64.6,103.3L66,102.6L62.9,98.6L62.8,95.5L58.5,94L56.4,98L54.5,94.9L54.6,91.6L54.8,91.4L59.5,91.8L60.7,90.1L63,91.7L65.6,91.9L65.6,89.2L67.9,88.3L68.6,84.4Z" fill="#2c2c34" stroke="#474751" stroke-width="0.8"/><path d="M27.4,71.8L27.6,73.5L26.6,75.9L29.6,77.7L33,78L32.5,82L29.5,83.6L24.6,82.4L23.1,86.3L20,86.6L18.8,85.1L15.1,88.3L11.9,88.8L9,86.7L6.7,82.5L3.5,84L3.6,79.6L8.5,74.1L8.3,71.6L11.3,72.5L13.1,70.8L18.8,70.9L20.2,68.8Z" fill="#2c2c34" stroke="#474751" stroke-width="0.8"/><path d="M3.6,45.4L5,47.7L4.6,52.3L2.7,52.5L1.2,51.6L1.9,45.8Z" fill="#2c2c34" stroke="#474751" stroke-width="0.8"/><path d="M0,35L0.7,35.8L4.4,38.3L4.4,38.3L3.6,45.4L1.9,45.8L1.2,51.6L0,50.6L0,35Z" fill="#2c2c34" stroke="#474751" stroke-width="0.8"/><path d="M0,10.8L3.8,8.8L9.4,9.1L9.4,9.1L10.6,12.9L9,23L7.3,27.1L3.3,27.1L4.4,38.3L0.7,35.8L0,35L0,10.8Z" fill="#2c2c34" stroke="#474751" stroke-width="0.8"/><path d="M33,78L37.1,79.4L37.8,77.5L44.4,75.8L45.9,79.2L55.5,81.7L54.7,86.5L56.3,90.6L51,89.2L45.6,92.6L46,97.3L45.1,99.9L47.3,104.7L53.6,109.4L57,116.9L64.4,124.2L69.6,124.1L71.2,126.1L69.4,127.9L75.3,131.1L80.3,133.8L86,138.4L86.7,140L85.4,143.1L81.7,139.1L75.9,137.6L73.1,143.3L77.9,146.5L77.1,151L74.3,151.5L70.8,158.8L68,159.4L68,156.8L69.4,152.3L70.8,150.4L68.2,145.5L66.2,141.1L63.4,140L61.5,136.2L57.2,134.6L54.3,131L49.3,130.5L44.1,126.4L38,120.6L33.5,115.4L31.4,106.3L28.1,105.2L22.6,102.1L19.6,103.4L15.7,107.7L12.9,108.4L13.7,104.4L10.1,103.2L8.3,95.9L10.7,93L8.7,89.4L9,86.7L11.9,88.8L15.1,88.3L18.8,85.1L20,86.6L23.1,86.3L24.6,82.4L29.5,83.6L32.5,82ZM61.8,157.5L66.9,156.7L64.5,163.4L65.5,166L64.1,170.3L59,167.1L55.6,166.2L46.3,161.9L47.2,157.6L55,158.4ZM21.4,133.6L24.8,130.9L28.8,137.1L27.8,148.6L24.8,148.1L22.1,150.9L19.6,148.7L19.3,138.2L17.8,133.1Z" fill="#2c2c34" stroke="#474751" stroke-width="0.8"/><path d="M273.1,125L275,125.3L279.6,130.8L282.5,131.4L283.7,129.1L287.6,125.5L291.1,130.2L294.5,136.5L297.7,136.9L299.7,139.3L294.2,139.9L293,146.7L291.9,149.7L289.5,151.7L289.6,156L288,156.4L283.8,151.9L286.1,147.7L284.1,145.1L281.6,145.8L273.8,152.1L273.6,146.1L270.6,144.7L267.8,142.4L269.7,139.6L266.1,136.6L267.5,134.4L264.9,132.8L263.5,130.5L265.2,129.1L270.1,131.6L273.7,132.1L274.6,131.1L271.4,126.3ZM271.3,152.4L266.8,151.2L263.4,147.3L262.3,144L263.7,143.8L265.7,146.1L268.7,146.1L268.6,147.4Z" fill="#2c2c34" stroke="#474751" stroke-width="0.8"/><path d="M230,110.8L230.8,109.7L236.5,111.2L246.3,112.7L255.4,117.1L256.6,118.8L260.6,117.4L266.9,119.3L268.9,123L273.1,125L271.4,126.3L274.6,131.1L273.7,132.1L270.1,131.6L265.2,129.1L263.5,130.5L254.3,131.9L247.8,127.5L240.7,127.9L241.7,124.1L240,118L236.2,114.6L232.5,113.6Z" fill="#2c2c34" stroke="#474751" stroke-width="0.8"/><path d="M55.5,81.7L61,82.5L64.3,80.3L70.2,80L71.5,78.4L72.6,78.5L73.9,81.8L68.6,84.4L67.9,88.3L65.6,89.2L65.6,91.9L63,91.7L60.7,90.1L59.5,91.8L54.8,91.4L56.3,90.6L54.7,86.5Z" fill="#2c2c34" stroke="#474751" stroke-width="0.8"/><path d="M113.9,56.1L112,58.8L110.7,62.8L109.3,63.9L102.2,60.8L100,61.4L98.4,63.8L95.3,65L94.6,64.4L91.3,66L88.6,66.3L88.1,68.3L82.5,69.5L80,68.4L76.6,65.8L76,62.4L76.5,61.1L77.5,58.9L80.4,59L82.7,58L82.9,57L84.2,56.5L84.6,54.2L86.1,53.8L87.2,51.9L89.1,51.9L89.5,52.5L92.3,51.1L95.6,54.8L99.6,52.6L102.7,53.6L107.6,52.2Z" fill="#2c2c34" stroke="#474751" stroke-width="0.8"/><path d="M63.5,35.1L66.7,38.5L71.7,39.4L71.3,42.3L74.9,44.5L75.9,41.8L80.5,42.9L81.1,46.2L86.1,46.8L89.1,51.9L87.2,51.9L86.1,53.8L84.6,54.2L84.2,56.5L82.9,57L82.7,58L80.4,59L77.5,58.9L76.5,61.1L73.5,59.2L70.3,59.7L65.1,56.6L62.8,57.4L59,61.5L54.1,58.2L50.3,53.9L46.9,51.4L46.2,47L45,43.9L49.8,41.7L52.3,39L57.1,37L58.8,35L60.6,36.2Z" fill="#2c2c34" stroke="#474751" stroke-width="0.8"/><path d="M236,300L232,295.8L229,294.6L224.6,287.8L223.8,282.8L224.1,278.5L220.3,270.5L217.1,267.6L213.5,266.1L211.3,261.9L211.7,260.2L209.8,256.4L207.9,254.7L205.3,249.2L201.2,243.2L197.8,238L194.5,238L195.5,233.9L195.8,231.2L196.6,228.1L196.6,228.1L204.1,229.4L207,227L208.6,224.2L213.7,223.2L214.8,220.6L217,219.3L210.3,211.5L223.7,207.5L225,206.3L233,208.5L242.9,214L261.8,229.5L274.2,230.1L280.1,230.8L281.8,234.5L286.5,234.3L289.1,240.8L292.4,242.5L293.6,245.2L298.1,248.3L298.5,251.4L297.9,253.9L298.7,256.4L300.6,258.4L301.5,260.8L302.5,262.7L304.5,264.1L306.4,263.6L307.6,266.4L307.9,268.1L310.4,275.5L330.5,279.1L331.9,277.6L334.9,282.7L330.5,297L322,300L236,300Z" fill="#2c2c34" stroke="#474751" stroke-width="0.8"/><path d="M181.8,182.5L182.3,182.4L183.2,180.4L188,180.5L194.1,178.1L189.6,181.6L190.1,183.1L189.4,182.8L188.1,183.4L187.1,183.3L186.8,183.6L186.6,182.8L186.2,182.3L184.9,182.2L183.1,182.9Z" fill="#2c2c34" stroke="#474751" stroke-width="0.8"/><path d="M181.8,182.5L183.1,182.9L184.9,182.2L186.2,182.3L186.6,182.8L186.8,183.6L187.1,183.3L188.1,183.4L189.4,182.8L190.1,183.1L190.3,183.8L183.5,187.1L180.2,186L178.6,182.8Z" fill="#2c2c34" stroke="#474751" stroke-width="0.8"/><path d="M209.4,282.7L182.9,282.7L157,282.7L130.2,282.7L130.2,255.8L130.2,229L128.2,222.9L129.9,218.1L128.9,214.7L131.3,211L140.2,210.9L146.6,212.9L153.2,215.3L156.3,216.5L161.5,214L164.2,211.7L170.1,211.1L174.8,212.1L176.7,216L178.2,213.4L183.5,215.3L188.8,215.7L192.1,213.7L195.8,225L196.4,227L194.6,230.1L193.1,235.9L191.3,239.8L189.8,241.1L187.5,238.7L184.5,235.3L179.8,224.3L179.1,225L181.8,233.1L185.9,240.7L191,252.4L193.4,256.4L195.6,260.6L201.6,268.7L200.3,270L200.5,274.7L208.2,281.2Z" fill="#2c2c34" stroke="#474751" stroke-width="0.8"/><path d="M130.2,282.7L130.2,297L122.5,297L122.4,300L95.8,286.3L69.2,272.5L62.4,276.5L57.7,279.1L54,275.2L43.4,272L40.5,267.5L35.2,264.1L32.1,265.4L29.7,261.3L29.4,258.2L25.5,252.7L28.1,249.6L27.6,244.9L28.4,240.8L27.9,237.4L29.1,231.2L28.7,227.6L26.6,220.8L29.9,219L30.4,215.7L29.7,212.5L34.3,209.5L36.4,207L39.6,204.7L40,198.6L47.8,201.4L50.6,200.7L56.2,202L65.1,205.5L68.2,212.5L74.2,214L83.6,217.3L90.7,221.1L94,219.1L97.2,215.6L95.6,209.6L97.7,205.7L102.5,202L107.1,200.9L116.1,202.6L118.4,206.1L120.9,206.1L123,207.5L129.7,208.4L131.3,211L128.9,214.7L129.9,218.1L128.2,222.9L130.2,229L130.2,255.8Z" fill="#2c2c34" stroke="#474751" stroke-width="0.8"/><path d="M87.2,117.9L81.3,114.5L78.8,110.6L76.2,108.6L73.2,105.2L71.7,102.3L68.4,97.9L69.8,94L72.2,96.1L73.7,94.2L76.8,94L82.5,95.5L87.1,95.4L90.2,97.5L92.6,97.5L90.9,101.6L94.1,105.2L93.2,109.5L91.6,109.9L90.3,110.8L88.2,112.9Z" fill="#2c2c34" stroke="#474751" stroke-width="0.8"/><path d="M112.7,120.9L116,123.8L116.5,129.7L115.2,130L114.1,131.6L110.5,131.4L108,133.3L103.6,134.1L100.8,132L99.9,128.1L100.8,125.1L101.6,125.2L101.9,123.3L105.8,121.9L107.3,121.6L109.6,121.1Z" fill="#2c2c34" stroke="#474751" stroke-width="0.8"/><path d="M89,87.5L94.1,85L98.3,85.4L101.9,89.2L102.7,92.2L106.7,94.5L107.2,98.4L111.1,101.1L113.2,99L114.9,100.2L113.3,101.7L114.5,103.3L112.9,105.5L113.5,108.8L116.7,112.8L114.2,115.7L113.1,118.6L113.8,119.6L112.7,120.9L109.6,121.1L107.3,121.6L107.1,120.9L107.9,119.8L108.7,117.6L107.7,117.7L106.4,116L105.3,115.6L104.5,114.1L103.2,113.5L102.2,112.2L101,112.8L100.1,115.8L98.5,116.5L99.1,115.7L96.5,113.8L94.3,112.8L93.4,111.5L91.6,109.9L93.2,109.5L94.1,105.2L90.9,101.6L92.6,97.5L90.2,97.5L92.7,93.9L90.6,91.2Z" fill="#2c2c34" stroke="#474751" stroke-width="0.8"/><path d="M97.3,118.5L95.5,119.3L95.1,117.6L92.2,122L92.6,124.9L91.2,124.2L89.3,121.3L86.5,119.5L87.2,117.9L88.2,112.9L90.3,110.8L91.6,109.9L93.4,111.5L94.3,112.8L96.5,113.8L99.1,115.7L98.5,116.5Z" fill="#2c2c34" stroke="#474751" stroke-width="0.8"/><path d="M100.8,125.1L100.3,121.8L98.7,120.9L97.3,118.5L98.5,116.5L100.1,115.8L101,112.8L102.2,112.2L103.2,113.5L104.5,114.1L105.3,115.6L106.4,116L107.7,117.7L108.7,117.6L107.9,119.8L107.1,120.9L107.3,121.6L105.8,121.9L101.9,123.3L101.6,125.2Z" fill="#2c2c34" stroke="#474751" stroke-width="0.8"/><path d="M136.7,140.3L135.1,140.6L134.7,140.3L135.1,139.8L136,139.4L136.3,139.4L136.7,139.9ZM240.4,128.1L240.8,128.3L241.7,128.5L242.2,128.8L242.5,128.9L243.2,128.3L244.2,128.3L245.1,128.4L245.6,128.5L246.1,128.7L246.8,128.8L247.1,128.5L247.5,127.7L247.6,127.6L247.7,127.6L248.2,127.5L248.7,127.6L248.9,127.7L249.2,128.3L249.7,128.6L250.7,129.6L251.3,130L251.5,130.2L251.3,130.4L251.4,130.6L251.7,130.9L252.2,131.1L252.8,131L253.1,131.1L253.2,131.3L253.3,131.6L253.3,131.8L253.4,132.1L253.8,132.7L254.3,133L254.6,133.3L255,134.5L255.2,135.2L255.1,135.8L254.8,136.5L254.2,137.3L254.3,137.6L254.5,138L254.4,138.4L254.9,139.4L255.1,140L254.9,140.2L254.8,140.4L255.7,140.9L256.6,141.3L257.1,141.4L258.2,141.2L259,141.1L259.7,141.5L260.8,142.5L261.9,143.7L262.2,144.1L262.3,144.2L262.5,144.5L262.3,144.5L261.9,144.3L261,143.5L260.5,143.8L260.1,144.4L259.6,146.5L259.3,146.7L258.6,146.7L257.9,146.7L257.3,146.8L257.2,146.9L257.3,147.1L257.4,147.5L257.5,147.9L257.6,148.3L257.8,148.6L258.2,148.9L258.2,149.2L258.2,149.7L258.1,150L258,150.2L258.2,150.7L258.6,151.3L258.8,151.5L258.8,152.7L258.9,153.2L259,153.9L259,155.1L259,155.4L259.2,155.5L259.5,155.5L259.9,155.6L260,155.8L260,156L259.6,156.5L259.5,156.9L259.4,157.4L259.2,157.7L258.8,158.3L258.6,159L258.4,159.5L258.5,159.7L259.3,159.8L259.7,160.1L260.8,160.8L261,161.1L260.7,161.6L260.7,161.7L260.8,162L260.9,162.4L260.9,162.8L260.9,163.4L261.1,163.5L261.8,164.1L262.3,164.7L262.4,164.8L262.1,165.3L262.2,165.8L262.1,165.9L261.9,165.7L261.5,165.6L261.1,165.6L260.8,165.8L260.3,166.2L259.7,166.6L259.2,167L258.9,167.3L258.7,167.2L258.5,167L258.4,166.7L258.4,165.4L258.3,165L258.1,164.7L257.8,164.6L257.5,164.5L257.1,164.5L256.6,164.8L255.9,165.2L254.9,165.2L254.2,165.1L253.8,165L252.4,164.5L252.1,164.4L251.6,164.2L251,164L249.9,164.4L249.5,164.3L248.8,164L248.6,164.1L247.9,165L246.7,166L246.1,166.2L245.8,165.2L245.5,164.8L245.3,164.7L245,164.6L244.8,164.7L244.1,165.4L242.9,165.8L242,166L240.4,166.3L239.3,166.5L238.8,166.5L237.7,166.4L236.7,166.2L235.8,166.2L235.1,166.3L233.3,167L230.4,168.5L228.2,169.3L227,169.6L226,169.7L224.4,169.8L223,169.6L222.1,169.7L221.6,169.5L220.8,168.9L219.9,168.2L219.6,168.1L219,168L218.3,167.9L216.4,168.8L215.8,169L215.1,169.2L213.8,169.8L213.2,170.1L212.5,170L211.5,170L210.8,170L210.2,169.6L209.9,169.1L208.8,168.8L208,168.7L207.8,168.9L207.6,169.6L207.3,171.2L207.2,171.6L207.9,173.2L207.9,173.5L207.4,173.5L206.8,173.6L206.4,173.7L206.1,174L205.9,175.4L205.3,175.6L205,175.9L204.7,176.8L204.5,176.8L203.4,176.1L202.9,176.1L203.3,175.4L202.9,174.1L202.4,172.8L202.8,172L203.8,171.1L204.9,169.9L204.9,169.2L204.8,168.7L204.5,168.3L204,167.8L203,168.4L202.3,168.9L201.9,169.1L201.4,169.4L201.1,170L200.5,170.4L199.6,170.6L198.1,170.1L196.6,169.4L195.7,168.8L195,168.6L194.3,168.9L192.3,170.4L190.4,172.6L190,173L188.2,173.9L187.1,174.2L186.6,174.1L184.3,174.5L183.1,174.6L182.2,175.1L180.5,174.6L179.4,173.9L178.8,173.2L177.8,171.7L177.1,171L175.4,170.3L172.6,168.8L171.8,168.6L169.9,168.3L167.9,168.2L167.4,168.8L167.3,171L166.9,171.7L166.8,172.8L166.6,173.2L166.1,173.4L165.5,173L165.1,172.9L164.1,173.3L162.2,174L161.5,174.1L159.2,173.3L158.4,172.7L157.9,172.1L157.7,171.1L157.3,170.5L157.3,170.1L157.2,169.7L156.7,169.5L156.2,169.8L155.7,169.8L155,169.6L153.5,168.7L152.3,168.7L151.5,169.7L151,170L150.4,170.1L150.3,169.8L150.8,169.2L148.9,169.3L147.9,169.8L147.2,169.7L146.6,169.5L146.7,169.2L147.3,169.1L147.8,168.9L149.8,168.7L150.3,168.5L150.8,167.8L151.7,167.1L151.8,166.8L151.1,166.8L148,167L145.9,166.9L145.6,167.2L145.3,167.3L145.2,166.4L145.6,166L146,166.1L147.1,165.7L147,165L146.2,164.5L146.1,164.2L145.5,164.2L145,163.8L144.9,163L144.5,162L144,161.6L144.1,161.3L145,161L145.2,159.7L145.1,158.8L144.6,158.8L143.2,158.1L142.7,158.2L142.3,157.5L141.4,157L141,157.2L140.7,157.4L140.4,157.3L139.7,156.9L139.1,156.6L138.8,156.3L139.2,155.5L139.6,155.5L139.7,154.9L139.4,153.9L139.4,153.4L139.8,153.2L140.3,153.3L140.8,153.9L140.9,154.5L140.8,155.1L141.2,155.7L141.4,155.8L141.5,155.2L141.7,155.1L142,155.4L142.6,155.5L144.2,155.1L144.5,154.8L143.3,154.9L142.9,154.6L142.5,153.9L142.2,153.3L142.1,153.1L142,152.6L142.1,152.4L142.9,152.1L143.6,151.1L143.3,150.8L143,150.7L142.6,150.8L142.3,150.5L142.3,150L142.5,149.7L142.6,149.1L141.7,147.9L141.4,147.6L141.6,147.2L142.3,146.5L143,145.7L142.9,145.4L142.4,145.3L140.1,145.7L139.2,146L137.6,146.1L137.5,145.7L137.5,145.2L137.9,144.5L137.9,142.6L138.1,141.6L139,141.3L140,139.8L141.8,138L143.6,138L144.4,137.5L145.4,137.5L145.6,137.9L145.8,138.2L146.7,138.7L148.4,138.6L148.8,138.4L149.2,138.2L148.4,137.3L148.7,137L149.4,137L150.1,137.2L150.2,137.4L150,137.7L149.7,138.2L150,138.3L152.1,138L154.4,138.2L155.1,138.1L156.9,138.1L157.3,137.8L156.7,137.4L156.2,137.3L155.8,137.1L155.5,136.8L156.6,136L157.3,135.8L160.3,135.3L162.5,135L162.6,134.8L162.2,134.8L159.3,134.4L158.6,134.1L157.7,133.3L157.4,133L157.2,132.7L157.4,131.8L157.5,131.1L157.9,130.8L159,130.7L163,131.4L165.9,131L169,132L171.9,131.8L172.6,131.3L173.3,129.9L177.5,127.5L179,126.2L180.5,125.5L183.2,124.8L185.5,123.8L186.1,123.6L191.6,124.1L195.3,124.2L197,123.2L198,123.5L197.9,123.9L197.7,124.2L197.8,124.8L198.4,125.6L198.9,126.2L200.7,127.1L203.1,126.4L203.5,126.4L204,126.6L204.8,128.9L205.5,129.7L206.3,130.3L207,130.4L207.5,129.8L207.9,129.6L208.8,129.5L210.3,130.3L210.8,131.1L213.2,131.7L215.4,132L216.4,132.7L219.5,133.4L220.7,133.3L222.7,132.6L226.5,131.8L229,132.9L229.7,133L230.3,132.9L231.2,133.2L232.1,133L234.9,131.8L235.8,131L236.7,130.8L237.6,130.4L239.8,129ZM150.3,124.1L150.1,125.1L150.6,126.2L151.5,127.8L152.5,128.6L156.5,130.5L157.3,130.7L157.1,131.5L156.9,132.2L156.6,132.6L155.4,132.9L152.2,132.1L151.4,132L150.8,132.2L149.7,132.8L148.5,132.6L146.9,132.9L146.4,134.1L145.3,135.5L143.4,136.6L142,137.1L140,139.2L139.1,140.4L138.7,140.6L138.2,140.8L138.4,140.2L138.6,139.7L138.6,139.3L138.6,138.7L139.2,138.1L139.9,137.6L141.7,136.7L142.2,136L140.7,136L139.3,136.2L138.4,136.1L137.6,136.1L137.3,135.5L137.1,135.1L137.3,135L137.6,134.9L138.1,134.2L138.5,133.7L139.1,133.1L139.2,132.7L139.2,132.4L139.1,132.1L139.1,131.9L139,131.4L139.1,130.6L140.5,129.7L140.9,129.6L141,129.1L140.9,128.2L140.7,127.4L140.5,127.3L140.2,127.1L140,126.8L139.6,126.5L139,126.3L139,126.1L139.1,125.8L139.3,125.6L140.3,125.4L140.4,125.2L140.5,124.7L140.7,124.3L141,124.1L141.4,124.1L142.2,124L142.8,123.9L143.3,123.5L143.6,123.3L144.8,123.1L145.2,123L145.5,123.1L146,123.6L146.7,124.3L147.1,124.5L147.4,124.4L148,124.1L148.5,124.1L148.9,124.2L149.1,124L149.4,123.9Z" fill="#b8e653" stroke="#0c0e06" stroke-width="1"/></svg>
