<svg xmlns="http://www.w3.org/2000/svg" viewBox="0 0 400 300"><path d="M193.3,300L207.9,295.1L216.9,285.7L213.7,278.8L226.4,277.7L232,283.4L228.9,294.1L237.3,297.9L238.4,300L193.3,300Z" fill="#2c2c34" stroke="#474751" stroke-width="0.8"/><path d="M0,254L2.2,256.7L12,254.1L29.6,255.4L43.5,252.6L52.2,256.8L47.8,270L42.4,278.3L40.4,295.9L41.7,300L0,300Z" fill="#2c2c34" stroke="#474751" stroke-width="0.8"/><path d="M41.7,300L40.4,295.9L42.4,278.3L47.8,270L52.2,256.8L43.5,252.6L29.6,255.4L12,254.1L2.2,256.7L0,254L0,124.2L0,124.2L14.6,124.5L30.4,138.5L31.4,146.7L53.3,146.9L79.4,144.3L93.4,155.4L112.1,158.6L125.8,150.8L126.1,144.5L156.4,143L185.7,142.7L164.9,150L173.3,161.7L192.8,163.6L211.3,175.8L215.2,195.6L227.9,195.1L237.5,200.9L218.1,215.4L216,224.3L224.4,233.5L218.3,238.1L203.3,242.1L203.7,253.4L197.1,260.2L213.7,278.8L213.7,278.8L216.9,285.7L207.9,295.1L193.3,300L41.7,300Z" fill="#2c2c34" stroke="#474751" stroke-width="0.8"/><path d="M238.4,300L237.3,297.9L228.9,294.1L232,283.4L226.4,277.7L213.7,278.8L197.1,260.2L203.7,253.4L203.3,242.1L218.3,238.1L224.4,233.5L216,224.3L218.1,215.4L237.5,200.9L253.6,209.9L268.6,226L269.3,238.7L278.6,239.3L291.7,251.3L301.3,259.8L297.4,281.9L282.5,288.3L283.8,294.1L281.7,300L238.4,300Z" fill="#2c2c34" stroke="#474751" stroke-width="0.8"/><path d="M281.7,300L283.8,294.1L282.5,288.3L297.4,281.9L301.3,259.8L330.6,264.8L333.2,260.3L353,258.5L379.2,265.1L366.5,286.2L368.1,300L281.7,300Z" fill="#2c2c34" stroke="#474751" stroke-width="0.8"/><path d="M368.1,300L366.5,286.2L379.2,265.1L387.6,267.8L400,271.9L400,300Z" fill="#2c2c34" stroke="#474751" stroke-width="0.8"/><path d="M213.1,131.1L211.8,131.4L212,130.4L214.3,128.7L217.9,127.6L218.8,127.5L218.2,129ZM206.9,157.1L202.9,158.5L192.5,158.9L188.3,158.3L185.1,158.7L191,155.7L191.7,154.4L194.2,154.2L195,153.8L195.8,147.1L195.4,145.4L195,144.6L193.9,143.9L191.7,143.1L191.2,142.6L192.7,141.9L195.8,141.5L198.1,140.7L202.9,140.5L205.2,139.8L209.2,139.6L207.2,142.6L206.3,143.8L206.7,146.6L206.3,148.5L206.8,150.8L207.9,152.4L207.1,153.9L207.1,156.3Z" fill="#b8e653" stroke="#0c0e06" stroke-width="1"/></svg>
