<svg xmlns="http://www.w3.org/2000/svg" viewBox="0 0 300 300"><path fill="#e8e8ea" d="M150.6,226.5L146.3,235.6L142.7,245.1L141.2,254.2L141.4,263.4L140.4,271.8L138.6,280L131.7,277.6L127.9,271.8L127.1,262L122,250.3L120.2,246.8L113,240.3L106.4,237L101.3,232.2L102,232.6L98.2,226L95.4,219.1L89.5,199.2L87.5,194.4L84.9,190.1L84.1,185.7L84.9,180.9L87.5,173.8L89,166.5L87.7,156.6L88.2,146.7L90.3,142.4L123.5,82.6L132.7,69.8L138.4,63.4L143,56.4L147.3,47.4L152.9,39.2L156.8,36.6L176,29.3L181.8,22.2L186.7,20L192.1,20.1L195.7,23.5L198.7,27.5L202.1,29.7L210.5,33.5L214.3,37.3L215.9,43.8L210.8,50L208.2,55.5L207.7,61.7L208.7,69.9L208.7,78.2L202.3,97.6L195.4,109.8L193.6,115.7L191.3,130.7L187.2,145.6L183.9,164.5L178.3,184L174.9,192.1L170.8,199.9L161.4,214.5Z"/></svg>
