<svg xmlns="http://www.w3.org/2000/svg" viewBox="0 0 400 300"><path d="M225,0L223.9,6.2L217.7,28.2L204.1,30.7L186.2,60.6L166.4,96.4L143.7,128.6L110.1,153.3L76.2,175.7L48.6,178.7L33.7,190.4L25.2,181.9L11.4,195L0,199.4L0,0Z" fill="#2c2c34" stroke="#474751" stroke-width="0.8"/><path d="M189.7,300L194,287.4L208.9,287.4L223.9,294.7L231.4,288.1L233.7,294.6L233.7,294.6L231.7,300L189.7,300Z" fill="#2c2c34" stroke="#474751" stroke-width="0.8"/><path d="M201.2,179.9L199.7,183.1L198.5,186.3L198,189.4L198.1,192.6L197.7,195.5L197.1,198.3L194.7,197.5L193.4,195.5L193.2,192.2L191.4,188.1L190.8,186.9L188.3,184.7L186,183.5L184.3,181.9L184.5,182L183.2,179.8L182.2,177.4L180.2,170.6L179.5,168.9L178.6,167.4L178.4,165.9L178.6,164.2L179.5,161.8L180,159.3L179.6,155.9L179.8,152.5L180.5,151L191.9,130.4L195.1,126.1L197,123.9L198.6,121.4L200.1,118.3L202,115.5L203.4,114.6L210,112.1L212,109.7L213.6,108.9L215.5,109L216.7,110.1L217.8,111.5L218.9,112.3L221.8,113.6L223.1,114.9L223.7,117.1L221.9,119.2L221,121.1L220.9,123.2L221.2,126.1L221.2,128.9L219,135.6L216.6,139.8L216,141.8L215.2,147L213.8,152.1L212.7,158.6L210.7,165.3L209.6,168.1L208.2,170.8L204.9,175.8ZM137.6,129.3L138.7,131L138.3,132.2L134.9,131.6L134.7,130.5L136,130.7Z" fill="#b8e653" stroke="#0c0e06" stroke-width="1"/></svg>
