<svg xmlns="http://www.w3.org/2000/svg" viewBox="0 0 400 300"><path d="M0,90.3L5.1,86.6L6.4,83L6.6,78.9L8.5,75L7.9,68.6L9.3,58.7L11.5,51.7L14.8,45.7L15.5,38.9L16.5,31L20.9,25.3L26.9,21.7L36.1,25.5L43.3,29.7L51.5,30.8L59.9,33L63.2,26.2L64.7,25.3L69.9,26.4L82.4,20.8L86.8,23.2L90.4,22.9L92.1,20.1L96.3,19.2L104.7,20.3L111.9,20.6L115.6,19.4L122.4,28.7L127.4,30.1L130.5,28.2L135.6,28.9L141.9,26.5L144.6,31.3L154.4,38.8L153.8,52L158.3,53.5L154.7,57.5L150.3,60.5L146.1,66.3L143.7,71.5L143.1,80.5L140.4,84.8L140.4,93.3L137.1,96.4L136.7,103.1L135.2,104L134.1,110.1L137,115.2L137.7,128.8L137.7,128.8L139.7,139.1L138.6,145L140.8,151.6L147.3,157.9L153.4,172.2L149,171L133.9,172.9L130.9,174.3L127.7,181.5L130.2,186.5L128.2,200L126.8,211.5L129.9,213.6L137.7,218L140.8,215.9L141.7,228.3L133.1,228.2L128.5,221.9L124.4,217L115.8,215.4L113.3,209.4L106.4,213L97.4,211.4L93.7,206.2L86.6,205.2L81.3,205.4L80.7,201.9L76.8,201.6L71.6,200.9L64.7,202.6L59.8,202.3L57.1,203.4L57.7,189.8L53.9,185.6L53.1,178.6L54.7,171.8L52.5,167.4L52.3,160.3L38.6,160.4L39.6,156.3L33.9,156.3L33.3,158.3L26.3,158.7L23.5,165.3L21.8,168.2L15.6,166.6L11.9,168.2L4.5,169.1L0.2,163.1L0,162.8L0,90.3Z" fill="#2c2c34" stroke="#474751" stroke-width="0.8"/><path d="M364.2,0L363.4,1.7L353.8,18.2L344.2,30.8L331,46.2L319.7,55.3L303,66.4L292.5,74.9L280.2,88.5L277.7,94.5L275.1,97.1L275.1,97.1L268.4,87.8L268.3,47L278.1,34.2L281.2,30.7L288.4,30.5L298.4,22.5L313,22L333.6,0L364.2,0Z" fill="#2c2c34" stroke="#474751" stroke-width="0.8"/><path d="M248.4,130.8L232.2,119.5L231.5,113L190.8,90.1L188.9,88.9L188.8,77L192,72.4L197.5,65L201.6,56.8L196.6,43.9L195.4,38.3L190,30.5L196.9,23.8L204.5,16.3L210.4,18.2L210.4,24.5L214.2,28.2L222,28.2L236.2,37.8L239.8,37.9L242.4,37.6L244.9,38.9L252.4,39.8L255.7,35.1L265.9,30.4L270.5,34.2L278.1,34.2L268.3,47L268.4,87.8L275.1,97.1L267.2,101.6L264.5,106.3L260.3,107.1L258.7,115L255.1,119.6L252.9,127Z" fill="#2c2c34" stroke="#474751" stroke-width="0.8"/><path d="M103.1,300L102,298.9L98.5,292.1L96.3,290L91.9,280.5L104.5,281.8L108.1,283.2L111.9,282.9L118.1,275.3L127.9,265.6L131.9,264.7L133.3,260.7L139.7,256L148.2,254.4L148.9,258.8L158.3,258.5L163.4,261L165.9,263.9L171.2,264.7L177.1,268.5L177.1,283.4L174.9,291.6L174.4,300L103.1,300Z" fill="#2c2c34" stroke="#474751" stroke-width="0.8"/><path d="M43,300L43.1,286.6L51.4,286.2L68.7,282.1L73,286.9L80.2,282.3L83.6,282.3L89.9,279.6L91.9,280.5L96.3,290L98.5,292.1L102,298.9L103.1,300L43,300Z" fill="#2c2c34" stroke="#474751" stroke-width="0.8"/><path d="M0,275.6L13.4,275.5L21.1,281.2L48.3,282.8L68.9,278L78.2,275.3L85.4,276L89.8,278.7L89.9,279.6L83.6,282.3L80.2,282.3L73,286.9L68.7,282.1L51.4,286.2L43.1,286.6L43,300L0,300Z" fill="#2c2c34" stroke="#474751" stroke-width="0.8"/><path d="M98.2,0L102.6,4.6L105.4,11.4L113.8,15.8L115.6,19.4L115.6,19.4L111.9,20.6L104.7,20.3L96.3,19.2L92.1,20.1L90.4,22.9L86.8,23.2L82.4,20.8L69.9,26.4L64.7,25.3L63.2,26.2L59.9,33L51.5,30.8L43.3,29.7L36.1,25.5L26.9,21.7L20.9,25.3L16.5,31L15.5,38.9L8.3,38.2L0.7,36.4L0,37L0,0Z" fill="#2c2c34" stroke="#474751" stroke-width="0.8"/><path d="M0,37L0.7,36.4L8.3,38.2L15.5,38.9L15.5,38.9L14.8,45.7L11.5,51.7L9.3,58.7L7.9,68.6L8.5,75L6.6,78.9L6.4,83L5.1,86.6L0,90.3L0,37Z" fill="#2c2c34" stroke="#474751" stroke-width="0.8"/><path d="M153.4,172.2L158.1,175L162.5,176.9L169.7,178.9L176,182.3L181.3,187.3L184.2,197L182.3,200.1L180,209.4L182.2,218.9L178.7,222.9L175.2,233.6L181.2,236.6L147.1,246.1L148.2,254.4L139.7,256L133.3,260.7L131.9,264.7L127.9,265.6L118.1,275.3L111.9,282.9L108.1,283.2L104.5,281.8L91.9,280.5L89.9,279.6L89.8,278.7L85.4,276L78.2,275.3L68.9,278L61.6,270.7L54,261.1L54.6,224.2L77.9,224.3L77,220.4L78.6,216.1L76.7,210.7L77.9,205.2L76.8,201.6L80.7,201.9L81.3,205.4L86.6,205.2L93.7,206.2L97.4,211.4L106.4,213L113.3,209.4L115.8,215.4L124.4,217L128.5,221.9L133.1,228.2L141.7,228.3L140.8,215.9L137.7,218L129.9,213.6L126.8,211.5L128.2,200L130.2,186.5L127.7,181.5L130.9,174.3L133.9,172.9L149,171Z" fill="#2c2c34" stroke="#474751" stroke-width="0.8"/><path d="M176,182.3L187.1,184.4L189.3,187.5L193.1,192.8L196.2,208.4L193.1,217.1L196.2,232.1L200.2,231.9L204.2,235.6L208.9,244L209.9,259L205,261.4L201.6,269.5L194.3,262.3L193.4,254.1L195.8,248.7L195.2,244L190.7,241.1L187.6,242.2L181.2,236.6L175.2,233.6L178.7,222.9L182.2,218.9L180,209.4L182.3,200.1L184.2,197L181.3,187.3Z" fill="#2c2c34" stroke="#474751" stroke-width="0.8"/><path d="M174.4,300L174.9,291.6L177.1,283.4L177.1,268.5L171.2,264.7L165.9,263.9L163.4,261L158.3,258.5L148.9,258.8L148.2,254.4L147.1,246.1L181.2,236.6L187.6,242.2L190.7,241.1L195.2,244L195.8,248.7L193.4,254.1L194.3,262.3L201.6,269.5L205,261.4L209.9,259L208.9,244L204.2,235.6L200.2,231.9L196.2,232.1L193.1,217.1L196.2,208.4L196.2,208.4L204.7,207.5L218.2,210.7L221.1,209.2L228.9,208.9L232.9,205.5L239.7,205.7L251.9,201.2L260.8,194.6L262.7,199.8L262.2,211.1L263.6,221.2L264,239.3L266,244.9L262.7,253.2L258.3,261.3L251.1,268.6L240.9,273L228.2,278.8L215.6,291.4L211.3,293.6L205.3,300L174.4,300Z" fill="#2c2c34" stroke="#474751" stroke-width="0.8"/><path d="M0,162.8L0.2,163.1L4.5,169.1L11.9,168.2L15.6,166.6L21.8,168.2L23.5,165.3L26.3,158.7L33.3,158.3L33.9,156.3L39.6,156.3L38.6,160.4L52.3,160.3L52.5,167.4L54.7,171.8L53.1,178.6L53.9,185.6L57.7,189.8L57.1,203.4L59.8,202.3L64.7,202.6L71.6,200.9L76.8,201.6L77.9,205.2L76.7,210.7L78.6,216.1L77,220.4L77.9,224.3L54.6,224.2L54,261.1L61.6,270.7L68.9,278L48.3,282.8L21.1,281.2L13.4,275.5L0,275.6L0,162.8Z" fill="#2c2c34" stroke="#474751" stroke-width="0.8"/><path d="M150.3,105.3L151,109.7L153.4,112.3L153.5,115.9L150.8,118.3L146.4,124.2L142.3,128.2L137.7,128.8L137,115.2L134.1,110.1L141,111L144.4,104.6Z" fill="#2c2c34" stroke="#474751" stroke-width="0.8"/><path d="M307.1,300L304.8,295L302.7,287.5L301.8,276.7L305.7,270.1L307.2,262.7L312.8,262.2L319.1,259.9L323.2,257.7L328.2,257.6L334.5,251L343.8,243.8L347.1,238L345.6,233L350.4,234.4L356.6,226.4L356.8,219.5L360.5,214.3L364.4,219.3L364.4,219.3L367.4,224.2L370.2,231.8L372,245.7L374.9,251.1L373.8,256.7L371.8,260.2L368,253.3L365.8,256.8L368,265.4L367,270.4L363.9,273.1L363.2,283.1L358.8,296.9L357.7,300L307.1,300Z" fill="#2c2c34" stroke="#474751" stroke-width="0.8"/><path d="M333.6,0L313,22L298.4,22.5L288.4,30.5L281.2,30.7L278.1,34.2L270.5,34.2L265.9,30.4L255.7,35.1L252.4,39.8L244.9,38.9L242.4,37.6L239.8,37.9L236.2,37.8L222,28.2L214.2,28.2L210.4,24.5L210.4,18.2L204.5,16.3L197.9,4L192.8,1.4L192.2,0L333.6,0Z" fill="#2c2c34" stroke="#474751" stroke-width="0.8"/><path d="M188.9,88.9L166,89.7L153.7,89.6L149.8,91L143.1,94.4L140.4,93.3L140.4,84.8L143.1,80.5L143.7,71.5L146.1,66.3L150.3,60.5L154.7,57.5L158.3,53.5L153.8,52L154.4,38.8L159.1,35.7L166.2,38.3L175.2,35.6L183.1,35.7L190,30.5L195.4,38.3L196.6,43.9L201.6,56.8L197.5,65L192,72.4L188.8,77Z" fill="#2c2c34" stroke="#474751" stroke-width="0.8"/><path d="M149.8,91L154.2,97.3L153.6,103.9L150.3,105.3L144.4,104.6L141,111L134.1,110.1L135.2,104L136.7,103.1L137.1,96.4L140.4,93.3L143.1,94.4Z" fill="#2c2c34" stroke="#474751" stroke-width="0.8"/><path d="M192.2,0L192.8,1.4L197.9,4L204.5,16.3L196.9,23.8L190,30.5L183.1,35.7L175.2,35.6L166.2,38.3L159.1,35.7L154.4,38.8L154.4,38.8L144.6,31.3L141.9,26.5L135.6,28.9L130.5,28.2L127.4,30.1L122.4,28.7L115.6,19.4L113.8,15.8L105.4,11.4L102.6,4.6L98.2,0L192.2,0Z" fill="#2c2c34" stroke="#474751" stroke-width="0.8"/><path d="M251.7,147.6L252.5,150.1L252.4,150.5L251.8,150.8L251.5,150.8L251.1,150.4L250.8,149.6L250.4,149.8L249.6,148.8L248.8,148.8L248.1,147.6L248.4,146.6L248.2,144.9L249.1,144L249.6,142.5L250.1,143.6L250.2,145.1L250.9,147L251.6,147.5ZM255.8,133.3L255.9,133.9L255.7,134.5L255.7,136.2L255.7,137.3L255,138.9L254.5,139.4L254,139.2L253.7,139L253.3,138.6L253.9,135.7L253.7,133.6L254.9,133.8ZM177.9,184.3L177.2,184L176,183.3L174.3,182.7L173,182.1L172.4,181.4L171.1,181.2L170,181.1L169,180.5L167.9,180.4L166.9,180.3L166.7,179.9L166.6,179L166.3,178.8L165.5,178.5L164.6,178.5L164.2,178.7L163.9,178.6L163.2,178.1L162.5,177.4L162.3,176.4L161.3,175.7L160.2,175.2L157.2,175.2L156.7,175.1L156,174.5L155.1,173.7L154.4,172.7L153.8,171.3L153.5,170.5L153.2,169.5L152.4,168L151.4,165.8L150.5,164.1L149.7,162.2L149.3,160.8L148.6,159.3L147.5,157.4L146.9,156.7L146.3,156L144.7,154.7L142.8,153.5L141.8,152.6L140.5,150.1L139.9,149.2L139.6,147.6L139.2,146L139.4,145.3L140.6,143.2L140.7,142.6L140.5,141.7L140,140L139.5,138.9L139.2,138L138.6,136.4L137.7,134.2L137.5,133.3L137.5,132.6L138,130.7L138.4,128.7L138.4,128.2L141.9,128.3L142.5,127.8L144.5,126.6L146.8,124.1L147.2,123.1L148.1,121.5L149,120.7L149.3,120.1L149.6,119.3L149.9,118.5L151,117.4L152.2,116.6L152.1,116.3L151.9,116L152.1,115.8L152.7,115.4L153.9,115L154.2,114.2L154.2,113.2L154,112.7L154,112.1L153.8,111.7L153.1,111.6L151.9,111.2L150.9,111L150.2,110.7L149.9,110.5L149.9,109.9L150,109.3L150.1,109.1L150.4,108.5L149.9,108.1L149.9,107.9L150.1,107.6L151.1,105.5L151.3,105.2L151.8,105.1L152.4,104.9L153.1,104.8L153.7,104.9L154,104.7L154.4,104.5L154.7,103.6L154.9,102.3L154.8,101.2L154.3,100.3L154.1,99L154.4,97.2L154.2,95.8L153.6,94.6L153.1,93.9L152.2,93.6L150.8,91.8L150.3,90.9L150.4,90.4L150.8,90.2L150.9,90.1L151.8,90.2L152.7,90L153.4,89.5L154.2,89.4L154.3,89.4L154.5,89.5L155.8,89.5L157.7,89.5L159.7,89.5L161.7,89.5L163.7,89.5L165.7,89.5L167.7,89.5L169.7,89.5L171.7,89.5L173.7,89.5L175.7,89.5L177.7,89.5L179.7,89.5L181.7,89.5L183.7,89.5L185.7,89.5L187.7,89.5L188.9,89.5L189.7,89.5L190.5,89.9L191.4,90.4L193.9,91.7L196.2,93.1L198.6,94.4L201,95.7L203.4,97.1L205.8,98.4L208.2,99.7L210.6,101.1L213,102.4L215.4,103.8L217.8,105.1L220.2,106.4L222.5,107.8L224.9,109.1L227.4,110.4L229.7,111.8L230.9,112.4L231,112.7L231.2,113.9L231.4,114.7L231.3,115.3L230.7,116.5L230.5,117.1L230.5,117.5L230.6,117.7L231.1,117.7L231.6,118L231.8,118.2L232.2,119.1L232.6,119.5L233.6,120.2L235.3,121.5L237,122.7L238.8,123.9L240.5,125.2L242.2,126.4L244,127.7L245.7,128.9L247.4,130.2L248.2,130.8L248.6,130.9L248.4,131.9L247.5,134.2L247.4,135.1L247.1,136.3L246.7,137L245.9,140.2L245.1,141.5L244.1,144.3L243.9,146.5L244.5,148L244.7,149.4L245.9,150.8L246.8,151.3L247.5,152L248.6,153.4L249.3,154.9L251.4,155.6L252.2,157.2L251.9,158.4L250.9,159.3L250.1,160.8L249.3,162.8L249.3,165.9L249.8,165.4L250.9,166.2L251,168.4L249.9,171.1L249.6,172.3L249.5,173.3L250.3,176.5L251.6,178.1L251.5,178.6L251.1,179L253.3,181.8L253.1,184.3L253.9,186.2L254.3,187.9L254.8,189.2L254.9,190L254.2,191L255.8,191.3L256.7,192.1L257.1,192.8L258.3,192.8L258.9,193.3L259.8,193.8L261.7,195L262.2,195.7L262.4,196.1L262.5,196.3L261.2,197.3L259.2,198.9L257.2,200.4L255.3,201.4L253.9,201.9L252.4,202.2L251,202.8L249.7,203.8L248,204.3L245.9,204.3L243.8,205.1L241.7,206.4L240.4,207.2L238.4,206L236.8,205.6L235.1,205.7L234,205.8L233.6,206.1L233.3,206.8L233,207.9L231.8,209.1L229.7,210.2L227.8,210.6L226.1,210.3L224.9,209.8L224.3,209.2L223.4,208.9L222.2,209L221.1,209.4L220,210.3L218.2,210.6L215.8,210.5L214.6,210.1L214.4,209.4L213.3,208.6L211.4,207.6L210,207.6L209.1,208.5L208.3,209.1L207.5,209.3L206.9,209.4L206.3,209.2L205.9,209.1L203.2,209L200.7,209.1L200.6,208.7L200.5,207.7L200,206.9L199.5,206.4L199,206.3L198.7,206.3L198.4,206L198.1,205.2L197.7,204.5L197.1,203.9L196.8,203.3L196.7,202.9L196.8,202.3L197.3,201L197.5,200.1L197.4,199.1L197.1,198.2L196.5,197L196.6,196.7L196.4,195.9L196.4,195.3L196.5,194.7L196.4,193.8L195.8,191.9L195.8,191.4L195.3,190.4L193.7,188.2L193.6,188L191,185.7L189.9,185.3L189.5,185.7L189.4,186.1L189.5,186.8L189.5,187.1L189.3,187.3L188.7,187.3L188.3,187.2L187.4,186.6L186.6,186.4L184.7,186.6L184,186.7L183.5,186.6L182.5,185.5L181.3,185.3L180.2,185.3L178.5,184.1L178.1,184.2ZM254.1,168L253.5,168.2L253.2,168L252.8,167.6L253.5,167.2L254.1,166.4L255.6,165.2L256.1,164.5L256.3,164.3L256.2,165.2L255.3,167.2L254.6,167.3Z" fill="#b8e653" stroke="#0c0e06" stroke-width="1"/></svg>
