<svg xmlns="http://www.w3.org/2000/svg" viewBox="0 0 300 300"><path fill="#e8e8ea" d="M104,221.3L102.6,220.7L100.1,219.3L96.6,218.1L93.9,216.7L92.6,215.4L89.9,214.8L87.6,214.6L85.5,213.4L83.3,213.2L81.1,212.9L80.7,212.1L80.6,210.3L79.8,209.8L78.2,209.3L76.5,209.4L75.5,209.6L74.9,209.5L73.4,208.4L72.1,207.1L71.6,204.9L69.6,203.5L67.3,202.4L60.9,202.5L59.9,202.1L58.4,201L56.6,199.2L55.1,197.2L54,194.3L53.3,192.6L52.6,190.5L51,187.4L48.8,182.9L47.1,179.3L45.3,175.3L44.5,172.5L43.1,169.3L40.8,165.4L39.6,163.9L38.2,162.5L34.9,159.9L31.1,157.3L29,155.5L26.2,150.3L25,148.4L24.3,145.1L23.6,141.6L23.9,140.2L26.4,135.8L26.6,134.5L26.3,132.8L25.1,129.3L24.2,127L23.5,125L22.3,121.7L20.4,117.2L20,115.2L20,113.7L21,109.8L21.8,105.8L21.8,104.6L29.2,104.8L30.4,103.9L34.5,101.4L39.2,96.2L40.2,94L42,90.6L44,89L44.6,87.8L45.1,86L45.7,84.5L48.2,82.3L50.5,80.6L50.3,79.8L50,79.3L50.4,78.9L51.7,78L54.2,77.2L54.7,75.4L54.7,73.5L54.3,72.4L54.4,71.1L54,70.4L52.4,70.2L49.9,69.2L47.8,68.8L46.4,68.3L45.9,67.8L45.7,66.6L46.1,65.3L46.3,65L46.8,63.6L45.9,62.8L45.7,62.4L46.1,61.7L48.2,57.4L48.7,56.7L49.7,56.7L51.1,56.1L52.4,55.9L53.6,56.1L54.4,55.9L55.1,55.3L55.7,53.6L56.2,50.7L56,48.4L54.9,46.6L54.6,43.9L55.1,40.2L54.7,37.2L53.5,34.8L52.4,33.3L50.5,32.6L47.6,28.9L46.7,27.1L46.9,26L47.6,25.6L47.9,25.5L49.7,25.7L51.5,25.2L53.1,24.2L54.7,23.9L55,24L55.5,24.1L58,24.1L62.1,24.1L66.2,24.1L70.4,24.1L74.5,24.1L78.7,24.1L82.9,24.1L87,24.1L91.2,24.1L95.3,24.1L99.4,24.1L103.6,24.1L107.7,24.1L111.9,24.1L116.1,24.1L120.2,24.1L124.4,24.1L126.9,24.1L128.7,24.1L130.3,25L132.2,26L137.2,28.8L142.2,31.6L147.1,34.4L152.1,37.1L157.1,39.9L162.1,42.7L167.1,45.5L172,48.3L177,51L181.9,53.8L187,56.6L191.9,59.4L196.9,62.1L201.8,64.9L206.9,67.7L211.8,70.5L214.2,71.8L214.5,72.4L215,74.9L215.2,76.5L215.1,77.9L213.8,80.3L213.4,81.5L213.4,82.4L213.7,82.7L214.8,82.8L215.8,83.4L216.1,83.8L216.9,85.6L217.8,86.5L219.9,88L223.4,90.6L227.1,93.2L230.7,95.8L234.2,98.4L237.8,101L241.4,103.6L245,106.2L248.6,108.8L250.3,110L251,110.3L250.6,112.3L248.7,117.1L248.7,119.1L247.9,121.4L247.2,123L245.4,129.7L243.8,132.2L241.7,138.1L241.3,142.7L242.5,145.8L242.9,148.8L245.5,151.7L247.4,152.7L248.8,154.1L251.2,157.1L252.6,160.2L256.9,161.7L258.6,165.1L258,167.4L256,169.4L254.1,172.5L252.6,176.7L252.5,183L253.6,182.1L255.9,183.6L256.1,188.3L253.8,193.8L253.1,196.3L252.9,198.5L254.7,205.1L257.2,208.4L257.1,209.4L256.4,210.3L260.8,216.2L260.4,221.4L262.1,225.3L262.9,228.8L264,231.5L264.1,233.3L262.8,235.3L266.1,235.8L267.9,237.5L268.8,239.1L271.2,239L272.4,240.1L274.3,241L278.2,243.7L279.3,245L279.7,245.8L280,246.3L277.3,248.4L273.1,251.6L268.9,254.8L265,257L262.1,258L259,258.5L256.1,259.9L253.4,262L249.8,263L245.5,263L241.1,264.5L236.6,267.3L234,268.9L229.8,266.5L226.6,265.7L222.9,265.8L220.7,266.1L219.8,266.6L219.2,268.1L218.6,270.5L216.1,272.9L211.8,275.1L207.9,276L204.3,275.4L201.8,274.5L200.6,273.2L198.7,272.5L196.2,272.7L193.9,273.6L191.6,275.4L187.9,276.1L182.9,275.9L180.3,275L179.9,273.6L177.7,271.8L173.8,269.9L170.8,269.9L168.9,271.7L167.2,272.9L165.6,273.4L164.3,273.4L163,273.1L162.3,273L156.7,272.7L151.5,272.8L151.3,272L151,270.1L149.9,268.4L149,267.4L147.8,267.2L147.2,267.2L146.7,266.4L146.1,264.7L145.2,263.3L144,262.1L143.4,261L143.1,259.9L143.3,258.8L144.4,256.1L144.7,254.1L144.6,252.2L144,250.2L142.8,247.8L142.9,247.1L142.5,245.5L142.4,244.3L142.7,242.9L142.4,241.1L141.3,237.1L141.3,236L140.3,234.1L136.8,229.5L136.6,229L131.2,224.3L129.1,223.4L128.2,224.2L128,225L128.2,226.5L128.1,227.2L127.8,227.6L126.6,227.5L125.7,227.4L123.7,226.1L122.1,225.8L118.2,226L116.7,226.3L115.6,226L113.5,223.9L111.1,223.5L108.8,223.4L105.2,221L104.4,221.1Z"/></svg>
