<svg xmlns="http://www.w3.org/2000/svg" viewBox="0 0 400 300"><path d="M400,190.6L391.4,185L390.1,184.1L372.2,190L372.5,225.1L369,225.5L364.1,218.2L359.4,215.6L351.5,217.6L348.4,220.7L348.1,218.4L349.8,214.5L348.4,211.2L340.4,208L337.3,199.4L333.4,196.9L333.2,193.7L339.9,194.7L340.2,187.5L346.1,185.9L352.2,187.4L353.4,177.7L352.2,171.4L345.2,171.9L339.3,169.4L331.3,173.9L324.8,176L321.3,174.4L322,169.1L317.6,162.3L312.4,162.6L306.5,155.5L310.5,147.5L308.5,145.4L314.1,133.5L321.2,139.8L322.1,131.9L336.4,119.8L347.2,119.6L362.5,127.3L370.8,131.7L378.1,127.1L389.2,126.8L398.1,132.5L400,129.4L400,190.6Z" fill="#2c2c34" stroke="#474751" stroke-width="0.8"/><path d="M400,216.4L391,211.6L385.2,217.1L379.2,220.3L380.3,225L372.5,225.1L372.5,225.1L372.2,190L390.1,184.1L391.4,185L400,190.6L400,216.4Z" fill="#2c2c34" stroke="#474751" stroke-width="0.8"/><path d="M141.7,89.4L128.9,89.6L120.3,88.2L121.9,82.9L131.5,79L138.8,81.1L141.9,83.1L141.1,86.4ZM400,129.4L398.1,132.5L389.2,126.8L378.1,127.1L370.8,131.7L362.5,127.3L347.2,119.6L336.4,119.8L322.1,131.9L321.2,139.8L314.1,133.5L308.5,145.4L310.5,147.5L306.5,155.5L312.4,162.6L317.6,162.3L322,169.1L321.3,174.4L324.8,176L321.7,181.9L314.9,183.6L308,193.7L314.3,202.9L313.7,209.4L321.2,220.4L317.1,224.2L315.9,226.5L312.8,225.9L308.1,220.3L306.1,220L301.7,217.8L299.6,213.9L293.1,212L288.9,213.4L287.7,211.7L278.3,207.1L268,205.6L262.2,204L261.3,205.1L252.4,197L244.5,193.3L238.5,187.5L243.6,185.9L249.3,177.6L245.4,173.6L255.7,169.5L255.5,167.2L249.3,168.9L249.5,164.3L253.1,161.4L259.8,160.7L260.9,157.2L259.3,151.4L262.2,145.9L262.1,142.8L251.8,139.3L247.8,139.4L243.5,134.3L238.2,136L229.4,132.2L229.5,130L227,125.2L221.5,124.7L220.9,121.3L222.7,119L218.2,112.6L211,113.7L208.9,113.1L207.2,115.7L204.6,115.2L202.9,107.9L201.2,104.1L202.6,103L208.2,103.4L210.9,100.9L208.9,97.8L204.2,95.7L204.6,93.6L201.8,91.4L197.4,83.6L198.9,80.3L198.2,74.6L191.4,71.7L187.8,73.1L186.8,70.1L179.5,67L177.3,59.6L176.7,53.4L173.3,50.4L176.3,46.3L174.2,34L179.2,26.2L178.1,23.8L186,16.2L178.8,9.5L186.5,0L400,0ZM216,180.3L217.8,177.8L222.8,180L225,180.4L225.9,182.3L227,182.6L227,183.5L230.4,185.9L237.5,185.3L236.1,188.8L228.5,190.5L219.1,196.2L215.3,194.2L216.8,189.6L209.2,186.7L210.4,184.8L217.1,181.5Z" fill="#2c2c34" stroke="#474751" stroke-width="0.8"/><path d="M71.3,0L69.2,14.9L63.4,24.4L60.4,32.2L55.7,23.9L42,39.4L32.7,42.5L23.1,35.8L20.7,21.2L19.2,0L71.3,0Z" fill="#2c2c34" stroke="#474751" stroke-width="0.8"/><path d="M0,126.4L1.2,125.9L2.2,129.8L5.5,130L8.7,134.3L13.6,139.5L17.1,138.6L23.2,143.5L24.8,144.5L26.8,144.2L26.8,144.2L30,147L40,149L36.5,156.2L35.7,163.6L33.7,165.3L30.6,164.4L30.8,167L25.7,172.7L25.6,177.3L28.9,175.7L31.3,180.1L31,182.9L33.1,186.6L30.7,189.6L32.5,197.2L36.2,198.4L35.4,202.6L29.1,208L15.4,205.4L5.3,208.5L4.5,214.2L0,214.9L0,126.4ZM44.5,212.8L49,209.1L50.2,217.2L47.9,224.4L44.7,222.5L43.1,216.3Z" fill="#2c2c34" stroke="#474751" stroke-width="0.8"/><path d="M226.4,300L226.6,299.1L227.6,297L227.8,296.9L230.1,296.9L230.7,295.4L232.6,295.3L232.7,298.7L231.7,300L231.8,300L226.4,300Z" fill="#2c2c34" stroke="#474751" stroke-width="0.8"/><path d="M232.6,295.3L230.7,295.4L230.1,296.9L227.8,296.9L230.2,290.1L233.7,284.2L233.8,283.9L236.9,284.3L238.1,287.6L234.3,290.8Z" fill="#2c2c34" stroke="#474751" stroke-width="0.8"/><path d="M42.3,300L42.3,299.7L36.7,294.8L36.1,288.5L40.3,283.8L42,276.8L40.9,268.6L42.3,264.2L49.8,260.6L54.7,261.7L54.5,266.1L60.4,262.9L60.9,264.6L57.4,268.8L57.4,272.8L59.8,274.9L58.9,282.3L54.3,286.5L55.6,291.1L59.2,291.2L60.9,295.2L63.6,296.5L63.4,300L42.3,300Z" fill="#2c2c34" stroke="#474751" stroke-width="0.8"/><path d="M0,266.3L5.7,265.6L17.2,264.9L20.7,266.2L27.3,262.7L34.7,262.7L37.5,264.7L42.3,264.2L40.9,268.6L42,276.8L40.3,283.8L36.1,288.5L36.7,294.8L42.3,299.7L42.3,300L0,300Z" fill="#2c2c34" stroke="#474751" stroke-width="0.8"/><path d="M244.7,300L253.2,294.5L254.8,300L244.7,300Z" fill="#2c2c34" stroke="#474751" stroke-width="0.8"/><path d="M254.8,300L253.2,294.5L268.6,285.8L271.2,275.5L270.6,269.3L274.4,267.1L277.9,261.7L280.9,260.3L289,261.5L291.4,263.7L294.8,262.2L299.3,272.5L303.8,275.1L304.3,280.1L300.9,283L299.2,289.6L304.1,297.5L308.8,300L254.8,300Z" fill="#2c2c34" stroke="#474751" stroke-width="0.8"/><path d="M400,264.7L395.2,260.1L389.7,259.1L382,254.7L377,253.9L374,255.5L369.3,255.3L364.4,260.3L358.3,262L357,255.8L358,246.5L352.6,243.5L354.4,237.3L349.8,236.8L351.3,229.1L357.9,231.3L364,228.4L358.9,222.8L356.9,217.5L351.3,219.9L350.6,226.7L348.4,220.7L348.4,220.7L351.5,217.6L359.4,215.6L364.1,218.2L369,225.5L372.5,225.1L380.3,225L379.2,220.3L385.2,217.1L391,211.6L400,216.4L400,264.7Z" fill="#2c2c34" stroke="#474751" stroke-width="0.8"/><path d="M308.8,300L304.1,297.5L299.2,289.6L300.9,283L304.3,280.1L303.8,275.1L299.3,272.5L294.8,262.2L291,255.2L292.3,252.5L290.2,242.2L294.9,239.7L296,243.1L299.5,247.2L304.3,248.4L306.8,248.1L315,241.5L317.6,240.8L319.6,243.5L317.3,247.9L321.6,252.6L323.3,252.1L325.5,258.6L332.1,260.4L336.9,264.8L346.8,266.3L357.6,264L358.3,262L364.4,260.3L369.3,255.3L374,255.5L377,253.9L382,254.7L389.7,259.1L395.2,260.1L400,264.7L400,300Z" fill="#2c2c34" stroke="#474751" stroke-width="0.8"/><path d="M231.8,300L231.7,300L232.7,298.7L232.6,295.3L234.3,290.8L238.1,287.6L236.9,284.3L233.8,283.9L233.2,277.4L234.9,273.9L236.7,272L238.6,270.1L239,265.3L241.2,267L248.9,264.6L252.6,266.2L258.3,266.2L266.3,262.9L270,263.1L277.9,261.7L274.4,267.1L270.6,269.3L271.2,275.5L268.6,285.8L253.2,294.5L244.7,300L231.8,300Z" fill="#2c2c34" stroke="#474751" stroke-width="0.8"/><path d="M306.8,248.1L304.3,248.4L301.5,243.2L301.5,241.8L298.4,241.8L296.4,239.4L294.9,239.7L292.2,237L287,234.8L287.7,230.3L286.5,227.1L296.2,225.6L297.6,228.1L300.2,229.7L298.8,232L302.5,235.1L300.6,238L303.5,240.4L306.6,241.9Z" fill="#2c2c34" stroke="#474751" stroke-width="0.8"/><path d="M103.9,0L107.6,7.6L114.3,15.4L107.9,30.9L100.7,34L98,56L94.1,67.8L85.7,66.6L81.7,76.4L73.7,76.9L71.5,65.2L65.7,50.8L60.4,32.2L60.4,32.2L63.4,24.4L69.2,14.9L71.3,0L103.9,0Z" fill="#2c2c34" stroke="#474751" stroke-width="0.8"/><path d="M179.5,67L186.8,70.1L187.8,73.1L191.4,71.7L198.2,74.6L198.9,80.3L197.4,83.6L201.8,91.4L204.6,93.6L204.2,95.7L208.9,97.8L210.9,100.9L208.2,103.4L202.6,103L201.2,104.1L202.9,107.9L204.6,115.2L198.6,115.9L196.5,118.4L196,124L193.2,122.9L187,123.5L185.2,120.9L182.6,122.8L179.9,121.2L174.5,121L166.7,118.3L159.7,117.4L154.3,117.6L150.5,120.7L147.2,121.1L147.1,116.1L144.9,110.9L149.1,108.5L149.1,103.9L147.2,99.5L146.9,94.3L153.6,94.4L161.2,89.9L162.8,83.2L168.5,79.3L167.8,73.8L172,71.7Z" fill="#2c2c34" stroke="#474751" stroke-width="0.8"/><path d="M146.9,94.3L147.2,99.5L149.1,103.9L149.1,108.5L144.9,110.9L147.1,116.1L147.2,121.1L150.7,130.8L150,133.8L146.5,135.1L140.2,144.1L142,148.9L140.5,148.2L133.9,144.2L128.9,145.7L125.6,144.6L121.5,146.9L118,143.1L115.1,144.5L114.7,143.9L111.5,138.6L106.4,137.9L105.7,134.5L100.9,133.3L99.9,136.1L96.1,133.9L96.6,130.9L91.4,129.9L88.1,126.4L85.2,119.2L85.8,115.4L84.1,109.3L81.5,105.2L83.5,102.1L81.9,96.2L86.6,92.7L97.4,87.2L106.2,83.1L113.1,85.2L113.6,88.1L120.3,88.2L128.9,89.6L141.7,89.4L145.2,90.7Z" fill="#2c2c34" stroke="#474751" stroke-width="0.8"/><path d="M101.7,158.4L101.2,162.6L97.3,162.6L98.6,164.9L96.3,171.4L95,173.1L88.9,173.4L85.4,175.7L79.7,174.9L69.7,172.3L68.2,168.8L61.3,170.5L60.5,172.5L56.3,171L52.8,170.7L49.6,168.9L50.7,166.4L50.4,164.6L52.5,164L56,166.8L57,164.1L63.1,164.6L68.1,162.7L71.4,163L73.6,165.1L74.3,163.4L73.3,156.6L75.8,155.3L78.2,150.5L83.4,153.8L87.3,149.5L89.7,148.7L95.1,152L98.4,151.4L101.6,153.4L101,154.7Z" fill="#2c2c34" stroke="#474751" stroke-width="0.8"/><path d="M137.2,155.2L141.1,158.1L141.5,160.9L137.3,163L134,170L129.8,176.8L124.2,178.7L119.9,178.3L114.6,180.9L112,182.4L106.2,180.5L101,176.2L98.8,175L97.5,171.5L96.3,171.4L98.6,164.9L97.3,162.6L101.2,162.6L101.7,158.4L105.2,161L107.8,162.1L113.6,160.9L114.2,158.8L117,158.5L120.3,156.9L121.1,157.5L124.3,156.2L126,153.8L128.3,153.1L135.7,156.3Z" fill="#2c2c34" stroke="#474751" stroke-width="0.8"/><path d="M168.7,157.3L170.3,155.8L175,154.8L180.1,158L182.9,158.4L186.1,161.2L185.6,164.7L188.1,166.4L189.1,170.6L191.5,173.2L191,174.7L192.3,175.8L190.5,176.5L186.4,176.2L185.7,174.8L184.3,175.6L184.8,177.4L182.9,180.6L181.6,184L179.9,185.1L178.6,180.6L179.4,176.3L179.2,171.9L175.2,165.8L172.9,161.4L170.8,158.4Z" fill="#2c2c34" stroke="#474751" stroke-width="0.8"/><path d="M179.9,185.1L183,186.9L186.3,185.3L189.4,187L189.6,189.6L186.2,191.7L184.1,190.8L182.1,202.5L178.1,201.5L173,198L164.8,200.2L161.4,202.7L151.2,202.2L145.9,200.7L143.2,201.4L141.2,197.4L139.9,195.7L141.5,194.1L139.8,192.8L137.6,195L133.5,192.2L133,188.1L128.8,185.8L128,182.7L124.2,178.7L129.8,176.8L134,170L137.3,163L141.5,160.9L144.5,158.6L148.8,159.8L153.3,159.8L156.5,162.4L158.9,160.8L164,159.8L165.7,157.3L168.7,157.3L170.8,158.4L172.9,161.4L175.2,165.8L179.2,171.9L179.4,176.3L178.6,180.6Z" fill="#2c2c34" stroke="#474751" stroke-width="0.8"/><path d="M167.8,73.8L168.5,79.3L162.8,83.2L161.2,89.9L153.6,94.4L146.9,94.3L145.2,90.7L141.7,89.4L141.1,86.4L141.9,83.1L138.8,81.1L131.5,79L130,68.7L138,64.9L149.6,65.7L156.5,64.4L157.4,67L161.1,67.8Z" fill="#2c2c34" stroke="#474751" stroke-width="0.8"/><path d="M173.3,50.4L176.7,53.4L177.3,59.6L179.5,67L172,71.7L167.8,73.8L161.1,67.8L157.4,67L156.5,64.4L149.6,65.7L138,64.9L130,68.7L130.3,59.2L133.7,51.2L140.2,46.8L145.8,56.4L151.3,56.1L152.7,46.3L158.6,43.9L161.6,45.6L167.6,50.4Z" fill="#2c2c34" stroke="#474751" stroke-width="0.8"/><path d="M178.1,23.8L179.2,26.2L174.2,34L176.3,46.3L173.3,50.4L167.6,50.4L161.6,45.6L158.6,43.9L152.7,46.3L153.5,38.5L150.9,40.2L146.5,35.5L145.9,27.7L154.7,23.9L163.4,22L171,24.2Z" fill="#2c2c34" stroke="#474751" stroke-width="0.8"/><path d="M81.9,96.2L83.5,102.1L81.5,105.2L84.1,109.3L85.8,115.4L85.2,119.2L88.1,126.4L85,127.5L83.2,126.2L81.4,128.4L76.4,130.5L73.8,133.2L68.8,135.6L70,138.8L70.8,143.3L74.3,145.9L78.2,150.5L75.8,155.3L73.3,156.6L74.3,163.4L73.6,165.1L71.4,163L68.1,162.7L63.1,164.6L57,164.1L56,166.8L52.5,164L50.4,164.6L43,161.4L41.6,163.6L35.7,163.6L36.5,156.2L40,149L30,147L26.8,144.2L27.2,139.5L25.8,137.1L26.6,129.7L25.4,118L29.6,118L31.3,113.8L33,103.3L31.8,99.4L33.1,96.9L38.9,96.3L40.2,98.8L44.9,93.1L43.3,88.6L43,81.8L48.3,83.4L52.7,81.5L52.8,86.2L59.8,89L59.8,93.2L66.8,91L70.7,87.7L78.6,92.4Z" fill="#2c2c34" stroke="#474751" stroke-width="0.8"/><path d="M141.2,197.4L143.2,201.4L145.9,200.7L151.2,202.2L161.4,202.7L164.8,200.2L173,198L178.1,201.5L182.1,202.5L178.5,206.4L176,213.2L178.2,218.6L172.3,217.3L165.2,220.3L165.1,224.9L158.8,225.8L153.9,222.5L148.4,225.1L143.2,224.8L142.7,218.7L139.2,215.7L140.4,214.3L139.6,213.2L140.8,210.2L143.4,207.2L140.1,203.1L139.5,199.6Z" fill="#2c2c34" stroke="#474751" stroke-width="0.8"/><path d="M166.4,278.3L165.5,280.8L155.5,281.6L155.6,280.1L147.1,278.5L148.4,274.9L152.2,277.7L157.6,277.3L162.8,277.9L162.6,279.3ZM143.2,224.8L148.4,225.1L153.9,222.5L158.8,225.8L165.1,224.9L165.2,220.3L168.6,222.7L166.4,228.5L164.8,229.6L160.5,229.3L156.9,228.4L148.5,230.8L153.3,235.9L149.8,237.4L145.9,237.4L142.3,232.7L141,234.7L142.5,240.2L146,244.4L143.4,246.3L147.2,250.4L150.7,253L150.8,258L144.3,255.6L146.4,260.1L142,261L144.6,268.7L140,268.8L134.3,265.1L131.7,258.1L130.5,252.2L127.8,248.1L124.2,243L123.7,240.5L127,236.1L127.4,233.1L129.6,231.8L129.8,229.4L134.3,228.6L137,226.5L140.7,226.7L141.9,225.1Z" fill="#2c2c34" stroke="#474751" stroke-width="0.8"/><path d="M294.8,262.2L291.4,263.7L289,261.5L280.9,260.3L277.9,261.7L270,263.1L266.3,262.9L258.3,266.2L252.6,266.2L248.9,264.6L241.2,267L239,265.3L238.6,270.1L236.7,272L234.9,273.9L232.3,270L234.9,266.7L230.7,267.5L224.9,265.5L220.1,270.5L209.6,271.4L204,266.8L196.5,266.5L194.9,270.1L190.1,271.1L183.4,266.5L175.8,266.7L171.7,258L166.6,253.1L170,246.2L165.6,241.9L173.3,233.2L184,232.9L186.9,225.9L200.1,227.1L208.5,221.1L216.6,218.5L228,218.3L240.2,224.8L250.1,228.4L258.2,227L264.2,227.8L272.4,223L279.8,222.5L286.5,227.1L287.7,230.3L287,234.8L292.2,237L294.9,239.7L290.2,242.2L292.3,252.5L291,255.2ZM165.2,220.3L172.3,217.3L178.2,218.6L179.1,222.2L185.1,225.2L183.9,227.4L175.6,227.9L172.7,230.8L166.9,235.7L164.7,231.4L164.8,229.6L166.4,228.5L168.6,222.7Z" fill="#2c2c34" stroke="#474751" stroke-width="0.8"/><path d="M129.8,229.4L129.6,231.8L127.4,233.1L127,236.1L123.7,240.5L122.5,239.8L122.4,237.8L118.6,234.8L118,230.4L118.5,224.2L119.5,221.3L118.3,219.8L117.9,216.8L120.9,212.2L121.3,214L123.2,213.1L124.7,215.7L126.3,216.6L126.8,220L125.9,223.2L126.9,227.1Z" fill="#2c2c34" stroke="#474751" stroke-width="0.8"/><path d="M98.8,175L101,176.2L106.2,180.5L112,182.4L114.6,180.9L116.2,184.8L118.5,187.6L115.8,191.3L112.6,189.1L107.8,189.3L101.9,187.6L98.6,187.8L97.1,189.9L94.6,187.6L93.2,191.7L96.6,196.3L98.1,199.3L101.3,202.9L103.9,205L106.5,209L112.7,212.6L111.9,214.2L105.4,210.7L101.4,207.2L95,204.4L89.2,197.3L90.6,196.6L87.4,192.5L87.3,189.2L82.8,187.6L80.7,191.9L78.6,188.6L78.8,185.1L79,185L83.9,185.3L85.2,183.6L87.5,185.3L90.2,185.5L90.2,182.7L92.6,181.7L93.3,177.6Z" fill="#2c2c34" stroke="#474751" stroke-width="0.8"/><path d="M50.4,164.6L50.7,166.4L49.6,168.9L52.8,170.7L56.3,171L55.8,175.2L52.7,176.9L47.6,175.6L46.1,179.6L42.8,180L41.6,178.4L37.7,181.8L34.3,182.2L31.3,180.1L28.9,175.7L25.6,177.3L25.7,172.7L30.8,167L30.6,164.4L33.7,165.3L35.7,163.6L41.6,163.6L43,161.4Z" fill="#2c2c34" stroke="#474751" stroke-width="0.8"/><path d="M25.8,137.1L27.2,139.5L26.8,144.2L24.8,144.5L23.2,143.5L24,137.5Z" fill="#2c2c34" stroke="#474751" stroke-width="0.8"/><path d="M26.6,129.7L25.8,137.1L24,137.5L23.2,143.5L17.1,138.6L13.6,139.5L8.7,134.3L5.5,130L2.2,129.8L1.2,125.9L6.8,123.7L11.9,124.6L18.3,122.3L22.7,127.1Z" fill="#2c2c34" stroke="#474751" stroke-width="0.8"/><path d="M31.8,99.4L33,103.3L31.3,113.8L29.6,118L25.4,118L26.6,129.7L22.7,127.1L18.3,122.3L11.9,124.6L6.8,123.7L10.4,120.6L16.5,103.9L26,99Z" fill="#2c2c34" stroke="#474751" stroke-width="0.8"/><path d="M0,214.9L4.5,214.2L4.9,219.7L0,224.3L0,214.9Z" fill="#2c2c34" stroke="#474751" stroke-width="0.8"/><path d="M56.3,171L60.5,172.5L61.3,170.5L68.2,168.8L69.7,172.3L79.7,174.9L78.9,179.9L80.6,184.1L75.1,182.6L69.4,186.2L69.8,191L68.9,193.8L71.2,198.8L77.7,203.6L81.2,211.5L89,219.1L94.4,219L96.1,221.1L94.1,222.9L100.4,226.3L105.5,229.1L111.4,233.8L112.1,235.5L110.8,238.8L107,234.5L100.9,233L98,238.9L103,242.3L102.2,246.9L99.3,247.5L95.6,255.1L92.7,255.7L92.7,253L94.2,248.3L95.7,246.4L93,241.2L90.8,236.6L88,235.5L85.9,231.6L81.4,229.9L78.4,226.2L73.3,225.6L67.9,221.4L61.5,215.3L56.8,209.9L54.6,200.4L51.2,199.3L45.5,196.1L42.3,197.4L38.3,201.9L35.4,202.6L36.2,198.4L32.5,197.2L30.7,189.6L33.1,186.6L31,182.9L31.3,180.1L34.3,182.2L37.7,181.8L41.6,178.4L42.8,180L46.1,179.6L47.6,175.6L52.7,176.9L55.8,175.2ZM86.3,253.7L91.6,252.9L89.1,259.8L90.1,262.5L88.7,267L83.3,263.7L79.8,262.8L70.1,258.3L71.1,253.8L79.2,254.6ZM44.3,228.9L47.8,226L51.9,232.5L50.9,244.5L47.8,243.9L45,246.9L42.3,244.5L42.1,233.6L40.5,228.4Z" fill="#2c2c34" stroke="#474751" stroke-width="0.8"/><path d="M52.7,81.5L48.3,83.4L43,81.8L40.2,75L40,62.3L41.1,58.9L43.1,55.1L49.2,54.3L51.7,50.7L57.3,47.1L57,53.7L55,57.9L55.8,61.4L59.6,63.3L57.9,68.1L55.8,66.7L50.8,75.6ZM69.7,67.7L71.9,73.9L67.8,83.7L60.5,76.9L59.5,71.8Z" fill="#2c2c34" stroke="#474751" stroke-width="0.8"/><path d="M306.1,220L308.1,220.3L312.8,225.9L315.9,226.5L317.1,224.2L321.2,220.4L324.9,225.3L328.4,231.8L331.7,232.3L333.8,234.7L328.1,235.5L326.9,242.5L325.7,245.6L323.1,247.7L323.3,252.1L321.6,252.6L317.3,247.9L319.6,243.5L317.6,240.8L315,241.5L306.8,248.1L306.6,241.9L303.5,240.4L300.6,238L302.5,235.1L298.8,232L300.2,229.7L297.6,228.1L296.2,225.6L297.9,224.1L303,226.8L306.8,227.3L307.7,226.3L304.3,221.2ZM304.3,248.4L299.5,247.2L296,243.1L294.9,239.7L296.4,239.4L298.4,241.8L301.5,241.8L301.5,243.2Z" fill="#2c2c34" stroke="#474751" stroke-width="0.8"/><path d="M261.3,205.1L262.2,204L268,205.6L278.3,207.1L287.7,211.7L288.9,213.4L293.1,212L299.6,213.9L301.7,217.8L306.1,220L304.3,221.2L307.7,226.3L306.8,227.3L303,226.8L297.9,224.1L296.2,225.6L286.5,227.1L279.8,222.5L272.4,223L273.5,219L271.7,212.6L267.7,209.1L263.9,208Z" fill="#2c2c34" stroke="#474751" stroke-width="0.8"/><path d="M79.7,174.9L85.4,175.7L88.9,173.4L95,173.1L96.3,171.4L97.5,171.5L98.8,175L93.3,177.6L92.6,181.7L90.2,182.7L90.2,185.5L87.5,185.3L85.2,183.6L83.9,185.3L79,185L80.6,184.1L78.9,179.9Z" fill="#2c2c34" stroke="#474751" stroke-width="0.8"/><path d="M186.5,0L178.8,9.5L166.2,10.7L153.9,15.8L142.6,18.7L138.6,11.1L131.9,6.5L132.6,0L186.5,0Z" fill="#2c2c34" stroke="#474751" stroke-width="0.8"/><path d="M140.5,148.2L138.6,151L137.2,155.2L135.7,156.3L128.3,153.1L126,153.8L124.3,156.2L121.1,157.5L120.3,156.9L117,158.5L114.2,158.8L113.6,160.9L107.8,162.1L105.2,161L101.7,158.4L101,154.7L101.6,153.4L102.6,151.1L105.6,151.3L108,150.2L108.2,149.2L109.5,148.7L110,146.3L111.6,145.8L112.7,143.9L114.7,143.9L115.1,144.5L118,143.1L121.5,146.9L125.6,144.6L128.9,145.7L133.9,144.2Z" fill="#2c2c34" stroke="#474751" stroke-width="0.8"/><path d="M88.1,126.4L91.4,129.9L96.6,130.9L96.1,133.9L99.9,136.1L100.9,133.3L105.7,134.5L106.4,137.9L111.5,138.6L114.7,143.9L112.7,143.9L111.6,145.8L110,146.3L109.5,148.7L108.2,149.2L108,150.2L105.6,151.3L102.6,151.1L101.6,153.4L98.4,151.4L95.1,152L89.7,148.7L87.3,149.5L83.4,153.8L78.2,150.5L74.3,145.9L70.8,143.3L70,138.8L68.8,135.6L73.8,133.2L76.4,130.5L81.4,128.4L83.2,126.2L85,127.5Z" fill="#2c2c34" stroke="#474751" stroke-width="0.8"/><path d="M211.1,279.7L211.6,279.6L212.6,277.6L217.6,277.7L223.9,275.2L219.2,278.8L219.8,280.4L219,280.1L217.7,280.7L216.6,280.5L216.3,280.9L216.2,280L215.7,279.5L214.3,279.4L212.4,280.1Z" fill="#2c2c34" stroke="#474751" stroke-width="0.8"/><path d="M211.1,279.7L212.4,280.1L214.3,279.4L215.7,279.5L216.2,280L216.3,280.9L216.6,280.5L217.7,280.7L219,280.1L219.8,280.4L220,281.1L212.8,284.5L209.4,283.4L207.8,280Z" fill="#2c2c34" stroke="#474751" stroke-width="0.8"/><path d="M63.4,300L63.6,296.5L71.7,299.3L74.7,298.6L80.4,300L63.4,300ZM128.8,300L133.4,298.9L139.4,300L128.8,300Z" fill="#2c2c34" stroke="#474751" stroke-width="0.8"/><path d="M112.7,212.6L106.5,209L103.9,205L101.3,202.9L98.1,199.3L96.6,196.3L93.2,191.7L94.6,187.6L97.1,189.9L98.6,187.8L101.9,187.6L107.8,189.3L112.6,189.1L115.8,191.3L118.3,191.3L116.6,195.6L119.9,199.3L118.9,203.8L117.3,204.2L116,205.1L113.7,207.3Z" fill="#2c2c34" stroke="#474751" stroke-width="0.8"/><path d="M139.2,215.7L142.7,218.7L143.2,224.8L141.9,225.1L140.7,226.7L137,226.5L134.3,228.6L129.8,229.4L126.9,227.1L125.9,223.2L126.8,220L127.7,220.1L128,218.2L132.1,216.7L133.6,216.4L136,215.8Z" fill="#2c2c34" stroke="#474751" stroke-width="0.8"/><path d="M114.6,180.9L119.9,178.3L124.2,178.7L128,182.7L128.8,185.8L133,188.1L133.5,192.2L137.6,195L139.8,192.8L141.5,194.1L139.9,195.7L141.2,197.4L139.5,199.6L140.1,203.1L143.4,207.2L140.8,210.2L139.6,213.2L140.4,214.3L139.2,215.7L136,215.8L133.6,216.4L133.4,215.7L134.2,214.5L135,212.2L134,212.3L132.7,210.5L131.5,210.1L130.6,208.6L129.3,208L128.3,206.6L127.1,207.2L126.1,210.3L124.5,211L125,210.2L122.4,208.2L120.1,207.2L119.1,205.9L117.3,204.2L118.9,203.8L119.9,199.3L116.6,195.6L118.3,191.3L115.8,191.3L118.5,187.6L116.2,184.8Z" fill="#2c2c34" stroke="#474751" stroke-width="0.8"/><path d="M123.2,213.1L121.3,214L120.9,212.2L117.9,216.8L118.3,219.8L116.9,219.1L114.9,216L111.9,214.2L112.7,212.6L113.7,207.3L116,205.1L117.3,204.2L119.1,205.9L120.1,207.2L122.4,208.2L125,210.2L124.5,211Z" fill="#2c2c34" stroke="#474751" stroke-width="0.8"/><path d="M126.8,220L126.3,216.6L124.7,215.7L123.2,213.1L124.5,211L126.1,210.3L127.1,207.2L128.3,206.6L129.3,208L130.6,208.6L131.5,210.1L132.7,210.5L134,212.3L135,212.2L134.2,214.5L133.4,215.7L133.6,216.4L132.1,216.7L128,218.2L127.7,220.1Z" fill="#2c2c34" stroke="#474751" stroke-width="0.8"/><path d="M249.2,169L248.9,169.1L246.5,168.9L246.1,169L244.5,169.2L243.1,170.8L242.3,170.8L241.1,171.2L240.3,171.7L239.3,172.8L238.6,172.3L237.7,172.3L236.8,172.6L235.8,173.4L235.2,173.5L234,173.3L232.6,173.7L229.7,176.2L228.7,178L228.3,178.3L227.8,178.7L227.3,179L227,179L228.4,177.7L228.8,177.2L228.9,176.9L228.9,176.3L228.5,175.6L227.3,177.3L226.7,177.6L225.8,178.1L225.8,179.3L225.9,180.1L226.2,181.2L226.9,182.7L226.5,182.7L225.5,182.1L225.4,181.1L224.7,180.2L223.6,180.2L223.1,180.3L222.4,179.4L221.5,179L220.8,179.1L220.1,178.9L218.6,177.9L217.6,177.8L217.5,178.5L217.1,179L216.5,179.2L216,179.4L214.8,178.7L214.4,178.2L212.6,178.8L211.6,178.7L209.4,179.2L208.3,178.7L206.3,177.4L205.5,177.1L204.9,177.2L204.5,176.8L205,176.5L205.5,176.5L206,176.4L206.1,176.1L206.1,175.7L205,175.4L204.1,175.3L203.4,174.9L203,174.4L204.1,174.4L205.2,174.8L207,174.9L208.6,175.2L209,174.8L209.9,174.1L210.1,173.8L208.5,174.3L206.9,174L206.4,173.6L205.9,172.9L205.7,172.1L205.8,171.4L205.6,170.1L205.1,169L204.9,168.3L204.4,167.7L204.9,169L205.1,169.9L205.4,170.7L205.4,172.7L205.2,173.5L204.5,173.7L203.7,173.6L202.8,173.3L203,172.2L202.6,172.6L201.9,173.7L201.3,173.9L200.1,173.7L197.7,174.5L197.5,175.3L197.2,176.3L196.8,177L196.7,177.3L195.7,179L195.6,179.1L193.7,181.3L193.4,181.5L192.2,182L191.5,182.5L190.9,182.7L190,182.5L189.6,182.8L189.4,183.2L189.4,184L189.9,184.6L190.3,186.5L190.1,187.4L189.7,186.8L189.2,186.3L188,185.8L186.8,186L185.4,186.8L184.5,187.1L184,186.9L183.7,186.9L183.6,187.1L183.6,187.3L183.8,187.4L183.7,187.6L183.6,187.6L181.4,187L180.5,186.5L179.7,185.5L180.1,185.1L180.4,185L181.5,184.9L181.7,184.8L181.8,184.6L181.8,184.3L181.8,183.8L181.7,183.3L182.2,182.6L182.9,182.1L183.3,181.5L183.4,180.6L184.2,180.2L184.8,179.5L185,178.7L185.3,178.2L184.8,177.1L184.7,176.4L184.7,175.7L184.9,175.4L185.6,175L186.2,174.7L186.5,174.7L186.6,174.9L186.6,176.2L186.8,176.2L187,176.1L187.3,175.3L187.6,175.5L187.9,175.6L188.2,175.4L188.4,175.5L188.6,175.6L189.1,175.9L189.5,176L189.8,175.8L190.1,175.5L190.4,175.6L191,176.5L191.3,176.4L192.7,176.2L192.9,176L193.1,175.8L191.6,174.6L191.7,173.7L191.8,172.7L191.6,172.1L191.3,171.7L190.2,171.1L189.4,170.5L189.2,170.3L189.2,170L189.1,169.4L188.8,169L188.8,168.6L189,168L189,167.4L189,167.2L188.8,166.9L188.4,166.9L187.9,166.6L187.5,166.1L186.6,165.4L186.3,165.3L186.1,164.9L186.1,164.5L186.3,164L186.5,163.2L186.7,162.4L186.7,162L186.6,160.9L186.1,160L185.9,159.9L185.5,160.1L185,160.3L184.7,160.2L184.3,159.7L183.6,158.4L182.4,158.1L182,158.1L181.5,158.7L181.3,158.5L181.2,158.1L181,157.9L180.6,158.1L180.5,158L180.7,157.4L180.3,157.2L179.4,157.2L178.9,157L178.8,156.6L178.5,156.3L178,156.2L177.5,155.8L177,155.3L176.3,155L175.3,154.8L175.2,154.7L175.1,154.6L174.5,155L174.1,155.3L173.7,155.1L172.9,155.8L171.4,155.8L170.6,155.8L170.3,155.6L168.8,156.6L168.7,156.9L168.4,157.1L167.5,157.2L166.5,157.5L166.3,158.5L166,159L165.5,159.7L163.7,160L162.2,160.3L160.7,160.6L158.6,161.5L157.9,162.3L157.3,162.5L156.7,162.6L156.3,162.1L155,160.9L154.5,160.3L153.9,160.2L153.1,160.3L152.4,160.6L151.7,160.6L150.9,160.2L150.8,160.3L150.5,160.3L148.5,159.8L148.3,159.7L148.2,159.7L147.9,159.7L146.4,159.7L145,158.8L144.5,158.7L144.2,159.1L143.9,159.6L142.9,160L142.7,160.2L142.5,160.1L142.5,159.7L142.6,159.3L142.4,159L142,158.7L141.9,158.5L141.5,158.5L141.3,158.6L141.3,158.6L140.6,158.2L140.2,157.5L139.5,157.1L139,157L138.8,156.7L138.7,156.2L138.5,155.9L138.5,155.9L138.4,155.4L138.2,155.3L138.2,155.3L137.5,155.4L137.6,153.7L138.7,152.5L138.9,151.8L139.3,150.5L139.6,149.9L140,149.3L140.2,148.8L140.3,148.4L140.6,148.3L141.5,148.7L142.2,148.9L142.4,148.7L142.5,148.5L142.5,148.3L141.9,147.7L141.5,147.3L141.5,147.1L141.6,146.6L141.7,146L141.6,145.4L141.2,144L141.1,143.4L141.5,142.7L142.8,141L143.2,140.3L143.8,139.6L145.4,137.7L146.4,136.6L147.1,136L148.1,134.9L148.5,134.4L150.3,134L150.5,133.5L150.9,132.9L151.1,132.7L151.1,131.7L150.8,130.6L150.5,130.2L150.3,129.9L150.5,129.6L150.7,129.6L150.9,129.5L151.2,129.3L151.2,128.9L150.4,128.2L150.1,127.6L149.5,126.1L148.5,124.6L148.2,124.1L148.1,123.6L148.3,123.2L148.1,122.6L147.7,121.8L147.8,121.7L147.8,120.8L148,120.5L148.5,120.4L149,120.5L149.5,120.6L150.2,121.1L150.3,121L151.4,120.2L152.4,118.9L152.7,118.2L153,117.9L153.9,117.7L154.7,117.6L155.2,117.6L156.5,117.5L157.3,117.4L157.9,117.2L159.3,117.1L161.5,117.2L162.9,117.2L163.9,117.4L166.2,118L167.1,118.1L167.5,118.5L168.3,118.6L169.7,119L171,119.1L171.8,119.1L172.3,119.2L173.2,120.7L173.4,120.9L173.7,120.9L174.5,120.8L175.5,120.9L176.1,121.2L176,122.1L176.2,122.2L176.5,122.2L176.8,121.7L177.1,121.1L177.3,121L178.3,121.3L178.8,121.3L179.3,120.9L179.5,120.8L180.3,121.1L181.2,121.3L182,121.3L182.4,121.5L182.8,122.5L183.1,122.7L183.3,122.7L183.8,121.9L184.2,121.5L184.7,121.3L185.1,121.2L185.3,120.9L185.6,120.6L185.9,120.6L186.2,120.7L186.4,121.1L186.8,122L187.3,123L187.6,123.3L188.5,123L189.1,122.7L190.1,122.7L191.5,122.5L192.6,122.2L193.3,122.2L193.7,122.5L194.3,123.1L194.5,123.9L195.3,124.5L195.9,124.6L196.2,124L196.5,123.6L196.4,123L196.3,122.3L196.1,121.6L195.9,120.9L196.2,119.9L196.6,119L196.8,118.5L197.4,117.6L198,116.9L199,115.9L199.7,115.5L200.3,115.7L200.6,115.8L201.5,115.2L203.1,115.2L204.4,115.2L204.5,115.3L205.2,115.6L205.9,115.9L206.3,115.9L206.9,115.8L207.6,115.5L208,115.1L208.6,113.3L208.8,113.1L209.1,112.9L209.6,112.9L210.5,113.2L211.6,113.5L212.3,113.5L214,112.5L215,112.4L216.1,112.6L217.2,112.6L218.1,112.5L218.7,112.8L219.4,113.5L220,114.6L220.7,116.6L222.7,118.9L222.7,119.3L222.6,119.6L221.6,119.8L220.8,120L220.7,120.4L221,120.8L221.3,121.4L221.4,122.2L221.4,122.9L221.5,123.5L221.8,123.8L221.9,124.1L221.5,124.5L221.4,124.7L221.6,124.8L223.3,124.9L224.2,125.3L224.9,125.6L225.2,125.7L226,125.5L226.8,125.3L227.3,125.3L227.5,125.5L227.7,126.2L228,126.9L228.3,127.1L228.7,127L229,127.1L229.2,127.3L229,127.7L229.1,128.1L229.3,128.6L229.5,129.7L229.8,130.1L229.9,130.5L229.9,131L229.7,131.5L229.6,131.8L229.7,132.6L230.3,133.5L230.7,133.7L231,134.5L231.6,134.7L232.4,134.1L233.1,133.7L233.9,133.9L234.6,134L235.1,134.5L235.5,135.1L235.9,135.4L236.4,135.3L237.3,135.4L237.7,135.9L238.1,136.2L238.7,135.8L239.1,135.3L240.7,134.8L241.7,134.6L242,134.6L242.5,134.2L243.1,133.9L243.7,134L244.2,134.8L244.8,135.3L245,136.1L245.7,137.3L247.4,138.8L248,139.3L248.5,139.2L248.7,139.1L248.8,139L248.9,138.2L249.2,137.9L249.5,137.9L250.8,138.8L251.5,139L252.2,139L253.1,139.7L254.1,140.4L254.8,140.4L255.5,140.2L255.9,140L256.1,140.3L256.4,140.8L256.8,141.2L257.2,141.4L257.9,141.4L259,142.2L260.1,143.1L260.8,143.1L261.3,142.9L261.8,142.8L262.2,143L262.3,143.4L262,143.9L262,144.6L262.5,145.2L262.5,145.9L262.4,146.5L262.1,147L261.5,147.8L260.9,148.5L259.9,148.8L259.4,149.1L259.6,149.6L259.9,150.1L260.7,150.4L261.5,150.7L261.7,151L261.5,151.2L261,151.3L260.2,151.2L259.9,151.5L259.5,151.9L259.3,152.7L259.1,153.5L260,153.7L260.5,154L260.6,154.6L260.8,155.3L260.9,155.9L260.6,156.2L260.6,156.5L260.7,156.6L261.1,156.7L261.3,156.8L261.4,157.2L260.8,157.9L260.3,159.3L260.1,160L260.1,160.8L259.8,161.2L259.2,161.3L257.4,161.4L255.8,161.3L255.1,161.2L254,161.1L253.4,161.3L252.7,162.6L252.2,163.1L251.3,163.5L250.3,163.7L249.7,164.2L249.5,165L249.5,165.7L249.4,166.1L249.2,166.4L249.1,166.6L249.2,166.9L249.4,167L249.7,167.1L249.7,167.3L249.6,167.5L249.2,167.7L249.1,168.1L249.1,168.5ZM206.1,178L207.1,178.5L206.1,178.3L204,177.9L203,177.4L202.8,176.9L202.6,176.3L203.2,177L203.5,177.3Z" fill="#b8e653" stroke="#0c0e06" stroke-width="1"/></svg>
