<svg xmlns="http://www.w3.org/2000/svg" viewBox="0 0 300 300"><path fill="#e8e8ea" d="M252.3,189.5L251.8,189.7L246.8,189.4L245.8,189.5L242.7,189.9L239.7,193.2L238,193.2L235.5,194.1L233.8,195.1L231.8,197.5L230.3,196.4L228.5,196.4L226.6,197.1L224.4,198.6L223.2,198.9L220.7,198.5L217.8,199.4L211.7,204.5L209.6,208.2L208.9,208.9L207.8,209.8L206.7,210.3L206.1,210.2L209.1,207.6L209.9,206.6L210.1,205.9L210.2,204.7L209.3,203.2L206.8,206.9L205.5,207.4L203.8,208.5L203.6,210.9L203.9,212.7L204.6,215L205.9,217.9L205.2,218.1L203,216.8L202.9,214.7L201.4,212.9L199,212.9L198,213.1L196.6,211.1L194.7,210.3L193.3,210.6L191.8,210.2L188.7,208.1L186.5,207.8L186.5,209.4L185.6,210.4L184.2,210.8L183.2,211.2L180.8,209.8L179.9,208.7L176.2,209.8L174.1,209.7L169.5,210.7L167.3,209.7L163.1,207L161.5,206.4L160.1,206.5L159.4,205.7L160.3,205.2L161.4,205.2L162.5,204.8L162.8,204.4L162.7,203.4L160.5,202.8L158.5,202.6L157.2,201.8L156.2,200.8L158.5,200.8L160.8,201.5L164.5,201.8L167.8,202.5L168.6,201.6L170.6,200.1L170.9,199.5L167.7,200.6L164.4,199.9L163.2,199L162.2,197.6L161.8,196L162,194.5L161.7,191.8L160.6,189.4L160.2,188.1L159.1,186.9L160.2,189.6L160.6,191.4L161.3,193L161.2,197.3L160.7,198.8L159.4,199.2L157.6,199L155.8,198.5L156.3,196.1L155.3,196.9L153.9,199.3L152.7,199.6L150.1,199.4L145.2,200.9L144.8,202.5L144.1,204.8L143.4,206.1L143.2,206.9L141.1,210.2L140.8,210.6L136.9,215.2L136.3,215.5L133.8,216.6L132.2,217.5L131.1,218L129.1,217.5L128.3,218.2L127.9,219L127.9,220.7L128.9,221.9L129.7,226L129.4,227.7L128.7,226.6L127.5,225.4L125.1,224.4L122.5,224.8L119.7,226.5L117.7,227.1L116.7,226.7L116.1,226.7L115.9,227.2L115.9,227.6L116.2,227.9L116.2,228.1L115.8,228.2L111.3,227L109.4,225.9L107.8,223.8L108.6,223.1L109.3,222.8L111.6,222.6L112,222.4L112.1,221.9L112.2,221.3L112.2,220.4L111.9,219.3L112.9,217.9L114.5,216.7L115.3,215.5L115.4,213.7L117.1,212.9L118.5,211.4L118.8,209.8L119.3,208.7L118.4,206.4L118.2,204.9L118.2,203.6L118.6,202.9L120,202L121.4,201.4L121.9,201.5L122.1,201.9L122.2,204.5L122.5,204.6L122.9,204.2L123.7,202.7L124.1,203.1L124.9,203.3L125.5,202.9L125.8,202.9L126.3,203.3L127.2,203.9L128.1,204.1L128.9,203.7L129.4,203L130.1,203.3L131.4,205.1L131.9,204.9L134.8,204.5L135.3,204L135.6,203.6L132.6,201.2L132.8,199.4L132.9,197.3L132.5,196L131.9,195L129.6,193.9L127.9,192.7L127.5,192.2L127.5,191.5L127.3,190.4L126.7,189.5L126.6,188.7L127,187.5L127.2,186.2L127,185.7L126.6,185.3L125.8,185.2L124.7,184.5L124.1,183.4L122.1,182L121.5,181.7L121.2,181L121,180.1L121.4,179.1L121.9,177.4L122.3,175.8L122.3,174.9L122,172.6L121.1,170.8L120.6,170.6L119.8,171.1L118.9,171.5L118.1,171.1L117.3,170.1L116,167.5L113.5,166.9L112.5,166.8L111.5,168.1L111.2,167.7L110.9,166.9L110.4,166.5L109.7,166.9L109.5,166.6L109.8,165.4L109,164.9L107.1,164.9L106.1,164.5L105.9,163.6L105.3,163.1L104.3,162.8L103.2,162.1L102.2,161L100.7,160.3L98.6,160L98.5,159.9L98.3,159.7L97,160.4L96.2,161L95.2,160.7L93.6,162L90.5,162.1L88.9,162L88.1,161.7L85.2,163.7L84.9,164.4L84.2,164.7L82.3,165.1L80.3,165.6L79.9,167.6L79.3,168.7L78.3,170.2L74.6,170.7L71.4,171.5L68.2,172L63.9,173.9L62.5,175.5L61.1,176L59.9,176.1L59.1,175.2L56.4,172.7L55.4,171.5L54,171.2L52.5,171.4L51.1,172L49.5,172.1L47.9,171.2L47.7,171.3L47,171.4L42.8,170.4L42.4,170.3L42.2,170.2L41.6,170.1L38.5,170.3L35.5,168.2L34.6,168.1L33.9,169L33.4,169.9L31.3,170.8L30.8,171.2L30.5,170.9L30.4,170.1L30.5,169.4L30.2,168.8L29.4,168L29.2,167.7L28.2,167.7L28,167.8L27.9,167.8L26.5,167.1L25.6,165.6L24.2,164.8L23.2,164.5L22.7,163.9L22.4,163L22,162.3L22,162.2L21.8,161.2L21.5,161.1L21.4,161.1L20,161.3L20.2,157.7L22.4,155.2L22.9,153.8L23.7,151L24.4,149.7L25.1,148.6L25.7,147.6L25.9,146.7L26.5,146.5L28.2,147.4L29.8,147.8L30.2,147.4L30.4,146.8L30.4,146.5L29.1,145.2L28.3,144.5L28.3,144L28.5,142.9L28.7,141.7L28.5,140.4L27.6,137.5L27.5,136.3L28.3,134.8L31,131.2L31.9,129.9L33.1,128.3L36.4,124.4L38.5,122.1L39.9,120.8L41.9,118.6L42.8,117.5L46.6,116.7L47,115.7L47.8,114.5L48.3,114L48.3,112L47.7,109.6L47.1,108.8L46.7,108.2L46.9,107.6L47.4,107.5L47.9,107.4L48.5,106.8L48.4,106.2L46.8,104.7L46.1,103.5L45,100.4L42.8,97.2L42.2,96.1L42.1,95.1L42.4,94.2L42.1,92.9L41.3,91.3L41.4,91.2L41.3,89.2L41.9,88.7L42.8,88.5L44,88.6L45,88.9L46.3,89.8L46.7,89.6L48.8,87.9L51.1,85.3L51.7,83.9L52.2,83.2L54.2,82.8L55.8,82.7L56.9,82.7L59.5,82.5L61.1,82.2L62.4,81.7L65.3,81.5L69.8,81.8L72.8,81.8L74.8,82.1L79.8,83.5L81.6,83.7L82.5,84.4L84.1,84.7L87,85.5L89.6,85.8L91.4,85.7L92.4,85.9L94.2,89.1L94.6,89.5L95.4,89.5L96.9,89.3L99,89.4L100.3,90.1L100.1,92L100.5,92.2L101,92.2L101.8,91.1L102.3,89.9L102.7,89.6L104.9,90.4L105.9,90.2L106.9,89.4L107.4,89.2L109,89.8L110.9,90.3L112.5,90.3L113.5,90.8L114.1,92.8L114.8,93.2L115.3,93.3L116.3,91.5L117.1,90.8L118.2,90.3L118.9,90.1L119.4,89.5L120.1,88.8L120.7,88.8L121.2,89L121.7,89.9L122.6,91.8L123.6,93.8L124.2,94.5L126,93.9L127.2,93.3L129.4,93.1L132.3,92.7L134.6,92.2L136,92.2L136.9,92.9L138.2,94.1L138.5,95.8L140.2,97L141.5,97.2L142,95.9L142.8,95.1L142.5,93.9L142.4,92.4L141.8,91L141.4,89.5L142.1,87.4L142.9,85.5L143.3,84.4L144.6,82.5L145.9,81.2L147.8,79L149.3,78.3L150.5,78.6L151.3,78.9L153.1,77.6L156.4,77.5L159.2,77.7L159.4,77.7L160.8,78.4L162.2,79L163.2,79L164.3,78.9L165.7,78.1L166.7,77.4L167.8,73.7L168.2,73.1L168.9,72.9L169.9,72.8L171.9,73.5L174.2,74.1L175.6,74.1L179.2,72L181.2,71.8L183.6,72.2L185.9,72.2L187.6,72L188.9,72.7L190.3,74.2L191.7,76.4L193.1,80.5L197.2,85.2L197.3,86.1L196.9,86.7L194.9,87.3L193.2,87.6L193.1,88.4L193.6,89.2L194.4,90.5L194.5,92.1L194.4,93.6L194.8,94.9L195.4,95.5L195.5,96.1L194.8,96.9L194.5,97.4L194.9,97.7L198.6,97.8L200.4,98.6L201.8,99.3L202.5,99.4L204,99L205.8,98.6L206.8,98.6L207.2,99.1L207.6,100.5L208.2,101.9L208.8,102.3L209.8,102.2L210.4,102.3L210.8,102.8L210.4,103.6L210.5,104.4L210.9,105.5L211.5,107.9L212,108.6L212.3,109.5L212.3,110.6L211.9,111.5L211.6,112.2L211.9,113.8L213,115.6L213.8,116.1L214.5,117.7L215.7,118.2L217.4,116.8L218.8,116.1L220.5,116.5L222.1,116.8L223.1,117.7L223.9,119L224.8,119.7L225.7,119.3L227.6,119.7L228.5,120.7L229.3,121.3L230.4,120.5L231.3,119.4L234.6,118.3L236.7,118.1L237.3,117.9L238.5,117.1L239.7,116.6L240.9,116.7L242,118.3L243.2,119.4L243.5,121.2L245,123.6L248.5,126.8L249.9,127.8L250.9,127.6L251.4,127.3L251.6,127L251.8,125.4L252.3,124.8L253,124.8L255.8,126.8L257.2,127L258.6,127.1L260.5,128.6L262.5,129.9L264.1,130.1L265.4,129.6L266.2,129.2L266.8,129.8L267.3,130.9L268.1,131.8L269,132L270.4,132.1L272.8,133.8L275,135.6L276.4,135.7L277.6,135.1L278.6,135L279.3,135.5L279.5,136.2L279,137.2L279,138.7L280,140.1L280,141.5L279.7,142.7L279.2,143.8L277.8,145.4L276.6,146.8L274.7,147.5L273.6,148.1L273.9,149.1L274.6,150.1L276.2,150.9L278,151.5L278.2,152.2L277.9,152.5L276.8,152.8L275.2,152.5L274.6,153L273.9,154L273.4,155.7L273,157.2L274.7,157.6L275.8,158.3L276.1,159.6L276.5,161L276.6,162.2L276,162.8L275.9,163.5L276.2,163.8L277,163.9L277.6,164.2L277.6,164.9L276.5,166.4L275.5,169.3L274.9,170.8L275,172.5L274.3,173.4L273.2,173.5L269.3,173.6L266,173.5L264.6,173.3L262.3,173.2L261.1,173.6L259.7,176.2L258.5,177.2L256.6,178.2L254.6,178.4L253.4,179.5L253,181.2L253,182.7L252.8,183.5L252.3,184.1L252.2,184.6L252.3,185.1L252.7,185.3L253.3,185.5L253.3,185.9L253.1,186.4L252.4,186.9L252.2,187.7L252.2,188.6Z"/></svg>
