<svg xmlns="http://www.w3.org/2000/svg" viewBox="0 0 400 300"><path d="M139.5,300L139.6,299.4L135.6,279.1L144.7,278.1L152.7,270.1L161.2,258.6L166.7,254L166.5,246.9L161.7,241.9L160.4,233.2L166.8,230.5L168,217.5L159.3,205.2L167.1,202.5L191.1,202.8L235.8,201.1L235.8,201.1L239.6,203.5L319.1,248.2L320.6,261L352.2,283L345.8,300L139.5,300Z" fill="#2c2c34" stroke="#474751" stroke-width="0.8"/><path d="M0,78.3L3,78.9L27.5,67.9L36.1,72.6L43.3,71.9L46.5,66.6L54.7,64.7L71.2,67L85.3,67.5L92.5,65.2L105.8,83.4L115.6,86L121.6,82.3L131.7,83.8L143.9,79.1L149.1,88.5L168.4,103.2L167.2,128.9L175.9,131.8L168.9,139.6L160.4,145.5L152.1,156.9L147.4,167.1L146.2,184.8L141.1,193.1L140.9,209.7L134.6,215.8L133.8,228.9L130.8,230.6L128.8,242.6L134.3,252.6L135.6,279.1L135.6,279.1L139.6,299.4L139.5,300L0,300Z" fill="#2c2c34" stroke="#474751" stroke-width="0.8"/><path d="M400,211L391.4,199.1L391.2,119.1L400,107.6L400,211Z" fill="#2c2c34" stroke="#474751" stroke-width="0.8"/><path d="M400,107.6L391.2,119.1L391.4,199.1L400,211L400,219.7L400,219.7L389.1,226L383.7,235.1L375.5,236.8L372.3,252.2L365.3,261.1L361,275.7L352.2,283L352.2,283L320.6,261L319.1,248.2L239.6,203.5L235.8,201.1L235.6,177.8L241.9,168.9L252.7,154.4L260.7,138.4L251,113.2L248.5,102.2L238.1,86.8L251.6,73.7L266.4,59.2L277.9,62.9L277.9,75.3L285.4,82.5L300.6,82.5L328.5,101.2L335.3,101.4L340.5,100.8L345.4,103.3L360,105.1L366.5,95.9L386.5,86.7L395.4,94.1L400,94.1L400,107.6Z" fill="#2c2c34" stroke="#474751" stroke-width="0.8"/><path d="M32.3,0L42.9,7.9L43.1,15.1L57.9,26.7L67,36.2L72.6,49.5L89,58.2L92.5,65.2L92.5,65.2L85.3,67.5L71.2,67L54.7,64.7L46.5,66.6L43.3,71.9L36.1,72.6L27.5,67.9L3,78.9L0,78.3L0,0Z" fill="#2c2c34" stroke="#474751" stroke-width="0.8"/><path d="M160.4,233.2L161.7,241.9L166.5,246.9L166.7,254L161.2,258.6L152.7,270.1L144.7,278.1L135.6,279.1L134.3,252.6L128.8,242.6L142.1,244.3L148.8,231.8Z" fill="#2c2c34" stroke="#474751" stroke-width="0.8"/><path d="M400,94.1L395.4,94.1L386.5,86.7L366.5,95.9L360,105.1L345.4,103.3L340.5,100.8L335.3,101.4L328.5,101.2L300.6,82.5L285.4,82.5L277.9,75.3L277.9,62.9L266.4,59.2L253.5,35.2L243.4,30L239.6,21.2L228.5,10.4L215,8.8L220.2,0L400,0Z" fill="#2c2c34" stroke="#474751" stroke-width="0.8"/><path d="M159.3,205.2L168,217.5L166.8,230.5L160.4,233.2L148.8,231.8L142.1,244.3L128.8,242.6L130.8,230.6L133.8,228.9L134.6,215.8L140.9,209.7L146.2,211.9Z" fill="#2c2c34" stroke="#474751" stroke-width="0.8"/><path d="M220.2,0L215,8.8L228.5,10.4L239.6,21.2L243.4,30L253.5,35.2L266.4,59.2L251.6,73.7L238.1,86.8L224.5,97L209.1,96.9L191.4,102.1L177.5,97.2L168.4,103.2L168.4,103.2L149.1,88.5L143.9,79.1L131.7,83.8L121.6,82.3L115.6,86L105.8,83.4L92.5,65.2L89,58.2L72.6,49.5L67,36.2L57.9,26.7L43.1,15.1L42.9,7.9L32.3,0L220.2,0Z" fill="#2c2c34" stroke="#474751" stroke-width="0.8"/><path d="M235.8,202.2L233.5,202.2L229.5,202.2L225.6,202.2L221.8,202.2L217.8,202.2L213.9,202.2L210,202.2L206.1,202.2L202.3,202.2L198.3,202.2L194.4,202.2L190.5,202.2L186.6,202.2L182.7,202.2L178.8,202.2L174.9,202.2L171,202.2L168.7,202.2L168.3,202.2L168,202.1L166.5,202.4L165,203.3L163.3,203.7L161.6,203.5L161.3,203.7L160.4,203.6L159.2,203.6L158.1,203.8L157.2,204.7L156.3,206.1L154.7,207.8L153.4,209.2L152.4,210.3L149.9,212L148.6,212.5L148,212.4L147.6,212.1L146.8,209.9L146.3,209.6L141.6,210.7L140.9,210.7L140.9,210L140.6,204.8L140.5,201.7L141.2,199.7L141.5,197.4L141.6,195.4L142.4,192L142.1,189.9L143.2,182.7L143.5,181.6L143.9,178.1L144.6,177L145.3,176.6L146.1,174.5L147.6,171L148.8,169.3L148.5,165.4L148.7,162.8L148.9,162.2L151.2,161.3L154.2,158.9L155.4,156L157.2,154.2L160.6,153L160.7,153L170.9,143.3L175.6,138L177.7,135.4L177.8,134.4L178.2,133.1L177.3,132.1L176.3,131.2L176,130.4L175.1,130L173.9,130L173.1,129.4L172.2,128.2L171.3,127.5L168.4,127.5L166.1,126.3L166.1,124.7L167.1,121.4L168.7,117.7L168.8,116.7L168.6,115.8L168.2,115.1L167.4,114.3L166.7,113.4L167.2,110.8L168.4,108.1L169.2,106.8L170.1,105.4L169.8,104.2L168.6,103.6L169.2,102.4L170.6,100.4L173.2,98.4L175.5,97.1L177,97.1L180,98.1L182.7,99.4L184.2,99.5L185.9,98.9L189.6,96.7L190.5,97.4L191.6,98.8L192.8,101L195.1,102L196.2,102.7L197,102.9L197.5,102.7L198.4,101L199.4,100L201.5,98.8L205.8,97.9L208.9,97.6L210.2,97.4L212.4,96.8L215.9,95L219.4,97.3L223.1,97.8L226.7,97.7L227.9,97.1L228.5,96.5L232.3,92.7L237.4,87.5L240.9,94.8L242,95.2L241.8,95.9L241.6,96.5L243.8,98.2L246.6,99.2L247.5,100L247.7,101L246.7,105.3L246.9,106.5L247.8,110.8L249.4,111.7L250.9,116L253.9,117.8L254.2,118.3L255,120.4L255.8,122.7L256.5,123.2L256.9,123.4L257.8,125.8L257.3,127.2L258,131.3L259.1,134.9L259.4,139.4L259.5,141.3L259.4,142.5L259.1,144.2L258.6,145.1L257.6,146.1L256.6,147.6L255.8,149.1L255.2,149.9L255.6,152.3L255.5,152.9L255.3,153.2L253.9,153.6L252.2,154.2L251.2,154.8L249.7,156.1L248.6,157.4L247,161.2L244.4,164.2L244,165.2L241.5,167L240.4,169.1L239.7,171.8L238.8,173.8L236.7,176.4L236.2,180.6L236.3,189L235.8,198.5Z" fill="#b8e653" stroke="#0c0e06" stroke-width="1"/></svg>
