<svg xmlns="http://www.w3.org/2000/svg" viewBox="0 0 300 300"><path fill="#e8e8ea" d="M224.5,258.7L219.6,258.7L211.4,258.7L203.3,258.7L195.3,258.7L187.1,258.7L179,258.7L170.8,258.7L162.7,258.7L154.7,258.7L146.5,258.7L138.4,258.7L130.2,258.7L122.1,258.7L114.1,258.7L105.9,258.7L97.8,258.7L89.8,258.7L84.8,258.7L84,258.5L83.3,258.3L80.2,258.9L77.1,260.9L73.7,261.8L70,261.4L69.5,261.6L67.7,261.5L65.1,261.4L62.8,261.9L61,263.7L59,266.7L55.7,270.2L53.1,273.2L51,275.4L45.9,279L43.1,280L41.8,279.8L40.9,279.2L39.3,274.6L38.3,273.9L28.5,276.2L27,276.3L27.1,274.8L26.5,264.1L26.3,257.5L27.6,253.4L28.3,248.6L28.5,244.5L30.3,237.4L29.6,233.1L31.9,218.1L32.6,215.6L33.4,208.4L34.9,206.2L36.2,205.3L37.8,200.9L41.1,193.8L43.4,190.1L42.9,182.1L43.2,176.7L43.7,175.4L48.5,173.5L54.7,168.5L57.2,162.5L61,158.8L68.1,156.3L68.2,156.3L89.4,136L99.3,125.1L103.6,119.5L103.7,117.5L104.6,114.9L102.7,112.8L100.8,110.9L100.1,109.2L98.3,108.4L95.7,108.4L94,107.2L92.2,104.7L90.3,103.1L84.2,103.3L79.6,100.7L79.6,97.3L81.5,90.6L85,82.8L85.2,80.8L84.7,78.9L83.8,77.3L82.2,75.8L80.7,73.9L81.9,68.4L84.2,62.9L86,60.2L87.8,57.2L87.1,54.6L84.7,53.4L86,51L88.8,46.9L94.2,42.7L99,39.9L102.1,39.9L108.3,42.1L113.9,44.7L117,44.9L120.7,43.8L128.4,39.1L130.2,40.6L132.5,43.4L135,48L139.9,50.2L142.2,51.6L143.8,52.1L144.8,51.7L146.6,48L148.8,46.1L153,43.5L162.1,41.5L168.5,41L171.3,40.5L175.9,39.3L183.1,35.6L190.4,40.4L198.1,41.4L205.6,41.3L207.9,39.9L209.3,38.8L217.1,30.8L227.8,20L235.1,35.2L237.4,36.1L237,37.4L236.5,38.7L241.1,42.3L246.9,44.2L248.9,46.1L249.2,48.1L247.2,57L247.6,59.5L249.4,68.4L252.8,70.4L255.9,79.3L262,83.1L262.8,84.2L264.3,88.5L266.1,93.2L267.6,94.3L268.4,94.6L270.2,99.6L269.2,102.5L270.7,111.1L273,118.7L273.5,127.9L273.7,131.9L273.5,134.4L273,137.9L271.9,139.8L269.9,141.8L267.8,144.9L266,148.2L264.8,149.8L265.6,154.8L265.5,156L265,156.7L262.2,157.5L258.6,158.8L256.4,160.1L253.5,162.6L251,165.3L247.7,173.3L242.3,179.5L241.5,181.6L236.4,185.3L234.1,189.8L232.6,195.4L230.6,199.5L226.3,204.9L225.4,213.7L225.5,231.1L224.4,250.8Z"/></svg>
