<svg xmlns="http://www.w3.org/2000/svg" viewBox="0 0 400 300"><path d="M13.7,278.3L14.2,277.9L15,278.6L14.6,279.8L13.3,280.1L12.1,279.8L11.9,278.8L12.7,278ZM17.8,275L18.2,274.9L17.9,276L17.8,276.1L16.4,276.7L15,277.2L14.7,276.3L15.8,275.9L16.5,275.7L17.8,275Z" fill="#2c2c34" stroke="#474751" stroke-width="0.8"/><path d="M388.8,177.4L388.8,177.6L388.8,178L388.7,181.7L381.6,181.6L381.7,187.7L379.7,187.9L379.2,189.1L379.6,192.5L371.1,192.5L370.6,193.2L370.7,192.3L370.7,192.3L375.6,192.1L375.9,191.2L376.8,190.2L377.5,186.9L380.5,184.4L381.5,181.4L382.2,181.2L382.9,179.3L384.7,179L385.5,179.3L386.5,179.3L387.2,178.8L388.5,178.7L388.5,177.4Z" fill="#2c2c34" stroke="#474751" stroke-width="0.8"/><path d="M141.6,117.7L141.3,117.7L137.1,114.4L135.5,113L131.6,111.6L130.4,108.5L130.7,106.3L127.9,104.8L127.6,101.9L124.9,99.2L124.9,97.3L126.1,95.5L126,93.1L122.3,90.6L120.1,86L118.8,83.1L116.8,81.2L115.3,79.5L114.2,77.3L112,78.7L109.9,81L108,78.3L106.5,76.4L104.4,75.2L102.2,75L102.2,47.6L102.3,26.3L106.3,27.8L109.7,30.7L112,31.3L113.9,28.7L116.5,26.8L119.7,27.5L122.9,24.8L126.5,23.2L128,25.8L129.6,24.4L130.1,21.4L131.6,22L135.2,27.7L138.1,23.4L138.4,28.2L141.1,27.2L141.9,25.4L144.5,25.7L147.8,28.3L152.9,30.6L155.9,31.6L158,31.2L160.9,34.2L157.9,37.1L161.8,38.3L167.6,37.7L169.5,36.7L171.8,40.1L174.1,37.2L171.9,34.7L173.3,32.7L176,32.4L177.7,31.8L179.4,33.3L181.6,36.4L184,36L187.9,38.6L191.2,37.7L194.4,37.8L194.1,34.2L196.1,33.2L199.4,35.2L199.4,40.6L200.8,36L202.5,36.2L203.5,30.2L201.2,26.4L198.7,23.9L198.8,16.7L201.4,11.7L204.2,12.8L206.4,15.8L209.4,23.2L207.5,26.3L211.5,27.6L211.5,33.8L214.4,29.1L217,32.9L216.3,37.3L218.4,41.1L220.7,37L222.2,31.9L222.4,25.2L225.4,25.7L228.6,26.6L231.6,29.7L231.7,32.6L230.1,35.8L231.6,38.9L231.3,41.6L227.1,45.4L224.1,46.3L221.8,44.6L221.2,47.3L219.1,51.8L218.5,54L216,57.4L212.9,57.7L211.1,59.8L211,62.9L208.5,63.5L205.8,67.3L203.5,72.4L202.6,75.9L202.5,80.9L205.7,81.6L206.7,85.4L207.7,88.5L210.7,87.7L214.8,89.4L216.9,90.9L218.5,92.7L221.2,93.8L223.5,95.4L227,95.6L229.4,96L229,99.2L229.7,102.9L231.3,106.9L234.5,110.2L236.2,109.1L237.4,105.5L236.2,99.8L234.7,97.8L238.2,96.1L240.6,93.4L241.8,90.7L241.6,88L240.2,84.6L237.5,81.5L240.1,77L239.1,73.1L238.4,66L239.9,64.9L243.6,66.1L245.9,66.6L247.7,65.4L249.7,66.9L252.3,69.6L253,71.4L256.9,71.7L256.8,75.4L257.5,80.8L259.5,81.5L261.1,83.9L264.2,81.6L266.3,76.9L267.7,74.9L269.4,78.8L272.2,84.1L274.6,88.9L273.7,91.4L276.6,93.6L278.6,95.8L282,96.8L283.4,98L284.3,101.1L286,101.6L286.8,103L287,107L285.4,108.3L283.9,109.5L280.3,110.7L277.6,113.6L273.9,114.1L269.3,113.4L266,113.4L263.8,113.6L262,116L259.2,117.5L256.1,121.8L253.6,124.7L255.4,124.2L258.9,120L263.4,117.3L266.7,116.9L268.6,118.6L266.6,120.7L267.2,124.2L267.9,126.6L270.8,128.1L274.3,127.7L276.5,124.2L276.7,126.4L278.1,127.6L275.4,129.6L270.6,131.4L268.4,132.7L266,134.8L264.4,134.6L264.3,132L268.1,129.5L264.6,129.6L262.2,130L260.8,128.3L260.8,124L259.8,123.1L258.3,123.6L257.6,122.8L256,125.2L255.3,127.6L254.5,129L253.6,129.5L252.9,129.6L252.7,130.4L248.7,130.4L245.4,130.4L244.5,131L242.2,133.2L241.9,133.4L241.2,134.6L239.2,134.6L237.1,134.6L236.1,135.1L236.5,135.6L236.7,136.5L236.6,136.8L233.8,138.3L231.6,138.8L229,140.3L228.5,140.3L227.8,139.9L227.5,139.4L227.6,139.1L228,138.1L229.1,136.5L229.7,134.7L229.3,132.1L228.8,129.4L226.5,127.9L226.8,127.3L226.5,127L225.9,127L225.5,126.5L225.4,125.7L224.9,126L224.3,126L224.5,125.6L224,125.3L223.8,124.5L222.1,123.5L220.3,122.4L218.2,121.2L216.2,120L214.2,120.9L213.5,120.9L210.9,120.1L209.1,120.5L207,119.5L204.8,119L203.3,118.8L202.6,118.2L202.2,116.4L201.5,116.4L201.5,117.7L197,117.7L189.6,117.7L182.2,117.7L175.7,117.7L169.2,117.7L162.9,117.7L156.3,117.7L154.1,117.7L147.7,117.7ZM225.7,65.3L227.3,63.2L230.3,63.2L230.2,64.1L227.7,66.7L226.1,66.6ZM239.4,0L242.2,3.2L242.4,5.2L240.1,5L237.8,4.8L235.4,5.8L234.8,5.4L234.8,5.4L232.4,1.4L232.5,0L239.4,0ZM233.6,67L234.5,65.6L235.4,65.8L235.9,66.7L235.1,69.1L234.1,68.7L233.5,67.4ZM287.2,109.9L286,112L284.6,115L286,113.9L287.4,114.6L286.7,115.8L288.6,116.7L289.6,115.9L291.8,116.9L291.1,119.3L292.6,118.7L292.9,120.5L293.6,122.5L292.6,125.3L291.7,125.4L290.2,124.8L290.7,122.2L290.1,121.8L287.6,124.5L286.3,124.4L287.8,122.9L285.7,122.2L283.4,122.4L279.2,122.3L278.9,121.3L280.2,120.2L279.3,119.3L281.1,117.3L283.4,111.9L284.7,110L286.6,108.8L287.6,108.9ZM225.9,52.3L228.3,54.1L230.8,55.6L231,58L232.5,57.6L234.1,59.2L232.2,60.8L228.8,59.6L227.6,57.4L225.4,60L222.4,62.5L221.6,59.7L218.7,60.1L220.6,57.7L220.8,53.8L221.6,49L223.1,49.5L223.5,51.7L224.7,50.9ZM221,0L220.1,2.8L221.8,7.3L223.8,1.4L226.2,0L230.1,0L230.1,0L233,6L232.7,10.7L237,8.6L237,8.6L239,5.8L243.8,9.4L246.8,12.8L247.1,15.8L251.1,14.2L253.4,18.5L258.6,21.1L260.5,23.7L262.5,29.5L258.6,32.3L263.7,36.2L267.1,37.4L270.2,42.6L273.6,43L272.9,46.8L269.2,52.9L266.5,50.7L263.1,45.6L260.3,46.2L260,49.3L262.3,52.3L265.2,54.7L266.1,56L267.5,60.9L266.8,64.3L264,63L258.6,59.1L261.7,63.3L263.9,66.1L264.3,67.8L258.4,65.9L253.8,63.2L251.1,60.8L251.9,59.5L248.7,56.9L245.5,54.5L245.5,56L239.3,56.8L237.5,55L238.9,51.3L242.9,51.2L247.4,50.5L246.7,48.6L247.4,46L250.2,40.6L249.6,38.1L248.8,36.1L245.5,33.3L241.1,31.3L242.5,29.7L240.2,25.9L238.3,25.5L236.6,23.4L235.4,25.3L231.5,26.1L223.6,24.7L219,22.8L215.5,21.8L213.7,19.5L216,16.5L212.9,16.5L212.2,9.5L213.9,3L216,0L221,0ZM210.3,0L208.3,4.2L205.7,5.6L203.4,11L201,10.7L199.6,4.4L199.6,0.7L199.9,0L210.3,0ZM120.2,100.1L122.3,99.8L121.6,104L123.5,106.9L122.6,106.8L121.3,105.2L120.5,103.6L119.4,102.4L119,100.8L119.2,99.7ZM140.1,119.3L139,119.8L135.5,118.3L134.8,117.1L132.9,116L132.5,115L130.3,114.4L129.4,112.5L129.6,111.8L131.9,112.5L133.2,113L135.2,113.4L136,114.5L137,116.1L139.2,117.5ZM157.2,0L157.4,0.4L154.7,2.3L149.4,7.4L146.7,12.4L146.7,15.4L141,18.6L139.9,15.7L134.9,12.1L135.8,9.1L137.3,3.8L138.7,0L157.2,0ZM176.9,3.4L179.3,6.3L180.7,13.2L181.3,18L185,21.3L188.9,24.3L188.6,27.1L185.1,27.6L186.5,29.9L185.7,32.1L181.8,31.2L178.1,29.5L175.6,29.9L171.5,32L166,32.9L162.2,33.4L161,30.6L158.1,28.9L156.1,29.6L153.5,24.7L154.9,24L158.2,22.9L161.3,23.2L164.1,22.1L159.9,20.6L155.3,21.1L152.2,21L151.1,18.6L156.1,15.9L152.8,16L149,14.2L150.8,9L152.3,6.1L158.1,1.6L160.3,3L159.3,6.5L164.1,4.3L167.1,7.9L169.5,4.2L171.5,6.6L173.3,13.6L174.4,10.7L172.8,3.3L174.7,2.2ZM197.1,0L197.2,0.4L195.2,4L198.5,7.1L198.1,13.5L194.6,16.1L192.5,15.6L191,13L185.6,7.5L185.6,5.2L190.1,6.1L190.1,6.1L187.7,1.2L188.5,0L197.1,0ZM180.5,0L181.3,0.8L179.4,5.7L176,0.5L176.3,0L180.5,0ZM244.7,39.7L243.3,41.4L240.8,41.7L240.3,38.9L241.2,35.7L243.2,34.9L244.9,36.5L244.9,38.9ZM199.1,27.6L200.4,30L199.1,32.1L196.2,30.3L194.4,30.9L191.4,28.2L193.4,26.3L194.9,23.5L197.2,25.3L198.5,26.5ZM267.8,114.8L268.6,114.5L271.4,115.4L273.7,116.8L273.7,117.4L272.7,117.4L269.9,116.4ZM268.9,124.1L269.7,125.6L271.3,126L273.3,125.9L272.2,127.2L271.4,127.4L268.7,126.1L268.1,125Z" fill="#2c2c34" stroke="#474751" stroke-width="0.8"/><path d="M259.5,300L259,299.3L259.5,298.6L259.4,294.6L261.8,293.4L262.5,290.9L262.2,290.4L264,288.2L266.9,288.8L268.2,290.5L269,288.6L271.5,288.7L271.8,289.2L275.8,293.1L277.6,293.4L280.2,295.2L282.4,296.1L282.8,297.2L281.1,300L259.5,300ZM288.5,300L288.9,299.6L289.3,297.5L290.3,297L291.4,298.4L291.4,300L288.5,300Z" fill="#2c2c34" stroke="#474751" stroke-width="0.8"/><path d="M254.2,300L254.4,297.4L255.1,292.5L255.8,287.2L255.6,283.4L255.2,280.2L256.3,279.6L256.9,278.5L256.9,278.5L257.9,280L258.2,281.7L259.4,282.6L258.7,284.9L259.8,287.5L260.7,290.7L262.2,290.4L262.5,290.9L261.8,293.4L259.4,294.6L259.5,298.6L259,299.3L259.5,300L254.2,300Z" fill="#2c2c34" stroke="#474751" stroke-width="0.8"/><path d="M252.3,196.2L252.5,197.5L252.3,198.3L251.8,198.7L252.3,199.4L252.3,200L250.8,199.6L249.8,199.8L248.5,199.6L247.5,200.1L246.3,199.4L246.5,198.6L248.5,198.9L250.1,199.1L250.9,198.6L249.9,197.6L249.9,196.7L248.6,196.4L249.1,195.8L250.4,195.9Z" fill="#2c2c34" stroke="#474751" stroke-width="0.8"/><path d="M252.3,200L252.3,199.4L251.8,198.7L252.3,198.3L252.5,197.5L252.3,196.2L252.5,195.8L254.2,195.8L255.5,196.4L256.1,196.4L256.5,197.2L257.7,197.1L257.6,197.8L258.6,197.9L259.6,198.7L258.8,199.7L257.8,199.2L256.8,199.3L256.1,199.2L255.7,199.6L254.9,199.7L254.5,199.2L253.8,199.5L252.9,201.1L252.4,200.7Z" fill="#2c2c34" stroke="#474751" stroke-width="0.8"/><path d="M0,24.6L4,25.6L8.5,25.2L14.7,28.2L17.8,30.9L23.1,35.4L28.8,41.1L28.6,44.5L30,45.8L29.5,41.9L35.4,42.7L39.6,47.8L37.5,50.1L33.9,50.6L33.9,55.6L33,56.6L31,56.5L29.3,54.7L26.5,53.3L26,51L23.8,50.2L21.3,50.8L20.1,49L20.6,47L18,48.3L19,50.8L17.8,53L17.8,53L15,55.2L12.2,54.9L14.1,57.5L15.4,61.5L16.4,62.8L16.7,64.8L16.1,66L12.1,65L6,68.5L4.1,69L0.8,72.2L0,72.9L0,24.6ZM17.8,14.5L18.1,14.2L19.9,14.2L23,16.2L22.8,17.1L20.6,18.7L17.8,19.1L15.4,19.4L15,17.3Z" fill="#2c2c34" stroke="#474751" stroke-width="0.8"/><path d="M236.5,179.5L237.5,179.3L239,179.4L239,180L236.7,180.4ZM239.1,178.9L240.8,180L240.4,181.7L240,181.4L240.1,180.2L239.1,179.2ZM238.2,183.3L238.9,183.4L239.7,185.4L239.7,186.8L239.1,186.9L238.6,185.5L237.8,184.8Z" fill="#2c2c34" stroke="#474751" stroke-width="0.8"/><path d="M362.7,0L362.6,0.4L359.6,1.6L356.5,1.6L359.2,6.6L359.3,9.8L355,6.9L353.9,8.8L356.8,10.6L359.6,14.8L360.5,20.2L356.6,21.4L354.9,18.9L352.2,15.1L353,19.6L350.5,23L356.2,23.3L359.2,23.6L353.4,29.1L347.5,33.8L341.1,35.8L338.8,35.8L336.5,38.1L333.5,44L328.8,47.8L327.3,48L324.5,49.3L321.4,50.5L319.5,53.7L319.5,57.2L318.4,60.4L314.8,64.3L315.7,67.9L314.7,71.6L313.6,75.9L310.6,76.2L307.4,72.6L303,72.6L301,70.1L299.5,65.7L295.8,59.7L294.7,56.5L294.4,52L291.4,47.1L292.1,43.1L290.7,41.2L292.8,34.5L296.1,32.3L297,29.7L297.4,24.9L294.9,27.1L293.7,28L291.8,28.9L289.1,26.9L289,22.6L289.8,19.2L291.9,19.1L296.3,20.8L292.6,16.6L290.6,14.3L288.5,15.2L286.7,13.5L289.1,7L287.8,4.2L286.4,0L362.7,0Z" fill="#2c2c34" stroke="#474751" stroke-width="0.8"/><path d="M153.9,165.2L156.4,165L159.1,164.7L158.9,165.2L162.2,166.5L167.1,168.3L171.4,168.2L173.2,168.2L173.2,167.2L176.9,167.2L177.7,168.1L178.8,168.9L180.1,170L180.8,171.3L181.4,172.7L182.5,173.4L184.3,174.2L185.6,172.2L187.4,172.2L188.9,173.2L190,174.9L190.8,176.3L192,177.7L192.5,179.4L193.1,180.5L194.8,181.3L196.4,181.8L197.2,181.7L196.4,183.8L196,185.6L195.8,188.7L195.6,189.9L196,191.2L196.7,192.3L197.1,194.1L198.5,195.8L199,197.1L199.9,198.2L202.2,198.9L203.1,199.8L205,199.2L206.6,198.9L208.3,198.5L209.6,198.1L211,197.2L211.5,195.9L211.7,193.9L212.1,193.2L213.5,192.6L215.8,192.1L217.7,192.2L219.1,192L219.6,192.5L219.5,193.6L218.3,195L217.8,196.4L218.2,196.8L217.9,197.8L217.4,199.5L216.8,199L216.3,199L215.9,199L215.2,200.4L214.8,200.1L214.5,200.2L214.5,200.6L212.5,200.5L210.5,200.6L210.5,201.8L209.5,201.8L210.3,202.6L211.1,203.1L211.4,203.6L211.7,203.7L211.7,204.5L208.9,204.5L207.8,206.3L208.1,206.8L207.9,207.3L207.8,207.9L205.4,205.5L204.3,204.8L202.5,204.2L201.3,204.4L199.6,205.2L198.5,205.4L196.9,204.9L195.3,204.4L193.3,203.4L191.7,203.1L189.2,202L187.4,200.9L186.9,200.3L185.6,200.2L183.4,199.5L182.5,198.4L180.2,197.1L179.1,195.7L178.6,194.6L179.3,194.3L179.1,193.7L179.6,193.1L179.6,192.3L178.9,191.2L178.7,190.3L178,189.1L176.1,186.8L173.9,184.9L172.8,183.4L171,182.4L170.6,181.9L170.9,180.4L169.8,179.8L168.5,178.6L168,176.9L166.8,176.7L165.5,175.4L164.5,174.2L164.4,173.4L163.3,171.6L162.5,169.6L162.5,168.7L161,167.7L160.2,167.8L159,167.1L158.7,168.1L159,169.3L159.2,171.2L160,172.2L161.6,174L161.9,174.5L162.3,174.7L162.6,175.6L162.9,175.5L163.4,177.1L164,177.7L164.5,178.6L165.9,179.8L166.6,182.1L167.2,183.1L167.8,184.2L167.9,185.5L169,185.6L169.9,186.7L170.6,187.7L170.6,188.1L169.7,189L169.3,189L168.7,187.6L167.3,186.2L165.7,185.1L164.6,184.5L164.7,182.7L164.4,181.4L163.3,180.7L161.9,179.6L161.6,179.9L161,179.3L159.7,178.7L158.4,177.3L158.6,177.1L159.5,177.2L160.3,176.3L160.3,175.2L158.7,173.4L157.4,172.7L156.6,171.2L155.8,169.5L154.8,167.5Z" fill="#2c2c34" stroke="#474751" stroke-width="0.8"/><path d="M291.4,300L291.4,298.4L290.3,297L289.3,297.5L289.7,296.1L290,294.7L290,293.4L289.2,293L288.4,293.3L287.6,293.2L287.3,292.3L287.1,290.2L286.7,289.5L285.3,288.8L284.4,289.3L282.1,288.8L282.2,285.7L281.6,284.4L282.3,283.9L282.1,282.6L282.7,281.6L283.1,279.8L282.5,278.4L281.4,277.8L281.1,276.9L281.4,275.6L277.3,275.5L276.5,272.8L277.1,272.8L277.1,271.8L276.6,271.2L276.5,269.9L275.3,269.2L273.9,269.3L273,268.6L271.6,268.2L270.7,267.3L268.3,267L265.9,265L266.1,263.5L265.8,262.7L266.1,261L263.2,261.4L262.1,262.2L260.2,263.1L259.7,263.8L258.6,263.8L257,263.6L255.8,264L254.8,263.8L254.9,260.4L253.2,261.7L251.2,261.7L250.4,260.5L249,260.4L249.5,259.4L248.2,258.1L247.3,256.1L247.9,255.7L247.9,254.8L249.2,254.2L249,253L249.6,252.2L249.7,251.2L252.2,249.7L254,249.3L254.3,249L256.2,249.1L257.2,243.1L257.2,242.2L256.9,241L255.9,240.2L255.9,238.6L257.2,238.2L257.6,238.5L257.7,237.6L256.4,237.4L256.4,236.1L260.6,236.1L261.3,235.4L261.9,236L262.3,237.3L262.7,237.1L263.9,238.2L265.6,238.1L266,237.4L267.6,236.9L268.5,236.5L268.8,235.6L270.3,235L270.2,234.6L268.4,234.4L268.1,233L268.2,231.5L267.2,231L267.6,230.8L269.2,231.1L270.9,231.6L271.6,231.1L273.1,230.8L275.5,229.9L276.3,229.1L276,228.5L277.2,228.4L277.7,228.9L277.4,229.9L278.1,230.2L278.6,231.2L278,232L277.7,233.8L278.2,234.9L278.4,235.9L279.7,236.9L280.8,237L281,236.6L281.7,236.5L282.7,236.1L283.4,235.6L284.6,235.7L285.1,235.7L286.3,235.8L286.5,235.4L286.1,235L286.4,234.3L287.2,234.5L288.3,234.3L289.5,234.8L290.4,235.2L291.1,234.6L291.6,234.7L291.9,235.3L292.9,235.2L293.8,234.4L294.4,232.8L295.7,230.8L296.4,230.7L297,231.9L298.2,235.7L299.3,236L299.4,237.5L297.8,239.3L298.4,239.9L302.3,240.3L302.4,242.5L304,241L306.7,241.8L310.3,243.1L311.4,244.4L311,245.6L313.5,244.9L317.8,246.1L321,246L324.2,247.8L327,250.2L328.6,250.9L330.5,250.9L331.3,251.6L332,254.4L332.4,255.7L331.5,259.3L330.4,260.8L327.3,263.8L326,266.3L324.4,268.3L323.8,268.3L323.2,269.9L323.4,274.1L322.8,277.6L322.5,279.1L321.8,280L321.5,283.1L319.3,286.1L318.9,288.5L317.1,289.5L316.6,290.9L314.3,290.9L310.9,291.8L309.4,292.9L306.9,293.5L304.4,295.4L302.5,297.8L302.2,299.6L302.3,300L291.4,300Z" fill="#2c2c34" stroke="#474751" stroke-width="0.8"/><path d="M257,263.6L258.6,263.8L259.7,263.8L260.2,263.1L262.1,262.2L263.2,261.4L266.1,261L265.8,262.7L266.1,263.5L265.9,265L268.3,267L270.7,267.3L271.6,268.2L273,268.6L273.9,269.3L275.3,269.2L276.5,269.9L276.6,271.2L277.1,271.8L277.1,272.8L276.5,272.8L277.3,275.5L281.4,275.6L281.1,276.9L281.4,277.8L282.5,278.4L283.1,279.8L282.7,281.6L282.1,282.6L282.3,283.9L281.6,284.4L281.6,283.7L279.6,282.5L277.5,282.5L273.8,283.1L272.7,285.2L272.7,286.4L271.8,289.2L271.5,288.7L269,288.6L268.2,290.5L266.9,288.8L264,288.2L262.2,290.4L260.7,290.7L259.8,287.5L258.7,284.9L259.4,282.6L258.2,281.7L257.9,280L256.9,278.5L258.2,276L257.3,274.1L257.8,273.4L257.4,272.5L258.3,271.4L258.3,269.5L258.4,267.9L258.9,267.2Z" fill="#2c2c34" stroke="#474751" stroke-width="0.8"/><path d="M256.2,249.1L254.3,249L254,249.3L252.2,249.7L249.7,251.2L249.6,252.2L249,253L249.2,254.2L247.9,254.8L247.9,255.7L247.3,256.1L248.2,258.1L249.5,259.4L249,260.4L250.4,260.5L251.2,261.7L253.2,261.7L254.9,260.4L254.8,263.8L255.8,264L257,263.6L258.9,267.2L258.4,267.9L258.3,269.5L258.3,271.4L257.4,272.5L257.8,273.4L257.3,274.1L258.2,276L256.9,278.5L256.3,279.6L255.2,280.2L253,278.9L252.8,278L248.5,275.7L244.6,273.2L243,271.8L242.1,270L242.4,269.4L240.6,266.4L238.5,262.4L236.4,258L235.5,257L234.8,255.4L233.2,254L231.6,253.1L232.3,252.1L231.3,250L231.9,248.5L233.7,247.2L233.9,248.1L233.3,248.6L233.4,249.4L234.3,249.2L235.1,249.4L236,250.5L237.3,249.6L237.7,248.2L239,246.3L241.6,245.4L244,243.2L244.6,241.7L244.3,240.1L244.9,239.9L246.4,240.9L247,241.9L248.1,242.5L249.3,244.8L250.9,245L252.1,244.5L252.9,244.9L254.2,244.7L255.9,245.7L254.5,247.9L255.1,247.9Z" fill="#2c2c34" stroke="#474751" stroke-width="0.8"/><path d="M262.7,237.1L262.3,237.3L261.9,236L261.3,235.4L260.6,236.1L256.4,236.1L256.4,237.4L257.7,237.6L257.6,238.5L257.2,238.2L255.9,238.6L255.9,240.2L256.9,241L257.2,242.2L257.2,243.1L256.2,249.1L255.1,247.9L254.5,247.9L255.9,245.7L254.2,244.7L252.9,244.9L252.1,244.5L250.9,245L249.3,244.8L248.1,242.5L247,241.9L246.4,240.9L244.9,239.9L244.3,240.1L243.4,239.6L242.3,238.9L241.7,239.2L239.9,238.9L239.4,238L239,238L236.8,236.8L236.5,236.1L237.3,235.9L237.2,234.9L237.7,234.1L238.8,233.9L239.7,232.6L240.5,231.4L239.7,230.9L240.1,229.7L239.7,227.7L240.1,227.1L239.8,225.3L238.9,224.1L239.2,223L239.9,223.2L240.3,222.5L239.8,221.2L240.1,220.9L241.2,221L242.8,219.5L243.7,219.2L243.7,218.5L244.1,216.6L245.3,215.6L246.7,215.6L246.9,215.1L248.6,215.3L250.3,214.2L251.1,213.7L252.2,212.6L252.9,212.8L253.5,213.3L253.1,214.1L251.7,214.5L251.1,215.6L250.3,216.2L249.7,217L249.4,218.6L248.8,219.9L249.9,220L250.2,221L250.7,221.5L250.9,222.4L250.6,223.2L250.7,223.7L251.2,223.8L251.7,224.6L254.5,224.4L255.8,224.7L257.3,226.5L258.2,226.3L259.7,226.4L261,226.2L261.7,226.5L261.3,227.7L260.9,228.5L260.7,230L261.1,231.5L261.7,232.1L261.8,232.6L260.7,233.7L261.5,234.1L262.1,234.9Z" fill="#2c2c34" stroke="#474751" stroke-width="0.8"/><path d="M240.1,220.9L239.8,221.2L240.3,222.5L239.9,223.2L239.2,223L238.9,224.1L238.2,223.5L237.7,222.3L238.3,221.7L237.7,221.5L237.3,220.8L236.2,220.2L235.3,220.4L234.8,221.1L234,221.7L233.5,221.7L233.3,222.2L234.3,223.4L233.7,223.7L233.4,224L232.4,224.1L232,222.8L231.7,223.2L231,223L230.6,222.2L229.7,222L229.1,221.8L228.2,221.8L228.2,222.2L227.9,221.9L228,221.5L228.2,221L228.1,220.6L228.4,220.4L228,220L228,219.2L228.8,219L229.6,219.7L229.5,220.2L230.4,220.3L230.6,220.1L231.2,220.7L232.3,220.5L233.2,220L234.5,219.5L235.2,218.9L236.4,219L236.4,219.2L237.6,219.3L238.5,219.7L239.2,220.3Z" fill="#2c2c34" stroke="#474751" stroke-width="0.8"/><path d="M228.8,219L228,219.2L228,220L228.4,220.4L228.1,220.6L228.2,221L228,221.5L227.9,221.9L226.7,221.4L226.3,221L226.5,220.6L226.5,220.1L225.9,219.6L225,219.1L224.3,218.9L224.1,218.2L223.5,217.8L223.7,218.5L223.3,219L222.8,218.4L222.1,218.2L221.8,217.7L221.8,217L222.1,216.3L221.5,216L222,215.6L222.3,215.3L223.7,215.9L224.2,215.6L224.9,215.8L225.3,216.3L225.9,216.4L226.4,215.9L227,217.1L227.8,218Z" fill="#2c2c34" stroke="#474751" stroke-width="0.8"/><path d="M226.4,215.9L225.9,216.4L225.3,216.3L224.9,215.8L224.2,215.6L223.7,215.9L222.3,215.3L222,215.6L221.2,214.9L220.2,214L219.7,213.3L218.8,212.6L217.7,211.6L218,211.2L218.3,211.6L218.5,211.4L219.1,211.3L219.4,210.8L219.7,210.8L219.7,209.7L220.2,209.6L220.7,209.7L221.1,209.1L221.8,209.5L222,209.2L222.4,209L223.1,208.4L223.2,207.9L223.4,207.9L223.7,207.4L223.9,207.3L224.3,207.7L224.7,207.8L225.2,207.5L225.7,207.5L226.5,207.2L226.8,206.9L227.5,206.9L227.3,207.1L227.2,207.6L227.4,208.5L226.9,209.2L226.7,210.1L226.6,211.1L226.7,211.7L226.8,212.7L226.5,212.9L226.3,213.8L226.4,214.4L226,215L226.1,215.6Z" fill="#2c2c34" stroke="#474751" stroke-width="0.8"/><path d="M227.5,206.9L226.8,206.9L226.5,207.2L225.7,207.5L225.2,207.5L224.7,207.8L224.3,207.7L223.9,207.3L223.7,207.4L223.4,207.9L223.2,207.9L223.1,208.4L222.4,209L222,209.2L221.8,209.5L221.1,209.1L220.7,209.7L220.2,209.6L219.7,209.7L219.7,210.8L219.4,210.8L219.1,211.3L218.5,211.4L218.1,210.7L217.4,210.5L217.6,209.6L217.3,209.4L216.9,209.2L215.9,209.5L215.8,209.2L215.2,208.8L214.7,208.4L214.1,208.2L214.5,207.6L214.3,207.2L214.5,206.8L215.5,206.1L216.5,205.3L216.7,205.4L217.2,205L217.8,204.9L218,205.1L218.4,205L219.4,205.2L220.4,205.2L221.1,204.9L221.3,204.7L222,204.8L222.5,204.9L223.1,204.9L223.5,204.7L224.5,205L224.9,205L225.5,205.5L226.1,206L226.9,206.3Z" fill="#2c2c34" stroke="#474751" stroke-width="0.8"/><path d="M214.1,208.2L214.7,208.4L215.2,208.8L215.8,209.2L215.9,209.5L216.9,209.2L217.3,209.4L217.6,209.6L217.4,210.5L217.2,211L216,211L215.2,210.8L214.3,210.4L213.1,210.2L212.5,209.7L212.5,209.4L213.3,208.9L213.7,208.6L213.6,208.3Z" fill="#2c2c34" stroke="#474751" stroke-width="0.8"/><path d="M207.8,207.9L207.9,207.3L208.1,206.8L207.8,206.3L208.9,204.5L211.7,204.5L211.7,203.7L211.4,203.6L211.1,203.1L210.3,202.6L209.5,201.8L210.5,201.8L210.5,200.6L212.5,200.5L214.5,200.6L214.5,202.4L214.3,204.9L215,204.9L215.7,205.3L215.9,205L216.5,205.3L215.5,206.1L214.5,206.8L214.3,207.2L214.5,207.6L214.1,208.2L213.6,208.3L213.7,208.6L213.3,208.9L212.5,209.4L212.5,209.7L211.4,209.4L210,209.3L209,208.9Z" fill="#2c2c34" stroke="#474751" stroke-width="0.8"/><path d="M214.5,200.6L214.5,200.2L214.8,200.1L215.2,200.4L215.9,199L216.3,199L216.4,199.3L216.8,199.3L216.7,200L216.4,200.9L216.6,201.3L216.3,202.1L216.5,202.3L216.2,203.5L215.8,204.1L215.4,204.1L215,204.9L214.3,204.9L214.5,202.4Z" fill="#2c2c34" stroke="#474751" stroke-width="0.8"/><path d="M276,228.5L276.3,229.1L275.5,229.9L273.1,230.8L271.6,231.1L270.9,231.6L269.2,231.1L267.6,230.8L267.2,231L268.2,231.5L268.1,233L268.4,234.4L270.2,234.6L270.3,235L268.8,235.6L268.5,236.5L267.6,236.9L266,237.4L265.6,238.1L263.9,238.2L262.7,237.1L262.1,234.9L261.5,234.1L260.7,233.7L261.8,232.6L261.7,232.1L261.1,231.5L260.7,230L260.9,228.5L261.3,227.7L261.7,226.5L261,226.2L259.7,226.4L258.2,226.3L257.3,226.5L255.8,224.7L254.5,224.4L251.7,224.6L251.2,223.8L250.7,223.7L250.6,223.2L250.9,222.4L250.7,221.5L250.2,221L249.9,220L248.8,219.9L249.4,218.6L249.7,217L250.3,216.2L251.1,215.6L251.7,214.5L253.1,214.1L253,214.6L251.8,214.9L252.5,215.9L252.4,217L251.5,218.3L252.3,220L253.2,219.9L253.7,218.3L253.1,217.5L252.9,215.9L255.6,215L255.3,213.9L256.1,213.2L256.9,214.8L258.4,214.8L259.8,216.1L259.9,216.8L261.8,216.8L264.1,216.6L265.4,217.6L267,217.8L268.3,217.2L268.3,216.6L271,216.5L273.6,216.4L271.7,217.1L272.5,218.1L274.2,218.3L275.8,219.4L276.2,221.1L277.3,221.1L278.2,221.6L276.4,222.9L276.3,223.7L277,224.5L276.5,224.9L275.1,225.2L275.2,226.2L274.6,226.8Z" fill="#2c2c34" stroke="#474751" stroke-width="0.8"/><path d="M285.1,235.7L284.6,235.7L283.4,235.6L282.7,236.1L281.7,236.5L281,236.6L280.8,237L279.7,236.9L278.4,235.9L278.2,234.9L277.7,233.8L278,232L278.6,231.2L278.1,230.2L277.4,229.9L277.7,228.9L277.2,228.4L276,228.5L274.6,226.8L275.2,226.2L275.1,225.2L276.5,224.9L277,224.5L276.3,223.7L276.4,222.9L278.2,221.6L279.6,222.4L280.9,223.8L281,224.9L281.8,225L283,226.1L283.8,226.8L283.5,228.8L282.1,229.3L282.3,229.9L281.9,231L282.8,232.5L283.5,232.6L283.8,233.8Z" fill="#2c2c34" stroke="#474751" stroke-width="0.8"/><path d="M289.5,234.8L288.3,234.3L287.2,234.5L286.4,234.3L286.1,235L286.5,235.4L286.3,235.8L285.1,235.7L283.8,233.8L283.5,232.6L282.8,232.5L281.9,231L282.3,229.9L282.1,229.3L283.5,228.8L283.8,226.8L286.4,227.3L286.6,226.9L288.4,226.7L290.7,227.3L289.6,229.2L289.8,230.6L290.6,231.9L290.2,232.9L290,233.9Z" fill="#2c2c34" stroke="#474751" stroke-width="0.8"/><path d="M295.7,230.8L294.4,232.8L293.8,234.4L292.9,235.2L291.9,235.3L291.6,234.7L291.1,234.6L290.4,235.2L289.5,234.8L290,233.9L290.2,232.9L290.6,231.9L289.8,230.6L289.6,229.2L290.7,227.3L291.5,227.5L293,228L295.3,229.9ZM400,121.9L397.8,121.1L397.6,118.7L400,118.1L400,121.9Z" fill="#2c2c34" stroke="#474751" stroke-width="0.8"/><path d="M244.3,240.1L244.6,241.7L244,243.2L241.6,245.4L239,246.3L237.7,248.2L237.3,249.6L236,250.5L235.1,249.4L234.3,249.2L233.4,249.4L233.3,248.6L233.9,248.1L233.7,247.2L234.8,245.5L234.3,244.6L233.5,245.6L232.2,244.6L232.7,244L232.3,242.1L233.1,241.7L233.5,240.4L234.3,239L234.1,238.1L235.3,237.6L236.8,236.8L239,238L239.4,238L239.9,238.9L241.7,239.2L242.3,238.9L243.4,239.6Z" fill="#2c2c34" stroke="#474751" stroke-width="0.8"/><path d="M264,199L265.1,199.2L265.5,199.6L265,200.2L263.3,200.2L262.1,200.3L261.9,199.3L262.3,199Z" fill="#2c2c34" stroke="#474751" stroke-width="0.8"/><path d="M239.6,199L241,199.2L242.2,199.8L242.6,200.4L241,200.4L240.4,200.8L239.2,200.5L237.9,199.6L238.2,199.1L239.1,198.9Z" fill="#2c2c34" stroke="#474751" stroke-width="0.8"/><path d="M229.4,188.1L231.3,188.3L233,188.3L235,189.1L235.9,190L237.9,189.7L238.7,190.3L240.5,191.7L241.8,192.8L242.6,192.7L243.9,193.2L243.7,193.9L245.3,194L246.9,194.9L246.7,195.4L245.2,195.7L243.8,195.8L242.3,195.7L239.2,195.9L240.6,194.6L239.8,194L238.4,193.8L237.6,193.2L237.1,191.9L235.9,191.9L233.9,191.3L233.2,190.8L230.4,190.5L229.6,190L230.4,189.4L228.3,189.3L226.8,190.5L225.9,190.6L225.5,191.1L224.5,191.4L223.6,191.2L224.7,190.4L225.2,189.6L226.1,189.1L227.2,188.6L228.9,188.4Z" fill="#2c2c34" stroke="#474751" stroke-width="0.8"/><path d="M371.4,210.1L370.5,208.3L369.4,207.5L370.3,207.1L371.4,205.5L371.9,204.4L372.7,203.6L373.7,203.8L374.8,203.3L376,203.3L377,204L378.5,204.6L379.8,206.2L381.2,207.8L381.3,209.2L381.7,210.4L382.5,211.1L382.7,211.9L382.6,212.6L382.3,212.7L381.1,212.6L381,212.8L380.5,212.9L378.9,212.3L377.9,212.3L373.9,212.2L373.3,212.5L372.6,212.4L371.4,212.7L371.1,211L373.1,211.1L373.6,210.8L374,210.8L374.8,210.2L375.7,210.7L376.6,210.8L377.6,210.3L377.1,209.6L376.4,210L375.8,210L374.9,209.4L374.2,209.5L373.7,210Z" fill="#2c2c34" stroke="#474751" stroke-width="0.8"/><path d="M400,210.6L399.9,210.6L398.9,210.3L398.3,210.9L398,212.4L396.3,214.2L396.3,215L395.7,215.9L395.9,217.2L395,217.5L394.5,217.8L394.1,216.9L393.5,217.1L393.1,217.1L392.7,217.7L391.1,217.7L390.5,217.4L390.2,217.6L389.5,216.9L389.6,216.3L389.4,216L388.9,216.2L389,215.5L389.4,214.9L388.5,214L388.3,213.4L387.8,212.9L387.4,212.9L386.8,213.2L386.1,213.5L385.6,213.9L384.6,213.8L384,213.2L383.7,213.1L383.1,213.4L382.8,213.4L382.6,212.6L382.6,212.6L382.7,211.9L382.5,211.1L381.7,210.4L381.3,209.2L381.2,207.8L381.9,207.4L382.3,206L383,206L384.5,206.6L385.7,206.2L386.6,206.3L386.9,205.8L395.6,205.8L396.1,204.2L395.7,203.9L394.6,194.1L393.6,183.9L396.9,183.9L400,186.1L400,210.6Z" fill="#2c2c34" stroke="#474751" stroke-width="0.8"/><path d="M370.6,193.2L371.1,192.5L379.6,192.5L379.2,189.1L379.7,187.9L381.7,187.7L381.6,181.6L388.7,181.7L388.8,178L396.9,183.9L393.6,183.9L394.6,194.1L395.7,203.9L396.1,204.2L395.6,205.8L386.9,205.8L386.6,206.3L385.7,206.2L384.5,206.6L383,206L382.3,206L381.9,207.4L381.2,207.8L379.8,206.2L378.5,204.6L377,204L376,203.3L374.8,203.3L373.7,203.8L372.7,203.6L371.9,204.4L371.7,203.1L372.3,202L372.6,199.9L372.4,197.6L372.1,196.5L372.3,195.3L371.8,194.2Z" fill="#2c2c34" stroke="#474751" stroke-width="0.8"/><path d="M400,228.9L398.9,228.5L397.5,228.6L394.9,228.9L393.4,229.6L391.3,230.4L390.9,230.3L391,228.5L391.2,228.3L391.2,227.4L390.3,226.5L389.6,226.3L388.9,225.7L389.4,224.8L389.2,223.7L389.3,223.1L389.6,223.1L389.8,222.1L389.6,221.7L389.8,221.4L390.6,221.1L390.1,219.4L389.6,218.5L389.7,217.7L390.2,217.6L390.2,217.6L390.5,217.4L391.1,217.7L392.7,217.7L393.1,217.1L393.5,217.1L394.1,216.9L394.5,217.8L395,217.5L395.9,217.2L396.8,217.7L397.2,218.4L398.2,218.9L398.9,218.3L400,218.2L400,218.2L400,228.9Z" fill="#2c2c34" stroke="#474751" stroke-width="0.8"/><path d="M377.9,212.3L378.9,212.3L380.5,212.9L381,212.8L381.1,212.6L382.3,212.7L382.6,212.6L382.8,213.4L383.1,213.4L383.7,213.1L384,213.2L384.6,213.8L385.6,213.9L386.1,213.5L386.8,213.2L387.4,212.9L387.8,212.9L388.3,213.4L388.5,214L389.4,214.9L389,215.5L388.9,216.2L389.4,216L389.6,216.3L389.5,216.9L390.2,217.6L389.7,217.7L389.6,218.5L390.1,219.4L390.6,221.1L389.8,221.4L389.6,221.7L389.8,222.1L389.6,223.1L389.3,223.1L388.7,223L388.2,223.9L387.6,223.9L387.2,223.4L387.3,222.6L386.4,221.2L385.9,221.5L385.4,221.5L384.8,221.6L384.8,220.8L384.5,220.3L384.6,219.6L384.1,218.7L383.5,217.9L381.8,217.9L381.2,218.3L380.7,218.4L380.3,218.8L380,219.5L378.9,220.4L377.9,219.1L377.1,218.3L376.5,218L376,217.5L375.7,216.6L375.4,216.1L374.8,215.7L375.8,214.6L376.4,214.7L377,214.3L377.5,214.3L377.8,214L377.6,213.3L377.9,213Z" fill="#2c2c34" stroke="#474751" stroke-width="0.8"/><path d="M371.4,212.7L372.6,212.4L373.3,212.5L373.9,212.2L377.9,212.3L377.9,213L377.6,213.3L377.8,214L377.5,214.3L377,214.3L376.4,214.7L375.8,214.6L374.8,215.7L373.6,214.8L372.7,214.6L372.2,214L372.2,213.7L371.6,213.2Z" fill="#2c2c34" stroke="#474751" stroke-width="0.8"/><path d="M389.3,223.1L389.2,223.7L389.4,224.8L388.9,225.7L389.6,226.3L390.3,226.5L391.2,227.4L391.2,228.3L391,228.5L390.9,230.3L390.3,230.3L388.1,229.3L386.1,227.6L384.2,226.5L382.8,225L383.3,224.3L383.4,223.7L384.4,222.5L385.4,221.5L385.9,221.5L386.4,221.2L387.3,222.6L387.2,223.4L387.6,223.9L388.2,223.9L388.7,223Z" fill="#2c2c34" stroke="#474751" stroke-width="0.8"/><path d="M378.9,220.4L380,219.5L380.3,218.8L380.7,218.4L381.2,218.3L381.8,217.9L383.5,217.9L384.1,218.7L384.6,219.6L384.5,220.3L384.8,220.8L384.8,221.6L385.4,221.5L384.4,222.5L383.4,223.7L383.3,224.3L382.8,225L382.2,224.9L380.6,224L379.5,222.8L379.1,222Z" fill="#2c2c34" stroke="#474751" stroke-width="0.8"/><path d="M400,218.2L400,218.2L398.9,218.3L398.2,218.9L397.2,218.4L396.8,217.7L395.9,217.2L395.9,217.2L395.7,215.9L396.3,215L396.3,214.2L398,212.4L398.3,210.9L398.9,210.3L399.9,210.6L400,210.6L400,218.2Z" fill="#2c2c34" stroke="#474751" stroke-width="0.8"/><path d="M371.4,210.1L373.7,210L374.2,209.5L374.9,209.4L375.8,210L376.4,210L377.1,209.6L377.6,210.3L376.6,210.8L375.7,210.7L374.8,210.2L374,210.8L373.6,210.8L373.1,211.1L371.1,211Z" fill="#2c2c34" stroke="#474751" stroke-width="0.8"/><path d="M400,186.1L396.9,183.9L388.8,178L388.8,178L388.8,177.6L388.8,177.4L388.8,174.5L392.3,172.7L394.4,172.3L396.2,171.6L397,170.4L399.6,169.4L399.7,167.5L400,167.4L400,186.1Z" fill="#2c2c34" stroke="#474751" stroke-width="0.8"/><path d="M388,139.7L388.8,139L389.7,138.6L390.2,140L391.5,140L391.9,139.6L393.1,139.7L393.7,141.2L392.7,141.9L392.7,144.2L392.3,144.6L392.3,145.9L391.3,146.2L392.2,147.8L391.6,149.7L392.3,150.5L392,151.2L391.2,152.3L391.4,153.2L390.5,153.9L389.4,153.5L388.3,153.8L388.6,151.6L388.4,150L387.5,149.7L386.9,148.7L387.1,146.8L388,145.8L388.1,144.7L388.6,143L388.5,141.7L388.1,140.7Z" fill="#2c2c34" stroke="#474751" stroke-width="0.8"/><path d="M400,154.3L398.1,154.3L396.7,155.2L395.9,156.3L394.9,156L394.1,155.1L393.4,153.6L391.4,153.2L391.4,153.2L391.2,152.3L392,151.2L392.3,150.5L391.6,149.7L392.2,147.8L391.3,146.2L392.3,145.9L392.3,144.6L392.7,144.2L392.7,141.9L393.7,141.2L393.1,139.7L391.9,139.6L391.5,140L390.2,140L389.7,138.6L388.8,139L388,139.7L388.1,137.6L387.2,136.4L390.3,134.2L392.9,134.7L395.8,134.7L398.1,135.2L399.9,135.1L400,135.1L400,154.3Z" fill="#2c2c34" stroke="#474751" stroke-width="0.8"/><path d="M394.1,100.8L394.5,103.4L392.9,106.6L389,108.6L386,108.1L387.7,104.4L386.6,100.7L389.5,97.8L391.2,96.1L391.6,98.1L391.2,100.1L392.5,100Z" fill="#2c2c34" stroke="#474751" stroke-width="0.8"/><path d="M394.1,100.8L392.5,100L391.2,100.1L391.6,98.1L391.2,96.1L393,95.9L395.3,98.2ZM400,98.5L399.7,98.1L399.7,98L397.1,97.4L396.6,96.3L397.3,94.6L396.6,93.6L395.5,95.4L395.3,91.7L394.2,89.7L395,85.5L396.7,82.2L398.4,82.5L400,82.3L400,84.2L400,84.2L398.7,86.6L400,86.3L400,98.5ZM400,113.3L399.7,113.6L397.7,113.2L396.2,114.5L395.1,113.8L398.2,110.2L400,109.6L400,113.3ZM400,109.5L396.8,108.9L396.2,107.5L398.4,106.4L397.2,104.5L397.6,102.1L400,102.4L400,109.5Z" fill="#2c2c34" stroke="#474751" stroke-width="0.8"/><path d="M376.1,45.2L375.6,48.7L378.1,52.2L375.3,56.1L369,59.5L367.2,60.4L364.3,59.6L358.3,58.1L360.4,55.9L355.7,53.4L359.5,52.4L359.4,50.9L354.9,49.7L356.3,46.2L359.6,45.4L363,49.1L366.3,46.2L369,47.7L372.5,44.8Z" fill="#2c2c34" stroke="#474751" stroke-width="0.8"/><path d="M281.1,300L282.8,297.2L282.4,296.1L280.2,295.2L277.6,293.4L275.8,293.1L271.8,289.2L272.7,286.4L272.7,285.2L273.8,283.1L277.5,282.5L279.6,282.5L281.6,283.7L281.6,284.4L281.6,284.4L282.2,285.7L282.1,288.8L284.4,289.3L285.3,288.8L286.7,289.5L287.1,290.2L287.3,292.3L287.6,293.2L288.4,293.3L289.2,293L290,293.4L290,294.7L289.7,296.1L289.3,297.5L288.9,299.6L288.5,300L281.1,300Z" fill="#2c2c34" stroke="#474751" stroke-width="0.8"/><path d="M400,167.4L399.7,167.5L399.6,169.4L397,170.4L396.2,171.6L394.4,172.3L392.3,172.7L388.8,174.5L388.8,177.4L388.5,177.4L388.5,178.7L387.2,178.8L386.5,179.3L385.5,179.3L384.7,179L382.9,179.3L382.2,181.2L381.5,181.4L380.5,184.4L377.5,186.9L376.8,190.2L375.9,191.2L375.6,192.1L370.7,192.3L370.7,192.3L370.8,191.2L371.6,190.5L372.3,189.3L372.2,188.5L373,186.9L374.2,185.4L374.9,185L375.5,183.6L375.5,182.3L376.3,180.8L377.7,179.9L379.1,177.5L379.2,177.4L380.2,176.5L382.3,176.2L384,174.5L385,173.9L386.9,171.8L386.3,168.7L387.1,166.5L387.4,165.1L388.8,163.4L391,162.2L392.6,161.1L394,158.4L394.7,156.8L396.3,156.8L397.6,157.9L399.7,157.7L400,157.8L400,167.4Z" fill="#2c2c34" stroke="#474751" stroke-width="0.8"/><path d="M274,216.3L275.2,216L275.7,216.1L275.6,217.8L273.8,218L273.4,217.8L274,217.2Z" fill="#2c2c34" stroke="#474751" stroke-width="0.8"/><path d="M120.1,90.7L120.1,90.7L119.8,90.7L119.7,90.7L119.7,90.5L119.7,90.4L119.7,90.2L119.8,90L119.9,89.6L120.3,90.1L120.4,90.3L120.5,90.5L120.3,90.6L120.2,90.6ZM120,91.8L119.9,91.8L119.8,91.7L119.5,91.4L119.5,91.3L119.5,91.2L119.7,91L119.8,91L120.2,91L120.3,91L120.3,91.1L120.3,91.2L120.3,91.3L120.3,91.4L120.3,91.5L120.3,91.6ZM116.7,83.8L116.7,84L116.4,83.9L116.1,83.8L116,83.6L116,83.5L116.3,83.4L116.5,83.6ZM93.3,74.9L93.2,75L93,75L92.9,74.9L93.3,74.6L93.3,74.7ZM94.5,77.2L94.4,77.2L94.6,76.9L94.8,76.6L95,76.4L95.2,76.3L95.2,76.5L94.9,76.7ZM87,76.1L86.9,76.2L86.5,76.1L86.6,75.9L86.9,75.7L87.3,76ZM78.4,74.8L78.3,74.8L78.4,74.6L78.5,74.2L78.6,74.2L78.6,74.3L78.4,74.7ZM60.4,95.3L60.3,95.6L60,95.4L60,95.3L60,95.2L60.3,95.2ZM62.5,96.7L62.4,96.7L62.3,96.6L62.3,96.4L62.2,96.3L62.4,96.4L62.5,96.6ZM62.1,96L62.1,96.3L62.1,96.3L62,96.3L61.9,96.3L61.8,96.3L61.9,96.2L61.9,96.1L62,96.1L62,95.9L62,95.9L62,95.7L62.1,95.7ZM47.6,101.3L47.6,101.3L47.6,101.2L47.5,101.1L47.6,101.1L47.7,100.9L47.8,100.9L47.8,100.9L47.9,100.9L47.8,101.1L47.7,101.2ZM26.4,108.2L26.2,108.2L26,108.1L26,107.9L26.3,108ZM47.8,46.4L47.8,46.5L47.8,46.4L48,46.2L48.5,45.9L48.5,45.9L48.2,46.2ZM36.3,59.7L36.3,59.8L36.5,59.8L36.8,59.8L37.2,59.9L37.5,59.9L38,59.5L38.2,59.4L38.5,59.4L38.8,59.5L39.1,59.7L39.2,59.8L39.2,60L39.3,60.2L39.4,60.4L39.9,60.6L40.2,60.7L40.3,60.8L40.4,61L40.7,61.1L41,61L41.1,61.1L41.6,61.1L42.2,61.3L42.1,61.7L41.9,61.9L41.4,61.9L40.8,61.9L40.6,62.2L40.4,62.5L40.4,62.8L40.2,62.9L40.1,63L40,62.8L39.9,62.3L39.8,62.2L39.7,62.1L39.5,61.9L39.2,61.8L39,61.8L38.9,61.6L38.8,61.4L38.7,61.3L38.5,61.1L38.3,60.9L37.6,60.6L37.4,60.6L37.1,60.6L36.9,60.7L36.6,61L36.4,61.1L36.1,61.2L35.9,61.1L35.7,60.9L35.5,60.7L35.5,60.4L35.5,60.2L35.5,60L35.6,59.4L35.9,59.2ZM47.8,74.7L48,74.9L48.1,74.9L48.4,74.9L48.6,74.9L48.7,75L48.7,75.1L48.8,75.4L48.7,75.6L48.7,75.9L48.7,76.1L48.9,76.3L48.9,76.5L49,76.7L48.6,76.8L48.2,76.9L47.9,77L47.8,77.2L47.9,77.3L47.8,77.4L47.7,77.4L47.5,77.2L47.3,77.1L46.7,77L46,76.4L45.6,76.3L45.3,76L45,75.5L45.2,75.4L45.4,75.4L46.3,75.4L46.4,75.1L46.5,75L46.8,74.9L47.1,74.7L47.2,74.7L47.3,74.8L47.6,74.7L47.7,74.6ZM76.5,85.5L76.5,85.7L76.6,85.7L76.9,85.5L77.1,85.4L77.3,85.4L77.5,85.5L77.5,85.6L77.5,85.7L77.4,85.9L77.4,86L77.5,86.2L77.9,86.3L77.9,86.4L77.9,86.5L77.7,86.9L77.6,87L77.5,87L77,86.9L76.6,86.8L76.4,86.8L76.4,86.8L76.2,86.9L76.3,87L76.7,87L76.8,87.2L76.9,87.3L76.9,87.4L76.9,87.5L76.7,87.5L76.5,87.5L76.3,87.7L76.1,87.9L75.6,87.9L75.3,88.1L75.1,88.3L75.1,88.4L75,88.5L74.6,88.6L74.8,88.7L74.9,88.8L74.9,88.9L74.8,89L74.6,89.4L74.1,89.7L74,89.7L74,89.7L73.9,89.6L73.9,89.5L74.5,88.9L74.5,88.8L74.3,88.8L74.1,88.6L73.9,88.7L73.9,88.7L73.9,88.6L74,88.4L74,88.3L73.9,88.3L73.8,88.3L73.5,88.2L73.4,88.3L73.3,88.4L73.2,88.4L73.5,88.4L73.6,88.5L73.6,88.6L73.7,88.7L73.7,88.8L73.6,89L73.5,89.2L73.3,89.1L73,88.7L72.8,88L72.5,87.5L72.5,87.3L72.6,87L72.9,86.6L73.2,86.4L73.5,86.3L73.7,86.2L73.8,86.2L74,86.3L74.1,86.5L74,86.5L74.1,86.6L74.2,86.7L74.3,87.1L74.5,87.4L74.6,87.5L74.8,87.6L74.6,87.3L74.5,87L74.5,86.4L74.4,86.3L74.5,86.2L74.7,86.2L74.7,86.2L74.5,85.9L74.3,85.8L74.3,85.6L74.3,85.5L74.4,85.3L74.5,85.3L74.6,85.3L74.7,85.3L74.8,85.4L75,85.8L75.1,85.9L75.2,85.9L75.3,85.8L75.3,85.7L75.4,85.6L75.5,85.6L75.7,85.6L75.8,85.6L75.8,85.5L75.8,85.3L75.9,85.3L75.9,85.2L75.7,85L75.9,84.9L76.4,85L76.6,85.2ZM126,93.2L125.9,93.4L125.8,93.6L125.8,93.8L125.7,94.1L125.7,94.3L125.8,94.6L125.9,95L126,95.3L126,95.4L125.7,96L125.6,96.3L125.6,96.5L125.4,96.8L125,97.2L124.8,97.4L124.7,97.4L124.2,97.3L124,96.8L123.9,96.3L123.8,96L123.8,95.9L123.9,95.6L124.4,95.4L124.4,95.4L124.2,95.3L124.2,95.2L124.1,94.8L124.2,94.5L124.1,94.2L124.1,93.8L123.9,93.5L123.6,92.9L123.6,92.8L123.7,92.6L123.8,92.4L123.3,92.7L122.5,93L122.2,93.2L122.1,93.3L122.1,93.4L122.2,93.6L122.1,93.6L122.1,93.8L122,94.1L121.8,94.5L121.8,94.5L121.5,94.4L121.4,94.3L121.2,93.8L121.3,93.7L121.4,93.6L121.5,93.4L121.7,93L122.1,92.1L122.3,92.1L122.7,91.9L122,91.8L122,91.8L121.9,91.7L121.8,91.5L121.7,91.3L121.4,91.2L121.3,91.1L121.2,90.8L121.1,90.7L121,90.6L121,90.4L120.9,90.3L120.8,90.3L120.7,90.2L120.7,89.7L120.3,89.6L120.2,89.5L120,89.2L119.9,89.1L119.9,89L120,88.7L119.9,88.6L119.7,88.6L118.5,88.1L118.6,87.5L118.4,86.6L118.1,86.2L118.2,86.1L118.2,86L118.3,86L118.8,86.3L119.2,86.6L119.3,86.5L118.6,85.9L118.4,85.7L118.4,85.5L118.4,85.3L118.4,85.3L119.1,85.3L119.1,85.3L118.5,85.1L118.3,85.1L118.2,85.4L118.1,85.4L118,85.4L117.9,85.4L117.8,85L117.6,84.8L117.3,84.5L117.3,84.3L117.2,83.9L117.3,83.6L117.5,82.9L117.6,82.7L117.7,82.7L117.6,82.7L117.5,82.7L117.3,83.1L117.1,83.6L116.9,83.8L116.8,83.8L116.7,83.6L116.3,83.3L115.9,83.2L115.7,82.9L115.3,82.1L115.3,81.7L115.3,81.6L115.1,81.5L114.9,81.3L114.7,80.3L114.5,79.6L114.4,79.3L114.5,78.9L114.4,78.9L114.3,79.1L114.3,79.3L114.2,79.3L114.3,79.6L114.4,79.8L114.3,79.8L114.1,79.8L114.4,80.3L114.5,81L114.7,81.6L114.8,82L114.8,82.4L114.9,82.7L115.1,83.4L115.1,83.5L115.1,83.6L115,83.8L114.9,83.8L114.6,83.7L114.4,83.6L114.2,83.2L114,83.1L113.3,83.2L113.3,83.1L113.3,82.9L113.4,82.4L113.3,82.2L113,81.5L113,81.4L113.4,81.1L113.2,81L113,81.2L112.9,81.1L112.8,80.6L112.8,80.5L112.7,80.4L112.7,80.9L112.8,81.1L112.8,81.2L112.8,81.4L112.7,81.5L112.6,81.6L112.6,81.6L112.4,81.5L112.2,81.4L112.1,81.3L112,81.2L111.9,81L111.8,80.9L111.3,80.7L110.9,80.5L110.9,80.6L111,80.8L111,80.9L110.9,81L110.8,81.2L110.8,81.2L111,81.1L111.2,81.1L111.5,81.3L111.7,81.4L111.8,81.5L111.9,81.7L111.9,81.7L112.2,81.9L112.2,82L112,82.2L112.4,82.2L112.6,82.3L112.8,82.7L112.9,82.9L112.9,83.2L112.9,83.3L112.8,83.3L112.1,83.4L111.8,83.8L111.7,83.8L111.5,83.7L111.2,83.4L110.7,83.2L109.7,82.4L109.7,82.4L109.7,82.2L109.6,82.1L109.5,82.1L109.3,81.9L109,81.5L108.9,81.3L108.8,81.1L108.7,80.9L108.2,80.4L108,80.3L107.7,80.2L107.6,80.2L107.5,80.1L107.6,80L107.6,79.9L107.2,79.8L106.8,79.6L105.8,79.1L105.3,78.7L105,78.5L104.9,78.4L104.8,78.3L104.9,78.2L105.1,78.2L105.2,78.1L105.4,77.7L105.5,77.6L105.4,77.3L105.3,77L105.3,76.9L105.3,76.8L105.4,76.7L105.4,76.6L105.5,76.5L105.6,76.6L105.8,76.9L105.9,77L105.9,77.5L105.9,78L106,78L106,77.8L106,77.5L106,77.3L106.1,77.2L106.2,77.1L106.4,77.1L106.6,77.1L106,76.8L105.7,76.4L105.6,76.3L105.4,76.3L105.2,76.5L104.7,77.1L104.6,77.2L103.9,77.6L103.5,77.6L103,77.6L102.6,77.5L101.5,76.9L101.3,76.8L101.6,76.5L101.6,76.4L101.5,76L101.4,75.9L101.3,75.9L101.3,75.9L101.3,76L101.3,76.2L101.3,76.3L101.1,76.4L100.8,76.5L99.8,76.2L98.9,76L98,75.9L96.8,76.1L96.2,76.3L95.8,76.3L95.4,76.3L95.4,76.2L95.5,76.1L95.5,76L95.3,75.7L95,75.5L94.6,75.5L94.3,75.4L94.3,75.3L94.1,75.2L93.9,75.1L93.8,74.9L93.9,74.4L93.9,74L94,73.8L94.2,73.4L94.2,73.5L93.9,73.7L93.6,74L93.4,74.4L93.2,74.6L93,74.7L92.7,74.7L92.3,74.4L92,74.3L91.7,74.3L91.6,74.3L91.8,74.1L91.9,73.9L92.1,73.7L92.1,73.5L91.1,73.5L91,73.3L91,73.2L91,73.2L90.9,73.1L90.6,73.1L90.3,73.3L90.2,73.2L90.2,73.1L90.3,73.1L90.5,72.8L90.2,72.7L90.1,72.6L90,72.4L90,72L90.1,71.7L90.8,71.5L90.6,71.4L90.1,71.4L89.8,71.6L89.5,72L89.3,72.1L89.2,72L89,72L88.8,72L88.7,72.1L88.6,72.2L88.5,72.3L88.4,72.4L88.4,72.3L88.3,72.2L88.1,72.1L88,72L87.9,72.1L87.9,72.3L87.8,72.4L87.5,72.5L87.3,72.5L87.1,72.2L87.1,72.1L87.1,71.9L87.6,71L87.6,71L87.4,71.1L87.1,71.5L87,71.6L86.7,71.6L86.6,71.6L86.5,71.6L86.3,71.7L86.2,71.8L86.2,71.9L86.2,71.9L86.4,71.8L86.6,71.8L86.6,71.8L86.4,72.2L86.3,72.6L86.2,72.7L86,72.7L85.9,72.7L85.9,72.9L86.2,73.2L86.3,73.2L86.5,73.3L86.5,73.4L86.5,73.7L86.4,73.8L86.3,73.9L86.1,73.9L86,73.9L85.8,74.1L85.7,74.2L85.7,74.3L85.9,74.1L86.1,74.1L86.4,74.1L86.7,74L86.8,73.9L87,73.9L87.1,74.1L87.1,74.3L87.1,74.4L87,74.5L86.8,74.6L86.7,74.7L86.6,74.8L86.6,75L86.6,75.2L86.6,75.6L86.6,75.7L86.5,75.7L86.4,75.7L86.3,75.8L86.1,76.4L86.1,76.5L86,76.4L85.9,76.4L85.8,76.5L85.7,76.6L85.4,76.6L85.2,76.6L84.9,76.5L84.8,76.4L84.6,76.2L84.3,76.4L84.2,76.3L84,75.9L84,75.9L84,76.4L83.9,76.5L83.7,76.8L83.6,77.4L83.6,77.4L83.5,77.3L83.4,76.8L83.4,76.7L83.2,77L83.2,77.1L83.2,77.5L83.2,77.5L82.8,77.3L82.7,77.3L82.7,77.3L82.8,77.6L82.8,77.7L82.3,78.2L82.2,78.2L82.1,78.2L82,78.2L81.7,78.4L81.6,78.4L81.5,78.2L81.4,78.3L81.4,78.4L81.4,78.6L81.3,78.8L80.9,79.2L80.8,79.4L80.7,79.6L80.7,79.6L80.4,79.5L80.2,79.4L80.1,79.4L80.2,79.6L80.2,79.6L80.1,79.7L80,79.7L79.8,79.6L79.5,79.7L79.2,79.8L79,79.8L78.6,79.5L78.5,79.5L78.5,79.4L78.6,79.2L78.7,79L78.7,78.9L79.1,78.7L79.5,78.6L79.7,78.5L80,78.2L80.2,77.9L80.5,77.4L80.4,77.3L80.4,77.3L79.7,77.8L79.6,77.9L79.5,77.9L78.9,77.7L78.8,77.6L78.7,77.3L78.9,76.7L79,76.4L79.2,76L79.6,75.5L79.7,75.2L79.9,74.3L79.9,74L79.8,73.5L79.8,73.2L79.9,73.1L80.7,72.7L81.1,72.4L81.8,71.9L82,71.9L82.1,72L82.3,72.2L82.5,72.3L82.7,72.3L83,72.1L83.5,72.2L84.5,72.5L84.7,72.5L84.7,72.5L84.6,72.3L83.9,72.1L83.6,72L82.8,71.4L82.6,71.2L82.7,71.1L82.9,71L83,70.9L83,70.8L83.1,70.6L83.3,70.3L83.6,70.1L84.2,69.7L84,69.7L83.5,69.8L83.4,69.9L83.1,70.1L83,70.3L82.9,70.7L82.8,70.7L82.5,70.8L81.7,70.8L81.6,70.6L81.5,70.6L81.4,70.6L80.7,71.1L80.4,71.3L80.2,71.6L80,71.8L79.6,71.9L79.3,72.1L79,72.4L78.9,72.6L78.9,72.7L78.9,73.1L78.9,73.1L78.7,73.2L78.4,73.4L77.8,74.1L77.7,74.3L77.7,74.4L77.8,74.6L77.8,74.7L77.6,74.9L77.2,75.2L77,75.3L76.8,75.3L76.7,75.3L76.4,75.1L76.2,75.1L76.2,75.1L76.5,75.3L76.8,75.6L77,75.8L77,76L77,76.2L77,76.4L76.8,76.7L76.6,76.8L76,76.9L75.8,77L75.8,77.1L76.2,77.2L76.2,77.3L76.1,77.5L76,77.6L75.7,77.8L75.5,77.8L75.4,77.8L75.5,77.6L75.4,77.5L75.3,77.5L75.2,77.6L74.8,77.9L74.8,77.9L74.9,78L74.9,78.1L74.7,78.3L74.6,78.5L74.5,78.6L73.9,79.1L73.9,79.2L73.8,79.6L73.7,80L73.8,80.1L74.3,80.3L74.5,80.4L74.8,80.5L75.3,80.8L75.5,81L75.5,81.1L75.5,81.2L75.5,81.4L75.3,81.7L74.9,82.1L74.7,82.2L74.5,82.3L74.4,82.4L74,82.8L73.9,83L74,83.2L73.9,83.3L73.4,83.5L73.5,83.6L73.6,83.6L73.6,83.8L73.5,84.1L73.5,84.2L73.2,84.2L72.8,84.3L72.8,84.3L72.8,84.6L71.9,84.7L71.7,85.1L71.6,85.3L71.2,85.6L71,85.7L70.8,85.8L70.6,85.9L70.6,86L70.5,86.1L70.3,86.3L70.2,86.5L70.1,86.6L69.7,86.6L69.7,86.7L69.6,87L69.6,87L69.4,87L69.2,87L68.8,87.4L68.7,87.5L68.7,87.6L68.8,87.6L68.9,87.9L68.9,88L68.7,88.4L68.7,88.5L68.5,88.6L68.4,88.8L68.2,88.8L68.1,88.8L68,88.9L67.9,89L67.7,89L67.6,89.2L67.4,89.4L67.3,89.5L67.1,89.6L67,89.6L66.9,89.5L66.7,89.6L66.6,89.6L66.5,89.8L66.4,90.1L66.3,90.3L66.3,90.3L66.1,90.3L65.9,90.2L65.7,90.2L65.3,90.4L65.2,90.6L65.5,90.6L65.6,90.7L65.6,90.7L65.5,90.8L65.3,90.7L65.1,90.8L65,90.9L64.6,91L64.5,91L64.2,91.4L64.2,91.5L64.2,91.5L64.4,91.5L64.6,91.6L64.7,91.7L64.7,91.8L64.8,91.9L64.8,92L64.5,92.3L64.4,92.4L64.3,92.5L64.3,92.5L64.2,92.1L64.2,92L64.1,92L64.1,92.1L63.9,92.6L63.7,92.8L62.3,93.3L62.1,93.5L62.1,93.7L62,93.9L61.9,94.1L61.8,94.2L61.8,94.1L61.8,93.5L61.8,93.4L61.6,93.3L61.6,93.4L61.5,93.4L61.3,93.5L61.3,93.5L61.2,93.5L61,93.7L60.6,94L60.3,94.1L60.2,94.2L60.1,94.4L60,94.5L59.9,94.5L59.7,94.5L59.6,94.5L59.5,94.7L59.4,94.7L59.1,94.6L59,94.7L58.9,94.9L58.7,95L58.5,95.1L58.1,95.2L57.9,95.1L57.9,95.1L57.9,94.8L58,94.6L58,94.5L58.1,94.4L58.2,94.4L58.5,94.5L58.4,94.4L58.4,94.4L58.1,94.2L57.9,94.2L57.8,94.2L57.6,94.3L57.5,94.4L57.4,94.5L57.4,95L57.3,95.1L56.8,95.8L56.6,96L56.4,96L56.3,96.1L56.2,96.3L56,96.4L55.9,96.4L55.8,96.3L55.8,96.3L55.8,96.2L55.9,96.2L55.8,96L55.7,95.8L55.6,95.6L55.4,95.6L55.4,95.7L55.4,96.3L55.4,96.4L55.3,96.6L55,96.8L54.9,96.7L54.6,96.4L54.3,96.3L54.3,96.4L54.4,96.7L54.3,96.9L54.1,97.1L54,97.2L53.9,97.2L53.9,97L53.9,96.8L54,96.5L53.9,96.3L53.9,96.2L54,96.1L54.3,95.8L54.5,95.8L54.6,95.9L54.7,95.9L54.8,95.8L54.9,95.7L54.9,95.6L55.1,95.4L55.3,95.2L55.6,94.9L56,94.3L56.4,93.8L56.9,93.4L57.4,93.1L58.4,92.7L58.5,92.7L58.4,92.8L58.5,92.9L58.6,92.9L59,92.9L59.1,92.8L59.2,92.9L59.1,93L58.9,93.1L58.9,93.2L59.2,93.6L59.3,93.7L59.4,93.7L59.5,93.6L59.4,93.3L59.5,93.2L59.8,93.2L59.9,93.3L60,93.4L60.1,93.4L60.3,93.5L60.4,93.5L60.5,93.4L60.4,93.3L60,93L59.9,92.9L59.9,92.7L60,92.5L60.1,92.2L60.3,91.8L60.4,91.5L60.8,91.2L61,91L61.5,90.5L62.6,90.1L62.9,89.7L63.3,89.4L63.4,89.3L63.4,89.4L63.5,89.5L63.7,89.6L63.9,89.7L64,89.6L64,89.5L63.9,89.3L63.9,89L63.9,88.8L64,88.7L64.1,88.4L64.4,88L64.7,87.6L64.9,87.4L65.1,87.3L65.3,87.2L65.6,86.8L65.7,86.7L66,86.6L66.1,86.7L66.1,86.8L66.2,86.8L66.4,86.9L66.6,86.8L66.5,86.7L66.4,86.7L66.3,86.7L66.3,86.4L66.1,86.3L66.1,86.1L66.1,85.8L66.2,85.2L66.3,84.6L66.4,84.2L66.6,84.1L67.2,84L66.8,83.8L66.7,83.8L66.5,83.7L66.4,83.3L66.4,83.1L66.6,82.7L67.1,82.1L67.6,81.7L67.6,81.7L67.5,81.6L67.7,80.8L68,80.1L67.7,80.7L67.3,81.2L66.1,81.7L65.4,82.1L65,82.2L64.8,82.1L64.6,81.7L64.5,81.5L64.3,81.3L64.4,80.9L64.5,80.6L64.7,80.6L65,80.7L65.2,80.7L64.9,80.5L64.5,80.3L64.3,80.3L64.1,80.7L63.9,80.9L63.8,80.9L63.7,80.7L63.7,81L63.6,81.5L63.5,81.8L63.7,82.6L63.7,83L63.4,83.1L63.1,82.9L62.5,81.8L62.3,81.5L61.8,81L61.6,81.1L61.4,81.3L61.3,81.4L60.7,81L60.5,80.8L60.3,80.4L60,80.6L59.7,80.8L59.3,81.2L59.1,81.2L58.4,81.5L58.4,81.5L58.3,81.6L58.2,81.7L58.1,82L57.3,82.3L56.4,82.1L56.7,82L57.1,81.8L57.4,81.5L57.2,81.1L57.2,80.9L57.2,80.6L57.5,80.2L57.2,80.2L57,80.3L56.8,80L56.7,79.4L56.9,79.1L57,78.8L57.1,78.5L57.1,78.1L56.9,77.6L56.5,76.5L56.2,75.6L55.8,75.1L56.1,74.4L56.4,73.7L56.9,73.4L56.8,73.3L56.6,73.3L56.5,73.4L56.3,73.6L56.2,73.8L55.7,74.7L55.4,75.1L55.3,75.2L55.6,75.4L55.6,75.5L55.7,75.8L55.6,76.2L55.5,76.4L55.2,76.4L54.8,76.7L54.1,77L53.1,77.2L52.6,77.2L52.1,76.8L52.1,76.6L52.1,76.4L51.4,75.7L51,75L50.7,75L50.4,74.9L50.1,74.6L50.1,74.3L50.2,74.2L50,74.1L49.8,74.1L49.5,74L50.2,73.1L50.5,72.5L50.7,72.5L50.9,72.5L51.3,72.8L51.6,72.9L51.7,73L51.8,73.2L51.7,73.5L51.6,73.8L51.7,73.7L52.1,73.3L52.4,73L52.6,73L52.6,73.1L52.8,73.4L53,73.8L53.4,73.5L53.7,73.1L53.5,72.9L53.2,72.8L52.6,72.6L52.8,72.5L53.2,72.5L53.3,72.4L53.2,72.3L53,72.1L52.4,72.6L51.5,72.6L50.8,72.3L50.1,72.3L50,72.3L49.9,72.1L50.3,71.8L50.5,71.6L50.5,71.5L50.4,71.5L50.1,71.6L50,71.4L50,71.1L49.9,71.1L49.8,71.3L49.6,71.2L49.5,71.1L49.6,71L49.7,70.8L49.7,70.7L49.5,70.8L49.4,71L49.4,71.2L49.4,71.5L49.2,71.6L49,71.5L48.9,71.2L48.8,70.6L48.4,70.5L48.3,70.2L48.5,69.8L48.4,69.6L48.2,69.5L47.9,69.7L47.8,69.5L47.7,69.3L47.7,69L47.8,69L47.9,69.1L48.4,68.9L48.5,68.8L48,68.6L47.9,68.3L48.1,68.2L48.4,68.2L48.9,68L48.7,67.8L48.7,67.6L48.6,67.4L48.7,67L49.3,66L49.8,65.2L50,65.1L50.3,65L50.5,65L50.7,65.2L50.8,65.1L50.7,65.1L50.6,64.7L50.9,64.6L51.1,64.2L51.1,64.1L50.9,64.3L50.7,64.5L50.6,64.3L50.6,63.7L50.7,63.1L50.8,62.9L51,62.6L51.5,62.6L51.6,62.6L51.6,62.5L51.3,62.1L51.4,61.9L51.5,61.7L52.2,61.5L52.5,61.6L53,61.8L53.2,62.1L53.2,62.3L53.1,62.4L53,62.5L53,62.6L53,62.7L53.2,62.5L53.5,62.2L53.7,62.3L53.8,62.5L54,62.5L54.5,62.4L54.7,62.2L55,61.8L55.4,61.5L56,60.6L56.1,60.2L56.3,60.1L56.5,60.2L56.6,60.5L56.8,60.6L57.8,60.5L58.3,60.4L58.7,60.1L59.1,59.6L59.3,59.2L59.4,58.8L59.3,58.2L59.1,57.7L58.9,56.6L58.4,55.9L58.1,55.7L57.8,55.7L58,55.3L58.5,55.3L58.8,55.2L59.1,55L59.1,54.8L59.3,54.5L59.2,54.1L59.2,53.9L59,53.7L58.8,53.3L58.6,53.2L58.5,53.3L57.9,53.9L57.5,53.9L57.3,53.8L57,54.2L56.4,54.5L56,54.8L55.4,55.6L55.2,56L55,56L54.9,55.3L54.1,54.6L53.9,54.9L54,55.1L54.2,55.2L54.5,55.3L54.4,55.5L54.3,55.8L54,55.5L53.5,55.1L53,55L51.8,55L50.9,55.4L50.8,55.3L50.8,55.3L50.6,55.3L50.6,55.5L50.5,55.6L50.3,55.6L50,55.6L49.3,55.3L47.8,55L47.4,54.8L47,54.3L47.1,53.9L47.2,53.7L47.2,53.2L46.9,53.1L46.3,52.4L46.1,52.1L46.1,52L46.2,52.1L46.4,52.2L46.9,52.1L47.1,51.6L47.5,51.4L47.8,51.5L47.7,51.4L47.7,51.3L46.8,51L46.6,51.1L45,50.7L43.8,49.9L43.7,49.8L43.6,49.4L43.7,49.1L43.9,49L43.9,49.2L43.9,49.3L44.7,48.9L45,48.4L45.8,48.3L45.9,48.1L46.1,47.9L46.5,47.4L46.9,47.1L47.2,46.9L47.6,46.7L48,47L48.1,47L48.7,47L48.9,46.9L49,46.9L49,46.7L48.4,46.3L48.5,46.1L48.6,45.9L49.3,45.4L49.8,45.3L50.1,45.3L51,44.6L51.4,44.5L52.3,44.3L53,44.3L53.2,44.5L52.8,44.5L52.6,44.5L52.8,44.6L52.9,44.8L52.9,45L52.6,45.6L52.6,46.1L52.5,46.3L52.3,46.5L53.1,47.2L54.2,47.2L54.8,47.1L55.2,47.3L55.5,47.4L56.3,47.3L56.9,47.4L57.1,47.4L57.7,46.3L57.9,46.1L58.2,46.3L58.5,46.5L58.7,46.4L58.8,46.6L58.8,46.1L58.7,45.8L57.7,45.5L57.1,45.6L56.9,45.4L57,45L56.3,43.9L56.1,43.7L55.7,43.7L55.6,43.3L55.4,42.8L55.7,42.6L56,42.5L56.2,42.7L56.5,43.3L56.7,43.4L56.6,44L56.9,44.6L57.6,45.2L58.2,45L58.6,45L58.8,45.1L59.4,45.6L59.7,45.6L60.6,45.4L60.6,44.9L60.5,44.6L60.3,44.3L59.7,44.4L59.2,44L58.8,44.1L58.1,44.7L57.7,44.4L57.4,44.2L57.1,43.9L57,43.3L57.3,42.6L57.6,42.3L57.4,42.1L56.8,41.9L55.9,42.1L55.9,41.9L55.9,41.6L55.5,42.1L55.1,42L54.6,42.1L53.4,41.6L53,41.1L52.9,40.7L52.5,39.5L52.2,38.8L49.4,36.3L48.2,35.6L47.6,34.9L47.2,34.8L46.8,34.7L46.4,34.5L46.7,34.2L46.9,34.1L46.7,34.4L46.8,34.4L47.1,34.3L47.3,34.1L47.5,33.2L47.7,31.9L47.6,31.3L49.1,31.4L50.2,31.4L50.5,31.2L51.8,31L52.1,30.9L52.7,30.4L53.4,29.6L54,28.5L54.1,28.2L54.2,28.3L54.2,28.3L54.3,27.9L54.4,26.9L54.7,26L56,23.9L56.6,23L56.8,22.6L57,22.3L57.2,22.6L57.2,22.7L57.3,22.8L57.1,22.9L56.9,23.2L56.7,23.3L56.6,23.4L56.8,23.4L57.2,23.2L57.5,23L58.9,22.5L59.7,21.8L59.7,21.6L60.8,20.7L61,20.7L61.2,20.8L60.9,21.4L61.1,21.6L60.9,22.3L61.3,22.3L61.4,22.7L61.4,22.4L61.4,22L61.4,21.6L61.5,21.3L61.8,21.4L62.4,21.1L61.6,21L61.2,20.4L60.9,20.4L61.8,19.4L62.6,18.8L62.7,18.8L62.8,18.9L62.8,19.1L62.7,19.2L62.5,19.4L62.6,19.6L62.7,19.6L63.1,19.5L63.3,19.3L64.1,19.3L64.3,19.2L64.4,19L65.4,19L65.6,18.9L66.3,18.4L66.9,17.7L67.2,17.3L67.6,16.4L68,15.8L68.7,15.2L68.9,15.3L68.7,15.4L68.5,15.7L68.7,16L70.2,16.7L70.5,16.7L70.7,17.2L70.5,17.6L70.2,18L69.4,18.4L69.7,18.6L69.8,19L70,19.1L70.4,18.9L70.7,18.7L71.2,17.9L71.4,17.4L71.5,17.3L72,17.4L72.3,17.6L72.6,18L72.5,18.4L72.4,18.7L72.8,19L73.2,19L73.7,19.3L74.3,18.8L74.7,18.7L75.2,18.7L75.7,18.4L76.7,18.8L76.9,18.7L77.3,18.7L77.8,19L77.9,19.2L77.5,19.7L77.4,20.2L77.5,20.5L77.8,20.5L77.9,20.8L78,20.9L78.9,20.9L78.8,21L78.8,21.2L78.5,21.6L80.1,21.8L80.3,21.6L80.6,21.5L81.3,21.2L81.6,21.3L81.9,21.6L82.1,21.7L82.4,21.6L83,21.2L83.7,21.2L84,21.3L84.3,21.2L85.2,21.7L85.6,21.8L86,22.4L86.3,22.4L86.5,22.2L86.8,22.2L87,22.4L87.3,22.5L87.5,22.9L87.7,23.1L89.1,23.4L89.8,23.2L90.8,23.3L91.3,23.5L91.8,23.4L92.6,24.1L93,24.2L93.1,24.4L94.4,24.6L94.8,24.2L95.6,24.1L96.3,23.8L96.7,23.8L97.1,23.9L97.3,23.8L97.4,23.7L98.5,24.2L99.1,24.8L99.4,25.3L100.7,25.9L101.1,26.2L101.3,26.6L101.5,26.7L101.6,26.6L102.1,26.6L102.2,26.6L102.2,28.4L102.2,30.2L102.2,32L102.2,33.7L102.2,35.4L102.2,37.1L102.2,38.8L102.2,40.5L102.2,42.1L102.2,43.7L102.2,45.3L102.2,46.9L102.2,48.4L102.2,50L102.2,51.5L102.2,53L102.2,54.5L102.2,55.9L102.2,57.4L102.2,58.8L102.2,60.3L102.2,61.7L102.2,63.1L102.2,64.5L102.2,65.8L102.2,67.2L102.2,68.5L102.2,69.9L102.2,71.2L102.2,72.5L102.2,73.8L102.2,75.1L102.7,75.2L103.3,75.4L103.4,75.1L104,75.3L104.4,75.6L104.8,75.3L105.1,74.9L105.5,74.9L106.1,74.9L106.4,74.9L106.4,75.2L106.3,75.6L106.2,76L106.5,76.4L106.8,76.6L107.2,76.8L107.4,77.3L107.7,77.7L108,78L108.3,78.3L108.7,78.8L109,79.1L109.4,79.5L109.6,79.7L109.7,80.1L109.8,80.7L109.8,81L109.9,81L110.3,80.7L110.6,80.5L111,80.2L111.3,80L111.8,80L112,79.5L112,78.7L112.3,78.7L112.5,78.6L112.5,78.4L112.4,78.1L112.8,77.9L113.2,77.8L113.7,77.5L114.2,77.3L114.4,77.5L114.7,77.7L115.1,78.2L115.1,78.3L115.1,78.5L115.1,78.8L115.3,79.4L115.4,79.5L115.6,79.6L115.9,79.8L116,80L116.4,80.3L116.5,80.4L116.5,80.6L116.6,80.8L116.7,80.9L116.7,81.1L116.9,81.3L117.2,81.5L117.5,81.7L117.8,81.9L118.1,82.3L118.4,82.7L118.7,83.1L118.6,83.4L119,83.9L119.3,84.5L119.5,85L119.7,85.3L120,85.7L120.2,86.2L120.5,86.8L120.8,87.2L121.1,87.7L121.2,88L121.1,88.2L121,88.5L121.4,88.6L121.6,88.7L121.6,89L121.5,89.4L121.8,89.5L122,89.6L122,89.8L122.1,90.1L122.1,90.4L122.5,90.4L122.6,90.4L122.9,90.6L123.2,90.8L123.5,91L123.7,91.2L124,91.3L124.4,91.4L124.6,91.7L125,91.8L125.2,92.3L125.6,92.4L125.8,92.3L125.9,92.5L126,92.7L126,92.9ZM53.6,96.6L53.8,97.3L53.9,97.4L54,97.4L54.2,97.5L54.3,97.6L54.4,97.7L54.4,97.8L53.8,97.6L53.4,97.9L53.3,98L52.3,98L52,98.1L51.9,98.2L51.7,98.5L51.5,98.6L51.4,98.7L51.1,98.8L50.8,98.8L50.6,98.7L50.5,98.6L50.5,98.3L50.5,98.2L50.5,98L50.8,97.8L50.9,97.7L51.3,97L51.4,96.9L51.5,96.9L51.8,96.9L52.1,96.7L52.7,96.4L52.8,96.4L53.3,96.4L53.4,96.4L53.5,96.5ZM118.9,94.5L118.9,94.6L118.9,94.7L118.6,94.9L118.6,95L118.5,95.1L118.5,95.2L118.4,95.4L118.1,95.5L118.2,95L118,94.7L118.2,94.5L118.3,94.6L118.6,94.6L118.8,94.4ZM123.1,96.3L123.4,96.8L123.4,96.9L123.2,97L123,97L122.9,96.9L122.9,96.8L122.9,96.6L122.8,96.4L122.7,96.4L122.6,96.5L122.6,96.2L122.7,96L122.6,95.8L122.6,95.6L122.7,95.6L122.8,95.6L123,95.8ZM121.5,92.3L121.4,93L121.3,92.9L121.3,92.9L121.1,93L120.9,93L120.8,92.9L120.8,92.8L120.8,92.6L120.7,92.5L120.4,92.5L120.3,92.4L120.2,92.2L120.2,92L120.3,91.9L120.4,91.8L120.5,91.5L120.6,91.4L120.9,90.8L121,90.8L121.3,91.2L121.6,91.8ZM123.9,94.7L123.8,95.1L123.7,95.6L123.5,95.8L123.3,95.7L123.2,95.5L123.1,95.6L123,95.5L122.9,95.4L123,95.2L122.9,95L122.9,95.1L122.8,95.3L122.5,95.4L122.3,95.7L122.2,95.9L122.1,95.7L122.1,95.2L122,95L122.2,94.7L122.5,94.3L122.5,93.4L123.3,92.9L123.4,92.9L123.6,93.3L123.9,93.8L124,94L124,94.4ZM118.8,88.8L118.9,88.9L119,88.8L119.1,88.8L119.4,88.9L119.6,89.1L119.6,89.3L119.7,89.4L119.6,89.7L119.6,90L119.6,90.1L119.6,90.2L119.5,90.3L119.5,90.3L119.3,90.1L119,89.6L118.8,89.5L118.8,89.5L118.9,89.7L119,89.9L119.1,90L119.2,90.2L119.2,90.4L119.2,90.5L119.2,90.7L119.2,90.8L119.2,90.9L119.1,90.9L118.7,90.9L118.5,91L118.2,90.9L118.2,90.9L118.1,90.7L118.1,90.4L118.1,90L118.1,89.6L117.9,89.3L117.8,89.1L117.6,88.9L117.4,88.8L117.5,88.6L117.7,88.5L118,88.6ZM119.9,97L119.9,97L120,97L120,96.8L120.2,96.9L120.3,96.9L120.4,97L120.3,97.2L120.3,97.5L120.2,97.6L120.2,97.7L120,97.7L119.8,97.5L119.5,97.1L119.4,96.9L119.4,96.8L119.3,96.7L119.1,96.2L119,95.9L118.8,95.9L118.6,95.8L118.6,95.6L118.6,95.4L118.9,95.3L119.3,95.8L119.4,95.9L119.6,96.1L119.6,96.4L119.7,96.6ZM90.5,74.4L90.6,74.5L91,74.5L91.1,74.5L91.2,74.6L91.1,74.7L91,74.8L90.5,75L90.1,75.2L90.1,75.2L90,74.9L89.9,74.8L89.9,74.6L89.9,74.6L89.9,74.5L90.1,74.3L90.2,74.3ZM87.6,77.2L87.4,77.2L87.3,77.1L87.5,76.8L87.6,76.6L87.6,76.6L87.9,76.2L88.2,75.9L88.5,75.6L88.8,75L88.8,74.8L89,74.8L89.2,74.9L89.3,75.1L89.3,75.3L88.5,76L88.5,76.1L88.4,76.4L88.4,76.5L88.3,76.5L88.2,76.7L88.2,76.8L88.1,76.9L87.9,77L87.8,77L87.8,77.1ZM87.8,74.4L87.8,74.5L87.7,74.6L87.8,74.8L87.7,75.2L87.6,75.4L87.6,75.5L87.5,75.6L87.5,75.6L87.5,75.5L87.5,75.4L87.3,75.4L87.3,75.1L87.4,75L87.4,74.8L87.4,74.8L87.5,74.4L87.5,74.3L87.6,74.4L87.6,74.5L87.6,74.4L87.7,74.3L87.7,74.2ZM87.2,72.7L86.9,72.8L86.8,72.7L86.8,72.7L86.9,72.4L86.9,72.4L87,72.3L87.1,72.4L87.2,72.5ZM76.2,88.3L76,88.4L75.9,88.4L75.7,88.7L75.6,88.8L75.4,88.6L75.5,88.3L75.6,88.1L76.4,88.1L76.4,88.2L76.4,88.3L76.4,88.3ZM77.4,82.8L77.3,82.8L77.1,82.7L77,82.6L77.1,82.5L77.4,82.2L77.5,82.2L77.6,82.3L77.6,82.3L77.6,82.4L77.6,82.6ZM75.7,85.4L75.7,85.5L75.6,85.5L75.5,85.3L75.2,85.2L75.1,85L75.1,85L75.2,84.9L75.5,85.1L75.6,85.2ZM70.7,93.4L70.6,93.6L70.4,93.5L70.3,93.5L70.3,93.4L70.6,93.1L70.6,93L70.7,93L70.7,93.2ZM72.6,91L72.4,91.1L72.4,91.1L72.4,91L72.4,90.9L72.5,90.8L72.7,90.5L73,90.4L73.1,90.4L73.1,90.5L73,90.7ZM73.6,90.7L73.5,90.7L73.4,90.6L73.4,90.5L73.6,90.4L73.8,90.4L73.9,90.5L73.8,90.6L73.8,90.6L73.8,90.7ZM59.6,95.4L59.6,95.4L59.7,95.3L59.8,95.1L59.9,95.1L59.9,95.2L59.8,95.4L59.9,95.7L60,95.8L60,95.9L59.8,96L59.6,95.9L59.5,95.9L59.4,96L59.3,95.9L59.2,95.4L59.3,95.3L59.4,95.1L59.5,95L59.6,95.1L59.6,95.1L59.6,95.2ZM56.1,97.1L56.1,97.2L55.9,97L55.8,97L55.8,96.8L56.1,96.6L56.2,96.6L56.2,96.7L56.2,96.8L56.2,97.1ZM55.5,98.8L55.4,98.9L55.2,98.8L55,98.6L55,98.5L55.4,98.6L55.4,98.6ZM61.4,96.1L61.2,96.2L61.2,96.3L61.1,96.3L61,96.4L60.7,96.8L60.6,96.9L60.7,96.5L60.7,96.4L60.7,96.4L60.7,96.1L60.8,96.1L60.9,96.1L61,95.8L61.1,95.8L61.3,95.5L61.3,95.5L61.4,95.6L61.3,95.7L61.4,95.9L61.4,96ZM48.4,100L48.3,100.1L48.3,100.1L48.2,100.1L48,100.1L48,100.1L47.9,99.9L47.9,99.8L47.9,99.7L48,99.6L48.2,99.5L48.3,99.5L48.6,99.7L48.7,99.8L48.8,99.9L48.7,100ZM49,99.8L48.9,99.8L48.9,99.8L48.9,99.6L48.8,99.4L49,99.3L49.1,99.2L49.1,99.3L49.2,99.5L49.3,99.5L49.4,99.6L49.2,99.6ZM59.1,82.4L58.9,82.5L58.8,82.4L58.6,82L58.7,82L58.9,81.7L59.4,81.5L59.5,81.5ZM33.5,74.4L34,74.7L34.3,74.6L34.5,74.9L34.6,75.1L34.2,74.9L33.7,74.9L33,74.4L32.8,74.2L32.8,73.9L33.1,73.7L33.2,74.2ZM39.1,88.1L38.9,88.3L38.6,88.2L38.6,88.1L38.6,88L39.2,87.9ZM40.1,104.5L40.1,104.6L40,104.7L39.7,104.6L39.5,104.6L39.4,104.5L39.5,104.5L39.8,104.4L40,104.3L40.1,104.4ZM37.8,105.4L37.7,105.5L37.7,105.5L37.6,105.4L37.7,105.3L37.9,105L38.1,105.1L38.2,105.1L38.2,105.2L38.1,105.3L38,105.4L37.9,105.4ZM34.1,106.5L33.9,106.6L33.8,106.5L33.8,106.3L33.9,106.2L34.1,106.1L34.3,106.2L34.4,106.3ZM40,90.3L40.2,90.3L40.4,90.3L40.5,90.3L40.6,90.4L40.3,90.6L40.2,90.6L39.9,90.4ZM25.8,108.2L25.7,108.4L25.6,108.3L25.5,108L25.6,108L25.8,108.2ZM26.4,107.5L26.3,107.6L26.1,107.5L26,107.4L26,107.3L26.1,107.1L26.3,107.1L26.4,107.2L26.5,107.3L26.5,107.4ZM23.9,108.5L23.9,108.5L23.8,108.6L23.4,108.5L23.2,108.5L23,108.6L22.8,108.6L22.8,108.5L22.8,108.5L23.5,108.3L23.7,108.2L23.8,108L23.9,107.8L24,107.7L24,107.7L24.1,107.8L24.1,108L24,108.1L24,108.2ZM14.7,107.8L14.6,107.8L14.5,107.7L14.5,107.6L14.5,107.5L14.7,107.6L14.8,107.7ZM16.6,109.7L16.2,109.7L15.4,109.1L15.1,108.9L14.8,108.7L14.9,108.7L15.4,108.8L15.8,109.1L16,109.3L16.2,109.5L16.5,109.6ZM4.2,106.2L4,106.2L3.9,106.1L3.5,106.1L3.5,105.9L3.7,105.9L4,105.7L4.3,105.7L4.2,105.9ZM115.3,87.4L115.5,87.9L115.6,88.2L115.7,88.6L115.9,89.4L116,89.8L116,89.9L116.1,90.4L116,90.5L116,90.6L116,90.7L116,91L116,91.6L116,91.9L115.9,91.9L115.8,91.8L115.6,91.6L115.5,91.5L115.3,91L115.3,90.7L115.3,90.5L115.3,90.4L115.4,90.3L115.5,90.1L115.5,90.1L115.4,90.1L115.2,90.2L115,90L114.9,89.9L114.9,89.6L114.9,89.5L114.6,89.6L114.5,89.5L114.5,89.4L114.5,89.2L114.5,89.1L114.8,88.7L114.8,88.6L114.6,88.6L114.5,88.5L114.4,88.1L114.2,87.8L114.1,87.8L113.9,88.5L113.8,88.7L113.5,88.8L113.5,88.6L113.6,88.4L113.4,87.9L113.4,87.7L113.5,87.6L113.7,87.5L113.9,87.4L114,87.3L114,87.1L114.2,86.7L114.2,86.7L114.5,86.7L114.9,87.1L115.1,87.1ZM115.9,84.1L116.5,84.2L116.9,84.2L117.2,84.8L117.5,85.3L117.6,85.6L117.7,86L117.8,86.3L117.8,86.3L117.5,86.1L117.4,85.7L117.3,85.5L117.2,85.4L117.2,85.3L117,84.9L117,84.7L116.9,84.6L116.8,84.6L116.7,84.6L116.7,84.6L116.7,84.9L116.8,85.3L117.2,86L117.5,86.4L117.5,86.5L117.6,86.8L117.4,87L117.6,87.3L117.6,87.4L117.5,87.5L117.2,87.6L116.8,88.2L116.4,88.6L116.3,88.6L116.2,88.6L116.1,88.4L116.1,88.3L116,88L116.1,87.9L116.3,87.1L116.3,86.9L116.1,86.5L116,86.3L115.9,85.9L115.7,84.8L115.7,84.5L115.6,84.2L115.5,84L115.4,83.7L115.4,83.4L115.4,83.3L115.6,83.5L115.8,83.9ZM113.6,83.8L113.9,84.2L113.9,84.3L113.9,84.5L113.7,84.6L113.8,84.7L113.9,84.8L114,84.7L114.3,84.4L114.4,84.3L114.5,84.3L114.9,84.4L115.2,84.6L115.3,84.7L115.4,85L115.3,85.5L115,85.6L114.9,85.6L114.7,85.5L114.5,85.7L114.7,85.9L115.3,85.9L115.4,86.2L115.5,86.5L115.4,86.9L115,86.8L114.7,86.5L114.1,86.2L114,86.1L113.9,86.2L113.9,86.4L113.9,86.9L113.7,87.1L113.2,87L113.1,86.7L112.9,86.1L112.2,85.4L112.1,85.3L111.8,84.9L111.9,84.6L111.9,84.4L112.1,84.3L112.2,84.2L112.4,83.9L112.5,84.1L112.7,84.4L112.7,84.2L112.8,84L113.1,84L113.2,83.9L113.3,83.8L113.5,83.7ZM118.3,91.4L118.7,91.5L119.1,91.5L119.2,91.7L119.3,91.8L119.4,92L119.4,92.1L119.4,92.2L119.3,92.4L119.3,92.4L120.1,92.8L120.4,93.1L120.6,93.3L120.6,93.5L120.8,93.9L121.1,94.4L121.3,94.6L121.3,94.7L121.3,94.7L121.1,94.6L120.6,94.3L120.6,94.3L120.5,94.5L120.5,94.7L120.3,94.8L120.4,94.8L120.8,94.7L121.1,95.1L121.2,95.1L121.4,95.3L121.4,95.4L121.3,95.6L121.3,95.7L121.3,95.7L121.4,95.7L121.7,95.7L121.8,95.8L121.7,96.4L121.8,96.7L121.8,96.8L121.7,96.9L121.7,97.1L121.8,97.2L121.8,97.3L121.7,97.6L121.6,97.6L121.4,97.6L121.3,97.6L121.1,97.3L121,96.9L120.9,96.9L120.7,96.8L120.7,96.8L120.5,96.7L120.4,96.6L120.4,96.4L120.4,96.1L120.4,96L120.3,96L120.2,96.1L120.2,96.3L120.2,96.4L120,96.4L119.7,95.9L119.4,95.4L119.3,95.3L119.3,95.2L119.5,95.1L119.6,95.1L119.6,95.1L119.4,94.6L119.4,94.5L119.5,94.3L119.4,94.2L119,94.3L118.9,94.3L118.8,94.1L118.8,93.9L118.5,93.9L118.4,93.9L118.2,93.7L118.1,93.6L118.1,93.5L118.3,93.4L118.4,93.4L118.6,93.5L118.7,93.5L118.9,93.3L118.9,93.2L119,93L119,92.9L118.9,92.7L118.7,92.6L118.4,92.7L118.1,93L117.9,92.9L117.9,92.7L118.3,92.4L118.4,92.2L118.4,92.1L118.3,91.9L118.3,91.5ZM117.4,89.4L117.6,89.7L117.8,89.7L117.9,89.9L117.9,90.2L117.9,90.4L117.8,90.4L117.7,90.5L117.6,90.8L117.7,91.2L117.6,91.6L117.5,92L117.5,92.2L117.4,92.3L117.4,92.3L117.3,92.3L117.2,92.2L117.1,92.4L117,92.4L116.9,91.9L117,91.1L117.2,91L117.1,90.7L116.8,90.5L116.8,90.3L116.6,89.9L116.5,89.8L116.6,89.5L116.8,89.1L117.1,89.1L117.3,89.2L117.4,89.3ZM77.5,83.3L77.6,83.3L77.7,83.1L77.7,83.1L78,83.3L78.1,83.2L78.2,83.5L78.3,83.5L78.4,83.5L78.5,83.5L78.4,83.8L78.3,84.1L78.2,84.1L78,84.1L78,84L77.9,83.9L77.9,83.8L77.8,83.8L77.7,83.9L77.7,84L77.7,84.2L77.7,84.2L77.6,84.3L77.4,84.3L77.2,84.4L77.2,84.3L77.2,84.1L77.1,84.1L77,84.4L76.9,84.5L76.8,84.7L76.7,84.7L76.6,84.7L76.4,84.8L76.3,84.8L75.6,84.5L75.4,84.4L76,83.8L76.3,83.6L76.5,83.6L76.6,83.7L76.7,83.6L76.7,83.4L76.6,83.2L76.6,83.1L76.9,82.9L77.1,83L77.2,83L77.4,83.1ZM43.8,102.7L43.2,103.1L43,103.4L42.8,103.6L42.7,103.8L42.6,103.8L42.5,103.9L42.2,104.1L42.1,104.1L41.4,104.5L41.4,104.5L41.4,104.4L41.6,104.3L41.8,104.1L41.9,103.9L42,103.8L42.1,103.6L42.1,103.4L42.1,103.3L42.3,103.1L42.4,103L42.5,103L42.8,103L42.9,102.9L43,102.8L42.9,102.8L42.9,102.7L42.9,102.5L43,102.3L43.1,102.1L43.3,102L43.6,101.9L43.8,101.9L44.1,102.1L44.2,102.2L44.1,102.4L44.1,102.5ZM46.8,100.7L46.8,100.8L47,100.7L47.1,100.6L47.2,100.4L47.3,100.3L47.4,100.4L47.6,100.5L47.4,100.8L47,101.1L46.9,101.3L46.9,101.4L47.3,101.3L47.4,101.3L47.4,101.4L47.3,101.5L47.1,101.6L47,101.7L46.6,102L46.4,102.2L46.2,102.3L46,102.3L45.6,102.5L45.3,102.6L45.3,102.7L45.2,102.7L45.1,102.7L45,102.8L44.9,102.9L44.8,102.9L44.6,102.9L44.6,103L44.5,103L44.2,102.9L44.2,102.8L44.4,102.6L44.5,102.5L44.8,102.5L45,102.4L45.5,102.1L45.6,102L45.7,101.6L45.8,101.6L45.9,101.4L46.1,101.4L46.3,101.6L46.3,101.6L46.3,101.6L46.4,101.4L46.5,101.3L46.4,101.3L46.2,101.2L46,101.1L45.9,101.1L45.8,101.1L45.7,101L45.7,100.9L45.7,100.8L45.7,100.6L45.8,100.5L46,100.4L46.2,100.4L46.5,100.3L46.6,100.3L46.7,100.3ZM31.7,107L32.2,107.2L32.7,107.1L32.9,107.2L32.9,107.2L32.5,107.3L32.4,107.2L32.1,107.3L31.9,107.3L31.5,107.3L31.1,107.3L31,107.3L30.9,107.2L30.8,107.1L30.8,107.1L30.9,107L31.2,107.1L31.2,107.1L31.5,107ZM29.3,107.4L28.1,107.5L28,107.4L28.1,107.4L28.3,107.3L28.8,107.2L29.3,107L29.7,106.8L30.1,106.7L30.2,106.5L29.9,106.4L29.8,106.4L30,106.3L30.1,106.2L30.4,106L30.7,106.2L30.7,106.3L30.7,106.5L30.6,106.6L30.4,106.7L30.4,106.8L30.5,107L30,107.2ZM25.1,108L25.2,108.1L25.4,108.1L25.5,108.1L25.5,108.4L25.4,108.4L25.4,108.4L25.3,108.4L25.2,108.5L24.8,108.8L24.6,108.6L24.4,108.9L24.5,108.2L24.8,108.1L24.8,108.1L24.8,107.9L24.9,107.5L25.1,107.6L25.2,107.7L25.2,107.8ZM22.4,108.7L22.3,108.8L22.3,108.8L22,108.6L21.9,108.6L22.1,108.5L22.2,108.4L22.1,108.3L22,108.2L21.8,108L21.7,107.9L21.7,107.8L21.8,107.8L22.2,107.8L22.4,108L22.5,108.1L22.9,108.1L22.7,108.2L22.6,108.3L22.5,108.6ZM17.2,107.8L17,107.9L16.8,107.9L16.7,107.7L16.7,107.6L17,107.4L17.3,107.6ZM12.2,107.9L12,108L11.8,107.9L11.8,107.8L12.1,107.6L12.3,107.5L12.4,107.4L12.5,107.1L12.6,107.1L12.7,107.1L12.7,107.3L12.6,107.5L12.6,107.7ZM2.2,103.9L2.6,104L2.8,103.9L3.2,104.1L3.6,104.5L3.5,104.5L3.4,104.6L3.3,104.6L3,104.6L2.8,104.6L2.5,104.8L2.1,104.7L2,104.3L1.7,104.3L1.5,104.2L1.9,103.9ZM70.7,197.8L70.6,197.9L70.4,197.9L70,197.7L69.9,197.6L70,197L69.8,196.5L69.6,196.1L69.8,195.9L69.9,195.8L70.1,195.5L70,195.2L70,195L70.1,194.9L70.6,195.2L71.5,195.6L71.7,195.8L71.8,196.1L71.9,196.2L72,196.4L72.2,196.5L72.3,196.7L72.2,196.8L71.8,197.1L71.2,197.3L70.8,197.6ZM67.1,192.7L67.6,192.8L67.7,192.8L67.8,192.8L68.1,192.9L68.2,192.9L68.1,193L67.9,193.1L67.5,193L66.9,193L67,192.9L67,192.8L67,192.7ZM68.7,193.4L68.7,193.4L69,193.4L69.1,193.4L69.4,193.5L69.5,193.6L69.7,193.7L69.8,193.8L69.7,193.9L69.5,194.1L69.2,194.1L69.1,194.2L68.9,194.2L68.8,194.1L68.8,193.9L68.7,193.7L68.6,193.7L68.4,193.7L68.2,193.5L68.2,193.4L68.3,193.2L68.5,193.2L68.6,193.3ZM65.8,192.2L65.9,192.2L66,192.2L66.1,192.4L66.2,192.5L66.2,192.5L66.1,192.6L65.8,192.6L65.7,192.6L65.6,192.5L65.5,192.5L65.5,192.4L65.5,192.4L65.4,192.4L65.5,192.5L65.2,192.5L65.2,192.5L65.1,192.4L64.9,192.1L64.9,192L64.8,191.9L65.1,191.9L65.4,191.6L65.5,191.6L65.7,192L65.7,192.1L65.8,192.1ZM62.4,191.1L62.2,191.2L62.1,191.2L61.9,191.1L61.8,191L61.6,190.9L61.5,190.8L61.7,190.6L62,190.4L62.5,190.4L62.6,190.6L62.6,190.7L62.5,190.8L62.5,191ZM60.7,191.3L60.6,191.4L60.6,191.4L60.6,191.3L60.6,191.2L60.7,191L60.9,190.9L61,190.9L60.9,191L60.9,191.1L60.7,191.2ZM67.9,193.8L67.8,193.8L67.6,193.8L67.6,193.6L67.5,193.4L67.7,193.4L67.8,193.5L67.9,193.5L68,193.6ZM245.8,130.4L245.9,130.4L246.4,130.4L247.3,130.4L248.2,130.4L249.1,130.4L250,130.4L250.9,130.4L251.8,130.4L252.7,130.4L252.9,129.8L253.1,129.5L253.4,129.6L253.5,129.6L253.7,129.5L253.8,129.4L253.9,129.4L254,129.5L254,129.6L254.1,129.6L254.2,129.5L254.2,129.3L254.2,129.2L254.3,129.2L254.4,129.2L254.5,129.1L254.5,129L254.4,128.9L254.5,128.7L254.7,128.4L255,128.2L255.1,128.1L255.1,127.9L255.3,127.7L255.3,127.6L255.4,127.5L255.3,127.4L255.3,127.2L255.4,126.9L255.4,126.5L255.6,126.3L255.8,126L255.9,125.5L256,125.1L256.3,124.7L256.6,124.2L256.8,123.9L257.1,123.4L257.4,123.1L257.5,122.9L257.6,122.7L257.8,122.8L258,122.8L258,123.1L258,123.3L258.1,123.4L258.3,123.5L258.4,123.5L258.5,123.5L258.9,123.4L259.3,123.3L259.5,123.2L259.5,123.1L259.6,123.1L259.8,123.1L260.1,123.3L260.5,123.6L260.7,123.9L260.7,124.4L260.7,124.9L260.7,125.4L260.8,125.8L260.8,126.3L260.8,126.7L260.8,127.2L260.8,127.5L260.8,127.6L260.8,127.7L260.8,127.7L260.8,127.8L260.8,127.8L260.8,127.9L260.8,128L260.7,128L260.7,128.2L260.8,128.3L260.8,128.3L260.9,128.3L261,128.3L261.1,128.4L261.2,128.5L261.3,128.5L261.4,128.5L261.5,128.6L261.6,128.7L261.6,128.8L261.5,128.8L261.4,128.9L261.4,129L261.4,129L261.5,129.1L261.5,129.3L261.5,129.4L261.5,129.5L261.4,129.6L261.5,129.7L261.6,129.8L261.7,129.9L261.8,129.9L261.8,129.9L261.9,129.8L261.9,129.8L262,129.8L262.1,129.9L262.2,129.9L262.2,130L262.3,130.1L262.3,130.5L262.2,130.6L262.2,130.8L262.4,130.8L262.5,130.9L262.5,130.9L262.1,131.4L261.7,131.3L261.5,131.5L261.3,131.5L261.2,131.7L261.1,131.8L260.9,131.7L260.8,131.7L260.7,131.7L260.5,132.1L260.4,132L260.3,132.2L260.3,132.2L260.2,132.3L260.1,132.1L260.1,132L260,131.9L259.9,131.9L259.8,131.9L259.7,131.9L259.6,132L259.5,132.1L259.4,132L259.3,131.9L259.3,132.1L259.2,132.3L259.2,132.5L259.2,132.7L259.1,132.6L259,132.5L258.7,132.4L258.5,132.4L258.6,132.3L258.8,132.1L258.7,132.1L258.6,132.1L258.6,132.1L258.6,131.9L258.7,131.7L258.6,131.8L258.5,132L258.2,132.1L258.2,132.4L258,132.9L258,133.2L257.8,133.3L257.7,133.5L257.4,133.5L257.2,133.6L257.1,133.7L257,133.8L257,133.6L256.9,133.5L256.9,133.8L256.8,133.8L256.8,133.6L256.7,133.5L256.6,133.6L256.6,133.9L256.5,133.9L256.5,133.8L256.4,133.7L256.4,133.9L256.4,134L256.4,134.1L256.3,134.1L256.3,134L256.1,134.1L256,134.1L256,134L256.1,133.9L255.8,134L255.6,134.2L255.4,134.4L255.5,134.5L255.5,134.6L255.2,135L254.9,135.4L254.6,136L254.5,136.1L254.4,136.2L254.3,136.6L254.2,137L254.2,137.1L254.3,137.3L254.4,137.4L254.5,137.4L254.6,137.4L254.6,137.4L254.7,137.5L254.6,137.6L254.5,137.6L254.3,137.7L254.2,137.8L254.1,137.9L254,138.1L253.7,138.4L253.8,138.5L254.2,138.6L254.4,138.7L254.6,139.3L254.6,139.3L254.6,139.4L254.8,139.6L254.9,139.9L255.1,140.1L255.3,140.2L255.7,140L256,139.9L256,139.7L255.8,139.4L255.7,139.3L255.6,139.2L255.6,139.3L255.5,139.2L255.5,139.1L255.5,139.1L255.6,139.1L255.7,139.2L256,139.5L256.1,139.9L256.1,140.2L256.1,140.3L256,140.3L255.9,140.3L255.1,140.5L254.9,140.6L254.6,140.7L254.5,140.7L254.6,140.5L254.5,140.2L254.5,140.2L253.9,140.7L253.6,140.7L253.4,140.9L253.4,140.8L253.4,140.4L253.5,140.1L253.4,140.1L253.2,140.3L253.1,140.2L253.1,140.1L253,140L253,140L253,140.2L252.9,140.4L252.8,141L252.7,141.2L252.1,141.3L251.8,141.3L251.5,141.3L251.1,141.4L250.8,141.4L250.6,141.5L249.8,141.5L249.6,141.5L249.4,141.6L249.1,141.8L248.2,142.2L248,142.4L247.8,142.6L247.6,142.8L247.5,142.8L247.4,142.9L247.3,143L247.4,142.7L247.5,142.5L247.6,142.1L247.6,141.8L247.5,141.6L247.4,141.6L247.5,141.9L247.5,142.3L247.5,142.5L247.3,143L247.2,143.1L247.1,143.2L247,143.2L246.9,143.3L246.8,143.4L246.7,143.6L246.8,143.8L247.2,143.9L247.3,143.8L247.4,144L247.4,144.2L247.4,144.4L247.3,144.6L247.3,144.9L247.2,145.3L247.1,145.7L247.1,145.6L247.2,145.1L247.1,145.2L247.1,145.3L246.9,145.9L246.8,146.2L246.6,146.4L246.4,146.4L246.5,146.6L246.4,146.7L246.4,146.8L246.3,147L246.2,147L246.1,147L246,147.1L246,147.2L245.9,147.3L245.6,147.9L245.3,148.1L245.2,148.1L245.3,147.8L245.4,147.5L245.2,147.4L245,147.3L244.9,147.3L244.6,147.1L244.4,147L244,146.6L244,146.4L244,146.2L244.1,145.9L244.2,145.7L244.4,145.6L244.8,145.5L244.9,145.3L245,145.2L244.8,145.4L244.5,145.5L244.3,145.6L244.1,145.7L244.1,145.9L243.9,146.1L243.9,146.3L243.9,146.4L243.9,146.6L244,146.8L244.3,147.1L244.3,147.7L244.5,148L244.7,148.4L245,148.5L245,148.7L244.9,148.9L244.7,149.1L244.9,149L245,149.1L245.1,149.3L245.1,149.5L245,149.6L245,149.7L245,149.6L245,149.5L244.9,149.6L244.9,149.6L244.8,149.9L244.8,150L244.7,150L244.5,150.3L244.4,150.5L243.9,151.7L243.9,151.9L243.8,152L243.6,152L243.5,152.1L243.4,152.3L243.3,152.6L243.1,153L243,152.8L243,152.7L243,152.3L243.2,151.7L243.4,151.4L243.6,151.2L243.7,150.8L243.6,150.8L243.3,150.8L243.4,150.6L243.4,150.5L243.3,150.3L243.2,150.3L243.1,150.2L243.2,150.1L243.3,150L243.3,149.8L243.3,149.7L243.2,149.7L243.1,149.8L243.1,149.9L243,149.8L243,149.8L242.9,149.9L242.9,149.9L242.7,149.8L242.5,149.7L242.4,149.5L242.3,149.3L242.4,149L242.6,149L242.7,149L243,149L242.9,149L242.9,149L242.6,148.7L242.5,148.6L242.4,148.6L242.3,148.7L242.2,148.7L242.3,148.4L242.4,148.4L242.6,148.3L242.6,148.2L242.5,148.1L242.3,148.2L242.3,148.1L242.3,147.9L242.5,147.9L242.6,147.9L242.7,147.7L242.7,147.6L242.5,147.7L242.5,147.4L242.7,147L242.8,146.9L243,146.9L243.3,146.9L243.1,146.8L243,146.8L243.1,146.6L243.2,146.6L243.3,146.5L243,146.5L243.1,146.3L243,146.3L242.8,146.4L242.8,146.4L242.8,146.6L242.8,146.7L242.7,146.8L242.5,146.9L242.5,146.7L242.4,146.7L242.4,146.9L242.4,147L242.3,146.8L242.2,146.8L242.2,146.9L242.2,147L242.1,147.1L242.1,147.2L242.1,147.3L241.7,147.2L241.7,147.2L241.9,147.5L242.1,147.6L242.1,147.7L242,147.8L241.8,147.7L241.8,147.7L241.9,147.9L241.9,148.1L241.9,148.2L241.9,148.4L241.9,148.5L241.8,148.6L241.9,149.2L242,149.4L242.1,149.5L242.1,149.7L242,149.7L241.9,149.6L241.7,149.5L241.6,149.2L241.6,149.1L241.5,149L241.5,149.2L241.6,149.4L242.1,149.9L242.2,150.2L242.3,150.3L242.2,150.5L242.1,150.3L242,150.2L241.7,150.1L241.3,150L241.1,149.6L241.1,149.8L241.1,149.9L240.9,149.7L240.8,149.6L240.8,149.5L240.7,149.5L240.5,149.6L240.3,149.6L240.3,149.3L240.3,149.2L240.5,148.9L240.7,148.7L240.8,148.5L240.7,148.2L240.7,148.5L240.6,148.7L240.5,148.8L240.3,149L240.2,149.2L240.1,149.6L240.2,149.7L240.3,149.8L240.6,149.7L240.7,149.7L241,150.1L241.6,150.3L241.8,150.4L242,150.7L242.2,150.8L242.4,151L242.4,151.1L242.3,151.3L242.3,151.5L242.2,151.6L242,151.6L241.9,151.6L241.3,150.9L241.2,150.8L240.9,150.4L240.7,150.2L240.6,150.2L241,150.6L241.1,150.9L241.4,151.2L241.6,151.4L241.8,151.6L241.9,151.7L242.3,151.9L242.2,152L242.4,152.1L242.4,152.2L242.4,152.4L242.1,152.4L242.1,152.5L242.1,152.6L242,152.7L241.8,152.6L241.3,152L241.4,152.1L241.4,152.2L241.7,152.5L241.9,152.8L242.1,152.8L242.3,153L242.3,153.1L242.4,153.3L242.3,153.4L242.1,153.4L242,153.3L241.9,153.2L241.7,153L241.6,152.8L241.5,152.8L240.8,152.6L240.3,152.5L240.3,152.6L240.4,152.6L240.8,152.7L241,152.8L241.3,152.9L241.5,152.9L241.6,153.3L241.9,153.5L241.9,153.7L242.1,153.7L242.5,153.5L242.7,153.6L243,153.7L243.1,153.8L243.1,154.1L243.2,154.3L243.5,155.5L243.9,156.4L244,156.6L243.9,156.5L243.6,155.8L243.4,155.4L243.2,154.6L243.2,154.4L243.1,154.3L243.1,154.4L243,154.5L243.1,154.6L243,154.8L243,155L243.1,155.1L243.3,155.4L243.4,155.8L243.2,155.6L243.1,155.6L242.9,155.5L242.7,155.4L242.7,155.5L242.7,155.7L242.5,155.7L242.4,155.6L242.5,155.8L242.3,155.7L242.2,155.8L242.1,155.9L242,156L241.8,156.1L241.5,155.9L241.4,155.7L241.4,155.5L241.4,155.8L241.4,156L241.4,156.2L241.7,156.3L241.9,156.2L242.2,156.2L242.4,156.2L242.5,156.1L242.8,156.2L242.9,156.4L242.8,156.7L242.8,156.9L242.9,156.9L243,156.9L243,156.4L243.3,156.2L243.4,156.2L243.5,156.4L243.5,156.5L243.5,156.7L243.5,157.1L243.1,157.4L242.8,157.8L242.6,157.8L242.4,157.8L242.1,157.7L242,157.7L241.9,157.7L241.9,157.6L241.8,157.4L241.7,157.4L241.7,157.4L241.6,157.6L241.4,157.6L241.1,157.5L240.7,157.4L240.9,157.6L241.7,157.9L241.8,158L241.9,158.1L241.8,158.2L241.7,158.4L241.7,158.5L241.6,158.6L241.3,158.8L241.1,158.8L240.7,158.4L240.9,158.7L241,158.9L241.4,158.9L242,158.8L242.2,158.9L242,159.2L241.9,159.4L241.6,159.4L241.5,159.4L241.4,159.5L241.3,159.6L241,159.6L240.7,159.6L240.5,159.5L240.3,159.8L240.2,159.8L240,159.8L240,159.6L239.9,159.5L239.9,159.8L239.9,159.9L240,160L239.7,160.2L239.4,160.5L239.3,160.5L239.2,160.7L239,161L238.9,161.3L238.8,161.6L238.8,161.4L238.8,161.2L238.8,161L238.7,161.4L238.6,161.6L237.8,161.6L237.4,161.7L236.8,162.1L236.7,162.3L236.2,162.9L236.1,163.4L236,163.2L236,163.1L236,163L235.9,163.2L236,163.5L235.9,163.6L235.6,163.9L235.4,163.9L235.2,164L235.2,164.2L234.9,164.5L234.7,164.5L234.5,164.5L234.6,164.7L234.5,164.9L234.3,165L234.1,165.1L233.9,165L233.8,165.1L233.7,165.2L233.5,165.3L233.3,165.2L233.1,165.2L232.9,165.3L233.2,165.3L233.3,165.5L233.3,165.7L233.2,165.7L233.1,165.8L233,165.8L233,165.7L232.9,165.6L232.9,165.6L232.8,165.7L232.8,165.7L232.6,165.4L232.6,165.6L232.7,165.8L232.7,165.9L232.8,165.9L232.8,166L232.7,166.2L232.6,166.2L232.5,166.3L232.4,166.4L232.4,166.5L232.3,166.7L232.1,166.8L232,166.8L231.9,166.9L231.9,167L232,167L232,167.1L231.9,167.2L231.8,167.2L231.7,167.3L231.8,167.4L231.8,167.5L231.8,167.6L231.6,167.6L231.6,167.7L231.7,167.8L231.7,167.7L231.8,167.8L231.7,167.9L231.6,168L231.5,168.2L231.3,168.2L231.3,168.3L231.4,168.3L231.5,168.4L231.4,168.7L231.3,168.7L231.2,168.6L231.2,168.8L231.2,168.9L231.1,169.1L231.1,169.3L231,169.4L231,169.6L231.1,169.8L231.2,170L231.3,170.9L231.4,171.3L231.6,172.1L231.9,173L232.4,174L233.1,175.2L233.2,175.4L233.1,175.5L233.1,175.7L233.1,175.9L233.1,176.1L233.2,176.4L233.3,176.8L233.2,176.7L233,176.1L233,175.8L233,175.3L233,175.3L232.9,175.5L232.9,175.6L232.8,175.7L232.7,175.4L232.7,175.3L232.8,175.1L232.8,175.1L232.7,175L232.6,174.9L232.6,174.8L232.6,174.7L232.5,174.7L232.5,175L232.6,175.2L232.7,175.6L232.8,175.9L232.9,176.1L233.8,178.5L234.1,178.8L234.1,179L234.2,179.5L234.2,180.1L234.1,181.1L234,181.8L234,181.8L234,181.7L234,181.7L233.9,182.1L233.7,182.3L233.6,182.8L233.5,183L233.3,183.3L233.1,183.3L232.7,183.5L232.5,183.4L232.1,183.5L231.9,183.5L231.8,183.3L231.8,183.2L231.9,183.1L231.9,183.1L232.2,183.3L232.3,183.2L232.2,183.1L232,183L231.9,183L231.7,182.4L231.4,182.1L231.4,181.8L230.9,181.7L230.6,181.5L230.4,181.1L230.3,180.4L230.1,180.3L230.1,180.2L230.2,180L230.4,179.8L230.2,179.8L230.2,179.9L230.1,180.1L230,180.1L229.9,180.1L229.8,179.7L229.8,179.3L230,179.1L229.8,179.1L229.6,179.2L229.6,179.3L229.6,179.4L229.5,179.4L229.4,179.3L229.2,179.2L229,178.9L228.7,178L228.6,177.9L228.4,177.8L228.5,177.8L228.6,177.7L228.9,177.4L229.1,177.1L229.1,177L229.1,176.9L229,176.8L228.9,176.9L228.9,176.9L228.7,176.7L228.6,176.6L228.5,176.7L228.6,176.8L228.7,176.9L228.7,177.1L228.6,177.2L228.6,177.3L228.4,177.2L228.4,177.3L228.3,177.2L228.2,177.1L228.2,176.9L228.4,176L228.6,175.4L228.6,174.7L228.6,174.6L228.6,174.4L228.3,174L227.2,173L226.3,171.8L225.6,171.4L225,171.5L224.9,171.5L224.8,171.7L224.9,171.8L224.8,171.9L224.7,171.8L224.5,171.9L223.9,172.2L223.7,172.2L223.6,172.3L223.4,172.3L223.1,172.4L222.8,172.4L222.7,172.4L222.6,172.2L222.6,172L222.7,172.2L222.8,172.3L222.8,172.2L222.8,172.1L222.7,171.9L222.4,171.7L222,171.3L222.1,171.3L222.2,171.2L222.1,171.1L222.1,171L222.2,170.9L222,170.9L221.9,171L221.9,171.1L221.9,171.2L221.8,171.2L221.6,171.1L220.9,170.8L220.3,170.6L220.8,170.5L221.1,170.6L221,170.5L221,170.5L220.8,170.4L220.5,170.4L220.4,170.4L220.2,170.4L220,170.6L219.9,170.6L219.2,170.7L218.7,170.8L218.8,170.7L218.9,170.6L219.2,170.5L219.2,170.4L219.2,170.2L219.1,170.2L219,170.4L218.9,170.3L218.8,170.3L218.8,170.5L218.6,170.6L218.6,170.8L218.1,170.9L218.1,170.8L218.2,170.7L218.2,170.6L218,170.7L217.8,171L217,171L217,171L217.2,171L217.5,170.9L217.4,170.7L217.3,170.6L217.2,170.6L217.2,170.5L217.2,170.2L217.1,170L217,169.9L216.9,169.9L216.8,170.2L216.7,170.6L216.7,170.7L216.5,170.7L216.2,170.7L215.5,170.7L215.2,170.6L215.1,170.6L215,170.6L214.7,170.7L214.3,170.8L214.3,170.8L214.1,170.8L213.9,171.1L213.6,171.2L212.8,170.9L212.6,170.7L212.4,170.7L212.2,170.7L212,170.9L211.8,171.3L212.1,171.5L212.3,171.5L212.7,171.5L212.9,171.3L213.1,171.3L213.2,171.3L213.2,171.2L213.4,171.3L213.4,171.3L213.3,171.4L213.2,171.5L213.1,171.6L213.2,171.8L213.5,171.9L213.6,171.8L213.6,171.6L213.8,171.5L214,171.5L213.9,171.6L214,171.7L214.1,171.8L214,172L214.1,172.1L213.8,172.2L213.7,172.2L213.5,172.3L213.6,172.4L213.5,172.4L213.4,172.4L213.4,172.4L213.3,172.5L213.3,172.6L213.4,172.8L213.6,172.9L213.7,173.1L214.3,173.3L214.4,173.3L214.6,173.5L214.7,173.6L214.8,173.6L214.8,173.8L214.6,173.9L214.5,174L214.5,174.1L214.4,174L214.3,173.9L214.1,174.1L214,174.2L214.1,173.9L214,173.8L213.9,173.6L213.7,173.5L213.6,173.4L213.5,173.4L213.4,173.3L213.3,173.3L213.1,173.3L213.1,173.2L213.1,173.1L212.9,173L212.3,172.8L212.3,172.9L212.4,172.9L212.5,173L212.6,173L212.6,173.3L212.5,173.4L212.5,173.5L212.5,173.7L212.4,173.8L212.2,173.8L212.1,173.8L212,173.5L211.8,173.4L211.6,173.4L211.4,173.4L211.2,173.7L211,173.8L210.5,173.6L209.9,173.4L209.9,173.3L210,173.3L210.2,173.3L210.2,173.2L210,173L209.9,172.9L210,172.7L209.9,172.7L209.8,172.8L209.4,172.7L209.3,172.6L209,172.3L208.7,172.2L208.6,172L208.3,172.1L208.2,172.2L208,172.4L208.1,172.5L208.2,172.6L208.2,172.6L207.8,172.7L206.9,172.6L206.6,172.5L206.3,172.3L205.8,172.2L205.6,172.1L205.3,172.2L204.7,172.2L204.5,172.2L204.4,172.3L204.3,172.2L204.3,172.1L204.3,172.1L204.4,172L204.5,171.8L204.5,171.7L204.5,171.7L204.4,171.7L204.1,172.1L204.2,172.3L204.2,172.4L203.8,172.4L202.8,172.9L202.4,173.2L202.4,173.1L202.9,172.7L202.7,172.7L202.4,172.8L202.3,172.7L202.4,172.5L202.4,172.2L202.2,172.2L202.1,172.4L202,172.4L201.9,172.3L201.8,172.4L201.9,172.8L202,173L202.1,173.2L201.8,173.5L201.5,173.7L201.5,173.9L201.2,174.2L201,174.4L200.4,174.7L200.2,174.8L200,175L199.6,175.1L199.3,175.3L199.2,175.4L199.4,175.2L199.6,175L199.4,175L199.1,175L198.9,175L198.9,175L198.7,175.1L198.5,175L198.5,174.9L198.4,174.8L198.4,174.8L198.3,174.8L198.5,175.4L198.6,175.4L198.8,175.4L198.6,175.6L198.5,175.7L198.2,175.7L198,175.5L198,175.8L197.9,176L197.9,176.1L197.7,176.2L197.7,176.1L197.7,176L197.6,176.1L197.5,176.2L197.3,176.2L197.2,176.2L197.2,176.3L197.2,176.4L197.4,176.3L197.3,176.6L197.1,176.9L197,176.9L196.7,176.9L196.6,176.9L196.6,177L196.9,177.4L196.7,178L196.6,178.2L196.5,178.2L196.4,178.3L196,178.1L195.8,177.9L196,178.3L196.5,178.4L196.5,178.6L196.5,178.7L196.4,178.9L196.3,179.1L196.4,179.2L196.4,179.6L196.5,179.8L196.6,180.3L196.6,180.5L197,181.3L197.2,181.3L197.2,181.4L197.2,181.5L196.9,181.6L196.8,181.6L196.7,181.7L196.7,181.7L196.7,181.7L196.6,181.7L196.2,181.5L195.8,181.3L195.2,181.3L194.7,181.2L194.5,181L194.3,180.9L194,180.9L193.8,180.8L193.7,180.6L193.5,180.5L193.1,180.5L192.9,180.4L192.8,180.1L192.8,180.1L192.7,179.6L192.5,179.3L192.2,178.9L192.2,178.9L192.2,178.8L192.2,178.6L192.2,178.4L192.1,178.3L192.1,178.2L192.1,178L192.1,177.9L192.1,177.7L191.9,177.5L191.5,177.2L191.3,176.9L191,176.5L190.8,176.1L190.5,176L190.4,175.8L190.3,175.5L190.3,175.4L190.3,175.3L190.1,175.1L189.8,174.5L189.6,174.2L189.6,173.9L189.4,173.7L189,173.3L188.8,173.1L188.8,173L188.2,172.5L188,172.3L187.9,172.2L187.7,172.2L187.7,172.2L187.7,172.1L187.6,172.1L187.5,172.2L187.2,172.2L186.7,172.1L186.3,172.1L186.1,171.9L185.9,172L185.8,172.1L185.6,172.2L185.4,172.2L185.1,172.5L184.9,173L184.8,173.3L184.8,173.5L184.8,173.6L184.6,173.6L184.5,173.8L184.3,174L184.2,174.1L184,174.1L183.6,173.9L183.1,173.6L182.7,173.4L182.4,173.3L182.1,173.2L181.9,172.9L181.7,172.8L181.5,172.7L181.3,172.4L181,172L180.9,171.6L180.9,171.3L180.5,170.5L180.4,170.2L180.2,170L180,169.8L179.6,169.6L179.1,169.2L178.4,168.5L178,168.1L177.7,168L177.5,167.7L177.3,167.4L177.1,167.2L177.1,167.2L177,167.2L176.6,167.1L176.1,167.1L175.6,167.1L175.1,167.1L174.7,167.1L174.2,167.1L173.7,167.1L173.2,167.1L173.2,167.4L173.2,167.7L173.2,168L173.2,168.3L172.5,168.3L171.7,168.3L170.9,168.3L170.2,168.3L169.4,168.3L168.6,168.3L167.9,168.3L167.1,168.3L166.1,167.9L165,167.5L164,167.2L163,166.8L162,166.4L160.9,166L159.9,165.6L158.9,165.3L159,165.1L159.1,164.7L158.9,164.8L158.3,164.8L157.6,164.9L157,164.9L156.4,165L155.8,165L155.2,165.1L154.5,165.1L153.9,165.2L153.9,165.2L153.9,164.9L153.8,164.8L153.7,164.9L153.6,164.5L153.6,164.3L153.6,164.2L153.5,163.7L153.2,163.2L152.5,162.6L152.1,162.4L151.9,162.1L151.7,162.1L151.5,162L151.4,162.2L151.1,162.1L151.2,161.8L150.9,161.4L150.7,161.3L150.2,161.3L149.6,161.1L149.4,161L149.3,160.7L149,160.5L148.6,160.3L148.3,160.4L148,160.3L147.6,160.2L147.3,160.2L146.8,160.2L146.7,160.2L146.5,160L146.3,159.9L146.3,159.6L146.3,159.4L146.3,159.3L146.3,158.9L146.3,158.6L146.3,158.5L146.2,158.4L145.8,158.2L145.8,158L145.8,157.8L145.8,157.6L145.5,157.5L145.2,157.2L144.9,157L144.8,156.7L144.6,156.5L144.5,156.3L144.1,155.7L143.6,155.2L143.6,155L143.6,154.6L143.7,154.3L143.8,154.1L143.8,154L143.8,153.8L143.6,153.6L143,153.4L142.5,152.9L142.5,152.4L142.3,151.9L142.3,151.6L142.3,151.3L142.4,151.2L142.5,151.3L142.5,151.4L142.6,151.6L142.7,151.8L142.9,151.9L143,152.1L143.1,152.1L143.2,152.1L143.2,152L143.1,151.9L143,151.7L142.9,151.4L142.7,151.3L142.6,151L142.6,150.9L142.5,150.8L142.7,150.7L142.9,150.6L143.2,150.6L144,150.6L144.2,150.5L144.3,150.5L144.4,150.5L144.2,150.5L144.1,150.5L143.9,150.5L143.6,150.5L143.5,150.5L143.4,150.4L143.3,150.4L143,150.5L142.9,150.5L142.6,150.3L142.5,150.3L142.3,150.4L142.3,150.8L142.4,151.1L142.2,151.2L142.1,151L141.9,151L141.7,150.8L141.5,150.6L141.4,150.5L141.2,150.7L141.2,150.6L141.3,150.4L141.3,150.1L141.5,150.4L141.4,150.2L141.2,149.9L141.1,149.8L140.9,149.5L140.6,149.2L140.3,148.8L139.7,148.2L139.6,147.6L139.4,146.9L139.5,146.5L139.5,146.2L139.4,145.7L139.3,145.5L138.8,144.8L138.3,144.4L138.3,144.1L138.2,143.7L138.3,143.4L138.4,143.1L138.5,143L138.5,143L138.5,143.1L138.6,143.1L138.6,143L138.6,142.9L138.6,142.9L138.6,142.9L138.6,142.8L138.7,142.4L138.7,141.8L138.9,141.2L138.9,140.9L138.8,140.5L138.7,140.2L138.5,140L138.6,139.7L138.6,139.4L138.3,139L138.2,138.5L138.1,138.3L138.2,137.7L138.1,137.4L137.9,137L138,136.6L138.1,136.4L138.3,135.4L138.3,135.3L138.4,135.3L138.6,135.2L138.5,135.1L138.4,135.2L138.5,134.8L138.6,134.5L138.7,134.4L138.8,133.3L138.8,132.4L138.9,132.2L138.9,131.9L138.9,131.5L138.9,131.1L139.2,129.2L139.1,129L139.2,128.6L139.1,127.8L139.2,126.9L139.1,126.8L139.1,126.6L139.1,126.6L139.2,126.8L139.7,126.8L140.1,126.6L140.2,126.7L140.3,126.8L140.5,126.9L140.7,126.8L140.7,126.8L140.6,126.8L140.3,126.6L140.2,126.5L139.8,126.5L139.7,126.4L139.3,126.5L139.1,126.4L138.9,126.5L138.9,126.2L138.9,125.8L138.9,125.4L139,125.7L139.2,126L139.2,125.7L139.3,125.3L139.1,125.1L138.9,125L138.8,124.6L139.4,124.3L139.1,124.2L139,124.1L138.8,124.1L138.8,124.2L138.7,124.3L138.7,124.1L138.7,123.9L138.6,123.5L138.4,122.9L138.2,122.1L138,121.7L137.7,121.3L137.6,121.1L137.5,120.5L137.6,120L137.5,119.7L137.7,119.8L138.1,120L138.7,120.2L138.8,120.3L139.1,120.4L140.6,120.6L140.7,120.6L140.9,120.5L140.9,120.5L141.1,120.7L141.3,120.7L141.4,120.7L141.5,120.7L141.7,120.5L141.7,120.6L141.7,120.7L141.8,120.9L141.9,121.2L142,121.4L141.7,121.8L141.6,121.8L141.6,121.7L141.6,121.6L141.1,122.4L140.9,122.8L140.9,123L140.9,123.1L141,123.1L141.1,123L141.4,122.9L141.4,122.9L141.2,122.9L141.1,122.9L141.1,122.7L141.1,122.7L141.2,122.4L141.4,122.2L141.6,122.1L141.7,121.9L141.8,121.7L142.1,121.5L142.1,121.4L142.1,121.2L142.1,121.2L142.2,121.2L142.3,121.6L142.2,121.7L142,121.9L142,122L142,122.2L142,122.2L141.9,122.2L141.9,122.2L142.1,122.5L142.2,122.7L142.2,122.9L142.1,123.3L142.1,123.3L142,123.3L141.8,123.2L141.8,123.2L141.7,123.5L141.7,123.5L141.6,123.1L141.6,123.1L141.4,123.3L141.3,123.4L141.2,123.6L141.1,123.7L141.4,123.8L141.6,123.7L141.8,123.8L141.9,123.8L142,123.7L142.1,123.6L142.2,123.3L142.3,123.2L142.4,123.2L142.5,123.2L142.6,123L142.6,122.9L142.6,122.5L142.6,122.3L142.5,122.2L142.5,122.1L142.5,122L142.5,121.9L142.5,121.8L142.5,121.7L142.5,121.6L142.7,121.3L142.7,121.2L142.8,120.9L142.8,120.8L142.7,120.7L142.6,120.6L142.5,120.4L142.5,120.4L142.5,120.4L142.5,120.7L142.5,120.7L142.3,120.6L142.2,120.5L142.2,120.3L142.2,120.2L142.4,120.1L142.5,120.1L142.5,120L142.3,119.8L142.2,119.6L142.1,119.6L142,119.6L141.9,119.5L141.9,119.5L141.9,119.4L142,119.4L142.2,119.4L142.3,119.3L142.3,119.2L142.3,119.2L142.3,118.8L142.2,118.5L142.2,118.4L142.1,118.4L142.1,118.5L142,118.5L141.9,118.4L141.8,118.2L141.7,117.7L141.9,117.7L142.8,117.7L143.7,117.7L144.7,117.7L145.6,117.7L146.5,117.7L147.4,117.7L148.3,117.7L149.3,117.7L150.2,117.7L151.1,117.7L152,117.7L153,117.7L153.9,117.7L154.8,117.7L155.7,117.7L156.7,117.7L157.6,117.7L158.5,117.7L159.4,117.7L160.4,117.7L161.3,117.7L162.2,117.7L163.1,117.7L164,117.7L165,117.7L165.9,117.7L166.8,117.7L167.7,117.7L168.7,117.7L169.6,117.7L170.5,117.7L171.4,117.7L172.4,117.7L173.3,117.7L174.2,117.7L175.1,117.7L176.1,117.7L177,117.7L177.9,117.7L178.8,117.7L179.7,117.7L180.7,117.7L181.6,117.7L182.5,117.7L183.4,117.7L184.4,117.7L185.3,117.7L186.2,117.7L187.1,117.7L188,117.7L189,117.7L189.9,117.7L190.8,117.7L191.7,117.7L192.7,117.7L193.6,117.7L194.5,117.7L195.4,117.7L196.4,117.7L197.3,117.7L198.2,117.7L199.1,117.7L200.1,117.7L201,117.7L201.5,117.7L201.5,117L201.5,116.5L202,116.5L202.1,116.7L202.2,116.7L202.1,116.9L202.2,117.3L202.3,117.7L202.5,118.2L202.5,118.2L202.5,118.3L202.5,118.5L202.7,118.6L203.1,118.7L203.9,118.8L204.3,119L204.4,119.2L204.6,119.3L205,119.2L205.2,119.1L205.3,119L205.6,118.9L205.8,118.9L206.1,119L206.2,119L206.5,119.1L206.8,119.2L207.1,119.5L207.3,119.6L207.3,119.8L207.4,120.1L207.6,120.1L207.7,119.9L208,119.9L208.3,120L208.6,120.3L209.1,120.6L209.4,120.8L209.7,120.8L210,120.6L210.4,120.3L210.7,120.3L210.8,120.3L210.9,120.6L211.1,120.6L211.4,120.6L212,120.7L212.5,120.6L212.6,120.7L212.7,120.9L212.9,121L213.2,120.9L213.6,121L213.8,121L214.2,120.9L214.4,120.8L214.7,120.7L215.1,120.5L215.7,120.1L216.2,120L216.7,120.2L217,120.5L217.2,120.6L217.5,120.8L218.1,121.1L218.7,121.5L219.3,121.8L219.9,122.1L220.3,122.4L220.4,122.5L220.8,122.7L221.2,123L221.7,123.2L222.1,123.5L222.5,123.7L222.9,124L223.3,124.2L223.8,124.5L223.9,124.9L224,125.3L224.2,125.6L224.4,125.9L224.6,125.9L224.7,125.8L224.8,125.7L224.9,125.7L225.2,125.6L225.3,125.6L225.4,125.7L225.4,125.8L225.4,125.8L225.3,125.9L225.4,126.2L225.4,126.4L225.5,126.6L225.6,126.9L225.7,127.1L225.9,127.1L226.2,127L226.4,126.9L226.5,127L226.7,127.1L226.8,127.3L226.8,127.3L226.5,127.9L227,128.2L227.4,128.5L228,128.8L228.3,129L228.8,129.4L228.9,129.8L228.9,130.2L229,130.7L229.1,131.2L229.2,131.7L229.3,132.3L229.4,132.9L229.5,133.4L229.6,134L229.7,134.7L229.6,135L229.3,135.7L229.1,136.2L229.1,136.4L228.9,137.2L228.8,137.5L228.6,137.7L228.4,137.9L228.1,138.3L227.8,138.4L227.7,138.5L227.6,138.6L227.5,139L227.5,139.4L227.8,139.9L228.1,140.1L228.5,140.3L229,140.3L229.5,140L230,139.7L230.5,139.4L231.1,139.1L231.6,138.8L232.1,138.7L232.8,138.5L233.8,138.3L234.2,138.1L234.8,137.8L235.5,137.5L236.1,137.2L236.4,137L236.6,136.8L236.7,136.7L236.7,136.6L236.6,136.6L236.5,136.5L236.5,136.5L236.4,136.4L236.4,136.3L236.4,136.2L236.3,136.1L236.4,135.6L236.3,135.5L236.1,135.1L236.5,134.9L236.8,134.7L237.1,134.6L237.7,134.6L238.2,134.6L238.9,134.6L239.5,134.6L240.2,134.6L240.7,134.6L241.2,134.6L241.5,134.1L241.7,133.7L242,133.3L242.4,132.8L242.6,132.7L242.7,132.5L242.9,132.4L243.3,132.2L243.4,132L243.4,131.9L244.3,131.1L244.8,130.7L245.2,130.5L245.5,130.4L245.7,130.4ZM250.5,142.3L250.4,142.5L250.5,142.5L250.7,142.5L250.8,142.3L251,142.2L251.3,142.1L251.3,142.1L251.4,142.2L251.6,142.1L251.9,142.1L250.9,142.6L250.7,142.6L250.4,142.8L250.2,142.9L250,142.9L249.1,143.3L249,143.3L248.9,143.2L248.1,143.4L247.8,143.4L247.5,143.5L247.7,143.4L247.8,143.3L247.7,143.3L247.6,143.3L247.5,143.4L247.3,143.5L247.2,143.3L247.3,143.2L247.4,143.1L247.6,142.9L247.8,142.7L248,142.6L248.1,142.7L248.1,142.6L248.2,142.5L248.2,142.5L248.4,142.5L248.5,142.5L248.6,142.4L248.7,142.4L248.9,142.5L249.1,142.5L249.2,142.4L249.4,142.4L249.8,142.3L250.3,142.3L250.5,142.2L250.8,141.9L251.1,141.8L250.7,142.2ZM259.9,132.4L259.8,132.5L259.6,132.5L259.6,132.6L259.6,132.7L259.5,132.6L259.4,132.6L259.4,132.4L259.6,132.2L259.7,132.1L259.8,132.1L259.9,132.4ZM246.9,143.6L246.8,143.6L246.9,143.4L247.1,143.2L247.2,143.3L247.2,143.4L247.1,143.5L247,143.6ZM254.9,141.2L254.3,141.3L254.2,141.2L254.3,141.2L254.5,141L254.6,141L254.8,141.1ZM253.3,140.9L253.2,140.9L253.1,140.9L253.1,140.8L253.1,140.7L253.2,140.5L253.2,140.4L253.3,140.4ZM256,141.5L255.9,141.6L255.5,141.4L255.8,141.4L255.8,141.3L255.9,141.2L255.9,141.1L256,141.4ZM243.8,156.5L243.7,156.6L243.6,156.3L243.7,156.4L243.8,156.4ZM244,158.1L243.7,158.2L243.7,158.2L244,158L244.1,157.5L244.1,157.3L244.1,156.8L244.1,156.7L244.1,156.9L244.2,157.3L244.1,157.6L244,158ZM243.5,158.3L243.1,158.5L243,158.4L243.3,158.3ZM241.9,159.7L241.8,159.7L242,159.4L242.4,159L242.5,158.9L242.2,159.3ZM229.9,180.3L229.8,180.4L229.7,180.4L229.6,180.3L229.6,180.1L229.7,180.3L229.7,180.3ZM229.8,180.1L229.8,180.2L229.7,180L229.6,179.7L229.7,179.8ZM233.5,183.5L233.1,183.9L233.1,183.8L233.3,183.6L233.3,183.5L233.4,183.4L233.6,183.3L233.6,183.1L233.7,183L233.8,183ZM208.8,172.9L208.7,172.9L208.3,172.7L208.3,172.6L208.5,172.5L208.6,172.5L208.8,172.6L208.8,172.7L208.9,172.7L208.8,172.8ZM197.5,176.8L197.4,176.8L197.5,176.6L197.6,176.5L197.7,176.3L197.8,176.2L197.9,176.4L197.7,176.5ZM198,176.2L197.9,176.2L198,176.1L198.2,176L198.6,175.8L198.7,175.7L198.8,175.6L198.8,175.6L198.8,175.7L198.5,175.9ZM196.7,178.3L196.7,178.4L196.7,178.2L196.9,177.7L197.2,177.1L197.4,177L197,177.7ZM201.8,173.7L201.6,173.8L202.1,173.4L202.2,173.3L202.3,173.3L202.1,173.5ZM197.1,181.1L197.1,181.2L196.9,180.6L196.6,179.5L196.6,178.8L196.7,178.5L196.7,179.5L197.1,180.7ZM147,161.3L146.9,161.3L146.7,161.3L146.8,161.3L146.9,161.2L146.9,161.2ZM148.9,163.4L148.8,163.4L148.7,163.4L148.6,163.3L148.7,163.3L148.8,163.3L148.9,163.4ZM151.3,164.4L151.2,164.5L151,164.4L150.9,164.2L150.8,164L150.8,163.9L150.9,164.1L151.2,164.4ZM147.6,161.6L147.5,161.7L147.3,161.6L147.2,161.4L147.5,161.3L147.7,161.4L147.7,161.5ZM148,161.2L148.4,161.3L148.6,161.3L148.7,161.3L148.6,161.4L148.1,161.5L147.9,161.4L147.9,161.3L147.9,161.2ZM151.3,163L151.4,163.2L151.2,163.2L151.1,163.2L151,163.1L151,162.9L150.9,162.9L150.8,162.9L150.8,162.9L150.8,162.8L150.8,162.8L151.2,162.9ZM141.7,118.8L141.7,118.9L141.6,118.9L141.6,118.9L141.5,118.8L141.4,118.8L141.5,119L141.4,119L141.2,118.9L141.2,118.9L141.3,118.8L141.4,118.7L141.4,118.7ZM141.2,119.3L141.2,119.5L141,119.4L140.9,119.3L140.9,119.3L140.8,119.1L140.9,119L141,119L141.1,119.2ZM142.1,120.5L142.2,120.9L142.3,120.7L142.6,121L142.6,121.2L142.5,121.2L142.5,121.2L142.4,121.2L142.4,121.1L142.3,121L142.2,121L142.1,120.9L142.1,120.8L142.1,120.6L142,120.5L141.9,120.5L141.9,120.4L141.8,120.2L141.7,120.2L141.8,120.1L141.9,119.8L142,119.7L142.1,119.7L142.1,119.8L142.2,119.9L142.2,120L141.9,120.2L141.9,120.2L142,120.3L142.1,120.3ZM253,140.9L253,140.9L252.9,140.8L253,140.6L253,140.6L253,140.7ZM247,146L246.8,146.4L246.8,146.4L247.1,145.8ZM244.4,151L244.3,151L244.7,150.5L244.9,150L244.9,149.9L244.9,150.2L244.7,150.5ZM241.8,159.7L241.8,159.7L241.7,159.7L241.6,159.6L241.5,159.6L241.6,159.6ZM231.4,184.7L231.4,184.7L231.3,184.7L231.3,184.6L231.2,184.5L231.2,184.4L231.5,184.6L231.5,184.6ZM232.5,184.3L232.5,184.3L232.5,184.3L232.6,184.2L232.6,184.2L232.6,184.3ZM232.9,184.1L232.9,184.1L233,184L233,184ZM232.1,184.5L232,184.6L231.9,184.5L232,184.5L232.3,184.4L232.2,184.5ZM231.2,169.2L231.2,169.8L231.1,169.6L231.1,169.4L231.2,169.2ZM230.9,184.8L230.8,184.8L230.9,184.7L230.9,184.6L231,184.7L231,184.8ZM233.9,178.3L234,178.5L233.8,178.1L233.5,177.4L233.4,176.9L233.5,177.1L233.6,177.4ZM230.5,184.9L230.4,184.9L230.4,184.9L230.5,184.8L230.6,184.8L230.6,184.9ZM215.1,172.3L215,172.5L215,172.4L215,172.3L215.1,172.2ZM215.8,171.1L215.8,171.1L215.6,171.1L215.5,171L215.4,171L215.8,171ZM216.8,171L216.7,171L216.4,171L216.3,171L216.4,171L216.8,170.9ZM214.3,171.4L214.4,171.5L214.3,171.5L214.1,171.5L214.2,171.4L214.2,171.4L214.2,171.3L214.4,171.2L214.4,171.3ZM215.2,172.1L215.1,172.2L215.2,171.8L215.1,171.5L215.2,171.6L215.2,171.8ZM223.7,172.5L223.5,172.6L223.2,172.5L223.4,172.5L223.5,172.5L223.8,172.4L223.9,172.3L224.1,172.3ZM141.5,123.5L141.5,123.6L141.5,123.6L141.4,123.5L141.4,123.4L141.5,123.3L141.5,123.5ZM142.5,122.9L142.5,123L142.4,123.1L142.4,123L142.4,123L142.4,122.9L142.3,123L142.3,122.8L142.3,122.6L142.4,122.6L142.4,122.8ZM142.3,122.3L142.3,122.3L142.2,122.3L142.1,122.2L142.1,122.1L142.2,122L142.2,121.9L142.2,122L142.3,122ZM141.6,119.6L141.6,119.6L141.4,119.6L141.4,119.5L141.4,119.4L141.4,119.2L141.5,119.2L141.5,119.2L141.5,119.3L141.6,119.5ZM259,132.9L258.9,132.9L258.8,132.9L258.8,132.8L258.8,132.7L258.8,132.7L258.9,132.7Z" fill="#b8e653" stroke="#0c0e06" stroke-width="1"/></svg>
