<svg xmlns="http://www.w3.org/2000/svg" viewBox="0 0 300 300"><path fill="#e8e8ea" d="M-3.9,31.8L-4.2,32.2L-4.3,32.7L-4.4,33.2L-4.5,33.7L-4.5,34.2L-4.4,34.7L-4.1,35.6L-4,36.1L-4,36.5L-4.6,37.8L-4.8,38.4L-4.8,38.6L-5.2,39.3L-6,40.2L-6.4,40.7L-6.6,40.5L-7.6,40.4L-8,39.2L-8.2,38.4L-8.5,37.6L-8.5,37.4L-8.3,36.9L-7.2,36.5L-7.2,36.3L-7.6,36.2L-7.7,36.1L-7.8,35.2L-7.8,34.5L-7.8,34L-8,33L-8.2,32.4L-8.9,31.2L-9,30.9L-8.7,30.5L-8.5,30.2L-9.6,30.8L-11.2,31.4L-11.9,31.9L-12,32.1L-12.1,32.2L-11.9,32.6L-11.9,32.8L-12.1,33L-12.3,33.7L-12.6,34.5L-12.8,34.6L-13.4,34.3L-13.5,34.1L-13.8,33.1L-13.8,32.9L-13.5,32.7L-13.2,32.2L-12.9,31.5L-12.1,29.6L-11.7,29.6L-10.8,29.2L-12.1,29L-12.3,28.9L-12.5,28.7L-12.7,28.3L-12.9,27.8L-13.4,27.7L-13.6,27.5L-14,26.9L-14.2,26.7L-14.3,26.4L-14.3,26L-14.4,25.8L-14.8,25.7L-15,25.6L-15,24.7L-15.7,24.4L-16,24.2L-16.5,23.6L-16.6,23.3L-16.6,23.1L-16.5,22.4L-16.5,22.3L-17,22.3L-19.4,21.3L-19.3,19.9L-19.8,18.1L-20.3,17.4L-20.2,17.1L-20.1,16.9L-19.8,16.9L-18.9,17.5L-18,18.1L-17.9,18L-19.3,16.7L-19.7,16.3L-19.7,15.8L-19.8,15.5L-19.6,15.4L-18.3,15.5L-18.2,15.4L-19.6,15L-19.9,15L-20.1,15.6L-20.3,15.7L-20.6,15.7L-20.7,15.6L-21,14.9L-21.4,14.4L-22,13.7L-22.1,13.3L-22.1,12.6L-22,11.9L-21.5,10.4L-21.3,10.1L-21.3,9.9L-21.4,9.9L-21.6,10.1L-22,10.8L-22.4,12L-22.8,12.4L-23,12.3L-23.3,11.8L-24,11.2L-24.8,11.1L-25.3,10.5L-26.1,8.8L-26.2,8L-26.3,7.8L-26.7,7.5L-26.9,7.1L-27.3,5.1L-27.8,3.6L-28,2.9L-27.9,2.1L-28,2L-28.2,2.6L-28.2,2.9L-28.5,3L-28.2,3.6L-28.1,3.9L-28.3,3.9L-28.6,4L-28.1,5L-27.9,6.5L-27.5,7.7L-27.3,8.6L-27.2,9.3L-27,10L-26.6,11.4L-26.6,11.7L-26.6,12L-26.7,12.3L-27,12.4L-27.7,12.2L-28,11.8L-28.4,11.1L-28.9,10.8L-30.3,11L-30.4,10.9L-30.4,10.4L-30.2,9.4L-30.3,9L-31.1,7.6L-31,7.3L-30.1,6.6L-30.5,6.6L-30.9,6.8L-31.1,6.7L-31.3,5.7L-31.5,5.4L-31.5,5.3L-31.6,6.2L-31.4,6.7L-31.4,6.9L-31.4,7.3L-31.5,7.6L-31.7,7.7L-31.9,7.8L-32.2,7.6L-32.6,7.2L-32.9,7.1L-33,6.9L-33.2,6.5L-33.4,6.2L-34.6,5.9L-35.3,5.4L-35.4,5.5L-35.1,6L-35.1,6.3L-35.3,6.4L-35.6,6.8L-35.5,6.9L-35.2,6.7L-34.8,6.8L-34.2,7L-33.6,7.4L-33.4,7.6L-33.3,7.9L-33.3,8L-32.7,8.3L-32.7,8.5L-33,9L-32.3,9L-31.9,9.2L-31.3,10L-31.1,10.5L-31.1,11.1L-31.2,11.2L-31.4,11.4L-32.9,11.5L-33.5,12.3L-33.6,12.3L-34,12.1L-34.7,11.5L-35.7,11L-37.8,9.4L-37.9,9.3L-37.9,9L-38.1,8.8L-38.3,8.7L-38.7,8.3L-39.3,7.6L-39.6,7.1L-39.7,6.7L-40,6.2L-40.9,5.3L-41.4,5L-41.9,4.8L-42.3,4.7L-42.4,4.6L-42.2,4.4L-42.2,4.3L-43,4.1L-43.8,3.7L-45.9,2.4L-47,1.7L-47.6,1.3L-47.8,1.1L-48,0.9L-47.8,0.7L-47.4,0.6L-47.1,0.4L-46.7,-0.4L-46.6,-0.7L-46.9,-1.3L-47,-1.8L-47,-2.1L-46.9,-2.4L-46.9,-2.5L-46.7,-2.7L-46.5,-2.8L-46.4,-2.8L-45.9,-2L-45.8,-1.8L-45.8,-0.8L-45.7,0.3L-45.6,0.3L-45.6,-0.1L-45.5,-0.8L-45.5,-1.2L-45.4,-1.5L-45.2,-1.7L-44.6,-1.6L-44.3,-1.7L-45.5,-2.2L-46.2,-3.1L-46.3,-3.3L-46.7,-3.3L-47.1,-2.9L-48.2,-1.6L-48.5,-1.4L-49.8,-0.7L-50.8,-0.5L-51.8,-0.7L-52.7,-0.9L-54.9,-2L-55.2,-2.3L-54.7,-3L-54.7,-3.2L-54.9,-3.9L-55,-4.1L-55.2,-4.2L-55.3,-4.1L-55.3,-3.9L-55.2,-3.5L-55.4,-3.3L-55.8,-3.1L-56.4,-2.9L-58.3,-3.4L-60.3,-3.9L-62.1,-4L-64.7,-3.6L-66,-3.3L-66.8,-3.2L-67.5,-3.3L-67.6,-3.6L-67.3,-3.7L-67.3,-3.9L-67.7,-4.5L-68.4,-4.9L-69.3,-5L-69.8,-5.2L-69.9,-5.4L-70.2,-5.6L-70.7,-5.8L-70.9,-6.2L-70.8,-7.3L-70.6,-8L-70.4,-8.5L-70,-9.2L-70.1,-9.2L-70.8,-8.6L-71.3,-8L-71.8,-7.3L-72.1,-6.9L-72.5,-6.6L-73.1,-6.7L-73.9,-7.1L-74.6,-7.4L-75.2,-7.4L-75.4,-7.5L-75,-7.9L-74.8,-8.3L-74.5,-8.8L-74.4,-9.1L-76.6,-9.2L-76.6,-9.5L-76.6,-9.7L-76.7,-9.8L-77,-10L-77.5,-9.9L-78.2,-9.5L-78.5,-9.8L-78.3,-9.9L-78.1,-10L-77.7,-10.5L-78.3,-10.8L-78.6,-11.1L-78.8,-11.3L-78.8,-12.2L-78.6,-12.8L-77.2,-13.3L-77.6,-13.6L-78.5,-13.5L-79.1,-13L-79.8,-12.3L-80.3,-12.1L-80.6,-12.3L-80.9,-12.3L-81.3,-12.3L-81.5,-12.1L-81.7,-11.8L-81.8,-11.6L-82,-11.5L-82.2,-11.5L-82.4,-11.8L-82.8,-12L-83,-12.2L-83.1,-12.1L-83.2,-11.7L-83.4,-11.5L-84,-11.2L-84.4,-11.3L-84.9,-11.8L-84.9,-12L-84.8,-12.5L-83.8,-14.3L-83.9,-14.3L-84.2,-14L-84.8,-13.3L-85.1,-13.1L-85.6,-13L-85.8,-13.1L-86.1,-13.1L-86.4,-12.9L-86.6,-12.6L-86.7,-12.4L-86.7,-12.4L-86.2,-12.6L-85.9,-12.7L-85.8,-12.6L-86.2,-11.7L-86.5,-10.9L-86.7,-10.7L-87,-10.8L-87.4,-10.7L-87.4,-10.5L-86.7,-9.8L-86.4,-9.7L-86.1,-9.5L-86.1,-9.3L-86.2,-8.7L-86.3,-8.4L-86.4,-8.3L-87,-8.3L-87.2,-8.3L-87.6,-7.9L-87.8,-7.6L-87.7,-7.6L-87.4,-7.8L-86.9,-8L-86.2,-8L-85.8,-8.1L-85.4,-8.4L-85.1,-8.3L-84.8,-7.9L-84.7,-7.5L-84.9,-7.2L-85.1,-7L-85.5,-6.9L-85.7,-6.7L-85.8,-6.4L-85.9,-6.1L-85.9,-5.6L-85.8,-4.7L-85.9,-4.5L-86,-4.5L-86.2,-4.5L-86.4,-4.2L-86.8,-3.1L-87,-2.9L-87.2,-3L-87.3,-3L-87.5,-2.9L-87.8,-2.8L-88.3,-2.7L-88.7,-2.7L-89.4,-3L-89.7,-3.1L-90,-3.4L-90.6,-3.1L-90.8,-3.3L-91.2,-4.1L-91.3,-4.1L-91.4,-3.1L-91.5,-2.8L-91.9,-2.2L-92.1,-1.1L-92.2,-1L-92.2,-1.2L-92.5,-2.2L-92.6,-2.4L-93,-1.9L-93,-1.6L-92.9,-0.9L-93,-0.8L-93.8,-1.2L-93.9,-1.2L-94,-1.1L-93.7,-0.6L-93.8,-0.4L-94.8,0.7L-95.1,0.7L-95.2,0.6L-95.4,0.6L-96.1,1L-96.3,1L-96.5,0.8L-96.6,0.8L-96.7,1L-96.7,1.5L-97,2L-97.8,2.7L-98,3.1L-98.1,3.5L-98.2,3.6L-98.7,3.3L-99.2,3.1L-99.3,3.2L-99.2,3.5L-99.2,3.7L-99.4,3.7L-99.7,3.7L-100.1,3.6L-100.6,3.7L-101.2,4.1L-101.7,4.1L-102.5,3.5L-102.7,3.4L-102.8,3.2L-102.6,2.7L-102.4,2.3L-102.2,2.2L-101.5,1.7L-100.7,1.5L-100.2,1.2L-99.6,0.6L-99.3,0.1L-98.6,-1.1L-98.7,-1.2L-98.8,-1.2L-100.2,-0.1L-100.4,0L-100.7,0L-101.9,-0.5L-102.1,-0.6L-102.3,-1.2L-101.9,-2.4L-101.7,-3L-101.2,-4L-100.4,-5L-100.2,-5.6L-99.8,-7.4L-99.8,-8.2L-100,-9.2L-100,-9.7L-99.9,-9.9L-98.2,-10.8L-97.4,-11.5L-95.9,-12.5L-95.5,-12.5L-95.2,-12.1L-94.8,-11.9L-94.4,-11.7L-93.9,-11.7L-93.3,-11.9L-92.3,-11.8L-90.2,-11.2L-89.7,-11.2L-89.7,-11.2L-90,-11.7L-91.5,-12L-92.1,-12.2L-93.8,-13.4L-94.2,-13.9L-94,-14.1L-93.6,-14.3L-93.4,-14.4L-93.4,-14.8L-93.1,-15.2L-92.7,-15.7L-92.1,-16.2L-90.9,-16.9L-91.4,-17L-92.2,-16.8L-92.5,-16.7L-93.1,-16.2L-93.3,-15.8L-93.7,-15L-93.8,-14.9L-94.4,-14.8L-96,-14.7L-96.3,-15.1L-96.5,-15.2L-96.7,-15.1L-98.2,-14.1L-98.7,-13.7L-99.1,-13.1L-99.7,-12.7L-100.5,-12.4L-101.1,-12.1L-101.7,-11.5L-101.9,-11L-101.9,-10.8L-101.8,-10L-102,-9.9L-102.3,-9.8L-102.9,-9.4L-104.1,-7.9L-104.3,-7.4L-104.3,-7.3L-104.1,-6.9L-104.2,-6.6L-104.6,-6.2L-105.4,-5.5L-105.9,-5.3L-106.2,-5.3L-106.5,-5.4L-107.1,-5.8L-107.5,-5.8L-107.6,-5.8L-106.9,-5.3L-106.3,-4.7L-105.9,-4.3L-105.8,-3.9L-105.8,-3.5L-105.9,-3.1L-106.3,-2.4L-106.8,-2.2L-107.9,-2L-108.3,-1.9L-108.4,-1.7L-107.6,-1.4L-107.5,-1.3L-107.6,-0.7L-107.8,-0.5L-108.5,-0.2L-109.1,-0.1L-109.2,-0.2L-109,-0.6L-109.1,-0.7L-109.3,-0.8L-109.6,-0.6L-110.4,0L-110.4,0.1L-110.2,0.3L-110.2,0.5L-110.6,0.9L-110.8,1.2L-111.1,1.6L-112.3,2.5L-112.2,2.8L-112.5,3.6L-112.7,4.4L-112.5,4.7L-111.5,5L-111,5.1L-110.4,5.4L-109.3,6.1L-108.9,6.5L-108.9,6.7L-108.9,7L-109.1,7.3L-109.4,7.9L-110.2,8.7L-110.6,9L-111.1,9.2L-111.3,9.3L-112,10.1L-112.2,10.6L-112.2,11L-112.3,11.2L-113.2,11.8L-113.2,11.8L-112.9,11.9L-113,12.3L-113,13L-113.2,13.1L-113.8,13.1L-114.5,13.3L-114.5,13.4L-114.6,13.9L-116.5,14.2L-116.9,15.1L-117.1,15.4L-117.8,16L-118.3,16.2L-118.8,16.4L-119.1,16.6L-119.1,16.9L-119.3,17.1L-119.7,17.5L-119.9,18L-120.1,18.1L-120.9,18.2L-121.1,18.4L-121.2,19L-121.3,19L-121.6,18.9L-122,19L-122.9,19.7L-123.1,20L-123.1,20.2L-122.9,20.3L-122.7,20.7L-122.7,21L-123.1,21.9L-123.2,22L-123.6,22.2L-123.8,22.7L-124.1,22.6L-124.4,22.7L-124.6,23L-124.9,23.2L-125.1,23.2L-125.4,23.4L-125.7,23.9L-126.1,24.2L-126.4,24.3L-126.7,24.3L-126.9,24.2L-127.2,24.3L-127.4,24.5L-127.6,24.7L-127.8,25.4L-128,25.7L-128.2,25.8L-128.5,25.7L-128.9,25.6L-129.4,25.7L-130.1,26.1L-130.3,26.4L-129.8,26.5L-129.6,26.6L-129.6,26.7L-129.9,26.8L-130.3,26.8L-130.5,26.8L-130.8,27L-131.5,27.2L-131.8,27.4L-132.4,28.2L-132.4,28.4L-132.4,28.4L-132.1,28.3L-131.7,28.5L-131.5,28.6L-131.4,28.8L-131.3,29.3L-131.2,29.3L-131.9,30L-132.1,30.3L-132.2,30.4L-132.3,30.3L-132.4,29.5L-132.4,29.4L-132.6,29.4L-132.8,29.6L-133.1,30.6L-133.5,31L-136.4,32.2L-136.8,32.4L-136.9,32.9L-137,33.3L-137.2,33.7L-137.4,33.9L-137.5,33.7L-137.5,32.6L-137.5,32.3L-137.8,32.1L-137.9,32.2L-138.1,32.2L-138.4,32.5L-138.6,32.6L-138.8,32.6L-139.2,32.8L-140,33.6L-140.6,33.8L-140.8,34L-141,34.4L-141.2,34.6L-141.4,34.6L-141.8,34.5L-142,34.6L-142.2,34.9L-142.4,35L-143,34.8L-143.2,34.9L-143.6,35.4L-143.9,35.7L-144.3,35.8L-145.2,35.9L-145.5,35.8L-145.6,35.7L-145.6,35.2L-145.5,34.8L-145.3,34.6L-145.1,34.5L-144.9,34.4L-144.4,34.5L-144.4,34.4L-144.6,34.3L-145.1,34L-145.5,33.9L-145.8,34L-146.2,34.2L-146.4,34.4L-146.5,34.7L-146.7,35.5L-146.8,35.8L-147.9,37.3L-148.3,37.8L-148.7,37.7L-148.9,37.9L-149.2,38.3L-149.5,38.4L-149.7,38.4L-149.9,38.4L-150,38.2L-150,38.1L-149.8,38L-149.9,37.7L-150.2,37.2L-150.4,36.9L-150.8,36.9L-150.9,37.1L-150.7,38.3L-150.7,38.5L-151,38.9L-151.7,39.2L-151.9,39.2L-152.5,38.5L-153,38.3L-153,38.6L-152.9,39.1L-153.1,39.5L-153.5,39.9L-153.8,40.1L-154,40.1L-154,39.8L-153.8,39.3L-153.7,38.8L-153.8,38.4L-153.8,38.1L-153.7,37.9L-153,37.3L-152.7,37.2L-152.5,37.4L-152.3,37.4L-152,37.3L-151.9,37.1L-151.8,36.9L-151.5,36.5L-150.9,36.1L-150.3,35.3L-149.5,34.1L-148.7,33.2L-147.7,32.3L-146.6,31.6L-144.4,30.7L-144.3,30.8L-144.5,31.1L-144.3,31.3L-144.1,31.3L-143.3,31.1L-143,30.9L-142.9,31.1L-143,31.4L-143.5,31.6L-143.5,31.8L-142.8,32.7L-142.6,32.9L-142.4,32.9L-142.3,32.7L-142.4,32.1L-142.1,31.9L-141.7,31.9L-141.3,32L-141.2,32.2L-140.9,32.4L-140.5,32.5L-140.3,32.5L-140.2,32.2L-140.3,32L-141.1,31.4L-141.3,31.2L-141.4,30.9L-141.3,30.4L-141,29.8L-140.6,28.9L-140.3,28.4L-139.6,27.7L-139.2,27.4L-138,26.3L-135.7,25.3L-135.2,24.6L-134.4,23.9L-134.1,23.7L-134.1,24L-134,24.2L-133.5,24.4L-133.1,24.5L-133,24.4L-132.9,24.1L-133,23.7L-133,23.2L-133,22.8L-132.9,22.4L-132.6,21.8L-132.1,21.1L-131.4,20.3L-130.9,19.9L-130.5,19.7L-130.2,19.3L-129.5,18.5L-129.2,18.3L-128.8,18.2L-128.6,18.2L-128.5,18.5L-128.3,18.6L-127.9,18.7L-127.5,18.5L-127.6,18.4L-127.8,18.4L-128,18.2L-128.2,17.7L-128.5,17.4L-128.6,17.1L-128.5,16.5L-128.2,15.2L-128.2,13.9L-127.9,13.2L-127.4,12.9L-126.3,12.7L-127,12.3L-127.2,12.3L-127.6,12.2L-127.8,11.4L-127.8,10.8L-127.5,10.1L-126.5,8.9L-125.3,8L-125.5,8L-125.6,7.7L-125.1,6L-124.6,4.6L-125.3,5.8L-126.1,6.8L-128.4,7.9L-130,8.9L-130.8,9.1L-131.3,8.9L-131.7,8L-131.9,7.6L-132.2,7L-132.1,6.3L-131.9,5.7L-131.4,5.7L-130.8,5.9L-130.3,5.9L-130.9,5.4L-131.8,5L-132.3,5.1L-132.6,5.8L-133,6.3L-133.4,6.2L-133.6,6L-133.4,6.6L-133.7,7.5L-133.8,8.2L-133.4,9.9L-133.5,10.6L-134.2,10.9L-134.8,10.3L-136.1,8.2L-136.5,7.5L-137.5,6.5L-137.8,6.7L-138.2,7.2L-138.6,7.3L-139.6,6.5L-140.1,6L-140.6,5.3L-141.3,5.7L-141.9,6.1L-142.6,6.8L-143.1,6.8L-144.4,7.5L-144.6,7.5L-144.7,7.8L-144.9,8L-145.1,8.6L-146.9,9.1L-148.6,8.8L-148,8.5L-147.3,8.2L-146.7,7.5L-147,6.6L-147,6.2L-147,5.6L-146.4,4.8L-147,4.8L-147.5,5.1L-147.9,4.4L-148.1,3.2L-147.6,2.5L-147.4,2L-147.2,1.2L-147.2,0.5L-147.6,-0.6L-148.6,-3L-149,-4.8L-149.9,-5.7L-149.3,-7.3L-148.6,-8.7L-147.7,-9.4L-147.8,-9.5L-148.3,-9.5L-148.6,-9.4L-148.9,-8.9L-149.2,-8.6L-150.1,-6.7L-150.7,-5.8L-151,-5.6L-150.4,-5.2L-150.3,-4.9L-150.2,-4.3L-150.4,-3.5L-150.5,-3.1L-151.3,-3.1L-151.9,-2.4L-153.5,-1.8L-155.5,-1.4L-156.6,-1.4L-157.6,-2.2L-157.6,-2.7L-157.6,-3.1L-159.1,-4.5L-160,-5.9L-160.6,-5.9L-161.1,-6.3L-161.7,-6.9L-161.7,-7.4L-161.6,-7.7L-162,-7.9L-162.5,-7.9L-163.1,-8.1L-161.5,-9.9L-161,-11.1L-160.6,-11.3L-160,-11.1L-159.3,-10.6L-158.6,-10.4L-158.4,-10.2L-158.2,-9.7L-158.4,-9L-158.6,-8.5L-158.4,-8.7L-157.6,-9.4L-157,-10.1L-156.7,-10.1L-156.5,-9.9L-156.2,-9.2L-155.8,-8.5L-154.9,-9.2L-154.4,-10L-154.8,-10.4L-155.3,-10.6L-156.6,-10.9L-156.2,-11.2L-155.4,-11.2L-155.1,-11.4L-155.4,-11.7L-155.8,-12L-156.9,-11L-159,-11.1L-160.4,-11.7L-161.8,-11.6L-162,-11.7L-162.3,-12L-161.5,-12.7L-160.9,-13.1L-160.9,-13.3L-161.2,-13.4L-161.8,-13.2L-162.1,-13.5L-162.1,-14.1L-162.1,-14L-162.4,-13.7L-162.7,-13.9L-163,-14.1L-162.9,-14.4L-162.6,-14.8L-162.7,-14.9L-163,-14.8L-163.2,-14.3L-163.2,-13.9L-163.2,-13.3L-163.6,-13.2L-164,-13.2L-164.3,-13.8L-164.6,-15.1L-165.4,-15.4L-165.6,-16.1L-165.1,-16.9L-165.3,-17.3L-165.8,-17.5L-166.4,-17L-166.7,-17.4L-166.7,-17.8L-166.7,-18.4L-166.6,-18.5L-166.4,-18.3L-165.2,-18.7L-165.1,-18.8L-166.1,-19.3L-166.3,-19.8L-165.9,-20.1L-165.2,-20.2L-164.2,-20.5L-164.6,-21L-164.7,-21.3L-164.8,-21.9L-164.7,-22.7L-163.5,-24.7L-162.3,-26.3L-162,-26.7L-161.5,-26.9L-161,-26.7L-160.5,-26.4L-160.4,-26.5L-160.6,-26.7L-160.8,-27.4L-160.1,-27.6L-159.7,-28.4L-159.6,-28.6L-160.1,-28.3L-160.5,-27.8L-160.7,-28.3L-160.8,-29.5L-160.6,-30.7L-160.4,-31.2L-160,-31.7L-158.9,-31.9L-158.7,-31.8L-158.7,-32L-159.3,-32.8L-159.1,-33.3L-158.8,-33.6L-157.4,-34.1L-156.7,-33.9L-155.8,-33.4L-155.2,-32.7L-155.3,-32.4L-155.5,-32.2L-155.7,-32L-155.8,-31.8L-155.8,-31.6L-155.4,-32.1L-154.7,-32.5L-154.4,-32.3L-154.1,-31.9L-153.8,-32L-152.7,-32.3L-152.2,-32.6L-151.6,-33.5L-150.8,-34.1L-149.6,-36L-149.2,-36.8L-148.8,-36.9L-148.5,-36.8L-148.2,-36.2L-147.8,-36L-145.7,-36.2L-144.7,-36.5L-143.9,-37.1L-143.1,-38.1L-142.7,-38.8L-142.5,-39.7L-142.7,-40.9L-143,-41.9L-143.4,-44.2L-144.4,-45.7L-145.2,-46.1L-145.7,-46.1L-145.3,-47L-144.3,-46.9L-143.7,-47.1L-143.1,-47.6L-143,-48L-142.7,-48.7L-142.8,-49.5L-142.9,-49.9L-143.3,-50.4L-143.7,-51L-144,-51.3L-144.3,-51.2L-145.6,-49.9L-146.3,-49.8L-146.9,-50.1L-147.4,-49.3L-148.7,-48.6L-149.5,-48L-150.8,-46.3L-151.2,-45.5L-151.6,-45.4L-151.9,-46.9L-153.4,-48.4L-153.8,-47.9L-153.6,-47.4L-153.2,-47.1L-152.7,-47L-152.9,-46.6L-153.1,-46L-153.7,-46.5L-154.7,-47.3L-155.7,-47.7L-158.3,-47.6L-160.1,-46.8L-160.3,-47L-160.4,-47.1L-160.7,-46.9L-160.8,-46.6L-161,-46.4L-161.4,-46.3L-162.1,-46.4L-163.5,-46.9L-166.6,-47.6L-167.4,-48.1L-168.1,-49.2L-168.1,-49.9L-167.8,-50.2L-167.8,-51.3L-168.5,-51.6L-169.7,-53.1L-170.2,-53.7L-170.1,-53.8L-169.8,-53.6L-169.4,-53.5L-168.4,-53.7L-168,-54.7L-167.2,-55L-166.5,-54.8L-166.7,-55.1L-166.9,-55.3L-168.7,-55.8L-169,-55.7L-172.3,-56.6L-174.9,-58.2L-175.1,-58.5L-175.4,-59.1L-175,-59.8L-174.7,-60.1L-174.7,-59.8L-174.6,-59.4L-173.1,-60.3L-172.3,-61.4L-170.8,-61.6L-170.5,-61.9L-170,-62.5L-169.3,-63.5L-168.4,-64L-167.8,-64.5L-166.9,-64.8L-166.2,-64.3L-166,-64.3L-164.7,-64.2L-164.3,-64.4L-164.1,-64.5L-164,-64.8L-165.3,-65.6L-165.1,-66.1L-165,-66.5L-163.5,-67.5L-162.4,-67.8L-161.8,-67.8L-160,-69.1L-159.1,-69.5L-157.2,-69.8L-155.7,-69.8L-155.3,-69.3L-156.1,-69.4L-156.5,-69.4L-156.2,-69.2L-156,-68.9L-156,-68.4L-156.5,-67.1L-156.5,-66.1L-156.8,-65.8L-157.1,-65.3L-155.6,-63.8L-153.2,-63.7L-151.9,-64L-151.2,-63.6L-150.6,-63.5L-148.9,-63.7L-147.7,-63.4L-147.1,-63.5L-146,-65.7L-145.5,-66L-145,-65.7L-144.4,-65.3L-144,-65.6L-143.6,-65L-143.8,-66.2L-144,-66.6L-145.9,-67.4L-147.2,-67.1L-147.6,-67.5L-147.5,-68.4L-148.8,-70.7L-149.4,-71.2L-150.1,-71.2L-150.4,-72L-150.7,-73L-150.1,-73.4L-149.6,-73.6L-149.1,-73.3L-148.6,-71.9L-148,-71.7L-148.2,-70.4L-147.6,-69.2L-146.1,-68.1L-145,-68.5L-144.2,-68.4L-143.7,-68.2L-142.5,-67.2L-141.9,-67.1L-140,-67.6L-140,-68.6L-140.1,-69.3L-140.6,-69.8L-141.8,-69.7L-142.9,-70.4L-143.7,-70.2L-145.3,-69.1L-146,-69.5L-146.5,-70.2L-147.3,-70.8L-147.4,-72L-146.7,-73.3L-146.3,-74L-146.7,-74.4L-147.8,-74.8L-149.7,-74.4L-149.8,-74.9L-149.8,-75.4L-150.6,-74.4L-151.4,-74.6L-152.5,-74.5L-154.9,-75.4L-155.7,-76.5L-156.1,-77.3L-156.7,-79.8L-157.5,-81.3L-163.2,-86.5L-165.8,-87.9L-167,-89.3L-167.8,-89.7L-168.6,-89.9L-169.5,-90.3L-168.9,-90.9L-168.4,-91.1L-168.9,-90.5L-168.6,-90.4L-168,-90.7L-167.7,-91.1L-167.3,-93L-166.8,-95.7L-166.9,-96.8L-163.8,-96.6L-161.7,-96.8L-161,-97.1L-158.3,-97.5L-157.6,-97.8L-156.4,-98.7L-154.9,-100.4L-153.6,-102.6L-153.4,-103.2L-153.3,-103.1L-153.2,-103.2L-153.1,-104L-152.9,-106.1L-152.3,-108L-149.5,-112.4L-148.3,-114.1L-147.9,-115L-147.4,-115.5L-147.1,-115L-147,-114.8L-146.9,-114.6L-147.1,-114.4L-147.6,-113.8L-148.2,-113.5L-148.3,-113.3L-147.9,-113.3L-146.9,-113.7L-146.3,-114.2L-143.4,-115.2L-141.9,-116.7L-141.8,-117.1L-139.5,-119L-139.2,-118.9L-138.8,-118.7L-139.4,-117.4L-139,-117.1L-139.4,-115.6L-138.5,-115.5L-138.3,-114.8L-138.3,-115.4L-138.3,-116.3L-138.2,-117.2L-138.1,-117.8L-137.5,-117.5L-136.2,-118.1L-137.8,-118.2L-138.8,-119.6L-139.3,-119.6L-137.5,-121.7L-135.9,-123L-135.5,-122.9L-135.3,-122.7L-135.3,-122.3L-135.6,-122.1L-136,-121.6L-135.8,-121.2L-135.6,-121.2L-134.8,-121.5L-134.4,-121.9L-132.7,-121.9L-132.2,-122.2L-132.1,-122.5L-129.9,-122.5L-129.5,-122.7L-128.2,-123.8L-126.9,-125.2L-126.3,-125.9L-125.3,-127.8L-124.5,-129.1L-123.1,-130.3L-122.7,-130.2L-123.2,-129.9L-123.5,-129.4L-123.1,-128.7L-120.1,-127.3L-119.3,-127.2L-119,-126.3L-119.3,-125.5L-120.1,-124.6L-121.6,-123.6L-121.1,-123.3L-120.8,-122.5L-120.4,-122.4L-119.6,-122.7L-119,-123.2L-117.8,-124.8L-117.5,-125.8L-117.2,-126L-116.2,-125.8L-115.6,-125.3L-115,-124.5L-115.2,-123.6L-115.5,-123.2L-114.6,-122.5L-113.7,-122.4L-112.8,-121.9L-111.6,-123L-110.6,-123.2L-109.7,-123.1L-108.5,-123.7L-106.4,-122.9L-105.9,-123.1L-105.1,-123L-104.3,-122.5L-104,-122L-104.9,-121L-105,-119.9L-104.7,-119.4L-104.1,-119.3L-104.1,-118.7L-103.7,-118.6L-101.9,-118.6L-102,-118.3L-102.1,-118L-102.7,-117.2L-99.4,-116.7L-99,-117.1L-98.3,-117.3L-96.9,-117.9L-96.4,-117.7L-95.7,-117.1L-95.1,-116.9L-94.6,-117.1L-93.3,-117.9L-91.9,-118L-91.3,-117.7L-90.6,-117.8L-88.7,-116.8L-88,-116.7L-87.1,-115.4L-86.6,-115.3L-86,-115.9L-85.5,-115.9L-85.1,-115.3L-84.3,-115.2L-84,-114.3L-83.6,-114L-80.7,-113.4L-79.3,-113.7L-77.2,-113.6L-76.2,-113.2L-75.1,-113.2L-73.4,-111.8L-72.5,-111.6L-72.3,-111.2L-69.7,-110.9L-68.8,-111.7L-67.2,-111.8L-65.7,-112.5L-64.9,-112.5L-64,-112.3L-63.6,-112.4L-63.4,-112.7L-61.1,-111.6L-59.8,-110.3L-59.2,-109.4L-56.5,-108.1L-55.7,-107.4L-55.2,-106.6L-54.9,-106.5L-54.7,-106.8L-53.7,-106.7L-53.4,-106.6L-53.4,-102.8L-53.4,-99.1L-53.4,-95.4L-53.4,-91.8L-53.4,-88.3L-53.4,-84.8L-53.4,-81.3L-53.4,-77.8L-53.4,-74.4L-53.4,-71.1L-53.4,-67.8L-53.4,-64.5L-53.4,-61.3L-53.4,-58.1L-53.4,-54.9L-53.4,-51.8L-53.4,-48.7L-53.4,-45.6L-53.4,-42.6L-53.4,-39.6L-53.4,-36.6L-53.4,-33.7L-53.4,-30.8L-53.4,-27.9L-53.4,-25.1L-53.4,-22.3L-53.4,-19.4L-53.4,-16.7L-53.4,-13.9L-53.4,-11.2L-53.4,-8.5L-53.4,-5.9L-52.3,-5.5L-51.2,-5.1L-50.9,-5.8L-49.8,-5.3L-48.8,-4.8L-48.1,-5.4L-47.4,-6.1L-46.5,-6.2L-45.4,-6.2L-44.7,-6.3L-44.7,-5.7L-45,-4.7L-45.2,-3.9L-44.6,-3.1L-43.8,-2.7L-43,-2.3L-42.7,-1.2L-41.9,-0.3L-41.3,0.3L-40.7,1L-39.9,1.8L-39.3,2.4L-38.5,3.3L-38,3.7L-37.8,4.7L-37.5,5.8L-37.7,6.5L-37.3,6.6L-36.6,5.8L-35.9,5.4L-35.1,4.8L-34.5,4.4L-33.5,4.4L-33,3.3L-32.9,1.7L-32.4,1.7L-32.1,1.5L-32,1L-32.3,0.4L-31.3,0.1L-30.6,-0.1L-29.5,-0.7L-28.5,-1.3L-28,-0.8L-27.5,-0.4L-26.6,0.6L-26.5,0.9L-26.6,1.4L-26.7,1.8L-26.1,3.2L-25.9,3.3L-25.5,3.5L-24.9,4L-24.6,4.4L-23.8,5L-23.7,5.2L-23.6,5.7L-23.5,6L-23.3,6.3L-23.2,6.6L-22.8,7L-22.2,7.5L-21.7,7.8L-21,8.3L-20.4,9.2L-19.8,10L-19.1,10.8L-19.2,11.5L-18.6,12.5L-17.9,13.7L-17.3,14.8L-17,15.4L-16.5,16.3L-15.9,17.4L-15.3,18.6L-14.8,19.4L-14.2,20.4L-13.9,21.1L-14.1,21.5L-14.4,22.1L-13.5,22.3L-13,22.5L-13.1,23.1L-13.3,23.9L-12.7,24.2L-12.2,24.4L-12.3,24.9L-12.1,25.3L-12,26.1L-11.3,26.1L-10.9,26L-10.5,26.4L-9.8,26.8L-9.2,27.3L-8.7,27.6L-8,27.8L-7.2,28.1L-6.8,28.8L-6,29L-5.7,29.9L-4.8,30.2L-4.3,30L-4.1,30.4L-3.9,30.8L-3.9,31.3ZM245.2,109.3L245.4,109.3L246.5,109.2L248.3,109.2L250.2,109.2L252.1,109.2L254,109.2L255.9,109.2L257.7,109.2L259.6,109.2L260,108L260.5,107.4L261,107.6L261.3,107.6L261.7,107.3L261.9,107.1L262.1,107.1L262.3,107.4L262.4,107.6L262.5,107.5L262.7,107.3L262.7,106.9L262.8,106.7L263,106.6L263.2,106.7L263.3,106.5L263.3,106.4L263.2,106.1L263.3,105.7L263.8,105.1L264.3,104.7L264.5,104.5L264.6,104.1L264.9,103.7L265.1,103.5L265.1,103.2L265,103L265.1,102.5L265.2,101.9L265.3,101.2L265.6,100.6L266.1,100L266.3,99.1L266.4,98.2L267,97.3L267.7,96.3L268.1,95.8L268.8,94.7L269.3,94L269.6,93.6L269.8,93.2L270.3,93.3L270.7,93.5L270.6,94.1L270.7,94.5L270.9,94.7L271.2,94.9L271.4,95L271.7,95L272.4,94.6L273.3,94.4L273.7,94.2L273.8,94L274,93.9L274.4,94L275,94.5L275.7,95.2L276.3,95.8L276.3,96.7L276.3,97.7L276.4,98.8L276.4,99.6L276.4,100.6L276.4,101.5L276.4,102.6L276.4,103.2L276.5,103.3L276.4,103.5L276.4,103.7L276.4,103.7L276.5,103.9L276.4,104L276.4,104.2L276.3,104.3L276.3,104.6L276.4,104.8L276.5,104.9L276.7,104.9L276.8,105L277,105.1L277.3,105.3L277.6,105.3L277.7,105.3L278,105.4L278.1,105.6L278,105.9L277.9,106L277.7,106.1L277.7,106.2L277.8,106.4L277.9,106.6L278,106.9L278,107.1L277.9,107.3L277.8,107.5L277.9,107.7L278.2,107.9L278.3,108.2L278.5,108.3L278.6,108.2L278.7,108.1L278.8,108L279,108L279.2,108.1L279.4,108.2L279.4,108.4L279.5,108.7L279.6,109.3L279.4,109.6L279.5,110L279.9,110.1L280,110.2L280,110.4L279.1,111.3L278.3,111.2L277.9,111.5L277.4,111.5L277.2,112L277,112L276.7,112L276.4,111.9L276.2,112L275.9,112.7L275.6,112.7L275.5,112.9L275.4,113.1L275.2,113.2L275,112.8L274.9,112.5L274.8,112.4L274.6,112.3L274.3,112.3L274.2,112.4L274,112.6L273.8,112.8L273.6,112.6L273.4,112.4L273.3,112.8L273.1,113.2L273.1,113.7L273,114L272.9,113.9L272.7,113.6L272.2,113.4L271.8,113.5L271.9,113.2L272.2,112.8L272.1,112.7L271.9,112.8L271.9,112.7L272,112.4L272,112L271.8,112.1L271.6,112.5L271.1,112.9L271.1,113.4L270.6,114.5L270.6,115L270.3,115.3L269.9,115.7L269.4,115.6L269,115.9L268.8,116.2L268.6,116.2L268.5,115.8L268.4,115.7L268.3,116.3L268.1,116.3L268.1,115.9L268,115.6L267.8,115.9L267.6,116.5L267.5,116.5L267.5,116.2L267.4,116.1L267.3,116.4L267.4,116.8L267.3,117L267.2,116.9L267,116.7L266.8,116.9L266.5,116.9L266.5,116.7L266.6,116.5L266.2,116.6L265.6,117L265.2,117.6L265.4,117.7L265.5,117.9L264.8,118.8L264.1,119.6L263.5,121L263.3,121.1L263.1,121.4L262.9,122.2L262.7,122.9L262.8,123.2L262.9,123.5L263.1,123.8L263.3,123.9L263.5,123.8L263.6,123.8L263.7,124L263.7,124.1L263.5,124.2L263,124.4L262.7,124.5L262.5,124.9L262.2,125.3L261.7,125.9L261.9,126.1L262.7,126.3L263.1,126.5L263.7,127.7L263.5,127.8L263.5,128L264,128.3L264.1,129.1L264.5,129.4L265.1,129.5L265.8,129.3L266.4,129L266.4,128.7L266,128L265.9,127.7L265.6,127.5L265.6,127.7L265.4,127.5L265.3,127.3L265.5,127.3L265.7,127.3L265.9,127.4L266.5,128.1L266.7,129.1L266.7,129.7L266.7,129.9L266.5,129.8L266.2,129.9L264.6,130.2L264.3,130.4L263.5,130.7L263.4,130.6L263.5,130.3L263.4,129.7L263.3,129.6L262,130.6L261.6,130.7L261.2,131L261.1,130.8L261,130.1L261.3,129.4L261.1,129.4L260.7,129.8L260.5,129.6L260.4,129.3L260.3,129.2L260.2,129.1L260.3,129.7L260,130.1L259.9,131.2L259.6,131.7L258.5,131.9L257.7,131.9L257.1,132L256.2,132.2L255.8,132.1L255.3,132.3L253.6,132.3L253.3,132.2L252.8,132.6L252.1,132.9L250.3,133.8L249.9,134.1L249.4,134.6L249.1,134.9L248.8,135L248.7,135.2L248.5,135.4L248.6,134.9L248.8,134.4L249,133.6L248.9,132.9L248.8,132.6L248.6,132.4L248.8,133.1L248.8,133.9L248.7,134.4L248.3,135.4L248.1,135.6L247.9,135.8L247.7,135.9L247.6,136L247.4,136.3L247.2,136.7L247.3,137.1L248.2,137.3L248.4,137.2L248.5,137.5L248.6,137.9L248.5,138.4L248.4,138.8L248.3,139.4L248.2,140.3L248.1,141.1L248,140.8L248.1,139.9L248,140L247.9,140.2L247.6,141.4L247.3,142.1L246.9,142.6L246.6,142.5L246.7,142.9L246.6,143L246.5,143.4L246.3,143.7L246.1,143.7L245.8,143.8L245.7,144L245.7,144.2L245.5,144.5L244.8,145.7L244.3,146L244.1,146L244.3,145.4L244.4,144.8L244,144.6L243.7,144.5L243.3,144.5L242.9,144L242.3,143.7L241.6,142.8L241.6,142.6L241.6,142.2L241.8,141.5L242,141.1L242.3,140.8L243.2,140.6L243.5,140.2L243.6,139.9L243.1,140.5L242.5,140.6L242.1,140.8L241.8,141.1L241.7,141.5L241.3,142L241.3,142.2L241.4,142.5L241.3,142.9L241.6,143.3L242.1,144L242.1,145.1L242.5,145.9L243.1,146.7L243.5,147L243.5,147.3L243.3,147.8L243.1,148L243.4,148L243.6,148.1L243.7,148.5L243.7,149L243.7,149.2L243.6,149.3L243.6,149.1L243.5,149L243.4,149.1L243.3,149.2L243.3,149.7L243.2,150L242.9,150L242.6,150.7L242.3,151.1L241.2,153.5L241.3,153.9L241.1,154.1L240.8,154.2L240.5,154.4L240.3,154.7L240.1,155.4L239.7,156.3L239.5,155.9L239.4,155.6L239.5,154.9L239.9,153.6L240.3,152.8L240.7,152.5L240.9,151.7L240.6,151.6L240.1,151.6L240.2,151.2L240.3,150.9L240.1,150.6L239.9,150.6L239.7,150.5L239.9,150.2L240,149.9L240,149.6L240,149.4L239.9,149.4L239.7,149.7L239.6,149.8L239.5,149.5L239.4,149.6L239.3,149.7L239.2,149.8L238.9,149.6L238.5,149.4L238.2,148.9L238.1,148.6L238.2,148L238.5,147.9L238.9,148L239.4,148L239.3,147.8L239.2,147.9L238.6,147.4L238.4,147.1L238.1,147L238,147.3L237.9,147.4L238.1,146.7L238.3,146.7L238.7,146.5L238.6,146.2L238.3,146L237.9,146.2L237.9,146L238,145.6L238.3,145.6L238.6,145.7L238.8,145.2L238.8,145L238.4,145.3L238.3,144.6L238.7,143.8L239.1,143.5L239.5,143.5L240,143.5L239.7,143.4L239.4,143.3L239.6,143L239.8,143L240,142.7L239.5,142.7L239.6,142.3L239.4,142.4L239.1,142.4L239,142.6L239,142.9L239,143.2L238.8,143.3L238.4,143.5L238.4,143.2L238.3,143.1L238.2,143.6L238.2,143.8L237.9,143.3L237.8,143.4L237.9,143.6L237.8,143.8L237.6,143.9L237.6,144.2L237.5,144.4L236.8,144.1L236.8,144.2L237.2,144.8L237.5,144.9L237.5,145.2L237.3,145.5L236.9,145.3L236.9,145.3L237.1,145.7L237.2,146L237.1,146.3L237.1,146.6L237.1,146.9L237,147.2L237.1,148.4L237.3,148.7L237.5,149L237.6,149.3L237.4,149.4L237.1,149.1L236.8,148.9L236.5,148.3L236.4,148.1L236.3,147.9L236.4,148.3L236.5,148.8L237.6,149.9L237.8,150.3L237.9,150.6L237.9,150.9L237.6,150.7L237.4,150.4L236.7,150.1L235.9,149.9L235.5,149.2L235.5,149.5L235.4,149.8L235.1,149.4L235,149.2L234.9,148.9L234.6,148.9L234.2,149.2L233.9,149.1L233.8,148.6L233.9,148.3L234.3,147.7L234.7,147.4L234.8,147L234.8,146.3L234.7,147L234.5,147.3L234.2,147.5L233.7,148L233.6,148.4L233.5,149.2L233.7,149.4L233.9,149.5L234.4,149.3L234.7,149.4L235.3,150.3L236.5,150.7L236.9,150.9L237.3,151.4L237.8,151.6L238.2,152L238.2,152.3L238.1,152.6L238,153L237.9,153.3L237.4,153.3L237.2,153.2L235.8,151.8L235.7,151.7L235.2,150.9L234.6,150.5L234.4,150.5L235.2,151.2L235.6,151.8L236.2,152.5L236.6,152.8L236.9,153.3L237.2,153.6L238,153.9L237.7,154.1L238.2,154.3L238.3,154.7L238.2,155.1L237.6,154.9L237.6,155.2L237.6,155.4L237.4,155.6L237,155.4L236,154.3L236,154.4L236.1,154.6L236.7,155.3L237.2,155.7L237.6,155.9L237.9,156.3L238.1,156.5L238.1,156.8L237.9,157L237.6,157.2L237.3,156.9L237.1,156.7L236.7,156.3L236.6,155.9L236.2,155.9L234.9,155.3L233.8,155.2L233.9,155.4L234,155.4L234.9,155.6L235.2,155.8L236,156.1L236.4,156.1L236.6,156.8L237.1,157.3L237.2,157.7L237.6,157.7L238.3,157.4L238.8,157.5L239.4,157.6L239.6,157.9L239.7,158.4L239.9,159L240.5,161.4L241.4,163.4L241.5,163.7L241.3,163.4L240.6,162.1L240.3,161.2L239.9,159.6L239.8,159.2L239.6,159L239.6,159.2L239.5,159.4L239.6,159.5L239.4,160.1L239.5,160.3L239.7,160.6L240,161.2L240.2,162.1L239.9,161.7L239.6,161.6L239.2,161.4L238.7,161.2L238.8,161.5L238.7,161.9L238.4,161.8L238.2,161.7L238.4,162.1L238,161.9L237.7,162L237.5,162.3L237.3,162.6L236.9,162.6L236.3,162.3L236.2,161.9L236.1,161.4L236.1,162L236.2,162.5L236.1,162.9L236.7,163L237.1,163L237.8,163L238.2,162.9L238.5,162.8L239.1,162.9L239.1,163.4L239.1,163.9L239,164.4L239.2,164.4L239.4,164.3L239.5,163.3L240.1,162.9L240.3,163L240.4,163.3L240.5,163.6L240.6,164L240.4,164.7L239.6,165.4L238.9,166.2L238.6,166.3L238.2,166.2L237.6,166L237.4,166L237.2,166.1L237.1,165.8L237,165.4L236.8,165.3L236.7,165.3L236.5,165.8L236.1,165.9L235.4,165.7L234.7,165.3L235,165.7L236.7,166.4L236.9,166.6L237.1,166.8L236.9,167.1L236.7,167.4L236.6,167.7L236.6,167.8L235.9,168.3L235.5,168.2L234.6,167.4L235,168.1L235.4,168.4L236.1,168.6L237.4,168.3L237.8,168.6L237.4,169.1L237.1,169.5L236.6,169.5L236.2,169.6L236.1,169.9L235.8,169.9L235.4,169.9L234.7,169.9L234.3,169.8L233.8,170.4L233.6,170.4L233.3,170.3L233.2,169.9L233,169.7L233,170.5L233.1,170.7L233.2,170.8L232.6,171.3L232,171.8L231.8,171.9L231.5,172.2L231,172.9L230.9,173.4L230.7,174L230.7,173.8L230.7,173.3L230.6,172.8L230.5,173.8L230.3,174.2L228.6,174.2L227.8,174.4L226.6,175.2L226.2,175.6L225.3,176.9L225,177.8L224.8,177.4L224.9,177.2L224.9,176.9L224.6,177.4L224.9,178.1L224.7,178.4L224,178.9L223.7,179L223.2,179.1L223.1,179.6L222.6,180.1L222.3,180.3L221.7,180.1L221.9,180.6L221.7,180.9L221.3,181.2L220.8,181.3L220.6,181.3L220.4,181.4L220.2,181.6L219.8,181.8L219.3,181.7L218.8,181.6L218.5,181.7L219,181.9L219.3,182.2L219.2,182.6L219.1,182.7L218.8,182.9L218.7,182.9L218.6,182.7L218.5,182.3L218.3,182.4L218.3,182.6L218.2,182.7L217.8,182.1L217.8,182.5L217.9,182.9L218.1,183L218.2,183.2L218.3,183.3L218,183.7L217.8,183.8L217.6,183.9L217.4,184.1L217.5,184.3L217.2,184.8L216.7,185L216.5,185L216.4,185.1L216.5,185.3L216.6,185.5L216.6,185.6L216.4,185.8L216.2,185.8L216,186L216,186.2L216.1,186.3L216.1,186.5L215.8,186.7L215.7,186.9L215.9,187L216,186.9L216.1,186.9L215.9,187.3L215.7,187.4L215.6,187.8L215.2,187.9L215.2,188L215.4,188.1L215.6,188.3L215.2,188.8L215,188.8L214.9,188.7L214.8,189.1L214.8,189.3L214.8,189.7L214.6,190.2L214.5,190.4L214.6,190.8L214.6,191.2L214.8,191.6L215.2,193.6L215.4,194.2L215.8,196L216.4,197.8L217.3,199.9L218.9,202.4L219,202.8L218.8,203.1L218.8,203.4L218.8,203.9L218.8,204.3L219,204.9L219.3,205.8L219.1,205.6L218.6,204.4L218.6,203.6L218.7,202.6L218.5,202.6L218.4,203L218.4,203.3L218.3,203.5L218.1,202.9L218.1,202.6L218.3,202.3L218.2,202.2L217.9,202L217.9,201.8L217.9,201.5L217.7,201.4L217.6,201.4L217.7,202L217.8,202.4L218,203.3L218.3,203.9L218.5,204.3L220.4,209.3L220.8,209.9L221,210.4L221.2,211.3L221.2,212.5L220.9,214.7L220.8,216.2L220.8,216.2L220.7,216L220.7,216L220.4,216.7L220,217.3L219.9,218.2L219.7,218.7L219.2,219.2L218.9,219.2L218.1,219.6L217.5,219.5L216.8,219.7L216.4,219.7L216.1,219.2L216.2,219L216.3,218.8L216.5,218.8L217,219.3L217.1,219.1L217,218.8L216.6,218.7L216.4,218.5L215.9,217.5L215.3,216.7L215.2,216.2L214.3,215.9L213.7,215.5L213.2,214.6L213,213.2L212.7,213L212.6,212.9L212.9,212.4L213.2,211.9L212.9,212L212.7,212.2L212.5,212.6L212.3,212.7L212.2,212.6L212,211.8L212.1,210.9L212.3,210.5L211.9,210.5L211.6,210.7L211.6,211L211.6,211.2L211.3,211.1L211.1,211L210.8,210.7L210.4,210L209.6,208.3L209.4,208.1L209.2,207.8L209.3,207.7L209.5,207.7L210,206.9L210.4,206.4L210.6,206.1L210.5,206L210.4,205.8L210.1,205.9L210,205.9L209.8,205.5L209.5,205.4L209.3,205.5L209.5,205.8L209.7,205.9L209.6,206.4L209.6,206.6L209.4,206.7L209.2,206.6L209,206.8L208.9,206.6L208.7,206.4L208.6,206.1L209,204.1L209.4,202.8L209.4,201.3L209.5,201.1L209.4,200.7L208.9,199.9L206.6,197.8L204.7,195.4L203.2,194.4L202,194.6L201.8,194.8L201.7,195.1L201.8,195.3L201.6,195.5L201.3,195.4L200.9,195.5L199.8,196.1L199.4,196.1L199,196.3L198.7,196.4L198,196.5L197.4,196.6L197.2,196.6L197,196.2L197,195.8L197.1,196.1L197.3,196.3L197.4,196.2L197.5,196L197.3,195.6L196.6,195.1L195.8,194.3L196.1,194.4L196.1,194.2L195.9,194L196,193.7L196.1,193.5L195.8,193.5L195.5,193.7L195.5,193.9L195.5,194.1L195.3,194.1L195,193.9L193.6,193.2L192.3,192.9L193.3,192.7L193.8,192.9L193.8,192.7L193.6,192.5L193.2,192.4L192.7,192.5L192.3,192.4L192,192.5L191.6,192.8L191.3,192.9L190,193L189,193.2L189.1,193L189.3,192.9L189.9,192.7L190,192.3L189.9,192L189.7,192.1L189.5,192.4L189.3,192.2L189.1,192.2L189,192.6L188.7,192.9L188.6,193.2L187.7,193.4L187.6,193.4L187.9,193.1L187.8,192.9L187.5,193L187.1,193.6L185.3,193.8L185.4,193.6L185.8,193.6L186.3,193.4L186.2,193.2L186,192.8L185.8,192.8L185.7,192.6L185.7,192L185.6,191.7L185.3,191.3L185.2,191.4L185,192L184.8,192.8L184.8,193.1L184.2,193.1L183.8,193L182.2,193.1L181.7,192.8L181.4,192.8L181.3,192.8L180.6,193L179.8,193.2L179.7,193.2L179.4,193.2L178.8,193.8L178.2,194.1L176.5,193.6L176.1,193.1L175.8,193L175.3,193L174.9,193.5L174.5,194.2L175.1,194.6L175.6,194.8L176.4,194.7L176.8,194.3L177.2,194.3L177.4,194.3L177.5,194.1L177.8,194.2L177.9,194.4L177.6,194.6L177.4,194.7L177.2,194.9L177.5,195.3L178,195.5L178.2,195.4L178.3,195L178.6,194.7L179,194.7L179,194.9L179,195.1L179.2,195.4L179.2,195.8L179.3,195.9L178.8,196.1L178.5,196.2L178.2,196.4L178.3,196.5L178.1,196.7L177.9,196.6L177.8,196.7L177.7,196.8L177.6,196.9L177.8,197.4L178.2,197.6L178.5,198L179.7,198.4L180,198.4L180.3,198.9L180.6,199L180.8,199.1L180.8,199.4L180.4,199.6L180.2,199.9L180.1,200.1L180,199.9L179.8,199.7L179.4,200.1L179.2,200.2L179.3,199.8L179.1,199.6L178.8,199.1L178.5,198.9L178.2,198.8L178.1,198.6L177.8,198.5L177.6,198.5L177.3,198.4L177.3,198.2L177.2,198L176.9,197.8L175.6,197.4L175.6,197.5L175.7,197.7L175.9,197.7L176.1,197.9L176.1,198.4L176,198.6L176,198.9L175.9,199.2L175.7,199.4L175.4,199.6L175.2,199.5L175,198.8L174.6,198.6L174.1,198.6L173.7,198.7L173.3,199.4L173,199.5L171.8,199.1L170.5,198.7L170.6,198.5L170.8,198.4L171.2,198.5L171.1,198.3L170.7,197.8L170.7,197.5L170.7,197.2L170.6,197.2L170.4,197.5L169.5,197.3L169.3,197L168.8,196.3L168.1,196.3L167.8,195.8L167.3,196L167,196.2L166.7,196.5L166.8,196.7L167.1,197L167,197.1L166.2,197.3L164.3,197.1L163.8,196.9L163.1,196.5L162,196.1L161.6,196.1L161.1,196.1L159.7,196.2L159.4,196.3L159.1,196.4L158.9,196.2L158.9,196L159,195.9L159.2,195.7L159.4,195.4L159.4,195.2L159.3,195.1L159,195.1L158.6,195.9L158.8,196.4L158.8,196.6L157.9,196.7L155.7,197.6L154.9,198.2L154.9,198L156,197.3L155.6,197.2L155,197.4L154.8,197.3L155.1,196.8L155,196.3L154.6,196.3L154.3,196.6L154.1,196.6L153.9,196.5L153.7,196.5L153.9,197.4L154.1,197.8L154.3,198.2L153.7,198.8L153.2,199.3L153.1,199.7L152.6,200.3L152.1,200.7L150.9,201.5L150.5,201.6L150,202L149.2,202.3L148.5,202.7L148.3,202.8L148.7,202.4L149.3,202L148.8,202.1L148.1,201.9L147.6,201.9L147.6,202L147.3,202.2L147,202L146.8,201.8L146.7,201.6L146.6,201.6L146.4,201.6L147,202.8L147.2,202.8L147.4,202.9L147.1,203.2L146.8,203.4L146.3,203.5L145.8,203.1L145.7,203.6L145.7,204.1L145.5,204.3L145.3,204.5L145.2,204.3L145.1,204.1L145,204.3L144.7,204.4L144.4,204.5L144.1,204.5L144.1,204.7L144.2,205L144.7,204.8L144.5,205.3L144,205.9L143.7,206L143.1,205.9L143,206L142.9,206.1L143.5,206.9L143.1,208.2L142.8,208.7L142.7,208.7L142.5,208.8L141.7,208.3L141.4,208L141.7,208.9L142.6,209.1L142.7,209.5L142.7,209.7L142.5,210.1L142.3,210.5L142.4,210.8L142.6,211.6L142.7,211.9L142.8,212.9L143,213.4L143.9,215L144.1,215.1L144.2,215.2L144.2,215.6L143.5,215.7L143.3,215.8L143.2,216L143.2,216L143.1,216L142.8,215.9L142.2,215.5L141.2,215.2L139.9,215.1L139.1,214.8L138.6,214.5L138.1,214.3L137.6,214.2L137.2,214L136.9,213.7L136.4,213.5L135.7,213.4L135.3,213.1L135,212.5L135,212.5L134.8,211.6L134.4,210.9L133.8,210.2L133.8,210.1L133.8,209.9L133.8,209.5L133.8,209.2L133.6,208.9L133.5,208.6L133.6,208.3L133.6,208L133.5,207.6L133.1,207.1L132.4,206.6L131.8,205.9L131.3,205L130.8,204.4L130.3,204L130,203.6L129.8,203.1L129.7,202.8L129.8,202.7L129.5,202.1L128.8,201.1L128.4,200.3L128.3,199.8L127.9,199.2L127.1,198.5L126.7,198.1L126.6,197.8L125.4,196.9L125.1,196.3L124.8,196.1L124.5,196.1L124.3,196.1L124.3,196L124.2,196L124,196.1L123.4,196.1L122.3,196L121.6,195.9L121.1,195.6L120.7,195.7L120.6,196L120.1,196.2L119.5,196.3L119,196.8L118.5,197.9L118.3,198.5L118.4,198.8L118.3,199L118,199.2L117.7,199.5L117.4,199.9L117,200.1L116.6,200.1L115.9,199.8L114.8,199.1L114,198.6L113.3,198.5L112.8,198.2L112.3,197.7L111.9,197.3L111.5,197.2L111,196.6L110.5,195.7L110.2,195L110.2,194.3L109.5,192.6L109.2,191.9L108.9,191.6L108.3,191.2L107.5,190.7L106.5,189.8L105.1,188.5L104.2,187.6L103.6,187.4L103.1,186.9L102.7,186.2L102.3,185.7L102.3,185.7L102.2,185.7L101.2,185.7L100.3,185.7L99.3,185.7L98.3,185.7L97.3,185.6L96.3,185.6L95.3,185.6L94.3,185.6L94.3,186.2L94.3,186.8L94.3,187.4L94.3,188L92.7,188L91.1,188L89.5,188L87.9,188L86.3,188L84.7,188L83.2,188L81.6,188L79.4,187.3L77.3,186.5L75.2,185.7L73,184.9L70.9,184.1L68.7,183.3L66.6,182.5L64.5,181.7L64.7,181.4L65,180.6L64.5,180.7L63.2,180.8L61.9,180.9L60.6,181L59.3,181.2L58,181.3L56.7,181.4L55.4,181.5L54.2,181.6L54.2,181.6L54.1,181L53.9,180.8L53.6,180.9L53.5,180.2L53.6,179.8L53.6,179.4L53.3,178.6L52.6,177.5L51.2,176.2L50.4,175.8L49.9,175.2L49.5,175.1L49,175L48.9,175.3L48.4,175.1L48.5,174.5L47.9,173.6L47.5,173.5L46.5,173.6L45.1,173.1L44.7,172.8L44.5,172.3L43.9,171.9L43,171.4L42.5,171.5L41.9,171.5L41,171.2L40.4,171.1L39.4,171.2L39.1,171.1L38.7,170.8L38.3,170.6L38.4,170.1L38.3,169.6L38.4,169.3L38.2,168.5L38.4,167.8L38.2,167.6L38,167.4L37.4,167.1L37.2,166.7L37.4,166.2L37.2,165.9L36.6,165.6L36.1,164.9L35.4,164.5L35.2,163.9L34.8,163.5L34.6,163.1L33.7,161.9L32.8,160.9L32.6,160.3L32.6,159.5L33,159L33.2,158.6L33.1,158.2L33.1,158L32.7,157.5L31.5,157.2L30.4,155.9L30.4,155L30,154L30,153.4L29.9,152.7L30.2,152.6L30.5,152.6L30.5,152.9L30.5,153.4L30.9,153.8L31.2,153.9L31.5,154.3L31.7,154.4L31.9,154.4L31.8,154.2L31.6,154L31.5,153.6L31.2,153L30.9,152.6L30.7,152L30.6,151.9L30.5,151.7L30.8,151.4L31.2,151.2L31.8,151.1L33.5,151.2L33.8,151.1L34.1,151.1L34.4,151.1L33.9,151L33.6,151L33.3,151L32.7,151L32.5,150.9L32.2,150.8L32.1,150.7L31.5,151.1L31.3,151L30.7,150.7L30.4,150.6L30,150.8L30,151.7L30.1,152.4L29.9,152.4L29.6,152.2L29.1,152L28.8,151.7L28.3,151.3L28,151.1L27.7,151.5L27.7,151.3L27.8,150.9L27.8,150.1L28.3,150.7L28.1,150.3L27.8,149.8L27.5,149.7L27.2,148.9L26.4,148.4L25.8,147.6L24.5,146.2L24.5,145L24,143.5L24.2,142.7L24.2,142.1L24,141.2L23.7,140.7L22.7,139.3L21.7,138.4L21.6,137.7L21.5,136.9L21.7,136.3L21.9,135.6L22.1,135.5L22.1,135.5L22.1,135.7L22.2,135.7L22.3,135.4L22.4,135.3L22.2,135.3L22.2,135.2L22.3,135L22.6,134.1L22.6,133L22.9,131.6L22.9,131.2L22.7,130.2L22.5,129.6L22.1,129.2L22.3,128.6L22.3,128L21.6,127.2L21.4,126.1L21.3,125.6L21.4,124.4L21.2,123.8L20.8,122.9L21,122.2L21.2,121.7L21.6,119.7L21.8,119.5L22,119.5L22.3,119.2L22.2,119.1L21.9,119.3L22.1,118.5L22.4,117.8L22.5,117.5L22.6,115.2L22.8,113.5L23,112.9L22.9,112.3L23,111.5L22.9,110.7L23.4,106.7L23.4,106.2L23.5,105.6L23.4,103.9L23.4,101.9L23.3,101.7L23.2,101.4L23.4,101.4L23.6,101.7L24.7,101.7L25.4,101.4L25.6,101.5L25.9,101.8L26.3,101.9L26.7,101.8L26.6,101.8L26.4,101.7L25.9,101.4L25.6,101.1L24.8,101.1L24.6,100.9L23.7,101.1L23.4,100.9L22.9,101L23,100.4L23,99.6L23,98.9L23.1,99.4L23.4,100L23.6,99.4L23.7,98.5L23.4,98.2L22.9,98L22.7,97.2L23.9,96.5L23.3,96.4L23,96.1L22.7,96.1L22.7,96.3L22.6,96.6L22.5,96.2L22.4,95.7L22.3,94.9L21.8,93.6L21.5,91.9L21.1,91.1L20.4,90.3L20.2,89.8L20,88.6L20.1,87.7L20,87.1L20.4,87.1L21.3,87.6L22.4,88L22.8,88.3L23.3,88.5L26.4,88.8L26.6,88.8L27,88.6L27.2,88.6L27.6,89.1L27.8,89.1L28.1,89.1L28.3,89L28.7,88.7L28.8,88.8L28.7,89.1L28.9,89.5L29.1,90.1L29.3,90.4L28.7,91.4L28.6,91.4L28.6,91.1L28.5,91L27.5,92.6L27.1,93.4L27.1,93.7L27.1,93.9L27.2,94L27.6,93.9L28.1,93.6L28.1,93.5L27.6,93.6L27.4,93.6L27.4,93.3L27.5,93.1L27.8,92.6L28.1,92.3L28.5,91.9L28.8,91.6L29,91.2L29.5,90.7L29.6,90.6L29.5,90.2L29.6,90.1L29.8,90.2L29.9,90.9L29.8,91.2L29.4,91.6L29.4,91.7L29.5,92.2L29.4,92.3L29.2,92.2L29.2,92.2L29.6,92.8L29.7,93.2L29.7,93.6L29.6,94.4L29.5,94.5L29.3,94.4L29,94.2L29,94.3L28.8,94.9L28.7,94.8L28.5,94.1L28.5,94.1L28.1,94.4L27.9,94.7L27.8,95.2L27.6,95.4L28.1,95.4L28.5,95.3L28.9,95.6L29,95.6L29.4,95.3L29.5,95.2L29.8,94.5L29.9,94.3L30.1,94.3L30.3,94.2L30.6,93.8L30.6,93.7L30.5,92.8L30.6,92.3L30.5,92.1L30.4,92L30.4,91.8L30.5,91.5L30.5,91.3L30.4,91.1L30.4,90.8L30.7,90.3L30.8,90.1L31.1,89.6L31,89.3L30.8,89.1L30.6,88.9L30.5,88.5L30.3,88.4L30.3,88.4L30.5,89L30.4,89.1L30,88.7L29.9,88.6L29.8,88.3L29.9,88.1L30.1,87.9L30.4,87.8L30.4,87.6L30,87.1L29.8,86.9L29.6,86.7L29.3,86.7L29.2,86.6L29.2,86.5L29.2,86.3L29.4,86.3L29.8,86.3L30,86.2L30,86L29.9,85.9L29.9,85.1L29.8,84.5L29.7,84.4L29.6,84.3L29.5,84.4L29.3,84.5L29.1,84.2L29,83.8L28.7,82.9L29.1,82.9L31,82.9L33,82.9L34.9,82.9L36.8,82.9L38.7,82.9L40.6,82.9L42.6,82.9L44.5,82.9L46.4,82.9L48.3,82.9L50.2,82.9L52.2,82.9L54.1,82.9L56,82.9L57.9,82.9L59.8,82.9L61.8,82.9L63.7,82.9L65.6,82.9L67.5,82.9L69.4,82.9L71.4,82.9L73.3,82.9L75.2,82.9L77.1,82.9L79.1,82.9L81,82.9L82.9,82.9L84.8,82.9L86.7,82.9L88.7,82.9L90.6,82.9L92.5,82.9L94.4,82.9L96.3,82.9L98.3,82.9L100.2,82.9L102.1,82.9L104,82.9L105.9,82.9L107.9,82.9L109.8,82.9L111.7,82.9L113.6,82.9L115.5,82.9L117.5,82.9L119.4,82.9L121.3,82.9L123.2,82.9L125.1,82.9L127.1,82.9L129,82.9L130.9,82.9L132.8,82.9L134.7,82.9L136.7,82.9L138.6,82.9L140.5,82.9L142.4,82.9L144.4,82.9L146.3,82.9L148.2,82.9L150.1,82.9L152,82.9L153.1,82.9L153.1,81.4L153.1,80.3L154.1,80.4L154.4,80.6L154.5,80.7L154.5,81.1L154.5,82L154.7,82.8L155.1,83.8L155.1,83.8L155.2,84.1L155.3,84.4L155.5,84.6L156.5,84.9L158.1,85.2L159,85.5L159.2,85.9L159.6,86.1L160.3,86L160.8,85.8L161.1,85.5L161.7,85.4L162.1,85.4L162.6,85.4L162.8,85.5L163.6,85.8L164,86L164.7,86.5L165.1,86.7L165.3,87.2L165.5,87.8L165.8,87.8L166,87.4L166.6,87.3L167.3,87.6L168,88.3L168.9,88.9L169.5,89.2L170.1,89.2L170.9,88.9L171.6,88.3L172.2,88.2L172.6,88.3L172.8,88.7L173,88.9L173.6,88.9L174.9,89L175.9,88.8L176.2,89.1L176.4,89.5L176.8,89.7L177.4,89.5L178.4,89.6L178.8,89.7L179.6,89.5L180,89.3L180.6,89L181.3,88.6L182.6,87.9L183.6,87.6L184.6,88.1L185.4,88.6L185.7,88.8L186.5,89.2L187.6,89.9L188.9,90.7L190.2,91.4L191.3,92.1L192.1,92.5L192.4,92.7L193.3,93.3L194.2,93.8L195.1,94.3L195.9,94.8L196.8,95.4L197.7,95.9L198.5,96.4L199.4,97L199.7,97.8L199.9,98.7L200.4,99.3L200.8,99.9L201.1,99.8L201.4,99.6L201.6,99.5L201.9,99.5L202.5,99.3L202.7,99.3L202.8,99.4L202.8,99.6L202.8,99.7L202.7,100L202.8,100.4L202.9,101L203,101.4L203.2,101.9L203.5,102.3L203.8,102.4L204.4,102.1L204.9,102L205.1,102.1L205.5,102.5L205.7,102.7L205.8,102.9L205.2,104L206.1,104.6L207.1,105.2L208.2,106L209,106.4L209.9,107.1L210.1,108L210.2,108.7L210.4,109.8L210.5,110.9L210.7,112L210.9,113.1L211.1,114.4L211.3,115.5L211.5,116.7L211.8,118.3L211.5,118.9L211,120.2L210.5,121.3L210.5,121.7L210.2,123.4L209.9,124.1L209.5,124.5L209,124.9L208.5,125.6L207.9,125.9L207.5,126.1L207.4,126.4L207.2,127L207.2,128.1L207.7,128.9L208.5,129.4L209.3,129.9L210.4,129.9L211.4,129.2L212.5,128.6L213.5,128L214.6,127.3L215.6,126.6L216.8,126.4L218.3,126.1L220.3,125.7L221.2,125.2L222.5,124.6L223.9,123.9L225.1,123.3L225.7,123L226.2,122.6L226.3,122.4L226.2,122.2L226.1,122L226,121.9L225.8,121.8L225.8,121.7L225.8,121.4L225.7,121.3L225.6,121.1L225.6,120.1L225.5,119.7L225.1,118.9L225.9,118.5L226.6,118.2L227.2,117.9L228.3,117.9L229.4,117.9L230.9,117.9L232.2,117.9L233.7,117.9L234.6,117.9L235.7,117.9L236.3,116.9L236.8,116.1L237.3,115.2L238.3,114.2L238.6,114.1L238.7,113.7L239.3,113.3L240,113L240.2,112.6L240.3,112.5L242.1,110.7L243.1,109.9L243.9,109.5L244.6,109.3L245,109.3Z"/></svg>
