<svg xmlns="http://www.w3.org/2000/svg" viewBox="0 0 300 300"><path fill="#e8e8ea" d="M259.2,214.6L257.1,216.6L254.7,220.5L251.9,229.7L242.4,242.3L240.5,249.6L230.3,257L223.1,265.5L218.4,265.3L214.2,269L189.8,280L181,277.9L174.7,278L168.6,273.1L154.9,271.3L146.2,273.3L134.7,278.7L131.2,278.6L128.8,278.3L122.4,276.1L119,271.3L101.3,265.8L87,253.5L70,253.3L57.1,254.9L55.1,253.2L53.8,250L51.1,245.5L40,234.6L31.1,223.9L29.5,213.4L30.6,201.9L33.3,188.3L32.9,184.2L36,181.8L39.3,181.3L42.4,177.8L45.2,172.5L45.7,168.5L43.5,161.2L41.9,150.9L40.3,145.8L43.7,137.8L43.9,133.8L41.9,130.4L41.3,126.9L42.2,123.2L42.1,119.8L40.8,116.5L41.7,113.7L45,111.6L47.5,108.2L49.1,103.7L49.9,100.3L49.9,97.9L48.9,95.6L47,93.6L47.8,89.4L51.7,83.2L54.2,77.7L55.3,72.9L55.3,68.9L54,66L54.5,64L56.9,63L57.9,59.8L57.6,52.1L55.1,45.7L56.9,40.7L62.3,34.9L65.3,30.1L65.4,26.6L67.1,24.6L69.7,28.4L77.3,29.4L85,29.6L86.2,28.6L89.3,22.3L93.2,20.5L97.6,20L102.3,20.3L107.4,24.5L121.6,38.1L132,47.7L135.3,52.2L138.1,55.5L140,58.7L139.2,66.9L139.4,70.5L139.9,71.5L142.2,71.6L145.8,71L148.7,69.3L151.1,66.6L153.4,64.5L155.2,63.3L155.9,61.6L157,59.8L158,59.5L160.1,60.8L165,65.4L168.8,69.8L169.8,72.2L171.2,74.8L172.7,77.1L173.8,79.2L177.6,82.2L181.3,83.9L183.8,82.1L190.2,88.1L204,93.1L206.7,96.1L209.1,100.4L214,106.9L220.7,112.8L226.3,115.3L231.5,116.7L234.4,118L236.4,120.2L239.6,122.7L241.6,123.5L242.3,125.8L244.4,130.5L246.5,136.5L248.8,142.1L253.8,147.5L259.7,151.7L265.6,154.1L269,157L270.5,160.1L266.4,164.6L262,170.4L258.3,174.9L254.2,178L252.9,180.2L252,183.5L252,201.4L251.7,208.1L252,209.9L252.5,211.1L255.2,212.8L258.1,214.3Z"/></svg>
