<svg xmlns="http://www.w3.org/2000/svg" viewBox="0 0 400 300"><path d="M146,0L138.1,13.5L160.1,20.2L184.6,24L201.9,20L221.7,1.2L221.9,0L246.7,0L246.7,0L246.5,8.6L228.1,22.1L213.5,32.2L188.9,56.2L159.8,90.4L159.8,90.4L154.3,110.7L148.5,137L148.7,162.7L144,168.5L142.3,185.5L140.8,199.2L168.5,222L165.5,240.5L179.1,252.2L178,265.5L157.5,300L0,300L0,0Z" fill="#2c2c34" stroke="#474751" stroke-width="0.8"/><path d="M355.9,0L355.7,1.3L359.3,14.8L355.3,39.7L350.3,51.8L335,65.5L310.8,109.9L291.7,130.1L276.9,142.2L266.9,166.8L252.5,181.7L252.5,181.7L246.5,166.9L256,154.6L243.5,137.1L226.4,122.9L203.9,106.5L195.8,107.3L173.9,87.7L159.8,90.4L188.9,56.2L213.5,32.2L228.1,22.1L246.5,8.6L246.7,0L355.9,0Z" fill="#2c2c34" stroke="#474751" stroke-width="0.8"/><path d="M221.9,0L221.7,1.2L201.9,20L184.6,24L160.1,20.2L138.1,13.5L146,0L221.9,0Z" fill="#2c2c34" stroke="#474751" stroke-width="0.8"/><path d="M252.5,181.1L251.5,182L250.3,183.9L249,188.3L244.4,194.4L243.5,197.9L238.6,201.4L235.2,205.5L232.9,205.4L230.9,207.2L219.2,212.5L214.9,211.5L211.9,211.5L208.9,209.2L202.4,208.3L198.2,209.3L192.6,211.9L191,211.8L189.8,211.7L186.7,210.6L185.1,208.3L176.6,205.7L169.7,199.7L161.5,199.7L155.3,200.4L154.4,199.6L153.8,198.1L152.4,195.9L147.1,190.7L142.9,185.5L142.1,180.5L142.6,175L143.9,168.4L143.7,166.4L145.2,165.3L146.8,165L148.3,163.4L149.6,160.8L149.8,158.9L148.8,155.4L148,150.4L147.2,148L148.9,144.1L149,142.2L148,140.6L147.7,138.9L148.2,137.1L148.1,135.5L147.5,133.9L148,132.5L149.5,131.5L150.7,129.9L151.5,127.7L151.9,126.1L151.9,124.9L151.4,123.9L150.5,122.9L150.9,120.8L152.7,117.9L153.9,115.2L154.5,112.9L154.5,111L153.8,109.6L154.1,108.6L155.3,108.2L155.7,106.7L155.6,103L154.4,99.9L155.3,97.5L157.8,94.6L159.3,92.4L159.3,90.7L160.1,89.7L161.4,91.5L165.1,92L168.8,92.1L169.3,91.6L170.8,88.6L172.7,87.7L174.8,87.5L177.1,87.6L179.5,89.6L186.3,96.2L191.4,100.8L192.9,103L194.3,104.6L195.2,106.1L194.8,110L194.9,111.8L195.1,112.3L196.2,112.3L198,112L199.4,111.2L200.5,109.9L201.6,108.9L202.5,108.3L202.8,107.5L203.4,106.7L203.8,106.5L204.9,107.1L207.2,109.3L209,111.4L209.5,112.6L210.2,113.8L210.9,115L211.5,116L213.3,117.4L215.1,118.2L216.2,117.3L219.3,120.2L226,122.6L227.2,124.1L228.4,126.1L230.8,129.3L234,132.1L236.7,133.3L239.2,134L240.6,134.6L241.5,135.7L243.1,136.9L244,137.3L244.4,138.3L245.4,140.6L246.4,143.5L247.5,146.2L249.9,148.8L252.8,150.8L255.6,152L257.2,153.4L257.9,154.8L256,157L253.9,159.8L252,162L250.1,163.5L249.5,164.5L249.1,166.1L249.1,174.7L248.9,177.9L249.1,178.8L249.3,179.4L250.6,180.2L252,180.9Z" fill="#b8e653" stroke="#0c0e06" stroke-width="1"/></svg>
