<svg xmlns="http://www.w3.org/2000/svg" viewBox="0 0 300 300"><path fill="#e8e8ea" d="M246.8,134.8L247.3,134.4L248.2,134L249.6,134.7L250.9,135.6L251.1,136L251.1,136.5L248.1,138.2L246.3,139.1L245.5,139.2L245.3,139.4L244.7,141.4L243.5,141.7L242,142.4L241,143.3L239.4,145.4L235.2,148.5L235.2,149.2L235.5,149.7L236.9,150.1L238.7,151L239.6,151.7L242.3,150.8L242.9,151L243.6,152L244.3,154.8L245.5,155.5L247.1,156.1L248,156.3L249.3,157L251,157.2L252.2,157L253.6,157.6L253.8,157.3L254,153.2L255.2,153.9L255.9,153.8L256.5,153.4L256.8,152.6L257,151.3L256.8,149.9L257.3,149.3L257.7,149.1L258,149.3L258.2,149.7L258.2,150.9L259.1,151.4L259.7,151.7L260.1,152.8L260.6,153.8L261,156.1L262.2,156.3L263.6,156.7L264.5,156.3L265.3,156.6L265.5,157.7L265.5,158.7L265.6,159.5L266,159.8L267.2,159.3L268.3,159.2L269.3,159.7L270.5,160.4L272.2,162.4L272.7,162.7L275.4,162.8L275.9,163.2L276.8,163.2L277.8,162.8L279.9,163.5L280,163.9L279.6,164.3L274.5,167L274.1,167.9L273.1,169L271.9,169.5L271.4,169.6L268.9,168.5L268.6,168.7L268.4,169.2L268.4,169.7L268.9,170.8L268.7,171.5L268.2,172L266.6,171.6L266.3,171.3L266.3,171L265.7,171L264.8,171.3L263,173.2L262.3,174.2L262.1,174.9L261.3,175.2L260.4,175.3L259.3,176.3L258.1,177L257.7,176.4L257.5,175.9L257.1,175.7L256.4,175.8L255.5,175.9L254.6,175.2L253.3,174.5L252.2,174.3L249.1,174.6L247.5,174.9L247,175.2L246.1,175.3L242.4,176L241.6,175.8L241.1,174.7L240.6,173.5L239.6,173.1L238.5,172.8L238.1,172.4L238.1,171.8L238.2,171.3L238.3,171L240.8,168.8L243.1,166.8L243.3,166.7L243.5,166.3L243.8,165.6L243.8,165.3L242.1,164.5L242.1,164.1L242.4,163.7L242.4,163.3L241.2,161.8L239.1,159.6L238.5,159.4L238.1,159.5L237.3,161.7L236.9,162.2L234.6,163.6L232.5,164.7L229.1,166.4L228.1,166.9L227.5,166.8L226.9,166.5L224.9,164.7L223.6,164.1L222.7,164.7L222,165.6L222.1,167.4L221.3,168.3L220.4,168.7L221.9,173.5L221.8,174.1L220.7,174.3L221.5,176.1L220.8,176.3L219,175.9L216.6,175.6L212,176.4L211.7,176.7L211.6,177.1L211.9,177.4L214.1,177.5L216.2,177.3L216.8,177.6L216.9,178.2L216.7,178.6L216,178.6L214.4,179L214.2,179.4L214.1,179.7L214.7,180.8L215.3,181.4L215.4,181.8L215.1,182.1L214.8,182.3L214.3,181.8L214,181.9L213.8,182.3L213.7,182.8L213.3,183.2L212.6,183L211.9,183.2L211.4,185.1L211.1,187.2L209.9,188.6L209.2,189.1L208.2,189.3L206.8,189.1L205.9,188.9L203.4,188.6L200.8,188L197.9,187.4L195.2,188.7L194.5,189.5L194,190.2L193.5,190.5L192.4,194.9L192.5,195.4L193.1,195.8L196.4,196.7L196.9,197L197.2,197.5L197.3,199.4L197.5,199.7L198.7,200L200.3,200L201.6,199.8L202.9,199.9L203.8,200.4L204.2,201L204.4,201.7L202.9,206L203,207.6L203.5,209.8L204.4,211.6L206,213.3L207.2,214.4L207.5,214.9L207.6,215.7L207.4,216.7L206.6,218.3L205.8,219.7L204.8,220.3L203.5,222.1L202.3,224.3L200.1,227.2L199.4,228.8L199.1,233.4L198.5,234.8L198.5,234.3L197.6,233.7L196.2,233.8L195.3,233.6L194.9,233L193.7,233.2L191.9,234.1L190,233.6L188.1,231.7L184.4,231L179.8,231.4L179.6,229.3L179.6,226.7L179.9,223.1L181.4,220.3L181.4,219.7L181.1,219.2L180.6,218.8L177.8,218L177,217.6L175.9,216.7L174.5,215.8L173.3,215.1L171.5,214.3L169.7,213.8L168.7,214.2L167.8,214.6L166.9,214.6L166,214.4L162.8,212.2L157.9,208.6L154,206L151.6,204.8L151,204.3L149.6,203.2L146.3,200.1L144,200.5L140.9,198.5L138,196.5L137.4,196L134.1,192.3L130.8,189.8L127.3,187.2L125,185.6L121.1,182.8L119.3,181.1L118.6,180.5L118,179.3L117,173.4L115.8,170.7L114.1,169.2L112.7,166.4L111.5,162.2L110.6,159.4L109.8,158.2L108.2,156.8L105.9,155.2L103.7,154.5L102.8,154.5L102.5,154.7L102,155L101.1,156.1L99.8,156.3L98.9,156.2L97.9,155.8L95.1,155.5L94.1,155.1L92.4,155.1L88.8,155.7L87.9,155.6L84,153L82.3,152L82,151.5L82,150.5L82.6,149.1L83.1,148.1L82.8,147L82.1,145.9L82.1,144.7L82.6,144L83.7,144.2L84,143.8L83.9,143.2L83.3,142.7L82.6,141.7L80.4,140.8L80.1,140.4L80.2,139.9L80.6,139.4L80.7,138.4L80.7,137.1L81,136.5L81.1,135.9L80.8,135.5L80,135L78.9,133.8L77.4,133.7L72.7,133.7L71.2,133.2L70,132.6L68.9,130L68.3,129.3L67.7,129.1L66.4,129L64.8,128.8L64,128.3L61.7,126L59.6,123.8L58.7,125.8L57.9,126.2L56.1,126.1L54.6,125.7L53.8,126.2L53,127L53.1,127.5L53.8,128L55.1,129L57,131.5L57.9,132.9L58,133.3L57.9,133.7L57.6,133.9L57.2,133.9L56.7,133.8L56.4,133.4L56.3,132.7L55.6,131.7L55,131.1L54.2,130.7L53.2,130.4L51.8,129.9L51.1,129.8L50.4,130.5L49.8,131.2L49.5,133L48.5,135.1L47.9,136L45.9,136.5L41.3,136.6L39.9,137.3L39,138.1L37.2,140.7L36,141.6L35,142.7L35.3,146.5L35.8,151L36.7,152.2L37.2,152.6L37.3,153L37,153.4L36.5,153.9L35.8,154.8L35,154.7L33.4,154.5L32.1,154.3L27.6,154L24,153.8L20.1,153.6L20.1,148.9L20.1,144.3L20.1,139.6L20,134.9L20,130.2L20,125.5L20,120.8L20,116L20,111.2L20,106.4L20,101.6L20,96.8L20,91.9L20,87L20,82.2L20,77.3L21.9,76.6L24.3,75.9L26.6,75.1L29.3,74.3L32.4,73.2L35,72.4L38.1,71.4L40.5,70.6L42.7,69.9L45.6,69L50.1,67.7L52.6,67L55.1,66.2L57.5,65.5L59.1,65.2L60.8,66.2L62.9,67.6L65,69.1L67.1,70.5L69.2,71.9L71.3,73.3L73.4,74.7L75.5,76.2L77.5,77.6L79.7,78.9L81.7,80.4L83.8,81.8L85.9,83.2L88,84.6L90.1,86L92.2,87.4L94.3,88.8L96.2,90.1L97.1,91L97.6,93.2L98.5,94.8L100.2,96.6L102,98.5L104.1,101L105.6,102.7L107.1,104.4L109.6,107.3L111.1,109L112.4,109.1L114.9,108.7L118.2,108.1L120.9,107.6L124.1,107.1L127.2,106.6L129.6,106.2L133.2,106.5L136.7,106.8L139.3,107L141.8,107.3L144.7,107.5L146.4,107.6L148.3,107.8L149.1,107.4L150.7,106.5L152.3,105.7L153.9,104.8L155.3,104.4L156.8,105.8L158,107.3L159.3,109L160.8,110.6L162.3,111.6L164.3,112.8L165.4,115L166.9,118L167.9,119.9L168.9,121.8L170.4,121L172,120.2L173.4,119.5L173.2,121.9L173,124.1L172.8,127.4L172.6,130.2L172.1,133.4L172.1,135.9L172.1,138L172,139.7L174.8,139.8L176.9,139.9L179.4,139.9L179.7,142.1L180,145.1L180.6,147.8L181,150.1L181.7,153L182,154.6L182.6,156.5L183.2,156.9L184.2,157.2L187.6,157L190.4,156.8L192.7,156.6L195,156.5L198.2,156.3L199.2,156.7L200.2,156.4L201.2,156.1L202.1,157.4L202.5,158.1L203.1,158.8L203.9,159.5L203.5,160.9L203,162.8L202.9,163.9L203.9,165L204.6,165.6L206.6,166.9L208.4,167.7L209.7,167.9L210.8,167.6L211.3,166.9L211.2,165.8L210.6,164.8L210.7,163.5L211,162.5L212.2,160.8L213.4,159.2L215.1,157.6L217.1,155.9L218,154.8L218.3,152.7L219.7,151.5L221.1,150.8L222.9,150.2L223.4,149.1L225.9,147.4L227.4,146.5L229.3,146L231.9,144.8L233.9,143.5L235.9,140.9L237.5,139.3L238.8,138.2L239.9,138.2L240.7,139L241.3,139.1L241.8,138.7L242.5,137.6L243.3,136.4L244.1,135.9L245.5,135.6ZM242.4,161.3L242.3,160.8L241.9,160L241.2,159.6L240.8,159.7L241.1,160.4L241.9,161.4Z"/></svg>
