<svg xmlns="http://www.w3.org/2000/svg" viewBox="0 0 400 300"><path d="M246.1,0L248.3,12L255.9,8.9L265.2,13.2L264.6,19.9L271.6,19.2L289.8,7.5L287.2,11.4L296.5,21L312.7,51.1L316.6,45L326.7,51.7L337.1,48.8L341.2,50.8L344.7,57.5L349.7,59.7L352.9,64.5L362.2,63L366.1,69.8L366.1,69.8L360.5,77.2L354.5,78.2L354.2,89.1L350.1,94L335.7,90.5L330.4,109.4L326.7,111.7L312.2,115.8L318.8,133.4L313.8,136L314.4,141.7L309.9,140.2L306.2,136.7L295.4,135.6L283.3,135.3L280.7,136.4L270.3,132.3L266.2,134.3L265.1,140.2L253.1,136.8L248.3,138.2L246.7,142.5L242.5,144.3L232.9,151.1L229.7,158L227,158.1L225,153.5L215.7,153.2L214.2,145.2L210.7,145.2L211.2,135.2L202.5,127.9L190,128.7L181.5,130.2L174.5,121.1L168.6,117.2L157.3,109.8L155.9,108.9L137.2,115L137.4,151.8L133.7,152.3L128.6,144.7L123.7,141.9L115.4,144L112.2,147.2L111.8,144.8L113.6,140.7L112.2,137.3L103.8,133.9L100.5,124.9L96.4,122.3L96.2,119L103.3,120L103.6,112.4L109.8,110.8L116.1,112.3L117.4,102.1L116.1,95.6L108.8,96.1L102.7,93.5L94.2,98.2L87.4,100.4L83.7,98.7L84.5,93.2L79.8,86L74.4,86.3L68.2,78.9L72.4,70.5L70.3,68.3L76.1,55.8L83.6,62.4L84.5,54.1L99.6,41.5L110.9,41.2L127,49.3L135.6,53.9L143.3,49.1L154.9,48.8L164.2,54.8L166.3,51.4L176.6,51.9L178.4,46.4L166.6,38.3L173.6,32.5L172.2,29.3L179.2,26.1L173.9,17.8L177.3,13.6L204.5,9.2L208.1,6.1L226.3,1.5L228.2,0L246.1,0Z" fill="#2c2c34" stroke="#474751" stroke-width="0.8"/><path d="M400,52.6L390.5,57.2L376.6,67L369,68.9L366.1,69.8L362.2,63L352.9,64.5L349.7,59.7L344.7,57.5L341.2,50.8L337.1,48.8L326.7,51.7L316.6,45L312.7,51.1L296.5,21L287.2,11.4L289.8,7.5L271.6,19.2L264.6,19.9L265.2,13.2L255.9,8.9L248.3,12L246.1,0L400,0ZM228.2,0L226.3,1.5L208.1,6.1L204.5,9.2L177.3,13.6L173.9,17.8L179.2,26.1L172.2,29.3L173.6,32.5L166.6,38.3L178.4,46.4L176.6,51.9L166.3,51.4L164.2,54.8L154.9,48.8L143.3,49.1L135.6,53.9L127,49.3L110.9,41.2L99.6,41.5L84.5,54.1L83.6,62.4L76.1,55.8L70.3,68.3L72.4,70.5L68.2,78.9L74.4,86.3L79.8,86L84.5,93.2L83.7,98.7L87.4,100.4L84.1,106.6L77.1,108.3L69.8,119L76.4,128.6L75.7,135.4L83.7,147L79.3,150.9L78.1,153.4L74.9,152.7L69.8,146.8L67.8,146.5L63.2,144.2L61,140.2L54.2,138.1L49.8,139.6L48.5,137.8L38.6,133L27.9,131.4L21.7,129.7L20.8,130.9L11.5,122.3L3.2,118.5L0,115.4L0,111.5L0,111.5L2.2,110.8L8.3,102L4.2,97.9L14.9,93.5L14.7,91.2L8.2,92.9L8.4,88.1L12.2,85.1L19.2,84.3L20.4,80.7L18.8,74.6L21.7,68.8L21.7,65.5L10.9,61.8L6.7,62L2.1,56.6L0,57.3L0,0Z" fill="#2c2c34" stroke="#474751" stroke-width="0.8"/><path d="M0,232.6L12.3,224.6L15.3,235.2L13.9,236.5L0,240.6L0,232.6ZM0,241.6L6.6,249.3L4.2,250.7L3,253.5L0,254.1L0,241.6Z" fill="#2c2c34" stroke="#474751" stroke-width="0.8"/><path d="M124.7,300L128.2,296.3L133.6,291.1L138.2,286.1L139.6,288.9L140.6,295.2L136.8,295.3L136.3,300L124.7,300Z" fill="#2c2c34" stroke="#474751" stroke-width="0.8"/><path d="M99.9,296.6L99.4,290.8L101.4,286.5L103.4,285.6L105.6,288.2L105.7,292.9L104.1,297.6L102.1,298.2Z" fill="#2c2c34" stroke="#474751" stroke-width="0.8"/><path d="M79.2,253.8L80.8,257.5L80.1,259.4L82.4,265.6L77.3,265.9L75.5,261.9L69,261.1L74.3,253.1Z" fill="#2c2c34" stroke="#474751" stroke-width="0.8"/><path d="M15.3,235.2L12.3,224.6L28.5,215.5L31.2,204.7L30.5,198.2L34.5,195.9L38.3,190.2L41.4,188.8L49.9,190L52.4,192.3L55.9,190.8L60.6,201.6L65.4,204.3L65.9,209.5L62.3,212.6L60.6,219.5L65.7,227.8L74.6,232.5L78.3,239.1L77.1,245.2L79.4,245.2L79.5,249.7L83.5,254.2L79.2,253.8L74.3,253.1L69,261.1L55.5,260.4L34.9,243.5L24.1,237.5Z" fill="#2c2c34" stroke="#474751" stroke-width="0.8"/><path d="M136.3,300L136.8,295.3L140.6,295.2L143.4,300L136.3,300ZM139.6,288.9L138.2,286.1L140.3,283.4L141.2,284.1L140.5,287.4Z" fill="#2c2c34" stroke="#474751" stroke-width="0.8"/><path d="M400,113.6L392.2,112L389.6,107.5L392.4,95.2L387.4,86.5L377,82.5L370.9,76.7L369,68.9L369,68.9L376.6,67L390.5,57.2L400,52.6L400,113.6Z" fill="#2c2c34" stroke="#474751" stroke-width="0.8"/><path d="M400,294L398.4,293.5L391.7,293.6L384.7,292.5L384.1,286.9L380.6,286.4L374.9,282.9L372.3,288.4L377.5,292.7L373,295.7L371.4,298.6L374.2,300L231,300L231,300L231.2,299.8L247.3,299.8L245.8,292.9L241.7,288.8L240.9,282.6L236.1,278.9L244.1,270.3L252.6,270.9L260.2,262.2L264.8,253.8L271.9,245.3L271.8,239.2L277.9,234.2L272.1,230L269.6,224.1L267,216.4L270.6,212.6L281.6,214.7L289.7,213.4L296.7,205.9L304.6,216.4L303.8,223.5L306.7,228L306.5,232.4L301.3,231.2L303.3,240.7L310.5,246.1L320.6,252L316,255.8L313.1,263.6L320.2,266.8L327.1,270.8L336.6,275.4L346.5,276.5L350.7,280.7L356.4,281.4L365.1,283.3L371.2,283.2L372,280L371.1,274.8L371.6,271.2L376.1,269.5L376.7,276L376.9,277.6L383.5,280.7L388.1,279.4L394.2,280L400,279.8L400,294ZM400,274.1L397.7,272.1L400,271.7L400,274.1Z" fill="#2c2c34" stroke="#474751" stroke-width="0.8"/><path d="M374.2,300L371.4,298.6L373,295.7L377.5,292.7L372.3,288.4L374.9,282.9L380.6,286.4L384.1,286.9L384.7,292.5L391.7,293.6L398.4,293.5L400,294L400,300Z" fill="#2c2c34" stroke="#474751" stroke-width="0.8"/><path d="M400,279.8L394.2,280L388.1,279.4L383.5,280.7L376.9,277.6L376.7,276L381.5,269.9L385.5,267.8L390.6,269.7L394.5,269.9L397.7,272.1L397.7,272.1L400,274.1L400,279.8Z" fill="#2c2c34" stroke="#474751" stroke-width="0.8"/><path d="M371.6,271.2L371.1,274.8L372,280L371.2,283.2L365.1,283.3L356.4,281.4L350.7,280.7L346.5,276.5L336.6,275.4L327.1,270.8L320.2,266.8L313.1,263.6L316,255.8L320.6,252L323.6,250L329.4,252.6L336.8,258.1L340.9,259.3L343.3,263.3L349,264.9L354.9,268.5L363.1,270.4Z" fill="#2c2c34" stroke="#474751" stroke-width="0.8"/><path d="M219.9,300L218.9,297.3L213.2,291.2L199.8,292.7L188,292.9L177.7,294L180.5,284.6L191,280.4L190.4,276.7L186.9,275.3L186.7,268.1L179.7,264.4L176.8,259.4L173.2,255L185.4,259.3L192.7,258L197,259.1L198.5,257.3L203.6,258L213,254.5L213.3,247.3L217.3,242.5L222.8,242.5L223.6,240.1L229.1,239L231.8,239.8L234.7,237.4L234.3,232.2L237.4,227L242,224.8L239.1,219L246.1,219.3L248.1,216.1L247.8,212.7L251.4,209L250.6,204.5L248.8,200.7L253.1,196.8L260.9,194.9L269.3,193.8L273,192.2L277.2,191.1L282.6,195.4L284.8,202.3L296.7,205.9L296.7,205.9L289.7,213.4L281.6,214.7L270.6,212.6L267,216.4L269.6,224.1L272.1,230L277.9,234.2L271.8,239.2L271.9,245.3L264.8,253.8L260.2,262.2L252.6,270.9L244.1,270.3L236.1,278.9L240.9,282.6L241.7,288.8L245.8,292.9L247.3,299.8L231.2,299.8L231,300L219.9,300Z" fill="#2c2c34" stroke="#474751" stroke-width="0.8"/><path d="M214.3,189L218.3,189.1L223.8,191L226.1,192.1L231.3,189.2L233.8,191L236.1,186.8L240.5,186.9L241.6,185.6L242.4,181.9L245.5,178.7L249.5,180.8L248.7,183.6L250.9,184L250.2,191.7L253.1,194.7L255.6,192.8L258.9,191.9L263.4,187.8L268.4,188.5L275.9,188.5L277.2,191.1L273,192.2L269.3,193.8L260.9,194.9L253.1,196.8L248.8,200.7L250.6,204.5L251.4,209L247.8,212.7L248.1,216.1L246.1,219.3L239.1,219L242,224.8L237.4,227L234.3,232.2L234.7,237.4L231.8,239.8L229.1,239L223.6,240.1L222.8,242.5L217.3,242.5L213.3,247.3L213,254.5L203.6,258L198.5,257.3L197,259.1L192.7,258L185.4,259.3L173.2,255L179.8,247.3L179.2,241.9L173.7,240.4L173.1,235L170.7,228.1L173.8,223.3L170.7,222L172.7,215.6L175.6,204.6L183.1,207.9L188.6,206.8L190.1,202.7L195.8,201.3L199.9,198.6L201.4,191.3L207.5,189.6L208.7,186.3L212.1,188.7Z" fill="#2c2c34" stroke="#474751" stroke-width="0.8"/><path d="M223.8,191L227.9,181.7L226.4,174.8L221,172.5L222.9,168.4L229,168.8L232.5,163.6L234.8,157.4L244.5,155.2L243,159.7L244,162.3L247,162.1L244.4,165L236.4,163.4L235.8,168.9L243.6,168.2L252.6,171.2L266.4,169.8L268.3,178.5L270.7,177.5L275.1,179.6L274.8,183.3L275.9,188.5L268.4,188.5L263.4,187.8L258.9,191.9L255.6,192.8L253.1,194.7L250.2,191.7L250.9,184L248.7,183.6L249.5,180.8L245.5,178.7L242.4,181.9L241.6,185.6L240.5,186.9L236.1,186.8L233.8,191L231.3,189.2L226.1,192.1Z" fill="#2c2c34" stroke="#474751" stroke-width="0.8"/><path d="M246.7,142.5L248.3,138.2L253.1,136.8L265.1,140.2L266.2,134.3L270.3,132.3L280.7,136.4L283.3,135.3L295.4,135.6L306.2,136.7L309.9,140.2L314.4,141.7L313.4,143.9L301.9,149.2L299.3,153L290,154.2L287.2,160.3L279.5,159L274.5,160.9L267.5,165.4L268.5,167.6L266.4,169.8L252.6,171.2L243.6,168.2L235.8,168.9L236.4,163.4L244.4,165L247,162.1L252.6,163L261.9,156.1L253.3,151L248.1,153.4L242.7,149.8L248.8,143.5Z" fill="#2c2c34" stroke="#474751" stroke-width="0.8"/><path d="M112.2,147.2L115.4,144L123.7,141.9L128.6,144.7L133.7,152.3L137.4,151.8L145.7,151.7L144.5,146.8L150.7,143.4L156.8,137.7L166.6,142.9L167.4,150.7L170.2,152.7L178.1,152.3L180.5,154L184.1,163.9L192.4,170.4L197.2,174.9L204.8,179.4L214.5,183.4L214.3,189L212.1,188.7L208.7,186.3L207.5,189.6L201.4,191.3L199.9,198.6L195.8,201.3L190.1,202.7L188.6,206.8L183.1,207.9L175.6,204.6L175,197L169.6,196.6L161.2,188.6L155.4,187.6L147.4,182.9L142.2,182L139,183.8L134.1,183.5L129,188.8L122.6,190.5L121.2,184L122.2,174.3L116.6,171.1L118.4,164.6L113.6,164.1L115.2,156L122.1,158.4L128.5,155.3L123.2,149.5L121.1,143.9L115.2,146.4L114.5,153.5Z" fill="#2c2c34" stroke="#474751" stroke-width="0.8"/><path d="M83.5,254.2L79.5,249.7L79.4,245.2L77.1,245.2L78.3,239.1L74.6,232.5L65.7,227.8L60.6,219.5L62.3,212.6L65.9,209.5L65.4,204.3L60.6,201.6L55.9,190.8L51.9,183.4L53.4,180.6L51.1,169.8L56.1,167.1L57.2,170.7L60.9,175L65.9,176.3L68.5,176L77.1,169.1L79.8,168.4L82,171.1L79.5,175.8L84,180.7L85.8,180.2L88.2,187L95,188.9L100.1,193.5L110.5,195.1L121.8,192.7L122.6,190.5L129,188.8L134.1,183.5L139,183.8L142.2,182L147.4,182.9L155.4,187.6L161.2,188.6L169.6,196.6L175,197L175.6,204.6L172.7,215.6L170.7,222L173.8,223.3L170.7,228.1L173.1,235L173.7,240.4L179.2,241.9L179.8,247.3L173.2,255L176.8,259.4L179.7,264.4L186.7,268.1L186.9,275.3L190.4,276.7L191,280.4L180.5,284.6L177.7,294L164,291.6L156.1,289.7L147.9,288.7L144.8,278.7L141.3,277.2L135.7,278.7L128.3,282.7L119.4,280L112.1,273.7L105.1,271.3L100.2,263.5L94.8,252.3L90.9,253.7L86.3,250.9Z" fill="#2c2c34" stroke="#474751" stroke-width="0.8"/><path d="M0,195.7L7.8,193.2L11.7,195L17.7,194.9L26.1,191.5L30,191.7L38.3,190.2L34.5,195.9L30.5,198.2L31.2,204.7L28.5,215.5L12.3,224.6L0,232.6L0,195.7Z" fill="#2c2c34" stroke="#474751" stroke-width="0.8"/><path d="M68.5,176L65.9,176.3L62.9,170.8L63,169.4L59.7,169.4L57.6,166.9L56.1,167.1L53.2,164.4L47.8,162L48.5,157.3L47.2,153.9L57.4,152.4L58.9,155L61.6,156.7L60.2,159.1L64.1,162.3L62,165.4L65.1,167.9L68.4,169.5Z" fill="#2c2c34" stroke="#474751" stroke-width="0.8"/><path d="M0,57.3L2.1,56.6L6.7,62L10.9,61.8L21.7,65.5L21.7,68.8L18.8,74.6L20.4,80.7L19.2,84.3L12.2,85.1L8.4,88.1L8.2,92.9L2.4,93.8L0,95.5L0,57.3Z" fill="#2c2c34" stroke="#474751" stroke-width="0.8"/><path d="M0,152.1L9.1,155.3L17.6,153.8L23.9,154.7L32.5,149.6L40.2,149.2L47.2,153.9L48.5,157.3L47.8,162L53.2,164.4L56.1,167.1L51.1,169.8L53.4,180.6L51.9,183.4L55.9,190.8L55.9,190.8L52.4,192.3L49.9,190L41.4,188.8L38.3,190.2L30,191.7L26.1,191.5L17.7,194.9L11.7,195L7.8,193.2L0,195.7L0,152.1Z" fill="#2c2c34" stroke="#474751" stroke-width="0.8"/><path d="M400,271.7L397.7,272.1L394.5,269.9L390.6,269.7L385.5,267.8L381.5,269.9L376.7,276L376.1,269.5L371.6,271.2L363.1,270.4L354.9,268.5L349,264.9L343.3,263.3L340.9,259.3L336.8,258.1L329.4,252.6L323.6,250L320.6,252L310.5,246.1L303.3,240.7L301.3,231.2L306.5,232.4L306.7,228L303.8,223.5L304.6,216.4L296.7,205.9L284.8,202.3L282.6,195.4L277.2,191.1L275.9,188.5L274.8,183.3L275.1,179.6L270.7,177.5L268.3,178.5L266.4,169.8L268.5,167.6L267.5,165.4L274.5,160.9L279.5,159L287.2,160.3L290,154.2L299.3,153L301.9,149.2L313.4,143.9L314.4,141.7L314.4,141.7L313.8,136L318.8,133.4L312.2,115.8L326.7,111.7L330.4,109.4L335.7,90.5L350.1,94L354.2,89.1L354.5,78.2L360.5,77.2L366.1,69.8L369,68.9L370.9,76.7L377,82.5L387.4,86.5L392.4,95.2L389.6,107.5L392.2,112L400,113.6L400,271.7Z" fill="#2c2c34" stroke="#474751" stroke-width="0.8"/><path d="M67.8,146.5L69.8,146.8L74.9,152.7L78.1,153.4L79.3,150.9L83.7,147L87.5,152.1L91.2,158.9L94.6,159.4L96.8,162L90.9,162.7L89.6,170.1L88.3,173.4L85.7,175.6L85.8,180.2L84,180.7L79.5,175.8L82,171.1L79.8,168.4L77.1,169.1L68.5,176L68.4,169.5L65.1,167.9L62,165.4L64.1,162.3L60.2,159.1L61.6,156.7L58.9,155L57.4,152.4L59.1,150.9L64.6,153.6L68.5,154.2L69.5,153.1L65.9,147.8ZM65.9,176.3L60.9,175L57.2,170.7L56.1,167.1L57.6,166.9L59.7,169.4L63,169.4L62.9,170.8Z" fill="#2c2c34" stroke="#474751" stroke-width="0.8"/><path d="M20.8,130.9L21.7,129.7L27.9,131.4L38.6,133L48.5,137.8L49.8,139.6L54.2,138.1L61,140.2L63.2,144.2L67.8,146.5L65.9,147.8L69.5,153.1L68.5,154.2L64.6,153.6L59.1,150.9L57.4,152.4L47.2,153.9L40.2,149.2L32.5,149.6L33.6,145.5L31.7,138.8L27.5,135.1L23.5,133.9Z" fill="#2c2c34" stroke="#474751" stroke-width="0.8"/><path d="M0,254.1L3,253.5L4.2,250.7L6.6,249.3L0,241.6L0,240.6L0,240.6L13.9,236.5L15.3,235.2L24.1,237.5L34.9,243.5L55.5,260.4L69,261.1L75.5,261.9L77.3,265.9L82.4,265.6L85.3,272.8L88.9,274.7L90.1,277.5L95.1,281L95.5,284.3L94.8,287L95.7,289.7L97.8,292L98.8,294.6L99.9,296.6L102.1,298.2L104.1,297.6L105.2,300L2.6,300L2.6,300L0.4,295.8L0.8,294L0,292.3L0,254.1Z" fill="#2c2c34" stroke="#474751" stroke-width="0.8"/><path d="M246.6,142.7L246.8,142.5L247.2,142.3L247.9,142.7L248.5,143.1L248.6,143.3L248.6,143.5L247.2,144.3L246.3,144.7L245.9,144.8L245.8,144.9L245.5,145.9L245,146L244.3,146.3L243.8,146.8L243,147.8L241,149.3L240.9,149.6L241.1,149.9L241.8,150L242.6,150.5L243.1,150.8L244.4,150.4L244.7,150.5L245,151L245.4,152.3L245.9,152.7L246.7,152.9L247.1,153L247.7,153.4L248.6,153.5L249.1,153.4L249.8,153.6L249.9,153.5L250,151.5L250.6,151.9L250.9,151.8L251.2,151.6L251.4,151.3L251.5,150.6L251.3,150L251.6,149.7L251.8,149.6L251.9,149.7L252,149.8L252,150.4L252.5,150.7L252.7,150.8L253,151.3L253.2,151.8L253.3,153L253.9,153L254.6,153.2L255.1,153L255.4,153.2L255.6,153.7L255.5,154.2L255.6,154.6L255.8,154.7L256.4,154.5L256.9,154.4L257.3,154.7L257.9,155L258.8,156L259,156.1L260.3,156.2L260.5,156.4L261,156.4L261.4,156.2L262.5,156.5L262.5,156.7L262.3,156.9L259.9,158.2L259.7,158.6L259.2,159.1L258.6,159.4L258.4,159.4L257.2,158.9L257,159L256.9,159.2L256.9,159.5L257.2,160L257,160.3L256.8,160.6L256.1,160.4L255.9,160.2L255.9,160.1L255.6,160.1L255.2,160.2L254.3,161.2L254,161.7L253.9,162L253.5,162.1L253.1,162.2L252.6,162.6L252,163L251.8,162.7L251.7,162.4L251.5,162.3L251.2,162.4L250.7,162.4L250.3,162.1L249.7,161.8L249.2,161.7L247.6,161.8L246.9,162L246.6,162.1L246.2,162.2L244.4,162.5L244,162.4L243.8,161.9L243.5,161.3L243.1,161.1L242.5,161L242.4,160.8L242.3,160.5L242.4,160.2L242.4,160.1L243.6,159L244.7,158.1L244.9,158L244.9,157.8L245.1,157.5L245.1,157.3L244.3,157L244.3,156.8L244.4,156.6L244.4,156.4L243.9,155.7L242.9,154.6L242.6,154.5L242.4,154.6L242,155.6L241.8,155.9L240.7,156.6L239.7,157L238,157.9L237.6,158.1L237.2,158.1L237,157.9L236,157.1L235.4,156.8L235,157.1L234.6,157.5L234.7,158.3L234.3,158.8L233.9,159L234.6,161.3L234.5,161.6L234,161.7L234.4,162.5L234,162.6L233.2,162.4L232,162.3L229.8,162.7L229.7,162.8L229.6,163L229.7,163.2L230.8,163.2L231.8,163.1L232.1,163.3L232.2,163.6L232.1,163.7L231.7,163.8L231,163.9L230.9,164.1L230.8,164.3L231.1,164.8L231.4,165.1L231.4,165.3L231.3,165.5L231.1,165.5L230.9,165.3L230.7,165.3L230.7,165.5L230.6,165.8L230.4,166L230.1,165.9L229.7,165.9L229.5,166.9L229.4,167.9L228.8,168.6L228.5,168.8L228,168.9L227.3,168.8L226.9,168.7L225.7,168.5L224.4,168.3L223,168L221.8,168.6L221.4,169L221.1,169.3L220.9,169.5L220.4,171.6L220.4,171.8L220.7,172L222.3,172.4L222.5,172.6L222.7,172.8L222.7,173.8L222.9,173.9L223.4,174L224.2,174L224.8,173.9L225.4,174L225.8,174.2L226.1,174.5L226.2,174.9L225.4,176.9L225.5,177.7L225.7,178.8L226.1,179.6L226.9,180.4L227.5,181L227.7,181.2L227.7,181.6L227.6,182.1L227.2,182.9L226.8,183.5L226.4,183.8L225.7,184.7L225.2,185.7L224.1,187.1L223.7,187.9L223.6,190.1L223.3,190.8L223.3,190.5L222.9,190.3L222.2,190.3L221.8,190.2L221.6,189.9L221,190L220.1,190.4L219.2,190.2L218.3,189.3L216.6,188.9L214.3,189.2L214.2,188.1L214.3,186.9L214.4,185.1L215.1,183.8L215.1,183.5L214.9,183.3L214.7,183.1L213.4,182.7L213,182.5L212.4,182.1L211.8,181.6L211.2,181.3L210.3,180.9L209.5,180.7L209,180.8L208.5,181.1L208.1,181.1L207.7,181L206.1,179.9L203.8,178.2L201.9,176.9L200.7,176.3L200.5,176.1L199.8,175.6L198.2,174.1L197.1,174.3L195.6,173.3L194.2,172.3L193.9,172.1L192.4,170.3L190.8,169.2L189.1,167.9L188,167.1L186.1,165.8L185.2,164.9L184.9,164.6L184.6,164.1L184.1,161.3L183.5,160L182.8,159.2L182.1,157.9L181.5,155.9L181.1,154.5L180.7,153.9L179.9,153.3L178.8,152.5L177.7,152.2L177.3,152.2L177.1,152.3L176.9,152.4L176.5,153L175.9,153L175.4,153L175,152.8L173.6,152.6L173.1,152.4L172.3,152.5L170.6,152.7L170.1,152.7L168.3,151.5L167.5,151L167.3,150.7L167.3,150.2L167.6,149.6L167.8,149.1L167.7,148.6L167.4,148L167.4,147.5L167.6,147.1L168.1,147.2L168.3,147L168.2,146.7L167.9,146.5L167.6,146L166.6,145.6L166.4,145.4L166.4,145.2L166.6,144.9L166.7,144.4L166.7,143.8L166.8,143.5L166.9,143.2L166.7,143L166.3,142.8L165.8,142.2L165.1,142.1L162.8,142.2L162.1,141.9L161.5,141.6L161,140.4L160.7,140.1L160.4,140L159.8,139.9L159,139.8L158.6,139.6L157.6,138.4L156.5,137.4L156.1,138.4L155.7,138.6L154.8,138.5L154.2,138.3L153.8,138.5L153.4,138.9L153.4,139.2L153.7,139.4L154.4,139.9L155.3,141.1L155.7,141.8L155.8,142L155.7,142.2L155.6,142.2L155.4,142.2L155.1,142.2L155,142L154.9,141.7L154.6,141.2L154.3,140.9L153.9,140.7L153.4,140.6L152.8,140.3L152.4,140.3L152.1,140.6L151.8,141L151.7,141.8L151.2,142.8L150.9,143.3L150,143.5L147.8,143.6L147.1,143.9L146.6,144.3L145.8,145.5L145.2,145.9L144.7,146.5L144.8,148.3L145.1,150.5L145.5,151.1L145.8,151.2L145.8,151.4L145.7,151.6L145.4,151.9L145.1,152.3L144.7,152.3L144,152.2L143.3,152L141.2,151.9L139.4,151.8L137.5,151.7L137.5,149.5L137.5,147.3L137.5,145L137.5,142.7L137.5,140.5L137.5,138.2L137.5,135.9L137.5,133.6L137.5,131.3L137.5,129L137.5,126.7L137.5,124.4L137.5,122.1L137.5,119.7L137.5,117.4L137.5,115L138.4,114.7L139.6,114.4L140.7,114L142,113.6L143.5,113.1L144.7,112.7L146.2,112.2L147.4,111.8L148.4,111.5L149.8,111.1L152,110.4L153.2,110.1L154.4,109.7L155.5,109.4L156.3,109.2L157.1,109.7L158.1,110.4L159.1,111.1L160.1,111.8L161.2,112.5L162.1,113.1L163.2,113.8L164.2,114.5L165.2,115.2L166.2,115.8L167.2,116.5L168.2,117.2L169.2,117.9L170.2,118.5L171.2,119.2L172.2,119.9L173.2,120.6L174.2,121.2L174.6,121.6L174.8,122.7L175.3,123.5L176.1,124.3L176.9,125.2L177.9,126.4L178.6,127.2L179.4,128.1L180.6,129.4L181.3,130.3L181.9,130.3L183.1,130.1L184.7,129.9L186,129.6L187.6,129.4L189,129.1L190.2,128.9L191.9,129.1L193.6,129.2L194.8,129.3L196.1,129.4L197.5,129.6L198.3,129.6L199.2,129.7L199.6,129.5L200.4,129.1L201.1,128.7L201.9,128.3L202.6,128.1L203.3,128.7L203.8,129.5L204.5,130.3L205.2,131.1L205.9,131.5L206.9,132.1L207.4,133.2L208.1,134.6L208.6,135.5L209.1,136.5L209.8,136.1L210.6,135.7L211.3,135.3L211.2,136.5L211.1,137.5L211,139.1L210.9,140.5L210.6,142L210.6,143.2L210.6,144.2L210.6,145.1L211.9,145.1L212.9,145.1L214.1,145.2L214.3,146.2L214.4,147.6L214.7,148.9L214.9,150L215.2,151.5L215.4,152.2L215.7,153.1L216,153.3L216.5,153.5L218.1,153.4L219.4,153.3L220.5,153.2L221.6,153.1L223.2,153L223.7,153.2L224.1,153.1L224.6,152.9L225,153.6L225.2,153.9L225.5,154.2L225.9,154.6L225.7,155.2L225.5,156.2L225.4,156.7L225.9,157.2L226.3,157.5L227.2,158.1L228.1,158.5L228.7,158.6L229.3,158.5L229.5,158.1L229.4,157.6L229.1,157.1L229.2,156.5L229.3,156L229.9,155.2L230.5,154.4L231.3,153.6L232.3,152.9L232.7,152.3L232.8,151.3L233.5,150.7L234.2,150.4L235,150.1L235.3,149.6L236.5,148.7L237.2,148.3L238.1,148.1L239.4,147.5L240.3,146.9L241.3,145.6L242,144.8L242.7,144.3L243.2,144.3L243.6,144.7L243.9,144.8L244.1,144.6L244.5,144.1L244.9,143.5L245.2,143.2L245.9,143.1ZM244.4,155.4L244.4,155.2L244.2,154.8L243.8,154.6L243.7,154.7L243.8,155L244.2,155.5ZM248.4,165.4L248.1,165.5L247.4,165.5L247,165.4L247.3,164.6L247.3,164.5L247.2,164.5L247.1,164.4L246.7,164.1L246.7,163.6L246.8,163.1L247,163L247.1,163L247.5,163.7L247.9,163.9L248.6,164L248.2,164.6L248.5,165.3ZM252.6,164.9L252.4,165.3L252.1,165.2L251.8,164.9L251.9,164.7L252.3,164.6L252.5,164.5L252.7,164.5Z" fill="#b8e653" stroke="#0c0e06" stroke-width="1"/></svg>
