<svg xmlns="http://www.w3.org/2000/svg" viewBox="0 0 400 300"><path d="M43.3,0L43.3,1.2L45.8,0L57.3,0L57.3,0L63.4,11.2L62.4,21.1L69.6,34.2L61.1,44.7L67.4,71.3L80.7,75.6L77.9,90.3L55.7,109.3L7.5,100.3L0,102.5L0,0ZM109.9,126L125.6,113.3L129.8,141.8L121.7,167.1L110.6,160.4L105,138.3Z" fill="#2c2c34" stroke="#474751" stroke-width="0.8"/><path d="M116.7,300L128.5,294.5L145.7,298.2L145.6,300L116.7,300Z" fill="#2c2c34" stroke="#474751" stroke-width="0.8"/><path d="M400,3L390.2,6.3L375,4.8L356.3,14L347.1,19.3L327,12.5L311.8,0L400,0Z" fill="#2c2c34" stroke="#474751" stroke-width="0.8"/><path d="M400,16.5L390.2,6.3L400,3L400,16.5Z" fill="#2c2c34" stroke="#474751" stroke-width="0.8"/><path d="M400,246.5L390.1,232.5L388.6,223.5L399.9,208L400,207.3L400,246.5Z" fill="#2c2c34" stroke="#474751" stroke-width="0.8"/><path d="M400,207.3L399.9,208L388.6,223.5L384.3,221.3L383.9,214.3L370.4,203.5L368.2,188.2L370.3,166.1L373.6,156L369.5,150.8L367.9,140.3L378.4,124L380,130.3L386.6,127.3L391.8,136.2L397.6,139.6L399.3,151.5L396.2,162.6L399.6,176.6L400,176.9L400,207.3Z" fill="#2c2c34" stroke="#474751" stroke-width="0.8"/><path d="M311.8,0L327,12.5L347.1,19.3L356.3,14L362.2,27.6L370,37.5L360.6,50.5L349.5,42.9L332.6,43.3L311.6,37.6L300.2,38.3L294.9,45.6L286.2,37.6L281,51.9L292.9,68L298.3,78.6L309.5,91.2L318.8,98.7L328,112.7L349.7,125.3L347,130.9L324,118.7L309.8,106.6L287.5,96.6L267,71.7L271.9,69.1L260.7,54.7L260.3,43L244.6,37.6L237.1,52.5L229.9,40.9L230.4,28.9L231.3,28.3L248.3,29.5L252.8,23.6L261.1,29.3L270.7,30L270.6,20.2L279.1,16.7L281.5,2.4L286.6,0L311.8,0Z" fill="#2c2c34" stroke="#474751" stroke-width="0.8"/><path d="M118.8,0L115.3,9.5L103.6,10.7L99.4,5.1L85.7,17L73.9,18.6L63.4,11.2L57.3,0L118.8,0ZM45.8,0L43.3,1.2L43.3,0L45.8,0Z" fill="#2c2c34" stroke="#474751" stroke-width="0.8"/><path d="M232.4,0L230.8,10.3L236.7,25.2L217.3,20.1L197.4,32.5L198.7,49.6L195.7,59.4L203.7,76.8L226.7,93.9L239,121.6L266.2,148.2L285.3,148.1L291.3,155.3L284.4,161.8L306.3,173.6L324.3,183.4L345.2,200.2L347.7,206.2L343.2,217.6L329.6,202.6L308.3,197.4L298.1,218L315.7,229.8L312.8,246.3L302.6,248.1L289.6,274.8L279.4,277.3L279.5,267.8L284.5,251L289.8,244.3L280.3,226L272.8,210L262.7,206L255.5,192.2L239.7,186.3L229.2,173.3L211,171.2L192,156.5L169.6,135.1L153,116L145.4,82.6L133.3,78.7L113.4,67.5L102.1,72.1L88,87.9L77.9,90.3L80.7,75.6L67.4,71.3L61.1,44.7L69.6,34.2L62.4,21.1L63.4,11.2L73.9,18.6L85.7,17L99.4,5.1L103.6,10.7L115.3,9.5L118.8,0L232.4,0ZM229.6,300L200,286.4L203.3,270.5L231.9,273.3L256.9,270L256.9,270L275.4,267.3L266.6,291.6L269.8,300L229.6,300ZM109,182.7L121.2,172.6L135.8,195.5L132.4,237.7L121.3,235.6L111.4,246.1L102.1,237.8L101.2,199.4L95.5,181Z" fill="#2c2c34" stroke="#474751" stroke-width="0.8"/><path d="M286.6,0L281.5,2.4L279.1,16.7L270.6,20.2L270.7,30L261.1,29.3L252.8,23.6L248.3,29.5L231.3,28.3L236.7,25.2L230.8,10.3L232.4,0L286.6,0Z" fill="#2c2c34" stroke="#474751" stroke-width="0.8"/><path d="M349.7,125.3L328,112.7L318.8,98.7L309.5,91.2L298.3,78.6L292.9,68L281,51.9L286.2,37.6L294.9,45.6L300.2,38.3L311.6,37.6L332.6,43.3L349.5,42.9L360.6,50.5L369.4,50.4L363.3,65.5L375.1,78.6L371.5,94.6L365.8,96.1L361.2,99.1L353.3,107Z" fill="#2c2c34" stroke="#474751" stroke-width="0.8"/><path d="M400,176.9L399.6,176.6L396.2,162.6L399.3,151.5L400,151.6L400,176.9Z" fill="#2c2c34" stroke="#474751" stroke-width="0.8"/><path d="M400,107.5L397,117.5L391.2,119.9L393.1,117L383.8,110.1L375.8,106.5L372.3,101.8L365.8,96.1L371.5,94.6L375.1,78.6L363.3,65.5L369.4,50.4L360.6,50.5L370,37.5L362.2,27.6L356.3,14L356.3,14L375,4.8L390.2,6.3L400,16.5L400,107.5Z" fill="#2c2c34" stroke="#474751" stroke-width="0.8"/><path d="M386.6,127.3L380,130.3L378.4,124L367.9,140.3L369.5,150.8L364.4,148.2L357.5,137.5L347,130.9L349.7,125.3L353.3,107L361.2,99.1L365.8,96.1L372.3,101.8L375.8,106.5L383.8,110.1L393.1,117L391.2,119.9Z" fill="#2c2c34" stroke="#474751" stroke-width="0.8"/><path d="M400,151.6L399.3,151.5L399.3,151.5L397.6,139.6L391.8,136.2L386.6,127.3L391.2,119.9L397,117.5L400,107.5L400,151.6Z" fill="#2c2c34" stroke="#474751" stroke-width="0.8"/><path d="M200.1,150.1L199.9,150.2L199.9,150L199.9,149.9L200.1,149.9Z" fill="#b8e653" stroke="#0c0e06" stroke-width="1"/></svg>
