<svg xmlns="http://www.w3.org/2000/svg" viewBox="0 0 400 300"><path d="M3.4,0L3,3.4L14,4.3L25.9,13.8L16.9,24.3L5.2,18.7L0,19.2L0,0Z" fill="#2c2c34" stroke="#474751" stroke-width="0.8"/><path d="M0,195L12.2,195.3L28,209.2L29,217.4L50.9,217.7L77,215.1L91,226.2L109.7,229.3L123.4,221.5L123.7,215.3L154,213.8L183.3,213.4L162.5,220.8L170.9,232.5L190.4,234.3L208.9,246.5L212.8,266.3L225.5,265.8L235.1,271.6L215.7,286.1L213.6,295.1L218.1,300L0,300Z" fill="#2c2c34" stroke="#474751" stroke-width="0.8"/><path d="M218.1,300L213.6,295.1L215.7,286.1L235.1,271.6L251.2,280.7L266.2,296.7L266.4,300L218.1,300Z" fill="#2c2c34" stroke="#474751" stroke-width="0.8"/><path d="M75.7,16.3L88.2,18.6L92.6,23.7L86.3,30.2L68,30L53.6,30.9L52.2,19.9L55.7,16.2Z" fill="#2c2c34" stroke="#474751" stroke-width="0.8"/><path d="M188.1,212.3L202.2,209.1L207.3,210L206.3,228.5L185.9,231.2L181.5,229L188.7,222.1Z" fill="#2c2c34" stroke="#474751" stroke-width="0.8"/><path d="M200.5,152.4L199.8,152.8L198,151.1L198.2,149.2L199.3,148.1L200.4,147.5L201.4,147.4L201.8,149L201.5,151.3ZM199.2,156.5L198.9,156.8L199,156.8L198.9,157L198.8,156.8L198.5,156.7L198.3,156.6L198,156.6L198,156.4L198.3,156.6L198.9,156.4L198.9,156.3L198.8,156.1L198.7,155.9L198.9,155.7L199.6,155.3L199.8,155.1L199.9,155.2L199.9,155.2L199.9,155.3L200,155.4L199.6,155.8ZM196.6,164L196.4,164L196.1,164L196.2,163.9L196.5,163.8L196.6,163.6L196.6,163.4L196.6,163.2L196.7,163L196.9,163L197,163.1L197.1,163.3L196.9,163.5L196.8,163.6L196.7,163.9Z" fill="#b8e653" stroke="#0c0e06" stroke-width="1"/></svg>
