<svg xmlns="http://www.w3.org/2000/svg" viewBox="0 0 400 300"><path d="M152.8,24.1L153.6,29.4L152.9,33.2L150.6,34.8L153,37.8L152.8,40.4L146.7,38.8L142.3,39.4L136.7,38.7L132.4,40.5L127.4,37.5L128.2,34.4L136.7,35.7L143.7,36.5L147,34.3L142.8,30.1L142.9,26.4L137.1,24.9L139.1,22.1L144.8,22.6Z" fill="#2c2c34" stroke="#474751" stroke-width="0.8"/><path d="M152.8,40.4L153,37.8L150.6,34.8L152.9,33.2L153.6,29.4L152.8,24.1L153.9,22.4L161.1,22.5L166.6,25L169,24.8L170.7,28.2L175.8,28.1L175.5,31L179.6,31.3L184.1,34.9L180.7,38.8L176.3,36.7L172.1,37.1L169,36.7L167.3,38.4L163.8,39.1L162.4,36.7L159.3,38.1L155.6,44.7L153.3,43.2Z" fill="#2c2c34" stroke="#474751" stroke-width="0.8"/><path d="M0,6.7L5.6,6.9L11.2,6.1L13.4,8.2L13.1,12.9L8.1,18.8L5.9,24.8L7.6,26.5L6.2,30.7L3.9,38.3L1.6,35.8L0,35.9L0,6.7Z" fill="#2c2c34" stroke="#474751" stroke-width="0.8"/><path d="M164,300L164.1,297.8L161.1,300L146.2,300L146.2,300L144.9,298.1L138.8,297.6L140.8,293.6L135.6,287.9L131.8,279.5L134.2,277.8L134.2,273.9L139.8,271.2L138.9,266.1L141.2,262.9L141.9,258.6L152.5,252.3L160,250.5L161.2,249.1L169.6,249.5L173.7,224.2L173.9,220.2L172.5,214.9L168.4,211.5L168.4,204.8L173.6,203.3L175.5,204.3L175.8,200.7L170.4,199.8L170.3,194L188.3,194.2L191.3,191L193.9,193.9L195.7,199.4L197.4,198.3L202.5,203.1L209.7,202.5L211.5,199.7L218.3,197.5L222.2,196L223.2,192.1L229.8,189.5L229.3,187.6L221.5,186.8L220.2,180.9L220.6,174.7L216.4,172.3L218.2,171.5L225,172.7L232.4,175L235,172.8L241.7,171.4L252,167.9L255.4,164.4L254.1,161.7L258.9,161.3L261.1,163.5L259.9,167.5L263.1,168.9L265.2,173.2L262.6,176.5L261.1,184.4L263.5,189L264.2,193.3L269.8,197.7L274.4,198.1L275.4,196.3L278.3,195.9L282.5,194.3L285.5,191.8L290.6,192.6L292.8,192.3L297.9,193L298.7,191.2L297.2,189.3L298.1,186.6L301.8,187.5L306.2,186.5L311.5,188.5L315.5,190.4L318.3,187.9L320.4,188.3L321.7,190.9L326.1,190.2L329.6,186.7L332.5,179.9L337.9,171.4L341.1,171L343.4,176.1L348.5,192.3L353.5,193.8L353.7,200.2L346.8,207.8L349.6,210.6L366,212L366.3,221.3L373.3,215.2L384.9,218.5L400,224.1L400,300Z" fill="#2c2c34" stroke="#474751" stroke-width="0.8"/><path d="M161.1,300L164.1,297.8L164,300L161.1,300ZM91,300L85.2,287.5L81.4,283.3L78.5,276.4L71.3,270.3L64.7,266.6L67.7,262.4L63.3,253.6L66.1,247.1L73.5,241.3L74.6,245.1L71.9,247.3L72.2,250.7L76,250L79.7,251L83.6,255.7L88.8,251.8L90.6,245.6L96.2,237.6L107.3,233.9L117.4,224.2L120.3,218.2L119,211.2L121.4,210.3L127.6,214.7L130.5,219.1L134.8,221.5L140.2,231.2L147.1,232.3L152.2,229.9L155.5,231.5L161.1,230.7L168.1,235L162.2,244.4L165,244.6L169.6,249.5L169.6,249.5L161.2,249.1L160,250.5L152.5,252.3L141.9,258.6L141.2,262.9L138.9,266.1L139.8,271.2L134.2,273.9L134.2,277.8L131.8,279.5L135.6,287.9L140.8,293.6L138.8,297.6L144.9,298.1L146.2,300L91,300Z" fill="#2c2c34" stroke="#474751" stroke-width="0.8"/><path d="M197.4,198.3L195.7,199.4L193.9,193.9L191.3,191L188.3,194.2L170.3,194L170.4,199.8L175.8,200.7L175.5,204.3L173.6,203.3L168.4,204.8L168.4,211.5L172.5,214.9L173.9,220.2L173.7,224.2L169.6,249.5L165,244.6L162.2,244.4L168.1,235L161.1,230.7L155.5,231.5L152.2,229.9L147.1,232.3L140.2,231.2L134.8,221.5L130.5,219.1L127.6,214.7L121.4,210.3L119,211.2L115,209L110.5,206L107.9,207.5L100,206.2L97.8,202.2L96.1,202.3L86.8,197.1L85.6,194.2L89,193.5L88.6,188.9L90.8,185.5L95.4,184.9L99.2,179.1L102.8,174.3L99.4,172L101.1,166.7L99,158.2L101,155.8L99.5,147.9L95.8,142.9L97,138.4L100,139.1L101.7,136.3L99.6,130.8L100.7,129.5L105.5,129.8L112.4,123.2L116.2,122.2L116.3,119.2L118,111.2L123.3,106.9L129.1,106.7L129.8,104.7L137.1,105.5L144.3,100.7L147.9,98.6L152.4,94.1L155.6,94.7L158.1,97.2L156.3,100.3L150.4,101.9L148,106.6L144.4,109.3L141.8,112.8L140.6,119.5L138.1,125L142.9,125.6L144,129.9L146.1,131.9L146.8,135.7L145.7,139.2L146,141.1L148.3,141.9L150.5,145.1L162.4,144.2L167.7,145.4L174.2,153.4L177.9,152.4L184.6,152.9L189.8,151.8L193.1,153.4L191.5,158.4L189.4,161.6L188.7,168.2L190.5,174.4L193.2,177.1L193.5,179.2L188.8,183.8L192.1,185.8L194.6,189Z" fill="#2c2c34" stroke="#474751" stroke-width="0.8"/><path d="M100.7,129.5L99.6,130.8L101.7,136.3L100,139.1L97,138.4L95.8,142.9L92.7,140.3L90.8,135.2L93,132.7L90.7,132.1L89,129L84.4,126.4L80.3,127L78.5,130.3L74.8,132.6L72.7,132.9L71.8,134.9L76.2,139.9L73.7,141.1L72.4,142.5L68.1,143L66.5,137.4L65.3,139L62.2,138.5L60.4,134.7L56.6,134.1L54.2,133L50.2,133L50,135L48.9,133.6L49.4,131.8L50.1,129.9L49.8,128.2L51.2,127.1L49.2,125.7L49.2,121.9L52.7,121.1L56.1,124.4L55.9,126.4L59.6,126.8L60.4,126.1L63,128.4L67.5,127.7L71.5,125.3L77,123.5L80.2,120.7L85.3,121.2L85,122.1L90.1,122.5L94.2,124.1L97.2,126.9Z" fill="#2c2c34" stroke="#474751" stroke-width="0.8"/><path d="M52.7,121.1L49.2,121.9L49.2,125.7L51.2,127.1L49.8,128.2L50.1,129.9L49.4,131.8L48.9,133.6L43.9,131.6L42,129.6L43.1,128L42.7,125.9L40.2,123.7L36.5,121.8L33.4,120.6L32.7,117.9L30.3,116.2L30.9,118.9L29.1,121.2L27,118.6L24,117.7L22.7,115.8L22.8,112.9L24,109.9L21.4,108.6L23.5,106.8L24.9,105.6L31,108.1L33.1,106.9L36.1,107.7L37.6,109.6L40.3,110.2L42.5,108.2L44.8,113.3L48.4,117.1Z" fill="#2c2c34" stroke="#474751" stroke-width="0.8"/><path d="M42.5,108.2L40.3,110.2L37.6,109.6L36.1,107.7L33.1,106.9L31,108.1L24.9,105.6L23.5,106.8L20.3,103.8L16,100L14,96.9L10.1,93.9L5.5,89.6L6.5,88.2L8,89.6L8.7,88.9L11.6,88.5L12.7,86.3L14.1,86.3L13.9,81.6L16.1,81.4L18,81.4L20,78.9L22.7,80.8L23.7,79.6L25.4,78.5L28.6,75.9L28.7,73.9L29.6,74L30.8,71.7L31.8,71.5L33.3,72.9L35.2,73.4L37.2,72.1L39.6,72.1L42.8,70.9L44,69.6L47.2,69.8L46.4,70.7L45.9,72.8L46.9,76.3L44.8,79.6L43.8,83.4L43.5,87.6L44,90L44.2,94.3L42.8,95.2L41.9,99.2L42.5,101.7L40.7,104.1L41.1,106.7Z" fill="#2c2c34" stroke="#474751" stroke-width="0.8"/><path d="M0,63.1L0.3,62.8L1.3,63.1L3.3,61.4L6,61.3L6.8,62.1L8.2,61.6L12.5,62.5L16.8,62.2L19.8,61.2L20.8,60.1L23.8,60.6L26,61.3L28.4,61L30.2,60.2L34.5,61.5L35.9,61.7L38.8,63.5L41.4,65.7L44.8,67.1L47.2,69.8L47.2,69.8L44,69.6L42.8,70.9L39.6,72.1L37.2,72.1L35.2,73.4L33.3,72.9L31.8,71.5L30.8,71.7L29.6,74L28.7,73.9L28.6,75.9L25.4,78.5L23.7,79.6L22.7,80.8L20,78.9L18,81.4L16.1,81.4L13.9,81.6L14.1,86.3L12.7,86.3L11.6,88.5L8.7,88.9L7.1,85.9L4.3,85.1L5,81.3L3.7,80.3L1.8,79.6L0,80.1L0,63.1Z" fill="#2c2c34" stroke="#474751" stroke-width="0.8"/><path d="M0,80.1L1.8,79.6L3.7,80.3L5,81.3L4.3,85.1L3.3,87.4L0,87.3L0,80.1Z" fill="#2c2c34" stroke="#474751" stroke-width="0.8"/><path d="M0,62.6L0.3,62.8L0,63.1L0,62.6Z" fill="#2c2c34" stroke="#474751" stroke-width="0.8"/><path d="M0,37.4L1.4,37.5L1.3,40.1L0,43.7L0,37.4ZM0,44.7L0.6,45.8L0,47.8L0,44.7ZM0,49.9L0.2,50.2L0,51.1L0,49.9Z" fill="#2c2c34" stroke="#474751" stroke-width="0.8"/><path d="M292.8,192.3L290.6,192.6L285.5,191.8L282.5,194.3L278.3,195.9L275.4,196.3L274.4,198.1L269.8,197.7L264.2,193.3L263.5,189L261.1,184.4L262.6,176.5L265.2,173.2L263.1,168.9L259.9,167.5L261.1,163.5L258.9,161.3L254.1,161.7L247.9,154.7L250.4,152.2L250.2,147.9L255.9,146.4L258.2,144.6L255,141.2L255.8,137.8L263.1,132.3L269.2,135.7L274.9,141.8L275.2,146.6L278.7,146.8L283.6,151.4L287.2,154.6L285.8,162.9L280.1,165.3L280.6,167.5L279,172.3L283,179L286,179L287.2,184.2Z" fill="#2c2c34" stroke="#474751" stroke-width="0.8"/><path d="M311.5,188.5L306.2,186.5L301.8,187.5L298.1,186.6L297.2,189.3L298.7,191.2L297.9,193L292.8,192.3L287.2,184.2L286,179L283,179L279,172.3L280.6,167.5L280.1,165.3L285.8,162.9L287.2,154.6L298.3,156.4L299.3,154.8L306.8,154.1L316.7,156.6L311.9,164.6L312.6,170.9L316.2,176.4L314.6,180.4L313.8,184.6Z" fill="#2c2c34" stroke="#474751" stroke-width="0.8"/><path d="M337.9,171.4L332.5,179.9L329.6,186.7L326.1,190.2L321.7,190.9L320.4,188.3L318.3,187.9L315.5,190.4L311.5,188.5L313.8,184.6L314.6,180.4L316.2,176.4L312.6,170.9L311.9,164.6L316.7,156.6L319.8,157.6L326.6,159.8L336.4,167.6Z" fill="#2c2c34" stroke="#474751" stroke-width="0.8"/><path d="M119,211.2L120.3,218.2L117.4,224.2L107.3,233.9L96.2,237.6L90.6,245.6L88.8,251.8L83.6,255.7L79.7,251L76,250L72.2,250.7L71.9,247.3L74.6,245.1L73.5,241.3L78.4,234.4L76.4,230.3L72.9,234.6L67.3,230.6L69.2,228L67.6,219.6L70.9,218.2L72.6,212.4L76.1,206.5L75.4,202.7L80.5,200.8L86.8,197.1L96.1,202.3L97.8,202.2L100,206.2L107.9,207.5L110.5,206L115,209Z" fill="#2c2c34" stroke="#474751" stroke-width="0.8"/><path d="M202.9,35.8L207.6,36.7L209.3,38.6L206.9,41.1L200,41L194.6,41.4L194,37.2L195.4,35.8Z" fill="#2c2c34" stroke="#474751" stroke-width="0.8"/><path d="M98.7,36.1L104.9,37L109.8,39.3L111.3,41.9L104.9,42.1L102.1,43.7L96.9,42.2L91.6,38.6L92.7,36.4L96.6,35.7Z" fill="#2c2c34" stroke="#474751" stroke-width="0.8"/><path d="M96.4,0L102.6,4.9L108.4,9.4L111.4,9.3L116.9,11.3L116.2,14.1L123,14.5L130,18.5L128.9,20.8L122.8,22.1L116.6,22.5L110.2,21.8L97,22.7L103.2,17.3L99.4,14.7L93.5,14L90.3,11.2L88.1,5.5L82.9,5.9L74.3,3.2L71.5,1.2L62.4,0L96.4,0ZM40.2,0L38.9,2.4L34.3,3.5L30.3,2.6L34.4,0L40.2,0Z" fill="#2c2c34" stroke="#474751" stroke-width="0.8"/><path d="M245.4,109.9L250.7,108.7L252.6,109L252.3,116L244.6,117L242.9,116.2L245.6,113.6Z" fill="#2c2c34" stroke="#474751" stroke-width="0.8"/><path d="M253.3,125.1L252.2,125.4L252.2,125.2L252.5,124.7L253.1,124.6L253.3,124.4L253.7,124.3L253.9,124.4L254.1,124.5L253.6,124.7ZM225.4,106.4L225.7,107.6L225.6,107.9L224.7,108.7L224,108.8L223.5,108.7L223,108.6L222.5,108L222,108.2L220.6,108L220.3,107.8L220.8,107.2L221.7,106.9L222,106.8L222.3,107.2L222.9,107.6L223.7,107.6L223.9,107L225,106.1ZM212.8,108.5L212.3,108.7L211.4,108.5L210.9,108.2L211.2,107.9L211.9,107.9L212.6,108.3ZM251.7,127.6L251.1,127.8L251,126.9L251.2,126.6L252.2,125.9L252.5,125.7L252.7,125.9L252.6,126.1L253.1,126.4L253,126.9L252.4,127.3ZM260.7,130.6L262.5,132.9L262.5,133.1L262.3,133.4L261.2,133.9L261,134.2L260.6,135.2L259.3,135.8L258.3,136.5L257.7,137.1L257.4,137.3L256.2,137.5L255.8,137.8L255.3,139L254.9,139.5L254.3,140L254.3,140.4L255.2,141.7L255.3,142L255,142.6L255.1,143.1L255.5,143.6L256.1,143.7L256.6,143.5L257.3,143.5L257.7,143.6L257.9,143.8L257.9,144.2L257.6,145L257.2,145.6L255.5,146.4L254.7,146.8L254.3,147.2L253.3,147L252.8,147L252.5,147.3L252.2,147.5L251.6,147.6L250.7,147.7L250.3,147.9L250,148.3L249.8,148.9L250,149.6L250.3,150.2L250.3,150.7L250.5,152.3L250.2,152.7L249.6,153.1L248.9,153.9L248.1,154.9L248.2,155.2L250.1,157.4L252.1,159.5L254.1,161.7L254.3,161.8L254.7,162.1L255.1,162.8L255.3,163.6L255.3,164.1L255.1,164.6L254.6,165.2L254.1,165.7L253.2,166.1L252.5,166.5L252,167.5L251.6,167.9L251.3,168.1L250.7,168.2L249.7,168.2L249.1,168.1L248.3,168.9L247.2,169.1L246.5,170.2L244.1,171L241.7,171.7L241,172L238.6,171.4L238.1,171.6L237.4,172.1L236.8,172.5L236.3,172.5L235.9,172.7L235.6,173.4L235.4,175.9L234.5,176.6L233.5,176.6L232.8,175.8L232,175.1L230.5,173.6L230.1,173.4L229.7,173.4L228.3,173.8L227.7,173.6L227.2,173.4L226.3,173.5L224.8,173.5L223.8,173.5L223.3,173.1L222.9,172.2L222.6,171.9L222.2,171.7L221.6,171.6L219.1,171.6L218.7,171.6L218.3,171.4L217.8,170.7L217.3,170.3L216.7,170.3L216.4,170.7L217.5,172L217.8,172.7L218.7,173.8L221.4,176L221.9,176.7L221.9,177.6L221.9,178.9L222,180.2L222.7,182.1L223.6,184L223.9,185.1L223.7,186L223.5,186.5L223.5,186.7L223.7,186.9L224.7,187.2L226.6,187.3L227.8,187.3L229.6,187.5L229.8,188.2L229.6,189.3L229.2,189.9L228.9,190.1L227.9,190.2L226.9,190.9L225.4,191.6L224.5,191.7L224.2,191.8L223.9,192L223.6,192.2L223.3,193.5L222.9,194.9L222.1,195.7L221.2,196.4L220.2,196.5L219.5,196.4L219.1,196.6L218.6,197.2L217.8,197.9L217.2,198.2L216.4,198.2L215.6,198.6L214.5,199.1L213.8,199.6L213.2,200.4L212.3,201.2L211.4,201.8L211,202.5L210.4,203.4L209.6,203.5L209.6,202.9L209.9,202L209.5,201.3L208.8,200.9L208.5,200.7L208.1,200.8L207.3,201.2L206.2,201.9L205.5,202.3L205,202.6L203.7,202.8L202.7,202.9L202.3,202.7L201.5,202.2L199.8,200.7L197.4,198.5L197.3,197.9L197.4,197.3L196.9,196.4L196.7,195.4L196.5,195L196.4,194.3L195.9,193L195.5,191.9L195.1,191.3L195.2,190.9L195.1,190.4L194.8,190L194.3,188.8L194.5,188.3L194.3,187.8L193.9,187.4L193.4,187L192.7,186.2L191.8,185.4L191.3,185.1L191,185L190.8,184.2L190.6,184L190.1,184L189.2,183.6L188.4,184L188.3,183.5L188.6,183.1L191.5,180.4L193,179.1L193.2,178.9L193.3,178.7L193.4,178.3L193.1,177.8L191.7,175.7L191.2,175.3L190.7,175L190.2,174.1L189.5,172.1L189,171L188.9,170.2L188.9,169.3L188.8,168.6L188.4,168.2L188.4,166.7L188.8,164.2L188.8,162.4L188.7,161.1L189,160.1L189.9,159.4L190.3,158.4L190.4,157L191,155.9L191.9,155L192.2,154.1L191.9,153.2L191.8,152.6L191,152.1L189.6,151.7L188.4,151.6L187.6,152.1L185.7,152.5L182.7,152.9L180.2,152.9L178.4,152.5L177,152.6L176,153.3L175.4,153.4L175,153.1L174.5,153L173.9,153.2L173.8,153.1L172.3,151.3L171,149.7L169.5,147.8L167.7,145.6L167.4,145.5L166.8,145.5L166.1,145.5L165,145.3L164.3,145L163.6,144.7L162.5,144.3L161.8,144.2L161.1,144.3L159.2,145.1L158.2,145.2L157.3,145.2L155.1,144.8L153.6,144.7L151.9,145L151.1,145.1L150.1,144.7L149.3,144.1L148.7,142.7L148.2,141.6L147.4,141.4L146.5,141.2L146,140.8L145.8,140.2L145.7,139.3L145.8,138L145.9,137.5L146,136L146.5,135.3L146.8,134.9L146.8,134.3L146.5,133.1L146.3,132.2L145.3,131.2L144,129.9L143.4,127.8L142.8,125.4L142.3,125.1L141.8,125.3L141.3,125.1L140.8,124.1L140.4,124L139.6,124.3L139.1,124.6L137.8,124.8L137.5,124.6L137.6,124.3L138.2,123.4L138.8,122.2L139.6,121.2L140.3,120.1L140.8,119L141.2,116.8L141.4,115.2L142.1,112.4L143.3,110.2L143.7,109.2L144.8,107.9L145.3,107.1L146,106.6L147.8,105.8L150,102L150.5,101.4L152.7,100.8L154.4,100.3L155.6,99.9L156.1,99.6L156.4,99.5L156.1,100L155.5,100.5L154.8,100.9L151.3,101.7L151,101.9L150.5,102.3L150.5,103.1L150.6,103.7L151.7,105.8L152.1,106.4L153.4,107.5L153.1,107.7L152.6,107.7L153,109.2L153.8,110.2L153.9,110.9L153.2,112.9L152,114.1L151.2,115.5L150.5,116L149.1,118.8L150.2,120.4L150.3,121.2L151.3,122.4L151.9,122.8L152.3,123.3L152.1,124.1L152.5,125.1L153,125.7L153.6,125.9L154.4,125.9L156.6,125.2L157.1,124.9L157.4,124.3L158.6,123.1L158.6,121.6L158.9,119.8L158.6,118.6L157.4,116.9L156.9,115.7L155.8,114.6L155.1,112.6L154.8,112L154.6,111.2L154.3,109.7L155.1,109.2L155,108L156.9,107.6L161,105.7L163.6,105.2L166.4,104.1L167.1,103.6L167.7,102.8L168.1,102.6L169.6,103.5L170.4,103.2L170.7,102.5L170.3,101.3L169.4,101.3L166.8,101.8L166.5,101.2L166.5,100.8L166,99.3L166.3,98.2L166.7,97.3L167.4,96.9L168.5,96.5L169.4,97.1L169.9,97.7L170.1,98.3L170.3,99.8L170.8,101.3L171.2,102.3L172,103.1L172.6,103.1L173,102.9L175.7,102.8L177.3,103.3L179.4,103.6L181.4,104.7L183.4,106.1L183.9,107.2L184.1,108.1L184.5,108.8L184.1,109.4L184.3,110.6L184.9,111.7L185.8,112.4L188.2,112.6L190.9,112.1L195.1,111.7L196.4,111.3L203.2,111.1L204.5,111.6L204.7,112.2L204.7,112.6L206.9,114.6L208.7,114.9L210.2,115.5L211.8,115.9L213.5,116.4L214.5,116.3L215.3,116.1L216.1,116.1L222.3,112.7L225.5,112.8L226,112.6L226.4,112.3L225.2,111.8L222.5,111.6L221.7,111.9L221.2,111.1L222.1,111.1L225.1,110.8L228.6,111L231.5,110.4L232.9,110.3L233.7,110.4L235.9,110L240.2,110.5L243.6,110.1L243.2,110.6L242.1,111L240.3,111.1L238.9,111.9L236,111.8L234,112L234.6,112.3L234.6,113.1L234.9,113.3L235.2,113.3L235.9,113.9L236.1,114.3L236.3,115.2L236,116.1L235.6,116.5L236.4,116.4L236.9,115.9L236.8,115.5L236.9,115L237.4,115.2L237.7,115.4L238.7,117.8L239.5,119.1L239.7,119L239.8,119L240.1,118.7L240.4,118.1L240.7,118.5L240.9,118.7L241,118.7L240.9,118.2L241.1,117.5L241,117.2L241.3,117.2L241.7,117.3L242.3,117.5L243.3,118.2L244,119.1L244,119.5L244.3,119.8L244.7,120.1L244.9,120.5L244.9,119.8L244.7,119.3L244.6,118.8L245.9,118.8L246.2,118L246.9,118.5L248.8,120.5L249.5,120.8L251.6,121.2L252.8,122.2L253.6,123L253.1,123.9L251.9,124.4L251.5,124.9L251.2,125.5L251.2,126.1L250.8,126.7L250.8,126.9L250.5,127.8L250,129L249.4,130.1L245.9,130.2L246.8,130.6L247.6,131L248.9,131.9L249.9,131.2L251.3,131.1L252.9,130.3L253.5,130.2L256.5,130.6L257.2,130L257.7,129.9L259.3,130Z" fill="#b8e653" stroke="#0c0e06" stroke-width="1"/></svg>
