<svg xmlns="http://www.w3.org/2000/svg" viewBox="0 0 300 300"><path fill="#e8e8ea" d="M276.3,109.7L279.9,114.4L280,114.9L279.6,115.5L277.4,116.6L276.9,117.2L276.1,119.3L273.3,120.4L271.4,121.9L270,123.1L269.4,123.6L266.8,123.9L266,124.7L265,127.1L264.2,128.1L262.9,129.3L262.9,130L264.7,132.6L265.1,133.5L264.4,134.7L264.5,135.6L265.5,136.6L266.7,136.9L267.8,136.4L269.1,136.5L270,136.8L270.5,137.1L270.5,137.9L269.9,139.6L269.1,140.7L265.4,142.4L263.8,143.4L262.9,144.2L260.9,143.8L259.9,143.8L259.1,144.4L258.6,144.8L257.3,145L255.5,145.2L254.7,145.6L254.1,146.4L253.6,147.6L254,149.1L254.6,150.4L254.6,151.6L255,154.9L254.4,155.6L253.2,156.5L251.7,158.1L250,160.2L250.3,160.8L254.3,165.3L258.4,169.9L262.4,174.4L263,174.6L263.8,175.1L264.5,176.7L265.1,178.4L265.1,179.3L264.7,180.4L263.6,181.6L262.4,182.6L260.7,183.5L259.3,184.3L258.2,186.5L257.4,187.3L256.8,187.6L255.5,187.9L253.5,187.8L252.1,187.6L250.4,189.2L248.3,189.8L246.8,192L241.7,193.8L236.7,195.1L235.3,195.7L230.4,194.5L229.2,194.9L227.8,195.9L226.6,196.7L225.5,196.8L224.6,197.2L224.1,198.7L223.6,203.9L221.8,205.4L219.6,205.4L218.2,203.6L216.5,202.3L213.4,199.1L212.6,198.7L211.8,198.7L208.9,199.6L207.6,199.2L206.5,198.7L204.7,198.9L201.5,198.9L199.5,198.9L198.5,198.1L197.5,196.3L196.9,195.6L196.1,195.1L195,194.8L189.8,194.9L188.8,194.9L188.1,194.5L187.1,193L186,192.3L184.7,192.2L184.2,193.1L186.4,195.8L187,197.3L189,199.5L194.6,204.1L195.6,205.5L195.5,207.3L195.5,210.2L195.7,212.8L197.1,216.7L199.1,220.6L199.7,223.1L199.3,224.9L198.9,225.9L199,226.4L199.4,226.8L201.3,227.3L205.4,227.7L207.8,227.7L211.6,228.1L211.9,229.5L211.5,231.7L210.8,233L210.2,233.4L208.1,233.7L206,235.1L202.9,236.5L201.1,236.6L200.4,236.9L199.7,237.3L199.2,237.8L198.6,240.4L197.7,243.3L195.9,245L194,246.5L192.1,246.6L190.5,246.5L189.8,246.9L188.7,248.1L187.1,249.6L185.8,250.3L184.2,250.3L182.4,251L180.2,252.2L178.7,253.1L177.4,254.8L175.6,256.5L173.7,257.7L172.8,259.2L171.6,261.1L170,261.2L169.9,260.1L170.6,258.2L169.8,256.6L168.3,255.8L167.6,255.5L166.9,255.6L165.1,256.4L162.9,257.8L161.5,258.9L160.3,259.3L157.8,259.8L155.7,260L154.8,259.7L153.2,258.6L149.6,255.4L144.6,250.9L144.3,249.6L144.5,248.3L143.6,246.4L143.1,244.4L142.6,243.7L142.5,242.2L141.4,239.4L140.6,237.2L139.7,236L140.1,235L139.7,234.1L139.1,233.3L138.1,230.7L138.5,229.6L138.2,228.5L137.4,227.8L136.3,227L134.8,225.3L132.9,223.7L132,223L131.4,222.8L130.8,221.2L130.4,220.8L129.4,220.6L127.6,220L125.8,220.8L125.7,219.6L126.3,218.9L132.4,213.2L135.4,210.6L135.8,210.2L136.1,209.6L136.3,208.8L135.6,207.9L132.7,203.5L131.6,202.7L130.7,202L129.6,200.2L128.2,195.9L127.2,193.7L126.9,192.1L127,190.2L126.6,188.8L125.8,187.8L125.8,184.7L126.6,179.6L126.8,175.7L126.4,173.1L127.2,171.1L129,169.7L129.9,167.5L130.1,164.6L131.2,162.2L133.2,160.3L133.9,158.5L133.2,156.7L133,155.5L131.4,154.3L128.3,153.5L125.8,153.4L124.2,154.3L120.3,155.2L114,156L108.9,156L105,155.2L102.1,155.4L100.1,156.8L98.7,157.1L97.9,156.3L97,156.1L95.6,156.6L95.4,156.4L92.4,152.8L89.7,149.4L86.5,145.5L82.8,140.9L82.1,140.6L81,140.6L79.5,140.7L77.2,140.2L75.7,139.5L74.3,138.9L72.1,138.1L70.5,137.9L69.1,138.2L65.2,139.8L63,139.9L61.3,140L56.6,139.2L53.5,139L49.9,139.6L48.3,139.9L46.1,139L44.6,137.8L43.2,134.8L42.3,132.5L40.5,132L38.7,131.6L37.8,130.9L37.2,129.5L37.1,127.8L37.2,125L37.4,124L37.7,121L38.7,119.4L39.4,118.6L39.3,117.3L38.7,114.7L38.3,112.9L36.2,110.8L33.5,108.1L32.3,103.8L30.9,98.8L29.9,98.3L28.8,98.5L27.8,98.3L26.8,96.2L25.9,95.9L24.4,96.6L23.3,97.1L20.6,97.6L20,97.1L20.2,96.5L21.4,94.6L22.8,92.3L24.4,90.1L25.8,87.9L26.9,85.5L27.7,80.8L28.2,77.6L29.5,71.8L32,67.2L33,65.1L35.3,62.3L36.3,60.8L37.7,59.6L41.5,58.1L46,50.1L47,48.8L51.7,47.6L55.2,46.7L57.7,45.8L58.6,45.2L59.3,45L58.7,45.9L57.5,47.1L56.1,47.8L48.8,49.6L48,50L47.1,50.7L47.1,52.4L47.2,53.8L49.5,58.2L50.3,59.2L53.1,61.6L52.5,62L51.4,62L52.2,65.1L53.9,67.3L54,68.6L52.7,72.7L50.2,75.3L48.5,78.2L47.1,79.3L44.1,85L46.4,88.4L46.7,90.1L48.7,92.6L50,93.4L50.8,94.4L50.4,96L51.2,98.3L52.3,99.5L53.5,99.9L55.1,99.9L59.8,98.5L60.8,97.8L61.5,96.6L63.8,94.1L64,91L64.5,87.1L63.9,84.7L61.5,81.1L60.4,78.6L58,76.3L56.6,72.3L55.9,71L55.5,69.3L55,66.2L56.6,65.1L56.4,62.6L60.4,61.9L68.9,57.8L74.2,56.8L80.2,54.6L81.6,53.5L82.8,51.7L83.7,51.5L86.8,53.2L88.4,52.6L89,51.3L88.2,48.7L86.4,48.7L81,49.7L80.4,48.6L80.4,47.6L79.2,44.5L79.9,42.2L80.8,40.4L82.3,39.6L84.6,38.8L86.3,40L87.3,41.2L87.9,42.4L88.3,45.5L89.2,48.7L90.2,50.8L91.8,52.5L92.9,52.4L93.8,52.1L99.4,51.7L102.8,52.9L107.2,53.4L111.3,55.8L115.4,58.7L116.4,60.9L116.9,62.9L117.8,64.2L116.9,65.6L117.3,68L118.6,70.3L120.4,71.8L125.5,72.2L131.1,71.2L139.7,70.3L142.5,69.5L156.7,69.1L159.4,70.2L159.7,71.3L159.7,72.2L164.3,76.4L168.1,77L171.3,78.3L174.6,79.1L178.2,80.1L180.2,79.9L181.8,79.6L183.6,79.5L196.3,72.5L203.1,72.7L204.1,72.2L205,71.6L202.5,70.5L196.8,70.1L195.1,70.8L194.1,69L196,69.1L202.3,68.5L209.6,68.8L215.4,67.6L218.4,67.4L220.1,67.6L224.8,66.8L233.6,67.8L240.6,66.9L239.8,68.1L237.5,68.8L233.8,69.1L231,70.7L225,70.4L220.8,71.1L222.1,71.5L222.1,73.3L222.7,73.6L223.2,73.6L224.7,74.9L225.1,75.8L225.6,77.6L224.9,79.5L224.1,80.3L225.8,80L226.8,79.2L226.6,78.2L226.8,77.2L227.7,77.5L228.4,78L230.6,83L232.1,85.6L232.5,85.5L232.9,85.4L233.3,84.9L234,83.7L234.7,84.5L235,84.8L235.3,84.9L235,83.8L235.4,82.3L235.3,81.8L236,81.7L236.8,81.9L238,82.3L240,84L241.4,85.7L241.5,86.6L242,87.2L242.9,87.7L243.4,88.6L243.4,87.2L242.9,86.2L242.7,85L245.5,85L246.2,83.5L247.6,84.4L251.5,88.6L253,89.3L257.3,90.1L259.9,92.1L261.5,93.9L260.5,95.8L258,96.7L257,97.9L256.4,99L256.4,100.2L255.7,101.6L255.6,102L255.1,103.9L254.1,106.2L252.8,108.6L245.6,108.7L247.4,109.7L249,110.4L251.7,112.4L253.7,110.8L256.8,110.7L260.1,109.1L261.3,108.8L267.4,109.7L268.9,108.5L270.1,108.1L273.4,108.3Z"/></svg>
