<svg xmlns="http://www.w3.org/2000/svg" viewBox="0 0 400 300"><path d="M235.3,300L234.8,295.3L230.7,293.1L226.8,286.2L225.7,279L226.6,271.5L231.5,266.1L232.8,271.6L238.4,276.2L243.6,274.5L248.8,275.1L253.5,271L257.4,270.3L265.1,272.5L271.7,270.8L275.9,259.5L279,256.7L281.8,247.4L291.1,247.4L298.1,248.8L298.1,248.8L293.5,256.2L299.5,263.9L298.1,267.6L307.2,275.1L297.6,276.1L294.9,281.6L295.2,288.9L287.4,294.5L287.3,300L235.3,300ZM379.7,264.8L380.3,269.2L385.1,269.9L385.9,273.2L385.4,280.3L381.2,279.5L380,284.5L383.3,288.7L381.1,289.7L377.8,284.6L375.4,274.2L377,267.7ZM308.6,300L308.7,299.8L309.9,293.4L313.9,281.2L315.6,277.8L322.5,271.8L328.9,274.2L339.1,275.3L339.1,275.3L348.4,275L356.5,269.1L357.9,270.9L351.4,279L345.2,280.5L337.4,278.9L323.9,279.3L316.8,280.5L315.7,286.6L322.9,293.9L327.3,290.2L342.4,287.4L341.8,291.2L338.3,290L334.7,294.7L327.6,297.9L329.1,300L308.6,300ZM161,300L160.4,299.1L154.2,287.7L147,280.9L144.7,274L141.7,267.6L134.4,262.5L130.1,255.5L124,251L115.6,242L114.9,237.9L120.1,238.2L132.6,239.8L139.8,247.7L146.1,253.3L150.6,256.6L158.2,265.4L166.5,265.5L173.3,271.1L178,277.9L184.2,281.6L180.9,288.2L185.6,291L188.5,291.2L188.5,291.2L189.9,296.9L191.8,300L161,300Z" fill="#2c2c34" stroke="#474751" stroke-width="0.8"/><path d="M174,182.8L172.1,172.7L177.3,165.8L187.8,164.2L195.4,165.4L202.1,168.7L205.8,162.9L213,166L214.8,171.5L213.8,181.5L200.2,187.9L203.8,192.9L195.2,193.5L188.2,196.8L181.4,195.6L178.1,191.3Z" fill="#2c2c34" stroke="#474751" stroke-width="0.8"/><path d="M195.4,165.4L187.8,164.2L177.3,165.8L172.1,172.7L174,182.8L166.7,179L159.8,179.1L161,172.6L153.8,172.6L153.2,181.8L148.8,193.9L146.2,201.2L146.7,207.1L152,207.4L155.3,214.9L156.8,222L161.3,226.6L166.2,227.6L170.4,231.8L167.8,235.2L162.4,236.2L161.8,232L155.1,228.4L153.7,229.8L150.5,226.7L149.2,222.7L144.8,218L140.9,214.2L139.6,219L138,214.4L138.9,209.3L141.3,201.4L145.2,192.9L149.7,185.2L146.5,177.6L146.6,173.8L145.7,169.1L140.3,162.4L138.4,158.2L141.2,156.7L144.1,149.3L140.8,143.8L135.7,137.6L131.7,130.1L135.2,128.5L138.9,119.2L144.6,118.8L149.3,115.1L154,113.1L157.5,115.8L157.9,120.9L163.4,121.3L161.5,130.4L161.6,138L170.2,132.9L172.6,134.5L177.4,134.2L179,131.2L185.1,131.8L191.3,138.7L191.8,147.1L198.4,154.5L198,161.6Z" fill="#2c2c34" stroke="#474751" stroke-width="0.8"/><path d="M213,166L205.8,162.9L202.1,168.7L195.4,165.4L198,161.6L198.4,154.5L191.8,147.1L191.3,138.7L185.1,131.8L179,131.2L177.4,134.2L172.6,134.5L170.2,132.9L161.6,138L161.5,130.4L163.4,121.3L157.9,120.9L157.5,115.8L154,113.1L155.7,109.9L162.6,104.2L163.3,106.3L167.7,106.5L166.4,96.5L170.7,95.3L175.4,102.2L179,110.1L189,110.2L192.2,117.7L187,120L184.6,123L194.4,128.2L201.1,138.3L206.2,145.7L212.4,151.6L214.4,157.6Z" fill="#2c2c34" stroke="#474751" stroke-width="0.8"/><path d="M154,113.1L149.3,115.1L144.6,118.8L138.9,119.2L135.2,128.5L131.7,130.1L135.7,137.6L140.8,143.8L144.1,149.3L141.2,156.7L138.4,158.2L140.3,162.4L145.7,169.1L146.6,173.8L146.5,177.6L149.7,185.2L145.2,192.9L141.3,201.4L140.5,195.3L143,189L140.3,184L140.9,175L137.6,170.7L135,160.6L133.6,150L130,143L124.7,147.2L115.5,153.3L110.9,152.5L105.9,150.5L108.7,140L107,132.1L100.6,122.2L101.6,119.1L96.9,118L91.1,110.9L90.6,103.9L93.4,105.2L93.6,99L97.6,96.9L96.7,93.2L98.6,90.2L98.9,81L105.2,83L108.8,75.7L109.2,71.3L113.7,63.8L113.5,58.6L124,52.3L129.8,54L129.1,48.3L131.9,46.6L131.4,43.2L136.1,42.5L138.8,47.9L142.3,50.1L142.6,57.1L142.3,64.5L134.6,72L133.6,82.6L142.2,81.1L144.1,89.3L149.2,91L146.9,98.3L152.9,101.6L156.4,103.2L162.4,100.6L162.6,104.2L155.7,109.9Z" fill="#2c2c34" stroke="#474751" stroke-width="0.8"/><path d="M0,42.2L7,46.2L17.5,51.4L28.7,52.6L33.3,57.2L39.6,58.1L49.4,60.2L56.1,60L57.1,56.4L56,50.7L56.6,46.7L61.6,44.8L62.3,52L62.4,53.8L69.8,57.3L74.9,55.9L81.8,56.5L88.4,56.2L89,50.6L85.7,47.7L92.2,46.5L99.6,39.7L109,33.8L115.8,36L121.5,32.1L125.3,37.9L122.6,41.8L131.4,43.2L131.4,43.2L131.9,46.6L129.1,48.3L129.8,54L124,52.3L113.5,58.6L113.7,63.8L109.2,71.3L108.8,75.7L105.2,83L98.9,81L98.6,90.2L96.7,93.2L97.6,96.9L93.6,99L89.3,85L87.1,85L85.7,90.7L81.3,86.1L83.8,81.1L87.4,80.5L91.2,73L86.5,71.5L79,71.6L71.2,70.4L70.5,64.1L66.6,63.6L60.2,59.7L57.4,65.9L63.2,70.6L58.1,74L56.3,77.2L61.3,79.6L60,85L62.8,91.6L64,98.8L62.9,102L57.4,101.9L47.3,103.7L47.8,110.3L43.5,115.4L31.8,121.2L22.7,131.3L16.6,136.7L8.5,142.3L8.5,146.1L4.5,148.2L0,150.1L0,42.2Z" fill="#2c2c34" stroke="#474751" stroke-width="0.8"/><path d="M93.6,99L93.4,105.2L90.6,103.9L91.1,110.9L88.8,106.4L88.3,101.9L86.8,97.7L83.4,92.6L75.9,92.3L76.6,95.9L74.1,100.8L70.6,99L69.5,100.6L67.2,99.6L64,98.8L62.8,91.6L60,85L61.3,79.6L56.3,77.2L58.1,74L63.2,70.6L57.4,65.9L60.2,59.7L66.6,63.6L70.5,64.1L71.2,70.4L79,71.6L86.5,71.5L91.2,73L87.4,80.5L83.8,81.1L81.3,86.1L85.7,90.7L87.1,85L89.3,85Z" fill="#2c2c34" stroke="#474751" stroke-width="0.8"/><path d="M85.7,47.7L89,50.6L88.4,56.2L81.8,56.5L74.9,55.9L69.8,57.3L62.4,53.8L62.3,52L67.6,45.2L72,42.8L77.8,45L82.1,45.2Z" fill="#2c2c34" stroke="#474751" stroke-width="0.8"/><path d="M0,25.1L3.1,23L9.6,25.9L17.8,32L22.4,33.4L25.1,37.8L31.4,39.6L38,43.7L47.2,45.8L56.6,46.7L56.6,46.7L56,50.7L57.1,56.4L56.1,60L49.4,60.2L39.6,58.1L33.3,57.2L28.7,52.6L17.5,51.4L7,46.2L0,42.2L0,25.1Z" fill="#2c2c34" stroke="#474751" stroke-width="0.8"/><path d="M0,210.6L1.3,212.7L5.2,221.2L5.2,221.2L4,229.7L0.6,232L0,232.2L0,210.6Z" fill="#2c2c34" stroke="#474751" stroke-width="0.8"/><path d="M229.9,132.2L223.3,129.5L223,122.2L227,118.3L235.9,115.8L240.6,116L242.4,119.3L238.8,123.1L236.9,128.1ZM323.3,0L325.3,3.7L330.8,11L330.7,18.1L325.6,20.6L327.5,25.7L332.3,28.6L331.1,36.2L329,43.5L324.5,44.3L318.5,54.2L312,66.1L304.4,76.8L293.3,85L282,92.5L272.8,93.5L267.9,97.4L265.1,94.5L260.5,98.9L249.2,103.3L240.6,104.6L237.8,113.8L233.3,114.3L231.2,108L233.1,104.6L222.2,101.8L218.4,103.2L210.2,101L206.3,97.4L207.6,92.4L200.2,90.7L196.3,87.4L189.4,92.1L181.5,93.1L175,93.1L170.7,95.3L166.4,96.5L167.7,106.5L163.3,106.3L162.6,104.2L162.4,100.6L156.4,103.2L152.9,101.6L146.9,98.3L149.2,91L144.1,89.3L142.2,81.1L133.6,82.6L134.6,72L142.3,64.5L142.6,57.1L142.3,50.1L138.8,47.9L136.1,42.5L131.4,43.2L122.6,41.8L125.3,37.9L121.5,32.1L115.8,36L109,33.8L99.6,39.7L92.2,46.5L85.7,47.7L82.1,45.2L77.8,45L72,42.8L67.6,45.2L62.3,52L61.6,44.8L56.6,46.7L47.2,45.8L38,43.7L31.4,39.6L25.1,37.8L22.4,33.4L17.8,32L9.6,25.9L3.1,23L0,25.1L0,0Z" fill="#2c2c34" stroke="#474751" stroke-width="0.8"/><path d="M329.8,78.2L324.9,92.4L321.4,99.6L317.1,92.2L316.2,85.6L321,76.9L327.5,70.1L331.2,72.8Z" fill="#2c2c34" stroke="#474751" stroke-width="0.8"/><path d="M322.1,178.5L318,172.1L324.9,172.4L327.7,175.4L325.6,182.6ZM336.3,201L338.4,198.7L339.3,193.6L343.7,193.1L342.4,198.6L348.4,190.7L347.7,198.5L344.7,201.3L342.2,206.5L339.7,208.9L334.7,203.2ZM367.1,213.9L367.9,219.3L368.4,223.9L365.6,231.4L362.7,223.1L358.9,227.2L361.5,233.2L359.2,237.1L349.6,232.3L347.3,226.4L349.8,222.5L344.6,218.6L342.1,222L338.3,221.7L332.3,226.3L330.9,223.9L334.1,217L339.2,214.7L343.6,211.6L346.5,215.3L352.7,213.1L354,209.4L359.7,209.2L359.3,202.8L365.8,206.7L366.5,210.9ZM303.2,206.5L292.4,214.3L296.4,208.5L302.2,203.5L307.1,197.8L311.4,189.5L312.8,196.3L307.5,200.8ZM334.3,132L333,135.5L335.7,141.6L333.6,148.6L328.8,151.4L327.6,158.2L329.4,164.9L333.7,165.8L337.3,164.8L347.4,169.5L346.6,174L349.3,176L348.4,179.9L342.1,175.8L339.1,171.4L337,174.5L331.9,169.5L324.5,170.7L320.4,168.8L320.8,165.4L323.4,163.3L321,161.3L319.9,164.3L315.9,159.5L314.7,155.9L314.4,147.8L317.7,150.6L318.5,137.3L321.1,129.6L326.1,129.6L331.1,132L333.6,129.8ZM331.9,189.2L330.6,185.2L335.5,187.8L340.7,187.8L340.5,191.2L336.7,194.7L331.6,197.2L331.3,193.4ZM360,183L362.3,192.2L356,190L356.2,192.8L358.2,197.9L354.3,199.7L354,193.9L351.5,193.5L350.3,188.5L355,189.2L354.9,186L350,179.7L357.7,179.9Z" fill="#2c2c34" stroke="#474751" stroke-width="0.8"/><path d="M153.7,229.8L155.1,228.4L161.8,232L162.4,236.2L167.8,235.2L170.4,231.8L172.3,232.6L177.1,237.5L180.5,243L180.9,248.5L180.1,252.2L180.9,255L181.5,259.8L184.3,262L187.5,269.2L187.4,271.9L181.6,272.5L173.9,266.5L164.3,260L163.4,255.9L158.7,250.4L157.6,243.7L154.6,239.3L155.5,233.3ZM298.1,248.8L291.1,247.4L281.8,247.4L279,256.7L275.9,259.5L271.7,270.8L265.1,272.5L257.4,270.3L253.5,271L248.8,275.1L243.6,274.5L238.4,276.2L232.8,271.6L231.5,266.1L237.4,268.9L243.7,267.4L245.3,260.5L248.8,259L258.5,257.2L264.3,250.8L268.3,245.6L272,249.9L273.7,247.1L277.6,247.4L278,242.2L278.4,238.1L284.7,232.5L288.8,226.1L292,226.1L296.2,230.2L296.6,233.7L301.9,236L308.7,238.5L308.1,241.7L302.7,242.1L304.1,246Z" fill="#2c2c34" stroke="#474751" stroke-width="0.8"/><path d="M278.4,238.1L278,242.2L277.6,247.4L273.7,247.1L272,249.9L268.3,245.6L271.5,242.6Z" fill="#2c2c34" stroke="#474751" stroke-width="0.8"/><path d="M400,15.4L398.1,13.6L400,5.6L400,15.4ZM400,4.9L395,2.2L393.9,0L400,0Z" fill="#2c2c34" stroke="#474751" stroke-width="0.8"/><path d="M186,197.6L186.2,198L186.1,199L185.8,199.9L185.9,200.4L185.6,200.6L185.1,198.8L184.4,198.1L184.3,197.8L184.7,197.8L185.4,197.3L185.7,197.3ZM217.7,103.6L217.4,103.7L216.4,103.7L215.6,104.5L215,104.9L214.1,105.1L213.2,105.6L212.9,106.4L212.9,106.9L212.7,107.6L211.2,108.5L210.7,108.4L210.4,108.1L210,108.1L209.7,108.3L209.3,108.3L208.9,108.5L208.4,108.4L207.9,108.1L207.6,108.1L207.3,108L207.2,108.4L207.7,109.7L207.8,110.3L206.2,112.2L206.4,113.3L205.9,114.2L205,114.9L203.1,116.8L202.2,116.8L201.6,117.2L200.2,120.3L200.2,121.3L200,122.1L200,122.8L199.4,124.2L198.8,124.8L198.7,125.6L199.5,127.2L199.7,127.5L200.2,128.4L200.4,129L200.8,129.6L202.3,131.2L202.9,131.7L203.7,132L205.1,133.4L205.8,134.3L205.4,135L205.6,136.3L204.6,135.9L204.7,136L205.9,136.8L207.7,139.3L209.2,140.5L210.8,141.9L211.3,143.3L212.7,144.1L214.3,145.4L214.2,145.7L214.7,146.1L215.7,146.7L216.4,147.5L216.6,148.1L217,148.2L217.5,148.1L217.9,148L218.2,148.1L218.7,148.8L219.3,149.5L219.6,150.1L219.9,150L220.1,150.1L220.2,150.6L220.3,150.9L221.2,151.9L221.6,152.8L222.7,154.4L223.4,155.2L224,155.7L224.6,156.1L225.3,157.8L225.6,159.3L226.3,160.9L226.8,161.7L226.8,163L227.2,164.4L227.6,165.4L227.8,166.4L227.9,166.8L228.1,167.2L228.5,168.9L228.4,169.6L228.1,168.9L228.1,171.1L228.4,172.2L228.3,173.7L228.6,174.2L229.1,175.8L229.5,176.4L229.5,178.3L229.7,179.3L229.2,178.8L228.8,178.1L228.3,178.4L227.9,179L228.6,181.1L227.7,180.9L227.8,183.7L228.1,184.4L228.2,184.7L228.1,185.1L227.9,184.7L227.8,184.2L227.7,184.3L227.7,184.5L227.4,185.1L227.4,185.7L227.6,186.2L227.7,186.6L227.5,187.1L227.2,187.6L226.4,187.7L226.2,188.7L226,189.8L224.6,190L223.7,190.9L222.4,191.3L221.3,192.3L220.2,193.1L219.4,193.3L218.7,193.4L218,194.9L216.7,195.1L214.4,196.3L213.7,196.8L213,197.1L212,197.6L211.8,197.4L211.4,197L210.6,196.7L210.1,196.3L210,195.7L209.9,195.4L209.7,195.8L209.6,197.2L209.4,197.5L209,197.7L208.3,197.3L207.6,196.4L206.6,197L206.9,197.1L207.4,197L207.8,197.2L208,197.7L208,198.1L207.9,198.4L206.9,198.5L205.7,198.3L205.5,198.4L206.6,198.9L207.6,199.3L208.1,199.6L208.1,199.9L207.5,200.4L207.1,200.9L207.1,201.3L207.1,201.7L206.6,202L206.2,201.9L205.4,201.4L202.8,199L203.2,199.7L205.9,202.3L206.3,203.2L206.4,203.8L206.1,204.1L205.7,204.5L204.8,204.5L203.4,203.5L201.1,201.2L200.4,200.9L202.6,203.5L203,204.2L203.4,205L203.3,205.4L203.1,205.8L197.7,208.3L196.9,209.4L196.2,210.7L195.2,211.4L194.6,212.1L192.7,212.5L191.7,212.4L192.8,211.2L192.1,210.7L192.1,207.6L192.4,204.1L192.8,202.4L193.5,201.9L194.4,201.7L194.4,201.3L194.3,200.9L193.9,200.3L193.3,200L192.6,199.9L192,199.2L191.6,199.2L190.9,199.4L190.5,199.1L190.3,198.6L189.7,198L189,197.5L189.3,197.4L189.7,197L190.1,196.6L191.1,196.5L192.1,196.6L192.4,196.4L192.8,196L193.5,195.4L194,195.1L194.1,194.8L193.9,194.2L193.8,193.5L194,193.3L194.9,193.4L195.9,193.7L196.2,193.9L196.7,193.1L196.9,193L197.3,193L198.3,192.9L199.3,192.6L199.8,192.7L200.2,193.2L200.5,193.7L200.7,193.8L201.2,193.5L201.7,193.8L202.5,194.3L203.1,194.3L202.8,193.2L203.1,192.5L203,192.3L202.5,192L200.9,190.6L200.6,190.2L200.6,189.5L200.5,188.6L200.4,188L200.4,187.6L200.5,187.3L200.8,187.2L201.1,187.2L201.4,187L201.8,186.3L202.6,186.4L203.7,186.7L204.5,187L205,186.9L205.1,186.8L205.1,186.5L205.1,185.1L205.1,184.7L205.8,184.6L206.9,184.6L207.4,184.5L207.9,183.9L209.3,183.7L210.3,182.9L211.1,182L211.6,181.8L212.1,181.7L212.5,181.7L213,182.2L213.5,181.9L214,181.3L214.2,180.7L214.4,179.8L214.2,178.4L214,177.4L213.7,176.6L213.7,175.7L214.3,174.1L214.8,172.4L214.7,171.6L214.1,170.5L213.6,169.2L213,167.7L212.8,167.5L212.6,167.1L212.5,166.6L212.8,165.1L212.8,164.6L213.5,163.9L213.8,163.1L214.2,162.2L214.1,161.8L214,160.8L214.1,160.4L214,160L213.7,159.4L213.9,159.1L214.4,158.8L214.6,158.3L215,157.7L215.1,157.1L214.9,156.7L214.4,156L213.6,155.4L212.6,154.6L212.1,154.1L211.7,153.6L211.4,153L211.2,152.5L211.4,152.2L212.8,151.5L213,151.3L213.2,150.9L213.1,150.5L212.7,150.3L212.3,150.1L211.6,149.7L210.4,148.5L209.9,148.2L209.3,147.9L209,147.5L208.6,146.5L208.5,146.4L208.2,146.7L207.7,147L207.4,147L207.1,146.7L206.9,146.3L206.6,145.8L206.2,145.4L206.1,143.9L206,143.4L205.8,142.8L205.5,142.5L205.2,142.4L204.4,141.2L203.9,140.6L201.8,138.9L201.5,138.6L200.9,137.9L199.9,136.9L199.2,136.1L198.7,135.3L198.5,134.6L198.4,134L197.8,133.2L197.3,132.6L196.9,132.3L196.3,132.3L195.8,131.9L194.9,131L194.6,130.4L194.3,130L194.3,129.6L194.5,129L194.8,128.6L194.8,128.3L194.6,128.1L193.6,127.7L191.3,127L190.5,126.5L189.7,125.9L189.1,125.5L186.4,123.6L185.6,123.3L184.8,123L184.6,122.7L184.6,122.4L184.9,122.2L185.7,121.7L186,121.2L185.9,120.5L185.6,119.8L185.8,119.5L186,119.5L186.5,119.5L187.6,119.4L189.9,120.1L190.3,120L191.5,118.8L192,118.1L192.1,117.5L192.4,117.2L193,116.6L193,116L192.7,115.2L192.4,115L192.1,114.8L191.2,114.9L191,114.8L190.9,114.2L190.8,113.9L190.5,113.5L189.5,113.1L188.7,113L188.5,112.9L188.8,112.5L189.4,112.1L189.8,111.9L190.2,111.5L190.2,111.1L189.8,110.8L189.2,110.4L188.3,109.6L187.1,108.8L186.3,108.5L185.9,108.6L184.5,109.2L183.8,109.7L183.2,110.5L182.5,110.7L181.9,110.3L181.1,110L179.1,109.4L178.2,109L176.4,106.3L176.2,105.7L176.4,105.1L176.5,104.2L176.6,103.6L177,103.1L177.1,102.6L177,102.1L176.7,101.8L176.4,101.8L176.1,101.6L175.9,101L175.7,101.1L175.5,101.9L175.3,102.1L174.9,102.3L174.6,102.2L174.5,101.9L174.4,101.3L174.2,100.6L174,100.2L173.2,99.7L172.9,99.1L171.7,97.8L170.7,96.8L170.3,96L170.7,95.7L171.2,95.2L171.7,94.5L172.3,93.7L172.6,93.1L172.7,92.9L173.1,92.7L173.5,92.8L174.1,93.2L175.1,93.6L176,94.2L176.4,94.7L176.8,95.2L177.2,95.4L177.4,95.4L178,95L178.5,94.6L178.5,94.1L179,93.7L179.5,93.1L179.8,92.6L180,92.6L180.3,92.7L181.2,94.1L181.4,94.2L181.6,94L182,92.9L182.4,92.5L182.5,92.6L184.8,94.6L185,94.6L185.3,94.5L185.4,94.2L185.6,93.5L185.9,92.7L186.7,92.3L187.2,92.2L187.4,92.6L187.9,93.1L188.5,93.1L189.8,92.3L190.2,92.1L190.6,92.1L191.1,92.1L191.5,91.8L192,91.3L192.1,90.4L192.2,89.7L192.5,89.3L192.9,89.1L193.6,88.8L195.1,88.1L195.5,87.7L195.8,87.5L196.5,87.8L197.2,88.5L197.6,88.9L197.9,89.5L198.1,89.9L199.2,90.3L200,90.8L200.5,91.2L200.9,91.2L201.4,91.1L201.7,90.8L202.3,90.8L202.9,90.8L203.2,90.9L203.8,91.7L204,91.8L204.5,91.7L205.4,91.5L206.1,91.3L206.8,91.7L208,92.5L207.7,93.1L207.4,93.7L206.9,94.2L206.4,94.3L206.2,94.9L206.1,95.9L206.2,96.3L206.5,96.5L206.9,96.8L207,97.2L207.1,98.1L207.1,99.2L207.1,99.5L207.4,99.5L207.6,99.3L208.2,99.5L208.8,99.8L209.2,100L209.6,100L209.9,100.3L210,100.8L210.4,101.1L211.3,101.8L212.1,101.9L212.7,102.7L213.4,102.5L213.7,102.8L215,102.7L216,102.3L216.3,102.4L217.2,103.2ZM206.7,211.7L206.5,211.7L206.3,211.5L207.1,211L207,211.4L207,211.5ZM211.2,197.6L210.5,198.1L210.5,197.7L211.1,197.4L211.3,197.2L211.4,197.2ZM208.8,109.7L208.7,109.8L208.3,109.4L208,109.2L208.2,108.7L208.7,109.3ZM214.7,106.2L213.6,107.3L213.1,107.2L213.5,106L213.7,105.7L214.4,106.1ZM214.1,108.7L213.6,108.9L213.1,108.9L213.7,108.5L214.1,107.9L214.3,107.8L214.3,108.2ZM210.1,110.2L209.8,110.3L209.1,109.6L209.5,109.2L210.2,109.5L210.4,109.6L210.4,109.8L210.2,110.1Z" fill="#b8e653" stroke="#0c0e06" stroke-width="1"/></svg>
