<svg xmlns="http://www.w3.org/2000/svg" viewBox="0 0 300 300"><path fill="#e8e8ea" d="M186.9,53.5L186.1,53.7L184.1,53.7L182.4,55.4L181.2,56.1L179.4,56.7L177.4,57.6L176.8,59.2L176.8,60.4L176.5,61.7L173.2,63.7L172.3,63.5L171.7,62.8L170.8,62.9L170.1,63.3L169.4,63.2L168.6,63.6L167.5,63.5L166.4,62.9L165.8,62.8L165.1,62.7L165,63.4L166,66.2L166.3,67.5L162.9,71.3L163.3,73.7L162.4,75.6L160.3,77.1L156.4,80.9L154.6,81L153.3,81.9L150.5,88.2L150.4,90.3L150,91.9L150.1,93.4L148.8,96.4L147.5,97.7L147.2,99.3L149.1,102.6L149.3,103.2L150.3,105L150.9,106.3L151.7,107.5L154.7,110.8L156,111.9L157.6,112.6L160.5,115.5L162,117.4L161.3,118.7L161.7,121.4L159.6,120.6L159.9,121L162.3,122.5L166,127.7L169.2,130.3L172.5,133.2L173.5,136L176.5,137.8L179.7,140.5L179.6,141.1L180.5,141.8L182.7,143.2L184.1,144.7L184.5,146.1L185.3,146.3L186.3,146L187.2,145.9L187.8,146L188.9,147.5L190.2,148.9L190.9,150.2L191.4,150L191.8,150.2L192,151.3L192.2,152L194,154L194.9,155.9L197.1,159.1L198.7,160.8L199.9,161.8L201.2,162.7L202.5,166.1L203.2,169.3L204.6,172.7L205.7,174.2L205.7,177.1L206.5,180.1L207.5,182L207.8,184L208,185L208.4,185.8L209.3,189.2L209.1,190.8L208.4,189.3L208.5,193.9L209.1,196.3L208.8,199.2L209.5,200.3L210.6,203.6L211.4,204.8L211.3,209L211.8,211L210.7,209.8L209.9,208.4L208.9,209.1L207.9,210.2L209.4,214.6L207.7,214.2L207.9,220.1L208.6,221.5L208.6,222.2L208.4,223L207.9,222.1L207.9,221.2L207.6,221.4L207.6,221.9L207,222.9L206.9,224.2L207.5,225.3L207.6,226.1L207.2,227.2L206.5,228.3L204.9,228.4L204.5,230.5L204,232.8L201.2,233.2L199.2,235.2L196.6,235.9L194.4,237.9L192,239.7L190.3,240L189,240.4L187.4,243.4L184.7,243.8L180,246.2L178.4,247.4L177,247.9L174.9,249L174.5,248.6L173.7,247.7L172,247.2L171.1,246.2L170.8,245L170.6,244.5L170.2,245.2L169.9,248.2L169.6,248.9L168.8,249.2L167.3,248.3L165.9,246.6L163.8,247.8L164.4,247.9L165.4,247.8L166.1,248.1L166.7,249.3L166.7,250L166.4,250.7L164.4,250.8L161.9,250.6L161.5,250.7L163.8,251.8L165.9,252.5L166.9,253.2L166.9,253.8L165.6,254.7L164.7,255.9L164.7,256.7L164.7,257.5L163.6,258.2L163,258L161.2,256.8L155.9,252L156.7,253.3L162.2,258.8L163.1,260.6L163.3,261.9L162.7,262.6L161.8,263.3L160,263.4L157,261.3L152.3,256.4L150.8,255.8L155.5,261.4L156.3,262.7L157.1,264.3L156.8,265.2L156.4,266.1L145.2,271.3L143.5,273.5L142.1,276.3L139.9,277.8L138.7,279.2L134.9,280L132.8,279.8L135,277.2L133.6,276.3L133.6,269.7L134.1,262.5L135.1,258.9L136.5,258L138.3,257.5L138.3,256.7L138.1,255.8L137.2,254.6L136.1,254L134.6,253.8L133.4,252.3L132.5,252.3L131,252.9L130.2,252.2L129.9,251.2L128.5,249.9L127.1,248.7L127.7,248.5L128.5,247.8L129.4,246.9L131.5,246.8L133.6,246.8L134.2,246.6L135,245.6L136.4,244.4L137.5,243.7L137.8,243.2L137.3,241.9L137.1,240.5L137.5,240.1L139.4,240.4L141.5,241L142,241.3L143.2,239.6L143.6,239.4L144.4,239.4L146.4,239.1L148.5,238.7L149.5,238.8L150.4,239.9L151.1,241L151.5,241L152.5,240.6L153.4,241.1L155.3,242.1L156.4,242.1L155.8,239.9L156.4,238.4L156.3,238L155.3,237.3L151.8,234.4L151.2,233.5L151.2,232.2L151.1,230.2L150.8,229L150.9,228.3L151.1,227.7L151.7,227.4L152.3,227.4L152.8,226.9L153.7,225.5L155.3,225.7L157.6,226.4L159.3,226.9L160.4,226.8L160.5,226.6L160.5,225.9L160.7,222.9L160.6,222.3L162,222L164.3,221.9L165.4,221.7L166.5,220.5L169.3,220L171.4,218.4L173.2,216.6L174,216.1L175.2,215.8L176,215.9L177.1,216.9L178,216.3L179,215.1L179.6,213.9L179.9,212.1L179.6,209.2L179.1,206.9L178.6,205.2L178.5,203.5L179.7,200.2L180.7,196.5L180.5,195L179.4,192.7L178.3,189.9L177.1,186.9L176.6,186.4L176.3,185.5L176,184.5L176.6,181.4L176.6,180.3L178,178.9L178.8,177.2L179.5,175.4L179.3,174.5L179.1,172.5L179.3,171.5L179,170.8L178.6,169.6L178.8,168.9L179.9,168.3L180.4,167.2L181.1,166L181.5,164.8L181,163.9L180,162.4L178.2,161.1L176.2,159.5L175.2,158.5L174.4,157.4L173.7,156.2L173.3,155.3L173.7,154.6L176.6,153.2L177.1,152.6L177.4,151.8L177.2,151L176.4,150.6L175.5,150.3L174.2,149.4L171.7,146.9L170.5,146.3L169.3,145.6L168.7,144.8L168,142.7L167.7,142.5L167,143.1L166.1,143.8L165.3,143.7L164.7,143.1L164.4,142.3L163.6,141.2L162.8,140.3L162.6,137.3L162.5,136.4L162.1,135L161.5,134.5L160.8,134.1L159.2,131.6L158.2,130.3L153.7,126.8L153.1,126.3L152,124.8L149.8,122.8L148.4,121.1L147.3,119.4L146.8,117.9L146.6,116.8L145.5,115.1L144.4,113.7L143.5,113.3L142.4,113.1L141.3,112.3L139.5,110.5L138.7,109.3L138.2,108.5L138.2,107.7L138.6,106.3L139.2,105.5L139.2,104.9L138.7,104.4L136.6,103.5L131.9,102.2L130.2,101.2L128.6,99.9L127.4,99L121.7,95.2L120,94.6L118.4,93.9L118,93.2L118.1,92.6L118.7,92.1L120.3,91.1L120.9,90.1L120.7,88.6L120.1,87.1L120.4,86.6L120.9,86.5L122,86.5L124.2,86.4L129.1,87.8L129.7,87.6L132.4,85.2L133.4,83.7L133.6,82.5L134.1,81.7L135.5,80.4L135.5,79.3L134.8,77.7L134.2,77.1L133.6,76.9L131.6,77.1L131.3,76.7L131,75.6L130.9,74.8L130.3,74L128.2,73.3L126.5,73.1L126,72.8L126.7,72L127.9,71.2L128.8,70.8L129.6,70L129.7,69.1L128.8,68.4L127.6,67.6L125.7,66L123.1,64.3L121.5,63.7L120.7,63.8L117.8,65.2L116.3,66.2L115,67.9L113.7,68.2L112.3,67.5L110.8,66.7L106.5,65.6L104.7,64.7L101,59.1L100.4,57.9L100.8,56.6L101.1,54.8L101.4,53.6L102.1,52.4L102.3,51.4L102.1,50.4L101.5,49.8L100.9,49.7L100.3,49.4L99.8,48.1L99.5,48.3L99.1,49.9L98.6,50.5L97.8,50.7L97.2,50.5L96.9,49.9L96.7,48.8L96.4,47.3L95.9,46.4L94.3,45.4L93.6,44.1L91.1,41.4L89.1,39.4L88.2,37.7L89,37L90.1,36.1L91.2,34.6L92.4,32.8L92.9,31.7L93.3,31.2L94,30.9L94.8,31.1L96.2,31.8L98.3,32.8L100.1,33.9L100.8,35L101.8,36.1L102.6,36.4L103.1,36.4L104.2,35.5L105.2,34.7L105.3,33.8L106.2,33L107.4,31.6L108,30.6L108.5,30.5L109,30.8L110.9,33.7L111.3,33.9L111.8,33.4L112.6,31.2L113.4,30.3L113.7,30.5L118.4,34.8L118.9,34.7L119.3,34.5L119.7,33.9L120.1,32.4L120.7,30.9L122.3,30L123.4,29.8L123.8,30.6L124.9,31.6L126.1,31.7L128.7,29.9L129.6,29.6L130.5,29.7L131.4,29.6L132.3,28.9L133.3,28L133.6,26.1L133.8,24.5L134.4,23.8L135.2,23.4L136.7,22.8L139.9,21.2L140.7,20.4L141.3,20L142.6,20.7L144.1,22L145,23L145.7,24.1L146,25L148.4,25.8L149.9,26.9L150.9,27.7L152,27.7L152.9,27.5L153.6,26.8L154.8,26.8L156.1,26.9L156.7,27.1L157.8,28.7L158.3,29L159.3,28.8L161.2,28.3L162.7,28L164.1,28.6L166.7,30.4L166,31.6L165.5,33L164.3,33.9L163.4,34.1L162.9,35.5L162.7,37.4L162.9,38.4L163.6,38.7L164.3,39.3L164.6,40.2L164.7,42.1L164.7,44.3L164.8,45L165.3,44.9L165.9,44.6L167,44.9L168.4,45.5L169.2,46.1L170,46L170.6,46.5L170.8,47.6L171.5,48.3L173.5,49.8L175.1,49.9L176.4,51.7L177.8,51.1L178.4,51.9L181.3,51.6L183.3,50.9L184,51.1L185.8,52.6Z"/></svg>
