<svg xmlns="http://www.w3.org/2000/svg" viewBox="0 0 300 300"><path fill="#e8e8ea" d="M120.1,69.2L136.4,155.5L155.4,155L165.4,150.5L176.2,130.2L180.8,98.6L190.7,94L203.4,97.6L198,107.6L201.6,132.9L210.6,146.9L217,149.6L229.7,215.7L235.1,229.7L234.2,241L207.9,265.5L168.1,265L140.9,280L123.8,278.6L123.8,261.9L108.4,248.7L91.2,220.2L95.7,169.5L65.8,75.5L64.9,52L75.8,21.4L85.7,20L99.3,45.3ZM288.5,400.2L299.4,406.2L305.7,406.2L309.3,418.9L345.5,444.3L355.5,443.4L363.6,457.5L379,464.3L383.5,478.4L394.4,493L375.4,510.3L338.3,505.8L316.5,525.8L297.5,520.8L293.9,510.3L296.6,506.7L284.9,480.3L280.3,439.3L272.2,415.7L264,405.2L245.9,414.3L238.7,415.7L222.4,396.2L230.6,356.7L234.2,345.3L247.8,343L268.6,353.5ZM239.6,303.1L235.1,309.9L207.9,293.1L214.3,276.8L243.2,282.3Z"/></svg>
