<svg xmlns="http://www.w3.org/2000/svg" viewBox="0 0 300 300"><path fill="#e8e8ea" d="M75.8,100.8L92.5,95.3L94.9,91.1L91,82.7L93.4,77.6L113.5,62.4L116.9,55.6L118.4,50.1L115.5,44.6L111.6,35.6L113.5,31.7L124.3,26.5L132.6,20.6L137.5,20L140.9,24.5L140.9,29.1L143.9,36.5L149.8,40.4L160.5,47.2L172.8,51.7L182.1,60.8L195.3,76.9L197.3,85L209,92.1L219.8,100.1L217.8,114.9L255,127.8L263.4,127.8L267.3,130L267.3,133.6L264.3,143.8L249.2,175.6L247.7,182.3L236.9,189L235.4,193.1L238.4,201.8L241.3,207.8L217.8,212.9L210,219L205.1,229.5L203.6,234.9L199.7,235.2L192.8,229.8L184,221.2L172.8,221.8L134.6,240.3L130.7,249.8L130.2,270.8L127.2,276.5L123.3,280L107.6,277.8L105.7,276.5L108.1,268.3L107.2,250.8L99.8,221.8L94.9,212.3L84.1,202.7L76.3,196.6L61.6,191.2L54.3,175.2L43,157L37.6,152.8L38.6,150.9L41,137.1L37.6,127.1L32.7,118.5L36.2,113.3L46.4,113.3L54.8,114.3L58.2,106.2Z"/></svg>
