<svg xmlns="http://www.w3.org/2000/svg" viewBox="0 0 400 300"><path d="M400,52.8L390.8,57.2L379.8,50.8L386,47L390.3,35L397,23.8L395.2,17.4L400,14.8L400,52.8Z" fill="#2c2c34" stroke="#474751" stroke-width="0.8"/><path d="M86.8,0L85.9,2.7L81.2,8.7L59.8,9.6L47.5,17.6L27.4,14.9L0,7.7L0,0Z" fill="#2c2c34" stroke="#474751" stroke-width="0.8"/><path d="M217,0L203.7,21.8L184,28.4L168.8,26.8L150.1,36.1L140.9,41.4L120.8,34.6L102.5,19.5L94.8,15.1L90,3L85.9,2.7L86.8,0L217,0Z" fill="#2c2c34" stroke="#474751" stroke-width="0.8"/><path d="M400,14.8L395.2,17.4L397,23.8L390.3,35L386,47L379.8,50.8L375.4,34.8L378.1,19.8L377.3,4.2L374.5,0L400,0Z" fill="#2c2c34" stroke="#474751" stroke-width="0.8"/><path d="M400,73.1L394.6,70.7L387.8,111.9L373.4,108.4L355.7,96L326.9,104L314.8,112.6L278.9,110.8L260.1,105.5L250.6,108L243.6,94L239.1,88L244.8,82.3L238.8,78L231.1,85.7L216.8,75.7L214.9,61.5L200,53.3L197.3,42.2L184,28.4L203.7,21.8L217,0L374.5,0L374.5,0L377.3,4.2L378.1,19.8L375.4,34.8L379.8,50.8L379.8,50.8L390.8,57.2L400,52.8L400,73.1Z" fill="#2c2c34" stroke="#474751" stroke-width="0.8"/><path d="M243.6,94L250.6,108L260.1,105.5L278.9,110.8L314.8,112.6L326.9,104L355.7,96L373.4,108.4L387.8,111.9L375.1,125.9L366.2,149.7L374,168.6L353,164.2L328.1,174.5L327.9,190.8L305.7,193.9L288.5,182.5L268.9,191.4L250.8,190.5L249,168.9L236.8,158.3L240.9,153.6L238.2,149.7L242.4,139.1L251.6,128.6L239.7,114.1L237.6,101.7Z" fill="#2c2c34" stroke="#474751" stroke-width="0.8"/><path d="M257.6,300L254.8,299L255.2,300L208.8,300L208.8,300L206,286.9L196.5,272.5L183.9,254.5L182.4,245.5L193.7,230.1L195.1,219.7L203.1,215L203.6,206.6L219.6,203.7L228.9,196.6L242.1,197.3L246.1,191.6L250.8,190.5L250.8,190.5L268.9,191.4L288.5,182.5L305.7,193.9L327.9,190.8L328.1,174.5L340,183.2L332.4,203.5L326.6,207.2L311.8,206.3L299,203.2L269.5,211.6L286.3,229.6L273.9,234.8L260.4,234.9L247.5,218.4L242.9,225.4L248.3,244.5L260.6,259.3L251.3,266.2L265,280.6L277,289.7L277.2,300L257.6,300Z" fill="#2c2c34" stroke="#474751" stroke-width="0.8"/><path d="M343.4,300L333,290L344.9,265.7L329.4,250.6L356.5,220.2L394.2,218.9L400,205L400,300ZM328.1,174.5L353,164.2L374,168.6L376.9,181.2L398.3,191.7L393.8,199.7L364.8,201.5L354.4,211.4L334,228.8L326.4,213.8L326.6,207.2L332.4,203.5L340,183.2Z" fill="#2c2c34" stroke="#474751" stroke-width="0.8"/><path d="M203.6,206.6L203.1,215L195.1,219.7L193.7,230.1L182.4,245.5L178.1,243.3L177.7,236.3L164.2,225.6L162,210.3L164.1,188.2L167.4,178L163.3,172.9L161.7,162.4L172.2,146.1L173.8,152.3L180.4,149.4L185.6,158.3L191.4,161.7L193.1,173.6L190,184.7L193.4,198.7Z" fill="#2c2c34" stroke="#474751" stroke-width="0.8"/><path d="M94.8,15.1L102.5,19.5L120.8,34.6L140.9,41.4L150.1,36.1L156,49.6L163.8,59.6L154.4,72.6L143.3,64.9L126.4,65.4L105.4,59.6L94,60.4L88.7,67.6L80,59.6L74.8,74L86.7,90.1L92.1,100.6L103.3,113.3L112.6,120.7L121.8,134.7L143.5,147.4L140.8,153L117.8,140.7L103.6,128.7L81.3,118.7L60.8,93.8L65.7,91.2L54.6,76.8L54.1,65.1L38.4,59.6L30.9,74.6L23.7,63L24.2,50.9L25.1,50.4L42.1,51.6L46.6,45.7L54.9,51.4L64.5,52.1L64.4,42.3L72.9,38.7L75.3,24.5Z" fill="#2c2c34" stroke="#474751" stroke-width="0.8"/><path d="M0,7.7L27.4,14.9L24.6,32.3L30.5,47.2L11.1,42.1L0,49.1L0,7.7ZM0,100.7L20.5,116L32.8,143.7L60,170.3L79.1,170.1L85.1,177.4L78.2,183.9L100.1,195.7L118.1,205.4L139,222.2L141.5,228.2L137,239.6L123.4,224.7L102.1,219.4L91.9,240.1L109.5,251.9L106.6,268.3L96.4,270.2L83.4,296.9L73.2,299.3L73.3,289.8L78.3,273.1L83.6,266.4L74.1,248.1L66.6,232.1L56.5,228.1L49.3,214.2L33.5,208.4L23,195.3L4.9,193.3L0,189.5L0,100.7ZM0,292.8L25.7,295.4L50.7,292L50.7,292L69.2,289.3L65.4,300L0,300Z" fill="#2c2c34" stroke="#474751" stroke-width="0.8"/><path d="M27.4,14.9L47.5,17.6L59.8,9.6L81.2,8.7L85.9,2.7L90,3L94.8,15.1L75.3,24.5L72.9,38.7L64.4,42.3L64.5,52.1L54.9,51.4L46.6,45.7L42.1,51.6L25.1,50.4L30.5,47.2L24.6,32.3Z" fill="#2c2c34" stroke="#474751" stroke-width="0.8"/><path d="M143.5,147.4L121.8,134.7L112.6,120.7L103.3,113.3L92.1,100.6L86.7,90.1L74.8,74L80,59.6L88.7,67.6L94,60.4L105.4,59.6L126.4,65.4L143.3,64.9L154.4,72.6L163.2,72.5L157.1,87.6L168.9,100.7L165.3,116.6L159.6,118.2L155,121.2L147.1,129Z" fill="#2c2c34" stroke="#474751" stroke-width="0.8"/><path d="M236.8,158.3L249,168.9L250.8,190.5L246.1,191.6L242.1,197.3L228.9,196.6L219.6,203.7L203.6,206.6L193.4,198.7L190,184.7L193.1,173.6L196.2,173.9L197.3,167.1L211.7,162.1L217.2,160.8L225.6,158.8Z" fill="#2c2c34" stroke="#474751" stroke-width="0.8"/><path d="M150.1,36.1L168.8,26.8L184,28.4L197.3,42.2L200,53.3L214.9,61.5L216.8,75.7L231.1,85.7L238.8,78L244.8,82.3L239.1,88L243.6,94L237.6,101.7L239.7,114.1L251.6,128.6L242.4,139.1L238.2,149.7L240.9,153.6L236.8,158.3L225.6,158.8L217.2,160.8L216.4,158.3L219.3,154.3L222,146.3L218.6,146.5L213.9,140.3L209.8,138.7L206.6,133.4L202.1,131.3L198.6,126.6L194.2,128.5L190.8,139.5L185,142L186.9,139.1L177.6,132.1L169.6,128.6L166.1,123.9L159.6,118.2L165.3,116.6L168.9,100.7L157.1,87.6L163.2,72.5L154.4,72.6L163.8,59.6L156,49.6Z" fill="#2c2c34" stroke="#474751" stroke-width="0.8"/><path d="M180.4,149.4L173.8,152.3L172.2,146.1L161.7,162.4L163.3,172.9L158.2,170.3L151.3,159.6L140.8,153L143.5,147.4L147.1,129L155,121.2L159.6,118.2L166.1,123.9L169.6,128.6L177.6,132.1L186.9,139.1L185,142Z" fill="#2c2c34" stroke="#474751" stroke-width="0.8"/><path d="M187.1,141.4L190.1,140.5L190.5,139.7L189.8,138.2L190.3,137.3L193.9,134.6L194.5,133.3L194.8,132.3L194.2,131.4L193.5,129.7L193.9,129L195.8,128.1L197.3,127.1L198.2,126.9L198.8,127.8L198.8,128.6L199.3,129.9L200.4,130.6L202.3,131.8L204.5,132.6L206.2,134.3L208.6,137.2L208.9,138.6L211,139.9L213,141.3L212.6,144L219.3,146.3L220.8,146.3L221.5,146.7L221.5,147.3L221,149.2L218.3,154.9L218,156.1L216.1,157.3L215.8,158L216.3,159.6L216.8,160.7L212.6,161.6L211.2,162.7L210.3,164.6L210.1,165.5L209.4,165.6L208.1,164.6L206.6,163.1L204.5,163.2L197.7,166.5L197,168.2L196.9,172L196.4,173L195.6,173.6L192.8,173.2L192.5,173L192.9,171.5L192.7,168.4L191.4,163.2L190.5,161.5L188.6,159.8L187.2,158.7L184.6,157.7L183.2,154.8L181.2,151.5L180.3,150.8L180.4,150.5L180.9,148L180.3,146.2L179.4,144.6L180,143.7L181.8,143.7L183.3,143.9L183.9,142.4Z" fill="#b8e653" stroke="#0c0e06" stroke-width="1"/></svg>
