<svg xmlns="http://www.w3.org/2000/svg" viewBox="0 0 400 300"><path d="M124.2,300L127.9,295.2L131.2,291.4L138.8,291.2L149.5,282.7L165.1,282.2L199,246L207.4,235.8L212.8,228.4L212.8,222L212.8,209.7L212.8,204.7L212.9,204.5L216.7,204.3L222.3,202.4L228.6,201.2L234.3,197L238.8,197L239.1,200.4L238,207.5L238.1,213.9L235.5,218.3L232.2,231.5L226.4,245L218.9,260.4L208.7,278.1L198.4,291.6L191.2,300L124.2,300Z" fill="#2c2c34" stroke="#474751" stroke-width="0.8"/><path d="M39.5,300L39.4,299.6L33.7,291.2L41.1,284L49.2,276.1L55.5,278.1L55.5,284.9L59.6,288.8L67.9,288.8L83.1,299L86.9,299.2L89.7,298.8L91.9,300L39.5,300ZM101.2,300L103.9,296.2L114.8,291.1L119.7,295.2L127.9,295.2L124.2,300L101.2,300Z" fill="#2c2c34" stroke="#474751" stroke-width="0.8"/><path d="M0,71.7L20.5,71.7L68.1,71.7L71.9,84.4L69.3,86.7L71,99.8L75.4,115L80,118.1L86.6,122.8L80.5,130L71.7,132L67.9,135.9L66.7,144.2L61.5,162.5L62.8,167.4L60.9,178.1L56.1,190.2L48.8,196.3L43.7,205.6L42.5,210.6L36.8,214L33.2,226.8L33.4,237.7L33.3,228.2L31.6,228L31.8,221.9L30.4,217.7L24.2,212.9L22.7,204.1L24.2,195.1L18.6,194.2L17.8,197L10.6,197.6L13.5,201.2L14.5,208.5L7.9,215.2L2,224L0,224.4L0,71.7Z" fill="#2c2c34" stroke="#474751" stroke-width="0.8"/><path d="M244.5,42.4L246.6,41.8L247,45.4L256.4,43.3L266.3,43.7L273.6,44.1L281.8,35.2L290.7,26.7L298.3,18.5L300.6,23L302.2,33.5L296.1,33.5L295.1,42.1L297.2,43.9L291.8,46.5L291.8,51.9L288.3,57.3L288,62.5L285.5,65.3L249.5,58.7L244.9,45.5Z" fill="#2c2c34" stroke="#474751" stroke-width="0.8"/><path d="M235.2,35.7L234.4,26.1L237.7,19.1L241,17.7L244.6,21.8L244.8,29.6L242.2,37.4L238.8,38.3Z" fill="#2c2c34" stroke="#474751" stroke-width="0.8"/><path d="M288,62.5L288.3,57.3L291.8,51.9L291.8,46.5L297.2,43.9L295.1,42.1L296.1,33.5L302.2,33.5L307.6,42.5L314.3,47.3L323.1,49L330.2,51.4L335.6,58.8L338.8,63.2L343.1,64.8L343.1,67.7L338.7,75.4L336.8,79L331.8,83.1L327.3,91.9L321.8,91.2L319.3,94.3L317.4,100.8L318.9,109.3L317.8,110.8L312.3,110.8L304.8,115.5L303.6,121.7L300.9,124.3L293.4,124.2L288.7,127.4L288.7,132.5L283,136L276.4,134.8L268.3,139L262.8,139.7L258.9,131L249.5,110.1L285.5,97.4L293.4,71.7ZM300.6,23L298.3,18.5L301.8,13.9L303.3,15.1L302.2,20.6Z" fill="#2c2c34" stroke="#474751" stroke-width="0.8"/><path d="M400,29.3L399.7,29.4L380.2,29.6L363.4,31.5L367.9,16L385.2,9.1L384.2,2.9L378.4,0.7L378.4,0L400,0Z" fill="#2c2c34" stroke="#474751" stroke-width="0.8"/><path d="M378.4,0L378.4,0.7L384.2,2.9L385.2,9.1L367.9,16L363.4,31.5L340.8,27.4L327.7,24.4L314.2,22.7L309.1,6.3L303.4,3.9L294.1,6.3L282.1,12.8L267.4,8.3L257.7,0L378.4,0Z" fill="#2c2c34" stroke="#474751" stroke-width="0.8"/><path d="M62.8,167.4L61.5,162.5L66.7,144.2L67.9,135.9L71.7,132L80.5,130L86.6,122.8L93.5,137.3L96.8,148.8L103.4,154.9L119.8,166.6L126.4,173.6L132.9,180.8L136.7,185L142.6,188.7L139,191.7L133.8,190.6L129.7,186.7L124.8,179.4L119.5,175.5L116.4,171.2L105.9,166.2L97.7,166.1L94.8,163.5L87.8,166.4L80.5,160.8L76.8,170Z" fill="#2c2c34" stroke="#474751" stroke-width="0.8"/><path d="M217.3,0L219.2,4.3L227.4,10L228.1,15.5L226.9,20L228.4,24.4L231.9,28.1L233.5,32.5L235.2,35.7L238.8,38.3L242.2,37.4L244.5,42.4L244.9,45.5L249.5,58.7L285.5,65.3L288,62.5L293.4,71.7L285.5,97.4L249.5,110.1L214.9,115L203.8,120.7L195.2,133.9L189.6,136L186.5,131.8L182,132.4L170.3,131.1L168.2,129.9L154.3,130.2L151.1,131.3L146.2,128.1L143,134.2L144.2,139.5L139,143.5L137.4,138.2L133.8,134.4L132.8,129.4L126.7,124.9L120.3,114.3L116.9,103.9L108.6,95.2L103.2,93.1L95.3,80.9L93.9,71.9L94.4,64.2L87.6,49.8L81.9,44.6L75.5,41.9L71.5,34.4L72.2,31.4L68.8,24.5L65.3,21.5L60.7,11.6L53.3,0.7L52.8,0L217.3,0Z" fill="#2c2c34" stroke="#474751" stroke-width="0.8"/><path d="M27.5,0L34.9,17.3L39.3,24.5L43.2,32L54,46.6L51.6,48.9L52,57.4L65.9,69.1L68.1,71.7L68.1,71.7L20.5,71.7L0,71.7L0,0Z" fill="#2c2c34" stroke="#474751" stroke-width="0.8"/><path d="M91.9,300L89.7,298.8L86.9,299.2L83.1,299L67.9,288.8L59.6,288.8L55.5,284.9L55.5,278.1L49.2,276.1L42.2,263L36.7,260.2L34.6,255.4L28.5,249.5L21.1,248.6L25.2,241.7L31.6,241.4L33.4,237.7L33.2,226.8L36.8,214L42.5,210.6L43.7,205.6L48.8,196.3L56.1,190.2L60.9,178.1L62.8,167.4L76.8,170L80.5,160.8L87.8,166.4L94.8,163.5L97.7,166.1L105.9,166.2L116.4,171.2L119.5,175.5L124.8,179.4L129.7,186.7L133.8,190.6L129.6,196L125.5,201.8L126.5,205.2L126.7,208.9L133.4,209.1L136.2,208.2L138.9,210.4L136.3,214.7L140.7,221.4L145.1,227.3L149.7,231.6L189,246L199,246L199,246L165.1,282.2L149.5,282.7L138.8,291.2L131.2,291.4L127.9,295.2L119.7,295.2L114.8,291.1L103.9,296.2L101.2,300L91.9,300Z" fill="#2c2c34" stroke="#474751" stroke-width="0.8"/><path d="M133.8,190.6L139,191.7L142.6,188.7L145.4,192.5L145,197.6L138.2,200.5L143.3,203.9L138.9,210.4L136.2,208.2L133.4,209.1L126.7,208.9L126.5,205.2L125.5,201.8L129.6,196Z" fill="#2c2c34" stroke="#474751" stroke-width="0.8"/><path d="M212.9,204.5L212.8,204.7L212.8,209.7L212.8,222L212.8,228.4L207.4,235.8L199,246L189,246L149.7,231.6L145.1,227.3L140.7,221.4L136.3,214.7L138.9,210.4L143.3,203.9L147.3,206.1L149.6,211.2L155,216.3L160.9,216.3L172.2,213.2L185.3,211.8L195.9,208L201.8,207.2L206.1,204.9Z" fill="#2c2c34" stroke="#474751" stroke-width="0.8"/><path d="M0,297.3L0.7,296.8L8.3,299.5L17.9,296.7L26.4,296.7L33.7,291.2L39.4,299.6L39.5,300L0,300Z" fill="#2c2c34" stroke="#474751" stroke-width="0.8"/><path d="M0,224.4L2,224L7.9,215.2L14.5,208.5L13.5,201.2L10.6,197.6L17.8,197L18.6,194.2L24.2,195.1L22.7,204.1L24.2,212.9L30.4,217.7L31.8,221.9L31.6,228L33.3,228.2L33.4,237.7L31.6,241.4L25.2,241.7L21.1,248.6L28.5,249.5L34.6,255.4L36.7,260.2L42.2,263L49.2,276.1L41.1,284L33.7,291.2L26.4,296.7L17.9,296.7L8.3,299.5L0.7,296.8L0,297.3L0,224.4Z" fill="#2c2c34" stroke="#474751" stroke-width="0.8"/><path d="M262.5,139.7L256.5,142L254.9,142.9L253.4,144.2L252.4,145.7L251.6,148.4L252.1,150.8L252.1,152.1L250.5,153L249.1,153.6L247.5,154.6L246.5,154.8L245.7,155.6L244.8,156.1L241.4,157.5L237.7,158.5L231.9,159.8L229.6,161.2L227.5,162.1L224.4,162.4L220.1,163.7L217.7,164.8L214.8,166.5L214.1,167L213.6,168.3L212.7,169.4L210.9,171.1L209.5,172.1L208.7,172.1L206.9,172.6L204.9,172.7L201.4,172.1L200.5,172.5L199.8,173.2L197.2,174.4L194.4,176.9L192.4,177.5L189.3,178.3L187,179.3L185.5,179.7L183.6,179.9L180,179.8L176.6,180.1L173.5,180.8L172,182.1L170.3,184.2L167.5,185L166.9,185.7L166,187.3L164.3,187.7L162.6,187.9L161,187.2L157.9,189.1L156.7,189.4L154.9,189.4L153.6,189.8L152.7,189.7L151.6,189L149.2,188.1L147.4,188.7L147.3,187L144.4,181.7L145,177.1L145,176.5L144.4,174.4L142.7,172.5L142.7,170.2L142.1,168.4L141.7,166.7L141.8,166.2L141.9,165.8L141,163.1L140.7,162.6L140.6,162L140.8,161.6L140.8,161L140.3,160.2L139.9,158.6L137.5,157.4L138,156.2L138.5,156.6L139.1,157L139.2,156.2L139.2,155.7L138.2,152.2L139.7,147.4L139.2,143.2L141.4,141.5L142,141L142.3,140.5L142.9,139.5L143.6,139.2L143.8,138.2L143.8,137.7L143.3,137.3L143,136.1L143.1,134.6L143.2,133.9L143.5,132.8L144.2,132.3L144.4,132L143.8,131.3L143.9,130.8L145.2,129.6L145.7,129.2L146.6,128.8L147.3,128.9L148.1,129.1L148.8,129.4L149.4,130L150.1,130.7L151.2,131L152,130.9L152.6,131.3L153.1,131.1L153.7,130.7L154.6,130.7L155.5,130.3L157.8,130.1L160.1,130.3L162.5,129.9L165,129.9L167.3,130L167.9,130L168.4,130.2L170.4,131.3L172,131.6L175.1,131.8L178.4,132.2L181.3,132.4L183.7,132.2L185.8,132L186.3,132L186.9,132.7L188.1,134.3L189.3,135.9L191.3,136L192.6,135.4L194,134.6L194.9,133.9L195.9,131.4L196.5,129.7L198,127.8L199.2,126.3L200.9,124.2L201.8,123.1L203.6,120.8L205.3,119.9L208.6,118.2L211.9,116.5L214,115.4L215.8,114.9L218.9,114.5L222.4,114L226,113.5L229.8,112.9L234,112.3L236.9,111.9L240.6,111.4L243.7,111L246.4,110.6L249.2,110.2L249.8,111.4L250.3,112.7L250.8,114L251.4,115.2L251.9,116.5L252.4,117.8L253,119L253.5,120.3L254,121.5L254.6,122.8L255.1,124.1L255.6,125.3L256.1,126.6L256.7,127.8L257.2,129.1L257.7,130.4L258.2,131.6L259.1,132L259.6,133.1L260.3,134.8L261.1,136.4L261.8,138.1ZM136.7,156.5L136.3,156.8L136.2,156.3L136.4,155.2L136.8,154.9L137.1,155.7L136.9,156.1ZM138.7,176.3L137.9,176.7L138.4,175.7L139,175.5L139.1,175.6ZM139.1,173L138.9,173.3L138.7,173.2L137.9,172.6L138.8,171.8L139.2,172.5ZM270.7,189.5L271.4,189.6L272.5,189.2L275.7,189.1L279.6,190.5L278.9,190.8L278.4,191.4L276.7,191.8L275,192.9L270.1,193.4L268.7,193.1L267.5,192.1L265.3,190.7L266.1,189.9L266.3,189.5L266.6,189.1L267.9,188.5L269.1,188.6Z" fill="#b8e653" stroke="#0c0e06" stroke-width="1"/></svg>
