<svg xmlns="http://www.w3.org/2000/svg" viewBox="0 0 300 300"><path fill="#e8e8ea" d="M280,128.7L267.4,133.3L264.1,135.3L261.1,137.9L258.9,141.1L257.3,146.6L258.5,151.7L258.4,154.4L255.1,156.2L252.1,157.5L248.8,159.5L246.7,160L245,161.6L243.1,162.7L236.1,165.5L228.4,167.8L216.3,170.4L211.5,173.3L207.3,175.3L200.7,175.8L191.8,178.6L186.9,180.7L180.7,184.3L179.4,185.4L178.3,188L176.4,190.3L172.6,194L169.8,195.9L168,196L164.4,197L160.1,197.2L153,195.9L151.1,196.8L149.6,198.3L144.1,200.8L138.4,205.9L134.3,207.2L127.6,208.8L123,210.9L119.8,211.7L115.9,212.2L108.4,212L101.3,212.7L94.8,214.1L91.7,216.8L88.2,221.1L82.5,222.8L81.1,224.4L79.3,227.5L75.7,228.3L72.3,228.8L68.8,227.5L62.4,231.2L60,231.9L56.3,232L53.6,232.8L51.7,232.6L49.4,231.1L44.3,229.3L40.6,230.5L40.4,226.9L34.3,216L35.5,206.4L35.5,205.1L34.4,200.8L30.8,196.9L30.9,191.9L29.6,188.4L28.7,184.7L29,183.8L29.1,182.9L27.2,177.3L26.6,176.1L26.4,174.9L26.9,174L26.9,173L25.9,171.3L24.9,167.9L20,165.4L21,163L22,163.8L23.2,164.5L23.5,163L23.5,161.8L21.4,154.5L24.5,144.7L23.5,135.9L28.2,132.3L29.3,131.2L30.1,130.3L31.1,128.2L32.7,127.6L33.2,125.5L33.1,124.4L32.1,123.5L31.4,121L31.7,117.9L31.9,116.6L32.4,114.2L34,113.3L34.5,112.5L33.2,111L33.3,110.1L36.1,107.6L37.1,106.8L38.9,106L40.4,106.1L42,106.5L43.4,107.2L44.8,108.5L46.3,110L48.6,110.5L50.1,110.4L51.4,111L52.4,110.7L53.7,109.9L55.6,110L57.3,109.1L62.3,108.7L67,109L72.1,108.2L77.1,108.3L82,108.4L83.2,108.5L84.3,108.9L88.5,111.2L91.7,111.6L98.2,112.2L105.1,112.9L111,113.5L116.2,112.9L120.4,112.5L121.5,112.6L122.7,114L125.3,117.4L127.6,120.7L131.9,120.9L134.6,119.7L137.5,117.9L139.3,116.6L141.4,111.3L142.7,107.8L145.8,103.9L148.4,100.6L151.9,96.3L153.8,94L157.5,89.2L161,87.4L168,83.8L174.8,80.3L179.2,78.1L182.9,77L189.2,76.1L196.7,75.1L204,74L211.9,72.9L220.7,71.6L226.8,70.8L234.5,69.7L240.9,68.8L246.5,68L252.4,67.2L253.5,69.8L254.6,72.4L255.7,75.1L256.8,77.7L257.9,80.3L259,82.9L260.2,85.6L261.2,88.2L262.3,90.8L263.5,93.4L264.6,96.1L265.6,98.6L266.7,101.3L267.9,103.9L269,106.5L270,109.1L271.1,111.7L272.9,112.5L274,114.9L275.5,118.3L277,121.8L278.6,125.2Z"/></svg>
