<svg xmlns="http://www.w3.org/2000/svg" viewBox="0 0 300 300"><path fill="#e8e8ea" d="M224.3,36.8L224.5,36.7L229,35.9L232.9,36.6L237.4,38.4L241.7,39.1L245.6,38.5L248.9,38.4L251.4,38.7L253.3,39.3L254.7,40.3L254.8,41.2L254.9,41.6L255.7,44L256.8,47.5L257.6,50.9L258.6,55.4L258.6,57.9L258.8,58.9L259.7,60.1L260.9,62.2L261.3,63.4L261.7,64.3L262.9,65.9L263.8,68.5L264.6,71.9L265.3,73.5L265.5,74.3L265.8,75.8L265.8,78.9L265.8,82.5L265.8,86.5L265.8,89.8L265.7,91.5L265.8,96.2L264.7,98.7L264.9,100.7L265.2,102L264.8,102.2L264,102.4L260.3,100.4L256.8,98.2L256.3,98.2L255.5,98.4L253.5,100L251.6,102.4L250.7,104.4L249.3,106.6L247.1,110L246.9,110.8L246.8,113.5L246.9,116.2L247.1,116.6L248.3,116.7L249.2,118.9L251.2,122.4L254.5,124.6L257.6,125.7L261.9,125.9L265.4,125.8L265.1,123.5L265.5,119.7L265.9,117.1L266.4,117.1L267.3,117.3L267.8,117.5L269.2,117.4L271.6,117.9L273.6,117.9L275.3,117.8L278.3,117.7L280,117.7L279.4,121.8L277.2,128.3L276.4,131.2L274.5,141.8L272,147.2L270.5,149.4L266.4,153.3L265.3,154.1L264.3,154.6L262.5,155.1L255.5,163.1L252.9,166.9L250.6,172.6L248.3,175.7L244.9,182.4L241.8,187.5L238.9,192.2L233.9,198.7L231.7,200.6L230.2,201.4L226.2,205.2L220.6,211.3L216.3,216.8L209.8,223L206.1,225.7L200.5,231.1L199,231.9L192.7,236.9L188.2,239.9L180.8,243.5L177.9,244.4L171,243.5L168.1,244L165.6,246.2L165.4,249.2L164.4,249.7L162.8,249.6L158,248.3L155.4,248.5L153.8,250.2L152.6,252.3L148.9,252.4L142.4,250.2L134.7,248.9L132.9,248.7L129.2,250.3L127.9,250.6L122.5,250.2L119.5,249.2L116.6,249.2L114.4,250.1L111.7,250.3L104.5,256.1L100.7,256.1L97.6,256.8L96,256.8L92.9,256L91.9,256L90.2,256.4L88.4,257.4L84.6,257.9L83.1,258.8L76.5,264.1L75.1,263.9L73.8,263.5L70.5,263.5L66.6,260.6L65.1,260.8L65.5,259.9L65.6,258.4L64.8,257.4L64.2,256.9L62.8,257L62,255.7L59.6,255.6L58.8,255.9L57.7,256L57.6,254.7L57.7,253.9L57.6,252.6L57.4,251.1L56.4,250.6L55.8,250.4L54.2,250.5L53,250.7L52.5,251.1L51.9,252.2L51.9,255.6L51,254.7L50.1,252.6L49.8,250.4L50.2,247.8L51.9,246.9L51.8,245.1L51.4,243.6L49.4,239.8L48.7,238L47,236.8L45.7,234L44.4,232.9L43.9,230.9L42.7,229.3L42.2,226.8L42.9,225.4L44,224.6L45.2,225.8L46.5,225.3L48.5,223.5L49.7,220.7L49.8,216.3L49.5,213.6L47.9,206.5L47.2,204.9L43.6,199.8L39.5,193.1L34.2,182.5L31.7,176.2L28,163.5L24.6,156.4L20.5,149.7L20,149.3L20.6,148.5L22.8,147L23.8,146.6L24.4,146.7L24.9,146.3L25.4,145.3L25.5,144.3L25.8,143L26.3,142.1L26.8,140.5L27.7,139.5L29.6,138.8L31.1,139.7L31.7,140.6L32,141.8L32.6,142.3L33.7,142.3L34.4,143.1L34.9,144.6L34.7,145.7L34.2,146.3L34.2,147.2L35,148.3L35.3,149.4L35.8,150.8L38.5,151.6L39.8,152L42,152.2L44.2,152.8L46.2,153.9L49.5,154.2L54.1,153.6L57.8,153.9L60.8,154.9L62.9,155.1L64.3,154.4L64.9,153.5L64.7,152.2L65.3,151.4L66.8,151.1L68,150.1L68.9,148.5L71,147.3L74.3,146.3L75.9,146.3L75.9,143.8L75.9,135.8L75.9,127.9L75.9,119.9L75.9,112.1L75.9,104.2L75.9,96.4L75.9,88.6L75.9,81.3L76.7,81.8L81.7,85.7L83,87.8L83.7,89.1L85.8,93.8L87.4,98L88.7,101.2L88.8,102.7L89,104.1L89.2,104.8L89.1,105.6L88.2,107.4L87.2,108.7L86.1,110.5L86,113L86.3,115.8L87,117.2L87.9,117.7L90,117L91.3,117.2L93.1,117.8L99.2,117.4L99.9,117.6L102.2,117.8L103,117.6L103.7,117L104.5,115.2L105.2,114.7L106.5,114.4L108,113.9L109.3,112.9L111.3,109.6L115.3,106.6L116.5,105.9L117.3,105.1L117.9,104L119.4,100.2L120.4,97.1L120.8,95.6L121.8,93.2L122.9,91.7L124,90.9L124.5,90.6L126,90.2L127.8,89.9L129.8,90.3L131.9,91.2L134.3,92.8L136.7,94.7L137.8,95.7L139,96.1L141.1,96.3L142.5,96.3L144.7,98.2L145.8,98.3L148.3,98.9L151.3,99.5L153.2,99.4L155.3,98.4L156.8,98.3L158.7,98.4L160.8,98.1L162.3,97.7L163.5,96.8L164.5,95.8L165.7,92.8L166.4,90.5L167.5,87.8L168.8,84.1L169.2,81.5L169.7,80.8L171.6,80L173.2,79.5L177.4,78.5L178.2,77.9L179,76.7L180.9,74.7L183.1,72.9L184.3,72L186.4,63.7L186.7,62.7L188.3,60.5L189.2,59.6L189.9,59.6L190.7,59L191.9,57.9L193.2,57.2L194.8,56.9L195.8,56.1L196.3,54.9L197.1,54.3L198.3,54.3L198.9,54L199.1,53.1L199.8,52.4L201,51.8L201.6,51.1L201.7,50.3L203.2,48.4L206.1,45.3L208.8,43.6L211.3,43.2L213.7,42.6L216,41.6L217.7,40.2L218.8,38.2L220.6,37.1ZM214.4,176.3L217,175.1L218.2,174.4L219,173.8L220.1,172.9L220.5,170.8L220.8,168.9L221.6,168L222.5,167.4L223.2,166.5L224.1,164.2L224.7,162L224.8,161.1L224.4,160.2L223.9,159.2L223.3,157.8L222.7,157.7L221.3,156.9L219.5,155.4L217.8,154.1L216.3,152.2L215.7,151.9L214.2,150.6L213.5,149.8L213,149L212.6,148.7L212,148.9L210.2,149.3L206.4,150.8L204.1,152.3L202.1,153.9L200.1,154.6L198.6,155.1L197.4,157.1L196.2,158.9L195.3,160.5L194.7,161.2L194.2,161.7L193.6,162.7L192.6,164.5L191.6,165.6L190.2,166.3L188.4,167.1L187.8,167.6L187.8,168.3L188.4,169.9L189,171.5L190,173.3L190.7,174.7L191.9,176.3L192.5,177.3L192.5,178.9L192.7,179.5L193,180.2L193.4,180.3L193.7,180.6L194.7,181L194.9,181.4L195.6,181.9L196.2,182.9L197.5,184.3L198.9,185.4L201.2,185.8L203,186.1L203.6,186L204.3,185.1L204.8,184L205,182.6L205.5,181.9L207.7,178.4L208.9,177.1L209.7,177L210.6,176.8L211.8,176.6L212.8,176.8L213,176.7Z"/></svg>
