<svg xmlns="http://www.w3.org/2000/svg" viewBox="0 0 400 300"><path d="M316.9,0L319,1.3L313,5.8L304.7,8.8L300.1,8.6L297.4,11L292.1,11.2L290.1,12.1L281,10L275.2,10.6L273.1,0.1L273.1,0L316.9,0Z" fill="#2c2c34" stroke="#474751" stroke-width="0.8"/><path d="M229.9,0L229.1,4.9L228.2,12.7L230.3,14.1L235.6,17.1L237.6,15.7L238.3,24.1L232.5,24.1L229.3,19.8L226.5,16.4L220.7,15.4L219,11.3L214.3,13.7L208.3,12.6L205.7,9.1L200.9,8.4L197.3,8.6L196.9,6.2L194.3,6L190.8,5.5L186.1,6.7L182.8,6.5L180.9,7.2L181.2,0L229.9,0Z" fill="#2c2c34" stroke="#474751" stroke-width="0.8"/><path d="M232.8,152.6L235.4,155.2L233.1,159.5L231.8,162.3L227.6,163.7L226.2,166.5L223.5,167.4L217.7,160.6L221.8,155.1L225.9,151.7L229.5,149.9Z" fill="#2c2c34" stroke="#474751" stroke-width="0.8"/><path d="M249.6,96L245.6,95.2L243,96.2L239.3,94.8L236.2,94.7L231.4,91L225.5,89.8L223.3,84.6L223.3,81.7L220,80.8L211.4,72L209,67.3L207.5,65.9L204.5,59.5L213.1,60.3L215.5,61.3L218.1,61.1L222.3,55.9L228.9,49.4L231.6,48.8L232.6,46L236.9,42.9L242.7,41.8L243.1,44.7L249.5,44.6L253,46.2L254.6,48.2L258.3,48.8L262.2,51.3L262.2,61.4L260.7,67L260.4,73L261.7,75.4L260.8,80.1L259.7,80.9L257.6,86.7Z" fill="#2c2c34" stroke="#474751" stroke-width="0.8"/><path d="M236.2,94.7L225.5,100.8L218.7,107L216.1,112.5L213.9,115.6L209.7,116.3L208.4,120.3L207.6,122.9L202.7,124.9L196.6,124.5L192.9,122.1L189.7,121.1L186,123.1L184.1,127.1L180.5,129.6L176.7,133.4L171.3,134.3L169.6,131.3L170.3,126.2L165.8,118.1L163.7,116.9L163.7,92.7L171.2,92.4L171.4,63.6L177.1,63.3L188.8,60.5L191.7,63.8L196.6,60.7L198.9,60.7L203.2,58.9L204.5,59.5L207.5,65.9L209,67.3L211.4,72L220,80.8L223.3,81.7L223.3,84.6L225.5,89.8L231.4,91Z" fill="#2c2c34" stroke="#474751" stroke-width="0.8"/><path d="M163.7,116.9L163.7,148.3L156.9,152.8L152.9,153.4L148.1,151.7L144.6,151.1L143.4,147.4L140.4,145L136.7,149.3L131.1,142.8L128.1,136.5L126.4,128.3L124.6,122.1L122,109.3L121.8,99.4L120.9,94.9L117.9,91.5L114,84.7L110,75L108.3,70L102.1,62.1L101.7,56L105.3,54.5L109.9,53.1L114.8,53.4L119.4,57L120.5,56.4L151.3,56.1L156.6,59.9L175,61L189,57.8L195.2,56L200.1,56.4L203.1,58.2L203.2,58.9L198.9,60.7L196.6,60.7L191.7,63.8L188.8,60.5L177.1,63.3L171.4,63.6L171.2,92.4L163.7,92.7Z" fill="#2c2c34" stroke="#474751" stroke-width="0.8"/><path d="M266.2,0L267.1,2.9L265.8,5L264.3,11.3L265.7,17.7L263.3,20.4L261,27.7L265,29.7L241.9,36.2L242.7,41.8L236.9,42.9L232.6,46L231.6,48.8L228.9,49.4L222.3,55.9L218.1,61.1L215.5,61.3L213.1,60.3L204.5,59.5L203.2,58.9L203.1,58.2L200.1,56.4L195.2,56L189,57.8L184,52.8L178.9,46.3L179.2,21.3L195.1,21.4L194.4,18.7L195.5,15.8L194.2,12.2L195.1,8.4L194.3,6L196.9,6.2L197.3,8.6L200.9,8.4L205.7,9.1L208.3,12.6L214.3,13.7L219,11.3L220.7,15.4L226.5,16.4L229.3,19.8L232.5,24.1L238.3,24.1L237.6,15.7L235.6,17.1L230.3,14.1L228.2,12.7L229.1,4.9L229.9,0L266.2,0Z" fill="#2c2c34" stroke="#474751" stroke-width="0.8"/><path d="M273.1,0L273.1,0.1L275.2,10.6L273.1,16.5L275.2,26.6L277.9,26.5L280.6,29.1L283.8,34.7L284.5,44.9L281.2,46.5L278.8,52L273.9,47.1L273.3,41.6L274.9,37.9L274.5,34.7L271.5,32.8L269.4,33.5L265,29.7L261,27.7L263.3,20.4L265.7,17.7L264.3,11.3L265.8,5L267.1,2.9L266.2,0L273.1,0Z" fill="#2c2c34" stroke="#474751" stroke-width="0.8"/><path d="M275.2,10.6L281,10L290.1,12.1L292.1,11.2L297.4,11L300.1,8.6L304.7,8.8L313,5.8L319,1.3L320.2,4.7L319.9,12.5L320.9,19.3L321.2,31.5L322.5,35.4L320.2,41L317.3,46.5L312.4,51.4L305.5,54.4L296.9,58.3L288.3,66.9L285.4,68.3L280.1,74.1L277,75.9L276.3,81.7L279.9,87.9L281.4,92.7L281.5,95.1L282.9,94.7L282.6,102.8L281.4,106.6L283.2,108L282.1,111.5L278.9,114.5L272.6,117.3L263.5,121.8L260.1,125L260.8,128.5L262.7,129.1L262.1,133.6L256.3,133.5L255.7,129.7L254.5,125.9L253.9,122.9L255.2,113.6L253.3,107.7L249.6,96L257.6,86.7L259.7,80.9L260.8,80.1L261.7,75.4L260.4,73L260.7,67L262.2,61.4L262.2,51.3L258.3,48.8L254.6,48.2L253,46.2L249.5,44.6L243.1,44.7L242.7,41.8L241.9,36.2L265,29.7L269.4,33.5L271.5,32.8L274.5,34.7L274.9,37.9L273.3,41.6L273.9,47.1L278.8,52L281.2,46.5L284.5,44.9L283.8,34.7L280.6,29.1L277.9,26.5L275.2,26.6L273.1,16.5Z" fill="#2c2c34" stroke="#474751" stroke-width="0.8"/><path d="M256.3,133.5L254.8,137.3L250.3,138.2L245.8,133.6L245.7,130.6L247.8,127.5L248.5,125L250.7,124.4L254.5,125.9L255.7,129.7Z" fill="#2c2c34" stroke="#474751" stroke-width="0.8"/><path d="M181.2,0L180.9,7.2L182.8,6.5L186.1,6.7L190.8,5.5L194.3,6L195.1,8.4L194.2,12.2L195.5,15.8L194.4,18.7L195.1,21.4L179.2,21.3L178.9,46.3L184,52.8L189,57.8L175,61L156.6,59.9L151.3,56.1L120.5,56.4L119.4,57L114.8,53.4L109.9,53.1L105.3,54.5L101.7,56L101,51L102,44.1L104.6,36.8L105,33.5L107.5,26.4L109.3,23.2L113.7,18.1L116.1,14.6L116.9,8.9L116.5,4.5L114.2,1.7L113.5,0L181.2,0Z" fill="#2c2c34" stroke="#474751" stroke-width="0.8"/><path d="M389.2,18L391.2,21.3L393.1,26.4L394.3,35.9L396.3,39.6L395.5,43.4L394.2,45.7L391.6,41L390.2,43.4L391.6,49.2L390.9,52.6L388.8,54.5L388.3,61.2L385.4,70.6L381.6,81.7L376.9,97.2L374,108.7L370.6,118.3L364.4,120.3L357.7,123.9L353.4,121.7L347.3,118.7L345.2,114.3L344.7,106.9L342.1,100.3L341.3,94.4L342.7,88.5L346.2,87.1L346.2,84.4L349.9,78.3L350.6,73.1L348.8,69.3L347.4,64.2L346.7,56.9L349.4,52.4L350.4,47.4L354.2,47.1L358.5,45.5L361.3,44L364.6,43.9L368.9,39.4L375.2,34.6L377.5,30.6L376.4,27.3L379.7,28.2L383.9,22.8L384,18.1L386.5,14.6Z" fill="#2c2c34" stroke="#474751" stroke-width="0.8"/><path d="M235.7,95.6L235.8,95.5L238,95.2L239.8,95.5L242,96.4L244.1,96.7L246,96.4L247.5,96.4L248.7,96.5L249.7,96.8L250.3,97.3L250.4,97.7L250.5,97.9L250.8,99L251.4,100.7L251.7,102.3L252.2,104.5L252.2,105.7L252.3,106.2L252.8,106.8L253.3,107.8L253.5,108.3L253.7,108.8L254.3,109.6L254.7,110.8L255.1,112.4L255.4,113.2L255.5,113.6L255.7,114.3L255.7,115.8L255.7,117.5L255.7,119.5L255.7,121.1L255.6,121.9L255.7,124.2L255.2,125.4L255.2,126.3L255.4,126.9L255.2,127L254.8,127.1L253,126.1L251.3,125.1L251.1,125.1L250.7,125.2L249.7,125.9L248.8,127.1L248.4,128.1L247.7,129.1L246.7,130.8L246.6,131.1L246.5,132.5L246.6,133.8L246.7,133.9L247.3,134L247.7,135L248.6,136.7L250.3,137.8L251.7,138.3L253.8,138.4L255.5,138.4L255.4,137.2L255.5,135.4L255.7,134.2L256,134.2L256.4,134.3L256.6,134.4L257.3,134.3L258.4,134.6L259.4,134.6L260.3,134.5L261.7,134.5L262.5,134.5L262.2,136.5L261.1,139.5L260.8,141L259.8,146.1L258.6,148.6L258,149.7L256,151.6L255.4,152L254.9,152.2L254.1,152.4L250.7,156.3L249.5,158.1L248.3,160.9L247.3,162.3L245.6,165.6L244.2,168L242.8,170.3L240.4,173.4L239.3,174.3L238.5,174.7L236.6,176.6L233.9,179.5L231.9,182.1L228.8,185.1L227,186.4L224.3,189L223.5,189.4L220.5,191.8L218.3,193.2L214.8,194.9L213.4,195.4L210.1,195L208.7,195.2L207.5,196.2L207.4,197.7L206.9,197.9L206.2,197.9L203.8,197.2L202.6,197.4L201.8,198.2L201.2,199.2L199.5,199.2L196.3,198.2L192.6,197.5L191.8,197.5L190,198.2L189.4,198.3L186.8,198.2L185.3,197.7L183.9,197.7L182.9,198.1L181.6,198.2L178.1,201L176.3,201L174.8,201.4L174,201.4L172.6,201L172,201L171.2,201.2L170.4,201.7L168.5,201.9L167.8,202.3L164.7,204.8L164,204.7L163.4,204.6L161.8,204.6L159.9,203.2L159.2,203.3L159.4,202.9L159.4,202.1L159,201.6L158.8,201.4L158.1,201.4L157.7,200.8L156.6,200.8L156.2,200.9L155.6,201L155.6,200.3L155.6,199.9L155.6,199.3L155.5,198.6L155,198.4L154.7,198.3L153.9,198.3L153.4,198.4L153.1,198.6L152.8,199.1L152.8,200.8L152.4,200.3L152,199.3L151.8,198.3L152,197L152.9,196.6L152.8,195.7L152.6,195L151.7,193.2L151.3,192.3L150.5,191.7L149.9,190.4L149.2,189.9L149,188.9L148.4,188.1L148.2,186.9L148.5,186.2L149.1,185.9L149.6,186.5L150.3,186.2L151.2,185.3L151.8,184L151.8,181.9L151.7,180.6L150.9,177.2L150.6,176.4L148.8,174L146.9,170.7L144.3,165.6L143.1,162.6L141.3,156.5L139.7,153.1L137.7,149.9L137.5,149.7L137.8,149.3L138.9,148.5L139.3,148.3L139.6,148.4L139.9,148.2L140.1,147.7L140.2,147.3L140.3,146.6L140.5,146.2L140.8,145.4L141.2,144.9L142.1,144.6L142.8,145L143.1,145.5L143.3,146.1L143.6,146.3L144.1,146.3L144.4,146.7L144.6,147.4L144.6,147.9L144.3,148.2L144.3,148.7L144.7,149.2L144.9,149.7L145.1,150.4L146.4,150.8L147,151L148.1,151.1L149.1,151.4L150.1,151.9L151.7,152L153.9,151.7L155.7,151.9L157.1,152.4L158.1,152.5L158.8,152.1L159.1,151.7L159,151.1L159.3,150.7L160,150.5L160.6,150L161,149.3L162,148.7L163.6,148.2L164.4,148.2L164.4,147L164.4,143.2L164.4,139.4L164.4,135.6L164.4,131.8L164.4,128L164.4,124.2L164.4,120.5L164.4,117L164.7,117.2L167.1,119.1L167.8,120.1L168.1,120.7L169.1,123L169.9,125L170.5,126.6L170.6,127.3L170.7,128L170.8,128.3L170.7,128.7L170.3,129.5L169.8,130.1L169.3,131L169.2,132.2L169.4,133.6L169.7,134.2L170.2,134.5L171.1,134.1L171.8,134.2L172.7,134.5L175.6,134.3L175.9,134.4L177,134.5L177.4,134.4L177.7,134.1L178.1,133.3L178.5,133L179.1,132.9L179.8,132.7L180.4,132.2L181.4,130.6L183.3,129.1L183.9,128.8L184.3,128.4L184.6,127.9L185.3,126.1L185.8,124.5L186,123.8L186.4,122.7L187,122L187.5,121.6L187.8,121.5L188.5,121.3L189.4,121.1L190.3,121.3L191.3,121.7L192.4,122.5L193.6,123.4L194.1,123.9L194.7,124.1L195.7,124.2L196.4,124.2L197.5,125.1L198,125.1L199.2,125.4L200.6,125.7L201.6,125.7L202.5,125.2L203.3,125.2L204.2,125.2L205.2,125.1L205.9,124.9L206.5,124.4L207,123.9L207.6,122.5L207.9,121.4L208.4,120.1L209,118.3L209.3,117.1L209.5,116.7L210.4,116.3L211.1,116.1L213.2,115.6L213.6,115.3L214,114.8L214.8,113.8L215.9,113L216.5,112.5L217.5,108.5L217.7,108L218.4,107L218.9,106.5L219.2,106.5L219.6,106.2L220.1,105.7L220.8,105.4L221.5,105.2L222,104.9L222.3,104.3L222.6,104L223.2,104L223.5,103.8L223.6,103.4L223.9,103.1L224.5,102.8L224.8,102.5L224.9,102.1L225.6,101.1L227,99.7L228.3,98.8L229.5,98.7L230.6,98.4L231.7,97.9L232.6,97.2L233.1,96.3L233.9,95.7ZM231,162.6L232.2,162.1L232.8,161.7L233.2,161.4L233.7,161L233.9,160L234,159.1L234.4,158.7L234.9,158.4L235.2,157.9L235.6,156.8L235.9,155.8L235.9,155.3L235.8,154.9L235.5,154.4L235.3,153.8L234.9,153.7L234.3,153.3L233.4,152.6L232.6,152L231.9,151L231.6,150.9L230.9,150.3L230.5,149.9L230.3,149.5L230.1,149.4L229.8,149.5L228.9,149.7L227.1,150.4L226,151.1L225,151.9L224.1,152.2L223.4,152.5L222.8,153.4L222.2,154.3L221.8,155L221.5,155.4L221.2,155.6L221,156.1L220.5,157L220,157.5L219.3,157.8L218.5,158.2L218.2,158.4L218.2,158.8L218.5,159.6L218.8,160.3L219.2,161.2L219.6,161.9L220.1,162.7L220.5,163.1L220.4,163.9L220.5,164.2L220.7,164.5L220.9,164.6L221,164.7L221.5,164.9L221.6,165.1L221.9,165.3L222.2,165.8L222.8,166.5L223.5,167L224.6,167.2L225.5,167.4L225.8,167.3L226.1,166.9L226.3,166.4L226.4,165.7L226.7,165.3L227.8,163.6L228.3,163L228.7,163L229.2,162.9L229.7,162.8L230.2,162.9L230.3,162.8Z" fill="#b8e653" stroke="#0c0e06" stroke-width="1"/></svg>
