<svg xmlns="http://www.w3.org/2000/svg" viewBox="0 0 300 300"><path fill="#e8e8ea" d="M207.3,206.9L204,206.9L198.4,206.9L192.5,206.9L187.1,208.1L182.7,210L177.4,212.9L175.6,214L174.3,214.9L173.4,216L173,218.5L173,222.2L172.6,225L170.9,227.5L162.9,230.5L157.7,233L152.4,236L148.6,239.8L145.9,244.5L141.5,250.3L137,255.4L132.2,260.7L126.8,262.7L122.3,262.2L116.9,260L112.5,259.6L109.4,261L106.5,260.6L103.7,258.4L101.5,257.6L99.6,258.2L97.2,258.1L93,256.9L89.2,253.1L87.2,251.6L85.7,251L81.3,250.4L71,249.6L70,249.8L65.8,250.5L60.5,251.4L56,252.3L51.2,253.3L46.8,249.4L41.7,245L36.5,240.1L32.6,236.3L30.7,234.1L27.2,231.1L24.7,229.7L23.8,229L21.4,221.2L20,214.1L20,208.8L20,201.4L20,193.9L20,186.6L20,179.2L20,171.8L20,164.5L20,157.1L20,149.8L20,146.2L25.1,146.2L30.9,146.2L37,146.2L43.6,146.2L50.2,146.2L56.9,146.2L61.5,146.2L62.7,146.2L64.1,145.9L64.2,145.2L62.3,141.6L62.5,140.3L62.9,137.9L63.7,135.8L64.8,133L64.9,131.4L64.1,126.1L64.1,123.1L64.4,120L64.6,117.1L64.3,115.1L64.6,114L65.3,112.4L65.6,110.7L66,109.9L65.9,109.2L65.5,107.9L65.2,104.9L64.7,100.7L64.2,97.8L65,97.9L66.7,98.2L67.5,99.7L68,101.3L69.1,101.4L72.1,102.3L73.1,103.6L73.8,106.5L73.4,107.9L72.4,109.1L73.4,110.1L75.4,110.8L76.5,110.6L79.9,108.7L81.1,108.3L82.9,108L84.5,107.5L88.9,106.6L91.3,106.2L92.7,105.5L93.6,105.5L94.4,106L93.7,108.1L93.5,109.9L94.4,113.3L95,114.8L96.4,116L97.5,116.6L98.6,117.8L101,117.6L106.2,119.3L107.8,120.1L110.1,120.9L111.6,121.2L117,121.8L119,122.2L122.7,122.8L125.7,122.8L127.8,122.6L129.3,122.1L130.2,121.5L130.6,121.1L131.2,119.4L132.3,115.7L132.7,114.7L133.9,114.2L135.3,113.8L136.1,114.4L137.1,118.5L141.1,122.1L142.6,125.2L143.6,127.8L144.5,128.6L146,129.4L148.6,129.8L150.8,129.9L155.5,131.8L159.3,133.3L162,134.3L163.2,135.2L164.1,136.5L164.5,137.6L165.3,140.3L166.2,142.4L167.7,142.9L168.9,143L170.2,144.5L171.2,145.8L173.1,148.9L174.5,151.1L175,153.2L176.6,154.6L178.7,155.2L180.7,155.3L181.8,154.6L184.7,153.6L187,152.3L188.6,151.9L189.5,152.1L190.3,153L190.7,154.7L190.7,155.7L192.3,156.6L193.5,156.2L193.9,155.2L193.9,154.6L193.9,150L193.9,146L193.9,142.2L193.9,137.6L193.9,133.6L193.9,130.4L193.9,126.9L192.9,127.1L191.6,127.9L188.7,128L187.5,128.6L187.2,129.5L187.4,130.6L187.5,132.2L187.1,132.9L185.8,133.2L183.9,132.6L180.5,131.8L177.7,131.3L175.7,129.2L172.9,126.1L171.1,124.5L166.8,121.3L166.1,120.6L164.7,119.1L163.6,116.5L163,114.8L162.5,113.5L161.9,111.6L162.9,108.7L164.5,103.2L165.5,99.2L166.1,96.2L168.2,93.2L168.4,90.5L167.5,87L167.7,85.1L167.8,80.3L168,76.2L168,74.2L167.4,70.8L166,67L162.9,61.7L162.9,60.5L164.8,59.3L167.7,57.1L169.1,55.8L170.9,54L171.7,53L173.4,50.6L174.4,48.7L174.8,46.3L174,43.9L175.6,43.4L181,42.6L187,41.7L193.3,40.7L199.6,39.7L205.8,38.8L211.3,37.9L215.2,37.3L215.8,39L216.9,41.7L218.4,43.6L220.1,45.4L221.5,46.4L222.5,46.7L228.6,46.6L230.7,47.7L232.6,49L233.1,51.1L234.4,52.4L235.8,53.4L236.3,53.5L237.3,53.3L239,53.3L240.5,53.7L241.2,54.2L241.3,55.9L241.7,56.7L243.8,57L245.9,57.1L248,58.3L250.1,58.5L252.7,59L253.9,60.3L256.5,61.6L259.8,62.7L262.2,64.1L263.5,64.6L263.6,65.3L264.1,66.4L264.8,67.2L264.9,68.4L265.2,69.5L266.1,69.8L266.9,69.9L267.6,69.1L268.5,69.1L269.6,69.6L270,70.9L270.9,72.6L272.1,73.8L273.1,74.9L272.8,77L272.2,78.9L274,80.8L276.4,82.6L277,83.4L277.2,86L277.6,86.9L279.2,89.1L280,90.5L279.9,91.4L275.6,95.8L274.2,96.2L272.9,96.4L271.7,97.3L271.1,98.2L271.3,98.8L271.8,100.3L272.8,102.6L273.8,104.3L272.9,106.3L271.3,109.8L270.5,110.1L270.3,112.8L270.9,113.8L271.7,114.6L272,116.4L272.1,118.9L272,120.8L270.9,126L272.9,130.4L273.5,130.9L276.2,130.9L276.6,131.3L276,132.6L274.9,133.9L274.2,134.5L270.7,136.1L265.7,137.8L264.7,139.4L264.1,141.7L264.6,143.1L265.3,143.9L265,146L264.6,148.1L264.8,149.8L264.5,151.3L263.9,152.1L263,154.3L262,156.6L261.1,157.7L259.9,158.8L258,159.7L258,160.1L260.2,161.2L260.8,161.9L260.9,162.4L260.5,162.9L260,163.6L261.1,164.3L262.3,164.9L263.5,166.4L264.5,168.6L264.9,169.3L265.1,169.6L265.5,169.6L266.2,169.3L267.6,168.1L268.5,167.7L269.7,169.4L264.9,171L262.5,171.9L255.3,174.3L249.1,176.5L247.5,176.9L244.2,178L242.6,178.6L237,180.5L234.7,181.4L232.7,182.3L228.1,183.7L223.7,185L218.9,186.4L213.5,187.9L210.5,189L208.5,189.9L203.6,191.8L203.4,192.3L203.5,193.6L204.1,196.3L205.3,198.7L206.3,200.1L206.9,203.7Z"/></svg>
