<svg xmlns="http://www.w3.org/2000/svg" viewBox="0 0 400 300"><path d="M265.1,18L266.9,19.2L305.7,41L306.4,47.2L321.8,57.9L316.9,71.2L317.5,77.3L324.3,81.2L324.6,84L321.7,90.5L322.3,93.8L321.6,99L325.4,105.8L329.8,116.5L333.7,118.9L325.2,125.2L313.5,129.4L307.1,129.2L303.3,132.5L295.8,132.8L293,134.1L280.1,131.1L272.1,132L269.1,117.1L265.5,112.1L263.3,109.1L252.8,107.1L246.8,103.8L240,102L235.7,100.2L231.2,97.4L225.4,83.8L219.2,77.8L217.1,71.5L218.2,65.9L216.2,56.1L220.7,55.5L224.6,51.7L228.7,46.1L231.4,43.8L231.3,40.3L228.9,37.9L228.3,33.7L231.4,32.3L232,26L227.8,20L231.6,18.7L243.3,18.8Z" fill="#2c2c34" stroke="#474751" stroke-width="0.8"/><path d="M222.6,0L222,1.5L221.4,10.1L218.9,14.1L218.8,22.2L215.7,25.2L215.4,31.6L213.9,32.4L212.9,38.3L215.6,43.1L216.2,56.1L216.2,56.1L218.2,65.9L217.1,71.5L219.2,77.8L225.4,83.8L231.2,97.4L227,96.3L212.7,98.1L209.8,99.4L206.7,106.3L209.1,111.1L207.2,124L205.9,134.9L208.8,136.9L216.3,141.1L219.2,139.2L220.1,151L211.9,150.9L207.5,144.9L203.6,140.2L195.4,138.7L193,132.9L186.4,136.4L177.9,134.9L174.3,129.9L167.5,128.9L162.5,129.2L161.9,125.8L158.2,125.5L153.3,124.8L146.7,126.5L142,126.2L139.4,127.2L140,114.3L136.4,110.2L135.6,103.6L137.2,97L135,92.9L134.8,86.1L121.8,86.2L122.7,82.3L117.3,82.3L116.7,84.2L110.1,84.6L107.4,90.9L105.8,93.6L99.9,92.1L96.4,93.6L89.3,94.5L85.2,88.8L82.7,85.3L79.6,78.9L77,70.9L45.4,70.7L41.7,72L38.6,71.8L34.1,73.2L32.6,69.9L35.4,68.8L35.7,64.1L37.5,61.3L41.4,59.1L44.2,60.2L47.8,56.1L53.7,56.2L54.3,59.2L58.3,61.1L64.7,54.4L70.9,49.1L73.6,45.7L73.2,36.9L77.9,26.5L82.8,21L89.8,15.8L91,12.4L91.3,8.5L93,4.8L92.6,0L222.6,0Z" fill="#2c2c34" stroke="#474751" stroke-width="0.8"/><path d="M369.7,0L363.9,4.7L352.2,17.7L349.7,23.3L347.3,25.9L347.3,25.9L340.9,17L340.9,0L369.7,0Z" fill="#2c2c34" stroke="#474751" stroke-width="0.8"/><path d="M340.9,0L340.9,17L347.3,25.9L339.8,30.1L337.2,34.6L333.1,35.4L331.6,42.9L328.2,47.3L326.1,54.4L321.8,57.9L321.8,57.9L306.4,47.2L305.7,41L266.9,19.2L265.1,18L265,6.7L268,2.3L269.8,0L340.9,0Z" fill="#2c2c34" stroke="#474751" stroke-width="0.8"/><path d="M115.2,300L115.2,281.5L118.1,283.3L124.4,294.6L123.7,300L115.2,300ZM138.3,300L138.8,299.5L143.9,295.9L146.6,290.2L151.8,287.5L156.3,288.9L161.4,292.2L170.1,292.8L176.9,290L178,286.3L179.9,280.7L185.7,279.7L188.9,275.3L192.5,267.5L202.1,258.8L217.2,250.3L221.6,250.4L226.8,252.4L230.4,251L236.1,252.2L241.2,268.5L244,276.8L242.1,290L243,294.3L237.6,292.1L234.5,292.9L233.5,296.4L231.1,300L138.3,300Z" fill="#2c2c34" stroke="#474751" stroke-width="0.8"/><path d="M236.1,252.2L230.4,251L226.8,252.4L221.6,250.4L217.2,250.3L210.4,245.1L202.1,243.3L199,236.1L199,232L194.4,230.8L182.3,218.3L178.9,211.8L176.8,209.8L172.6,200.7L184.6,202L188.1,203.3L191.7,203L197.6,195.7L206.9,186.5L210.8,185.7L212,181.8L218.2,177.4L226.3,175.9L226.9,180L235.9,179.8L240.8,182.1L243.1,184.9L248.2,185.7L253.8,189.3L253.8,203.5L251.7,211.3L251.3,219.7L253,223.1L251.8,229.8L250.2,230.8L247.3,239.1Z" fill="#2c2c34" stroke="#474751" stroke-width="0.8"/><path d="M123.7,300L124.4,294.6L118.1,283.3L115.2,281.5L115.2,247.5L125.8,247.1L126.1,206.5L134,206.2L150.5,202.2L154.6,206.9L161.4,202.5L164.7,202.4L170.7,199.9L172.6,200.7L176.8,209.8L178.9,211.8L182.3,218.3L194.4,230.8L199,232L199,236.1L202.1,243.3L210.4,245.1L217.2,250.3L217.2,250.3L202.1,258.8L192.5,267.5L188.9,275.3L185.7,279.7L179.9,280.7L178,286.3L176.9,290L170.1,292.8L161.4,292.2L156.3,288.9L151.8,287.5L146.6,290.2L143.9,295.9L138.8,299.5L138.3,300L123.7,300Z" fill="#2c2c34" stroke="#474751" stroke-width="0.8"/><path d="M63.2,300L62.7,297.5L60.1,288.9L56.5,270.8L56.2,256.9L54.9,250.5L50.7,245.8L45.2,236.3L39.5,222.6L37.2,215.5L28.5,204.5L27.9,195.9L33,193.7L39.4,191.8L46.4,192.2L52.8,197.2L54.4,196.4L97.7,195.9L105.1,201.3L131.1,202.9L150.7,198.3L159.5,195.8L166.4,196.4L170.6,199L170.7,199.9L164.7,202.4L161.4,202.5L154.6,206.9L150.5,202.2L134,206.2L126.1,206.5L125.8,247.1L115.2,247.5L115.2,281.5L115.2,281.5L115.2,300L63.2,300Z" fill="#2c2c34" stroke="#474751" stroke-width="0.8"/><path d="M92.6,0L93,4.8L91.3,8.5L91,12.4L89.8,15.8L82.8,21L77.9,26.5L73.2,36.9L73.6,45.7L70.9,49.1L64.7,54.4L58.3,61.1L54.3,59.2L53.7,56.2L47.8,56.1L44.2,60.2L41.4,59.1L37.3,55.4L34.1,57.2L29.8,61.8L21,50.5L29.2,44.5L25.1,37.5L28.8,34.8L36,33.4L36.9,28.7L42.6,33.8L52,34.3L55.3,29.2L56.7,22.1L55.5,13.8L50.4,7.4L53.2,0L92.6,0Z" fill="#2c2c34" stroke="#474751" stroke-width="0.8"/><path d="M53.2,0L50.4,7.4L55.5,13.8L56.7,22.1L55.3,29.2L52,34.3L42.6,33.8L36.9,28.7L36,33.4L28.8,34.8L25.1,37.5L29.2,44.5L21,50.5L10,39.6L2.9,30.8L0,25.8L0,10.2L0,10.2L1.7,5L3.1,0L53.2,0Z" fill="#2c2c34" stroke="#474751" stroke-width="0.8"/><path d="M252.8,107.1L263.3,109.1L265.5,112.1L269.1,117.1L272.1,132L269.1,140.3L272.1,154.5L275.8,154.4L279.7,157.9L284.1,165.9L285.1,180.2L280.5,182.5L277.2,190.3L270.2,183.4L269.4,175.5L271.7,170.4L271.1,165.9L266.8,163.2L263.8,164.2L257.7,158.9L252.1,156L255.3,145.8L258.7,142L256.6,132.9L258.8,124.1L260.6,121.1L257.9,111.9Z" fill="#2c2c34" stroke="#474751" stroke-width="0.8"/><path d="M244.6,300L244.5,299.6L243,294.3L242.1,290L244,276.8L241.2,268.5L236.1,252.2L247.3,239.1L250.2,230.8L251.8,229.8L253,223.1L251.3,219.7L251.7,211.3L253.8,203.5L253.8,189.3L248.2,185.7L243.1,184.9L240.8,182.1L235.9,179.8L226.9,180L226.3,175.9L225.3,168L257.7,158.9L263.8,164.2L266.8,163.2L271.1,165.9L271.7,170.4L269.4,175.5L270.2,183.4L277.2,190.3L280.5,182.5L285.1,180.2L284.1,165.9L279.7,157.9L275.8,154.4L272.1,154.5L269.1,140.3L272.1,132L272.1,132L280.1,131.1L293,134.1L295.8,132.8L303.3,132.5L307.1,129.2L313.5,129.4L325.2,125.2L333.7,118.9L335.4,123.7L335,134.6L336.3,144.2L336.7,161.4L338.6,166.8L335.4,174.7L331.3,182.4L324.4,189.4L314.7,193.6L302.6,199.1L290.5,211.1L286.4,213.2L278.9,221.3L274.5,223.9L273.6,232L278.7,240.7L280.8,247.4L281,250.9L282.8,250.3L282.5,261.7L280.8,267.1L283.3,269.1L281.7,273.9L277.3,278.1L268.4,282.1L255.6,288.5L250.9,292.9L251.8,297.9L254.5,298.7L254.3,300L244.6,300Z" fill="#2c2c34" stroke="#474751" stroke-width="0.8"/><path d="M231.1,300L233.5,296.4L234.5,292.9L237.6,292.1L243,294.3L244.5,299.6L244.6,300L231.1,300Z" fill="#2c2c34" stroke="#474751" stroke-width="0.8"/><path d="M41.4,59.1L37.5,61.3L35.7,64.1L35.4,68.8L32.6,69.9L29.8,61.8L34.1,57.2L37.3,55.4ZM34.1,73.2L38.6,71.8L41.7,72L45.4,70.7L77,70.9L79.6,78.9L82.7,85.3L85.2,88.8L89.3,94.5L96.4,93.6L99.9,92.1L105.8,93.6L107.4,90.9L110.1,84.6L116.7,84.2L117.3,82.3L122.7,82.3L121.8,86.2L134.8,86.1L135,92.9L137.2,97L135.6,103.6L136.4,110.2L140,114.3L139.4,127.2L142,126.2L146.7,126.5L153.3,124.8L158.2,125.5L159.3,128.9L158.1,134.2L160,139.3L158.4,143.4L159.3,147.2L137,147.1L136.5,182.2L143.7,191.3L150.7,198.3L131.1,202.9L105.1,201.3L97.7,195.9L54.4,196.4L52.8,197.2L46.4,192.2L39.4,191.8L33,193.7L27.9,195.9L26.9,188.8L28.3,179L32,168.9L32.6,164.1L36.1,154.2L38.6,149.7L44.7,142.5L48.2,137.6L49.3,129.5L48.7,123.3L45.6,119.5L42.7,112.9L40.1,106.4L40.7,104.1L43.9,99.8L40.7,89.4L38.5,82.2L33.1,75.3Z" fill="#2c2c34" stroke="#474751" stroke-width="0.8"/><path d="M228.3,33.7L228.9,37.9L231.3,40.3L231.4,43.8L228.7,46.1L224.6,51.7L220.7,55.5L216.2,56.1L215.6,43.1L212.9,38.3L219.4,39.1L222.7,33Z" fill="#2c2c34" stroke="#474751" stroke-width="0.8"/><path d="M400,285.6L397.6,286.4L388.2,291.4L382,288.4L373.6,284.1L370.6,277.9L369.9,267.5L366.1,258.2L365.1,249.9L367,241.6L372,239.6L372,235.8L377.1,227.2L378.1,219.9L375.6,214.6L373.6,207.4L372.7,197.1L376.4,190.8L377.9,183.7L383.2,183.3L389.2,181L393.2,179L397.9,178.9L400,176.7L400,285.6Z" fill="#2c2c34" stroke="#474751" stroke-width="0.8"/><path d="M269.8,0L268,2.3L265,6.7L265.1,18L265.1,18L243.3,18.8L231.6,18.7L227.8,20L221.4,23.3L218.8,22.2L218.9,14.1L221.4,10.1L222,1.5L222.6,0L269.8,0Z" fill="#2c2c34" stroke="#474751" stroke-width="0.8"/><path d="M227.8,20L232,26L231.4,32.3L228.3,33.7L222.7,33L219.4,39.1L212.9,38.3L213.9,32.4L215.4,31.6L215.7,25.2L218.8,22.2L221.4,23.3Z" fill="#2c2c34" stroke="#474751" stroke-width="0.8"/><path d="M227.6,177.4L226,177.4L223.2,177.4L220.4,177.4L217.8,177.9L215.7,178.8L213.2,180.2L212.3,180.8L211.7,181.2L211.3,181.7L211.1,182.9L211.1,184.7L210.8,186L210,187.2L206.2,188.7L203.7,189.9L201.2,191.3L199.3,193.2L198,195.4L195.9,198.2L193.7,200.7L191.4,203.2L188.8,204.2L186.7,204L184.1,202.9L182,202.7L180.5,203.4L179.1,203.2L177.8,202.1L176.7,201.7L175.8,202L174.6,202L172.6,201.4L170.8,199.6L169.8,198.8L169.1,198.6L167,198.3L162,197.9L161.5,198L159.5,198.3L157,198.8L154.8,199.2L152.5,199.7L150.4,197.8L147.9,195.7L145.4,193.3L143.5,191.5L142.6,190.4L141,189L139.8,188.3L139.3,188L138.2,184.2L137.5,180.8L137.5,178.3L137.5,174.7L137.5,171.1L137.5,167.6L137.5,164L137.5,160.5L137.5,157L137.5,153.4L137.5,149.9L137.5,148.2L140,148.2L142.7,148.2L145.7,148.2L148.9,148.2L152,148.2L155.2,148.2L157.5,148.2L158,148.2L158.7,148L158.8,147.7L157.8,146L157.9,145.3L158.1,144.2L158.5,143.2L159,141.8L159.1,141L158.7,138.5L158.7,137.1L158.8,135.6L159,134.2L158.8,133.2L159,132.7L159.3,131.9L159.4,131.1L159.6,130.7L159.6,130.4L159.4,129.7L159.2,128.3L159,126.3L158.8,124.9L159.1,125L160,125.1L160.3,125.8L160.6,126.6L161.1,126.6L162.5,127.1L163,127.7L163.3,129.1L163.2,129.8L162.7,130.3L163.2,130.8L164.1,131.2L164.7,131.1L166.3,130.1L166.9,130L167.7,129.8L168.5,129.5L170.6,129.1L171.8,128.9L172.4,128.6L172.9,128.6L173.2,128.9L172.9,129.8L172.8,130.7L173.2,132.3L173.6,133.1L174.2,133.6L174.8,133.9L175.3,134.5L176.4,134.4L178.9,135.2L179.7,135.6L180.8,136L181.5,136.1L184.1,136.4L185.1,136.6L186.9,136.9L188.3,136.9L189.3,136.8L190,136.6L190.5,136.3L190.7,136.1L191,135.3L191.5,133.5L191.7,133L192.2,132.8L192.9,132.6L193.3,132.9L193.8,134.8L195.7,136.6L196.4,138.1L196.9,139.3L197.4,139.7L198.1,140.1L199.3,140.3L200.4,140.3L202.6,141.2L204.4,142L205.8,142.5L206.3,142.9L206.8,143.5L207,144L207.4,145.3L207.8,146.4L208.5,146.6L209.1,146.6L209.7,147.4L210.2,148L211.1,149.5L211.8,150.5L212,151.5L212.8,152.2L213.8,152.5L214.8,152.5L215.3,152.2L216.7,151.7L217.8,151.1L218.5,150.9L219,151L219.4,151.5L219.5,152.3L219.6,152.7L220.4,153.2L220.9,153L221.1,152.5L221.1,152.2L221.1,150L221.1,148.1L221.1,146.3L221.1,144.1L221.1,142.1L221.1,140.6L221.1,138.9L220.6,139L220,139.4L218.6,139.4L218,139.7L217.9,140.1L218,140.7L218,141.4L217.8,141.8L217.2,141.9L216.3,141.6L214.7,141.3L213.3,141L212.3,140L211,138.5L210.2,137.8L208.1,136.2L207.7,135.9L207.1,135.2L206.5,133.9L206.3,133.1L206,132.5L205.7,131.6L206.2,130.2L207,127.5L207.5,125.6L207.7,124.1L208.8,122.7L208.8,121.4L208.4,119.7L208.5,118.8L208.6,116.5L208.6,114.5L208.6,113.6L208.4,111.9L207.7,110.1L206.2,107.5L206.2,107L207.1,106.4L208.5,105.3L209.2,104.7L210,103.8L210.4,103.4L211.2,102.2L211.7,101.3L211.9,100.1L211.5,99L212.3,98.8L214.9,98.4L217.8,97.9L220.8,97.5L223.9,97L226.8,96.5L229.5,96.1L231.3,95.8L231.6,96.6L232.2,97.9L232.9,98.9L233.7,99.7L234.4,100.2L234.8,100.4L237.8,100.3L238.8,100.8L239.7,101.5L240,102.5L240.6,103.1L241.2,103.6L241.5,103.6L242,103.5L242.8,103.5L243.5,103.7L243.9,103.9L243.9,104.8L244.1,105.1L245.1,105.3L246.1,105.4L247.1,105.9L248.1,106L249.4,106.3L249.9,106.9L251.2,107.5L252.8,108L253.9,108.7L254.6,109L254.6,109.3L254.9,109.8L255.2,110.2L255.2,110.8L255.4,111.3L255.8,111.4L256.2,111.5L256.5,111.1L257,111.1L257.5,111.3L257.7,112L258.1,112.8L258.7,113.4L259.2,113.9L259,114.9L258.8,115.8L259.6,116.7L260.8,117.6L261.1,118L261.2,119.2L261.3,119.7L262.1,120.7L262.5,121.4L262.5,121.8L260.4,123.9L259.7,124.1L259.1,124.2L258.5,124.7L258.2,125.1L258.3,125.4L258.6,126.1L259,127.2L259.5,128L259.1,129L258.3,130.7L257.9,130.8L257.8,132.1L258.1,132.6L258.5,133L258.6,133.8L258.7,135L258.6,136L258.1,138.4L259.1,140.6L259.4,140.8L260.7,140.8L260.9,141L260.6,141.6L260,142.2L259.7,142.6L258,143.3L255.6,144.1L255.1,144.9L254.8,146L255.1,146.7L255.4,147.1L255.3,148.1L255.1,149.1L255.2,149.9L255.1,150.6L254.8,151L254.3,152.1L253.8,153.2L253.4,153.7L252.8,154.2L251.9,154.7L251.9,154.9L253,155.4L253.3,155.7L253.3,156L253.1,156.2L252.9,156.5L253.4,156.9L254,157.2L254.6,157.9L255.1,158.9L255.2,159.3L255.3,159.4L255.5,159.4L255.9,159.3L256.5,158.7L257,158.5L257.6,159.3L255.3,160.1L254.1,160.5L250.6,161.7L247.6,162.7L246.9,162.9L245.3,163.4L244.5,163.8L241.8,164.7L240.7,165.1L239.8,165.5L237.5,166.2L235.4,166.8L233.1,167.5L230.5,168.2L229.1,168.7L228.1,169.2L225.8,170.1L225.7,170.3L225.7,171L226,172.2L226.6,173.4L227.1,174.1L227.4,175.8Z" fill="#b8e653" stroke="#0c0e06" stroke-width="1"/></svg>
