<svg xmlns="http://www.w3.org/2000/svg" viewBox="0 0 400 300"><path d="M373.5,0L374,1.2L379.9,4.7L367.1,14.2L349.6,20.6L339.9,20.3L334.2,25.2L323,25.6L318.8,27.7L299.5,23.1L287.4,24.4L283,2.2L281.4,0L373.5,0Z" fill="#2c2c34" stroke="#474751" stroke-width="0.8"/><path d="M191.9,0L190.1,12.5L188.1,28.9L192.4,31.8L203.6,38.2L208,35.2L209.4,53L197.1,52.8L190.5,43.8L184.6,36.8L172.2,34.5L168.7,25.9L158.8,31.1L146,28.8L140.6,21.3L130.4,19.8L122.9,20.2L122,15.1L116.5,14.7L109.1,13.7L99.2,16.2L92.2,15.8L88.2,17.3L89,0L191.9,0Z" fill="#2c2c34" stroke="#474751" stroke-width="0.8"/><path d="M51.9,300L51.9,248.9L56.3,251.6L65.8,268.5L64.3,279.4L67.9,285.7L79.4,283.8L87.4,275.8L95.1,270.5L99,261.9L106.8,257.8L113.6,259.9L121.3,264.9L134.3,265.8L144.6,261.7L146.2,256.1L149,247.6L157.8,246.2L162.6,239.6L168,227.9L182.4,214.8L205.1,202.1L211.6,202.3L219.4,205.2L224.8,203.1L233.4,204.8L241.1,229.4L245.2,241.9L242.4,261.6L243.7,268L235.6,264.8L231,266L229.5,271.2L225.1,277.9L225.2,284.1L234.8,293.9L244.2,292L247.5,284L259.7,284.1L255.6,297.2L255.3,300L51.9,300Z" fill="#2c2c34" stroke="#474751" stroke-width="0.8"/><path d="M205.1,202.1L182.4,214.8L168,227.9L162.6,239.6L157.8,246.2L149,247.6L146.2,256.1L144.6,261.7L134.3,265.8L121.3,264.9L113.6,259.9L106.8,257.8L99,261.9L95.1,270.5L87.4,275.8L79.4,283.8L67.9,285.7L64.3,279.4L65.8,268.5L56.3,251.6L51.9,248.9L51.9,197.9L67.8,197.3L68.2,136.4L80.2,135.8L104.9,129.9L111.1,136.8L121.3,130.2L126.2,130.2L135.2,126.4L138.1,127.6L144.3,141.2L147.6,144.2L152.6,154L170.8,172.8L177.7,174.6L177.7,180.7L182.4,191.6L194.9,194.2Z" fill="#2c2c34" stroke="#474751" stroke-width="0.8"/><path d="M0,120.7L25.7,120.5L36.8,128.6L75.8,130.9L105.2,124L118.4,120.2L128.8,121.2L135.1,125L135.2,126.4L126.2,130.2L121.3,130.2L111.1,136.8L104.9,129.9L80.2,135.8L68.2,136.4L67.8,197.3L51.9,197.9L51.9,248.9L51.9,248.9L51.9,300L0,300Z" fill="#2c2c34" stroke="#474751" stroke-width="0.8"/><path d="M267.8,0L270.2,8.1L267.5,12.6L264.2,25.8L267.3,39.5L262.3,45.2L257.4,60.5L265.9,64.8L217.1,78.4L218.6,90.3L206.5,92.6L197.3,99.2L195.4,105L189.6,106.3L175.7,120.1L166.8,131.1L161.3,131.4L156.1,129.5L138.1,127.6L135.2,126.4L135.1,125L128.8,121.2L118.4,120.2L105.2,124L94.8,113.5L83.9,99.9L84.7,47.1L118.1,47.3L116.7,41.6L119.1,35.4L116.3,27.7L118.1,19.8L116.5,14.7L122,15.1L122.9,20.2L130.4,19.8L140.6,21.3L146,28.8L158.8,31.1L168.7,25.9L172.2,34.5L184.6,36.8L190.5,43.8L197.1,52.8L209.4,53L208,35.2L203.6,38.2L192.4,31.8L188.1,28.9L190.1,12.5L191.9,0L267.8,0Z" fill="#2c2c34" stroke="#474751" stroke-width="0.8"/><path d="M281.4,0L283,2.2L287.4,24.4L283,36.9L287.4,58.3L293,58.1L298.8,63.4L305.5,75.4L306.9,96.8L300,100.3L295.1,111.9L284.6,101.6L283.4,89.8L286.8,82.1L285.9,75.4L279.5,71.2L275,72.7L265.9,64.8L257.4,60.5L262.3,45.2L267.3,39.5L264.2,25.8L267.5,12.6L270.2,8.1L267.8,0L281.4,0Z" fill="#2c2c34" stroke="#474751" stroke-width="0.8"/><path d="M287.4,24.4L299.5,23.1L318.8,27.7L323,25.6L334.2,25.2L339.9,20.3L349.6,20.6L367.1,14.2L379.9,4.7L382.5,12.1L381.8,28.4L383.8,42.8L384.4,68.6L387.3,76.7L382.5,88.6L376.2,100.2L366,110.6L351.3,117L333.2,125.1L315.1,143.3L308.9,146.4L297.7,158.5L291.1,162.4L289.7,174.6L297.4,187.6L300.5,197.7L300.7,202.9L303.6,202.1L303.1,219.1L300.5,227.2L304.2,230.2L301.9,237.5L295.2,243.8L281.9,249.8L262.6,259.4L255.6,266L257,273.5L261.1,274.7L259.7,284.1L247.5,284L246.1,276L243.7,268L242.4,261.6L245.2,241.9L241.1,229.4L233.4,204.8L250.2,185.2L254.5,172.8L257,171.3L258.7,161.2L256.1,156.2L256.8,143.5L260,131.8L260,110.4L251.6,105.1L243.9,103.8L240.5,99.7L233.1,96.2L219.7,96.5L218.6,90.3L217.1,78.4L265.9,64.8L275,72.7L279.5,71.2L285.9,75.4L286.8,82.1L283.4,89.8L284.6,101.6L295.1,111.9L300,100.3L306.9,96.8L305.5,75.4L298.8,63.4L293,58.1L287.4,58.3L283,36.9Z" fill="#2c2c34" stroke="#474751" stroke-width="0.8"/><path d="M247.5,284L244.2,292L234.8,293.9L225.2,284.1L225.1,277.9L229.5,271.2L231,266L235.6,264.8L243.7,268L246.1,276Z" fill="#2c2c34" stroke="#474751" stroke-width="0.8"/><path d="M89,0L88.2,17.3L92.2,15.8L99.2,16.2L109.1,13.7L116.5,14.7L118.1,19.8L116.3,27.7L119.1,35.4L116.7,41.6L118.1,47.3L84.7,47.1L83.9,99.9L94.8,113.5L105.2,124L75.8,130.9L36.8,128.6L25.7,120.5L0,120.7L0,0Z" fill="#2c2c34" stroke="#474751" stroke-width="0.8"/><path d="M234.9,207.5L233.4,206.5L231.5,205.8L228.9,205.5L225.6,205.7L221.6,206.2L217.3,205.5L212.7,203.7L208.8,203L204.2,203.8L204,203.8L203.2,203.2L202,201.9L199.9,201.6L199.3,201.3L198.8,200.8L198.5,200.1L198.4,199.5L198.7,197.2L198.6,197L198,196.7L196.9,196.4L194.1,195.4L190.6,194.4L185,193.4L182.8,193.1L182.3,192.8L181.7,191.9L180.6,189.4L179.6,187.7L177.2,185.1L176.8,184.3L176.9,182.3L177.1,180.6L177.3,179.2L177.2,177.9L177.2,176.3L177.3,175.2L176.9,174.7L176.1,174.4L173.6,174.2L170.5,174.3L170.5,172.6L170.2,170L169.6,168.6L168.9,167.8L167.5,167L164.7,165.9L160.9,164.2L157.6,161.8L153.9,158.7L152.6,158.2L151.3,155.3L149.2,150.4L149.3,148.8L149,148L146.9,145.6L146.5,144.3L146.1,143.1L142.9,139.6L141.8,138L140.9,136.1L140.1,134.5L139.4,133.9L138.4,132.8L137.8,131.6L137.5,130.7L137.7,129.5L138.1,128.6L141.1,129.5L142.9,129.5L144.2,129.1L145.8,129.7L147.8,131.3L149.9,131.6L152.2,130.6L155.3,130.9L159.2,132.5L162.5,132.8L166.4,131.4L169.8,127.5L173.1,123.9L176.2,119.7L178.2,116.3L181,113.5L184.7,111.4L188.5,109.6L194.3,107.4L195.5,105.6L195.8,103.6L195.8,100.9L196.1,99.1L196.8,98.3L197.7,97.7L199,96.9L202.8,94.8L206,93.4L209.9,92.6L214.1,92.6L218.2,92.6L220.6,92.5L220.6,95.2L220.8,98.1L221.2,98.4L224.3,98.5L229.3,98.7L234.1,98.9L237.1,101.1L238.2,101.5L241.3,102.1L245.4,105.7L250.2,106L253.6,107.1L256.5,108.4L258.2,109.8L259.3,110.2L260.8,110.3L261.6,110.4L261.4,111.5L260.4,113.3L260.5,115.9L261.9,119.5L262.1,122.6L261.6,128.1L261.7,133.5L261.8,135.4L262,136.7L262.3,137.4L262.3,138.2L261.5,140.4L260.8,142.8L260.8,143.8L260.5,144.4L260.1,145L257.9,146.1L257.6,146.8L257.6,148L257.8,149.1L258.6,149.4L259.6,150L260,150.8L260,151.6L259.7,153.1L258.8,155.6L259.7,158.5L260.7,160.4L261.9,162.6L262.5,163.9L262.4,164.9L262.3,165.8L260.3,169.8L258.9,172.2L257.1,174.9L254.8,176.6L254.2,177.4L254,178.3L254.1,180.3L254,182.3L252,185.6L253.2,188.3L253,188.6L252.3,189L249.4,192.1L246.6,195.2L244.5,197.6L242.1,200.2L239.4,203.2L237.2,205.7Z" fill="#b8e653" stroke="#0c0e06" stroke-width="1"/></svg>
