<svg xmlns="http://www.w3.org/2000/svg" viewBox="0 0 300 300"><path fill="#e8e8ea" d="M222.5,269.5L219.5,267.4L215.4,266.1L210.1,265.5L203.3,265.8L195,266.9L186,265.5L176.3,261.6L168.3,260.2L158.8,261.9L158.3,262L156.7,260.7L154.1,257.9L149.8,257.4L148.6,256.7L147.6,255.7L146.9,254.3L146.6,252.9L147.4,248.2L147,247.7L145.8,247.1L143.5,246.5L137.7,244.5L130.5,242.4L118.9,240.2L114.3,239.6L113.2,238.9L111.9,237.3L109.6,232L107.5,228.5L102.5,223.1L101.7,221.4L101.9,217.1L102.4,213.7L102.9,210.8L102.6,208L102.5,204.6L102.7,202.3L102,201.3L100.2,200.7L95,200.4L88.7,200.5L88.5,197L87.9,191.7L86.7,188.6L85.3,187L82.4,185.3L76.5,183.1L68.6,179.6L61.7,174.5L54,168.1L51.5,167L48.6,161.1L44.3,150.9L44.5,147.5L43.9,145.8L39.6,140.8L38.8,138.2L37.9,135.6L31.2,128.3L28.9,125.1L27.1,121L25.4,117.8L23.8,116.4L21.9,114.2L20.6,111.7L20,109.8L20.5,107.3L21.2,105.5L27.6,107.3L31.2,107.5L34,106.6L37.3,107.8L41.4,111.1L45.9,111.7L50.5,109.7L57,110.3L65.2,113.6L72,114.2L80,111.3L87.2,103.3L94,95.7L100.6,86.9L104.7,79.9L110.4,74.1L118.3,69.7L126.1,66L138.1,61.4L140.6,57.6L141.3,53.5L141.3,47.8L141.9,44.2L143.3,42.5L145.2,41.2L147.8,39.5L155.8,35.1L162.4,32.4L170.6,30.5L179.3,30.5L187.9,30.5L192.8,30.5L192.8,36L193.2,42.1L194.1,42.7L200.6,42.8L211,43.3L220.8,43.7L227.2,48.2L229.4,49.1L236,50.3L244.4,57.8L254.5,58.5L261.5,60.8L267.6,63.4L271.1,66.5L273.4,67.2L276.5,67.4L278.1,67.7L277.7,69.9L275.7,73.7L275.9,79.1L278.8,86.5L279.2,93L278.2,104.5L278.3,115.7L278.6,119.7L279,122.3L279.6,123.7L279.5,125.4L277.8,130.1L276.5,135.1L276.4,137L275.9,138.4L274.9,139.7L270.5,141.9L269.8,143.3L269.8,145.9L270.3,148L271.9,148.8L274,150.1L274.7,151.7L274.7,153.4L274.1,156.5L272.3,161.7L274.1,167.8L276.2,171.6L278.8,176.1L280,178.9L279.9,181L279.5,182.9L275.4,191.1L272.4,196.3L268.8,201.8L264,205.3L262.8,206.9L262.3,208.8L262.4,213L262.3,217.3L258.2,224L260.8,229.7L260.2,230.3L258.7,231.1L252.8,237.6L246.9,244.1L242.6,248.9L237.5,254.4L232,260.6L227.3,265.8Z"/></svg>
